<?xml version="1.0" encoding="UTF-8" standalone="no"?>
<!DOCTYPE svg PUBLIC "-//W3C//DTD SVG 1.1//EN"
 "http://www.w3.org/Graphics/SVG/1.1/DTD/svg11.dtd">
<!-- Generated by graphviz version 2.38.0 (20140413.2041)
 -->
<!-- Title: CoolPubSubClient.h Pages: 1 -->
<svg width="298pt" height="84pt"
 viewBox="0.00 0.00 298.00 84.00" xmlns="http://www.w3.org/2000/svg" xmlns:xlink="http://www.w3.org/1999/xlink">
<g id="graph0" class="graph" transform="scale(1 1) rotate(0) translate(4 80)">
<title>CoolPubSubClient.h</title>
<polygon fill="white" stroke="none" points="-4,4 -4,-80 294,-80 294,4 -4,4"/>
<!-- Node0 -->
<g id="node1" class="node"><title>Node0</title>
<polygon fill="#bfbfbf" stroke="black" points="98.5,-56.5 98.5,-75.5 203.5,-75.5 203.5,-56.5 98.5,-56.5"/>
<text text-anchor="middle" x="151" y="-63.5" font-family="Helvetica,sans-Serif" font-size="10.00">CoolPubSubClient.h</text>
</g>
<!-- Node1 -->
<g id="node2" class="node"><title>Node1</title>
<polygon fill="white" stroke="#bfbfbf" points="0,-0.5 0,-19.5 58,-19.5 58,-0.5 0,-0.5"/>
<text text-anchor="middle" x="29" y="-7.5" font-family="Helvetica,sans-Serif" font-size="10.00">Arduino.h</text>
</g>
<!-- Node0&#45;&gt;Node1 -->
<g id="edge1" class="edge"><title>Node0&#45;&gt;Node1</title>
<path fill="none" stroke="midnightblue" d="M131.669,-56.4435C111.68,-47.5961 80.2569,-33.6875 57.4361,-23.5865"/>
<polygon fill="midnightblue" stroke="midnightblue" points="58.8018,-20.3635 48.2408,-19.5164 55.9685,-26.7645 58.8018,-20.3635"/>
</g>
<!-- Node2 -->
<g id="node3" class="node"><title>Node2</title>
<polygon fill="white" stroke="#bfbfbf" points="76.5,-0.5 76.5,-19.5 147.5,-19.5 147.5,-0.5 76.5,-0.5"/>
<text text-anchor="middle" x="112" y="-7.5" font-family="Helvetica,sans-Serif" font-size="10.00">IPAddress.h</text>
</g>
<!-- Node0&#45;&gt;Node2 -->
<g id="edge2" class="edge"><title>Node0&#45;&gt;Node2</title>
<path fill="none" stroke="midnightblue" d="M144.56,-56.083C139.051,-48.4554 130.969,-37.2645 124.235,-27.9408"/>
<polygon fill="midnightblue" stroke="midnightblue" points="127.013,-25.8087 118.32,-19.7511 121.338,-29.9071 127.013,-25.8087"/>
</g>
<!-- Node3 -->
<g id="node4" class="node"><title>Node3</title>
<polygon fill="white" stroke="#bfbfbf" points="166,-0.5 166,-19.5 216,-19.5 216,-0.5 166,-0.5"/>
<text text-anchor="middle" x="191" y="-7.5" font-family="Helvetica,sans-Serif" font-size="10.00">Client.h</text>
</g>
<!-- Node0&#45;&gt;Node3 -->
<g id="edge3" class="edge"><title>Node0&#45;&gt;Node3</title>
<path fill="none" stroke="midnightblue" d="M157.605,-56.083C163.255,-48.4554 171.545,-37.2645 178.451,-27.9408"/>
<polygon fill="midnightblue" stroke="midnightblue" points="181.378,-29.87 184.518,-19.7511 175.753,-25.7034 181.378,-29.87"/>
</g>
<!-- Node4 -->
<g id="node5" class="node"><title>Node4</title>
<polygon fill="white" stroke="#bfbfbf" points="234,-0.5 234,-19.5 290,-19.5 290,-0.5 234,-0.5"/>
<text text-anchor="middle" x="262" y="-7.5" font-family="Helvetica,sans-Serif" font-size="10.00">Stream.h</text>
</g>
<!-- Node0&#45;&gt;Node4 -->
<g id="edge4" class="edge"><title>Node0&#45;&gt;Node4</title>
<path fill="none" stroke="midnightblue" d="M168.834,-56.324C186.716,-47.6247 214.475,-34.1202 235.046,-24.113"/>
<polygon fill="midnightblue" stroke="midnightblue" points="236.749,-27.1765 244.21,-19.6545 233.687,-20.8819 236.749,-27.1765"/>
</g>
</g>
</svg>
