<?xml version="1.0" encoding="UTF-8" standalone="no"?>
<!DOCTYPE svg PUBLIC "-//W3C//DTD SVG 1.1//EN"
 "http://www.w3.org/Graphics/SVG/1.1/DTD/svg11.dtd">
<!-- Generated by graphviz version 2.38.0 (20140413.2041)
 -->
<!-- Title: ExternalSensor.h Pages: 1 -->
<svg width="506pt" height="151pt"
 viewBox="0.00 0.00 506.39 151.00" xmlns="http://www.w3.org/2000/svg" xmlns:xlink="http://www.w3.org/1999/xlink">
<g id="graph0" class="graph" transform="scale(1 1) rotate(0) translate(4 147)">
<title>ExternalSensor.h</title>
<polygon fill="white" stroke="none" points="-4,4 -4,-147 502.395,-147 502.395,4 -4,4"/>
<!-- Node0 -->
<g id="node1" class="node"><title>Node0</title>
<polygon fill="#bfbfbf" stroke="black" points="254,-123.5 254,-142.5 346,-142.5 346,-123.5 254,-123.5"/>
<text text-anchor="middle" x="300" y="-130.5" font-family="Helvetica,sans-Serif" font-size="10.00">ExternalSensor.h</text>
</g>
<!-- Node1 -->
<g id="node2" class="node"><title>Node1</title>
<g id="a_node2"><a xlink:href="$d0/d08/_cool_n_d_i_r___i2_c_8h.html" xlink:title="internals/CoolNDIR\l_I2C.h">
<polygon fill="white" stroke="black" points="0,-56.5 0,-86.5 102,-86.5 102,-56.5 0,-56.5"/>
<text text-anchor="start" x="8" y="-74.5" font-family="Helvetica,sans-Serif" font-size="10.00">internals/CoolNDIR</text>
<text text-anchor="middle" x="51" y="-63.5" font-family="Helvetica,sans-Serif" font-size="10.00">_I2C.h</text>
</a>
</g>
</g>
<!-- Node0&#45;&gt;Node1 -->
<g id="edge1" class="edge"><title>Node0&#45;&gt;Node1</title>
<path fill="none" stroke="midnightblue" d="M264.11,-123.493C228.092,-114.947 170.749,-101.318 111.899,-87.2116"/>
<polygon fill="midnightblue" stroke="midnightblue" points="112.601,-83.7806 102.06,-84.852 110.968,-90.5876 112.601,-83.7806"/>
</g>
<!-- Node2 -->
<g id="node3" class="node"><title>Node2</title>
<polygon fill="white" stroke="#bfbfbf" points="119.5,-62 119.5,-81 226.5,-81 226.5,-62 119.5,-62"/>
<text text-anchor="middle" x="173" y="-69" font-family="Helvetica,sans-Serif" font-size="10.00">DallasTemperature.h</text>
</g>
<!-- Node0&#45;&gt;Node2 -->
<g id="edge2" class="edge"><title>Node0&#45;&gt;Node2</title>
<path fill="none" stroke="midnightblue" d="M281.804,-123.475C260.491,-113.49 224.969,-96.8476 200.337,-85.3075"/>
<polygon fill="midnightblue" stroke="midnightblue" points="201.703,-82.0822 191.162,-81.0091 198.733,-88.4211 201.703,-82.0822"/>
</g>
<!-- Node3 -->
<g id="node4" class="node"><title>Node3</title>
<g id="a_node4"><a xlink:href="$d3/d18/_cool_adafruit___t_c_s34725_8h.html" xlink:title="internals/CoolAdafruit\l_TCS34725.h">
<polygon fill="white" stroke="black" points="245,-56.5 245,-86.5 355,-86.5 355,-56.5 245,-56.5"/>
<text text-anchor="start" x="253" y="-74.5" font-family="Helvetica,sans-Serif" font-size="10.00">internals/CoolAdafruit</text>
<text text-anchor="middle" x="300" y="-63.5" font-family="Helvetica,sans-Serif" font-size="10.00">_TCS34725.h</text>
</a>
</g>
</g>
<!-- Node0&#45;&gt;Node3 -->
<g id="edge3" class="edge"><title>Node0&#45;&gt;Node3</title>
<path fill="none" stroke="midnightblue" d="M300,-123.475C300,-116.471 300,-106.192 300,-96.6956"/>
<polygon fill="midnightblue" stroke="midnightblue" points="303.5,-96.5229 300,-86.523 296.5,-96.523 303.5,-96.5229"/>
</g>
<!-- Node5 -->
<g id="node6" class="node"><title>Node5</title>
<g id="a_node6"><a xlink:href="$df/d06/_cool_adafruit___a_d_s1015_8h.html" xlink:title="internals/CoolAdafruit\l_ADS1015.h">
<polygon fill="white" stroke="black" points="373,-56.5 373,-86.5 483,-86.5 483,-56.5 373,-56.5"/>
<text text-anchor="start" x="381" y="-74.5" font-family="Helvetica,sans-Serif" font-size="10.00">internals/CoolAdafruit</text>
<text text-anchor="middle" x="428" y="-63.5" font-family="Helvetica,sans-Serif" font-size="10.00">_ADS1015.h</text>
</a>
</g>
</g>
<!-- Node0&#45;&gt;Node5 -->
<g id="edge5" class="edge"><title>Node0&#45;&gt;Node5</title>
<path fill="none" stroke="midnightblue" d="M318.339,-123.475C336.566,-115.002 365.103,-101.737 388.497,-90.8628"/>
<polygon fill="midnightblue" stroke="midnightblue" points="390.24,-93.9122 397.833,-86.523 387.289,-87.5644 390.24,-93.9122"/>
</g>
<!-- Node6 -->
<g id="node7" class="node"><title>Node6</title>
<polygon fill="white" stroke="#bfbfbf" points="440,-0.5 440,-19.5 498,-19.5 498,-0.5 440,-0.5"/>
<text text-anchor="middle" x="469" y="-7.5" font-family="Helvetica,sans-Serif" font-size="10.00">Arduino.h</text>
</g>
<!-- Node0&#45;&gt;Node6 -->
<g id="edge7" class="edge"><title>Node0&#45;&gt;Node6</title>
<path fill="none" stroke="midnightblue" d="M346.132,-127.693C397.03,-121.874 474.135,-109.537 492,-87 505.584,-69.864 493.503,-44.7845 482.348,-28.1847"/>
<polygon fill="midnightblue" stroke="midnightblue" points="485.096,-26.0117 476.414,-19.9393 479.414,-30.1005 485.096,-26.0117"/>
</g>
<!-- Node4 -->
<g id="node5" class="node"><title>Node4</title>
<polygon fill="white" stroke="#bfbfbf" points="264.5,-0.5 264.5,-19.5 335.5,-19.5 335.5,-0.5 264.5,-0.5"/>
<text text-anchor="middle" x="300" y="-7.5" font-family="Helvetica,sans-Serif" font-size="10.00">WProgram.h</text>
</g>
<!-- Node3&#45;&gt;Node4 -->
<g id="edge4" class="edge"><title>Node3&#45;&gt;Node4</title>
<path fill="none" stroke="midnightblue" d="M300,-56.3993C300,-48.4664 300,-38.458 300,-29.8583"/>
<polygon fill="midnightblue" stroke="midnightblue" points="303.5,-29.6577 300,-19.6578 296.5,-29.6578 303.5,-29.6577"/>
</g>
<!-- Node5&#45;&gt;Node6 -->
<g id="edge6" class="edge"><title>Node5&#45;&gt;Node6</title>
<path fill="none" stroke="midnightblue" d="M437.716,-56.3993C443.551,-47.9315 451.016,-37.0991 457.19,-28.1393"/>
<polygon fill="midnightblue" stroke="midnightblue" points="460.242,-29.8781 463.034,-19.6578 454.478,-25.9062 460.242,-29.8781"/>
</g>
</g>
</svg>
