<?xml version="1.0" encoding="UTF-8" standalone="no"?>
<!DOCTYPE svg PUBLIC "-//W3C//DTD SVG 1.1//EN"
 "http://www.w3.org/Graphics/SVG/1.1/DTD/svg11.dtd">
<!-- Generated by graphviz version 2.38.0 (20140413.2041)
 -->
<!-- Title: WiFiManagerReadFileButton.h Pages: 1 -->
<svg width="260pt" height="84pt"
 viewBox="0.00 0.00 260.00 84.00" xmlns="http://www.w3.org/2000/svg" xmlns:xlink="http://www.w3.org/1999/xlink">
<g id="graph0" class="graph" transform="scale(1 1) rotate(0) translate(4 80)">
<title>WiFiManagerReadFileButton.h</title>
<polygon fill="white" stroke="none" points="-4,4 -4,-80 256,-80 256,4 -4,4"/>
<!-- Node6 -->
<g id="node1" class="node"><title>Node6</title>
<polygon fill="#bfbfbf" stroke="black" points="28.5,-56.5 28.5,-75.5 178.5,-75.5 178.5,-56.5 28.5,-56.5"/>
<text text-anchor="middle" x="103.5" y="-63.5" font-family="Helvetica,sans-Serif" font-size="10.00">WiFiManagerReadFileButton.h</text>
</g>
<!-- Node7 -->
<g id="node2" class="node"><title>Node7</title>
<g id="a_node2"><a xlink:href="../../dd/d56/_cool_wifi_8cpp.html" target="_top" xlink:title="CoolWifi Source file. ">
<polygon fill="white" stroke="black" points="0,-0.5 0,-19.5 73,-19.5 73,-0.5 0,-0.5"/>
<text text-anchor="middle" x="36.5" y="-7.5" font-family="Helvetica,sans-Serif" font-size="10.00">CoolWifi.cpp</text>
</a>
</g>
</g>
<!-- Node6&#45;&gt;Node7 -->
<g id="edge1" class="edge"><title>Node6&#45;&gt;Node7</title>
<path fill="none" stroke="midnightblue" d="M84.6652,-49.8197C72.6616,-40.1452 57.5283,-27.9481 47.4606,-19.8339"/>
<polygon fill="midnightblue" stroke="midnightblue" points="82.753,-52.7738 92.7353,-56.324 87.1457,-47.3236 82.753,-52.7738"/>
</g>
<!-- Node8 -->
<g id="node3" class="node"><title>Node8</title>
<g id="a_node3"><a xlink:href="../../d2/d82/_wi_fi_manager_read_file_button_8cpp.html" target="_top" xlink:title="WiFiManagerReadFileButton.cpp">
<polygon fill="white" stroke="black" points="91,-0.5 91,-19.5 252,-19.5 252,-0.5 91,-0.5"/>
<text text-anchor="middle" x="171.5" y="-7.5" font-family="Helvetica,sans-Serif" font-size="10.00">WiFiManagerReadFileButton.cpp</text>
</a>
</g>
</g>
<!-- Node6&#45;&gt;Node8 -->
<g id="edge2" class="edge"><title>Node6&#45;&gt;Node8</title>
<path fill="none" stroke="midnightblue" d="M122.262,-50.1008C134.5,-40.3824 150.059,-28.0269 160.376,-19.8339"/>
<polygon fill="midnightblue" stroke="midnightblue" points="120.08,-47.3642 114.425,-56.324 124.433,-52.846 120.08,-47.3642"/>
</g>
</g>
</svg>
