<?xml version="1.0" encoding="UTF-8" standalone="no"?>
<!DOCTYPE svg PUBLIC "-//W3C//DTD SVG 1.1//EN"
 "http://www.w3.org/Graphics/SVG/1.1/DTD/svg11.dtd">
<!-- Generated by graphviz version 2.38.0 (20140413.2041)
 -->
<!-- Title: CoolBoardSensors.cpp Pages: 1 -->
<svg width="459pt" height="196pt"
 viewBox="0.00 0.00 459.00 196.00" xmlns="http://www.w3.org/2000/svg" xmlns:xlink="http://www.w3.org/1999/xlink">
<g id="graph0" class="graph" transform="scale(1 1) rotate(0) translate(4 192)">
<title>CoolBoardSensors.cpp</title>
<polygon fill="white" stroke="none" points="-4,4 -4,-192 455,-192 455,4 -4,4"/>
<!-- Node0 -->
<g id="node1" class="node"><title>Node0</title>
<polygon fill="#bfbfbf" stroke="black" points="169.5,-168.5 169.5,-187.5 286.5,-187.5 286.5,-168.5 169.5,-168.5"/>
<text text-anchor="middle" x="228" y="-175.5" font-family="Helvetica,sans-Serif" font-size="10.00">CoolBoardSensors.cpp</text>
</g>
<!-- Node1 -->
<g id="node2" class="node"><title>Node1</title>
<polygon fill="white" stroke="#bfbfbf" points="0,-112.5 0,-131.5 38,-131.5 38,-112.5 0,-112.5"/>
<text text-anchor="middle" x="19" y="-119.5" font-family="Helvetica,sans-Serif" font-size="10.00">FS.h</text>
</g>
<!-- Node0&#45;&gt;Node1 -->
<g id="edge1" class="edge"><title>Node0&#45;&gt;Node1</title>
<path fill="none" stroke="midnightblue" d="M193.889,-168.45C158.402,-159.514 101.245,-145.01 52,-132 50.7405,-131.667 49.4545,-131.325 48.1558,-130.979"/>
<polygon fill="midnightblue" stroke="midnightblue" points="48.7475,-127.513 38.181,-128.287 46.9236,-134.271 48.7475,-127.513"/>
</g>
<!-- Node2 -->
<g id="node3" class="node"><title>Node2</title>
<polygon fill="white" stroke="#bfbfbf" points="393,-0.5 393,-19.5 451,-19.5 451,-0.5 393,-0.5"/>
<text text-anchor="middle" x="422" y="-7.5" font-family="Helvetica,sans-Serif" font-size="10.00">Arduino.h</text>
</g>
<!-- Node0&#45;&gt;Node2 -->
<g id="edge2" class="edge"><title>Node0&#45;&gt;Node2</title>
<path fill="none" stroke="midnightblue" d="M286.512,-170.689C318.674,-164.845 357.84,-153.604 387,-132 410.774,-114.386 414.662,-104.389 423,-76 427.428,-60.9245 426.744,-43.0224 425.199,-29.8266"/>
<polygon fill="midnightblue" stroke="midnightblue" points="428.62,-29.028 423.726,-19.6312 421.692,-30.0289 428.62,-29.028"/>
</g>
<!-- Node3 -->
<g id="node4" class="node"><title>Node3</title>
<polygon fill="white" stroke="#bfbfbf" points="96.5,-0.5 96.5,-19.5 145.5,-19.5 145.5,-0.5 96.5,-0.5"/>
<text text-anchor="middle" x="121" y="-7.5" font-family="Helvetica,sans-Serif" font-size="10.00">stdint.h</text>
</g>
<!-- Node0&#45;&gt;Node3 -->
<g id="edge3" class="edge"><title>Node0&#45;&gt;Node3</title>
<path fill="none" stroke="midnightblue" d="M204.327,-168.425C170.638,-154.777 110.163,-124.58 85,-76 76.1716,-58.9561 89.7681,-39.7659 102.704,-26.6825"/>
<polygon fill="midnightblue" stroke="midnightblue" points="105.188,-29.1507 110.069,-19.7472 100.389,-24.0544 105.188,-29.1507"/>
</g>
<!-- Node4 -->
<g id="node5" class="node"><title>Node4</title>
<polygon fill="white" stroke="#bfbfbf" points="299.5,-112.5 299.5,-131.5 378.5,-131.5 378.5,-112.5 299.5,-112.5"/>
<text text-anchor="middle" x="339" y="-119.5" font-family="Helvetica,sans-Serif" font-size="10.00">ArduinoJson.h</text>
</g>
<!-- Node0&#45;&gt;Node4 -->
<g id="edge4" class="edge"><title>Node0&#45;&gt;Node4</title>
<path fill="none" stroke="midnightblue" d="M245.834,-168.324C263.716,-159.625 291.475,-146.12 312.046,-136.113"/>
<polygon fill="midnightblue" stroke="midnightblue" points="313.749,-139.177 321.21,-131.655 310.687,-132.882 313.749,-139.177"/>
</g>
<!-- Node5 -->
<g id="node6" class="node"><title>Node5</title>
<g id="a_node6"><a xlink:href="$d7/df3/_cool_board_sensors_8h.html" xlink:title="CoolBoardSensors Header file. ">
<polygon fill="white" stroke="black" points="174.5,-112.5 174.5,-131.5 281.5,-131.5 281.5,-112.5 174.5,-112.5"/>
<text text-anchor="middle" x="228" y="-119.5" font-family="Helvetica,sans-Serif" font-size="10.00">CoolBoardSensors.h</text>
</a>
</g>
</g>
<!-- Node0&#45;&gt;Node5 -->
<g id="edge5" class="edge"><title>Node0&#45;&gt;Node5</title>
<path fill="none" stroke="midnightblue" d="M228,-168.083C228,-161.006 228,-150.861 228,-141.986"/>
<polygon fill="midnightblue" stroke="midnightblue" points="231.5,-141.751 228,-131.751 224.5,-141.751 231.5,-141.751"/>
</g>
<!-- Node5&#45;&gt;Node2 -->
<g id="edge6" class="edge"><title>Node5&#45;&gt;Node2</title>
<path fill="none" stroke="midnightblue" d="M281.817,-113.113C326.615,-105.504 385.756,-92.6897 403,-76 415.399,-63.9998 419.826,-44.3952 421.347,-29.8495"/>
<polygon fill="midnightblue" stroke="midnightblue" points="424.863,-29.7225 422.04,-19.5108 417.879,-29.2542 424.863,-29.7225"/>
</g>
<!-- Node6 -->
<g id="node7" class="node"><title>Node6</title>
<g id="a_node7"><a xlink:href="$d1/dd7/_cool_s_i114_x_8h.html" xlink:title="internals/CoolSI114X.h">
<polygon fill="white" stroke="black" points="276.5,-56.5 276.5,-75.5 393.5,-75.5 393.5,-56.5 276.5,-56.5"/>
<text text-anchor="middle" x="335" y="-63.5" font-family="Helvetica,sans-Serif" font-size="10.00">internals/CoolSI114X.h</text>
</a>
</g>
</g>
<!-- Node5&#45;&gt;Node6 -->
<g id="edge7" class="edge"><title>Node5&#45;&gt;Node6</title>
<path fill="none" stroke="midnightblue" d="M245.191,-112.324C262.351,-103.664 288.946,-90.2424 308.747,-80.249"/>
<polygon fill="midnightblue" stroke="midnightblue" points="310.501,-83.2847 317.851,-75.6545 307.347,-77.0354 310.501,-83.2847"/>
</g>
<!-- Node7 -->
<g id="node8" class="node"><title>Node7</title>
<g id="a_node8"><a xlink:href="$d2/d3a/_cool_spark_fun_b_m_e280_8h.html" xlink:title="internals/CoolSparkFunBME280.h">
<polygon fill="white" stroke="black" points="94,-56.5 94,-75.5 258,-75.5 258,-56.5 94,-56.5"/>
<text text-anchor="middle" x="176" y="-63.5" font-family="Helvetica,sans-Serif" font-size="10.00">internals/CoolSparkFunBME280.h</text>
</a>
</g>
</g>
<!-- Node5&#45;&gt;Node7 -->
<g id="edge9" class="edge"><title>Node5&#45;&gt;Node7</title>
<path fill="none" stroke="midnightblue" d="M219.413,-112.083C211.841,-104.22 200.622,-92.5688 191.486,-83.0813"/>
<polygon fill="midnightblue" stroke="midnightblue" points="193.885,-80.5266 184.427,-75.7511 188.842,-85.3821 193.885,-80.5266"/>
</g>
<!-- Node6&#45;&gt;Node2 -->
<g id="edge8" class="edge"><title>Node6&#45;&gt;Node2</title>
<path fill="none" stroke="midnightblue" d="M348.978,-56.324C362.55,-47.9002 383.38,-34.9709 399.325,-25.0741"/>
<polygon fill="midnightblue" stroke="midnightblue" points="401.406,-27.9019 408.057,-19.6545 397.714,-21.9544 401.406,-27.9019"/>
</g>
<!-- Node7&#45;&gt;Node3 -->
<g id="edge10" class="edge"><title>Node7&#45;&gt;Node3</title>
<path fill="none" stroke="midnightblue" d="M166.918,-56.083C158.829,-48.1409 146.805,-36.3354 137.09,-26.7973"/>
<polygon fill="midnightblue" stroke="midnightblue" points="139.501,-24.2595 129.913,-19.7511 134.597,-29.2545 139.501,-24.2595"/>
</g>
</g>
</svg>
