<?xml version="1.0" encoding="UTF-8" standalone="no"?>
<!DOCTYPE svg PUBLIC "-//W3C//DTD SVG 1.1//EN"
 "http://www.w3.org/Graphics/SVG/1.1/DTD/svg11.dtd">
<!-- Generated by graphviz version 2.38.0 (20140413.2041)
 -->
<!-- Title: Irene3000::setGain Pages: 1 -->
<!--zoomable 218 -->
<svg id="main" version="1.1" xmlns="http://www.w3.org/2000/svg" xmlns:xlink="http://www.w3.org/1999/xlink" xml:space="preserve" onload="init(evt)">
<style type="text/css"><![CDATA[
.edge:hover path { stroke: red; }
.edge:hover polygon { stroke: red; fill: red; }
]]></style>
<script type="text/javascript"><![CDATA[
var edges = document.getElementsByTagName('g');
if (edges && edges.length) {
  for (var i=0;i<edges.length;i++) {
    if (edges[i].id.substr(0,4)=='edge') {
      edges[i].setAttribute('class','edge');
    }
  }
}
]]></script>
        <defs>
                <circle id="rim" cx="0" cy="0" r="7"/>
                <circle id="rim2" cx="0" cy="0" r="3.5"/>
                <g id="zoomPlus">
                        <use xlink:href="#rim" fill="#404040">
                                <set attributeName="fill" to="#808080" begin="zoomplus.mouseover" end="zoomplus.mouseout"/>
                        </use>
                        <path d="M-4,0h8M0,-4v8" fill="none" stroke="white" stroke-width="1.5" pointer-events="none"/>
                </g>
                <g id="zoomMin">
                        <use xlink:href="#rim" fill="#404040">
                                <set attributeName="fill" to="#808080" begin="zoomminus.mouseover" end="zoomminus.mouseout"/>
                        </use>
                        <path d="M-4,0h8" fill="none" stroke="white" stroke-width="1.5" pointer-events="none"/>
                </g>
                <g id="dirArrow">
                        <path fill="none" stroke="white" stroke-width="1.5" d="M0,-3.0v7 M-2.5,-0.5L0,-3.0L2.5,-0.5"/>
                </g>
               <g id="resetDef">
                       <use xlink:href="#rim2" fill="#404040">
                               <set attributeName="fill" to="#808080" begin="reset.mouseover" end="reset.mouseout"/>
                       </use>
               </g>
        </defs>

<script type="text/javascript">
var viewWidth = 740;
var viewHeight = 218;
var sectionId = 'dynsection-13';
</script>
<script xlink:href="../../svgpan.js"/>
<svg id="graph" class="graph">
<g id="viewport">
<title>Irene3000::setGain</title>
<polygon fill="white" stroke="none" points="-4,4 -4,-214 736,-214 736,4 -4,4"/>
<!-- Node51 -->
<g id="node1" class="node"><title>Node51</title>
<polygon fill="#bfbfbf" stroke="black" points="0,-95.5 0,-114.5 99,-114.5 99,-95.5 0,-95.5"/>
<text text-anchor="middle" x="49.5" y="-102.5" font-family="Helvetica,sans-Serif" font-size="10.00">Irene3000::setGain</text>
</g>
<!-- Node52 -->
<g id="node2" class="node"><title>Node52</title>
<g id="a_node2"><a xlink:href="../../d6/d03/class_irene3000.html#aa140dd026922a04981edfd04d46cabbe" target="_top" xlink:title="Irene3000::calibratepH4">
<polygon fill="white" stroke="black" points="148,-190.5 148,-209.5 268,-209.5 268,-190.5 148,-190.5"/>
<text text-anchor="middle" x="208" y="-197.5" font-family="Helvetica,sans-Serif" font-size="10.00">Irene3000::calibratepH4</text>
</a>
</g>
</g>
<!-- Node51&#45;&gt;Node52 -->
<g id="edge1" class="edge"><title>Node51&#45;&gt;Node52</title>
<path fill="none" stroke="midnightblue" d="M65.0629,-122.212C80.651,-139.552 106.952,-165.85 135,-181 142.166,-184.871 150.165,-187.987 158.154,-190.486"/>
<polygon fill="midnightblue" stroke="midnightblue" points="67.5336,-119.721 58.3105,-114.507 62.2691,-124.334 67.5336,-119.721"/>
</g>
<!-- Node57 -->
<g id="node7" class="node"><title>Node57</title>
<g id="a_node7"><a xlink:href="../../d6/d03/class_irene3000.html#a1d3299202e4cb7afcff9c9e3e95d94c1" target="_top" xlink:title="Irene3000::calibratepH7">
<polygon fill="white" stroke="black" points="148,-152.5 148,-171.5 268,-171.5 268,-152.5 148,-152.5"/>
<text text-anchor="middle" x="208" y="-159.5" font-family="Helvetica,sans-Serif" font-size="10.00">Irene3000::calibratepH7</text>
</a>
</g>
</g>
<!-- Node51&#45;&gt;Node57 -->
<g id="edge6" class="edge"><title>Node51&#45;&gt;Node57</title>
<path fill="none" stroke="midnightblue" d="M78.6898,-119.083C94.8945,-126.82 115.788,-136.197 135,-143 144.871,-146.495 155.704,-149.681 165.901,-152.403"/>
<polygon fill="midnightblue" stroke="midnightblue" points="79.7884,-115.726 69.263,-114.515 76.736,-122.025 79.7884,-115.726"/>
</g>
<!-- Node58 -->
<g id="node8" class="node"><title>Node58</title>
<g id="a_node8"><a xlink:href="../../d6/d03/class_irene3000.html#ae73bd2ed14a199a7e83f4d6458476a7c" target="_top" xlink:title="Irene3000::readADSChannel2">
<polygon fill="white" stroke="black" points="135,-76.5 135,-95.5 281,-95.5 281,-76.5 135,-76.5"/>
<text text-anchor="middle" x="208" y="-83.5" font-family="Helvetica,sans-Serif" font-size="10.00">Irene3000::readADSChannel2</text>
</a>
</g>
</g>
<!-- Node51&#45;&gt;Node58 -->
<g id="edge9" class="edge"><title>Node51&#45;&gt;Node58</title>
<path fill="none" stroke="midnightblue" d="M109.178,-97.8761C117.544,-96.8605 126.229,-95.806 134.816,-94.7635"/>
<polygon fill="midnightblue" stroke="midnightblue" points="108.665,-94.4126 99.1597,-99.0924 109.509,-101.362 108.665,-94.4126"/>
</g>
<!-- Node62 -->
<g id="node12" class="node"><title>Node62</title>
<g id="a_node12"><a xlink:href="../../d6/d03/class_irene3000.html#a78a87eb7cf295b95c12b2ebd51c2bb77" target="_top" xlink:title="Irene3000::readButton">
<polygon fill="white" stroke="black" points="151.5,-114.5 151.5,-133.5 264.5,-133.5 264.5,-114.5 151.5,-114.5"/>
<text text-anchor="middle" x="208" y="-121.5" font-family="Helvetica,sans-Serif" font-size="10.00">Irene3000::readButton</text>
</a>
</g>
</g>
<!-- Node51&#45;&gt;Node62 -->
<g id="edge14" class="edge"><title>Node51&#45;&gt;Node62</title>
<path fill="none" stroke="midnightblue" d="M109.445,-112.156C123.15,-113.82 137.698,-115.586 151.259,-117.233"/>
<polygon fill="midnightblue" stroke="midnightblue" points="109.509,-108.638 99.1597,-110.908 108.665,-115.587 109.509,-108.638"/>
</g>
<!-- Node63 -->
<g id="node13" class="node"><title>Node63</title>
<g id="a_node13"><a xlink:href="../../d6/d03/class_irene3000.html#a436fc0a06681cd0784aba56b9707f19a" target="_top" xlink:title="Irene3000::readPh">
<polygon fill="white" stroke="black" points="160,-38.5 160,-57.5 256,-57.5 256,-38.5 160,-38.5"/>
<text text-anchor="middle" x="208" y="-45.5" font-family="Helvetica,sans-Serif" font-size="10.00">Irene3000::readPh</text>
</a>
</g>
</g>
<!-- Node51&#45;&gt;Node63 -->
<g id="edge16" class="edge"><title>Node51&#45;&gt;Node63</title>
<path fill="none" stroke="midnightblue" d="M78.6898,-90.9171C94.8945,-83.18 115.788,-73.8026 135,-67 144.871,-63.5048 155.704,-60.3193 165.901,-57.5974"/>
<polygon fill="midnightblue" stroke="midnightblue" points="76.736,-87.9745 69.263,-95.4849 79.7884,-94.2739 76.736,-87.9745"/>
</g>
<!-- Node64 -->
<g id="node14" class="node"><title>Node64</title>
<g id="a_node14"><a xlink:href="../../d6/d03/class_irene3000.html#a80bc6dfea106dc3bc54fa20204d4d5dc" target="_top" xlink:title="Irene3000::readTemp">
<polygon fill="white" stroke="black" points="153.5,-0.5 153.5,-19.5 262.5,-19.5 262.5,-0.5 153.5,-0.5"/>
<text text-anchor="middle" x="208" y="-7.5" font-family="Helvetica,sans-Serif" font-size="10.00">Irene3000::readTemp</text>
</a>
</g>
</g>
<!-- Node51&#45;&gt;Node64 -->
<g id="edge18" class="edge"><title>Node51&#45;&gt;Node64</title>
<path fill="none" stroke="midnightblue" d="M65.0629,-87.7883C80.651,-70.4476 106.952,-44.1498 135,-29 142.166,-25.1293 150.165,-22.013 158.154,-19.5143"/>
<polygon fill="midnightblue" stroke="midnightblue" points="62.2691,-85.6658 58.3105,-95.4933 67.5336,-90.2794 62.2691,-85.6658"/>
</g>
<!-- Node53 -->
<g id="node3" class="node"><title>Node53</title>
<g id="a_node3"><a xlink:href="../../d7/df9/class_cool_board.html#a8612756d3f73198cdde857a66f0fe690" target="_top" xlink:title="CoolBoard::update">
<polygon fill="white" stroke="black" points="317,-171.5 317,-190.5 415,-190.5 415,-171.5 317,-171.5"/>
<text text-anchor="middle" x="366" y="-178.5" font-family="Helvetica,sans-Serif" font-size="10.00">CoolBoard::update</text>
</a>
</g>
</g>
<!-- Node52&#45;&gt;Node53 -->
<g id="edge2" class="edge"><title>Node52&#45;&gt;Node53</title>
<path fill="none" stroke="midnightblue" d="M278.677,-191.514C291.581,-189.942 304.793,-188.333 316.877,-186.861"/>
<polygon fill="midnightblue" stroke="midnightblue" points="277.925,-188.079 268.422,-192.763 278.772,-195.028 277.925,-188.079"/>
</g>
<!-- Node55 -->
<g id="node5" class="node"><title>Node55</title>
<g id="a_node5"><a xlink:href="../../d6/d03/class_irene3000.html#ad5891806c500ae1007afe52b9e304c2b" target="_top" xlink:title="Irene3000::begin">
<polygon fill="white" stroke="black" points="321.5,-133.5 321.5,-152.5 410.5,-152.5 410.5,-133.5 321.5,-133.5"/>
<text text-anchor="middle" x="366" y="-140.5" font-family="Helvetica,sans-Serif" font-size="10.00">Irene3000::begin</text>
</a>
</g>
</g>
<!-- Node52&#45;&gt;Node55 -->
<g id="edge4" class="edge"><title>Node52&#45;&gt;Node55</title>
<path fill="none" stroke="midnightblue" d="M261.466,-187.655C268.116,-185.654 274.769,-183.43 281,-181 297.855,-174.427 300.565,-169.563 317,-162 324.165,-158.703 332.076,-155.428 339.373,-152.549"/>
<polygon fill="midnightblue" stroke="midnightblue" points="260.426,-184.312 251.774,-190.427 262.351,-191.042 260.426,-184.312"/>
</g>
<!-- Node54 -->
<g id="node4" class="node"><title>Node54</title>
<g id="a_node4"><a xlink:href="../../d7/df9/class_cool_board.html#aa0bbc4bc605e35618d18e68795c61363" target="_top" xlink:title="CoolBoard::onLineMode">
<polygon fill="white" stroke="black" points="610.5,-142.5 610.5,-161.5 731.5,-161.5 731.5,-142.5 610.5,-142.5"/>
<text text-anchor="middle" x="671" y="-149.5" font-family="Helvetica,sans-Serif" font-size="10.00">CoolBoard::onLineMode</text>
</a>
</g>
</g>
<!-- Node53&#45;&gt;Node54 -->
<g id="edge3" class="edge"><title>Node53&#45;&gt;Node54</title>
<path fill="none" stroke="midnightblue" d="M425.314,-175.84C466.797,-172.122 523.837,-166.915 574,-162 585.757,-160.848 598.32,-159.572 610.352,-158.328"/>
<polygon fill="midnightblue" stroke="midnightblue" points="424.765,-172.375 415.117,-176.752 425.389,-179.347 424.765,-172.375"/>
</g>
<!-- Node56 -->
<g id="node6" class="node"><title>Node56</title>
<g id="a_node6"><a xlink:href="../../d7/df9/class_cool_board.html#acba7c5aef7268b2c0044bdb54d3b9d76" target="_top" xlink:title="CoolBoard::begin">
<polygon fill="white" stroke="black" points="466.5,-133.5 466.5,-152.5 558.5,-152.5 558.5,-133.5 466.5,-133.5"/>
<text text-anchor="middle" x="512.5" y="-140.5" font-family="Helvetica,sans-Serif" font-size="10.00">CoolBoard::begin</text>
</a>
</g>
</g>
<!-- Node55&#45;&gt;Node56 -->
<g id="edge5" class="edge"><title>Node55&#45;&gt;Node56</title>
<path fill="none" stroke="midnightblue" d="M420.902,-143C435.88,-143 451.985,-143 466.401,-143"/>
<polygon fill="midnightblue" stroke="midnightblue" points="420.747,-139.5 410.747,-143 420.747,-146.5 420.747,-139.5"/>
</g>
<!-- Node57&#45;&gt;Node53 -->
<g id="edge7" class="edge"><title>Node57&#45;&gt;Node53</title>
<path fill="none" stroke="midnightblue" d="M278.677,-170.486C291.581,-172.058 304.793,-173.667 316.877,-175.139"/>
<polygon fill="midnightblue" stroke="midnightblue" points="278.772,-166.972 268.422,-169.237 277.925,-173.921 278.772,-166.972"/>
</g>
<!-- Node57&#45;&gt;Node55 -->
<g id="edge8" class="edge"><title>Node57&#45;&gt;Node55</title>
<path fill="none" stroke="midnightblue" d="M278.418,-153.545C292.986,-151.771 307.959,-149.947 321.27,-148.326"/>
<polygon fill="midnightblue" stroke="midnightblue" points="277.925,-150.079 268.422,-154.763 278.772,-157.028 277.925,-150.079"/>
</g>
<!-- Node59 -->
<g id="node9" class="node"><title>Node59</title>
<g id="a_node9"><a xlink:href="../../d6/d03/class_irene3000.html#a852a170feea994ea1df01c6b245b5d9a" target="_top" xlink:title="Irene3000::read">
<polygon fill="white" stroke="black" points="324,-47.5 324,-66.5 408,-66.5 408,-47.5 324,-47.5"/>
<text text-anchor="middle" x="366" y="-54.5" font-family="Helvetica,sans-Serif" font-size="10.00">Irene3000::read</text>
</a>
</g>
</g>
<!-- Node58&#45;&gt;Node59 -->
<g id="edge10" class="edge"><title>Node58&#45;&gt;Node59</title>
<path fill="none" stroke="midnightblue" d="M270.593,-74.5501C288.491,-71.2229 307.596,-67.6712 323.904,-64.6396"/>
<polygon fill="midnightblue" stroke="midnightblue" points="269.704,-71.1552 260.513,-76.4239 270.984,-78.0372 269.704,-71.1552"/>
</g>
<!-- Node60 -->
<g id="node10" class="node"><title>Node60</title>
<g id="a_node10"><a xlink:href="../../d7/df9/class_cool_board.html#ad03abdce2e65f520bbf2cff0f2d083cf" target="_top" xlink:title="CoolBoard::readSensors">
<polygon fill="white" stroke="black" points="451,-66.5 451,-85.5 574,-85.5 574,-66.5 451,-66.5"/>
<text text-anchor="middle" x="512.5" y="-73.5" font-family="Helvetica,sans-Serif" font-size="10.00">CoolBoard::readSensors</text>
</a>
</g>
</g>
<!-- Node59&#45;&gt;Node60 -->
<g id="edge11" class="edge"><title>Node59&#45;&gt;Node60</title>
<path fill="none" stroke="midnightblue" d="M417.997,-63.7055C428.654,-65.1067 439.987,-66.5969 450.952,-68.0386"/>
<polygon fill="midnightblue" stroke="midnightblue" points="418.392,-60.2274 408.021,-62.3938 417.48,-67.1677 418.392,-60.2274"/>
</g>
<!-- Node60&#45;&gt;Node54 -->
<g id="edge13" class="edge"><title>Node60&#45;&gt;Node54</title>
<path fill="none" stroke="midnightblue" d="M542.45,-90.0588C573.858,-105.311 623.146,-129.246 650.34,-142.453"/>
<polygon fill="midnightblue" stroke="midnightblue" points="543.845,-86.8455 533.321,-85.6255 540.787,-93.1423 543.845,-86.8455"/>
</g>
<!-- Node61 -->
<g id="node11" class="node"><title>Node61</title>
<g id="a_node11"><a xlink:href="../../d7/df9/class_cool_board.html#ae6b5e1274d760462290192acea4adca8" target="_top" xlink:title="CoolBoard::offLineMode">
<polygon fill="white" stroke="black" points="610,-66.5 610,-85.5 732,-85.5 732,-66.5 610,-66.5"/>
<text text-anchor="middle" x="671" y="-73.5" font-family="Helvetica,sans-Serif" font-size="10.00">CoolBoard::offLineMode</text>
</a>
</g>
</g>
<!-- Node60&#45;&gt;Node61 -->
<g id="edge12" class="edge"><title>Node60&#45;&gt;Node61</title>
<path fill="none" stroke="midnightblue" d="M584.059,-76C592.692,-76 601.452,-76 609.912,-76"/>
<polygon fill="midnightblue" stroke="midnightblue" points="584.007,-72.5001 574.007,-76 584.007,-79.5001 584.007,-72.5001"/>
</g>
<!-- Node62&#45;&gt;Node55 -->
<g id="edge15" class="edge"><title>Node62&#45;&gt;Node55</title>
<path fill="none" stroke="midnightblue" d="M275.019,-132.041C290.635,-133.943 306.907,-135.925 321.25,-137.672"/>
<polygon fill="midnightblue" stroke="midnightblue" points="275.229,-128.541 264.879,-130.806 274.382,-135.489 275.229,-128.541"/>
</g>
<!-- Node63&#45;&gt;Node59 -->
<g id="edge17" class="edge"><title>Node63&#45;&gt;Node59</title>
<path fill="none" stroke="midnightblue" d="M266.295,-51.3055C285.339,-52.4041 306.157,-53.6052 323.745,-54.6199"/>
<polygon fill="midnightblue" stroke="midnightblue" points="266.414,-47.8066 256.228,-50.7247 266.01,-54.795 266.414,-47.8066"/>
</g>
<!-- Node64&#45;&gt;Node59 -->
<g id="edge19" class="edge"><title>Node64&#45;&gt;Node59</title>
<path fill="none" stroke="midnightblue" d="M256.651,-22.1162C264.799,-24.3189 273.161,-26.6619 281,-29 300.15,-34.7121 321.512,-41.8433 337.902,-47.4793"/>
<polygon fill="midnightblue" stroke="midnightblue" points="257.432,-18.7022 246.868,-19.5088 255.629,-25.4661 257.432,-18.7022"/>
</g>
</g>
</svg>
        <g id="navigator" transform="translate(0 0)" fill="#404254">
                <rect fill="#f2f5e9" fill-opacity="0.5" stroke="#606060" stroke-width=".5" x="0" y="0" width="60" height="60"/>
                <use id="zoomplus" xlink:href="#zoomPlus" x="17" y="9" onmousedown="handleZoom(evt,'in')"/>
                <use id="zoomminus" xlink:href="#zoomMin" x="42" y="9" onmousedown="handleZoom(evt,'out')"/>
                <use id="reset" xlink:href="#resetDef" x="30" y="36" onmousedown="handleReset()"/>
                <g id="arrowUp" xlink:href="#dirArrow" transform="translate(30 24)" onmousedown="handlePan(0,-1)">
                  <use xlink:href="#rim" fill="#404040">
                        <set attributeName="fill" to="#808080" begin="arrowUp.mouseover" end="arrowUp.mouseout"/>
                  </use>
                  <path fill="none" stroke="white" stroke-width="1.5" d="M0,-3.0v7 M-2.5,-0.5L0,-3.0L2.5,-0.5"/>
                </g>
                <g id="arrowRight" xlink:href="#dirArrow" transform="rotate(90) translate(36 -43)" onmousedown="handlePan(1,0)">
                  <use xlink:href="#rim" fill="#404040">
                        <set attributeName="fill" to="#808080" begin="arrowRight.mouseover" end="arrowRight.mouseout"/>
                  </use>
                  <path fill="none" stroke="white" stroke-width="1.5" d="M0,-3.0v7 M-2.5,-0.5L0,-3.0L2.5,-0.5"/>
                </g>
                <g id="arrowDown" xlink:href="#dirArrow" transform="rotate(180) translate(-30 -48)" onmousedown="handlePan(0,1)">
                  <use xlink:href="#rim" fill="#404040">
                        <set attributeName="fill" to="#808080" begin="arrowDown.mouseover" end="arrowDown.mouseout"/>
                  </use>
                  <path fill="none" stroke="white" stroke-width="1.5" d="M0,-3.0v7 M-2.5,-0.5L0,-3.0L2.5,-0.5"/>
                </g>
                <g id="arrowLeft" xlink:href="#dirArrow" transform="rotate(270) translate(-36 17)" onmousedown="handlePan(-1,0)">
                  <use xlink:href="#rim" fill="#404040">
                        <set attributeName="fill" to="#808080" begin="arrowLeft.mouseover" end="arrowLeft.mouseout"/>
                  </use>
                  <path fill="none" stroke="white" stroke-width="1.5" d="M0,-3.0v7 M-2.5,-0.5L0,-3.0L2.5,-0.5"/>
                </g>
        </g>
        <svg viewBox="0 0 15 15" width="100%" height="30px" preserveAspectRatio="xMaxYMin meet">
         <g id="arrow_out" transform="scale(0.3 0.3)">
          <a xlink:href="class_irene3000_aff7c5da186b388e7272e63ff88a20c34_icgraph_org.svg" target="_base">
           <rect id="button" ry="5" rx="5" y="6" x="6" height="38" width="38"
                fill="#f2f5e9" fill-opacity="0.5" stroke="#606060" stroke-width="1.0"/>
           <path id="arrow"
             d="M 11.500037,31.436501 C 11.940474,20.09759 22.043105,11.32322 32.158766,21.979434 L 37.068811,17.246167 C 37.068811,17.246167 37.088388,32 37.088388,32 L 22.160133,31.978069 C 22.160133,31.978069 26.997745,27.140456 26.997745,27.140456 C 18.528582,18.264221 13.291696,25.230495 11.500037,31.436501 z"
             style="fill:#404040;"/>
          </a>
         </g>
        </svg>
</svg>
