<?xml version="1.0" encoding="UTF-8" standalone="no"?>
<!DOCTYPE svg PUBLIC "-//W3C//DTD SVG 1.1//EN"
 "http://www.w3.org/Graphics/SVG/1.1/DTD/svg11.dtd">
<!-- Generated by graphviz version 2.38.0 (20140413.2041)
 -->
<!-- Title: Irene3000::readPh Pages: 1 -->
<svg width="543pt" height="107pt"
 viewBox="0.00 0.00 543.00 107.00" xmlns="http://www.w3.org/2000/svg" xmlns:xlink="http://www.w3.org/1999/xlink">
<g id="graph0" class="graph" transform="scale(1 1) rotate(0) translate(4 103)">
<title>Irene3000::readPh</title>
<polygon fill="white" stroke="none" points="-4,4 -4,-103 539,-103 539,4 -4,4"/>
<!-- Node78 -->
<g id="node1" class="node"><title>Node78</title>
<polygon fill="#bfbfbf" stroke="black" points="0,-22.5 0,-41.5 96,-41.5 96,-22.5 0,-22.5"/>
<text text-anchor="middle" x="48" y="-29.5" font-family="Helvetica,sans-Serif" font-size="10.00">Irene3000::readPh</text>
</g>
<!-- Node79 -->
<g id="node2" class="node"><title>Node79</title>
<g id="a_node2"><a xlink:href="../../df/df6/class_adafruit___a_d_s1015.html#a40f38b9e1f3ec397c0670dd632510235" target="_top" xlink:title="Gets a single&#45;ended ADC reading from the specified channel. ">
<polygon fill="white" stroke="black" points="132,-39 132,-69 276,-69 276,-39 132,-39"/>
<text text-anchor="start" x="140" y="-57" font-family="Helvetica,sans-Serif" font-size="10.00">Adafruit_ADS1015::readADC</text>
<text text-anchor="middle" x="204" y="-46" font-family="Helvetica,sans-Serif" font-size="10.00">_SingleEnded</text>
</a>
</g>
</g>
<!-- Node78&#45;&gt;Node79 -->
<g id="edge1" class="edge"><title>Node78&#45;&gt;Node79</title>
<path fill="none" stroke="midnightblue" d="M96.0419,-38.7203C104.268,-39.8954 113.035,-41.1478 121.874,-42.4106"/>
<polygon fill="midnightblue" stroke="midnightblue" points="121.466,-45.8877 131.86,-43.8372 122.456,-38.958 121.466,-45.8877"/>
</g>
<!-- Node84 -->
<g id="node7" class="node"><title>Node84</title>
<g id="a_node7"><a xlink:href="../../d6/d03/class_irene3000.html#aff7c5da186b388e7272e63ff88a20c34" target="_top" xlink:title="Irene3000::setGain">
<polygon fill="white" stroke="black" points="154.5,-0.5 154.5,-19.5 253.5,-19.5 253.5,-0.5 154.5,-0.5"/>
<text text-anchor="middle" x="204" y="-7.5" font-family="Helvetica,sans-Serif" font-size="10.00">Irene3000::setGain</text>
</a>
</g>
</g>
<!-- Node78&#45;&gt;Node84 -->
<g id="edge7" class="edge"><title>Node78&#45;&gt;Node84</title>
<path fill="none" stroke="midnightblue" d="M96.0419,-25.2797C111.207,-23.1133 128.209,-20.6845 144.117,-18.4119"/>
<polygon fill="midnightblue" stroke="midnightblue" points="144.978,-21.8245 154.382,-16.9454 143.988,-14.8948 144.978,-21.8245"/>
</g>
<!-- Node80 -->
<g id="node3" class="node"><title>Node80</title>
<g id="a_node3"><a xlink:href="../../d8/daa/_cool_adafruit___a_d_s1015_8cpp.html#a319539381b7551b2f83a92b0b596e97d" target="_top" xlink:title="Writes 16&#45;bits to the specified destination register. ">
<polygon fill="white" stroke="black" points="344.5,-79.5 344.5,-98.5 416.5,-98.5 416.5,-79.5 344.5,-79.5"/>
<text text-anchor="middle" x="380.5" y="-86.5" font-family="Helvetica,sans-Serif" font-size="10.00">readRegister</text>
</a>
</g>
</g>
<!-- Node79&#45;&gt;Node80 -->
<g id="edge2" class="edge"><title>Node79&#45;&gt;Node80</title>
<path fill="none" stroke="midnightblue" d="M276.228,-68.2863C295.765,-72.205 316.412,-76.3462 334.067,-79.8874"/>
<polygon fill="midnightblue" stroke="midnightblue" points="333.592,-83.3618 344.085,-81.8968 334.969,-76.4985 333.592,-83.3618"/>
</g>
<!-- Node83 -->
<g id="node6" class="node"><title>Node83</title>
<g id="a_node6"><a xlink:href="../../d8/daa/_cool_adafruit___a_d_s1015_8cpp.html#a00ef55774dfb93dd0a7bf561d8451b71" target="_top" xlink:title="Writes 16&#45;bits to the specified destination register. ">
<polygon fill="white" stroke="black" points="343.5,-41.5 343.5,-60.5 417.5,-60.5 417.5,-41.5 343.5,-41.5"/>
<text text-anchor="middle" x="380.5" y="-48.5" font-family="Helvetica,sans-Serif" font-size="10.00">writeRegister</text>
</a>
</g>
</g>
<!-- Node79&#45;&gt;Node83 -->
<g id="edge5" class="edge"><title>Node79&#45;&gt;Node83</title>
<path fill="none" stroke="midnightblue" d="M276.228,-52.7755C295.27,-52.4481 315.367,-52.1026 332.72,-51.8042"/>
<polygon fill="midnightblue" stroke="midnightblue" points="333.198,-55.2966 343.136,-51.6252 333.078,-48.2977 333.198,-55.2966"/>
</g>
<!-- Node81 -->
<g id="node4" class="node"><title>Node81</title>
<g id="a_node4"><a xlink:href="../../d8/daa/_cool_adafruit___a_d_s1015_8cpp.html#af89e2442d757f6ec8100c473022f6701" target="_top" xlink:title="Abstract away platform differences in Arduino wire library. ">
<polygon fill="white" stroke="black" points="486,-79.5 486,-98.5 534,-98.5 534,-79.5 486,-79.5"/>
<text text-anchor="middle" x="510" y="-86.5" font-family="Helvetica,sans-Serif" font-size="10.00">i2cread</text>
</a>
</g>
</g>
<!-- Node80&#45;&gt;Node81 -->
<g id="edge3" class="edge"><title>Node80&#45;&gt;Node81</title>
<path fill="none" stroke="midnightblue" d="M416.677,-89C435.162,-89 457.688,-89 475.862,-89"/>
<polygon fill="midnightblue" stroke="midnightblue" points="475.996,-92.5001 485.996,-89 475.996,-85.5001 475.996,-92.5001"/>
</g>
<!-- Node82 -->
<g id="node5" class="node"><title>Node82</title>
<g id="a_node5"><a xlink:href="../../d8/daa/_cool_adafruit___a_d_s1015_8cpp.html#a6db5edba66e20bba6d5b421c2789af54" target="_top" xlink:title="Abstract away platform differences in Arduino wire library. ">
<polygon fill="white" stroke="black" points="485,-41.5 485,-60.5 535,-60.5 535,-41.5 485,-41.5"/>
<text text-anchor="middle" x="510" y="-48.5" font-family="Helvetica,sans-Serif" font-size="10.00">i2cwrite</text>
</a>
</g>
</g>
<!-- Node80&#45;&gt;Node82 -->
<g id="edge4" class="edge"><title>Node80&#45;&gt;Node82</title>
<path fill="none" stroke="midnightblue" d="M416.248,-79.4506C426.788,-76.4917 438.386,-73.1735 449,-70 457.502,-67.4579 466.649,-64.6163 475.176,-61.9213"/>
<polygon fill="midnightblue" stroke="midnightblue" points="476.356,-65.2187 484.824,-58.8515 474.234,-58.5481 476.356,-65.2187"/>
</g>
<!-- Node83&#45;&gt;Node82 -->
<g id="edge6" class="edge"><title>Node83&#45;&gt;Node82</title>
<path fill="none" stroke="midnightblue" d="M417.695,-51C435.498,-51 456.851,-51 474.43,-51"/>
<polygon fill="midnightblue" stroke="midnightblue" points="474.821,-54.5001 484.821,-51 474.821,-47.5001 474.821,-54.5001"/>
</g>
<!-- Node85 -->
<g id="node8" class="node"><title>Node85</title>
<g id="a_node8"><a xlink:href="../../df/df6/class_adafruit___a_d_s1015.html#a399441eace686975ff22937cbe45cc50" target="_top" xlink:title="Sets the gain and input voltage range. ">
<polygon fill="white" stroke="black" points="312,-0.5 312,-19.5 449,-19.5 449,-0.5 312,-0.5"/>
<text text-anchor="middle" x="380.5" y="-7.5" font-family="Helvetica,sans-Serif" font-size="10.00">Adafruit_ADS1015::setGain</text>
</a>
</g>
</g>
<!-- Node84&#45;&gt;Node85 -->
<g id="edge8" class="edge"><title>Node84&#45;&gt;Node85</title>
<path fill="none" stroke="midnightblue" d="M253.608,-10C268.557,-10 285.402,-10 301.793,-10"/>
<polygon fill="midnightblue" stroke="midnightblue" points="301.919,-13.5001 311.919,-10 301.919,-6.5001 301.919,-13.5001"/>
</g>
</g>
</svg>
