<?xml version="1.0" encoding="UTF-8" standalone="no"?>
<!DOCTYPE svg PUBLIC "-//W3C//DTD SVG 1.1//EN"
 "http://www.w3.org/Graphics/SVG/1.1/DTD/svg11.dtd">
<!-- Generated by graphviz version 2.38.0 (20140413.2041)
 -->
<!-- Title: Irene3000::read Pages: 1 -->
<svg width="713pt" height="123pt"
 viewBox="0.00 0.00 713.00 123.00" xmlns="http://www.w3.org/2000/svg" xmlns:xlink="http://www.w3.org/1999/xlink">
<g id="graph0" class="graph" transform="scale(1 1) rotate(0) translate(4 119)">
<title>Irene3000::read</title>
<polygon fill="white" stroke="none" points="-4,4 -4,-119 709,-119 709,4 -4,4"/>
<!-- Node23 -->
<g id="node1" class="node"><title>Node23</title>
<polygon fill="#bfbfbf" stroke="black" points="0,-57.5 0,-76.5 84,-76.5 84,-57.5 0,-57.5"/>
<text text-anchor="middle" x="42" y="-64.5" font-family="Helvetica,sans-Serif" font-size="10.00">Irene3000::read</text>
</g>
<!-- Node24 -->
<g id="node2" class="node"><title>Node24</title>
<g id="a_node2"><a xlink:href="../../d6/d03/class_irene3000.html#ae73bd2ed14a199a7e83f4d6458476a7c" target="_top" xlink:title="Irene3000::readADSChannel2">
<polygon fill="white" stroke="black" points="120,-95.5 120,-114.5 266,-114.5 266,-95.5 120,-95.5"/>
<text text-anchor="middle" x="193" y="-102.5" font-family="Helvetica,sans-Serif" font-size="10.00">Irene3000::readADSChannel2</text>
</a>
</g>
</g>
<!-- Node23&#45;&gt;Node24 -->
<g id="edge1" class="edge"><title>Node23&#45;&gt;Node24</title>
<path fill="none" stroke="midnightblue" d="M80.599,-76.589C100.084,-81.5583 124.075,-87.6767 144.796,-92.9613"/>
<polygon fill="midnightblue" stroke="midnightblue" points="144.117,-96.4001 154.671,-95.4799 145.846,-89.6172 144.117,-96.4001"/>
</g>
<!-- Node32 -->
<g id="node10" class="node"><title>Node32</title>
<g id="a_node10"><a xlink:href="../../d6/d03/class_irene3000.html#a436fc0a06681cd0784aba56b9707f19a" target="_top" xlink:title="Irene3000::readPh">
<polygon fill="white" stroke="black" points="145,-57.5 145,-76.5 241,-76.5 241,-57.5 145,-57.5"/>
<text text-anchor="middle" x="193" y="-64.5" font-family="Helvetica,sans-Serif" font-size="10.00">Irene3000::readPh</text>
</a>
</g>
</g>
<!-- Node23&#45;&gt;Node32 -->
<g id="edge10" class="edge"><title>Node23&#45;&gt;Node32</title>
<path fill="none" stroke="midnightblue" d="M84.1093,-67C99.7314,-67 117.823,-67 134.675,-67"/>
<polygon fill="midnightblue" stroke="midnightblue" points="134.975,-70.5001 144.975,-67 134.974,-63.5001 134.975,-70.5001"/>
</g>
<!-- Node33 -->
<g id="node11" class="node"><title>Node33</title>
<g id="a_node11"><a xlink:href="../../d6/d03/class_irene3000.html#a80bc6dfea106dc3bc54fa20204d4d5dc" target="_top" xlink:title="Irene3000::readTemp">
<polygon fill="white" stroke="black" points="138.5,-19.5 138.5,-38.5 247.5,-38.5 247.5,-19.5 138.5,-19.5"/>
<text text-anchor="middle" x="193" y="-26.5" font-family="Helvetica,sans-Serif" font-size="10.00">Irene3000::readTemp</text>
</a>
</g>
</g>
<!-- Node23&#45;&gt;Node33 -->
<g id="edge13" class="edge"><title>Node23&#45;&gt;Node33</title>
<path fill="none" stroke="midnightblue" d="M80.599,-57.411C100.084,-52.4417 124.075,-46.3233 144.796,-41.0387"/>
<polygon fill="midnightblue" stroke="midnightblue" points="145.846,-44.3828 154.671,-38.5201 144.117,-37.5999 145.846,-44.3828"/>
</g>
<!-- Node25 -->
<g id="node3" class="node"><title>Node25</title>
<g id="a_node3"><a xlink:href="../../d6/d03/class_irene3000.html#aff7c5da186b388e7272e63ff88a20c34" target="_top" xlink:title="Irene3000::setGain">
<polygon fill="white" stroke="black" points="324.5,-79.5 324.5,-98.5 423.5,-98.5 423.5,-79.5 324.5,-79.5"/>
<text text-anchor="middle" x="374" y="-86.5" font-family="Helvetica,sans-Serif" font-size="10.00">Irene3000::setGain</text>
</a>
</g>
</g>
<!-- Node24&#45;&gt;Node25 -->
<g id="edge2" class="edge"><title>Node24&#45;&gt;Node25</title>
<path fill="none" stroke="midnightblue" d="M266.032,-98.5613C281.977,-97.1362 298.691,-95.6422 314.042,-94.27"/>
<polygon fill="midnightblue" stroke="midnightblue" points="314.778,-97.7183 324.426,-93.3418 314.154,-90.7461 314.778,-97.7183"/>
</g>
<!-- Node27 -->
<g id="node5" class="node"><title>Node27</title>
<g id="a_node5"><a xlink:href="../../df/df6/class_adafruit___a_d_s1015.html#a40f38b9e1f3ec397c0670dd632510235" target="_top" xlink:title="Gets a single&#45;ended ADC reading from the specified channel. ">
<polygon fill="white" stroke="black" points="302,-30 302,-60 446,-60 446,-30 302,-30"/>
<text text-anchor="start" x="310" y="-48" font-family="Helvetica,sans-Serif" font-size="10.00">Adafruit_ADS1015::readADC</text>
<text text-anchor="middle" x="374" y="-37" font-family="Helvetica,sans-Serif" font-size="10.00">_SingleEnded</text>
</a>
</g>
</g>
<!-- Node24&#45;&gt;Node27 -->
<g id="edge4" class="edge"><title>Node24&#45;&gt;Node27</title>
<path fill="none" stroke="midnightblue" d="M234.711,-95.4729C245.018,-92.7295 255.999,-89.5164 266,-86 282.518,-80.1921 285.73,-76.4683 302,-70 307.446,-67.8351 313.162,-65.6615 318.887,-63.5487"/>
<polygon fill="midnightblue" stroke="midnightblue" points="320.281,-66.7665 328.485,-60.0627 317.891,-60.1871 320.281,-66.7665"/>
</g>
<!-- Node26 -->
<g id="node4" class="node"><title>Node26</title>
<g id="a_node4"><a xlink:href="../../df/df6/class_adafruit___a_d_s1015.html#a399441eace686975ff22937cbe45cc50" target="_top" xlink:title="Sets the gain and input voltage range. ">
<polygon fill="white" stroke="black" points="482,-79.5 482,-98.5 619,-98.5 619,-79.5 482,-79.5"/>
<text text-anchor="middle" x="550.5" y="-86.5" font-family="Helvetica,sans-Serif" font-size="10.00">Adafruit_ADS1015::setGain</text>
</a>
</g>
</g>
<!-- Node25&#45;&gt;Node26 -->
<g id="edge3" class="edge"><title>Node25&#45;&gt;Node26</title>
<path fill="none" stroke="midnightblue" d="M423.608,-89C438.557,-89 455.402,-89 471.793,-89"/>
<polygon fill="midnightblue" stroke="midnightblue" points="471.919,-92.5001 481.919,-89 471.919,-85.5001 471.919,-92.5001"/>
</g>
<!-- Node28 -->
<g id="node6" class="node"><title>Node28</title>
<g id="a_node6"><a xlink:href="../../d8/daa/_cool_adafruit___a_d_s1015_8cpp.html#a319539381b7551b2f83a92b0b596e97d" target="_top" xlink:title="Writes 16&#45;bits to the specified destination register. ">
<polygon fill="white" stroke="black" points="514.5,-0.5 514.5,-19.5 586.5,-19.5 586.5,-0.5 514.5,-0.5"/>
<text text-anchor="middle" x="550.5" y="-7.5" font-family="Helvetica,sans-Serif" font-size="10.00">readRegister</text>
</a>
</g>
</g>
<!-- Node27&#45;&gt;Node28 -->
<g id="edge5" class="edge"><title>Node27&#45;&gt;Node28</title>
<path fill="none" stroke="midnightblue" d="M446.228,-30.7137C465.765,-26.795 486.412,-22.6538 504.067,-19.1126"/>
<polygon fill="midnightblue" stroke="midnightblue" points="504.969,-22.5015 514.085,-17.1032 503.592,-15.6382 504.969,-22.5015"/>
</g>
<!-- Node31 -->
<g id="node9" class="node"><title>Node31</title>
<g id="a_node9"><a xlink:href="../../d8/daa/_cool_adafruit___a_d_s1015_8cpp.html#a00ef55774dfb93dd0a7bf561d8451b71" target="_top" xlink:title="Writes 16&#45;bits to the specified destination register. ">
<polygon fill="white" stroke="black" points="513.5,-38.5 513.5,-57.5 587.5,-57.5 587.5,-38.5 513.5,-38.5"/>
<text text-anchor="middle" x="550.5" y="-45.5" font-family="Helvetica,sans-Serif" font-size="10.00">writeRegister</text>
</a>
</g>
</g>
<!-- Node27&#45;&gt;Node31 -->
<g id="edge8" class="edge"><title>Node27&#45;&gt;Node31</title>
<path fill="none" stroke="midnightblue" d="M446.228,-46.2245C465.27,-46.5519 485.367,-46.8974 502.72,-47.1958"/>
<polygon fill="midnightblue" stroke="midnightblue" points="503.078,-50.7023 513.136,-47.3748 503.198,-43.7034 503.078,-50.7023"/>
</g>
<!-- Node29 -->
<g id="node7" class="node"><title>Node29</title>
<g id="a_node7"><a xlink:href="../../d8/daa/_cool_adafruit___a_d_s1015_8cpp.html#af89e2442d757f6ec8100c473022f6701" target="_top" xlink:title="Abstract away platform differences in Arduino wire library. ">
<polygon fill="white" stroke="black" points="656,-0.5 656,-19.5 704,-19.5 704,-0.5 656,-0.5"/>
<text text-anchor="middle" x="680" y="-7.5" font-family="Helvetica,sans-Serif" font-size="10.00">i2cread</text>
</a>
</g>
</g>
<!-- Node28&#45;&gt;Node29 -->
<g id="edge6" class="edge"><title>Node28&#45;&gt;Node29</title>
<path fill="none" stroke="midnightblue" d="M586.677,-10C605.162,-10 627.688,-10 645.862,-10"/>
<polygon fill="midnightblue" stroke="midnightblue" points="645.996,-13.5001 655.996,-10 645.996,-6.5001 645.996,-13.5001"/>
</g>
<!-- Node30 -->
<g id="node8" class="node"><title>Node30</title>
<g id="a_node8"><a xlink:href="../../d8/daa/_cool_adafruit___a_d_s1015_8cpp.html#a6db5edba66e20bba6d5b421c2789af54" target="_top" xlink:title="Abstract away platform differences in Arduino wire library. ">
<polygon fill="white" stroke="black" points="655,-38.5 655,-57.5 705,-57.5 705,-38.5 655,-38.5"/>
<text text-anchor="middle" x="680" y="-45.5" font-family="Helvetica,sans-Serif" font-size="10.00">i2cwrite</text>
</a>
</g>
</g>
<!-- Node28&#45;&gt;Node30 -->
<g id="edge7" class="edge"><title>Node28&#45;&gt;Node30</title>
<path fill="none" stroke="midnightblue" d="M586.248,-19.5494C596.788,-22.5083 608.386,-25.8265 619,-29 627.502,-31.5421 636.649,-34.3837 645.176,-37.0787"/>
<polygon fill="midnightblue" stroke="midnightblue" points="644.234,-40.4519 654.824,-40.1485 646.356,-33.7813 644.234,-40.4519"/>
</g>
<!-- Node31&#45;&gt;Node30 -->
<g id="edge9" class="edge"><title>Node31&#45;&gt;Node30</title>
<path fill="none" stroke="midnightblue" d="M587.695,-48C605.498,-48 626.851,-48 644.43,-48"/>
<polygon fill="midnightblue" stroke="midnightblue" points="644.821,-51.5001 654.821,-48 644.821,-44.5001 644.821,-51.5001"/>
</g>
<!-- Node32&#45;&gt;Node25 -->
<g id="edge11" class="edge"><title>Node32&#45;&gt;Node25</title>
<path fill="none" stroke="midnightblue" d="M241.03,-72.7802C263.508,-75.5428 290.638,-78.8773 314.439,-81.8026"/>
<polygon fill="midnightblue" stroke="midnightblue" points="314.06,-85.2823 324.412,-83.0284 314.914,-78.3345 314.06,-85.2823"/>
</g>
<!-- Node32&#45;&gt;Node27 -->
<g id="edge12" class="edge"><title>Node32&#45;&gt;Node27</title>
<path fill="none" stroke="midnightblue" d="M241.03,-61.2198C256.53,-59.3148 274.241,-57.1379 291.548,-55.0108"/>
<polygon fill="midnightblue" stroke="midnightblue" points="292.173,-58.4604 301.672,-53.7666 291.319,-51.5127 292.173,-58.4604"/>
</g>
<!-- Node33&#45;&gt;Node25 -->
<g id="edge14" class="edge"><title>Node33&#45;&gt;Node25</title>
<path fill="none" stroke="midnightblue" d="M238.03,-38.5993C247.419,-41.2026 257.163,-44.336 266,-48 283.111,-55.0944 284.949,-61.7641 302,-69 308.416,-71.7225 315.312,-74.1913 322.195,-76.3913"/>
<polygon fill="midnightblue" stroke="midnightblue" points="321.627,-79.876 332.212,-79.4203 323.654,-73.1757 321.627,-79.876"/>
</g>
<!-- Node33&#45;&gt;Node27 -->
<g id="edge15" class="edge"><title>Node33&#45;&gt;Node27</title>
<path fill="none" stroke="midnightblue" d="M247.706,-33.8005C261.512,-35.0346 276.678,-36.3902 291.545,-37.7191"/>
<polygon fill="midnightblue" stroke="midnightblue" points="291.498,-41.2288 301.77,-38.6331 292.122,-34.2566 291.498,-41.2288"/>
</g>
</g>
</svg>
