<?xml version="1.0" encoding="UTF-8" standalone="no"?>
<!DOCTYPE svg PUBLIC "-//W3C//DTD SVG 1.1//EN"
 "http://www.w3.org/Graphics/SVG/1.1/DTD/svg11.dtd">
<!-- Generated by graphviz version 2.38.0 (20140413.2041)
 -->
<!-- Title: Irene3000::readTemp Pages: 1 -->
<!--zoomable 66 -->
<svg id="main" version="1.1" xmlns="http://www.w3.org/2000/svg" xmlns:xlink="http://www.w3.org/1999/xlink" xml:space="preserve" onload="init(evt)">
<style type="text/css"><![CDATA[
.edge:hover path { stroke: red; }
.edge:hover polygon { stroke: red; fill: red; }
]]></style>
<script type="text/javascript"><![CDATA[
var edges = document.getElementsByTagName('g');
if (edges && edges.length) {
  for (var i=0;i<edges.length;i++) {
    if (edges[i].id.substr(0,4)=='edge') {
      edges[i].setAttribute('class','edge');
    }
  }
}
]]></script>
        <defs>
                <circle id="rim" cx="0" cy="0" r="7"/>
                <circle id="rim2" cx="0" cy="0" r="3.5"/>
                <g id="zoomPlus">
                        <use xlink:href="#rim" fill="#404040">
                                <set attributeName="fill" to="#808080" begin="zoomplus.mouseover" end="zoomplus.mouseout"/>
                        </use>
                        <path d="M-4,0h8M0,-4v8" fill="none" stroke="white" stroke-width="1.5" pointer-events="none"/>
                </g>
                <g id="zoomMin">
                        <use xlink:href="#rim" fill="#404040">
                                <set attributeName="fill" to="#808080" begin="zoomminus.mouseover" end="zoomminus.mouseout"/>
                        </use>
                        <path d="M-4,0h8" fill="none" stroke="white" stroke-width="1.5" pointer-events="none"/>
                </g>
                <g id="dirArrow">
                        <path fill="none" stroke="white" stroke-width="1.5" d="M0,-3.0v7 M-2.5,-0.5L0,-3.0L2.5,-0.5"/>
                </g>
               <g id="resetDef">
                       <use xlink:href="#rim2" fill="#404040">
                               <set attributeName="fill" to="#808080" begin="reset.mouseover" end="reset.mouseout"/>
                       </use>
               </g>
        </defs>

<script type="text/javascript">
var viewWidth = 554;
var viewHeight = 66;
var sectionId = 'dynsection-19';
</script>
<script xlink:href="../../svgpan.js"/>
<svg id="graph" class="graph">
<g id="viewport">
<title>Irene3000::readTemp</title>
<polygon fill="white" stroke="none" points="-4,4 -4,-62 550,-62 550,4 -4,4"/>
<!-- Node99 -->
<g id="node1" class="node"><title>Node99</title>
<polygon fill="#bfbfbf" stroke="black" points="0,-19.5 0,-38.5 109,-38.5 109,-19.5 0,-19.5"/>
<text text-anchor="middle" x="54.5" y="-26.5" font-family="Helvetica,sans-Serif" font-size="10.00">Irene3000::readTemp</text>
</g>
<!-- Node100 -->
<g id="node2" class="node"><title>Node100</title>
<g id="a_node2"><a xlink:href="../../d6/d03/class_irene3000.html#a852a170feea994ea1df01c6b245b5d9a" target="_top" xlink:title="Irene3000::read">
<polygon fill="white" stroke="black" points="145,-19.5 145,-38.5 229,-38.5 229,-19.5 145,-19.5"/>
<text text-anchor="middle" x="187" y="-26.5" font-family="Helvetica,sans-Serif" font-size="10.00">Irene3000::read</text>
</a>
</g>
</g>
<!-- Node99&#45;&gt;Node100 -->
<g id="edge1" class="edge"><title>Node99&#45;&gt;Node100</title>
<path fill="none" stroke="midnightblue" d="M119.371,-29C127.966,-29 136.592,-29 144.653,-29"/>
<polygon fill="midnightblue" stroke="midnightblue" points="119.333,-25.5001 109.333,-29 119.333,-32.5001 119.333,-25.5001"/>
</g>
<!-- Node101 -->
<g id="node3" class="node"><title>Node101</title>
<g id="a_node3"><a xlink:href="../../d7/df9/class_cool_board.html#ad03abdce2e65f520bbf2cff0f2d083cf" target="_top" xlink:title="CoolBoard::readSensors">
<polygon fill="white" stroke="black" points="265,-19.5 265,-38.5 388,-38.5 388,-19.5 265,-19.5"/>
<text text-anchor="middle" x="326.5" y="-26.5" font-family="Helvetica,sans-Serif" font-size="10.00">CoolBoard::readSensors</text>
</a>
</g>
</g>
<!-- Node100&#45;&gt;Node101 -->
<g id="edge2" class="edge"><title>Node100&#45;&gt;Node101</title>
<path fill="none" stroke="midnightblue" d="M239.529,-29C247.823,-29 256.474,-29 264.956,-29"/>
<polygon fill="midnightblue" stroke="midnightblue" points="239.255,-25.5001 229.255,-29 239.254,-32.5001 239.255,-25.5001"/>
</g>
<!-- Node102 -->
<g id="node4" class="node"><title>Node102</title>
<g id="a_node4"><a xlink:href="../../d7/df9/class_cool_board.html#ae6b5e1274d760462290192acea4adca8" target="_top" xlink:title="CoolBoard::offLineMode">
<polygon fill="white" stroke="black" points="424,-38.5 424,-57.5 546,-57.5 546,-38.5 424,-38.5"/>
<text text-anchor="middle" x="485" y="-45.5" font-family="Helvetica,sans-Serif" font-size="10.00">CoolBoard::offLineMode</text>
</a>
</g>
</g>
<!-- Node101&#45;&gt;Node102 -->
<g id="edge3" class="edge"><title>Node101&#45;&gt;Node102</title>
<path fill="none" stroke="midnightblue" d="M398.059,-37.5662C406.692,-38.6144 415.452,-39.6779 423.912,-40.7049"/>
<polygon fill="midnightblue" stroke="midnightblue" points="398.356,-34.0767 388.007,-36.3459 397.512,-41.0257 398.356,-34.0767"/>
</g>
<!-- Node103 -->
<g id="node5" class="node"><title>Node103</title>
<g id="a_node5"><a xlink:href="../../d7/df9/class_cool_board.html#aa0bbc4bc605e35618d18e68795c61363" target="_top" xlink:title="CoolBoard::onLineMode">
<polygon fill="white" stroke="black" points="424.5,-0.5 424.5,-19.5 545.5,-19.5 545.5,-0.5 424.5,-0.5"/>
<text text-anchor="middle" x="485" y="-7.5" font-family="Helvetica,sans-Serif" font-size="10.00">CoolBoard::onLineMode</text>
</a>
</g>
</g>
<!-- Node101&#45;&gt;Node103 -->
<g id="edge4" class="edge"><title>Node101&#45;&gt;Node103</title>
<path fill="none" stroke="midnightblue" d="M398.207,-20.4158C406.968,-19.3522 415.856,-18.2731 424.427,-17.2325"/>
<polygon fill="midnightblue" stroke="midnightblue" points="397.512,-16.9743 388.007,-21.6541 398.356,-23.9233 397.512,-16.9743"/>
</g>
</g>
</svg>
        <g id="navigator" transform="translate(0 0)" fill="#404254">
                <rect fill="#f2f5e9" fill-opacity="0.5" stroke="#606060" stroke-width=".5" x="0" y="0" width="60" height="60"/>
                <use id="zoomplus" xlink:href="#zoomPlus" x="17" y="9" onmousedown="handleZoom(evt,'in')"/>
                <use id="zoomminus" xlink:href="#zoomMin" x="42" y="9" onmousedown="handleZoom(evt,'out')"/>
                <use id="reset" xlink:href="#resetDef" x="30" y="36" onmousedown="handleReset()"/>
                <g id="arrowUp" xlink:href="#dirArrow" transform="translate(30 24)" onmousedown="handlePan(0,-1)">
                  <use xlink:href="#rim" fill="#404040">
                        <set attributeName="fill" to="#808080" begin="arrowUp.mouseover" end="arrowUp.mouseout"/>
                  </use>
                  <path fill="none" stroke="white" stroke-width="1.5" d="M0,-3.0v7 M-2.5,-0.5L0,-3.0L2.5,-0.5"/>
                </g>
                <g id="arrowRight" xlink:href="#dirArrow" transform="rotate(90) translate(36 -43)" onmousedown="handlePan(1,0)">
                  <use xlink:href="#rim" fill="#404040">
                        <set attributeName="fill" to="#808080" begin="arrowRight.mouseover" end="arrowRight.mouseout"/>
                  </use>
                  <path fill="none" stroke="white" stroke-width="1.5" d="M0,-3.0v7 M-2.5,-0.5L0,-3.0L2.5,-0.5"/>
                </g>
                <g id="arrowDown" xlink:href="#dirArrow" transform="rotate(180) translate(-30 -48)" onmousedown="handlePan(0,1)">
                  <use xlink:href="#rim" fill="#404040">
                        <set attributeName="fill" to="#808080" begin="arrowDown.mouseover" end="arrowDown.mouseout"/>
                  </use>
                  <path fill="none" stroke="white" stroke-width="1.5" d="M0,-3.0v7 M-2.5,-0.5L0,-3.0L2.5,-0.5"/>
                </g>
                <g id="arrowLeft" xlink:href="#dirArrow" transform="rotate(270) translate(-36 17)" onmousedown="handlePan(-1,0)">
                  <use xlink:href="#rim" fill="#404040">
                        <set attributeName="fill" to="#808080" begin="arrowLeft.mouseover" end="arrowLeft.mouseout"/>
                  </use>
                  <path fill="none" stroke="white" stroke-width="1.5" d="M0,-3.0v7 M-2.5,-0.5L0,-3.0L2.5,-0.5"/>
                </g>
        </g>
        <svg viewBox="0 0 15 15" width="100%" height="30px" preserveAspectRatio="xMaxYMin meet">
         <g id="arrow_out" transform="scale(0.3 0.3)">
          <a xlink:href="class_irene3000_a80bc6dfea106dc3bc54fa20204d4d5dc_icgraph_org.svg" target="_base">
           <rect id="button" ry="5" rx="5" y="6" x="6" height="38" width="38"
                fill="#f2f5e9" fill-opacity="0.5" stroke="#606060" stroke-width="1.0"/>
           <path id="arrow"
             d="M 11.500037,31.436501 C 11.940474,20.09759 22.043105,11.32322 32.158766,21.979434 L 37.068811,17.246167 C 37.068811,17.246167 37.088388,32 37.088388,32 L 22.160133,31.978069 C 22.160133,31.978069 26.997745,27.140456 26.997745,27.140456 C 18.528582,18.264221 13.291696,25.230495 11.500037,31.436501 z"
             style="fill:#404040;"/>
          </a>
         </g>
        </svg>
</svg>
