<?xml version="1.0" encoding="UTF-8" standalone="no"?>
<!DOCTYPE svg PUBLIC "-//W3C//DTD SVG 1.1//EN"
 "http://www.w3.org/Graphics/SVG/1.1/DTD/svg11.dtd">
<!-- Generated by graphviz version 2.38.0 (20140413.2041)
 -->
<!-- Title: BME280::readRegister Pages: 1 -->
<svg width="605pt" height="104pt"
 viewBox="0.00 0.00 605.00 104.00" xmlns="http://www.w3.org/2000/svg" xmlns:xlink="http://www.w3.org/1999/xlink">
<g id="graph0" class="graph" transform="scale(1 1) rotate(0) translate(4 100)">
<title>BME280::readRegister</title>
<polygon fill="white" stroke="none" points="-4,4 -4,-100 601,-100 601,4 -4,4"/>
<!-- Node63 -->
<g id="node1" class="node"><title>Node63</title>
<polygon fill="#bfbfbf" stroke="black" points="0,-57.5 0,-76.5 116,-76.5 116,-57.5 0,-57.5"/>
<text text-anchor="middle" x="58" y="-64.5" font-family="Helvetica,sans-Serif" font-size="10.00">BME280::readRegister</text>
</g>
<!-- Node64 -->
<g id="node2" class="node"><title>Node64</title>
<g id="a_node2"><a xlink:href="../../df/dcf/class_b_m_e280.html#a994c102f010547f9c740a338ef9905c7" target="_top" xlink:title="BME280::begin">
<polygon fill="white" stroke="black" points="172,-76.5 172,-95.5 255,-95.5 255,-76.5 172,-76.5"/>
<text text-anchor="middle" x="213.5" y="-83.5" font-family="Helvetica,sans-Serif" font-size="10.00">BME280::begin</text>
</a>
</g>
</g>
<!-- Node63&#45;&gt;Node64 -->
<g id="edge1" class="edge"><title>Node63&#45;&gt;Node64</title>
<path fill="none" stroke="midnightblue" d="M126.212,-75.3194C141.668,-77.2325 157.647,-79.2104 171.592,-80.9364"/>
<polygon fill="midnightblue" stroke="midnightblue" points="126.512,-71.8299 116.158,-74.0749 125.652,-78.7769 126.512,-71.8299"/>
</g>
<!-- Node67 -->
<g id="node5" class="node"><title>Node67</title>
<g id="a_node5"><a xlink:href="../../de/d46/class_cool_board_sensors.html#a91badb2539d91fda8679f2a597874c48" target="_top" xlink:title="CoolBoardSensors::read">
<polygon fill="white" stroke="black" points="152,-38.5 152,-57.5 275,-57.5 275,-38.5 152,-38.5"/>
<text text-anchor="middle" x="213.5" y="-45.5" font-family="Helvetica,sans-Serif" font-size="10.00">CoolBoardSensors::read</text>
</a>
</g>
</g>
<!-- Node63&#45;&gt;Node67 -->
<g id="edge4" class="edge"><title>Node63&#45;&gt;Node67</title>
<path fill="none" stroke="midnightblue" d="M126.138,-58.6897C134.727,-57.6267 143.478,-56.5434 151.953,-55.4944"/>
<polygon fill="midnightblue" stroke="midnightblue" points="125.652,-55.2231 116.158,-59.9251 126.512,-62.1701 125.652,-55.2231"/>
</g>
<!-- Node65 -->
<g id="node3" class="node"><title>Node65</title>
<g id="a_node3"><a xlink:href="../../de/d46/class_cool_board_sensors.html#a97095823ef7c8f5290812f1405b966b3" target="_top" xlink:title="CoolBoardSensors::begin">
<polygon fill="white" stroke="black" points="311,-76.5 311,-95.5 439,-95.5 439,-76.5 311,-76.5"/>
<text text-anchor="middle" x="375" y="-83.5" font-family="Helvetica,sans-Serif" font-size="10.00">CoolBoardSensors::begin</text>
</a>
</g>
</g>
<!-- Node64&#45;&gt;Node65 -->
<g id="edge2" class="edge"><title>Node64&#45;&gt;Node65</title>
<path fill="none" stroke="midnightblue" d="M265.381,-86C279.815,-86 295.707,-86 310.776,-86"/>
<polygon fill="midnightblue" stroke="midnightblue" points="265.161,-82.5001 255.161,-86 265.161,-89.5001 265.161,-82.5001"/>
</g>
<!-- Node66 -->
<g id="node4" class="node"><title>Node66</title>
<g id="a_node4"><a xlink:href="../../d7/df9/class_cool_board.html#acba7c5aef7268b2c0044bdb54d3b9d76" target="_top" xlink:title="CoolBoard::begin">
<polygon fill="white" stroke="black" points="490,-76.5 490,-95.5 582,-95.5 582,-76.5 490,-76.5"/>
<text text-anchor="middle" x="536" y="-83.5" font-family="Helvetica,sans-Serif" font-size="10.00">CoolBoard::begin</text>
</a>
</g>
</g>
<!-- Node65&#45;&gt;Node66 -->
<g id="edge3" class="edge"><title>Node65&#45;&gt;Node66</title>
<path fill="none" stroke="midnightblue" d="M449.634,-86C463.244,-86 477.085,-86 489.548,-86"/>
<polygon fill="midnightblue" stroke="midnightblue" points="449.298,-82.5001 439.298,-86 449.298,-89.5001 449.298,-82.5001"/>
</g>
<!-- Node68 -->
<g id="node6" class="node"><title>Node68</title>
<g id="a_node6"><a xlink:href="../../d7/df9/class_cool_board.html#ad03abdce2e65f520bbf2cff0f2d083cf" target="_top" xlink:title="CoolBoard::readSensors">
<polygon fill="white" stroke="black" points="313.5,-38.5 313.5,-57.5 436.5,-57.5 436.5,-38.5 313.5,-38.5"/>
<text text-anchor="middle" x="375" y="-45.5" font-family="Helvetica,sans-Serif" font-size="10.00">CoolBoard::readSensors</text>
</a>
</g>
</g>
<!-- Node67&#45;&gt;Node68 -->
<g id="edge5" class="edge"><title>Node67&#45;&gt;Node68</title>
<path fill="none" stroke="midnightblue" d="M285.332,-48C294.702,-48 304.238,-48 313.414,-48"/>
<polygon fill="midnightblue" stroke="midnightblue" points="285.255,-44.5001 275.255,-48 285.255,-51.5001 285.255,-44.5001"/>
</g>
<!-- Node69 -->
<g id="node7" class="node"><title>Node69</title>
<g id="a_node7"><a xlink:href="../../d7/df9/class_cool_board.html#aa0bbc4bc605e35618d18e68795c61363" target="_top" xlink:title="CoolBoard::onLineMode">
<polygon fill="white" stroke="black" points="475.5,-38.5 475.5,-57.5 596.5,-57.5 596.5,-38.5 475.5,-38.5"/>
<text text-anchor="middle" x="536" y="-45.5" font-family="Helvetica,sans-Serif" font-size="10.00">CoolBoard::onLineMode</text>
</a>
</g>
</g>
<!-- Node68&#45;&gt;Node69 -->
<g id="edge6" class="edge"><title>Node68&#45;&gt;Node69</title>
<path fill="none" stroke="midnightblue" d="M446.824,-48C456.364,-48 466.073,-48 475.392,-48"/>
<polygon fill="midnightblue" stroke="midnightblue" points="446.565,-44.5001 436.565,-48 446.565,-51.5001 446.565,-44.5001"/>
</g>
<!-- Node70 -->
<g id="node8" class="node"><title>Node70</title>
<g id="a_node8"><a xlink:href="../../d7/df9/class_cool_board.html#ae6b5e1274d760462290192acea4adca8" target="_top" xlink:title="CoolBoard::offLineMode">
<polygon fill="white" stroke="black" points="475,-0.5 475,-19.5 597,-19.5 597,-0.5 475,-0.5"/>
<text text-anchor="middle" x="536" y="-7.5" font-family="Helvetica,sans-Serif" font-size="10.00">CoolBoard::offLineMode</text>
</a>
</g>
</g>
<!-- Node68&#45;&gt;Node70 -->
<g id="edge7" class="edge"><title>Node68&#45;&gt;Node70</title>
<path fill="none" stroke="midnightblue" d="M426.077,-36.032C448.358,-30.7069 474.229,-24.5238 495.166,-19.5201"/>
<polygon fill="midnightblue" stroke="midnightblue" points="425.035,-32.6823 416.122,-38.411 426.662,-39.4906 425.035,-32.6823"/>
</g>
</g>
</svg>
