<?xml version="1.0" encoding="UTF-8" standalone="no"?>
<!DOCTYPE svg PUBLIC "-//W3C//DTD SVG 1.1//EN"
 "http://www.w3.org/Graphics/SVG/1.1/DTD/svg11.dtd">
<!-- Generated by graphviz version 2.38.0 (20140413.2041)
 -->
<!-- Title: ExternalSensors.cpp Pages: 1 -->
<svg width="661pt" height="263pt"
 viewBox="0.00 0.00 661.00 263.00" xmlns="http://www.w3.org/2000/svg" xmlns:xlink="http://www.w3.org/1999/xlink">
<g id="graph0" class="graph" transform="scale(1 1) rotate(0) translate(4 259)">
<title>ExternalSensors.cpp</title>
<polygon fill="white" stroke="none" points="-4,4 -4,-259 657,-259 657,4 -4,4"/>
<!-- Node0 -->
<g id="node1" class="node"><title>Node0</title>
<polygon fill="#bfbfbf" stroke="black" points="121.5,-235.5 121.5,-254.5 228.5,-254.5 228.5,-235.5 121.5,-235.5"/>
<text text-anchor="middle" x="175" y="-242.5" font-family="Helvetica,sans-Serif" font-size="10.00">ExternalSensors.cpp</text>
</g>
<!-- Node1 -->
<g id="node2" class="node"><title>Node1</title>
<polygon fill="white" stroke="#bfbfbf" points="0,-179.5 0,-198.5 38,-198.5 38,-179.5 0,-179.5"/>
<text text-anchor="middle" x="19" y="-186.5" font-family="Helvetica,sans-Serif" font-size="10.00">FS.h</text>
</g>
<!-- Node0&#45;&gt;Node1 -->
<g id="edge1" class="edge"><title>Node0&#45;&gt;Node1</title>
<path fill="none" stroke="midnightblue" d="M150.281,-235.444C122.461,-225.813 77.3175,-210.187 47.8919,-200.001"/>
<polygon fill="midnightblue" stroke="midnightblue" points="48.7882,-196.608 38.1934,-196.644 46.4983,-203.222 48.7882,-196.608"/>
</g>
<!-- Node2 -->
<g id="node3" class="node"><title>Node2</title>
<polygon fill="white" stroke="#bfbfbf" points="94,-0.5 94,-19.5 152,-19.5 152,-0.5 94,-0.5"/>
<text text-anchor="middle" x="123" y="-7.5" font-family="Helvetica,sans-Serif" font-size="10.00">Arduino.h</text>
</g>
<!-- Node0&#45;&gt;Node2 -->
<g id="edge2" class="edge"><title>Node0&#45;&gt;Node2</title>
<path fill="none" stroke="midnightblue" d="M137.898,-235.458C118.555,-228.918 96.572,-217.724 85,-199 50.756,-143.592 91.0298,-63.0951 111.937,-28.1999"/>
<polygon fill="midnightblue" stroke="midnightblue" points="114.957,-29.9711 117.242,-19.6257 109.004,-26.2879 114.957,-29.9711"/>
</g>
<!-- Node3 -->
<g id="node4" class="node"><title>Node3</title>
<polygon fill="white" stroke="#bfbfbf" points="94.5,-179.5 94.5,-198.5 157.5,-198.5 157.5,-179.5 94.5,-179.5"/>
<text text-anchor="middle" x="126" y="-186.5" font-family="Helvetica,sans-Serif" font-size="10.00">OneWire.h</text>
</g>
<!-- Node0&#45;&gt;Node3 -->
<g id="edge3" class="edge"><title>Node0&#45;&gt;Node3</title>
<path fill="none" stroke="midnightblue" d="M166.909,-235.083C159.845,-227.298 149.412,-215.801 140.851,-206.367"/>
<polygon fill="midnightblue" stroke="midnightblue" points="143.253,-203.805 133.941,-198.751 138.069,-208.509 143.253,-203.805"/>
</g>
<!-- Node4 -->
<g id="node5" class="node"><title>Node4</title>
<g id="a_node5"><a xlink:href="../../d7/dcc/_external_sensors_8h.html" target="_top" xlink:title="ExternalSensors header file. ">
<polygon fill="white" stroke="black" points="175.5,-179.5 175.5,-198.5 272.5,-198.5 272.5,-179.5 175.5,-179.5"/>
<text text-anchor="middle" x="224" y="-186.5" font-family="Helvetica,sans-Serif" font-size="10.00">ExternalSensors.h</text>
</a>
</g>
</g>
<!-- Node0&#45;&gt;Node4 -->
<g id="edge4" class="edge"><title>Node0&#45;&gt;Node4</title>
<path fill="none" stroke="midnightblue" d="M183.091,-235.083C190.155,-227.298 200.588,-215.801 209.149,-206.367"/>
<polygon fill="midnightblue" stroke="midnightblue" points="211.931,-208.509 216.059,-198.751 206.747,-203.805 211.931,-208.509"/>
</g>
<!-- Node5 -->
<g id="node6" class="node"><title>Node5</title>
<g id="a_node6"><a xlink:href="../../d6/d20/_external_sensor_8h.html" target="_top" xlink:title="ExternalSensor Header file. ">
<polygon fill="white" stroke="black" points="255,-123.5 255,-142.5 347,-142.5 347,-123.5 255,-123.5"/>
<text text-anchor="middle" x="301" y="-130.5" font-family="Helvetica,sans-Serif" font-size="10.00">ExternalSensor.h</text>
</a>
</g>
</g>
<!-- Node0&#45;&gt;Node5 -->
<g id="edge15" class="edge"><title>Node0&#45;&gt;Node5</title>
<path fill="none" stroke="midnightblue" d="M217.206,-235.475C239.325,-228.965 265.229,-217.796 282,-199 293.365,-186.264 297.95,-167.067 299.79,-152.834"/>
<polygon fill="midnightblue" stroke="midnightblue" points="303.291,-152.989 300.754,-142.702 296.323,-152.326 303.291,-152.989"/>
</g>
<!-- Node11 -->
<g id="node12" class="node"><title>Node11</title>
<polygon fill="white" stroke="#bfbfbf" points="329.5,-179.5 329.5,-198.5 408.5,-198.5 408.5,-179.5 329.5,-179.5"/>
<text text-anchor="middle" x="369" y="-186.5" font-family="Helvetica,sans-Serif" font-size="10.00">ArduinoJson.h</text>
</g>
<!-- Node0&#45;&gt;Node11 -->
<g id="edge14" class="edge"><title>Node0&#45;&gt;Node11</title>
<path fill="none" stroke="midnightblue" d="M205.74,-235.444C238.944,-226.201 291.991,-211.436 328.557,-201.257"/>
<polygon fill="midnightblue" stroke="midnightblue" points="329.709,-204.57 338.404,-198.516 327.832,-197.826 329.709,-204.57"/>
</g>
<!-- Node4&#45;&gt;Node2 -->
<g id="edge5" class="edge"><title>Node4&#45;&gt;Node2</title>
<path fill="none" stroke="midnightblue" d="M213.246,-179.282C194.242,-163.219 154.944,-126.921 136,-87 127.411,-68.8994 124.421,-45.9855 123.42,-30.0738"/>
<polygon fill="midnightblue" stroke="midnightblue" points="126.909,-29.7376 122.99,-19.8941 119.915,-30.0328 126.909,-29.7376"/>
</g>
<!-- Node4&#45;&gt;Node5 -->
<g id="edge6" class="edge"><title>Node4&#45;&gt;Node5</title>
<path fill="none" stroke="midnightblue" d="M236.371,-179.324C248.158,-171.058 266.132,-158.453 280.136,-148.632"/>
<polygon fill="midnightblue" stroke="midnightblue" points="282.482,-151.262 288.659,-142.655 278.462,-145.531 282.482,-151.262"/>
</g>
<!-- Node5&#45;&gt;Node2 -->
<g id="edge13" class="edge"><title>Node5&#45;&gt;Node2</title>
<path fill="none" stroke="midnightblue" d="M254.925,-126.509C225.217,-120.895 187.352,-109.608 161,-87 143.458,-71.9503 133.154,-46.8542 127.8,-29.6464"/>
<polygon fill="midnightblue" stroke="midnightblue" points="131.064,-28.3287 124.969,-19.6625 124.33,-30.2379 131.064,-28.3287"/>
</g>
<!-- Node6 -->
<g id="node7" class="node"><title>Node6</title>
<g id="a_node7"><a xlink:href="../../d0/d08/_cool_n_d_i_r___i2_c_8h.html" target="_top" xlink:title="internals/CoolNDIR\l_I2C.h">
<polygon fill="white" stroke="black" points="170,-56.5 170,-86.5 272,-86.5 272,-56.5 170,-56.5"/>
<text text-anchor="start" x="178" y="-74.5" font-family="Helvetica,sans-Serif" font-size="10.00">internals/CoolNDIR</text>
<text text-anchor="middle" x="221" y="-63.5" font-family="Helvetica,sans-Serif" font-size="10.00">_I2C.h</text>
</a>
</g>
</g>
<!-- Node5&#45;&gt;Node6 -->
<g id="edge7" class="edge"><title>Node5&#45;&gt;Node6</title>
<path fill="none" stroke="midnightblue" d="M289.538,-123.475C278.804,-115.492 262.35,-103.254 248.254,-92.7703"/>
<polygon fill="midnightblue" stroke="midnightblue" points="249.967,-89.6825 239.854,-86.523 245.79,-95.2993 249.967,-89.6825"/>
</g>
<!-- Node7 -->
<g id="node8" class="node"><title>Node7</title>
<polygon fill="white" stroke="#bfbfbf" points="289.5,-62 289.5,-81 396.5,-81 396.5,-62 289.5,-62"/>
<text text-anchor="middle" x="343" y="-69" font-family="Helvetica,sans-Serif" font-size="10.00">DallasTemperature.h</text>
</g>
<!-- Node5&#45;&gt;Node7 -->
<g id="edge8" class="edge"><title>Node5&#45;&gt;Node7</title>
<path fill="none" stroke="midnightblue" d="M307.018,-123.475C313.255,-114.638 323.173,-100.589 331.018,-89.475"/>
<polygon fill="midnightblue" stroke="midnightblue" points="334.086,-91.1972 336.994,-81.0091 328.367,-87.1604 334.086,-91.1972"/>
</g>
<!-- Node8 -->
<g id="node9" class="node"><title>Node8</title>
<g id="a_node9"><a xlink:href="../../d3/d18/_cool_adafruit___t_c_s34725_8h.html" target="_top" xlink:title="internals/CoolAdafruit\l_TCS34725.h">
<polygon fill="white" stroke="black" points="543,-56.5 543,-86.5 653,-86.5 653,-56.5 543,-56.5"/>
<text text-anchor="start" x="551" y="-74.5" font-family="Helvetica,sans-Serif" font-size="10.00">internals/CoolAdafruit</text>
<text text-anchor="middle" x="598" y="-63.5" font-family="Helvetica,sans-Serif" font-size="10.00">_TCS34725.h</text>
</a>
</g>
</g>
<!-- Node5&#45;&gt;Node8 -->
<g id="edge9" class="edge"><title>Node5&#45;&gt;Node8</title>
<path fill="none" stroke="midnightblue" d="M347.065,-123.553C392.017,-115.21 462.589,-101.845 532.943,-87.1856"/>
<polygon fill="midnightblue" stroke="midnightblue" points="533.796,-90.5832 542.866,-85.1089 532.362,-83.7316 533.796,-90.5832"/>
</g>
<!-- Node10 -->
<g id="node11" class="node"><title>Node10</title>
<g id="a_node11"><a xlink:href="../../df/d06/_cool_adafruit___a_d_s1015_8h.html" target="_top" xlink:title="internals/CoolAdafruit\l_ADS1015.h">
<polygon fill="white" stroke="black" points="415,-56.5 415,-86.5 525,-86.5 525,-56.5 415,-56.5"/>
<text text-anchor="start" x="423" y="-74.5" font-family="Helvetica,sans-Serif" font-size="10.00">internals/CoolAdafruit</text>
<text text-anchor="middle" x="470" y="-63.5" font-family="Helvetica,sans-Serif" font-size="10.00">_ADS1015.h</text>
</a>
</g>
</g>
<!-- Node5&#45;&gt;Node10 -->
<g id="edge11" class="edge"><title>Node5&#45;&gt;Node10</title>
<path fill="none" stroke="midnightblue" d="M325.214,-123.475C350.027,-114.739 389.314,-100.907 420.706,-89.855"/>
<polygon fill="midnightblue" stroke="midnightblue" points="421.9,-93.1453 430.17,-86.523 419.575,-86.5426 421.9,-93.1453"/>
</g>
<!-- Node9 -->
<g id="node10" class="node"><title>Node9</title>
<polygon fill="white" stroke="#bfbfbf" points="562.5,-0.5 562.5,-19.5 633.5,-19.5 633.5,-0.5 562.5,-0.5"/>
<text text-anchor="middle" x="598" y="-7.5" font-family="Helvetica,sans-Serif" font-size="10.00">WProgram.h</text>
</g>
<!-- Node8&#45;&gt;Node9 -->
<g id="edge10" class="edge"><title>Node8&#45;&gt;Node9</title>
<path fill="none" stroke="midnightblue" d="M598,-56.3993C598,-48.4664 598,-38.458 598,-29.8583"/>
<polygon fill="midnightblue" stroke="midnightblue" points="601.5,-29.6577 598,-19.6578 594.5,-29.6578 601.5,-29.6577"/>
</g>
<!-- Node10&#45;&gt;Node2 -->
<g id="edge12" class="edge"><title>Node10&#45;&gt;Node2</title>
<path fill="none" stroke="midnightblue" d="M414.89,-57.7747C411.887,-57.1561 408.909,-56.5601 406,-56 319.261,-39.2962 216.704,-24.1158 161.998,-16.3811"/>
<polygon fill="midnightblue" stroke="midnightblue" points="162.424,-12.9066 152.034,-14.98 161.449,-19.8384 162.424,-12.9066"/>
</g>
</g>
</svg>
