<?xml version="1.0" encoding="UTF-8" standalone="no"?>
<!DOCTYPE svg PUBLIC "-//W3C//DTD SVG 1.1//EN"
 "http://www.w3.org/Graphics/SVG/1.1/DTD/svg11.dtd">
<!-- Generated by graphviz version 2.38.0 (20140413.2041)
 -->
<!-- Title: CoolBoardLed::fadeOut Pages: 1 -->
<svg width="444pt" height="218pt"
 viewBox="0.00 0.00 444.00 218.00" xmlns="http://www.w3.org/2000/svg" xmlns:xlink="http://www.w3.org/1999/xlink">
<g id="graph0" class="graph" transform="scale(1 1) rotate(0) translate(4 214)">
<title>CoolBoardLed::fadeOut</title>
<polygon fill="white" stroke="none" points="-4,4 -4,-214 440,-214 440,4 -4,4"/>
<!-- Node37 -->
<g id="node1" class="node"><title>Node37</title>
<polygon fill="#bfbfbf" stroke="black" points="0,-95.5 0,-114.5 119,-114.5 119,-95.5 0,-95.5"/>
<text text-anchor="middle" x="59.5" y="-102.5" font-family="Helvetica,sans-Serif" font-size="10.00">CoolBoardLed::fadeOut</text>
</g>
<!-- Node38 -->
<g id="node2" class="node"><title>Node38</title>
<g id="a_node2"><a xlink:href="$d7/df9/class_cool_board.html#acba7c5aef7268b2c0044bdb54d3b9d76" xlink:title="CoolBoard::begin">
<polygon fill="white" stroke="black" points="170.5,-190.5 170.5,-209.5 262.5,-209.5 262.5,-190.5 170.5,-190.5"/>
<text text-anchor="middle" x="216.5" y="-197.5" font-family="Helvetica,sans-Serif" font-size="10.00">CoolBoard::begin</text>
</a>
</g>
</g>
<!-- Node37&#45;&gt;Node38 -->
<g id="edge1" class="edge"><title>Node37&#45;&gt;Node38</title>
<path fill="none" stroke="midnightblue" d="M77.1453,-121.661C95.0063,-138.707 124.889,-164.908 155,-181 161.991,-184.736 169.835,-187.874 177.5,-190.454"/>
<polygon fill="midnightblue" stroke="midnightblue" points="79.4358,-119.007 69.8272,-114.543 74.555,-124.024 79.4358,-119.007"/>
</g>
<!-- Node39 -->
<g id="node3" class="node"><title>Node39</title>
<g id="a_node3"><a xlink:href="$d7/df9/class_cool_board.html#a583a874c09c07e70a6eb9229fc4beddb" xlink:title="CoolBoard::config">
<polygon fill="white" stroke="black" points="169,-152.5 169,-171.5 264,-171.5 264,-152.5 169,-152.5"/>
<text text-anchor="middle" x="216.5" y="-159.5" font-family="Helvetica,sans-Serif" font-size="10.00">CoolBoard::config</text>
</a>
</g>
</g>
<!-- Node37&#45;&gt;Node39 -->
<g id="edge2" class="edge"><title>Node37&#45;&gt;Node39</title>
<path fill="none" stroke="midnightblue" d="M96.0289,-118.065C124.52,-128.543 163.847,-143.005 189.472,-152.428"/>
<polygon fill="midnightblue" stroke="midnightblue" points="97.037,-114.707 86.4435,-114.541 94.621,-121.277 97.037,-114.707"/>
</g>
<!-- Node40 -->
<g id="node4" class="node"><title>Node40</title>
<g id="a_node4"><a xlink:href="$d7/df9/class_cool_board.html#ae6b5e1274d760462290192acea4adca8" xlink:title="CoolBoard::offLineMode">
<polygon fill="white" stroke="black" points="314,-95.5 314,-114.5 436,-114.5 436,-95.5 314,-95.5"/>
<text text-anchor="middle" x="375" y="-102.5" font-family="Helvetica,sans-Serif" font-size="10.00">CoolBoard::offLineMode</text>
</a>
</g>
</g>
<!-- Node37&#45;&gt;Node40 -->
<g id="edge3" class="edge"><title>Node37&#45;&gt;Node40</title>
<path fill="none" stroke="midnightblue" d="M129.138,-105C184.303,-105 261.032,-105 313.82,-105"/>
<polygon fill="midnightblue" stroke="midnightblue" points="129.099,-101.5 119.099,-105 129.099,-108.5 129.099,-101.5"/>
</g>
<!-- Node41 -->
<g id="node5" class="node"><title>Node41</title>
<g id="a_node5"><a xlink:href="$d7/df9/class_cool_board.html#aa0bbc4bc605e35618d18e68795c61363" xlink:title="CoolBoard::onLineMode">
<polygon fill="white" stroke="black" points="314.5,-38.5 314.5,-57.5 435.5,-57.5 435.5,-38.5 314.5,-38.5"/>
<text text-anchor="middle" x="375" y="-45.5" font-family="Helvetica,sans-Serif" font-size="10.00">CoolBoard::onLineMode</text>
</a>
</g>
</g>
<!-- Node37&#45;&gt;Node41 -->
<g id="edge4" class="edge"><title>Node37&#45;&gt;Node41</title>
<path fill="none" stroke="midnightblue" d="M88.7564,-91.0719C107.168,-82.6471 131.965,-72.5014 155,-67 207.896,-54.3671 269.76,-49.9111 314.22,-48.443"/>
<polygon fill="midnightblue" stroke="midnightblue" points="87.0663,-87.9986 79.4958,-95.4107 90.0361,-94.3374 87.0663,-87.9986"/>
</g>
<!-- Node42 -->
<g id="node6" class="node"><title>Node42</title>
<g id="a_node6"><a xlink:href="$d7/df9/class_cool_board.html#ad03abdce2e65f520bbf2cff0f2d083cf" xlink:title="CoolBoard::readSensors">
<polygon fill="white" stroke="black" points="155,-76.5 155,-95.5 278,-95.5 278,-76.5 155,-76.5"/>
<text text-anchor="middle" x="216.5" y="-83.5" font-family="Helvetica,sans-Serif" font-size="10.00">CoolBoard::readSensors</text>
</a>
</g>
</g>
<!-- Node37&#45;&gt;Node42 -->
<g id="edge5" class="edge"><title>Node37&#45;&gt;Node42</title>
<path fill="none" stroke="midnightblue" d="M129.055,-96.5965C137.616,-95.5471 146.324,-94.4797 154.754,-93.4463"/>
<polygon fill="midnightblue" stroke="midnightblue" points="128.599,-93.1261 119.099,-97.8169 129.45,-100.074 128.599,-93.1261"/>
</g>
<!-- Node43 -->
<g id="node7" class="node"><title>Node43</title>
<g id="a_node7"><a xlink:href="$d7/df9/class_cool_board.html#a8612756d3f73198cdde857a66f0fe690" xlink:title="CoolBoard::update">
<polygon fill="white" stroke="black" points="167.5,-0.5 167.5,-19.5 265.5,-19.5 265.5,-0.5 167.5,-0.5"/>
<text text-anchor="middle" x="216.5" y="-7.5" font-family="Helvetica,sans-Serif" font-size="10.00">CoolBoard::update</text>
</a>
</g>
</g>
<!-- Node37&#45;&gt;Node43 -->
<g id="edge8" class="edge"><title>Node37&#45;&gt;Node43</title>
<path fill="none" stroke="midnightblue" d="M78.7679,-88.9277C97.0918,-73.3909 126.594,-49.9262 155,-34 164.955,-28.4186 176.472,-23.5056 186.769,-19.6023"/>
<polygon fill="midnightblue" stroke="midnightblue" points="76.4799,-86.279 71.1796,-95.4528 81.0439,-91.5867 76.4799,-86.279"/>
</g>
<!-- Node42&#45;&gt;Node40 -->
<g id="edge6" class="edge"><title>Node42&#45;&gt;Node40</title>
<path fill="none" stroke="midnightblue" d="M288.059,-94.5662C296.692,-95.6144 305.452,-96.6779 313.912,-97.7049"/>
<polygon fill="midnightblue" stroke="midnightblue" points="288.356,-91.0767 278.007,-93.3459 287.512,-98.0257 288.356,-91.0767"/>
</g>
<!-- Node42&#45;&gt;Node41 -->
<g id="edge7" class="edge"><title>Node42&#45;&gt;Node41</title>
<path fill="none" stroke="midnightblue" d="M266.789,-74.032C288.72,-68.7069 314.185,-62.5238 334.792,-57.5201"/>
<polygon fill="midnightblue" stroke="midnightblue" points="265.883,-70.6502 256.992,-76.411 267.535,-77.4525 265.883,-70.6502"/>
</g>
<!-- Node43&#45;&gt;Node41 -->
<g id="edge9" class="edge"><title>Node43&#45;&gt;Node41</title>
<path fill="none" stroke="midnightblue" d="M266.789,-21.968C288.72,-27.2931 314.185,-33.4762 334.792,-38.4799"/>
<polygon fill="midnightblue" stroke="midnightblue" points="267.535,-18.5475 256.992,-19.589 265.883,-25.3498 267.535,-18.5475"/>
</g>
</g>
</svg>
