<?xml version="1.0" encoding="UTF-8" standalone="no"?>
<!DOCTYPE svg PUBLIC "-//W3C//DTD SVG 1.1//EN"
 "http://www.w3.org/Graphics/SVG/1.1/DTD/svg11.dtd">
<!-- Generated by graphviz version 2.38.0 (20140413.2041)
 -->
<!-- Title: CoolBoardLed::blink Pages: 1 -->
<svg width="427pt" height="161pt"
 viewBox="0.00 0.00 427.00 160.88" xmlns="http://www.w3.org/2000/svg" xmlns:xlink="http://www.w3.org/1999/xlink">
<g id="graph0" class="graph" transform="scale(1 1) rotate(0) translate(4 156.876)">
<title>CoolBoardLed::blink</title>
<polygon fill="white" stroke="none" points="-4,4 -4,-156.876 423,-156.876 423,4 -4,4"/>
<!-- Node23 -->
<g id="node1" class="node"><title>Node23</title>
<polygon fill="#bfbfbf" stroke="black" points="0,-76.5 0,-95.5 104,-95.5 104,-76.5 0,-76.5"/>
<text text-anchor="middle" x="52" y="-83.5" font-family="Helvetica,sans-Serif" font-size="10.00">CoolBoardLed::blink</text>
</g>
<!-- Node24 -->
<g id="node2" class="node"><title>Node24</title>
<g id="a_node2"><a xlink:href="$d7/df9/class_cool_board.html#acba7c5aef7268b2c0044bdb54d3b9d76" xlink:title="CoolBoard::begin">
<polygon fill="white" stroke="black" points="312,-95.5 312,-114.5 404,-114.5 404,-95.5 312,-95.5"/>
<text text-anchor="middle" x="358" y="-102.5" font-family="Helvetica,sans-Serif" font-size="10.00">CoolBoard::begin</text>
</a>
</g>
</g>
<!-- Node23&#45;&gt;Node24 -->
<g id="edge1" class="edge"><title>Node23&#45;&gt;Node24</title>
<path fill="none" stroke="midnightblue" d="M70.9698,-102.343C87.5257,-116.214 113.477,-135.085 140,-143 191.532,-158.378 208.174,-153.075 261,-143 289.348,-137.594 320.01,-123.957 338.863,-114.582"/>
<polygon fill="midnightblue" stroke="midnightblue" points="73.0668,-99.5295 63.2154,-95.6308 68.4853,-104.822 73.0668,-99.5295"/>
</g>
<!-- Node25 -->
<g id="node3" class="node"><title>Node25</title>
<g id="a_node3"><a xlink:href="$d7/df9/class_cool_board.html#a583a874c09c07e70a6eb9229fc4beddb" xlink:title="CoolBoard::config">
<polygon fill="white" stroke="black" points="153,-114.5 153,-133.5 248,-133.5 248,-114.5 153,-114.5"/>
<text text-anchor="middle" x="200.5" y="-121.5" font-family="Helvetica,sans-Serif" font-size="10.00">CoolBoard::config</text>
</a>
</g>
</g>
<!-- Node23&#45;&gt;Node25 -->
<g id="edge2" class="edge"><title>Node23&#45;&gt;Node25</title>
<path fill="none" stroke="midnightblue" d="M99.6954,-98.1121C120.099,-103.404 143.681,-109.521 162.798,-114.48"/>
<polygon fill="midnightblue" stroke="midnightblue" points="100.527,-94.712 89.9681,-95.589 98.769,-101.488 100.527,-94.712"/>
</g>
<!-- Node26 -->
<g id="node4" class="node"><title>Node26</title>
<g id="a_node4"><a xlink:href="$d7/df9/class_cool_board.html#a519de78b807f8ec6463ff484eb925918" xlink:title="CoolBoard::connect">
<polygon fill="white" stroke="black" points="149,-76.5 149,-95.5 252,-95.5 252,-76.5 149,-76.5"/>
<text text-anchor="middle" x="200.5" y="-83.5" font-family="Helvetica,sans-Serif" font-size="10.00">CoolBoard::connect</text>
</a>
</g>
</g>
<!-- Node23&#45;&gt;Node26 -->
<g id="edge3" class="edge"><title>Node23&#45;&gt;Node26</title>
<path fill="none" stroke="midnightblue" d="M114.506,-86C125.839,-86 137.558,-86 148.538,-86"/>
<polygon fill="midnightblue" stroke="midnightblue" points="114.239,-82.5001 104.239,-86 114.239,-89.5001 114.239,-82.5001"/>
</g>
<!-- Node27 -->
<g id="node5" class="node"><title>Node27</title>
<g id="a_node5"><a xlink:href="$d7/df9/class_cool_board.html#ae6b5e1274d760462290192acea4adca8" xlink:title="CoolBoard::offLineMode">
<polygon fill="white" stroke="black" points="297,-48.5 297,-67.5 419,-67.5 419,-48.5 297,-48.5"/>
<text text-anchor="middle" x="358" y="-55.5" font-family="Helvetica,sans-Serif" font-size="10.00">CoolBoard::offLineMode</text>
</a>
</g>
</g>
<!-- Node23&#45;&gt;Node27 -->
<g id="edge6" class="edge"><title>Node23&#45;&gt;Node27</title>
<path fill="none" stroke="midnightblue" d="M100.051,-74.1641C112.925,-71.3534 126.933,-68.6848 140,-67 192.729,-60.2011 253.203,-58.1614 296.894,-57.7008"/>
<polygon fill="midnightblue" stroke="midnightblue" points="98.991,-70.8151 90.008,-76.4325 100.533,-77.6431 98.991,-70.8151"/>
</g>
<!-- Node28 -->
<g id="node6" class="node"><title>Node28</title>
<g id="a_node6"><a xlink:href="$d7/df9/class_cool_board.html#aa0bbc4bc605e35618d18e68795c61363" xlink:title="CoolBoard::onLineMode">
<polygon fill="white" stroke="black" points="140,-0.5 140,-19.5 261,-19.5 261,-0.5 140,-0.5"/>
<text text-anchor="middle" x="200.5" y="-7.5" font-family="Helvetica,sans-Serif" font-size="10.00">CoolBoard::onLineMode</text>
</a>
</g>
</g>
<!-- Node23&#45;&gt;Node28 -->
<g id="edge7" class="edge"><title>Node23&#45;&gt;Node28</title>
<path fill="none" stroke="midnightblue" d="M76.17,-70.8041C93.3873,-59.8481 117.662,-45.0972 140,-34 150.674,-28.6976 162.819,-23.6349 173.342,-19.5379"/>
<polygon fill="midnightblue" stroke="midnightblue" points="73.9047,-68.0996 67.3879,-76.4531 77.6917,-73.9869 73.9047,-68.0996"/>
</g>
<!-- Node26&#45;&gt;Node24 -->
<g id="edge4" class="edge"><title>Node26&#45;&gt;Node24</title>
<path fill="none" stroke="midnightblue" d="M262.52,-93.4558C279.011,-95.4708 296.556,-97.6145 311.994,-99.5008"/>
<polygon fill="midnightblue" stroke="midnightblue" points="262.767,-89.9601 252.417,-92.2213 261.918,-96.9084 262.767,-89.9601"/>
</g>
<!-- Node26&#45;&gt;Node27 -->
<g id="edge5" class="edge"><title>Node26&#45;&gt;Node27</title>
<path fill="none" stroke="midnightblue" d="M262.307,-75.0508C276.108,-72.5657 290.658,-69.9458 304.101,-67.5253"/>
<polygon fill="midnightblue" stroke="midnightblue" points="261.638,-71.6149 252.417,-76.8318 262.879,-78.5041 261.638,-71.6149"/>
</g>
</g>
</svg>
