<?xml version="1.0" encoding="UTF-8" standalone="no"?>
<!DOCTYPE svg PUBLIC "-//W3C//DTD SVG 1.1//EN"
 "http://www.w3.org/Graphics/SVG/1.1/DTD/svg11.dtd">
<!-- Generated by graphviz version 2.38.0 (20140413.2041)
 -->
<!-- Title: CoolSparkFunBME280.h Pages: 1 -->
<svg width="133pt" height="84pt"
 viewBox="0.00 0.00 133.00 84.00" xmlns="http://www.w3.org/2000/svg" xmlns:xlink="http://www.w3.org/1999/xlink">
<g id="graph0" class="graph" transform="scale(1 1) rotate(0) translate(4 80)">
<title>CoolSparkFunBME280.h</title>
<polygon fill="white" stroke="none" points="-4,4 -4,-80 129,-80 129,4 -4,4"/>
<!-- Node0 -->
<g id="node1" class="node"><title>Node0</title>
<polygon fill="#bfbfbf" stroke="black" points="-7.10543e-15,-56.5 -7.10543e-15,-75.5 125,-75.5 125,-56.5 -7.10543e-15,-56.5"/>
<text text-anchor="middle" x="62.5" y="-63.5" font-family="Helvetica,sans-Serif" font-size="10.00">CoolSparkFunBME280.h</text>
</g>
<!-- Node1 -->
<g id="node2" class="node"><title>Node1</title>
<polygon fill="white" stroke="#bfbfbf" points="38,-0.5 38,-19.5 87,-19.5 87,-0.5 38,-0.5"/>
<text text-anchor="middle" x="62.5" y="-7.5" font-family="Helvetica,sans-Serif" font-size="10.00">stdint.h</text>
</g>
<!-- Node0&#45;&gt;Node1 -->
<g id="edge1" class="edge"><title>Node0&#45;&gt;Node1</title>
<path fill="none" stroke="midnightblue" d="M62.5,-56.083C62.5,-49.0059 62.5,-38.8611 62.5,-29.9865"/>
<polygon fill="midnightblue" stroke="midnightblue" points="66.0001,-29.751 62.5,-19.7511 59.0001,-29.7511 66.0001,-29.751"/>
</g>
</g>
</svg>
