<?xml version="1.0" encoding="UTF-8" standalone="no"?>
<!DOCTYPE svg PUBLIC "-//W3C//DTD SVG 1.1//EN"
 "http://www.w3.org/Graphics/SVG/1.1/DTD/svg11.dtd">
<!-- Generated by graphviz version 2.38.0 (20140413.2041)
 -->
<!-- Title: CoolBoardLed.h Pages: 1 -->
<svg width="199pt" height="140pt"
 viewBox="0.00 0.00 199.00 140.00" xmlns="http://www.w3.org/2000/svg" xmlns:xlink="http://www.w3.org/1999/xlink">
<g id="graph0" class="graph" transform="scale(1 1) rotate(0) translate(4 136)">
<title>CoolBoardLed.h</title>
<polygon fill="white" stroke="none" points="-4,4 -4,-136 195,-136 195,4 -4,4"/>
<!-- Node3 -->
<g id="node1" class="node"><title>Node3</title>
<polygon fill="#bfbfbf" stroke="black" points="48.5,-112.5 48.5,-131.5 134.5,-131.5 134.5,-112.5 48.5,-112.5"/>
<text text-anchor="middle" x="91.5" y="-119.5" font-family="Helvetica,sans-Serif" font-size="10.00">CoolBoardLed.h</text>
</g>
<!-- Node4 -->
<g id="node2" class="node"><title>Node4</title>
<g id="a_node2"><a xlink:href="$d5/d51/_cool_board_8h.html" xlink:title="CoolBoard Header file. ">
<polygon fill="white" stroke="black" points="5,-56.5 5,-75.5 76,-75.5 76,-56.5 5,-56.5"/>
<text text-anchor="middle" x="40.5" y="-63.5" font-family="Helvetica,sans-Serif" font-size="10.00">CoolBoard.h</text>
</a>
</g>
</g>
<!-- Node3&#45;&gt;Node4 -->
<g id="edge1" class="edge"><title>Node3&#45;&gt;Node4</title>
<path fill="none" stroke="midnightblue" d="M76.1221,-104.718C67.1331,-95.1997 56.1408,-83.5608 48.7649,-75.7511"/>
<polygon fill="midnightblue" stroke="midnightblue" points="73.6676,-107.216 83.0784,-112.083 78.7567,-102.41 73.6676,-107.216"/>
</g>
<!-- Node6 -->
<g id="node4" class="node"><title>Node6</title>
<g id="a_node4"><a xlink:href="$d5/d32/_cool_board_led_8cpp.html" xlink:title="CoolBoardLed Source file. ">
<polygon fill="white" stroke="black" points="94,-56.5 94,-75.5 191,-75.5 191,-56.5 94,-56.5"/>
<text text-anchor="middle" x="142.5" y="-63.5" font-family="Helvetica,sans-Serif" font-size="10.00">CoolBoardLed.cpp</text>
</a>
</g>
</g>
<!-- Node3&#45;&gt;Node6 -->
<g id="edge3" class="edge"><title>Node3&#45;&gt;Node6</title>
<path fill="none" stroke="midnightblue" d="M106.878,-104.718C115.867,-95.1997 126.859,-83.5608 134.235,-75.7511"/>
<polygon fill="midnightblue" stroke="midnightblue" points="104.243,-102.41 99.9216,-112.083 109.332,-107.216 104.243,-102.41"/>
</g>
<!-- Node5 -->
<g id="node3" class="node"><title>Node5</title>
<g id="a_node3"><a xlink:href="$d9/d50/_cool_board_8cpp.html" xlink:title="CoolBoard Source file. ">
<polygon fill="white" stroke="black" points="0,-0.5 0,-19.5 81,-19.5 81,-0.5 0,-0.5"/>
<text text-anchor="middle" x="40.5" y="-7.5" font-family="Helvetica,sans-Serif" font-size="10.00">CoolBoard.cpp</text>
</a>
</g>
</g>
<!-- Node4&#45;&gt;Node5 -->
<g id="edge2" class="edge"><title>Node4&#45;&gt;Node5</title>
<path fill="none" stroke="midnightblue" d="M40.5,-45.8045C40.5,-36.9102 40.5,-26.7798 40.5,-19.7511"/>
<polygon fill="midnightblue" stroke="midnightblue" points="37.0001,-46.083 40.5,-56.083 44.0001,-46.083 37.0001,-46.083"/>
</g>
</g>
</svg>
