<?xml version="1.0" encoding="UTF-8" standalone="no"?>
<!DOCTYPE svg PUBLIC "-//W3C//DTD SVG 1.1//EN"
 "http://www.w3.org/Graphics/SVG/1.1/DTD/svg11.dtd">
<!-- Generated by graphviz version 2.38.0 (20140413.2041)
 -->
<!-- Title: CoolTime.h Pages: 1 -->
<svg width="324pt" height="84pt"
 viewBox="0.00 0.00 323.50 84.00" xmlns="http://www.w3.org/2000/svg" xmlns:xlink="http://www.w3.org/1999/xlink">
<g id="graph0" class="graph" transform="scale(1 1) rotate(0) translate(4 80)">
<title>CoolTime.h</title>
<polygon fill="white" stroke="none" points="-4,4 -4,-80 319.5,-80 319.5,4 -4,4"/>
<!-- Node0 -->
<g id="node1" class="node"><title>Node0</title>
<polygon fill="#bfbfbf" stroke="black" points="111.5,-56.5 111.5,-75.5 178.5,-75.5 178.5,-56.5 111.5,-56.5"/>
<text text-anchor="middle" x="145" y="-63.5" font-family="Helvetica,sans-Serif" font-size="10.00">CoolTime.h</text>
</g>
<!-- Node1 -->
<g id="node2" class="node"><title>Node1</title>
<polygon fill="white" stroke="#bfbfbf" points="0,-0.5 0,-19.5 58,-19.5 58,-0.5 0,-0.5"/>
<text text-anchor="middle" x="29" y="-7.5" font-family="Helvetica,sans-Serif" font-size="10.00">Arduino.h</text>
</g>
<!-- Node0&#45;&gt;Node1 -->
<g id="edge1" class="edge"><title>Node0&#45;&gt;Node1</title>
<path fill="none" stroke="midnightblue" d="M126.619,-56.4435C107.784,-47.6751 78.2688,-33.9355 56.6207,-23.8579"/>
<polygon fill="midnightblue" stroke="midnightblue" points="57.8375,-20.5637 47.2946,-19.5164 54.8833,-26.9098 57.8375,-20.5637"/>
</g>
<!-- Node2 -->
<g id="node3" class="node"><title>Node2</title>
<polygon fill="white" stroke="#bfbfbf" points="76.5,-0.5 76.5,-19.5 135.5,-19.5 135.5,-0.5 76.5,-0.5"/>
<text text-anchor="middle" x="106" y="-7.5" font-family="Helvetica,sans-Serif" font-size="10.00">TimeLib.h</text>
</g>
<!-- Node0&#45;&gt;Node2 -->
<g id="edge2" class="edge"><title>Node0&#45;&gt;Node2</title>
<path fill="none" stroke="midnightblue" d="M138.56,-56.083C133.051,-48.4554 124.969,-37.2645 118.235,-27.9408"/>
<polygon fill="midnightblue" stroke="midnightblue" points="121.013,-25.8087 112.32,-19.7511 115.338,-29.9071 121.013,-25.8087"/>
</g>
<!-- Node3 -->
<g id="node4" class="node"><title>Node3</title>
<polygon fill="white" stroke="#bfbfbf" points="153.5,-0.5 153.5,-19.5 216.5,-19.5 216.5,-0.5 153.5,-0.5"/>
<text text-anchor="middle" x="185" y="-7.5" font-family="Helvetica,sans-Serif" font-size="10.00">WiFiUdp.h</text>
</g>
<!-- Node0&#45;&gt;Node3 -->
<g id="edge3" class="edge"><title>Node0&#45;&gt;Node3</title>
<path fill="none" stroke="midnightblue" d="M151.605,-56.083C157.255,-48.4554 165.545,-37.2645 172.451,-27.9408"/>
<polygon fill="midnightblue" stroke="midnightblue" points="175.378,-29.87 178.518,-19.7511 169.753,-25.7034 175.378,-29.87"/>
</g>
<!-- Node4 -->
<g id="node5" class="node"><title>Node4</title>
<polygon fill="white" stroke="#bfbfbf" points="234.5,-0.5 234.5,-19.5 315.5,-19.5 315.5,-0.5 234.5,-0.5"/>
<text text-anchor="middle" x="275" y="-7.5" font-family="Helvetica,sans-Serif" font-size="10.00">DS1337RTC.h</text>
</g>
<!-- Node0&#45;&gt;Node4 -->
<g id="edge4" class="edge"><title>Node0&#45;&gt;Node4</title>
<path fill="none" stroke="midnightblue" d="M165.599,-56.4435C186.993,-47.5566 220.681,-33.5632 245.024,-23.4514"/>
<polygon fill="midnightblue" stroke="midnightblue" points="246.605,-26.5848 254.497,-19.5164 243.92,-20.1203 246.605,-26.5848"/>
</g>
</g>
</svg>
