<?xml version="1.0" encoding="UTF-8" standalone="no"?>
<!DOCTYPE svg PUBLIC "-//W3C//DTD SVG 1.1//EN"
 "http://www.w3.org/Graphics/SVG/1.1/DTD/svg11.dtd">
<!-- Generated by graphviz version 2.38.0 (20140413.2041)
 -->
<!-- Title: CoolBoard::sendConfig Pages: 1 -->
<svg width="809pt" height="85pt"
 viewBox="0.00 0.00 809.00 85.00" xmlns="http://www.w3.org/2000/svg" xmlns:xlink="http://www.w3.org/1999/xlink">
<g id="graph0" class="graph" transform="scale(1 1) rotate(0) translate(4 81)">
<title>CoolBoard::sendConfig</title>
<polygon fill="white" stroke="none" points="-4,4 -4,-81 805,-81 805,4 -4,4"/>
<!-- Node408 -->
<g id="node1" class="node"><title>Node408</title>
<polygon fill="#bfbfbf" stroke="black" points="0,-19.5 0,-38.5 118,-38.5 118,-19.5 0,-19.5"/>
<text text-anchor="middle" x="59" y="-26.5" font-family="Helvetica,sans-Serif" font-size="10.00">CoolBoard::sendConfig</text>
</g>
<!-- Node409 -->
<g id="node2" class="node"><title>Node409</title>
<g id="a_node2"><a xlink:href="$d0/dd0/class_cool_m_q_t_t.html#aa5eaae967b562b62cbcf2b8d81f6e5d5" xlink:title="CoolMQTT::mqttLoop">
<polygon fill="white" stroke="black" points="154,-38.5 154,-57.5 265,-57.5 265,-38.5 154,-38.5"/>
<text text-anchor="middle" x="209.5" y="-45.5" font-family="Helvetica,sans-Serif" font-size="10.00">CoolMQTT::mqttLoop</text>
</a>
</g>
</g>
<!-- Node408&#45;&gt;Node409 -->
<g id="edge1" class="edge"><title>Node408&#45;&gt;Node409</title>
<path fill="none" stroke="midnightblue" d="M118.265,-36.4548C126.584,-37.5191 135.183,-38.6194 143.619,-39.6987"/>
<polygon fill="midnightblue" stroke="midnightblue" points="143.434,-43.2035 153.797,-41.001 144.322,-36.2601 143.434,-43.2035"/>
</g>
<!-- Node414 -->
<g id="node7" class="node"><title>Node414</title>
<g id="a_node7"><a xlink:href="$d0/dd0/class_cool_m_q_t_t.html#ace977b3e90ab14b1199fe5c4fb0a13ec" xlink:title="CoolMQTT::publish">
<polygon fill="white" stroke="black" points="159,-0.5 159,-19.5 260,-19.5 260,-0.5 159,-0.5"/>
<text text-anchor="middle" x="209.5" y="-7.5" font-family="Helvetica,sans-Serif" font-size="10.00">CoolMQTT::publish</text>
</a>
</g>
</g>
<!-- Node408&#45;&gt;Node414 -->
<g id="edge6" class="edge"><title>Node408&#45;&gt;Node414</title>
<path fill="none" stroke="midnightblue" d="M118.265,-21.5452C128.155,-20.2798 138.443,-18.9635 148.38,-17.6921"/>
<polygon fill="midnightblue" stroke="midnightblue" points="149.102,-21.1283 158.577,-16.3874 148.214,-14.1849 149.102,-21.1283"/>
</g>
<!-- Node410 -->
<g id="node3" class="node"><title>Node410</title>
<g id="a_node3"><a xlink:href="$d8/d4b/class_cool_pub_sub_client.html#afc15900f0fc4886a19394508e61793b8" xlink:title="CoolPubSubClient::loop">
<polygon fill="white" stroke="black" points="307.5,-38.5 307.5,-57.5 428.5,-57.5 428.5,-38.5 307.5,-38.5"/>
<text text-anchor="middle" x="368" y="-45.5" font-family="Helvetica,sans-Serif" font-size="10.00">CoolPubSubClient::loop</text>
</a>
</g>
</g>
<!-- Node409&#45;&gt;Node410 -->
<g id="edge2" class="edge"><title>Node409&#45;&gt;Node410</title>
<path fill="none" stroke="midnightblue" d="M265.236,-48C275.59,-48 286.549,-48 297.29,-48"/>
<polygon fill="midnightblue" stroke="midnightblue" points="297.496,-51.5001 307.496,-48 297.496,-44.5001 297.496,-51.5001"/>
</g>
<!-- Node411 -->
<g id="node4" class="node"><title>Node411</title>
<g id="a_node4"><a xlink:href="$d8/d4b/class_cool_pub_sub_client.html#a3d5a5da4ddb1e5c1bea64d80c665d148" xlink:title="CoolPubSubClient::connected">
<polygon fill="white" stroke="black" points="473,-57.5 473,-76.5 621,-76.5 621,-57.5 473,-57.5"/>
<text text-anchor="middle" x="547" y="-64.5" font-family="Helvetica,sans-Serif" font-size="10.00">CoolPubSubClient::connected</text>
</a>
</g>
</g>
<!-- Node410&#45;&gt;Node411 -->
<g id="edge3" class="edge"><title>Node410&#45;&gt;Node411</title>
<path fill="none" stroke="midnightblue" d="M428.924,-54.4325C439.861,-55.6066 451.451,-56.8507 462.919,-58.0817"/>
<polygon fill="midnightblue" stroke="midnightblue" points="462.629,-61.5706 472.945,-59.158 463.376,-54.6106 462.629,-61.5706"/>
</g>
<!-- Node412 -->
<g id="node5" class="node"><title>Node412</title>
<g id="a_node5"><a xlink:href="$d8/d4b/class_cool_pub_sub_client.html#a25a8779149cfa809b7c06f63568b25cf" xlink:title="CoolPubSubClient::readPacket">
<polygon fill="white" stroke="black" points="471,-19.5 471,-38.5 623,-38.5 623,-19.5 471,-19.5"/>
<text text-anchor="middle" x="547" y="-26.5" font-family="Helvetica,sans-Serif" font-size="10.00">CoolPubSubClient::readPacket</text>
</a>
</g>
</g>
<!-- Node410&#45;&gt;Node412 -->
<g id="edge4" class="edge"><title>Node410&#45;&gt;Node412</title>
<path fill="none" stroke="midnightblue" d="M428.924,-41.5675C439.108,-40.4742 449.858,-39.3203 460.549,-38.1727"/>
<polygon fill="midnightblue" stroke="midnightblue" points="461.19,-41.6241 470.76,-37.0767 460.443,-34.664 461.19,-41.6241"/>
</g>
<!-- Node413 -->
<g id="node6" class="node"><title>Node413</title>
<g id="a_node6"><a xlink:href="$d8/d4b/class_cool_pub_sub_client.html#ad409bbd287d5894f0cf082f62446c002" xlink:title="CoolPubSubClient::readByte">
<polygon fill="white" stroke="black" points="659,-19.5 659,-38.5 801,-38.5 801,-19.5 659,-19.5"/>
<text text-anchor="middle" x="730" y="-26.5" font-family="Helvetica,sans-Serif" font-size="10.00">CoolPubSubClient::readByte</text>
</a>
</g>
</g>
<!-- Node412&#45;&gt;Node413 -->
<g id="edge5" class="edge"><title>Node412&#45;&gt;Node413</title>
<path fill="none" stroke="midnightblue" d="M623.188,-29C631.612,-29 640.219,-29 648.704,-29"/>
<polygon fill="midnightblue" stroke="midnightblue" points="648.974,-32.5001 658.974,-29 648.974,-25.5001 648.974,-32.5001"/>
</g>
<!-- Node415 -->
<g id="node8" class="node"><title>Node415</title>
<g id="a_node8"><a xlink:href="$d8/d4b/class_cool_pub_sub_client.html#ab6ad5fa2d3db8f91454027257f225a89" xlink:title="CoolPubSubClient::publish">
<polygon fill="white" stroke="black" points="301,-0.5 301,-19.5 435,-19.5 435,-0.5 301,-0.5"/>
<text text-anchor="middle" x="368" y="-7.5" font-family="Helvetica,sans-Serif" font-size="10.00">CoolPubSubClient::publish</text>
</a>
</g>
</g>
<!-- Node414&#45;&gt;Node415 -->
<g id="edge7" class="edge"><title>Node414&#45;&gt;Node415</title>
<path fill="none" stroke="midnightblue" d="M260.018,-10C269.858,-10 280.402,-10 290.894,-10"/>
<polygon fill="midnightblue" stroke="midnightblue" points="290.913,-13.5001 300.913,-10 290.913,-6.5001 290.913,-13.5001"/>
</g>
</g>
</svg>
