<?xml version="1.0" encoding="UTF-8" standalone="no"?>
<!DOCTYPE svg PUBLIC "-//W3C//DTD SVG 1.1//EN"
 "http://www.w3.org/Graphics/SVG/1.1/DTD/svg11.dtd">
<!-- Generated by graphviz version 2.38.0 (20140413.2041)
 -->
<!-- Title: CoolBoard::initReadI2C Pages: 1 -->
<svg width="445pt" height="85pt"
 viewBox="0.00 0.00 445.00 85.00" xmlns="http://www.w3.org/2000/svg" xmlns:xlink="http://www.w3.org/1999/xlink">
<g id="graph0" class="graph" transform="scale(1 1) rotate(0) translate(4 81)">
<title>CoolBoard::initReadI2C</title>
<polygon fill="white" stroke="none" points="-4,4 -4,-81 441,-81 441,4 -4,4"/>
<!-- Node395 -->
<g id="node1" class="node"><title>Node395</title>
<polygon fill="#bfbfbf" stroke="black" points="0,-38.5 0,-57.5 120,-57.5 120,-38.5 0,-38.5"/>
<text text-anchor="middle" x="60" y="-45.5" font-family="Helvetica,sans-Serif" font-size="10.00">CoolBoard::initReadI2C</text>
</g>
<!-- Node396 -->
<g id="node2" class="node"><title>Node396</title>
<g id="a_node2"><a xlink:href="$d7/df9/class_cool_board.html#acba7c5aef7268b2c0044bdb54d3b9d76" xlink:title="CoolBoard::begin">
<polygon fill="white" stroke="black" points="171.5,-57.5 171.5,-76.5 263.5,-76.5 263.5,-57.5 171.5,-57.5"/>
<text text-anchor="middle" x="217.5" y="-64.5" font-family="Helvetica,sans-Serif" font-size="10.00">CoolBoard::begin</text>
</a>
</g>
</g>
<!-- Node395&#45;&gt;Node396 -->
<g id="edge1" class="edge"><title>Node395&#45;&gt;Node396</title>
<path fill="none" stroke="midnightblue" d="M130.306,-56.4683C144.267,-58.1741 158.596,-59.9249 171.463,-61.497"/>
<polygon fill="midnightblue" stroke="midnightblue" points="130.582,-52.9761 120.231,-55.2373 129.733,-59.9244 130.582,-52.9761"/>
</g>
<!-- Node397 -->
<g id="node3" class="node"><title>Node397</title>
<g id="a_node3"><a xlink:href="$d7/df9/class_cool_board.html#ad03abdce2e65f520bbf2cff0f2d083cf" xlink:title="CoolBoard::readSensors">
<polygon fill="white" stroke="black" points="156,-19.5 156,-38.5 279,-38.5 279,-19.5 156,-19.5"/>
<text text-anchor="middle" x="217.5" y="-26.5" font-family="Helvetica,sans-Serif" font-size="10.00">CoolBoard::readSensors</text>
</a>
</g>
</g>
<!-- Node395&#45;&gt;Node397 -->
<g id="edge2" class="edge"><title>Node395&#45;&gt;Node397</title>
<path fill="none" stroke="midnightblue" d="M130.195,-39.5453C138.759,-38.4988 147.464,-37.4353 155.886,-36.4063"/>
<polygon fill="midnightblue" stroke="midnightblue" points="129.733,-36.0756 120.231,-40.7627 130.582,-43.0239 129.733,-36.0756"/>
</g>
<!-- Node398 -->
<g id="node4" class="node"><title>Node398</title>
<g id="a_node4"><a xlink:href="$d7/df9/class_cool_board.html#ae6b5e1274d760462290192acea4adca8" xlink:title="CoolBoard::offLineMode">
<polygon fill="white" stroke="black" points="315,-38.5 315,-57.5 437,-57.5 437,-38.5 315,-38.5"/>
<text text-anchor="middle" x="376" y="-45.5" font-family="Helvetica,sans-Serif" font-size="10.00">CoolBoard::offLineMode</text>
</a>
</g>
</g>
<!-- Node397&#45;&gt;Node398 -->
<g id="edge3" class="edge"><title>Node397&#45;&gt;Node398</title>
<path fill="none" stroke="midnightblue" d="M289.059,-37.5662C297.692,-38.6144 306.452,-39.6779 314.912,-40.7049"/>
<polygon fill="midnightblue" stroke="midnightblue" points="289.356,-34.0767 279.007,-36.3459 288.512,-41.0257 289.356,-34.0767"/>
</g>
<!-- Node399 -->
<g id="node5" class="node"><title>Node399</title>
<g id="a_node5"><a xlink:href="$d7/df9/class_cool_board.html#aa0bbc4bc605e35618d18e68795c61363" xlink:title="CoolBoard::onLineMode">
<polygon fill="white" stroke="black" points="315.5,-0.5 315.5,-19.5 436.5,-19.5 436.5,-0.5 315.5,-0.5"/>
<text text-anchor="middle" x="376" y="-7.5" font-family="Helvetica,sans-Serif" font-size="10.00">CoolBoard::onLineMode</text>
</a>
</g>
</g>
<!-- Node397&#45;&gt;Node399 -->
<g id="edge4" class="edge"><title>Node397&#45;&gt;Node399</title>
<path fill="none" stroke="midnightblue" d="M289.207,-20.4158C297.968,-19.3522 306.856,-18.2731 315.427,-17.2325"/>
<polygon fill="midnightblue" stroke="midnightblue" points="288.512,-16.9743 279.007,-21.6541 289.356,-23.9233 288.512,-16.9743"/>
</g>
</g>
</svg>
