<?xml version="1.0" encoding="UTF-8" standalone="no"?>
<!DOCTYPE svg PUBLIC "-//W3C//DTD SVG 1.1//EN"
 "http://www.w3.org/Graphics/SVG/1.1/DTD/svg11.dtd">
<!-- Generated by graphviz version 2.38.0 (20140413.2041)
 -->
<!-- Title: CoolBoard::config Pages: 1 -->
<svg width="447pt" height="256pt"
 viewBox="0.00 0.00 447.00 256.00" xmlns="http://www.w3.org/2000/svg" xmlns:xlink="http://www.w3.org/1999/xlink">
<g id="graph0" class="graph" transform="scale(1 1) rotate(0) translate(4 252)">
<title>CoolBoard::config</title>
<polygon fill="white" stroke="none" points="-4,4 -4,-252 443,-252 443,4 -4,4"/>
<!-- Node88 -->
<g id="node1" class="node"><title>Node88</title>
<polygon fill="#bfbfbf" stroke="black" points="0,-114.5 0,-133.5 95,-133.5 95,-114.5 0,-114.5"/>
<text text-anchor="middle" x="47.5" y="-121.5" font-family="Helvetica,sans-Serif" font-size="10.00">CoolBoard::config</text>
</g>
<!-- Node89 -->
<g id="node2" class="node"><title>Node89</title>
<g id="a_node2"><a xlink:href="$db/d0c/class_cool_file_system.html#a6ba6f666ed4c530174f8569d2c636748" xlink:title="CoolFileSystem::begin">
<polygon fill="white" stroke="black" points="132.5,-228.5 132.5,-247.5 248.5,-247.5 248.5,-228.5 132.5,-228.5"/>
<text text-anchor="middle" x="190.5" y="-235.5" font-family="Helvetica,sans-Serif" font-size="10.00">CoolFileSystem::begin</text>
</a>
</g>
</g>
<!-- Node88&#45;&gt;Node89 -->
<g id="edge1" class="edge"><title>Node88&#45;&gt;Node89</title>
<path fill="none" stroke="midnightblue" d="M54.2707,-133.605C66.2067,-152.672 95.4841,-195.483 131,-219 134.075,-221.036 137.384,-222.868 140.809,-224.515"/>
<polygon fill="midnightblue" stroke="midnightblue" points="139.492,-227.758 150.064,-228.452 142.232,-221.316 139.492,-227.758"/>
</g>
<!-- Node91 -->
<g id="node4" class="node"><title>Node91</title>
<g id="a_node4"><a xlink:href="$de/dc0/class_cool_board_led.html#ae3cbde8affcc6f011cbd698c8ef911f6" xlink:title="CoolBoardLed::begin">
<polygon fill="white" stroke="black" points="137,-190.5 137,-209.5 244,-209.5 244,-190.5 137,-190.5"/>
<text text-anchor="middle" x="190.5" y="-197.5" font-family="Helvetica,sans-Serif" font-size="10.00">CoolBoardLed::begin</text>
</a>
</g>
</g>
<!-- Node88&#45;&gt;Node91 -->
<g id="edge3" class="edge"><title>Node88&#45;&gt;Node91</title>
<path fill="none" stroke="midnightblue" d="M60.1135,-133.665C75.4928,-146.064 103.848,-167.571 131,-181 135.376,-183.164 140.055,-185.162 144.789,-186.983"/>
<polygon fill="midnightblue" stroke="midnightblue" points="143.909,-190.385 154.504,-190.469 146.274,-183.797 143.909,-190.385"/>
</g>
<!-- Node92 -->
<g id="node5" class="node"><title>Node92</title>
<g id="a_node5"><a xlink:href="$de/dc0/class_cool_board_led.html#a96e1ea13003eee34c9dbcef340404426" xlink:title="CoolBoardLed::blink">
<polygon fill="white" stroke="black" points="138.5,-152.5 138.5,-171.5 242.5,-171.5 242.5,-152.5 138.5,-152.5"/>
<text text-anchor="middle" x="190.5" y="-159.5" font-family="Helvetica,sans-Serif" font-size="10.00">CoolBoardLed::blink</text>
</a>
</g>
</g>
<!-- Node88&#45;&gt;Node92 -->
<g id="edge4" class="edge"><title>Node88&#45;&gt;Node92</title>
<path fill="none" stroke="midnightblue" d="M84.0803,-133.589C102.282,-138.494 124.638,-144.52 144.072,-149.757"/>
<polygon fill="midnightblue" stroke="midnightblue" points="143.365,-153.191 153.931,-152.414 145.186,-146.432 143.365,-153.191"/>
</g>
<!-- Node93 -->
<g id="node6" class="node"><title>Node93</title>
<g id="a_node6"><a xlink:href="$de/dc0/class_cool_board_led.html#a1b60e5e30bea96c49ed62ed1bf1ffc8b" xlink:title="CoolBoardLed::config">
<polygon fill="white" stroke="black" points="135.5,-114.5 135.5,-133.5 245.5,-133.5 245.5,-114.5 135.5,-114.5"/>
<text text-anchor="middle" x="190.5" y="-121.5" font-family="Helvetica,sans-Serif" font-size="10.00">CoolBoardLed::config</text>
</a>
</g>
</g>
<!-- Node88&#45;&gt;Node93 -->
<g id="edge5" class="edge"><title>Node88&#45;&gt;Node93</title>
<path fill="none" stroke="midnightblue" d="M95.0594,-124C104.685,-124 114.987,-124 125.118,-124"/>
<polygon fill="midnightblue" stroke="midnightblue" points="125.162,-127.5 135.162,-124 125.162,-120.5 125.162,-127.5"/>
</g>
<!-- Node94 -->
<g id="node7" class="node"><title>Node94</title>
<g id="a_node7"><a xlink:href="$de/dc0/class_cool_board_led.html#ab778f5e7bed0ab74e3906d82110493c3" xlink:title="CoolBoardLed::fadeIn">
<polygon fill="white" stroke="black" points="135,-76.5 135,-95.5 246,-95.5 246,-76.5 135,-76.5"/>
<text text-anchor="middle" x="190.5" y="-83.5" font-family="Helvetica,sans-Serif" font-size="10.00">CoolBoardLed::fadeIn</text>
</a>
</g>
</g>
<!-- Node88&#45;&gt;Node94 -->
<g id="edge6" class="edge"><title>Node88&#45;&gt;Node94</title>
<path fill="none" stroke="midnightblue" d="M84.0803,-114.411C102.282,-109.506 124.638,-103.48 144.072,-98.2429"/>
<polygon fill="midnightblue" stroke="midnightblue" points="145.186,-101.568 153.931,-95.5859 143.365,-94.8088 145.186,-101.568"/>
</g>
<!-- Node95 -->
<g id="node8" class="node"><title>Node95</title>
<g id="a_node8"><a xlink:href="$de/dc0/class_cool_board_led.html#a93d545679237e8cc858324367149775c" xlink:title="CoolBoardLed::fadeOut">
<polygon fill="white" stroke="black" points="131,-38.5 131,-57.5 250,-57.5 250,-38.5 131,-38.5"/>
<text text-anchor="middle" x="190.5" y="-45.5" font-family="Helvetica,sans-Serif" font-size="10.00">CoolBoardLed::fadeOut</text>
</a>
</g>
</g>
<!-- Node88&#45;&gt;Node95 -->
<g id="edge7" class="edge"><title>Node88&#45;&gt;Node95</title>
<path fill="none" stroke="midnightblue" d="M60.1135,-114.335C75.4928,-101.936 103.848,-80.4294 131,-67 135.376,-64.8356 140.055,-62.8383 144.789,-61.0174"/>
<polygon fill="midnightblue" stroke="midnightblue" points="146.274,-64.2031 154.504,-57.5306 143.909,-57.6146 146.274,-64.2031"/>
</g>
<!-- Node96 -->
<g id="node9" class="node"><title>Node96</title>
<g id="a_node9"><a xlink:href="$de/dc0/class_cool_board_led.html#ad5f0de4c628cbfbf49896042831c64ad" xlink:title="CoolBoardLed::strobe">
<polygon fill="white" stroke="black" points="135,-0.5 135,-19.5 246,-19.5 246,-0.5 135,-0.5"/>
<text text-anchor="middle" x="190.5" y="-7.5" font-family="Helvetica,sans-Serif" font-size="10.00">CoolBoardLed::strobe</text>
</a>
</g>
</g>
<!-- Node88&#45;&gt;Node96 -->
<g id="edge8" class="edge"><title>Node88&#45;&gt;Node96</title>
<path fill="none" stroke="midnightblue" d="M54.2707,-114.395C66.2067,-95.3278 95.4841,-52.517 131,-29 134.075,-26.9642 137.384,-25.1319 140.809,-23.4853"/>
<polygon fill="midnightblue" stroke="midnightblue" points="142.232,-26.6835 150.064,-19.5479 139.492,-20.2423 142.232,-26.6835"/>
</g>
<!-- Node90 -->
<g id="node3" class="node"><title>Node90</title>
<g id="a_node3"><a xlink:href="$db/d0c/class_cool_file_system.html#a70701d05e811604af1b531f4f6dc69ed" xlink:title="CoolFileSystem::getsavedData">
<polygon fill="white" stroke="black" points="286,-228.5 286,-247.5 439,-247.5 439,-228.5 286,-228.5"/>
<text text-anchor="middle" x="362.5" y="-235.5" font-family="Helvetica,sans-Serif" font-size="10.00">CoolFileSystem::getsavedData</text>
</a>
</g>
</g>
<!-- Node89&#45;&gt;Node90 -->
<g id="edge2" class="edge"><title>Node89&#45;&gt;Node90</title>
<path fill="none" stroke="midnightblue" d="M248.58,-238C257.364,-238 266.595,-238 275.837,-238"/>
<polygon fill="midnightblue" stroke="midnightblue" points="275.849,-241.5 285.849,-238 275.849,-234.5 275.849,-241.5"/>
</g>
</g>
</svg>
