<?xml version="1.0" encoding="UTF-8" standalone="no"?>
<!DOCTYPE svg PUBLIC "-//W3C//DTD SVG 1.1//EN"
 "http://www.w3.org/Graphics/SVG/1.1/DTD/svg11.dtd">
<!-- Generated by graphviz version 2.38.0 (20140413.2041)
 -->
<!-- Title: CoolBoard::update Pages: 1 -->
<svg width="838pt" height="426pt"
 viewBox="0.00 0.00 838.00 426.00" xmlns="http://www.w3.org/2000/svg" xmlns:xlink="http://www.w3.org/1999/xlink">
<g id="graph0" class="graph" transform="scale(1 1) rotate(0) translate(4 422)">
<title>CoolBoard::update</title>
<polygon fill="white" stroke="none" points="-4,4 -4,-422 834,-422 834,4 -4,4"/>
<!-- Node98 -->
<g id="node1" class="node"><title>Node98</title>
<polygon fill="#bfbfbf" stroke="black" points="0,-202.5 0,-221.5 98,-221.5 98,-202.5 0,-202.5"/>
<text text-anchor="middle" x="49" y="-209.5" font-family="Helvetica,sans-Serif" font-size="10.00">CoolBoard::update</text>
</g>
<!-- Node99 -->
<g id="node2" class="node"><title>Node99</title>
<g id="a_node2"><a xlink:href="$d6/d03/class_irene3000.html#aa140dd026922a04981edfd04d46cabbe" xlink:title="Irene3000::calibratepH4">
<polygon fill="white" stroke="black" points="149,-354.5 149,-373.5 269,-373.5 269,-354.5 149,-354.5"/>
<text text-anchor="middle" x="209" y="-361.5" font-family="Helvetica,sans-Serif" font-size="10.00">Irene3000::calibratepH4</text>
</a>
</g>
</g>
<!-- Node98&#45;&gt;Node99 -->
<g id="edge1" class="edge"><title>Node98&#45;&gt;Node99</title>
<path fill="none" stroke="midnightblue" d="M53.2845,-221.808C62.1027,-246.583 88.7426,-312.043 134,-345 136.681,-346.952 139.543,-348.704 142.527,-350.276"/>
<polygon fill="midnightblue" stroke="midnightblue" points="141.228,-353.53 151.78,-354.475 144.12,-347.156 141.228,-353.53"/>
</g>
<!-- Node108 -->
<g id="node11" class="node"><title>Node108</title>
<g id="a_node11"><a xlink:href="$d6/d03/class_irene3000.html#a1d3299202e4cb7afcff9c9e3e95d94c1" xlink:title="Irene3000::calibratepH7">
<polygon fill="white" stroke="black" points="149,-392.5 149,-411.5 269,-411.5 269,-392.5 149,-392.5"/>
<text text-anchor="middle" x="209" y="-399.5" font-family="Helvetica,sans-Serif" font-size="10.00">Irene3000::calibratepH7</text>
</a>
</g>
</g>
<!-- Node98&#45;&gt;Node108 -->
<g id="edge11" class="edge"><title>Node98&#45;&gt;Node108</title>
<path fill="none" stroke="midnightblue" d="M51.8549,-221.912C57.9001,-251.353 79.8542,-338.967 134,-383 136.071,-384.684 138.274,-386.221 140.575,-387.623"/>
<polygon fill="midnightblue" stroke="midnightblue" points="139.37,-390.939 149.865,-392.391 142.567,-384.711 139.37,-390.939"/>
</g>
<!-- Node109 -->
<g id="node12" class="node"><title>Node109</title>
<g id="a_node12"><a xlink:href="$de/dc0/class_cool_board_led.html#ab778f5e7bed0ab74e3906d82110493c3" xlink:title="CoolBoardLed::fadeIn">
<polygon fill="white" stroke="black" points="153.5,-316.5 153.5,-335.5 264.5,-335.5 264.5,-316.5 153.5,-316.5"/>
<text text-anchor="middle" x="209" y="-323.5" font-family="Helvetica,sans-Serif" font-size="10.00">CoolBoardLed::fadeIn</text>
</a>
</g>
</g>
<!-- Node98&#45;&gt;Node109 -->
<g id="edge15" class="edge"><title>Node98&#45;&gt;Node109</title>
<path fill="none" stroke="midnightblue" d="M55.7974,-221.795C67.8098,-241.202 97.3792,-284.595 134,-307 137.564,-309.18 141.371,-311.112 145.308,-312.823"/>
<polygon fill="midnightblue" stroke="midnightblue" points="144.086,-316.103 154.676,-316.428 146.6,-309.57 144.086,-316.103"/>
</g>
<!-- Node110 -->
<g id="node13" class="node"><title>Node110</title>
<g id="a_node13"><a xlink:href="$de/dc0/class_cool_board_led.html#a93d545679237e8cc858324367149775c" xlink:title="CoolBoardLed::fadeOut">
<polygon fill="white" stroke="black" points="149.5,-278.5 149.5,-297.5 268.5,-297.5 268.5,-278.5 149.5,-278.5"/>
<text text-anchor="middle" x="209" y="-285.5" font-family="Helvetica,sans-Serif" font-size="10.00">CoolBoardLed::fadeOut</text>
</a>
</g>
</g>
<!-- Node98&#45;&gt;Node110 -->
<g id="edge16" class="edge"><title>Node98&#45;&gt;Node110</title>
<path fill="none" stroke="midnightblue" d="M61.4632,-221.699C76.956,-234.339 105.886,-256.318 134,-269 139.344,-271.411 145.05,-273.556 150.831,-275.454"/>
<polygon fill="midnightblue" stroke="midnightblue" points="149.998,-278.859 160.584,-278.421 152.036,-272.162 149.998,-278.859"/>
</g>
<!-- Node111 -->
<g id="node14" class="node"><title>Node111</title>
<g id="a_node14"><a xlink:href="$d0/dd0/class_cool_m_q_t_t.html#aa5eaae967b562b62cbcf2b8d81f6e5d5" xlink:title="CoolMQTT::mqttLoop">
<polygon fill="white" stroke="black" points="153.5,-240.5 153.5,-259.5 264.5,-259.5 264.5,-240.5 153.5,-240.5"/>
<text text-anchor="middle" x="209" y="-247.5" font-family="Helvetica,sans-Serif" font-size="10.00">CoolMQTT::mqttLoop</text>
</a>
</g>
</g>
<!-- Node98&#45;&gt;Node111 -->
<g id="edge17" class="edge"><title>Node98&#45;&gt;Node111</title>
<path fill="none" stroke="midnightblue" d="M89.8701,-221.589C110.72,-226.604 136.435,-232.788 158.543,-238.105"/>
<polygon fill="midnightblue" stroke="midnightblue" points="157.875,-241.544 168.417,-240.48 159.512,-234.739 157.875,-241.544"/>
</g>
<!-- Node116 -->
<g id="node19" class="node"><title>Node116</title>
<g id="a_node19"><a xlink:href="$d0/dd0/class_cool_m_q_t_t.html#ace977b3e90ab14b1199fe5c4fb0a13ec" xlink:title="CoolMQTT::publish">
<polygon fill="white" stroke="black" points="158.5,-202.5 158.5,-221.5 259.5,-221.5 259.5,-202.5 158.5,-202.5"/>
<text text-anchor="middle" x="209" y="-209.5" font-family="Helvetica,sans-Serif" font-size="10.00">CoolMQTT::publish</text>
</a>
</g>
</g>
<!-- Node98&#45;&gt;Node116 -->
<g id="edge22" class="edge"><title>Node98&#45;&gt;Node116</title>
<path fill="none" stroke="midnightblue" d="M98.2637,-212C114.046,-212 131.767,-212 148.29,-212"/>
<polygon fill="midnightblue" stroke="midnightblue" points="148.394,-215.5 158.394,-212 148.394,-208.5 148.394,-215.5"/>
</g>
<!-- Node118 -->
<g id="node21" class="node"><title>Node118</title>
<g id="a_node21"><a xlink:href="$d6/d03/class_irene3000.html#a63dbd38e79b8cd5f1fba4b245501a894" xlink:title="Irene3000::saveParams">
<polygon fill="white" stroke="black" points="149,-164.5 149,-183.5 269,-183.5 269,-164.5 149,-164.5"/>
<text text-anchor="middle" x="209" y="-171.5" font-family="Helvetica,sans-Serif" font-size="10.00">Irene3000::saveParams</text>
</a>
</g>
</g>
<!-- Node98&#45;&gt;Node118 -->
<g id="edge24" class="edge"><title>Node98&#45;&gt;Node118</title>
<path fill="none" stroke="midnightblue" d="M89.8701,-202.411C110.72,-197.396 136.435,-191.212 158.543,-185.895"/>
<polygon fill="midnightblue" stroke="midnightblue" points="159.512,-189.261 168.417,-183.52 157.875,-182.456 159.512,-189.261"/>
</g>
<!-- Node119 -->
<g id="node22" class="node"><title>Node119</title>
<g id="a_node22"><a xlink:href="$de/dc0/class_cool_board_led.html#ad5f0de4c628cbfbf49896042831c64ad" xlink:title="CoolBoardLed::strobe">
<polygon fill="white" stroke="black" points="153.5,-126.5 153.5,-145.5 264.5,-145.5 264.5,-126.5 153.5,-126.5"/>
<text text-anchor="middle" x="209" y="-133.5" font-family="Helvetica,sans-Serif" font-size="10.00">CoolBoardLed::strobe</text>
</a>
</g>
</g>
<!-- Node98&#45;&gt;Node119 -->
<g id="edge25" class="edge"><title>Node98&#45;&gt;Node119</title>
<path fill="none" stroke="midnightblue" d="M61.4632,-202.301C76.956,-189.661 105.886,-167.682 134,-155 139.344,-152.589 145.05,-150.444 150.831,-148.546"/>
<polygon fill="midnightblue" stroke="midnightblue" points="152.036,-151.838 160.584,-145.579 149.998,-145.141 152.036,-151.838"/>
</g>
<!-- Node120 -->
<g id="node23" class="node"><title>Node120</title>
<g id="a_node23"><a xlink:href="$db/d0c/class_cool_file_system.html#adfa8e2e80641ae6f0cceabd348a9b841" xlink:title="CoolFileSystem::updateConfig\lFiles">
<polygon fill="white" stroke="black" points="134,-77 134,-107 284,-107 284,-77 134,-77"/>
<text text-anchor="start" x="142" y="-95" font-family="Helvetica,sans-Serif" font-size="10.00">CoolFileSystem::updateConfig</text>
<text text-anchor="middle" x="209" y="-84" font-family="Helvetica,sans-Serif" font-size="10.00">Files</text>
</a>
</g>
</g>
<!-- Node98&#45;&gt;Node120 -->
<g id="edge26" class="edge"><title>Node98&#45;&gt;Node120</title>
<path fill="none" stroke="midnightblue" d="M55.9438,-202.435C68.2194,-183.44 98.2386,-140.752 134,-117 137.061,-114.967 140.302,-113.085 143.652,-111.343"/>
<polygon fill="midnightblue" stroke="midnightblue" points="145.177,-114.494 152.723,-107.058 142.186,-108.165 145.177,-114.494"/>
</g>
<!-- Node122 -->
<g id="node25" class="node"><title>Node122</title>
<g id="a_node25"><a xlink:href="$dc/d69/class_cool_board_actor.html#a958786ff01ea1056ee72c72d439f86da" xlink:title="CoolBoardActor::write">
<polygon fill="white" stroke="black" points="152.5,-38.5 152.5,-57.5 265.5,-57.5 265.5,-38.5 152.5,-38.5"/>
<text text-anchor="middle" x="209" y="-45.5" font-family="Helvetica,sans-Serif" font-size="10.00">CoolBoardActor::write</text>
</a>
</g>
</g>
<!-- Node98&#45;&gt;Node122 -->
<g id="edge28" class="edge"><title>Node98&#45;&gt;Node122</title>
<path fill="none" stroke="midnightblue" d="M52.8256,-202.195C60.8673,-176.091 86.4272,-104.417 134,-68 137.032,-65.6794 140.313,-63.6277 143.75,-61.8139"/>
<polygon fill="midnightblue" stroke="midnightblue" points="145.489,-64.868 153.148,-57.5465 142.595,-58.4944 145.489,-64.868"/>
</g>
<!-- Node123 -->
<g id="node26" class="node"><title>Node123</title>
<g id="a_node26"><a xlink:href="$df/d1d/class_jetpack.html#a79ae7bc3c1828a0551a7c005c4f8bd00" xlink:title="Jetpack::writeBit">
<polygon fill="white" stroke="black" points="164,-0.5 164,-19.5 254,-19.5 254,-0.5 164,-0.5"/>
<text text-anchor="middle" x="209" y="-7.5" font-family="Helvetica,sans-Serif" font-size="10.00">Jetpack::writeBit</text>
</a>
</g>
</g>
<!-- Node98&#45;&gt;Node123 -->
<g id="edge29" class="edge"><title>Node98&#45;&gt;Node123</title>
<path fill="none" stroke="midnightblue" d="M51.4767,-202.286C56.6511,-171.722 76.8532,-76.7348 134,-29 139.809,-24.1479 146.705,-20.5148 153.915,-17.7985"/>
<polygon fill="midnightblue" stroke="midnightblue" points="155.398,-20.9994 163.868,-14.6341 153.277,-14.3284 155.398,-20.9994"/>
</g>
<!-- Node100 -->
<g id="node3" class="node"><title>Node100</title>
<g id="a_node3"><a xlink:href="$d6/d03/class_irene3000.html#aff7c5da186b388e7272e63ff88a20c34" xlink:title="Irene3000::setGain">
<polygon fill="white" stroke="black" points="342.5,-398.5 342.5,-417.5 441.5,-417.5 441.5,-398.5 342.5,-398.5"/>
<text text-anchor="middle" x="392" y="-405.5" font-family="Helvetica,sans-Serif" font-size="10.00">Irene3000::setGain</text>
</a>
</g>
</g>
<!-- Node99&#45;&gt;Node100 -->
<g id="edge2" class="edge"><title>Node99&#45;&gt;Node100</title>
<path fill="none" stroke="midnightblue" d="M249.274,-373.547C276.432,-380.149 312.766,-388.982 341.846,-396.051"/>
<polygon fill="midnightblue" stroke="midnightblue" points="341.259,-399.51 351.802,-398.471 342.912,-392.708 341.259,-399.51"/>
</g>
<!-- Node102 -->
<g id="node5" class="node"><title>Node102</title>
<g id="a_node5"><a xlink:href="$df/df6/class_adafruit___a_d_s1015.html#a40f38b9e1f3ec397c0670dd632510235" xlink:title="Gets a single&#45;ended ADC reading from the specified channel. ">
<polygon fill="white" stroke="black" points="320,-349 320,-379 464,-379 464,-349 320,-349"/>
<text text-anchor="start" x="328" y="-367" font-family="Helvetica,sans-Serif" font-size="10.00">Adafruit_ADS1015::readADC</text>
<text text-anchor="middle" x="392" y="-356" font-family="Helvetica,sans-Serif" font-size="10.00">_SingleEnded</text>
</a>
</g>
</g>
<!-- Node99&#45;&gt;Node102 -->
<g id="edge4" class="edge"><title>Node99&#45;&gt;Node102</title>
<path fill="none" stroke="midnightblue" d="M269.266,-364C282.165,-364 296.029,-364 309.615,-364"/>
<polygon fill="midnightblue" stroke="midnightblue" points="309.931,-367.5 319.931,-364 309.931,-360.5 309.931,-367.5"/>
</g>
<!-- Node107 -->
<g id="node10" class="node"><title>Node107</title>
<g id="a_node10"><a xlink:href="$d6/d03/class_irene3000.html#a81f6a79e546679692053f7ac1af49613" xlink:title="Irene3000::calcpHSlope">
<polygon fill="white" stroke="black" points="331.5,-310.5 331.5,-329.5 452.5,-329.5 452.5,-310.5 331.5,-310.5"/>
<text text-anchor="middle" x="392" y="-317.5" font-family="Helvetica,sans-Serif" font-size="10.00">Irene3000::calcpHSlope</text>
</a>
</g>
</g>
<!-- Node99&#45;&gt;Node107 -->
<g id="edge10" class="edge"><title>Node99&#45;&gt;Node107</title>
<path fill="none" stroke="midnightblue" d="M249.274,-354.453C276.432,-347.851 312.766,-339.018 341.846,-331.949"/>
<polygon fill="midnightblue" stroke="midnightblue" points="342.912,-335.292 351.802,-329.529 341.259,-328.49 342.912,-335.292"/>
</g>
<!-- Node101 -->
<g id="node4" class="node"><title>Node101</title>
<g id="a_node4"><a xlink:href="$df/df6/class_adafruit___a_d_s1015.html#a399441eace686975ff22937cbe45cc50" xlink:title="Sets the gain and input voltage range. ">
<polygon fill="white" stroke="black" points="507.5,-398.5 507.5,-417.5 644.5,-417.5 644.5,-398.5 507.5,-398.5"/>
<text text-anchor="middle" x="576" y="-405.5" font-family="Helvetica,sans-Serif" font-size="10.00">Adafruit_ADS1015::setGain</text>
</a>
</g>
</g>
<!-- Node100&#45;&gt;Node101 -->
<g id="edge3" class="edge"><title>Node100&#45;&gt;Node101</title>
<path fill="none" stroke="midnightblue" d="M441.773,-408C458.82,-408 478.408,-408 497.225,-408"/>
<polygon fill="midnightblue" stroke="midnightblue" points="497.276,-411.5 507.276,-408 497.276,-404.5 497.276,-411.5"/>
</g>
<!-- Node103 -->
<g id="node6" class="node"><title>Node103</title>
<g id="a_node6"><a xlink:href="$d8/daa/_cool_adafruit___a_d_s1015_8cpp.html#a319539381b7551b2f83a92b0b596e97d" xlink:title="Writes 16&#45;bits to the specified destination register. ">
<polygon fill="white" stroke="black" points="540,-319.5 540,-338.5 612,-338.5 612,-319.5 540,-319.5"/>
<text text-anchor="middle" x="576" y="-326.5" font-family="Helvetica,sans-Serif" font-size="10.00">readRegister</text>
</a>
</g>
</g>
<!-- Node102&#45;&gt;Node103 -->
<g id="edge5" class="edge"><title>Node102&#45;&gt;Node103</title>
<path fill="none" stroke="midnightblue" d="M464.148,-350.318C486.222,-346.073 509.934,-341.513 529.74,-337.704"/>
<polygon fill="midnightblue" stroke="midnightblue" points="530.552,-341.112 539.711,-335.786 529.23,-334.238 530.552,-341.112"/>
</g>
<!-- Node106 -->
<g id="node9" class="node"><title>Node106</title>
<g id="a_node9"><a xlink:href="$d8/daa/_cool_adafruit___a_d_s1015_8cpp.html#a00ef55774dfb93dd0a7bf561d8451b71" xlink:title="Writes 16&#45;bits to the specified destination register. ">
<polygon fill="white" stroke="black" points="539,-357.5 539,-376.5 613,-376.5 613,-357.5 539,-357.5"/>
<text text-anchor="middle" x="576" y="-364.5" font-family="Helvetica,sans-Serif" font-size="10.00">writeRegister</text>
</a>
</g>
</g>
<!-- Node102&#45;&gt;Node106 -->
<g id="edge8" class="edge"><title>Node102&#45;&gt;Node106</title>
<path fill="none" stroke="midnightblue" d="M464.148,-365.173C485.783,-365.529 508.991,-365.912 528.553,-366.234"/>
<polygon fill="midnightblue" stroke="midnightblue" points="528.66,-369.737 538.716,-366.402 528.775,-362.737 528.66,-369.737"/>
</g>
<!-- Node104 -->
<g id="node7" class="node"><title>Node104</title>
<g id="a_node7"><a xlink:href="$d8/daa/_cool_adafruit___a_d_s1015_8cpp.html#af89e2442d757f6ec8100c473022f6701" xlink:title="Abstract away platform differences in Arduino wire library. ">
<polygon fill="white" stroke="black" points="735,-319.5 735,-338.5 783,-338.5 783,-319.5 735,-319.5"/>
<text text-anchor="middle" x="759" y="-326.5" font-family="Helvetica,sans-Serif" font-size="10.00">i2cread</text>
</a>
</g>
</g>
<!-- Node103&#45;&gt;Node104 -->
<g id="edge6" class="edge"><title>Node103&#45;&gt;Node104</title>
<path fill="none" stroke="midnightblue" d="M612.328,-329C644.864,-329 692.784,-329 724.67,-329"/>
<polygon fill="midnightblue" stroke="midnightblue" points="724.823,-332.5 734.823,-329 724.823,-325.5 724.823,-332.5"/>
</g>
<!-- Node105 -->
<g id="node8" class="node"><title>Node105</title>
<g id="a_node8"><a xlink:href="$d8/daa/_cool_adafruit___a_d_s1015_8cpp.html#a6db5edba66e20bba6d5b421c2789af54" xlink:title="Abstract away platform differences in Arduino wire library. ">
<polygon fill="white" stroke="black" points="734,-357.5 734,-376.5 784,-376.5 784,-357.5 734,-357.5"/>
<text text-anchor="middle" x="759" y="-364.5" font-family="Helvetica,sans-Serif" font-size="10.00">i2cwrite</text>
</a>
</g>
</g>
<!-- Node103&#45;&gt;Node105 -->
<g id="edge7" class="edge"><title>Node103&#45;&gt;Node105</title>
<path fill="none" stroke="midnightblue" d="M612.328,-336.417C644.494,-343.17 691.697,-353.08 723.577,-359.773"/>
<polygon fill="midnightblue" stroke="midnightblue" points="723.251,-363.281 733.757,-361.91 724.689,-356.43 723.251,-363.281"/>
</g>
<!-- Node106&#45;&gt;Node105 -->
<g id="edge9" class="edge"><title>Node106&#45;&gt;Node105</title>
<path fill="none" stroke="midnightblue" d="M613.193,-367C645.448,-367 692.308,-367 723.908,-367"/>
<polygon fill="midnightblue" stroke="midnightblue" points="723.997,-370.5 733.997,-367 723.997,-363.5 723.997,-370.5"/>
</g>
<!-- Node108&#45;&gt;Node100 -->
<g id="edge12" class="edge"><title>Node108&#45;&gt;Node100</title>
<path fill="none" stroke="midnightblue" d="M269.266,-403.965C289.552,-404.637 312.224,-405.389 332.453,-406.059"/>
<polygon fill="midnightblue" stroke="midnightblue" points="332.363,-409.558 342.473,-406.391 332.594,-402.562 332.363,-409.558"/>
</g>
<!-- Node108&#45;&gt;Node102 -->
<g id="edge13" class="edge"><title>Node108&#45;&gt;Node102</title>
<path fill="none" stroke="midnightblue" d="M255.674,-392.411C272.185,-388.944 291.36,-384.919 309.993,-381.007"/>
<polygon fill="midnightblue" stroke="midnightblue" points="310.9,-384.393 319.967,-378.913 309.461,-377.542 310.9,-384.393"/>
</g>
<!-- Node108&#45;&gt;Node107 -->
<g id="edge14" class="edge"><title>Node108&#45;&gt;Node107</title>
<path fill="none" stroke="midnightblue" d="M263.808,-392.45C270.894,-389.987 277.829,-386.891 284,-383 305.084,-369.707 299.072,-353.538 320,-340 323.854,-337.507 328.021,-335.32 332.337,-333.402"/>
<polygon fill="midnightblue" stroke="midnightblue" points="333.935,-336.535 341.962,-329.619 331.374,-330.02 333.935,-336.535"/>
</g>
<!-- Node112 -->
<g id="node15" class="node"><title>Node112</title>
<g id="a_node15"><a xlink:href="$d8/d4b/class_cool_pub_sub_client.html#afc15900f0fc4886a19394508e61793b8" xlink:title="CoolPubSubClient::loop">
<polygon fill="white" stroke="black" points="331.5,-240.5 331.5,-259.5 452.5,-259.5 452.5,-240.5 331.5,-240.5"/>
<text text-anchor="middle" x="392" y="-247.5" font-family="Helvetica,sans-Serif" font-size="10.00">CoolPubSubClient::loop</text>
</a>
</g>
</g>
<!-- Node111&#45;&gt;Node112 -->
<g id="edge18" class="edge"><title>Node111&#45;&gt;Node112</title>
<path fill="none" stroke="midnightblue" d="M264.797,-250C282.531,-250 302.443,-250 321.118,-250"/>
<polygon fill="midnightblue" stroke="midnightblue" points="321.344,-253.5 331.344,-250 321.344,-246.5 321.344,-253.5"/>
</g>
<!-- Node113 -->
<g id="node16" class="node"><title>Node113</title>
<g id="a_node16"><a xlink:href="$d8/d4b/class_cool_pub_sub_client.html#a3d5a5da4ddb1e5c1bea64d80c665d148" xlink:title="CoolPubSubClient::connected">
<polygon fill="white" stroke="black" points="502,-240.5 502,-259.5 650,-259.5 650,-240.5 502,-240.5"/>
<text text-anchor="middle" x="576" y="-247.5" font-family="Helvetica,sans-Serif" font-size="10.00">CoolPubSubClient::connected</text>
</a>
</g>
</g>
<!-- Node112&#45;&gt;Node113 -->
<g id="edge19" class="edge"><title>Node112&#45;&gt;Node113</title>
<path fill="none" stroke="midnightblue" d="M452.594,-250C465.151,-250 478.617,-250 491.86,-250"/>
<polygon fill="midnightblue" stroke="midnightblue" points="491.924,-253.5 501.924,-250 491.924,-246.5 491.924,-253.5"/>
</g>
<!-- Node114 -->
<g id="node17" class="node"><title>Node114</title>
<g id="a_node17"><a xlink:href="$d8/d4b/class_cool_pub_sub_client.html#a25a8779149cfa809b7c06f63568b25cf" xlink:title="CoolPubSubClient::readPacket">
<polygon fill="white" stroke="black" points="500,-278.5 500,-297.5 652,-297.5 652,-278.5 500,-278.5"/>
<text text-anchor="middle" x="576" y="-285.5" font-family="Helvetica,sans-Serif" font-size="10.00">CoolPubSubClient::readPacket</text>
</a>
</g>
</g>
<!-- Node112&#45;&gt;Node114 -->
<g id="edge20" class="edge"><title>Node112&#45;&gt;Node114</title>
<path fill="none" stroke="midnightblue" d="M438.926,-259.589C463.376,-264.694 493.633,-271.011 519.403,-276.392"/>
<polygon fill="midnightblue" stroke="midnightblue" points="518.9,-279.862 529.404,-278.48 520.33,-273.01 518.9,-279.862"/>
</g>
<!-- Node115 -->
<g id="node18" class="node"><title>Node115</title>
<g id="a_node18"><a xlink:href="$d8/d4b/class_cool_pub_sub_client.html#ad409bbd287d5894f0cf082f62446c002" xlink:title="CoolPubSubClient::readByte">
<polygon fill="white" stroke="black" points="688,-278.5 688,-297.5 830,-297.5 830,-278.5 688,-278.5"/>
<text text-anchor="middle" x="759" y="-285.5" font-family="Helvetica,sans-Serif" font-size="10.00">CoolPubSubClient::readByte</text>
</a>
</g>
</g>
<!-- Node114&#45;&gt;Node115 -->
<g id="edge21" class="edge"><title>Node114&#45;&gt;Node115</title>
<path fill="none" stroke="midnightblue" d="M652.188,-288C660.612,-288 669.219,-288 677.704,-288"/>
<polygon fill="midnightblue" stroke="midnightblue" points="677.974,-291.5 687.974,-288 677.974,-284.5 677.974,-291.5"/>
</g>
<!-- Node117 -->
<g id="node20" class="node"><title>Node117</title>
<g id="a_node20"><a xlink:href="$d8/d4b/class_cool_pub_sub_client.html#ab6ad5fa2d3db8f91454027257f225a89" xlink:title="CoolPubSubClient::publish">
<polygon fill="white" stroke="black" points="325,-202.5 325,-221.5 459,-221.5 459,-202.5 325,-202.5"/>
<text text-anchor="middle" x="392" y="-209.5" font-family="Helvetica,sans-Serif" font-size="10.00">CoolPubSubClient::publish</text>
</a>
</g>
</g>
<!-- Node116&#45;&gt;Node117 -->
<g id="edge23" class="edge"><title>Node116&#45;&gt;Node117</title>
<path fill="none" stroke="midnightblue" d="M259.938,-212C276.89,-212 296.235,-212 314.762,-212"/>
<polygon fill="midnightblue" stroke="midnightblue" points="314.951,-215.5 324.951,-212 314.951,-208.5 314.951,-215.5"/>
</g>
<!-- Node121 -->
<g id="node24" class="node"><title>Node121</title>
<g id="a_node24"><a xlink:href="$db/d0c/class_cool_file_system.html#a13f2958f5b87757c31fc53797a30d23a" xlink:title="CoolFileSystem::fileUpdate">
<polygon fill="white" stroke="black" points="323.5,-82.5 323.5,-101.5 460.5,-101.5 460.5,-82.5 323.5,-82.5"/>
<text text-anchor="middle" x="392" y="-89.5" font-family="Helvetica,sans-Serif" font-size="10.00">CoolFileSystem::fileUpdate</text>
</a>
</g>
</g>
<!-- Node120&#45;&gt;Node121 -->
<g id="edge27" class="edge"><title>Node120&#45;&gt;Node121</title>
<path fill="none" stroke="midnightblue" d="M284.142,-92C293.779,-92 303.672,-92 313.364,-92"/>
<polygon fill="midnightblue" stroke="midnightblue" points="313.372,-95.5001 323.372,-92 313.372,-88.5001 313.372,-95.5001"/>
</g>
</g>
</svg>
