<?xml version="1.0" encoding="UTF-8" standalone="no"?>
<!DOCTYPE svg PUBLIC "-//W3C//DTD SVG 1.1//EN"
 "http://www.w3.org/Graphics/SVG/1.1/DTD/svg11.dtd">
<!-- Generated by graphviz version 2.38.0 (20140413.2041)
 -->
<!-- Title: CoolBoard::offLineMode Pages: 1 -->
<svg width="903pt" height="1605pt"
 viewBox="0.00 0.00 903.00 1605.00" xmlns="http://www.w3.org/2000/svg" xmlns:xlink="http://www.w3.org/1999/xlink">
<g id="graph0" class="graph" transform="scale(1 1) rotate(0) translate(4 1601)">
<title>CoolBoard::offLineMode</title>
<polygon fill="white" stroke="none" points="-4,4 -4,-1601 899,-1601 899,4 -4,4"/>
<!-- Node126 -->
<g id="node1" class="node"><title>Node126</title>
<polygon fill="#bfbfbf" stroke="black" points="0,-448.5 0,-467.5 122,-467.5 122,-448.5 0,-448.5"/>
<text text-anchor="middle" x="61" y="-455.5" font-family="Helvetica,sans-Serif" font-size="10.00">CoolBoard::offLineMode</text>
</g>
<!-- Node127 -->
<g id="node2" class="node"><title>Node127</title>
<g id="a_node2"><a xlink:href="$de/dc0/class_cool_board_led.html#a96e1ea13003eee34c9dbcef340404426" xlink:title="CoolBoardLed::blink">
<polygon fill="white" stroke="black" points="389.5,-1520.5 389.5,-1539.5 493.5,-1539.5 493.5,-1520.5 389.5,-1520.5"/>
<text text-anchor="middle" x="441.5" y="-1527.5" font-family="Helvetica,sans-Serif" font-size="10.00">CoolBoardLed::blink</text>
</a>
</g>
</g>
<!-- Node126&#45;&gt;Node127 -->
<g id="edge1" class="edge"><title>Node126&#45;&gt;Node127</title>
<path fill="none" stroke="midnightblue" d="M62.388,-467.501C66.326,-562.16 100.11,-1333.97 158,-1416 208.689,-1487.82 312.649,-1514.44 379.335,-1524.27"/>
<polygon fill="midnightblue" stroke="midnightblue" points="378.911,-1527.75 389.298,-1525.66 379.875,-1520.81 378.911,-1527.75"/>
</g>
<!-- Node128 -->
<g id="node3" class="node"><title>Node128</title>
<g id="a_node3"><a xlink:href="$d7/df9/class_cool_board.html#a519de78b807f8ec6463ff484eb925918" xlink:title="CoolBoard::connect">
<polygon fill="white" stroke="black" points="189,-1387.5 189,-1406.5 292,-1406.5 292,-1387.5 189,-1387.5"/>
<text text-anchor="middle" x="240.5" y="-1394.5" font-family="Helvetica,sans-Serif" font-size="10.00">CoolBoard::connect</text>
</a>
</g>
</g>
<!-- Node126&#45;&gt;Node128 -->
<g id="edge2" class="edge"><title>Node126&#45;&gt;Node128</title>
<path fill="none" stroke="midnightblue" d="M62.2065,-467.747C64.1164,-551.828 80.4248,-1155.39 158,-1316 171.242,-1343.42 197.663,-1366.93 216.842,-1381.45"/>
<polygon fill="midnightblue" stroke="midnightblue" points="214.934,-1384.4 225.071,-1387.48 219.067,-1378.75 214.934,-1384.4"/>
</g>
<!-- Node132 -->
<g id="node6" class="node"><title>Node132</title>
<g id="a_node6"><a xlink:href="$d7/d29/class_cool_wifi.html#a7c857f27161782f5ef1d62d552aff971" xlink:title="CoolWifi::connectAP">
<polygon fill="white" stroke="black" points="560,-1520.5 560,-1539.5 668,-1539.5 668,-1520.5 560,-1520.5"/>
<text text-anchor="middle" x="614" y="-1527.5" font-family="Helvetica,sans-Serif" font-size="10.00">CoolWifi::connectAP</text>
</a>
</g>
</g>
<!-- Node126&#45;&gt;Node132 -->
<g id="edge16" class="edge"><title>Node126&#45;&gt;Node132</title>
<path fill="none" stroke="midnightblue" d="M62.2804,-467.529C65.2513,-565.848 92.1492,-1393.6 158,-1478 255.324,-1602.74 476.277,-1564.97 569.847,-1541.97"/>
<polygon fill="midnightblue" stroke="midnightblue" points="570.715,-1545.36 579.556,-1539.52 569.004,-1538.57 570.715,-1545.36"/>
</g>
<!-- Node138 -->
<g id="node11" class="node"><title>Node138</title>
<g id="a_node11"><a xlink:href="$d7/d29/class_cool_wifi.html#a1c7b4d82a4098d346e7593dce92039fa" xlink:title="CoolWifi::state">
<polygon fill="white" stroke="black" points="400.5,-1292.5 400.5,-1311.5 482.5,-1311.5 482.5,-1292.5 400.5,-1292.5"/>
<text text-anchor="middle" x="441.5" y="-1299.5" font-family="Helvetica,sans-Serif" font-size="10.00">CoolWifi::state</text>
</a>
</g>
</g>
<!-- Node126&#45;&gt;Node138 -->
<g id="edge55" class="edge"><title>Node126&#45;&gt;Node138</title>
<path fill="none" stroke="midnightblue" d="M62.4,-467.58C66.157,-555.376 96.4873,-1218.41 158,-1278 220.793,-1338.83 332.438,-1326.8 394.922,-1313.74"/>
<polygon fill="midnightblue" stroke="midnightblue" points="395.863,-1317.11 404.883,-1311.56 394.366,-1310.28 395.863,-1317.11"/>
</g>
<!-- Node143 -->
<g id="node13" class="node"><title>Node143</title>
<g id="a_node13"><a xlink:href="$d0/dd0/class_cool_m_q_t_t.html#a5d003307eff78efbd585e42b43b72b6d" xlink:title="CoolMQTT::state">
<polygon fill="white" stroke="red" points="568,-1330.5 568,-1349.5 660,-1349.5 660,-1330.5 568,-1330.5"/>
<text text-anchor="middle" x="614" y="-1337.5" font-family="Helvetica,sans-Serif" font-size="10.00">CoolMQTT::state</text>
</a>
</g>
</g>
<!-- Node126&#45;&gt;Node143 -->
<g id="edge54" class="edge"><title>Node126&#45;&gt;Node143</title>
<path fill="none" stroke="midnightblue" d="M62.2843,-467.803C64.1339,-520.79 77.0884,-777.544 158,-966 218.293,-1106.43 231.706,-1160.43 359,-1245 421.68,-1286.64 454.629,-1253.83 524,-1283 549.351,-1293.66 575.523,-1311.37 592.866,-1324.23"/>
<polygon fill="midnightblue" stroke="midnightblue" points="590.994,-1327.2 601.079,-1330.45 595.218,-1321.62 590.994,-1327.2"/>
</g>
<!-- Node146 -->
<g id="node15" class="node"><title>Node146</title>
<g id="a_node15"><a xlink:href="$dc/d69/class_cool_board_actor.html#a3323ba7aaa4bef3ff084dcd830fe9b61" xlink:title="CoolBoardActor::doAction">
<polygon fill="white" stroke="black" points="175.5,-937.5 175.5,-956.5 305.5,-956.5 305.5,-937.5 175.5,-937.5"/>
<text text-anchor="middle" x="240.5" y="-944.5" font-family="Helvetica,sans-Serif" font-size="10.00">CoolBoardActor::doAction</text>
</a>
</g>
</g>
<!-- Node126&#45;&gt;Node146 -->
<g id="edge17" class="edge"><title>Node126&#45;&gt;Node146</title>
<path fill="none" stroke="midnightblue" d="M65.5456,-467.768C87.2897,-527.671 202.652,-845.488 232.464,-927.616"/>
<polygon fill="midnightblue" stroke="midnightblue" points="229.244,-929.003 235.946,-937.209 235.824,-926.615 229.244,-929.003"/>
</g>
<!-- Node160 -->
<g id="node28" class="node"><title>Node160</title>
<g id="a_node28"><a xlink:href="$df/d1d/class_jetpack.html#af9acedb606340c26c2636c282b54dff1" xlink:title="Jetpack::doAction">
<polygon fill="white" stroke="black" points="193,-448.5 193,-467.5 288,-467.5 288,-448.5 193,-448.5"/>
<text text-anchor="middle" x="240.5" y="-455.5" font-family="Helvetica,sans-Serif" font-size="10.00">Jetpack::doAction</text>
</a>
</g>
</g>
<!-- Node126&#45;&gt;Node160 -->
<g id="edge30" class="edge"><title>Node126&#45;&gt;Node160</title>
<path fill="none" stroke="midnightblue" d="M122.093,-458C141.701,-458 163.4,-458 182.754,-458"/>
<polygon fill="midnightblue" stroke="midnightblue" points="182.936,-461.5 192.936,-458 182.936,-454.5 182.936,-461.5"/>
</g>
<!-- Node174 -->
<g id="node42" class="node"><title>Node174</title>
<g id="a_node42"><a xlink:href="$de/dc0/class_cool_board_led.html#af1cacbaa88db8bcf6042c1083ba41155" xlink:title="CoolBoardLed::fade">
<polygon fill="white" stroke="black" points="189,-410.5 189,-429.5 292,-429.5 292,-410.5 189,-410.5"/>
<text text-anchor="middle" x="240.5" y="-417.5" font-family="Helvetica,sans-Serif" font-size="10.00">CoolBoardLed::fade</text>
</a>
</g>
</g>
<!-- Node126&#45;&gt;Node174 -->
<g id="edge44" class="edge"><title>Node126&#45;&gt;Node174</title>
<path fill="none" stroke="midnightblue" d="M106.791,-448.411C130.53,-443.329 159.884,-437.045 184.944,-431.68"/>
<polygon fill="midnightblue" stroke="midnightblue" points="185.986,-435.036 195.031,-429.52 184.52,-428.191 185.986,-435.036"/>
</g>
<!-- Node175 -->
<g id="node43" class="node"><title>Node175</title>
<g id="a_node43"><a xlink:href="$de/dc0/class_cool_board_led.html#ab778f5e7bed0ab74e3906d82110493c3" xlink:title="CoolBoardLed::fadeIn">
<polygon fill="white" stroke="black" points="386,-152.5 386,-171.5 497,-171.5 497,-152.5 386,-152.5"/>
<text text-anchor="middle" x="441.5" y="-159.5" font-family="Helvetica,sans-Serif" font-size="10.00">CoolBoardLed::fadeIn</text>
</a>
</g>
</g>
<!-- Node126&#45;&gt;Node175 -->
<g id="edge45" class="edge"><title>Node126&#45;&gt;Node175</title>
<path fill="none" stroke="midnightblue" d="M75.9543,-448.354C117.09,-419.482 240.172,-329.912 323,-236 342.325,-214.089 335.056,-197.74 359,-181 364.235,-177.34 370.077,-174.376 376.161,-171.978"/>
<polygon fill="midnightblue" stroke="midnightblue" points="377.542,-175.205 385.871,-168.657 375.276,-168.582 377.542,-175.205"/>
</g>
<!-- Node176 -->
<g id="node44" class="node"><title>Node176</title>
<g id="a_node44"><a xlink:href="$de/dc0/class_cool_board_led.html#a93d545679237e8cc858324367149775c" xlink:title="CoolBoardLed::fadeOut">
<polygon fill="white" stroke="black" points="382,-114.5 382,-133.5 501,-133.5 501,-114.5 382,-114.5"/>
<text text-anchor="middle" x="441.5" y="-121.5" font-family="Helvetica,sans-Serif" font-size="10.00">CoolBoardLed::fadeOut</text>
</a>
</g>
</g>
<!-- Node126&#45;&gt;Node176 -->
<g id="edge46" class="edge"><title>Node126&#45;&gt;Node176</title>
<path fill="none" stroke="midnightblue" d="M63.6331,-448.163C69.7493,-414.221 94.2977,-300.565 158,-236 214.447,-178.789 250.757,-197.219 323,-162 339.262,-154.072 342.051,-149.328 359,-143 365.831,-140.45 373.116,-138.169 380.414,-136.15"/>
<polygon fill="midnightblue" stroke="midnightblue" points="381.543,-139.473 390.334,-133.559 379.774,-132.7 381.543,-139.473"/>
</g>
<!-- Node177 -->
<g id="node45" class="node"><title>Node177</title>
<g id="a_node45"><a xlink:href="$d7/df9/class_cool_board.html#ad03abdce2e65f520bbf2cff0f2d083cf" xlink:title="CoolBoard::readSensors">
<polygon fill="white" stroke="red" points="179,-133.5 179,-152.5 302,-152.5 302,-133.5 179,-133.5"/>
<text text-anchor="middle" x="240.5" y="-140.5" font-family="Helvetica,sans-Serif" font-size="10.00">CoolBoard::readSensors</text>
</a>
</g>
</g>
<!-- Node126&#45;&gt;Node177 -->
<g id="edge47" class="edge"><title>Node126&#45;&gt;Node177</title>
<path fill="none" stroke="midnightblue" d="M63.8549,-448.029C70.8598,-412.431 98.3909,-289.397 158,-208 173.025,-187.484 196.108,-169.908 213.878,-158.224"/>
<polygon fill="midnightblue" stroke="midnightblue" points="216.055,-160.988 222.615,-152.668 212.299,-155.081 216.055,-160.988"/>
</g>
<!-- Node211 -->
<g id="node49" class="node"><title>Node211</title>
<g id="a_node49"><a xlink:href="$db/d0c/class_cool_file_system.html#afa3a4feae94871d4d3b6bebb701c2e67" xlink:title="CoolFileSystem::saveSensorData">
<polygon fill="white" stroke="red" points="158,-95.5 158,-114.5 323,-114.5 323,-95.5 158,-95.5"/>
<text text-anchor="middle" x="240.5" y="-102.5" font-family="Helvetica,sans-Serif" font-size="10.00">CoolFileSystem::saveSensorData</text>
</a>
</g>
</g>
<!-- Node126&#45;&gt;Node211 -->
<g id="edge53" class="edge"><title>Node126&#45;&gt;Node211</title>
<path fill="none" stroke="midnightblue" d="M61.5433,-448.312C60.0098,-403.825 59.8193,-217.312 158,-124 159.501,-122.574 161.087,-121.247 162.744,-120.014"/>
<polygon fill="midnightblue" stroke="midnightblue" points="164.874,-122.813 171.56,-114.594 161.208,-116.85 164.874,-122.813"/>
</g>
<!-- Node214 -->
<g id="node50" class="node"><title>Node214</title>
<g id="a_node50"><a xlink:href="$d7/df9/class_cool_board.html#ae7358fb6e623cfc81b775f5f1734909b" xlink:title="CoolBoard::userData">
<polygon fill="white" stroke="red" points="186.5,-57.5 186.5,-76.5 294.5,-76.5 294.5,-57.5 186.5,-57.5"/>
<text text-anchor="middle" x="240.5" y="-64.5" font-family="Helvetica,sans-Serif" font-size="10.00">CoolBoard::userData</text>
</a>
</g>
</g>
<!-- Node126&#45;&gt;Node214 -->
<g id="edge56" class="edge"><title>Node126&#45;&gt;Node214</title>
<path fill="none" stroke="midnightblue" d="M63.1552,-448.24C69.6579,-394.926 103.367,-139.363 158,-86 163.288,-80.8352 169.692,-76.9729 176.561,-74.0993"/>
<polygon fill="midnightblue" stroke="midnightblue" points="177.859,-77.3538 186.155,-70.7641 175.56,-70.742 177.859,-77.3538"/>
</g>
<!-- Node128&#45;&gt;Node127 -->
<g id="edge15" class="edge"><title>Node128&#45;&gt;Node127</title>
<path fill="none" stroke="midnightblue" d="M251.268,-1406.76C278.291,-1433.71 352.482,-1507.44 359,-1511 365.4,-1514.49 372.423,-1517.35 379.579,-1519.68"/>
<polygon fill="midnightblue" stroke="midnightblue" points="378.793,-1523.1 389.373,-1522.54 380.758,-1516.38 378.793,-1523.1"/>
</g>
<!-- Node129 -->
<g id="node4" class="node"><title>Node129</title>
<g id="a_node4"><a xlink:href="$de/dc0/class_cool_board_led.html#a30fadd4cbec17ceea428bf7a32207e87" xlink:title="CoolBoardLed::write">
<polygon fill="white" stroke="black" points="389,-1406.5 389,-1425.5 494,-1425.5 494,-1406.5 389,-1406.5"/>
<text text-anchor="middle" x="441.5" y="-1413.5" font-family="Helvetica,sans-Serif" font-size="10.00">CoolBoardLed::write</text>
</a>
</g>
</g>
<!-- Node128&#45;&gt;Node129 -->
<g id="edge3" class="edge"><title>Node128&#45;&gt;Node129</title>
<path fill="none" stroke="midnightblue" d="M292.231,-1401.84C318.589,-1404.36 351.012,-1407.46 378.81,-1410.11"/>
<polygon fill="midnightblue" stroke="midnightblue" points="378.535,-1413.6 388.823,-1411.07 379.201,-1406.63 378.535,-1413.6"/>
</g>
<!-- Node130 -->
<g id="node5" class="node"><title>Node130</title>
<g id="a_node5"><a xlink:href="$d7/d29/class_cool_wifi.html#ad060353050f40d032a2dbf9e54a768bf" xlink:title="CoolWifi::connect">
<polygon fill="white" stroke="red" points="394,-1482.5 394,-1501.5 489,-1501.5 489,-1482.5 394,-1482.5"/>
<text text-anchor="middle" x="441.5" y="-1489.5" font-family="Helvetica,sans-Serif" font-size="10.00">CoolWifi::connect</text>
</a>
</g>
</g>
<!-- Node128&#45;&gt;Node130 -->
<g id="edge4" class="edge"><title>Node128&#45;&gt;Node130</title>
<path fill="none" stroke="midnightblue" d="M253.393,-1406.72C273.762,-1422.87 317.184,-1455.24 359,-1473 366.882,-1476.35 375.454,-1479.16 383.981,-1481.51"/>
<polygon fill="midnightblue" stroke="midnightblue" points="383.371,-1484.96 393.927,-1484.05 385.107,-1478.18 383.371,-1484.96"/>
</g>
<!-- Node128&#45;&gt;Node138 -->
<g id="edge10" class="edge"><title>Node128&#45;&gt;Node138</title>
<path fill="none" stroke="midnightblue" d="M253.393,-1387.28C273.762,-1371.13 317.184,-1338.76 359,-1321 368.83,-1316.83 379.735,-1313.48 390.286,-1310.84"/>
<polygon fill="midnightblue" stroke="midnightblue" points="391.306,-1314.19 400.247,-1308.51 389.713,-1307.38 391.306,-1314.19"/>
</g>
<!-- Node139 -->
<g id="node12" class="node"><title>Node139</title>
<g id="a_node12"><a xlink:href="$d0/dd0/class_cool_m_q_t_t.html#a50075d0ab23a327ab897fd6adad20eda" xlink:title="CoolMQTT::connect">
<polygon fill="white" stroke="red" points="389,-1330.5 389,-1349.5 494,-1349.5 494,-1330.5 389,-1330.5"/>
<text text-anchor="middle" x="441.5" y="-1337.5" font-family="Helvetica,sans-Serif" font-size="10.00">CoolMQTT::connect</text>
</a>
</g>
</g>
<!-- Node128&#45;&gt;Node139 -->
<g id="edge11" class="edge"><title>Node128&#45;&gt;Node139</title>
<path fill="none" stroke="midnightblue" d="M274.808,-1387.46C308.386,-1377.84 360.368,-1362.95 397.142,-1352.42"/>
<polygon fill="midnightblue" stroke="midnightblue" points="398.434,-1355.69 407.083,-1349.57 396.506,-1348.96 398.434,-1355.69"/>
</g>
<!-- Node128&#45;&gt;Node143 -->
<g id="edge14" class="edge"><title>Node128&#45;&gt;Node143</title>
<path fill="none" stroke="midnightblue" d="M292.2,-1391.37C348.88,-1384.79 443.308,-1373.02 524,-1359 536.161,-1356.89 549.189,-1354.29 561.421,-1351.71"/>
<polygon fill="midnightblue" stroke="midnightblue" points="562.429,-1355.07 571.473,-1349.55 560.961,-1348.23 562.429,-1355.07"/>
</g>
<!-- Node145 -->
<g id="node14" class="node"><title>Node145</title>
<g id="a_node14"><a xlink:href="$d7/df9/class_cool_board.html#a7508e029f2ee17bb747ffab599285e0d" xlink:title="CoolBoard::getLogInterval">
<polygon fill="white" stroke="black" points="376.5,-1444.5 376.5,-1463.5 506.5,-1463.5 506.5,-1444.5 376.5,-1444.5"/>
<text text-anchor="middle" x="441.5" y="-1451.5" font-family="Helvetica,sans-Serif" font-size="10.00">CoolBoard::getLogInterval</text>
</a>
</g>
</g>
<!-- Node128&#45;&gt;Node145 -->
<g id="edge13" class="edge"><title>Node128&#45;&gt;Node145</title>
<path fill="none" stroke="midnightblue" d="M268.843,-1406.56C292.532,-1414.67 327.807,-1426.34 359,-1435 367.841,-1437.46 377.28,-1439.86 386.484,-1442.08"/>
<polygon fill="midnightblue" stroke="midnightblue" points="385.802,-1445.51 396.34,-1444.42 387.417,-1438.7 385.802,-1445.51"/>
</g>
<!-- Node130&#45;&gt;Node132 -->
<g id="edge5" class="edge"><title>Node130&#45;&gt;Node132</title>
<path fill="none" stroke="midnightblue" d="M485.524,-1501.59C508.226,-1506.65 536.273,-1512.9 560.274,-1518.25"/>
<polygon fill="midnightblue" stroke="midnightblue" points="559.763,-1521.72 570.285,-1520.48 561.286,-1514.89 559.763,-1521.72"/>
</g>
<!-- Node133 -->
<g id="node7" class="node"><title>Node133</title>
<g id="a_node7"><a xlink:href="$d4/dc8/class_wi_fi_manager.html#a4dd1dbf4f22900f226a3897b88155212" xlink:title="WiFiManager::setRemoveDuplicateAPs">
<polygon fill="white" stroke="black" points="704,-1577.5 704,-1596.5 895,-1596.5 895,-1577.5 704,-1577.5"/>
<text text-anchor="middle" x="799.5" y="-1584.5" font-family="Helvetica,sans-Serif" font-size="10.00">WiFiManager::setRemoveDuplicateAPs</text>
</a>
</g>
</g>
<!-- Node132&#45;&gt;Node133 -->
<g id="edge6" class="edge"><title>Node132&#45;&gt;Node133</title>
<path fill="none" stroke="midnightblue" d="M634.359,-1539.64C652.102,-1548.14 679.29,-1560.33 704,-1568 712.744,-1570.71 722.067,-1573.14 731.322,-1575.27"/>
<polygon fill="midnightblue" stroke="midnightblue" points="730.788,-1578.73 741.307,-1577.46 732.293,-1571.9 730.788,-1578.73"/>
</g>
<!-- Node134 -->
<g id="node8" class="node"><title>Node134</title>
<g id="a_node8"><a xlink:href="$d4/dc8/class_wi_fi_manager.html#aa6493d59c284ff245edb767ff684756d" xlink:title="WiFiManager::setTimeout">
<polygon fill="white" stroke="red" points="735,-1539.5 735,-1558.5 864,-1558.5 864,-1539.5 735,-1539.5"/>
<text text-anchor="middle" x="799.5" y="-1546.5" font-family="Helvetica,sans-Serif" font-size="10.00">WiFiManager::setTimeout</text>
</a>
</g>
</g>
<!-- Node132&#45;&gt;Node134 -->
<g id="edge7" class="edge"><title>Node132&#45;&gt;Node134</title>
<path fill="none" stroke="midnightblue" d="M668.076,-1535.5C685.751,-1537.33 705.771,-1539.4 724.725,-1541.36"/>
<polygon fill="midnightblue" stroke="midnightblue" points="724.514,-1544.86 734.822,-1542.41 725.235,-1537.9 724.514,-1544.86"/>
</g>
<!-- Node136 -->
<g id="node9" class="node"><title>Node136</title>
<g id="a_node9"><a xlink:href="$d4/dc8/class_wi_fi_manager.html#ae3cdfa6b02edcfe63d7da4f696b62136" xlink:title="WiFiManager::autoConnect">
<polygon fill="white" stroke="black" points="731.5,-1501.5 731.5,-1520.5 867.5,-1520.5 867.5,-1501.5 731.5,-1501.5"/>
<text text-anchor="middle" x="799.5" y="-1508.5" font-family="Helvetica,sans-Serif" font-size="10.00">WiFiManager::autoConnect</text>
</a>
</g>
</g>
<!-- Node132&#45;&gt;Node136 -->
<g id="edge8" class="edge"><title>Node132&#45;&gt;Node136</title>
<path fill="none" stroke="midnightblue" d="M668.076,-1524.5C684.699,-1522.78 703.396,-1520.85 721.33,-1518.99"/>
<polygon fill="midnightblue" stroke="midnightblue" points="721.901,-1522.45 731.488,-1517.94 721.18,-1515.49 721.901,-1522.45"/>
</g>
<!-- Node137 -->
<g id="node10" class="node"><title>Node137</title>
<g id="a_node10"><a xlink:href="$d7/d29/class_cool_wifi.html#a914d7a1df14dd6b75345fb614c34e9d6" xlink:title="CoolWifi::addWifi">
<polygon fill="white" stroke="black" points="753,-1463.5 753,-1482.5 846,-1482.5 846,-1463.5 753,-1463.5"/>
<text text-anchor="middle" x="799.5" y="-1470.5" font-family="Helvetica,sans-Serif" font-size="10.00">CoolWifi::addWifi</text>
</a>
</g>
</g>
<!-- Node132&#45;&gt;Node137 -->
<g id="edge9" class="edge"><title>Node132&#45;&gt;Node137</title>
<path fill="none" stroke="midnightblue" d="M634.359,-1520.36C652.102,-1511.86 679.29,-1499.67 704,-1492 716.359,-1488.16 729.874,-1484.91 742.719,-1482.24"/>
<polygon fill="midnightblue" stroke="midnightblue" points="743.719,-1485.61 752.842,-1480.22 742.35,-1478.75 743.719,-1485.61"/>
</g>
<!-- Node139&#45;&gt;Node143 -->
<g id="edge12" class="edge"><title>Node139&#45;&gt;Node143</title>
<path fill="none" stroke="midnightblue" d="M494.118,-1340C514.242,-1340 537.342,-1340 557.797,-1340"/>
<polygon fill="midnightblue" stroke="midnightblue" points="557.91,-1343.5 567.91,-1340 557.91,-1336.5 557.91,-1343.5"/>
</g>
<!-- Node147 -->
<g id="node16" class="node"><title>Node147</title>
<g id="a_node16"><a xlink:href="$dc/d69/class_cool_board_actor.html#a81229abf5895f4d3b0355050b822b438" xlink:title="CoolBoardActor::normalAction">
<polygon fill="white" stroke="red" points="367,-795.5 367,-814.5 516,-814.5 516,-795.5 367,-795.5"/>
<text text-anchor="middle" x="441.5" y="-802.5" font-family="Helvetica,sans-Serif" font-size="10.00">CoolBoardActor::normalAction</text>
</a>
</g>
</g>
<!-- Node146&#45;&gt;Node147 -->
<g id="edge18" class="edge"><title>Node146&#45;&gt;Node147</title>
<path fill="none" stroke="midnightblue" d="M247.829,-937.188C263.558,-913.647 306.934,-853.718 359,-824 362.939,-821.752 367.13,-819.769 371.451,-818.021"/>
<polygon fill="midnightblue" stroke="midnightblue" points="372.853,-821.236 381.076,-814.556 370.482,-814.65 372.853,-821.236"/>
</g>
<!-- Node149 -->
<g id="node17" class="node"><title>Node149</title>
<g id="a_node17"><a xlink:href="$dc/d69/class_cool_board_actor.html#aae82b2e62f91be009d40f93c206f9bda" xlink:title="CoolBoardActor::inverted\lAction">
<polygon fill="white" stroke="red" points="378.5,-746 378.5,-776 504.5,-776 504.5,-746 378.5,-746"/>
<text text-anchor="start" x="386.5" y="-764" font-family="Helvetica,sans-Serif" font-size="10.00">CoolBoardActor::inverted</text>
<text text-anchor="middle" x="441.5" y="-753" font-family="Helvetica,sans-Serif" font-size="10.00">Action</text>
</a>
</g>
</g>
<!-- Node146&#45;&gt;Node149 -->
<g id="edge19" class="edge"><title>Node146&#45;&gt;Node149</title>
<path fill="none" stroke="midnightblue" d="M245.785,-937.357C258.663,-909.491 299.815,-828.163 359,-786 362.23,-783.699 365.677,-781.606 369.26,-779.702"/>
<polygon fill="midnightblue" stroke="midnightblue" points="370.876,-782.809 378.4,-775.35 367.867,-776.489 370.876,-782.809"/>
</g>
<!-- Node150 -->
<g id="node18" class="node"><title>Node150</title>
<g id="a_node18"><a xlink:href="$dc/d69/class_cool_board_actor.html#a6d93a24502c56ced2ef7675c913a276b" xlink:title="CoolBoardActor::mixedHour\lAction">
<polygon fill="white" stroke="red" points="372,-697 372,-727 511,-727 511,-697 372,-697"/>
<text text-anchor="start" x="380" y="-715" font-family="Helvetica,sans-Serif" font-size="10.00">CoolBoardActor::mixedHour</text>
<text text-anchor="middle" x="441.5" y="-704" font-family="Helvetica,sans-Serif" font-size="10.00">Action</text>
</a>
</g>
</g>
<!-- Node146&#45;&gt;Node150 -->
<g id="edge20" class="edge"><title>Node146&#45;&gt;Node150</title>
<path fill="none" stroke="midnightblue" d="M244.029,-937.298C253.246,-903.889 288.268,-792.562 359,-736 360.598,-734.722 362.263,-733.512 363.982,-732.366"/>
<polygon fill="midnightblue" stroke="midnightblue" points="366.074,-735.199 372.973,-727.158 362.566,-729.142 366.074,-735.199"/>
</g>
<!-- Node151 -->
<g id="node19" class="node"><title>Node151</title>
<g id="a_node19"><a xlink:href="$dc/d69/class_cool_board_actor.html#adf3b4e15b9d73681082112adf8ef95cb" xlink:title="CoolBoardActor::hourAction">
<polygon fill="white" stroke="red" points="372.5,-1216.5 372.5,-1235.5 510.5,-1235.5 510.5,-1216.5 372.5,-1216.5"/>
<text text-anchor="middle" x="441.5" y="-1223.5" font-family="Helvetica,sans-Serif" font-size="10.00">CoolBoardActor::hourAction</text>
</a>
</g>
</g>
<!-- Node146&#45;&gt;Node151 -->
<g id="edge21" class="edge"><title>Node146&#45;&gt;Node151</title>
<path fill="none" stroke="midnightblue" d="M242.783,-956.613C248.421,-994.881 274.602,-1137.67 359,-1207 361.063,-1208.69 363.25,-1210.24 365.531,-1211.66"/>
<polygon fill="midnightblue" stroke="midnightblue" points="364.264,-1214.95 374.746,-1216.49 367.512,-1208.75 364.264,-1214.95"/>
</g>
<!-- Node152 -->
<g id="node20" class="node"><title>Node152</title>
<g id="a_node20"><a xlink:href="$dc/d69/class_cool_board_actor.html#a2b8a79a27288d5246e3e3860ae76770d" xlink:title="CoolBoardActor::mixedMinute\lAction">
<polygon fill="white" stroke="red" points="368,-1167 368,-1197 515,-1197 515,-1167 368,-1167"/>
<text text-anchor="start" x="376" y="-1185" font-family="Helvetica,sans-Serif" font-size="10.00">CoolBoardActor::mixedMinute</text>
<text text-anchor="middle" x="441.5" y="-1174" font-family="Helvetica,sans-Serif" font-size="10.00">Action</text>
</a>
</g>
</g>
<!-- Node146&#45;&gt;Node152 -->
<g id="edge22" class="edge"><title>Node146&#45;&gt;Node152</title>
<path fill="none" stroke="midnightblue" d="M244.067,-956.627C253.408,-989.785 288.785,-1100.32 359,-1157 361.267,-1158.83 363.668,-1160.53 366.168,-1162.1"/>
<polygon fill="midnightblue" stroke="midnightblue" points="364.556,-1165.21 375.001,-1166.98 367.943,-1159.08 364.556,-1165.21"/>
</g>
<!-- Node153 -->
<g id="node21" class="node"><title>Node153</title>
<g id="a_node21"><a xlink:href="$dc/d69/class_cool_board_actor.html#af000944ce0b9abb9c6ee4b8fe839fb36" xlink:title="CoolBoardActor::minuteAction">
<polygon fill="white" stroke="red" points="367,-1128.5 367,-1147.5 516,-1147.5 516,-1128.5 367,-1128.5"/>
<text text-anchor="middle" x="441.5" y="-1135.5" font-family="Helvetica,sans-Serif" font-size="10.00">CoolBoardActor::minuteAction</text>
</a>
</g>
</g>
<!-- Node146&#45;&gt;Node153 -->
<g id="edge23" class="edge"><title>Node146&#45;&gt;Node153</title>
<path fill="none" stroke="midnightblue" d="M245.153,-956.571C256.824,-985.806 296.178,-1074.59 359,-1118 362.672,-1120.54 366.633,-1122.75 370.761,-1124.69"/>
<polygon fill="midnightblue" stroke="midnightblue" points="369.437,-1127.93 380.016,-1128.5 372.099,-1121.46 369.437,-1127.93"/>
</g>
<!-- Node154 -->
<g id="node22" class="node"><title>Node154</title>
<g id="a_node22"><a xlink:href="$dc/d69/class_cool_board_actor.html#ae6b2a17b0e73cfeb353ded2cc4e08109" xlink:title="CoolBoardActor::mixedHour\lMinuteAction">
<polygon fill="white" stroke="red" points="372,-1079 372,-1109 511,-1109 511,-1079 372,-1079"/>
<text text-anchor="start" x="380" y="-1097" font-family="Helvetica,sans-Serif" font-size="10.00">CoolBoardActor::mixedHour</text>
<text text-anchor="middle" x="441.5" y="-1086" font-family="Helvetica,sans-Serif" font-size="10.00">MinuteAction</text>
</a>
</g>
</g>
<!-- Node146&#45;&gt;Node154 -->
<g id="edge24" class="edge"><title>Node146&#45;&gt;Node154</title>
<path fill="none" stroke="midnightblue" d="M247.983,-956.504C264.055,-979.348 308.137,-1037.75 359,-1069 362.379,-1071.08 365.944,-1072.99 369.618,-1074.76"/>
<polygon fill="midnightblue" stroke="midnightblue" points="368.371,-1078.03 378.935,-1078.84 371.183,-1071.62 368.371,-1078.03"/>
</g>
<!-- Node155 -->
<g id="node23" class="node"><title>Node155</title>
<g id="a_node23"><a xlink:href="$dc/d69/class_cool_board_actor.html#a1eb1fbca19bc80aad20d2686d52317f8" xlink:title="CoolBoardActor::hourMinute\lAction">
<polygon fill="white" stroke="red" points="371.5,-1030 371.5,-1060 511.5,-1060 511.5,-1030 371.5,-1030"/>
<text text-anchor="start" x="379.5" y="-1048" font-family="Helvetica,sans-Serif" font-size="10.00">CoolBoardActor::hourMinute</text>
<text text-anchor="middle" x="441.5" y="-1037" font-family="Helvetica,sans-Serif" font-size="10.00">Action</text>
</a>
</g>
</g>
<!-- Node146&#45;&gt;Node155 -->
<g id="edge25" class="edge"><title>Node146&#45;&gt;Node155</title>
<path fill="none" stroke="midnightblue" d="M254.61,-956.734C275.673,-971.999 318.775,-1001.71 359,-1020 364.052,-1022.3 369.373,-1024.46 374.775,-1026.47"/>
<polygon fill="midnightblue" stroke="midnightblue" points="373.953,-1029.89 384.547,-1029.94 376.293,-1023.3 373.953,-1029.89"/>
</g>
<!-- Node156 -->
<g id="node24" class="node"><title>Node156</title>
<g id="a_node24"><a xlink:href="$dc/d69/class_cool_board_actor.html#a216aa7a0cfd1f31d0025cc91c2ecd5dd" xlink:title="CoolBoardActor::mixedTemporal\lActionOn">
<polygon fill="white" stroke="red" points="362.5,-981 362.5,-1011 520.5,-1011 520.5,-981 362.5,-981"/>
<text text-anchor="start" x="370.5" y="-999" font-family="Helvetica,sans-Serif" font-size="10.00">CoolBoardActor::mixedTemporal</text>
<text text-anchor="middle" x="441.5" y="-988" font-family="Helvetica,sans-Serif" font-size="10.00">ActionOn</text>
</a>
</g>
</g>
<!-- Node146&#45;&gt;Node156 -->
<g id="edge26" class="edge"><title>Node146&#45;&gt;Node156</title>
<path fill="none" stroke="midnightblue" d="M280.342,-956.564C305.646,-962.795 339.414,-971.109 369.418,-978.497"/>
<polygon fill="midnightblue" stroke="midnightblue" points="368.885,-981.971 379.432,-980.963 370.558,-975.174 368.885,-981.971"/>
</g>
<!-- Node157 -->
<g id="node25" class="node"><title>Node157</title>
<g id="a_node25"><a xlink:href="$dc/d69/class_cool_board_actor.html#ada603785c203fdb0b41cc967d70bdc4d" xlink:title="CoolBoardActor::temporal\lActionOn">
<polygon fill="white" stroke="red" points="377,-932 377,-962 506,-962 506,-932 377,-932"/>
<text text-anchor="start" x="385" y="-950" font-family="Helvetica,sans-Serif" font-size="10.00">CoolBoardActor::temporal</text>
<text text-anchor="middle" x="441.5" y="-939" font-family="Helvetica,sans-Serif" font-size="10.00">ActionOn</text>
</a>
</g>
</g>
<!-- Node146&#45;&gt;Node157 -->
<g id="edge27" class="edge"><title>Node146&#45;&gt;Node157</title>
<path fill="none" stroke="midnightblue" d="M305.56,-947C325.097,-947 346.731,-947 366.85,-947"/>
<polygon fill="midnightblue" stroke="midnightblue" points="366.9,-950.5 376.9,-947 366.9,-943.5 366.9,-950.5"/>
</g>
<!-- Node158 -->
<g id="node26" class="node"><title>Node158</title>
<g id="a_node26"><a xlink:href="$dc/d69/class_cool_board_actor.html#a00b29c4abf0388551aa6812372113cf1" xlink:title="CoolBoardActor::mixedTemporal\lActionOff">
<polygon fill="white" stroke="red" points="362.5,-883 362.5,-913 520.5,-913 520.5,-883 362.5,-883"/>
<text text-anchor="start" x="370.5" y="-901" font-family="Helvetica,sans-Serif" font-size="10.00">CoolBoardActor::mixedTemporal</text>
<text text-anchor="middle" x="441.5" y="-890" font-family="Helvetica,sans-Serif" font-size="10.00">ActionOff</text>
</a>
</g>
</g>
<!-- Node146&#45;&gt;Node158 -->
<g id="edge28" class="edge"><title>Node146&#45;&gt;Node158</title>
<path fill="none" stroke="midnightblue" d="M280.342,-937.436C305.646,-931.205 339.414,-922.891 369.418,-915.503"/>
<polygon fill="midnightblue" stroke="midnightblue" points="370.558,-918.826 379.432,-913.037 368.885,-912.029 370.558,-918.826"/>
</g>
<!-- Node159 -->
<g id="node27" class="node"><title>Node159</title>
<g id="a_node27"><a xlink:href="$dc/d69/class_cool_board_actor.html#a02698bd647df49cabbe74513d4d88918" xlink:title="CoolBoardActor::temporal\lActionOff">
<polygon fill="white" stroke="red" points="377,-834 377,-864 506,-864 506,-834 377,-834"/>
<text text-anchor="start" x="385" y="-852" font-family="Helvetica,sans-Serif" font-size="10.00">CoolBoardActor::temporal</text>
<text text-anchor="middle" x="441.5" y="-841" font-family="Helvetica,sans-Serif" font-size="10.00">ActionOff</text>
</a>
</g>
</g>
<!-- Node146&#45;&gt;Node159 -->
<g id="edge29" class="edge"><title>Node146&#45;&gt;Node159</title>
<path fill="none" stroke="midnightblue" d="M254.221,-937.317C275.092,-921.828 318.354,-891.357 359,-873 363.31,-871.053 367.819,-869.218 372.409,-867.496"/>
<polygon fill="midnightblue" stroke="midnightblue" points="373.656,-870.768 381.908,-864.123 371.313,-864.172 373.656,-870.768"/>
</g>
<!-- Node161 -->
<g id="node29" class="node"><title>Node161</title>
<g id="a_node29"><a xlink:href="$df/d1d/class_jetpack.html#a65ce9533c39fa71e4945b970bf14b980" xlink:title="Jetpack::normalAction">
<polygon fill="white" stroke="black" points="384.5,-658.5 384.5,-677.5 498.5,-677.5 498.5,-658.5 384.5,-658.5"/>
<text text-anchor="middle" x="441.5" y="-665.5" font-family="Helvetica,sans-Serif" font-size="10.00">Jetpack::normalAction</text>
</a>
</g>
</g>
<!-- Node160&#45;&gt;Node161 -->
<g id="edge31" class="edge"><title>Node160&#45;&gt;Node161</title>
<path fill="none" stroke="midnightblue" d="M244.491,-467.805C254.709,-499.554 291.394,-600.31 359,-649 363.834,-652.481 369.209,-655.335 374.83,-657.672"/>
<polygon fill="midnightblue" stroke="midnightblue" points="373.872,-661.047 384.467,-661.139 376.242,-654.461 373.872,-661.047"/>
</g>
<!-- Node162 -->
<g id="node30" class="node"><title>Node162</title>
<g id="a_node30"><a xlink:href="$df/d1d/class_jetpack.html#adacfc35fab4a621357caf98ce1c9cb54" xlink:title="Jetpack::invertedAction">
<polygon fill="white" stroke="black" points="382,-620.5 382,-639.5 501,-639.5 501,-620.5 382,-620.5"/>
<text text-anchor="middle" x="441.5" y="-627.5" font-family="Helvetica,sans-Serif" font-size="10.00">Jetpack::invertedAction</text>
</a>
</g>
</g>
<!-- Node160&#45;&gt;Node162 -->
<g id="edge32" class="edge"><title>Node160&#45;&gt;Node162</title>
<path fill="none" stroke="midnightblue" d="M245.978,-467.743C259.079,-495.099 300.162,-573.082 359,-611 363.133,-613.664 367.598,-615.955 372.234,-617.926"/>
<polygon fill="midnightblue" stroke="midnightblue" points="371.348,-621.331 381.941,-621.539 373.79,-614.77 371.348,-621.331"/>
</g>
<!-- Node163 -->
<g id="node31" class="node"><title>Node163</title>
<g id="a_node31"><a xlink:href="$df/d1d/class_jetpack.html#ac1a49ab4867718cdb415ad74c2066b9d" xlink:title="Jetpack::mixedHourAction">
<polygon fill="white" stroke="black" points="375.5,-582.5 375.5,-601.5 507.5,-601.5 507.5,-582.5 375.5,-582.5"/>
<text text-anchor="middle" x="441.5" y="-589.5" font-family="Helvetica,sans-Serif" font-size="10.00">Jetpack::mixedHourAction</text>
</a>
</g>
</g>
<!-- Node160&#45;&gt;Node163 -->
<g id="edge33" class="edge"><title>Node160&#45;&gt;Node163</title>
<path fill="none" stroke="midnightblue" d="M248.475,-467.822C264.952,-490.247 308.701,-545.401 359,-573 363.235,-575.324 367.745,-577.365 372.387,-579.156"/>
<polygon fill="midnightblue" stroke="midnightblue" points="371.459,-582.539 382.054,-582.496 373.745,-575.923 371.459,-582.539"/>
</g>
<!-- Node164 -->
<g id="node32" class="node"><title>Node164</title>
<g id="a_node32"><a xlink:href="$df/d1d/class_jetpack.html#acd6889af2fe5b057c6bd51b6dac827ef" xlink:title="Jetpack::hourAction">
<polygon fill="white" stroke="black" points="389.5,-544.5 389.5,-563.5 493.5,-563.5 493.5,-544.5 389.5,-544.5"/>
<text text-anchor="middle" x="441.5" y="-551.5" font-family="Helvetica,sans-Serif" font-size="10.00">Jetpack::hourAction</text>
</a>
</g>
</g>
<!-- Node160&#45;&gt;Node164 -->
<g id="edge34" class="edge"><title>Node160&#45;&gt;Node164</title>
<path fill="none" stroke="midnightblue" d="M253.045,-467.592C273.239,-483.885 316.85,-516.952 359,-535 365.371,-537.728 372.198,-540.099 379.089,-542.152"/>
<polygon fill="midnightblue" stroke="midnightblue" points="378.615,-545.652 389.186,-544.935 380.476,-538.903 378.615,-545.652"/>
</g>
<!-- Node165 -->
<g id="node33" class="node"><title>Node165</title>
<g id="a_node33"><a xlink:href="$df/d1d/class_jetpack.html#acf8ed1fb594b9e8e224f4ed872a8e093" xlink:title="Jetpack::mixedMinuteAction">
<polygon fill="white" stroke="black" points="371.5,-506.5 371.5,-525.5 511.5,-525.5 511.5,-506.5 371.5,-506.5"/>
<text text-anchor="middle" x="441.5" y="-513.5" font-family="Helvetica,sans-Serif" font-size="10.00">Jetpack::mixedMinuteAction</text>
</a>
</g>
</g>
<!-- Node160&#45;&gt;Node165 -->
<g id="edge35" class="edge"><title>Node160&#45;&gt;Node165</title>
<path fill="none" stroke="midnightblue" d="M267.886,-467.527C291.56,-475.89 327.348,-488.078 359,-497 367.832,-499.49 377.266,-501.907 386.468,-504.137"/>
<polygon fill="midnightblue" stroke="midnightblue" points="385.785,-507.572 396.323,-506.477 387.402,-500.761 385.785,-507.572"/>
</g>
<!-- Node166 -->
<g id="node34" class="node"><title>Node166</title>
<g id="a_node34"><a xlink:href="$df/d1d/class_jetpack.html#a97da41141c7b53ddee61143519c8d17d" xlink:title="Jetpack::minuteAction">
<polygon fill="white" stroke="black" points="384.5,-468.5 384.5,-487.5 498.5,-487.5 498.5,-468.5 384.5,-468.5"/>
<text text-anchor="middle" x="441.5" y="-475.5" font-family="Helvetica,sans-Serif" font-size="10.00">Jetpack::minuteAction</text>
</a>
</g>
</g>
<!-- Node160&#45;&gt;Node166 -->
<g id="edge36" class="edge"><title>Node160&#45;&gt;Node166</title>
<path fill="none" stroke="midnightblue" d="M288.157,-462.689C313.735,-465.26 345.878,-468.49 374.037,-471.32"/>
<polygon fill="midnightblue" stroke="midnightblue" points="373.912,-474.825 384.212,-472.343 374.613,-467.86 373.912,-474.825"/>
</g>
<!-- Node167 -->
<g id="node35" class="node"><title>Node167</title>
<g id="a_node35"><a xlink:href="$df/d1d/class_jetpack.html#a273dae1517b56f0242e28b8944edc26b" xlink:title="Jetpack::mixedHourMinute\lAction">
<polygon fill="white" stroke="black" points="374.5,-419 374.5,-449 508.5,-449 508.5,-419 374.5,-419"/>
<text text-anchor="start" x="382.5" y="-437" font-family="Helvetica,sans-Serif" font-size="10.00">Jetpack::mixedHourMinute</text>
<text text-anchor="middle" x="441.5" y="-426" font-family="Helvetica,sans-Serif" font-size="10.00">Action</text>
</a>
</g>
</g>
<!-- Node160&#45;&gt;Node167 -->
<g id="edge37" class="edge"><title>Node160&#45;&gt;Node167</title>
<path fill="none" stroke="midnightblue" d="M288.157,-452.373C310.773,-449.646 338.52,-446.299 364.109,-443.213"/>
<polygon fill="midnightblue" stroke="midnightblue" points="364.659,-446.672 374.168,-442 363.821,-439.722 364.659,-446.672"/>
</g>
<!-- Node168 -->
<g id="node36" class="node"><title>Node168</title>
<g id="a_node36"><a xlink:href="$df/d1d/class_jetpack.html#ae01c13c785ebdf1b0bb5500234aba1bd" xlink:title="Jetpack::hourMinuteAction">
<polygon fill="white" stroke="black" points="375,-380.5 375,-399.5 508,-399.5 508,-380.5 375,-380.5"/>
<text text-anchor="middle" x="441.5" y="-387.5" font-family="Helvetica,sans-Serif" font-size="10.00">Jetpack::hourMinuteAction</text>
</a>
</g>
</g>
<!-- Node160&#45;&gt;Node168 -->
<g id="edge38" class="edge"><title>Node160&#45;&gt;Node168</title>
<path fill="none" stroke="midnightblue" d="M288.064,-451.059C299.842,-448.26 312.205,-444.374 323,-439 341.645,-429.719 340.355,-418.281 359,-409 363.877,-406.572 369.075,-404.448 374.393,-402.59"/>
<polygon fill="midnightblue" stroke="midnightblue" points="375.581,-405.885 384.056,-399.527 373.465,-399.213 375.581,-405.885"/>
</g>
<!-- Node169 -->
<g id="node37" class="node"><title>Node169</title>
<g id="a_node37"><a xlink:href="$df/d1d/class_jetpack.html#af44bc8a08818e4433dfb1c7104601f12" xlink:title="Jetpack::mixedTemporalActionOn">
<polygon fill="white" stroke="black" points="359.5,-342.5 359.5,-361.5 523.5,-361.5 523.5,-342.5 359.5,-342.5"/>
<text text-anchor="middle" x="441.5" y="-349.5" font-family="Helvetica,sans-Serif" font-size="10.00">Jetpack::mixedTemporalActionOn</text>
</a>
</g>
</g>
<!-- Node160&#45;&gt;Node169 -->
<g id="edge39" class="edge"><title>Node160&#45;&gt;Node169</title>
<path fill="none" stroke="midnightblue" d="M288.069,-454.178C300.367,-451.38 312.987,-446.714 323,-439 350.089,-418.129 331.911,-391.871 359,-371 361.32,-369.213 363.779,-367.589 366.343,-366.114"/>
<polygon fill="midnightblue" stroke="midnightblue" points="367.978,-369.21 375.404,-361.653 364.886,-362.93 367.978,-369.21"/>
</g>
<!-- Node170 -->
<g id="node38" class="node"><title>Node170</title>
<g id="a_node38"><a xlink:href="$df/d1d/class_jetpack.html#ad011d904f639accb5f94ef806846ef59" xlink:title="Jetpack::temporalActionOn">
<polygon fill="white" stroke="black" points="374,-304.5 374,-323.5 509,-323.5 509,-304.5 374,-304.5"/>
<text text-anchor="middle" x="441.5" y="-311.5" font-family="Helvetica,sans-Serif" font-size="10.00">Jetpack::temporalActionOn</text>
</a>
</g>
</g>
<!-- Node160&#45;&gt;Node170 -->
<g id="edge40" class="edge"><title>Node160&#45;&gt;Node170</title>
<path fill="none" stroke="midnightblue" d="M288.065,-455.377C300.648,-452.625 313.418,-447.683 323,-439 359.868,-405.591 322.132,-366.409 359,-333 360.931,-331.25 362.992,-329.652 365.154,-328.193"/>
<polygon fill="midnightblue" stroke="midnightblue" points="366.956,-331.195 373.942,-323.23 363.514,-325.1 366.956,-331.195"/>
</g>
<!-- Node171 -->
<g id="node39" class="node"><title>Node171</title>
<g id="a_node39"><a xlink:href="$df/d1d/class_jetpack.html#af2f567ef6311a8fc2f7bb948837667b7" xlink:title="Jetpack::mixedTemporalActionOff">
<polygon fill="white" stroke="black" points="359,-266.5 359,-285.5 524,-285.5 524,-266.5 359,-266.5"/>
<text text-anchor="middle" x="441.5" y="-273.5" font-family="Helvetica,sans-Serif" font-size="10.00">Jetpack::mixedTemporalActionOff</text>
</a>
</g>
</g>
<!-- Node160&#45;&gt;Node171 -->
<g id="edge41" class="edge"><title>Node160&#45;&gt;Node171</title>
<path fill="none" stroke="midnightblue" d="M288.108,-455.964C300.841,-453.243 313.681,-448.172 323,-439 370.018,-392.726 311.982,-341.274 359,-295 360.437,-293.586 361.957,-292.269 363.548,-291.044"/>
<polygon fill="midnightblue" stroke="midnightblue" points="365.471,-293.969 372.027,-285.645 361.712,-288.064 365.471,-293.969"/>
</g>
<!-- Node172 -->
<g id="node40" class="node"><title>Node172</title>
<g id="a_node40"><a xlink:href="$df/d1d/class_jetpack.html#a2991b302cd99bf89325f9b66b104d575" xlink:title="Jetpack::temporalActionOff">
<polygon fill="white" stroke="black" points="373.5,-228.5 373.5,-247.5 509.5,-247.5 509.5,-228.5 373.5,-228.5"/>
<text text-anchor="middle" x="441.5" y="-235.5" font-family="Helvetica,sans-Serif" font-size="10.00">Jetpack::temporalActionOff</text>
</a>
</g>
</g>
<!-- Node160&#45;&gt;Node172 -->
<g id="edge42" class="edge"><title>Node160&#45;&gt;Node172</title>
<path fill="none" stroke="midnightblue" d="M288.399,-456.252C301.14,-453.54 313.911,-448.401 323,-439 380.313,-379.719 301.687,-316.281 359,-257 360.811,-255.126 362.769,-253.422 364.844,-251.872"/>
<polygon fill="midnightblue" stroke="midnightblue" points="366.679,-254.853 373.363,-246.632 363.012,-248.89 366.679,-254.853"/>
</g>
<!-- Node173 -->
<g id="node41" class="node"><title>Node173</title>
<g id="a_node41"><a xlink:href="$df/d1d/class_jetpack.html#a338f1af8cbc6504ac69b47c7328569b5" xlink:title="Jetpack::write">
<polygon fill="white" stroke="black" points="402.5,-190.5 402.5,-209.5 480.5,-209.5 480.5,-190.5 402.5,-190.5"/>
<text text-anchor="middle" x="441.5" y="-197.5" font-family="Helvetica,sans-Serif" font-size="10.00">Jetpack::write</text>
</a>
</g>
</g>
<!-- Node160&#45;&gt;Node173 -->
<g id="edge43" class="edge"><title>Node160&#45;&gt;Node173</title>
<path fill="none" stroke="midnightblue" d="M288.172,-456.529C301.06,-453.848 313.969,-448.656 323,-439 390.679,-366.639 291.321,-291.361 359,-219 367.692,-209.706 379.977,-204.548 392.378,-201.783"/>
<polygon fill="midnightblue" stroke="midnightblue" points="393.037,-205.221 402.282,-200.046 391.828,-198.326 393.037,-205.221"/>
</g>
<!-- Node177&#45;&gt;Node175 -->
<g id="edge48" class="edge"><title>Node177&#45;&gt;Node175</title>
<path fill="none" stroke="midnightblue" d="M302.017,-148.778C325.226,-150.994 351.796,-153.531 375.415,-155.786"/>
<polygon fill="midnightblue" stroke="midnightblue" points="375.399,-159.3 385.687,-156.767 376.065,-152.332 375.399,-159.3"/>
</g>
<!-- Node177&#45;&gt;Node176 -->
<g id="edge52" class="edge"><title>Node177&#45;&gt;Node176</title>
<path fill="none" stroke="midnightblue" d="M302.017,-137.222C324.031,-135.12 349.069,-132.73 371.745,-130.565"/>
<polygon fill="midnightblue" stroke="midnightblue" points="372.356,-134.022 381.978,-129.588 371.69,-127.054 372.356,-134.022"/>
</g>
<!-- Node178 -->
<g id="node46" class="node"><title>Node178</title>
<g id="a_node46"><a xlink:href="$de/dc0/class_cool_board_led.html#ad5f0de4c628cbfbf49896042831c64ad" xlink:title="CoolBoardLed::strobe">
<polygon fill="white" stroke="black" points="386,-76.5 386,-95.5 497,-95.5 497,-76.5 386,-76.5"/>
<text text-anchor="middle" x="441.5" y="-83.5" font-family="Helvetica,sans-Serif" font-size="10.00">CoolBoardLed::strobe</text>
</a>
</g>
</g>
<!-- Node177&#45;&gt;Node178 -->
<g id="edge49" class="edge"><title>Node177&#45;&gt;Node178</title>
<path fill="none" stroke="midnightblue" d="M291.666,-133.441C302.167,-130.849 313.064,-127.71 323,-124 339.949,-117.672 342.051,-111.328 359,-105 365.831,-102.45 373.116,-100.169 380.414,-98.1503"/>
<polygon fill="midnightblue" stroke="midnightblue" points="381.543,-101.473 390.334,-95.5592 379.774,-94.7002 381.543,-101.473"/>
</g>
<!-- Node179 -->
<g id="node47" class="node"><title>Node179</title>
<g id="a_node47"><a xlink:href="$d7/df9/class_cool_board.html#a397b46fadab8f530a8cf4d914c561366" xlink:title="CoolBoard::initReadI2C">
<polygon fill="white" stroke="black" points="381.5,-38.5 381.5,-57.5 501.5,-57.5 501.5,-38.5 381.5,-38.5"/>
<text text-anchor="middle" x="441.5" y="-45.5" font-family="Helvetica,sans-Serif" font-size="10.00">CoolBoard::initReadI2C</text>
</a>
</g>
</g>
<!-- Node177&#45;&gt;Node179 -->
<g id="edge50" class="edge"><title>Node177&#45;&gt;Node179</title>
<path fill="none" stroke="midnightblue" d="M302.13,-134.525C309.555,-131.893 316.725,-128.463 323,-124 347.416,-106.633 334.584,-84.367 359,-67 362.937,-64.2 367.225,-61.8068 371.709,-59.762"/>
<polygon fill="midnightblue" stroke="midnightblue" points="373.121,-62.9673 381.133,-56.0353 370.547,-56.4577 373.121,-62.9673"/>
</g>
<!-- Node180 -->
<g id="node48" class="node"><title>Node180</title>
<g id="a_node48"><a xlink:href="$de/d46/class_cool_board_sensors.html#a91badb2539d91fda8679f2a597874c48" xlink:title="CoolBoardSensors::read">
<polygon fill="white" stroke="red" points="380,-0.5 380,-19.5 503,-19.5 503,-0.5 380,-0.5"/>
<text text-anchor="middle" x="441.5" y="-7.5" font-family="Helvetica,sans-Serif" font-size="10.00">CoolBoardSensors::read</text>
</a>
</g>
</g>
<!-- Node177&#45;&gt;Node180 -->
<g id="edge51" class="edge"><title>Node177&#45;&gt;Node180</title>
<path fill="none" stroke="midnightblue" d="M302.209,-135.985C309.795,-133.14 316.986,-129.262 323,-124 356.981,-94.268 325.019,-58.732 359,-29 362.477,-25.958 366.347,-23.3786 370.46,-21.1937"/>
<polygon fill="midnightblue" stroke="midnightblue" points="372.095,-24.2963 379.791,-17.0146 369.234,-17.9077 372.095,-24.2963"/>
</g>
</g>
</svg>
