<?xml version="1.0" encoding="UTF-8" standalone="no"?>
<!DOCTYPE svg PUBLIC "-//W3C//DTD SVG 1.1//EN"
 "http://www.w3.org/Graphics/SVG/1.1/DTD/svg11.dtd">
<!-- Generated by graphviz version 2.38.0 (20140413.2041)
 -->
<!-- Title: WiFiManager::autoConnect Pages: 1 -->
<svg width="673pt" height="185pt"
 viewBox="0.00 0.00 673.00 185.08" xmlns="http://www.w3.org/2000/svg" xmlns:xlink="http://www.w3.org/1999/xlink">
<g id="graph0" class="graph" transform="scale(1 1) rotate(0) translate(4 181.082)">
<title>WiFiManager::autoConnect</title>
<polygon fill="white" stroke="none" points="-4,4 -4,-181.082 669,-181.082 669,4 -4,4"/>
<!-- Node9 -->
<g id="node1" class="node"><title>Node9</title>
<polygon fill="#bfbfbf" stroke="black" points="0,-50 0,-69 136,-69 136,-50 0,-50"/>
<text text-anchor="middle" x="68" y="-57" font-family="Helvetica,sans-Serif" font-size="10.00">WiFiManager::autoConnect</text>
</g>
<!-- Node10 -->
<g id="node2" class="node"><title>Node10</title>
<g id="a_node2"><a xlink:href="$d4/dc8/class_wi_fi_manager.html#ae0ae27b5543b47585728c084c3bbdca7" xlink:title="WiFiManager::connectWifi">
<polygon fill="white" stroke="black" points="172,-110 172,-129 304,-129 304,-110 172,-110"/>
<text text-anchor="middle" x="238" y="-117" font-family="Helvetica,sans-Serif" font-size="10.00">WiFiManager::connectWifi</text>
</a>
</g>
</g>
<!-- Node9&#45;&gt;Node10 -->
<g id="edge1" class="edge"><title>Node9&#45;&gt;Node10</title>
<path fill="none" stroke="midnightblue" d="M95.6201,-69.0072C123.922,-79.1151 168.871,-95.1683 200.473,-106.455"/>
<polygon fill="midnightblue" stroke="midnightblue" points="199.632,-109.871 210.227,-109.938 201.987,-103.279 199.632,-109.871"/>
</g>
<!-- Node11 -->
<g id="node3" class="node"><title>Node11</title>
<g id="a_node3"><a xlink:href="$d4/dc8/class_wi_fi_manager.html#ae5f595c670ccbcf9a191baf50f5c7c26" xlink:title="WiFiManager::DEBUG_WM">
<polygon fill="white" stroke="black" points="525,-110 525,-129 665,-129 665,-110 525,-110"/>
<text text-anchor="middle" x="595" y="-117" font-family="Helvetica,sans-Serif" font-size="10.00">WiFiManager::DEBUG_WM</text>
</a>
</g>
</g>
<!-- Node9&#45;&gt;Node11 -->
<g id="edge7" class="edge"><title>Node9&#45;&gt;Node11</title>
<path fill="none" stroke="midnightblue" d="M136.043,-55.8649C219.661,-52.8481 366.537,-52.5595 489,-78.5 516.105,-84.2415 545.344,-96.1724 566.067,-105.691"/>
<polygon fill="midnightblue" stroke="midnightblue" points="564.69,-108.911 575.229,-109.997 567.668,-102.576 564.69,-108.911"/>
</g>
<!-- Node14 -->
<g id="node6" class="node"><title>Node14</title>
<g id="a_node6"><a xlink:href="$d4/dc8/class_wi_fi_manager.html#ad781751307f7f623956126096a09a545" xlink:title="WiFiManager::startConfig\lPortal">
<polygon fill="white" stroke="black" points="174,-0.5 174,-30.5 302,-30.5 302,-0.5 174,-0.5"/>
<text text-anchor="start" x="182" y="-18.5" font-family="Helvetica,sans-Serif" font-size="10.00">WiFiManager::startConfig</text>
<text text-anchor="middle" x="238" y="-7.5" font-family="Helvetica,sans-Serif" font-size="10.00">Portal</text>
</a>
</g>
</g>
<!-- Node9&#45;&gt;Node14 -->
<g id="edge8" class="edge"><title>Node9&#45;&gt;Node14</title>
<path fill="none" stroke="midnightblue" d="M105.453,-49.9527C124.199,-45.043 147.656,-38.8996 169.551,-33.1653"/>
<polygon fill="midnightblue" stroke="midnightblue" points="170.691,-36.4848 179.478,-30.5654 168.917,-29.7132 170.691,-36.4848"/>
</g>
<!-- Node10&#45;&gt;Node11 -->
<g id="edge2" class="edge"><title>Node10&#45;&gt;Node11</title>
<path fill="none" stroke="midnightblue" d="M253.996,-129.039C273.092,-140.567 307.52,-159.313 340,-166.5 404.658,-180.808 424.239,-180.333 489,-166.5 518.132,-160.277 548.962,-145.351 569.621,-133.975"/>
<polygon fill="midnightblue" stroke="midnightblue" points="571.369,-137.008 578.355,-129.042 567.926,-130.913 571.369,-137.008"/>
</g>
<!-- Node12 -->
<g id="node4" class="node"><title>Node12</title>
<g id="a_node4"><a xlink:href="$d4/dc8/class_wi_fi_manager.html#a89a3f33997aa662ad223d6c150c1eede" xlink:title="WiFiManager::waitForConnect\lResult">
<polygon fill="white" stroke="black" points="340,-126.5 340,-156.5 489,-156.5 489,-126.5 340,-126.5"/>
<text text-anchor="start" x="348" y="-144.5" font-family="Helvetica,sans-Serif" font-size="10.00">WiFiManager::waitForConnect</text>
<text text-anchor="middle" x="414.5" y="-133.5" font-family="Helvetica,sans-Serif" font-size="10.00">Result</text>
</a>
</g>
</g>
<!-- Node10&#45;&gt;Node12 -->
<g id="edge3" class="edge"><title>Node10&#45;&gt;Node12</title>
<path fill="none" stroke="midnightblue" d="M304.474,-127.755C312.745,-128.797 321.296,-129.875 329.802,-130.948"/>
<polygon fill="midnightblue" stroke="midnightblue" points="329.387,-134.423 339.746,-132.202 330.263,-127.478 329.387,-134.423"/>
</g>
<!-- Node13 -->
<g id="node5" class="node"><title>Node13</title>
<g id="a_node5"><a xlink:href="$d4/dc8/class_wi_fi_manager.html#abcc403fc26a47f7a111d1271f1d0869e" xlink:title="WiFiManager::startWPS">
<polygon fill="white" stroke="black" points="353,-88 353,-107 476,-107 476,-88 353,-88"/>
<text text-anchor="middle" x="414.5" y="-95" font-family="Helvetica,sans-Serif" font-size="10.00">WiFiManager::startWPS</text>
</a>
</g>
</g>
<!-- Node10&#45;&gt;Node13 -->
<g id="edge5" class="edge"><title>Node10&#45;&gt;Node13</title>
<path fill="none" stroke="midnightblue" d="M304.474,-111.245C316.989,-109.668 330.142,-108.009 342.812,-106.412"/>
<polygon fill="midnightblue" stroke="midnightblue" points="343.364,-109.87 352.847,-105.147 342.488,-102.925 343.364,-109.87"/>
</g>
<!-- Node12&#45;&gt;Node11 -->
<g id="edge4" class="edge"><title>Node12&#45;&gt;Node11</title>
<path fill="none" stroke="midnightblue" d="M489.133,-132.425C497.623,-131.378 506.308,-130.308 514.867,-129.253"/>
<polygon fill="midnightblue" stroke="midnightblue" points="515.341,-132.721 524.838,-128.024 514.484,-125.774 515.341,-132.721"/>
</g>
<!-- Node13&#45;&gt;Node11 -->
<g id="edge6" class="edge"><title>Node13&#45;&gt;Node11</title>
<path fill="none" stroke="midnightblue" d="M476.43,-105.01C488.703,-106.522 501.773,-108.133 514.57,-109.71"/>
<polygon fill="midnightblue" stroke="midnightblue" points="514.401,-113.216 524.754,-110.965 515.257,-106.268 514.401,-113.216"/>
</g>
</g>
</svg>
