<?xml version="1.0" encoding="UTF-8" standalone="no"?>
<!DOCTYPE svg PUBLIC "-//W3C//DTD SVG 1.1//EN"
 "http://www.w3.org/Graphics/SVG/1.1/DTD/svg11.dtd">
<!-- Generated by graphviz version 2.38.0 (20140413.2041)
 -->
<!-- Title: WiFiManager::setRemoveDuplicateAPs Pages: 1 -->
<svg width="771pt" height="66pt"
 viewBox="0.00 0.00 771.00 66.00" xmlns="http://www.w3.org/2000/svg" xmlns:xlink="http://www.w3.org/1999/xlink">
<g id="graph0" class="graph" transform="scale(1 1) rotate(0) translate(4 62)">
<title>WiFiManager::setRemoveDuplicateAPs</title>
<polygon fill="white" stroke="none" points="-4,4 -4,-62 767,-62 767,4 -4,4"/>
<!-- Node84 -->
<g id="node1" class="node"><title>Node84</title>
<polygon fill="#bfbfbf" stroke="black" points="0,-19.5 0,-38.5 191,-38.5 191,-19.5 0,-19.5"/>
<text text-anchor="middle" x="95.5" y="-26.5" font-family="Helvetica,sans-Serif" font-size="10.00">WiFiManager::setRemoveDuplicateAPs</text>
</g>
<!-- Node85 -->
<g id="node2" class="node"><title>Node85</title>
<g id="a_node2"><a xlink:href="$d7/d29/class_cool_wifi.html#a7c857f27161782f5ef1d62d552aff971" xlink:title="CoolWifi::connectAP">
<polygon fill="white" stroke="black" points="227,-19.5 227,-38.5 335,-38.5 335,-19.5 227,-19.5"/>
<text text-anchor="middle" x="281" y="-26.5" font-family="Helvetica,sans-Serif" font-size="10.00">CoolWifi::connectAP</text>
</a>
</g>
</g>
<!-- Node84&#45;&gt;Node85 -->
<g id="edge1" class="edge"><title>Node84&#45;&gt;Node85</title>
<path fill="none" stroke="midnightblue" d="M201.237,-29C210.075,-29 218.749,-29 226.922,-29"/>
<polygon fill="midnightblue" stroke="midnightblue" points="201.206,-25.5001 191.206,-29 201.206,-32.5001 201.206,-25.5001"/>
</g>
<!-- Node86 -->
<g id="node3" class="node"><title>Node86</title>
<g id="a_node3"><a xlink:href="$d7/d29/class_cool_wifi.html#ad060353050f40d032a2dbf9e54a768bf" xlink:title="CoolWifi::connect">
<polygon fill="white" stroke="black" points="371,-38.5 371,-57.5 466,-57.5 466,-38.5 371,-38.5"/>
<text text-anchor="middle" x="418.5" y="-45.5" font-family="Helvetica,sans-Serif" font-size="10.00">CoolWifi::connect</text>
</a>
</g>
</g>
<!-- Node85&#45;&gt;Node86 -->
<g id="edge2" class="edge"><title>Node85&#45;&gt;Node86</title>
<path fill="none" stroke="midnightblue" d="M345.16,-37.8564C353.742,-39.0598 362.423,-40.277 370.648,-41.4303"/>
<polygon fill="midnightblue" stroke="midnightblue" points="345.553,-34.3774 335.164,-36.4548 344.581,-41.3096 345.553,-34.3774"/>
</g>
<!-- Node89 -->
<g id="node6" class="node"><title>Node89</title>
<g id="a_node6"><a xlink:href="$d7/df9/class_cool_board.html#ae6b5e1274d760462290192acea4adca8" xlink:title="CoolBoard::offLineMode">
<polygon fill="white" stroke="black" points="641,-0.5 641,-19.5 763,-19.5 763,-0.5 641,-0.5"/>
<text text-anchor="middle" x="702" y="-7.5" font-family="Helvetica,sans-Serif" font-size="10.00">CoolBoard::offLineMode</text>
</a>
</g>
</g>
<!-- Node85&#45;&gt;Node89 -->
<g id="edge6" class="edge"><title>Node85&#45;&gt;Node89</title>
<path fill="none" stroke="midnightblue" d="M345.507,-26.1202C425.643,-22.4863 562.454,-16.2825 640.929,-12.724"/>
<polygon fill="midnightblue" stroke="midnightblue" points="344.898,-22.6441 335.067,-26.5936 345.215,-29.637 344.898,-22.6441"/>
</g>
<!-- Node87 -->
<g id="node4" class="node"><title>Node87</title>
<g id="a_node4"><a xlink:href="$d7/df9/class_cool_board.html#a519de78b807f8ec6463ff484eb925918" xlink:title="CoolBoard::connect">
<polygon fill="white" stroke="black" points="502,-38.5 502,-57.5 605,-57.5 605,-38.5 502,-38.5"/>
<text text-anchor="middle" x="553.5" y="-45.5" font-family="Helvetica,sans-Serif" font-size="10.00">CoolBoard::connect</text>
</a>
</g>
</g>
<!-- Node86&#45;&gt;Node87 -->
<g id="edge3" class="edge"><title>Node86&#45;&gt;Node87</title>
<path fill="none" stroke="midnightblue" d="M476.204,-48C484.676,-48 493.364,-48 501.703,-48"/>
<polygon fill="midnightblue" stroke="midnightblue" points="476.017,-44.5001 466.017,-48 476.017,-51.5001 476.017,-44.5001"/>
</g>
<!-- Node88 -->
<g id="node5" class="node"><title>Node88</title>
<g id="a_node5"><a xlink:href="$d7/df9/class_cool_board.html#acba7c5aef7268b2c0044bdb54d3b9d76" xlink:title="CoolBoard::begin">
<polygon fill="white" stroke="black" points="656,-38.5 656,-57.5 748,-57.5 748,-38.5 656,-38.5"/>
<text text-anchor="middle" x="702" y="-45.5" font-family="Helvetica,sans-Serif" font-size="10.00">CoolBoard::begin</text>
</a>
</g>
</g>
<!-- Node87&#45;&gt;Node88 -->
<g id="edge4" class="edge"><title>Node87&#45;&gt;Node88</title>
<path fill="none" stroke="midnightblue" d="M615.472,-48C628.924,-48 642.944,-48 655.648,-48"/>
<polygon fill="midnightblue" stroke="midnightblue" points="615.327,-44.5001 605.327,-48 615.327,-51.5001 615.327,-44.5001"/>
</g>
<!-- Node87&#45;&gt;Node89 -->
<g id="edge5" class="edge"><title>Node87&#45;&gt;Node89</title>
<path fill="none" stroke="midnightblue" d="M601.195,-35.8879C621.599,-30.5956 645.181,-24.4787 664.298,-19.5201"/>
<polygon fill="midnightblue" stroke="midnightblue" points="600.269,-32.5123 591.468,-38.411 602.027,-39.288 600.269,-32.5123"/>
</g>
</g>
</svg>
