<?xml version="1.0" encoding="UTF-8" standalone="no"?>
<!DOCTYPE svg PUBLIC "-//W3C//DTD SVG 1.1//EN"
 "http://www.w3.org/Graphics/SVG/1.1/DTD/svg11.dtd">
<!-- Generated by graphviz version 2.38.0 (20140413.2041)
 -->
<!-- Title: WiFiManager::handleRoot Pages: 1 -->
<svg width="487pt" height="104pt"
 viewBox="0.00 0.00 487.00 104.00" xmlns="http://www.w3.org/2000/svg" xmlns:xlink="http://www.w3.org/1999/xlink">
<g id="graph0" class="graph" transform="scale(1 1) rotate(0) translate(4 100)">
<title>WiFiManager::handleRoot</title>
<polygon fill="white" stroke="none" points="-4,4 -4,-100 483,-100 483,4 -4,4"/>
<!-- Node127 -->
<g id="node1" class="node"><title>Node127</title>
<polygon fill="#bfbfbf" stroke="black" points="0,-19.5 0,-38.5 130,-38.5 130,-19.5 0,-19.5"/>
<text text-anchor="middle" x="65" y="-26.5" font-family="Helvetica,sans-Serif" font-size="10.00">WiFiManager::handleRoot</text>
</g>
<!-- Node128 -->
<g id="node2" class="node"><title>Node128</title>
<g id="a_node2"><a xlink:href="$d4/dc8/class_wi_fi_manager.html#a4ef4298deb224212e5242c456669a973" xlink:title="WiFiManager::captivePortal">
<polygon fill="white" stroke="black" points="166,-38.5 166,-57.5 303,-57.5 303,-38.5 166,-38.5"/>
<text text-anchor="middle" x="234.5" y="-45.5" font-family="Helvetica,sans-Serif" font-size="10.00">WiFiManager::captivePortal</text>
</a>
</g>
</g>
<!-- Node127&#45;&gt;Node128 -->
<g id="edge1" class="edge"><title>Node127&#45;&gt;Node128</title>
<path fill="none" stroke="midnightblue" d="M130.281,-36.2916C138.636,-37.2393 147.265,-38.2181 155.809,-39.1873"/>
<polygon fill="midnightblue" stroke="midnightblue" points="155.448,-42.6687 165.779,-40.3182 156.237,-35.7133 155.448,-42.6687"/>
</g>
<!-- Node130 -->
<g id="node4" class="node"><title>Node130</title>
<g id="a_node4"><a xlink:href="$d4/dc8/class_wi_fi_manager.html#ae5f595c670ccbcf9a191baf50f5c7c26" xlink:title="WiFiManager::DEBUG_WM">
<polygon fill="white" stroke="black" points="339,-0.5 339,-19.5 479,-19.5 479,-0.5 339,-0.5"/>
<text text-anchor="middle" x="409" y="-7.5" font-family="Helvetica,sans-Serif" font-size="10.00">WiFiManager::DEBUG_WM</text>
</a>
</g>
</g>
<!-- Node127&#45;&gt;Node130 -->
<g id="edge5" class="edge"><title>Node127&#45;&gt;Node130</title>
<path fill="none" stroke="midnightblue" d="M130.328,-25.4262C186.573,-22.3015 268.455,-17.7525 328.734,-14.4037"/>
<polygon fill="midnightblue" stroke="midnightblue" points="329.179,-17.8844 338.97,-13.835 328.791,-10.8952 329.179,-17.8844"/>
</g>
<!-- Node129 -->
<g id="node3" class="node"><title>Node129</title>
<g id="a_node3"><a xlink:href="$d4/dc8/class_wi_fi_manager.html#a9c78a8774f746ec22a99d03a53baa607" xlink:title="WiFiManager::isIp">
<polygon fill="white" stroke="black" points="361,-76.5 361,-95.5 457,-95.5 457,-76.5 361,-76.5"/>
<text text-anchor="middle" x="409" y="-83.5" font-family="Helvetica,sans-Serif" font-size="10.00">WiFiManager::isIp</text>
</a>
</g>
</g>
<!-- Node128&#45;&gt;Node129 -->
<g id="edge2" class="edge"><title>Node128&#45;&gt;Node129</title>
<path fill="none" stroke="midnightblue" d="M279.029,-57.589C302.1,-62.6713 330.627,-68.9554 354.981,-74.3203"/>
<polygon fill="midnightblue" stroke="midnightblue" points="354.265,-77.7466 364.784,-76.4799 355.771,-70.9105 354.265,-77.7466"/>
</g>
<!-- Node128&#45;&gt;Node130 -->
<g id="edge3" class="edge"><title>Node128&#45;&gt;Node130</title>
<path fill="none" stroke="midnightblue" d="M279.029,-38.411C302.1,-33.3287 330.627,-27.0446 354.981,-21.6797"/>
<polygon fill="midnightblue" stroke="midnightblue" points="355.771,-25.0895 364.784,-19.5201 354.265,-18.2534 355.771,-25.0895"/>
</g>
<!-- Node131 -->
<g id="node5" class="node"><title>Node131</title>
<g id="a_node5"><a xlink:href="$d4/dc8/class_wi_fi_manager.html#a8dfd64cefecbdf26242b16eca335c20b" xlink:title="WiFiManager::toStringIp">
<polygon fill="white" stroke="black" points="348,-38.5 348,-57.5 470,-57.5 470,-38.5 348,-38.5"/>
<text text-anchor="middle" x="409" y="-45.5" font-family="Helvetica,sans-Serif" font-size="10.00">WiFiManager::toStringIp</text>
</a>
</g>
</g>
<!-- Node128&#45;&gt;Node131 -->
<g id="edge4" class="edge"><title>Node128&#45;&gt;Node131</title>
<path fill="none" stroke="midnightblue" d="M303.181,-48C314.455,-48 326.173,-48 337.514,-48"/>
<polygon fill="midnightblue" stroke="midnightblue" points="337.8,-51.5001 347.8,-48 337.8,-44.5001 337.8,-51.5001"/>
</g>
</g>
</svg>
