<?xml version="1.0" encoding="UTF-8" standalone="no"?>
<!DOCTYPE svg PUBLIC "-//W3C//DTD SVG 1.1//EN"
 "http://www.w3.org/Graphics/SVG/1.1/DTD/svg11.dtd">
<!-- Generated by graphviz version 2.38.0 (20140413.2041)
 -->
<!-- Title: WiFiManager::addParameter Pages: 1 -->
<svg width="325pt" height="78pt"
 viewBox="0.00 0.00 325.00 77.50" xmlns="http://www.w3.org/2000/svg" xmlns:xlink="http://www.w3.org/1999/xlink">
<g id="graph0" class="graph" transform="scale(1 1) rotate(0) translate(4 73.5)">
<title>WiFiManager::addParameter</title>
<polygon fill="white" stroke="none" points="-4,4 -4,-73.5 321,-73.5 321,4 -4,4"/>
<!-- Node75 -->
<g id="node1" class="node"><title>Node75</title>
<polygon fill="#bfbfbf" stroke="black" points="0,-28 0,-47 141,-47 141,-28 0,-28"/>
<text text-anchor="middle" x="70.5" y="-35" font-family="Helvetica,sans-Serif" font-size="10.00">WiFiManager::addParameter</text>
</g>
<!-- Node76 -->
<g id="node2" class="node"><title>Node76</title>
<g id="a_node2"><a xlink:href="$d4/dc8/class_wi_fi_manager.html#ae5f595c670ccbcf9a191baf50f5c7c26" xlink:title="WiFiManager::DEBUG_WM">
<polygon fill="white" stroke="black" points="177,-50 177,-69 317,-69 317,-50 177,-50"/>
<text text-anchor="middle" x="247" y="-57" font-family="Helvetica,sans-Serif" font-size="10.00">WiFiManager::DEBUG_WM</text>
</a>
</g>
</g>
<!-- Node75&#45;&gt;Node76 -->
<g id="edge1" class="edge"><title>Node75&#45;&gt;Node76</title>
<path fill="none" stroke="midnightblue" d="M141.219,-46.2898C149.68,-47.3565 158.37,-48.4521 166.954,-49.5343"/>
<polygon fill="midnightblue" stroke="midnightblue" points="166.601,-53.0175 176.961,-50.7959 167.477,-46.0724 166.601,-53.0175"/>
</g>
<!-- Node77 -->
<g id="node3" class="node"><title>Node77</title>
<g id="a_node3"><a xlink:href="$d7/d08/class_wi_fi_manager_parameter.html#af57919615418fff788310ba9cc2664d8" xlink:title="WiFiManagerParameter\l::getID">
<polygon fill="white" stroke="black" points="187.5,-0.5 187.5,-30.5 306.5,-30.5 306.5,-0.5 187.5,-0.5"/>
<text text-anchor="start" x="195.5" y="-18.5" font-family="Helvetica,sans-Serif" font-size="10.00">WiFiManagerParameter</text>
<text text-anchor="middle" x="247" y="-7.5" font-family="Helvetica,sans-Serif" font-size="10.00">::getID</text>
</a>
</g>
</g>
<!-- Node75&#45;&gt;Node77 -->
<g id="edge2" class="edge"><title>Node75&#45;&gt;Node77</title>
<path fill="none" stroke="midnightblue" d="M141.219,-28.7102C153.041,-27.2198 165.31,-25.673 177.109,-24.1854"/>
<polygon fill="midnightblue" stroke="midnightblue" points="177.851,-27.6196 187.335,-22.8962 176.976,-20.6746 177.851,-27.6196"/>
</g>
</g>
</svg>
