<?xml version="1.0" encoding="UTF-8" standalone="no"?>
<!DOCTYPE svg PUBLIC "-//W3C//DTD SVG 1.1//EN"
 "http://www.w3.org/Graphics/SVG/1.1/DTD/svg11.dtd">
<!-- Generated by graphviz version 2.38.0 (20140413.2041)
 -->
<!-- Title: WiFiManager::handleRoot Pages: 1 -->
<svg width="471pt" height="39pt"
 viewBox="0.00 0.00 471.00 39.00" xmlns="http://www.w3.org/2000/svg" xmlns:xlink="http://www.w3.org/1999/xlink">
<g id="graph0" class="graph" transform="scale(1 1) rotate(0) translate(4 35)">
<title>WiFiManager::handleRoot</title>
<polygon fill="white" stroke="none" points="-4,4 -4,-35 467,-35 467,4 -4,4"/>
<!-- Node132 -->
<g id="node1" class="node"><title>Node132</title>
<polygon fill="#bfbfbf" stroke="black" points="0,-6 0,-25 130,-25 130,-6 0,-6"/>
<text text-anchor="middle" x="65" y="-13" font-family="Helvetica,sans-Serif" font-size="10.00">WiFiManager::handleRoot</text>
</g>
<!-- Node133 -->
<g id="node2" class="node"><title>Node133</title>
<g id="a_node2"><a xlink:href="$d4/dc8/class_wi_fi_manager.html#a1743325d0dd86d011df96b22d2a0ddd6" xlink:title="WiFiManager::setupConfig\lPortal">
<polygon fill="white" stroke="black" points="166,-0.5 166,-30.5 299,-30.5 299,-0.5 166,-0.5"/>
<text text-anchor="start" x="174" y="-18.5" font-family="Helvetica,sans-Serif" font-size="10.00">WiFiManager::setupConfig</text>
<text text-anchor="middle" x="232.5" y="-7.5" font-family="Helvetica,sans-Serif" font-size="10.00">Portal</text>
</a>
</g>
</g>
<!-- Node132&#45;&gt;Node133 -->
<g id="edge1" class="edge"><title>Node132&#45;&gt;Node133</title>
<path fill="none" stroke="midnightblue" d="M140.638,-15.5C149.047,-15.5 157.569,-15.5 165.852,-15.5"/>
<polygon fill="midnightblue" stroke="midnightblue" points="140.461,-12.0001 130.461,-15.5 140.46,-19.0001 140.461,-12.0001"/>
</g>
<!-- Node134 -->
<g id="node3" class="node"><title>Node134</title>
<g id="a_node3"><a xlink:href="$d4/dc8/class_wi_fi_manager.html#afaca5021edffb4d9a5bd39f7b0f7a686" xlink:title="WiFiManager::startConfig\lPortal">
<polygon fill="white" stroke="black" points="335,-0.5 335,-30.5 463,-30.5 463,-0.5 335,-0.5"/>
<text text-anchor="start" x="343" y="-18.5" font-family="Helvetica,sans-Serif" font-size="10.00">WiFiManager::startConfig</text>
<text text-anchor="middle" x="399" y="-7.5" font-family="Helvetica,sans-Serif" font-size="10.00">Portal</text>
</a>
</g>
</g>
<!-- Node133&#45;&gt;Node134 -->
<g id="edge2" class="edge"><title>Node133&#45;&gt;Node134</title>
<path fill="none" stroke="midnightblue" d="M309.706,-15.5C318.16,-15.5 326.699,-15.5 334.964,-15.5"/>
<polygon fill="midnightblue" stroke="midnightblue" points="309.461,-12.0001 299.461,-15.5 309.461,-19.0001 309.461,-12.0001"/>
</g>
</g>
</svg>
