<?xml version="1.0" encoding="UTF-8" standalone="no"?>
<!DOCTYPE svg PUBLIC "-//W3C//DTD SVG 1.1//EN"
 "http://www.w3.org/Graphics/SVG/1.1/DTD/svg11.dtd">
<!-- Generated by graphviz version 2.38.0 (20140413.2041)
 -->
<!-- Title: WiFiManager::captivePortal Pages: 1 -->
<svg width="666pt" height="66pt"
 viewBox="0.00 0.00 666.00 66.00" xmlns="http://www.w3.org/2000/svg" xmlns:xlink="http://www.w3.org/1999/xlink">
<g id="graph0" class="graph" transform="scale(1 1) rotate(0) translate(4 62)">
<title>WiFiManager::captivePortal</title>
<polygon fill="white" stroke="none" points="-4,4 -4,-62 662,-62 662,4 -4,4"/>
<!-- Node178 -->
<g id="node1" class="node"><title>Node178</title>
<polygon fill="#bfbfbf" stroke="black" points="0,-19.5 0,-38.5 137,-38.5 137,-19.5 0,-19.5"/>
<text text-anchor="middle" x="68.5" y="-26.5" font-family="Helvetica,sans-Serif" font-size="10.00">WiFiManager::captivePortal</text>
</g>
<!-- Node179 -->
<g id="node2" class="node"><title>Node179</title>
<g id="a_node2"><a xlink:href="$d4/dc8/class_wi_fi_manager.html#a7d01f7de3e4b76acdabffac79fa3d0ab" xlink:title="WiFiManager::handleNotFound">
<polygon fill="white" stroke="black" points="173,-38.5 173,-57.5 325,-57.5 325,-38.5 173,-38.5"/>
<text text-anchor="middle" x="249" y="-45.5" font-family="Helvetica,sans-Serif" font-size="10.00">WiFiManager::handleNotFound</text>
</a>
</g>
</g>
<!-- Node178&#45;&gt;Node179 -->
<g id="edge1" class="edge"><title>Node178&#45;&gt;Node179</title>
<path fill="none" stroke="midnightblue" d="M147.439,-37.2961C155.875,-38.194 164.449,-39.1066 172.851,-40.0009"/>
<polygon fill="midnightblue" stroke="midnightblue" points="147.552,-33.7884 137.238,-36.2102 146.811,-40.7491 147.552,-33.7884"/>
</g>
<!-- Node182 -->
<g id="node5" class="node"><title>Node182</title>
<g id="a_node5"><a xlink:href="$d4/dc8/class_wi_fi_manager.html#a47e4c7df7478f690c53ff9f5125c9760" xlink:title="WiFiManager::handleRoot">
<polygon fill="white" stroke="black" points="184,-0.5 184,-19.5 314,-19.5 314,-0.5 184,-0.5"/>
<text text-anchor="middle" x="249" y="-7.5" font-family="Helvetica,sans-Serif" font-size="10.00">WiFiManager::handleRoot</text>
</a>
</g>
</g>
<!-- Node178&#45;&gt;Node182 -->
<g id="edge4" class="edge"><title>Node178&#45;&gt;Node182</title>
<path fill="none" stroke="midnightblue" d="M147.378,-20.7105C159.554,-19.4144 172.018,-18.0878 183.842,-16.8292"/>
<polygon fill="midnightblue" stroke="midnightblue" points="146.811,-17.2509 137.238,-21.7898 147.552,-24.2116 146.811,-17.2509"/>
</g>
<!-- Node180 -->
<g id="node3" class="node"><title>Node180</title>
<g id="a_node3"><a xlink:href="$d4/dc8/class_wi_fi_manager.html#a1743325d0dd86d011df96b22d2a0ddd6" xlink:title="WiFiManager::setupConfig\lPortal">
<polygon fill="white" stroke="black" points="361,-14 361,-44 494,-44 494,-14 361,-14"/>
<text text-anchor="start" x="369" y="-32" font-family="Helvetica,sans-Serif" font-size="10.00">WiFiManager::setupConfig</text>
<text text-anchor="middle" x="427.5" y="-21" font-family="Helvetica,sans-Serif" font-size="10.00">Portal</text>
</a>
</g>
</g>
<!-- Node179&#45;&gt;Node180 -->
<g id="edge2" class="edge"><title>Node179&#45;&gt;Node180</title>
<path fill="none" stroke="midnightblue" d="M335.22,-38.8262C343.865,-37.8955 352.55,-36.9606 360.941,-36.0573"/>
<polygon fill="midnightblue" stroke="midnightblue" points="334.676,-35.3645 325.108,-39.9147 335.425,-42.3242 334.676,-35.3645"/>
</g>
<!-- Node181 -->
<g id="node4" class="node"><title>Node181</title>
<g id="a_node4"><a xlink:href="$d4/dc8/class_wi_fi_manager.html#afaca5021edffb4d9a5bd39f7b0f7a686" xlink:title="WiFiManager::startConfig\lPortal">
<polygon fill="white" stroke="black" points="530,-14 530,-44 658,-44 658,-14 530,-14"/>
<text text-anchor="start" x="538" y="-32" font-family="Helvetica,sans-Serif" font-size="10.00">WiFiManager::startConfig</text>
<text text-anchor="middle" x="594" y="-21" font-family="Helvetica,sans-Serif" font-size="10.00">Portal</text>
</a>
</g>
</g>
<!-- Node180&#45;&gt;Node181 -->
<g id="edge3" class="edge"><title>Node180&#45;&gt;Node181</title>
<path fill="none" stroke="midnightblue" d="M504.706,-29C513.16,-29 521.699,-29 529.964,-29"/>
<polygon fill="midnightblue" stroke="midnightblue" points="504.461,-25.5001 494.461,-29 504.461,-32.5001 504.461,-25.5001"/>
</g>
<!-- Node182&#45;&gt;Node180 -->
<g id="edge5" class="edge"><title>Node182&#45;&gt;Node180</title>
<path fill="none" stroke="midnightblue" d="M324.308,-17.9991C336.443,-19.3055 348.939,-20.6507 360.847,-21.9325"/>
<polygon fill="midnightblue" stroke="midnightblue" points="324.537,-14.5037 314.22,-16.9132 323.788,-21.4635 324.537,-14.5037"/>
</g>
</g>
</svg>
