<?xml version="1.0" encoding="UTF-8" standalone="no"?>
<!DOCTYPE svg PUBLIC "-//W3C//DTD SVG 1.1//EN"
 "http://www.w3.org/Graphics/SVG/1.1/DTD/svg11.dtd">
<!-- Generated by graphviz version 2.38.0 (20140413.2041)
 -->
<!-- Title: CoolBoardSensors::readMoisture Pages: 1 -->
<svg width="645pt" height="66pt"
 viewBox="0.00 0.00 645.00 66.00" xmlns="http://www.w3.org/2000/svg" xmlns:xlink="http://www.w3.org/1999/xlink">
<g id="graph0" class="graph" transform="scale(1 1) rotate(0) translate(4 62)">
<title>CoolBoardSensors::readMoisture</title>
<polygon fill="white" stroke="none" points="-4,4 -4,-62 641,-62 641,4 -4,4"/>
<!-- Node60 -->
<g id="node1" class="node"><title>Node60</title>
<polygon fill="#bfbfbf" stroke="black" points="0,-19.5 0,-38.5 161,-38.5 161,-19.5 0,-19.5"/>
<text text-anchor="middle" x="80.5" y="-26.5" font-family="Helvetica,sans-Serif" font-size="10.00">CoolBoardSensors::readMoisture</text>
</g>
<!-- Node61 -->
<g id="node2" class="node"><title>Node61</title>
<g id="a_node2"><a xlink:href="../../de/d46/class_cool_board_sensors.html#a91badb2539d91fda8679f2a597874c48" target="_top" xlink:title="CoolBoardSensors::read">
<polygon fill="white" stroke="black" points="197,-19.5 197,-38.5 320,-38.5 320,-19.5 197,-19.5"/>
<text text-anchor="middle" x="258.5" y="-26.5" font-family="Helvetica,sans-Serif" font-size="10.00">CoolBoardSensors::read</text>
</a>
</g>
</g>
<!-- Node60&#45;&gt;Node61 -->
<g id="edge1" class="edge"><title>Node60&#45;&gt;Node61</title>
<path fill="none" stroke="midnightblue" d="M171.18,-29C179.858,-29 188.513,-29 196.81,-29"/>
<polygon fill="midnightblue" stroke="midnightblue" points="171.004,-25.5001 161.004,-29 171.004,-32.5001 171.004,-25.5001"/>
</g>
<!-- Node62 -->
<g id="node3" class="node"><title>Node62</title>
<g id="a_node3"><a xlink:href="../../d7/df9/class_cool_board.html#ad03abdce2e65f520bbf2cff0f2d083cf" target="_top" xlink:title="CoolBoard::readSensors">
<polygon fill="white" stroke="black" points="356,-19.5 356,-38.5 479,-38.5 479,-19.5 356,-19.5"/>
<text text-anchor="middle" x="417.5" y="-26.5" font-family="Helvetica,sans-Serif" font-size="10.00">CoolBoard::readSensors</text>
</a>
</g>
</g>
<!-- Node61&#45;&gt;Node62 -->
<g id="edge2" class="edge"><title>Node61&#45;&gt;Node62</title>
<path fill="none" stroke="midnightblue" d="M330.21,-29C338.807,-29 347.53,-29 355.961,-29"/>
<polygon fill="midnightblue" stroke="midnightblue" points="330.2,-25.5001 320.2,-29 330.2,-32.5001 330.2,-25.5001"/>
</g>
<!-- Node63 -->
<g id="node4" class="node"><title>Node63</title>
<g id="a_node4"><a xlink:href="../../d7/df9/class_cool_board.html#ae6b5e1274d760462290192acea4adca8" target="_top" xlink:title="CoolBoard::offLineMode">
<polygon fill="white" stroke="black" points="515,-38.5 515,-57.5 637,-57.5 637,-38.5 515,-38.5"/>
<text text-anchor="middle" x="576" y="-45.5" font-family="Helvetica,sans-Serif" font-size="10.00">CoolBoard::offLineMode</text>
</a>
</g>
</g>
<!-- Node62&#45;&gt;Node63 -->
<g id="edge3" class="edge"><title>Node62&#45;&gt;Node63</title>
<path fill="none" stroke="midnightblue" d="M489.059,-37.5662C497.692,-38.6144 506.452,-39.6779 514.912,-40.7049"/>
<polygon fill="midnightblue" stroke="midnightblue" points="489.356,-34.0767 479.007,-36.3459 488.512,-41.0257 489.356,-34.0767"/>
</g>
<!-- Node64 -->
<g id="node5" class="node"><title>Node64</title>
<g id="a_node5"><a xlink:href="../../d7/df9/class_cool_board.html#aa0bbc4bc605e35618d18e68795c61363" target="_top" xlink:title="CoolBoard::onLineMode">
<polygon fill="white" stroke="black" points="515.5,-0.5 515.5,-19.5 636.5,-19.5 636.5,-0.5 515.5,-0.5"/>
<text text-anchor="middle" x="576" y="-7.5" font-family="Helvetica,sans-Serif" font-size="10.00">CoolBoard::onLineMode</text>
</a>
</g>
</g>
<!-- Node62&#45;&gt;Node64 -->
<g id="edge4" class="edge"><title>Node62&#45;&gt;Node64</title>
<path fill="none" stroke="midnightblue" d="M489.207,-20.4158C497.968,-19.3522 506.856,-18.2731 515.427,-17.2325"/>
<polygon fill="midnightblue" stroke="midnightblue" points="488.512,-16.9743 479.007,-21.6541 489.356,-23.9233 488.512,-16.9743"/>
</g>
</g>
</svg>
