<?xml version="1.0" encoding="UTF-8" standalone="no"?>
<!DOCTYPE svg PUBLIC "-//W3C//DTD SVG 1.1//EN"
 "http://www.w3.org/Graphics/SVG/1.1/DTD/svg11.dtd">
<!-- Generated by graphviz version 2.38.0 (20140413.2041)
 -->
<!-- Title: CoolBoardSensors::end Pages: 1 -->
<svg width="604pt" height="66pt"
 viewBox="0.00 0.00 604.00 66.00" xmlns="http://www.w3.org/2000/svg" xmlns:xlink="http://www.w3.org/1999/xlink">
<g id="graph0" class="graph" transform="scale(1 1) rotate(0) translate(4 62)">
<title>CoolBoardSensors::end</title>
<polygon fill="white" stroke="none" points="-4,4 -4,-62 600,-62 600,4 -4,4"/>
<!-- Node37 -->
<g id="node1" class="node"><title>Node37</title>
<polygon fill="#bfbfbf" stroke="black" points="0,-19.5 0,-38.5 120,-38.5 120,-19.5 0,-19.5"/>
<text text-anchor="middle" x="60" y="-26.5" font-family="Helvetica,sans-Serif" font-size="10.00">CoolBoardSensors::end</text>
</g>
<!-- Node38 -->
<g id="node2" class="node"><title>Node38</title>
<g id="a_node2"><a xlink:href="$dd/d67/class_cool_s_i114_x.html#a6840abd53a2e3d71a6bb918077c6d6e6" xlink:title="CoolSI114X::DeInit">
<polygon fill="white" stroke="black" points="156,-19.5 156,-38.5 257,-38.5 257,-19.5 156,-19.5"/>
<text text-anchor="middle" x="206.5" y="-26.5" font-family="Helvetica,sans-Serif" font-size="10.00">CoolSI114X::DeInit</text>
</a>
</g>
</g>
<!-- Node37&#45;&gt;Node38 -->
<g id="edge1" class="edge"><title>Node37&#45;&gt;Node38</title>
<path fill="none" stroke="midnightblue" d="M120.191,-29C128.613,-29 137.28,-29 145.714,-29"/>
<polygon fill="midnightblue" stroke="midnightblue" points="145.853,-32.5001 155.853,-29 145.853,-25.5001 145.853,-32.5001"/>
</g>
<!-- Node39 -->
<g id="node3" class="node"><title>Node39</title>
<g id="a_node3"><a xlink:href="$dd/d67/class_cool_s_i114_x.html#ac5c8dc5ade604da7a1c8cd1586feefc2" xlink:title="CoolSI114X::WriteByte">
<polygon fill="white" stroke="black" points="477,-38.5 477,-57.5 596,-57.5 596,-38.5 477,-38.5"/>
<text text-anchor="middle" x="536.5" y="-45.5" font-family="Helvetica,sans-Serif" font-size="10.00">CoolSI114X::WriteByte</text>
</a>
</g>
</g>
<!-- Node38&#45;&gt;Node39 -->
<g id="edge2" class="edge"><title>Node38&#45;&gt;Node39</title>
<path fill="none" stroke="midnightblue" d="M257.316,-31.8857C313.168,-35.121 404.095,-40.3881 466.705,-44.0149"/>
<polygon fill="midnightblue" stroke="midnightblue" points="466.701,-47.5205 476.887,-44.6047 467.106,-40.5322 466.701,-47.5205"/>
</g>
<!-- Node40 -->
<g id="node4" class="node"><title>Node40</title>
<g id="a_node4"><a xlink:href="$dd/d67/class_cool_s_i114_x.html#abf45eb10a6de1be16e68a51624fa2608" xlink:title="CoolSI114X::WriteParamData">
<polygon fill="white" stroke="black" points="293,-0.5 293,-19.5 441,-19.5 441,-0.5 293,-0.5"/>
<text text-anchor="middle" x="367" y="-7.5" font-family="Helvetica,sans-Serif" font-size="10.00">CoolSI114X::WriteParamData</text>
</a>
</g>
</g>
<!-- Node38&#45;&gt;Node40 -->
<g id="edge3" class="edge"><title>Node38&#45;&gt;Node40</title>
<path fill="none" stroke="midnightblue" d="M257.216,-23.0404C265.461,-22.052 274.204,-21.004 283.009,-19.9485"/>
<polygon fill="midnightblue" stroke="midnightblue" points="283.44,-23.4219 292.952,-18.7565 282.607,-16.4717 283.44,-23.4219"/>
</g>
<!-- Node40&#45;&gt;Node39 -->
<g id="edge4" class="edge"><title>Node40&#45;&gt;Node39</title>
<path fill="none" stroke="midnightblue" d="M410.267,-19.589C432.57,-24.6487 460.123,-30.8996 483.702,-36.2488"/>
<polygon fill="midnightblue" stroke="midnightblue" points="483.01,-39.6807 493.537,-38.4799 484.559,-32.8542 483.01,-39.6807"/>
</g>
<!-- Node41 -->
<g id="node5" class="node"><title>Node41</title>
<g id="a_node5"><a xlink:href="$dd/d67/class_cool_s_i114_x.html#acc20f8037e156ec4aadcbe90780b1e8b" xlink:title="CoolSI114X::ReadByte">
<polygon fill="white" stroke="black" points="477,-0.5 477,-19.5 596,-19.5 596,-0.5 477,-0.5"/>
<text text-anchor="middle" x="536.5" y="-7.5" font-family="Helvetica,sans-Serif" font-size="10.00">CoolSI114X::ReadByte</text>
</a>
</g>
</g>
<!-- Node40&#45;&gt;Node41 -->
<g id="edge5" class="edge"><title>Node40&#45;&gt;Node41</title>
<path fill="none" stroke="midnightblue" d="M441.468,-10C449.904,-10 458.482,-10 466.852,-10"/>
<polygon fill="midnightblue" stroke="midnightblue" points="466.934,-13.5001 476.934,-10 466.934,-6.5001 466.934,-13.5001"/>
</g>
</g>
</svg>
