<?xml version="1.0" encoding="UTF-8" standalone="no"?>
<!DOCTYPE svg PUBLIC "-//W3C//DTD SVG 1.1//EN"
 "http://www.w3.org/Graphics/SVG/1.1/DTD/svg11.dtd">
<!-- Generated by graphviz version 2.38.0 (20140413.2041)
 -->
<!-- Title: CoolBoardSensors::begin Pages: 1 -->
<svg width="800pt" height="180pt"
 viewBox="0.00 0.00 800.00 180.16" xmlns="http://www.w3.org/2000/svg" xmlns:xlink="http://www.w3.org/1999/xlink">
<g id="graph0" class="graph" transform="scale(1 1) rotate(0) translate(4 176.16)">
<title>CoolBoardSensors::begin</title>
<polygon fill="white" stroke="none" points="-4,4 -4,-176.16 796,-176.16 796,4 -4,4"/>
<!-- Node2 -->
<g id="node1" class="node"><title>Node2</title>
<polygon fill="#bfbfbf" stroke="black" points="0,-57.6598 0,-76.6598 128,-76.6598 128,-57.6598 0,-57.6598"/>
<text text-anchor="middle" x="64" y="-64.6598" font-family="Helvetica,sans-Serif" font-size="10.00">CoolBoardSensors::begin</text>
</g>
<!-- Node3 -->
<g id="node2" class="node"><title>Node3</title>
<g id="a_node2"><a xlink:href="$df/dcf/class_b_m_e280.html#a994c102f010547f9c740a338ef9905c7" xlink:title="BME280::begin">
<polygon fill="white" stroke="black" points="190,-114.66 190,-133.66 273,-133.66 273,-114.66 190,-114.66"/>
<text text-anchor="middle" x="231.5" y="-121.66" font-family="Helvetica,sans-Serif" font-size="10.00">BME280::begin</text>
</a>
</g>
</g>
<!-- Node2&#45;&gt;Node3 -->
<g id="edge1" class="edge"><title>Node2&#45;&gt;Node3</title>
<path fill="none" stroke="midnightblue" d="M92.701,-76.7003C120.149,-86.1536 162.384,-100.7 192.862,-111.197"/>
<polygon fill="midnightblue" stroke="midnightblue" points="192.114,-114.641 202.709,-114.588 194.393,-108.022 192.114,-114.641"/>
</g>
<!-- Node6 -->
<g id="node5" class="node"><title>Node6</title>
<g id="a_node5"><a xlink:href="$dd/d67/class_cool_s_i114_x.html#a206b36aca7049f63be1d11088c30a09f" xlink:title="CoolSI114X::Begin">
<polygon fill="white" stroke="black" points="181.5,-57.6598 181.5,-76.6598 281.5,-76.6598 281.5,-57.6598 181.5,-57.6598"/>
<text text-anchor="middle" x="231.5" y="-64.6598" font-family="Helvetica,sans-Serif" font-size="10.00">CoolSI114X::Begin</text>
</a>
</g>
</g>
<!-- Node2&#45;&gt;Node6 -->
<g id="edge4" class="edge"><title>Node2&#45;&gt;Node6</title>
<path fill="none" stroke="midnightblue" d="M128.041,-67.1598C142.227,-67.1598 157.235,-67.1598 171.26,-67.1598"/>
<polygon fill="midnightblue" stroke="midnightblue" points="171.273,-70.6599 181.273,-67.1598 171.272,-63.6599 171.273,-70.6599"/>
</g>
<!-- Node12 -->
<g id="node11" class="node"><title>Node12</title>
<g id="a_node11"><a xlink:href="$de/d46/class_cool_board_sensors.html#a406307ffd70272282d91479c7ed8d66f" xlink:title="CoolBoardSensors::setEnv\lSensorSettings">
<polygon fill="white" stroke="black" points="164,-8.15982 164,-38.1598 299,-38.1598 299,-8.15982 164,-8.15982"/>
<text text-anchor="start" x="172" y="-26.1598" font-family="Helvetica,sans-Serif" font-size="10.00">CoolBoardSensors::setEnv</text>
<text text-anchor="middle" x="231.5" y="-15.1598" font-family="Helvetica,sans-Serif" font-size="10.00">SensorSettings</text>
</a>
</g>
</g>
<!-- Node2&#45;&gt;Node12 -->
<g id="edge13" class="edge"><title>Node2&#45;&gt;Node12</title>
<path fill="none" stroke="midnightblue" d="M100.911,-57.6125C119.378,-52.7028 142.486,-46.5594 164.054,-40.8252"/>
<polygon fill="midnightblue" stroke="midnightblue" points="165.069,-44.1771 173.834,-38.2252 163.27,-37.4121 165.069,-44.1771"/>
</g>
<!-- Node4 -->
<g id="node3" class="node"><title>Node4</title>
<g id="a_node3"><a xlink:href="$df/dcf/class_b_m_e280.html#a1bbd14c8591966df531e40085342ff71" xlink:title="BME280::readRegister">
<polygon fill="white" stroke="black" points="336,-114.66 336,-133.66 452,-133.66 452,-114.66 336,-114.66"/>
<text text-anchor="middle" x="394" y="-121.66" font-family="Helvetica,sans-Serif" font-size="10.00">BME280::readRegister</text>
</a>
</g>
</g>
<!-- Node3&#45;&gt;Node4 -->
<g id="edge2" class="edge"><title>Node3&#45;&gt;Node4</title>
<path fill="none" stroke="midnightblue" d="M273.001,-124.16C288.989,-124.16 307.794,-124.16 325.713,-124.16"/>
<polygon fill="midnightblue" stroke="midnightblue" points="325.842,-127.66 335.842,-124.16 325.842,-120.66 325.842,-127.66"/>
</g>
<!-- Node5 -->
<g id="node4" class="node"><title>Node5</title>
<g id="a_node4"><a xlink:href="$df/dcf/class_b_m_e280.html#afcff21c342725246bf415d7f0e4d04f0" xlink:title="BME280::writeRegister">
<polygon fill="white" stroke="black" points="335,-152.66 335,-171.66 453,-171.66 453,-152.66 335,-152.66"/>
<text text-anchor="middle" x="394" y="-159.66" font-family="Helvetica,sans-Serif" font-size="10.00">BME280::writeRegister</text>
</a>
</g>
</g>
<!-- Node3&#45;&gt;Node5 -->
<g id="edge3" class="edge"><title>Node3&#45;&gt;Node5</title>
<path fill="none" stroke="midnightblue" d="M273.001,-133.749C294.181,-138.763 320.302,-144.948 342.76,-150.265"/>
<polygon fill="midnightblue" stroke="midnightblue" points="342.253,-153.742 352.79,-152.64 343.866,-146.93 342.253,-153.742"/>
</g>
<!-- Node7 -->
<g id="node6" class="node"><title>Node7</title>
<g id="a_node6"><a xlink:href="$dd/d67/class_cool_s_i114_x.html#acc20f8037e156ec4aadcbe90780b1e8b" xlink:title="CoolSI114X::ReadByte">
<polygon fill="white" stroke="black" points="673,-0.659824 673,-19.6598 792,-19.6598 792,-0.659824 673,-0.659824"/>
<text text-anchor="middle" x="732.5" y="-7.65982" font-family="Helvetica,sans-Serif" font-size="10.00">CoolSI114X::ReadByte</text>
</a>
</g>
</g>
<!-- Node6&#45;&gt;Node7 -->
<g id="edge5" class="edge"><title>Node6&#45;&gt;Node7</title>
<path fill="none" stroke="midnightblue" d="M268.434,-57.5791C278.448,-54.5793 289.251,-51.0298 299,-47.1598 315.626,-40.5595 317.875,-34.33 335,-29.1598 446.037,4.36248 582.448,2.01977 662.879,-3.51933"/>
<polygon fill="midnightblue" stroke="midnightblue" points="662.658,-7.01244 672.885,-4.24504 663.165,-0.0307771 662.658,-7.01244"/>
</g>
<!-- Node8 -->
<g id="node7" class="node"><title>Node8</title>
<g id="a_node7"><a xlink:href="$dd/d67/class_cool_s_i114_x.html#a9d9f9c9129c0c29ed497f8563f3dd823" xlink:title="CoolSI114X::Reset">
<polygon fill="white" stroke="black" points="512.5,-95.6598 512.5,-114.66 613.5,-114.66 613.5,-95.6598 512.5,-95.6598"/>
<text text-anchor="middle" x="563" y="-102.66" font-family="Helvetica,sans-Serif" font-size="10.00">CoolSI114X::Reset</text>
</a>
</g>
</g>
<!-- Node6&#45;&gt;Node8 -->
<g id="edge6" class="edge"><title>Node6&#45;&gt;Node8</title>
<path fill="none" stroke="midnightblue" d="M281.829,-72.8488C340.671,-79.6348 438.988,-90.9733 502.128,-98.255"/>
<polygon fill="midnightblue" stroke="midnightblue" points="501.998,-101.763 512.333,-99.4319 502.8,-94.8092 501.998,-101.763"/>
</g>
<!-- Node10 -->
<g id="node9" class="node"><title>Node10</title>
<g id="a_node9"><a xlink:href="$dd/d67/class_cool_s_i114_x.html#a6840abd53a2e3d71a6bb918077c6d6e6" xlink:title="CoolSI114X::DeInit">
<polygon fill="white" stroke="black" points="343.5,-38.6598 343.5,-57.6598 444.5,-57.6598 444.5,-38.6598 343.5,-38.6598"/>
<text text-anchor="middle" x="394" y="-45.6598" font-family="Helvetica,sans-Serif" font-size="10.00">CoolSI114X::DeInit</text>
</a>
</g>
</g>
<!-- Node6&#45;&gt;Node10 -->
<g id="edge8" class="edge"><title>Node6&#45;&gt;Node10</title>
<path fill="none" stroke="midnightblue" d="M281.527,-61.356C297.788,-59.431 316.076,-57.2661 333.063,-55.2551"/>
<polygon fill="midnightblue" stroke="midnightblue" points="333.923,-58.6778 343.443,-54.0264 333.101,-51.7264 333.923,-58.6778"/>
</g>
<!-- Node9 -->
<g id="node8" class="node"><title>Node9</title>
<g id="a_node8"><a xlink:href="$dd/d67/class_cool_s_i114_x.html#ac5c8dc5ade604da7a1c8cd1586feefc2" xlink:title="CoolSI114X::WriteByte">
<polygon fill="white" stroke="black" points="673,-57.6598 673,-76.6598 792,-76.6598 792,-57.6598 673,-57.6598"/>
<text text-anchor="middle" x="732.5" y="-64.6598" font-family="Helvetica,sans-Serif" font-size="10.00">CoolSI114X::WriteByte</text>
</a>
</g>
</g>
<!-- Node8&#45;&gt;Node9 -->
<g id="edge7" class="edge"><title>Node8&#45;&gt;Node9</title>
<path fill="none" stroke="midnightblue" d="M606.267,-95.5708C628.57,-90.5111 656.123,-84.2602 679.702,-78.9111"/>
<polygon fill="midnightblue" stroke="midnightblue" points="680.559,-82.3057 689.537,-76.6799 679.01,-75.4791 680.559,-82.3057"/>
</g>
<!-- Node10&#45;&gt;Node9 -->
<g id="edge9" class="edge"><title>Node10&#45;&gt;Node9</title>
<path fill="none" stroke="midnightblue" d="M444.652,-50.9633C502.352,-54.2213 597.916,-59.6172 662.736,-63.2772"/>
<polygon fill="midnightblue" stroke="midnightblue" points="662.684,-66.7797 672.865,-63.8491 663.078,-59.7908 662.684,-66.7797"/>
</g>
<!-- Node11 -->
<g id="node10" class="node"><title>Node11</title>
<g id="a_node10"><a xlink:href="$dd/d67/class_cool_s_i114_x.html#abf45eb10a6de1be16e68a51624fa2608" xlink:title="CoolSI114X::WriteParamData">
<polygon fill="white" stroke="black" points="489,-19.6598 489,-38.6598 637,-38.6598 637,-19.6598 489,-19.6598"/>
<text text-anchor="middle" x="563" y="-26.6598" font-family="Helvetica,sans-Serif" font-size="10.00">CoolSI114X::WriteParamData</text>
</a>
</g>
</g>
<!-- Node10&#45;&gt;Node11 -->
<g id="edge10" class="edge"><title>Node10&#45;&gt;Node11</title>
<path fill="none" stroke="midnightblue" d="M444.653,-42.5106C455.362,-41.2923 466.964,-39.9723 478.565,-38.6525"/>
<polygon fill="midnightblue" stroke="midnightblue" points="479.196,-42.1033 488.736,-37.4952 478.405,-35.1482 479.196,-42.1033"/>
</g>
<!-- Node11&#45;&gt;Node7 -->
<g id="edge12" class="edge"><title>Node11&#45;&gt;Node7</title>
<path fill="none" stroke="midnightblue" d="M637.468,-20.8261C645.904,-19.8692 654.482,-18.8962 662.852,-17.9468"/>
<polygon fill="midnightblue" stroke="midnightblue" points="663.392,-21.408 672.934,-16.8031 662.603,-14.4526 663.392,-21.408"/>
</g>
<!-- Node11&#45;&gt;Node9 -->
<g id="edge11" class="edge"><title>Node11&#45;&gt;Node9</title>
<path fill="none" stroke="midnightblue" d="M606.267,-38.7488C628.57,-43.8085 656.123,-50.0594 679.702,-55.4086"/>
<polygon fill="midnightblue" stroke="midnightblue" points="679.01,-58.8405 689.537,-57.6398 680.559,-52.014 679.01,-58.8405"/>
</g>
</g>
</svg>
