<?xml version="1.0" encoding="UTF-8" standalone="no"?>
<!DOCTYPE svg PUBLIC "-//W3C//DTD SVG 1.1//EN"
 "http://www.w3.org/Graphics/SVG/1.1/DTD/svg11.dtd">
<!-- Generated by graphviz version 2.38.0 (20140413.2041)
 -->
<!-- Title: CoolWifi.cpp Pages: 1 -->
<svg width="695pt" height="151pt"
 viewBox="0.00 0.00 695.00 151.00" xmlns="http://www.w3.org/2000/svg" xmlns:xlink="http://www.w3.org/1999/xlink">
<g id="graph0" class="graph" transform="scale(1 1) rotate(0) translate(4 147)">
<title>CoolWifi.cpp</title>
<polygon fill="white" stroke="none" points="-4,4 -4,-147 691,-147 691,4 -4,4"/>
<!-- Node0 -->
<g id="node1" class="node"><title>Node0</title>
<polygon fill="#bfbfbf" stroke="black" points="201.5,-123.5 201.5,-142.5 274.5,-142.5 274.5,-123.5 201.5,-123.5"/>
<text text-anchor="middle" x="238" y="-130.5" font-family="Helvetica,sans-Serif" font-size="10.00">CoolWifi.cpp</text>
</g>
<!-- Node1 -->
<g id="node2" class="node"><title>Node1</title>
<polygon fill="white" stroke="#bfbfbf" points="75,-62 75,-81 113,-81 113,-62 75,-62"/>
<text text-anchor="middle" x="94" y="-69" font-family="Helvetica,sans-Serif" font-size="10.00">FS.h</text>
</g>
<!-- Node0&#45;&gt;Node1 -->
<g id="edge1" class="edge"><title>Node0&#45;&gt;Node1</title>
<path fill="none" stroke="midnightblue" d="M216.229,-123.389C193.793,-114.465 157.841,-100.024 127,-87 125.595,-86.4066 124.158,-85.7947 122.708,-85.1733"/>
<polygon fill="midnightblue" stroke="midnightblue" points="123.721,-81.7976 113.154,-81.0279 120.935,-88.2191 123.721,-81.7976"/>
</g>
<!-- Node2 -->
<g id="node3" class="node"><title>Node2</title>
<polygon fill="white" stroke="#bfbfbf" points="0,-0.5 0,-19.5 58,-19.5 58,-0.5 0,-0.5"/>
<text text-anchor="middle" x="29" y="-7.5" font-family="Helvetica,sans-Serif" font-size="10.00">Arduino.h</text>
</g>
<!-- Node0&#45;&gt;Node2 -->
<g id="edge2" class="edge"><title>Node0&#45;&gt;Node2</title>
<path fill="none" stroke="midnightblue" d="M224.022,-123.361C209.63,-114.414 186.601,-99.9561 167,-87 146.74,-73.608 142.992,-68.2135 122,-56 101.273,-43.9403 76.8298,-32.2035 58.2056,-23.7415"/>
<polygon fill="midnightblue" stroke="midnightblue" points="59.6036,-20.5327 49.0472,-19.6306 56.737,-26.9188 59.6036,-20.5327"/>
</g>
<!-- Node3 -->
<g id="node4" class="node"><title>Node3</title>
<polygon fill="white" stroke="#bfbfbf" points="427,-0.5 427,-19.5 513,-19.5 513,-0.5 427,-0.5"/>
<text text-anchor="middle" x="470" y="-7.5" font-family="Helvetica,sans-Serif" font-size="10.00">ESP8266WiFi.h</text>
</g>
<!-- Node0&#45;&gt;Node3 -->
<g id="edge3" class="edge"><title>Node0&#45;&gt;Node3</title>
<path fill="none" stroke="midnightblue" d="M245.957,-123.246C262.396,-105.333 299.916,-65.3882 316,-56 334.273,-45.3337 385.095,-31.479 423.397,-21.9766"/>
<polygon fill="midnightblue" stroke="midnightblue" points="424.455,-25.3209 433.333,-19.5388 422.787,-18.5225 424.455,-25.3209"/>
</g>
<!-- Node4 -->
<g id="node5" class="node"><title>Node4</title>
<polygon fill="white" stroke="#bfbfbf" points="75.5,-0.5 75.5,-19.5 182.5,-19.5 182.5,-0.5 75.5,-0.5"/>
<text text-anchor="middle" x="129" y="-7.5" font-family="Helvetica,sans-Serif" font-size="10.00">ESP8266WiFiMulti.h</text>
</g>
<!-- Node0&#45;&gt;Node4 -->
<g id="edge4" class="edge"><title>Node0&#45;&gt;Node4</title>
<path fill="none" stroke="midnightblue" d="M230.161,-123.298C212.014,-103.153 166.885,-53.056 143.526,-27.1247"/>
<polygon fill="midnightblue" stroke="midnightblue" points="146.062,-24.7105 136.768,-19.6232 140.861,-29.3957 146.062,-24.7105"/>
</g>
<!-- Node5 -->
<g id="node6" class="node"><title>Node5</title>
<g id="a_node6"><a xlink:href="../../d0/d63/_wi_fi_manager_read_file_button_8h.html" target="_top" xlink:title="internals/WiFiManagerRead\lFileButton.h">
<polygon fill="white" stroke="black" points="325.5,-56.5 325.5,-86.5 462.5,-86.5 462.5,-56.5 325.5,-56.5"/>
<text text-anchor="start" x="333.5" y="-74.5" font-family="Helvetica,sans-Serif" font-size="10.00">internals/WiFiManagerRead</text>
<text text-anchor="middle" x="394" y="-63.5" font-family="Helvetica,sans-Serif" font-size="10.00">FileButton.h</text>
</a>
</g>
</g>
<!-- Node0&#45;&gt;Node5 -->
<g id="edge5" class="edge"><title>Node0&#45;&gt;Node5</title>
<path fill="none" stroke="midnightblue" d="M260.351,-123.475C283.059,-114.814 318.896,-101.145 347.747,-90.1415"/>
<polygon fill="midnightblue" stroke="midnightblue" points="349.138,-93.3569 357.234,-86.523 346.643,-86.8165 349.138,-93.3569"/>
</g>
<!-- Node10 -->
<g id="node11" class="node"><title>Node10</title>
<g id="a_node11"><a xlink:href="../../dc/d38/_cool_wifi_8h.html" target="_top" xlink:title="CoolWifi Header file. ">
<polygon fill="white" stroke="black" points="207,-62 207,-81 269,-81 269,-62 207,-62"/>
<text text-anchor="middle" x="238" y="-69" font-family="Helvetica,sans-Serif" font-size="10.00">CoolWifi.h</text>
</a>
</g>
</g>
<!-- Node0&#45;&gt;Node10 -->
<g id="edge11" class="edge"><title>Node0&#45;&gt;Node10</title>
<path fill="none" stroke="midnightblue" d="M238,-123.475C238,-115.08 238,-101.981 238,-91.1631"/>
<polygon fill="midnightblue" stroke="midnightblue" points="241.5,-91.0091 238,-81.0091 234.5,-91.0091 241.5,-91.0091"/>
</g>
<!-- Node11 -->
<g id="node12" class="node"><title>Node11</title>
<polygon fill="white" stroke="#bfbfbf" points="480.5,-62 480.5,-81 559.5,-81 559.5,-62 480.5,-62"/>
<text text-anchor="middle" x="520" y="-69" font-family="Helvetica,sans-Serif" font-size="10.00">ArduinoJson.h</text>
</g>
<!-- Node0&#45;&gt;Node11 -->
<g id="edge17" class="edge"><title>Node0&#45;&gt;Node11</title>
<path fill="none" stroke="midnightblue" d="M274.733,-126.145C321.03,-118.489 402.913,-104.03 472,-87 475.837,-86.0543 479.822,-84.9881 483.782,-83.8739"/>
<polygon fill="midnightblue" stroke="midnightblue" points="484.856,-87.2064 493.477,-81.0466 482.897,-80.4864 484.856,-87.2064"/>
</g>
<!-- Node5&#45;&gt;Node3 -->
<g id="edge6" class="edge"><title>Node5&#45;&gt;Node3</title>
<path fill="none" stroke="midnightblue" d="M412.011,-56.3993C423.738,-47.2185 439.015,-35.2579 450.945,-25.9182"/>
<polygon fill="midnightblue" stroke="midnightblue" points="453.225,-28.5782 458.941,-19.6578 448.91,-23.0664 453.225,-28.5782"/>
</g>
<!-- Node6 -->
<g id="node7" class="node"><title>Node6</title>
<polygon fill="white" stroke="#bfbfbf" points="293.5,-0.5 293.5,-19.5 408.5,-19.5 408.5,-0.5 293.5,-0.5"/>
<text text-anchor="middle" x="351" y="-7.5" font-family="Helvetica,sans-Serif" font-size="10.00">ESP8266WebServer.h</text>
</g>
<!-- Node5&#45;&gt;Node6 -->
<g id="edge7" class="edge"><title>Node5&#45;&gt;Node6</title>
<path fill="none" stroke="midnightblue" d="M383.81,-56.3993C377.626,-47.8424 369.697,-36.8708 363.182,-27.857"/>
<polygon fill="midnightblue" stroke="midnightblue" points="365.951,-25.7127 357.257,-19.6578 360.278,-29.8129 365.951,-25.7127"/>
</g>
<!-- Node7 -->
<g id="node8" class="node"><title>Node7</title>
<polygon fill="white" stroke="#bfbfbf" points="200.5,-0.5 200.5,-19.5 275.5,-19.5 275.5,-0.5 200.5,-0.5"/>
<text text-anchor="middle" x="238" y="-7.5" font-family="Helvetica,sans-Serif" font-size="10.00">DNSServer.h</text>
</g>
<!-- Node5&#45;&gt;Node7 -->
<g id="edge8" class="edge"><title>Node5&#45;&gt;Node7</title>
<path fill="none" stroke="midnightblue" d="M357.03,-56.3993C330.622,-46.3271 295.443,-32.9093 270.188,-23.2769"/>
<polygon fill="midnightblue" stroke="midnightblue" points="271.29,-19.9513 260.699,-19.6578 268.796,-26.4917 271.29,-19.9513"/>
</g>
<!-- Node8 -->
<g id="node9" class="node"><title>Node8</title>
<polygon fill="white" stroke="#bfbfbf" points="635,-0.5 635,-19.5 687,-19.5 687,-0.5 635,-0.5"/>
<text text-anchor="middle" x="661" y="-7.5" font-family="Helvetica,sans-Serif" font-size="10.00">memory</text>
</g>
<!-- Node5&#45;&gt;Node8 -->
<g id="edge9" class="edge"><title>Node5&#45;&gt;Node8</title>
<path fill="none" stroke="midnightblue" d="M461.661,-56.4686C505.572,-47.2007 564.272,-34.511 624.57,-20.2784"/>
<polygon fill="midnightblue" stroke="midnightblue" points="625.73,-23.6003 634.653,-17.8874 624.115,-16.7892 625.73,-23.6003"/>
</g>
<!-- Node9 -->
<g id="node10" class="node"><title>Node9</title>
<polygon fill="white" stroke="#bfbfbf" points="531,-0.5 531,-19.5 617,-19.5 617,-0.5 531,-0.5"/>
<text text-anchor="middle" x="574" y="-7.5" font-family="Helvetica,sans-Serif" font-size="10.00">user_interface.h</text>
</g>
<!-- Node5&#45;&gt;Node9 -->
<g id="edge10" class="edge"><title>Node5&#45;&gt;Node9</title>
<path fill="none" stroke="midnightblue" d="M436.657,-56.3993C467.626,-46.1627 509.048,-32.4703 538.278,-22.8082"/>
<polygon fill="midnightblue" stroke="midnightblue" points="539.675,-26.0327 548.071,-19.5709 537.478,-19.3864 539.675,-26.0327"/>
</g>
<!-- Node10&#45;&gt;Node2 -->
<g id="edge12" class="edge"><title>Node10&#45;&gt;Node2</title>
<path fill="none" stroke="midnightblue" d="M208.055,-61.9751C171.22,-51.4886 108.598,-33.6606 68.0259,-22.1102"/>
<polygon fill="midnightblue" stroke="midnightblue" points="68.7914,-18.6892 58.2152,-19.3173 66.8747,-25.4217 68.7914,-18.6892"/>
</g>
<!-- Node10&#45;&gt;Node3 -->
<g id="edge13" class="edge"><title>Node10&#45;&gt;Node3</title>
<path fill="none" stroke="midnightblue" d="M263.599,-61.8819C269.913,-59.8585 276.678,-57.7764 283,-56 329.478,-42.9397 383.103,-30.2782 420.978,-21.7308"/>
<polygon fill="midnightblue" stroke="midnightblue" points="421.747,-25.1453 430.738,-19.5405 420.214,-18.3152 421.747,-25.1453"/>
</g>
<!-- Node10&#45;&gt;Node4 -->
<g id="edge14" class="edge"><title>Node10&#45;&gt;Node4</title>
<path fill="none" stroke="midnightblue" d="M222.383,-61.9751C204.414,-52.1664 174.679,-35.9346 153.594,-24.425"/>
<polygon fill="midnightblue" stroke="midnightblue" points="155.042,-21.2284 144.588,-19.5091 151.689,-27.3726 155.042,-21.2284"/>
</g>
<!-- Node10&#45;&gt;Node6 -->
<g id="edge16" class="edge"><title>Node10&#45;&gt;Node6</title>
<path fill="none" stroke="midnightblue" d="M254.19,-61.9751C272.902,-52.1222 303.923,-35.7883 325.799,-24.2697"/>
<polygon fill="midnightblue" stroke="midnightblue" points="327.622,-27.2651 334.84,-19.5091 324.361,-21.0713 327.622,-27.2651"/>
</g>
<!-- Node10&#45;&gt;Node7 -->
<g id="edge15" class="edge"><title>Node10&#45;&gt;Node7</title>
<path fill="none" stroke="midnightblue" d="M238,-61.9751C238,-53.5803 238,-40.4806 238,-29.6631"/>
<polygon fill="midnightblue" stroke="midnightblue" points="241.5,-29.5091 238,-19.5091 234.5,-29.5091 241.5,-29.5091"/>
</g>
</g>
</svg>
