<?xml version="1.0" encoding="UTF-8" standalone="no"?>
<!DOCTYPE svg PUBLIC "-//W3C//DTD SVG 1.1//EN"
 "http://www.w3.org/Graphics/SVG/1.1/DTD/svg11.dtd">
<!-- Generated by graphviz version 2.38.0 (20140413.2041)
 -->
<!-- Title: ExternalSensor&lt; Adafruit_ADS1115 &gt; Pages: 1 -->
<svg width="285pt" height="453pt"
 viewBox="0.00 0.00 284.50 453.00" xmlns="http://www.w3.org/2000/svg" xmlns:xlink="http://www.w3.org/1999/xlink">
<g id="graph0" class="graph" transform="scale(1 1) rotate(0) translate(4 449)">
<title>ExternalSensor&lt; Adafruit_ADS1115 &gt;</title>
<polygon fill="white" stroke="none" points="-4,4 -4,-449 280.5,-449 280.5,4 -4,4"/>
<!-- Node2 -->
<g id="node1" class="node"><title>Node2</title>
<polygon fill="#bfbfbf" stroke="black" points="39.5,-0.5 39.5,-90.5 165.5,-90.5 165.5,-0.5 39.5,-0.5"/>
<text text-anchor="start" x="47.5" y="-78.5" font-family="Helvetica,sans-Serif" font-size="10.00">ExternalSensor&lt; Adafruit</text>
<text text-anchor="middle" x="102.5" y="-67.5" font-family="Helvetica,sans-Serif" font-size="10.00">_ADS1115 &gt;</text>
<polyline fill="none" stroke="black" points="39.5,-60.5 165.5,-60.5 "/>
<text text-anchor="middle" x="102.5" y="-48.5" font-family="Helvetica,sans-Serif" font-size="10.00"> </text>
<polyline fill="none" stroke="black" points="39.5,-41.5 165.5,-41.5 "/>
<text text-anchor="start" x="47.5" y="-29.5" font-family="Helvetica,sans-Serif" font-size="10.00">+ ExternalSensor()</text>
<text text-anchor="start" x="47.5" y="-18.5" font-family="Helvetica,sans-Serif" font-size="10.00">+ begin()</text>
<text text-anchor="start" x="47.5" y="-7.5" font-family="Helvetica,sans-Serif" font-size="10.00">+ read()</text>
</g>
<!-- Node3 -->
<g id="node2" class="node"><title>Node3</title>
<g id="a_node2"><a xlink:href="$d1/d68/class_base_external_sensor.html" xlink:title="This class is a generic external Sensor it is a way to access real external sensor methods through ru...">
<polygon fill="white" stroke="black" points="-7.10543e-15,-138.5 -7.10543e-15,-228.5 121,-228.5 121,-138.5 -7.10543e-15,-138.5"/>
<text text-anchor="middle" x="60.5" y="-216.5" font-family="Helvetica,sans-Serif" font-size="10.00">BaseExternalSensor</text>
<polyline fill="none" stroke="black" points="-7.10543e-15,-209.5 121,-209.5 "/>
<text text-anchor="middle" x="60.5" y="-197.5" font-family="Helvetica,sans-Serif" font-size="10.00"> </text>
<polyline fill="none" stroke="black" points="-7.10543e-15,-190.5 121,-190.5 "/>
<text text-anchor="start" x="8" y="-178.5" font-family="Helvetica,sans-Serif" font-size="10.00">+ BaseExternalSensor()</text>
<text text-anchor="start" x="8" y="-167.5" font-family="Helvetica,sans-Serif" font-size="10.00">+ begin()</text>
<text text-anchor="start" x="8" y="-156.5" font-family="Helvetica,sans-Serif" font-size="10.00">+ read()</text>
<text text-anchor="start" x="8" y="-145.5" font-family="Helvetica,sans-Serif" font-size="10.00">+ read()</text>
</a>
</g>
</g>
<!-- Node3&#45;&gt;Node2 -->
<g id="edge1" class="edge"><title>Node3&#45;&gt;Node2</title>
<path fill="none" stroke="midnightblue" d="M77.1716,-128.516C81.0239,-116.042 85.0794,-102.91 88.7885,-90.8992"/>
<polygon fill="none" stroke="midnightblue" points="73.7428,-127.757 74.1362,-138.345 80.4312,-129.823 73.7428,-127.757"/>
</g>
<!-- Node4 -->
<g id="node3" class="node"><title>Node4</title>
<g id="a_node3"><a xlink:href="$d8/dab/class_adafruit___a_d_s1115.html" xlink:title="{Adafruit_ADS1115\n||+ Adafruit_ADS1115()\l}">
<polygon fill="white" stroke="black" points="139,-155 139,-212 252,-212 252,-155 139,-155"/>
<text text-anchor="middle" x="195.5" y="-200" font-family="Helvetica,sans-Serif" font-size="10.00">Adafruit_ADS1115</text>
<polyline fill="none" stroke="black" points="139,-193 252,-193 "/>
<text text-anchor="middle" x="195.5" y="-181" font-family="Helvetica,sans-Serif" font-size="10.00"> </text>
<polyline fill="none" stroke="black" points="139,-174 252,-174 "/>
<text text-anchor="start" x="147" y="-162" font-family="Helvetica,sans-Serif" font-size="10.00">+ Adafruit_ADS1115()</text>
</a>
</g>
</g>
<!-- Node4&#45;&gt;Node2 -->
<g id="edge2" class="edge"><title>Node4&#45;&gt;Node2</title>
<path fill="none" stroke="#404040" d="M176.68,-154.978C166.022,-139.392 152.313,-119.345 139.586,-100.733"/>
<polygon fill="none" stroke="#404040" points="139.416,-100.484 132.727,-97.7896 132.642,-90.579 139.331,-93.2738 139.416,-100.484"/>
<text text-anchor="middle" x="169.5" y="-112" font-family="Helvetica,sans-Serif" font-size="10.00"> &#45;sensor</text>
</g>
<!-- Node5 -->
<g id="node4" class="node"><title>Node5</title>
<g id="a_node4"><a xlink:href="$df/df6/class_adafruit___a_d_s1015.html" xlink:title="{Adafruit_ADS1015\n|# m_i2cAddress\l# m_conversionDelay\l# m_bitShift\l# m_gain\l|+ Adafruit_ADS1015()\l+ begin()\l+ readADC_SingleEnded()\l+ readADC_Differential_0_1()\l+ readADC_Differential_2_3()\l+ startComparator_SingleEnded()\l+ getLastConversionResults()\l+ setGain()\l+ getGain()\l}">
<polygon fill="white" stroke="black" points="114.5,-266.5 114.5,-444.5 276.5,-444.5 276.5,-266.5 114.5,-266.5"/>
<text text-anchor="middle" x="195.5" y="-432.5" font-family="Helvetica,sans-Serif" font-size="10.00">Adafruit_ADS1015</text>
<polyline fill="none" stroke="black" points="114.5,-425.5 276.5,-425.5 "/>
<text text-anchor="start" x="122.5" y="-413.5" font-family="Helvetica,sans-Serif" font-size="10.00"># m_i2cAddress</text>
<text text-anchor="start" x="122.5" y="-402.5" font-family="Helvetica,sans-Serif" font-size="10.00"># m_conversionDelay</text>
<text text-anchor="start" x="122.5" y="-391.5" font-family="Helvetica,sans-Serif" font-size="10.00"># m_bitShift</text>
<text text-anchor="start" x="122.5" y="-380.5" font-family="Helvetica,sans-Serif" font-size="10.00"># m_gain</text>
<polyline fill="none" stroke="black" points="114.5,-373.5 276.5,-373.5 "/>
<text text-anchor="start" x="122.5" y="-361.5" font-family="Helvetica,sans-Serif" font-size="10.00">+ Adafruit_ADS1015()</text>
<text text-anchor="start" x="122.5" y="-350.5" font-family="Helvetica,sans-Serif" font-size="10.00">+ begin()</text>
<text text-anchor="start" x="122.5" y="-339.5" font-family="Helvetica,sans-Serif" font-size="10.00">+ readADC_SingleEnded()</text>
<text text-anchor="start" x="122.5" y="-328.5" font-family="Helvetica,sans-Serif" font-size="10.00">+ readADC_Differential_0_1()</text>
<text text-anchor="start" x="122.5" y="-317.5" font-family="Helvetica,sans-Serif" font-size="10.00">+ readADC_Differential_2_3()</text>
<text text-anchor="start" x="122.5" y="-306.5" font-family="Helvetica,sans-Serif" font-size="10.00">+ startComparator_SingleEnded()</text>
<text text-anchor="start" x="122.5" y="-295.5" font-family="Helvetica,sans-Serif" font-size="10.00">+ getLastConversionResults()</text>
<text text-anchor="start" x="122.5" y="-284.5" font-family="Helvetica,sans-Serif" font-size="10.00">+ setGain()</text>
<text text-anchor="start" x="122.5" y="-273.5" font-family="Helvetica,sans-Serif" font-size="10.00">+ getGain()</text>
</a>
</g>
</g>
<!-- Node5&#45;&gt;Node4 -->
<g id="edge3" class="edge"><title>Node5&#45;&gt;Node4</title>
<path fill="none" stroke="midnightblue" d="M195.5,-255.99C195.5,-239.993 195.5,-224.651 195.5,-212.309"/>
<polygon fill="none" stroke="midnightblue" points="192,-256.015 195.5,-266.015 199,-256.015 192,-256.015"/>
</g>
</g>
</svg>
