<?xml version="1.0" encoding="UTF-8" standalone="no"?>
<!DOCTYPE svg PUBLIC "-//W3C//DTD SVG 1.1//EN"
 "http://www.w3.org/Graphics/SVG/1.1/DTD/svg11.dtd">
<!-- Generated by graphviz version 2.38.0 (20140413.2041)
 -->
<!-- Title: CoolBoardActor::temporalActionOff Pages: 1 -->
<svg width="461pt" height="66pt"
 viewBox="0.00 0.00 461.00 66.00" xmlns="http://www.w3.org/2000/svg" xmlns:xlink="http://www.w3.org/1999/xlink">
<g id="graph0" class="graph" transform="scale(1 1) rotate(0) translate(4 62)">
<title>CoolBoardActor::temporalActionOff</title>
<polygon fill="white" stroke="none" points="-4,4 -4,-62 457,-62 457,4 -4,4"/>
<!-- Node52 -->
<g id="node1" class="node"><title>Node52</title>
<polygon fill="#bfbfbf" stroke="black" points="0,-14 0,-44 129,-44 129,-14 0,-14"/>
<text text-anchor="start" x="8" y="-32" font-family="Helvetica,sans-Serif" font-size="10.00">CoolBoardActor::temporal</text>
<text text-anchor="middle" x="64.5" y="-21" font-family="Helvetica,sans-Serif" font-size="10.00">ActionOff</text>
</g>
<!-- Node53 -->
<g id="node2" class="node"><title>Node53</title>
<g id="a_node2"><a xlink:href="../../dc/d69/class_cool_board_actor.html#a3323ba7aaa4bef3ff084dcd830fe9b61" target="_top" xlink:title="CoolBoardActor::doAction">
<polygon fill="white" stroke="black" points="165,-19.5 165,-38.5 295,-38.5 295,-19.5 165,-19.5"/>
<text text-anchor="middle" x="230" y="-26.5" font-family="Helvetica,sans-Serif" font-size="10.00">CoolBoardActor::doAction</text>
</a>
</g>
</g>
<!-- Node52&#45;&gt;Node53 -->
<g id="edge1" class="edge"><title>Node52&#45;&gt;Node53</title>
<path fill="none" stroke="midnightblue" d="M139.193,-29C147.789,-29 156.504,-29 164.954,-29"/>
<polygon fill="midnightblue" stroke="midnightblue" points="139.182,-25.5001 129.182,-29 139.182,-32.5001 139.182,-25.5001"/>
</g>
<!-- Node54 -->
<g id="node3" class="node"><title>Node54</title>
<g id="a_node3"><a xlink:href="../../d7/df9/class_cool_board.html#ae6b5e1274d760462290192acea4adca8" target="_top" xlink:title="CoolBoard::offLineMode">
<polygon fill="white" stroke="black" points="331,-38.5 331,-57.5 453,-57.5 453,-38.5 331,-38.5"/>
<text text-anchor="middle" x="392" y="-45.5" font-family="Helvetica,sans-Serif" font-size="10.00">CoolBoard::offLineMode</text>
</a>
</g>
</g>
<!-- Node53&#45;&gt;Node54 -->
<g id="edge2" class="edge"><title>Node53&#45;&gt;Node54</title>
<path fill="none" stroke="midnightblue" d="M305.222,-37.8139C313.853,-38.8388 322.574,-39.8745 330.981,-40.8727"/>
<polygon fill="midnightblue" stroke="midnightblue" points="305.499,-34.3223 295.156,-36.6185 304.674,-41.2734 305.499,-34.3223"/>
</g>
<!-- Node55 -->
<g id="node4" class="node"><title>Node55</title>
<g id="a_node4"><a xlink:href="../../d7/df9/class_cool_board.html#aa0bbc4bc605e35618d18e68795c61363" target="_top" xlink:title="CoolBoard::onLineMode">
<polygon fill="white" stroke="black" points="331.5,-0.5 331.5,-19.5 452.5,-19.5 452.5,-0.5 331.5,-0.5"/>
<text text-anchor="middle" x="392" y="-7.5" font-family="Helvetica,sans-Serif" font-size="10.00">CoolBoard::onLineMode</text>
</a>
</g>
</g>
<!-- Node53&#45;&gt;Node55 -->
<g id="edge3" class="edge"><title>Node53&#45;&gt;Node55</title>
<path fill="none" stroke="midnightblue" d="M305.371,-20.1684C314.13,-19.1283 322.98,-18.0774 331.497,-17.066"/>
<polygon fill="midnightblue" stroke="midnightblue" points="304.674,-16.7266 295.156,-21.3815 305.499,-23.6777 304.674,-16.7266"/>
</g>
</g>
</svg>
