<?xml version="1.0" encoding="UTF-8" standalone="no"?>
<!DOCTYPE svg PUBLIC "-//W3C//DTD SVG 1.1//EN"
 "http://www.w3.org/Graphics/SVG/1.1/DTD/svg11.dtd">
<!-- Generated by graphviz version 2.38.0 (20140413.2041)
 -->
<!-- Title: CoolBoardActor::hourAction Pages: 1 -->
<svg width="470pt" height="66pt"
 viewBox="0.00 0.00 470.00 66.00" xmlns="http://www.w3.org/2000/svg" xmlns:xlink="http://www.w3.org/1999/xlink">
<g id="graph0" class="graph" transform="scale(1 1) rotate(0) translate(4 62)">
<title>CoolBoardActor::hourAction</title>
<polygon fill="white" stroke="none" points="-4,4 -4,-62 466,-62 466,4 -4,4"/>
<!-- Node76 -->
<g id="node1" class="node"><title>Node76</title>
<polygon fill="#bfbfbf" stroke="black" points="0,-19.5 0,-38.5 138,-38.5 138,-19.5 0,-19.5"/>
<text text-anchor="middle" x="69" y="-26.5" font-family="Helvetica,sans-Serif" font-size="10.00">CoolBoardActor::hourAction</text>
</g>
<!-- Node77 -->
<g id="node2" class="node"><title>Node77</title>
<g id="a_node2"><a xlink:href="../../dc/d69/class_cool_board_actor.html#a3323ba7aaa4bef3ff084dcd830fe9b61" target="_top" xlink:title="CoolBoardActor::doAction">
<polygon fill="white" stroke="black" points="174,-19.5 174,-38.5 304,-38.5 304,-19.5 174,-19.5"/>
<text text-anchor="middle" x="239" y="-26.5" font-family="Helvetica,sans-Serif" font-size="10.00">CoolBoardActor::doAction</text>
</a>
</g>
</g>
<!-- Node76&#45;&gt;Node77 -->
<g id="edge1" class="edge"><title>Node76&#45;&gt;Node77</title>
<path fill="none" stroke="midnightblue" d="M148.577,-29C157.025,-29 165.546,-29 173.797,-29"/>
<polygon fill="midnightblue" stroke="midnightblue" points="148.332,-25.5001 138.332,-29 148.332,-32.5001 148.332,-25.5001"/>
</g>
<!-- Node78 -->
<g id="node3" class="node"><title>Node78</title>
<g id="a_node3"><a xlink:href="../../d7/df9/class_cool_board.html#ae6b5e1274d760462290192acea4adca8" target="_top" xlink:title="CoolBoard::offLineMode">
<polygon fill="white" stroke="black" points="340,-38.5 340,-57.5 462,-57.5 462,-38.5 340,-38.5"/>
<text text-anchor="middle" x="401" y="-45.5" font-family="Helvetica,sans-Serif" font-size="10.00">CoolBoard::offLineMode</text>
</a>
</g>
</g>
<!-- Node77&#45;&gt;Node78 -->
<g id="edge2" class="edge"><title>Node77&#45;&gt;Node78</title>
<path fill="none" stroke="midnightblue" d="M314.222,-37.8139C322.853,-38.8388 331.574,-39.8745 339.981,-40.8727"/>
<polygon fill="midnightblue" stroke="midnightblue" points="314.499,-34.3223 304.156,-36.6185 313.674,-41.2734 314.499,-34.3223"/>
</g>
<!-- Node79 -->
<g id="node4" class="node"><title>Node79</title>
<g id="a_node4"><a xlink:href="../../d7/df9/class_cool_board.html#aa0bbc4bc605e35618d18e68795c61363" target="_top" xlink:title="CoolBoard::onLineMode">
<polygon fill="white" stroke="black" points="340.5,-0.5 340.5,-19.5 461.5,-19.5 461.5,-0.5 340.5,-0.5"/>
<text text-anchor="middle" x="401" y="-7.5" font-family="Helvetica,sans-Serif" font-size="10.00">CoolBoard::onLineMode</text>
</a>
</g>
</g>
<!-- Node77&#45;&gt;Node79 -->
<g id="edge3" class="edge"><title>Node77&#45;&gt;Node79</title>
<path fill="none" stroke="midnightblue" d="M314.371,-20.1684C323.13,-19.1283 331.98,-18.0774 340.497,-17.066"/>
<polygon fill="midnightblue" stroke="midnightblue" points="313.674,-16.7266 304.156,-21.3815 314.499,-23.6777 313.674,-16.7266"/>
</g>
</g>
</svg>
