<?xml version="1.0" encoding="UTF-8" standalone="no"?>
<!DOCTYPE svg PUBLIC "-//W3C//DTD SVG 1.1//EN"
 "http://www.w3.org/Graphics/SVG/1.1/DTD/svg11.dtd">
<!-- Generated by graphviz version 2.38.0 (20140413.2041)
 -->
<!-- Title: CoolBoardActor::write Pages: 1 -->
<svg width="639pt" height="583pt"
 viewBox="0.00 0.00 639.00 582.84" xmlns="http://www.w3.org/2000/svg" xmlns:xlink="http://www.w3.org/1999/xlink">
<g id="graph0" class="graph" transform="scale(1 1) rotate(0) translate(4 578.835)">
<title>CoolBoardActor::write</title>
<polygon fill="white" stroke="none" points="-4,4 -4,-578.835 635,-578.835 635,4 -4,4"/>
<!-- Node4 -->
<g id="node1" class="node"><title>Node4</title>
<polygon fill="#bfbfbf" stroke="black" points="0,-276.335 0,-295.335 113,-295.335 113,-276.335 0,-276.335"/>
<text text-anchor="middle" x="56.5" y="-283.335" font-family="Helvetica,sans-Serif" font-size="10.00">CoolBoardActor::write</text>
</g>
<!-- Node5 -->
<g id="node2" class="node"><title>Node5</title>
<g id="a_node2"><a xlink:href="../../dc/d69/class_cool_board_actor.html#adf3b4e15b9d73681082112adf8ef95cb" target="_top" xlink:title="CoolBoardActor::hourAction">
<polygon fill="white" stroke="black" points="159,-555.335 159,-574.335 297,-574.335 297,-555.335 159,-555.335"/>
<text text-anchor="middle" x="228" y="-562.335" font-family="Helvetica,sans-Serif" font-size="10.00">CoolBoardActor::hourAction</text>
</a>
</g>
</g>
<!-- Node4&#45;&gt;Node5 -->
<g id="edge1" class="edge"><title>Node4&#45;&gt;Node5</title>
<path fill="none" stroke="midnightblue" d="M58.3276,-305.455C61.4752,-353.952 76.5793,-480.281 149,-545.835 153.237,-549.67 158.117,-552.764 163.326,-555.256"/>
<polygon fill="midnightblue" stroke="midnightblue" points="61.8167,-305.158 57.7777,-295.363 54.8271,-305.539 61.8167,-305.158"/>
</g>
<!-- Node9 -->
<g id="node6" class="node"><title>Node9</title>
<g id="a_node6"><a xlink:href="../../dc/d69/class_cool_board_actor.html#a1eb1fbca19bc80aad20d2686d52317f8" target="_top" xlink:title="CoolBoardActor::hourMinute\lAction">
<polygon fill="white" stroke="black" points="158,-505.835 158,-535.835 298,-535.835 298,-505.835 158,-505.835"/>
<text text-anchor="start" x="166" y="-523.835" font-family="Helvetica,sans-Serif" font-size="10.00">CoolBoardActor::hourMinute</text>
<text text-anchor="middle" x="228" y="-512.835" font-family="Helvetica,sans-Serif" font-size="10.00">Action</text>
</a>
</g>
</g>
<!-- Node4&#45;&gt;Node9 -->
<g id="edge5" class="edge"><title>Node4&#45;&gt;Node9</title>
<path fill="none" stroke="midnightblue" d="M60.4059,-305.389C67.6033,-346.861 90.1334,-444.148 149,-496.835 152.801,-500.237 157.075,-503.156 161.614,-505.662"/>
<polygon fill="midnightblue" stroke="midnightblue" points="63.8526,-304.777 58.7968,-295.467 56.9429,-305.898 63.8526,-304.777"/>
</g>
<!-- Node10 -->
<g id="node7" class="node"><title>Node10</title>
<g id="a_node7"><a xlink:href="../../dc/d69/class_cool_board_actor.html#aae82b2e62f91be009d40f93c206f9bda" target="_top" xlink:title="CoolBoardActor::inverted\lAction">
<polygon fill="white" stroke="black" points="165,-456.835 165,-486.835 291,-486.835 291,-456.835 165,-456.835"/>
<text text-anchor="start" x="173" y="-474.835" font-family="Helvetica,sans-Serif" font-size="10.00">CoolBoardActor::inverted</text>
<text text-anchor="middle" x="228" y="-463.835" font-family="Helvetica,sans-Serif" font-size="10.00">Action</text>
</a>
</g>
</g>
<!-- Node4&#45;&gt;Node10 -->
<g id="edge7" class="edge"><title>Node4&#45;&gt;Node10</title>
<path fill="none" stroke="midnightblue" d="M63.2426,-305.012C74.2948,-338.668 101.709,-408.429 149,-446.835 153.747,-450.69 159.099,-453.955 164.721,-456.72"/>
<polygon fill="midnightblue" stroke="midnightblue" points="66.5695,-303.924 60.2247,-295.439 59.8934,-306.029 66.5695,-303.924"/>
</g>
<!-- Node11 -->
<g id="node8" class="node"><title>Node11</title>
<g id="a_node8"><a xlink:href="../../dc/d69/class_cool_board_actor.html#af000944ce0b9abb9c6ee4b8fe839fb36" target="_top" xlink:title="CoolBoardActor::minuteAction">
<polygon fill="white" stroke="black" points="153.5,-418.335 153.5,-437.335 302.5,-437.335 302.5,-418.335 153.5,-418.335"/>
<text text-anchor="middle" x="228" y="-425.335" font-family="Helvetica,sans-Serif" font-size="10.00">CoolBoardActor::minuteAction</text>
</a>
</g>
</g>
<!-- Node4&#45;&gt;Node11 -->
<g id="edge9" class="edge"><title>Node4&#45;&gt;Node11</title>
<path fill="none" stroke="midnightblue" d="M66.344,-304.923C80.0491,-332.315 109.061,-382.378 149,-408.835 154.81,-412.684 161.325,-415.754 168.05,-418.203"/>
<polygon fill="midnightblue" stroke="midnightblue" points="69.355,-303.11 61.85,-295.632 63.0533,-306.158 69.355,-303.11"/>
</g>
<!-- Node12 -->
<g id="node9" class="node"><title>Node12</title>
<g id="a_node9"><a xlink:href="../../dc/d69/class_cool_board_actor.html#a6d93a24502c56ced2ef7675c913a276b" target="_top" xlink:title="CoolBoardActor::mixedHour\lAction">
<polygon fill="white" stroke="black" points="158.5,-368.835 158.5,-398.835 297.5,-398.835 297.5,-368.835 158.5,-368.835"/>
<text text-anchor="start" x="166.5" y="-386.835" font-family="Helvetica,sans-Serif" font-size="10.00">CoolBoardActor::mixedHour</text>
<text text-anchor="middle" x="228" y="-375.835" font-family="Helvetica,sans-Serif" font-size="10.00">Action</text>
</a>
</g>
</g>
<!-- Node4&#45;&gt;Node12 -->
<g id="edge11" class="edge"><title>Node4&#45;&gt;Node12</title>
<path fill="none" stroke="midnightblue" d="M74.3295,-302.817C91.6736,-319.456 120.175,-344.487 149,-359.835 155.253,-363.165 162.039,-366.109 168.911,-368.692"/>
<polygon fill="midnightblue" stroke="midnightblue" points="76.3522,-299.899 66.7589,-295.402 71.4541,-304.9 76.3522,-299.899"/>
</g>
<!-- Node13 -->
<g id="node10" class="node"><title>Node13</title>
<g id="a_node10"><a xlink:href="../../dc/d69/class_cool_board_actor.html#ae6b2a17b0e73cfeb353ded2cc4e08109" target="_top" xlink:title="CoolBoardActor::mixedHour\lMinuteAction">
<polygon fill="white" stroke="black" points="158.5,-319.835 158.5,-349.835 297.5,-349.835 297.5,-319.835 158.5,-319.835"/>
<text text-anchor="start" x="166.5" y="-337.835" font-family="Helvetica,sans-Serif" font-size="10.00">CoolBoardActor::mixedHour</text>
<text text-anchor="middle" x="228" y="-326.835" font-family="Helvetica,sans-Serif" font-size="10.00">MinuteAction</text>
</a>
</g>
</g>
<!-- Node4&#45;&gt;Node13 -->
<g id="edge13" class="edge"><title>Node4&#45;&gt;Node13</title>
<path fill="none" stroke="midnightblue" d="M100.275,-298.201C122.97,-304.762 151.037,-312.876 174.984,-319.798"/>
<polygon fill="midnightblue" stroke="midnightblue" points="101.162,-294.814 90.5837,-295.399 99.2183,-301.539 101.162,-294.814"/>
</g>
<!-- Node14 -->
<g id="node11" class="node"><title>Node14</title>
<g id="a_node11"><a xlink:href="../../dc/d69/class_cool_board_actor.html#a2b8a79a27288d5246e3e3860ae76770d" target="_top" xlink:title="CoolBoardActor::mixedMinute\lAction">
<polygon fill="white" stroke="black" points="154.5,-270.835 154.5,-300.835 301.5,-300.835 301.5,-270.835 154.5,-270.835"/>
<text text-anchor="start" x="162.5" y="-288.835" font-family="Helvetica,sans-Serif" font-size="10.00">CoolBoardActor::mixedMinute</text>
<text text-anchor="middle" x="228" y="-277.835" font-family="Helvetica,sans-Serif" font-size="10.00">Action</text>
</a>
</g>
</g>
<!-- Node4&#45;&gt;Node14 -->
<g id="edge15" class="edge"><title>Node4&#45;&gt;Node14</title>
<path fill="none" stroke="midnightblue" d="M123.1,-285.835C133.356,-285.835 144.006,-285.835 154.406,-285.835"/>
<polygon fill="midnightblue" stroke="midnightblue" points="123.001,-282.335 113.001,-285.835 123.001,-289.335 123.001,-282.335"/>
</g>
<!-- Node15 -->
<g id="node12" class="node"><title>Node15</title>
<g id="a_node12"><a xlink:href="../../dc/d69/class_cool_board_actor.html#a00b29c4abf0388551aa6812372113cf1" target="_top" xlink:title="CoolBoardActor::mixedTemporal\lActionOff">
<polygon fill="white" stroke="black" points="149,-221.835 149,-251.835 307,-251.835 307,-221.835 149,-221.835"/>
<text text-anchor="start" x="157" y="-239.835" font-family="Helvetica,sans-Serif" font-size="10.00">CoolBoardActor::mixedTemporal</text>
<text text-anchor="middle" x="228" y="-228.835" font-family="Helvetica,sans-Serif" font-size="10.00">ActionOff</text>
</a>
</g>
</g>
<!-- Node4&#45;&gt;Node15 -->
<g id="edge17" class="edge"><title>Node4&#45;&gt;Node15</title>
<path fill="none" stroke="midnightblue" d="M100.275,-273.47C122.97,-266.909 151.037,-258.795 174.984,-251.872"/>
<polygon fill="midnightblue" stroke="midnightblue" points="99.2183,-270.132 90.5837,-276.271 101.162,-276.856 99.2183,-270.132"/>
</g>
<!-- Node16 -->
<g id="node13" class="node"><title>Node16</title>
<g id="a_node13"><a xlink:href="../../dc/d69/class_cool_board_actor.html#a216aa7a0cfd1f31d0025cc91c2ecd5dd" target="_top" xlink:title="CoolBoardActor::mixedTemporal\lActionOn">
<polygon fill="white" stroke="black" points="149,-172.835 149,-202.835 307,-202.835 307,-172.835 149,-172.835"/>
<text text-anchor="start" x="157" y="-190.835" font-family="Helvetica,sans-Serif" font-size="10.00">CoolBoardActor::mixedTemporal</text>
<text text-anchor="middle" x="228" y="-179.835" font-family="Helvetica,sans-Serif" font-size="10.00">ActionOn</text>
</a>
</g>
</g>
<!-- Node4&#45;&gt;Node16 -->
<g id="edge19" class="edge"><title>Node4&#45;&gt;Node16</title>
<path fill="none" stroke="midnightblue" d="M74.9761,-268.637C92.4317,-252.289 120.675,-228.009 149,-212.835 156.02,-209.075 163.701,-205.763 171.418,-202.884"/>
<polygon fill="midnightblue" stroke="midnightblue" points="72.1336,-266.512 67.3205,-275.95 76.969,-271.573 72.1336,-266.512"/>
</g>
<!-- Node17 -->
<g id="node14" class="node"><title>Node17</title>
<g id="a_node14"><a xlink:href="../../dc/d69/class_cool_board_actor.html#a81229abf5895f4d3b0355050b822b438" target="_top" xlink:title="CoolBoardActor::normalAction">
<polygon fill="white" stroke="black" points="153.5,-134.335 153.5,-153.335 302.5,-153.335 302.5,-134.335 153.5,-134.335"/>
<text text-anchor="middle" x="228" y="-141.335" font-family="Helvetica,sans-Serif" font-size="10.00">CoolBoardActor::normalAction</text>
</a>
</g>
</g>
<!-- Node4&#45;&gt;Node17 -->
<g id="edge21" class="edge"><title>Node4&#45;&gt;Node17</title>
<path fill="none" stroke="midnightblue" d="M66.4277,-266.965C80.2369,-239.875 109.377,-190.316 149,-163.835 155.509,-159.485 162.903,-156.081 170.482,-153.418"/>
<polygon fill="midnightblue" stroke="midnightblue" points="63.1806,-265.636 61.8959,-276.153 69.4585,-268.733 63.1806,-265.636"/>
</g>
<!-- Node18 -->
<g id="node15" class="node"><title>Node18</title>
<g id="a_node15"><a xlink:href="../../dc/d69/class_cool_board_actor.html#a02698bd647df49cabbe74513d4d88918" target="_top" xlink:title="CoolBoardActor::temporal\lActionOff">
<polygon fill="white" stroke="black" points="163.5,-84.8352 163.5,-114.835 292.5,-114.835 292.5,-84.8352 163.5,-84.8352"/>
<text text-anchor="start" x="171.5" y="-102.835" font-family="Helvetica,sans-Serif" font-size="10.00">CoolBoardActor::temporal</text>
<text text-anchor="middle" x="228" y="-91.8352" font-family="Helvetica,sans-Serif" font-size="10.00">ActionOff</text>
</a>
</g>
</g>
<!-- Node4&#45;&gt;Node18 -->
<g id="edge23" class="edge"><title>Node4&#45;&gt;Node18</title>
<path fill="none" stroke="midnightblue" d="M63.2426,-266.658C74.2948,-233.003 101.709,-163.241 149,-124.835 153.747,-120.98 159.099,-117.715 164.721,-114.95"/>
<polygon fill="midnightblue" stroke="midnightblue" points="59.8934,-265.642 60.2247,-276.231 66.5695,-267.746 59.8934,-265.642"/>
</g>
<!-- Node19 -->
<g id="node16" class="node"><title>Node19</title>
<g id="a_node16"><a xlink:href="../../dc/d69/class_cool_board_actor.html#ada603785c203fdb0b41cc967d70bdc4d" target="_top" xlink:title="CoolBoardActor::temporal\lActionOn">
<polygon fill="white" stroke="black" points="163.5,-35.8352 163.5,-65.8352 292.5,-65.8352 292.5,-35.8352 163.5,-35.8352"/>
<text text-anchor="start" x="171.5" y="-53.8352" font-family="Helvetica,sans-Serif" font-size="10.00">CoolBoardActor::temporal</text>
<text text-anchor="middle" x="228" y="-42.8352" font-family="Helvetica,sans-Serif" font-size="10.00">ActionOn</text>
</a>
</g>
</g>
<!-- Node4&#45;&gt;Node19 -->
<g id="edge25" class="edge"><title>Node4&#45;&gt;Node19</title>
<path fill="none" stroke="midnightblue" d="M60.5299,-266.161C67.9261,-224.836 90.754,-128.49 149,-75.8352 153.325,-71.9254 158.265,-68.6267 163.513,-65.8436"/>
<polygon fill="midnightblue" stroke="midnightblue" points="57.0359,-265.835 58.8364,-276.276 63.9398,-266.991 57.0359,-265.835"/>
</g>
<!-- Node20 -->
<g id="node17" class="node"><title>Node20</title>
<g id="a_node17"><a xlink:href="../../d7/df9/class_cool_board.html#a8612756d3f73198cdde857a66f0fe690" target="_top" xlink:title="CoolBoard::update">
<polygon fill="white" stroke="black" points="359,-118.335 359,-137.335 457,-137.335 457,-118.335 359,-118.335"/>
<text text-anchor="middle" x="408" y="-125.335" font-family="Helvetica,sans-Serif" font-size="10.00">CoolBoard::update</text>
</a>
</g>
</g>
<!-- Node4&#45;&gt;Node20 -->
<g id="edge27" class="edge"><title>Node4&#45;&gt;Node20</title>
<path fill="none" stroke="midnightblue" d="M57.4086,-266.104C58.3783,-215.788 68.752,-82.6664 149,-25.8352 206.307,14.7491 242.257,1.35847 307,-25.8352 352.728,-45.0422 388.041,-96.4942 401.303,-118.085"/>
<polygon fill="midnightblue" stroke="midnightblue" points="53.9074,-266.251 57.3246,-276.279 60.9071,-266.309 53.9074,-266.251"/>
</g>
<!-- Node6 -->
<g id="node3" class="node"><title>Node6</title>
<g id="a_node3"><a xlink:href="../../dc/d69/class_cool_board_actor.html#a3323ba7aaa4bef3ff084dcd830fe9b61" target="_top" xlink:title="CoolBoardActor::doAction">
<polygon fill="white" stroke="black" points="343,-276.335 343,-295.335 473,-295.335 473,-276.335 343,-276.335"/>
<text text-anchor="middle" x="408" y="-283.335" font-family="Helvetica,sans-Serif" font-size="10.00">CoolBoardActor::doAction</text>
</a>
</g>
</g>
<!-- Node5&#45;&gt;Node6 -->
<g id="edge2" class="edge"><title>Node5&#45;&gt;Node6</title>
<path fill="none" stroke="midnightblue" d="M301.339,-550.181C303.32,-548.851 305.214,-547.406 307,-545.835 387.082,-475.416 403.399,-333.415 406.384,-295.385"/>
<polygon fill="midnightblue" stroke="midnightblue" points="299.195,-547.37 292.175,-555.305 302.611,-553.48 299.195,-547.37"/>
</g>
<!-- Node7 -->
<g id="node4" class="node"><title>Node7</title>
<g id="a_node4"><a xlink:href="../../d7/df9/class_cool_board.html#aa0bbc4bc605e35618d18e68795c61363" target="_top" xlink:title="CoolBoard::onLineMode">
<polygon fill="white" stroke="black" points="509.5,-178.335 509.5,-197.335 630.5,-197.335 630.5,-178.335 509.5,-178.335"/>
<text text-anchor="middle" x="570" y="-185.335" font-family="Helvetica,sans-Serif" font-size="10.00">CoolBoard::onLineMode</text>
</a>
</g>
</g>
<!-- Node6&#45;&gt;Node7 -->
<g id="edge3" class="edge"><title>Node6&#45;&gt;Node7</title>
<path fill="none" stroke="midnightblue" d="M433.265,-270.973C466.419,-250.666 524.961,-214.809 553.067,-197.594"/>
<polygon fill="midnightblue" stroke="midnightblue" points="431.332,-268.052 424.633,-276.26 434.988,-274.022 431.332,-268.052"/>
</g>
<!-- Node8 -->
<g id="node5" class="node"><title>Node8</title>
<g id="a_node5"><a xlink:href="../../d7/df9/class_cool_board.html#ae6b5e1274d760462290192acea4adca8" target="_top" xlink:title="CoolBoard::offLineMode">
<polygon fill="white" stroke="black" points="509,-276.335 509,-295.335 631,-295.335 631,-276.335 509,-276.335"/>
<text text-anchor="middle" x="570" y="-283.335" font-family="Helvetica,sans-Serif" font-size="10.00">CoolBoard::offLineMode</text>
</a>
</g>
</g>
<!-- Node6&#45;&gt;Node8 -->
<g id="edge4" class="edge"><title>Node6&#45;&gt;Node8</title>
<path fill="none" stroke="midnightblue" d="M483.222,-285.835C491.853,-285.835 500.574,-285.835 508.981,-285.835"/>
<polygon fill="midnightblue" stroke="midnightblue" points="483.156,-282.335 473.156,-285.835 483.156,-289.335 483.156,-282.335"/>
</g>
<!-- Node9&#45;&gt;Node6 -->
<g id="edge6" class="edge"><title>Node9&#45;&gt;Node6</title>
<path fill="none" stroke="midnightblue" d="M302.75,-500.202C304.218,-499.136 305.637,-498.014 307,-496.835 373.211,-439.537 398.882,-328.716 405.288,-295.483"/>
<polygon fill="midnightblue" stroke="midnightblue" points="300.518,-497.468 293.88,-505.726 304.219,-503.41 300.518,-497.468"/>
</g>
<!-- Node10&#45;&gt;Node6 -->
<g id="edge8" class="edge"><title>Node10&#45;&gt;Node6</title>
<path fill="none" stroke="midnightblue" d="M299.698,-451.871C302.242,-450.315 304.688,-448.639 307,-446.835 361.478,-404.329 393.869,-323.221 403.751,-295.445"/>
<polygon fill="midnightblue" stroke="midnightblue" points="297.866,-448.884 290.73,-456.716 301.192,-455.042 297.866,-448.884"/>
</g>
<!-- Node11&#45;&gt;Node6 -->
<g id="edge10" class="edge"><title>Node11&#45;&gt;Node6</title>
<path fill="none" stroke="midnightblue" d="M296.384,-414.506C300.081,-412.834 303.649,-410.953 307,-408.835 354.228,-378.991 389.435,-319.136 401.989,-295.631"/>
<polygon fill="midnightblue" stroke="midnightblue" points="294.98,-411.297 286.981,-418.244 297.566,-417.802 294.98,-411.297"/>
</g>
<!-- Node12&#45;&gt;Node6 -->
<g id="edge12" class="edge"><title>Node12&#45;&gt;Node6</title>
<path fill="none" stroke="midnightblue" d="M295.472,-365.102C299.429,-363.459 303.301,-361.704 307,-359.835 342.856,-341.721 379.398,-310.865 396.701,-295.345"/>
<polygon fill="midnightblue" stroke="midnightblue" points="294.179,-361.849 286.125,-368.732 296.714,-368.374 294.179,-361.849"/>
</g>
<!-- Node13&#45;&gt;Node6 -->
<g id="edge14" class="edge"><title>Node13&#45;&gt;Node6</title>
<path fill="none" stroke="midnightblue" d="M293.527,-317.072C320.217,-309.725 350.089,-301.502 372.483,-295.337"/>
<polygon fill="midnightblue" stroke="midnightblue" points="292.571,-313.705 283.858,-319.734 294.429,-320.454 292.571,-313.705"/>
</g>
<!-- Node14&#45;&gt;Node6 -->
<g id="edge16" class="edge"><title>Node14&#45;&gt;Node6</title>
<path fill="none" stroke="midnightblue" d="M311.973,-285.835C322.347,-285.835 332.831,-285.835 342.857,-285.835"/>
<polygon fill="midnightblue" stroke="midnightblue" points="311.656,-282.335 301.656,-285.835 311.656,-289.335 311.656,-282.335"/>
</g>
<!-- Node15&#45;&gt;Node6 -->
<g id="edge18" class="edge"><title>Node15&#45;&gt;Node6</title>
<path fill="none" stroke="midnightblue" d="M293.527,-254.598C320.217,-261.945 350.089,-270.169 372.483,-276.333"/>
<polygon fill="midnightblue" stroke="midnightblue" points="294.429,-251.216 283.858,-251.937 292.571,-257.965 294.429,-251.216"/>
</g>
<!-- Node16&#45;&gt;Node6 -->
<g id="edge20" class="edge"><title>Node16&#45;&gt;Node6</title>
<path fill="none" stroke="midnightblue" d="M292.965,-206.46C297.79,-208.432 302.52,-210.557 307,-212.835 342.447,-230.858 378.885,-260.955 396.37,-276.263"/>
<polygon fill="midnightblue" stroke="midnightblue" points="294.199,-203.185 283.609,-202.859 291.684,-209.718 294.199,-203.185"/>
</g>
<!-- Node17&#45;&gt;Node6 -->
<g id="edge22" class="edge"><title>Node17&#45;&gt;Node6</title>
<path fill="none" stroke="midnightblue" d="M294.023,-157.031C298.562,-158.993 302.941,-161.247 307,-163.835 353.877,-193.723 389.29,-252.924 401.944,-276.156"/>
<polygon fill="midnightblue" stroke="midnightblue" points="295.124,-153.705 284.533,-153.398 292.621,-160.242 295.124,-153.705"/>
</g>
<!-- Node18&#45;&gt;Node6 -->
<g id="edge24" class="edge"><title>Node18&#45;&gt;Node6</title>
<path fill="none" stroke="midnightblue" d="M299.698,-119.799C302.242,-121.355 304.688,-123.031 307,-124.835 361.478,-167.342 393.869,-248.45 403.751,-276.226"/>
<polygon fill="midnightblue" stroke="midnightblue" points="301.192,-116.628 290.73,-114.955 297.866,-122.787 301.192,-116.628"/>
</g>
<!-- Node19&#45;&gt;Node6 -->
<g id="edge26" class="edge"><title>Node19&#45;&gt;Node6</title>
<path fill="none" stroke="midnightblue" d="M301.376,-71.4441C303.335,-72.8148 305.217,-74.2765 307,-75.8352 311.228,-79.5307 383.647,-235.438 402.528,-276.178"/>
<polygon fill="midnightblue" stroke="midnightblue" points="302.72,-68.1675 292.35,-65.9981 299.104,-74.161 302.72,-68.1675"/>
</g>
<!-- Node20&#45;&gt;Node7 -->
<g id="edge28" class="edge"><title>Node20&#45;&gt;Node7</title>
<path fill="none" stroke="midnightblue" d="M444.016,-140.966C474.047,-152.228 516.607,-168.188 543.502,-178.273"/>
<polygon fill="midnightblue" stroke="midnightblue" points="444.945,-137.577 434.352,-137.342 442.487,-144.131 444.945,-137.577"/>
</g>
</g>
</svg>
