<?xml version="1.0" encoding="UTF-8" standalone="no"?>
<!DOCTYPE svg PUBLIC "-//W3C//DTD SVG 1.1//EN"
 "http://www.w3.org/Graphics/SVG/1.1/DTD/svg11.dtd">
<!-- Generated by graphviz version 2.38.0 (20140413.2041)
 -->
<!-- Title: CoolMQTT::state Pages: 1 -->
<svg width="556pt" height="142pt"
 viewBox="0.00 0.00 556.00 142.00" xmlns="http://www.w3.org/2000/svg" xmlns:xlink="http://www.w3.org/1999/xlink">
<g id="graph0" class="graph" transform="scale(1 1) rotate(0) translate(4 138)">
<title>CoolMQTT::state</title>
<polygon fill="white" stroke="none" points="-4,4 -4,-138 552,-138 552,4 -4,4"/>
<!-- Node46 -->
<g id="node1" class="node"><title>Node46</title>
<polygon fill="#bfbfbf" stroke="black" points="0,-57.5 0,-76.5 92,-76.5 92,-57.5 0,-57.5"/>
<text text-anchor="middle" x="46" y="-64.5" font-family="Helvetica,sans-Serif" font-size="10.00">CoolMQTT::state</text>
</g>
<!-- Node47 -->
<g id="node2" class="node"><title>Node47</title>
<g id="a_node2"><a xlink:href="../../d0/dd0/class_cool_m_q_t_t.html#a50075d0ab23a327ab897fd6adad20eda" target="_top" xlink:title="CoolMQTT::connect">
<polygon fill="white" stroke="black" points="137,-114.5 137,-133.5 242,-133.5 242,-114.5 137,-114.5"/>
<text text-anchor="middle" x="189.5" y="-121.5" font-family="Helvetica,sans-Serif" font-size="10.00">CoolMQTT::connect</text>
</a>
</g>
</g>
<!-- Node46&#45;&gt;Node47 -->
<g id="edge1" class="edge"><title>Node46&#45;&gt;Node47</title>
<path fill="none" stroke="midnightblue" d="M80.027,-80.5358C94.7052,-86.5308 112.203,-93.6489 128,-100 139.952,-104.805 153.257,-110.09 164.339,-114.474"/>
<polygon fill="midnightblue" stroke="midnightblue" points="80.9519,-77.1328 70.3711,-76.5881 78.3029,-83.6122 80.9519,-77.1328"/>
</g>
<!-- Node48 -->
<g id="node3" class="node"><title>Node48</title>
<g id="a_node3"><a xlink:href="../../d7/df9/class_cool_board.html#a519de78b807f8ec6463ff484eb925918" target="_top" xlink:title="CoolBoard::connect">
<polygon fill="white" stroke="black" points="287,-76.5 287,-95.5 390,-95.5 390,-76.5 287,-76.5"/>
<text text-anchor="middle" x="338.5" y="-83.5" font-family="Helvetica,sans-Serif" font-size="10.00">CoolBoard::connect</text>
</a>
</g>
</g>
<!-- Node46&#45;&gt;Node48 -->
<g id="edge5" class="edge"><title>Node46&#45;&gt;Node48</title>
<path fill="none" stroke="midnightblue" d="M102.349,-70.6201C155.587,-74.1021 235.381,-79.3209 286.947,-82.6936"/>
<polygon fill="midnightblue" stroke="midnightblue" points="102.279,-67.1081 92.0719,-69.9479 101.822,-74.0932 102.279,-67.1081"/>
</g>
<!-- Node50 -->
<g id="node5" class="node"><title>Node50</title>
<g id="a_node5"><a xlink:href="../../d7/df9/class_cool_board.html#ae6b5e1274d760462290192acea4adca8" target="_top" xlink:title="CoolBoard::offLineMode">
<polygon fill="white" stroke="black" points="426,-38.5 426,-57.5 548,-57.5 548,-38.5 426,-38.5"/>
<text text-anchor="middle" x="487" y="-45.5" font-family="Helvetica,sans-Serif" font-size="10.00">CoolBoard::offLineMode</text>
</a>
</g>
</g>
<!-- Node46&#45;&gt;Node50 -->
<g id="edge7" class="edge"><title>Node46&#45;&gt;Node50</title>
<path fill="none" stroke="midnightblue" d="M102.545,-64.596C185.366,-61.0115 340.599,-54.293 425.956,-50.5987"/>
<polygon fill="midnightblue" stroke="midnightblue" points="102.167,-61.109 92.3272,-65.0382 102.469,-68.1025 102.167,-61.109"/>
</g>
<!-- Node51 -->
<g id="node6" class="node"><title>Node51</title>
<g id="a_node6"><a xlink:href="../../d7/df9/class_cool_board.html#ad7442cf4b62c7b0d5bd62a0f75ffc065" target="_top" xlink:title="CoolBoard::isConnected">
<polygon fill="white" stroke="black" points="128,-0.5 128,-19.5 251,-19.5 251,-0.5 128,-0.5"/>
<text text-anchor="middle" x="189.5" y="-7.5" font-family="Helvetica,sans-Serif" font-size="10.00">CoolBoard::isConnected</text>
</a>
</g>
</g>
<!-- Node46&#45;&gt;Node51 -->
<g id="edge6" class="edge"><title>Node46&#45;&gt;Node51</title>
<path fill="none" stroke="midnightblue" d="M80.027,-53.4642C94.7052,-47.4692 112.203,-40.3511 128,-34 139.952,-29.1948 153.257,-23.91 164.339,-19.5256"/>
<polygon fill="midnightblue" stroke="midnightblue" points="78.3029,-50.3878 70.3711,-57.4119 80.9519,-56.8672 78.3029,-50.3878"/>
</g>
<!-- Node47&#45;&gt;Node48 -->
<g id="edge2" class="edge"><title>Node47&#45;&gt;Node48</title>
<path fill="none" stroke="midnightblue" d="M237.355,-111.888C257.828,-106.596 281.49,-100.479 300.672,-95.5201"/>
<polygon fill="midnightblue" stroke="midnightblue" points="236.4,-108.52 227.594,-114.411 238.152,-115.297 236.4,-108.52"/>
</g>
<!-- Node49 -->
<g id="node4" class="node"><title>Node49</title>
<g id="a_node4"><a xlink:href="../../d7/df9/class_cool_board.html#acba7c5aef7268b2c0044bdb54d3b9d76" target="_top" xlink:title="CoolBoard::begin">
<polygon fill="white" stroke="black" points="441,-76.5 441,-95.5 533,-95.5 533,-76.5 441,-76.5"/>
<text text-anchor="middle" x="487" y="-83.5" font-family="Helvetica,sans-Serif" font-size="10.00">CoolBoard::begin</text>
</a>
</g>
</g>
<!-- Node48&#45;&gt;Node49 -->
<g id="edge3" class="edge"><title>Node48&#45;&gt;Node49</title>
<path fill="none" stroke="midnightblue" d="M400.472,-86C413.924,-86 427.944,-86 440.648,-86"/>
<polygon fill="midnightblue" stroke="midnightblue" points="400.327,-82.5001 390.327,-86 400.327,-89.5001 400.327,-82.5001"/>
</g>
<!-- Node48&#45;&gt;Node50 -->
<g id="edge4" class="edge"><title>Node48&#45;&gt;Node50</title>
<path fill="none" stroke="midnightblue" d="M386.195,-73.8879C406.599,-68.5956 430.181,-62.4787 449.298,-57.5201"/>
<polygon fill="midnightblue" stroke="midnightblue" points="385.269,-70.5123 376.468,-76.411 387.027,-77.288 385.269,-70.5123"/>
</g>
</g>
</svg>
