<?xml version="1.0" encoding="UTF-8" standalone="no"?>
<!DOCTYPE svg PUBLIC "-//W3C//DTD SVG 1.1//EN"
 "http://www.w3.org/Graphics/SVG/1.1/DTD/svg11.dtd">
<!-- Generated by graphviz version 2.38.0 (20140413.2041)
 -->
<!-- Title: CoolMQTT::mqttLoop Pages: 1 -->
<svg width="430pt" height="79pt"
 viewBox="0.00 0.00 430.00 78.99" xmlns="http://www.w3.org/2000/svg" xmlns:xlink="http://www.w3.org/1999/xlink">
<g id="graph0" class="graph" transform="scale(1 1) rotate(0) translate(4 74.9937)">
<title>CoolMQTT::mqttLoop</title>
<polygon fill="white" stroke="none" points="-4,4 -4,-74.9937 426,-74.9937 426,4 -4,4"/>
<!-- Node57 -->
<g id="node1" class="node"><title>Node57</title>
<polygon fill="#bfbfbf" stroke="black" points="0,-38.5 0,-57.5 111,-57.5 111,-38.5 0,-38.5"/>
<text text-anchor="middle" x="55.5" y="-45.5" font-family="Helvetica,sans-Serif" font-size="10.00">CoolMQTT::mqttLoop</text>
</g>
<!-- Node58 -->
<g id="node2" class="node"><title>Node58</title>
<g id="a_node2"><a xlink:href="../../d7/df9/class_cool_board.html#aa0bbc4bc605e35618d18e68795c61363" target="_top" xlink:title="CoolBoard::onLineMode">
<polygon fill="white" stroke="black" points="301,-38.5 301,-57.5 422,-57.5 422,-38.5 301,-38.5"/>
<text text-anchor="middle" x="361.5" y="-45.5" font-family="Helvetica,sans-Serif" font-size="10.00">CoolBoard::onLineMode</text>
</a>
</g>
</g>
<!-- Node57&#45;&gt;Node58 -->
<g id="edge1" class="edge"><title>Node57&#45;&gt;Node58</title>
<path fill="none" stroke="midnightblue" d="M103.122,-59.7112C117.133,-62.7085 132.608,-65.5056 147,-67 199.164,-72.4167 212.808,-72.1415 265,-67 283.842,-65.1438 304.477,-61.2751 321.729,-57.5101"/>
<polygon fill="midnightblue" stroke="midnightblue" points="103.735,-56.2622 93.2137,-57.5091 102.216,-63.0955 103.735,-56.2622"/>
</g>
<!-- Node59 -->
<g id="node3" class="node"><title>Node59</title>
<g id="a_node3"><a xlink:href="../../d7/df9/class_cool_board.html#a705398b11560603fcdd1b9e8e95d0027" target="_top" xlink:title="CoolBoard::sendConfig">
<polygon fill="white" stroke="black" points="147,-38.5 147,-57.5 265,-57.5 265,-38.5 147,-38.5"/>
<text text-anchor="middle" x="206" y="-45.5" font-family="Helvetica,sans-Serif" font-size="10.00">CoolBoard::sendConfig</text>
</a>
</g>
</g>
<!-- Node57&#45;&gt;Node59 -->
<g id="edge2" class="edge"><title>Node57&#45;&gt;Node59</title>
<path fill="none" stroke="midnightblue" d="M121.544,-48C129.971,-48 138.559,-48 146.865,-48"/>
<polygon fill="midnightblue" stroke="midnightblue" points="121.374,-44.5001 111.374,-48 121.374,-51.5001 121.374,-44.5001"/>
</g>
<!-- Node60 -->
<g id="node4" class="node"><title>Node60</title>
<g id="a_node4"><a xlink:href="../../d7/df9/class_cool_board.html#a8612756d3f73198cdde857a66f0fe690" target="_top" xlink:title="CoolBoard::update">
<polygon fill="white" stroke="black" points="157,-0.5 157,-19.5 255,-19.5 255,-0.5 157,-0.5"/>
<text text-anchor="middle" x="206" y="-7.5" font-family="Helvetica,sans-Serif" font-size="10.00">CoolBoard::update</text>
</a>
</g>
</g>
<!-- Node57&#45;&gt;Node60 -->
<g id="edge4" class="edge"><title>Node57&#45;&gt;Node60</title>
<path fill="none" stroke="midnightblue" d="M103.833,-35.8879C124.515,-30.5956 148.419,-24.4787 167.797,-19.5201"/>
<polygon fill="midnightblue" stroke="midnightblue" points="102.793,-32.5411 93.9728,-38.411 104.528,-39.3226 102.793,-32.5411"/>
</g>
<!-- Node59&#45;&gt;Node58 -->
<g id="edge3" class="edge"><title>Node59&#45;&gt;Node58</title>
<path fill="none" stroke="midnightblue" d="M275.038,-48C283.642,-48 292.394,-48 300.854,-48"/>
<polygon fill="midnightblue" stroke="midnightblue" points="275.032,-44.5001 265.032,-48 275.032,-51.5001 275.032,-44.5001"/>
</g>
<!-- Node60&#45;&gt;Node58 -->
<g id="edge5" class="edge"><title>Node60&#45;&gt;Node58</title>
<path fill="none" stroke="midnightblue" d="M255.635,-22.04C277.08,-27.3488 301.923,-33.4988 322.044,-38.4799"/>
<polygon fill="midnightblue" stroke="midnightblue" points="256.283,-18.5947 245.735,-19.589 254.6,-25.3896 256.283,-18.5947"/>
</g>
</g>
</svg>
