<?xml version="1.0" encoding="UTF-8" standalone="no"?>
<!DOCTYPE svg PUBLIC "-//W3C//DTD SVG 1.1//EN"
 "http://www.w3.org/Graphics/SVG/1.1/DTD/svg11.dtd">
<!-- Generated by graphviz version 2.38.0 (20140413.2041)
 -->
<!-- Title: ExternalSensor&lt; NDIR_I2C &gt; Pages: 1 -->
<svg width="234pt" height="314pt"
 viewBox="0.00 0.00 234.00 314.00" xmlns="http://www.w3.org/2000/svg" xmlns:xlink="http://www.w3.org/1999/xlink">
<g id="graph0" class="graph" transform="scale(1 1) rotate(0) translate(4 310)">
<title>ExternalSensor&lt; NDIR_I2C &gt;</title>
<polygon fill="white" stroke="none" points="-4,4 -4,-310 230,-310 230,4 -4,4"/>
<!-- Node2 -->
<g id="node1" class="node"><title>Node2</title>
<polygon fill="#bfbfbf" stroke="black" points="62.5,-0.5 62.5,-90.5 180.5,-90.5 180.5,-0.5 62.5,-0.5"/>
<text text-anchor="start" x="70.5" y="-78.5" font-family="Helvetica,sans-Serif" font-size="10.00">ExternalSensor&lt; NDIR</text>
<text text-anchor="middle" x="121.5" y="-67.5" font-family="Helvetica,sans-Serif" font-size="10.00">_I2C &gt;</text>
<polyline fill="none" stroke="black" points="62.5,-60.5 180.5,-60.5 "/>
<text text-anchor="middle" x="121.5" y="-48.5" font-family="Helvetica,sans-Serif" font-size="10.00"> </text>
<polyline fill="none" stroke="black" points="62.5,-41.5 180.5,-41.5 "/>
<text text-anchor="start" x="70.5" y="-29.5" font-family="Helvetica,sans-Serif" font-size="10.00">+ ExternalSensor()</text>
<text text-anchor="start" x="70.5" y="-18.5" font-family="Helvetica,sans-Serif" font-size="10.00">+ begin()</text>
<text text-anchor="start" x="70.5" y="-7.5" font-family="Helvetica,sans-Serif" font-size="10.00">+ read()</text>
</g>
<!-- Node3 -->
<g id="node2" class="node"><title>Node3</title>
<g id="a_node2"><a xlink:href="../../d1/d68/class_base_external_sensor.html" target="_top" xlink:title="This class is a generic external Sensor it is a way to access real external sensor methods through ru...">
<polygon fill="white" stroke="black" points="0,-177 0,-267 121,-267 121,-177 0,-177"/>
<text text-anchor="middle" x="60.5" y="-255" font-family="Helvetica,sans-Serif" font-size="10.00">BaseExternalSensor</text>
<polyline fill="none" stroke="black" points="0,-248 121,-248 "/>
<text text-anchor="middle" x="60.5" y="-236" font-family="Helvetica,sans-Serif" font-size="10.00"> </text>
<polyline fill="none" stroke="black" points="0,-229 121,-229 "/>
<text text-anchor="start" x="8" y="-217" font-family="Helvetica,sans-Serif" font-size="10.00">+ BaseExternalSensor()</text>
<text text-anchor="start" x="8" y="-206" font-family="Helvetica,sans-Serif" font-size="10.00">+ begin()</text>
<text text-anchor="start" x="8" y="-195" font-family="Helvetica,sans-Serif" font-size="10.00">+ read()</text>
<text text-anchor="start" x="8" y="-184" font-family="Helvetica,sans-Serif" font-size="10.00">+ read()</text>
</a>
</g>
</g>
<!-- Node3&#45;&gt;Node2 -->
<g id="edge1" class="edge"><title>Node3&#45;&gt;Node2</title>
<path fill="none" stroke="midnightblue" d="M79.238,-167.397C87.8542,-142.749 97.9493,-113.87 106.112,-90.5196"/>
<polygon fill="none" stroke="midnightblue" points="75.8889,-166.371 75.8929,-176.966 82.4968,-168.681 75.8889,-166.371"/>
</g>
<!-- Node4 -->
<g id="node3" class="node"><title>Node4</title>
<g id="a_node3"><a xlink:href="../../d6/ddb/class_n_d_i_r___i2_c.html" target="_top" xlink:title="{NDIR_I2C\n|+ i2c_addr\l+ ppm\l&#45; cmd_measure\l|+ NDIR_I2C()\l+ begin()\l+ measure()\l&#45; send()\l&#45; receive()\l&#45; read_register()\l&#45; write_register()\l&#45; write_register()\l&#45; parse()\l}">
<polygon fill="white" stroke="black" points="139,-138.5 139,-305.5 226,-305.5 226,-138.5 139,-138.5"/>
<text text-anchor="middle" x="182.5" y="-293.5" font-family="Helvetica,sans-Serif" font-size="10.00">NDIR_I2C</text>
<polyline fill="none" stroke="black" points="139,-286.5 226,-286.5 "/>
<text text-anchor="start" x="147" y="-274.5" font-family="Helvetica,sans-Serif" font-size="10.00">+ i2c_addr</text>
<text text-anchor="start" x="147" y="-263.5" font-family="Helvetica,sans-Serif" font-size="10.00">+ ppm</text>
<text text-anchor="start" x="147" y="-252.5" font-family="Helvetica,sans-Serif" font-size="10.00">&#45; cmd_measure</text>
<polyline fill="none" stroke="black" points="139,-245.5 226,-245.5 "/>
<text text-anchor="start" x="147" y="-233.5" font-family="Helvetica,sans-Serif" font-size="10.00">+ NDIR_I2C()</text>
<text text-anchor="start" x="147" y="-222.5" font-family="Helvetica,sans-Serif" font-size="10.00">+ begin()</text>
<text text-anchor="start" x="147" y="-211.5" font-family="Helvetica,sans-Serif" font-size="10.00">+ measure()</text>
<text text-anchor="start" x="147" y="-200.5" font-family="Helvetica,sans-Serif" font-size="10.00">&#45; send()</text>
<text text-anchor="start" x="147" y="-189.5" font-family="Helvetica,sans-Serif" font-size="10.00">&#45; receive()</text>
<text text-anchor="start" x="147" y="-178.5" font-family="Helvetica,sans-Serif" font-size="10.00">&#45; read_register()</text>
<text text-anchor="start" x="147" y="-167.5" font-family="Helvetica,sans-Serif" font-size="10.00">&#45; write_register()</text>
<text text-anchor="start" x="147" y="-156.5" font-family="Helvetica,sans-Serif" font-size="10.00">&#45; write_register()</text>
<text text-anchor="start" x="147" y="-145.5" font-family="Helvetica,sans-Serif" font-size="10.00">&#45; parse()</text>
</a>
</g>
</g>
<!-- Node4&#45;&gt;Node2 -->
<g id="edge2" class="edge"><title>Node4&#45;&gt;Node2</title>
<path fill="none" stroke="#404040" d="M153.608,-138.349C149.357,-126.188 145.064,-113.908 141.061,-102.457"/>
<polygon fill="none" stroke="#404040" points="140.968,-102.191 135.212,-97.8473 137.008,-90.8634 142.764,-95.2073 140.968,-102.191"/>
<text text-anchor="middle" x="165.5" y="-112" font-family="Helvetica,sans-Serif" font-size="10.00"> &#45;sensor</text>
</g>
</g>
</svg>
