<?xml version="1.0" encoding="UTF-8" standalone="no"?>
<!DOCTYPE svg PUBLIC "-//W3C//DTD SVG 1.1//EN"
 "http://www.w3.org/Graphics/SVG/1.1/DTD/svg11.dtd">
<!-- Generated by graphviz version 2.38.0 (20140413.2041)
 -->
<!-- Title: /home/ashiroji/Arduino/libraries/CoolBoard/src/CoolBoardLed.cpp Pages: 1 -->
<svg width="324pt" height="162pt"
 viewBox="0.00 0.00 323.50 162.00" xmlns="http://www.w3.org/2000/svg" xmlns:xlink="http://www.w3.org/1999/xlink">
<g id="graph0" class="graph" transform="scale(1 1) rotate(0) translate(4 158)">
<title>/home/ashiroji/Arduino/libraries/CoolBoard/src/CoolBoardLed.cpp</title>
<polygon fill="white" stroke="none" points="-4,4 -4,-158 319.5,-158 319.5,4 -4,4"/>
<!-- Node0 -->
<g id="node1" class="node"><title>Node0</title>
<polygon fill="#bfbfbf" stroke="black" points="77.5,-112.5 77.5,-153.5 196.5,-153.5 196.5,-112.5 77.5,-112.5"/>
<text text-anchor="start" x="85.5" y="-141.5" font-family="Helvetica,sans-Serif" font-size="10.00">/home/ashiroji/Arduino</text>
<text text-anchor="start" x="85.5" y="-130.5" font-family="Helvetica,sans-Serif" font-size="10.00">/libraries/CoolBoard/src</text>
<text text-anchor="middle" x="137" y="-119.5" font-family="Helvetica,sans-Serif" font-size="10.00">/CoolBoardLed.cpp</text>
</g>
<!-- Node1 -->
<g id="node2" class="node"><title>Node1</title>
<polygon fill="white" stroke="#bfbfbf" points="0,-56.5 0,-75.5 38,-75.5 38,-56.5 0,-56.5"/>
<text text-anchor="middle" x="19" y="-63.5" font-family="Helvetica,sans-Serif" font-size="10.00">FS.h</text>
</g>
<!-- Node0&#45;&gt;Node1 -->
<g id="edge1" class="edge"><title>Node0&#45;&gt;Node1</title>
<path fill="none" stroke="midnightblue" d="M101.596,-112.498C82.9826,-102.245 60.6177,-89.925 43.8574,-80.6927"/>
<polygon fill="midnightblue" stroke="midnightblue" points="45.1554,-77.4118 34.7076,-75.6525 41.7779,-83.5431 45.1554,-77.4118"/>
</g>
<!-- Node2 -->
<g id="node3" class="node"><title>Node2</title>
<polygon fill="white" stroke="#bfbfbf" points="50,-0.5 50,-19.5 108,-19.5 108,-0.5 50,-0.5"/>
<text text-anchor="middle" x="79" y="-7.5" font-family="Helvetica,sans-Serif" font-size="10.00">Arduino.h</text>
</g>
<!-- Node0&#45;&gt;Node2 -->
<g id="edge2" class="edge"><title>Node0&#45;&gt;Node2</title>
<path fill="none" stroke="midnightblue" d="M112.717,-112.427C102.35,-102.646 91.2243,-89.9301 85,-76 78.5636,-61.5953 77.3533,-43.6345 77.5884,-30.2455"/>
<polygon fill="midnightblue" stroke="midnightblue" points="81.103,-30.0126 78.0721,-19.8605 74.1105,-29.6868 81.103,-30.0126"/>
</g>
<!-- Node3 -->
<g id="node4" class="node"><title>Node3</title>
<polygon fill="white" stroke="#bfbfbf" points="153,-0.5 153,-19.5 235,-19.5 235,-0.5 153,-0.5"/>
<text text-anchor="middle" x="194" y="-7.5" font-family="Helvetica,sans-Serif" font-size="10.00">NeoPixelBus.h</text>
</g>
<!-- Node0&#45;&gt;Node3 -->
<g id="edge3" class="edge"><title>Node0&#45;&gt;Node3</title>
<path fill="none" stroke="midnightblue" d="M161.38,-112.469C171.767,-102.697 182.882,-89.9772 189,-76 195.318,-61.5653 196.243,-43.6071 195.772,-30.2267"/>
<polygon fill="midnightblue" stroke="midnightblue" points="199.239,-29.6028 195.099,-19.8502 192.254,-30.0557 199.239,-29.6028"/>
</g>
<!-- Node4 -->
<g id="node5" class="node"><title>Node4</title>
<g id="a_node5"><a xlink:href="$_cool_board_led_8h.html" xlink:title="CoolBoardLed Header file. ">
<polygon fill="white" stroke="black" points="94,-56.5 94,-75.5 180,-75.5 180,-56.5 94,-56.5"/>
<text text-anchor="middle" x="137" y="-63.5" font-family="Helvetica,sans-Serif" font-size="10.00">CoolBoardLed.h</text>
</a>
</g>
</g>
<!-- Node0&#45;&gt;Node4 -->
<g id="edge4" class="edge"><title>Node0&#45;&gt;Node4</title>
<path fill="none" stroke="midnightblue" d="M137,-112.498C137,-104.065 137,-94.2351 137,-85.874"/>
<polygon fill="midnightblue" stroke="midnightblue" points="140.5,-85.6525 137,-75.6525 133.5,-85.6525 140.5,-85.6525"/>
</g>
<!-- Node5 -->
<g id="node6" class="node"><title>Node5</title>
<polygon fill="white" stroke="#bfbfbf" points="236.5,-56.5 236.5,-75.5 315.5,-75.5 315.5,-56.5 236.5,-56.5"/>
<text text-anchor="middle" x="276" y="-63.5" font-family="Helvetica,sans-Serif" font-size="10.00">ArduinoJson.h</text>
</g>
<!-- Node0&#45;&gt;Node5 -->
<g id="edge7" class="edge"><title>Node0&#45;&gt;Node5</title>
<path fill="none" stroke="midnightblue" d="M178.705,-112.498C201.245,-101.957 228.456,-89.2326 248.364,-79.9235"/>
<polygon fill="midnightblue" stroke="midnightblue" points="249.921,-83.059 257.497,-75.6525 246.956,-76.7181 249.921,-83.059"/>
</g>
<!-- Node4&#45;&gt;Node2 -->
<g id="edge5" class="edge"><title>Node4&#45;&gt;Node2</title>
<path fill="none" stroke="midnightblue" d="M127.681,-56.324C119.107,-48.3414 106.188,-36.3128 95.8124,-26.6529"/>
<polygon fill="midnightblue" stroke="midnightblue" points="98.1922,-24.0865 88.4883,-19.8339 93.4223,-29.2098 98.1922,-24.0865"/>
</g>
<!-- Node4&#45;&gt;Node3 -->
<g id="edge6" class="edge"><title>Node4&#45;&gt;Node3</title>
<path fill="none" stroke="midnightblue" d="M146.158,-56.324C154.501,-48.4196 167.032,-36.5482 177.177,-26.9377"/>
<polygon fill="midnightblue" stroke="midnightblue" points="179.823,-29.2522 184.675,-19.8339 175.009,-24.1705 179.823,-29.2522"/>
</g>
</g>
</svg>
