<?xml version="1.0" encoding="UTF-8" standalone="no"?>
<!DOCTYPE svg PUBLIC "-//W3C//DTD SVG 1.1//EN"
 "http://www.w3.org/Graphics/SVG/1.1/DTD/svg11.dtd">
<!-- Generated by graphviz version 2.38.0 (20140413.2041)
 -->
<!-- Title: /home/ashiroji/Arduino/libraries/CoolBoard/src/internals/CoolNDIR_I2C.h Pages: 1 -->
<svg width="383pt" height="362pt"
 viewBox="0.00 0.00 383.00 362.00" xmlns="http://www.w3.org/2000/svg" xmlns:xlink="http://www.w3.org/1999/xlink">
<g id="graph0" class="graph" transform="scale(1 1) rotate(0) translate(4 358)">
<title>/home/ashiroji/Arduino/libraries/CoolBoard/src/internals/CoolNDIR_I2C.h</title>
<polygon fill="white" stroke="none" points="-4,4 -4,-358 379,-358 379,4 -4,4"/>
<!-- Node1 -->
<g id="node1" class="node"><title>Node1</title>
<polygon fill="#bfbfbf" stroke="black" points="160.5,-312.5 160.5,-353.5 294.5,-353.5 294.5,-312.5 160.5,-312.5"/>
<text text-anchor="start" x="168.5" y="-341.5" font-family="Helvetica,sans-Serif" font-size="10.00">/home/ashiroji/Arduino</text>
<text text-anchor="start" x="168.5" y="-330.5" font-family="Helvetica,sans-Serif" font-size="10.00">/libraries/CoolBoard/src</text>
<text text-anchor="middle" x="227.5" y="-319.5" font-family="Helvetica,sans-Serif" font-size="10.00">/internals/CoolNDIR_I2C.h</text>
</g>
<!-- Node2 -->
<g id="node2" class="node"><title>Node2</title>
<g id="a_node2"><a xlink:href="$_external_sensor_8h.html" xlink:title="ExternalSensor Header file. ">
<polygon fill="white" stroke="black" points="93,-234.5 93,-275.5 212,-275.5 212,-234.5 93,-234.5"/>
<text text-anchor="start" x="101" y="-263.5" font-family="Helvetica,sans-Serif" font-size="10.00">/home/ashiroji/Arduino</text>
<text text-anchor="start" x="101" y="-252.5" font-family="Helvetica,sans-Serif" font-size="10.00">/libraries/CoolBoard/src</text>
<text text-anchor="middle" x="152.5" y="-241.5" font-family="Helvetica,sans-Serif" font-size="10.00">/ExternalSensor.h</text>
</a>
</g>
</g>
<!-- Node1&#45;&gt;Node2 -->
<g id="edge1" class="edge"><title>Node1&#45;&gt;Node2</title>
<path fill="none" stroke="midnightblue" d="M201.057,-305.204C191.397,-295.416 180.663,-284.539 171.749,-275.506"/>
<polygon fill="midnightblue" stroke="midnightblue" points="198.67,-307.769 208.186,-312.428 203.653,-302.852 198.67,-307.769"/>
</g>
<!-- Node7 -->
<g id="node7" class="node"><title>Node7</title>
<g id="a_node7"><a xlink:href="$_cool_n_d_i_r___i2_c_8cpp.html" xlink:title="/home/ashiroji/Arduino\l/libraries/CoolBoard/src\l/internals/CoolNDIR_I2C.cpp">
<polygon fill="white" stroke="black" points="230,-234.5 230,-275.5 375,-275.5 375,-234.5 230,-234.5"/>
<text text-anchor="start" x="238" y="-263.5" font-family="Helvetica,sans-Serif" font-size="10.00">/home/ashiroji/Arduino</text>
<text text-anchor="start" x="238" y="-252.5" font-family="Helvetica,sans-Serif" font-size="10.00">/libraries/CoolBoard/src</text>
<text text-anchor="middle" x="302.5" y="-241.5" font-family="Helvetica,sans-Serif" font-size="10.00">/internals/CoolNDIR_I2C.cpp</text>
</a>
</g>
</g>
<!-- Node1&#45;&gt;Node7 -->
<g id="edge7" class="edge"><title>Node1&#45;&gt;Node7</title>
<path fill="none" stroke="midnightblue" d="M253.943,-305.204C263.603,-295.416 274.337,-284.539 283.251,-275.506"/>
<polygon fill="midnightblue" stroke="midnightblue" points="251.347,-302.852 246.814,-312.428 256.33,-307.769 251.347,-302.852"/>
</g>
<!-- Node3 -->
<g id="node3" class="node"><title>Node3</title>
<g id="a_node3"><a xlink:href="$_external_sensors_8h.html" xlink:title="ExternalSensors header file. ">
<polygon fill="white" stroke="black" points="49,-156.5 49,-197.5 168,-197.5 168,-156.5 49,-156.5"/>
<text text-anchor="start" x="57" y="-185.5" font-family="Helvetica,sans-Serif" font-size="10.00">/home/ashiroji/Arduino</text>
<text text-anchor="start" x="57" y="-174.5" font-family="Helvetica,sans-Serif" font-size="10.00">/libraries/CoolBoard/src</text>
<text text-anchor="middle" x="108.5" y="-163.5" font-family="Helvetica,sans-Serif" font-size="10.00">/ExternalSensors.h</text>
</a>
</g>
</g>
<!-- Node2&#45;&gt;Node3 -->
<g id="edge2" class="edge"><title>Node2&#45;&gt;Node3</title>
<path fill="none" stroke="midnightblue" d="M136.149,-225.757C130.705,-216.354 124.766,-206.096 119.793,-197.506"/>
<polygon fill="midnightblue" stroke="midnightblue" points="133.129,-227.527 141.169,-234.428 139.187,-224.02 133.129,-227.527"/>
</g>
<!-- Node6 -->
<g id="node6" class="node"><title>Node6</title>
<g id="a_node6"><a xlink:href="$_external_sensors_8cpp.html" xlink:title="ExternalSensors Source file. ">
<polygon fill="white" stroke="black" points="137,-78.5 137,-119.5 256,-119.5 256,-78.5 137,-78.5"/>
<text text-anchor="start" x="145" y="-107.5" font-family="Helvetica,sans-Serif" font-size="10.00">/home/ashiroji/Arduino</text>
<text text-anchor="start" x="145" y="-96.5" font-family="Helvetica,sans-Serif" font-size="10.00">/libraries/CoolBoard/src</text>
<text text-anchor="middle" x="196.5" y="-85.5" font-family="Helvetica,sans-Serif" font-size="10.00">/ExternalSensors.cpp</text>
</a>
</g>
</g>
<!-- Node2&#45;&gt;Node6 -->
<g id="edge6" class="edge"><title>Node2&#45;&gt;Node6</title>
<path fill="none" stroke="midnightblue" d="M166.181,-225.176C169.902,-216.569 173.678,-207.022 176.5,-198 184.793,-171.483 190.532,-139.831 193.67,-119.821"/>
<polygon fill="midnightblue" stroke="midnightblue" points="162.938,-223.857 162.058,-234.415 169.33,-226.709 162.938,-223.857"/>
</g>
<!-- Node4 -->
<g id="node4" class="node"><title>Node4</title>
<g id="a_node4"><a xlink:href="$_cool_board_8h.html" xlink:title="CoolBoard Header file. ">
<polygon fill="white" stroke="black" points="0,-78.5 0,-119.5 119,-119.5 119,-78.5 0,-78.5"/>
<text text-anchor="start" x="8" y="-107.5" font-family="Helvetica,sans-Serif" font-size="10.00">/home/ashiroji/Arduino</text>
<text text-anchor="start" x="8" y="-96.5" font-family="Helvetica,sans-Serif" font-size="10.00">/libraries/CoolBoard/src</text>
<text text-anchor="middle" x="59.5" y="-85.5" font-family="Helvetica,sans-Serif" font-size="10.00">/CoolBoard.h</text>
</a>
</g>
</g>
<!-- Node3&#45;&gt;Node4 -->
<g id="edge3" class="edge"><title>Node3&#45;&gt;Node4</title>
<path fill="none" stroke="midnightblue" d="M90.2908,-147.757C84.2282,-138.354 77.6145,-128.096 72.076,-119.506"/>
<polygon fill="midnightblue" stroke="midnightblue" points="87.5209,-149.92 95.8813,-156.428 93.4041,-146.127 87.5209,-149.92"/>
</g>
<!-- Node3&#45;&gt;Node6 -->
<g id="edge5" class="edge"><title>Node3&#45;&gt;Node6</title>
<path fill="none" stroke="midnightblue" d="M138.862,-149.779C150.366,-139.843 163.25,-128.716 173.915,-119.506"/>
<polygon fill="midnightblue" stroke="midnightblue" points="136.443,-147.243 131.162,-156.428 141.018,-152.541 136.443,-147.243"/>
</g>
<!-- Node5 -->
<g id="node5" class="node"><title>Node5</title>
<g id="a_node5"><a xlink:href="$_cool_board_8cpp.html" xlink:title="CoolBoard Source file. ">
<polygon fill="white" stroke="black" points="0,-0.5 0,-41.5 119,-41.5 119,-0.5 0,-0.5"/>
<text text-anchor="start" x="8" y="-29.5" font-family="Helvetica,sans-Serif" font-size="10.00">/home/ashiroji/Arduino</text>
<text text-anchor="start" x="8" y="-18.5" font-family="Helvetica,sans-Serif" font-size="10.00">/libraries/CoolBoard/src</text>
<text text-anchor="middle" x="59.5" y="-7.5" font-family="Helvetica,sans-Serif" font-size="10.00">/CoolBoard.cpp</text>
</a>
</g>
</g>
<!-- Node4&#45;&gt;Node5 -->
<g id="edge4" class="edge"><title>Node4&#45;&gt;Node5</title>
<path fill="none" stroke="midnightblue" d="M59.5,-68.2965C59.5,-59.3009 59.5,-49.6532 59.5,-41.5056"/>
<polygon fill="midnightblue" stroke="midnightblue" points="56.0001,-68.4281 59.5,-78.4281 63.0001,-68.4281 56.0001,-68.4281"/>
</g>
</g>
</svg>
