<?xml version="1.0" encoding="UTF-8" standalone="no"?>
<!DOCTYPE svg PUBLIC "-//W3C//DTD SVG 1.1//EN"
 "http://www.w3.org/Graphics/SVG/1.1/DTD/svg11.dtd">
<!-- Generated by graphviz version 2.38.0 (20140413.2041)
 -->
<!-- Title: /home/ashiroji/Arduino/libraries/CoolBoard/src/internals/CoolPubSubClient.h Pages: 1 -->
<svg width="298pt" height="106pt"
 viewBox="0.00 0.00 298.00 106.00" xmlns="http://www.w3.org/2000/svg" xmlns:xlink="http://www.w3.org/1999/xlink">
<g id="graph0" class="graph" transform="scale(1 1) rotate(0) translate(4 102)">
<title>/home/ashiroji/Arduino/libraries/CoolBoard/src/internals/CoolPubSubClient.h</title>
<polygon fill="white" stroke="none" points="-4,4 -4,-102 294,-102 294,4 -4,4"/>
<!-- Node0 -->
<g id="node1" class="node"><title>Node0</title>
<polygon fill="#bfbfbf" stroke="black" points="77,-56.5 77,-97.5 225,-97.5 225,-56.5 77,-56.5"/>
<text text-anchor="start" x="85" y="-85.5" font-family="Helvetica,sans-Serif" font-size="10.00">/home/ashiroji/Arduino</text>
<text text-anchor="start" x="85" y="-74.5" font-family="Helvetica,sans-Serif" font-size="10.00">/libraries/CoolBoard/src</text>
<text text-anchor="middle" x="151" y="-63.5" font-family="Helvetica,sans-Serif" font-size="10.00">/internals/CoolPubSubClient.h</text>
</g>
<!-- Node1 -->
<g id="node2" class="node"><title>Node1</title>
<polygon fill="white" stroke="#bfbfbf" points="0,-0.5 0,-19.5 58,-19.5 58,-0.5 0,-0.5"/>
<text text-anchor="middle" x="29" y="-7.5" font-family="Helvetica,sans-Serif" font-size="10.00">Arduino.h</text>
</g>
<!-- Node0&#45;&gt;Node1 -->
<g id="edge1" class="edge"><title>Node0&#45;&gt;Node1</title>
<path fill="none" stroke="midnightblue" d="M114.396,-56.4979C94.9717,-46.1488 71.596,-33.6946 54.2157,-24.4346"/>
<polygon fill="midnightblue" stroke="midnightblue" points="55.7114,-21.2657 45.2401,-19.6525 52.4198,-27.4436 55.7114,-21.2657"/>
</g>
<!-- Node2 -->
<g id="node3" class="node"><title>Node2</title>
<polygon fill="white" stroke="#bfbfbf" points="76.5,-0.5 76.5,-19.5 147.5,-19.5 147.5,-0.5 76.5,-0.5"/>
<text text-anchor="middle" x="112" y="-7.5" font-family="Helvetica,sans-Serif" font-size="10.00">IPAddress.h</text>
</g>
<!-- Node0&#45;&gt;Node2 -->
<g id="edge2" class="edge"><title>Node0&#45;&gt;Node2</title>
<path fill="none" stroke="midnightblue" d="M139.299,-56.4979C133.952,-47.5862 127.668,-37.1135 122.478,-28.4636"/>
<polygon fill="midnightblue" stroke="midnightblue" points="125.338,-26.4267 117.191,-19.6525 119.335,-30.0282 125.338,-26.4267"/>
</g>
<!-- Node3 -->
<g id="node4" class="node"><title>Node3</title>
<polygon fill="white" stroke="#bfbfbf" points="166,-0.5 166,-19.5 216,-19.5 216,-0.5 166,-0.5"/>
<text text-anchor="middle" x="191" y="-7.5" font-family="Helvetica,sans-Serif" font-size="10.00">Client.h</text>
</g>
<!-- Node0&#45;&gt;Node3 -->
<g id="edge3" class="edge"><title>Node0&#45;&gt;Node3</title>
<path fill="none" stroke="midnightblue" d="M163.001,-56.4979C168.544,-47.4904 175.069,-36.8881 180.424,-28.1852"/>
<polygon fill="midnightblue" stroke="midnightblue" points="183.415,-30.0034 185.675,-19.6525 177.454,-26.3347 183.415,-30.0034"/>
</g>
<!-- Node4 -->
<g id="node5" class="node"><title>Node4</title>
<polygon fill="white" stroke="#bfbfbf" points="234,-0.5 234,-19.5 290,-19.5 290,-0.5 234,-0.5"/>
<text text-anchor="middle" x="262" y="-7.5" font-family="Helvetica,sans-Serif" font-size="10.00">Stream.h</text>
</g>
<!-- Node0&#45;&gt;Node4 -->
<g id="edge4" class="edge"><title>Node0&#45;&gt;Node4</title>
<path fill="none" stroke="midnightblue" d="M184.304,-56.4979C201.649,-46.3405 222.458,-34.1551 238.174,-24.9523"/>
<polygon fill="midnightblue" stroke="midnightblue" points="240.364,-27.726 247.224,-19.6525 236.826,-21.6855 240.364,-27.726"/>
</g>
</g>
</svg>
