<?xml version="1.0" encoding="UTF-8" standalone="no"?>
<!DOCTYPE svg PUBLIC "-//W3C//DTD SVG 1.1//EN"
 "http://www.w3.org/Graphics/SVG/1.1/DTD/svg11.dtd">
<!-- Generated by graphviz version 2.38.0 (20140413.2041)
 -->
<!-- Title: /home/ashiroji/Arduino/libraries/CoolBoard/src/internals/CoolAdafruit_ADS1015.h Pages: 1 -->
<svg width="416pt" height="384pt"
 viewBox="0.00 0.00 416.42 384.00" xmlns="http://www.w3.org/2000/svg" xmlns:xlink="http://www.w3.org/1999/xlink">
<g id="graph0" class="graph" transform="scale(1 1) rotate(0) translate(4 380)">
<title>/home/ashiroji/Arduino/libraries/CoolBoard/src/internals/CoolAdafruit_ADS1015.h</title>
<polygon fill="white" stroke="none" points="-4,4 -4,-380 412.422,-380 412.422,4 -4,4"/>
<!-- Node2 -->
<g id="node1" class="node"><title>Node2</title>
<polygon fill="#bfbfbf" stroke="black" points="152.422,-323.5 152.422,-375.5 271.422,-375.5 271.422,-323.5 152.422,-323.5"/>
<text text-anchor="start" x="160.422" y="-363.5" font-family="Helvetica,sans-Serif" font-size="10.00">/home/ashiroji/Arduino</text>
<text text-anchor="start" x="160.422" y="-352.5" font-family="Helvetica,sans-Serif" font-size="10.00">/libraries/CoolBoard/src</text>
<text text-anchor="start" x="160.422" y="-341.5" font-family="Helvetica,sans-Serif" font-size="10.00">/internals/CoolAdafruit</text>
<text text-anchor="middle" x="211.922" y="-330.5" font-family="Helvetica,sans-Serif" font-size="10.00">_ADS1015.h</text>
</g>
<!-- Node3 -->
<g id="node2" class="node"><title>Node3</title>
<g id="a_node2"><a xlink:href="$_irene3000_8h.html" xlink:title="Irene3000 Header file. ">
<polygon fill="white" stroke="black" points="15.4224,-240 15.4224,-281 134.422,-281 134.422,-240 15.4224,-240"/>
<text text-anchor="start" x="23.4224" y="-269" font-family="Helvetica,sans-Serif" font-size="10.00">/home/ashiroji/Arduino</text>
<text text-anchor="start" x="23.4224" y="-258" font-family="Helvetica,sans-Serif" font-size="10.00">/libraries/CoolBoard/src</text>
<text text-anchor="middle" x="74.9224" y="-247" font-family="Helvetica,sans-Serif" font-size="10.00">/Irene3000.h</text>
</a>
</g>
</g>
<!-- Node2&#45;&gt;Node3 -->
<g id="edge1" class="edge"><title>Node2&#45;&gt;Node3</title>
<path fill="none" stroke="midnightblue" d="M163.644,-317.841C144.4,-305.621 122.818,-291.916 105.759,-281.082"/>
<polygon fill="midnightblue" stroke="midnightblue" points="161.978,-320.93 172.296,-323.336 165.731,-315.021 161.978,-320.93"/>
</g>
<!-- Node7 -->
<g id="node6" class="node"><title>Node7</title>
<g id="a_node6"><a xlink:href="$_external_sensor_8h.html" xlink:title="ExternalSensor Header file. ">
<polygon fill="white" stroke="black" points="152.422,-240 152.422,-281 271.422,-281 271.422,-240 152.422,-240"/>
<text text-anchor="start" x="160.422" y="-269" font-family="Helvetica,sans-Serif" font-size="10.00">/home/ashiroji/Arduino</text>
<text text-anchor="start" x="160.422" y="-258" font-family="Helvetica,sans-Serif" font-size="10.00">/libraries/CoolBoard/src</text>
<text text-anchor="middle" x="211.922" y="-247" font-family="Helvetica,sans-Serif" font-size="10.00">/ExternalSensor.h</text>
</a>
</g>
</g>
<!-- Node2&#45;&gt;Node7 -->
<g id="edge5" class="edge"><title>Node2&#45;&gt;Node7</title>
<path fill="none" stroke="midnightblue" d="M211.922,-313.155C211.922,-302.21 211.922,-290.549 211.922,-281.082"/>
<polygon fill="midnightblue" stroke="midnightblue" points="208.422,-313.336 211.922,-323.336 215.422,-313.336 208.422,-313.336"/>
</g>
<!-- Node10 -->
<g id="node9" class="node"><title>Node10</title>
<g id="a_node9"><a xlink:href="$_cool_adafruit___a_d_s1015_8cpp.html" xlink:title="/home/ashiroji/Arduino\l/libraries/CoolBoard/src\l/internals/CoolAdafruit\l_ADS1015.cpp">
<polygon fill="white" stroke="black" points="289.422,-234.5 289.422,-286.5 408.422,-286.5 408.422,-234.5 289.422,-234.5"/>
<text text-anchor="start" x="297.422" y="-274.5" font-family="Helvetica,sans-Serif" font-size="10.00">/home/ashiroji/Arduino</text>
<text text-anchor="start" x="297.422" y="-263.5" font-family="Helvetica,sans-Serif" font-size="10.00">/libraries/CoolBoard/src</text>
<text text-anchor="start" x="297.422" y="-252.5" font-family="Helvetica,sans-Serif" font-size="10.00">/internals/CoolAdafruit</text>
<text text-anchor="middle" x="348.922" y="-241.5" font-family="Helvetica,sans-Serif" font-size="10.00">_ADS1015.cpp</text>
</a>
</g>
</g>
<!-- Node2&#45;&gt;Node10 -->
<g id="edge10" class="edge"><title>Node2&#45;&gt;Node10</title>
<path fill="none" stroke="midnightblue" d="M260.286,-317.787C276.361,-307.579 294.059,-296.341 309.385,-286.607"/>
<polygon fill="midnightblue" stroke="midnightblue" points="258.114,-315.021 251.548,-323.336 261.866,-320.93 258.114,-315.021"/>
</g>
<!-- Node4 -->
<g id="node3" class="node"><title>Node4</title>
<g id="a_node3"><a xlink:href="$_cool_board_8h.html" xlink:title="CoolBoard Header file. ">
<polygon fill="white" stroke="black" points="15.4224,-78.5 15.4224,-119.5 134.422,-119.5 134.422,-78.5 15.4224,-78.5"/>
<text text-anchor="start" x="23.4224" y="-107.5" font-family="Helvetica,sans-Serif" font-size="10.00">/home/ashiroji/Arduino</text>
<text text-anchor="start" x="23.4224" y="-96.5" font-family="Helvetica,sans-Serif" font-size="10.00">/libraries/CoolBoard/src</text>
<text text-anchor="middle" x="74.9224" y="-85.5" font-family="Helvetica,sans-Serif" font-size="10.00">/CoolBoard.h</text>
</a>
</g>
</g>
<!-- Node3&#45;&gt;Node4 -->
<g id="edge2" class="edge"><title>Node3&#45;&gt;Node4</title>
<path fill="none" stroke="midnightblue" d="M34.7979,-233.647C23.2823,-223.982 12.1621,-211.92 5.92236,-198 -1.71308,-180.966 -2.10464,-172.853 5.92236,-156 13.0211,-141.096 26.2399,-128.868 39.2226,-119.682"/>
<polygon fill="midnightblue" stroke="midnightblue" points="32.7609,-236.498 42.7783,-239.948 37.0989,-231.004 32.7609,-236.498"/>
</g>
<!-- Node6 -->
<g id="node5" class="node"><title>Node6</title>
<g id="a_node5"><a xlink:href="$_irene3000_8cpp.html" xlink:title="Irene3000 Source file. ">
<polygon fill="white" stroke="black" points="15.4224,-156.5 15.4224,-197.5 134.422,-197.5 134.422,-156.5 15.4224,-156.5"/>
<text text-anchor="start" x="23.4224" y="-185.5" font-family="Helvetica,sans-Serif" font-size="10.00">/home/ashiroji/Arduino</text>
<text text-anchor="start" x="23.4224" y="-174.5" font-family="Helvetica,sans-Serif" font-size="10.00">/libraries/CoolBoard/src</text>
<text text-anchor="middle" x="74.9224" y="-163.5" font-family="Helvetica,sans-Serif" font-size="10.00">/Irene3000.cpp</text>
</a>
</g>
</g>
<!-- Node3&#45;&gt;Node6 -->
<g id="edge4" class="edge"><title>Node3&#45;&gt;Node6</title>
<path fill="none" stroke="midnightblue" d="M74.9224,-229.565C74.9224,-218.882 74.9224,-207.13 74.9224,-197.547"/>
<polygon fill="midnightblue" stroke="midnightblue" points="71.4225,-229.771 74.9224,-239.771 78.4225,-229.771 71.4225,-229.771"/>
</g>
<!-- Node5 -->
<g id="node4" class="node"><title>Node5</title>
<g id="a_node4"><a xlink:href="$_cool_board_8cpp.html" xlink:title="CoolBoard Source file. ">
<polygon fill="white" stroke="black" points="15.4224,-0.5 15.4224,-41.5 134.422,-41.5 134.422,-0.5 15.4224,-0.5"/>
<text text-anchor="start" x="23.4224" y="-29.5" font-family="Helvetica,sans-Serif" font-size="10.00">/home/ashiroji/Arduino</text>
<text text-anchor="start" x="23.4224" y="-18.5" font-family="Helvetica,sans-Serif" font-size="10.00">/libraries/CoolBoard/src</text>
<text text-anchor="middle" x="74.9224" y="-7.5" font-family="Helvetica,sans-Serif" font-size="10.00">/CoolBoard.cpp</text>
</a>
</g>
</g>
<!-- Node4&#45;&gt;Node5 -->
<g id="edge3" class="edge"><title>Node4&#45;&gt;Node5</title>
<path fill="none" stroke="midnightblue" d="M74.9224,-68.2965C74.9224,-59.3009 74.9224,-49.6532 74.9224,-41.5056"/>
<polygon fill="midnightblue" stroke="midnightblue" points="71.4225,-68.4281 74.9224,-78.4281 78.4225,-68.4281 71.4225,-68.4281"/>
</g>
<!-- Node8 -->
<g id="node7" class="node"><title>Node8</title>
<g id="a_node7"><a xlink:href="$_external_sensors_8h.html" xlink:title="ExternalSensors header file. ">
<polygon fill="white" stroke="black" points="152.422,-156.5 152.422,-197.5 271.422,-197.5 271.422,-156.5 152.422,-156.5"/>
<text text-anchor="start" x="160.422" y="-185.5" font-family="Helvetica,sans-Serif" font-size="10.00">/home/ashiroji/Arduino</text>
<text text-anchor="start" x="160.422" y="-174.5" font-family="Helvetica,sans-Serif" font-size="10.00">/libraries/CoolBoard/src</text>
<text text-anchor="middle" x="211.922" y="-163.5" font-family="Helvetica,sans-Serif" font-size="10.00">/ExternalSensors.h</text>
</a>
</g>
</g>
<!-- Node7&#45;&gt;Node8 -->
<g id="edge6" class="edge"><title>Node7&#45;&gt;Node8</title>
<path fill="none" stroke="midnightblue" d="M211.922,-229.565C211.922,-218.882 211.922,-207.13 211.922,-197.547"/>
<polygon fill="midnightblue" stroke="midnightblue" points="208.422,-229.771 211.922,-239.771 215.422,-229.771 208.422,-229.771"/>
</g>
<!-- Node9 -->
<g id="node8" class="node"><title>Node9</title>
<g id="a_node8"><a xlink:href="$_external_sensors_8cpp.html" xlink:title="ExternalSensors Source file. ">
<polygon fill="white" stroke="black" points="196.422,-78.5 196.422,-119.5 315.422,-119.5 315.422,-78.5 196.422,-78.5"/>
<text text-anchor="start" x="204.422" y="-107.5" font-family="Helvetica,sans-Serif" font-size="10.00">/home/ashiroji/Arduino</text>
<text text-anchor="start" x="204.422" y="-96.5" font-family="Helvetica,sans-Serif" font-size="10.00">/libraries/CoolBoard/src</text>
<text text-anchor="middle" x="255.922" y="-85.5" font-family="Helvetica,sans-Serif" font-size="10.00">/ExternalSensors.cpp</text>
</a>
</g>
</g>
<!-- Node7&#45;&gt;Node9 -->
<g id="edge9" class="edge"><title>Node7&#45;&gt;Node9</title>
<path fill="none" stroke="midnightblue" d="M252.047,-233.647C263.562,-223.982 274.683,-211.92 280.922,-198 292.486,-172.204 279.617,-140.093 268.473,-119.813"/>
<polygon fill="midnightblue" stroke="midnightblue" points="249.746,-231.004 244.066,-239.948 254.084,-236.498 249.746,-231.004"/>
</g>
<!-- Node8&#45;&gt;Node4 -->
<g id="edge7" class="edge"><title>Node8&#45;&gt;Node4</title>
<path fill="none" stroke="midnightblue" d="M167.732,-151.486C149.071,-141.134 127.644,-129.247 110.084,-119.506"/>
<polygon fill="midnightblue" stroke="midnightblue" points="166.199,-154.638 176.641,-156.428 169.595,-148.516 166.199,-154.638"/>
</g>
<!-- Node8&#45;&gt;Node9 -->
<g id="edge8" class="edge"><title>Node8&#45;&gt;Node9</title>
<path fill="none" stroke="midnightblue" d="M228.274,-147.757C233.717,-138.354 239.656,-128.096 244.63,-119.506"/>
<polygon fill="midnightblue" stroke="midnightblue" points="225.235,-146.02 223.253,-156.428 231.293,-149.527 225.235,-146.02"/>
</g>
</g>
</svg>
