<?xml version="1.0" encoding="UTF-8" standalone="no"?>
<!DOCTYPE svg PUBLIC "-//W3C//DTD SVG 1.1//EN"
 "http://www.w3.org/Graphics/SVG/1.1/DTD/svg11.dtd">
<!-- Generated by graphviz version 2.38.0 (20140413.2041)
 -->
<!-- Title: /home/ashiroji/Arduino/libraries/CoolBoard/src/internals/CoolSparkFunBME280.cpp Pages: 1 -->
<svg width="359pt" height="162pt"
 viewBox="0.00 0.00 359.00 162.00" xmlns="http://www.w3.org/2000/svg" xmlns:xlink="http://www.w3.org/1999/xlink">
<g id="graph0" class="graph" transform="scale(1 1) rotate(0) translate(4 158)">
<title>/home/ashiroji/Arduino/libraries/CoolBoard/src/internals/CoolSparkFunBME280.cpp</title>
<polygon fill="white" stroke="none" points="-4,4 -4,-158 355,-158 355,4 -4,4"/>
<!-- Node0 -->
<g id="node1" class="node"><title>Node0</title>
<polygon fill="#bfbfbf" stroke="black" points="116.5,-112.5 116.5,-153.5 294.5,-153.5 294.5,-112.5 116.5,-112.5"/>
<text text-anchor="start" x="124.5" y="-141.5" font-family="Helvetica,sans-Serif" font-size="10.00">/home/ashiroji/Arduino</text>
<text text-anchor="start" x="124.5" y="-130.5" font-family="Helvetica,sans-Serif" font-size="10.00">/libraries/CoolBoard/src</text>
<text text-anchor="middle" x="205.5" y="-119.5" font-family="Helvetica,sans-Serif" font-size="10.00">/internals/CoolSparkFunBME280.cpp</text>
</g>
<!-- Node1 -->
<g id="node2" class="node"><title>Node1</title>
<g id="a_node2"><a xlink:href="$_cool_spark_fun_b_m_e280_8h.html" xlink:title="CoolSparkFunBME280.h">
<polygon fill="white" stroke="black" points="0,-56.5 0,-75.5 125,-75.5 125,-56.5 0,-56.5"/>
<text text-anchor="middle" x="62.5" y="-63.5" font-family="Helvetica,sans-Serif" font-size="10.00">CoolSparkFunBME280.h</text>
</a>
</g>
</g>
<!-- Node0&#45;&gt;Node1 -->
<g id="edge1" class="edge"><title>Node0&#45;&gt;Node1</title>
<path fill="none" stroke="midnightblue" d="M162.595,-112.498C139.3,-101.909 111.157,-89.1169 90.6529,-79.7968"/>
<polygon fill="midnightblue" stroke="midnightblue" points="92.0875,-76.6043 81.5355,-75.6525 89.1908,-82.9769 92.0875,-76.6043"/>
</g>
<!-- Node2 -->
<g id="node3" class="node"><title>Node2</title>
<polygon fill="white" stroke="#bfbfbf" points="83,-0.5 83,-19.5 132,-19.5 132,-0.5 83,-0.5"/>
<text text-anchor="middle" x="107.5" y="-7.5" font-family="Helvetica,sans-Serif" font-size="10.00">stdint.h</text>
</g>
<!-- Node0&#45;&gt;Node2 -->
<g id="edge3" class="edge"><title>Node0&#45;&gt;Node2</title>
<path fill="none" stroke="midnightblue" d="M189.536,-112.29C170.384,-88.6425 138.627,-49.4323 120.763,-27.3753"/>
<polygon fill="midnightblue" stroke="midnightblue" points="123.459,-25.1429 114.445,-19.5748 118.019,-29.5486 123.459,-25.1429"/>
</g>
<!-- Node3 -->
<g id="node4" class="node"><title>Node3</title>
<polygon fill="white" stroke="#bfbfbf" points="182,-56.5 182,-75.5 229,-75.5 229,-56.5 182,-56.5"/>
<text text-anchor="middle" x="205.5" y="-63.5" font-family="Helvetica,sans-Serif" font-size="10.00">math.h</text>
</g>
<!-- Node0&#45;&gt;Node3 -->
<g id="edge4" class="edge"><title>Node0&#45;&gt;Node3</title>
<path fill="none" stroke="midnightblue" d="M205.5,-112.498C205.5,-104.065 205.5,-94.2351 205.5,-85.874"/>
<polygon fill="midnightblue" stroke="midnightblue" points="209,-85.6525 205.5,-75.6525 202,-85.6525 209,-85.6525"/>
</g>
<!-- Node4 -->
<g id="node5" class="node"><title>Node4</title>
<polygon fill="white" stroke="#bfbfbf" points="247,-56.5 247,-75.5 292,-75.5 292,-56.5 247,-56.5"/>
<text text-anchor="middle" x="269.5" y="-63.5" font-family="Helvetica,sans-Serif" font-size="10.00">Wire.h</text>
</g>
<!-- Node0&#45;&gt;Node4 -->
<g id="edge5" class="edge"><title>Node0&#45;&gt;Node4</title>
<path fill="none" stroke="midnightblue" d="M224.702,-112.498C234.043,-103.011 245.125,-91.7557 253.93,-82.8131"/>
<polygon fill="midnightblue" stroke="midnightblue" points="256.459,-85.2338 260.981,-75.6525 251.471,-80.3226 256.459,-85.2338"/>
</g>
<!-- Node5 -->
<g id="node6" class="node"><title>Node5</title>
<polygon fill="white" stroke="#bfbfbf" points="310,-56.5 310,-75.5 351,-75.5 351,-56.5 310,-56.5"/>
<text text-anchor="middle" x="330.5" y="-63.5" font-family="Helvetica,sans-Serif" font-size="10.00">SPI.h</text>
</g>
<!-- Node0&#45;&gt;Node5 -->
<g id="edge6" class="edge"><title>Node0&#45;&gt;Node5</title>
<path fill="none" stroke="midnightblue" d="M243.004,-112.498C262.906,-102.149 286.857,-89.6946 304.664,-80.4346"/>
<polygon fill="midnightblue" stroke="midnightblue" points="306.603,-83.3713 313.861,-75.6525 303.374,-77.1608 306.603,-83.3713"/>
</g>
<!-- Node1&#45;&gt;Node2 -->
<g id="edge2" class="edge"><title>Node1&#45;&gt;Node2</title>
<path fill="none" stroke="midnightblue" d="M69.9308,-56.083C76.3527,-48.3768 85.8056,-37.0333 93.6225,-27.6531"/>
<polygon fill="midnightblue" stroke="midnightblue" points="96.4943,-29.674 100.207,-19.7511 91.1168,-25.1927 96.4943,-29.674"/>
</g>
</g>
</svg>
