<?xml version="1.0" encoding="UTF-8" standalone="no"?>
<!DOCTYPE svg PUBLIC "-//W3C//DTD SVG 1.1//EN"
 "http://www.w3.org/Graphics/SVG/1.1/DTD/svg11.dtd">
<!-- Generated by graphviz version 2.38.0 (20140413.2041)
 -->
<!-- Title: /home/ashiroji/Arduino/libraries/CoolBoard/src/CoolTime.cpp Pages: 1 -->
<svg width="342pt" height="162pt"
 viewBox="0.00 0.00 341.50 162.00" xmlns="http://www.w3.org/2000/svg" xmlns:xlink="http://www.w3.org/1999/xlink">
<g id="graph0" class="graph" transform="scale(1 1) rotate(0) translate(4 158)">
<title>/home/ashiroji/Arduino/libraries/CoolBoard/src/CoolTime.cpp</title>
<polygon fill="white" stroke="none" points="-4,4 -4,-158 337.5,-158 337.5,4 -4,4"/>
<!-- Node0 -->
<g id="node1" class="node"><title>Node0</title>
<polygon fill="#bfbfbf" stroke="black" points="44.5,-112.5 44.5,-153.5 163.5,-153.5 163.5,-112.5 44.5,-112.5"/>
<text text-anchor="start" x="52.5" y="-141.5" font-family="Helvetica,sans-Serif" font-size="10.00">/home/ashiroji/Arduino</text>
<text text-anchor="start" x="52.5" y="-130.5" font-family="Helvetica,sans-Serif" font-size="10.00">/libraries/CoolBoard/src</text>
<text text-anchor="middle" x="104" y="-119.5" font-family="Helvetica,sans-Serif" font-size="10.00">/CoolTime.cpp</text>
</g>
<!-- Node1 -->
<g id="node2" class="node"><title>Node1</title>
<polygon fill="white" stroke="#bfbfbf" points="0,-56.5 0,-75.5 38,-75.5 38,-56.5 0,-56.5"/>
<text text-anchor="middle" x="19" y="-63.5" font-family="Helvetica,sans-Serif" font-size="10.00">FS.h</text>
</g>
<!-- Node0&#45;&gt;Node1 -->
<g id="edge1" class="edge"><title>Node0&#45;&gt;Node1</title>
<path fill="none" stroke="midnightblue" d="M78.4972,-112.498C65.5904,-102.628 50.1796,-90.8432 38.2763,-81.7407"/>
<polygon fill="midnightblue" stroke="midnightblue" points="40.3845,-78.9468 30.3148,-75.6525 36.1323,-84.5073 40.3845,-78.9468"/>
</g>
<!-- Node2 -->
<g id="node3" class="node"><title>Node2</title>
<polygon fill="white" stroke="#bfbfbf" points="18,-0.5 18,-19.5 76,-19.5 76,-0.5 18,-0.5"/>
<text text-anchor="middle" x="47" y="-7.5" font-family="Helvetica,sans-Serif" font-size="10.00">Arduino.h</text>
</g>
<!-- Node0&#45;&gt;Node2 -->
<g id="edge2" class="edge"><title>Node0&#45;&gt;Node2</title>
<path fill="none" stroke="midnightblue" d="M94.7151,-112.29C83.8218,-89.1656 65.9182,-51.1597 55.4153,-28.8641"/>
<polygon fill="midnightblue" stroke="midnightblue" points="58.4673,-27.1297 51.0394,-19.5748 52.1347,-30.1129 58.4673,-27.1297"/>
</g>
<!-- Node3 -->
<g id="node4" class="node"><title>Node3</title>
<g id="a_node4"><a xlink:href="$_cool_time_8h.html" xlink:title="CoolTime Header file. ">
<polygon fill="white" stroke="black" points="132.5,-56.5 132.5,-75.5 199.5,-75.5 199.5,-56.5 132.5,-56.5"/>
<text text-anchor="middle" x="166" y="-63.5" font-family="Helvetica,sans-Serif" font-size="10.00">CoolTime.h</text>
</a>
</g>
</g>
<!-- Node0&#45;&gt;Node3 -->
<g id="edge3" class="edge"><title>Node0&#45;&gt;Node3</title>
<path fill="none" stroke="midnightblue" d="M122.602,-112.498C131.559,-103.107 142.17,-91.9829 150.658,-83.0848"/>
<polygon fill="midnightblue" stroke="midnightblue" points="153.377,-85.3043 157.747,-75.6525 148.312,-80.4729 153.377,-85.3043"/>
</g>
<!-- Node4 -->
<g id="node5" class="node"><title>Node4</title>
<polygon fill="white" stroke="#bfbfbf" points="94.5,-0.5 94.5,-19.5 153.5,-19.5 153.5,-0.5 94.5,-0.5"/>
<text text-anchor="middle" x="124" y="-7.5" font-family="Helvetica,sans-Serif" font-size="10.00">TimeLib.h</text>
</g>
<!-- Node0&#45;&gt;Node4 -->
<g id="edge9" class="edge"><title>Node0&#45;&gt;Node4</title>
<path fill="none" stroke="midnightblue" d="M107.258,-112.29C111.045,-89.3749 117.249,-51.8464 120.947,-29.4732"/>
<polygon fill="midnightblue" stroke="midnightblue" points="124.405,-30.0117 122.583,-19.5748 117.499,-28.8701 124.405,-30.0117"/>
</g>
<!-- Node7 -->
<g id="node8" class="node"><title>Node7</title>
<polygon fill="white" stroke="#bfbfbf" points="217.5,-56.5 217.5,-75.5 296.5,-75.5 296.5,-56.5 217.5,-56.5"/>
<text text-anchor="middle" x="257" y="-63.5" font-family="Helvetica,sans-Serif" font-size="10.00">ArduinoJson.h</text>
</g>
<!-- Node0&#45;&gt;Node7 -->
<g id="edge8" class="edge"><title>Node0&#45;&gt;Node7</title>
<path fill="none" stroke="midnightblue" d="M149.905,-112.498C174.942,-101.861 205.213,-89.001 227.176,-79.6705"/>
<polygon fill="midnightblue" stroke="midnightblue" points="228.798,-82.784 236.633,-75.6525 226.061,-76.3413 228.798,-82.784"/>
</g>
<!-- Node3&#45;&gt;Node2 -->
<g id="edge4" class="edge"><title>Node3&#45;&gt;Node2</title>
<path fill="none" stroke="midnightblue" d="M147.144,-56.4435C127.734,-47.6356 97.2699,-33.8116 75.0355,-23.722"/>
<polygon fill="midnightblue" stroke="midnightblue" points="76.3203,-20.4615 65.7677,-19.5164 73.4277,-26.836 76.3203,-20.4615"/>
</g>
<!-- Node3&#45;&gt;Node4 -->
<g id="edge5" class="edge"><title>Node3&#45;&gt;Node4</title>
<path fill="none" stroke="midnightblue" d="M159.065,-56.083C153.071,-48.3768 144.248,-37.0333 136.952,-27.6531"/>
<polygon fill="midnightblue" stroke="midnightblue" points="139.709,-25.4958 130.806,-19.7511 134.183,-29.7934 139.709,-25.4958"/>
</g>
<!-- Node5 -->
<g id="node6" class="node"><title>Node5</title>
<polygon fill="white" stroke="#bfbfbf" points="171.5,-0.5 171.5,-19.5 234.5,-19.5 234.5,-0.5 171.5,-0.5"/>
<text text-anchor="middle" x="203" y="-7.5" font-family="Helvetica,sans-Serif" font-size="10.00">WiFiUdp.h</text>
</g>
<!-- Node3&#45;&gt;Node5 -->
<g id="edge6" class="edge"><title>Node3&#45;&gt;Node5</title>
<path fill="none" stroke="midnightblue" d="M172.11,-56.083C177.282,-48.5341 184.846,-37.4948 191.194,-28.2298"/>
<polygon fill="midnightblue" stroke="midnightblue" points="194.239,-29.9787 197.004,-19.7511 188.464,-26.0221 194.239,-29.9787"/>
</g>
<!-- Node6 -->
<g id="node7" class="node"><title>Node6</title>
<polygon fill="white" stroke="#bfbfbf" points="252.5,-0.5 252.5,-19.5 333.5,-19.5 333.5,-0.5 252.5,-0.5"/>
<text text-anchor="middle" x="293" y="-7.5" font-family="Helvetica,sans-Serif" font-size="10.00">DS1337RTC.h</text>
</g>
<!-- Node3&#45;&gt;Node6 -->
<g id="edge7" class="edge"><title>Node3&#45;&gt;Node6</title>
<path fill="none" stroke="midnightblue" d="M186.124,-56.4435C207.024,-47.5566 239.935,-33.5632 263.716,-23.4514"/>
<polygon fill="midnightblue" stroke="midnightblue" points="265.138,-26.6504 272.971,-19.5164 262.398,-20.2085 265.138,-26.6504"/>
</g>
</g>
</svg>
