<?xml version="1.0" encoding="UTF-8" standalone="no"?>
<!DOCTYPE svg PUBLIC "-//W3C//DTD SVG 1.1//EN"
 "http://www.w3.org/Graphics/SVG/1.1/DTD/svg11.dtd">
<!-- Generated by graphviz version 2.38.0 (20140413.2041)
 -->
<!-- Title: /home/ashiroji/Arduino/libraries/CoolBoard/src/internals/CoolAdafruit_TCS34725.cpp Pages: 1 -->
<svg width="334pt" height="173pt"
 viewBox="0.00 0.00 333.50 173.00" xmlns="http://www.w3.org/2000/svg" xmlns:xlink="http://www.w3.org/1999/xlink">
<g id="graph0" class="graph" transform="scale(1 1) rotate(0) translate(4 169)">
<title>/home/ashiroji/Arduino/libraries/CoolBoard/src/internals/CoolAdafruit_TCS34725.cpp</title>
<polygon fill="white" stroke="none" points="-4,4 -4,-169 329.5,-169 329.5,4 -4,4"/>
<!-- Node0 -->
<g id="node1" class="node"><title>Node0</title>
<polygon fill="#bfbfbf" stroke="black" points="62.5,-112.5 62.5,-164.5 181.5,-164.5 181.5,-112.5 62.5,-112.5"/>
<text text-anchor="start" x="70.5" y="-152.5" font-family="Helvetica,sans-Serif" font-size="10.00">/home/ashiroji/Arduino</text>
<text text-anchor="start" x="70.5" y="-141.5" font-family="Helvetica,sans-Serif" font-size="10.00">/libraries/CoolBoard/src</text>
<text text-anchor="start" x="70.5" y="-130.5" font-family="Helvetica,sans-Serif" font-size="10.00">/internals/CoolAdafruit</text>
<text text-anchor="middle" x="122" y="-119.5" font-family="Helvetica,sans-Serif" font-size="10.00">_TCS34725.cpp</text>
</g>
<!-- Node1 -->
<g id="node2" class="node"><title>Node1</title>
<polygon fill="white" stroke="#bfbfbf" points="0,-56.5 0,-75.5 48,-75.5 48,-56.5 0,-56.5"/>
<text text-anchor="middle" x="24" y="-63.5" font-family="Helvetica,sans-Serif" font-size="10.00">stdlib.h</text>
</g>
<!-- Node0&#45;&gt;Node1 -->
<g id="edge1" class="edge"><title>Node0&#45;&gt;Node1</title>
<path fill="none" stroke="midnightblue" d="M87.1729,-112.446C72.8293,-102.127 56.7129,-90.5333 44.3485,-81.6384"/>
<polygon fill="midnightblue" stroke="midnightblue" points="46.249,-78.6941 36.0873,-75.6955 42.1611,-84.3765 46.249,-78.6941"/>
</g>
<!-- Node2 -->
<g id="node3" class="node"><title>Node2</title>
<polygon fill="white" stroke="#bfbfbf" points="66.5,-56.5 66.5,-75.5 113.5,-75.5 113.5,-56.5 66.5,-56.5"/>
<text text-anchor="middle" x="90" y="-63.5" font-family="Helvetica,sans-Serif" font-size="10.00">math.h</text>
</g>
<!-- Node0&#45;&gt;Node2 -->
<g id="edge2" class="edge"><title>Node0&#45;&gt;Node2</title>
<path fill="none" stroke="midnightblue" d="M110.628,-112.446C106.49,-103.329 101.9,-93.2174 98.1025,-84.8509"/>
<polygon fill="midnightblue" stroke="midnightblue" points="101.267,-83.3547 93.9469,-75.6955 94.893,-86.248 101.267,-83.3547"/>
</g>
<!-- Node3 -->
<g id="node4" class="node"><title>Node3</title>
<polygon fill="white" stroke="#bfbfbf" points="131.5,-56.5 131.5,-75.5 176.5,-75.5 176.5,-56.5 131.5,-56.5"/>
<text text-anchor="middle" x="154" y="-63.5" font-family="Helvetica,sans-Serif" font-size="10.00">Wire.h</text>
</g>
<!-- Node0&#45;&gt;Node3 -->
<g id="edge3" class="edge"><title>Node0&#45;&gt;Node3</title>
<path fill="none" stroke="midnightblue" d="M133.372,-112.446C137.51,-103.329 142.1,-93.2174 145.897,-84.8509"/>
<polygon fill="midnightblue" stroke="midnightblue" points="149.107,-86.248 150.053,-75.6955 142.733,-83.3547 149.107,-86.248"/>
</g>
<!-- Node4 -->
<g id="node5" class="node"><title>Node4</title>
<g id="a_node5"><a xlink:href="$_cool_adafruit___t_c_s34725_8h.html" xlink:title="CoolAdafruit_TCS34725.h">
<polygon fill="white" stroke="black" points="194.5,-56.5 194.5,-75.5 325.5,-75.5 325.5,-56.5 194.5,-56.5"/>
<text text-anchor="middle" x="260" y="-63.5" font-family="Helvetica,sans-Serif" font-size="10.00">CoolAdafruit_TCS34725.h</text>
</a>
</g>
</g>
<!-- Node0&#45;&gt;Node4 -->
<g id="edge4" class="edge"><title>Node0&#45;&gt;Node4</title>
<path fill="none" stroke="midnightblue" d="M171.042,-112.446C192.352,-101.56 216.44,-89.2537 234.17,-80.1955"/>
<polygon fill="midnightblue" stroke="midnightblue" points="235.996,-83.1933 243.309,-75.527 232.811,-76.9596 235.996,-83.1933"/>
</g>
<!-- Node5 -->
<g id="node6" class="node"><title>Node5</title>
<polygon fill="white" stroke="#bfbfbf" points="224.5,-0.5 224.5,-19.5 295.5,-19.5 295.5,-0.5 224.5,-0.5"/>
<text text-anchor="middle" x="260" y="-7.5" font-family="Helvetica,sans-Serif" font-size="10.00">WProgram.h</text>
</g>
<!-- Node4&#45;&gt;Node5 -->
<g id="edge5" class="edge"><title>Node4&#45;&gt;Node5</title>
<path fill="none" stroke="midnightblue" d="M260,-56.083C260,-49.0059 260,-38.8611 260,-29.9865"/>
<polygon fill="midnightblue" stroke="midnightblue" points="263.5,-29.751 260,-19.7511 256.5,-29.7511 263.5,-29.751"/>
</g>
</g>
</svg>
