<?xml version="1.0" encoding="UTF-8" standalone="no"?>
<!DOCTYPE svg PUBLIC "-//W3C//DTD SVG 1.1//EN"
 "http://www.w3.org/Graphics/SVG/1.1/DTD/svg11.dtd">
<!-- Generated by graphviz version 2.38.0 (20140413.2041)
 -->
<!-- Title: /home/ashiroji/Arduino/libraries/CoolBoard/src/internals/CoolAdafruit_ADS1015.cpp Pages: 1 -->
<svg width="210pt" height="173pt"
 viewBox="0.00 0.00 209.50 173.00" xmlns="http://www.w3.org/2000/svg" xmlns:xlink="http://www.w3.org/1999/xlink">
<g id="graph0" class="graph" transform="scale(1 1) rotate(0) translate(4 169)">
<title>/home/ashiroji/Arduino/libraries/CoolBoard/src/internals/CoolAdafruit_ADS1015.cpp</title>
<polygon fill="white" stroke="none" points="-4,4 -4,-169 205.5,-169 205.5,4 -4,4"/>
<!-- Node0 -->
<g id="node1" class="node"><title>Node0</title>
<polygon fill="#bfbfbf" stroke="black" points="15.5,-112.5 15.5,-164.5 134.5,-164.5 134.5,-112.5 15.5,-112.5"/>
<text text-anchor="start" x="23.5" y="-152.5" font-family="Helvetica,sans-Serif" font-size="10.00">/home/ashiroji/Arduino</text>
<text text-anchor="start" x="23.5" y="-141.5" font-family="Helvetica,sans-Serif" font-size="10.00">/libraries/CoolBoard/src</text>
<text text-anchor="start" x="23.5" y="-130.5" font-family="Helvetica,sans-Serif" font-size="10.00">/internals/CoolAdafruit</text>
<text text-anchor="middle" x="75" y="-119.5" font-family="Helvetica,sans-Serif" font-size="10.00">_ADS1015.cpp</text>
</g>
<!-- Node1 -->
<g id="node2" class="node"><title>Node1</title>
<polygon fill="white" stroke="#bfbfbf" points="-3.55271e-15,-0.5 -3.55271e-15,-19.5 58,-19.5 58,-0.5 -3.55271e-15,-0.5"/>
<text text-anchor="middle" x="29" y="-7.5" font-family="Helvetica,sans-Serif" font-size="10.00">Arduino.h</text>
</g>
<!-- Node0&#45;&gt;Node1 -->
<g id="edge1" class="edge"><title>Node0&#45;&gt;Node1</title>
<path fill="none" stroke="midnightblue" d="M33.5236,-112.255C21.3835,-102.564 9.60681,-90.3322 3,-76 -4.44138,-59.8573 5.10525,-40.9448 14.6584,-27.6957"/>
<polygon fill="midnightblue" stroke="midnightblue" points="17.6448,-29.5595 21.0645,-19.5317 12.1378,-25.2382 17.6448,-29.5595"/>
</g>
<!-- Node2 -->
<g id="node3" class="node"><title>Node2</title>
<g id="a_node3"><a xlink:href="$_cool_adafruit___a_d_s1015_8h.html" xlink:title="CoolAdafruit_ADS1015.h">
<polygon fill="white" stroke="black" points="12,-56.5 12,-75.5 138,-75.5 138,-56.5 12,-56.5"/>
<text text-anchor="middle" x="75" y="-63.5" font-family="Helvetica,sans-Serif" font-size="10.00">CoolAdafruit_ADS1015.h</text>
</a>
</g>
</g>
<!-- Node0&#45;&gt;Node2 -->
<g id="edge2" class="edge"><title>Node0&#45;&gt;Node2</title>
<path fill="none" stroke="midnightblue" d="M75,-112.446C75,-103.73 75,-94.1045 75,-85.9641"/>
<polygon fill="midnightblue" stroke="midnightblue" points="78.5001,-85.6954 75,-75.6955 71.5001,-85.6955 78.5001,-85.6954"/>
</g>
<!-- Node3 -->
<g id="node4" class="node"><title>Node3</title>
<polygon fill="white" stroke="#bfbfbf" points="156.5,-56.5 156.5,-75.5 201.5,-75.5 201.5,-56.5 156.5,-56.5"/>
<text text-anchor="middle" x="179" y="-63.5" font-family="Helvetica,sans-Serif" font-size="10.00">Wire.h</text>
</g>
<!-- Node0&#45;&gt;Node3 -->
<g id="edge4" class="edge"><title>Node0&#45;&gt;Node3</title>
<path fill="none" stroke="midnightblue" d="M111.959,-112.446C127.329,-102.027 144.617,-90.308 157.787,-81.3801"/>
<polygon fill="midnightblue" stroke="midnightblue" points="159.859,-84.2037 166.173,-75.6955 155.931,-78.4096 159.859,-84.2037"/>
</g>
<!-- Node2&#45;&gt;Node1 -->
<g id="edge3" class="edge"><title>Node2&#45;&gt;Node1</title>
<path fill="none" stroke="midnightblue" d="M67.404,-56.083C60.7725,-48.2982 50.979,-36.8015 42.9419,-27.3665"/>
<polygon fill="midnightblue" stroke="midnightblue" points="45.6037,-25.0939 36.4546,-19.7511 40.275,-29.6332 45.6037,-25.0939"/>
</g>
</g>
</svg>
