<?xml version="1.0" encoding="UTF-8" standalone="no"?>
<!DOCTYPE svg PUBLIC "-//W3C//DTD SVG 1.1//EN"
 "http://www.w3.org/Graphics/SVG/1.1/DTD/svg11.dtd">
<!-- Generated by graphviz version 2.38.0 (20140413.2041)
 -->
<!-- Title: /home/ashiroji/Arduino/libraries/CoolBoard/src/CoolBoardLed.h Pages: 1 -->
<svg width="166pt" height="106pt"
 viewBox="0.00 0.00 166.00 106.00" xmlns="http://www.w3.org/2000/svg" xmlns:xlink="http://www.w3.org/1999/xlink">
<g id="graph0" class="graph" transform="scale(1 1) rotate(0) translate(4 102)">
<title>/home/ashiroji/Arduino/libraries/CoolBoard/src/CoolBoardLed.h</title>
<polygon fill="white" stroke="none" points="-4,4 -4,-102 162,-102 162,4 -4,4"/>
<!-- Node0 -->
<g id="node1" class="node"><title>Node0</title>
<polygon fill="#bfbfbf" stroke="black" points="13.5,-56.5 13.5,-97.5 132.5,-97.5 132.5,-56.5 13.5,-56.5"/>
<text text-anchor="start" x="21.5" y="-85.5" font-family="Helvetica,sans-Serif" font-size="10.00">/home/ashiroji/Arduino</text>
<text text-anchor="start" x="21.5" y="-74.5" font-family="Helvetica,sans-Serif" font-size="10.00">/libraries/CoolBoard/src</text>
<text text-anchor="middle" x="73" y="-63.5" font-family="Helvetica,sans-Serif" font-size="10.00">/CoolBoardLed.h</text>
</g>
<!-- Node1 -->
<g id="node2" class="node"><title>Node1</title>
<polygon fill="white" stroke="#bfbfbf" points="0,-0.5 0,-19.5 58,-19.5 58,-0.5 0,-0.5"/>
<text text-anchor="middle" x="29" y="-7.5" font-family="Helvetica,sans-Serif" font-size="10.00">Arduino.h</text>
</g>
<!-- Node0&#45;&gt;Node1 -->
<g id="edge1" class="edge"><title>Node0&#45;&gt;Node1</title>
<path fill="none" stroke="midnightblue" d="M59.7985,-56.4979C53.7012,-47.4904 46.5242,-36.8881 40.6331,-28.1852"/>
<polygon fill="midnightblue" stroke="midnightblue" points="43.3612,-25.9716 34.8571,-19.6525 37.5644,-29.8956 43.3612,-25.9716"/>
</g>
<!-- Node2 -->
<g id="node3" class="node"><title>Node2</title>
<polygon fill="white" stroke="#bfbfbf" points="76,-0.5 76,-19.5 158,-19.5 158,-0.5 76,-0.5"/>
<text text-anchor="middle" x="117" y="-7.5" font-family="Helvetica,sans-Serif" font-size="10.00">NeoPixelBus.h</text>
</g>
<!-- Node0&#45;&gt;Node2 -->
<g id="edge2" class="edge"><title>Node0&#45;&gt;Node2</title>
<path fill="none" stroke="midnightblue" d="M86.2015,-56.4979C92.2988,-47.4904 99.4758,-36.8881 105.367,-28.1852"/>
<polygon fill="midnightblue" stroke="midnightblue" points="108.436,-29.8956 111.143,-19.6525 102.639,-25.9716 108.436,-29.8956"/>
</g>
</g>
</svg>
