<?xml version="1.0" encoding="UTF-8" standalone="no"?>
<!DOCTYPE svg PUBLIC "-//W3C//DTD SVG 1.1//EN"
 "http://www.w3.org/Graphics/SVG/1.1/DTD/svg11.dtd">
<!-- Generated by graphviz version 2.38.0 (20140413.2041)
 -->
<!-- Title: /home/ashiroji/Arduino/libraries/CoolBoard/src/internals/CoolNDIR_I2C.cpp Pages: 1 -->
<svg width="240pt" height="106pt"
 viewBox="0.00 0.00 239.50 106.00" xmlns="http://www.w3.org/2000/svg" xmlns:xlink="http://www.w3.org/1999/xlink">
<g id="graph0" class="graph" transform="scale(1 1) rotate(0) translate(4 102)">
<title>/home/ashiroji/Arduino/libraries/CoolBoard/src/internals/CoolNDIR_I2C.cpp</title>
<polygon fill="white" stroke="none" points="-4,4 -4,-102 235.5,-102 235.5,4 -4,4"/>
<!-- Node0 -->
<g id="node1" class="node"><title>Node0</title>
<polygon fill="#bfbfbf" stroke="black" points="37,-56.5 37,-97.5 182,-97.5 182,-56.5 37,-56.5"/>
<text text-anchor="start" x="45" y="-85.5" font-family="Helvetica,sans-Serif" font-size="10.00">/home/ashiroji/Arduino</text>
<text text-anchor="start" x="45" y="-74.5" font-family="Helvetica,sans-Serif" font-size="10.00">/libraries/CoolBoard/src</text>
<text text-anchor="middle" x="109.5" y="-63.5" font-family="Helvetica,sans-Serif" font-size="10.00">/internals/CoolNDIR_I2C.cpp</text>
</g>
<!-- Node1 -->
<g id="node2" class="node"><title>Node1</title>
<polygon fill="white" stroke="#bfbfbf" points="0,-0.5 0,-19.5 45,-19.5 45,-0.5 0,-0.5"/>
<text text-anchor="middle" x="22.5" y="-7.5" font-family="Helvetica,sans-Serif" font-size="10.00">Wire.h</text>
</g>
<!-- Node0&#45;&gt;Node1 -->
<g id="edge1" class="edge"><title>Node0&#45;&gt;Node1</title>
<path fill="none" stroke="midnightblue" d="M83.3971,-56.4979C70.1866,-46.628 54.4132,-34.8432 42.2299,-25.7407"/>
<polygon fill="midnightblue" stroke="midnightblue" points="44.1869,-22.8339 34.081,-19.6525 39.9972,-28.4417 44.1869,-22.8339"/>
</g>
<!-- Node2 -->
<g id="node3" class="node"><title>Node2</title>
<g id="a_node3"><a xlink:href="$_cool_n_d_i_r___i2_c_8h.html" xlink:title="CoolNDIR_I2C.h">
<polygon fill="white" stroke="black" points="63.5,-0.5 63.5,-19.5 155.5,-19.5 155.5,-0.5 63.5,-0.5"/>
<text text-anchor="middle" x="109.5" y="-7.5" font-family="Helvetica,sans-Serif" font-size="10.00">CoolNDIR_I2C.h</text>
</a>
</g>
</g>
<!-- Node0&#45;&gt;Node2 -->
<g id="edge2" class="edge"><title>Node0&#45;&gt;Node2</title>
<path fill="none" stroke="midnightblue" d="M109.5,-56.4979C109.5,-48.0653 109.5,-38.2351 109.5,-29.874"/>
<polygon fill="midnightblue" stroke="midnightblue" points="113,-29.6525 109.5,-19.6525 106,-29.6525 113,-29.6525"/>
</g>
<!-- Node3 -->
<g id="node4" class="node"><title>Node3</title>
<polygon fill="white" stroke="#bfbfbf" points="173.5,-0.5 173.5,-19.5 231.5,-19.5 231.5,-0.5 173.5,-0.5"/>
<text text-anchor="middle" x="202.5" y="-7.5" font-family="Helvetica,sans-Serif" font-size="10.00">Arduino.h</text>
</g>
<!-- Node0&#45;&gt;Node3 -->
<g id="edge3" class="edge"><title>Node0&#45;&gt;Node3</title>
<path fill="none" stroke="midnightblue" d="M137.403,-56.4979C151.662,-46.5321 168.713,-34.6142 181.788,-25.4764"/>
<polygon fill="midnightblue" stroke="midnightblue" points="183.929,-28.25 190.12,-19.6525 179.919,-22.5125 183.929,-28.25"/>
</g>
</g>
</svg>
