<?xml version="1.0" encoding="UTF-8" standalone="no"?>
<!DOCTYPE svg PUBLIC "-//W3C//DTD SVG 1.1//EN"
 "http://www.w3.org/Graphics/SVG/1.1/DTD/svg11.dtd">
<!-- Generated by graphviz version 2.38.0 (20140413.2041)
 -->
<!-- Title: /home/ashiroji/Arduino/libraries/CoolBoard/src/CoolBoardSensors.h Pages: 1 -->
<svg width="322pt" height="162pt"
 viewBox="0.00 0.00 322.00 162.00" xmlns="http://www.w3.org/2000/svg" xmlns:xlink="http://www.w3.org/1999/xlink">
<g id="graph0" class="graph" transform="scale(1 1) rotate(0) translate(4 158)">
<title>/home/ashiroji/Arduino/libraries/CoolBoard/src/CoolBoardSensors.h</title>
<polygon fill="white" stroke="none" points="-4,4 -4,-158 318,-158 318,4 -4,4"/>
<!-- Node0 -->
<g id="node1" class="node"><title>Node0</title>
<polygon fill="#bfbfbf" stroke="black" points="13.5,-112.5 13.5,-153.5 132.5,-153.5 132.5,-112.5 13.5,-112.5"/>
<text text-anchor="start" x="21.5" y="-141.5" font-family="Helvetica,sans-Serif" font-size="10.00">/home/ashiroji/Arduino</text>
<text text-anchor="start" x="21.5" y="-130.5" font-family="Helvetica,sans-Serif" font-size="10.00">/libraries/CoolBoard/src</text>
<text text-anchor="middle" x="73" y="-119.5" font-family="Helvetica,sans-Serif" font-size="10.00">/CoolBoardSensors.h</text>
</g>
<!-- Node1 -->
<g id="node2" class="node"><title>Node1</title>
<polygon fill="white" stroke="#bfbfbf" points="0,-0.5 0,-19.5 58,-19.5 58,-0.5 0,-0.5"/>
<text text-anchor="middle" x="29" y="-7.5" font-family="Helvetica,sans-Serif" font-size="10.00">Arduino.h</text>
</g>
<!-- Node0&#45;&gt;Node1 -->
<g id="edge1" class="edge"><title>Node0&#45;&gt;Node1</title>
<path fill="none" stroke="midnightblue" d="M38.1643,-112.468C25.2532,-103.238 12.0492,-90.9372 5,-76 -2.50844,-60.0897 6.39501,-41.1441 15.409,-27.8238"/>
<polygon fill="midnightblue" stroke="midnightblue" points="18.3497,-29.7332 21.4668,-19.6073 12.7154,-25.5792 18.3497,-29.7332"/>
</g>
<!-- Node2 -->
<g id="node3" class="node"><title>Node2</title>
<g id="a_node3"><a xlink:href="$_cool_s_i114_x_8h.html" xlink:title="internals/CoolSI114X.h">
<polygon fill="white" stroke="black" points="14.5,-56.5 14.5,-75.5 131.5,-75.5 131.5,-56.5 14.5,-56.5"/>
<text text-anchor="middle" x="73" y="-63.5" font-family="Helvetica,sans-Serif" font-size="10.00">internals/CoolSI114X.h</text>
</a>
</g>
</g>
<!-- Node0&#45;&gt;Node2 -->
<g id="edge2" class="edge"><title>Node0&#45;&gt;Node2</title>
<path fill="none" stroke="midnightblue" d="M73,-112.498C73,-104.065 73,-94.2351 73,-85.874"/>
<polygon fill="midnightblue" stroke="midnightblue" points="76.5001,-85.6525 73,-75.6525 69.5001,-85.6525 76.5001,-85.6525"/>
</g>
<!-- Node3 -->
<g id="node4" class="node"><title>Node3</title>
<g id="a_node4"><a xlink:href="$_cool_spark_fun_b_m_e280_8h.html" xlink:title="internals/CoolSparkFunBME280.h">
<polygon fill="white" stroke="black" points="150,-56.5 150,-75.5 314,-75.5 314,-56.5 150,-56.5"/>
<text text-anchor="middle" x="232" y="-63.5" font-family="Helvetica,sans-Serif" font-size="10.00">internals/CoolSparkFunBME280.h</text>
</a>
</g>
</g>
<!-- Node0&#45;&gt;Node3 -->
<g id="edge4" class="edge"><title>Node0&#45;&gt;Node3</title>
<path fill="none" stroke="midnightblue" d="M120.705,-112.498C146.841,-101.813 178.466,-88.8851 201.314,-79.5446"/>
<polygon fill="midnightblue" stroke="midnightblue" points="202.903,-82.6764 210.835,-75.6525 200.254,-76.1969 202.903,-82.6764"/>
</g>
<!-- Node2&#45;&gt;Node1 -->
<g id="edge3" class="edge"><title>Node2&#45;&gt;Node1</title>
<path fill="none" stroke="midnightblue" d="M65.7343,-56.083C59.4552,-48.3768 50.2124,-37.0333 42.5692,-27.6531"/>
<polygon fill="midnightblue" stroke="midnightblue" points="45.1606,-25.2926 36.1305,-19.7511 39.7339,-29.7143 45.1606,-25.2926"/>
</g>
<!-- Node4 -->
<g id="node5" class="node"><title>Node4</title>
<polygon fill="white" stroke="#bfbfbf" points="207.5,-0.5 207.5,-19.5 256.5,-19.5 256.5,-0.5 207.5,-0.5"/>
<text text-anchor="middle" x="232" y="-7.5" font-family="Helvetica,sans-Serif" font-size="10.00">stdint.h</text>
</g>
<!-- Node3&#45;&gt;Node4 -->
<g id="edge5" class="edge"><title>Node3&#45;&gt;Node4</title>
<path fill="none" stroke="midnightblue" d="M232,-56.083C232,-49.0059 232,-38.8611 232,-29.9865"/>
<polygon fill="midnightblue" stroke="midnightblue" points="235.5,-29.751 232,-19.7511 228.5,-29.7511 235.5,-29.751"/>
</g>
</g>
</svg>
