<?xml version="1.0" encoding="UTF-8" standalone="no"?>
<!DOCTYPE svg PUBLIC "-//W3C//DTD SVG 1.1//EN"
 "http://www.w3.org/Graphics/SVG/1.1/DTD/svg11.dtd">
<!-- Generated by graphviz version 2.38.0 (20140413.2041)
 -->
<!-- Title: /home/ashiroji/Arduino/libraries/CoolBoard/src/internals/WiFiManagerReadFileButton.cpp Pages: 1 -->
<svg width="495pt" height="162pt"
 viewBox="0.00 0.00 495.00 162.00" xmlns="http://www.w3.org/2000/svg" xmlns:xlink="http://www.w3.org/1999/xlink">
<g id="graph0" class="graph" transform="scale(1 1) rotate(0) translate(4 158)">
<title>/home/ashiroji/Arduino/libraries/CoolBoard/src/internals/WiFiManagerReadFileButton.cpp</title>
<polygon fill="white" stroke="none" points="-4,4 -4,-158 491,-158 491,4 -4,4"/>
<!-- Node0 -->
<g id="node1" class="node"><title>Node0</title>
<polygon fill="#bfbfbf" stroke="black" points="173.5,-112.5 173.5,-153.5 376.5,-153.5 376.5,-112.5 173.5,-112.5"/>
<text text-anchor="start" x="181.5" y="-141.5" font-family="Helvetica,sans-Serif" font-size="10.00">/home/ashiroji/Arduino</text>
<text text-anchor="start" x="181.5" y="-130.5" font-family="Helvetica,sans-Serif" font-size="10.00">/libraries/CoolBoard/src</text>
<text text-anchor="middle" x="275" y="-119.5" font-family="Helvetica,sans-Serif" font-size="10.00">/internals/WiFiManagerReadFileButton.cpp</text>
</g>
<!-- Node1 -->
<g id="node2" class="node"><title>Node1</title>
<polygon fill="white" stroke="#bfbfbf" points="144,-56.5 144,-75.5 182,-75.5 182,-56.5 144,-56.5"/>
<text text-anchor="middle" x="163" y="-63.5" font-family="Helvetica,sans-Serif" font-size="10.00">FS.h</text>
</g>
<!-- Node0&#45;&gt;Node1 -->
<g id="edge1" class="edge"><title>Node0&#45;&gt;Node1</title>
<path fill="none" stroke="midnightblue" d="M241.396,-112.498C223.729,-102.245 202.502,-89.925 186.594,-80.6927"/>
<polygon fill="midnightblue" stroke="midnightblue" points="188.315,-77.6449 177.909,-75.6525 184.801,-83.6992 188.315,-77.6449"/>
</g>
<!-- Node2 -->
<g id="node3" class="node"><title>Node2</title>
<g id="a_node3"><a xlink:href="$_wi_fi_manager_read_file_button_8h.html" xlink:title="WiFiManagerReadFileButton.h">
<polygon fill="white" stroke="black" points="200,-56.5 200,-75.5 350,-75.5 350,-56.5 200,-56.5"/>
<text text-anchor="middle" x="275" y="-63.5" font-family="Helvetica,sans-Serif" font-size="10.00">WiFiManagerReadFileButton.h</text>
</a>
</g>
</g>
<!-- Node0&#45;&gt;Node2 -->
<g id="edge2" class="edge"><title>Node0&#45;&gt;Node2</title>
<path fill="none" stroke="midnightblue" d="M275,-112.498C275,-104.065 275,-94.2351 275,-85.874"/>
<polygon fill="midnightblue" stroke="midnightblue" points="278.5,-85.6525 275,-75.6525 271.5,-85.6525 278.5,-85.6525"/>
</g>
<!-- Node8 -->
<g id="node9" class="node"><title>Node8</title>
<polygon fill="white" stroke="#bfbfbf" points="367.5,-56.5 367.5,-75.5 446.5,-75.5 446.5,-56.5 367.5,-56.5"/>
<text text-anchor="middle" x="407" y="-63.5" font-family="Helvetica,sans-Serif" font-size="10.00">ArduinoJson.h</text>
</g>
<!-- Node0&#45;&gt;Node8 -->
<g id="edge8" class="edge"><title>Node0&#45;&gt;Node8</title>
<path fill="none" stroke="midnightblue" d="M314.604,-112.498C335.815,-102.053 361.381,-89.4638 380.238,-80.1782"/>
<polygon fill="midnightblue" stroke="midnightblue" points="382.004,-83.2102 389.429,-75.6525 378.911,-76.9303 382.004,-83.2102"/>
</g>
<!-- Node3 -->
<g id="node4" class="node"><title>Node3</title>
<polygon fill="white" stroke="#bfbfbf" points="0,-0.5 0,-19.5 86,-19.5 86,-0.5 0,-0.5"/>
<text text-anchor="middle" x="43" y="-7.5" font-family="Helvetica,sans-Serif" font-size="10.00">ESP8266WiFi.h</text>
</g>
<!-- Node2&#45;&gt;Node3 -->
<g id="edge3" class="edge"><title>Node2&#45;&gt;Node3</title>
<path fill="none" stroke="midnightblue" d="M238.239,-56.4435C197.937,-47.0629 133.191,-31.9926 89.4154,-21.8036"/>
<polygon fill="midnightblue" stroke="midnightblue" points="90.1222,-18.3746 79.5891,-19.5164 88.5353,-25.1924 90.1222,-18.3746"/>
</g>
<!-- Node4 -->
<g id="node5" class="node"><title>Node4</title>
<polygon fill="white" stroke="#bfbfbf" points="104.5,-0.5 104.5,-19.5 219.5,-19.5 219.5,-0.5 104.5,-0.5"/>
<text text-anchor="middle" x="162" y="-7.5" font-family="Helvetica,sans-Serif" font-size="10.00">ESP8266WebServer.h</text>
</g>
<!-- Node2&#45;&gt;Node4 -->
<g id="edge4" class="edge"><title>Node2&#45;&gt;Node4</title>
<path fill="none" stroke="midnightblue" d="M257.095,-56.4435C238.746,-47.6751 209.995,-33.9355 188.906,-23.8579"/>
<polygon fill="midnightblue" stroke="midnightblue" points="190.353,-20.6703 179.821,-19.5164 187.335,-26.9862 190.353,-20.6703"/>
</g>
<!-- Node5 -->
<g id="node6" class="node"><title>Node5</title>
<polygon fill="white" stroke="#bfbfbf" points="237.5,-0.5 237.5,-19.5 312.5,-19.5 312.5,-0.5 237.5,-0.5"/>
<text text-anchor="middle" x="275" y="-7.5" font-family="Helvetica,sans-Serif" font-size="10.00">DNSServer.h</text>
</g>
<!-- Node2&#45;&gt;Node5 -->
<g id="edge5" class="edge"><title>Node2&#45;&gt;Node5</title>
<path fill="none" stroke="midnightblue" d="M275,-56.083C275,-49.0059 275,-38.8611 275,-29.9865"/>
<polygon fill="midnightblue" stroke="midnightblue" points="278.5,-29.751 275,-19.7511 271.5,-29.7511 278.5,-29.751"/>
</g>
<!-- Node6 -->
<g id="node7" class="node"><title>Node6</title>
<polygon fill="white" stroke="#bfbfbf" points="331,-0.5 331,-19.5 383,-19.5 383,-0.5 331,-0.5"/>
<text text-anchor="middle" x="357" y="-7.5" font-family="Helvetica,sans-Serif" font-size="10.00">memory</text>
</g>
<!-- Node2&#45;&gt;Node6 -->
<g id="edge6" class="edge"><title>Node2&#45;&gt;Node6</title>
<path fill="none" stroke="midnightblue" d="M288.175,-56.324C300.847,-47.979 320.233,-35.2122 335.206,-25.3524"/>
<polygon fill="midnightblue" stroke="midnightblue" points="337.431,-28.0776 343.858,-19.6545 333.581,-22.2313 337.431,-28.0776"/>
</g>
<!-- Node7 -->
<g id="node8" class="node"><title>Node7</title>
<polygon fill="white" stroke="#bfbfbf" points="401,-0.5 401,-19.5 487,-19.5 487,-0.5 401,-0.5"/>
<text text-anchor="middle" x="444" y="-7.5" font-family="Helvetica,sans-Serif" font-size="10.00">user_interface.h</text>
</g>
<!-- Node2&#45;&gt;Node7 -->
<g id="edge7" class="edge"><title>Node2&#45;&gt;Node7</title>
<path fill="none" stroke="midnightblue" d="M301.779,-56.4435C330.333,-47.3196 375.733,-32.8133 407.537,-22.6509"/>
<polygon fill="midnightblue" stroke="midnightblue" points="408.886,-25.8941 417.347,-19.5164 406.756,-19.2262 408.886,-25.8941"/>
</g>
</g>
</svg>
