<?xml version="1.0" encoding="UTF-8" standalone="no"?>
<!DOCTYPE svg PUBLIC "-//W3C//DTD SVG 1.1//EN"
 "http://www.w3.org/Graphics/SVG/1.1/DTD/svg11.dtd">
<!-- Generated by graphviz version 2.38.0 (20140413.2041)
 -->
<!-- Title: /home/ashiroji/Arduino/libraries/CoolBoard/src/internals/WiFiManagerReadFileButton.h Pages: 1 -->
<svg width="495pt" height="106pt"
 viewBox="0.00 0.00 495.00 106.00" xmlns="http://www.w3.org/2000/svg" xmlns:xlink="http://www.w3.org/1999/xlink">
<g id="graph0" class="graph" transform="scale(1 1) rotate(0) translate(4 102)">
<title>/home/ashiroji/Arduino/libraries/CoolBoard/src/internals/WiFiManagerReadFileButton.h</title>
<polygon fill="white" stroke="none" points="-4,4 -4,-102 491,-102 491,4 -4,4"/>
<!-- Node0 -->
<g id="node1" class="node"><title>Node0</title>
<polygon fill="#bfbfbf" stroke="black" points="178.5,-56.5 178.5,-97.5 371.5,-97.5 371.5,-56.5 178.5,-56.5"/>
<text text-anchor="start" x="186.5" y="-85.5" font-family="Helvetica,sans-Serif" font-size="10.00">/home/ashiroji/Arduino</text>
<text text-anchor="start" x="186.5" y="-74.5" font-family="Helvetica,sans-Serif" font-size="10.00">/libraries/CoolBoard/src</text>
<text text-anchor="middle" x="275" y="-63.5" font-family="Helvetica,sans-Serif" font-size="10.00">/internals/WiFiManagerReadFileButton.h</text>
</g>
<!-- Node1 -->
<g id="node2" class="node"><title>Node1</title>
<polygon fill="white" stroke="#bfbfbf" points="0,-0.5 0,-19.5 86,-19.5 86,-0.5 0,-0.5"/>
<text text-anchor="middle" x="43" y="-7.5" font-family="Helvetica,sans-Serif" font-size="10.00">ESP8266WiFi.h</text>
</g>
<!-- Node0&#45;&gt;Node1 -->
<g id="edge1" class="edge"><title>Node0&#45;&gt;Node1</title>
<path fill="none" stroke="midnightblue" d="M205.392,-56.4979C165.597,-45.3484 117.081,-31.7553 83.4953,-22.3457"/>
<polygon fill="midnightblue" stroke="midnightblue" points="84.1513,-18.8948 73.5779,-19.5671 82.2628,-25.6352 84.1513,-18.8948"/>
</g>
<!-- Node2 -->
<g id="node3" class="node"><title>Node2</title>
<polygon fill="white" stroke="#bfbfbf" points="104.5,-0.5 104.5,-19.5 219.5,-19.5 219.5,-0.5 104.5,-0.5"/>
<text text-anchor="middle" x="162" y="-7.5" font-family="Helvetica,sans-Serif" font-size="10.00">ESP8266WebServer.h</text>
</g>
<!-- Node0&#45;&gt;Node2 -->
<g id="edge2" class="edge"><title>Node0&#45;&gt;Node2</title>
<path fill="none" stroke="midnightblue" d="M241.096,-56.4979C223.271,-46.2447 201.854,-33.925 185.804,-24.6927"/>
<polygon fill="midnightblue" stroke="midnightblue" points="187.455,-21.6048 177.042,-19.6525 183.965,-27.6726 187.455,-21.6048"/>
</g>
<!-- Node3 -->
<g id="node4" class="node"><title>Node3</title>
<polygon fill="white" stroke="#bfbfbf" points="237.5,-0.5 237.5,-19.5 312.5,-19.5 312.5,-0.5 237.5,-0.5"/>
<text text-anchor="middle" x="275" y="-7.5" font-family="Helvetica,sans-Serif" font-size="10.00">DNSServer.h</text>
</g>
<!-- Node0&#45;&gt;Node3 -->
<g id="edge3" class="edge"><title>Node0&#45;&gt;Node3</title>
<path fill="none" stroke="midnightblue" d="M275,-56.4979C275,-48.0653 275,-38.2351 275,-29.874"/>
<polygon fill="midnightblue" stroke="midnightblue" points="278.5,-29.6525 275,-19.6525 271.5,-29.6525 278.5,-29.6525"/>
</g>
<!-- Node4 -->
<g id="node5" class="node"><title>Node4</title>
<polygon fill="white" stroke="#bfbfbf" points="331,-0.5 331,-19.5 383,-19.5 383,-0.5 331,-0.5"/>
<text text-anchor="middle" x="357" y="-7.5" font-family="Helvetica,sans-Serif" font-size="10.00">memory</text>
</g>
<!-- Node0&#45;&gt;Node4 -->
<g id="edge4" class="edge"><title>Node0&#45;&gt;Node4</title>
<path fill="none" stroke="midnightblue" d="M299.603,-56.4979C311.933,-46.7238 326.632,-35.0719 338.069,-26.0066"/>
<polygon fill="midnightblue" stroke="midnightblue" points="340.422,-28.6073 346.085,-19.6525 336.074,-23.1216 340.422,-28.6073"/>
</g>
<!-- Node5 -->
<g id="node6" class="node"><title>Node5</title>
<polygon fill="white" stroke="#bfbfbf" points="401,-0.5 401,-19.5 487,-19.5 487,-0.5 401,-0.5"/>
<text text-anchor="middle" x="444" y="-7.5" font-family="Helvetica,sans-Serif" font-size="10.00">user_interface.h</text>
</g>
<!-- Node0&#45;&gt;Node5 -->
<g id="edge5" class="edge"><title>Node0&#45;&gt;Node5</title>
<path fill="none" stroke="midnightblue" d="M325.706,-56.4979C353.734,-45.7176 387.702,-32.6531 412.035,-23.2941"/>
<polygon fill="midnightblue" stroke="midnightblue" points="413.427,-26.5091 421.504,-19.6525 410.914,-19.9756 413.427,-26.5091"/>
</g>
</g>
</svg>
