<?xml version="1.0" encoding="UTF-8" standalone="no"?>
<!DOCTYPE svg PUBLIC "-//W3C//DTD SVG 1.1//EN"
 "http://www.w3.org/Graphics/SVG/1.1/DTD/svg11.dtd">
<!-- Generated by graphviz version 2.38.0 (20140413.2041)
 -->
<!-- Title: CoolWifi::connect Pages: 1 -->
<svg width="683pt" height="142pt"
 viewBox="0.00 0.00 683.00 142.00" xmlns="http://www.w3.org/2000/svg" xmlns:xlink="http://www.w3.org/1999/xlink">
<g id="graph0" class="graph" transform="scale(1 1) rotate(0) translate(4 138)">
<title>CoolWifi::connect</title>
<polygon fill="white" stroke="none" points="-4,4 -4,-138 679,-138 679,4 -4,4"/>
<!-- Node15 -->
<g id="node1" class="node"><title>Node15</title>
<polygon fill="#bfbfbf" stroke="black" points="0,-76.5 0,-95.5 95,-95.5 95,-76.5 0,-76.5"/>
<text text-anchor="middle" x="47.5" y="-83.5" font-family="Helvetica,sans-Serif" font-size="10.00">CoolWifi::connect</text>
</g>
<!-- Node16 -->
<g id="node2" class="node"><title>Node16</title>
<g id="a_node2"><a xlink:href="$class_cool_wifi.html#a419de92d738f14b7444cf822b3ab0070" xlink:title="CoolWifi::connectWifiMulti">
<polygon fill="white" stroke="black" points="131,-95.5 131,-114.5 264,-114.5 264,-95.5 131,-95.5"/>
<text text-anchor="middle" x="197.5" y="-102.5" font-family="Helvetica,sans-Serif" font-size="10.00">CoolWifi::connectWifiMulti</text>
</a>
</g>
</g>
<!-- Node15&#45;&gt;Node16 -->
<g id="edge1" class="edge"><title>Node15&#45;&gt;Node16</title>
<path fill="none" stroke="midnightblue" d="M95.3281,-92.0117C103.424,-93.051 112.023,-94.155 120.656,-95.2632"/>
<polygon fill="midnightblue" stroke="midnightblue" points="120.413,-98.7607 130.777,-96.5626 121.304,-91.8177 120.413,-98.7607"/>
</g>
<!-- Node17 -->
<g id="node3" class="node"><title>Node17</title>
<g id="a_node3"><a xlink:href="$class_cool_wifi.html#a7c857f27161782f5ef1d62d552aff971" xlink:title="CoolWifi::connectAP">
<polygon fill="white" stroke="black" points="143.5,-57.5 143.5,-76.5 251.5,-76.5 251.5,-57.5 143.5,-57.5"/>
<text text-anchor="middle" x="197.5" y="-64.5" font-family="Helvetica,sans-Serif" font-size="10.00">CoolWifi::connectAP</text>
</a>
</g>
</g>
<!-- Node15&#45;&gt;Node17 -->
<g id="edge2" class="edge"><title>Node15&#45;&gt;Node17</title>
<path fill="none" stroke="midnightblue" d="M95.3281,-79.9883C107.356,-78.4441 120.497,-76.7572 133.206,-75.1255"/>
<polygon fill="midnightblue" stroke="midnightblue" points="133.805,-78.5775 143.278,-73.8326 132.913,-71.6345 133.805,-78.5775"/>
</g>
<!-- Node18 -->
<g id="node4" class="node"><title>Node18</title>
<g id="a_node4"><a xlink:href="$class_wi_fi_manager.html#a4dd1dbf4f22900f226a3897b88155212" xlink:title="WiFiManager::setRemoveDuplicateAPs">
<polygon fill="white" stroke="black" points="300,-114.5 300,-133.5 491,-133.5 491,-114.5 300,-114.5"/>
<text text-anchor="middle" x="395.5" y="-121.5" font-family="Helvetica,sans-Serif" font-size="10.00">WiFiManager::setRemoveDuplicateAPs</text>
</a>
</g>
</g>
<!-- Node17&#45;&gt;Node18 -->
<g id="edge3" class="edge"><title>Node17&#45;&gt;Node18</title>
<path fill="none" stroke="midnightblue" d="M236.355,-76.5618C245.528,-79.2655 255.218,-82.4516 264,-86 280.774,-92.7773 282.956,-98.9323 300,-105 307.622,-107.713 315.735,-110.079 323.882,-112.133"/>
<polygon fill="midnightblue" stroke="midnightblue" points="323.268,-115.584 333.805,-114.484 324.882,-108.773 323.268,-115.584"/>
</g>
<!-- Node19 -->
<g id="node5" class="node"><title>Node19</title>
<g id="a_node5"><a xlink:href="$class_wi_fi_manager.html#aa6493d59c284ff245edb767ff684756d" xlink:title="WiFiManager::setTimeout">
<polygon fill="white" stroke="black" points="331,-76.5 331,-95.5 460,-95.5 460,-76.5 331,-76.5"/>
<text text-anchor="middle" x="395.5" y="-83.5" font-family="Helvetica,sans-Serif" font-size="10.00">WiFiManager::setTimeout</text>
</a>
</g>
</g>
<!-- Node17&#45;&gt;Node19 -->
<g id="edge4" class="edge"><title>Node17&#45;&gt;Node19</title>
<path fill="none" stroke="midnightblue" d="M251.54,-72.1417C272.872,-74.2095 297.832,-76.6291 320.873,-78.8627"/>
<polygon fill="midnightblue" stroke="midnightblue" points="320.666,-82.359 330.957,-79.8403 321.342,-75.3916 320.666,-82.359"/>
</g>
<!-- Node21 -->
<g id="node7" class="node"><title>Node21</title>
<g id="a_node7"><a xlink:href="$class_wi_fi_manager.html#ae3cdfa6b02edcfe63d7da4f696b62136" xlink:title="WiFiManager::autoConnect">
<polygon fill="white" stroke="black" points="327.5,-38.5 327.5,-57.5 463.5,-57.5 463.5,-38.5 327.5,-38.5"/>
<text text-anchor="middle" x="395.5" y="-45.5" font-family="Helvetica,sans-Serif" font-size="10.00">WiFiManager::autoConnect</text>
</a>
</g>
</g>
<!-- Node17&#45;&gt;Node21 -->
<g id="edge6" class="edge"><title>Node17&#45;&gt;Node21</title>
<path fill="none" stroke="midnightblue" d="M251.54,-61.8583C271.793,-59.895 295.317,-57.6147 317.363,-55.4776"/>
<polygon fill="midnightblue" stroke="midnightblue" points="317.756,-58.956 327.371,-54.5074 317.08,-51.9887 317.756,-58.956"/>
</g>
<!-- Node22 -->
<g id="node8" class="node"><title>Node22</title>
<g id="a_node8"><a xlink:href="$class_cool_wifi.html#a914d7a1df14dd6b75345fb614c34e9d6" xlink:title="CoolWifi::addWifi">
<polygon fill="white" stroke="black" points="349,-0.5 349,-19.5 442,-19.5 442,-0.5 349,-0.5"/>
<text text-anchor="middle" x="395.5" y="-7.5" font-family="Helvetica,sans-Serif" font-size="10.00">CoolWifi::addWifi</text>
</a>
</g>
</g>
<!-- Node17&#45;&gt;Node22 -->
<g id="edge7" class="edge"><title>Node17&#45;&gt;Node22</title>
<path fill="none" stroke="midnightblue" d="M221.128,-57.3368C241.471,-48.9379 272.319,-36.9094 300,-29 312.443,-25.4447 325.991,-22.3036 338.841,-19.651"/>
<polygon fill="midnightblue" stroke="midnightblue" points="339.842,-23.0203 348.963,-17.6297 338.471,-16.1558 339.842,-23.0203"/>
</g>
<!-- Node20 -->
<g id="node6" class="node"><title>Node20</title>
<g id="a_node6"><a xlink:href="$class_wi_fi_manager.html#a904006cb4d2c769e93bfdef336853766" xlink:title="WiFiManager::setConfigPortal\lTimeout">
<polygon fill="white" stroke="black" points="527,-71 527,-101 675,-101 675,-71 527,-71"/>
<text text-anchor="start" x="535" y="-89" font-family="Helvetica,sans-Serif" font-size="10.00">WiFiManager::setConfigPortal</text>
<text text-anchor="middle" x="601" y="-78" font-family="Helvetica,sans-Serif" font-size="10.00">Timeout</text>
</a>
</g>
</g>
<!-- Node19&#45;&gt;Node20 -->
<g id="edge5" class="edge"><title>Node19&#45;&gt;Node20</title>
<path fill="none" stroke="midnightblue" d="M460.052,-86C478.043,-86 497.898,-86 516.861,-86"/>
<polygon fill="midnightblue" stroke="midnightblue" points="516.982,-89.5001 526.982,-86 516.982,-82.5001 516.982,-89.5001"/>
</g>
</g>
</svg>
