<?xml version="1.0" encoding="UTF-8" standalone="no"?>
<!DOCTYPE svg PUBLIC "-//W3C//DTD SVG 1.1//EN"
 "http://www.w3.org/Graphics/SVG/1.1/DTD/svg11.dtd">
<!-- Generated by graphviz version 2.38.0 (20140413.2041)
 -->
<!-- Title: Jetpack::mixedTemporalActionOn Pages: 1 -->
<svg width="461pt" height="66pt"
 viewBox="0.00 0.00 461.00 66.00" xmlns="http://www.w3.org/2000/svg" xmlns:xlink="http://www.w3.org/1999/xlink">
<g id="graph0" class="graph" transform="scale(1 1) rotate(0) translate(4 62)">
<title>Jetpack::mixedTemporalActionOn</title>
<polygon fill="white" stroke="none" points="-4,4 -4,-62 457,-62 457,4 -4,4"/>
<!-- Node64 -->
<g id="node1" class="node"><title>Node64</title>
<polygon fill="#bfbfbf" stroke="black" points="0,-19.5 0,-38.5 164,-38.5 164,-19.5 0,-19.5"/>
<text text-anchor="middle" x="82" y="-26.5" font-family="Helvetica,sans-Serif" font-size="10.00">Jetpack::mixedTemporalActionOn</text>
</g>
<!-- Node65 -->
<g id="node2" class="node"><title>Node65</title>
<g id="a_node2"><a xlink:href="$class_jetpack.html#af9acedb606340c26c2636c282b54dff1" xlink:title="Jetpack::doAction">
<polygon fill="white" stroke="black" points="200,-19.5 200,-38.5 295,-38.5 295,-19.5 200,-19.5"/>
<text text-anchor="middle" x="247.5" y="-26.5" font-family="Helvetica,sans-Serif" font-size="10.00">Jetpack::doAction</text>
</a>
</g>
</g>
<!-- Node64&#45;&gt;Node65 -->
<g id="edge1" class="edge"><title>Node64&#45;&gt;Node65</title>
<path fill="none" stroke="midnightblue" d="M174.529,-29C183.229,-29 191.779,-29 199.777,-29"/>
<polygon fill="midnightblue" stroke="midnightblue" points="174.271,-25.5001 164.271,-29 174.271,-32.5001 174.271,-25.5001"/>
</g>
<!-- Node66 -->
<g id="node3" class="node"><title>Node66</title>
<g id="a_node3"><a xlink:href="$class_cool_board.html#aa0bbc4bc605e35618d18e68795c61363" xlink:title="CoolBoard::onLineMode">
<polygon fill="white" stroke="black" points="331.5,-38.5 331.5,-57.5 452.5,-57.5 452.5,-38.5 331.5,-38.5"/>
<text text-anchor="middle" x="392" y="-45.5" font-family="Helvetica,sans-Serif" font-size="10.00">CoolBoard::onLineMode</text>
</a>
</g>
</g>
<!-- Node65&#45;&gt;Node66 -->
<g id="edge2" class="edge"><title>Node65&#45;&gt;Node66</title>
<path fill="none" stroke="midnightblue" d="M305.157,-36.5542C313.818,-37.709 322.779,-38.9039 331.499,-40.0666"/>
<polygon fill="midnightblue" stroke="midnightblue" points="305.535,-33.0737 295.16,-35.2213 304.61,-40.0123 305.535,-33.0737"/>
</g>
<!-- Node67 -->
<g id="node4" class="node"><title>Node67</title>
<g id="a_node4"><a xlink:href="$class_cool_board.html#ae6b5e1274d760462290192acea4adca8" xlink:title="CoolBoard::offLineMode">
<polygon fill="white" stroke="black" points="331,-0.5 331,-19.5 453,-19.5 453,-0.5 331,-0.5"/>
<text text-anchor="middle" x="392" y="-7.5" font-family="Helvetica,sans-Serif" font-size="10.00">CoolBoard::offLineMode</text>
</a>
</g>
</g>
<!-- Node65&#45;&gt;Node67 -->
<g id="edge3" class="edge"><title>Node65&#45;&gt;Node67</title>
<path fill="none" stroke="midnightblue" d="M305.293,-21.4276C313.743,-20.3009 322.476,-19.1365 330.99,-18.0014"/>
<polygon fill="midnightblue" stroke="midnightblue" points="304.61,-17.9877 295.16,-22.7787 305.535,-24.9263 304.61,-17.9877"/>
</g>
</g>
</svg>
