<?xml version="1.0" encoding="UTF-8" standalone="no"?>
<!DOCTYPE svg PUBLIC "-//W3C//DTD SVG 1.1//EN"
 "http://www.w3.org/Graphics/SVG/1.1/DTD/svg11.dtd">
<!-- Generated by graphviz version 2.38.0 (20140413.2041)
 -->
<!-- Title: CoolWifi::connectAP Pages: 1 -->
<svg width="527pt" height="142pt"
 viewBox="0.00 0.00 527.00 142.00" xmlns="http://www.w3.org/2000/svg" xmlns:xlink="http://www.w3.org/1999/xlink">
<g id="graph0" class="graph" transform="scale(1 1) rotate(0) translate(4 138)">
<title>CoolWifi::connectAP</title>
<polygon fill="white" stroke="none" points="-4,4 -4,-138 523,-138 523,4 -4,4"/>
<!-- Node27 -->
<g id="node1" class="node"><title>Node27</title>
<polygon fill="#bfbfbf" stroke="black" points="0,-57.5 0,-76.5 108,-76.5 108,-57.5 0,-57.5"/>
<text text-anchor="middle" x="54" y="-64.5" font-family="Helvetica,sans-Serif" font-size="10.00">CoolWifi::connectAP</text>
</g>
<!-- Node28 -->
<g id="node2" class="node"><title>Node28</title>
<g id="a_node2"><a xlink:href="$class_wi_fi_manager.html#a4dd1dbf4f22900f226a3897b88155212" xlink:title="WiFiManager::setRemoveDuplicateAPs">
<polygon fill="white" stroke="black" points="144,-114.5 144,-133.5 335,-133.5 335,-114.5 144,-114.5"/>
<text text-anchor="middle" x="239.5" y="-121.5" font-family="Helvetica,sans-Serif" font-size="10.00">WiFiManager::setRemoveDuplicateAPs</text>
</a>
</g>
</g>
<!-- Node27&#45;&gt;Node28 -->
<g id="edge1" class="edge"><title>Node27&#45;&gt;Node28</title>
<path fill="none" stroke="midnightblue" d="M74.3594,-76.6376C92.1019,-85.1365 119.29,-97.3298 144,-105 152.744,-107.714 162.067,-110.136 171.322,-112.267"/>
<polygon fill="midnightblue" stroke="midnightblue" points="170.788,-115.733 181.307,-114.464 172.293,-108.896 170.788,-115.733"/>
</g>
<!-- Node29 -->
<g id="node3" class="node"><title>Node29</title>
<g id="a_node3"><a xlink:href="$class_wi_fi_manager.html#aa6493d59c284ff245edb767ff684756d" xlink:title="WiFiManager::setTimeout">
<polygon fill="white" stroke="black" points="175,-76.5 175,-95.5 304,-95.5 304,-76.5 175,-76.5"/>
<text text-anchor="middle" x="239.5" y="-83.5" font-family="Helvetica,sans-Serif" font-size="10.00">WiFiManager::setTimeout</text>
</a>
</g>
</g>
<!-- Node27&#45;&gt;Node29 -->
<g id="edge2" class="edge"><title>Node27&#45;&gt;Node29</title>
<path fill="none" stroke="midnightblue" d="M108.076,-72.4956C125.751,-74.3257 145.771,-76.3986 164.725,-78.3612"/>
<polygon fill="midnightblue" stroke="midnightblue" points="164.514,-81.858 174.822,-79.4066 165.235,-74.8952 164.514,-81.858"/>
</g>
<!-- Node31 -->
<g id="node5" class="node"><title>Node31</title>
<g id="a_node5"><a xlink:href="$class_wi_fi_manager.html#ae3cdfa6b02edcfe63d7da4f696b62136" xlink:title="WiFiManager::autoConnect">
<polygon fill="white" stroke="black" points="171.5,-38.5 171.5,-57.5 307.5,-57.5 307.5,-38.5 171.5,-38.5"/>
<text text-anchor="middle" x="239.5" y="-45.5" font-family="Helvetica,sans-Serif" font-size="10.00">WiFiManager::autoConnect</text>
</a>
</g>
</g>
<!-- Node27&#45;&gt;Node31 -->
<g id="edge4" class="edge"><title>Node27&#45;&gt;Node31</title>
<path fill="none" stroke="midnightblue" d="M108.076,-61.5044C124.699,-59.7832 143.396,-57.8472 161.33,-55.9903"/>
<polygon fill="midnightblue" stroke="midnightblue" points="161.901,-59.45 171.488,-54.9386 161.18,-52.4872 161.901,-59.45"/>
</g>
<!-- Node32 -->
<g id="node6" class="node"><title>Node32</title>
<g id="a_node6"><a xlink:href="$class_cool_wifi.html#a914d7a1df14dd6b75345fb614c34e9d6" xlink:title="CoolWifi::addWifi">
<polygon fill="white" stroke="black" points="193,-0.5 193,-19.5 286,-19.5 286,-0.5 193,-0.5"/>
<text text-anchor="middle" x="239.5" y="-7.5" font-family="Helvetica,sans-Serif" font-size="10.00">CoolWifi::addWifi</text>
</a>
</g>
</g>
<!-- Node27&#45;&gt;Node32 -->
<g id="edge5" class="edge"><title>Node27&#45;&gt;Node32</title>
<path fill="none" stroke="midnightblue" d="M74.3594,-57.3624C92.1019,-48.8635 119.29,-36.6702 144,-29 156.359,-25.1638 169.874,-21.9115 182.719,-19.2405"/>
<polygon fill="midnightblue" stroke="midnightblue" points="183.719,-22.6101 192.842,-17.2229 182.35,-15.7451 183.719,-22.6101"/>
</g>
<!-- Node30 -->
<g id="node4" class="node"><title>Node30</title>
<g id="a_node4"><a xlink:href="$class_wi_fi_manager.html#a904006cb4d2c769e93bfdef336853766" xlink:title="WiFiManager::setConfigPortal\lTimeout">
<polygon fill="white" stroke="black" points="371,-71 371,-101 519,-101 519,-71 371,-71"/>
<text text-anchor="start" x="379" y="-89" font-family="Helvetica,sans-Serif" font-size="10.00">WiFiManager::setConfigPortal</text>
<text text-anchor="middle" x="445" y="-78" font-family="Helvetica,sans-Serif" font-size="10.00">Timeout</text>
</a>
</g>
</g>
<!-- Node29&#45;&gt;Node30 -->
<g id="edge3" class="edge"><title>Node29&#45;&gt;Node30</title>
<path fill="none" stroke="midnightblue" d="M304.052,-86C322.043,-86 341.898,-86 360.861,-86"/>
<polygon fill="midnightblue" stroke="midnightblue" points="360.982,-89.5001 370.982,-86 360.982,-82.5001 360.982,-89.5001"/>
</g>
</g>
</svg>
