<?xml version="1.0" encoding="UTF-8" standalone="no"?>
<!DOCTYPE svg PUBLIC "-//W3C//DTD SVG 1.1//EN"
 "http://www.w3.org/Graphics/SVG/1.1/DTD/svg11.dtd">
<!-- Generated by graphviz version 2.38.0 (20140413.2041)
 -->
<!-- Title: WiFiManager::waitForConnectResult Pages: 1 -->
<svg width="497pt" height="78pt"
 viewBox="0.00 0.00 497.00 77.50" xmlns="http://www.w3.org/2000/svg" xmlns:xlink="http://www.w3.org/1999/xlink">
<g id="graph0" class="graph" transform="scale(1 1) rotate(0) translate(4 73.5)">
<title>WiFiManager::waitForConnectResult</title>
<polygon fill="white" stroke="none" points="-4,4 -4,-73.5 493,-73.5 493,4 -4,4"/>
<!-- Node230 -->
<g id="node1" class="node"><title>Node230</title>
<polygon fill="#bfbfbf" stroke="black" points="0,-22.5 0,-52.5 149,-52.5 149,-22.5 0,-22.5"/>
<text text-anchor="start" x="8" y="-40.5" font-family="Helvetica,sans-Serif" font-size="10.00">WiFiManager::waitForConnect</text>
<text text-anchor="middle" x="74.5" y="-29.5" font-family="Helvetica,sans-Serif" font-size="10.00">Result</text>
</g>
<!-- Node231 -->
<g id="node2" class="node"><title>Node231</title>
<g id="a_node2"><a xlink:href="$class_wi_fi_manager.html#ae0ae27b5543b47585728c084c3bbdca7" xlink:title="WiFiManager::connectWifi">
<polygon fill="white" stroke="black" points="185,-28 185,-47 317,-47 317,-28 185,-28"/>
<text text-anchor="middle" x="251" y="-35" font-family="Helvetica,sans-Serif" font-size="10.00">WiFiManager::connectWifi</text>
</a>
</g>
</g>
<!-- Node230&#45;&gt;Node231 -->
<g id="edge1" class="edge"><title>Node230&#45;&gt;Node231</title>
<path fill="none" stroke="midnightblue" d="M159.279,-37.5C167.855,-37.5 176.477,-37.5 184.811,-37.5"/>
<polygon fill="midnightblue" stroke="midnightblue" points="159.251,-34.0001 149.251,-37.5 159.251,-41.0001 159.251,-34.0001"/>
</g>
<!-- Node232 -->
<g id="node3" class="node"><title>Node232</title>
<g id="a_node3"><a xlink:href="$class_wi_fi_manager.html#ab1d094034e5e3e36e2e1b3624edad469" xlink:title="WiFiManager::autoConnect">
<polygon fill="white" stroke="black" points="353,-50 353,-69 489,-69 489,-50 353,-50"/>
<text text-anchor="middle" x="421" y="-57" font-family="Helvetica,sans-Serif" font-size="10.00">WiFiManager::autoConnect</text>
</a>
</g>
</g>
<!-- Node231&#45;&gt;Node232 -->
<g id="edge2" class="edge"><title>Node231&#45;&gt;Node232</title>
<path fill="none" stroke="midnightblue" d="M327.603,-47.4004C336.004,-48.5006 344.519,-49.6156 352.806,-50.7008"/>
<polygon fill="midnightblue" stroke="midnightblue" points="327.804,-43.8969 317.434,-46.0688 326.895,-50.8377 327.804,-43.8969"/>
</g>
<!-- Node233 -->
<g id="node4" class="node"><title>Node233</title>
<g id="a_node4"><a xlink:href="$class_wi_fi_manager.html#afaca5021edffb4d9a5bd39f7b0f7a686" xlink:title="WiFiManager::startConfig\lPortal">
<polygon fill="white" stroke="black" points="357,-0.5 357,-30.5 485,-30.5 485,-0.5 357,-0.5"/>
<text text-anchor="start" x="365" y="-18.5" font-family="Helvetica,sans-Serif" font-size="10.00">WiFiManager::startConfig</text>
<text text-anchor="middle" x="421" y="-7.5" font-family="Helvetica,sans-Serif" font-size="10.00">Portal</text>
</a>
</g>
</g>
<!-- Node231&#45;&gt;Node233 -->
<g id="edge3" class="edge"><title>Node231&#45;&gt;Node233</title>
<path fill="none" stroke="midnightblue" d="M327.583,-27.6022C337.398,-26.317 347.367,-25.0114 356.948,-23.7568"/>
<polygon fill="midnightblue" stroke="midnightblue" points="326.895,-24.1623 317.434,-28.9312 327.804,-31.1031 326.895,-24.1623"/>
</g>
</g>
</svg>
