<?xml version="1.0" encoding="UTF-8" standalone="no"?>
<!DOCTYPE svg PUBLIC "-//W3C//DTD SVG 1.1//EN"
 "http://www.w3.org/Graphics/SVG/1.1/DTD/svg11.dtd">
<!-- Generated by graphviz version 2.38.0 (20140413.2041)
 -->
<!-- Title: Irene3000::read Pages: 1 -->
<svg width="409pt" height="66pt"
 viewBox="0.00 0.00 409.00 66.00" xmlns="http://www.w3.org/2000/svg" xmlns:xlink="http://www.w3.org/1999/xlink">
<g id="graph0" class="graph" transform="scale(1 1) rotate(0) translate(4 62)">
<title>Irene3000::read</title>
<polygon fill="white" stroke="none" points="-4,4 -4,-62 405,-62 405,4 -4,4"/>
<!-- Node74 -->
<g id="node1" class="node"><title>Node74</title>
<polygon fill="#bfbfbf" stroke="black" points="0,-19.5 0,-38.5 84,-38.5 84,-19.5 0,-19.5"/>
<text text-anchor="middle" x="42" y="-26.5" font-family="Helvetica,sans-Serif" font-size="10.00">Irene3000::read</text>
</g>
<!-- Node75 -->
<g id="node2" class="node"><title>Node75</title>
<g id="a_node2"><a xlink:href="$class_cool_board.html#ad03abdce2e65f520bbf2cff0f2d083cf" xlink:title="CoolBoard::readSensors">
<polygon fill="white" stroke="black" points="120,-19.5 120,-38.5 243,-38.5 243,-19.5 120,-19.5"/>
<text text-anchor="middle" x="181.5" y="-26.5" font-family="Helvetica,sans-Serif" font-size="10.00">CoolBoard::readSensors</text>
</a>
</g>
</g>
<!-- Node74&#45;&gt;Node75 -->
<g id="edge1" class="edge"><title>Node74&#45;&gt;Node75</title>
<path fill="none" stroke="midnightblue" d="M94.5292,-29C102.823,-29 111.474,-29 119.956,-29"/>
<polygon fill="midnightblue" stroke="midnightblue" points="94.2546,-25.5001 84.2545,-29 94.2545,-32.5001 94.2546,-25.5001"/>
</g>
<!-- Node76 -->
<g id="node3" class="node"><title>Node76</title>
<g id="a_node3"><a xlink:href="$class_cool_board.html#aa0bbc4bc605e35618d18e68795c61363" xlink:title="CoolBoard::onLineMode">
<polygon fill="white" stroke="black" points="279.5,-38.5 279.5,-57.5 400.5,-57.5 400.5,-38.5 279.5,-38.5"/>
<text text-anchor="middle" x="340" y="-45.5" font-family="Helvetica,sans-Serif" font-size="10.00">CoolBoard::onLineMode</text>
</a>
</g>
</g>
<!-- Node75&#45;&gt;Node76 -->
<g id="edge2" class="edge"><title>Node75&#45;&gt;Node76</title>
<path fill="none" stroke="midnightblue" d="M253.207,-37.5842C261.968,-38.6478 270.856,-39.7269 279.427,-40.7675"/>
<polygon fill="midnightblue" stroke="midnightblue" points="253.356,-34.0767 243.007,-36.3459 252.512,-41.0257 253.356,-34.0767"/>
</g>
<!-- Node77 -->
<g id="node4" class="node"><title>Node77</title>
<g id="a_node4"><a xlink:href="$class_cool_board.html#ae6b5e1274d760462290192acea4adca8" xlink:title="CoolBoard::offLineMode">
<polygon fill="white" stroke="black" points="279,-0.5 279,-19.5 401,-19.5 401,-0.5 279,-0.5"/>
<text text-anchor="middle" x="340" y="-7.5" font-family="Helvetica,sans-Serif" font-size="10.00">CoolBoard::offLineMode</text>
</a>
</g>
</g>
<!-- Node75&#45;&gt;Node77 -->
<g id="edge3" class="edge"><title>Node75&#45;&gt;Node77</title>
<path fill="none" stroke="midnightblue" d="M253.059,-20.4338C261.692,-19.3856 270.452,-18.3221 278.912,-17.2951"/>
<polygon fill="midnightblue" stroke="midnightblue" points="252.512,-16.9743 243.007,-21.6541 253.356,-23.9233 252.512,-16.9743"/>
</g>
</g>
</svg>
