<?xml version="1.0" encoding="UTF-8" standalone="no"?>
<!DOCTYPE svg PUBLIC "-//W3C//DTD SVG 1.1//EN"
 "http://www.w3.org/Graphics/SVG/1.1/DTD/svg11.dtd">
<!-- Generated by graphviz version 2.38.0 (20140413.2041)
 -->
<!-- Title: CoolBoard::sendConfig Pages: 1 -->
<svg width="809pt" height="85pt"
 viewBox="0.00 0.00 809.00 85.00" xmlns="http://www.w3.org/2000/svg" xmlns:xlink="http://www.w3.org/1999/xlink">
<g id="graph0" class="graph" transform="scale(1 1) rotate(0) translate(4 81)">
<title>CoolBoard::sendConfig</title>
<polygon fill="white" stroke="none" points="-4,4 -4,-81 805,-81 805,4 -4,4"/>
<!-- Node369 -->
<g id="node1" class="node"><title>Node369</title>
<polygon fill="#bfbfbf" stroke="black" points="0,-38.5 0,-57.5 118,-57.5 118,-38.5 0,-38.5"/>
<text text-anchor="middle" x="59" y="-45.5" font-family="Helvetica,sans-Serif" font-size="10.00">CoolBoard::sendConfig</text>
</g>
<!-- Node370 -->
<g id="node2" class="node"><title>Node370</title>
<g id="a_node2"><a xlink:href="$class_cool_m_q_t_t.html#ace977b3e90ab14b1199fe5c4fb0a13ec" xlink:title="CoolMQTT::publish">
<polygon fill="white" stroke="black" points="159,-57.5 159,-76.5 260,-76.5 260,-57.5 159,-57.5"/>
<text text-anchor="middle" x="209.5" y="-64.5" font-family="Helvetica,sans-Serif" font-size="10.00">CoolMQTT::publish</text>
</a>
</g>
</g>
<!-- Node369&#45;&gt;Node370 -->
<g id="edge1" class="edge"><title>Node369&#45;&gt;Node370</title>
<path fill="none" stroke="midnightblue" d="M118.265,-55.4548C128.155,-56.7202 138.443,-58.0365 148.38,-59.3079"/>
<polygon fill="midnightblue" stroke="midnightblue" points="148.214,-62.8151 158.577,-60.6126 149.102,-55.8717 148.214,-62.8151"/>
</g>
<!-- Node372 -->
<g id="node4" class="node"><title>Node372</title>
<g id="a_node4"><a xlink:href="$class_cool_m_q_t_t.html#aa5eaae967b562b62cbcf2b8d81f6e5d5" xlink:title="CoolMQTT::mqttLoop">
<polygon fill="white" stroke="black" points="154,-19.5 154,-38.5 265,-38.5 265,-19.5 154,-19.5"/>
<text text-anchor="middle" x="209.5" y="-26.5" font-family="Helvetica,sans-Serif" font-size="10.00">CoolMQTT::mqttLoop</text>
</a>
</g>
</g>
<!-- Node369&#45;&gt;Node372 -->
<g id="edge3" class="edge"><title>Node369&#45;&gt;Node372</title>
<path fill="none" stroke="midnightblue" d="M118.265,-40.5452C126.584,-39.4809 135.183,-38.3806 143.619,-37.3013"/>
<polygon fill="midnightblue" stroke="midnightblue" points="144.322,-40.7399 153.797,-35.999 143.434,-33.7965 144.322,-40.7399"/>
</g>
<!-- Node371 -->
<g id="node3" class="node"><title>Node371</title>
<g id="a_node3"><a xlink:href="$class_cool_pub_sub_client.html#ab6ad5fa2d3db8f91454027257f225a89" xlink:title="CoolPubSubClient::publish">
<polygon fill="white" stroke="black" points="301,-57.5 301,-76.5 435,-76.5 435,-57.5 301,-57.5"/>
<text text-anchor="middle" x="368" y="-64.5" font-family="Helvetica,sans-Serif" font-size="10.00">CoolPubSubClient::publish</text>
</a>
</g>
</g>
<!-- Node370&#45;&gt;Node371 -->
<g id="edge2" class="edge"><title>Node370&#45;&gt;Node371</title>
<path fill="none" stroke="midnightblue" d="M260.018,-67C269.858,-67 280.402,-67 290.894,-67"/>
<polygon fill="midnightblue" stroke="midnightblue" points="290.913,-70.5001 300.913,-67 290.913,-63.5001 290.913,-70.5001"/>
</g>
<!-- Node373 -->
<g id="node5" class="node"><title>Node373</title>
<g id="a_node5"><a xlink:href="$class_cool_pub_sub_client.html#afc15900f0fc4886a19394508e61793b8" xlink:title="CoolPubSubClient::loop">
<polygon fill="white" stroke="black" points="307.5,-19.5 307.5,-38.5 428.5,-38.5 428.5,-19.5 307.5,-19.5"/>
<text text-anchor="middle" x="368" y="-26.5" font-family="Helvetica,sans-Serif" font-size="10.00">CoolPubSubClient::loop</text>
</a>
</g>
</g>
<!-- Node372&#45;&gt;Node373 -->
<g id="edge4" class="edge"><title>Node372&#45;&gt;Node373</title>
<path fill="none" stroke="midnightblue" d="M265.236,-29C275.59,-29 286.549,-29 297.29,-29"/>
<polygon fill="midnightblue" stroke="midnightblue" points="297.496,-32.5001 307.496,-29 297.496,-25.5001 297.496,-32.5001"/>
</g>
<!-- Node374 -->
<g id="node6" class="node"><title>Node374</title>
<g id="a_node6"><a xlink:href="$class_cool_pub_sub_client.html#a3d5a5da4ddb1e5c1bea64d80c665d148" xlink:title="CoolPubSubClient::connected">
<polygon fill="white" stroke="black" points="473,-38.5 473,-57.5 621,-57.5 621,-38.5 473,-38.5"/>
<text text-anchor="middle" x="547" y="-45.5" font-family="Helvetica,sans-Serif" font-size="10.00">CoolPubSubClient::connected</text>
</a>
</g>
</g>
<!-- Node373&#45;&gt;Node374 -->
<g id="edge5" class="edge"><title>Node373&#45;&gt;Node374</title>
<path fill="none" stroke="midnightblue" d="M428.924,-35.4325C439.861,-36.6066 451.451,-37.8507 462.919,-39.0817"/>
<polygon fill="midnightblue" stroke="midnightblue" points="462.629,-42.5706 472.945,-40.158 463.376,-35.6106 462.629,-42.5706"/>
</g>
<!-- Node375 -->
<g id="node7" class="node"><title>Node375</title>
<g id="a_node7"><a xlink:href="$class_cool_pub_sub_client.html#a25a8779149cfa809b7c06f63568b25cf" xlink:title="CoolPubSubClient::readPacket">
<polygon fill="white" stroke="black" points="471,-0.5 471,-19.5 623,-19.5 623,-0.5 471,-0.5"/>
<text text-anchor="middle" x="547" y="-7.5" font-family="Helvetica,sans-Serif" font-size="10.00">CoolPubSubClient::readPacket</text>
</a>
</g>
</g>
<!-- Node373&#45;&gt;Node375 -->
<g id="edge6" class="edge"><title>Node373&#45;&gt;Node375</title>
<path fill="none" stroke="midnightblue" d="M428.924,-22.5675C439.108,-21.4742 449.858,-20.3203 460.549,-19.1727"/>
<polygon fill="midnightblue" stroke="midnightblue" points="461.19,-22.6241 470.76,-18.0767 460.443,-15.664 461.19,-22.6241"/>
</g>
<!-- Node376 -->
<g id="node8" class="node"><title>Node376</title>
<g id="a_node8"><a xlink:href="$class_cool_pub_sub_client.html#ad409bbd287d5894f0cf082f62446c002" xlink:title="CoolPubSubClient::readByte">
<polygon fill="white" stroke="black" points="659,-0.5 659,-19.5 801,-19.5 801,-0.5 659,-0.5"/>
<text text-anchor="middle" x="730" y="-7.5" font-family="Helvetica,sans-Serif" font-size="10.00">CoolPubSubClient::readByte</text>
</a>
</g>
</g>
<!-- Node375&#45;&gt;Node376 -->
<g id="edge7" class="edge"><title>Node375&#45;&gt;Node376</title>
<path fill="none" stroke="midnightblue" d="M623.188,-10C631.612,-10 640.219,-10 648.704,-10"/>
<polygon fill="midnightblue" stroke="midnightblue" points="648.974,-13.5001 658.974,-10 648.974,-6.5001 648.974,-13.5001"/>
</g>
</g>
</svg>
