<?xml version="1.0" encoding="UTF-8" standalone="no"?>
<!DOCTYPE svg PUBLIC "-//W3C//DTD SVG 1.1//EN"
 "http://www.w3.org/Graphics/SVG/1.1/DTD/svg11.dtd">
<!-- Generated by graphviz version 2.38.0 (20140413.2041)
 -->
<!-- Title: CoolPubSubClient::readByte Pages: 1 -->
<svg width="969pt" height="123pt"
 viewBox="0.00 0.00 969.00 123.00" xmlns="http://www.w3.org/2000/svg" xmlns:xlink="http://www.w3.org/1999/xlink">
<g id="graph0" class="graph" transform="scale(1 1) rotate(0) translate(4 119)">
<title>CoolPubSubClient::readByte</title>
<polygon fill="white" stroke="none" points="-4,4 -4,-119 965,-119 965,4 -4,4"/>
<!-- Node141 -->
<g id="node1" class="node"><title>Node141</title>
<polygon fill="#bfbfbf" stroke="black" points="0,-76.5 0,-95.5 142,-95.5 142,-76.5 0,-76.5"/>
<text text-anchor="middle" x="71" y="-83.5" font-family="Helvetica,sans-Serif" font-size="10.00">CoolPubSubClient::readByte</text>
</g>
<!-- Node142 -->
<g id="node2" class="node"><title>Node142</title>
<g id="a_node2"><a xlink:href="$class_cool_pub_sub_client.html#abef3735bb9a2a8c87b3da659dc4ade03" xlink:title="CoolPubSubClient::readByte">
<polygon fill="white" stroke="black" points="183,-95.5 183,-114.5 325,-114.5 325,-95.5 183,-95.5"/>
<text text-anchor="middle" x="254" y="-102.5" font-family="Helvetica,sans-Serif" font-size="10.00">CoolPubSubClient::readByte</text>
</a>
</g>
</g>
<!-- Node141&#45;&gt;Node142 -->
<g id="edge1" class="edge"><title>Node141&#45;&gt;Node142</title>
<path fill="none" stroke="midnightblue" d="M152.322,-94.4315C162.482,-95.4981 172.815,-96.5828 182.801,-97.6311"/>
<polygon fill="midnightblue" stroke="midnightblue" points="152.549,-90.9363 142.238,-93.3731 151.818,-97.898 152.549,-90.9363"/>
</g>
<!-- Node143 -->
<g id="node3" class="node"><title>Node143</title>
<g id="a_node3"><a xlink:href="$class_cool_pub_sub_client.html#a25a8779149cfa809b7c06f63568b25cf" xlink:title="CoolPubSubClient::readPacket">
<polygon fill="white" stroke="black" points="178,-57.5 178,-76.5 330,-76.5 330,-57.5 178,-57.5"/>
<text text-anchor="middle" x="254" y="-64.5" font-family="Helvetica,sans-Serif" font-size="10.00">CoolPubSubClient::readPacket</text>
</a>
</g>
</g>
<!-- Node141&#45;&gt;Node143 -->
<g id="edge2" class="edge"><title>Node141&#45;&gt;Node143</title>
<path fill="none" stroke="midnightblue" d="M152.419,-77.5583C160.829,-76.6754 169.356,-75.7803 177.706,-74.9038"/>
<polygon fill="midnightblue" stroke="midnightblue" points="151.818,-74.102 142.238,-78.6269 152.549,-81.0637 151.818,-74.102"/>
</g>
<!-- Node144 -->
<g id="node4" class="node"><title>Node144</title>
<g id="a_node4"><a xlink:href="$class_cool_pub_sub_client.html#a7e5a85731dd25d90a41f6d859e61da77" xlink:title="CoolPubSubClient::connect">
<polygon fill="white" stroke="black" points="366,-76.5 366,-95.5 503,-95.5 503,-76.5 366,-76.5"/>
<text text-anchor="middle" x="434.5" y="-83.5" font-family="Helvetica,sans-Serif" font-size="10.00">CoolPubSubClient::connect</text>
</a>
</g>
</g>
<!-- Node143&#45;&gt;Node144 -->
<g id="edge3" class="edge"><title>Node143&#45;&gt;Node144</title>
<path fill="none" stroke="midnightblue" d="M340.212,-76.0702C348.792,-76.9834 357.421,-77.902 365.782,-78.7919"/>
<polygon fill="midnightblue" stroke="midnightblue" points="340.497,-72.5808 330.183,-75.0026 339.756,-79.5415 340.497,-72.5808"/>
</g>
<!-- Node145 -->
<g id="node5" class="node"><title>Node145</title>
<g id="a_node5"><a xlink:href="$class_cool_pub_sub_client.html#afc15900f0fc4886a19394508e61793b8" xlink:title="CoolPubSubClient::loop">
<polygon fill="white" stroke="black" points="374,-38.5 374,-57.5 495,-57.5 495,-38.5 374,-38.5"/>
<text text-anchor="middle" x="434.5" y="-45.5" font-family="Helvetica,sans-Serif" font-size="10.00">CoolPubSubClient::loop</text>
</a>
</g>
</g>
<!-- Node143&#45;&gt;Node145 -->
<g id="edge4" class="edge"><title>Node143&#45;&gt;Node145</title>
<path fill="none" stroke="midnightblue" d="M340.151,-57.9363C351.542,-56.7238 363.023,-55.5018 373.848,-54.3495"/>
<polygon fill="midnightblue" stroke="midnightblue" points="339.756,-54.4585 330.183,-58.9974 340.497,-61.4192 339.756,-54.4585"/>
</g>
<!-- Node146 -->
<g id="node6" class="node"><title>Node146</title>
<g id="a_node6"><a xlink:href="$class_cool_m_q_t_t.html#aa5eaae967b562b62cbcf2b8d81f6e5d5" xlink:title="CoolMQTT::mqttLoop">
<polygon fill="white" stroke="black" points="539,-38.5 539,-57.5 650,-57.5 650,-38.5 539,-38.5"/>
<text text-anchor="middle" x="594.5" y="-45.5" font-family="Helvetica,sans-Serif" font-size="10.00">CoolMQTT::mqttLoop</text>
</a>
</g>
</g>
<!-- Node145&#45;&gt;Node146 -->
<g id="edge5" class="edge"><title>Node145&#45;&gt;Node146</title>
<path fill="none" stroke="midnightblue" d="M505.432,-48C516.642,-48 528.099,-48 538.883,-48"/>
<polygon fill="midnightblue" stroke="midnightblue" points="505.233,-44.5001 495.233,-48 505.233,-51.5001 505.233,-44.5001"/>
</g>
<!-- Node147 -->
<g id="node7" class="node"><title>Node147</title>
<g id="a_node7"><a xlink:href="$class_cool_board.html#aa0bbc4bc605e35618d18e68795c61363" xlink:title="CoolBoard::onLineMode">
<polygon fill="white" stroke="black" points="840,-38.5 840,-57.5 961,-57.5 961,-38.5 840,-38.5"/>
<text text-anchor="middle" x="900.5" y="-45.5" font-family="Helvetica,sans-Serif" font-size="10.00">CoolBoard::onLineMode</text>
</a>
</g>
</g>
<!-- Node146&#45;&gt;Node147 -->
<g id="edge6" class="edge"><title>Node146&#45;&gt;Node147</title>
<path fill="none" stroke="midnightblue" d="M642.122,-59.7112C656.133,-62.7085 671.608,-65.5056 686,-67 738.164,-72.4167 751.808,-72.1415 804,-67 822.842,-65.1438 843.477,-61.2751 860.729,-57.5101"/>
<polygon fill="midnightblue" stroke="midnightblue" points="642.735,-56.2622 632.214,-57.5091 641.216,-63.0955 642.735,-56.2622"/>
</g>
<!-- Node148 -->
<g id="node8" class="node"><title>Node148</title>
<g id="a_node8"><a xlink:href="$class_cool_board.html#a8612756d3f73198cdde857a66f0fe690" xlink:title="CoolBoard::update">
<polygon fill="white" stroke="black" points="696,-38.5 696,-57.5 794,-57.5 794,-38.5 696,-38.5"/>
<text text-anchor="middle" x="745" y="-45.5" font-family="Helvetica,sans-Serif" font-size="10.00">CoolBoard::update</text>
</a>
</g>
</g>
<!-- Node146&#45;&gt;Node148 -->
<g id="edge7" class="edge"><title>Node146&#45;&gt;Node148</title>
<path fill="none" stroke="midnightblue" d="M660.623,-48C672.413,-48 684.513,-48 695.713,-48"/>
<polygon fill="midnightblue" stroke="midnightblue" points="660.374,-44.5001 650.374,-48 660.374,-51.5001 660.374,-44.5001"/>
</g>
<!-- Node149 -->
<g id="node9" class="node"><title>Node149</title>
<g id="a_node9"><a xlink:href="$class_cool_board.html#a705398b11560603fcdd1b9e8e95d0027" xlink:title="CoolBoard::sendConfig">
<polygon fill="white" stroke="black" points="686,-0.5 686,-19.5 804,-19.5 804,-0.5 686,-0.5"/>
<text text-anchor="middle" x="745" y="-7.5" font-family="Helvetica,sans-Serif" font-size="10.00">CoolBoard::sendConfig</text>
</a>
</g>
</g>
<!-- Node146&#45;&gt;Node149 -->
<g id="edge9" class="edge"><title>Node146&#45;&gt;Node149</title>
<path fill="none" stroke="midnightblue" d="M642.833,-35.8879C663.515,-30.5956 687.419,-24.4787 706.797,-19.5201"/>
<polygon fill="midnightblue" stroke="midnightblue" points="641.793,-32.5411 632.973,-38.411 643.528,-39.3226 641.793,-32.5411"/>
</g>
<!-- Node148&#45;&gt;Node147 -->
<g id="edge8" class="edge"><title>Node148&#45;&gt;Node147</title>
<path fill="none" stroke="midnightblue" d="M804.223,-48C815.901,-48 828.187,-48 839.91,-48"/>
<polygon fill="midnightblue" stroke="midnightblue" points="804.147,-44.5001 794.147,-48 804.147,-51.5001 804.147,-44.5001"/>
</g>
<!-- Node149&#45;&gt;Node147 -->
<g id="edge10" class="edge"><title>Node149&#45;&gt;Node147</title>
<path fill="none" stroke="midnightblue" d="M794.635,-22.04C816.08,-27.3488 840.923,-33.4988 861.044,-38.4799"/>
<polygon fill="midnightblue" stroke="midnightblue" points="795.283,-18.5947 784.735,-19.589 793.6,-25.3896 795.283,-18.5947"/>
</g>
</g>
</svg>
