<?xml version="1.0" encoding="UTF-8" standalone="no"?>
<!DOCTYPE svg PUBLIC "-//W3C//DTD SVG 1.1//EN"
 "http://www.w3.org/Graphics/SVG/1.1/DTD/svg11.dtd">
<!-- Generated by graphviz version 2.38.0 (20140413.2041)
 -->
<!-- Title: CoolBoard::connect Pages: 1 -->
<svg width="269pt" height="66pt"
 viewBox="0.00 0.00 269.00 66.00" xmlns="http://www.w3.org/2000/svg" xmlns:xlink="http://www.w3.org/1999/xlink">
<g id="graph0" class="graph" transform="scale(1 1) rotate(0) translate(4 62)">
<title>CoolBoard::connect</title>
<polygon fill="white" stroke="none" points="-4,4 -4,-62 265,-62 265,4 -4,4"/>
<!-- Node117 -->
<g id="node1" class="node"><title>Node117</title>
<polygon fill="#bfbfbf" stroke="black" points="0,-19.5 0,-38.5 103,-38.5 103,-19.5 0,-19.5"/>
<text text-anchor="middle" x="51.5" y="-26.5" font-family="Helvetica,sans-Serif" font-size="10.00">CoolBoard::connect</text>
</g>
<!-- Node118 -->
<g id="node2" class="node"><title>Node118</title>
<g id="a_node2"><a xlink:href="$class_cool_board.html#acba7c5aef7268b2c0044bdb54d3b9d76" xlink:title="CoolBoard::begin">
<polygon fill="white" stroke="black" points="154,-38.5 154,-57.5 246,-57.5 246,-38.5 154,-38.5"/>
<text text-anchor="middle" x="200" y="-45.5" font-family="Helvetica,sans-Serif" font-size="10.00">CoolBoard::begin</text>
</a>
</g>
</g>
<!-- Node117&#45;&gt;Node118 -->
<g id="edge1" class="edge"><title>Node117&#45;&gt;Node118</title>
<path fill="none" stroke="midnightblue" d="M113.472,-36.9076C126.924,-38.6522 140.944,-40.4706 153.648,-42.1182"/>
<polygon fill="midnightblue" stroke="midnightblue" points="113.695,-33.4073 103.327,-35.592 112.794,-40.3491 113.695,-33.4073"/>
</g>
<!-- Node119 -->
<g id="node3" class="node"><title>Node119</title>
<g id="a_node3"><a xlink:href="$class_cool_board.html#ae6b5e1274d760462290192acea4adca8" xlink:title="CoolBoard::offLineMode">
<polygon fill="white" stroke="black" points="139,-0.5 139,-19.5 261,-19.5 261,-0.5 139,-0.5"/>
<text text-anchor="middle" x="200" y="-7.5" font-family="Helvetica,sans-Serif" font-size="10.00">CoolBoard::offLineMode</text>
</a>
</g>
</g>
<!-- Node117&#45;&gt;Node119 -->
<g id="edge2" class="edge"><title>Node117&#45;&gt;Node119</title>
<path fill="none" stroke="midnightblue" d="M113.462,-21.0937C121.887,-20.001 130.535,-18.8794 138.943,-17.789"/>
<polygon fill="midnightblue" stroke="midnightblue" points="112.794,-17.6509 103.327,-22.408 113.695,-24.5927 112.794,-17.6509"/>
</g>
</g>
</svg>
