<?xml version="1.0" encoding="UTF-8" standalone="no"?>
<!DOCTYPE svg PUBLIC "-//W3C//DTD SVG 1.1//EN"
 "http://www.w3.org/Graphics/SVG/1.1/DTD/svg11.dtd">
<!-- Generated by graphviz version 2.38.0 (20140413.2041)
 -->
<!-- Title: WiFiManager::handleWifi Pages: 1 -->
<svg width="329pt" height="116pt"
 viewBox="0.00 0.00 329.00 115.50" xmlns="http://www.w3.org/2000/svg" xmlns:xlink="http://www.w3.org/1999/xlink">
<g id="graph0" class="graph" transform="scale(1 1) rotate(0) translate(4 111.5)">
<title>WiFiManager::handleWifi</title>
<polygon fill="white" stroke="none" points="-4,4 -4,-111.5 325,-111.5 325,4 -4,4"/>
<!-- Node101 -->
<g id="node1" class="node"><title>Node101</title>
<polygon fill="#bfbfbf" stroke="black" points="0,-50 0,-69 126,-69 126,-50 0,-50"/>
<text text-anchor="middle" x="63" y="-57" font-family="Helvetica,sans-Serif" font-size="10.00">WiFiManager::handleWifi</text>
</g>
<!-- Node102 -->
<g id="node2" class="node"><title>Node102</title>
<g id="a_node2"><a xlink:href="$class_wi_fi_manager.html#ae5f595c670ccbcf9a191baf50f5c7c26" xlink:title="WiFiManager::DEBUG_WM">
<polygon fill="white" stroke="black" points="171.5,-88 171.5,-107 311.5,-107 311.5,-88 171.5,-88"/>
<text text-anchor="middle" x="241.5" y="-95" font-family="Helvetica,sans-Serif" font-size="10.00">WiFiManager::DEBUG_WM</text>
</a>
</g>
</g>
<!-- Node101&#45;&gt;Node102 -->
<g id="edge1" class="edge"><title>Node101&#45;&gt;Node102</title>
<path fill="none" stroke="midnightblue" d="M108.538,-69.089C132.144,-74.1713 161.332,-80.4554 186.251,-85.8203"/>
<polygon fill="midnightblue" stroke="midnightblue" points="185.769,-89.2967 196.282,-87.9799 187.243,-82.4535 185.769,-89.2967"/>
</g>
<!-- Node103 -->
<g id="node3" class="node"><title>Node103</title>
<g id="a_node3"><a xlink:href="$class_wi_fi_manager.html#ae71cfd6bd70ada2ca02e1d20b152d0e5" xlink:title="WiFiManager::getRSSIasQuality">
<polygon fill="white" stroke="black" points="162,-50 162,-69 321,-69 321,-50 162,-50"/>
<text text-anchor="middle" x="241.5" y="-57" font-family="Helvetica,sans-Serif" font-size="10.00">WiFiManager::getRSSIasQuality</text>
</a>
</g>
</g>
<!-- Node101&#45;&gt;Node103 -->
<g id="edge2" class="edge"><title>Node101&#45;&gt;Node103</title>
<path fill="none" stroke="midnightblue" d="M126.227,-59.5C134.502,-59.5 143.112,-59.5 151.729,-59.5"/>
<polygon fill="midnightblue" stroke="midnightblue" points="151.828,-63.0001 161.828,-59.5 151.828,-56.0001 151.828,-63.0001"/>
</g>
<!-- Node104 -->
<g id="node4" class="node"><title>Node104</title>
<g id="a_node4"><a xlink:href="$class_wi_fi_manager_parameter.html#a596273c189eb40107500cee3ad31b13b" xlink:title="WiFiManagerParameter\l::getCustomHTML">
<polygon fill="white" stroke="black" points="182,-0.5 182,-30.5 301,-30.5 301,-0.5 182,-0.5"/>
<text text-anchor="start" x="190" y="-18.5" font-family="Helvetica,sans-Serif" font-size="10.00">WiFiManagerParameter</text>
<text text-anchor="middle" x="241.5" y="-7.5" font-family="Helvetica,sans-Serif" font-size="10.00">::getCustomHTML</text>
</a>
</g>
</g>
<!-- Node101&#45;&gt;Node104 -->
<g id="edge3" class="edge"><title>Node101&#45;&gt;Node104</title>
<path fill="none" stroke="midnightblue" d="M102.298,-49.9527C122.613,-44.8882 148.195,-38.511 171.809,-32.6242"/>
<polygon fill="midnightblue" stroke="midnightblue" points="172.931,-35.9516 181.787,-30.1366 171.238,-29.1595 172.931,-35.9516"/>
</g>
</g>
</svg>
