<?xml version="1.0" encoding="UTF-8" standalone="no"?>
<!DOCTYPE svg PUBLIC "-//W3C//DTD SVG 1.1//EN"
 "http://www.w3.org/Graphics/SVG/1.1/DTD/svg11.dtd">
<!-- Generated by graphviz version 2.38.0 (20140413.2041)
 -->
<!-- Title: CoolBoardLed::fadeIn Pages: 1 -->
<svg width="436pt" height="164pt"
 viewBox="0.00 0.00 436.00 163.63" xmlns="http://www.w3.org/2000/svg" xmlns:xlink="http://www.w3.org/1999/xlink">
<g id="graph0" class="graph" transform="scale(1 1) rotate(0) translate(4 159.634)">
<title>CoolBoardLed::fadeIn</title>
<polygon fill="white" stroke="none" points="-4,4 -4,-159.634 432,-159.634 432,4 -4,4"/>
<!-- Node22 -->
<g id="node1" class="node"><title>Node22</title>
<polygon fill="#bfbfbf" stroke="black" points="0,-76.5 0,-95.5 111,-95.5 111,-76.5 0,-76.5"/>
<text text-anchor="middle" x="55.5" y="-83.5" font-family="Helvetica,sans-Serif" font-size="10.00">CoolBoardLed::fadeIn</text>
</g>
<!-- Node23 -->
<g id="node2" class="node"><title>Node23</title>
<g id="a_node2"><a xlink:href="$class_cool_board.html#aa0bbc4bc605e35618d18e68795c61363" xlink:title="CoolBoard::onLineMode">
<polygon fill="white" stroke="black" points="306.5,-38.5 306.5,-57.5 427.5,-57.5 427.5,-38.5 306.5,-38.5"/>
<text text-anchor="middle" x="367" y="-45.5" font-family="Helvetica,sans-Serif" font-size="10.00">CoolBoard::onLineMode</text>
</a>
</g>
</g>
<!-- Node22&#45;&gt;Node23 -->
<g id="edge1" class="edge"><title>Node22&#45;&gt;Node23</title>
<path fill="none" stroke="midnightblue" d="M107.014,-74.2732C119.99,-71.57 133.967,-68.9263 147,-67 200.61,-59.0763 262.128,-54.0971 306.286,-51.2337"/>
<polygon fill="midnightblue" stroke="midnightblue" points="105.907,-70.9305 96.8587,-76.4414 107.369,-77.7762 105.907,-70.9305"/>
</g>
<!-- Node24 -->
<g id="node3" class="node"><title>Node24</title>
<g id="a_node3"><a xlink:href="$class_cool_board.html#ae6b5e1274d760462290192acea4adca8" xlink:title="CoolBoard::offLineMode">
<polygon fill="white" stroke="black" points="306,-133.5 306,-152.5 428,-152.5 428,-133.5 306,-133.5"/>
<text text-anchor="middle" x="367" y="-140.5" font-family="Helvetica,sans-Serif" font-size="10.00">CoolBoard::offLineMode</text>
</a>
</g>
</g>
<!-- Node22&#45;&gt;Node24 -->
<g id="edge2" class="edge"><title>Node22&#45;&gt;Node24</title>
<path fill="none" stroke="midnightblue" d="M75.3107,-102.354C92.6107,-116.23 119.655,-135.106 147,-143 199.054,-158.027 261.014,-156.324 305.723,-151.861"/>
<polygon fill="midnightblue" stroke="midnightblue" points="77.1361,-99.3208 67.2022,-95.6372 72.6708,-104.712 77.1361,-99.3208"/>
</g>
<!-- Node25 -->
<g id="node4" class="node"><title>Node25</title>
<g id="a_node4"><a xlink:href="$class_cool_board.html#a583a874c09c07e70a6eb9229fc4beddb" xlink:title="CoolBoard::config">
<polygon fill="white" stroke="black" points="161,-76.5 161,-95.5 256,-95.5 256,-76.5 161,-76.5"/>
<text text-anchor="middle" x="208.5" y="-83.5" font-family="Helvetica,sans-Serif" font-size="10.00">CoolBoard::config</text>
</a>
</g>
</g>
<!-- Node22&#45;&gt;Node25 -->
<g id="edge3" class="edge"><title>Node22&#45;&gt;Node25</title>
<path fill="none" stroke="midnightblue" d="M121.044,-86C134.314,-86 148.045,-86 160.55,-86"/>
<polygon fill="midnightblue" stroke="midnightblue" points="121.015,-82.5001 111.014,-86 121.014,-89.5001 121.015,-82.5001"/>
</g>
<!-- Node26 -->
<g id="node5" class="node"><title>Node26</title>
<g id="a_node5"><a xlink:href="$class_cool_board.html#a8612756d3f73198cdde857a66f0fe690" xlink:title="CoolBoard::update">
<polygon fill="white" stroke="black" points="159.5,-0.5 159.5,-19.5 257.5,-19.5 257.5,-0.5 159.5,-0.5"/>
<text text-anchor="middle" x="208.5" y="-7.5" font-family="Helvetica,sans-Serif" font-size="10.00">CoolBoard::update</text>
</a>
</g>
</g>
<!-- Node22&#45;&gt;Node26 -->
<g id="edge4" class="edge"><title>Node22&#45;&gt;Node26</title>
<path fill="none" stroke="midnightblue" d="M80.1675,-71.1463C98.1365,-60.1802 123.652,-45.2664 147,-34 157.889,-28.7454 170.245,-23.6906 180.939,-19.5865"/>
<polygon fill="midnightblue" stroke="midnightblue" points="78.1877,-68.2551 71.5102,-76.4808 81.8598,-74.2146 78.1877,-68.2551"/>
</g>
<!-- Node27 -->
<g id="node6" class="node"><title>Node27</title>
<g id="a_node6"><a xlink:href="$class_cool_board.html#ad03abdce2e65f520bbf2cff0f2d083cf" xlink:title="CoolBoard::readSensors">
<polygon fill="white" stroke="black" points="147,-114.5 147,-133.5 270,-133.5 270,-114.5 147,-114.5"/>
<text text-anchor="middle" x="208.5" y="-121.5" font-family="Helvetica,sans-Serif" font-size="10.00">CoolBoard::readSensors</text>
</a>
</g>
</g>
<!-- Node22&#45;&gt;Node27 -->
<g id="edge6" class="edge"><title>Node22&#45;&gt;Node27</title>
<path fill="none" stroke="midnightblue" d="M104.343,-98.04C125.439,-103.349 149.877,-109.499 169.67,-114.48"/>
<polygon fill="midnightblue" stroke="midnightblue" points="105.156,-94.6354 94.6037,-95.589 103.447,-101.424 105.156,-94.6354"/>
</g>
<!-- Node26&#45;&gt;Node23 -->
<g id="edge5" class="edge"><title>Node26&#45;&gt;Node23</title>
<path fill="none" stroke="midnightblue" d="M258.789,-21.968C280.72,-27.2931 306.185,-33.4762 326.792,-38.4799"/>
<polygon fill="midnightblue" stroke="midnightblue" points="259.535,-18.5475 248.992,-19.589 257.883,-25.3498 259.535,-18.5475"/>
</g>
<!-- Node27&#45;&gt;Node23 -->
<g id="edge7" class="edge"><title>Node27&#45;&gt;Node23</title>
<path fill="none" stroke="midnightblue" d="M254.214,-111.252C259.603,-109.338 264.974,-107.245 270,-105 300.795,-91.246 334.077,-69.8562 352.24,-57.5646"/>
<polygon fill="midnightblue" stroke="midnightblue" points="252.926,-107.993 244.565,-114.5 255.159,-114.627 252.926,-107.993"/>
</g>
<!-- Node27&#45;&gt;Node24 -->
<g id="edge8" class="edge"><title>Node27&#45;&gt;Node24</title>
<path fill="none" stroke="midnightblue" d="M280.059,-132.566C288.692,-133.614 297.452,-134.678 305.912,-135.705"/>
<polygon fill="midnightblue" stroke="midnightblue" points="280.356,-129.077 270.007,-131.346 279.512,-136.026 280.356,-129.077"/>
</g>
</g>
</svg>
