<?xml version="1.0" encoding="UTF-8" standalone="no"?>
<!DOCTYPE svg PUBLIC "-//W3C//DTD SVG 1.1//EN"
 "http://www.w3.org/Graphics/SVG/1.1/DTD/svg11.dtd">
<!-- Generated by graphviz version 2.38.0 (20140413.2041)
 -->
<!-- Title: CoolBoard::begin Pages: 1 -->
<svg width="478pt" height="1153pt"
 viewBox="0.00 0.00 478.00 1152.91" xmlns="http://www.w3.org/2000/svg" xmlns:xlink="http://www.w3.org/1999/xlink">
<g id="graph0" class="graph" transform="scale(1 1) rotate(0) translate(4 1148.91)">
<title>CoolBoard::begin</title>
<polygon fill="white" stroke="none" points="-4,4 -4,-1148.91 474,-1148.91 474,4 -4,4"/>
<!-- Node2 -->
<g id="node1" class="node"><title>Node2</title>
<polygon fill="#bfbfbf" stroke="black" points="0,-551.5 0,-570.5 92,-570.5 92,-551.5 0,-551.5"/>
<text text-anchor="middle" x="46" y="-558.5" font-family="Helvetica,sans-Serif" font-size="10.00">CoolBoard::begin</text>
</g>
<!-- Node3 -->
<g id="node2" class="node"><title>Node3</title>
<g id="a_node2"><a xlink:href="$class_cool_board_led.html#a30fadd4cbec17ceea428bf7a32207e87" xlink:title="CoolBoardLed::write">
<polygon fill="white" stroke="black" points="336.5,-1124.5 336.5,-1143.5 441.5,-1143.5 441.5,-1124.5 336.5,-1124.5"/>
<text text-anchor="middle" x="389" y="-1131.5" font-family="Helvetica,sans-Serif" font-size="10.00">CoolBoardLed::write</text>
</a>
</g>
</g>
<!-- Node2&#45;&gt;Node3 -->
<g id="edge1" class="edge"><title>Node2&#45;&gt;Node3</title>
<path fill="none" stroke="midnightblue" d="M46.9845,-570.814C47.0911,-636.813 51.0778,-1015.67 128,-1093 179.256,-1144.53 267.181,-1147.86 326.427,-1142.98"/>
<polygon fill="midnightblue" stroke="midnightblue" points="326.773,-1146.47 336.409,-1142.06 326.13,-1139.5 326.773,-1146.47"/>
</g>
<!-- Node4 -->
<g id="node3" class="node"><title>Node4</title>
<g id="a_node3"><a xlink:href="$class_cool_board.html#a397b46fadab8f530a8cf4d914c561366" xlink:title="CoolBoard::initReadI2C">
<polygon fill="white" stroke="black" points="140,-988.5 140,-1007.5 260,-1007.5 260,-988.5 140,-988.5"/>
<text text-anchor="middle" x="200" y="-995.5" font-family="Helvetica,sans-Serif" font-size="10.00">CoolBoard::initReadI2C</text>
</a>
</g>
</g>
<!-- Node2&#45;&gt;Node4 -->
<g id="edge2" class="edge"><title>Node2&#45;&gt;Node4</title>
<path fill="none" stroke="midnightblue" d="M47.5217,-570.761C50.7599,-627.712 69.9072,-916.687 128,-979 129.226,-980.315 130.533,-981.544 131.907,-982.69"/>
<polygon fill="midnightblue" stroke="midnightblue" points="130.174,-985.742 140.429,-988.403 134.072,-979.928 130.174,-985.742"/>
</g>
<!-- Node5 -->
<g id="node4" class="node"><title>Node5</title>
<g id="a_node4"><a xlink:href="$class_cool_board_sensors.html#a9a218895c5423375c33c08f2c56fb23a" xlink:title="CoolBoardSensors::config">
<polygon fill="white" stroke="black" points="134.5,-950.5 134.5,-969.5 265.5,-969.5 265.5,-950.5 134.5,-950.5"/>
<text text-anchor="middle" x="200" y="-957.5" font-family="Helvetica,sans-Serif" font-size="10.00">CoolBoardSensors::config</text>
</a>
</g>
</g>
<!-- Node2&#45;&gt;Node5 -->
<g id="edge3" class="edge"><title>Node2&#45;&gt;Node5</title>
<path fill="none" stroke="midnightblue" d="M47.7106,-570.568C51.8655,-623.981 74.6936,-884.877 128,-941 129.239,-942.304 130.556,-943.522 131.94,-944.659"/>
<polygon fill="midnightblue" stroke="midnightblue" points="130.234,-947.728 140.504,-950.333 134.1,-941.892 130.234,-947.728"/>
</g>
<!-- Node6 -->
<g id="node5" class="node"><title>Node6</title>
<g id="a_node5"><a xlink:href="$class_cool_board_sensors.html#a97095823ef7c8f5290812f1405b966b3" xlink:title="CoolBoardSensors::begin">
<polygon fill="white" stroke="black" points="136,-912.5 136,-931.5 264,-931.5 264,-912.5 136,-912.5"/>
<text text-anchor="middle" x="200" y="-919.5" font-family="Helvetica,sans-Serif" font-size="10.00">CoolBoardSensors::begin</text>
</a>
</g>
</g>
<!-- Node2&#45;&gt;Node6 -->
<g id="edge4" class="edge"><title>Node2&#45;&gt;Node6</title>
<path fill="none" stroke="midnightblue" d="M47.9555,-570.588C53.1469,-620.807 79.53,-853.108 128,-903 129.4,-904.441 130.897,-905.778 132.473,-907.016"/>
<polygon fill="midnightblue" stroke="midnightblue" points="130.624,-909.988 140.935,-912.425 134.394,-904.09 130.624,-909.988"/>
</g>
<!-- Node17 -->
<g id="node9" class="node"><title>Node17</title>
<g id="a_node9"><a xlink:href="$class_cool_board_actor.html#a5af5538fc7d169f63127e06d5219bcd4" xlink:title="CoolBoardActor::config">
<polygon fill="white" stroke="black" points="141,-874.5 141,-893.5 259,-893.5 259,-874.5 141,-874.5"/>
<text text-anchor="middle" x="200" y="-881.5" font-family="Helvetica,sans-Serif" font-size="10.00">CoolBoardActor::config</text>
</a>
</g>
</g>
<!-- Node2&#45;&gt;Node17 -->
<g id="edge8" class="edge"><title>Node2&#45;&gt;Node17</title>
<path fill="none" stroke="midnightblue" d="M48.2793,-570.747C54.6489,-617.841 84.3813,-821.334 128,-865 129.454,-866.456 131.007,-867.803 132.64,-869.051"/>
<polygon fill="midnightblue" stroke="midnightblue" points="131.049,-872.183 141.39,-874.49 134.745,-866.238 131.049,-872.183"/>
</g>
<!-- Node18 -->
<g id="node10" class="node"><title>Node18</title>
<g id="a_node10"><a xlink:href="$class_cool_board_actor.html#a7f4422fd85a5510bc2cdfd68e109be5e" xlink:title="CoolBoardActor::begin">
<polygon fill="white" stroke="black" points="142.5,-836.5 142.5,-855.5 257.5,-855.5 257.5,-836.5 142.5,-836.5"/>
<text text-anchor="middle" x="200" y="-843.5" font-family="Helvetica,sans-Serif" font-size="10.00">CoolBoardActor::begin</text>
</a>
</g>
</g>
<!-- Node2&#45;&gt;Node18 -->
<g id="edge9" class="edge"><title>Node2&#45;&gt;Node18</title>
<path fill="none" stroke="midnightblue" d="M46.8253,-570.659C46.6792,-609.142 51.4596,-753.027 128,-827 129.677,-828.621 131.477,-830.108 133.374,-831.47"/>
<polygon fill="midnightblue" stroke="midnightblue" points="131.833,-834.625 142.225,-836.687 135.387,-828.594 131.833,-834.625"/>
</g>
<!-- Node19 -->
<g id="node11" class="node"><title>Node19</title>
<g id="a_node11"><a xlink:href="$class_cool_wifi.html#a4eb2f6b9b09dd588964b88b6c70122c0" xlink:title="CoolWifi::config">
<polygon fill="white" stroke="black" points="157,-798.5 157,-817.5 243,-817.5 243,-798.5 157,-798.5"/>
<text text-anchor="middle" x="200" y="-805.5" font-family="Helvetica,sans-Serif" font-size="10.00">CoolWifi::config</text>
</a>
</g>
</g>
<!-- Node2&#45;&gt;Node19 -->
<g id="edge10" class="edge"><title>Node2&#45;&gt;Node19</title>
<path fill="none" stroke="midnightblue" d="M47.4035,-570.957C49.3922,-606.338 61.0212,-727.168 128,-789 133.479,-794.058 140.156,-797.797 147.199,-800.555"/>
<polygon fill="midnightblue" stroke="midnightblue" points="146.359,-803.963 156.952,-803.741 148.533,-797.309 146.359,-803.963"/>
</g>
<!-- Node20 -->
<g id="node12" class="node"><title>Node20</title>
<g id="a_node12"><a xlink:href="$class_cool_wifi.html#a46942fed90e475112cc10b78a32e7aaa" xlink:title="CoolWifi::begin">
<polygon fill="white" stroke="black" points="158.5,-760.5 158.5,-779.5 241.5,-779.5 241.5,-760.5 158.5,-760.5"/>
<text text-anchor="middle" x="200" y="-767.5" font-family="Helvetica,sans-Serif" font-size="10.00">CoolWifi::begin</text>
</a>
</g>
</g>
<!-- Node2&#45;&gt;Node20 -->
<g id="edge11" class="edge"><title>Node2&#45;&gt;Node20</title>
<path fill="none" stroke="midnightblue" d="M48.1449,-570.603C52.3792,-601.728 70.0383,-700.71 128,-751 133.964,-756.174 141.192,-759.957 148.726,-762.719"/>
<polygon fill="midnightblue" stroke="midnightblue" points="147.771,-766.087 158.359,-765.699 149.84,-759.4 147.771,-766.087"/>
</g>
<!-- Node21 -->
<g id="node13" class="node"><title>Node21</title>
<g id="a_node13"><a xlink:href="$class_cool_m_q_t_t.html#a9b703de4f1358f0ee7a5e8c44979c648" xlink:title="CoolMQTT::config">
<polygon fill="white" stroke="black" points="151.5,-722.5 151.5,-741.5 248.5,-741.5 248.5,-722.5 151.5,-722.5"/>
<text text-anchor="middle" x="200" y="-729.5" font-family="Helvetica,sans-Serif" font-size="10.00">CoolMQTT::config</text>
</a>
</g>
</g>
<!-- Node2&#45;&gt;Node21 -->
<g id="edge12" class="edge"><title>Node2&#45;&gt;Node21</title>
<path fill="none" stroke="midnightblue" d="M49.2401,-570.558C56.0442,-597.415 79.0666,-674.126 128,-713 132.14,-716.289 136.8,-719.011 141.703,-721.263"/>
<polygon fill="midnightblue" stroke="midnightblue" points="140.771,-724.657 151.359,-725.042 143.322,-718.138 140.771,-724.657"/>
</g>
<!-- Node22 -->
<g id="node14" class="node"><title>Node22</title>
<g id="a_node14"><a xlink:href="$class_cool_m_q_t_t.html#ac9248808641ebf3054ed0620ea9d0100" xlink:title="CoolMQTT::begin">
<polygon fill="white" stroke="black" points="153,-684.5 153,-703.5 247,-703.5 247,-684.5 153,-684.5"/>
<text text-anchor="middle" x="200" y="-691.5" font-family="Helvetica,sans-Serif" font-size="10.00">CoolMQTT::begin</text>
</a>
</g>
</g>
<!-- Node2&#45;&gt;Node22 -->
<g id="edge13" class="edge"><title>Node2&#45;&gt;Node22</title>
<path fill="none" stroke="midnightblue" d="M51.0604,-570.669C60.8459,-592.757 87.9243,-647.153 128,-675 132.584,-678.186 137.676,-680.837 142.966,-683.044"/>
<polygon fill="midnightblue" stroke="midnightblue" points="142.045,-686.433 152.639,-686.557 144.434,-679.854 142.045,-686.433"/>
</g>
<!-- Node28 -->
<g id="node20" class="node"><title>Node28</title>
<g id="a_node20"><a xlink:href="$class_cool_board_led.html#a8ed3053a36f0ed4a131f43b5b17efb61" xlink:title="CoolBoardLed::printConf">
<polygon fill="white" stroke="black" points="138,-646.5 138,-665.5 262,-665.5 262,-646.5 138,-646.5"/>
<text text-anchor="middle" x="200" y="-653.5" font-family="Helvetica,sans-Serif" font-size="10.00">CoolBoardLed::printConf</text>
</a>
</g>
</g>
<!-- Node2&#45;&gt;Node28 -->
<g id="edge19" class="edge"><title>Node2&#45;&gt;Node28</title>
<path fill="none" stroke="midnightblue" d="M54.4028,-570.509C67.4845,-586.652 96.3169,-619.381 128,-637 131.997,-639.223 136.267,-641.196 140.655,-642.945"/>
<polygon fill="midnightblue" stroke="midnightblue" points="139.794,-646.354 150.388,-646.428 142.152,-639.763 139.794,-646.354"/>
</g>
<!-- Node29 -->
<g id="node21" class="node"><title>Node29</title>
<g id="a_node21"><a xlink:href="$class_cool_board_sensors.html#af6fd79505815b204c178617ecf54c873" xlink:title="CoolBoardSensors::printConf">
<polygon fill="white" stroke="black" points="128,-608.5 128,-627.5 272,-627.5 272,-608.5 128,-608.5"/>
<text text-anchor="middle" x="200" y="-615.5" font-family="Helvetica,sans-Serif" font-size="10.00">CoolBoardSensors::printConf</text>
</a>
</g>
</g>
<!-- Node2&#45;&gt;Node29 -->
<g id="edge20" class="edge"><title>Node2&#45;&gt;Node29</title>
<path fill="none" stroke="midnightblue" d="M64.9441,-570.546C81.1033,-578.868 105.676,-590.849 128,-599 134.523,-601.382 141.481,-603.609 148.395,-605.641"/>
<polygon fill="midnightblue" stroke="midnightblue" points="147.862,-609.127 158.437,-608.472 149.762,-602.39 147.862,-609.127"/>
</g>
<!-- Node30 -->
<g id="node22" class="node"><title>Node30</title>
<g id="a_node22"><a xlink:href="$class_cool_board_actor.html#aabb10e7aebc3249ffc940530de29f84a" xlink:title="CoolBoardActor::printConf">
<polygon fill="white" stroke="black" points="134.5,-570.5 134.5,-589.5 265.5,-589.5 265.5,-570.5 134.5,-570.5"/>
<text text-anchor="middle" x="200" y="-577.5" font-family="Helvetica,sans-Serif" font-size="10.00">CoolBoardActor::printConf</text>
</a>
</g>
</g>
<!-- Node2&#45;&gt;Node30 -->
<g id="edge21" class="edge"><title>Node2&#45;&gt;Node30</title>
<path fill="none" stroke="midnightblue" d="M92.1935,-566.649C102.311,-567.914 113.304,-569.288 124.263,-570.658"/>
<polygon fill="midnightblue" stroke="midnightblue" points="123.934,-574.144 134.291,-571.911 124.803,-567.198 123.934,-574.144"/>
</g>
<!-- Node31 -->
<g id="node23" class="node"><title>Node31</title>
<g id="a_node23"><a xlink:href="$class_cool_wifi.html#a9e6105c6d13d35ec510f6633da9e0223" xlink:title="CoolWifi::printConf">
<polygon fill="white" stroke="black" points="150,-532.5 150,-551.5 250,-551.5 250,-532.5 150,-532.5"/>
<text text-anchor="middle" x="200" y="-539.5" font-family="Helvetica,sans-Serif" font-size="10.00">CoolWifi::printConf</text>
</a>
</g>
</g>
<!-- Node2&#45;&gt;Node31 -->
<g id="edge22" class="edge"><title>Node2&#45;&gt;Node31</title>
<path fill="none" stroke="midnightblue" d="M92.1935,-555.351C107.053,-553.493 123.804,-551.399 139.558,-549.43"/>
<polygon fill="midnightblue" stroke="midnightblue" points="140.247,-552.871 149.736,-548.158 139.379,-545.925 140.247,-552.871"/>
</g>
<!-- Node32 -->
<g id="node24" class="node"><title>Node32</title>
<g id="a_node24"><a xlink:href="$class_cool_m_q_t_t.html#a40553a0ad4b5ecf1cb4411ab54ca85fb" xlink:title="CoolMQTT::printConf">
<polygon fill="white" stroke="black" points="145,-494.5 145,-513.5 255,-513.5 255,-494.5 145,-494.5"/>
<text text-anchor="middle" x="200" y="-501.5" font-family="Helvetica,sans-Serif" font-size="10.00">CoolMQTT::printConf</text>
</a>
</g>
</g>
<!-- Node2&#45;&gt;Node32 -->
<g id="edge23" class="edge"><title>Node2&#45;&gt;Node32</title>
<path fill="none" stroke="midnightblue" d="M64.9441,-551.454C81.1033,-543.132 105.676,-531.151 128,-523 134.523,-520.618 141.481,-518.391 148.395,-516.359"/>
<polygon fill="midnightblue" stroke="midnightblue" points="149.762,-519.61 158.437,-513.528 147.862,-512.873 149.762,-519.61"/>
</g>
<!-- Node33 -->
<g id="node25" class="node"><title>Node33</title>
<g id="a_node25"><a xlink:href="$class_jetpack.html#ab065ee83e244265a2223a22f3ee4a719" xlink:title="Jetpack::config">
<polygon fill="white" stroke="black" points="158.5,-456.5 158.5,-475.5 241.5,-475.5 241.5,-456.5 158.5,-456.5"/>
<text text-anchor="middle" x="200" y="-463.5" font-family="Helvetica,sans-Serif" font-size="10.00">Jetpack::config</text>
</a>
</g>
</g>
<!-- Node2&#45;&gt;Node33 -->
<g id="edge24" class="edge"><title>Node2&#45;&gt;Node33</title>
<path fill="none" stroke="midnightblue" d="M54.4028,-551.491C67.4845,-535.348 96.3169,-502.619 128,-485 134.363,-481.461 141.418,-478.556 148.539,-476.178"/>
<polygon fill="midnightblue" stroke="midnightblue" points="149.67,-479.492 158.232,-473.251 147.647,-472.791 149.67,-479.492"/>
</g>
<!-- Node34 -->
<g id="node26" class="node"><title>Node34</title>
<g id="a_node26"><a xlink:href="$class_jetpack.html#a5a53e1ebf7aaf3bf3e0d37ea64ca09a7" xlink:title="Jetpack::begin">
<polygon fill="white" stroke="black" points="160,-418.5 160,-437.5 240,-437.5 240,-418.5 160,-418.5"/>
<text text-anchor="middle" x="200" y="-425.5" font-family="Helvetica,sans-Serif" font-size="10.00">Jetpack::begin</text>
</a>
</g>
</g>
<!-- Node2&#45;&gt;Node34 -->
<g id="edge25" class="edge"><title>Node2&#45;&gt;Node34</title>
<path fill="none" stroke="midnightblue" d="M51.0604,-551.331C60.8459,-529.243 87.9243,-474.847 128,-447 134.557,-442.444 142.152,-438.979 149.884,-436.346"/>
<polygon fill="midnightblue" stroke="midnightblue" points="151.095,-439.637 159.684,-433.434 149.101,-432.927 151.095,-439.637"/>
</g>
<!-- Node35 -->
<g id="node27" class="node"><title>Node35</title>
<g id="a_node27"><a xlink:href="$class_jetpack.html#ac54a7bb4f9166bee32052253d9b1d306" xlink:title="Jetpack::printConf">
<polygon fill="white" stroke="black" points="151.5,-380.5 151.5,-399.5 248.5,-399.5 248.5,-380.5 151.5,-380.5"/>
<text text-anchor="middle" x="200" y="-387.5" font-family="Helvetica,sans-Serif" font-size="10.00">Jetpack::printConf</text>
</a>
</g>
</g>
<!-- Node2&#45;&gt;Node35 -->
<g id="edge26" class="edge"><title>Node2&#45;&gt;Node35</title>
<path fill="none" stroke="midnightblue" d="M49.2401,-551.442C56.0442,-524.585 79.0666,-447.874 128,-409 132.14,-405.711 136.8,-402.989 141.703,-400.737"/>
<polygon fill="midnightblue" stroke="midnightblue" points="143.322,-403.862 151.359,-396.958 140.771,-397.343 143.322,-403.862"/>
</g>
<!-- Node36 -->
<g id="node28" class="node"><title>Node36</title>
<g id="a_node28"><a xlink:href="$class_irene3000.html#afed5c35e4b23963c157847ef27c11e9c" xlink:title="Irene3000::config">
<polygon fill="white" stroke="black" points="154,-342.5 154,-361.5 246,-361.5 246,-342.5 154,-342.5"/>
<text text-anchor="middle" x="200" y="-349.5" font-family="Helvetica,sans-Serif" font-size="10.00">Irene3000::config</text>
</a>
</g>
</g>
<!-- Node2&#45;&gt;Node36 -->
<g id="edge27" class="edge"><title>Node2&#45;&gt;Node36</title>
<path fill="none" stroke="midnightblue" d="M48.1449,-551.397C52.3792,-520.272 70.0383,-421.29 128,-371 132.807,-366.829 138.436,-363.563 144.384,-361.006"/>
<polygon fill="midnightblue" stroke="midnightblue" points="145.715,-364.246 153.921,-357.545 143.327,-357.666 145.715,-364.246"/>
</g>
<!-- Node38 -->
<g id="node30" class="node"><title>Node38</title>
<g id="a_node30"><a xlink:href="$class_irene3000.html#ad5891806c500ae1007afe52b9e304c2b" xlink:title="Irene3000::begin">
<polygon fill="white" stroke="black" points="155.5,-304.5 155.5,-323.5 244.5,-323.5 244.5,-304.5 155.5,-304.5"/>
<text text-anchor="middle" x="200" y="-311.5" font-family="Helvetica,sans-Serif" font-size="10.00">Irene3000::begin</text>
</a>
</g>
</g>
<!-- Node2&#45;&gt;Node38 -->
<g id="edge29" class="edge"><title>Node2&#45;&gt;Node38</title>
<path fill="none" stroke="midnightblue" d="M47.4035,-551.043C49.3922,-515.662 61.0212,-394.832 128,-333 133.103,-328.29 139.244,-324.723 145.753,-322.027"/>
<polygon fill="midnightblue" stroke="midnightblue" points="147.164,-325.243 155.473,-318.669 144.878,-318.627 147.164,-325.243"/>
</g>
<!-- Node52 -->
<g id="node36" class="node"><title>Node52</title>
<g id="a_node36"><a xlink:href="$class_irene3000.html#a7bc2414100b5e19eacc6630fa34b2654" xlink:title="Irene3000::printConf">
<polygon fill="white" stroke="black" points="147.5,-266.5 147.5,-285.5 252.5,-285.5 252.5,-266.5 147.5,-266.5"/>
<text text-anchor="middle" x="200" y="-273.5" font-family="Helvetica,sans-Serif" font-size="10.00">Irene3000::printConf</text>
</a>
</g>
</g>
<!-- Node2&#45;&gt;Node52 -->
<g id="edge35" class="edge"><title>Node2&#45;&gt;Node52</title>
<path fill="none" stroke="midnightblue" d="M46.8253,-551.341C46.6792,-512.858 51.4596,-368.973 128,-295 130.96,-292.139 134.303,-289.697 137.883,-287.614"/>
<polygon fill="midnightblue" stroke="midnightblue" points="139.694,-290.628 147.193,-283.143 136.663,-284.318 139.694,-290.628"/>
</g>
<!-- Node53 -->
<g id="node37" class="node"><title>Node53</title>
<g id="a_node37"><a xlink:href="$class_external_sensors.html#a862a4bd11346b37270d0244c2adabe5a" xlink:title="ExternalSensors::config">
<polygon fill="white" stroke="black" points="139.5,-228.5 139.5,-247.5 260.5,-247.5 260.5,-228.5 139.5,-228.5"/>
<text text-anchor="middle" x="200" y="-235.5" font-family="Helvetica,sans-Serif" font-size="10.00">ExternalSensors::config</text>
</a>
</g>
</g>
<!-- Node2&#45;&gt;Node53 -->
<g id="edge36" class="edge"><title>Node2&#45;&gt;Node53</title>
<path fill="none" stroke="midnightblue" d="M48.2793,-551.253C54.6489,-504.159 84.3813,-300.666 128,-257 129.454,-255.544 131.007,-254.197 132.64,-252.949"/>
<polygon fill="midnightblue" stroke="midnightblue" points="134.745,-255.762 141.39,-247.51 131.049,-249.817 134.745,-255.762"/>
</g>
<!-- Node54 -->
<g id="node38" class="node"><title>Node54</title>
<g id="a_node38"><a xlink:href="$class_external_sensors.html#a58ede0d786a86417254708870f04a21e" xlink:title="ExternalSensors::begin">
<polygon fill="white" stroke="black" points="141,-190.5 141,-209.5 259,-209.5 259,-190.5 141,-190.5"/>
<text text-anchor="middle" x="200" y="-197.5" font-family="Helvetica,sans-Serif" font-size="10.00">ExternalSensors::begin</text>
</a>
</g>
</g>
<!-- Node2&#45;&gt;Node54 -->
<g id="edge37" class="edge"><title>Node2&#45;&gt;Node54</title>
<path fill="none" stroke="midnightblue" d="M47.9555,-551.412C53.1469,-501.193 79.53,-268.892 128,-219 129.4,-217.559 130.897,-216.222 132.473,-214.984"/>
<polygon fill="midnightblue" stroke="midnightblue" points="134.394,-217.91 140.935,-209.575 130.624,-212.012 134.394,-217.91"/>
</g>
<!-- Node58 -->
<g id="node42" class="node"><title>Node58</title>
<g id="a_node42"><a xlink:href="$class_external_sensors.html#a78c2bf55084435dd51d3c559b2d3c6f3" xlink:title="ExternalSensors::printConf">
<polygon fill="white" stroke="black" points="133,-152.5 133,-171.5 267,-171.5 267,-152.5 133,-152.5"/>
<text text-anchor="middle" x="200" y="-159.5" font-family="Helvetica,sans-Serif" font-size="10.00">ExternalSensors::printConf</text>
</a>
</g>
</g>
<!-- Node2&#45;&gt;Node58 -->
<g id="edge41" class="edge"><title>Node2&#45;&gt;Node58</title>
<path fill="none" stroke="midnightblue" d="M47.7106,-551.432C51.8655,-498.019 74.6936,-237.123 128,-181 129.239,-179.696 130.556,-178.478 131.94,-177.341"/>
<polygon fill="midnightblue" stroke="midnightblue" points="134.1,-180.108 140.504,-171.667 130.234,-174.272 134.1,-180.108"/>
</g>
<!-- Node59 -->
<g id="node43" class="node"><title>Node59</title>
<g id="a_node43"><a xlink:href="$class_cool_board_led.html#a93d545679237e8cc858324367149775c" xlink:title="CoolBoardLed::fadeOut">
<polygon fill="white" stroke="black" points="140.5,-114.5 140.5,-133.5 259.5,-133.5 259.5,-114.5 140.5,-114.5"/>
<text text-anchor="middle" x="200" y="-121.5" font-family="Helvetica,sans-Serif" font-size="10.00">CoolBoardLed::fadeOut</text>
</a>
</g>
</g>
<!-- Node2&#45;&gt;Node59 -->
<g id="edge42" class="edge"><title>Node2&#45;&gt;Node59</title>
<path fill="none" stroke="midnightblue" d="M47.5217,-551.239C50.7599,-494.288 69.9072,-205.313 128,-143 129.226,-141.685 130.533,-140.456 131.907,-139.31"/>
<polygon fill="midnightblue" stroke="midnightblue" points="134.072,-142.072 140.429,-133.597 130.174,-136.258 134.072,-142.072"/>
</g>
<!-- Node60 -->
<g id="node44" class="node"><title>Node60</title>
<g id="a_node44"><a xlink:href="$class_cool_board.html#a519de78b807f8ec6463ff484eb925918" xlink:title="CoolBoard::connect">
<polygon fill="white" stroke="red" points="148.5,-1064.5 148.5,-1083.5 251.5,-1083.5 251.5,-1064.5 148.5,-1064.5"/>
<text text-anchor="middle" x="200" y="-1071.5" font-family="Helvetica,sans-Serif" font-size="10.00">CoolBoard::connect</text>
</a>
</g>
</g>
<!-- Node2&#45;&gt;Node60 -->
<g id="edge43" class="edge"><title>Node2&#45;&gt;Node60</title>
<path fill="none" stroke="midnightblue" d="M47.2845,-570.679C49.2939,-632.663 63.212,-973.778 128,-1050 131.202,-1053.77 135.018,-1056.95 139.195,-1059.63"/>
<polygon fill="midnightblue" stroke="midnightblue" points="137.729,-1062.81 148.195,-1064.46 141.04,-1056.64 137.729,-1062.81"/>
</g>
<!-- Node77 -->
<g id="node47" class="node"><title>Node77</title>
<g id="a_node47"><a xlink:href="$class_cool_board_led.html#a96e1ea13003eee34c9dbcef340404426" xlink:title="CoolBoardLed::blink">
<polygon fill="white" stroke="black" points="337,-1010.5 337,-1029.5 441,-1029.5 441,-1010.5 337,-1010.5"/>
<text text-anchor="middle" x="389" y="-1017.5" font-family="Helvetica,sans-Serif" font-size="10.00">CoolBoardLed::blink</text>
</a>
</g>
</g>
<!-- Node2&#45;&gt;Node77 -->
<g id="edge51" class="edge"><title>Node2&#45;&gt;Node77</title>
<path fill="none" stroke="midnightblue" d="M47.1265,-570.682C48.1367,-631.182 56.8592,-956.68 128,-1017 156.861,-1041.47 259.421,-1035.18 326.778,-1027.92"/>
<polygon fill="midnightblue" stroke="midnightblue" points="327.307,-1031.38 336.858,-1026.8 326.533,-1024.43 327.307,-1031.38"/>
</g>
<!-- Node78 -->
<g id="node48" class="node"><title>Node78</title>
<g id="a_node48"><a xlink:href="$class_cool_time.html#a87c28260c1bc77091162cbcf1ee2e129" xlink:title="CoolTime::config">
<polygon fill="white" stroke="black" points="154.5,-76.5 154.5,-95.5 245.5,-95.5 245.5,-76.5 154.5,-76.5"/>
<text text-anchor="middle" x="200" y="-83.5" font-family="Helvetica,sans-Serif" font-size="10.00">CoolTime::config</text>
</a>
</g>
</g>
<!-- Node2&#45;&gt;Node78 -->
<g id="edge48" class="edge"><title>Node2&#45;&gt;Node78</title>
<path fill="none" stroke="midnightblue" d="M47.3545,-551.154C49.7165,-491.02 65.0685,-173.568 128,-105 132.638,-99.947 138.458,-96.1783 144.759,-93.3773"/>
<polygon fill="midnightblue" stroke="midnightblue" points="146.05,-96.6323 154.255,-89.9291 143.661,-90.0527 146.05,-96.6323"/>
</g>
<!-- Node79 -->
<g id="node49" class="node"><title>Node79</title>
<g id="a_node49"><a xlink:href="$class_cool_time.html#ab1976cf718b950bc31e003c3323b8adb" xlink:title="CoolTime::begin">
<polygon fill="white" stroke="red" points="156,-38.5 156,-57.5 244,-57.5 244,-38.5 156,-38.5"/>
<text text-anchor="middle" x="200" y="-45.5" font-family="Helvetica,sans-Serif" font-size="10.00">CoolTime::begin</text>
</a>
</g>
</g>
<!-- Node2&#45;&gt;Node79 -->
<g id="edge49" class="edge"><title>Node2&#45;&gt;Node79</title>
<path fill="none" stroke="midnightblue" d="M47.2079,-551.169C48.7373,-488.216 60.1804,-141.886 128,-67 132.947,-61.538 139.274,-57.5734 146.109,-54.7086"/>
<polygon fill="midnightblue" stroke="midnightblue" points="147.328,-57.9908 155.66,-51.4464 145.066,-51.3665 147.328,-57.9908"/>
</g>
<!-- Node86 -->
<g id="node50" class="node"><title>Node86</title>
<g id="a_node50"><a xlink:href="$class_cool_time.html#af355e7f9b3898211cd2ff25eab5933b1" xlink:title="CoolTime::printConf">
<polygon fill="white" stroke="black" points="148,-0.5 148,-19.5 252,-19.5 252,-0.5 148,-0.5"/>
<text text-anchor="middle" x="200" y="-7.5" font-family="Helvetica,sans-Serif" font-size="10.00">CoolTime::printConf</text>
</a>
</g>
</g>
<!-- Node2&#45;&gt;Node86 -->
<g id="edge50" class="edge"><title>Node2&#45;&gt;Node86</title>
<path fill="none" stroke="midnightblue" d="M47.0811,-551.277C47.8236,-485.879 55.2449,-110.264 128,-29 131.1,-25.5375 134.755,-22.6756 138.744,-20.3135"/>
<polygon fill="midnightblue" stroke="midnightblue" points="140.429,-23.3874 147.926,-15.9019 137.397,-17.0779 140.429,-23.3874"/>
</g>
<!-- Node7 -->
<g id="node6" class="node"><title>Node7</title>
<g id="a_node6"><a xlink:href="$class_cool_s_i114_x.html#a206b36aca7049f63be1d11088c30a09f" xlink:title="CoolSI114X::Begin">
<polygon fill="white" stroke="red" points="339,-956.5 339,-975.5 439,-975.5 439,-956.5 339,-956.5"/>
<text text-anchor="middle" x="389" y="-963.5" font-family="Helvetica,sans-Serif" font-size="10.00">CoolSI114X::Begin</text>
</a>
</g>
</g>
<!-- Node6&#45;&gt;Node7 -->
<g id="edge5" class="edge"><title>Node6&#45;&gt;Node7</title>
<path fill="none" stroke="midnightblue" d="M241.576,-931.547C269.757,-938.178 307.501,-947.059 337.61,-954.143"/>
<polygon fill="midnightblue" stroke="midnightblue" points="336.967,-957.588 347.503,-956.471 338.57,-950.774 336.967,-957.588"/>
</g>
<!-- Node13 -->
<g id="node7" class="node"><title>Node13</title>
<g id="a_node7"><a xlink:href="$class_cool_board_sensors.html#a406307ffd70272282d91479c7ed8d66f" xlink:title="CoolBoardSensors::setEnv\lSensorSettings">
<polygon fill="white" stroke="black" points="321.5,-907 321.5,-937 456.5,-937 456.5,-907 321.5,-907"/>
<text text-anchor="start" x="329.5" y="-925" font-family="Helvetica,sans-Serif" font-size="10.00">CoolBoardSensors::setEnv</text>
<text text-anchor="middle" x="389" y="-914" font-family="Helvetica,sans-Serif" font-size="10.00">SensorSettings</text>
</a>
</g>
</g>
<!-- Node6&#45;&gt;Node13 -->
<g id="edge6" class="edge"><title>Node6&#45;&gt;Node13</title>
<path fill="none" stroke="midnightblue" d="M264.049,-922C279.183,-922 295.513,-922 311.194,-922"/>
<polygon fill="midnightblue" stroke="midnightblue" points="311.387,-925.5 321.387,-922 311.387,-918.5 311.387,-925.5"/>
</g>
<!-- Node14 -->
<g id="node8" class="node"><title>Node14</title>
<g id="a_node8"><a xlink:href="$class_b_m_e280.html#a994c102f010547f9c740a338ef9905c7" xlink:title="BME280::begin">
<polygon fill="white" stroke="red" points="347.5,-868.5 347.5,-887.5 430.5,-887.5 430.5,-868.5 347.5,-868.5"/>
<text text-anchor="middle" x="389" y="-875.5" font-family="Helvetica,sans-Serif" font-size="10.00">BME280::begin</text>
</a>
</g>
</g>
<!-- Node6&#45;&gt;Node14 -->
<g id="edge7" class="edge"><title>Node6&#45;&gt;Node14</title>
<path fill="none" stroke="midnightblue" d="M241.576,-912.453C269.757,-905.822 307.501,-896.941 337.61,-889.857"/>
<polygon fill="midnightblue" stroke="midnightblue" points="338.57,-893.226 347.503,-887.529 336.967,-886.412 338.57,-893.226"/>
</g>
<!-- Node23 -->
<g id="node15" class="node"><title>Node23</title>
<g id="a_node15"><a xlink:href="$class_cool_pub_sub_client.html#a7ee119b786010561ab6a9afa0798e91d" xlink:title="CoolPubSubClient::setClient">
<polygon fill="white" stroke="black" points="318,-760.5 318,-779.5 460,-779.5 460,-760.5 318,-760.5"/>
<text text-anchor="middle" x="389" y="-767.5" font-family="Helvetica,sans-Serif" font-size="10.00">CoolPubSubClient::setClient</text>
</a>
</g>
</g>
<!-- Node22&#45;&gt;Node23 -->
<g id="edge14" class="edge"><title>Node22&#45;&gt;Node23</title>
<path fill="none" stroke="midnightblue" d="M247.196,-702.394C255.789,-705.04 264.435,-708.496 272,-713 291.991,-724.9 287.843,-739.384 308,-751 311.861,-753.225 315.97,-755.19 320.21,-756.925"/>
<polygon fill="midnightblue" stroke="midnightblue" points="319.058,-760.231 329.652,-760.369 321.457,-753.655 319.058,-760.231"/>
</g>
<!-- Node24 -->
<g id="node16" class="node"><title>Node24</title>
<g id="a_node16"><a xlink:href="$class_cool_pub_sub_client.html#a947e70c394c66c7d08d0c53caf8425e3" xlink:title="CoolPubSubClient::setServer">
<polygon fill="white" stroke="black" points="316.5,-722.5 316.5,-741.5 461.5,-741.5 461.5,-722.5 316.5,-722.5"/>
<text text-anchor="middle" x="389" y="-729.5" font-family="Helvetica,sans-Serif" font-size="10.00">CoolPubSubClient::setServer</text>
</a>
</g>
</g>
<!-- Node22&#45;&gt;Node24 -->
<g id="edge15" class="edge"><title>Node22&#45;&gt;Node24</title>
<path fill="none" stroke="midnightblue" d="M247.225,-703.393C272.543,-708.538 304.138,-714.959 330.978,-720.413"/>
<polygon fill="midnightblue" stroke="midnightblue" points="330.511,-723.889 341.008,-722.451 331.905,-717.029 330.511,-723.889"/>
</g>
<!-- Node25 -->
<g id="node17" class="node"><title>Node25</title>
<g id="a_node17"><a xlink:href="$class_cool_pub_sub_client.html#ac5cab7658f1bdded32131241e468e661" xlink:title="CoolPubSubClient::setCallback">
<polygon fill="white" stroke="black" points="311.5,-684.5 311.5,-703.5 466.5,-703.5 466.5,-684.5 311.5,-684.5"/>
<text text-anchor="middle" x="389" y="-691.5" font-family="Helvetica,sans-Serif" font-size="10.00">CoolPubSubClient::setCallback</text>
</a>
</g>
</g>
<!-- Node22&#45;&gt;Node25 -->
<g id="edge16" class="edge"><title>Node22&#45;&gt;Node25</title>
<path fill="none" stroke="midnightblue" d="M247.225,-694C263.635,-694 282.683,-694 301.363,-694"/>
<polygon fill="midnightblue" stroke="midnightblue" points="301.381,-697.5 311.381,-694 301.381,-690.5 301.381,-697.5"/>
</g>
<!-- Node26 -->
<g id="node18" class="node"><title>Node26</title>
<g id="a_node18"><a xlink:href="$class_cool_m_q_t_t.html#a30d82ad665bfb603f46ecdbc290775df" xlink:title="CoolMQTT::callback">
<polygon fill="white" stroke="black" points="335.5,-646.5 335.5,-665.5 442.5,-665.5 442.5,-646.5 335.5,-646.5"/>
<text text-anchor="middle" x="389" y="-653.5" font-family="Helvetica,sans-Serif" font-size="10.00">CoolMQTT::callback</text>
</a>
</g>
</g>
<!-- Node22&#45;&gt;Node26 -->
<g id="edge17" class="edge"><title>Node22&#45;&gt;Node26</title>
<path fill="none" stroke="midnightblue" d="M247.225,-684.607C272.543,-679.462 304.138,-673.041 330.978,-667.587"/>
<polygon fill="midnightblue" stroke="midnightblue" points="331.905,-670.971 341.008,-665.549 330.511,-664.111 331.905,-670.971"/>
</g>
<!-- Node27 -->
<g id="node19" class="node"><title>Node27</title>
<g id="a_node19"><a xlink:href="$class_cool_pub_sub_client.html#a4f83e54f1ba96e32f725d93cdec283b7" xlink:title="CoolPubSubClient::setBufferSize">
<polygon fill="white" stroke="black" points="308,-608.5 308,-627.5 470,-627.5 470,-608.5 308,-608.5"/>
<text text-anchor="middle" x="389" y="-615.5" font-family="Helvetica,sans-Serif" font-size="10.00">CoolPubSubClient::setBufferSize</text>
</a>
</g>
</g>
<!-- Node22&#45;&gt;Node27 -->
<g id="edge18" class="edge"><title>Node22&#45;&gt;Node27</title>
<path fill="none" stroke="midnightblue" d="M247.196,-685.606C255.789,-682.96 264.435,-679.504 272,-675 291.991,-663.1 287.843,-648.616 308,-637 311.861,-634.775 315.97,-632.81 320.21,-631.075"/>
<polygon fill="midnightblue" stroke="midnightblue" points="321.457,-634.345 329.652,-627.631 319.058,-627.769 321.457,-634.345"/>
</g>
<!-- Node37 -->
<g id="node29" class="node"><title>Node37</title>
<g id="a_node29"><a xlink:href="$class_irene3000.html#abcad62d1201a59f8dd3ba87048002728" xlink:title="Irene3000::gainConvert">
<polygon fill="white" stroke="black" points="330,-424.5 330,-443.5 448,-443.5 448,-424.5 330,-424.5"/>
<text text-anchor="middle" x="389" y="-431.5" font-family="Helvetica,sans-Serif" font-size="10.00">Irene3000::gainConvert</text>
</a>
</g>
</g>
<!-- Node36&#45;&gt;Node37 -->
<g id="edge28" class="edge"><title>Node36&#45;&gt;Node37</title>
<path fill="none" stroke="midnightblue" d="M246.348,-359.614C255.288,-362.334 264.281,-366.017 272,-371 293.228,-384.704 286.581,-401.597 308,-415 311.848,-417.408 315.974,-419.51 320.25,-421.347"/>
<polygon fill="midnightblue" stroke="midnightblue" points="319.209,-424.695 329.8,-424.956 321.684,-418.147 319.209,-424.695"/>
</g>
<!-- Node39 -->
<g id="node31" class="node"><title>Node39</title>
<g id="a_node31"><a xlink:href="$class_adafruit___a_d_s1015.html#a6eba7c3cd854927f60883bb371e5faa6" xlink:title="Sets up the HW (reads coefficients values, etc.) ">
<polygon fill="white" stroke="black" points="325.5,-386.5 325.5,-405.5 452.5,-405.5 452.5,-386.5 325.5,-386.5"/>
<text text-anchor="middle" x="389" y="-393.5" font-family="Helvetica,sans-Serif" font-size="10.00">Adafruit_ADS1015::begin</text>
</a>
</g>
</g>
<!-- Node38&#45;&gt;Node39 -->
<g id="edge30" class="edge"><title>Node38&#45;&gt;Node39</title>
<path fill="none" stroke="midnightblue" d="M244.859,-321.169C254.285,-323.929 263.853,-327.74 272,-333 293.228,-346.704 286.581,-363.597 308,-377 311.375,-379.112 314.964,-380.989 318.681,-382.658"/>
<polygon fill="midnightblue" stroke="midnightblue" points="317.546,-385.973 328.133,-386.391 320.118,-379.462 317.546,-385.973"/>
</g>
<!-- Node40 -->
<g id="node32" class="node"><title>Node40</title>
<g id="a_node32"><a xlink:href="$class_irene3000.html#a78a87eb7cf295b95c12b2ebd51c2bb77" xlink:title="Irene3000::readButton">
<polygon fill="white" stroke="red" points="332.5,-348.5 332.5,-367.5 445.5,-367.5 445.5,-348.5 332.5,-348.5"/>
<text text-anchor="middle" x="389" y="-355.5" font-family="Helvetica,sans-Serif" font-size="10.00">Irene3000::readButton</text>
</a>
</g>
</g>
<!-- Node38&#45;&gt;Node40 -->
<g id="edge31" class="edge"><title>Node38&#45;&gt;Node40</title>
<path fill="none" stroke="midnightblue" d="M241.576,-323.547C269.757,-330.178 307.501,-339.059 337.61,-346.143"/>
<polygon fill="midnightblue" stroke="midnightblue" points="336.967,-349.588 347.503,-348.471 338.57,-342.774 336.967,-349.588"/>
</g>
<!-- Node48 -->
<g id="node33" class="node"><title>Node48</title>
<g id="a_node33"><a xlink:href="$class_irene3000.html#a1d3299202e4cb7afcff9c9e3e95d94c1" xlink:title="Irene3000::calibratepH7">
<polygon fill="white" stroke="red" points="329,-310.5 329,-329.5 449,-329.5 449,-310.5 329,-310.5"/>
<text text-anchor="middle" x="389" y="-317.5" font-family="Helvetica,sans-Serif" font-size="10.00">Irene3000::calibratepH7</text>
</a>
</g>
</g>
<!-- Node38&#45;&gt;Node48 -->
<g id="edge32" class="edge"><title>Node38&#45;&gt;Node48</title>
<path fill="none" stroke="midnightblue" d="M244.843,-315.407C266.855,-316.113 294.04,-316.985 318.786,-317.779"/>
<polygon fill="midnightblue" stroke="midnightblue" points="318.749,-321.28 328.856,-318.102 318.974,-314.283 318.749,-321.28"/>
</g>
<!-- Node50 -->
<g id="node34" class="node"><title>Node50</title>
<g id="a_node34"><a xlink:href="$class_irene3000.html#aa140dd026922a04981edfd04d46cabbe" xlink:title="Irene3000::calibratepH4">
<polygon fill="white" stroke="red" points="329,-272.5 329,-291.5 449,-291.5 449,-272.5 329,-272.5"/>
<text text-anchor="middle" x="389" y="-279.5" font-family="Helvetica,sans-Serif" font-size="10.00">Irene3000::calibratepH4</text>
</a>
</g>
</g>
<!-- Node38&#45;&gt;Node50 -->
<g id="edge33" class="edge"><title>Node38&#45;&gt;Node50</title>
<path fill="none" stroke="midnightblue" d="M244.843,-306.497C267.906,-302.551 296.648,-297.632 322.313,-293.241"/>
<polygon fill="midnightblue" stroke="midnightblue" points="323.084,-296.66 332.351,-291.523 321.904,-289.76 323.084,-296.66"/>
</g>
<!-- Node51 -->
<g id="node35" class="node"><title>Node51</title>
<g id="a_node35"><a xlink:href="$class_irene3000.html#a63dbd38e79b8cd5f1fba4b245501a894" xlink:title="Irene3000::saveParams">
<polygon fill="white" stroke="black" points="329,-234.5 329,-253.5 449,-253.5 449,-234.5 329,-234.5"/>
<text text-anchor="middle" x="389" y="-241.5" font-family="Helvetica,sans-Serif" font-size="10.00">Irene3000::saveParams</text>
</a>
</g>
</g>
<!-- Node38&#45;&gt;Node51 -->
<g id="edge34" class="edge"><title>Node38&#45;&gt;Node51</title>
<path fill="none" stroke="midnightblue" d="M244.653,-305.743C253.992,-303.048 263.574,-299.538 272,-295 290.847,-284.849 289.011,-272.884 308,-263 312.553,-260.63 317.404,-258.552 322.381,-256.729"/>
<polygon fill="midnightblue" stroke="midnightblue" points="323.665,-259.991 332.062,-253.529 321.468,-253.344 323.665,-259.991"/>
</g>
<!-- Node55 -->
<g id="node39" class="node"><title>Node55</title>
<g id="a_node39"><a xlink:href="$class_base_external_sensor.html#a87d132803d4f4fdd4e66332809f0c9a0" xlink:title="BaseExternalSensor\l::begin">
<polygon fill="white" stroke="black" points="336,-185 336,-215 442,-215 442,-185 336,-185"/>
<text text-anchor="start" x="344" y="-203" font-family="Helvetica,sans-Serif" font-size="10.00">BaseExternalSensor</text>
<text text-anchor="middle" x="389" y="-192" font-family="Helvetica,sans-Serif" font-size="10.00">::begin</text>
</a>
</g>
</g>
<!-- Node54&#45;&gt;Node55 -->
<g id="edge38" class="edge"><title>Node54&#45;&gt;Node55</title>
<path fill="none" stroke="midnightblue" d="M259.143,-200C280.338,-200 304.377,-200 325.903,-200"/>
<polygon fill="midnightblue" stroke="midnightblue" points="325.92,-203.5 335.92,-200 325.92,-196.5 325.92,-203.5"/>
</g>
<!-- Node56 -->
<g id="node40" class="node"><title>Node56</title>
<g id="a_node40"><a xlink:href="$class_base_external_sensor.html#a1564f16deacf57b51b9948ac29db4291" xlink:title="BaseExternalSensor\l::read">
<polygon fill="white" stroke="black" points="336,-136 336,-166 442,-166 442,-136 336,-136"/>
<text text-anchor="start" x="344" y="-154" font-family="Helvetica,sans-Serif" font-size="10.00">BaseExternalSensor</text>
<text text-anchor="middle" x="389" y="-143" font-family="Helvetica,sans-Serif" font-size="10.00">::read</text>
</a>
</g>
</g>
<!-- Node54&#45;&gt;Node56 -->
<g id="edge39" class="edge"><title>Node54&#45;&gt;Node56</title>
<path fill="none" stroke="midnightblue" d="M237.499,-190.436C262.615,-183.855 296.603,-174.949 325.925,-167.266"/>
<polygon fill="midnightblue" stroke="midnightblue" points="326.884,-170.633 335.67,-164.712 325.11,-163.861 326.884,-170.633"/>
</g>
<!-- Node57 -->
<g id="node41" class="node"><title>Node57</title>
<g id="a_node41"><a xlink:href="$_external_sensors_8cpp.html#af39fa3dad1ba161b384c0b26b8145e65" xlink:title="oneWire">
<polygon fill="white" stroke="black" points="362.5,-97.5 362.5,-116.5 415.5,-116.5 415.5,-97.5 362.5,-97.5"/>
<text text-anchor="middle" x="389" y="-104.5" font-family="Helvetica,sans-Serif" font-size="10.00">oneWire</text>
</a>
</g>
</g>
<!-- Node54&#45;&gt;Node57 -->
<g id="edge40" class="edge"><title>Node54&#45;&gt;Node57</title>
<path fill="none" stroke="midnightblue" d="M254.13,-190.4C260.477,-187.947 266.608,-184.867 272,-181 295.44,-164.19 284.422,-143.616 308,-127 320.807,-117.975 337.284,-113.011 351.953,-110.286"/>
<polygon fill="midnightblue" stroke="midnightblue" points="352.9,-113.68 362.236,-108.67 351.814,-106.764 352.9,-113.68"/>
</g>
<!-- Node60&#45;&gt;Node3 -->
<g id="edge44" class="edge"><title>Node60&#45;&gt;Node3</title>
<path fill="none" stroke="midnightblue" d="M223.241,-1083.52C244.675,-1092.45 278.158,-1105.78 308,-1115 316.137,-1117.51 324.826,-1119.89 333.367,-1122.05"/>
<polygon fill="midnightblue" stroke="midnightblue" points="332.739,-1125.5 343.285,-1124.49 334.41,-1118.7 332.739,-1125.5"/>
</g>
<!-- Node61 -->
<g id="node45" class="node"><title>Node61</title>
<g id="a_node45"><a xlink:href="$class_cool_wifi.html#ad060353050f40d032a2dbf9e54a768bf" xlink:title="CoolWifi::connect">
<polygon fill="white" stroke="red" points="341.5,-1086.5 341.5,-1105.5 436.5,-1105.5 436.5,-1086.5 341.5,-1086.5"/>
<text text-anchor="middle" x="389" y="-1093.5" font-family="Helvetica,sans-Serif" font-size="10.00">CoolWifi::connect</text>
</a>
</g>
</g>
<!-- Node60&#45;&gt;Node61 -->
<g id="edge45" class="edge"><title>Node60&#45;&gt;Node61</title>
<path fill="none" stroke="midnightblue" d="M251.605,-1079.95C276.132,-1082.84 305.688,-1086.32 331.006,-1089.29"/>
<polygon fill="midnightblue" stroke="midnightblue" points="330.865,-1092.8 341.206,-1090.49 331.683,-1085.85 330.865,-1092.8"/>
</g>
<!-- Node69 -->
<g id="node46" class="node"><title>Node69</title>
<g id="a_node46"><a xlink:href="$class_cool_wifi.html#a1c7b4d82a4098d346e7593dce92039fa" xlink:title="CoolWifi::state">
<polygon fill="white" stroke="black" points="348,-1048.5 348,-1067.5 430,-1067.5 430,-1048.5 348,-1048.5"/>
<text text-anchor="middle" x="389" y="-1055.5" font-family="Helvetica,sans-Serif" font-size="10.00">CoolWifi::state</text>
</a>
</g>
</g>
<!-- Node60&#45;&gt;Node69 -->
<g id="edge46" class="edge"><title>Node60&#45;&gt;Node69</title>
<path fill="none" stroke="midnightblue" d="M251.605,-1069.67C278.247,-1067.39 310.82,-1064.6 337.454,-1062.32"/>
<polygon fill="midnightblue" stroke="midnightblue" points="338.053,-1065.79 347.718,-1061.45 337.456,-1058.81 338.053,-1065.79"/>
</g>
<!-- Node60&#45;&gt;Node77 -->
<g id="edge47" class="edge"><title>Node60&#45;&gt;Node77</title>
<path fill="none" stroke="midnightblue" d="M229.502,-1064.38C255.863,-1055.54 293.138,-1043.19 308,-1039 316.779,-1036.53 326.158,-1034.1 335.292,-1031.86"/>
<polygon fill="midnightblue" stroke="midnightblue" points="336.166,-1035.25 345.067,-1029.5 334.526,-1028.45 336.166,-1035.25"/>
</g>
</g>
</svg>
