<?xml version="1.0" encoding="UTF-8" standalone="no"?>
<!DOCTYPE svg PUBLIC "-//W3C//DTD SVG 1.1//EN"
 "http://www.w3.org/Graphics/SVG/1.1/DTD/svg11.dtd">
<!-- Generated by graphviz version 2.38.0 (20140413.2041)
 -->
<!-- Title: CoolMQTT::connect Pages: 1 -->
<svg width="458pt" height="142pt"
 viewBox="0.00 0.00 458.00 142.00" xmlns="http://www.w3.org/2000/svg" xmlns:xlink="http://www.w3.org/1999/xlink">
<g id="graph0" class="graph" transform="scale(1 1) rotate(0) translate(4 138)">
<title>CoolMQTT::connect</title>
<polygon fill="white" stroke="none" points="-4,4 -4,-138 454,-138 454,4 -4,4"/>
<!-- Node17 -->
<g id="node1" class="node"><title>Node17</title>
<polygon fill="#bfbfbf" stroke="black" points="0,-57.5 0,-76.5 105,-76.5 105,-57.5 0,-57.5"/>
<text text-anchor="middle" x="52.5" y="-64.5" font-family="Helvetica,sans-Serif" font-size="10.00">CoolMQTT::connect</text>
</g>
<!-- Node18 -->
<g id="node2" class="node"><title>Node18</title>
<g id="a_node2"><a xlink:href="$class_cool_pub_sub_client.html#a3d5a5da4ddb1e5c1bea64d80c665d148" xlink:title="CoolPubSubClient::connected">
<polygon fill="white" stroke="black" points="141,-114.5 141,-133.5 289,-133.5 289,-114.5 141,-114.5"/>
<text text-anchor="middle" x="215" y="-121.5" font-family="Helvetica,sans-Serif" font-size="10.00">CoolPubSubClient::connected</text>
</a>
</g>
</g>
<!-- Node17&#45;&gt;Node18 -->
<g id="edge1" class="edge"><title>Node17&#45;&gt;Node18</title>
<path fill="none" stroke="midnightblue" d="M73.3069,-76.6545C90.8172,-84.9337 117.202,-96.791 141,-105 148.059,-107.435 155.594,-109.728 163.044,-111.821"/>
<polygon fill="midnightblue" stroke="midnightblue" points="162.173,-115.211 172.741,-114.453 164.007,-108.455 162.173,-115.211"/>
</g>
<!-- Node19 -->
<g id="node3" class="node"><title>Node19</title>
<g id="a_node3"><a xlink:href="$class_cool_pub_sub_client.html#a2664c2ebc302b2fa49f493a339ecc891" xlink:title="CoolPubSubClient::connect">
<polygon fill="white" stroke="black" points="146.5,-76.5 146.5,-95.5 283.5,-95.5 283.5,-76.5 146.5,-76.5"/>
<text text-anchor="middle" x="215" y="-83.5" font-family="Helvetica,sans-Serif" font-size="10.00">CoolPubSubClient::connect</text>
</a>
</g>
</g>
<!-- Node17&#45;&gt;Node19 -->
<g id="edge2" class="edge"><title>Node17&#45;&gt;Node19</title>
<path fill="none" stroke="midnightblue" d="M105.167,-73.1163C115.097,-74.2919 125.7,-75.547 136.245,-76.7953"/>
<polygon fill="midnightblue" stroke="midnightblue" points="135.971,-80.2873 146.313,-77.9873 136.794,-73.3358 135.971,-80.2873"/>
</g>
<!-- Node20 -->
<g id="node4" class="node"><title>Node20</title>
<g id="a_node4"><a xlink:href="$class_cool_pub_sub_client.html#ac1ebc9ad874128aefa985d78496d2e8f" xlink:title="CoolPubSubClient::subscribe">
<polygon fill="white" stroke="black" points="142.5,-38.5 142.5,-57.5 287.5,-57.5 287.5,-38.5 142.5,-38.5"/>
<text text-anchor="middle" x="215" y="-45.5" font-family="Helvetica,sans-Serif" font-size="10.00">CoolPubSubClient::subscribe</text>
</a>
</g>
</g>
<!-- Node17&#45;&gt;Node20 -->
<g id="edge3" class="edge"><title>Node17&#45;&gt;Node20</title>
<path fill="none" stroke="midnightblue" d="M105.167,-60.8837C113.848,-59.856 123.043,-58.7675 132.264,-57.6759"/>
<polygon fill="midnightblue" stroke="midnightblue" points="132.737,-61.1444 142.257,-56.493 131.914,-54.1929 132.737,-61.1444"/>
</g>
<!-- Node21 -->
<g id="node5" class="node"><title>Node21</title>
<g id="a_node5"><a xlink:href="$class_cool_m_q_t_t.html#a5d003307eff78efbd585e42b43b72b6d" xlink:title="CoolMQTT::state">
<polygon fill="white" stroke="black" points="169,-0.5 169,-19.5 261,-19.5 261,-0.5 169,-0.5"/>
<text text-anchor="middle" x="215" y="-7.5" font-family="Helvetica,sans-Serif" font-size="10.00">CoolMQTT::state</text>
</a>
</g>
</g>
<!-- Node17&#45;&gt;Node21 -->
<g id="edge4" class="edge"><title>Node17&#45;&gt;Node21</title>
<path fill="none" stroke="midnightblue" d="M73.3069,-57.3455C90.8172,-49.0663 117.202,-37.209 141,-29 148.059,-26.5652 155.594,-24.2724 163.044,-22.1793"/>
<polygon fill="midnightblue" stroke="midnightblue" points="164.007,-25.5447 172.741,-19.5474 162.173,-18.7891 164.007,-25.5447"/>
</g>
<!-- Node22 -->
<g id="node6" class="node"><title>Node22</title>
<g id="a_node6"><a xlink:href="$class_cool_pub_sub_client.html#a3245a5afc6d22e61270dcfe392ccb866" xlink:title="CoolPubSubClient::state">
<polygon fill="white" stroke="black" points="325,-0.5 325,-19.5 450,-19.5 450,-0.5 325,-0.5"/>
<text text-anchor="middle" x="387.5" y="-7.5" font-family="Helvetica,sans-Serif" font-size="10.00">CoolPubSubClient::state</text>
</a>
</g>
</g>
<!-- Node21&#45;&gt;Node22 -->
<g id="edge5" class="edge"><title>Node21&#45;&gt;Node22</title>
<path fill="none" stroke="midnightblue" d="M261.243,-10C277.725,-10 296.787,-10 314.99,-10"/>
<polygon fill="midnightblue" stroke="midnightblue" points="314.993,-13.5001 324.993,-10 314.993,-6.5001 314.993,-13.5001"/>
</g>
</g>
</svg>
