<?xml version="1.0" encoding="UTF-8" standalone="no"?>
<!DOCTYPE svg PUBLIC "-//W3C//DTD SVG 1.1//EN"
 "http://www.w3.org/Graphics/SVG/1.1/DTD/svg11.dtd">
<!-- Generated by graphviz version 2.38.0 (20140413.2041)
 -->
<!-- Title: CoolBoardActor::mixedMinuteAction Pages: 1 -->
<svg width="479pt" height="66pt"
 viewBox="0.00 0.00 479.00 66.00" xmlns="http://www.w3.org/2000/svg" xmlns:xlink="http://www.w3.org/1999/xlink">
<g id="graph0" class="graph" transform="scale(1 1) rotate(0) translate(4 62)">
<title>CoolBoardActor::mixedMinuteAction</title>
<polygon fill="white" stroke="none" points="-4,4 -4,-62 475,-62 475,4 -4,4"/>
<!-- Node61 -->
<g id="node1" class="node"><title>Node61</title>
<polygon fill="#bfbfbf" stroke="black" points="0,-14 0,-44 147,-44 147,-14 0,-14"/>
<text text-anchor="start" x="8" y="-32" font-family="Helvetica,sans-Serif" font-size="10.00">CoolBoardActor::mixedMinute</text>
<text text-anchor="middle" x="73.5" y="-21" font-family="Helvetica,sans-Serif" font-size="10.00">Action</text>
</g>
<!-- Node62 -->
<g id="node2" class="node"><title>Node62</title>
<g id="a_node2"><a xlink:href="$class_cool_board_actor.html#a3323ba7aaa4bef3ff084dcd830fe9b61" xlink:title="CoolBoardActor::doAction">
<polygon fill="white" stroke="black" points="183,-19.5 183,-38.5 313,-38.5 313,-19.5 183,-19.5"/>
<text text-anchor="middle" x="248" y="-26.5" font-family="Helvetica,sans-Serif" font-size="10.00">CoolBoardActor::doAction</text>
</a>
</g>
</g>
<!-- Node61&#45;&gt;Node62 -->
<g id="edge1" class="edge"><title>Node61&#45;&gt;Node62</title>
<path fill="none" stroke="midnightblue" d="M157.241,-29C165.867,-29 174.541,-29 182.916,-29"/>
<polygon fill="midnightblue" stroke="midnightblue" points="157.156,-25.5001 147.156,-29 157.156,-32.5001 157.156,-25.5001"/>
</g>
<!-- Node63 -->
<g id="node3" class="node"><title>Node63</title>
<g id="a_node3"><a xlink:href="$class_cool_board.html#aa0bbc4bc605e35618d18e68795c61363" xlink:title="CoolBoard::onLineMode">
<polygon fill="white" stroke="black" points="349.5,-38.5 349.5,-57.5 470.5,-57.5 470.5,-38.5 349.5,-38.5"/>
<text text-anchor="middle" x="410" y="-45.5" font-family="Helvetica,sans-Serif" font-size="10.00">CoolBoard::onLineMode</text>
</a>
</g>
</g>
<!-- Node62&#45;&gt;Node63 -->
<g id="edge2" class="edge"><title>Node62&#45;&gt;Node63</title>
<path fill="none" stroke="midnightblue" d="M323.371,-37.8316C332.13,-38.8717 340.98,-39.9226 349.497,-40.934"/>
<polygon fill="midnightblue" stroke="midnightblue" points="323.499,-34.3223 313.156,-36.6185 322.674,-41.2734 323.499,-34.3223"/>
</g>
<!-- Node64 -->
<g id="node4" class="node"><title>Node64</title>
<g id="a_node4"><a xlink:href="$class_cool_board.html#ae6b5e1274d760462290192acea4adca8" xlink:title="CoolBoard::offLineMode">
<polygon fill="white" stroke="black" points="349,-0.5 349,-19.5 471,-19.5 471,-0.5 349,-0.5"/>
<text text-anchor="middle" x="410" y="-7.5" font-family="Helvetica,sans-Serif" font-size="10.00">CoolBoard::offLineMode</text>
</a>
</g>
</g>
<!-- Node62&#45;&gt;Node64 -->
<g id="edge3" class="edge"><title>Node62&#45;&gt;Node64</title>
<path fill="none" stroke="midnightblue" d="M323.222,-20.1861C331.853,-19.1612 340.574,-18.1255 348.981,-17.1273"/>
<polygon fill="midnightblue" stroke="midnightblue" points="322.674,-16.7266 313.156,-21.3815 323.499,-23.6777 322.674,-16.7266"/>
</g>
</g>
</svg>
