<?xml version="1.0" encoding="UTF-8" standalone="no"?>
<!DOCTYPE svg PUBLIC "-//W3C//DTD SVG 1.1//EN"
 "http://www.w3.org/Graphics/SVG/1.1/DTD/svg11.dtd">
<!-- Generated by graphviz version 2.38.0 (20140413.2041)
 -->
<!-- Title: CoolPubSubClient::connected Pages: 1 -->
<svg width="809pt" height="294pt"
 viewBox="0.00 0.00 809.00 294.00" xmlns="http://www.w3.org/2000/svg" xmlns:xlink="http://www.w3.org/1999/xlink">
<g id="graph0" class="graph" transform="scale(1 1) rotate(0) translate(4 290)">
<title>CoolPubSubClient::connected</title>
<polygon fill="white" stroke="none" points="-4,4 -4,-290 805,-290 805,4 -4,4"/>
<!-- Node89 -->
<g id="node1" class="node"><title>Node89</title>
<polygon fill="#bfbfbf" stroke="black" points="0,-114.5 0,-133.5 148,-133.5 148,-114.5 0,-114.5"/>
<text text-anchor="middle" x="74" y="-121.5" font-family="Helvetica,sans-Serif" font-size="10.00">CoolPubSubClient::connected</text>
</g>
<!-- Node90 -->
<g id="node2" class="node"><title>Node90</title>
<g id="a_node2"><a xlink:href="$class_cool_m_q_t_t.html#a50075d0ab23a327ab897fd6adad20eda" xlink:title="CoolMQTT::connect">
<polygon fill="white" stroke="black" points="209,-228.5 209,-247.5 314,-247.5 314,-228.5 209,-228.5"/>
<text text-anchor="middle" x="261.5" y="-235.5" font-family="Helvetica,sans-Serif" font-size="10.00">CoolMQTT::connect</text>
</a>
</g>
</g>
<!-- Node89&#45;&gt;Node90 -->
<g id="edge1" class="edge"><title>Node89&#45;&gt;Node90</title>
<path fill="none" stroke="midnightblue" d="M90.086,-141.475C109.603,-162.965 145.673,-199.039 184,-219 191.646,-222.982 200.162,-226.155 208.657,-228.676"/>
<polygon fill="midnightblue" stroke="midnightblue" points="92.4839,-138.905 83.2221,-133.76 87.254,-143.557 92.4839,-138.905"/>
</g>
<!-- Node94 -->
<g id="node6" class="node"><title>Node94</title>
<g id="a_node6"><a xlink:href="$class_cool_pub_sub_client.html#a7e5a85731dd25d90a41f6d859e61da77" xlink:title="CoolPubSubClient::connect">
<polygon fill="white" stroke="black" points="193,-190.5 193,-209.5 330,-209.5 330,-190.5 193,-190.5"/>
<text text-anchor="middle" x="261.5" y="-197.5" font-family="Helvetica,sans-Serif" font-size="10.00">CoolPubSubClient::connect</text>
</a>
</g>
</g>
<!-- Node89&#45;&gt;Node94 -->
<g id="edge5" class="edge"><title>Node89&#45;&gt;Node94</title>
<path fill="none" stroke="midnightblue" d="M99.1377,-138.767C120.725,-151.445 153.563,-169.452 184,-181 193.596,-184.641 204.136,-187.779 214.242,-190.397"/>
<polygon fill="midnightblue" stroke="midnightblue" points="100.72,-135.636 90.3375,-133.527 97.1387,-141.65 100.72,-135.636"/>
</g>
<!-- Node95 -->
<g id="node7" class="node"><title>Node95</title>
<g id="a_node7"><a xlink:href="$class_cool_pub_sub_client.html#afc15900f0fc4886a19394508e61793b8" xlink:title="CoolPubSubClient::loop">
<polygon fill="white" stroke="black" points="201,-152.5 201,-171.5 322,-171.5 322,-152.5 201,-152.5"/>
<text text-anchor="middle" x="261.5" y="-159.5" font-family="Helvetica,sans-Serif" font-size="10.00">CoolPubSubClient::loop</text>
</a>
</g>
</g>
<!-- Node89&#45;&gt;Node95 -->
<g id="edge6" class="edge"><title>Node89&#45;&gt;Node95</title>
<path fill="none" stroke="midnightblue" d="M131.673,-135.61C158.055,-141.014 189.051,-147.364 214.027,-152.48"/>
<polygon fill="midnightblue" stroke="midnightblue" points="132.308,-132.167 121.809,-133.589 130.904,-139.025 132.308,-132.167"/>
</g>
<!-- Node100 -->
<g id="node12" class="node"><title>Node100</title>
<g id="a_node12"><a xlink:href="$class_cool_pub_sub_client.html#adef968760eb87b70e3fed03e60da76f7" xlink:title="CoolPubSubClient::publish">
<polygon fill="white" stroke="black" points="194.5,-114.5 194.5,-133.5 328.5,-133.5 328.5,-114.5 194.5,-114.5"/>
<text text-anchor="middle" x="261.5" y="-121.5" font-family="Helvetica,sans-Serif" font-size="10.00">CoolPubSubClient::publish</text>
</a>
</g>
</g>
<!-- Node89&#45;&gt;Node100 -->
<g id="edge13" class="edge"><title>Node89&#45;&gt;Node100</title>
<path fill="none" stroke="midnightblue" d="M158.184,-124C170.335,-124 182.707,-124 194.454,-124"/>
<polygon fill="midnightblue" stroke="midnightblue" points="158.048,-120.5 148.048,-124 158.048,-127.5 158.048,-120.5"/>
</g>
<!-- Node101 -->
<g id="node13" class="node"><title>Node101</title>
<g id="a_node13"><a xlink:href="$class_cool_pub_sub_client.html#a55458d47cf01f590e9b6647d5a418ab6" xlink:title="CoolPubSubClient::publish_P">
<polygon fill="white" stroke="black" points="188.5,-76.5 188.5,-95.5 334.5,-95.5 334.5,-76.5 188.5,-76.5"/>
<text text-anchor="middle" x="261.5" y="-83.5" font-family="Helvetica,sans-Serif" font-size="10.00">CoolPubSubClient::publish_P</text>
</a>
</g>
</g>
<!-- Node89&#45;&gt;Node101 -->
<g id="edge14" class="edge"><title>Node89&#45;&gt;Node101</title>
<path fill="none" stroke="midnightblue" d="M131.673,-112.39C158.055,-106.986 189.051,-100.636 214.027,-95.5201"/>
<polygon fill="midnightblue" stroke="midnightblue" points="130.904,-108.975 121.809,-114.411 132.308,-115.833 130.904,-108.975"/>
</g>
<!-- Node102 -->
<g id="node14" class="node"><title>Node102</title>
<g id="a_node14"><a xlink:href="$class_cool_pub_sub_client.html#aebf684e98588c52a72af1014f7957bee" xlink:title="CoolPubSubClient::subscribe">
<polygon fill="white" stroke="black" points="189,-38.5 189,-57.5 334,-57.5 334,-38.5 189,-38.5"/>
<text text-anchor="middle" x="261.5" y="-45.5" font-family="Helvetica,sans-Serif" font-size="10.00">CoolPubSubClient::subscribe</text>
</a>
</g>
</g>
<!-- Node89&#45;&gt;Node102 -->
<g id="edge15" class="edge"><title>Node89&#45;&gt;Node102</title>
<path fill="none" stroke="midnightblue" d="M99.1377,-109.233C120.725,-96.5546 153.563,-78.548 184,-67 193.596,-63.3591 204.136,-60.2208 214.242,-57.603"/>
<polygon fill="midnightblue" stroke="midnightblue" points="97.1387,-106.35 90.3375,-114.473 100.72,-112.364 97.1387,-106.35"/>
</g>
<!-- Node103 -->
<g id="node15" class="node"><title>Node103</title>
<g id="a_node15"><a xlink:href="$class_cool_pub_sub_client.html#a850554280e314d6b5c33c73fd9e809fc" xlink:title="CoolPubSubClient::unsubscribe">
<polygon fill="white" stroke="black" points="184,-0.5 184,-19.5 339,-19.5 339,-0.5 184,-0.5"/>
<text text-anchor="middle" x="261.5" y="-7.5" font-family="Helvetica,sans-Serif" font-size="10.00">CoolPubSubClient::unsubscribe</text>
</a>
</g>
</g>
<!-- Node89&#45;&gt;Node103 -->
<g id="edge16" class="edge"><title>Node89&#45;&gt;Node103</title>
<path fill="none" stroke="midnightblue" d="M90.086,-106.525C109.603,-85.0349 145.673,-48.961 184,-29 191.404,-25.144 199.623,-22.0469 207.848,-19.5659"/>
<polygon fill="midnightblue" stroke="midnightblue" points="87.254,-104.443 83.2221,-114.24 92.4839,-109.095 87.254,-104.443"/>
</g>
<!-- Node91 -->
<g id="node3" class="node"><title>Node91</title>
<g id="a_node3"><a xlink:href="$class_cool_board.html#a519de78b807f8ec6463ff484eb925918" xlink:title="CoolBoard::connect">
<polygon fill="white" stroke="black" points="379,-228.5 379,-247.5 482,-247.5 482,-228.5 379,-228.5"/>
<text text-anchor="middle" x="430.5" y="-235.5" font-family="Helvetica,sans-Serif" font-size="10.00">CoolBoard::connect</text>
</a>
</g>
</g>
<!-- Node90&#45;&gt;Node91 -->
<g id="edge2" class="edge"><title>Node90&#45;&gt;Node91</title>
<path fill="none" stroke="midnightblue" d="M324.723,-238C342.531,-238 361.722,-238 378.753,-238"/>
<polygon fill="midnightblue" stroke="midnightblue" points="324.424,-234.5 314.424,-238 324.424,-241.5 324.424,-234.5"/>
</g>
<!-- Node92 -->
<g id="node4" class="node"><title>Node92</title>
<g id="a_node4"><a xlink:href="$class_cool_board.html#acba7c5aef7268b2c0044bdb54d3b9d76" xlink:title="CoolBoard::begin">
<polygon fill="white" stroke="black" points="537,-266.5 537,-285.5 629,-285.5 629,-266.5 537,-266.5"/>
<text text-anchor="middle" x="583" y="-273.5" font-family="Helvetica,sans-Serif" font-size="10.00">CoolBoard::begin</text>
</a>
</g>
</g>
<!-- Node91&#45;&gt;Node92 -->
<g id="edge3" class="edge"><title>Node91&#45;&gt;Node92</title>
<path fill="none" stroke="midnightblue" d="M479.185,-250.04C500.21,-255.349 524.567,-261.499 544.296,-266.48"/>
<polygon fill="midnightblue" stroke="midnightblue" points="480.03,-246.644 469.478,-247.589 478.316,-253.431 480.03,-246.644"/>
</g>
<!-- Node93 -->
<g id="node5" class="node"><title>Node93</title>
<g id="a_node5"><a xlink:href="$class_cool_board.html#ae6b5e1274d760462290192acea4adca8" xlink:title="CoolBoard::offLineMode">
<polygon fill="white" stroke="black" points="522,-228.5 522,-247.5 644,-247.5 644,-228.5 522,-228.5"/>
<text text-anchor="middle" x="583" y="-235.5" font-family="Helvetica,sans-Serif" font-size="10.00">CoolBoard::offLineMode</text>
</a>
</g>
</g>
<!-- Node91&#45;&gt;Node93 -->
<g id="edge4" class="edge"><title>Node91&#45;&gt;Node93</title>
<path fill="none" stroke="midnightblue" d="M492.125,-238C501.958,-238 512.137,-238 521.956,-238"/>
<polygon fill="midnightblue" stroke="midnightblue" points="492.033,-234.5 482.033,-238 492.033,-241.5 492.033,-234.5"/>
</g>
<!-- Node96 -->
<g id="node8" class="node"><title>Node96</title>
<g id="a_node8"><a xlink:href="$class_cool_m_q_t_t.html#aa5eaae967b562b62cbcf2b8d81f6e5d5" xlink:title="CoolMQTT::mqttLoop">
<polygon fill="white" stroke="black" points="375,-152.5 375,-171.5 486,-171.5 486,-152.5 375,-152.5"/>
<text text-anchor="middle" x="430.5" y="-159.5" font-family="Helvetica,sans-Serif" font-size="10.00">CoolMQTT::mqttLoop</text>
</a>
</g>
</g>
<!-- Node95&#45;&gt;Node96 -->
<g id="edge7" class="edge"><title>Node95&#45;&gt;Node96</title>
<path fill="none" stroke="midnightblue" d="M332.496,-162C346.635,-162 361.304,-162 374.824,-162"/>
<polygon fill="midnightblue" stroke="midnightblue" points="332.319,-158.5 322.319,-162 332.319,-165.5 332.319,-158.5"/>
</g>
<!-- Node97 -->
<g id="node9" class="node"><title>Node97</title>
<g id="a_node9"><a xlink:href="$class_cool_board.html#aa0bbc4bc605e35618d18e68795c61363" xlink:title="CoolBoard::onLineMode">
<polygon fill="white" stroke="black" points="680,-152.5 680,-171.5 801,-171.5 801,-152.5 680,-152.5"/>
<text text-anchor="middle" x="740.5" y="-159.5" font-family="Helvetica,sans-Serif" font-size="10.00">CoolBoard::onLineMode</text>
</a>
</g>
</g>
<!-- Node96&#45;&gt;Node97 -->
<g id="edge8" class="edge"><title>Node96&#45;&gt;Node97</title>
<path fill="none" stroke="midnightblue" d="M478.122,-173.711C492.133,-176.709 507.608,-179.506 522,-181 575.932,-186.6 590.039,-186.316 644,-181 662.842,-179.144 683.477,-175.275 700.729,-171.51"/>
<polygon fill="midnightblue" stroke="midnightblue" points="478.735,-170.262 468.214,-171.509 477.216,-177.095 478.735,-170.262"/>
</g>
<!-- Node98 -->
<g id="node10" class="node"><title>Node98</title>
<g id="a_node10"><a xlink:href="$class_cool_board.html#a8612756d3f73198cdde857a66f0fe690" xlink:title="CoolBoard::update">
<polygon fill="white" stroke="black" points="534,-152.5 534,-171.5 632,-171.5 632,-152.5 534,-152.5"/>
<text text-anchor="middle" x="583" y="-159.5" font-family="Helvetica,sans-Serif" font-size="10.00">CoolBoard::update</text>
</a>
</g>
</g>
<!-- Node96&#45;&gt;Node98 -->
<g id="edge9" class="edge"><title>Node96&#45;&gt;Node98</title>
<path fill="none" stroke="midnightblue" d="M496.295,-162C508.95,-162 522.007,-162 533.998,-162"/>
<polygon fill="midnightblue" stroke="midnightblue" points="496.26,-158.5 486.26,-162 496.26,-165.5 496.26,-158.5"/>
</g>
<!-- Node99 -->
<g id="node11" class="node"><title>Node99</title>
<g id="a_node11"><a xlink:href="$class_cool_board.html#a705398b11560603fcdd1b9e8e95d0027" xlink:title="CoolBoard::sendConfig">
<polygon fill="white" stroke="black" points="524,-114.5 524,-133.5 642,-133.5 642,-114.5 524,-114.5"/>
<text text-anchor="middle" x="583" y="-121.5" font-family="Helvetica,sans-Serif" font-size="10.00">CoolBoard::sendConfig</text>
</a>
</g>
</g>
<!-- Node96&#45;&gt;Node99 -->
<g id="edge11" class="edge"><title>Node96&#45;&gt;Node99</title>
<path fill="none" stroke="midnightblue" d="M479.185,-149.96C500.21,-144.651 524.567,-138.501 544.296,-133.52"/>
<polygon fill="midnightblue" stroke="midnightblue" points="478.316,-146.569 469.478,-152.411 480.03,-153.356 478.316,-146.569"/>
</g>
<!-- Node98&#45;&gt;Node97 -->
<g id="edge10" class="edge"><title>Node98&#45;&gt;Node97</title>
<path fill="none" stroke="midnightblue" d="M642.456,-162C654.713,-162 667.654,-162 679.951,-162"/>
<polygon fill="midnightblue" stroke="midnightblue" points="642.349,-158.5 632.349,-162 642.349,-165.5 642.349,-158.5"/>
</g>
<!-- Node99&#45;&gt;Node97 -->
<g id="edge12" class="edge"><title>Node99&#45;&gt;Node97</title>
<path fill="none" stroke="midnightblue" d="M632.974,-135.968C654.765,-141.293 680.067,-147.476 700.543,-152.48"/>
<polygon fill="midnightblue" stroke="midnightblue" points="633.784,-132.563 623.239,-133.589 632.122,-139.363 633.784,-132.563"/>
</g>
</g>
</svg>
