<?xml version="1.0" encoding="UTF-8" standalone="no"?>
<!DOCTYPE svg PUBLIC "-//W3C//DTD SVG 1.1//EN"
 "http://www.w3.org/Graphics/SVG/1.1/DTD/svg11.dtd">
<!-- Generated by graphviz version 2.38.0 (20140413.2041)
 -->
<!-- Title: CoolPubSubClient::setClient Pages: 1 -->
<svg width="454pt" height="78pt"
 viewBox="0.00 0.00 454.00 77.50" xmlns="http://www.w3.org/2000/svg" xmlns:xlink="http://www.w3.org/1999/xlink">
<g id="graph0" class="graph" transform="scale(1 1) rotate(0) translate(4 73.5)">
<title>CoolPubSubClient::setClient</title>
<polygon fill="white" stroke="none" points="-4,4 -4,-73.5 450,-73.5 450,4 -4,4"/>
<!-- Node172 -->
<g id="node1" class="node"><title>Node172</title>
<polygon fill="#bfbfbf" stroke="black" points="0,-28 0,-47 142,-47 142,-28 0,-28"/>
<text text-anchor="middle" x="71" y="-35" font-family="Helvetica,sans-Serif" font-size="10.00">CoolPubSubClient::setClient</text>
</g>
<!-- Node173 -->
<g id="node2" class="node"><title>Node173</title>
<g id="a_node2"><a xlink:href="$class_cool_m_q_t_t.html#ac9248808641ebf3054ed0620ea9d0100" xlink:title="CoolMQTT::begin">
<polygon fill="white" stroke="black" points="201,-50 201,-69 295,-69 295,-50 201,-50"/>
<text text-anchor="middle" x="248" y="-57" font-family="Helvetica,sans-Serif" font-size="10.00">CoolMQTT::begin</text>
</a>
</g>
</g>
<!-- Node172&#45;&gt;Node173 -->
<g id="edge1" class="edge"><title>Node172&#45;&gt;Node173</title>
<path fill="none" stroke="midnightblue" d="M152.457,-47.6146C169.082,-49.7046 186.049,-51.8376 200.935,-53.709"/>
<polygon fill="midnightblue" stroke="midnightblue" points="152.529,-44.0962 142.171,-46.3215 151.656,-51.0416 152.529,-44.0962"/>
</g>
<!-- Node175 -->
<g id="node4" class="node"><title>Node175</title>
<g id="a_node4"><a xlink:href="$class_cool_pub_sub_client.html#a0563a12cb4e9339bf2605cfc655e717d" xlink:title="CoolPubSubClient::CoolPub\lSubClient">
<polygon fill="white" stroke="black" points="178,-0.5 178,-30.5 318,-30.5 318,-0.5 178,-0.5"/>
<text text-anchor="start" x="186" y="-18.5" font-family="Helvetica,sans-Serif" font-size="10.00">CoolPubSubClient::CoolPub</text>
<text text-anchor="middle" x="248" y="-7.5" font-family="Helvetica,sans-Serif" font-size="10.00">SubClient</text>
</a>
</g>
</g>
<!-- Node172&#45;&gt;Node175 -->
<g id="edge3" class="edge"><title>Node172&#45;&gt;Node175</title>
<path fill="none" stroke="midnightblue" d="M152.203,-27.4173C160.804,-26.3361 169.499,-25.243 177.953,-24.1802"/>
<polygon fill="midnightblue" stroke="midnightblue" points="151.656,-23.9584 142.171,-28.6785 152.529,-30.9038 151.656,-23.9584"/>
</g>
<!-- Node174 -->
<g id="node3" class="node"><title>Node174</title>
<g id="a_node3"><a xlink:href="$class_cool_board.html#acba7c5aef7268b2c0044bdb54d3b9d76" xlink:title="CoolBoard::begin">
<polygon fill="white" stroke="black" points="354,-50 354,-69 446,-69 446,-50 354,-50"/>
<text text-anchor="middle" x="400" y="-57" font-family="Helvetica,sans-Serif" font-size="10.00">CoolBoard::begin</text>
</a>
</g>
</g>
<!-- Node173&#45;&gt;Node174 -->
<g id="edge2" class="edge"><title>Node173&#45;&gt;Node174</title>
<path fill="none" stroke="midnightblue" d="M305.537,-59.5C321.536,-59.5 338.729,-59.5 353.953,-59.5"/>
<polygon fill="midnightblue" stroke="midnightblue" points="305.229,-56.0001 295.229,-59.5 305.229,-63.0001 305.229,-56.0001"/>
</g>
</g>
</svg>
