<?xml version="1.0" encoding="UTF-8" standalone="no"?>
<!DOCTYPE svg PUBLIC "-//W3C//DTD SVG 1.1//EN"
 "http://www.w3.org/Graphics/SVG/1.1/DTD/svg11.dtd">
<!-- Generated by graphviz version 2.38.0 (20140413.2041)
 -->
<!-- Title: CoolWifi::addWifi Pages: 1 -->
<svg width="673pt" height="66pt"
 viewBox="0.00 0.00 673.00 66.00" xmlns="http://www.w3.org/2000/svg" xmlns:xlink="http://www.w3.org/1999/xlink">
<g id="graph0" class="graph" transform="scale(1 1) rotate(0) translate(4 62)">
<title>CoolWifi::addWifi</title>
<polygon fill="white" stroke="none" points="-4,4 -4,-62 669,-62 669,4 -4,4"/>
<!-- Node1 -->
<g id="node1" class="node"><title>Node1</title>
<polygon fill="#bfbfbf" stroke="black" points="0,-19.5 0,-38.5 93,-38.5 93,-19.5 0,-19.5"/>
<text text-anchor="middle" x="46.5" y="-26.5" font-family="Helvetica,sans-Serif" font-size="10.00">CoolWifi::addWifi</text>
</g>
<!-- Node2 -->
<g id="node2" class="node"><title>Node2</title>
<g id="a_node2"><a xlink:href="$class_cool_wifi.html#a7c857f27161782f5ef1d62d552aff971" xlink:title="CoolWifi::connectAP">
<polygon fill="white" stroke="black" points="129,-19.5 129,-38.5 237,-38.5 237,-19.5 129,-19.5"/>
<text text-anchor="middle" x="183" y="-26.5" font-family="Helvetica,sans-Serif" font-size="10.00">CoolWifi::connectAP</text>
</a>
</g>
</g>
<!-- Node1&#45;&gt;Node2 -->
<g id="edge1" class="edge"><title>Node1&#45;&gt;Node2</title>
<path fill="none" stroke="midnightblue" d="M103.147,-29C111.568,-29 120.24,-29 128.613,-29"/>
<polygon fill="midnightblue" stroke="midnightblue" points="103.036,-25.5001 93.0356,-29 103.036,-32.5001 103.036,-25.5001"/>
</g>
<!-- Node3 -->
<g id="node3" class="node"><title>Node3</title>
<g id="a_node3"><a xlink:href="$class_cool_board.html#ae6b5e1274d760462290192acea4adca8" xlink:title="CoolBoard::offLineMode">
<polygon fill="white" stroke="black" points="543,-38.5 543,-57.5 665,-57.5 665,-38.5 543,-38.5"/>
<text text-anchor="middle" x="604" y="-45.5" font-family="Helvetica,sans-Serif" font-size="10.00">CoolBoard::offLineMode</text>
</a>
</g>
</g>
<!-- Node2&#45;&gt;Node3 -->
<g id="edge2" class="edge"><title>Node2&#45;&gt;Node3</title>
<path fill="none" stroke="midnightblue" d="M247.507,-31.8798C327.643,-35.5137 464.454,-41.7175 542.929,-45.276"/>
<polygon fill="midnightblue" stroke="midnightblue" points="247.215,-28.363 237.067,-31.4064 246.898,-35.3559 247.215,-28.363"/>
</g>
<!-- Node4 -->
<g id="node4" class="node"><title>Node4</title>
<g id="a_node4"><a xlink:href="$class_cool_wifi.html#ad060353050f40d032a2dbf9e54a768bf" xlink:title="CoolWifi::connect">
<polygon fill="white" stroke="black" points="273,-0.5 273,-19.5 368,-19.5 368,-0.5 273,-0.5"/>
<text text-anchor="middle" x="320.5" y="-7.5" font-family="Helvetica,sans-Serif" font-size="10.00">CoolWifi::connect</text>
</a>
</g>
</g>
<!-- Node2&#45;&gt;Node4 -->
<g id="edge3" class="edge"><title>Node2&#45;&gt;Node4</title>
<path fill="none" stroke="midnightblue" d="M247.16,-20.1436C255.742,-18.9402 264.423,-17.723 272.648,-16.5697"/>
<polygon fill="midnightblue" stroke="midnightblue" points="246.581,-16.6904 237.164,-21.5452 247.553,-23.6226 246.581,-16.6904"/>
</g>
<!-- Node5 -->
<g id="node5" class="node"><title>Node5</title>
<g id="a_node5"><a xlink:href="$class_cool_board.html#a519de78b807f8ec6463ff484eb925918" xlink:title="CoolBoard::connect">
<polygon fill="white" stroke="black" points="404,-0.5 404,-19.5 507,-19.5 507,-0.5 404,-0.5"/>
<text text-anchor="middle" x="455.5" y="-7.5" font-family="Helvetica,sans-Serif" font-size="10.00">CoolBoard::connect</text>
</a>
</g>
</g>
<!-- Node4&#45;&gt;Node5 -->
<g id="edge4" class="edge"><title>Node4&#45;&gt;Node5</title>
<path fill="none" stroke="midnightblue" d="M378.204,-10C386.676,-10 395.364,-10 403.703,-10"/>
<polygon fill="midnightblue" stroke="midnightblue" points="378.017,-6.5001 368.017,-10 378.017,-13.5001 378.017,-6.5001"/>
</g>
<!-- Node5&#45;&gt;Node3 -->
<g id="edge6" class="edge"><title>Node5&#45;&gt;Node3</title>
<path fill="none" stroke="midnightblue" d="M503.195,-22.1121C523.599,-27.4044 547.181,-33.5213 566.298,-38.4799"/>
<polygon fill="midnightblue" stroke="midnightblue" points="504.027,-18.712 493.468,-19.589 502.269,-25.4877 504.027,-18.712"/>
</g>
<!-- Node6 -->
<g id="node6" class="node"><title>Node6</title>
<g id="a_node6"><a xlink:href="$class_cool_board.html#acba7c5aef7268b2c0044bdb54d3b9d76" xlink:title="CoolBoard::begin">
<polygon fill="white" stroke="black" points="558,-0.5 558,-19.5 650,-19.5 650,-0.5 558,-0.5"/>
<text text-anchor="middle" x="604" y="-7.5" font-family="Helvetica,sans-Serif" font-size="10.00">CoolBoard::begin</text>
</a>
</g>
</g>
<!-- Node5&#45;&gt;Node6 -->
<g id="edge5" class="edge"><title>Node5&#45;&gt;Node6</title>
<path fill="none" stroke="midnightblue" d="M517.472,-10C530.924,-10 544.944,-10 557.648,-10"/>
<polygon fill="midnightblue" stroke="midnightblue" points="517.327,-6.5001 507.327,-10 517.327,-13.5001 517.327,-6.5001"/>
</g>
</g>
</svg>
