<?xml version="1.0" encoding="UTF-8" standalone="no"?>
<!DOCTYPE svg PUBLIC "-//W3C//DTD SVG 1.1//EN"
 "http://www.w3.org/Graphics/SVG/1.1/DTD/svg11.dtd">
<!-- Generated by graphviz version 2.38.0 (20140413.2041)
 -->
<!-- Title: WiFiManager::handleFileRead Pages: 1 -->
<svg width="489pt" height="39pt"
 viewBox="0.00 0.00 489.00 39.00" xmlns="http://www.w3.org/2000/svg" xmlns:xlink="http://www.w3.org/1999/xlink">
<g id="graph0" class="graph" transform="scale(1 1) rotate(0) translate(4 35)">
<title>WiFiManager::handleFileRead</title>
<polygon fill="white" stroke="none" points="-4,4 -4,-35 485,-35 485,4 -4,4"/>
<!-- Node72 -->
<g id="node1" class="node"><title>Node72</title>
<polygon fill="#bfbfbf" stroke="black" points="0,-6 0,-25 148,-25 148,-6 0,-6"/>
<text text-anchor="middle" x="74" y="-13" font-family="Helvetica,sans-Serif" font-size="10.00">WiFiManager::handleFileRead</text>
</g>
<!-- Node73 -->
<g id="node2" class="node"><title>Node73</title>
<g id="a_node2"><a xlink:href="$class_wi_fi_manager.html#a1743325d0dd86d011df96b22d2a0ddd6" xlink:title="WiFiManager::setupConfig\lPortal">
<polygon fill="white" stroke="black" points="184,-0.5 184,-30.5 317,-30.5 317,-0.5 184,-0.5"/>
<text text-anchor="start" x="192" y="-18.5" font-family="Helvetica,sans-Serif" font-size="10.00">WiFiManager::setupConfig</text>
<text text-anchor="middle" x="250.5" y="-7.5" font-family="Helvetica,sans-Serif" font-size="10.00">Portal</text>
</a>
</g>
</g>
<!-- Node72&#45;&gt;Node73 -->
<g id="edge1" class="edge"><title>Node72&#45;&gt;Node73</title>
<path fill="none" stroke="midnightblue" d="M158.303,-15.5C166.909,-15.5 175.565,-15.5 183.937,-15.5"/>
<polygon fill="midnightblue" stroke="midnightblue" points="158.245,-12.0001 148.245,-15.5 158.245,-19.0001 158.245,-12.0001"/>
</g>
<!-- Node74 -->
<g id="node3" class="node"><title>Node74</title>
<g id="a_node3"><a xlink:href="$class_wi_fi_manager.html#afaca5021edffb4d9a5bd39f7b0f7a686" xlink:title="WiFiManager::startConfig\lPortal">
<polygon fill="white" stroke="black" points="353,-0.5 353,-30.5 481,-30.5 481,-0.5 353,-0.5"/>
<text text-anchor="start" x="361" y="-18.5" font-family="Helvetica,sans-Serif" font-size="10.00">WiFiManager::startConfig</text>
<text text-anchor="middle" x="417" y="-7.5" font-family="Helvetica,sans-Serif" font-size="10.00">Portal</text>
</a>
</g>
</g>
<!-- Node73&#45;&gt;Node74 -->
<g id="edge2" class="edge"><title>Node73&#45;&gt;Node74</title>
<path fill="none" stroke="midnightblue" d="M327.706,-15.5C336.16,-15.5 344.699,-15.5 352.964,-15.5"/>
<polygon fill="midnightblue" stroke="midnightblue" points="327.461,-12.0001 317.461,-15.5 327.461,-19.0001 327.461,-12.0001"/>
</g>
</g>
</svg>
