<?xml version="1.0" encoding="UTF-8" standalone="no"?>
<!DOCTYPE svg PUBLIC "-//W3C//DTD SVG 1.1//EN"
 "http://www.w3.org/Graphics/SVG/1.1/DTD/svg11.dtd">
<!-- Generated by graphviz version 2.38.0 (20140413.2041)
 -->
<!-- Title: CoolPubSubClient::CoolPubSubClient Pages: 1 -->
<svg width="339pt" height="142pt"
 viewBox="0.00 0.00 339.00 142.00" xmlns="http://www.w3.org/2000/svg" xmlns:xlink="http://www.w3.org/1999/xlink">
<g id="graph0" class="graph" transform="scale(1 1) rotate(0) translate(4 138)">
<title>CoolPubSubClient::CoolPubSubClient</title>
<polygon fill="white" stroke="none" points="-4,4 -4,-138 335,-138 335,4 -4,4"/>
<!-- Node60 -->
<g id="node1" class="node"><title>Node60</title>
<polygon fill="#bfbfbf" stroke="black" points="0,-52 0,-82 140,-82 140,-52 0,-52"/>
<text text-anchor="start" x="8" y="-70" font-family="Helvetica,sans-Serif" font-size="10.00">CoolPubSubClient::CoolPub</text>
<text text-anchor="middle" x="70" y="-59" font-family="Helvetica,sans-Serif" font-size="10.00">SubClient</text>
</g>
<!-- Node61 -->
<g id="node2" class="node"><title>Node61</title>
<g id="a_node2"><a xlink:href="$class_cool_pub_sub_client.html#a947e70c394c66c7d08d0c53caf8425e3" xlink:title="CoolPubSubClient::setServer">
<polygon fill="white" stroke="black" points="181,-114.5 181,-133.5 326,-133.5 326,-114.5 181,-114.5"/>
<text text-anchor="middle" x="253.5" y="-121.5" font-family="Helvetica,sans-Serif" font-size="10.00">CoolPubSubClient::setServer</text>
</a>
</g>
</g>
<!-- Node60&#45;&gt;Node61 -->
<g id="edge1" class="edge"><title>Node60&#45;&gt;Node61</title>
<path fill="none" stroke="midnightblue" d="M109.572,-82.0459C129.281,-89.456 153.744,-98.2288 176,-105 183.999,-107.433 192.536,-109.788 200.9,-111.962"/>
<polygon fill="midnightblue" stroke="midnightblue" points="200.043,-115.355 210.597,-114.425 201.766,-108.57 200.043,-115.355"/>
</g>
<!-- Node62 -->
<g id="node3" class="node"><title>Node62</title>
<g id="a_node3"><a xlink:href="$class_cool_pub_sub_client.html#ac5cab7658f1bdded32131241e468e661" xlink:title="CoolPubSubClient::setCallback">
<polygon fill="white" stroke="black" points="176,-76.5 176,-95.5 331,-95.5 331,-76.5 176,-76.5"/>
<text text-anchor="middle" x="253.5" y="-83.5" font-family="Helvetica,sans-Serif" font-size="10.00">CoolPubSubClient::setCallback</text>
</a>
</g>
</g>
<!-- Node60&#45;&gt;Node62 -->
<g id="edge2" class="edge"><title>Node60&#45;&gt;Node62</title>
<path fill="none" stroke="midnightblue" d="M140.135,-74.2373C148.56,-75.1192 157.248,-76.0287 165.886,-76.933"/>
<polygon fill="midnightblue" stroke="midnightblue" points="165.675,-80.4299 175.985,-77.9902 166.404,-73.4679 165.675,-80.4299"/>
</g>
<!-- Node63 -->
<g id="node4" class="node"><title>Node63</title>
<g id="a_node4"><a xlink:href="$class_cool_pub_sub_client.html#a7ee119b786010561ab6a9afa0798e91d" xlink:title="CoolPubSubClient::setClient">
<polygon fill="white" stroke="black" points="182.5,-38.5 182.5,-57.5 324.5,-57.5 324.5,-38.5 182.5,-38.5"/>
<text text-anchor="middle" x="253.5" y="-45.5" font-family="Helvetica,sans-Serif" font-size="10.00">CoolPubSubClient::setClient</text>
</a>
</g>
</g>
<!-- Node60&#45;&gt;Node63 -->
<g id="edge3" class="edge"><title>Node60&#45;&gt;Node63</title>
<path fill="none" stroke="midnightblue" d="M140.135,-59.7627C150.612,-58.666 161.496,-57.5266 172.185,-56.4076"/>
<polygon fill="midnightblue" stroke="midnightblue" points="172.773,-59.8653 182.354,-55.3431 172.044,-52.9034 172.773,-59.8653"/>
</g>
<!-- Node64 -->
<g id="node5" class="node"><title>Node64</title>
<g id="a_node5"><a xlink:href="$class_cool_pub_sub_client.html#ae97e40823ea689ff9e36d5bdd71bb933" xlink:title="CoolPubSubClient::setStream">
<polygon fill="white" stroke="black" points="179.5,-0.5 179.5,-19.5 327.5,-19.5 327.5,-0.5 179.5,-0.5"/>
<text text-anchor="middle" x="253.5" y="-7.5" font-family="Helvetica,sans-Serif" font-size="10.00">CoolPubSubClient::setStream</text>
</a>
</g>
</g>
<!-- Node60&#45;&gt;Node64 -->
<g id="edge4" class="edge"><title>Node60&#45;&gt;Node64</title>
<path fill="none" stroke="midnightblue" d="M109.572,-51.9541C129.281,-44.544 153.744,-35.7712 176,-29 183.999,-26.5665 192.536,-24.2125 200.9,-22.0385"/>
<polygon fill="midnightblue" stroke="midnightblue" points="201.766,-25.4297 210.597,-19.5751 200.043,-18.6453 201.766,-25.4297"/>
</g>
</g>
</svg>
