<?xml version="1.0" encoding="UTF-8" standalone="no"?>
<!DOCTYPE svg PUBLIC "-//W3C//DTD SVG 1.1//EN"
 "http://www.w3.org/Graphics/SVG/1.1/DTD/svg11.dtd">
<!-- Generated by graphviz version 2.38.0 (20140413.2041)
 -->
<!-- Title: CoolTime::getESDate Pages: 1 -->
<svg width="436pt" height="85pt"
 viewBox="0.00 0.00 436.00 85.00" xmlns="http://www.w3.org/2000/svg" xmlns:xlink="http://www.w3.org/1999/xlink">
<g id="graph0" class="graph" transform="scale(1 1) rotate(0) translate(4 81)">
<title>CoolTime::getESDate</title>
<polygon fill="white" stroke="none" points="-4,4 -4,-81 432,-81 432,4 -4,4"/>
<!-- Node26 -->
<g id="node1" class="node"><title>Node26</title>
<polygon fill="#bfbfbf" stroke="black" points="0,-19.5 0,-38.5 113,-38.5 113,-19.5 0,-19.5"/>
<text text-anchor="middle" x="56.5" y="-26.5" font-family="Helvetica,sans-Serif" font-size="10.00">CoolTime::getESDate</text>
</g>
<!-- Node27 -->
<g id="node2" class="node"><title>Node27</title>
<g id="a_node2"><a xlink:href="$class_cool_board.html#ae7358fb6e623cfc81b775f5f1734909b" xlink:title="CoolBoard::userData">
<polygon fill="white" stroke="black" points="155.5,-38.5 155.5,-57.5 263.5,-57.5 263.5,-38.5 155.5,-38.5"/>
<text text-anchor="middle" x="209.5" y="-45.5" font-family="Helvetica,sans-Serif" font-size="10.00">CoolBoard::userData</text>
</a>
</g>
</g>
<!-- Node26&#45;&gt;Node27 -->
<g id="edge1" class="edge"><title>Node26&#45;&gt;Node27</title>
<path fill="none" stroke="midnightblue" d="M123.445,-37.2978C134.142,-38.6437 145.099,-40.0224 155.439,-41.3234"/>
<polygon fill="midnightblue" stroke="midnightblue" points="123.657,-33.7968 113.298,-36.0209 122.783,-40.7421 123.657,-33.7968"/>
</g>
<!-- Node30 -->
<g id="node5" class="node"><title>Node30</title>
<g id="a_node5"><a xlink:href="$class_cool_time.html#ab81ea7fdaace111aa01cc1ec84c6d297" xlink:title="CoolTime::setDateTime">
<polygon fill="white" stroke="black" points="149,-0.5 149,-19.5 270,-19.5 270,-0.5 149,-0.5"/>
<text text-anchor="middle" x="209.5" y="-7.5" font-family="Helvetica,sans-Serif" font-size="10.00">CoolTime::setDateTime</text>
</a>
</g>
</g>
<!-- Node26&#45;&gt;Node30 -->
<g id="edge4" class="edge"><title>Node26&#45;&gt;Node30</title>
<path fill="none" stroke="midnightblue" d="M123.49,-20.6967C131.935,-19.634 140.541,-18.5511 148.877,-17.5023"/>
<polygon fill="midnightblue" stroke="midnightblue" points="122.783,-17.2579 113.298,-21.9791 123.657,-24.2032 122.783,-17.2579"/>
</g>
<!-- Node28 -->
<g id="node3" class="node"><title>Node28</title>
<g id="a_node3"><a xlink:href="$class_cool_board.html#aa0bbc4bc605e35618d18e68795c61363" xlink:title="CoolBoard::onLineMode">
<polygon fill="white" stroke="black" points="306.5,-57.5 306.5,-76.5 427.5,-76.5 427.5,-57.5 306.5,-57.5"/>
<text text-anchor="middle" x="367" y="-64.5" font-family="Helvetica,sans-Serif" font-size="10.00">CoolBoard::onLineMode</text>
</a>
</g>
</g>
<!-- Node27&#45;&gt;Node28 -->
<g id="edge2" class="edge"><title>Node27&#45;&gt;Node28</title>
<path fill="none" stroke="midnightblue" d="M273.791,-55.7333C284.595,-57.0534 295.785,-58.4207 306.487,-59.7283"/>
<polygon fill="midnightblue" stroke="midnightblue" points="273.93,-52.2243 263.579,-54.4856 273.081,-59.1727 273.93,-52.2243"/>
</g>
<!-- Node29 -->
<g id="node4" class="node"><title>Node29</title>
<g id="a_node4"><a xlink:href="$class_cool_board.html#ae6b5e1274d760462290192acea4adca8" xlink:title="CoolBoard::offLineMode">
<polygon fill="white" stroke="black" points="306,-19.5 306,-38.5 428,-38.5 428,-19.5 306,-19.5"/>
<text text-anchor="middle" x="367" y="-26.5" font-family="Helvetica,sans-Serif" font-size="10.00">CoolBoard::offLineMode</text>
</a>
</g>
</g>
<!-- Node27&#45;&gt;Node29 -->
<g id="edge3" class="edge"><title>Node27&#45;&gt;Node29</title>
<path fill="none" stroke="midnightblue" d="M273.659,-40.2828C284.322,-38.9799 295.365,-37.6306 305.947,-36.3377"/>
<polygon fill="midnightblue" stroke="midnightblue" points="273.081,-36.8273 263.579,-41.5144 273.93,-43.7757 273.081,-36.8273"/>
</g>
</g>
</svg>
