<?xml version="1.0" encoding="UTF-8" standalone="no"?>
<!DOCTYPE svg PUBLIC "-//W3C//DTD SVG 1.1//EN"
 "http://www.w3.org/Graphics/SVG/1.1/DTD/svg11.dtd">
<!-- Generated by graphviz version 2.38.0 (20140413.2041)
 -->
<!-- Title: Jetpack::doAction Pages: 1 -->
<svg width="304pt" height="496pt"
 viewBox="0.00 0.00 304.00 496.00" xmlns="http://www.w3.org/2000/svg" xmlns:xlink="http://www.w3.org/1999/xlink">
<g id="graph0" class="graph" transform="scale(1 1) rotate(0) translate(4 492)">
<title>Jetpack::doAction</title>
<polygon fill="white" stroke="none" points="-4,4 -4,-492 300,-492 300,4 -4,4"/>
<!-- Node6 -->
<g id="node1" class="node"><title>Node6</title>
<polygon fill="#bfbfbf" stroke="black" points="0,-234.5 0,-253.5 95,-253.5 95,-234.5 0,-234.5"/>
<text text-anchor="middle" x="47.5" y="-241.5" font-family="Helvetica,sans-Serif" font-size="10.00">Jetpack::doAction</text>
</g>
<!-- Node7 -->
<g id="node2" class="node"><title>Node7</title>
<g id="a_node2"><a xlink:href="$class_jetpack.html#a65ce9533c39fa71e4945b970bf14b980" xlink:title="Jetpack::normalAction">
<polygon fill="white" stroke="black" points="156.5,-468.5 156.5,-487.5 270.5,-487.5 270.5,-468.5 156.5,-468.5"/>
<text text-anchor="middle" x="213.5" y="-475.5" font-family="Helvetica,sans-Serif" font-size="10.00">Jetpack::normalAction</text>
</a>
</g>
</g>
<!-- Node6&#45;&gt;Node7 -->
<g id="edge1" class="edge"><title>Node6&#45;&gt;Node7</title>
<path fill="none" stroke="midnightblue" d="M49.1443,-253.952C51.9202,-288.211 65.8899,-402.271 131,-459 135.745,-463.134 141.217,-466.413 147.034,-469.008"/>
<polygon fill="midnightblue" stroke="midnightblue" points="145.814,-472.288 156.405,-472.547 148.287,-465.739 145.814,-472.288"/>
</g>
<!-- Node8 -->
<g id="node3" class="node"><title>Node8</title>
<g id="a_node3"><a xlink:href="$class_jetpack.html#adacfc35fab4a621357caf98ce1c9cb54" xlink:title="Jetpack::invertedAction">
<polygon fill="white" stroke="black" points="154,-430.5 154,-449.5 273,-449.5 273,-430.5 154,-430.5"/>
<text text-anchor="middle" x="213.5" y="-437.5" font-family="Helvetica,sans-Serif" font-size="10.00">Jetpack::invertedAction</text>
</a>
</g>
</g>
<!-- Node6&#45;&gt;Node8 -->
<g id="edge2" class="edge"><title>Node6&#45;&gt;Node8</title>
<path fill="none" stroke="midnightblue" d="M50.028,-253.875C55.2393,-284.044 75.1952,-375.703 131,-421 135.056,-424.292 139.58,-427.034 144.36,-429.316"/>
<polygon fill="midnightblue" stroke="midnightblue" points="143.233,-432.636 153.815,-433.16 145.87,-426.151 143.233,-432.636"/>
</g>
<!-- Node9 -->
<g id="node4" class="node"><title>Node9</title>
<g id="a_node4"><a xlink:href="$class_jetpack.html#ac1a49ab4867718cdb415ad74c2066b9d" xlink:title="Jetpack::mixedHourAction">
<polygon fill="white" stroke="black" points="147.5,-392.5 147.5,-411.5 279.5,-411.5 279.5,-392.5 147.5,-392.5"/>
<text text-anchor="middle" x="213.5" y="-399.5" font-family="Helvetica,sans-Serif" font-size="10.00">Jetpack::mixedHourAction</text>
</a>
</g>
</g>
<!-- Node6&#45;&gt;Node9 -->
<g id="edge3" class="edge"><title>Node6&#45;&gt;Node9</title>
<path fill="none" stroke="midnightblue" d="M51.2595,-253.556C59.1187,-278.98 84.1342,-348.679 131,-383 133.555,-384.871 136.266,-386.561 139.087,-388.088"/>
<polygon fill="midnightblue" stroke="midnightblue" points="137.876,-391.385 148.419,-392.427 140.828,-385.037 137.876,-391.385"/>
</g>
<!-- Node10 -->
<g id="node5" class="node"><title>Node10</title>
<g id="a_node5"><a xlink:href="$class_jetpack.html#acd6889af2fe5b057c6bd51b6dac827ef" xlink:title="Jetpack::hourAction">
<polygon fill="white" stroke="black" points="161.5,-354.5 161.5,-373.5 265.5,-373.5 265.5,-354.5 161.5,-354.5"/>
<text text-anchor="middle" x="213.5" y="-361.5" font-family="Helvetica,sans-Serif" font-size="10.00">Jetpack::hourAction</text>
</a>
</g>
</g>
<!-- Node6&#45;&gt;Node10 -->
<g id="edge4" class="edge"><title>Node6&#45;&gt;Node10</title>
<path fill="none" stroke="midnightblue" d="M53.4273,-253.552C64.4102,-273.835 92.9579,-321.284 131,-345 137.272,-348.91 144.271,-352.017 151.458,-354.485"/>
<polygon fill="midnightblue" stroke="midnightblue" points="150.742,-357.924 161.327,-357.469 152.768,-351.224 150.742,-357.924"/>
</g>
<!-- Node11 -->
<g id="node6" class="node"><title>Node11</title>
<g id="a_node6"><a xlink:href="$class_jetpack.html#acf8ed1fb594b9e8e224f4ed872a8e093" xlink:title="Jetpack::mixedMinuteAction">
<polygon fill="white" stroke="black" points="143.5,-316.5 143.5,-335.5 283.5,-335.5 283.5,-316.5 143.5,-316.5"/>
<text text-anchor="middle" x="213.5" y="-323.5" font-family="Helvetica,sans-Serif" font-size="10.00">Jetpack::mixedMinuteAction</text>
</a>
</g>
</g>
<!-- Node6&#45;&gt;Node11 -->
<g id="edge5" class="edge"><title>Node6&#45;&gt;Node11</title>
<path fill="none" stroke="midnightblue" d="M58.2383,-253.703C72.7923,-267.639 101.659,-293.165 131,-307 136.219,-309.461 141.781,-311.616 147.453,-313.5"/>
<polygon fill="midnightblue" stroke="midnightblue" points="146.477,-316.861 157.062,-316.422 148.513,-310.164 146.477,-316.861"/>
</g>
<!-- Node12 -->
<g id="node7" class="node"><title>Node12</title>
<g id="a_node7"><a xlink:href="$class_jetpack.html#a97da41141c7b53ddee61143519c8d17d" xlink:title="Jetpack::minuteAction">
<polygon fill="white" stroke="black" points="156.5,-278.5 156.5,-297.5 270.5,-297.5 270.5,-278.5 156.5,-278.5"/>
<text text-anchor="middle" x="213.5" y="-285.5" font-family="Helvetica,sans-Serif" font-size="10.00">Jetpack::minuteAction</text>
</a>
</g>
</g>
<!-- Node6&#45;&gt;Node12 -->
<g id="edge6" class="edge"><title>Node6&#45;&gt;Node12</title>
<path fill="none" stroke="midnightblue" d="M78.5367,-253.617C94.1199,-258.475 113.507,-264.316 131,-269 140.166,-271.454 149.96,-273.893 159.465,-276.165"/>
<polygon fill="midnightblue" stroke="midnightblue" points="158.69,-279.578 169.227,-278.465 160.296,-272.764 158.69,-279.578"/>
</g>
<!-- Node13 -->
<g id="node8" class="node"><title>Node13</title>
<g id="a_node8"><a xlink:href="$class_jetpack.html#a273dae1517b56f0242e28b8944edc26b" xlink:title="Jetpack::mixedHourMinute\lAction">
<polygon fill="white" stroke="black" points="146.5,-229 146.5,-259 280.5,-259 280.5,-229 146.5,-229"/>
<text text-anchor="start" x="154.5" y="-247" font-family="Helvetica,sans-Serif" font-size="10.00">Jetpack::mixedHourMinute</text>
<text text-anchor="middle" x="213.5" y="-236" font-family="Helvetica,sans-Serif" font-size="10.00">Action</text>
</a>
</g>
</g>
<!-- Node6&#45;&gt;Node13 -->
<g id="edge7" class="edge"><title>Node6&#45;&gt;Node13</title>
<path fill="none" stroke="midnightblue" d="M95.0571,-244C107.859,-244 122.088,-244 136.099,-244"/>
<polygon fill="midnightblue" stroke="midnightblue" points="136.238,-247.5 146.238,-244 136.238,-240.5 136.238,-247.5"/>
</g>
<!-- Node14 -->
<g id="node9" class="node"><title>Node14</title>
<g id="a_node9"><a xlink:href="$class_jetpack.html#ae01c13c785ebdf1b0bb5500234aba1bd" xlink:title="Jetpack::hourMinuteAction">
<polygon fill="white" stroke="black" points="147,-190.5 147,-209.5 280,-209.5 280,-190.5 147,-190.5"/>
<text text-anchor="middle" x="213.5" y="-197.5" font-family="Helvetica,sans-Serif" font-size="10.00">Jetpack::hourMinuteAction</text>
</a>
</g>
</g>
<!-- Node6&#45;&gt;Node14 -->
<g id="edge8" class="edge"><title>Node6&#45;&gt;Node14</title>
<path fill="none" stroke="midnightblue" d="M80.1448,-234.453C95.4614,-229.92 114.142,-224.518 131,-220 141.131,-217.285 152.009,-214.515 162.413,-211.936"/>
<polygon fill="midnightblue" stroke="midnightblue" points="163.328,-215.315 172.203,-209.53 161.657,-208.518 163.328,-215.315"/>
</g>
<!-- Node15 -->
<g id="node10" class="node"><title>Node15</title>
<g id="a_node10"><a xlink:href="$class_jetpack.html#af44bc8a08818e4433dfb1c7104601f12" xlink:title="Jetpack::mixedTemporalActionOn">
<polygon fill="white" stroke="black" points="131.5,-152.5 131.5,-171.5 295.5,-171.5 295.5,-152.5 131.5,-152.5"/>
<text text-anchor="middle" x="213.5" y="-159.5" font-family="Helvetica,sans-Serif" font-size="10.00">Jetpack::mixedTemporalActionOn</text>
</a>
</g>
</g>
<!-- Node6&#45;&gt;Node15 -->
<g id="edge9" class="edge"><title>Node6&#45;&gt;Node15</title>
<path fill="none" stroke="midnightblue" d="M58.2383,-234.297C72.7923,-220.361 101.659,-194.835 131,-181 136.219,-178.539 141.781,-176.384 147.453,-174.5"/>
<polygon fill="midnightblue" stroke="midnightblue" points="148.513,-177.836 157.062,-171.578 146.477,-171.139 148.513,-177.836"/>
</g>
<!-- Node16 -->
<g id="node11" class="node"><title>Node16</title>
<g id="a_node11"><a xlink:href="$class_jetpack.html#ad011d904f639accb5f94ef806846ef59" xlink:title="Jetpack::temporalActionOn">
<polygon fill="white" stroke="black" points="146,-114.5 146,-133.5 281,-133.5 281,-114.5 146,-114.5"/>
<text text-anchor="middle" x="213.5" y="-121.5" font-family="Helvetica,sans-Serif" font-size="10.00">Jetpack::temporalActionOn</text>
</a>
</g>
</g>
<!-- Node6&#45;&gt;Node16 -->
<g id="edge10" class="edge"><title>Node6&#45;&gt;Node16</title>
<path fill="none" stroke="midnightblue" d="M53.4273,-234.448C64.4102,-214.165 92.9579,-166.716 131,-143 134.371,-140.898 137.952,-139.029 141.659,-137.366"/>
<polygon fill="midnightblue" stroke="midnightblue" points="143.072,-140.571 151.088,-133.643 140.501,-134.06 143.072,-140.571"/>
</g>
<!-- Node17 -->
<g id="node12" class="node"><title>Node17</title>
<g id="a_node12"><a xlink:href="$class_jetpack.html#af2f567ef6311a8fc2f7bb948837667b7" xlink:title="Jetpack::mixedTemporalActionOff">
<polygon fill="white" stroke="black" points="131,-76.5 131,-95.5 296,-95.5 296,-76.5 131,-76.5"/>
<text text-anchor="middle" x="213.5" y="-83.5" font-family="Helvetica,sans-Serif" font-size="10.00">Jetpack::mixedTemporalActionOff</text>
</a>
</g>
</g>
<!-- Node6&#45;&gt;Node17 -->
<g id="edge11" class="edge"><title>Node6&#45;&gt;Node17</title>
<path fill="none" stroke="midnightblue" d="M51.2595,-234.444C59.1187,-209.02 84.1342,-139.321 131,-105 133.555,-103.129 136.266,-101.439 139.087,-99.9122"/>
<polygon fill="midnightblue" stroke="midnightblue" points="140.828,-102.963 148.419,-95.5726 137.876,-96.6155 140.828,-102.963"/>
</g>
<!-- Node18 -->
<g id="node13" class="node"><title>Node18</title>
<g id="a_node13"><a xlink:href="$class_jetpack.html#a2991b302cd99bf89325f9b66b104d575" xlink:title="Jetpack::temporalActionOff">
<polygon fill="white" stroke="black" points="145.5,-38.5 145.5,-57.5 281.5,-57.5 281.5,-38.5 145.5,-38.5"/>
<text text-anchor="middle" x="213.5" y="-45.5" font-family="Helvetica,sans-Serif" font-size="10.00">Jetpack::temporalActionOff</text>
</a>
</g>
</g>
<!-- Node6&#45;&gt;Node18 -->
<g id="edge12" class="edge"><title>Node6&#45;&gt;Node18</title>
<path fill="none" stroke="midnightblue" d="M50.028,-234.125C55.2393,-203.956 75.1952,-112.297 131,-67 133.073,-65.3175 135.268,-63.7787 137.557,-62.3716"/>
<polygon fill="midnightblue" stroke="midnightblue" points="139.534,-65.2887 146.793,-57.5717 136.306,-59.0773 139.534,-65.2887"/>
</g>
<!-- Node19 -->
<g id="node14" class="node"><title>Node19</title>
<g id="a_node14"><a xlink:href="$class_jetpack.html#a338f1af8cbc6504ac69b47c7328569b5" xlink:title="Jetpack::write">
<polygon fill="white" stroke="black" points="174.5,-0.5 174.5,-19.5 252.5,-19.5 252.5,-0.5 174.5,-0.5"/>
<text text-anchor="middle" x="213.5" y="-7.5" font-family="Helvetica,sans-Serif" font-size="10.00">Jetpack::write</text>
</a>
</g>
</g>
<!-- Node6&#45;&gt;Node19 -->
<g id="edge13" class="edge"><title>Node6&#45;&gt;Node19</title>
<path fill="none" stroke="midnightblue" d="M49.1443,-234.048C51.9202,-199.789 65.8899,-85.7292 131,-29 140.243,-20.9471 152.246,-16.1386 164.186,-13.3106"/>
<polygon fill="midnightblue" stroke="midnightblue" points="164.992,-16.7194 174.139,-11.3731 163.655,-9.84841 164.992,-16.7194"/>
</g>
</g>
</svg>
