<?xml version="1.0" encoding="UTF-8" standalone="no"?>
<!DOCTYPE svg PUBLIC "-//W3C//DTD SVG 1.1//EN"
 "http://www.w3.org/Graphics/SVG/1.1/DTD/svg11.dtd">
<!-- Generated by graphviz version 2.38.0 (20140413.2041)
 -->
<!-- Title: CoolPubSubClient::publish Pages: 1 -->
<svg width="327pt" height="104pt"
 viewBox="0.00 0.00 327.00 104.00" xmlns="http://www.w3.org/2000/svg" xmlns:xlink="http://www.w3.org/1999/xlink">
<g id="graph0" class="graph" transform="scale(1 1) rotate(0) translate(4 100)">
<title>CoolPubSubClient::publish</title>
<polygon fill="white" stroke="none" points="-4,4 -4,-100 323,-100 323,4 -4,4"/>
<!-- Node131 -->
<g id="node1" class="node"><title>Node131</title>
<polygon fill="#bfbfbf" stroke="black" points="0,-38.5 0,-57.5 134,-57.5 134,-38.5 0,-38.5"/>
<text text-anchor="middle" x="67" y="-45.5" font-family="Helvetica,sans-Serif" font-size="10.00">CoolPubSubClient::publish</text>
</g>
<!-- Node132 -->
<g id="node2" class="node"><title>Node132</title>
<g id="a_node2"><a xlink:href="$class_cool_pub_sub_client.html#a3d5a5da4ddb1e5c1bea64d80c665d148" xlink:title="CoolPubSubClient::connected">
<polygon fill="white" stroke="black" points="170.5,-76.5 170.5,-95.5 318.5,-95.5 318.5,-76.5 170.5,-76.5"/>
<text text-anchor="middle" x="244.5" y="-83.5" font-family="Helvetica,sans-Serif" font-size="10.00">CoolPubSubClient::connected</text>
</a>
</g>
</g>
<!-- Node131&#45;&gt;Node132 -->
<g id="edge1" class="edge"><title>Node131&#45;&gt;Node132</title>
<path fill="none" stroke="midnightblue" d="M112.286,-57.589C135.758,-62.6713 164.781,-68.9554 189.558,-74.3203"/>
<polygon fill="midnightblue" stroke="midnightblue" points="189.018,-77.7844 199.532,-76.4799 190.5,-70.9429 189.018,-77.7844"/>
</g>
<!-- Node133 -->
<g id="node3" class="node"><title>Node133</title>
<g id="a_node3"><a xlink:href="$class_cool_pub_sub_client.html#a0e3d7e776d4cf4427f9569b28868905a" xlink:title="CoolPubSubClient::writeString">
<polygon fill="white" stroke="black" points="170,-38.5 170,-57.5 319,-57.5 319,-38.5 170,-38.5"/>
<text text-anchor="middle" x="244.5" y="-45.5" font-family="Helvetica,sans-Serif" font-size="10.00">CoolPubSubClient::writeString</text>
</a>
</g>
</g>
<!-- Node131&#45;&gt;Node133 -->
<g id="edge2" class="edge"><title>Node131&#45;&gt;Node133</title>
<path fill="none" stroke="midnightblue" d="M134.349,-48C142.561,-48 151.039,-48 159.472,-48"/>
<polygon fill="midnightblue" stroke="midnightblue" points="159.714,-51.5001 169.714,-48 159.714,-44.5001 159.714,-51.5001"/>
</g>
<!-- Node134 -->
<g id="node4" class="node"><title>Node134</title>
<g id="a_node4"><a xlink:href="$class_cool_pub_sub_client.html#a7a8e4854a1846eaa668046d3854d47ad" xlink:title="CoolPubSubClient::write">
<polygon fill="white" stroke="black" points="182.5,-0.5 182.5,-19.5 306.5,-19.5 306.5,-0.5 182.5,-0.5"/>
<text text-anchor="middle" x="244.5" y="-7.5" font-family="Helvetica,sans-Serif" font-size="10.00">CoolPubSubClient::write</text>
</a>
</g>
</g>
<!-- Node131&#45;&gt;Node134 -->
<g id="edge3" class="edge"><title>Node131&#45;&gt;Node134</title>
<path fill="none" stroke="midnightblue" d="M112.286,-38.411C135.758,-33.3287 164.781,-27.0446 189.558,-21.6797"/>
<polygon fill="midnightblue" stroke="midnightblue" points="190.5,-25.0571 199.532,-19.5201 189.018,-18.2156 190.5,-25.0571"/>
</g>
</g>
</svg>
