<?xml version="1.0" encoding="UTF-8" standalone="no"?>
<!DOCTYPE svg PUBLIC "-//W3C//DTD SVG 1.1//EN"
 "http://www.w3.org/Graphics/SVG/1.1/DTD/svg11.dtd">
<!-- Generated by graphviz version 2.38.0 (20140413.2041)
 -->
<!-- Title: CoolBoard::userData Pages: 1 -->
<svg width="274pt" height="66pt"
 viewBox="0.00 0.00 274.00 66.00" xmlns="http://www.w3.org/2000/svg" xmlns:xlink="http://www.w3.org/1999/xlink">
<g id="graph0" class="graph" transform="scale(1 1) rotate(0) translate(4 62)">
<title>CoolBoard::userData</title>
<polygon fill="white" stroke="none" points="-4,4 -4,-62 270,-62 270,4 -4,4"/>
<!-- Node415 -->
<g id="node1" class="node"><title>Node415</title>
<polygon fill="#bfbfbf" stroke="black" points="0,-19.5 0,-38.5 108,-38.5 108,-19.5 0,-19.5"/>
<text text-anchor="middle" x="54" y="-26.5" font-family="Helvetica,sans-Serif" font-size="10.00">CoolBoard::userData</text>
</g>
<!-- Node416 -->
<g id="node2" class="node"><title>Node416</title>
<g id="a_node2"><a xlink:href="$class_cool_board.html#aa0bbc4bc605e35618d18e68795c61363" xlink:title="CoolBoard::onLineMode">
<polygon fill="white" stroke="black" points="144.5,-38.5 144.5,-57.5 265.5,-57.5 265.5,-38.5 144.5,-38.5"/>
<text text-anchor="middle" x="205" y="-45.5" font-family="Helvetica,sans-Serif" font-size="10.00">CoolBoard::onLineMode</text>
</a>
</g>
</g>
<!-- Node415&#45;&gt;Node416 -->
<g id="edge1" class="edge"><title>Node415&#45;&gt;Node416</title>
<path fill="none" stroke="midnightblue" d="M118.386,-37.0828C127.022,-38.184 135.861,-39.3111 144.425,-40.4032"/>
<polygon fill="midnightblue" stroke="midnightblue" points="118.734,-33.5989 108.372,-35.8058 117.848,-40.5427 118.734,-33.5989"/>
</g>
<!-- Node417 -->
<g id="node3" class="node"><title>Node417</title>
<g id="a_node3"><a xlink:href="$class_cool_board.html#ae6b5e1274d760462290192acea4adca8" xlink:title="CoolBoard::offLineMode">
<polygon fill="white" stroke="black" points="144,-0.5 144,-19.5 266,-19.5 266,-0.5 144,-0.5"/>
<text text-anchor="middle" x="205" y="-7.5" font-family="Helvetica,sans-Serif" font-size="10.00">CoolBoard::offLineMode</text>
</a>
</g>
</g>
<!-- Node415&#45;&gt;Node417 -->
<g id="edge2" class="edge"><title>Node415&#45;&gt;Node417</title>
<path fill="none" stroke="midnightblue" d="M118.519,-20.9002C126.941,-19.8264 135.553,-18.7281 143.914,-17.6619"/>
<polygon fill="midnightblue" stroke="midnightblue" points="117.848,-17.4573 108.372,-22.1942 118.734,-24.4011 117.848,-17.4573"/>
</g>
</g>
</svg>
