<?xml version="1.0" encoding="UTF-8" standalone="no"?>
<!DOCTYPE svg PUBLIC "-//W3C//DTD SVG 1.1//EN"
 "http://www.w3.org/Graphics/SVG/1.1/DTD/svg11.dtd">
<!-- Generated by graphviz version 2.38.0 (20140413.2041)
 -->
<!-- Title: CoolPubSubClient::connect Pages: 1 -->
<svg width="615pt" height="85pt"
 viewBox="0.00 0.00 615.00 85.00" xmlns="http://www.w3.org/2000/svg" xmlns:xlink="http://www.w3.org/1999/xlink">
<g id="graph0" class="graph" transform="scale(1 1) rotate(0) translate(4 81)">
<title>CoolPubSubClient::connect</title>
<polygon fill="white" stroke="none" points="-4,4 -4,-81 611,-81 611,4 -4,4"/>
<!-- Node69 -->
<g id="node1" class="node"><title>Node69</title>
<polygon fill="#bfbfbf" stroke="black" points="0,-19.5 0,-38.5 137,-38.5 137,-19.5 0,-19.5"/>
<text text-anchor="middle" x="68.5" y="-26.5" font-family="Helvetica,sans-Serif" font-size="10.00">CoolPubSubClient::connect</text>
</g>
<!-- Node70 -->
<g id="node2" class="node"><title>Node70</title>
<g id="a_node2"><a xlink:href="$class_cool_m_q_t_t.html#a50075d0ab23a327ab897fd6adad20eda" xlink:title="CoolMQTT::connect">
<polygon fill="white" stroke="black" points="189,-38.5 189,-57.5 294,-57.5 294,-38.5 189,-38.5"/>
<text text-anchor="middle" x="241.5" y="-45.5" font-family="Helvetica,sans-Serif" font-size="10.00">CoolMQTT::connect</text>
</a>
</g>
</g>
<!-- Node69&#45;&gt;Node70 -->
<g id="edge1" class="edge"><title>Node69&#45;&gt;Node70</title>
<path fill="none" stroke="midnightblue" d="M147.298,-37.6442C161.424,-39.2138 175.834,-40.8148 188.966,-42.274"/>
<polygon fill="midnightblue" stroke="midnightblue" points="147.409,-34.1351 137.084,-36.5093 146.636,-41.0923 147.409,-34.1351"/>
</g>
<!-- Node74 -->
<g id="node6" class="node"><title>Node74</title>
<g id="a_node6"><a xlink:href="$class_cool_pub_sub_client.html#a7f30e39bf4ca5ea5fb9747c403639a03" xlink:title="CoolPubSubClient::connect">
<polygon fill="white" stroke="black" points="173,-0.5 173,-19.5 310,-19.5 310,-0.5 173,-0.5"/>
<text text-anchor="middle" x="241.5" y="-7.5" font-family="Helvetica,sans-Serif" font-size="10.00">CoolPubSubClient::connect</text>
</a>
</g>
</g>
<!-- Node69&#45;&gt;Node74 -->
<g id="edge5" class="edge"><title>Node69&#45;&gt;Node74</title>
<path fill="none" stroke="midnightblue" d="M147.1,-20.3778C155.692,-19.4231 164.391,-18.4565 172.847,-17.517"/>
<polygon fill="midnightblue" stroke="midnightblue" points="146.636,-16.9077 137.084,-21.4907 147.409,-23.8649 146.636,-16.9077"/>
</g>
<!-- Node71 -->
<g id="node3" class="node"><title>Node71</title>
<g id="a_node3"><a xlink:href="$class_cool_board.html#a519de78b807f8ec6463ff484eb925918" xlink:title="CoolBoard::connect">
<polygon fill="white" stroke="black" points="346,-38.5 346,-57.5 449,-57.5 449,-38.5 346,-38.5"/>
<text text-anchor="middle" x="397.5" y="-45.5" font-family="Helvetica,sans-Serif" font-size="10.00">CoolBoard::connect</text>
</a>
</g>
</g>
<!-- Node70&#45;&gt;Node71 -->
<g id="edge2" class="edge"><title>Node70&#45;&gt;Node71</title>
<path fill="none" stroke="midnightblue" d="M304.569,-48C318.325,-48 332.743,-48 345.974,-48"/>
<polygon fill="midnightblue" stroke="midnightblue" points="304.208,-44.5001 294.208,-48 304.208,-51.5001 304.208,-44.5001"/>
</g>
<!-- Node72 -->
<g id="node4" class="node"><title>Node72</title>
<g id="a_node4"><a xlink:href="$class_cool_board.html#acba7c5aef7268b2c0044bdb54d3b9d76" xlink:title="CoolBoard::begin">
<polygon fill="white" stroke="black" points="500,-57.5 500,-76.5 592,-76.5 592,-57.5 500,-57.5"/>
<text text-anchor="middle" x="546" y="-64.5" font-family="Helvetica,sans-Serif" font-size="10.00">CoolBoard::begin</text>
</a>
</g>
</g>
<!-- Node71&#45;&gt;Node72 -->
<g id="edge3" class="edge"><title>Node71&#45;&gt;Node72</title>
<path fill="none" stroke="midnightblue" d="M459.472,-55.9076C472.924,-57.6522 486.944,-59.4706 499.648,-61.1182"/>
<polygon fill="midnightblue" stroke="midnightblue" points="459.695,-52.4073 449.327,-54.592 458.794,-59.3491 459.695,-52.4073"/>
</g>
<!-- Node73 -->
<g id="node5" class="node"><title>Node73</title>
<g id="a_node5"><a xlink:href="$class_cool_board.html#ae6b5e1274d760462290192acea4adca8" xlink:title="CoolBoard::offLineMode">
<polygon fill="white" stroke="black" points="485,-19.5 485,-38.5 607,-38.5 607,-19.5 485,-19.5"/>
<text text-anchor="middle" x="546" y="-26.5" font-family="Helvetica,sans-Serif" font-size="10.00">CoolBoard::offLineMode</text>
</a>
</g>
</g>
<!-- Node71&#45;&gt;Node73 -->
<g id="edge4" class="edge"><title>Node71&#45;&gt;Node73</title>
<path fill="none" stroke="midnightblue" d="M459.462,-40.0937C467.887,-39.001 476.535,-37.8794 484.943,-36.789"/>
<polygon fill="midnightblue" stroke="midnightblue" points="458.794,-36.6509 449.327,-41.408 459.695,-43.5927 458.794,-36.6509"/>
</g>
</g>
</svg>
