<?xml version="1.0" encoding="UTF-8" standalone="no"?>
<!DOCTYPE svg PUBLIC "-//W3C//DTD SVG 1.1//EN"
 "http://www.w3.org/Graphics/SVG/1.1/DTD/svg11.dtd">
<!-- Generated by graphviz version 2.38.0 (20140413.2041)
 -->
<!-- Title: CoolMQTT::connect Pages: 1 -->
<svg width="410pt" height="66pt"
 viewBox="0.00 0.00 410.00 66.00" xmlns="http://www.w3.org/2000/svg" xmlns:xlink="http://www.w3.org/1999/xlink">
<g id="graph0" class="graph" transform="scale(1 1) rotate(0) translate(4 62)">
<title>CoolMQTT::connect</title>
<polygon fill="white" stroke="none" points="-4,4 -4,-62 406,-62 406,4 -4,4"/>
<!-- Node23 -->
<g id="node1" class="node"><title>Node23</title>
<polygon fill="#bfbfbf" stroke="black" points="0,-19.5 0,-38.5 105,-38.5 105,-19.5 0,-19.5"/>
<text text-anchor="middle" x="52.5" y="-26.5" font-family="Helvetica,sans-Serif" font-size="10.00">CoolMQTT::connect</text>
</g>
<!-- Node24 -->
<g id="node2" class="node"><title>Node24</title>
<g id="a_node2"><a xlink:href="$class_cool_board.html#a519de78b807f8ec6463ff484eb925918" xlink:title="CoolBoard::connect">
<polygon fill="white" stroke="black" points="141,-19.5 141,-38.5 244,-38.5 244,-19.5 141,-19.5"/>
<text text-anchor="middle" x="192.5" y="-26.5" font-family="Helvetica,sans-Serif" font-size="10.00">CoolBoard::connect</text>
</a>
</g>
</g>
<!-- Node23&#45;&gt;Node24 -->
<g id="edge1" class="edge"><title>Node23&#45;&gt;Node24</title>
<path fill="none" stroke="midnightblue" d="M115.5,-29C123.965,-29 132.573,-29 140.806,-29"/>
<polygon fill="midnightblue" stroke="midnightblue" points="115.279,-25.5001 105.279,-29 115.279,-32.5001 115.279,-25.5001"/>
</g>
<!-- Node25 -->
<g id="node3" class="node"><title>Node25</title>
<g id="a_node3"><a xlink:href="$class_cool_board.html#acba7c5aef7268b2c0044bdb54d3b9d76" xlink:title="CoolBoard::begin">
<polygon fill="white" stroke="black" points="295,-38.5 295,-57.5 387,-57.5 387,-38.5 295,-38.5"/>
<text text-anchor="middle" x="341" y="-45.5" font-family="Helvetica,sans-Serif" font-size="10.00">CoolBoard::begin</text>
</a>
</g>
</g>
<!-- Node24&#45;&gt;Node25 -->
<g id="edge2" class="edge"><title>Node24&#45;&gt;Node25</title>
<path fill="none" stroke="midnightblue" d="M254.472,-36.9076C267.924,-38.6522 281.944,-40.4706 294.648,-42.1182"/>
<polygon fill="midnightblue" stroke="midnightblue" points="254.695,-33.4073 244.327,-35.592 253.794,-40.3491 254.695,-33.4073"/>
</g>
<!-- Node26 -->
<g id="node4" class="node"><title>Node26</title>
<g id="a_node4"><a xlink:href="$class_cool_board.html#ae6b5e1274d760462290192acea4adca8" xlink:title="CoolBoard::offLineMode">
<polygon fill="white" stroke="black" points="280,-0.5 280,-19.5 402,-19.5 402,-0.5 280,-0.5"/>
<text text-anchor="middle" x="341" y="-7.5" font-family="Helvetica,sans-Serif" font-size="10.00">CoolBoard::offLineMode</text>
</a>
</g>
</g>
<!-- Node24&#45;&gt;Node26 -->
<g id="edge3" class="edge"><title>Node24&#45;&gt;Node26</title>
<path fill="none" stroke="midnightblue" d="M254.462,-21.0937C262.887,-20.001 271.535,-18.8794 279.943,-17.789"/>
<polygon fill="midnightblue" stroke="midnightblue" points="253.794,-17.6509 244.327,-22.408 254.695,-24.5927 253.794,-17.6509"/>
</g>
</g>
</svg>
