<?xml version="1.0" encoding="UTF-8" standalone="no"?>
<!DOCTYPE svg PUBLIC "-//W3C//DTD SVG 1.1//EN"
 "http://www.w3.org/Graphics/SVG/1.1/DTD/svg11.dtd">
<!-- Generated by graphviz version 2.38.0 (20140413.2041)
 -->
<!-- Title: WiFiManager::setTimeout Pages: 1 -->
<svg width="709pt" height="66pt"
 viewBox="0.00 0.00 709.00 66.00" xmlns="http://www.w3.org/2000/svg" xmlns:xlink="http://www.w3.org/1999/xlink">
<g id="graph0" class="graph" transform="scale(1 1) rotate(0) translate(4 62)">
<title>WiFiManager::setTimeout</title>
<polygon fill="white" stroke="none" points="-4,4 -4,-62 705,-62 705,4 -4,4"/>
<!-- Node167 -->
<g id="node1" class="node"><title>Node167</title>
<polygon fill="#bfbfbf" stroke="black" points="0,-19.5 0,-38.5 129,-38.5 129,-19.5 0,-19.5"/>
<text text-anchor="middle" x="64.5" y="-26.5" font-family="Helvetica,sans-Serif" font-size="10.00">WiFiManager::setTimeout</text>
</g>
<!-- Node168 -->
<g id="node2" class="node"><title>Node168</title>
<g id="a_node2"><a xlink:href="$class_cool_wifi.html#a7c857f27161782f5ef1d62d552aff971" xlink:title="CoolWifi::connectAP">
<polygon fill="white" stroke="black" points="165,-19.5 165,-38.5 273,-38.5 273,-19.5 165,-19.5"/>
<text text-anchor="middle" x="219" y="-26.5" font-family="Helvetica,sans-Serif" font-size="10.00">CoolWifi::connectAP</text>
</a>
</g>
</g>
<!-- Node167&#45;&gt;Node168 -->
<g id="edge1" class="edge"><title>Node167&#45;&gt;Node168</title>
<path fill="none" stroke="midnightblue" d="M139.556,-29C148.01,-29 156.5,-29 164.609,-29"/>
<polygon fill="midnightblue" stroke="midnightblue" points="139.29,-25.5001 129.29,-29 139.29,-32.5001 139.29,-25.5001"/>
</g>
<!-- Node169 -->
<g id="node3" class="node"><title>Node169</title>
<g id="a_node3"><a xlink:href="$class_cool_board.html#ae6b5e1274d760462290192acea4adca8" xlink:title="CoolBoard::offLineMode">
<polygon fill="white" stroke="black" points="579,-38.5 579,-57.5 701,-57.5 701,-38.5 579,-38.5"/>
<text text-anchor="middle" x="640" y="-45.5" font-family="Helvetica,sans-Serif" font-size="10.00">CoolBoard::offLineMode</text>
</a>
</g>
</g>
<!-- Node168&#45;&gt;Node169 -->
<g id="edge2" class="edge"><title>Node168&#45;&gt;Node169</title>
<path fill="none" stroke="midnightblue" d="M283.507,-31.8798C363.643,-35.5137 500.454,-41.7175 578.929,-45.276"/>
<polygon fill="midnightblue" stroke="midnightblue" points="283.215,-28.363 273.067,-31.4064 282.898,-35.3559 283.215,-28.363"/>
</g>
<!-- Node170 -->
<g id="node4" class="node"><title>Node170</title>
<g id="a_node4"><a xlink:href="$class_cool_wifi.html#ad060353050f40d032a2dbf9e54a768bf" xlink:title="CoolWifi::connect">
<polygon fill="white" stroke="black" points="309,-0.5 309,-19.5 404,-19.5 404,-0.5 309,-0.5"/>
<text text-anchor="middle" x="356.5" y="-7.5" font-family="Helvetica,sans-Serif" font-size="10.00">CoolWifi::connect</text>
</a>
</g>
</g>
<!-- Node168&#45;&gt;Node170 -->
<g id="edge3" class="edge"><title>Node168&#45;&gt;Node170</title>
<path fill="none" stroke="midnightblue" d="M283.16,-20.1436C291.742,-18.9402 300.423,-17.723 308.648,-16.5697"/>
<polygon fill="midnightblue" stroke="midnightblue" points="282.581,-16.6904 273.164,-21.5452 283.553,-23.6226 282.581,-16.6904"/>
</g>
<!-- Node171 -->
<g id="node5" class="node"><title>Node171</title>
<g id="a_node5"><a xlink:href="$class_cool_board.html#a519de78b807f8ec6463ff484eb925918" xlink:title="CoolBoard::connect">
<polygon fill="white" stroke="black" points="440,-0.5 440,-19.5 543,-19.5 543,-0.5 440,-0.5"/>
<text text-anchor="middle" x="491.5" y="-7.5" font-family="Helvetica,sans-Serif" font-size="10.00">CoolBoard::connect</text>
</a>
</g>
</g>
<!-- Node170&#45;&gt;Node171 -->
<g id="edge4" class="edge"><title>Node170&#45;&gt;Node171</title>
<path fill="none" stroke="midnightblue" d="M414.204,-10C422.676,-10 431.364,-10 439.703,-10"/>
<polygon fill="midnightblue" stroke="midnightblue" points="414.017,-6.5001 404.017,-10 414.017,-13.5001 414.017,-6.5001"/>
</g>
<!-- Node171&#45;&gt;Node169 -->
<g id="edge6" class="edge"><title>Node171&#45;&gt;Node169</title>
<path fill="none" stroke="midnightblue" d="M539.195,-22.1121C559.599,-27.4044 583.181,-33.5213 602.298,-38.4799"/>
<polygon fill="midnightblue" stroke="midnightblue" points="540.027,-18.712 529.468,-19.589 538.269,-25.4877 540.027,-18.712"/>
</g>
<!-- Node172 -->
<g id="node6" class="node"><title>Node172</title>
<g id="a_node6"><a xlink:href="$class_cool_board.html#acba7c5aef7268b2c0044bdb54d3b9d76" xlink:title="CoolBoard::begin">
<polygon fill="white" stroke="black" points="594,-0.5 594,-19.5 686,-19.5 686,-0.5 594,-0.5"/>
<text text-anchor="middle" x="640" y="-7.5" font-family="Helvetica,sans-Serif" font-size="10.00">CoolBoard::begin</text>
</a>
</g>
</g>
<!-- Node171&#45;&gt;Node172 -->
<g id="edge5" class="edge"><title>Node171&#45;&gt;Node172</title>
<path fill="none" stroke="midnightblue" d="M553.472,-10C566.924,-10 580.944,-10 593.648,-10"/>
<polygon fill="midnightblue" stroke="midnightblue" points="553.327,-6.5001 543.327,-10 553.327,-13.5001 553.327,-6.5001"/>
</g>
</g>
</svg>
