<?xml version="1.0" encoding="UTF-8" standalone="no"?>
<!DOCTYPE svg PUBLIC "-//W3C//DTD SVG 1.1//EN"
 "http://www.w3.org/Graphics/SVG/1.1/DTD/svg11.dtd">
<!-- Generated by graphviz version 2.38.0 (20140413.2041)
 -->
<!-- Title: WiFiManager::autoConnect Pages: 1 -->
<svg width="673pt" height="105pt"
 viewBox="0.00 0.00 673.00 104.50" xmlns="http://www.w3.org/2000/svg" xmlns:xlink="http://www.w3.org/1999/xlink">
<g id="graph0" class="graph" transform="scale(1 1) rotate(0) translate(4 100.502)">
<title>WiFiManager::autoConnect</title>
<polygon fill="white" stroke="none" points="-4,4 -4,-100.502 669,-100.502 669,4 -4,4"/>
<!-- Node13 -->
<g id="node1" class="node"><title>Node13</title>
<polygon fill="#bfbfbf" stroke="black" points="0,-66.5 0,-85.5 136,-85.5 136,-66.5 0,-66.5"/>
<text text-anchor="middle" x="68" y="-73.5" font-family="Helvetica,sans-Serif" font-size="10.00">WiFiManager::autoConnect</text>
</g>
<!-- Node14 -->
<g id="node2" class="node"><title>Node14</title>
<g id="a_node2"><a xlink:href="$class_wi_fi_manager.html#ae5f595c670ccbcf9a191baf50f5c7c26" xlink:title="WiFiManager::DEBUG_WM">
<polygon fill="white" stroke="black" points="525,-66.5 525,-85.5 665,-85.5 665,-66.5 525,-66.5"/>
<text text-anchor="middle" x="595" y="-73.5" font-family="Helvetica,sans-Serif" font-size="10.00">WiFiManager::DEBUG_WM</text>
</a>
</g>
</g>
<!-- Node13&#45;&gt;Node14 -->
<g id="edge1" class="edge"><title>Node13&#45;&gt;Node14</title>
<path fill="none" stroke="midnightblue" d="M110.855,-85.5112C129.469,-89.2765 151.719,-93.1451 172,-95 204.835,-98.0032 478.422,-93.9084 489,-93 503.874,-91.7227 519.825,-89.5568 534.69,-87.1909"/>
<polygon fill="midnightblue" stroke="midnightblue" points="535.482,-90.6077 544.781,-85.5294 534.345,-83.7007 535.482,-90.6077"/>
</g>
<!-- Node15 -->
<g id="node3" class="node"><title>Node15</title>
<g id="a_node3"><a xlink:href="$class_wi_fi_manager.html#ae0ae27b5543b47585728c084c3bbdca7" xlink:title="WiFiManager::connectWifi">
<polygon fill="white" stroke="black" points="172,-66.5 172,-85.5 304,-85.5 304,-66.5 172,-66.5"/>
<text text-anchor="middle" x="238" y="-73.5" font-family="Helvetica,sans-Serif" font-size="10.00">WiFiManager::connectWifi</text>
</a>
</g>
</g>
<!-- Node13&#45;&gt;Node15 -->
<g id="edge2" class="edge"><title>Node13&#45;&gt;Node15</title>
<path fill="none" stroke="midnightblue" d="M136.364,-76C144.671,-76 153.204,-76 161.621,-76"/>
<polygon fill="midnightblue" stroke="midnightblue" points="161.806,-79.5001 171.806,-76 161.806,-72.5001 161.806,-79.5001"/>
</g>
<!-- Node18 -->
<g id="node6" class="node"><title>Node18</title>
<g id="a_node6"><a xlink:href="$class_wi_fi_manager.html#ad781751307f7f623956126096a09a545" xlink:title="WiFiManager::startConfig\lPortal">
<polygon fill="white" stroke="black" points="174,-17 174,-47 302,-47 302,-17 174,-17"/>
<text text-anchor="start" x="182" y="-35" font-family="Helvetica,sans-Serif" font-size="10.00">WiFiManager::startConfig</text>
<text text-anchor="middle" x="238" y="-24" font-family="Helvetica,sans-Serif" font-size="10.00">Portal</text>
</a>
</g>
</g>
<!-- Node13&#45;&gt;Node18 -->
<g id="edge8" class="edge"><title>Node13&#45;&gt;Node18</title>
<path fill="none" stroke="midnightblue" d="M105.453,-66.4527C124.199,-61.543 147.656,-55.3996 169.551,-49.6653"/>
<polygon fill="midnightblue" stroke="midnightblue" points="170.691,-52.9848 179.478,-47.0654 168.917,-46.2132 170.691,-52.9848"/>
</g>
<!-- Node15&#45;&gt;Node14 -->
<g id="edge3" class="edge"><title>Node15&#45;&gt;Node14</title>
<path fill="none" stroke="midnightblue" d="M304.191,-78.2206C316.103,-78.5454 328.423,-78.8281 340,-79 406.215,-79.9832 422.785,-79.9457 489,-79 497.322,-78.8811 506.015,-78.7093 514.681,-78.5071"/>
<polygon fill="midnightblue" stroke="midnightblue" points="514.907,-82.0027 524.818,-78.2573 514.734,-75.0049 514.907,-82.0027"/>
</g>
<!-- Node16 -->
<g id="node4" class="node"><title>Node16</title>
<g id="a_node4"><a xlink:href="$class_wi_fi_manager.html#a89a3f33997aa662ad223d6c150c1eede" xlink:title="WiFiManager::waitForConnect\lResult">
<polygon fill="white" stroke="black" points="340,-39 340,-69 489,-69 489,-39 340,-39"/>
<text text-anchor="start" x="348" y="-57" font-family="Helvetica,sans-Serif" font-size="10.00">WiFiManager::waitForConnect</text>
<text text-anchor="middle" x="414.5" y="-46" font-family="Helvetica,sans-Serif" font-size="10.00">Result</text>
</a>
</g>
</g>
<!-- Node15&#45;&gt;Node16 -->
<g id="edge4" class="edge"><title>Node15&#45;&gt;Node16</title>
<path fill="none" stroke="midnightblue" d="M304.474,-67.7454C312.745,-66.7026 321.296,-65.6246 329.802,-64.5522"/>
<polygon fill="midnightblue" stroke="midnightblue" points="330.263,-68.0219 339.746,-63.2985 329.387,-61.0769 330.263,-68.0219"/>
</g>
<!-- Node17 -->
<g id="node5" class="node"><title>Node17</title>
<g id="a_node5"><a xlink:href="$class_wi_fi_manager.html#abcc403fc26a47f7a111d1271f1d0869e" xlink:title="WiFiManager::startWPS">
<polygon fill="white" stroke="black" points="353,-0.5 353,-19.5 476,-19.5 476,-0.5 353,-0.5"/>
<text text-anchor="middle" x="414.5" y="-7.5" font-family="Helvetica,sans-Serif" font-size="10.00">WiFiManager::startWPS</text>
</a>
</g>
</g>
<!-- Node15&#45;&gt;Node17 -->
<g id="edge6" class="edge"><title>Node15&#45;&gt;Node17</title>
<path fill="none" stroke="midnightblue" d="M277.672,-66.4998C286.553,-63.6681 295.793,-60.179 304,-56 321.822,-46.9244 321.976,-37.6675 340,-29 344.974,-26.6082 350.287,-24.4905 355.696,-22.6212"/>
<polygon fill="midnightblue" stroke="midnightblue" points="357.006,-25.8774 365.481,-19.5192 354.891,-19.2046 357.006,-25.8774"/>
</g>
<!-- Node16&#45;&gt;Node14 -->
<g id="edge5" class="edge"><title>Node16&#45;&gt;Node14</title>
<path fill="none" stroke="midnightblue" d="M489.133,-63.0753C497.623,-64.1217 506.308,-65.192 514.867,-66.2469"/>
<polygon fill="midnightblue" stroke="midnightblue" points="514.484,-69.7262 524.838,-67.4758 515.341,-62.7787 514.484,-69.7262"/>
</g>
<!-- Node17&#45;&gt;Node14 -->
<g id="edge7" class="edge"><title>Node17&#45;&gt;Node14</title>
<path fill="none" stroke="midnightblue" d="M457.457,-19.5497C467.867,-22.2728 478.925,-25.4708 489,-29 515.686,-38.3475 544.97,-51.731 565.816,-61.8274"/>
<polygon fill="midnightblue" stroke="midnightblue" points="564.522,-65.0907 575.042,-66.3479 567.602,-58.8048 564.522,-65.0907"/>
</g>
</g>
</svg>
