<?xml version="1.0" encoding="UTF-8" standalone="no"?>
<!DOCTYPE svg PUBLIC "-//W3C//DTD SVG 1.1//EN"
 "http://www.w3.org/Graphics/SVG/1.1/DTD/svg11.dtd">
<!-- Generated by graphviz version 2.38.0 (20140413.2041)
 -->
<!-- Title: NDIR_I2C::measure Pages: 1 -->
<svg width="416pt" height="123pt"
 viewBox="0.00 0.00 416.00 123.00" xmlns="http://www.w3.org/2000/svg" xmlns:xlink="http://www.w3.org/1999/xlink">
<g id="graph0" class="graph" transform="scale(1 1) rotate(0) translate(4 119)">
<title>NDIR_I2C::measure</title>
<polygon fill="white" stroke="none" points="-4,4 -4,-119 412,-119 412,4 -4,4"/>
<!-- Node10 -->
<g id="node1" class="node"><title>Node10</title>
<polygon fill="#bfbfbf" stroke="black" points="0,-57.5 0,-76.5 107,-76.5 107,-57.5 0,-57.5"/>
<text text-anchor="middle" x="53.5" y="-64.5" font-family="Helvetica,sans-Serif" font-size="10.00">NDIR_I2C::measure</text>
</g>
<!-- Node11 -->
<g id="node2" class="node"><title>Node11</title>
<g id="a_node2"><a xlink:href="$class_n_d_i_r___i2_c.html#a5de6a044b00e985f035edca07521e319" xlink:title="NDIR_I2C::write_register">
<polygon fill="white" stroke="black" points="280,-95.5 280,-114.5 408,-114.5 408,-95.5 280,-95.5"/>
<text text-anchor="middle" x="344" y="-102.5" font-family="Helvetica,sans-Serif" font-size="10.00">NDIR_I2C::write_register</text>
</a>
</g>
</g>
<!-- Node10&#45;&gt;Node11 -->
<g id="edge1" class="edge"><title>Node10&#45;&gt;Node11</title>
<path fill="none" stroke="midnightblue" d="M71.1228,-76.5752C88.4253,-85.9461 116.631,-99.5781 143,-105 184.368,-113.506 231.574,-113.929 269.732,-112.03"/>
<polygon fill="midnightblue" stroke="midnightblue" points="269.946,-115.524 279.735,-111.469 269.555,-108.534 269.946,-115.524"/>
</g>
<!-- Node12 -->
<g id="node3" class="node"><title>Node12</title>
<g id="a_node3"><a xlink:href="$class_n_d_i_r___i2_c.html#aab0c04c2b7d08e99d12af044df179f0c" xlink:title="NDIR_I2C::send">
<polygon fill="white" stroke="black" points="148.5,-76.5 148.5,-95.5 238.5,-95.5 238.5,-76.5 148.5,-76.5"/>
<text text-anchor="middle" x="193.5" y="-83.5" font-family="Helvetica,sans-Serif" font-size="10.00">NDIR_I2C::send</text>
</a>
</g>
</g>
<!-- Node10&#45;&gt;Node12 -->
<g id="edge2" class="edge"><title>Node10&#45;&gt;Node12</title>
<path fill="none" stroke="midnightblue" d="M107.066,-74.2373C117.234,-75.6373 127.908,-77.107 138.133,-78.5147"/>
<polygon fill="midnightblue" stroke="midnightblue" points="137.789,-82.0003 148.173,-79.897 138.744,-75.0657 137.789,-82.0003"/>
</g>
<!-- Node14 -->
<g id="node5" class="node"><title>Node14</title>
<g id="a_node5"><a xlink:href="$class_n_d_i_r___i2_c.html#aa6d2b8dd287f9c9015461cebb18f9abc" xlink:title="NDIR_I2C::receive">
<polygon fill="white" stroke="black" points="143,-38.5 143,-57.5 244,-57.5 244,-38.5 143,-38.5"/>
<text text-anchor="middle" x="193.5" y="-45.5" font-family="Helvetica,sans-Serif" font-size="10.00">NDIR_I2C::receive</text>
</a>
</g>
</g>
<!-- Node10&#45;&gt;Node14 -->
<g id="edge5" class="edge"><title>Node10&#45;&gt;Node14</title>
<path fill="none" stroke="midnightblue" d="M107.066,-59.7627C115.497,-58.6019 124.275,-57.3933 132.857,-56.2117"/>
<polygon fill="midnightblue" stroke="midnightblue" points="133.379,-59.6729 142.808,-54.8416 132.424,-52.7383 133.379,-59.6729"/>
</g>
<!-- Node15 -->
<g id="node6" class="node"><title>Node15</title>
<g id="a_node6"><a xlink:href="$class_n_d_i_r___i2_c.html#a907b756fc9244c7398b7d187b73cde94" xlink:title="NDIR_I2C::parse">
<polygon fill="white" stroke="black" points="147,-0.5 147,-19.5 240,-19.5 240,-0.5 147,-0.5"/>
<text text-anchor="middle" x="193.5" y="-7.5" font-family="Helvetica,sans-Serif" font-size="10.00">NDIR_I2C::parse</text>
</a>
</g>
</g>
<!-- Node10&#45;&gt;Node15 -->
<g id="edge7" class="edge"><title>Node10&#45;&gt;Node15</title>
<path fill="none" stroke="midnightblue" d="M76.2223,-57.392C94.077,-49.5625 120.074,-38.3178 143,-29 147.608,-27.1273 152.475,-25.1988 157.288,-23.3214"/>
<polygon fill="midnightblue" stroke="midnightblue" points="158.922,-26.4423 166.989,-19.5738 156.399,-19.9127 158.922,-26.4423"/>
</g>
<!-- Node12&#45;&gt;Node11 -->
<g id="edge4" class="edge"><title>Node12&#45;&gt;Node11</title>
<path fill="none" stroke="midnightblue" d="M238.653,-91.6492C248.436,-92.9009 259.058,-94.26 269.656,-95.6159"/>
<polygon fill="midnightblue" stroke="midnightblue" points="269.418,-99.1139 279.781,-96.9114 270.306,-92.1705 269.418,-99.1139"/>
</g>
<!-- Node13 -->
<g id="node4" class="node"><title>Node13</title>
<g id="a_node4"><a xlink:href="$class_n_d_i_r___i2_c.html#aa72058e6e7c6174b14466fee4b2df1e0" xlink:title="NDIR_I2C::read_register">
<polygon fill="white" stroke="black" points="281.5,-48.5 281.5,-67.5 406.5,-67.5 406.5,-48.5 281.5,-48.5"/>
<text text-anchor="middle" x="344" y="-55.5" font-family="Helvetica,sans-Serif" font-size="10.00">NDIR_I2C::read_register</text>
</a>
</g>
</g>
<!-- Node12&#45;&gt;Node13 -->
<g id="edge3" class="edge"><title>Node12&#45;&gt;Node13</title>
<path fill="none" stroke="midnightblue" d="M238.653,-77.6749C252.407,-75.0815 267.82,-72.1754 282.491,-69.4092"/>
<polygon fill="midnightblue" stroke="midnightblue" points="283.321,-72.8143 292.5,-67.522 282.024,-65.9355 283.321,-72.8143"/>
</g>
<!-- Node14&#45;&gt;Node13 -->
<g id="edge6" class="edge"><title>Node14&#45;&gt;Node13</title>
<path fill="none" stroke="midnightblue" d="M244.361,-51.3577C252.993,-51.939 262.12,-52.5535 271.198,-53.1648"/>
<polygon fill="midnightblue" stroke="midnightblue" points="271.185,-56.6718 281.397,-53.8517 271.655,-49.6876 271.185,-56.6718"/>
</g>
</g>
</svg>
