<?xml version="1.0" encoding="UTF-8" standalone="no"?>
<!DOCTYPE svg PUBLIC "-//W3C//DTD SVG 1.1//EN"
 "http://www.w3.org/Graphics/SVG/1.1/DTD/svg11.dtd">
<!-- Generated by graphviz version 2.38.0 (20140413.2041)
 -->
<!-- Title: CoolTime::getESDate Pages: 1 -->
<svg width="432pt" height="47pt"
 viewBox="0.00 0.00 432.00 47.00" xmlns="http://www.w3.org/2000/svg" xmlns:xlink="http://www.w3.org/1999/xlink">
<g id="graph0" class="graph" transform="scale(1 1) rotate(0) translate(4 43)">
<title>CoolTime::getESDate</title>
<polygon fill="white" stroke="none" points="-4,4 -4,-43 428,-43 428,4 -4,4"/>
<!-- Node23 -->
<g id="node1" class="node"><title>Node23</title>
<polygon fill="#bfbfbf" stroke="black" points="0,-0.5 0,-19.5 113,-19.5 113,-0.5 0,-0.5"/>
<text text-anchor="middle" x="56.5" y="-7.5" font-family="Helvetica,sans-Serif" font-size="10.00">CoolTime::getESDate</text>
</g>
<!-- Node24 -->
<g id="node2" class="node"><title>Node24</title>
<g id="a_node2"><a xlink:href="$class_cool_time.html#a7a7501c5ca77dd1248bea704c44f986c" xlink:title="CoolTime::getTimeDate">
<polygon fill="white" stroke="black" points="149,-19.5 149,-38.5 270,-38.5 270,-19.5 149,-19.5"/>
<text text-anchor="middle" x="209.5" y="-26.5" font-family="Helvetica,sans-Serif" font-size="10.00">CoolTime::getTimeDate</text>
</a>
</g>
</g>
<!-- Node23&#45;&gt;Node24 -->
<g id="edge1" class="edge"><title>Node23&#45;&gt;Node24</title>
<path fill="none" stroke="midnightblue" d="M113.298,-17.0209C121.631,-18.0694 130.308,-19.1613 138.883,-20.2403"/>
<polygon fill="midnightblue" stroke="midnightblue" points="138.518,-23.7218 148.877,-21.4977 139.392,-16.7766 138.518,-23.7218"/>
</g>
<!-- Node25 -->
<g id="node3" class="node"><title>Node25</title>
<g id="a_node3"><a xlink:href="$class_cool_time.html#acd537cd4210d7bde4e1f5c47d2ac0456" xlink:title="CoolTime::formatDigits">
<polygon fill="white" stroke="black" points="306,-0.5 306,-19.5 424,-19.5 424,-0.5 306,-0.5"/>
<text text-anchor="middle" x="365" y="-7.5" font-family="Helvetica,sans-Serif" font-size="10.00">CoolTime::formatDigits</text>
</a>
</g>
</g>
<!-- Node23&#45;&gt;Node25 -->
<g id="edge3" class="edge"><title>Node23&#45;&gt;Node25</title>
<path fill="none" stroke="midnightblue" d="M113.005,-10C164.324,-10 240.741,-10 295.766,-10"/>
<polygon fill="midnightblue" stroke="midnightblue" points="295.781,-13.5001 305.781,-10 295.781,-6.5001 295.781,-13.5001"/>
</g>
<!-- Node24&#45;&gt;Node25 -->
<g id="edge2" class="edge"><title>Node24&#45;&gt;Node25</title>
<path fill="none" stroke="midnightblue" d="M270.287,-21.5997C278.697,-20.5587 287.393,-19.4823 295.943,-18.424"/>
<polygon fill="midnightblue" stroke="midnightblue" points="296.394,-21.895 305.888,-17.193 295.534,-14.948 296.394,-21.895"/>
</g>
</g>
</svg>
