<?xml version="1.0" encoding="UTF-8" standalone="no"?>
<!DOCTYPE svg PUBLIC "-//W3C//DTD SVG 1.1//EN"
 "http://www.w3.org/Graphics/SVG/1.1/DTD/svg11.dtd">
<!-- Generated by graphviz version 2.38.0 (20140413.2041)
 -->
<!-- Title: WiFiManager::handleRoot Pages: 1 -->
<svg width="487pt" height="104pt"
 viewBox="0.00 0.00 487.00 104.00" xmlns="http://www.w3.org/2000/svg" xmlns:xlink="http://www.w3.org/1999/xlink">
<g id="graph0" class="graph" transform="scale(1 1) rotate(0) translate(4 100)">
<title>WiFiManager::handleRoot</title>
<polygon fill="white" stroke="none" points="-4,4 -4,-100 483,-100 483,4 -4,4"/>
<!-- Node93 -->
<g id="node1" class="node"><title>Node93</title>
<polygon fill="#bfbfbf" stroke="black" points="0,-57.5 0,-76.5 130,-76.5 130,-57.5 0,-57.5"/>
<text text-anchor="middle" x="65" y="-64.5" font-family="Helvetica,sans-Serif" font-size="10.00">WiFiManager::handleRoot</text>
</g>
<!-- Node94 -->
<g id="node2" class="node"><title>Node94</title>
<g id="a_node2"><a xlink:href="$class_wi_fi_manager.html#ae5f595c670ccbcf9a191baf50f5c7c26" xlink:title="WiFiManager::DEBUG_WM">
<polygon fill="white" stroke="black" points="339,-76.5 339,-95.5 479,-95.5 479,-76.5 339,-76.5"/>
<text text-anchor="middle" x="409" y="-83.5" font-family="Helvetica,sans-Serif" font-size="10.00">WiFiManager::DEBUG_WM</text>
</a>
</g>
</g>
<!-- Node93&#45;&gt;Node94 -->
<g id="edge1" class="edge"><title>Node93&#45;&gt;Node94</title>
<path fill="none" stroke="midnightblue" d="M130.328,-70.5738C186.573,-73.6985 268.455,-78.2475 328.734,-81.5963"/>
<polygon fill="midnightblue" stroke="midnightblue" points="328.791,-85.1048 338.97,-82.165 329.179,-78.1156 328.791,-85.1048"/>
</g>
<!-- Node95 -->
<g id="node3" class="node"><title>Node95</title>
<g id="a_node3"><a xlink:href="$class_wi_fi_manager.html#a4ef4298deb224212e5242c456669a973" xlink:title="WiFiManager::captivePortal">
<polygon fill="white" stroke="black" points="166,-38.5 166,-57.5 303,-57.5 303,-38.5 166,-38.5"/>
<text text-anchor="middle" x="234.5" y="-45.5" font-family="Helvetica,sans-Serif" font-size="10.00">WiFiManager::captivePortal</text>
</a>
</g>
</g>
<!-- Node93&#45;&gt;Node95 -->
<g id="edge2" class="edge"><title>Node93&#45;&gt;Node95</title>
<path fill="none" stroke="midnightblue" d="M130.281,-59.7084C138.636,-58.7607 147.265,-57.7819 155.809,-56.8127"/>
<polygon fill="midnightblue" stroke="midnightblue" points="156.237,-60.2867 165.779,-55.6818 155.448,-53.3313 156.237,-60.2867"/>
</g>
<!-- Node95&#45;&gt;Node94 -->
<g id="edge4" class="edge"><title>Node95&#45;&gt;Node94</title>
<path fill="none" stroke="midnightblue" d="M279.029,-57.589C302.1,-62.6713 330.627,-68.9554 354.981,-74.3203"/>
<polygon fill="midnightblue" stroke="midnightblue" points="354.265,-77.7466 364.784,-76.4799 355.771,-70.9105 354.265,-77.7466"/>
</g>
<!-- Node96 -->
<g id="node4" class="node"><title>Node96</title>
<g id="a_node4"><a xlink:href="$class_wi_fi_manager.html#a9c78a8774f746ec22a99d03a53baa607" xlink:title="WiFiManager::isIp">
<polygon fill="white" stroke="black" points="361,-38.5 361,-57.5 457,-57.5 457,-38.5 361,-38.5"/>
<text text-anchor="middle" x="409" y="-45.5" font-family="Helvetica,sans-Serif" font-size="10.00">WiFiManager::isIp</text>
</a>
</g>
</g>
<!-- Node95&#45;&gt;Node96 -->
<g id="edge3" class="edge"><title>Node95&#45;&gt;Node96</title>
<path fill="none" stroke="midnightblue" d="M303.181,-48C318.826,-48 335.327,-48 350.49,-48"/>
<polygon fill="midnightblue" stroke="midnightblue" points="350.746,-51.5001 360.746,-48 350.746,-44.5001 350.746,-51.5001"/>
</g>
<!-- Node97 -->
<g id="node5" class="node"><title>Node97</title>
<g id="a_node5"><a xlink:href="$class_wi_fi_manager.html#a8dfd64cefecbdf26242b16eca335c20b" xlink:title="WiFiManager::toStringIp">
<polygon fill="white" stroke="black" points="348,-0.5 348,-19.5 470,-19.5 470,-0.5 348,-0.5"/>
<text text-anchor="middle" x="409" y="-7.5" font-family="Helvetica,sans-Serif" font-size="10.00">WiFiManager::toStringIp</text>
</a>
</g>
</g>
<!-- Node95&#45;&gt;Node97 -->
<g id="edge5" class="edge"><title>Node95&#45;&gt;Node97</title>
<path fill="none" stroke="midnightblue" d="M279.029,-38.411C302.1,-33.3287 330.627,-27.0446 354.981,-21.6797"/>
<polygon fill="midnightblue" stroke="midnightblue" points="355.771,-25.0895 364.784,-19.5201 354.265,-18.2534 355.771,-25.0895"/>
</g>
</g>
</svg>
