<?xml version="1.0" encoding="UTF-8" standalone="no"?>
<!DOCTYPE svg PUBLIC "-//W3C//DTD SVG 1.1//EN"
 "http://www.w3.org/Graphics/SVG/1.1/DTD/svg11.dtd">
<!-- Generated by graphviz version 2.38.0 (20140413.2041)
 -->
<!-- Title: CoolBoard::onLineMode Pages: 1 -->
<svg width="702pt" height="1291pt"
 viewBox="0.00 0.00 702.00 1291.39" xmlns="http://www.w3.org/2000/svg" xmlns:xlink="http://www.w3.org/1999/xlink">
<g id="graph0" class="graph" transform="scale(1 1) rotate(0) translate(4 1287.39)">
<title>CoolBoard::onLineMode</title>
<polygon fill="white" stroke="none" points="-4,4 -4,-1287.39 698,-1287.39 698,4 -4,4"/>
<!-- Node229 -->
<g id="node1" class="node"><title>Node229</title>
<polygon fill="#bfbfbf" stroke="black" points="0,-845.5 0,-864.5 121,-864.5 121,-845.5 0,-845.5"/>
<text text-anchor="middle" x="60.5" y="-852.5" font-family="Helvetica,sans-Serif" font-size="10.00">CoolBoard::onLineMode</text>
</g>
<!-- Node230 -->
<g id="node2" class="node"><title>Node230</title>
<g id="a_node2"><a xlink:href="$class_cool_board_led.html#ab778f5e7bed0ab74e3906d82110493c3" xlink:title="CoolBoardLed::fadeIn">
<polygon fill="white" stroke="black" points="377.5,-1137.5 377.5,-1156.5 488.5,-1156.5 488.5,-1137.5 377.5,-1137.5"/>
<text text-anchor="middle" x="433" y="-1144.5" font-family="Helvetica,sans-Serif" font-size="10.00">CoolBoardLed::fadeIn</text>
</a>
</g>
</g>
<!-- Node229&#45;&gt;Node230 -->
<g id="edge1" class="edge"><title>Node229&#45;&gt;Node230</title>
<path fill="none" stroke="midnightblue" d="M63.4333,-864.741C70.213,-896.324 95.8879,-996.854 157,-1049 209.722,-1093.99 245.879,-1060.52 306,-1095 324.829,-1105.8 322.698,-1118.07 342,-1128 349.842,-1132.03 358.488,-1135.21 367.227,-1137.71"/>
<polygon fill="midnightblue" stroke="midnightblue" points="366.537,-1141.15 377.095,-1140.26 368.288,-1134.37 366.537,-1141.15"/>
</g>
<!-- Node231 -->
<g id="node3" class="node"><title>Node231</title>
<g id="a_node3"><a xlink:href="$class_cool_file_system.html#ac86a40e7c3a1842f7342f698d34324f9" xlink:title="CoolFileSystem::isDataSaved">
<polygon fill="white" stroke="black" points="157,-845.5 157,-864.5 306,-864.5 306,-845.5 157,-845.5"/>
<text text-anchor="middle" x="231.5" y="-852.5" font-family="Helvetica,sans-Serif" font-size="10.00">CoolFileSystem::isDataSaved</text>
</a>
</g>
</g>
<!-- Node229&#45;&gt;Node231 -->
<g id="edge2" class="edge"><title>Node229&#45;&gt;Node231</title>
<path fill="none" stroke="midnightblue" d="M121.083,-855C129.416,-855 138.104,-855 146.781,-855"/>
<polygon fill="midnightblue" stroke="midnightblue" points="146.941,-858.5 156.941,-855 146.941,-851.5 146.941,-858.5"/>
</g>
<!-- Node232 -->
<g id="node4" class="node"><title>Node232</title>
<g id="a_node4"><a xlink:href="$class_cool_board_led.html#ad5f0de4c628cbfbf49896042831c64ad" xlink:title="CoolBoardLed::strobe">
<polygon fill="white" stroke="black" points="377.5,-1175.5 377.5,-1194.5 488.5,-1194.5 488.5,-1175.5 377.5,-1175.5"/>
<text text-anchor="middle" x="433" y="-1182.5" font-family="Helvetica,sans-Serif" font-size="10.00">CoolBoardLed::strobe</text>
</a>
</g>
</g>
<!-- Node229&#45;&gt;Node232 -->
<g id="edge3" class="edge"><title>Node229&#45;&gt;Node232</title>
<path fill="none" stroke="midnightblue" d="M62.5146,-864.603C66.7582,-899.827 86.2998,-1023.14 157,-1086 208.418,-1131.72 247.114,-1092.41 306,-1128 325.911,-1140.03 321.699,-1154.64 342,-1166 349.88,-1170.41 358.67,-1173.8 367.584,-1176.4"/>
<polygon fill="midnightblue" stroke="midnightblue" points="366.707,-1179.79 377.267,-1178.93 368.475,-1173.02 366.707,-1179.79"/>
</g>
<!-- Node233 -->
<g id="node5" class="node"><title>Node233</title>
<g id="a_node5"><a xlink:href="$class_cool_m_q_t_t.html#ace977b3e90ab14b1199fe5c4fb0a13ec" xlink:title="CoolMQTT::publish">
<polygon fill="white" stroke="black" points="382.5,-1251.5 382.5,-1270.5 483.5,-1270.5 483.5,-1251.5 382.5,-1251.5"/>
<text text-anchor="middle" x="433" y="-1258.5" font-family="Helvetica,sans-Serif" font-size="10.00">CoolMQTT::publish</text>
</a>
</g>
</g>
<!-- Node229&#45;&gt;Node233 -->
<g id="edge4" class="edge"><title>Node229&#45;&gt;Node233</title>
<path fill="none" stroke="midnightblue" d="M62.3699,-864.58C67.5382,-919.217 96.0759,-1190.8 157,-1242 221.07,-1295.85 325.939,-1284.99 385.964,-1272.71"/>
<polygon fill="midnightblue" stroke="midnightblue" points="386.871,-1276.09 395.915,-1270.57 385.403,-1269.25 386.871,-1276.09"/>
</g>
<!-- Node235 -->
<g id="node7" class="node"><title>Node235</title>
<g id="a_node7"><a xlink:href="$class_cool_m_q_t_t.html#aa5eaae967b562b62cbcf2b8d81f6e5d5" xlink:title="CoolMQTT::mqttLoop">
<polygon fill="white" stroke="black" points="377.5,-1213.5 377.5,-1232.5 488.5,-1232.5 488.5,-1213.5 377.5,-1213.5"/>
<text text-anchor="middle" x="433" y="-1220.5" font-family="Helvetica,sans-Serif" font-size="10.00">CoolMQTT::mqttLoop</text>
</a>
</g>
</g>
<!-- Node229&#45;&gt;Node235 -->
<g id="edge6" class="edge"><title>Node229&#45;&gt;Node235</title>
<path fill="none" stroke="midnightblue" d="M61.2137,-864.655C60.5096,-907.373 63.6615,-1081.01 157,-1166 172.483,-1180.1 291.019,-1200.94 367.33,-1213.13"/>
<polygon fill="midnightblue" stroke="midnightblue" points="366.915,-1216.61 377.34,-1214.72 368.012,-1209.69 366.915,-1216.61"/>
</g>
<!-- Node240 -->
<g id="node9" class="node"><title>Node240</title>
<g id="a_node9"><a xlink:href="$class_cool_file_system.html#a3223ffff4266a6300988fab956d6b4b2" xlink:title="CoolFileSystem::getSensor\lSavedData">
<polygon fill="white" stroke="black" points="163,-796 163,-826 300,-826 300,-796 163,-796"/>
<text text-anchor="start" x="171" y="-814" font-family="Helvetica,sans-Serif" font-size="10.00">CoolFileSystem::getSensor</text>
<text text-anchor="middle" x="231.5" y="-803" font-family="Helvetica,sans-Serif" font-size="10.00">SavedData</text>
</a>
</g>
</g>
<!-- Node229&#45;&gt;Node240 -->
<g id="edge8" class="edge"><title>Node229&#45;&gt;Node240</title>
<path fill="none" stroke="midnightblue" d="M98.1705,-845.453C117.113,-840.521 140.837,-834.344 162.947,-828.588"/>
<polygon fill="midnightblue" stroke="midnightblue" points="163.84,-831.972 172.635,-826.065 162.076,-825.198 163.84,-831.972"/>
</g>
<!-- Node242 -->
<g id="node11" class="node"><title>Node242</title>
<g id="a_node11"><a xlink:href="$class_cool_board_led.html#a93d545679237e8cc858324367149775c" xlink:title="CoolBoardLed::fadeOut">
<polygon fill="white" stroke="black" points="373.5,-1099.5 373.5,-1118.5 492.5,-1118.5 492.5,-1099.5 373.5,-1099.5"/>
<text text-anchor="middle" x="433" y="-1106.5" font-family="Helvetica,sans-Serif" font-size="10.00">CoolBoardLed::fadeOut</text>
</a>
</g>
</g>
<!-- Node229&#45;&gt;Node242 -->
<g id="edge10" class="edge"><title>Node229&#45;&gt;Node242</title>
<path fill="none" stroke="midnightblue" d="M64.4496,-864.564C73.4711,-892.195 103.391,-972.784 157,-1014 211.642,-1056.01 245.895,-1023.27 306,-1057 324.928,-1067.62 322.698,-1080.07 342,-1090 348.715,-1093.45 356.019,-1096.28 363.466,-1098.59"/>
<polygon fill="midnightblue" stroke="midnightblue" points="362.728,-1102.02 373.301,-1101.34 364.615,-1095.28 362.728,-1102.02"/>
</g>
<!-- Node243 -->
<g id="node12" class="node"><title>Node243</title>
<g id="a_node12"><a xlink:href="$class_cool_board_led.html#a96e1ea13003eee34c9dbcef340404426" xlink:title="CoolBoardLed::blink">
<polygon fill="white" stroke="black" points="179.5,-757.5 179.5,-776.5 283.5,-776.5 283.5,-757.5 179.5,-757.5"/>
<text text-anchor="middle" x="231.5" y="-764.5" font-family="Helvetica,sans-Serif" font-size="10.00">CoolBoardLed::blink</text>
</a>
</g>
</g>
<!-- Node229&#45;&gt;Node243 -->
<g id="edge11" class="edge"><title>Node229&#45;&gt;Node243</title>
<path fill="none" stroke="midnightblue" d="M72.1557,-845.454C89.0004,-830.839 123.336,-802.94 157,-787 162.804,-784.252 169.051,-781.826 175.364,-779.7"/>
<polygon fill="midnightblue" stroke="midnightblue" points="176.783,-782.924 185.285,-776.603 174.696,-776.242 176.783,-782.924"/>
</g>
<!-- Node244 -->
<g id="node13" class="node"><title>Node244</title>
<g id="a_node13"><a xlink:href="$class_cool_time.html#aae601f795452cfa48d9fb337aed483a8" xlink:title="CoolTime::update">
<polygon fill="white" stroke="black" points="184.5,-719.5 184.5,-738.5 278.5,-738.5 278.5,-719.5 184.5,-719.5"/>
<text text-anchor="middle" x="231.5" y="-726.5" font-family="Helvetica,sans-Serif" font-size="10.00">CoolTime::update</text>
</a>
</g>
</g>
<!-- Node229&#45;&gt;Node244 -->
<g id="edge12" class="edge"><title>Node229&#45;&gt;Node244</title>
<path fill="none" stroke="midnightblue" d="M67.3031,-845.285C80.4536,-824.143 114.694,-773.795 157,-748 162.391,-744.713 168.338,-741.991 174.445,-739.737"/>
<polygon fill="midnightblue" stroke="midnightblue" points="175.702,-743.008 184.114,-736.568 173.522,-736.357 175.702,-743.008"/>
</g>
<!-- Node250 -->
<g id="node17" class="node"><title>Node250</title>
<g id="a_node17"><a xlink:href="$class_cool_board.html#ae7358fb6e623cfc81b775f5f1734909b" xlink:title="CoolBoard::userData">
<polygon fill="white" stroke="black" points="177.5,-883.5 177.5,-902.5 285.5,-902.5 285.5,-883.5 177.5,-883.5"/>
<text text-anchor="middle" x="231.5" y="-890.5" font-family="Helvetica,sans-Serif" font-size="10.00">CoolBoard::userData</text>
</a>
</g>
</g>
<!-- Node229&#45;&gt;Node250 -->
<g id="edge16" class="edge"><title>Node229&#45;&gt;Node250</title>
<path fill="none" stroke="midnightblue" d="M104.146,-864.589C126.648,-869.649 154.448,-875.9 178.238,-881.249"/>
<polygon fill="midnightblue" stroke="midnightblue" points="177.637,-884.701 188.161,-883.48 179.172,-877.871 177.637,-884.701"/>
</g>
<!-- Node255 -->
<g id="node21" class="node"><title>Node255</title>
<g id="a_node21"><a xlink:href="$class_cool_board.html#ad03abdce2e65f520bbf2cff0f2d083cf" xlink:title="CoolBoard::readSensors">
<polygon fill="white" stroke="black" points="170,-985.5 170,-1004.5 293,-1004.5 293,-985.5 170,-985.5"/>
<text text-anchor="middle" x="231.5" y="-992.5" font-family="Helvetica,sans-Serif" font-size="10.00">CoolBoard::readSensors</text>
</a>
</g>
</g>
<!-- Node229&#45;&gt;Node255 -->
<g id="edge20" class="edge"><title>Node229&#45;&gt;Node255</title>
<path fill="none" stroke="midnightblue" d="M73.1161,-864.623C101.698,-888.3 175.682,-949.589 211.077,-978.91"/>
<polygon fill="midnightblue" stroke="midnightblue" points="208.869,-981.626 218.803,-985.31 213.335,-976.235 208.869,-981.626"/>
</g>
<!-- Node286 -->
<g id="node26" class="node"><title>Node286</title>
<g id="a_node26"><a xlink:href="$class_cool_board_led.html#af1cacbaa88db8bcf6042c1083ba41155" xlink:title="CoolBoardLed::fade">
<polygon fill="white" stroke="black" points="180,-681.5 180,-700.5 283,-700.5 283,-681.5 180,-681.5"/>
<text text-anchor="middle" x="231.5" y="-688.5" font-family="Helvetica,sans-Serif" font-size="10.00">CoolBoardLed::fade</text>
</a>
</g>
</g>
<!-- Node229&#45;&gt;Node286 -->
<g id="edge29" class="edge"><title>Node229&#45;&gt;Node286</title>
<path fill="none" stroke="midnightblue" d="M64.934,-845.464C74.8287,-819.397 105.996,-746.464 157,-710 161.011,-707.133 165.418,-704.698 170.022,-702.63"/>
<polygon fill="midnightblue" stroke="midnightblue" points="171.625,-705.762 179.681,-698.88 169.092,-699.236 171.625,-705.762"/>
</g>
<!-- Node287 -->
<g id="node27" class="node"><title>Node287</title>
<g id="a_node27"><a xlink:href="$class_jetpack.html#af9acedb606340c26c2636c282b54dff1" xlink:title="Jetpack::doAction">
<polygon fill="white" stroke="black" points="184,-434.5 184,-453.5 279,-453.5 279,-434.5 184,-434.5"/>
<text text-anchor="middle" x="231.5" y="-441.5" font-family="Helvetica,sans-Serif" font-size="10.00">Jetpack::doAction</text>
</a>
</g>
</g>
<!-- Node229&#45;&gt;Node287 -->
<g id="edge30" class="edge"><title>Node229&#45;&gt;Node287</title>
<path fill="none" stroke="midnightblue" d="M65.5109,-845.246C87.4262,-791.949 192.793,-535.701 222.618,-463.168"/>
<polygon fill="midnightblue" stroke="midnightblue" points="225.886,-464.425 226.452,-453.845 219.412,-461.763 225.886,-464.425"/>
</g>
<!-- Node301 -->
<g id="node41" class="node"><title>Node301</title>
<g id="a_node41"><a xlink:href="$class_cool_board_actor.html#a3323ba7aaa4bef3ff084dcd830fe9b61" xlink:title="CoolBoardActor::doAction">
<polygon fill="white" stroke="red" points="166.5,-257.5 166.5,-276.5 296.5,-276.5 296.5,-257.5 166.5,-257.5"/>
<text text-anchor="middle" x="231.5" y="-264.5" font-family="Helvetica,sans-Serif" font-size="10.00">CoolBoardActor::doAction</text>
</a>
</g>
</g>
<!-- Node229&#45;&gt;Node301 -->
<g id="edge44" class="edge"><title>Node229&#45;&gt;Node301</title>
<path fill="none" stroke="midnightblue" d="M62.8402,-845.412C69.5614,-798.484 101.491,-588.669 157,-425 174.732,-372.717 204.531,-314.688 220.184,-285.671"/>
<polygon fill="midnightblue" stroke="midnightblue" points="223.375,-287.13 225.088,-276.674 217.229,-283.78 223.375,-287.13"/>
</g>
<!-- Node315 -->
<g id="node46" class="node"><title>Node315</title>
<g id="a_node46"><a xlink:href="$class_cool_m_q_t_t.html#ae3c18f6ae9723746d32765f1c8f176ca" xlink:title="CoolMQTT::read">
<polygon fill="white" stroke="black" points="187,-219.5 187,-238.5 276,-238.5 276,-219.5 187,-219.5"/>
<text text-anchor="middle" x="231.5" y="-226.5" font-family="Helvetica,sans-Serif" font-size="10.00">CoolMQTT::read</text>
</a>
</g>
</g>
<!-- Node229&#45;&gt;Node315 -->
<g id="edge49" class="edge"><title>Node229&#45;&gt;Node315</title>
<path fill="none" stroke="midnightblue" d="M61.622,-845.29C62.7053,-774.727 72.7636,-340.823 157,-248 162.418,-242.03 169.444,-237.828 176.999,-234.89"/>
<polygon fill="midnightblue" stroke="midnightblue" points="178.288,-238.153 186.771,-231.807 176.182,-231.478 178.288,-238.153"/>
</g>
<!-- Node316 -->
<g id="node47" class="node"><title>Node316</title>
<g id="a_node47"><a xlink:href="$class_cool_board.html#a8612756d3f73198cdde857a66f0fe690" xlink:title="CoolBoard::update">
<polygon fill="white" stroke="red" points="182.5,-1137.5 182.5,-1156.5 280.5,-1156.5 280.5,-1137.5 182.5,-1137.5"/>
<text text-anchor="middle" x="231.5" y="-1144.5" font-family="Helvetica,sans-Serif" font-size="10.00">CoolBoard::update</text>
</a>
</g>
</g>
<!-- Node229&#45;&gt;Node316 -->
<g id="edge50" class="edge"><title>Node229&#45;&gt;Node316</title>
<path fill="none" stroke="midnightblue" d="M61.9983,-864.648C64.5076,-903.102 78.9658,-1047.02 157,-1123 161.607,-1127.49 167.064,-1131.13 172.892,-1134.1"/>
<polygon fill="midnightblue" stroke="midnightblue" points="171.721,-1137.41 182.284,-1138.22 174.534,-1131 171.721,-1137.41"/>
</g>
<!-- Node324 -->
<g id="node48" class="node"><title>Node324</title>
<g id="a_node48"><a xlink:href="$class_cool_board.html#a7508e029f2ee17bb747ffab599285e0d" xlink:title="CoolBoard::getLogInterval">
<polygon fill="white" stroke="black" points="166.5,-181.5 166.5,-200.5 296.5,-200.5 296.5,-181.5 166.5,-181.5"/>
<text text-anchor="middle" x="231.5" y="-188.5" font-family="Helvetica,sans-Serif" font-size="10.00">CoolBoard::getLogInterval</text>
</a>
</g>
</g>
<!-- Node229&#45;&gt;Node324 -->
<g id="edge56" class="edge"><title>Node229&#45;&gt;Node324</title>
<path fill="none" stroke="midnightblue" d="M61.5245,-845.161C61.9081,-771.709 67.8716,-309.112 157,-210 158.181,-208.686 159.441,-207.458 160.767,-206.31"/>
<polygon fill="midnightblue" stroke="midnightblue" points="162.799,-209.159 169.007,-200.573 158.8,-203.414 162.799,-209.159"/>
</g>
<!-- Node325 -->
<g id="node49" class="node"><title>Node325</title>
<g id="a_node49"><a xlink:href="$class_cool_board.html#a705398b11560603fcdd1b9e8e95d0027" xlink:title="CoolBoard::sendConfig">
<polygon fill="white" stroke="black" points="172.5,-1213.5 172.5,-1232.5 290.5,-1232.5 290.5,-1213.5 172.5,-1213.5"/>
<text text-anchor="middle" x="231.5" y="-1220.5" font-family="Helvetica,sans-Serif" font-size="10.00">CoolBoard::sendConfig</text>
</a>
</g>
</g>
<!-- Node229&#45;&gt;Node325 -->
<g id="edge57" class="edge"><title>Node229&#45;&gt;Node325</title>
<path fill="none" stroke="midnightblue" d="M61.1141,-864.775C59.891,-909.698 60.8375,-1098.43 157,-1199 160.674,-1202.84 164.971,-1206.07 169.61,-1208.78"/>
<polygon fill="midnightblue" stroke="midnightblue" points="168.366,-1212.07 178.879,-1213.39 171.48,-1205.8 168.366,-1212.07"/>
</g>
<!-- Node326 -->
<g id="node50" class="node"><title>Node326</title>
<g id="a_node50"><a xlink:href="$class_cool_board.html#a069952cdcb2e7f68518aa429eceadb6e" xlink:title="CoolBoard::sleep">
<polygon fill="white" stroke="black" points="185.5,-143.5 185.5,-162.5 277.5,-162.5 277.5,-143.5 185.5,-143.5"/>
<text text-anchor="middle" x="231.5" y="-150.5" font-family="Helvetica,sans-Serif" font-size="10.00">CoolBoard::sleep</text>
</a>
</g>
</g>
<!-- Node229&#45;&gt;Node326 -->
<g id="edge60" class="edge"><title>Node229&#45;&gt;Node326</title>
<path fill="none" stroke="midnightblue" d="M61.4356,-845.076C61.1444,-768.924 62.9548,-277.432 157,-172 162.006,-166.388 168.433,-162.333 175.397,-159.421"/>
<polygon fill="midnightblue" stroke="midnightblue" points="176.797,-162.642 185.145,-156.119 174.551,-156.012 176.797,-162.642"/>
</g>
<!-- Node234 -->
<g id="node6" class="node"><title>Node234</title>
<g id="a_node6"><a xlink:href="$class_cool_pub_sub_client.html#ab6ad5fa2d3db8f91454027257f225a89" xlink:title="CoolPubSubClient::publish">
<polygon fill="white" stroke="black" points="560,-1251.5 560,-1270.5 694,-1270.5 694,-1251.5 560,-1251.5"/>
<text text-anchor="middle" x="627" y="-1258.5" font-family="Helvetica,sans-Serif" font-size="10.00">CoolPubSubClient::publish</text>
</a>
</g>
</g>
<!-- Node233&#45;&gt;Node234 -->
<g id="edge5" class="edge"><title>Node233&#45;&gt;Node234</title>
<path fill="none" stroke="midnightblue" d="M483.945,-1261C503.986,-1261 527.537,-1261 549.638,-1261"/>
<polygon fill="midnightblue" stroke="midnightblue" points="549.672,-1264.5 559.672,-1261 549.672,-1257.5 549.672,-1264.5"/>
</g>
<!-- Node236 -->
<g id="node8" class="node"><title>Node236</title>
<g id="a_node8"><a xlink:href="$class_cool_pub_sub_client.html#afc15900f0fc4886a19394508e61793b8" xlink:title="CoolPubSubClient::loop">
<polygon fill="white" stroke="red" points="566.5,-1213.5 566.5,-1232.5 687.5,-1232.5 687.5,-1213.5 566.5,-1213.5"/>
<text text-anchor="middle" x="627" y="-1220.5" font-family="Helvetica,sans-Serif" font-size="10.00">CoolPubSubClient::loop</text>
</a>
</g>
</g>
<!-- Node235&#45;&gt;Node236 -->
<g id="edge7" class="edge"><title>Node235&#45;&gt;Node236</title>
<path fill="none" stroke="midnightblue" d="M488.506,-1223C509.561,-1223 533.914,-1223 556.221,-1223"/>
<polygon fill="midnightblue" stroke="midnightblue" points="556.307,-1226.5 566.307,-1223 556.307,-1219.5 556.307,-1226.5"/>
</g>
<!-- Node241 -->
<g id="node10" class="node"><title>Node241</title>
<g id="a_node10"><a xlink:href="$class_cool_file_system.html#aae045125288f255f3e258073dcada2a6" xlink:title="CoolFileSystem::incrementsavedData">
<polygon fill="white" stroke="black" points="342,-795.5 342,-814.5 524,-814.5 524,-795.5 342,-795.5"/>
<text text-anchor="middle" x="433" y="-802.5" font-family="Helvetica,sans-Serif" font-size="10.00">CoolFileSystem::incrementsavedData</text>
</a>
</g>
</g>
<!-- Node240&#45;&gt;Node241 -->
<g id="edge9" class="edge"><title>Node240&#45;&gt;Node241</title>
<path fill="none" stroke="midnightblue" d="M300.042,-808.969C310.236,-808.662 320.932,-808.34 331.638,-808.018"/>
<polygon fill="midnightblue" stroke="midnightblue" points="331.999,-811.509 341.89,-807.71 331.789,-804.512 331.999,-811.509"/>
</g>
<!-- Node245 -->
<g id="node14" class="node"><title>Node245</title>
<g id="a_node14"><a xlink:href="$class_cool_time.html#a5ae038a4498602b189f76a10bf02adf8" xlink:title="CoolTime::isTimeSync">
<polygon fill="white" stroke="red" points="375,-757.5 375,-776.5 491,-776.5 491,-757.5 375,-757.5"/>
<text text-anchor="middle" x="433" y="-764.5" font-family="Helvetica,sans-Serif" font-size="10.00">CoolTime::isTimeSync</text>
</a>
</g>
</g>
<!-- Node244&#45;&gt;Node245 -->
<g id="edge13" class="edge"><title>Node244&#45;&gt;Node245</title>
<path fill="none" stroke="midnightblue" d="M278.771,-737.813C306.486,-743.093 342.022,-749.861 371.893,-755.551"/>
<polygon fill="midnightblue" stroke="midnightblue" points="371.308,-759.003 381.787,-757.436 372.618,-752.126 371.308,-759.003"/>
</g>
<!-- Node247 -->
<g id="node15" class="node"><title>Node247</title>
<g id="a_node15"><a xlink:href="$class_cool_time.html#a41fbbbfd651c2079f54d4b2911e4c705" xlink:title="CoolTime::getNtpTime">
<polygon fill="white" stroke="red" points="375,-719.5 375,-738.5 491,-738.5 491,-719.5 375,-719.5"/>
<text text-anchor="middle" x="433" y="-726.5" font-family="Helvetica,sans-Serif" font-size="10.00">CoolTime::getNtpTime</text>
</a>
</g>
</g>
<!-- Node244&#45;&gt;Node247 -->
<g id="edge14" class="edge"><title>Node244&#45;&gt;Node247</title>
<path fill="none" stroke="midnightblue" d="M278.771,-729C304.297,-729 336.458,-729 364.716,-729"/>
<polygon fill="midnightblue" stroke="midnightblue" points="364.932,-732.5 374.931,-729 364.931,-725.5 364.932,-732.5"/>
</g>
<!-- Node249 -->
<g id="node16" class="node"><title>Node249</title>
<g id="a_node16"><a xlink:href="$class_cool_time.html#ae9658c9b377510d469e3b88edf33ee85" xlink:title="CoolTime::saveTimeSync">
<polygon fill="white" stroke="black" points="368,-681.5 368,-700.5 498,-700.5 498,-681.5 368,-681.5"/>
<text text-anchor="middle" x="433" y="-688.5" font-family="Helvetica,sans-Serif" font-size="10.00">CoolTime::saveTimeSync</text>
</a>
</g>
</g>
<!-- Node244&#45;&gt;Node249 -->
<g id="edge15" class="edge"><title>Node244&#45;&gt;Node249</title>
<path fill="none" stroke="midnightblue" d="M278.771,-720.187C306.486,-714.907 342.022,-708.139 371.893,-702.449"/>
<polygon fill="midnightblue" stroke="midnightblue" points="372.618,-705.874 381.787,-700.564 371.308,-698.997 372.618,-705.874"/>
</g>
<!-- Node251 -->
<g id="node18" class="node"><title>Node251</title>
<g id="a_node18"><a xlink:href="$class_cool_m_q_t_t.html#a373cc92fca7760d886f02d8a6e5b3f63" xlink:title="CoolMQTT::getUser">
<polygon fill="white" stroke="black" points="380.5,-833.5 380.5,-852.5 485.5,-852.5 485.5,-833.5 380.5,-833.5"/>
<text text-anchor="middle" x="433" y="-840.5" font-family="Helvetica,sans-Serif" font-size="10.00">CoolMQTT::getUser</text>
</a>
</g>
</g>
<!-- Node250&#45;&gt;Node251 -->
<g id="edge17" class="edge"><title>Node250&#45;&gt;Node251</title>
<path fill="none" stroke="midnightblue" d="M271.545,-883.439C282.716,-880.56 294.877,-877.287 306,-874 322.174,-869.22 325.723,-866.416 342,-862 351.594,-859.397 361.844,-856.937 371.863,-854.704"/>
<polygon fill="midnightblue" stroke="midnightblue" points="372.745,-858.094 381.773,-852.549 371.258,-851.254 372.745,-858.094"/>
</g>
<!-- Node252 -->
<g id="node19" class="node"><title>Node252</title>
<g id="a_node19"><a xlink:href="$class_cool_time.html#ac4f32ee513c1328d984306645e8785a4" xlink:title="CoolTime::getESDate">
<polygon fill="white" stroke="red" points="376.5,-871.5 376.5,-890.5 489.5,-890.5 489.5,-871.5 376.5,-871.5"/>
<text text-anchor="middle" x="433" y="-878.5" font-family="Helvetica,sans-Serif" font-size="10.00">CoolTime::getESDate</text>
</a>
</g>
</g>
<!-- Node250&#45;&gt;Node252 -->
<g id="edge18" class="edge"><title>Node250&#45;&gt;Node252</title>
<path fill="none" stroke="midnightblue" d="M285.7,-889.8C310.36,-888.317 339.913,-886.539 365.982,-884.971"/>
<polygon fill="midnightblue" stroke="midnightblue" points="366.388,-888.453 376.16,-884.359 365.968,-881.466 366.388,-888.453"/>
</g>
<!-- Node253 -->
<g id="node20" class="node"><title>Node253</title>
<g id="a_node20"><a xlink:href="$class_cool_time.html#a7a7501c5ca77dd1248bea704c44f986c" xlink:title="CoolTime::getTimeDate">
<polygon fill="white" stroke="red" points="566.5,-890.5 566.5,-909.5 687.5,-909.5 687.5,-890.5 566.5,-890.5"/>
<text text-anchor="middle" x="627" y="-897.5" font-family="Helvetica,sans-Serif" font-size="10.00">CoolTime::getTimeDate</text>
</a>
</g>
</g>
<!-- Node252&#45;&gt;Node253 -->
<g id="edge19" class="edge"><title>Node252&#45;&gt;Node253</title>
<path fill="none" stroke="midnightblue" d="M489.534,-886.496C510.282,-888.549 534.116,-890.907 556,-893.073"/>
<polygon fill="midnightblue" stroke="midnightblue" points="555.935,-896.583 566.231,-894.085 556.624,-889.617 555.935,-896.583"/>
</g>
<!-- Node255&#45;&gt;Node230 -->
<g id="edge21" class="edge"><title>Node255&#45;&gt;Node230</title>
<path fill="none" stroke="midnightblue" d="M246.987,-1004.54C263.001,-1015.65 288.798,-1035.27 306,-1057 327.961,-1084.74 313.937,-1106.45 342,-1128 349.521,-1133.77 358.394,-1137.89 367.588,-1140.81"/>
<polygon fill="midnightblue" stroke="midnightblue" points="366.674,-1144.19 377.243,-1143.44 368.513,-1137.44 366.674,-1144.19"/>
</g>
<!-- Node255&#45;&gt;Node232 -->
<g id="edge22" class="edge"><title>Node255&#45;&gt;Node232</title>
<path fill="none" stroke="midnightblue" d="M240.36,-1004.56C254.452,-1021.94 284.548,-1060.13 306,-1095 324.539,-1125.13 313.937,-1144.45 342,-1166 349.521,-1171.77 358.394,-1175.89 367.588,-1178.81"/>
<polygon fill="midnightblue" stroke="midnightblue" points="366.674,-1182.19 377.243,-1181.44 368.513,-1175.44 366.674,-1182.19"/>
</g>
<!-- Node255&#45;&gt;Node242 -->
<g id="edge28" class="edge"><title>Node255&#45;&gt;Node242</title>
<path fill="none" stroke="midnightblue" d="M280.455,-1004.63C289.637,-1008.06 298.662,-1012.71 306,-1019 332.864,-1042.02 313.937,-1068.45 342,-1090 348.484,-1094.98 355.973,-1098.73 363.806,-1101.53"/>
<polygon fill="midnightblue" stroke="midnightblue" points="362.9,-1104.92 373.487,-1104.52 364.96,-1098.23 362.9,-1104.92"/>
</g>
<!-- Node255&#45;&gt;Node253 -->
<g id="edge27" class="edge"><title>Node255&#45;&gt;Node253</title>
<path fill="none" stroke="midnightblue" d="M247.015,-985.336C267.333,-972.312 305.833,-949.445 342,-938 412.802,-915.595 497.606,-906.398 556.004,-902.624"/>
<polygon fill="midnightblue" stroke="midnightblue" points="556.46,-906.103 566.229,-902.002 556.034,-899.116 556.46,-906.103"/>
</g>
<!-- Node256 -->
<g id="node22" class="node"><title>Node256</title>
<g id="a_node22"><a xlink:href="$class_cool_board.html#a397b46fadab8f530a8cf4d914c561366" xlink:title="CoolBoard::initReadI2C">
<polygon fill="white" stroke="black" points="373,-1023.5 373,-1042.5 493,-1042.5 493,-1023.5 373,-1023.5"/>
<text text-anchor="middle" x="433" y="-1030.5" font-family="Helvetica,sans-Serif" font-size="10.00">CoolBoard::initReadI2C</text>
</a>
</g>
</g>
<!-- Node255&#45;&gt;Node256 -->
<g id="edge23" class="edge"><title>Node255&#45;&gt;Node256</title>
<path fill="none" stroke="midnightblue" d="M282.585,-1004.54C309.739,-1009.71 343.486,-1016.14 372.033,-1021.58"/>
<polygon fill="midnightblue" stroke="midnightblue" points="371.416,-1025.02 381.895,-1023.46 372.726,-1018.15 371.416,-1025.02"/>
</g>
<!-- Node257 -->
<g id="node23" class="node"><title>Node257</title>
<g id="a_node23"><a xlink:href="$class_cool_board_sensors.html#a91badb2539d91fda8679f2a597874c48" xlink:title="CoolBoardSensors::read">
<polygon fill="white" stroke="red" points="371.5,-985.5 371.5,-1004.5 494.5,-1004.5 494.5,-985.5 371.5,-985.5"/>
<text text-anchor="middle" x="433" y="-992.5" font-family="Helvetica,sans-Serif" font-size="10.00">CoolBoardSensors::read</text>
</a>
</g>
</g>
<!-- Node255&#45;&gt;Node257 -->
<g id="edge24" class="edge"><title>Node255&#45;&gt;Node257</title>
<path fill="none" stroke="midnightblue" d="M293.169,-995C314.642,-995 338.985,-995 361.224,-995"/>
<polygon fill="midnightblue" stroke="midnightblue" points="361.276,-998.5 371.276,-995 361.276,-991.5 361.276,-998.5"/>
</g>
<!-- Node273 -->
<g id="node24" class="node"><title>Node273</title>
<g id="a_node24"><a xlink:href="$class_external_sensors.html#a53177b81eca3be89508b5511ddcd00fc" xlink:title="ExternalSensors::read">
<polygon fill="white" stroke="red" points="376.5,-947.5 376.5,-966.5 489.5,-966.5 489.5,-947.5 376.5,-947.5"/>
<text text-anchor="middle" x="433" y="-954.5" font-family="Helvetica,sans-Serif" font-size="10.00">ExternalSensors::read</text>
</a>
</g>
</g>
<!-- Node255&#45;&gt;Node273 -->
<g id="edge25" class="edge"><title>Node255&#45;&gt;Node273</title>
<path fill="none" stroke="midnightblue" d="M282.585,-985.46C309.739,-980.288 343.486,-973.86 372.033,-968.422"/>
<polygon fill="midnightblue" stroke="midnightblue" points="372.726,-971.853 381.895,-966.544 371.416,-964.977 372.726,-971.853"/>
</g>
<!-- Node275 -->
<g id="node25" class="node"><title>Node275</title>
<g id="a_node25"><a xlink:href="$class_irene3000.html#a852a170feea994ea1df01c6b245b5d9a" xlink:title="Irene3000::read">
<polygon fill="white" stroke="red" points="391,-1061.5 391,-1080.5 475,-1080.5 475,-1061.5 391,-1061.5"/>
<text text-anchor="middle" x="433" y="-1068.5" font-family="Helvetica,sans-Serif" font-size="10.00">Irene3000::read</text>
</a>
</g>
</g>
<!-- Node255&#45;&gt;Node275 -->
<g id="edge26" class="edge"><title>Node255&#45;&gt;Node275</title>
<path fill="none" stroke="midnightblue" d="M272.357,-1004.62C283.658,-1008.24 295.685,-1012.97 306,-1019 324.741,-1029.95 322.698,-1042.07 342,-1052 353.883,-1058.11 367.612,-1062.26 380.712,-1065.07"/>
<polygon fill="midnightblue" stroke="midnightblue" points="380.083,-1068.51 390.565,-1066.97 381.41,-1061.64 380.083,-1068.51"/>
</g>
<!-- Node288 -->
<g id="node28" class="node"><title>Node288</title>
<g id="a_node28"><a xlink:href="$class_jetpack.html#a65ce9533c39fa71e4945b970bf14b980" xlink:title="Jetpack::normalAction">
<polygon fill="white" stroke="black" points="376,-567.5 376,-586.5 490,-586.5 490,-567.5 376,-567.5"/>
<text text-anchor="middle" x="433" y="-574.5" font-family="Helvetica,sans-Serif" font-size="10.00">Jetpack::normalAction</text>
</a>
</g>
</g>
<!-- Node287&#45;&gt;Node288 -->
<g id="edge31" class="edge"><title>Node287&#45;&gt;Node288</title>
<path fill="none" stroke="midnightblue" d="M238.813,-453.818C253.774,-476.218 293.773,-531.227 342,-558 349.426,-562.123 357.651,-565.352 366.023,-567.882"/>
<polygon fill="midnightblue" stroke="midnightblue" points="365.313,-571.316 375.879,-570.542 367.137,-564.557 365.313,-571.316"/>
</g>
<!-- Node289 -->
<g id="node29" class="node"><title>Node289</title>
<g id="a_node29"><a xlink:href="$class_jetpack.html#adacfc35fab4a621357caf98ce1c9cb54" xlink:title="Jetpack::invertedAction">
<polygon fill="white" stroke="black" points="373.5,-529.5 373.5,-548.5 492.5,-548.5 492.5,-529.5 373.5,-529.5"/>
<text text-anchor="middle" x="433" y="-536.5" font-family="Helvetica,sans-Serif" font-size="10.00">Jetpack::invertedAction</text>
</a>
</g>
</g>
<!-- Node287&#45;&gt;Node289 -->
<g id="edge32" class="edge"><title>Node287&#45;&gt;Node289</title>
<path fill="none" stroke="midnightblue" d="M243.119,-453.59C261.726,-469.855 302.056,-502.763 342,-520 348.831,-522.948 356.156,-525.452 363.569,-527.576"/>
<polygon fill="midnightblue" stroke="midnightblue" points="362.769,-530.985 373.331,-530.155 364.557,-524.217 362.769,-530.985"/>
</g>
<!-- Node290 -->
<g id="node30" class="node"><title>Node290</title>
<g id="a_node30"><a xlink:href="$class_jetpack.html#ac1a49ab4867718cdb415ad74c2066b9d" xlink:title="Jetpack::mixedHourAction">
<polygon fill="white" stroke="black" points="367,-491.5 367,-510.5 499,-510.5 499,-491.5 367,-491.5"/>
<text text-anchor="middle" x="433" y="-498.5" font-family="Helvetica,sans-Serif" font-size="10.00">Jetpack::mixedHourAction</text>
</a>
</g>
</g>
<!-- Node287&#45;&gt;Node290 -->
<g id="edge33" class="edge"><title>Node287&#45;&gt;Node290</title>
<path fill="none" stroke="midnightblue" d="M257.008,-453.501C279.017,-461.794 312.336,-473.757 342,-482 351.463,-484.629 361.573,-487.092 371.474,-489.316"/>
<polygon fill="midnightblue" stroke="midnightblue" points="370.756,-492.742 381.272,-491.458 372.251,-485.903 370.756,-492.742"/>
</g>
<!-- Node291 -->
<g id="node31" class="node"><title>Node291</title>
<g id="a_node31"><a xlink:href="$class_jetpack.html#acd6889af2fe5b057c6bd51b6dac827ef" xlink:title="Jetpack::hourAction">
<polygon fill="white" stroke="black" points="381,-453.5 381,-472.5 485,-472.5 485,-453.5 381,-453.5"/>
<text text-anchor="middle" x="433" y="-460.5" font-family="Helvetica,sans-Serif" font-size="10.00">Jetpack::hourAction</text>
</a>
</g>
</g>
<!-- Node287&#45;&gt;Node291 -->
<g id="edge34" class="edge"><title>Node287&#45;&gt;Node291</title>
<path fill="none" stroke="midnightblue" d="M279.022,-448.431C306.316,-451.03 341.128,-454.346 370.647,-457.157"/>
<polygon fill="midnightblue" stroke="midnightblue" points="370.559,-460.664 380.846,-458.128 371.223,-453.696 370.559,-460.664"/>
</g>
<!-- Node292 -->
<g id="node32" class="node"><title>Node292</title>
<g id="a_node32"><a xlink:href="$class_jetpack.html#acf8ed1fb594b9e8e224f4ed872a8e093" xlink:title="Jetpack::mixedMinuteAction">
<polygon fill="white" stroke="black" points="363,-415.5 363,-434.5 503,-434.5 503,-415.5 363,-415.5"/>
<text text-anchor="middle" x="433" y="-422.5" font-family="Helvetica,sans-Serif" font-size="10.00">Jetpack::mixedMinuteAction</text>
</a>
</g>
</g>
<!-- Node287&#45;&gt;Node292 -->
<g id="edge35" class="edge"><title>Node287&#45;&gt;Node292</title>
<path fill="none" stroke="midnightblue" d="M279.022,-439.569C300.88,-437.488 327.561,-434.947 352.483,-432.573"/>
<polygon fill="midnightblue" stroke="midnightblue" points="353.043,-436.036 362.666,-431.603 352.38,-429.067 353.043,-436.036"/>
</g>
<!-- Node293 -->
<g id="node33" class="node"><title>Node293</title>
<g id="a_node33"><a xlink:href="$class_jetpack.html#a97da41141c7b53ddee61143519c8d17d" xlink:title="Jetpack::minuteAction">
<polygon fill="white" stroke="black" points="376,-377.5 376,-396.5 490,-396.5 490,-377.5 376,-377.5"/>
<text text-anchor="middle" x="433" y="-384.5" font-family="Helvetica,sans-Serif" font-size="10.00">Jetpack::minuteAction</text>
</a>
</g>
</g>
<!-- Node287&#45;&gt;Node293 -->
<g id="edge36" class="edge"><title>Node287&#45;&gt;Node293</title>
<path fill="none" stroke="midnightblue" d="M257.008,-434.499C279.017,-426.206 312.336,-414.243 342,-406 351.463,-403.371 361.573,-400.908 371.474,-398.684"/>
<polygon fill="midnightblue" stroke="midnightblue" points="372.251,-402.097 381.272,-396.542 370.756,-395.258 372.251,-402.097"/>
</g>
<!-- Node294 -->
<g id="node34" class="node"><title>Node294</title>
<g id="a_node34"><a xlink:href="$class_jetpack.html#a273dae1517b56f0242e28b8944edc26b" xlink:title="Jetpack::mixedHourMinute\lAction">
<polygon fill="white" stroke="black" points="366,-328 366,-358 500,-358 500,-328 366,-328"/>
<text text-anchor="start" x="374" y="-346" font-family="Helvetica,sans-Serif" font-size="10.00">Jetpack::mixedHourMinute</text>
<text text-anchor="middle" x="433" y="-335" font-family="Helvetica,sans-Serif" font-size="10.00">Action</text>
</a>
</g>
</g>
<!-- Node287&#45;&gt;Node294 -->
<g id="edge37" class="edge"><title>Node287&#45;&gt;Node294</title>
<path fill="none" stroke="midnightblue" d="M243.539,-434.42C262.456,-418.464 302.827,-386.386 342,-368 347.046,-365.631 352.36,-363.448 357.779,-361.443"/>
<polygon fill="midnightblue" stroke="midnightblue" points="359.314,-364.615 367.61,-358.025 357.015,-358.003 359.314,-364.615"/>
</g>
<!-- Node295 -->
<g id="node35" class="node"><title>Node295</title>
<g id="a_node35"><a xlink:href="$class_jetpack.html#ae01c13c785ebdf1b0bb5500234aba1bd" xlink:title="Jetpack::hourMinuteAction">
<polygon fill="white" stroke="black" points="366.5,-289.5 366.5,-308.5 499.5,-308.5 499.5,-289.5 366.5,-289.5"/>
<text text-anchor="middle" x="433" y="-296.5" font-family="Helvetica,sans-Serif" font-size="10.00">Jetpack::hourMinuteAction</text>
</a>
</g>
</g>
<!-- Node287&#45;&gt;Node295 -->
<g id="edge38" class="edge"><title>Node287&#45;&gt;Node295</title>
<path fill="none" stroke="midnightblue" d="M237.911,-434.226C251.764,-410.188 291.04,-347.975 342,-318 346.529,-315.336 351.382,-313.042 356.398,-311.069"/>
<polygon fill="midnightblue" stroke="midnightblue" points="357.914,-314.247 366.208,-307.654 355.613,-307.636 357.914,-314.247"/>
</g>
<!-- Node296 -->
<g id="node36" class="node"><title>Node296</title>
<g id="a_node36"><a xlink:href="$class_jetpack.html#af44bc8a08818e4433dfb1c7104601f12" xlink:title="Jetpack::mixedTemporalActionOn">
<polygon fill="white" stroke="black" points="351,-251.5 351,-270.5 515,-270.5 515,-251.5 351,-251.5"/>
<text text-anchor="middle" x="433" y="-258.5" font-family="Helvetica,sans-Serif" font-size="10.00">Jetpack::mixedTemporalActionOn</text>
</a>
</g>
</g>
<!-- Node287&#45;&gt;Node296 -->
<g id="edge39" class="edge"><title>Node287&#45;&gt;Node296</title>
<path fill="none" stroke="midnightblue" d="M235.916,-434.333C246.582,-405.647 282.18,-320.494 342,-280 344.932,-278.015 348.031,-276.232 351.247,-274.629"/>
<polygon fill="midnightblue" stroke="midnightblue" points="352.797,-277.772 360.574,-270.577 350.008,-271.352 352.797,-277.772"/>
</g>
<!-- Node297 -->
<g id="node37" class="node"><title>Node297</title>
<g id="a_node37"><a xlink:href="$class_jetpack.html#ad011d904f639accb5f94ef806846ef59" xlink:title="Jetpack::temporalActionOn">
<polygon fill="white" stroke="black" points="365.5,-213.5 365.5,-232.5 500.5,-232.5 500.5,-213.5 365.5,-213.5"/>
<text text-anchor="middle" x="433" y="-220.5" font-family="Helvetica,sans-Serif" font-size="10.00">Jetpack::temporalActionOn</text>
</a>
</g>
</g>
<!-- Node287&#45;&gt;Node297 -->
<g id="edge40" class="edge"><title>Node287&#45;&gt;Node297</title>
<path fill="none" stroke="midnightblue" d="M236.403,-434.449C251.493,-397.971 306.912,-268.182 342,-242 346.212,-238.857 350.828,-236.209 355.674,-233.979"/>
<polygon fill="midnightblue" stroke="midnightblue" points="357.228,-237.128 365.234,-230.188 354.648,-230.621 357.228,-237.128"/>
</g>
<!-- Node298 -->
<g id="node38" class="node"><title>Node298</title>
<g id="a_node38"><a xlink:href="$class_jetpack.html#af2f567ef6311a8fc2f7bb948837667b7" xlink:title="Jetpack::mixedTemporalActionOff">
<polygon fill="white" stroke="black" points="350.5,-175.5 350.5,-194.5 515.5,-194.5 515.5,-175.5 350.5,-175.5"/>
<text text-anchor="middle" x="433" y="-182.5" font-family="Helvetica,sans-Serif" font-size="10.00">Jetpack::mixedTemporalActionOff</text>
</a>
</g>
</g>
<!-- Node287&#45;&gt;Node298 -->
<g id="edge41" class="edge"><title>Node287&#45;&gt;Node298</title>
<path fill="none" stroke="midnightblue" d="M237.047,-434.415C248.689,-409.835 280.453,-342.513 306,-286 322.395,-249.731 311.116,-229.107 342,-204 344.06,-202.325 346.232,-200.788 348.493,-199.377"/>
<polygon fill="midnightblue" stroke="midnightblue" points="350.412,-202.321 357.604,-194.541 347.13,-196.138 350.412,-202.321"/>
</g>
<!-- Node299 -->
<g id="node39" class="node"><title>Node299</title>
<g id="a_node39"><a xlink:href="$class_jetpack.html#a2991b302cd99bf89325f9b66b104d575" xlink:title="Jetpack::temporalActionOff">
<polygon fill="white" stroke="black" points="365,-643.5 365,-662.5 501,-662.5 501,-643.5 365,-643.5"/>
<text text-anchor="middle" x="433" y="-650.5" font-family="Helvetica,sans-Serif" font-size="10.00">Jetpack::temporalActionOff</text>
</a>
</g>
</g>
<!-- Node287&#45;&gt;Node299 -->
<g id="edge42" class="edge"><title>Node287&#45;&gt;Node299</title>
<path fill="none" stroke="midnightblue" d="M235.051,-453.799C243.85,-485.523 276.071,-586.131 342,-634 346.174,-637.03 350.726,-639.598 355.497,-641.773"/>
<polygon fill="midnightblue" stroke="midnightblue" points="354.309,-645.067 364.895,-645.487 356.881,-638.556 354.309,-645.067"/>
</g>
<!-- Node300 -->
<g id="node40" class="node"><title>Node300</title>
<g id="a_node40"><a xlink:href="$class_jetpack.html#a338f1af8cbc6504ac69b47c7328569b5" xlink:title="Jetpack::write">
<polygon fill="white" stroke="black" points="394,-605.5 394,-624.5 472,-624.5 472,-605.5 394,-605.5"/>
<text text-anchor="middle" x="433" y="-612.5" font-family="Helvetica,sans-Serif" font-size="10.00">Jetpack::write</text>
</a>
</g>
</g>
<!-- Node287&#45;&gt;Node300 -->
<g id="edge43" class="edge"><title>Node287&#45;&gt;Node300</title>
<path fill="none" stroke="midnightblue" d="M236.458,-453.738C248.102,-481.068 285.041,-558.903 342,-596 354.275,-603.995 369.31,-608.7 383.55,-611.446"/>
<polygon fill="midnightblue" stroke="midnightblue" points="383.292,-614.95 393.727,-613.118 384.427,-608.043 383.292,-614.95"/>
</g>
<!-- Node302 -->
<g id="node42" class="node"><title>Node302</title>
<g id="a_node42"><a xlink:href="$class_cool_board_actor.html#a81229abf5895f4d3b0355050b822b438" xlink:title="CoolBoardActor::normalAction">
<polygon fill="white" stroke="red" points="358.5,-137.5 358.5,-156.5 507.5,-156.5 507.5,-137.5 358.5,-137.5"/>
<text text-anchor="middle" x="433" y="-144.5" font-family="Helvetica,sans-Serif" font-size="10.00">CoolBoardActor::normalAction</text>
</a>
</g>
</g>
<!-- Node301&#45;&gt;Node302 -->
<g id="edge45" class="edge"><title>Node301&#45;&gt;Node302</title>
<path fill="none" stroke="midnightblue" d="M290.78,-257.388C296.283,-254.923 301.483,-251.844 306,-248 336.313,-222.206 311.116,-191.107 342,-166 344.323,-164.111 346.789,-162.397 349.364,-160.842"/>
<polygon fill="midnightblue" stroke="midnightblue" points="351.2,-163.834 358.491,-156.148 347.998,-157.61 351.2,-163.834"/>
</g>
<!-- Node304 -->
<g id="node43" class="node"><title>Node304</title>
<g id="a_node43"><a xlink:href="$class_cool_board_actor.html#aae82b2e62f91be009d40f93c206f9bda" xlink:title="CoolBoardActor::inverted\lAction">
<polygon fill="white" stroke="red" points="370,-88 370,-118 496,-118 496,-88 370,-88"/>
<text text-anchor="start" x="378" y="-106" font-family="Helvetica,sans-Serif" font-size="10.00">CoolBoardActor::inverted</text>
<text text-anchor="middle" x="433" y="-95" font-family="Helvetica,sans-Serif" font-size="10.00">Action</text>
</a>
</g>
</g>
<!-- Node301&#45;&gt;Node304 -->
<g id="edge46" class="edge"><title>Node301&#45;&gt;Node304</title>
<path fill="none" stroke="midnightblue" d="M292.352,-257.413C297.353,-254.928 302.011,-251.838 306,-248 346.123,-209.392 302.225,-166.967 342,-128 347.336,-122.773 353.665,-118.617 360.458,-115.316"/>
<polygon fill="midnightblue" stroke="midnightblue" points="362.094,-118.426 369.958,-111.326 359.383,-111.972 362.094,-118.426"/>
</g>
<!-- Node305 -->
<g id="node44" class="node"><title>Node305</title>
<g id="a_node44"><a xlink:href="$class_cool_board_actor.html#a6d93a24502c56ced2ef7675c913a276b" xlink:title="CoolBoardActor::mixedHour\lAction">
<polygon fill="white" stroke="red" points="363.5,-39 363.5,-69 502.5,-69 502.5,-39 363.5,-39"/>
<text text-anchor="start" x="371.5" y="-57" font-family="Helvetica,sans-Serif" font-size="10.00">CoolBoardActor::mixedHour</text>
<text text-anchor="middle" x="433" y="-46" font-family="Helvetica,sans-Serif" font-size="10.00">Action</text>
</a>
</g>
</g>
<!-- Node301&#45;&gt;Node305 -->
<g id="edge47" class="edge"><title>Node301&#45;&gt;Node305</title>
<path fill="none" stroke="midnightblue" d="M293.394,-257.383C298.056,-254.892 302.356,-251.809 306,-248 359.388,-192.194 288.825,-134.01 342,-78 345.596,-74.2124 349.717,-70.9984 354.173,-68.2737"/>
<polygon fill="midnightblue" stroke="midnightblue" points="355.859,-71.3422 363.107,-63.6147 352.622,-65.1355 355.859,-71.3422"/>
</g>
<!-- Node306 -->
<g id="node45" class="node"><title>Node306</title>
<g id="a_node45"><a xlink:href="$class_cool_board_actor.html#adf3b4e15b9d73681082112adf8ef95cb" xlink:title="CoolBoardActor::hourAction">
<polygon fill="white" stroke="red" points="364,-0.5 364,-19.5 502,-19.5 502,-0.5 364,-0.5"/>
<text text-anchor="middle" x="433" y="-7.5" font-family="Helvetica,sans-Serif" font-size="10.00">CoolBoardActor::hourAction</text>
</a>
</g>
</g>
<!-- Node301&#45;&gt;Node306 -->
<g id="edge48" class="edge"><title>Node301&#45;&gt;Node306</title>
<path fill="none" stroke="midnightblue" d="M293.928,-257.368C298.416,-254.874 302.533,-251.795 306,-248 372.539,-175.183 273.843,-100.305 342,-29 345.698,-25.131 349.971,-21.9493 354.604,-19.3414"/>
<polygon fill="midnightblue" stroke="midnightblue" points="356.319,-22.4034 363.902,-15.0036 353.359,-16.0598 356.319,-22.4034"/>
</g>
<!-- Node316&#45;&gt;Node230 -->
<g id="edge51" class="edge"><title>Node316&#45;&gt;Node230</title>
<path fill="none" stroke="midnightblue" d="M280.539,-1147C306.519,-1147 338.967,-1147 367.158,-1147"/>
<polygon fill="midnightblue" stroke="midnightblue" points="367.332,-1150.5 377.332,-1147 367.332,-1143.5 367.332,-1150.5"/>
</g>
<!-- Node316&#45;&gt;Node232 -->
<g id="edge54" class="edge"><title>Node316&#45;&gt;Node232</title>
<path fill="none" stroke="midnightblue" d="M280.539,-1156.15C307.973,-1161.38 342.621,-1167.98 371.852,-1173.54"/>
<polygon fill="midnightblue" stroke="midnightblue" points="371.466,-1177.03 381.944,-1175.47 372.776,-1170.16 371.466,-1177.03"/>
</g>
<!-- Node316&#45;&gt;Node233 -->
<g id="edge52" class="edge"><title>Node316&#45;&gt;Node233</title>
<path fill="none" stroke="midnightblue" d="M245.999,-1156.51C261.127,-1167.38 286.133,-1186 306,-1204 323.242,-1219.62 321.699,-1230.64 342,-1242 351.293,-1247.2 361.852,-1250.98 372.386,-1253.73"/>
<polygon fill="midnightblue" stroke="midnightblue" points="371.905,-1257.21 382.437,-1256.06 373.486,-1250.39 371.905,-1257.21"/>
</g>
<!-- Node316&#45;&gt;Node235 -->
<g id="edge53" class="edge"><title>Node316&#45;&gt;Node235</title>
<path fill="none" stroke="midnightblue" d="M272.357,-1156.62C283.658,-1160.24 295.685,-1164.97 306,-1171 324.741,-1181.95 322.698,-1194.07 342,-1204 349.842,-1208.03 358.488,-1211.21 367.227,-1213.71"/>
<polygon fill="midnightblue" stroke="midnightblue" points="366.537,-1217.15 377.095,-1216.26 368.288,-1210.37 366.537,-1217.15"/>
</g>
<!-- Node316&#45;&gt;Node242 -->
<g id="edge55" class="edge"><title>Node316&#45;&gt;Node242</title>
<path fill="none" stroke="midnightblue" d="M280.539,-1137.85C307.973,-1132.62 342.621,-1126.02 371.852,-1120.46"/>
<polygon fill="midnightblue" stroke="midnightblue" points="372.776,-1123.84 381.944,-1118.53 371.466,-1116.97 372.776,-1123.84"/>
</g>
<!-- Node325&#45;&gt;Node233 -->
<g id="edge58" class="edge"><title>Node325&#45;&gt;Node233</title>
<path fill="none" stroke="midnightblue" d="M282.585,-1232.54C309.842,-1237.73 343.742,-1244.19 372.359,-1249.64"/>
<polygon fill="midnightblue" stroke="midnightblue" points="371.762,-1253.09 382.241,-1251.52 373.072,-1246.21 371.762,-1253.09"/>
</g>
<!-- Node325&#45;&gt;Node235 -->
<g id="edge59" class="edge"><title>Node325&#45;&gt;Node235</title>
<path fill="none" stroke="midnightblue" d="M290.74,-1223C314.691,-1223 342.528,-1223 367.127,-1223"/>
<polygon fill="midnightblue" stroke="midnightblue" points="367.451,-1226.5 377.451,-1223 367.451,-1219.5 367.451,-1226.5"/>
</g>
</g>
</svg>
