<?xml version="1.0" encoding="UTF-8" standalone="no"?>
<!DOCTYPE svg PUBLIC "-//W3C//DTD SVG 1.1//EN"
 "http://www.w3.org/Graphics/SVG/1.1/DTD/svg11.dtd">
<!-- Generated by graphviz version 2.38.0 (20140413.2041)
 -->
<!-- Title: CoolBoard::initReadI2C Pages: 1 -->
<svg width="445pt" height="85pt"
 viewBox="0.00 0.00 445.00 85.00" xmlns="http://www.w3.org/2000/svg" xmlns:xlink="http://www.w3.org/1999/xlink">
<g id="graph0" class="graph" transform="scale(1 1) rotate(0) translate(4 81)">
<title>CoolBoard::initReadI2C</title>
<polygon fill="white" stroke="none" points="-4,4 -4,-81 441,-81 441,4 -4,4"/>
<!-- Node127 -->
<g id="node1" class="node"><title>Node127</title>
<polygon fill="#bfbfbf" stroke="black" points="0,-38.5 0,-57.5 120,-57.5 120,-38.5 0,-38.5"/>
<text text-anchor="middle" x="60" y="-45.5" font-family="Helvetica,sans-Serif" font-size="10.00">CoolBoard::initReadI2C</text>
</g>
<!-- Node128 -->
<g id="node2" class="node"><title>Node128</title>
<g id="a_node2"><a xlink:href="$class_cool_board.html#acba7c5aef7268b2c0044bdb54d3b9d76" xlink:title="CoolBoard::begin">
<polygon fill="white" stroke="black" points="171.5,-57.5 171.5,-76.5 263.5,-76.5 263.5,-57.5 171.5,-57.5"/>
<text text-anchor="middle" x="217.5" y="-64.5" font-family="Helvetica,sans-Serif" font-size="10.00">CoolBoard::begin</text>
</a>
</g>
</g>
<!-- Node127&#45;&gt;Node128 -->
<g id="edge1" class="edge"><title>Node127&#45;&gt;Node128</title>
<path fill="none" stroke="midnightblue" d="M130.306,-56.4683C144.267,-58.1741 158.596,-59.9249 171.463,-61.497"/>
<polygon fill="midnightblue" stroke="midnightblue" points="130.582,-52.9761 120.231,-55.2373 129.733,-59.9244 130.582,-52.9761"/>
</g>
<!-- Node129 -->
<g id="node3" class="node"><title>Node129</title>
<g id="a_node3"><a xlink:href="$class_cool_board.html#ad03abdce2e65f520bbf2cff0f2d083cf" xlink:title="CoolBoard::readSensors">
<polygon fill="white" stroke="black" points="156,-19.5 156,-38.5 279,-38.5 279,-19.5 156,-19.5"/>
<text text-anchor="middle" x="217.5" y="-26.5" font-family="Helvetica,sans-Serif" font-size="10.00">CoolBoard::readSensors</text>
</a>
</g>
</g>
<!-- Node127&#45;&gt;Node129 -->
<g id="edge2" class="edge"><title>Node127&#45;&gt;Node129</title>
<path fill="none" stroke="midnightblue" d="M130.195,-39.5453C138.759,-38.4988 147.464,-37.4353 155.886,-36.4063"/>
<polygon fill="midnightblue" stroke="midnightblue" points="129.733,-36.0756 120.231,-40.7627 130.582,-43.0239 129.733,-36.0756"/>
</g>
<!-- Node130 -->
<g id="node4" class="node"><title>Node130</title>
<g id="a_node4"><a xlink:href="$class_cool_board.html#aa0bbc4bc605e35618d18e68795c61363" xlink:title="CoolBoard::onLineMode">
<polygon fill="white" stroke="black" points="315.5,-38.5 315.5,-57.5 436.5,-57.5 436.5,-38.5 315.5,-38.5"/>
<text text-anchor="middle" x="376" y="-45.5" font-family="Helvetica,sans-Serif" font-size="10.00">CoolBoard::onLineMode</text>
</a>
</g>
</g>
<!-- Node129&#45;&gt;Node130 -->
<g id="edge3" class="edge"><title>Node129&#45;&gt;Node130</title>
<path fill="none" stroke="midnightblue" d="M289.207,-37.5842C297.968,-38.6478 306.856,-39.7269 315.427,-40.7675"/>
<polygon fill="midnightblue" stroke="midnightblue" points="289.356,-34.0767 279.007,-36.3459 288.512,-41.0257 289.356,-34.0767"/>
</g>
<!-- Node131 -->
<g id="node5" class="node"><title>Node131</title>
<g id="a_node5"><a xlink:href="$class_cool_board.html#ae6b5e1274d760462290192acea4adca8" xlink:title="CoolBoard::offLineMode">
<polygon fill="white" stroke="black" points="315,-0.5 315,-19.5 437,-19.5 437,-0.5 315,-0.5"/>
<text text-anchor="middle" x="376" y="-7.5" font-family="Helvetica,sans-Serif" font-size="10.00">CoolBoard::offLineMode</text>
</a>
</g>
</g>
<!-- Node129&#45;&gt;Node131 -->
<g id="edge4" class="edge"><title>Node129&#45;&gt;Node131</title>
<path fill="none" stroke="midnightblue" d="M289.059,-20.4338C297.692,-19.3856 306.452,-18.3221 314.912,-17.2951"/>
<polygon fill="midnightblue" stroke="midnightblue" points="288.512,-16.9743 279.007,-21.6541 289.356,-23.9233 288.512,-16.9743"/>
</g>
</g>
</svg>
