<?xml version="1.0" encoding="UTF-8" standalone="no"?>
<!DOCTYPE svg PUBLIC "-//W3C//DTD SVG 1.1//EN"
 "http://www.w3.org/Graphics/SVG/1.1/DTD/svg11.dtd">
<!-- Generated by graphviz version 2.38.0 (20140413.2041)
 -->
<!-- Title: CoolPubSubClient::publish_P Pages: 1 -->
<svg width="339pt" height="66pt"
 viewBox="0.00 0.00 339.00 66.00" xmlns="http://www.w3.org/2000/svg" xmlns:xlink="http://www.w3.org/1999/xlink">
<g id="graph0" class="graph" transform="scale(1 1) rotate(0) translate(4 62)">
<title>CoolPubSubClient::publish_P</title>
<polygon fill="white" stroke="none" points="-4,4 -4,-62 335,-62 335,4 -4,4"/>
<!-- Node136 -->
<g id="node1" class="node"><title>Node136</title>
<polygon fill="#bfbfbf" stroke="black" points="0,-19.5 0,-38.5 146,-38.5 146,-19.5 0,-19.5"/>
<text text-anchor="middle" x="73" y="-26.5" font-family="Helvetica,sans-Serif" font-size="10.00">CoolPubSubClient::publish_P</text>
</g>
<!-- Node137 -->
<g id="node2" class="node"><title>Node137</title>
<g id="a_node2"><a xlink:href="$class_cool_pub_sub_client.html#a3d5a5da4ddb1e5c1bea64d80c665d148" xlink:title="CoolPubSubClient::connected">
<polygon fill="white" stroke="black" points="182.5,-38.5 182.5,-57.5 330.5,-57.5 330.5,-38.5 182.5,-38.5"/>
<text text-anchor="middle" x="256.5" y="-45.5" font-family="Helvetica,sans-Serif" font-size="10.00">CoolPubSubClient::connected</text>
</a>
</g>
</g>
<!-- Node136&#45;&gt;Node137 -->
<g id="edge1" class="edge"><title>Node136&#45;&gt;Node137</title>
<path fill="none" stroke="midnightblue" d="M146.255,-36.5639C154.781,-37.4565 163.535,-38.3728 172.198,-39.2797"/>
<polygon fill="midnightblue" stroke="midnightblue" points="171.996,-42.7776 182.306,-40.3379 172.725,-35.8156 171.996,-42.7776"/>
</g>
<!-- Node138 -->
<g id="node3" class="node"><title>Node138</title>
<g id="a_node3"><a xlink:href="$class_cool_pub_sub_client.html#a0e3d7e776d4cf4427f9569b28868905a" xlink:title="CoolPubSubClient::writeString">
<polygon fill="white" stroke="black" points="182,-0.5 182,-19.5 331,-19.5 331,-0.5 182,-0.5"/>
<text text-anchor="middle" x="256.5" y="-7.5" font-family="Helvetica,sans-Serif" font-size="10.00">CoolPubSubClient::writeString</text>
</a>
</g>
</g>
<!-- Node136&#45;&gt;Node138 -->
<g id="edge2" class="edge"><title>Node136&#45;&gt;Node138</title>
<path fill="none" stroke="midnightblue" d="M146.255,-21.4361C154.639,-20.5584 163.244,-19.6577 171.765,-18.7657"/>
<polygon fill="midnightblue" stroke="midnightblue" points="172.131,-22.2466 181.712,-17.7244 171.402,-15.2846 172.131,-22.2466"/>
</g>
</g>
</svg>
