<?xml version="1.0" encoding="UTF-8" standalone="no"?>
<!DOCTYPE svg PUBLIC "-//W3C//DTD SVG 1.1//EN"
 "http://www.w3.org/Graphics/SVG/1.1/DTD/svg11.dtd">
<!-- Generated by graphviz version 2.38.0 (20140413.2041)
 -->
<!-- Title: Adafruit_TCS34725::getRawData Pages: 1 -->
<svg width="548pt" height="186pt"
 viewBox="0.00 0.00 548.00 186.00" xmlns="http://www.w3.org/2000/svg" xmlns:xlink="http://www.w3.org/1999/xlink">
<g id="graph0" class="graph" transform="scale(1 1) rotate(0) translate(4 182)">
<title>Adafruit_TCS34725::getRawData</title>
<polygon fill="white" stroke="none" points="-4,4 -4,-182 544,-182 544,4 -4,4"/>
<!-- Node30 -->
<g id="node1" class="node"><title>Node30</title>
<polygon fill="#bfbfbf" stroke="black" points="0,-48.5 0,-78.5 108,-78.5 108,-48.5 0,-48.5"/>
<text text-anchor="start" x="8" y="-66.5" font-family="Helvetica,sans-Serif" font-size="10.00">Adafruit_TCS34725::</text>
<text text-anchor="middle" x="54" y="-55.5" font-family="Helvetica,sans-Serif" font-size="10.00">getRawData</text>
</g>
<!-- Node31 -->
<g id="node2" class="node"><title>Node31</title>
<g id="a_node2"><a xlink:href="$class_adafruit___t_c_s34725.html#a568d79b6382ac27010a8afc26cbdae79" xlink:title="Adafruit_TCS34725::\lbegin">
<polygon fill="white" stroke="black" points="144,-73.5 144,-103.5 252,-103.5 252,-73.5 144,-73.5"/>
<text text-anchor="start" x="152" y="-91.5" font-family="Helvetica,sans-Serif" font-size="10.00">Adafruit_TCS34725::</text>
<text text-anchor="middle" x="198" y="-80.5" font-family="Helvetica,sans-Serif" font-size="10.00">begin</text>
</a>
</g>
</g>
<!-- Node30&#45;&gt;Node31 -->
<g id="edge1" class="edge"><title>Node30&#45;&gt;Node31</title>
<path fill="none" stroke="midnightblue" d="M108.28,-72.8802C116.651,-74.354 125.374,-75.8897 133.94,-77.3979"/>
<polygon fill="midnightblue" stroke="midnightblue" points="133.439,-80.8634 143.894,-79.1504 134.652,-73.9694 133.439,-80.8634"/>
</g>
<!-- Node37 -->
<g id="node8" class="node"><title>Node37</title>
<g id="a_node8"><a xlink:href="$class_adafruit___t_c_s34725.html#a6b9b65ff0f1e57797a1c05a43fd25385" xlink:title="Reads a 16 bit values over I2C. ">
<polygon fill="white" stroke="black" points="144,-24.5 144,-54.5 252,-54.5 252,-24.5 144,-24.5"/>
<text text-anchor="start" x="152" y="-42.5" font-family="Helvetica,sans-Serif" font-size="10.00">Adafruit_TCS34725::</text>
<text text-anchor="middle" x="198" y="-31.5" font-family="Helvetica,sans-Serif" font-size="10.00">read16</text>
</a>
</g>
</g>
<!-- Node30&#45;&gt;Node37 -->
<g id="edge11" class="edge"><title>Node30&#45;&gt;Node37</title>
<path fill="none" stroke="midnightblue" d="M108.28,-54.495C116.651,-53.0801 125.374,-51.6059 133.94,-50.158"/>
<polygon fill="midnightblue" stroke="midnightblue" points="134.617,-53.5933 143.894,-48.4756 133.451,-46.6912 134.617,-53.5933"/>
</g>
<!-- Node32 -->
<g id="node3" class="node"><title>Node32</title>
<g id="a_node3"><a xlink:href="$class_adafruit___t_c_s34725.html#a3ffafbdd475d6baf9abda8dd067b5319" xlink:title="Reads an 8 bit value over I2C. ">
<polygon fill="white" stroke="black" points="288,-147.5 288,-177.5 396,-177.5 396,-147.5 288,-147.5"/>
<text text-anchor="start" x="296" y="-165.5" font-family="Helvetica,sans-Serif" font-size="10.00">Adafruit_TCS34725::</text>
<text text-anchor="middle" x="342" y="-154.5" font-family="Helvetica,sans-Serif" font-size="10.00">read8</text>
</a>
</g>
</g>
<!-- Node31&#45;&gt;Node32 -->
<g id="edge2" class="edge"><title>Node31&#45;&gt;Node32</title>
<path fill="none" stroke="midnightblue" d="M224.387,-103.537C242.021,-113.789 266.178,-127.456 288,-138.5 291.067,-140.052 294.255,-141.616 297.478,-143.161"/>
<polygon fill="midnightblue" stroke="midnightblue" points="296.042,-146.353 306.581,-147.438 299.019,-140.017 296.042,-146.353"/>
</g>
<!-- Node33 -->
<g id="node4" class="node"><title>Node33</title>
<g id="a_node4"><a xlink:href="$class_adafruit___t_c_s34725.html#a3c89fe5d4eea1f24f31d1afa9de8f0f3" xlink:title="Adafruit_TCS34725::\lsetIntegrationTime">
<polygon fill="white" stroke="black" points="288,-98.5 288,-128.5 396,-128.5 396,-98.5 288,-98.5"/>
<text text-anchor="start" x="296" y="-116.5" font-family="Helvetica,sans-Serif" font-size="10.00">Adafruit_TCS34725::</text>
<text text-anchor="middle" x="342" y="-105.5" font-family="Helvetica,sans-Serif" font-size="10.00">setIntegrationTime</text>
</a>
</g>
</g>
<!-- Node31&#45;&gt;Node33 -->
<g id="edge3" class="edge"><title>Node31&#45;&gt;Node33</title>
<path fill="none" stroke="midnightblue" d="M252.28,-91.3206C261.975,-92.8152 272.142,-94.5704 281.992,-96.4475"/>
<polygon fill="midnightblue" stroke="midnightblue" points="281.62,-99.9416 292.108,-98.442 282.974,-93.0738 281.62,-99.9416"/>
</g>
<!-- Node35 -->
<g id="node6" class="node"><title>Node35</title>
<g id="a_node6"><a xlink:href="$class_adafruit___t_c_s34725.html#a6be06315a9d33f76e44550f574f023a5" xlink:title="Adafruit_TCS34725::\lsetGain">
<polygon fill="white" stroke="black" points="288,-49.5 288,-79.5 396,-79.5 396,-49.5 288,-49.5"/>
<text text-anchor="start" x="296" y="-67.5" font-family="Helvetica,sans-Serif" font-size="10.00">Adafruit_TCS34725::</text>
<text text-anchor="middle" x="342" y="-56.5" font-family="Helvetica,sans-Serif" font-size="10.00">setGain</text>
</a>
</g>
</g>
<!-- Node31&#45;&gt;Node35 -->
<g id="edge6" class="edge"><title>Node31&#45;&gt;Node35</title>
<path fill="none" stroke="midnightblue" d="M249.464,-73.4784C258.596,-71.6998 268.225,-69.9983 277.67,-68.4888"/>
<polygon fill="midnightblue" stroke="midnightblue" points="278.462,-71.9083 287.815,-66.9315 277.4,-64.9893 278.462,-71.9083"/>
</g>
<!-- Node36 -->
<g id="node7" class="node"><title>Node36</title>
<g id="a_node7"><a xlink:href="$class_adafruit___t_c_s34725.html#ad9a0e1f4f77d32dc0a6d604f7d1d5586" xlink:title="Adafruit_TCS34725::\lenable">
<polygon fill="white" stroke="black" points="288,-0.5 288,-30.5 396,-30.5 396,-0.5 288,-0.5"/>
<text text-anchor="start" x="296" y="-18.5" font-family="Helvetica,sans-Serif" font-size="10.00">Adafruit_TCS34725::</text>
<text text-anchor="middle" x="342" y="-7.5" font-family="Helvetica,sans-Serif" font-size="10.00">enable</text>
</a>
</g>
</g>
<!-- Node31&#45;&gt;Node36 -->
<g id="edge9" class="edge"><title>Node31&#45;&gt;Node36</title>
<path fill="none" stroke="midnightblue" d="M234.463,-73.4099C240.4,-70.6091 246.436,-67.5876 252,-64.5 268.814,-55.1696 271.259,-49.9608 288,-40.5 291.247,-38.6652 294.65,-36.8433 298.099,-35.0682"/>
<polygon fill="midnightblue" stroke="midnightblue" points="299.87,-38.0961 307.258,-30.502 296.747,-31.8315 299.87,-38.0961"/>
</g>
<!-- Node33&#45;&gt;Node31 -->
<g id="edge4" class="edge"><title>Node33&#45;&gt;Node31</title>
<path fill="none" stroke="midnightblue" d="M287.67,-110.672C277.979,-109.177 267.819,-107.423 257.977,-105.547"/>
<polygon fill="midnightblue" stroke="midnightblue" points="258.357,-102.054 247.868,-103.553 257.002,-108.922 258.357,-102.054"/>
</g>
<!-- Node34 -->
<g id="node5" class="node"><title>Node34</title>
<g id="a_node5"><a xlink:href="$class_adafruit___t_c_s34725.html#aa526557ad0d76b3b6e31e6197de583e6" xlink:title="Writes a register and an 8 bit value over I2C. ">
<polygon fill="white" stroke="black" points="432,-49.5 432,-79.5 540,-79.5 540,-49.5 432,-49.5"/>
<text text-anchor="start" x="440" y="-67.5" font-family="Helvetica,sans-Serif" font-size="10.00">Adafruit_TCS34725::</text>
<text text-anchor="middle" x="486" y="-56.5" font-family="Helvetica,sans-Serif" font-size="10.00">write8</text>
</a>
</g>
</g>
<!-- Node33&#45;&gt;Node34 -->
<g id="edge5" class="edge"><title>Node33&#45;&gt;Node34</title>
<path fill="none" stroke="midnightblue" d="M386.763,-98.3986C400.935,-93.5083 416.813,-88.0293 431.603,-82.9256"/>
<polygon fill="midnightblue" stroke="midnightblue" points="432.825,-86.2065 441.137,-79.6359 430.542,-79.5894 432.825,-86.2065"/>
</g>
<!-- Node35&#45;&gt;Node31 -->
<g id="edge7" class="edge"><title>Node35&#45;&gt;Node31</title>
<path fill="none" stroke="midnightblue" d="M290.244,-79.5785C281.195,-81.337 271.668,-83.0188 262.321,-84.5127"/>
<polygon fill="midnightblue" stroke="midnightblue" points="261.632,-81.0773 252.28,-86.0546 262.695,-87.9962 261.632,-81.0773"/>
</g>
<!-- Node35&#45;&gt;Node34 -->
<g id="edge8" class="edge"><title>Node35&#45;&gt;Node34</title>
<path fill="none" stroke="midnightblue" d="M396.28,-64.5C404.56,-64.5 413.184,-64.5 421.661,-64.5"/>
<polygon fill="midnightblue" stroke="midnightblue" points="421.894,-68.0001 431.894,-64.5 421.894,-61.0001 421.894,-68.0001"/>
</g>
<!-- Node36&#45;&gt;Node34 -->
<g id="edge10" class="edge"><title>Node36&#45;&gt;Node34</title>
<path fill="none" stroke="midnightblue" d="M386.763,-30.6014C400.935,-35.4917 416.813,-40.9707 431.603,-46.0744"/>
<polygon fill="midnightblue" stroke="midnightblue" points="430.542,-49.4106 441.137,-49.3641 432.825,-42.7935 430.542,-49.4106"/>
</g>
</g>
</svg>
