<?xml version="1.0" encoding="UTF-8" standalone="no"?>
<!DOCTYPE svg PUBLIC "-//W3C//DTD SVG 1.1//EN"
 "http://www.w3.org/Graphics/SVG/1.1/DTD/svg11.dtd">
<!-- Generated by graphviz version 2.38.0 (20140413.2041)
 -->
<!-- Title: ExternalSensor&lt; Adafruit_TCS34725 &gt; Pages: 1 -->
<svg width="296pt" height="380pt"
 viewBox="0.00 0.00 296.00 380.00" xmlns="http://www.w3.org/2000/svg" xmlns:xlink="http://www.w3.org/1999/xlink">
<g id="graph0" class="graph" transform="scale(1 1) rotate(0) translate(4 376)">
<title>ExternalSensor&lt; Adafruit_TCS34725 &gt;</title>
<polygon fill="white" stroke="none" points="-4,4 -4,-376 292,-376 292,4 -4,4"/>
<!-- Node2 -->
<g id="node1" class="node"><title>Node2</title>
<polygon fill="#bfbfbf" stroke="black" points="73.5,-0.5 73.5,-90.5 199.5,-90.5 199.5,-0.5 73.5,-0.5"/>
<text text-anchor="start" x="81.5" y="-78.5" font-family="Helvetica,sans-Serif" font-size="10.00">ExternalSensor&lt; Adafruit</text>
<text text-anchor="middle" x="136.5" y="-67.5" font-family="Helvetica,sans-Serif" font-size="10.00">_TCS34725 &gt;</text>
<polyline fill="none" stroke="black" points="73.5,-60.5 199.5,-60.5 "/>
<text text-anchor="middle" x="136.5" y="-48.5" font-family="Helvetica,sans-Serif" font-size="10.00"> </text>
<polyline fill="none" stroke="black" points="73.5,-41.5 199.5,-41.5 "/>
<text text-anchor="start" x="81.5" y="-29.5" font-family="Helvetica,sans-Serif" font-size="10.00">+ ExternalSensor()</text>
<text text-anchor="start" x="81.5" y="-18.5" font-family="Helvetica,sans-Serif" font-size="10.00">+ begin()</text>
<text text-anchor="start" x="81.5" y="-7.5" font-family="Helvetica,sans-Serif" font-size="10.00">+ read()</text>
</g>
<!-- Node3 -->
<g id="node2" class="node"><title>Node3</title>
<g id="a_node2"><a xlink:href="$class_base_external_sensor.html" xlink:title="This class is a generic external Sensor it is a way to access real external sensor methods through ru...">
<polygon fill="white" stroke="black" points="0,-210 0,-300 121,-300 121,-210 0,-210"/>
<text text-anchor="middle" x="60.5" y="-288" font-family="Helvetica,sans-Serif" font-size="10.00">BaseExternalSensor</text>
<polyline fill="none" stroke="black" points="0,-281 121,-281 "/>
<text text-anchor="middle" x="60.5" y="-269" font-family="Helvetica,sans-Serif" font-size="10.00"> </text>
<polyline fill="none" stroke="black" points="0,-262 121,-262 "/>
<text text-anchor="start" x="8" y="-250" font-family="Helvetica,sans-Serif" font-size="10.00">+ BaseExternalSensor()</text>
<text text-anchor="start" x="8" y="-239" font-family="Helvetica,sans-Serif" font-size="10.00">+ begin()</text>
<text text-anchor="start" x="8" y="-228" font-family="Helvetica,sans-Serif" font-size="10.00">+ read()</text>
<text text-anchor="start" x="8" y="-217" font-family="Helvetica,sans-Serif" font-size="10.00">+ read()</text>
</a>
</g>
</g>
<!-- Node3&#45;&gt;Node2 -->
<g id="edge1" class="edge"><title>Node3&#45;&gt;Node2</title>
<path fill="none" stroke="midnightblue" d="M80.1975,-200.221C92.6511,-166.219 108.55,-122.811 120.275,-90.7992"/>
<polygon fill="none" stroke="midnightblue" points="76.7704,-199.401 76.6176,-209.995 83.3434,-201.808 76.7704,-199.401"/>
</g>
<!-- Node4 -->
<g id="node3" class="node"><title>Node4</title>
<g id="a_node3"><a xlink:href="$class_adafruit___t_c_s34725.html" xlink:title="{Adafruit_TCS34725\n|&#45; _tcs34725Initialised\l&#45; _tcs34725Gain\l&#45; _tcs34725IntegrationTime\l|+ Adafruit_TCS34725()\l+ begin()\l+ setIntegrationTime()\l+ setGain()\l+ getRawData()\l+ calculateColorTemperature()\l+ calculateLux()\l+ write8()\l+ read8()\l+ read16()\l+ setInterrupt()\l+ clearInterrupt()\l+ setIntLimits()\l+ enable()\l&#45; disable()\l}">
<polygon fill="white" stroke="black" points="139,-138.5 139,-371.5 288,-371.5 288,-138.5 139,-138.5"/>
<text text-anchor="middle" x="213.5" y="-359.5" font-family="Helvetica,sans-Serif" font-size="10.00">Adafruit_TCS34725</text>
<polyline fill="none" stroke="black" points="139,-352.5 288,-352.5 "/>
<text text-anchor="start" x="147" y="-340.5" font-family="Helvetica,sans-Serif" font-size="10.00">&#45; _tcs34725Initialised</text>
<text text-anchor="start" x="147" y="-329.5" font-family="Helvetica,sans-Serif" font-size="10.00">&#45; _tcs34725Gain</text>
<text text-anchor="start" x="147" y="-318.5" font-family="Helvetica,sans-Serif" font-size="10.00">&#45; _tcs34725IntegrationTime</text>
<polyline fill="none" stroke="black" points="139,-311.5 288,-311.5 "/>
<text text-anchor="start" x="147" y="-299.5" font-family="Helvetica,sans-Serif" font-size="10.00">+ Adafruit_TCS34725()</text>
<text text-anchor="start" x="147" y="-288.5" font-family="Helvetica,sans-Serif" font-size="10.00">+ begin()</text>
<text text-anchor="start" x="147" y="-277.5" font-family="Helvetica,sans-Serif" font-size="10.00">+ setIntegrationTime()</text>
<text text-anchor="start" x="147" y="-266.5" font-family="Helvetica,sans-Serif" font-size="10.00">+ setGain()</text>
<text text-anchor="start" x="147" y="-255.5" font-family="Helvetica,sans-Serif" font-size="10.00">+ getRawData()</text>
<text text-anchor="start" x="147" y="-244.5" font-family="Helvetica,sans-Serif" font-size="10.00">+ calculateColorTemperature()</text>
<text text-anchor="start" x="147" y="-233.5" font-family="Helvetica,sans-Serif" font-size="10.00">+ calculateLux()</text>
<text text-anchor="start" x="147" y="-222.5" font-family="Helvetica,sans-Serif" font-size="10.00">+ write8()</text>
<text text-anchor="start" x="147" y="-211.5" font-family="Helvetica,sans-Serif" font-size="10.00">+ read8()</text>
<text text-anchor="start" x="147" y="-200.5" font-family="Helvetica,sans-Serif" font-size="10.00">+ read16()</text>
<text text-anchor="start" x="147" y="-189.5" font-family="Helvetica,sans-Serif" font-size="10.00">+ setInterrupt()</text>
<text text-anchor="start" x="147" y="-178.5" font-family="Helvetica,sans-Serif" font-size="10.00">+ clearInterrupt()</text>
<text text-anchor="start" x="147" y="-167.5" font-family="Helvetica,sans-Serif" font-size="10.00">+ setIntLimits()</text>
<text text-anchor="start" x="147" y="-156.5" font-family="Helvetica,sans-Serif" font-size="10.00">+ enable()</text>
<text text-anchor="start" x="147" y="-145.5" font-family="Helvetica,sans-Serif" font-size="10.00">&#45; disable()</text>
</a>
</g>
</g>
<!-- Node4&#45;&gt;Node2 -->
<g id="edge2" class="edge"><title>Node4&#45;&gt;Node2</title>
<path fill="none" stroke="#404040" d="M170.61,-138.419C165.945,-125.849 161.368,-113.513 157.156,-102.164"/>
<polygon fill="none" stroke="#404040" points="157.086,-101.975 151.248,-97.7415 152.911,-90.7247 158.749,-94.9582 157.086,-101.975"/>
<text text-anchor="middle" x="182.5" y="-112" font-family="Helvetica,sans-Serif" font-size="10.00"> &#45;sensor</text>
</g>
</g>
</svg>
