<?xml version="1.0" encoding="UTF-8" standalone="no"?>
<!DOCTYPE svg PUBLIC "-//W3C//DTD SVG 1.1//EN"
 "http://www.w3.org/Graphics/SVG/1.1/DTD/svg11.dtd">
<!-- Generated by graphviz version 2.38.0 (20140413.2041)
 -->
<!-- Title: WiFiManager::connectWifi Pages: 1 -->
<svg width="501pt" height="93pt"
 viewBox="0.00 0.00 501.00 92.94" xmlns="http://www.w3.org/2000/svg" xmlns:xlink="http://www.w3.org/1999/xlink">
<g id="graph0" class="graph" transform="scale(1 1) rotate(0) translate(4 88.9378)">
<title>WiFiManager::connectWifi</title>
<polygon fill="white" stroke="none" points="-4,4 -4,-88.9378 497,-88.9378 497,4 -4,4"/>
<!-- Node29 -->
<g id="node1" class="node"><title>Node29</title>
<polygon fill="#bfbfbf" stroke="black" points="0,-44.5 0,-63.5 132,-63.5 132,-44.5 0,-44.5"/>
<text text-anchor="middle" x="66" y="-51.5" font-family="Helvetica,sans-Serif" font-size="10.00">WiFiManager::connectWifi</text>
</g>
<!-- Node30 -->
<g id="node2" class="node"><title>Node30</title>
<g id="a_node2"><a xlink:href="$class_wi_fi_manager.html#ae5f595c670ccbcf9a191baf50f5c7c26" xlink:title="WiFiManager::DEBUG_WM">
<polygon fill="white" stroke="black" points="353,-44.5 353,-63.5 493,-63.5 493,-44.5 353,-44.5"/>
<text text-anchor="middle" x="423" y="-51.5" font-family="Helvetica,sans-Serif" font-size="10.00">WiFiManager::DEBUG_WM</text>
</a>
</g>
</g>
<!-- Node29&#45;&gt;Node30 -->
<g id="edge1" class="edge"><title>Node29&#45;&gt;Node30</title>
<path fill="none" stroke="midnightblue" d="M97.5809,-63.6258C117.426,-69.3581 143.972,-76.0705 168,-79 233.735,-87.0146 251.23,-86.7219 317,-79 338.139,-76.5181 361.191,-71.317 380.296,-66.2982"/>
<polygon fill="midnightblue" stroke="midnightblue" points="381.44,-69.6147 390.18,-63.6268 379.613,-62.8572 381.44,-69.6147"/>
</g>
<!-- Node31 -->
<g id="node3" class="node"><title>Node31</title>
<g id="a_node3"><a xlink:href="$class_wi_fi_manager.html#a89a3f33997aa662ad223d6c150c1eede" xlink:title="WiFiManager::waitForConnect\lResult">
<polygon fill="white" stroke="black" points="168,-39 168,-69 317,-69 317,-39 168,-39"/>
<text text-anchor="start" x="176" y="-57" font-family="Helvetica,sans-Serif" font-size="10.00">WiFiManager::waitForConnect</text>
<text text-anchor="middle" x="242.5" y="-46" font-family="Helvetica,sans-Serif" font-size="10.00">Result</text>
</a>
</g>
</g>
<!-- Node29&#45;&gt;Node31 -->
<g id="edge2" class="edge"><title>Node29&#45;&gt;Node31</title>
<path fill="none" stroke="midnightblue" d="M132.474,-54C140.656,-54 149.11,-54 157.524,-54"/>
<polygon fill="midnightblue" stroke="midnightblue" points="157.746,-57.5001 167.746,-54 157.746,-50.5001 157.746,-57.5001"/>
</g>
<!-- Node32 -->
<g id="node4" class="node"><title>Node32</title>
<g id="a_node4"><a xlink:href="$class_wi_fi_manager.html#abcc403fc26a47f7a111d1271f1d0869e" xlink:title="WiFiManager::startWPS">
<polygon fill="white" stroke="black" points="181,-0.5 181,-19.5 304,-19.5 304,-0.5 181,-0.5"/>
<text text-anchor="middle" x="242.5" y="-7.5" font-family="Helvetica,sans-Serif" font-size="10.00">WiFiManager::startWPS</text>
</a>
</g>
</g>
<!-- Node29&#45;&gt;Node32 -->
<g id="edge4" class="edge"><title>Node29&#45;&gt;Node32</title>
<path fill="none" stroke="midnightblue" d="M104.864,-44.4527C130.932,-37.8796 165.77,-29.0952 193.744,-22.0417"/>
<polygon fill="midnightblue" stroke="midnightblue" points="194.869,-25.3675 203.71,-19.5287 193.158,-18.58 194.869,-25.3675"/>
</g>
<!-- Node31&#45;&gt;Node30 -->
<g id="edge3" class="edge"><title>Node31&#45;&gt;Node30</title>
<path fill="none" stroke="midnightblue" d="M317.133,-54C325.531,-54 334.119,-54 342.588,-54"/>
<polygon fill="midnightblue" stroke="midnightblue" points="342.838,-57.5001 352.838,-54 342.838,-50.5001 342.838,-57.5001"/>
</g>
<!-- Node32&#45;&gt;Node30 -->
<g id="edge5" class="edge"><title>Node32&#45;&gt;Node30</title>
<path fill="none" stroke="midnightblue" d="M282.232,-19.5473C309.014,-26.1492 344.847,-34.9819 373.525,-42.051"/>
<polygon fill="midnightblue" stroke="midnightblue" points="372.797,-45.4761 383.344,-44.4713 374.472,-38.6796 372.797,-45.4761"/>
</g>
</g>
</svg>
