<?xml version="1.0" encoding="UTF-8" standalone="no"?>
<!DOCTYPE svg PUBLIC "-//W3C//DTD SVG 1.1//EN"
 "http://www.w3.org/Graphics/SVG/1.1/DTD/svg11.dtd">
<!-- Generated by graphviz version 2.38.0 (20140413.2041)
 -->
<!-- Title: CoolBoardLed::blink Pages: 1 -->
<svg width="427pt" height="163pt"
 viewBox="0.00 0.00 427.00 163.42" xmlns="http://www.w3.org/2000/svg" xmlns:xlink="http://www.w3.org/1999/xlink">
<g id="graph0" class="graph" transform="scale(1 1) rotate(0) translate(4 159.415)">
<title>CoolBoardLed::blink</title>
<polygon fill="white" stroke="none" points="-4,4 -4,-159.415 423,-159.415 423,4 -4,4"/>
<!-- Node6 -->
<g id="node1" class="node"><title>Node6</title>
<polygon fill="#bfbfbf" stroke="black" points="0,-76.5 0,-95.5 104,-95.5 104,-76.5 0,-76.5"/>
<text text-anchor="middle" x="52" y="-83.5" font-family="Helvetica,sans-Serif" font-size="10.00">CoolBoardLed::blink</text>
</g>
<!-- Node7 -->
<g id="node2" class="node"><title>Node7</title>
<g id="a_node2"><a xlink:href="$class_cool_board.html#acba7c5aef7268b2c0044bdb54d3b9d76" xlink:title="CoolBoard::begin">
<polygon fill="white" stroke="black" points="312,-133.5 312,-152.5 404,-152.5 404,-133.5 312,-133.5"/>
<text text-anchor="middle" x="358" y="-140.5" font-family="Helvetica,sans-Serif" font-size="10.00">CoolBoard::begin</text>
</a>
</g>
</g>
<!-- Node6&#45;&gt;Node7 -->
<g id="edge1" class="edge"><title>Node6&#45;&gt;Node7</title>
<path fill="none" stroke="midnightblue" d="M70.9698,-102.343C87.5257,-116.214 113.477,-135.085 140,-143 197.4,-160.129 267.208,-155.981 311.868,-150.378"/>
<polygon fill="midnightblue" stroke="midnightblue" points="73.0668,-99.5295 63.2154,-95.6308 68.4853,-104.822 73.0668,-99.5295"/>
</g>
<!-- Node8 -->
<g id="node3" class="node"><title>Node8</title>
<g id="a_node3"><a xlink:href="$class_cool_board.html#a519de78b807f8ec6463ff484eb925918" xlink:title="CoolBoard::connect">
<polygon fill="white" stroke="black" points="149,-114.5 149,-133.5 252,-133.5 252,-114.5 149,-114.5"/>
<text text-anchor="middle" x="200.5" y="-121.5" font-family="Helvetica,sans-Serif" font-size="10.00">CoolBoard::connect</text>
</a>
</g>
</g>
<!-- Node6&#45;&gt;Node8 -->
<g id="edge2" class="edge"><title>Node6&#45;&gt;Node8</title>
<path fill="none" stroke="midnightblue" d="M99.6954,-98.1121C120.099,-103.404 143.681,-109.521 162.798,-114.48"/>
<polygon fill="midnightblue" stroke="midnightblue" points="100.527,-94.712 89.9681,-95.589 98.769,-101.488 100.527,-94.712"/>
</g>
<!-- Node9 -->
<g id="node4" class="node"><title>Node9</title>
<g id="a_node4"><a xlink:href="$class_cool_board.html#ae6b5e1274d760462290192acea4adca8" xlink:title="CoolBoard::offLineMode">
<polygon fill="white" stroke="black" points="297,-86.5 297,-105.5 419,-105.5 419,-86.5 297,-86.5"/>
<text text-anchor="middle" x="358" y="-93.5" font-family="Helvetica,sans-Serif" font-size="10.00">CoolBoard::offLineMode</text>
</a>
</g>
</g>
<!-- Node6&#45;&gt;Node9 -->
<g id="edge6" class="edge"><title>Node6&#45;&gt;Node9</title>
<path fill="none" stroke="midnightblue" d="M114.542,-88.0244C167.74,-89.7743 244.175,-92.2886 296.937,-94.0242"/>
<polygon fill="midnightblue" stroke="midnightblue" points="114.335,-84.5158 104.226,-87.6851 114.105,-91.512 114.335,-84.5158"/>
</g>
<!-- Node10 -->
<g id="node5" class="node"><title>Node10</title>
<g id="a_node5"><a xlink:href="$class_cool_board.html#aa0bbc4bc605e35618d18e68795c61363" xlink:title="CoolBoard::onLineMode">
<polygon fill="white" stroke="black" points="140,-38.5 140,-57.5 261,-57.5 261,-38.5 140,-38.5"/>
<text text-anchor="middle" x="200.5" y="-45.5" font-family="Helvetica,sans-Serif" font-size="10.00">CoolBoard::onLineMode</text>
</a>
</g>
</g>
<!-- Node6&#45;&gt;Node10 -->
<g id="edge5" class="edge"><title>Node6&#45;&gt;Node10</title>
<path fill="none" stroke="midnightblue" d="M99.6954,-73.8879C120.099,-68.5956 143.681,-62.4787 162.798,-57.5201"/>
<polygon fill="midnightblue" stroke="midnightblue" points="98.769,-70.5123 89.9681,-76.411 100.527,-77.288 98.769,-70.5123"/>
</g>
<!-- Node11 -->
<g id="node6" class="node"><title>Node11</title>
<g id="a_node6"><a xlink:href="$class_cool_board.html#a583a874c09c07e70a6eb9229fc4beddb" xlink:title="CoolBoard::config">
<polygon fill="white" stroke="black" points="153,-0.5 153,-19.5 248,-19.5 248,-0.5 153,-0.5"/>
<text text-anchor="middle" x="200.5" y="-7.5" font-family="Helvetica,sans-Serif" font-size="10.00">CoolBoard::config</text>
</a>
</g>
</g>
<!-- Node6&#45;&gt;Node11 -->
<g id="edge7" class="edge"><title>Node6&#45;&gt;Node11</title>
<path fill="none" stroke="midnightblue" d="M73.4459,-70.3054C90.506,-57.7883 115.845,-40.5063 140,-29 147.636,-25.3626 156.143,-22.1779 164.28,-19.5077"/>
<polygon fill="midnightblue" stroke="midnightblue" points="71.2515,-67.5758 65.3293,-76.3609 75.4374,-73.1864 71.2515,-67.5758"/>
</g>
<!-- Node8&#45;&gt;Node7 -->
<g id="edge3" class="edge"><title>Node8&#45;&gt;Node7</title>
<path fill="none" stroke="midnightblue" d="M262.52,-131.456C279.011,-133.471 296.556,-135.615 311.994,-137.501"/>
<polygon fill="midnightblue" stroke="midnightblue" points="262.767,-127.96 252.417,-130.221 261.918,-134.908 262.767,-127.96"/>
</g>
<!-- Node8&#45;&gt;Node9 -->
<g id="edge4" class="edge"><title>Node8&#45;&gt;Node9</title>
<path fill="none" stroke="midnightblue" d="M262.307,-113.051C276.108,-110.566 290.658,-107.946 304.101,-105.525"/>
<polygon fill="midnightblue" stroke="midnightblue" points="261.638,-109.615 252.417,-114.832 262.879,-116.504 261.638,-109.615"/>
</g>
</g>
</svg>
