<?xml version="1.0" encoding="UTF-8" standalone="no"?>
<!DOCTYPE svg PUBLIC "-//W3C//DTD SVG 1.1//EN"
 "http://www.w3.org/Graphics/SVG/1.1/DTD/svg11.dtd">
<!-- Generated by graphviz version 2.38.0 (20140413.2041)
 -->
<!-- Title: WiFiManager::setupConfigPortal Pages: 1 -->
<svg width="700pt" height="489pt"
 viewBox="0.00 0.00 700.00 489.00" xmlns="http://www.w3.org/2000/svg" xmlns:xlink="http://www.w3.org/1999/xlink">
<g id="graph0" class="graph" transform="scale(1 1) rotate(0) translate(4 485)">
<title>WiFiManager::setupConfigPortal</title>
<polygon fill="white" stroke="none" points="-4,4 -4,-485 696,-485 696,4 -4,4"/>
<!-- Node173 -->
<g id="node1" class="node"><title>Node173</title>
<polygon fill="#bfbfbf" stroke="black" points="0,-229 0,-259 133,-259 133,-229 0,-229"/>
<text text-anchor="start" x="8" y="-247" font-family="Helvetica,sans-Serif" font-size="10.00">WiFiManager::setupConfig</text>
<text text-anchor="middle" x="66.5" y="-236" font-family="Helvetica,sans-Serif" font-size="10.00">Portal</text>
</g>
<!-- Node174 -->
<g id="node2" class="node"><title>Node174</title>
<g id="a_node2"><a xlink:href="$class_wi_fi_manager.html#ae5f595c670ccbcf9a191baf50f5c7c26" xlink:title="WiFiManager::DEBUG_WM">
<polygon fill="white" stroke="black" points="552,-265.5 552,-284.5 692,-284.5 692,-265.5 552,-265.5"/>
<text text-anchor="middle" x="622" y="-272.5" font-family="Helvetica,sans-Serif" font-size="10.00">WiFiManager::DEBUG_WM</text>
</a>
</g>
</g>
<!-- Node173&#45;&gt;Node174 -->
<g id="edge1" class="edge"><title>Node173&#45;&gt;Node174</title>
<path fill="none" stroke="midnightblue" d="M75.7008,-228.763C90.4696,-203.077 124.217,-151.828 169,-130 307.713,-62.387 379.891,-45.2854 516,-118 571.305,-147.546 602.573,-220.549 614.856,-255.604"/>
<polygon fill="midnightblue" stroke="midnightblue" points="611.567,-256.805 618.064,-265.174 618.205,-254.58 611.567,-256.805"/>
</g>
<!-- Node175 -->
<g id="node3" class="node"><title>Node175</title>
<g id="a_node3"><a xlink:href="$class_wi_fi_manager.html#a47e4c7df7478f690c53ff9f5125c9760" xlink:title="WiFiManager::handleRoot">
<polygon fill="white" stroke="black" points="180,-404.5 180,-423.5 310,-423.5 310,-404.5 180,-404.5"/>
<text text-anchor="middle" x="245" y="-411.5" font-family="Helvetica,sans-Serif" font-size="10.00">WiFiManager::handleRoot</text>
</a>
</g>
</g>
<!-- Node173&#45;&gt;Node175 -->
<g id="edge2" class="edge"><title>Node173&#45;&gt;Node175</title>
<path fill="none" stroke="midnightblue" d="M81.2233,-259.01C100.369,-279.76 136.417,-318.142 169,-349 187.261,-366.295 209.081,-384.999 224.465,-397.883"/>
<polygon fill="midnightblue" stroke="midnightblue" points="222.362,-400.687 232.286,-404.396 226.841,-395.308 222.362,-400.687"/>
</g>
<!-- Node179 -->
<g id="node7" class="node"><title>Node179</title>
<g id="a_node7"><a xlink:href="$class_wi_fi_manager.html#a57a9048175c1918340ab9d0a2c53601f" xlink:title="WiFiManager::handleWifi">
<polygon fill="white" stroke="black" points="182,-266.5 182,-285.5 308,-285.5 308,-266.5 182,-266.5"/>
<text text-anchor="middle" x="245" y="-273.5" font-family="Helvetica,sans-Serif" font-size="10.00">WiFiManager::handleWifi</text>
</a>
</g>
</g>
<!-- Node173&#45;&gt;Node179 -->
<g id="edge8" class="edge"><title>Node173&#45;&gt;Node179</title>
<path fill="none" stroke="midnightblue" d="M133.222,-255.916C148.98,-258.773 165.766,-261.816 181.379,-264.647"/>
<polygon fill="midnightblue" stroke="midnightblue" points="180.983,-268.132 191.447,-266.472 182.232,-261.244 180.983,-268.132"/>
</g>
<!-- Node182 -->
<g id="node10" class="node"><title>Node182</title>
<g id="a_node10"><a xlink:href="$class_wi_fi_manager.html#a2a8c2b60aa86dfdeab8a1a90f7122dc7" xlink:title="WiFiManager::handleWifiSave">
<polygon fill="white" stroke="black" points="170.5,-202.5 170.5,-221.5 319.5,-221.5 319.5,-202.5 170.5,-202.5"/>
<text text-anchor="middle" x="245" y="-209.5" font-family="Helvetica,sans-Serif" font-size="10.00">WiFiManager::handleWifiSave</text>
</a>
</g>
</g>
<!-- Node173&#45;&gt;Node182 -->
<g id="edge12" class="edge"><title>Node173&#45;&gt;Node182</title>
<path fill="none" stroke="midnightblue" d="M133.222,-232.084C148.98,-229.227 165.766,-226.184 181.379,-223.353"/>
<polygon fill="midnightblue" stroke="midnightblue" points="182.232,-226.756 191.447,-221.528 180.983,-219.868 182.232,-226.756"/>
</g>
<!-- Node184 -->
<g id="node12" class="node"><title>Node184</title>
<g id="a_node12"><a xlink:href="$class_wi_fi_manager.html#ac35e46661f8a209d84bba62d9aa43a35" xlink:title="WiFiManager::handleInfo">
<polygon fill="white" stroke="black" points="374,-366.5 374,-385.5 499,-385.5 499,-366.5 374,-366.5"/>
<text text-anchor="middle" x="436.5" y="-373.5" font-family="Helvetica,sans-Serif" font-size="10.00">WiFiManager::handleInfo</text>
</a>
</g>
</g>
<!-- Node173&#45;&gt;Node184 -->
<g id="edge15" class="edge"><title>Node173&#45;&gt;Node184</title>
<path fill="none" stroke="midnightblue" d="M94.4879,-259.148C114.612,-270.049 142.998,-284.604 169,-295 243.242,-324.683 332.753,-349.812 386.84,-363.888"/>
<polygon fill="midnightblue" stroke="midnightblue" points="386.285,-367.359 396.842,-366.47 388.034,-360.581 386.285,-367.359"/>
</g>
<!-- Node185 -->
<g id="node13" class="node"><title>Node185</title>
<g id="a_node13"><a xlink:href="$class_wi_fi_manager.html#a94fb1a8fcfbd0d02714c69138bf72f9c" xlink:title="WiFiManager::handleReset">
<polygon fill="white" stroke="black" points="177.5,-139.5 177.5,-158.5 312.5,-158.5 312.5,-139.5 177.5,-139.5"/>
<text text-anchor="middle" x="245" y="-146.5" font-family="Helvetica,sans-Serif" font-size="10.00">WiFiManager::handleReset</text>
</a>
</g>
</g>
<!-- Node173&#45;&gt;Node185 -->
<g id="edge17" class="edge"><title>Node173&#45;&gt;Node185</title>
<path fill="none" stroke="midnightblue" d="M95.4669,-228.947C128.732,-211.042 183.886,-181.356 216.807,-163.636"/>
<polygon fill="midnightblue" stroke="midnightblue" points="218.717,-166.583 225.864,-158.762 215.399,-160.419 218.717,-166.583"/>
</g>
<!-- Node186 -->
<g id="node14" class="node"><title>Node186</title>
<g id="a_node14"><a xlink:href="$class_wi_fi_manager.html#a9e802fa4ca834a622f058a7176f47806" xlink:title="WiFiManager::handleFileRead">
<polygon fill="white" stroke="black" points="171,-38.5 171,-57.5 319,-57.5 319,-38.5 171,-38.5"/>
<text text-anchor="middle" x="245" y="-45.5" font-family="Helvetica,sans-Serif" font-size="10.00">WiFiManager::handleFileRead</text>
</a>
</g>
</g>
<!-- Node173&#45;&gt;Node186 -->
<g id="edge19" class="edge"><title>Node173&#45;&gt;Node186</title>
<path fill="none" stroke="midnightblue" d="M72.2501,-228.87C83.4963,-195.505 114.94,-115.155 169,-72 174.312,-67.7594 180.39,-64.2607 186.735,-61.3757"/>
<polygon fill="midnightblue" stroke="midnightblue" points="188.2,-64.5589 196.166,-57.573 185.583,-58.0668 188.2,-64.5589"/>
</g>
<!-- Node188 -->
<g id="node16" class="node"><title>Node188</title>
<g id="a_node16"><a xlink:href="$class_wi_fi_manager.html#a7d01f7de3e4b76acdabffac79fa3d0ab" xlink:title="WiFiManager::handleNotFound">
<polygon fill="white" stroke="black" points="169,-442.5 169,-461.5 321,-461.5 321,-442.5 169,-442.5"/>
<text text-anchor="middle" x="245" y="-449.5" font-family="Helvetica,sans-Serif" font-size="10.00">WiFiManager::handleNotFound</text>
</a>
</g>
</g>
<!-- Node173&#45;&gt;Node188 -->
<g id="edge22" class="edge"><title>Node173&#45;&gt;Node188</title>
<path fill="none" stroke="midnightblue" d="M71.1579,-259.231C80.6463,-295.338 109.559,-386.578 169,-433 171.332,-434.821 173.819,-436.47 176.415,-437.962"/>
<polygon fill="midnightblue" stroke="midnightblue" points="175.084,-441.207 185.605,-442.456 178.159,-434.919 175.084,-441.207"/>
</g>
<!-- Node175&#45;&gt;Node174 -->
<g id="edge3" class="edge"><title>Node175&#45;&gt;Node174</title>
<path fill="none" stroke="midnightblue" d="M310.124,-422.737C367.198,-427.532 451.402,-427.094 516,-395 561.043,-372.621 595.039,-321.564 610.98,-293.807"/>
<polygon fill="midnightblue" stroke="midnightblue" points="614.225,-295.173 616.023,-284.732 608.106,-291.773 614.225,-295.173"/>
</g>
<!-- Node176 -->
<g id="node4" class="node"><title>Node176</title>
<g id="a_node4"><a xlink:href="$class_wi_fi_manager.html#a4ef4298deb224212e5242c456669a973" xlink:title="WiFiManager::captivePortal">
<polygon fill="white" stroke="black" points="368,-442.5 368,-461.5 505,-461.5 505,-442.5 368,-442.5"/>
<text text-anchor="middle" x="436.5" y="-449.5" font-family="Helvetica,sans-Serif" font-size="10.00">WiFiManager::captivePortal</text>
</a>
</g>
</g>
<!-- Node175&#45;&gt;Node176 -->
<g id="edge4" class="edge"><title>Node175&#45;&gt;Node176</title>
<path fill="none" stroke="midnightblue" d="M293.819,-423.589C319.389,-428.716 351.059,-435.067 377.968,-440.463"/>
<polygon fill="midnightblue" stroke="midnightblue" points="377.532,-443.945 388.025,-442.48 378.908,-437.082 377.532,-443.945"/>
</g>
<!-- Node176&#45;&gt;Node174 -->
<g id="edge6" class="edge"><title>Node176&#45;&gt;Node174</title>
<path fill="none" stroke="midnightblue" d="M486.811,-442.455C497.077,-439.001 507.383,-434.323 516,-428 564.984,-392.058 598.78,-326.039 613.182,-293.763"/>
<polygon fill="midnightblue" stroke="midnightblue" points="616.41,-295.117 617.171,-284.55 609.986,-292.336 616.41,-295.117"/>
</g>
<!-- Node177 -->
<g id="node5" class="node"><title>Node177</title>
<g id="a_node5"><a xlink:href="$class_wi_fi_manager.html#a9c78a8774f746ec22a99d03a53baa607" xlink:title="WiFiManager::isIp">
<polygon fill="white" stroke="black" points="574,-423.5 574,-442.5 670,-442.5 670,-423.5 574,-423.5"/>
<text text-anchor="middle" x="622" y="-430.5" font-family="Helvetica,sans-Serif" font-size="10.00">WiFiManager::isIp</text>
</a>
</g>
</g>
<!-- Node176&#45;&gt;Node177 -->
<g id="edge5" class="edge"><title>Node176&#45;&gt;Node177</title>
<path fill="none" stroke="midnightblue" d="M505.047,-445.006C524.361,-443.006 545.216,-440.847 563.843,-438.918"/>
<polygon fill="midnightblue" stroke="midnightblue" points="564.352,-442.384 573.938,-437.873 563.631,-435.422 564.352,-442.384"/>
</g>
<!-- Node178 -->
<g id="node6" class="node"><title>Node178</title>
<g id="a_node6"><a xlink:href="$class_wi_fi_manager.html#a8dfd64cefecbdf26242b16eca335c20b" xlink:title="WiFiManager::toStringIp">
<polygon fill="white" stroke="black" points="561,-461.5 561,-480.5 683,-480.5 683,-461.5 561,-461.5"/>
<text text-anchor="middle" x="622" y="-468.5" font-family="Helvetica,sans-Serif" font-size="10.00">WiFiManager::toStringIp</text>
</a>
</g>
</g>
<!-- Node176&#45;&gt;Node178 -->
<g id="edge7" class="edge"><title>Node176&#45;&gt;Node178</title>
<path fill="none" stroke="midnightblue" d="M505.047,-458.994C519.909,-460.533 535.684,-462.166 550.654,-463.716"/>
<polygon fill="midnightblue" stroke="midnightblue" points="550.561,-467.225 560.868,-464.774 551.282,-460.262 550.561,-467.225"/>
</g>
<!-- Node179&#45;&gt;Node174 -->
<g id="edge9" class="edge"><title>Node179&#45;&gt;Node174</title>
<path fill="none" stroke="midnightblue" d="M264.619,-285.679C286.175,-296.292 323.075,-312.659 357,-319 426.464,-331.985 446.72,-332.929 516,-319 544.27,-313.316 574.421,-299.82 595.126,-289.262"/>
<polygon fill="midnightblue" stroke="midnightblue" points="596.971,-292.247 604.208,-284.51 593.725,-286.045 596.971,-292.247"/>
</g>
<!-- Node180 -->
<g id="node8" class="node"><title>Node180</title>
<g id="a_node8"><a xlink:href="$class_wi_fi_manager.html#ae71cfd6bd70ada2ca02e1d20b152d0e5" xlink:title="WiFiManager::getRSSIasQuality">
<polygon fill="white" stroke="black" points="357,-290.5 357,-309.5 516,-309.5 516,-290.5 357,-290.5"/>
<text text-anchor="middle" x="436.5" y="-297.5" font-family="Helvetica,sans-Serif" font-size="10.00">WiFiManager::getRSSIasQuality</text>
</a>
</g>
</g>
<!-- Node179&#45;&gt;Node180 -->
<g id="edge10" class="edge"><title>Node179&#45;&gt;Node180</title>
<path fill="none" stroke="midnightblue" d="M308.049,-283.858C321.513,-285.564 335.98,-287.396 350.163,-289.192"/>
<polygon fill="midnightblue" stroke="midnightblue" points="350.061,-292.707 360.422,-290.491 350.941,-285.763 350.061,-292.707"/>
</g>
<!-- Node181 -->
<g id="node9" class="node"><title>Node181</title>
<g id="a_node9"><a xlink:href="$class_wi_fi_manager_parameter.html#a596273c189eb40107500cee3ad31b13b" xlink:title="WiFiManagerParameter\l::getCustomHTML">
<polygon fill="white" stroke="black" points="377,-241 377,-271 496,-271 496,-241 377,-241"/>
<text text-anchor="start" x="385" y="-259" font-family="Helvetica,sans-Serif" font-size="10.00">WiFiManagerParameter</text>
<text text-anchor="middle" x="436.5" y="-248" font-family="Helvetica,sans-Serif" font-size="10.00">::getCustomHTML</text>
</a>
</g>
</g>
<!-- Node179&#45;&gt;Node181 -->
<g id="edge11" class="edge"><title>Node179&#45;&gt;Node181</title>
<path fill="none" stroke="midnightblue" d="M308.049,-269.451C326.806,-267.472 347.512,-265.286 366.683,-263.263"/>
<polygon fill="midnightblue" stroke="midnightblue" points="367.274,-266.72 376.851,-262.19 366.539,-259.759 367.274,-266.72"/>
</g>
<!-- Node182&#45;&gt;Node174 -->
<g id="edge13" class="edge"><title>Node182&#45;&gt;Node174</title>
<path fill="none" stroke="midnightblue" d="M319.743,-210.754C374.576,-211.372 450.856,-215.504 516,-231 543.555,-237.555 573.163,-250.559 593.891,-260.738"/>
<polygon fill="midnightblue" stroke="midnightblue" points="592.52,-263.966 603.027,-265.324 595.661,-257.71 592.52,-263.966"/>
</g>
<!-- Node183 -->
<g id="node11" class="node"><title>Node183</title>
<g id="a_node11"><a xlink:href="$class_wi_fi_manager.html#a6a94f08eb43e0871932556a4ccfa11b7" xlink:title="WiFiManager::optionalIPFrom\lString">
<polygon fill="white" stroke="black" points="363.5,-153 363.5,-183 509.5,-183 509.5,-153 363.5,-153"/>
<text text-anchor="start" x="371.5" y="-171" font-family="Helvetica,sans-Serif" font-size="10.00">WiFiManager::optionalIPFrom</text>
<text text-anchor="middle" x="436.5" y="-160" font-family="Helvetica,sans-Serif" font-size="10.00">String</text>
</a>
</g>
</g>
<!-- Node182&#45;&gt;Node183 -->
<g id="edge14" class="edge"><title>Node182&#45;&gt;Node183</title>
<path fill="none" stroke="midnightblue" d="M287.119,-202.453C308.645,-197.455 335.677,-191.178 360.752,-185.356"/>
<polygon fill="midnightblue" stroke="midnightblue" points="361.667,-188.736 370.616,-183.065 360.084,-181.918 361.667,-188.736"/>
</g>
<!-- Node184&#45;&gt;Node174 -->
<g id="edge16" class="edge"><title>Node184&#45;&gt;Node174</title>
<path fill="none" stroke="midnightblue" d="M478.038,-366.425C490.552,-362.732 504.152,-357.94 516,-352 549.065,-335.423 582.758,-308.58 602.768,-291.367"/>
<polygon fill="midnightblue" stroke="midnightblue" points="605.24,-293.854 610.464,-284.637 600.632,-288.585 605.24,-293.854"/>
</g>
<!-- Node185&#45;&gt;Node174 -->
<g id="edge18" class="edge"><title>Node185&#45;&gt;Node174</title>
<path fill="none" stroke="midnightblue" d="M277.903,-139.401C330.512,-125.448 437.451,-105.113 516,-143 565.051,-166.659 598.249,-225.607 612.74,-256.085"/>
<polygon fill="midnightblue" stroke="midnightblue" points="609.586,-257.604 616.933,-265.238 615.95,-254.688 609.586,-257.604"/>
</g>
<!-- Node186&#45;&gt;Node174 -->
<g id="edge20" class="edge"><title>Node186&#45;&gt;Node174</title>
<path fill="none" stroke="midnightblue" d="M300.185,-38.4738C358.565,-31.2536 451.719,-28.8625 516,-72 581.189,-115.747 608.333,-213.134 617.3,-255.113"/>
<polygon fill="midnightblue" stroke="midnightblue" points="613.921,-256.064 619.323,-265.179 620.783,-254.685 613.921,-256.064"/>
</g>
<!-- Node187 -->
<g id="node15" class="node"><title>Node187</title>
<g id="a_node15"><a xlink:href="$class_wi_fi_manager.html#a40f123fd290c3e331c9785d19a88f3b8" xlink:title="WiFiManager::getContentType">
<polygon fill="white" stroke="black" points="361.5,-0.5 361.5,-19.5 511.5,-19.5 511.5,-0.5 361.5,-0.5"/>
<text text-anchor="middle" x="436.5" y="-7.5" font-family="Helvetica,sans-Serif" font-size="10.00">WiFiManager::getContentType</text>
</a>
</g>
</g>
<!-- Node186&#45;&gt;Node187 -->
<g id="edge21" class="edge"><title>Node186&#45;&gt;Node187</title>
<path fill="none" stroke="midnightblue" d="M293.819,-38.411C319.389,-33.2835 351.059,-26.9328 377.968,-21.5368"/>
<polygon fill="midnightblue" stroke="midnightblue" points="378.908,-24.9179 388.025,-19.5201 377.532,-18.0546 378.908,-24.9179"/>
</g>
<!-- Node188&#45;&gt;Node176 -->
<g id="edge23" class="edge"><title>Node188&#45;&gt;Node176</title>
<path fill="none" stroke="midnightblue" d="M321.168,-452C333.196,-452 345.665,-452 357.753,-452"/>
<polygon fill="midnightblue" stroke="midnightblue" points="357.798,-455.5 367.798,-452 357.798,-448.5 357.798,-455.5"/>
</g>
</g>
</svg>
