<?xml version="1.0" encoding="UTF-8" standalone="no"?>
<!DOCTYPE svg PUBLIC "-//W3C//DTD SVG 1.1//EN"
 "http://www.w3.org/Graphics/SVG/1.1/DTD/svg11.dtd">
<!-- Generated by graphviz version 2.38.0 (20140413.2041)
 -->
<!-- Title: CoolPubSubClient::state Pages: 1 -->
<svg width="717pt" height="142pt"
 viewBox="0.00 0.00 717.00 142.00" xmlns="http://www.w3.org/2000/svg" xmlns:xlink="http://www.w3.org/1999/xlink">
<g id="graph0" class="graph" transform="scale(1 1) rotate(0) translate(4 138)">
<title>CoolPubSubClient::state</title>
<polygon fill="white" stroke="none" points="-4,4 -4,-138 713,-138 713,4 -4,4"/>
<!-- Node193 -->
<g id="node1" class="node"><title>Node193</title>
<polygon fill="#bfbfbf" stroke="black" points="0,-57.5 0,-76.5 125,-76.5 125,-57.5 0,-57.5"/>
<text text-anchor="middle" x="62.5" y="-64.5" font-family="Helvetica,sans-Serif" font-size="10.00">CoolPubSubClient::state</text>
</g>
<!-- Node194 -->
<g id="node2" class="node"><title>Node194</title>
<g id="a_node2"><a xlink:href="$class_cool_m_q_t_t.html#a5d003307eff78efbd585e42b43b72b6d" xlink:title="CoolMQTT::state">
<polygon fill="white" stroke="black" points="161,-57.5 161,-76.5 253,-76.5 253,-57.5 161,-57.5"/>
<text text-anchor="middle" x="207" y="-64.5" font-family="Helvetica,sans-Serif" font-size="10.00">CoolMQTT::state</text>
</a>
</g>
</g>
<!-- Node193&#45;&gt;Node194 -->
<g id="edge1" class="edge"><title>Node193&#45;&gt;Node194</title>
<path fill="none" stroke="midnightblue" d="M135.385,-67C144.105,-67 152.813,-67 160.985,-67"/>
<polygon fill="midnightblue" stroke="midnightblue" points="135.174,-63.5001 125.174,-67 135.174,-70.5001 135.174,-63.5001"/>
</g>
<!-- Node195 -->
<g id="node3" class="node"><title>Node195</title>
<g id="a_node3"><a xlink:href="$class_cool_board.html#ad7442cf4b62c7b0d5bd62a0f75ffc065" xlink:title="CoolBoard::isConnected">
<polygon fill="white" stroke="black" points="289,-114.5 289,-133.5 412,-133.5 412,-114.5 289,-114.5"/>
<text text-anchor="middle" x="350.5" y="-121.5" font-family="Helvetica,sans-Serif" font-size="10.00">CoolBoard::isConnected</text>
</a>
</g>
</g>
<!-- Node194&#45;&gt;Node195 -->
<g id="edge2" class="edge"><title>Node194&#45;&gt;Node195</title>
<path fill="none" stroke="midnightblue" d="M241.027,-80.5358C255.705,-86.5308 273.203,-93.6489 289,-100 300.952,-104.805 314.257,-110.09 325.339,-114.474"/>
<polygon fill="midnightblue" stroke="midnightblue" points="241.952,-77.1328 231.371,-76.5881 239.303,-83.6122 241.952,-77.1328"/>
</g>
<!-- Node196 -->
<g id="node4" class="node"><title>Node196</title>
<g id="a_node4"><a xlink:href="$class_cool_board.html#a519de78b807f8ec6463ff484eb925918" xlink:title="CoolBoard::connect">
<polygon fill="white" stroke="black" points="448,-38.5 448,-57.5 551,-57.5 551,-38.5 448,-38.5"/>
<text text-anchor="middle" x="499.5" y="-45.5" font-family="Helvetica,sans-Serif" font-size="10.00">CoolBoard::connect</text>
</a>
</g>
</g>
<!-- Node194&#45;&gt;Node196 -->
<g id="edge3" class="edge"><title>Node194&#45;&gt;Node196</title>
<path fill="none" stroke="midnightblue" d="M263.215,-70.2136C304.357,-71.8293 361.851,-72.4429 412,-67 429.12,-65.1419 447.817,-61.273 463.433,-57.5083"/>
<polygon fill="midnightblue" stroke="midnightblue" points="263.262,-66.7126 253.122,-69.7844 262.964,-73.7062 263.262,-66.7126"/>
</g>
<!-- Node198 -->
<g id="node6" class="node"><title>Node198</title>
<g id="a_node6"><a xlink:href="$class_cool_board.html#ae6b5e1274d760462290192acea4adca8" xlink:title="CoolBoard::offLineMode">
<polygon fill="white" stroke="black" points="587,-0.5 587,-19.5 709,-19.5 709,-0.5 587,-0.5"/>
<text text-anchor="middle" x="648" y="-7.5" font-family="Helvetica,sans-Serif" font-size="10.00">CoolBoard::offLineMode</text>
</a>
</g>
</g>
<!-- Node194&#45;&gt;Node198 -->
<g id="edge6" class="edge"><title>Node194&#45;&gt;Node198</title>
<path fill="none" stroke="midnightblue" d="M232.721,-52.3394C248.303,-43.8876 269.162,-33.9776 289,-29 391.174,-3.36311 514.728,-3.32016 586.731,-6.23496"/>
<polygon fill="midnightblue" stroke="midnightblue" points="230.774,-49.4181 223.757,-57.3562 234.193,-55.5264 230.774,-49.4181"/>
</g>
<!-- Node199 -->
<g id="node7" class="node"><title>Node199</title>
<g id="a_node7"><a xlink:href="$class_cool_m_q_t_t.html#a50075d0ab23a327ab897fd6adad20eda" xlink:title="CoolMQTT::connect">
<polygon fill="white" stroke="black" points="298,-38.5 298,-57.5 403,-57.5 403,-38.5 298,-38.5"/>
<text text-anchor="middle" x="350.5" y="-45.5" font-family="Helvetica,sans-Serif" font-size="10.00">CoolMQTT::connect</text>
</a>
</g>
</g>
<!-- Node194&#45;&gt;Node199 -->
<g id="edge7" class="edge"><title>Node194&#45;&gt;Node199</title>
<path fill="none" stroke="midnightblue" d="M263.397,-59.5615C274.752,-58.0368 286.661,-56.4377 297.877,-54.9317"/>
<polygon fill="midnightblue" stroke="midnightblue" points="262.606,-56.1363 253.161,-60.936 263.537,-63.074 262.606,-56.1363"/>
</g>
<!-- Node197 -->
<g id="node5" class="node"><title>Node197</title>
<g id="a_node5"><a xlink:href="$class_cool_board.html#acba7c5aef7268b2c0044bdb54d3b9d76" xlink:title="CoolBoard::begin">
<polygon fill="white" stroke="black" points="602,-38.5 602,-57.5 694,-57.5 694,-38.5 602,-38.5"/>
<text text-anchor="middle" x="648" y="-45.5" font-family="Helvetica,sans-Serif" font-size="10.00">CoolBoard::begin</text>
</a>
</g>
</g>
<!-- Node196&#45;&gt;Node197 -->
<g id="edge4" class="edge"><title>Node196&#45;&gt;Node197</title>
<path fill="none" stroke="midnightblue" d="M561.472,-48C574.924,-48 588.944,-48 601.648,-48"/>
<polygon fill="midnightblue" stroke="midnightblue" points="561.327,-44.5001 551.327,-48 561.327,-51.5001 561.327,-44.5001"/>
</g>
<!-- Node196&#45;&gt;Node198 -->
<g id="edge5" class="edge"><title>Node196&#45;&gt;Node198</title>
<path fill="none" stroke="midnightblue" d="M547.195,-35.8879C567.599,-30.5956 591.181,-24.4787 610.298,-19.5201"/>
<polygon fill="midnightblue" stroke="midnightblue" points="546.269,-32.5123 537.468,-38.411 548.027,-39.288 546.269,-32.5123"/>
</g>
<!-- Node199&#45;&gt;Node196 -->
<g id="edge8" class="edge"><title>Node199&#45;&gt;Node196</title>
<path fill="none" stroke="midnightblue" d="M413.608,-48C424.952,-48 436.667,-48 447.636,-48"/>
<polygon fill="midnightblue" stroke="midnightblue" points="413.327,-44.5001 403.327,-48 413.327,-51.5001 413.327,-44.5001"/>
</g>
</g>
</svg>
