<?xml version="1.0" encoding="UTF-8" standalone="no"?>
<!DOCTYPE svg PUBLIC "-//W3C//DTD SVG 1.1//EN"
 "http://www.w3.org/Graphics/SVG/1.1/DTD/svg11.dtd">
<!-- Generated by graphviz version 2.38.0 (20140413.2041)
 -->
<!-- Title: BME280::writeRegister Pages: 1 -->
<svg width="537pt" height="66pt"
 viewBox="0.00 0.00 537.00 66.00" xmlns="http://www.w3.org/2000/svg" xmlns:xlink="http://www.w3.org/1999/xlink">
<g id="graph0" class="graph" transform="scale(1 1) rotate(0) translate(4 62)">
<title>BME280::writeRegister</title>
<polygon fill="white" stroke="none" points="-4,4 -4,-62 533,-62 533,4 -4,4"/>
<!-- Node75 -->
<g id="node1" class="node"><title>Node75</title>
<polygon fill="#bfbfbf" stroke="black" points="0,-19.5 0,-38.5 118,-38.5 118,-19.5 0,-19.5"/>
<text text-anchor="middle" x="59" y="-26.5" font-family="Helvetica,sans-Serif" font-size="10.00">BME280::writeRegister</text>
</g>
<!-- Node76 -->
<g id="node2" class="node"><title>Node76</title>
<g id="a_node2"><a xlink:href="$class_b_m_e280.html#a994c102f010547f9c740a338ef9905c7" xlink:title="BME280::begin">
<polygon fill="white" stroke="black" points="154,-38.5 154,-57.5 237,-57.5 237,-38.5 154,-38.5"/>
<text text-anchor="middle" x="195.5" y="-45.5" font-family="Helvetica,sans-Serif" font-size="10.00">BME280::begin</text>
</a>
</g>
</g>
<!-- Node75&#45;&gt;Node76 -->
<g id="edge1" class="edge"><title>Node75&#45;&gt;Node76</title>
<path fill="none" stroke="midnightblue" d="M128.333,-38.6529C136.974,-39.8737 145.592,-41.0911 153.615,-42.2244"/>
<polygon fill="midnightblue" stroke="midnightblue" points="128.603,-35.1564 118.211,-37.2232 127.623,-42.0876 128.603,-35.1564"/>
</g>
<!-- Node79 -->
<g id="node5" class="node"><title>Node79</title>
<g id="a_node5"><a xlink:href="$class_b_m_e280.html#aeec5deb6daace6ae390108b4210e9df7" xlink:title="BME280::reset">
<polygon fill="white" stroke="black" points="154.5,-0.5 154.5,-19.5 236.5,-19.5 236.5,-0.5 154.5,-0.5"/>
<text text-anchor="middle" x="195.5" y="-7.5" font-family="Helvetica,sans-Serif" font-size="10.00">BME280::reset</text>
</a>
</g>
</g>
<!-- Node75&#45;&gt;Node79 -->
<g id="edge4" class="edge"><title>Node75&#45;&gt;Node79</title>
<path fill="none" stroke="midnightblue" d="M128.286,-19.3537C137.229,-18.0903 146.148,-16.8303 154.41,-15.6632"/>
<polygon fill="midnightblue" stroke="midnightblue" points="127.623,-15.9124 118.211,-20.7768 128.603,-22.8436 127.623,-15.9124"/>
</g>
<!-- Node77 -->
<g id="node3" class="node"><title>Node77</title>
<g id="a_node3"><a xlink:href="$class_cool_board_sensors.html#a97095823ef7c8f5290812f1405b966b3" xlink:title="CoolBoardSensors::begin">
<polygon fill="white" stroke="black" points="273,-38.5 273,-57.5 401,-57.5 401,-38.5 273,-38.5"/>
<text text-anchor="middle" x="337" y="-45.5" font-family="Helvetica,sans-Serif" font-size="10.00">CoolBoardSensors::begin</text>
</a>
</g>
</g>
<!-- Node76&#45;&gt;Node77 -->
<g id="edge2" class="edge"><title>Node76&#45;&gt;Node77</title>
<path fill="none" stroke="midnightblue" d="M247.461,-48C255.735,-48 264.389,-48 272.91,-48"/>
<polygon fill="midnightblue" stroke="midnightblue" points="247.224,-44.5001 237.224,-48 247.224,-51.5001 247.224,-44.5001"/>
</g>
<!-- Node78 -->
<g id="node4" class="node"><title>Node78</title>
<g id="a_node4"><a xlink:href="$class_cool_board.html#acba7c5aef7268b2c0044bdb54d3b9d76" xlink:title="CoolBoard::begin">
<polygon fill="white" stroke="black" points="437,-38.5 437,-57.5 529,-57.5 529,-38.5 437,-38.5"/>
<text text-anchor="middle" x="483" y="-45.5" font-family="Helvetica,sans-Serif" font-size="10.00">CoolBoard::begin</text>
</a>
</g>
</g>
<!-- Node77&#45;&gt;Node78 -->
<g id="edge3" class="edge"><title>Node77&#45;&gt;Node78</title>
<path fill="none" stroke="midnightblue" d="M411.283,-48C419.922,-48 428.536,-48 436.627,-48"/>
<polygon fill="midnightblue" stroke="midnightblue" points="411.161,-44.5001 401.16,-48 411.16,-51.5001 411.161,-44.5001"/>
</g>
</g>
</svg>
