<?xml version="1.0" encoding="UTF-8" standalone="no"?>
<!DOCTYPE svg PUBLIC "-//W3C//DTD SVG 1.1//EN"
 "http://www.w3.org/Graphics/SVG/1.1/DTD/svg11.dtd">
<!-- Generated by graphviz version 2.38.0 (20140413.2041)
 -->
<!-- Title: NDIR_I2C::parse Pages: 1 -->
<svg width="372pt" height="28pt"
 viewBox="0.00 0.00 372.00 28.00" xmlns="http://www.w3.org/2000/svg" xmlns:xlink="http://www.w3.org/1999/xlink">
<g id="graph0" class="graph" transform="scale(1 1) rotate(0) translate(4 24)">
<title>NDIR_I2C::parse</title>
<polygon fill="white" stroke="none" points="-4,4 -4,-24 368,-24 368,4 -4,4"/>
<!-- Node19 -->
<g id="node1" class="node"><title>Node19</title>
<polygon fill="#bfbfbf" stroke="black" points="0,-0.5 0,-19.5 93,-19.5 93,-0.5 0,-0.5"/>
<text text-anchor="middle" x="46.5" y="-7.5" font-family="Helvetica,sans-Serif" font-size="10.00">NDIR_I2C::parse</text>
</g>
<!-- Node20 -->
<g id="node2" class="node"><title>Node20</title>
<g id="a_node2"><a xlink:href="$class_n_d_i_r___i2_c.html#ab8f50d38501d498b802b822bd4844ede" xlink:title="NDIR_I2C::measure">
<polygon fill="white" stroke="black" points="129,-0.5 129,-19.5 236,-19.5 236,-0.5 129,-0.5"/>
<text text-anchor="middle" x="182.5" y="-7.5" font-family="Helvetica,sans-Serif" font-size="10.00">NDIR_I2C::measure</text>
</a>
</g>
</g>
<!-- Node19&#45;&gt;Node20 -->
<g id="edge1" class="edge"><title>Node19&#45;&gt;Node20</title>
<path fill="none" stroke="midnightblue" d="M103.295,-10C111.665,-10 120.275,-10 128.583,-10"/>
<polygon fill="midnightblue" stroke="midnightblue" points="103.24,-6.5001 93.2404,-10 103.24,-13.5001 103.24,-6.5001"/>
</g>
<!-- Node21 -->
<g id="node3" class="node"><title>Node21</title>
<g id="a_node3"><a xlink:href="$class_n_d_i_r___i2_c.html#acf82f3dcb41e75709a93f8b68d087a3c" xlink:title="NDIR_I2C::begin">
<polygon fill="white" stroke="black" points="272,-0.5 272,-19.5 364,-19.5 364,-0.5 272,-0.5"/>
<text text-anchor="middle" x="318" y="-7.5" font-family="Helvetica,sans-Serif" font-size="10.00">NDIR_I2C::begin</text>
</a>
</g>
</g>
<!-- Node20&#45;&gt;Node21 -->
<g id="edge2" class="edge"><title>Node20&#45;&gt;Node21</title>
<path fill="none" stroke="midnightblue" d="M246.335,-10C254.979,-10 263.711,-10 271.948,-10"/>
<polygon fill="midnightblue" stroke="midnightblue" points="246.263,-6.5001 236.263,-10 246.263,-13.5001 246.263,-6.5001"/>
</g>
</g>
</svg>
