<?xml version="1.0" encoding="UTF-8" standalone="no"?>
<!DOCTYPE svg PUBLIC "-//W3C//DTD SVG 1.1//EN"
 "http://www.w3.org/Graphics/SVG/1.1/DTD/svg11.dtd">
<!-- Generated by graphviz version 2.38.0 (20140413.2041)
 -->
<!-- Title: CoolBoardActor::mixedHourAction Pages: 1 -->
<svg width="471pt" height="66pt"
 viewBox="0.00 0.00 471.00 66.00" xmlns="http://www.w3.org/2000/svg" xmlns:xlink="http://www.w3.org/1999/xlink">
<g id="graph0" class="graph" transform="scale(1 1) rotate(0) translate(4 62)">
<title>CoolBoardActor::mixedHourAction</title>
<polygon fill="white" stroke="none" points="-4,4 -4,-62 467,-62 467,4 -4,4"/>
<!-- Node49 -->
<g id="node1" class="node"><title>Node49</title>
<polygon fill="#bfbfbf" stroke="black" points="0,-14 0,-44 139,-44 139,-14 0,-14"/>
<text text-anchor="start" x="8" y="-32" font-family="Helvetica,sans-Serif" font-size="10.00">CoolBoardActor::mixedHour</text>
<text text-anchor="middle" x="69.5" y="-21" font-family="Helvetica,sans-Serif" font-size="10.00">Action</text>
</g>
<!-- Node50 -->
<g id="node2" class="node"><title>Node50</title>
<g id="a_node2"><a xlink:href="$class_cool_board_actor.html#a3323ba7aaa4bef3ff084dcd830fe9b61" xlink:title="CoolBoardActor::doAction">
<polygon fill="white" stroke="black" points="175,-19.5 175,-38.5 305,-38.5 305,-19.5 175,-19.5"/>
<text text-anchor="middle" x="240" y="-26.5" font-family="Helvetica,sans-Serif" font-size="10.00">CoolBoardActor::doAction</text>
</a>
</g>
</g>
<!-- Node49&#45;&gt;Node50 -->
<g id="edge1" class="edge"><title>Node49&#45;&gt;Node50</title>
<path fill="none" stroke="midnightblue" d="M149.11,-29C157.741,-29 166.451,-29 174.877,-29"/>
<polygon fill="midnightblue" stroke="midnightblue" points="149.035,-25.5001 139.035,-29 149.035,-32.5001 149.035,-25.5001"/>
</g>
<!-- Node51 -->
<g id="node3" class="node"><title>Node51</title>
<g id="a_node3"><a xlink:href="$class_cool_board.html#aa0bbc4bc605e35618d18e68795c61363" xlink:title="CoolBoard::onLineMode">
<polygon fill="white" stroke="black" points="341.5,-38.5 341.5,-57.5 462.5,-57.5 462.5,-38.5 341.5,-38.5"/>
<text text-anchor="middle" x="402" y="-45.5" font-family="Helvetica,sans-Serif" font-size="10.00">CoolBoard::onLineMode</text>
</a>
</g>
</g>
<!-- Node50&#45;&gt;Node51 -->
<g id="edge2" class="edge"><title>Node50&#45;&gt;Node51</title>
<path fill="none" stroke="midnightblue" d="M315.371,-37.8316C324.13,-38.8717 332.98,-39.9226 341.497,-40.934"/>
<polygon fill="midnightblue" stroke="midnightblue" points="315.499,-34.3223 305.156,-36.6185 314.674,-41.2734 315.499,-34.3223"/>
</g>
<!-- Node52 -->
<g id="node4" class="node"><title>Node52</title>
<g id="a_node4"><a xlink:href="$class_cool_board.html#ae6b5e1274d760462290192acea4adca8" xlink:title="CoolBoard::offLineMode">
<polygon fill="white" stroke="black" points="341,-0.5 341,-19.5 463,-19.5 463,-0.5 341,-0.5"/>
<text text-anchor="middle" x="402" y="-7.5" font-family="Helvetica,sans-Serif" font-size="10.00">CoolBoard::offLineMode</text>
</a>
</g>
</g>
<!-- Node50&#45;&gt;Node52 -->
<g id="edge3" class="edge"><title>Node50&#45;&gt;Node52</title>
<path fill="none" stroke="midnightblue" d="M315.222,-20.1861C323.853,-19.1612 332.574,-18.1255 340.981,-17.1273"/>
<polygon fill="midnightblue" stroke="midnightblue" points="314.674,-16.7266 305.156,-21.3815 315.499,-23.6777 314.674,-16.7266"/>
</g>
</g>
</svg>
