<?xml version="1.0" encoding="UTF-8" standalone="no"?>
<!DOCTYPE svg PUBLIC "-//W3C//DTD SVG 1.1//EN"
 "http://www.w3.org/Graphics/SVG/1.1/DTD/svg11.dtd">
<!-- Generated by graphviz version 2.38.0 (20140413.2041)
 -->
<!-- Title: NDIR_I2C::read_register Pages: 1 -->
<svg width="541pt" height="66pt"
 viewBox="0.00 0.00 541.00 66.00" xmlns="http://www.w3.org/2000/svg" xmlns:xlink="http://www.w3.org/1999/xlink">
<g id="graph0" class="graph" transform="scale(1 1) rotate(0) translate(4 62)">
<title>NDIR_I2C::read_register</title>
<polygon fill="white" stroke="none" points="-4,4 -4,-62 537,-62 537,4 -4,4"/>
<!-- Node23 -->
<g id="node1" class="node"><title>Node23</title>
<polygon fill="#bfbfbf" stroke="black" points="0,-19.5 0,-38.5 125,-38.5 125,-19.5 0,-19.5"/>
<text text-anchor="middle" x="62.5" y="-26.5" font-family="Helvetica,sans-Serif" font-size="10.00">NDIR_I2C::read_register</text>
</g>
<!-- Node24 -->
<g id="node2" class="node"><title>Node24</title>
<g id="a_node2"><a xlink:href="$class_n_d_i_r___i2_c.html#aab0c04c2b7d08e99d12af044df179f0c" xlink:title="NDIR_I2C::send">
<polygon fill="white" stroke="black" points="166.5,-38.5 166.5,-57.5 256.5,-57.5 256.5,-38.5 166.5,-38.5"/>
<text text-anchor="middle" x="211.5" y="-45.5" font-family="Helvetica,sans-Serif" font-size="10.00">NDIR_I2C::send</text>
</a>
</g>
</g>
<!-- Node23&#45;&gt;Node24 -->
<g id="edge1" class="edge"><title>Node23&#45;&gt;Node24</title>
<path fill="none" stroke="midnightblue" d="M135.403,-38.2936C145.864,-39.6457 156.368,-41.0033 166.066,-42.2569"/>
<polygon fill="midnightblue" stroke="midnightblue" points="135.781,-34.8135 125.415,-37.0026 134.884,-41.7557 135.781,-34.8135"/>
</g>
<!-- Node27 -->
<g id="node5" class="node"><title>Node27</title>
<g id="a_node5"><a xlink:href="$class_n_d_i_r___i2_c.html#aa6d2b8dd287f9c9015461cebb18f9abc" xlink:title="NDIR_I2C::receive">
<polygon fill="white" stroke="black" points="161,-0.5 161,-19.5 262,-19.5 262,-0.5 161,-0.5"/>
<text text-anchor="middle" x="211.5" y="-7.5" font-family="Helvetica,sans-Serif" font-size="10.00">NDIR_I2C::receive</text>
</a>
</g>
</g>
<!-- Node23&#45;&gt;Node27 -->
<g id="edge4" class="edge"><title>Node23&#45;&gt;Node27</title>
<path fill="none" stroke="midnightblue" d="M135.415,-19.7049C143.968,-18.5994 152.549,-17.4903 160.696,-16.4373"/>
<polygon fill="midnightblue" stroke="midnightblue" points="134.884,-16.2443 125.415,-20.9974 135.781,-23.1865 134.884,-16.2443"/>
</g>
<!-- Node25 -->
<g id="node3" class="node"><title>Node25</title>
<g id="a_node3"><a xlink:href="$class_n_d_i_r___i2_c.html#ab8f50d38501d498b802b822bd4844ede" xlink:title="NDIR_I2C::measure">
<polygon fill="white" stroke="black" points="298,-19.5 298,-38.5 405,-38.5 405,-19.5 298,-19.5"/>
<text text-anchor="middle" x="351.5" y="-26.5" font-family="Helvetica,sans-Serif" font-size="10.00">NDIR_I2C::measure</text>
</a>
</g>
</g>
<!-- Node24&#45;&gt;Node25 -->
<g id="edge2" class="edge"><title>Node24&#45;&gt;Node25</title>
<path fill="none" stroke="midnightblue" d="M266.588,-40.5531C276.822,-39.1441 287.515,-37.6718 297.708,-36.2684"/>
<polygon fill="midnightblue" stroke="midnightblue" points="265.973,-37.1047 256.543,-41.936 266.927,-44.0393 265.973,-37.1047"/>
</g>
<!-- Node26 -->
<g id="node4" class="node"><title>Node26</title>
<g id="a_node4"><a xlink:href="$class_n_d_i_r___i2_c.html#acf82f3dcb41e75709a93f8b68d087a3c" xlink:title="NDIR_I2C::begin">
<polygon fill="white" stroke="black" points="441,-19.5 441,-38.5 533,-38.5 533,-19.5 441,-19.5"/>
<text text-anchor="middle" x="487" y="-26.5" font-family="Helvetica,sans-Serif" font-size="10.00">NDIR_I2C::begin</text>
</a>
</g>
</g>
<!-- Node25&#45;&gt;Node26 -->
<g id="edge3" class="edge"><title>Node25&#45;&gt;Node26</title>
<path fill="none" stroke="midnightblue" d="M415.335,-29C423.979,-29 432.711,-29 440.948,-29"/>
<polygon fill="midnightblue" stroke="midnightblue" points="415.263,-25.5001 405.263,-29 415.263,-32.5001 415.263,-25.5001"/>
</g>
<!-- Node27&#45;&gt;Node25 -->
<g id="edge5" class="edge"><title>Node27&#45;&gt;Node25</title>
<path fill="none" stroke="midnightblue" d="M272.246,-18.2259C280.803,-19.4041 289.554,-20.6089 297.959,-21.7661"/>
<polygon fill="midnightblue" stroke="midnightblue" points="272.705,-14.7562 262.321,-16.8594 271.75,-21.6908 272.705,-14.7562"/>
</g>
</g>
</svg>
