<?xml version="1.0" encoding="UTF-8" standalone="no"?>
<!DOCTYPE svg PUBLIC "-//W3C//DTD SVG 1.1//EN"
 "http://www.w3.org/Graphics/SVG/1.1/DTD/svg11.dtd">
<!-- Generated by graphviz version 2.38.0 (20140413.2041)
 -->
<!-- Title: CoolPubSubClient::unsubscribe Pages: 1 -->
<svg width="348pt" height="104pt"
 viewBox="0.00 0.00 348.00 104.00" xmlns="http://www.w3.org/2000/svg" xmlns:xlink="http://www.w3.org/1999/xlink">
<g id="graph0" class="graph" transform="scale(1 1) rotate(0) translate(4 100)">
<title>CoolPubSubClient::unsubscribe</title>
<polygon fill="white" stroke="none" points="-4,4 -4,-100 344,-100 344,4 -4,4"/>
<!-- Node211 -->
<g id="node1" class="node"><title>Node211</title>
<polygon fill="#bfbfbf" stroke="black" points="0,-38.5 0,-57.5 155,-57.5 155,-38.5 0,-38.5"/>
<text text-anchor="middle" x="77.5" y="-45.5" font-family="Helvetica,sans-Serif" font-size="10.00">CoolPubSubClient::unsubscribe</text>
</g>
<!-- Node212 -->
<g id="node2" class="node"><title>Node212</title>
<g id="a_node2"><a xlink:href="$class_cool_pub_sub_client.html#a3d5a5da4ddb1e5c1bea64d80c665d148" xlink:title="CoolPubSubClient::connected">
<polygon fill="white" stroke="black" points="191.5,-76.5 191.5,-95.5 339.5,-95.5 339.5,-76.5 191.5,-76.5"/>
<text text-anchor="middle" x="265.5" y="-83.5" font-family="Helvetica,sans-Serif" font-size="10.00">CoolPubSubClient::connected</text>
</a>
</g>
</g>
<!-- Node211&#45;&gt;Node212 -->
<g id="edge1" class="edge"><title>Node211&#45;&gt;Node212</title>
<path fill="none" stroke="midnightblue" d="M125.436,-57.589C150.533,-62.7165 181.619,-69.0672 208.03,-74.4632"/>
<polygon fill="midnightblue" stroke="midnightblue" points="207.404,-77.9074 217.902,-76.4799 208.805,-71.049 207.404,-77.9074"/>
</g>
<!-- Node213 -->
<g id="node3" class="node"><title>Node213</title>
<g id="a_node3"><a xlink:href="$class_cool_pub_sub_client.html#a0e3d7e776d4cf4427f9569b28868905a" xlink:title="CoolPubSubClient::writeString">
<polygon fill="white" stroke="black" points="191,-38.5 191,-57.5 340,-57.5 340,-38.5 191,-38.5"/>
<text text-anchor="middle" x="265.5" y="-45.5" font-family="Helvetica,sans-Serif" font-size="10.00">CoolPubSubClient::writeString</text>
</a>
</g>
</g>
<!-- Node211&#45;&gt;Node213 -->
<g id="edge2" class="edge"><title>Node211&#45;&gt;Node213</title>
<path fill="none" stroke="midnightblue" d="M155.227,-48C163.622,-48 172.2,-48 180.675,-48"/>
<polygon fill="midnightblue" stroke="midnightblue" points="180.942,-51.5001 190.942,-48 180.942,-44.5001 180.942,-51.5001"/>
</g>
<!-- Node214 -->
<g id="node4" class="node"><title>Node214</title>
<g id="a_node4"><a xlink:href="$class_cool_pub_sub_client.html#a7a8e4854a1846eaa668046d3854d47ad" xlink:title="CoolPubSubClient::write">
<polygon fill="white" stroke="black" points="203.5,-0.5 203.5,-19.5 327.5,-19.5 327.5,-0.5 203.5,-0.5"/>
<text text-anchor="middle" x="265.5" y="-7.5" font-family="Helvetica,sans-Serif" font-size="10.00">CoolPubSubClient::write</text>
</a>
</g>
</g>
<!-- Node211&#45;&gt;Node214 -->
<g id="edge3" class="edge"><title>Node211&#45;&gt;Node214</title>
<path fill="none" stroke="midnightblue" d="M125.436,-38.411C150.533,-33.2835 181.619,-26.9328 208.03,-21.5368"/>
<polygon fill="midnightblue" stroke="midnightblue" points="208.805,-24.951 217.902,-19.5201 207.404,-18.0926 208.805,-24.951"/>
</g>
</g>
</svg>
