<?xml version="1.0" encoding="UTF-8" standalone="no"?>
<!DOCTYPE svg PUBLIC "-//W3C//DTD SVG 1.1//EN"
 "http://www.w3.org/Graphics/SVG/1.1/DTD/svg11.dtd">
<!-- Generated by graphviz version 2.38.0 (20140413.2041)
 -->
<!-- Title: WiFiManager::optionalIPFromString Pages: 1 -->
<svg width="672pt" height="39pt"
 viewBox="0.00 0.00 672.00 39.00" xmlns="http://www.w3.org/2000/svg" xmlns:xlink="http://www.w3.org/1999/xlink">
<g id="graph0" class="graph" transform="scale(1 1) rotate(0) translate(4 35)">
<title>WiFiManager::optionalIPFromString</title>
<polygon fill="white" stroke="none" points="-4,4 -4,-35 668,-35 668,4 -4,4"/>
<!-- Node122 -->
<g id="node1" class="node"><title>Node122</title>
<polygon fill="#bfbfbf" stroke="black" points="0,-0.5 0,-30.5 146,-30.5 146,-0.5 0,-0.5"/>
<text text-anchor="start" x="8" y="-18.5" font-family="Helvetica,sans-Serif" font-size="10.00">WiFiManager::optionalIPFrom</text>
<text text-anchor="middle" x="73" y="-7.5" font-family="Helvetica,sans-Serif" font-size="10.00">String</text>
</g>
<!-- Node123 -->
<g id="node2" class="node"><title>Node123</title>
<g id="a_node2"><a xlink:href="$class_wi_fi_manager.html#a2a8c2b60aa86dfdeab8a1a90f7122dc7" xlink:title="WiFiManager::handleWifiSave">
<polygon fill="white" stroke="black" points="182,-6 182,-25 331,-25 331,-6 182,-6"/>
<text text-anchor="middle" x="256.5" y="-13" font-family="Helvetica,sans-Serif" font-size="10.00">WiFiManager::handleWifiSave</text>
</a>
</g>
</g>
<!-- Node122&#45;&gt;Node123 -->
<g id="edge1" class="edge"><title>Node122&#45;&gt;Node123</title>
<path fill="none" stroke="midnightblue" d="M156.458,-15.5C164.878,-15.5 173.393,-15.5 181.712,-15.5"/>
<polygon fill="midnightblue" stroke="midnightblue" points="156.255,-12.0001 146.255,-15.5 156.255,-19.0001 156.255,-12.0001"/>
</g>
<!-- Node124 -->
<g id="node3" class="node"><title>Node124</title>
<g id="a_node3"><a xlink:href="$class_wi_fi_manager.html#a1743325d0dd86d011df96b22d2a0ddd6" xlink:title="WiFiManager::setupConfig\lPortal">
<polygon fill="white" stroke="black" points="367,-0.5 367,-30.5 500,-30.5 500,-0.5 367,-0.5"/>
<text text-anchor="start" x="375" y="-18.5" font-family="Helvetica,sans-Serif" font-size="10.00">WiFiManager::setupConfig</text>
<text text-anchor="middle" x="433.5" y="-7.5" font-family="Helvetica,sans-Serif" font-size="10.00">Portal</text>
</a>
</g>
</g>
<!-- Node123&#45;&gt;Node124 -->
<g id="edge2" class="edge"><title>Node123&#45;&gt;Node124</title>
<path fill="none" stroke="midnightblue" d="M341.28,-15.5C349.896,-15.5 358.56,-15.5 366.937,-15.5"/>
<polygon fill="midnightblue" stroke="midnightblue" points="341.209,-12.0001 331.209,-15.5 341.209,-19.0001 341.209,-12.0001"/>
</g>
<!-- Node125 -->
<g id="node4" class="node"><title>Node125</title>
<g id="a_node4"><a xlink:href="$class_wi_fi_manager.html#afaca5021edffb4d9a5bd39f7b0f7a686" xlink:title="WiFiManager::startConfig\lPortal">
<polygon fill="white" stroke="black" points="536,-0.5 536,-30.5 664,-30.5 664,-0.5 536,-0.5"/>
<text text-anchor="start" x="544" y="-18.5" font-family="Helvetica,sans-Serif" font-size="10.00">WiFiManager::startConfig</text>
<text text-anchor="middle" x="600" y="-7.5" font-family="Helvetica,sans-Serif" font-size="10.00">Portal</text>
</a>
</g>
</g>
<!-- Node124&#45;&gt;Node125 -->
<g id="edge3" class="edge"><title>Node124&#45;&gt;Node125</title>
<path fill="none" stroke="midnightblue" d="M510.706,-15.5C519.16,-15.5 527.699,-15.5 535.964,-15.5"/>
<polygon fill="midnightblue" stroke="midnightblue" points="510.461,-12.0001 500.461,-15.5 510.461,-19.0001 510.461,-12.0001"/>
</g>
</g>
</svg>
