<?xml version="1.0" encoding="UTF-8" standalone="no"?>
<!DOCTYPE svg PUBLIC "-//W3C//DTD SVG 1.1//EN"
 "http://www.w3.org/Graphics/SVG/1.1/DTD/svg11.dtd">
<!-- Generated by graphviz version 2.38.0 (20140413.2041)
 -->
<!-- Title: CoolBoard::isConnected Pages: 1 -->
<svg width="420pt" height="66pt"
 viewBox="0.00 0.00 420.00 66.00" xmlns="http://www.w3.org/2000/svg" xmlns:xlink="http://www.w3.org/1999/xlink">
<g id="graph0" class="graph" transform="scale(1 1) rotate(0) translate(4 62)">
<title>CoolBoard::isConnected</title>
<polygon fill="white" stroke="none" points="-4,4 -4,-62 416,-62 416,4 -4,4"/>
<!-- Node132 -->
<g id="node1" class="node"><title>Node132</title>
<polygon fill="#bfbfbf" stroke="black" points="0,-19.5 0,-38.5 123,-38.5 123,-19.5 0,-19.5"/>
<text text-anchor="middle" x="61.5" y="-26.5" font-family="Helvetica,sans-Serif" font-size="10.00">CoolBoard::isConnected</text>
</g>
<!-- Node133 -->
<g id="node2" class="node"><title>Node133</title>
<g id="a_node2"><a xlink:href="$class_cool_wifi.html#a1c7b4d82a4098d346e7593dce92039fa" xlink:title="CoolWifi::state">
<polygon fill="white" stroke="black" points="164,-38.5 164,-57.5 246,-57.5 246,-38.5 164,-38.5"/>
<text text-anchor="middle" x="205" y="-45.5" font-family="Helvetica,sans-Serif" font-size="10.00">CoolWifi::state</text>
</a>
</g>
</g>
<!-- Node132&#45;&gt;Node133 -->
<g id="edge1" class="edge"><title>Node132&#45;&gt;Node133</title>
<path fill="none" stroke="midnightblue" d="M123.33,-37.168C133.448,-38.5266 143.842,-39.9223 153.662,-41.2409"/>
<polygon fill="midnightblue" stroke="midnightblue" points="153.276,-44.7203 163.653,-42.5824 154.208,-37.7826 153.276,-44.7203"/>
</g>
<!-- Node134 -->
<g id="node3" class="node"><title>Node134</title>
<g id="a_node3"><a xlink:href="$class_cool_m_q_t_t.html#a5d003307eff78efbd585e42b43b72b6d" xlink:title="CoolMQTT::state">
<polygon fill="white" stroke="black" points="159,-0.5 159,-19.5 251,-19.5 251,-0.5 159,-0.5"/>
<text text-anchor="middle" x="205" y="-7.5" font-family="Helvetica,sans-Serif" font-size="10.00">CoolMQTT::state</text>
</a>
</g>
</g>
<!-- Node132&#45;&gt;Node134 -->
<g id="edge2" class="edge"><title>Node132&#45;&gt;Node134</title>
<path fill="none" stroke="midnightblue" d="M123.33,-20.832C131.744,-19.7022 140.349,-18.5468 148.656,-17.4314"/>
<polygon fill="midnightblue" stroke="midnightblue" points="149.163,-20.8948 158.608,-16.095 148.231,-13.9571 149.163,-20.8948"/>
</g>
<!-- Node135 -->
<g id="node4" class="node"><title>Node135</title>
<g id="a_node4"><a xlink:href="$class_cool_pub_sub_client.html#a3245a5afc6d22e61270dcfe392ccb866" xlink:title="CoolPubSubClient::state">
<polygon fill="white" stroke="black" points="287,-0.5 287,-19.5 412,-19.5 412,-0.5 287,-0.5"/>
<text text-anchor="middle" x="349.5" y="-7.5" font-family="Helvetica,sans-Serif" font-size="10.00">CoolPubSubClient::state</text>
</a>
</g>
</g>
<!-- Node134&#45;&gt;Node135 -->
<g id="edge3" class="edge"><title>Node134&#45;&gt;Node135</title>
<path fill="none" stroke="midnightblue" d="M251.088,-10C259.234,-10 267.91,-10 276.599,-10"/>
<polygon fill="midnightblue" stroke="midnightblue" points="276.774,-13.5001 286.774,-10 276.774,-6.5001 276.774,-13.5001"/>
</g>
</g>
</svg>
