<?xml version="1.0" encoding="UTF-8" standalone="no"?>
<!DOCTYPE svg PUBLIC "-//W3C//DTD SVG 1.1//EN"
 "http://www.w3.org/Graphics/SVG/1.1/DTD/svg11.dtd">
<!-- Generated by graphviz version 2.38.0 (20140413.2041)
 -->
<!-- Title: CoolSI114X::ReadByte Pages: 1 -->
<svg width="934pt" height="142pt"
 viewBox="0.00 0.00 934.00 142.00" xmlns="http://www.w3.org/2000/svg" xmlns:xlink="http://www.w3.org/1999/xlink">
<g id="graph0" class="graph" transform="scale(1 1) rotate(0) translate(4 138)">
<title>CoolSI114X::ReadByte</title>
<polygon fill="white" stroke="none" points="-4,4 -4,-138 930,-138 930,4 -4,4"/>
<!-- Node19 -->
<g id="node1" class="node"><title>Node19</title>
<polygon fill="#bfbfbf" stroke="black" points="0,-57.5 0,-76.5 119,-76.5 119,-57.5 0,-57.5"/>
<text text-anchor="middle" x="59.5" y="-64.5" font-family="Helvetica,sans-Serif" font-size="10.00">CoolSI114X::ReadByte</text>
</g>
<!-- Node20 -->
<g id="node2" class="node"><title>Node20</title>
<g id="a_node2"><a xlink:href="$class_cool_s_i114_x.html#a206b36aca7049f63be1d11088c30a09f" xlink:title="CoolSI114X::Begin">
<polygon fill="white" stroke="black" points="522.5,-0.5 522.5,-19.5 622.5,-19.5 622.5,-0.5 522.5,-0.5"/>
<text text-anchor="middle" x="572.5" y="-7.5" font-family="Helvetica,sans-Serif" font-size="10.00">CoolSI114X::Begin</text>
</a>
</g>
</g>
<!-- Node19&#45;&gt;Node20 -->
<g id="edge1" class="edge"><title>Node19&#45;&gt;Node20</title>
<path fill="none" stroke="midnightblue" d="M88.3346,-52.9116C106.751,-44.3251 131.711,-34.0604 155,-29 285.327,-0.682067 443.804,-3.28435 522.4,-6.96752"/>
<polygon fill="midnightblue" stroke="midnightblue" points="86.5953,-49.8638 79.0869,-57.3387 89.6179,-56.1776 86.5953,-49.8638"/>
</g>
<!-- Node23 -->
<g id="node5" class="node"><title>Node23</title>
<g id="a_node5"><a xlink:href="$class_cool_s_i114_x.html#a33cf431103c722442f6a0cc93848d640" xlink:title="CoolSI114X::ReadParamData">
<polygon fill="white" stroke="black" points="161.5,-76.5 161.5,-95.5 309.5,-95.5 309.5,-76.5 161.5,-76.5"/>
<text text-anchor="middle" x="235.5" y="-83.5" font-family="Helvetica,sans-Serif" font-size="10.00">CoolSI114X::ReadParamData</text>
</a>
</g>
</g>
<!-- Node19&#45;&gt;Node23 -->
<g id="edge4" class="edge"><title>Node19&#45;&gt;Node23</title>
<path fill="none" stroke="midnightblue" d="M129.379,-74.5212C139.919,-75.6722 150.83,-76.8637 161.457,-78.024"/>
<polygon fill="midnightblue" stroke="midnightblue" points="129.729,-71.0388 119.408,-73.4325 128.969,-77.9974 129.729,-71.0388"/>
</g>
<!-- Node24 -->
<g id="node6" class="node"><title>Node24</title>
<g id="a_node6"><a xlink:href="$class_cool_s_i114_x.html#abf45eb10a6de1be16e68a51624fa2608" xlink:title="CoolSI114X::WriteParamData">
<polygon fill="white" stroke="black" points="161.5,-38.5 161.5,-57.5 309.5,-57.5 309.5,-38.5 161.5,-38.5"/>
<text text-anchor="middle" x="235.5" y="-45.5" font-family="Helvetica,sans-Serif" font-size="10.00">CoolSI114X::WriteParamData</text>
</a>
</g>
</g>
<!-- Node19&#45;&gt;Node24 -->
<g id="edge5" class="edge"><title>Node19&#45;&gt;Node24</title>
<path fill="none" stroke="midnightblue" d="M129.379,-59.4788C139.919,-58.3278 150.83,-57.1363 161.457,-55.976"/>
<polygon fill="midnightblue" stroke="midnightblue" points="128.969,-56.0026 119.408,-60.5675 129.729,-62.9612 128.969,-56.0026"/>
</g>
<!-- Node31 -->
<g id="node13" class="node"><title>Node31</title>
<g id="a_node13"><a xlink:href="$class_cool_s_i114_x.html#a869d3825147831d707f7ef324a665646" xlink:title="CoolSI114X::ReadResponseReg">
<polygon fill="white" stroke="black" points="155,-114.5 155,-133.5 316,-133.5 316,-114.5 155,-114.5"/>
<text text-anchor="middle" x="235.5" y="-121.5" font-family="Helvetica,sans-Serif" font-size="10.00">CoolSI114X::ReadResponseReg</text>
</a>
</g>
</g>
<!-- Node19&#45;&gt;Node31 -->
<g id="edge13" class="edge"><title>Node19&#45;&gt;Node31</title>
<path fill="none" stroke="midnightblue" d="M90.8556,-80.5387C109.184,-88.3769 133.149,-98.0376 155,-105 166.087,-108.533 178.228,-111.752 189.611,-114.495"/>
<polygon fill="midnightblue" stroke="midnightblue" points="92.1318,-77.2773 81.5644,-76.5155 89.3502,-83.701 92.1318,-77.2773"/>
</g>
<!-- Node21 -->
<g id="node3" class="node"><title>Node21</title>
<g id="a_node3"><a xlink:href="$class_cool_board_sensors.html#a97095823ef7c8f5290812f1405b966b3" xlink:title="CoolBoardSensors::begin">
<polygon fill="white" stroke="black" points="670,-0.5 670,-19.5 798,-19.5 798,-0.5 670,-0.5"/>
<text text-anchor="middle" x="734" y="-7.5" font-family="Helvetica,sans-Serif" font-size="10.00">CoolBoardSensors::begin</text>
</a>
</g>
</g>
<!-- Node20&#45;&gt;Node21 -->
<g id="edge2" class="edge"><title>Node20&#45;&gt;Node21</title>
<path fill="none" stroke="midnightblue" d="M632.663,-10C644.798,-10 657.615,-10 669.884,-10"/>
<polygon fill="midnightblue" stroke="midnightblue" points="632.657,-6.5001 622.657,-10 632.657,-13.5001 632.657,-6.5001"/>
</g>
<!-- Node22 -->
<g id="node4" class="node"><title>Node22</title>
<g id="a_node4"><a xlink:href="$class_cool_board.html#acba7c5aef7268b2c0044bdb54d3b9d76" xlink:title="CoolBoard::begin">
<polygon fill="white" stroke="black" points="834,-0.5 834,-19.5 926,-19.5 926,-0.5 834,-0.5"/>
<text text-anchor="middle" x="880" y="-7.5" font-family="Helvetica,sans-Serif" font-size="10.00">CoolBoard::begin</text>
</a>
</g>
</g>
<!-- Node21&#45;&gt;Node22 -->
<g id="edge3" class="edge"><title>Node21&#45;&gt;Node22</title>
<path fill="none" stroke="midnightblue" d="M808.283,-10C816.922,-10 825.536,-10 833.627,-10"/>
<polygon fill="midnightblue" stroke="midnightblue" points="808.161,-6.5001 798.16,-10 808.16,-13.5001 808.161,-6.5001"/>
</g>
<!-- Node25 -->
<g id="node7" class="node"><title>Node25</title>
<g id="a_node7"><a xlink:href="$class_cool_board_sensors.html#a91badb2539d91fda8679f2a597874c48" xlink:title="CoolBoardSensors::read">
<polygon fill="white" stroke="black" points="352,-76.5 352,-95.5 475,-95.5 475,-76.5 352,-76.5"/>
<text text-anchor="middle" x="413.5" y="-83.5" font-family="Helvetica,sans-Serif" font-size="10.00">CoolBoardSensors::read</text>
</a>
</g>
</g>
<!-- Node24&#45;&gt;Node25 -->
<g id="edge6" class="edge"><title>Node24&#45;&gt;Node25</title>
<path fill="none" stroke="midnightblue" d="M290.933,-59.7526C315.819,-65.1258 344.919,-71.4086 368.407,-76.4799"/>
<polygon fill="midnightblue" stroke="midnightblue" points="291.426,-56.2784 280.912,-57.589 289.948,-63.1207 291.426,-56.2784"/>
</g>
<!-- Node29 -->
<g id="node11" class="node"><title>Node29</title>
<g id="a_node11"><a xlink:href="$class_cool_s_i114_x.html#a6840abd53a2e3d71a6bb918077c6d6e6" xlink:title="CoolSI114X::DeInit">
<polygon fill="white" stroke="black" points="363,-38.5 363,-57.5 464,-57.5 464,-38.5 363,-38.5"/>
<text text-anchor="middle" x="413.5" y="-45.5" font-family="Helvetica,sans-Serif" font-size="10.00">CoolSI114X::DeInit</text>
</a>
</g>
</g>
<!-- Node24&#45;&gt;Node29 -->
<g id="edge10" class="edge"><title>Node24&#45;&gt;Node29</title>
<path fill="none" stroke="midnightblue" d="M319.774,-48C334.524,-48 349.453,-48 362.894,-48"/>
<polygon fill="midnightblue" stroke="midnightblue" points="319.611,-44.5001 309.611,-48 319.611,-51.5001 319.611,-44.5001"/>
</g>
<!-- Node26 -->
<g id="node8" class="node"><title>Node26</title>
<g id="a_node8"><a xlink:href="$class_cool_board.html#ad03abdce2e65f520bbf2cff0f2d083cf" xlink:title="CoolBoard::readSensors">
<polygon fill="white" stroke="black" points="511,-76.5 511,-95.5 634,-95.5 634,-76.5 511,-76.5"/>
<text text-anchor="middle" x="572.5" y="-83.5" font-family="Helvetica,sans-Serif" font-size="10.00">CoolBoard::readSensors</text>
</a>
</g>
</g>
<!-- Node25&#45;&gt;Node26 -->
<g id="edge7" class="edge"><title>Node25&#45;&gt;Node26</title>
<path fill="none" stroke="midnightblue" d="M485.21,-86C493.807,-86 502.53,-86 510.961,-86"/>
<polygon fill="midnightblue" stroke="midnightblue" points="485.2,-82.5001 475.2,-86 485.2,-89.5001 485.2,-82.5001"/>
</g>
<!-- Node27 -->
<g id="node9" class="node"><title>Node27</title>
<g id="a_node9"><a xlink:href="$class_cool_board.html#aa0bbc4bc605e35618d18e68795c61363" xlink:title="CoolBoard::onLineMode">
<polygon fill="white" stroke="black" points="673.5,-38.5 673.5,-57.5 794.5,-57.5 794.5,-38.5 673.5,-38.5"/>
<text text-anchor="middle" x="734" y="-45.5" font-family="Helvetica,sans-Serif" font-size="10.00">CoolBoard::onLineMode</text>
</a>
</g>
</g>
<!-- Node26&#45;&gt;Node27 -->
<g id="edge8" class="edge"><title>Node26&#45;&gt;Node27</title>
<path fill="none" stroke="midnightblue" d="M623.734,-74.032C646.086,-68.7069 672.038,-62.5238 693.041,-57.5201"/>
<polygon fill="midnightblue" stroke="midnightblue" points="622.665,-70.6886 613.749,-76.411 624.288,-77.498 622.665,-70.6886"/>
</g>
<!-- Node28 -->
<g id="node10" class="node"><title>Node28</title>
<g id="a_node10"><a xlink:href="$class_cool_board.html#ae6b5e1274d760462290192acea4adca8" xlink:title="CoolBoard::offLineMode">
<polygon fill="white" stroke="black" points="673,-76.5 673,-95.5 795,-95.5 795,-76.5 673,-76.5"/>
<text text-anchor="middle" x="734" y="-83.5" font-family="Helvetica,sans-Serif" font-size="10.00">CoolBoard::offLineMode</text>
</a>
</g>
</g>
<!-- Node26&#45;&gt;Node28 -->
<g id="edge9" class="edge"><title>Node26&#45;&gt;Node28</title>
<path fill="none" stroke="midnightblue" d="M644.475,-86C653.979,-86 663.65,-86 672.941,-86"/>
<polygon fill="midnightblue" stroke="midnightblue" points="644.255,-82.5001 634.255,-86 644.255,-89.5001 644.255,-82.5001"/>
</g>
<!-- Node29&#45;&gt;Node20 -->
<g id="edge12" class="edge"><title>Node29&#45;&gt;Node20</title>
<path fill="none" stroke="midnightblue" d="M463.947,-36.032C485.948,-30.7069 511.494,-24.5238 532.167,-19.5201"/>
<polygon fill="midnightblue" stroke="midnightblue" points="463.014,-32.6567 454.118,-38.411 464.66,-39.4602 463.014,-32.6567"/>
</g>
<!-- Node30 -->
<g id="node12" class="node"><title>Node30</title>
<g id="a_node12"><a xlink:href="$class_cool_board_sensors.html#a4902b69f6e628bd6557193758fdd2bae" xlink:title="CoolBoardSensors::end">
<polygon fill="white" stroke="black" points="512.5,-38.5 512.5,-57.5 632.5,-57.5 632.5,-38.5 512.5,-38.5"/>
<text text-anchor="middle" x="572.5" y="-45.5" font-family="Helvetica,sans-Serif" font-size="10.00">CoolBoardSensors::end</text>
</a>
</g>
</g>
<!-- Node29&#45;&gt;Node30 -->
<g id="edge11" class="edge"><title>Node29&#45;&gt;Node30</title>
<path fill="none" stroke="midnightblue" d="M474.411,-48C486.816,-48 499.877,-48 512.257,-48"/>
<polygon fill="midnightblue" stroke="midnightblue" points="474.176,-44.5001 464.176,-48 474.176,-51.5001 474.176,-44.5001"/>
</g>
<!-- Node31&#45;&gt;Node25 -->
<g id="edge14" class="edge"><title>Node31&#45;&gt;Node25</title>
<path fill="none" stroke="midnightblue" d="M290.933,-112.247C315.819,-106.874 344.919,-100.591 368.407,-95.5201"/>
<polygon fill="midnightblue" stroke="midnightblue" points="289.948,-108.879 280.912,-114.411 291.426,-115.722 289.948,-108.879"/>
</g>
</g>
</svg>
