<?xml version="1.0" encoding="UTF-8" standalone="no"?>
<!DOCTYPE svg PUBLIC "-//W3C//DTD SVG 1.1//EN"
 "http://www.w3.org/Graphics/SVG/1.1/DTD/svg11.dtd">
<!-- Generated by graphviz version 2.38.0 (20140413.2041)
 -->
<!-- Title: Irene3000 Pages: 1 -->
<svg width="369pt" height="607pt"
 viewBox="0.00 0.00 369.00 607.00" xmlns="http://www.w3.org/2000/svg" xmlns:xlink="http://www.w3.org/1999/xlink">
<g id="graph0" class="graph" transform="scale(1 1) rotate(0) translate(4 603)">
<title>Irene3000</title>
<polygon fill="white" stroke="none" points="-4,4 -4,-603 365,-603 365,4 -4,4"/>
<!-- Node1 -->
<g id="node1" class="node"><title>Node1</title>
<polygon fill="#bfbfbf" stroke="black" points="105,-0.5 105,-222.5 218,-222.5 218,-0.5 105,-0.5"/>
<text text-anchor="middle" x="161.5" y="-210.5" font-family="Helvetica,sans-Serif" font-size="10.00">Irene3000</text>
<polyline fill="none" stroke="black" points="105,-203.5 218,-203.5 "/>
<text text-anchor="start" x="113" y="-191.5" font-family="Helvetica,sans-Serif" font-size="10.00">&#45; vRef</text>
<text text-anchor="start" x="113" y="-180.5" font-family="Helvetica,sans-Serif" font-size="10.00">&#45; opampGain</text>
<polyline fill="none" stroke="black" points="105,-173.5 218,-173.5 "/>
<text text-anchor="start" x="113" y="-161.5" font-family="Helvetica,sans-Serif" font-size="10.00">+ begin()</text>
<text text-anchor="start" x="113" y="-150.5" font-family="Helvetica,sans-Serif" font-size="10.00">+ config()</text>
<text text-anchor="start" x="113" y="-139.5" font-family="Helvetica,sans-Serif" font-size="10.00">+ printConf()</text>
<text text-anchor="start" x="113" y="-128.5" font-family="Helvetica,sans-Serif" font-size="10.00">+ read()</text>
<text text-anchor="start" x="113" y="-117.5" font-family="Helvetica,sans-Serif" font-size="10.00">+ readButton()</text>
<text text-anchor="start" x="113" y="-106.5" font-family="Helvetica,sans-Serif" font-size="10.00">+ setGain()</text>
<text text-anchor="start" x="113" y="-95.5" font-family="Helvetica,sans-Serif" font-size="10.00">+ readADSChannel2()</text>
<text text-anchor="start" x="113" y="-84.5" font-family="Helvetica,sans-Serif" font-size="10.00">+ readPh()</text>
<text text-anchor="start" x="113" y="-73.5" font-family="Helvetica,sans-Serif" font-size="10.00">+ readTemp()</text>
<text text-anchor="start" x="113" y="-62.5" font-family="Helvetica,sans-Serif" font-size="10.00">+ resetParams()</text>
<text text-anchor="start" x="113" y="-51.5" font-family="Helvetica,sans-Serif" font-size="10.00">+ calibratepH7()</text>
<text text-anchor="start" x="113" y="-40.5" font-family="Helvetica,sans-Serif" font-size="10.00">+ calibratepH4()</text>
<text text-anchor="start" x="113" y="-29.5" font-family="Helvetica,sans-Serif" font-size="10.00">+ calcpHSlope()</text>
<text text-anchor="start" x="113" y="-18.5" font-family="Helvetica,sans-Serif" font-size="10.00">+ gainConvert()</text>
<text text-anchor="start" x="113" y="-7.5" font-family="Helvetica,sans-Serif" font-size="10.00">+ saveParams()</text>
</g>
<!-- Node2 -->
<g id="node2" class="node"><title>Node2</title>
<g id="a_node2"><a xlink:href="$struct_irene3000_1_1state.html" xlink:title="{Irene3000::state\n|+ active\l+ gain\l+ type\l|}">
<polygon fill="white" stroke="black" points="0,-298 0,-377 87,-377 87,-298 0,-298"/>
<text text-anchor="middle" x="43.5" y="-365" font-family="Helvetica,sans-Serif" font-size="10.00">Irene3000::state</text>
<polyline fill="none" stroke="black" points="0,-358 87,-358 "/>
<text text-anchor="start" x="8" y="-346" font-family="Helvetica,sans-Serif" font-size="10.00">+ active</text>
<text text-anchor="start" x="8" y="-335" font-family="Helvetica,sans-Serif" font-size="10.00">+ gain</text>
<text text-anchor="start" x="8" y="-324" font-family="Helvetica,sans-Serif" font-size="10.00">+ type</text>
<polyline fill="none" stroke="black" points="0,-317 87,-317 "/>
<text text-anchor="middle" x="43.5" y="-305" font-family="Helvetica,sans-Serif" font-size="10.00"> </text>
</a>
</g>
</g>
<!-- Node2&#45;&gt;Node1 -->
<g id="edge1" class="edge"><title>Node2&#45;&gt;Node1</title>
<path fill="none" stroke="#404040" d="M63.7849,-297.993C73.7726,-279.033 86.4103,-255.043 99.2537,-230.662"/>
<polygon fill="none" stroke="#404040" points="99.3682,-230.445 98.6257,-223.272 104.961,-219.828 105.704,-227.001 99.3682,-230.445"/>
<text text-anchor="middle" x="120" y="-266" font-family="Helvetica,sans-Serif" font-size="10.00"> &#45;waterTemp</text>
<text text-anchor="middle" x="120" y="-255" font-family="Helvetica,sans-Serif" font-size="10.00">&#45;phProbe</text>
<text text-anchor="middle" x="120" y="-244" font-family="Helvetica,sans-Serif" font-size="10.00">&#45;adc2</text>
</g>
<!-- Node3 -->
<g id="node3" class="node"><title>Node3</title>
<g id="a_node3"><a xlink:href="$class_adafruit___a_d_s1115.html" xlink:title="{Adafruit_ADS1115\n||+ Adafruit_ADS1115()\l}">
<polygon fill="white" stroke="black" points="105,-309 105,-366 218,-366 218,-309 105,-309"/>
<text text-anchor="middle" x="161.5" y="-354" font-family="Helvetica,sans-Serif" font-size="10.00">Adafruit_ADS1115</text>
<polyline fill="none" stroke="black" points="105,-347 218,-347 "/>
<text text-anchor="middle" x="161.5" y="-335" font-family="Helvetica,sans-Serif" font-size="10.00"> </text>
<polyline fill="none" stroke="black" points="105,-328 218,-328 "/>
<text text-anchor="start" x="113" y="-316" font-family="Helvetica,sans-Serif" font-size="10.00">+ Adafruit_ADS1115()</text>
</a>
</g>
</g>
<!-- Node3&#45;&gt;Node1 -->
<g id="edge2" class="edge"><title>Node3&#45;&gt;Node1</title>
<path fill="none" stroke="#404040" d="M161.5,-308.583C161.5,-289.479 161.5,-262.683 161.5,-235.023"/>
<polygon fill="none" stroke="#404040" points="161.5,-234.709 157.5,-228.71 161.5,-222.709 165.5,-228.709 161.5,-234.709"/>
<text text-anchor="middle" x="172.5" y="-255" font-family="Helvetica,sans-Serif" font-size="10.00"> &#45;ads</text>
</g>
<!-- Node4 -->
<g id="node4" class="node"><title>Node4</title>
<g id="a_node4"><a xlink:href="$class_adafruit___a_d_s1015.html" xlink:title="{Adafruit_ADS1015\n|# m_i2cAddress\l# m_conversionDelay\l# m_bitShift\l# m_gain\l|+ Adafruit_ADS1015()\l+ begin()\l+ readADC_SingleEnded()\l+ readADC_Differential_0_1()\l+ readADC_Differential_2_3()\l+ startComparator_SingleEnded()\l+ getLastConversionResults()\l+ setGain()\l+ getGain()\l}">
<polygon fill="white" stroke="black" points="80.5,-420.5 80.5,-598.5 242.5,-598.5 242.5,-420.5 80.5,-420.5"/>
<text text-anchor="middle" x="161.5" y="-586.5" font-family="Helvetica,sans-Serif" font-size="10.00">Adafruit_ADS1015</text>
<polyline fill="none" stroke="black" points="80.5,-579.5 242.5,-579.5 "/>
<text text-anchor="start" x="88.5" y="-567.5" font-family="Helvetica,sans-Serif" font-size="10.00"># m_i2cAddress</text>
<text text-anchor="start" x="88.5" y="-556.5" font-family="Helvetica,sans-Serif" font-size="10.00"># m_conversionDelay</text>
<text text-anchor="start" x="88.5" y="-545.5" font-family="Helvetica,sans-Serif" font-size="10.00"># m_bitShift</text>
<text text-anchor="start" x="88.5" y="-534.5" font-family="Helvetica,sans-Serif" font-size="10.00"># m_gain</text>
<polyline fill="none" stroke="black" points="80.5,-527.5 242.5,-527.5 "/>
<text text-anchor="start" x="88.5" y="-515.5" font-family="Helvetica,sans-Serif" font-size="10.00">+ Adafruit_ADS1015()</text>
<text text-anchor="start" x="88.5" y="-504.5" font-family="Helvetica,sans-Serif" font-size="10.00">+ begin()</text>
<text text-anchor="start" x="88.5" y="-493.5" font-family="Helvetica,sans-Serif" font-size="10.00">+ readADC_SingleEnded()</text>
<text text-anchor="start" x="88.5" y="-482.5" font-family="Helvetica,sans-Serif" font-size="10.00">+ readADC_Differential_0_1()</text>
<text text-anchor="start" x="88.5" y="-471.5" font-family="Helvetica,sans-Serif" font-size="10.00">+ readADC_Differential_2_3()</text>
<text text-anchor="start" x="88.5" y="-460.5" font-family="Helvetica,sans-Serif" font-size="10.00">+ startComparator_SingleEnded()</text>
<text text-anchor="start" x="88.5" y="-449.5" font-family="Helvetica,sans-Serif" font-size="10.00">+ getLastConversionResults()</text>
<text text-anchor="start" x="88.5" y="-438.5" font-family="Helvetica,sans-Serif" font-size="10.00">+ setGain()</text>
<text text-anchor="start" x="88.5" y="-427.5" font-family="Helvetica,sans-Serif" font-size="10.00">+ getGain()</text>
</a>
</g>
</g>
<!-- Node4&#45;&gt;Node3 -->
<g id="edge3" class="edge"><title>Node4&#45;&gt;Node3</title>
<path fill="none" stroke="midnightblue" d="M161.5,-409.99C161.5,-393.993 161.5,-378.651 161.5,-366.309"/>
<polygon fill="none" stroke="midnightblue" points="158,-410.015 161.5,-420.015 165,-410.015 158,-410.015"/>
</g>
<!-- Node5 -->
<g id="node5" class="node"><title>Node5</title>
<g id="a_node5"><a xlink:href="$struct_irene3000_1_1parameters___t.html" xlink:title="{Irene3000::parameters_T\n|+ WriteCheck\l+ pH7Cal\l+ pH4Cal\l+ pHStep\l|}">
<polygon fill="white" stroke="black" points="236,-292.5 236,-382.5 361,-382.5 361,-292.5 236,-292.5"/>
<text text-anchor="middle" x="298.5" y="-370.5" font-family="Helvetica,sans-Serif" font-size="10.00">Irene3000::parameters_T</text>
<polyline fill="none" stroke="black" points="236,-363.5 361,-363.5 "/>
<text text-anchor="start" x="244" y="-351.5" font-family="Helvetica,sans-Serif" font-size="10.00">+ WriteCheck</text>
<text text-anchor="start" x="244" y="-340.5" font-family="Helvetica,sans-Serif" font-size="10.00">+ pH7Cal</text>
<text text-anchor="start" x="244" y="-329.5" font-family="Helvetica,sans-Serif" font-size="10.00">+ pH4Cal</text>
<text text-anchor="start" x="244" y="-318.5" font-family="Helvetica,sans-Serif" font-size="10.00">+ pHStep</text>
<polyline fill="none" stroke="black" points="236,-311.5 361,-311.5 "/>
<text text-anchor="middle" x="298.5" y="-299.5" font-family="Helvetica,sans-Serif" font-size="10.00"> </text>
</a>
</g>
</g>
<!-- Node5&#45;&gt;Node1 -->
<g id="edge4" class="edge"><title>Node5&#45;&gt;Node1</title>
<path fill="none" stroke="#404040" d="M271.433,-292.245C257.95,-270.199 241.035,-242.543 224.545,-215.581"/>
<polygon fill="none" stroke="#404040" points="224.515,-215.532 217.972,-212.5 218.254,-205.295 224.797,-208.326 224.515,-215.532"/>
<text text-anchor="middle" x="278" y="-255" font-family="Helvetica,sans-Serif" font-size="10.00"> &#45;params</text>
</g>
</g>
</svg>
