<?xml version="1.0" encoding="UTF-8" standalone="no"?>
<!DOCTYPE svg PUBLIC "-//W3C//DTD SVG 1.1//EN"
 "http://www.w3.org/Graphics/SVG/1.1/DTD/svg11.dtd">
<!-- Generated by graphviz version 2.38.0 (20140413.2041)
 -->
<!-- Title: CoolFileSystem::saveSensorData Pages: 1 -->
<svg width="391pt" height="78pt"
 viewBox="0.00 0.00 391.00 77.50" xmlns="http://www.w3.org/2000/svg" xmlns:xlink="http://www.w3.org/1999/xlink">
<g id="graph0" class="graph" transform="scale(1 1) rotate(0) translate(4 73.5)">
<title>CoolFileSystem::saveSensorData</title>
<polygon fill="white" stroke="none" points="-4,4 -4,-73.5 387,-73.5 387,4 -4,4"/>
<!-- Node26 -->
<g id="node1" class="node"><title>Node26</title>
<polygon fill="#bfbfbf" stroke="black" points="0,-22.5 0,-41.5 165,-41.5 165,-22.5 0,-22.5"/>
<text text-anchor="middle" x="82.5" y="-29.5" font-family="Helvetica,sans-Serif" font-size="10.00">CoolFileSystem::saveSensorData</text>
</g>
<!-- Node27 -->
<g id="node2" class="node"><title>Node27</title>
<g id="a_node2"><a xlink:href="$class_cool_file_system.html#ab78704d5d21ce10fc6f1138ab5ab46c8" xlink:title="CoolFileSystem::saveSensor\lDataCSV">
<polygon fill="white" stroke="black" points="220,-39 220,-69 364,-69 364,-39 220,-39"/>
<text text-anchor="start" x="228" y="-57" font-family="Helvetica,sans-Serif" font-size="10.00">CoolFileSystem::saveSensor</text>
<text text-anchor="middle" x="292" y="-46" font-family="Helvetica,sans-Serif" font-size="10.00">DataCSV</text>
</a>
</g>
</g>
<!-- Node26&#45;&gt;Node27 -->
<g id="edge1" class="edge"><title>Node26&#45;&gt;Node27</title>
<path fill="none" stroke="midnightblue" d="M165.212,-40.6634C179.863,-42.2168 195.129,-43.8354 209.767,-45.3873"/>
<polygon fill="midnightblue" stroke="midnightblue" points="209.471,-48.8755 219.785,-46.4495 210.21,-41.9146 209.471,-48.8755"/>
</g>
<!-- Node28 -->
<g id="node3" class="node"><title>Node28</title>
<g id="a_node3"><a xlink:href="$class_cool_file_system.html#aae045125288f255f3e258073dcada2a6" xlink:title="CoolFileSystem::incrementsavedData">
<polygon fill="white" stroke="black" points="201,-0.5 201,-19.5 383,-19.5 383,-0.5 201,-0.5"/>
<text text-anchor="middle" x="292" y="-7.5" font-family="Helvetica,sans-Serif" font-size="10.00">CoolFileSystem::incrementsavedData</text>
</a>
</g>
</g>
<!-- Node26&#45;&gt;Node28 -->
<g id="edge2" class="edge"><title>Node26&#45;&gt;Node28</title>
<path fill="none" stroke="midnightblue" d="M165.212,-23.3366C173.689,-22.4378 182.372,-21.5171 191.021,-20.6002"/>
<polygon fill="midnightblue" stroke="midnightblue" points="191.567,-24.062 201.142,-19.5271 190.829,-17.101 191.567,-24.062"/>
</g>
</g>
</svg>
