<?xml version="1.0" encoding="UTF-8" standalone="no"?>
<!DOCTYPE svg PUBLIC "-//W3C//DTD SVG 1.1//EN"
 "http://www.w3.org/Graphics/SVG/1.1/DTD/svg11.dtd">
<!-- Generated by graphviz version 2.38.0 (20140413.2041)
 -->
<!-- Title: BME280::readRegisterRegion Pages: 1 -->
<svg width="847pt" height="154pt"
 viewBox="0.00 0.00 847.00 153.50" xmlns="http://www.w3.org/2000/svg" xmlns:xlink="http://www.w3.org/1999/xlink">
<g id="graph0" class="graph" transform="scale(1 1) rotate(0) translate(4 149.5)">
<title>BME280::readRegisterRegion</title>
<polygon fill="white" stroke="none" points="-4,4 -4,-149.5 843,-149.5 843,4 -4,4"/>
<!-- Node47 -->
<g id="node1" class="node"><title>Node47</title>
<polygon fill="#bfbfbf" stroke="black" points="0,-57.5 0,-76.5 146,-76.5 146,-57.5 0,-57.5"/>
<text text-anchor="middle" x="73" y="-64.5" font-family="Helvetica,sans-Serif" font-size="10.00">BME280::readRegisterRegion</text>
</g>
<!-- Node48 -->
<g id="node2" class="node"><title>Node48</title>
<g id="a_node2"><a xlink:href="$class_b_m_e280.html#ada6e799917afb4f228e6253bc56ffe75" xlink:title="BME280::readFloatPressure">
<polygon fill="white" stroke="black" points="182,-114.5 182,-133.5 322,-133.5 322,-114.5 182,-114.5"/>
<text text-anchor="middle" x="252" y="-121.5" font-family="Helvetica,sans-Serif" font-size="10.00">BME280::readFloatPressure</text>
</a>
</g>
</g>
<!-- Node47&#45;&gt;Node48 -->
<g id="edge1" class="edge"><title>Node47&#45;&gt;Node48</title>
<path fill="none" stroke="midnightblue" d="M109.061,-80.032C130.091,-87.6742 157.438,-97.3073 182,-105 192.434,-108.268 203.848,-111.534 214.336,-114.414"/>
<polygon fill="midnightblue" stroke="midnightblue" points="110.175,-76.7127 99.5809,-76.5665 107.771,-83.2872 110.175,-76.7127"/>
</g>
<!-- Node55 -->
<g id="node9" class="node"><title>Node55</title>
<g id="a_node9"><a xlink:href="$class_b_m_e280.html#a42ea7232039eebf5aadb391ef6132c35" xlink:title="BME280::readFloatHumidity">
<polygon fill="white" stroke="black" points="182,-76.5 182,-95.5 322,-95.5 322,-76.5 182,-76.5"/>
<text text-anchor="middle" x="252" y="-83.5" font-family="Helvetica,sans-Serif" font-size="10.00">BME280::readFloatHumidity</text>
</a>
</g>
</g>
<!-- Node47&#45;&gt;Node55 -->
<g id="edge8" class="edge"><title>Node47&#45;&gt;Node55</title>
<path fill="none" stroke="midnightblue" d="M156.243,-75.8284C164.805,-76.7474 173.445,-77.6749 181.841,-78.5761"/>
<polygon fill="midnightblue" stroke="midnightblue" points="156.564,-72.3428 146.248,-74.7554 155.817,-79.3028 156.564,-72.3428"/>
</g>
<!-- Node56 -->
<g id="node10" class="node"><title>Node56</title>
<g id="a_node10"><a xlink:href="$class_b_m_e280.html#afffdd1d7ded9e1f92200e70669019d97" xlink:title="BME280::readTempC">
<polygon fill="white" stroke="black" points="196.5,-38.5 196.5,-57.5 307.5,-57.5 307.5,-38.5 196.5,-38.5"/>
<text text-anchor="middle" x="252" y="-45.5" font-family="Helvetica,sans-Serif" font-size="10.00">BME280::readTempC</text>
</a>
</g>
</g>
<!-- Node47&#45;&gt;Node56 -->
<g id="edge10" class="edge"><title>Node47&#45;&gt;Node56</title>
<path fill="none" stroke="midnightblue" d="M156.52,-58.1419C170.028,-56.6919 183.722,-55.2219 196.337,-53.8678"/>
<polygon fill="midnightblue" stroke="midnightblue" points="155.817,-54.6972 146.248,-59.2446 156.564,-61.6572 155.817,-54.6972"/>
</g>
<!-- Node58 -->
<g id="node12" class="node"><title>Node58</title>
<g id="a_node12"><a xlink:href="$class_b_m_e280.html#ac43c30f9b321d301694094d6b4bebe7e" xlink:title="BME280::readRegisterInt16">
<polygon fill="white" stroke="black" points="183.5,-0.5 183.5,-19.5 320.5,-19.5 320.5,-0.5 183.5,-0.5"/>
<text text-anchor="middle" x="252" y="-7.5" font-family="Helvetica,sans-Serif" font-size="10.00">BME280::readRegisterInt16</text>
</a>
</g>
</g>
<!-- Node47&#45;&gt;Node58 -->
<g id="edge13" class="edge"><title>Node47&#45;&gt;Node58</title>
<path fill="none" stroke="midnightblue" d="M109.061,-53.968C130.091,-46.3258 157.438,-36.6927 182,-29 192.434,-25.7321 203.848,-22.4658 214.336,-19.5861"/>
<polygon fill="midnightblue" stroke="midnightblue" points="107.771,-50.7128 99.5809,-57.4335 110.175,-57.2873 107.771,-50.7128"/>
</g>
<!-- Node49 -->
<g id="node3" class="node"><title>Node49</title>
<g id="a_node3"><a xlink:href="$class_cool_board_sensors.html#a91badb2539d91fda8679f2a597874c48" xlink:title="CoolBoardSensors::read">
<polygon fill="white" stroke="black" points="363.5,-76.5 363.5,-95.5 486.5,-95.5 486.5,-76.5 363.5,-76.5"/>
<text text-anchor="middle" x="425" y="-83.5" font-family="Helvetica,sans-Serif" font-size="10.00">CoolBoardSensors::read</text>
</a>
</g>
</g>
<!-- Node48&#45;&gt;Node49 -->
<g id="edge2" class="edge"><title>Node48&#45;&gt;Node49</title>
<path fill="none" stroke="midnightblue" d="M306.209,-112.176C330.317,-106.818 358.44,-100.569 381.16,-95.5201"/>
<polygon fill="midnightblue" stroke="midnightblue" points="305.153,-108.825 296.151,-114.411 306.672,-115.658 305.153,-108.825"/>
</g>
<!-- Node53 -->
<g id="node7" class="node"><title>Node53</title>
<g id="a_node7"><a xlink:href="$class_b_m_e280.html#af67b56ba50760ee1d116acc6c5010221" xlink:title="BME280::readFloatAltitude\lMeters">
<polygon fill="white" stroke="black" points="358,-115 358,-145 492,-145 492,-115 358,-115"/>
<text text-anchor="start" x="366" y="-133" font-family="Helvetica,sans-Serif" font-size="10.00">BME280::readFloatAltitude</text>
<text text-anchor="middle" x="425" y="-122" font-family="Helvetica,sans-Serif" font-size="10.00">Meters</text>
</a>
</g>
</g>
<!-- Node48&#45;&gt;Node53 -->
<g id="edge6" class="edge"><title>Node48&#45;&gt;Node53</title>
<path fill="none" stroke="midnightblue" d="M332.074,-126.775C340.656,-127.076 349.325,-127.38 357.733,-127.675"/>
<polygon fill="midnightblue" stroke="midnightblue" points="332.176,-123.276 322.059,-126.423 331.93,-130.272 332.176,-123.276"/>
</g>
<!-- Node50 -->
<g id="node4" class="node"><title>Node50</title>
<g id="a_node4"><a xlink:href="$class_cool_board.html#ad03abdce2e65f520bbf2cff0f2d083cf" xlink:title="CoolBoard::readSensors">
<polygon fill="white" stroke="black" points="543,-76.5 543,-95.5 666,-95.5 666,-76.5 543,-76.5"/>
<text text-anchor="middle" x="604.5" y="-83.5" font-family="Helvetica,sans-Serif" font-size="10.00">CoolBoard::readSensors</text>
</a>
</g>
</g>
<!-- Node49&#45;&gt;Node50 -->
<g id="edge3" class="edge"><title>Node49&#45;&gt;Node50</title>
<path fill="none" stroke="midnightblue" d="M496.976,-86C512.181,-86 528.112,-86 542.883,-86"/>
<polygon fill="midnightblue" stroke="midnightblue" points="496.589,-82.5001 486.589,-86 496.589,-89.5001 496.589,-82.5001"/>
</g>
<!-- Node51 -->
<g id="node5" class="node"><title>Node51</title>
<g id="a_node5"><a xlink:href="$class_cool_board.html#aa0bbc4bc605e35618d18e68795c61363" xlink:title="CoolBoard::onLineMode">
<polygon fill="white" stroke="black" points="717.5,-95.5 717.5,-114.5 838.5,-114.5 838.5,-95.5 717.5,-95.5"/>
<text text-anchor="middle" x="778" y="-102.5" font-family="Helvetica,sans-Serif" font-size="10.00">CoolBoard::onLineMode</text>
</a>
</g>
</g>
<!-- Node50&#45;&gt;Node51 -->
<g id="edge4" class="edge"><title>Node50&#45;&gt;Node51</title>
<path fill="none" stroke="midnightblue" d="M676.682,-93.8861C690.224,-95.3864 704.265,-96.9419 717.401,-98.3972"/>
<polygon fill="midnightblue" stroke="midnightblue" points="676.772,-90.3747 666.447,-92.7522 676.001,-97.3321 676.772,-90.3747"/>
</g>
<!-- Node52 -->
<g id="node6" class="node"><title>Node52</title>
<g id="a_node6"><a xlink:href="$class_cool_board.html#ae6b5e1274d760462290192acea4adca8" xlink:title="CoolBoard::offLineMode">
<polygon fill="white" stroke="black" points="717,-57.5 717,-76.5 839,-76.5 839,-57.5 717,-57.5"/>
<text text-anchor="middle" x="778" y="-64.5" font-family="Helvetica,sans-Serif" font-size="10.00">CoolBoard::offLineMode</text>
</a>
</g>
</g>
<!-- Node50&#45;&gt;Node52 -->
<g id="edge5" class="edge"><title>Node50&#45;&gt;Node52</title>
<path fill="none" stroke="midnightblue" d="M676.562,-78.1273C689.943,-76.6448 703.817,-75.1078 716.826,-73.6665"/>
<polygon fill="midnightblue" stroke="midnightblue" points="676.001,-74.6679 666.447,-79.2478 676.772,-81.6253 676.001,-74.6679"/>
</g>
<!-- Node54 -->
<g id="node8" class="node"><title>Node54</title>
<g id="a_node8"><a xlink:href="$class_b_m_e280.html#a6525c8a26f887b52596c86bed99343cb" xlink:title="BME280::readFloatAltitudeFeet">
<polygon fill="white" stroke="black" points="528,-120.5 528,-139.5 681,-139.5 681,-120.5 528,-120.5"/>
<text text-anchor="middle" x="604.5" y="-127.5" font-family="Helvetica,sans-Serif" font-size="10.00">BME280::readFloatAltitudeFeet</text>
</a>
</g>
</g>
<!-- Node53&#45;&gt;Node54 -->
<g id="edge7" class="edge"><title>Node53&#45;&gt;Node54</title>
<path fill="none" stroke="midnightblue" d="M502.299,-130C510.744,-130 519.343,-130 527.782,-130"/>
<polygon fill="midnightblue" stroke="midnightblue" points="502.094,-126.5 492.094,-130 502.094,-133.5 502.094,-126.5"/>
</g>
<!-- Node55&#45;&gt;Node49 -->
<g id="edge9" class="edge"><title>Node55&#45;&gt;Node49</title>
<path fill="none" stroke="midnightblue" d="M332.109,-86C342.654,-86 353.33,-86 363.49,-86"/>
<polygon fill="midnightblue" stroke="midnightblue" points="332.059,-82.5001 322.059,-86 332.059,-89.5001 332.059,-82.5001"/>
</g>
<!-- Node56&#45;&gt;Node49 -->
<g id="edge11" class="edge"><title>Node56&#45;&gt;Node49</title>
<path fill="none" stroke="midnightblue" d="M306.209,-59.8243C330.317,-65.1816 358.44,-71.4311 381.16,-76.4799"/>
<polygon fill="midnightblue" stroke="midnightblue" points="306.672,-56.3417 296.151,-57.589 305.153,-63.175 306.672,-56.3417"/>
</g>
<!-- Node57 -->
<g id="node11" class="node"><title>Node57</title>
<g id="a_node11"><a xlink:href="$class_b_m_e280.html#a9648b496f6b4700550782a715a98b3c7" xlink:title="BME280::readTempF">
<polygon fill="white" stroke="black" points="370,-38.5 370,-57.5 480,-57.5 480,-38.5 370,-38.5"/>
<text text-anchor="middle" x="425" y="-45.5" font-family="Helvetica,sans-Serif" font-size="10.00">BME280::readTempF</text>
</a>
</g>
</g>
<!-- Node56&#45;&gt;Node57 -->
<g id="edge12" class="edge"><title>Node56&#45;&gt;Node57</title>
<path fill="none" stroke="midnightblue" d="M317.576,-48C334.838,-48 353.312,-48 369.942,-48"/>
<polygon fill="midnightblue" stroke="midnightblue" points="317.576,-44.5001 307.576,-48 317.576,-51.5001 317.576,-44.5001"/>
</g>
</g>
</svg>
