<?xml version="1.0" encoding="UTF-8" standalone="no"?>
<!DOCTYPE svg PUBLIC "-//W3C//DTD SVG 1.1//EN"
 "http://www.w3.org/Graphics/SVG/1.1/DTD/svg11.dtd">
<!-- Generated by graphviz version 2.38.0 (20140413.2041)
 -->
<!-- Title: CoolWifi::state Pages: 1 -->
<svg width="407pt" height="104pt"
 viewBox="0.00 0.00 407.00 104.00" xmlns="http://www.w3.org/2000/svg" xmlns:xlink="http://www.w3.org/1999/xlink">
<g id="graph0" class="graph" transform="scale(1 1) rotate(0) translate(4 100)">
<title>CoolWifi::state</title>
<polygon fill="white" stroke="none" points="-4,4 -4,-100 403,-100 403,4 -4,4"/>
<!-- Node48 -->
<g id="node1" class="node"><title>Node48</title>
<polygon fill="#bfbfbf" stroke="black" points="0,-38.5 0,-57.5 82,-57.5 82,-38.5 0,-38.5"/>
<text text-anchor="middle" x="41" y="-45.5" font-family="Helvetica,sans-Serif" font-size="10.00">CoolWifi::state</text>
</g>
<!-- Node49 -->
<g id="node2" class="node"><title>Node49</title>
<g id="a_node2"><a xlink:href="$class_cool_board.html#ad7442cf4b62c7b0d5bd62a0f75ffc065" xlink:title="CoolBoard::isConnected">
<polygon fill="white" stroke="black" points="118,-76.5 118,-95.5 241,-95.5 241,-76.5 118,-76.5"/>
<text text-anchor="middle" x="179.5" y="-83.5" font-family="Helvetica,sans-Serif" font-size="10.00">CoolBoard::isConnected</text>
</a>
</g>
</g>
<!-- Node48&#45;&gt;Node49 -->
<g id="edge1" class="edge"><title>Node48&#45;&gt;Node49</title>
<path fill="none" stroke="midnightblue" d="M86.2487,-60.3183C105.003,-65.5393 126.528,-71.5316 144.066,-76.4141"/>
<polygon fill="midnightblue" stroke="midnightblue" points="87.0171,-56.8992 76.4447,-57.589 85.1397,-63.6428 87.0171,-56.8992"/>
</g>
<!-- Node50 -->
<g id="node3" class="node"><title>Node50</title>
<g id="a_node3"><a xlink:href="$class_cool_board.html#a519de78b807f8ec6463ff484eb925918" xlink:title="CoolBoard::connect">
<polygon fill="white" stroke="black" points="128,-38.5 128,-57.5 231,-57.5 231,-38.5 128,-38.5"/>
<text text-anchor="middle" x="179.5" y="-45.5" font-family="Helvetica,sans-Serif" font-size="10.00">CoolBoard::connect</text>
</a>
</g>
</g>
<!-- Node48&#45;&gt;Node50 -->
<g id="edge2" class="edge"><title>Node48&#45;&gt;Node50</title>
<path fill="none" stroke="midnightblue" d="M92.5664,-48C104.103,-48 116.364,-48 127.903,-48"/>
<polygon fill="midnightblue" stroke="midnightblue" points="92.2163,-44.5001 82.2162,-48 92.2162,-51.5001 92.2163,-44.5001"/>
</g>
<!-- Node52 -->
<g id="node5" class="node"><title>Node52</title>
<g id="a_node5"><a xlink:href="$class_cool_board.html#ae6b5e1274d760462290192acea4adca8" xlink:title="CoolBoard::offLineMode">
<polygon fill="white" stroke="black" points="277,-0.5 277,-19.5 399,-19.5 399,-0.5 277,-0.5"/>
<text text-anchor="middle" x="338" y="-7.5" font-family="Helvetica,sans-Serif" font-size="10.00">CoolBoard::offLineMode</text>
</a>
</g>
</g>
<!-- Node48&#45;&gt;Node52 -->
<g id="edge5" class="edge"><title>Node48&#45;&gt;Node52</title>
<path fill="none" stroke="midnightblue" d="M85.3284,-35.9101C95.9455,-33.2968 107.326,-30.7856 118,-29 171.261,-20.0896 232.552,-15.2246 276.723,-12.6552"/>
<polygon fill="midnightblue" stroke="midnightblue" points="84.2602,-32.5702 75.431,-38.4264 85.9851,-39.3544 84.2602,-32.5702"/>
</g>
<!-- Node51 -->
<g id="node4" class="node"><title>Node51</title>
<g id="a_node4"><a xlink:href="$class_cool_board.html#acba7c5aef7268b2c0044bdb54d3b9d76" xlink:title="CoolBoard::begin">
<polygon fill="white" stroke="black" points="292,-38.5 292,-57.5 384,-57.5 384,-38.5 292,-38.5"/>
<text text-anchor="middle" x="338" y="-45.5" font-family="Helvetica,sans-Serif" font-size="10.00">CoolBoard::begin</text>
</a>
</g>
</g>
<!-- Node50&#45;&gt;Node51 -->
<g id="edge3" class="edge"><title>Node50&#45;&gt;Node51</title>
<path fill="none" stroke="midnightblue" d="M241.592,-48C258.381,-48 276.278,-48 291.982,-48"/>
<polygon fill="midnightblue" stroke="midnightblue" points="241.311,-44.5001 231.311,-48 241.311,-51.5001 241.311,-44.5001"/>
</g>
<!-- Node50&#45;&gt;Node52 -->
<g id="edge4" class="edge"><title>Node50&#45;&gt;Node52</title>
<path fill="none" stroke="midnightblue" d="M229.789,-36.032C251.72,-30.7069 277.185,-24.5238 297.792,-19.5201"/>
<polygon fill="midnightblue" stroke="midnightblue" points="228.883,-32.6502 219.992,-38.411 230.535,-39.4525 228.883,-32.6502"/>
</g>
</g>
</svg>
