<?xml version="1.0" encoding="UTF-8" standalone="no"?>
<!DOCTYPE svg PUBLIC "-//W3C//DTD SVG 1.1//EN"
 "http://www.w3.org/Graphics/SVG/1.1/DTD/svg11.dtd">
<!-- Generated by graphviz version 2.38.0 (20140413.2041)
 -->
<!-- Title: CoolMQTT::callback Pages: 1 -->
<svg width="373pt" height="28pt"
 viewBox="0.00 0.00 373.00 28.00" xmlns="http://www.w3.org/2000/svg" xmlns:xlink="http://www.w3.org/1999/xlink">
<g id="graph0" class="graph" transform="scale(1 1) rotate(0) translate(4 24)">
<title>CoolMQTT::callback</title>
<polygon fill="white" stroke="none" points="-4,4 -4,-24 369,-24 369,4 -4,4"/>
<!-- Node9 -->
<g id="node1" class="node"><title>Node9</title>
<polygon fill="#bfbfbf" stroke="black" points="0,-0.5 0,-19.5 107,-19.5 107,-0.5 0,-0.5"/>
<text text-anchor="middle" x="53.5" y="-7.5" font-family="Helvetica,sans-Serif" font-size="10.00">CoolMQTT::callback</text>
</g>
<!-- Node10 -->
<g id="node2" class="node"><title>Node10</title>
<g id="a_node2"><a xlink:href="$class_cool_m_q_t_t.html#ac9248808641ebf3054ed0620ea9d0100" xlink:title="CoolMQTT::begin">
<polygon fill="white" stroke="black" points="143,-0.5 143,-19.5 237,-19.5 237,-0.5 143,-0.5"/>
<text text-anchor="middle" x="190" y="-7.5" font-family="Helvetica,sans-Serif" font-size="10.00">CoolMQTT::begin</text>
</a>
</g>
</g>
<!-- Node9&#45;&gt;Node10 -->
<g id="edge1" class="edge"><title>Node9&#45;&gt;Node10</title>
<path fill="none" stroke="midnightblue" d="M117.321,-10C125.948,-10 134.673,-10 142.924,-10"/>
<polygon fill="midnightblue" stroke="midnightblue" points="117.272,-6.5001 107.272,-10 117.272,-13.5001 117.272,-6.5001"/>
</g>
<!-- Node11 -->
<g id="node3" class="node"><title>Node11</title>
<g id="a_node3"><a xlink:href="$class_cool_board.html#acba7c5aef7268b2c0044bdb54d3b9d76" xlink:title="CoolBoard::begin">
<polygon fill="white" stroke="black" points="273,-0.5 273,-19.5 365,-19.5 365,-0.5 273,-0.5"/>
<text text-anchor="middle" x="319" y="-7.5" font-family="Helvetica,sans-Serif" font-size="10.00">CoolBoard::begin</text>
</a>
</g>
</g>
<!-- Node10&#45;&gt;Node11 -->
<g id="edge2" class="edge"><title>Node10&#45;&gt;Node11</title>
<path fill="none" stroke="midnightblue" d="M247.464,-10C255.975,-10 264.656,-10 272.887,-10"/>
<polygon fill="midnightblue" stroke="midnightblue" points="247.209,-6.5001 237.209,-10 247.209,-13.5001 247.209,-6.5001"/>
</g>
</g>
</svg>
