<?xml version="1.0" encoding="UTF-8" standalone="no"?>
<!DOCTYPE svg PUBLIC "-//W3C//DTD SVG 1.1//EN"
 "http://www.w3.org/Graphics/SVG/1.1/DTD/svg11.dtd">
<!-- Generated by graphviz version 2.38.0 (20140413.2041)
 -->
<!-- Title: WiFiManager::toStringIp Pages: 1 -->
<svg width="824pt" height="66pt"
 viewBox="0.00 0.00 824.00 66.00" xmlns="http://www.w3.org/2000/svg" xmlns:xlink="http://www.w3.org/1999/xlink">
<g id="graph0" class="graph" transform="scale(1 1) rotate(0) translate(4 62)">
<title>WiFiManager::toStringIp</title>
<polygon fill="white" stroke="none" points="-4,4 -4,-62 820,-62 820,4 -4,4"/>
<!-- Node222 -->
<g id="node1" class="node"><title>Node222</title>
<polygon fill="#bfbfbf" stroke="black" points="0,-19.5 0,-38.5 122,-38.5 122,-19.5 0,-19.5"/>
<text text-anchor="middle" x="61" y="-26.5" font-family="Helvetica,sans-Serif" font-size="10.00">WiFiManager::toStringIp</text>
</g>
<!-- Node223 -->
<g id="node2" class="node"><title>Node223</title>
<g id="a_node2"><a xlink:href="$class_wi_fi_manager.html#a4ef4298deb224212e5242c456669a973" xlink:title="WiFiManager::captivePortal">
<polygon fill="white" stroke="black" points="158,-19.5 158,-38.5 295,-38.5 295,-19.5 158,-19.5"/>
<text text-anchor="middle" x="226.5" y="-26.5" font-family="Helvetica,sans-Serif" font-size="10.00">WiFiManager::captivePortal</text>
</a>
</g>
</g>
<!-- Node222&#45;&gt;Node223 -->
<g id="edge1" class="edge"><title>Node222&#45;&gt;Node223</title>
<path fill="none" stroke="midnightblue" d="M132.564,-29C140.968,-29 149.533,-29 157.895,-29"/>
<polygon fill="midnightblue" stroke="midnightblue" points="132.417,-25.5001 122.417,-29 132.417,-32.5001 132.417,-25.5001"/>
</g>
<!-- Node224 -->
<g id="node3" class="node"><title>Node224</title>
<g id="a_node3"><a xlink:href="$class_wi_fi_manager.html#a47e4c7df7478f690c53ff9f5125c9760" xlink:title="WiFiManager::handleRoot">
<polygon fill="white" stroke="black" points="342,-38.5 342,-57.5 472,-57.5 472,-38.5 342,-38.5"/>
<text text-anchor="middle" x="407" y="-45.5" font-family="Helvetica,sans-Serif" font-size="10.00">WiFiManager::handleRoot</text>
</a>
</g>
</g>
<!-- Node223&#45;&gt;Node224 -->
<g id="edge2" class="edge"><title>Node223&#45;&gt;Node224</title>
<path fill="none" stroke="midnightblue" d="M305.378,-37.2895C317.554,-38.5856 330.018,-39.9122 341.842,-41.1708"/>
<polygon fill="midnightblue" stroke="midnightblue" points="305.552,-33.7884 295.238,-36.2102 304.811,-40.7491 305.552,-33.7884"/>
</g>
<!-- Node227 -->
<g id="node6" class="node"><title>Node227</title>
<g id="a_node6"><a xlink:href="$class_wi_fi_manager.html#a7d01f7de3e4b76acdabffac79fa3d0ab" xlink:title="WiFiManager::handleNotFound">
<polygon fill="white" stroke="black" points="331,-0.5 331,-19.5 483,-19.5 483,-0.5 331,-0.5"/>
<text text-anchor="middle" x="407" y="-7.5" font-family="Helvetica,sans-Serif" font-size="10.00">WiFiManager::handleNotFound</text>
</a>
</g>
</g>
<!-- Node223&#45;&gt;Node227 -->
<g id="edge5" class="edge"><title>Node223&#45;&gt;Node227</title>
<path fill="none" stroke="midnightblue" d="M305.439,-20.7039C313.875,-19.806 322.449,-18.8934 330.851,-17.9991"/>
<polygon fill="midnightblue" stroke="midnightblue" points="304.811,-17.2509 295.238,-21.7898 305.552,-24.2116 304.811,-17.2509"/>
</g>
<!-- Node225 -->
<g id="node4" class="node"><title>Node225</title>
<g id="a_node4"><a xlink:href="$class_wi_fi_manager.html#a1743325d0dd86d011df96b22d2a0ddd6" xlink:title="WiFiManager::setupConfig\lPortal">
<polygon fill="white" stroke="black" points="519,-14 519,-44 652,-44 652,-14 519,-14"/>
<text text-anchor="start" x="527" y="-32" font-family="Helvetica,sans-Serif" font-size="10.00">WiFiManager::setupConfig</text>
<text text-anchor="middle" x="585.5" y="-21" font-family="Helvetica,sans-Serif" font-size="10.00">Portal</text>
</a>
</g>
</g>
<!-- Node224&#45;&gt;Node225 -->
<g id="edge3" class="edge"><title>Node224&#45;&gt;Node225</title>
<path fill="none" stroke="midnightblue" d="M482.308,-40.0009C494.443,-38.6945 506.939,-37.3493 518.847,-36.0675"/>
<polygon fill="midnightblue" stroke="midnightblue" points="481.788,-36.5365 472.22,-41.0868 482.537,-43.4963 481.788,-36.5365"/>
</g>
<!-- Node226 -->
<g id="node5" class="node"><title>Node226</title>
<g id="a_node5"><a xlink:href="$class_wi_fi_manager.html#afaca5021edffb4d9a5bd39f7b0f7a686" xlink:title="WiFiManager::startConfig\lPortal">
<polygon fill="white" stroke="black" points="688,-14 688,-44 816,-44 816,-14 688,-14"/>
<text text-anchor="start" x="696" y="-32" font-family="Helvetica,sans-Serif" font-size="10.00">WiFiManager::startConfig</text>
<text text-anchor="middle" x="752" y="-21" font-family="Helvetica,sans-Serif" font-size="10.00">Portal</text>
</a>
</g>
</g>
<!-- Node225&#45;&gt;Node226 -->
<g id="edge4" class="edge"><title>Node225&#45;&gt;Node226</title>
<path fill="none" stroke="midnightblue" d="M662.706,-29C671.16,-29 679.699,-29 687.964,-29"/>
<polygon fill="midnightblue" stroke="midnightblue" points="662.461,-25.5001 652.461,-29 662.461,-32.5001 662.461,-25.5001"/>
</g>
<!-- Node227&#45;&gt;Node225 -->
<g id="edge6" class="edge"><title>Node227&#45;&gt;Node225</title>
<path fill="none" stroke="midnightblue" d="M493.22,-19.1738C501.865,-20.1045 510.55,-21.0394 518.941,-21.9427"/>
<polygon fill="midnightblue" stroke="midnightblue" points="493.425,-15.6758 483.108,-18.0853 492.676,-22.6355 493.425,-15.6758"/>
</g>
</g>
</svg>
