<?xml version="1.0" encoding="UTF-8" standalone="no"?>
<!DOCTYPE svg PUBLIC "-//W3C//DTD SVG 1.1//EN"
 "http://www.w3.org/Graphics/SVG/1.1/DTD/svg11.dtd">
<!-- Generated by graphviz version 2.38.0 (20140413.2041)
 -->
<!-- Title: CoolPubSubClient::connect Pages: 1 -->
<svg width="511pt" height="142pt"
 viewBox="0.00 0.00 511.00 142.00" xmlns="http://www.w3.org/2000/svg" xmlns:xlink="http://www.w3.org/1999/xlink">
<g id="graph0" class="graph" transform="scale(1 1) rotate(0) translate(4 138)">
<title>CoolPubSubClient::connect</title>
<polygon fill="white" stroke="none" points="-4,4 -4,-138 507,-138 507,4 -4,4"/>
<!-- Node81 -->
<g id="node1" class="node"><title>Node81</title>
<polygon fill="#bfbfbf" stroke="black" points="0,-57.5 0,-76.5 137,-76.5 137,-57.5 0,-57.5"/>
<text text-anchor="middle" x="68.5" y="-64.5" font-family="Helvetica,sans-Serif" font-size="10.00">CoolPubSubClient::connect</text>
</g>
<!-- Node82 -->
<g id="node2" class="node"><title>Node82</title>
<g id="a_node2"><a xlink:href="$class_cool_pub_sub_client.html#a3d5a5da4ddb1e5c1bea64d80c665d148" xlink:title="CoolPubSubClient::connected">
<polygon fill="white" stroke="black" points="175,-114.5 175,-133.5 323,-133.5 323,-114.5 175,-114.5"/>
<text text-anchor="middle" x="249" y="-121.5" font-family="Helvetica,sans-Serif" font-size="10.00">CoolPubSubClient::connected</text>
</a>
</g>
</g>
<!-- Node81&#45;&gt;Node82 -->
<g id="edge1" class="edge"><title>Node81&#45;&gt;Node82</title>
<path fill="none" stroke="midnightblue" d="M93.5161,-76.6233C114.34,-84.7726 145.387,-96.4586 173,-105 180.754,-107.399 189.027,-109.724 197.141,-111.876"/>
<polygon fill="midnightblue" stroke="midnightblue" points="196.356,-115.288 206.914,-114.409 198.113,-108.512 196.356,-115.288"/>
</g>
<!-- Node83 -->
<g id="node3" class="node"><title>Node83</title>
<g id="a_node3"><a xlink:href="$class_cool_pub_sub_client.html#a0e3d7e776d4cf4427f9569b28868905a" xlink:title="CoolPubSubClient::writeString">
<polygon fill="white" stroke="black" points="174.5,-76.5 174.5,-95.5 323.5,-95.5 323.5,-76.5 174.5,-76.5"/>
<text text-anchor="middle" x="249" y="-83.5" font-family="Helvetica,sans-Serif" font-size="10.00">CoolPubSubClient::writeString</text>
</a>
</g>
</g>
<!-- Node81&#45;&gt;Node83 -->
<g id="edge2" class="edge"><title>Node81&#45;&gt;Node83</title>
<path fill="none" stroke="midnightblue" d="M137.238,-74.2102C146.052,-75.1484 155.163,-76.1182 164.2,-77.0801"/>
<polygon fill="midnightblue" stroke="midnightblue" points="164.037,-80.5824 174.351,-78.1606 164.778,-73.6217 164.037,-80.5824"/>
</g>
<!-- Node84 -->
<g id="node4" class="node"><title>Node84</title>
<g id="a_node4"><a xlink:href="$class_cool_pub_sub_client.html#a7a8e4854a1846eaa668046d3854d47ad" xlink:title="CoolPubSubClient::write">
<polygon fill="white" stroke="black" points="187,-38.5 187,-57.5 311,-57.5 311,-38.5 187,-38.5"/>
<text text-anchor="middle" x="249" y="-45.5" font-family="Helvetica,sans-Serif" font-size="10.00">CoolPubSubClient::write</text>
</a>
</g>
</g>
<!-- Node81&#45;&gt;Node84 -->
<g id="edge3" class="edge"><title>Node81&#45;&gt;Node84</title>
<path fill="none" stroke="midnightblue" d="M137.238,-59.7898C150.078,-58.423 163.551,-56.989 176.503,-55.6103"/>
<polygon fill="midnightblue" stroke="midnightblue" points="177.184,-59.0577 186.757,-54.5188 176.443,-52.097 177.184,-59.0577"/>
</g>
<!-- Node85 -->
<g id="node5" class="node"><title>Node85</title>
<g id="a_node5"><a xlink:href="$class_cool_pub_sub_client.html#a25a8779149cfa809b7c06f63568b25cf" xlink:title="CoolPubSubClient::readPacket">
<polygon fill="white" stroke="black" points="173,-0.5 173,-19.5 325,-19.5 325,-0.5 173,-0.5"/>
<text text-anchor="middle" x="249" y="-7.5" font-family="Helvetica,sans-Serif" font-size="10.00">CoolPubSubClient::readPacket</text>
</a>
</g>
</g>
<!-- Node81&#45;&gt;Node85 -->
<g id="edge4" class="edge"><title>Node81&#45;&gt;Node85</title>
<path fill="none" stroke="midnightblue" d="M93.5161,-57.3767C114.34,-49.2274 145.387,-37.5414 173,-29 180.754,-26.6013 189.027,-24.2764 197.141,-22.124"/>
<polygon fill="midnightblue" stroke="midnightblue" points="198.113,-25.488 206.914,-19.5908 196.356,-18.7119 198.113,-25.488"/>
</g>
<!-- Node86 -->
<g id="node6" class="node"><title>Node86</title>
<g id="a_node6"><a xlink:href="$class_cool_pub_sub_client.html#ad409bbd287d5894f0cf082f62446c002" xlink:title="CoolPubSubClient::readByte">
<polygon fill="white" stroke="black" points="361,-0.5 361,-19.5 503,-19.5 503,-0.5 361,-0.5"/>
<text text-anchor="middle" x="432" y="-7.5" font-family="Helvetica,sans-Serif" font-size="10.00">CoolPubSubClient::readByte</text>
</a>
</g>
</g>
<!-- Node85&#45;&gt;Node86 -->
<g id="edge5" class="edge"><title>Node85&#45;&gt;Node86</title>
<path fill="none" stroke="midnightblue" d="M325.188,-10C333.612,-10 342.219,-10 350.704,-10"/>
<polygon fill="midnightblue" stroke="midnightblue" points="350.974,-13.5001 360.974,-10 350.974,-6.5001 350.974,-13.5001"/>
</g>
</g>
</svg>
