<?xml version="1.0" encoding="UTF-8" standalone="no"?>
<!DOCTYPE svg PUBLIC "-//W3C//DTD SVG 1.1//EN"
 "http://www.w3.org/Graphics/SVG/1.1/DTD/svg11.dtd">
<!-- Generated by graphviz version 2.38.0 (20140413.2041)
 -->
<!-- Title: CoolTime::isTimeSync Pages: 1 -->
<svg width="539pt" height="66pt"
 viewBox="0.00 0.00 539.00 66.00" xmlns="http://www.w3.org/2000/svg" xmlns:xlink="http://www.w3.org/1999/xlink">
<g id="graph0" class="graph" transform="scale(1 1) rotate(0) translate(4 62)">
<title>CoolTime::isTimeSync</title>
<polygon fill="white" stroke="none" points="-4,4 -4,-62 535,-62 535,4 -4,4"/>
<!-- Node56 -->
<g id="node1" class="node"><title>Node56</title>
<polygon fill="#bfbfbf" stroke="black" points="0,-19.5 0,-38.5 116,-38.5 116,-19.5 0,-19.5"/>
<text text-anchor="middle" x="58" y="-26.5" font-family="Helvetica,sans-Serif" font-size="10.00">CoolTime::isTimeSync</text>
</g>
<!-- Node57 -->
<g id="node2" class="node"><title>Node57</title>
<g id="a_node2"><a xlink:href="$class_cool_time.html#aae601f795452cfa48d9fb337aed483a8" xlink:title="CoolTime::update">
<polygon fill="white" stroke="black" points="152,-19.5 152,-38.5 246,-38.5 246,-19.5 152,-19.5"/>
<text text-anchor="middle" x="199" y="-26.5" font-family="Helvetica,sans-Serif" font-size="10.00">CoolTime::update</text>
</a>
</g>
</g>
<!-- Node56&#45;&gt;Node57 -->
<g id="edge1" class="edge"><title>Node56&#45;&gt;Node57</title>
<path fill="none" stroke="midnightblue" d="M126.392,-29C134.999,-29 143.65,-29 151.815,-29"/>
<polygon fill="midnightblue" stroke="midnightblue" points="126.339,-25.5001 116.339,-29 126.339,-32.5001 126.339,-25.5001"/>
</g>
<!-- Node58 -->
<g id="node3" class="node"><title>Node58</title>
<g id="a_node3"><a xlink:href="$class_cool_board.html#aa0bbc4bc605e35618d18e68795c61363" xlink:title="CoolBoard::onLineMode">
<polygon fill="white" stroke="black" points="282,-38.5 282,-57.5 403,-57.5 403,-38.5 282,-38.5"/>
<text text-anchor="middle" x="342.5" y="-45.5" font-family="Helvetica,sans-Serif" font-size="10.00">CoolBoard::onLineMode</text>
</a>
</g>
</g>
<!-- Node57&#45;&gt;Node58 -->
<g id="edge2" class="edge"><title>Node57&#45;&gt;Node58</title>
<path fill="none" stroke="midnightblue" d="M256.394,-36.5724C264.785,-37.6991 273.457,-38.8635 281.911,-39.9986"/>
<polygon fill="midnightblue" stroke="midnightblue" points="256.709,-33.0833 246.332,-35.2213 255.778,-40.0211 256.709,-33.0833"/>
</g>
<!-- Node59 -->
<g id="node4" class="node"><title>Node59</title>
<g id="a_node4"><a xlink:href="$class_cool_time.html#ab1976cf718b950bc31e003c3323b8adb" xlink:title="CoolTime::begin">
<polygon fill="white" stroke="black" points="298.5,-0.5 298.5,-19.5 386.5,-19.5 386.5,-0.5 298.5,-0.5"/>
<text text-anchor="middle" x="342.5" y="-7.5" font-family="Helvetica,sans-Serif" font-size="10.00">CoolTime::begin</text>
</a>
</g>
</g>
<!-- Node57&#45;&gt;Node59 -->
<g id="edge3" class="edge"><title>Node57&#45;&gt;Node59</title>
<path fill="none" stroke="midnightblue" d="M256.361,-21.4321C270.37,-19.551 285.165,-17.5645 298.421,-15.7845"/>
<polygon fill="midnightblue" stroke="midnightblue" points="255.778,-17.9789 246.332,-22.7787 256.709,-24.9167 255.778,-17.9789"/>
</g>
<!-- Node60 -->
<g id="node5" class="node"><title>Node60</title>
<g id="a_node5"><a xlink:href="$class_cool_board.html#acba7c5aef7268b2c0044bdb54d3b9d76" xlink:title="CoolBoard::begin">
<polygon fill="white" stroke="black" points="439,-0.5 439,-19.5 531,-19.5 531,-0.5 439,-0.5"/>
<text text-anchor="middle" x="485" y="-7.5" font-family="Helvetica,sans-Serif" font-size="10.00">CoolBoard::begin</text>
</a>
</g>
</g>
<!-- Node59&#45;&gt;Node60 -->
<g id="edge4" class="edge"><title>Node59&#45;&gt;Node60</title>
<path fill="none" stroke="midnightblue" d="M397.074,-10C410.787,-10 425.4,-10 438.653,-10"/>
<polygon fill="midnightblue" stroke="midnightblue" points="396.801,-6.5001 386.801,-10 396.801,-13.5001 396.801,-6.5001"/>
</g>
</g>
</svg>
