<?xml version="1.0" encoding="UTF-8" standalone="no"?>
<!DOCTYPE svg PUBLIC "-//W3C//DTD SVG 1.1//EN"
 "http://www.w3.org/Graphics/SVG/1.1/DTD/svg11.dtd">
<!-- Generated by graphviz version 2.38.0 (20140413.2041)
 -->
<!-- Title: CoolNDIR_I2C.h Pages: 1 -->
<svg width="283pt" height="252pt"
 viewBox="0.00 0.00 282.50 252.00" xmlns="http://www.w3.org/2000/svg" xmlns:xlink="http://www.w3.org/1999/xlink">
<g id="graph0" class="graph" transform="scale(1 1) rotate(0) translate(4 248)">
<title>CoolNDIR_I2C.h</title>
<polygon fill="white" stroke="none" points="-4,4 -4,-248 278.5,-248 278.5,4 -4,4"/>
<!-- Node1 -->
<g id="node1" class="node"><title>Node1</title>
<polygon fill="#bfbfbf" stroke="black" points="119.5,-224.5 119.5,-243.5 211.5,-243.5 211.5,-224.5 119.5,-224.5"/>
<text text-anchor="middle" x="165.5" y="-231.5" font-family="Helvetica,sans-Serif" font-size="10.00">CoolNDIR_I2C.h</text>
</g>
<!-- Node2 -->
<g id="node2" class="node"><title>Node2</title>
<g id="a_node2"><a xlink:href="$d6/d20/_external_sensor_8h.html" xlink:title="ExternalSensor Header file. ">
<polygon fill="white" stroke="black" points="62.5,-168.5 62.5,-187.5 154.5,-187.5 154.5,-168.5 62.5,-168.5"/>
<text text-anchor="middle" x="108.5" y="-175.5" font-family="Helvetica,sans-Serif" font-size="10.00">ExternalSensor.h</text>
</a>
</g>
</g>
<!-- Node1&#45;&gt;Node2 -->
<g id="edge1" class="edge"><title>Node1&#45;&gt;Node2</title>
<path fill="none" stroke="midnightblue" d="M148.879,-217.253C138.766,-207.673 126.223,-195.791 117.825,-187.834"/>
<polygon fill="midnightblue" stroke="midnightblue" points="146.675,-219.987 156.342,-224.324 151.49,-214.906 146.675,-219.987"/>
</g>
<!-- Node7 -->
<g id="node7" class="node"><title>Node7</title>
<g id="a_node7"><a xlink:href="$df/d2c/_cool_n_d_i_r___i2_c_8cpp.html" xlink:title="CoolNDIR_I2C.cpp">
<polygon fill="white" stroke="black" points="172.5,-168.5 172.5,-187.5 274.5,-187.5 274.5,-168.5 172.5,-168.5"/>
<text text-anchor="middle" x="223.5" y="-175.5" font-family="Helvetica,sans-Serif" font-size="10.00">CoolNDIR_I2C.cpp</text>
</a>
</g>
</g>
<!-- Node1&#45;&gt;Node7 -->
<g id="edge7" class="edge"><title>Node1&#45;&gt;Node7</title>
<path fill="none" stroke="midnightblue" d="M182.413,-217.253C192.703,-207.673 205.466,-195.791 214.012,-187.834"/>
<polygon fill="midnightblue" stroke="midnightblue" points="179.753,-214.948 174.819,-224.324 184.523,-220.071 179.753,-214.948"/>
</g>
<!-- Node3 -->
<g id="node3" class="node"><title>Node3</title>
<g id="a_node3"><a xlink:href="$d7/dcc/_external_sensors_8h.html" xlink:title="ExternalSensors header file. ">
<polygon fill="white" stroke="black" points="22,-112.5 22,-131.5 119,-131.5 119,-112.5 22,-112.5"/>
<text text-anchor="middle" x="70.5" y="-119.5" font-family="Helvetica,sans-Serif" font-size="10.00">ExternalSensors.h</text>
</a>
</g>
</g>
<!-- Node2&#45;&gt;Node3 -->
<g id="edge2" class="edge"><title>Node2&#45;&gt;Node3</title>
<path fill="none" stroke="midnightblue" d="M96.4353,-159.855C89.8553,-150.505 81.989,-139.327 76.6582,-131.751"/>
<polygon fill="midnightblue" stroke="midnightblue" points="93.6078,-161.919 102.225,-168.083 99.3324,-157.891 93.6078,-161.919"/>
</g>
<!-- Node6 -->
<g id="node6" class="node"><title>Node6</title>
<g id="a_node6"><a xlink:href="$d9/d09/_external_sensors_8cpp.html" xlink:title="ExternalSensors Source file. ">
<polygon fill="white" stroke="black" points="94,-56.5 94,-75.5 201,-75.5 201,-56.5 94,-56.5"/>
<text text-anchor="middle" x="147.5" y="-63.5" font-family="Helvetica,sans-Serif" font-size="10.00">ExternalSensors.cpp</text>
</a>
</g>
</g>
<!-- Node2&#45;&gt;Node6 -->
<g id="edge6" class="edge"><title>Node2&#45;&gt;Node6</title>
<path fill="none" stroke="midnightblue" d="M116.51,-159.189C120.071,-150.986 124.197,-141.077 127.5,-132 134.768,-112.029 141.703,-88.0072 145.18,-75.5044"/>
<polygon fill="midnightblue" stroke="midnightblue" points="113.246,-157.915 112.404,-168.476 119.648,-160.745 113.246,-157.915"/>
</g>
<!-- Node4 -->
<g id="node4" class="node"><title>Node4</title>
<g id="a_node4"><a xlink:href="$d5/d51/_cool_board_8h.html" xlink:title="CoolBoard Header file. ">
<polygon fill="white" stroke="black" points="5,-56.5 5,-75.5 76,-75.5 76,-56.5 5,-56.5"/>
<text text-anchor="middle" x="40.5" y="-63.5" font-family="Helvetica,sans-Serif" font-size="10.00">CoolBoard.h</text>
</a>
</g>
</g>
<!-- Node3&#45;&gt;Node4 -->
<g id="edge3" class="edge"><title>Node3&#45;&gt;Node4</title>
<path fill="none" stroke="midnightblue" d="M60.6526,-103.275C55.5252,-94.0454 49.4835,-83.1703 45.3617,-75.7511"/>
<polygon fill="midnightblue" stroke="midnightblue" points="57.6301,-105.041 65.5461,-112.083 63.7492,-101.642 57.6301,-105.041"/>
</g>
<!-- Node3&#45;&gt;Node6 -->
<g id="edge5" class="edge"><title>Node3&#45;&gt;Node6</title>
<path fill="none" stroke="midnightblue" d="M91.401,-106.342C105.411,-96.5169 123.383,-83.9132 135.159,-75.6545"/>
<polygon fill="midnightblue" stroke="midnightblue" points="89.0491,-103.717 82.8714,-112.324 93.0683,-109.448 89.0491,-103.717"/>
</g>
<!-- Node5 -->
<g id="node5" class="node"><title>Node5</title>
<g id="a_node5"><a xlink:href="$d9/d50/_cool_board_8cpp.html" xlink:title="CoolBoard Source file. ">
<polygon fill="white" stroke="black" points="0,-0.5 0,-19.5 81,-19.5 81,-0.5 0,-0.5"/>
<text text-anchor="middle" x="40.5" y="-7.5" font-family="Helvetica,sans-Serif" font-size="10.00">CoolBoard.cpp</text>
</a>
</g>
</g>
<!-- Node4&#45;&gt;Node5 -->
<g id="edge4" class="edge"><title>Node4&#45;&gt;Node5</title>
<path fill="none" stroke="midnightblue" d="M40.5,-45.8045C40.5,-36.9102 40.5,-26.7798 40.5,-19.7511"/>
<polygon fill="midnightblue" stroke="midnightblue" points="37.0001,-46.083 40.5,-56.083 44.0001,-46.083 37.0001,-46.083"/>
</g>
</g>
</svg>
