<?xml version="1.0" encoding="UTF-8" standalone="no"?>
<!DOCTYPE svg PUBLIC "-//W3C//DTD SVG 1.1//EN"
 "http://www.w3.org/Graphics/SVG/1.1/DTD/svg11.dtd">
<!-- Generated by graphviz version 2.38.0 (20140413.2041)
 -->
<!-- Title: CoolFileSystem::incrementsavedData Pages: 1 -->
<svg width="549pt" height="78pt"
 viewBox="0.00 0.00 549.00 77.50" xmlns="http://www.w3.org/2000/svg" xmlns:xlink="http://www.w3.org/1999/xlink">
<g id="graph0" class="graph" transform="scale(1 1) rotate(0) translate(4 73.5)">
<title>CoolFileSystem::incrementsavedData</title>
<polygon fill="white" stroke="none" points="-4,4 -4,-73.5 545,-73.5 545,4 -4,4"/>
<!-- Node31 -->
<g id="node1" class="node"><title>Node31</title>
<polygon fill="#bfbfbf" stroke="black" points="0,-22.5 0,-41.5 182,-41.5 182,-22.5 0,-22.5"/>
<text text-anchor="middle" x="91" y="-29.5" font-family="Helvetica,sans-Serif" font-size="10.00">CoolFileSystem::incrementsavedData</text>
</g>
<!-- Node32 -->
<g id="node2" class="node"><title>Node32</title>
<g id="a_node2"><a xlink:href="../../db/d0c/class_cool_file_system.html#a3223ffff4266a6300988fab956d6b4b2" target="_top" xlink:title="CoolFileSystem::getSensor\lSavedData">
<polygon fill="white" stroke="black" points="232,-39 232,-69 369,-69 369,-39 232,-39"/>
<text text-anchor="start" x="240" y="-57" font-family="Helvetica,sans-Serif" font-size="10.00">CoolFileSystem::getSensor</text>
<text text-anchor="middle" x="300.5" y="-46" font-family="Helvetica,sans-Serif" font-size="10.00">SavedData</text>
</a>
</g>
</g>
<!-- Node31&#45;&gt;Node32 -->
<g id="edge1" class="edge"><title>Node31&#45;&gt;Node32</title>
<path fill="none" stroke="midnightblue" d="M192.064,-42.6092C205.519,-44.0358 219.057,-45.4711 231.771,-46.8191"/>
<polygon fill="midnightblue" stroke="midnightblue" points="192.119,-39.0955 181.806,-41.5216 191.381,-46.0565 192.119,-39.0955"/>
</g>
<!-- Node34 -->
<g id="node4" class="node"><title>Node34</title>
<g id="a_node4"><a xlink:href="../../db/d0c/class_cool_file_system.html#afa3a4feae94871d4d3b6bebb701c2e67" target="_top" xlink:title="CoolFileSystem::saveSensorData">
<polygon fill="white" stroke="black" points="218,-0.5 218,-19.5 383,-19.5 383,-0.5 218,-0.5"/>
<text text-anchor="middle" x="300.5" y="-7.5" font-family="Helvetica,sans-Serif" font-size="10.00">CoolFileSystem::saveSensorData</text>
</a>
</g>
</g>
<!-- Node31&#45;&gt;Node34 -->
<g id="edge3" class="edge"><title>Node31&#45;&gt;Node34</title>
<path fill="none" stroke="midnightblue" d="M191.924,-21.4056C200.57,-20.489 209.251,-19.5686 217.727,-18.6699"/>
<polygon fill="midnightblue" stroke="midnightblue" points="191.381,-17.9435 181.806,-22.4784 192.119,-24.9045 191.381,-17.9435"/>
</g>
<!-- Node33 -->
<g id="node3" class="node"><title>Node33</title>
<g id="a_node3"><a xlink:href="../../d7/df9/class_cool_board.html#aa0bbc4bc605e35618d18e68795c61363" target="_top" xlink:title="CoolBoard::onLineMode">
<polygon fill="white" stroke="black" points="419.5,-44.5 419.5,-63.5 540.5,-63.5 540.5,-44.5 419.5,-44.5"/>
<text text-anchor="middle" x="480" y="-51.5" font-family="Helvetica,sans-Serif" font-size="10.00">CoolBoard::onLineMode</text>
</a>
</g>
</g>
<!-- Node32&#45;&gt;Node33 -->
<g id="edge2" class="edge"><title>Node32&#45;&gt;Node33</title>
<path fill="none" stroke="midnightblue" d="M379.309,-54C392.759,-54 406.548,-54 419.418,-54"/>
<polygon fill="midnightblue" stroke="midnightblue" points="379.112,-50.5001 369.111,-54 379.111,-57.5001 379.112,-50.5001"/>
</g>
<!-- Node35 -->
<g id="node5" class="node"><title>Node35</title>
<g id="a_node5"><a xlink:href="../../d7/df9/class_cool_board.html#ae6b5e1274d760462290192acea4adca8" target="_top" xlink:title="CoolBoard::offLineMode">
<polygon fill="white" stroke="black" points="419,-0.5 419,-19.5 541,-19.5 541,-0.5 419,-0.5"/>
<text text-anchor="middle" x="480" y="-7.5" font-family="Helvetica,sans-Serif" font-size="10.00">CoolBoard::offLineMode</text>
</a>
</g>
</g>
<!-- Node34&#45;&gt;Node35 -->
<g id="edge4" class="edge"><title>Node34&#45;&gt;Node35</title>
<path fill="none" stroke="midnightblue" d="M393.391,-10C402.043,-10 410.654,-10 418.897,-10"/>
<polygon fill="midnightblue" stroke="midnightblue" points="393.236,-6.5001 383.236,-10 393.236,-13.5001 393.236,-6.5001"/>
</g>
</g>
</svg>
