<?xml version="1.0" encoding="UTF-8" standalone="no"?>
<!DOCTYPE svg PUBLIC "-//W3C//DTD SVG 1.1//EN"
 "http://www.w3.org/Graphics/SVG/1.1/DTD/svg11.dtd">
<!-- Generated by graphviz version 2.38.0 (20140413.2041)
 -->
<!-- Title: CoolMQTT.cpp Pages: 1 -->
<svg width="446pt" height="196pt"
 viewBox="0.00 0.00 446.00 196.00" xmlns="http://www.w3.org/2000/svg" xmlns:xlink="http://www.w3.org/1999/xlink">
<g id="graph0" class="graph" transform="scale(1 1) rotate(0) translate(4 192)">
<title>CoolMQTT.cpp</title>
<polygon fill="white" stroke="none" points="-4,4 -4,-192 442,-192 442,4 -4,4"/>
<!-- Node0 -->
<g id="node1" class="node"><title>Node0</title>
<polygon fill="#bfbfbf" stroke="black" points="78.5,-168.5 78.5,-187.5 161.5,-187.5 161.5,-168.5 78.5,-168.5"/>
<text text-anchor="middle" x="120" y="-175.5" font-family="Helvetica,sans-Serif" font-size="10.00">CoolMQTT.cpp</text>
</g>
<!-- Node1 -->
<g id="node2" class="node"><title>Node1</title>
<polygon fill="white" stroke="#bfbfbf" points="0,-112.5 0,-131.5 38,-131.5 38,-112.5 0,-112.5"/>
<text text-anchor="middle" x="19" y="-119.5" font-family="Helvetica,sans-Serif" font-size="10.00">FS.h</text>
</g>
<!-- Node0&#45;&gt;Node1 -->
<g id="edge1" class="edge"><title>Node0&#45;&gt;Node1</title>
<path fill="none" stroke="midnightblue" d="M103.773,-168.324C87.649,-159.703 62.6998,-146.364 44.0359,-136.386"/>
<polygon fill="midnightblue" stroke="midnightblue" points="45.6561,-133.283 35.1871,-131.655 42.3556,-139.456 45.6561,-133.283"/>
</g>
<!-- Node2 -->
<g id="node3" class="node"><title>Node2</title>
<polygon fill="white" stroke="#bfbfbf" points="148,-0.5 148,-19.5 206,-19.5 206,-0.5 148,-0.5"/>
<text text-anchor="middle" x="177" y="-7.5" font-family="Helvetica,sans-Serif" font-size="10.00">Arduino.h</text>
</g>
<!-- Node0&#45;&gt;Node2 -->
<g id="edge2" class="edge"><title>Node0&#45;&gt;Node2</title>
<path fill="none" stroke="midnightblue" d="M113.098,-168.431C97.2762,-147.678 61.4969,-93.66 85,-56 96.6771,-37.2893 118.638,-26.1457 138.175,-19.6289"/>
<polygon fill="midnightblue" stroke="midnightblue" points="139.255,-22.9591 147.809,-16.708 137.224,-16.2602 139.255,-22.9591"/>
</g>
<!-- Node3 -->
<g id="node4" class="node"><title>Node3</title>
<polygon fill="white" stroke="#bfbfbf" points="94,-56.5 94,-75.5 180,-75.5 180,-56.5 94,-56.5"/>
<text text-anchor="middle" x="137" y="-63.5" font-family="Helvetica,sans-Serif" font-size="10.00">ESP8266WiFi.h</text>
</g>
<!-- Node0&#45;&gt;Node3 -->
<g id="edge3" class="edge"><title>Node0&#45;&gt;Node3</title>
<path fill="none" stroke="midnightblue" d="M121.334,-168.368C124.077,-150.617 130.406,-109.666 134.126,-85.5974"/>
<polygon fill="midnightblue" stroke="midnightblue" points="137.604,-86.0087 135.672,-75.5914 130.686,-84.9395 137.604,-86.0087"/>
</g>
<!-- Node4 -->
<g id="node5" class="node"><title>Node4</title>
<g id="a_node5"><a xlink:href="$de/d2e/_cool_m_q_t_t_8h.html" xlink:title="CoolMQTT Header file. ">
<polygon fill="white" stroke="black" points="148.5,-112.5 148.5,-131.5 221.5,-131.5 221.5,-112.5 148.5,-112.5"/>
<text text-anchor="middle" x="185" y="-119.5" font-family="Helvetica,sans-Serif" font-size="10.00">CoolMQTT.h</text>
</a>
</g>
</g>
<!-- Node0&#45;&gt;Node4 -->
<g id="edge4" class="edge"><title>Node0&#45;&gt;Node4</title>
<path fill="none" stroke="midnightblue" d="M130.443,-168.324C140.146,-160.263 154.815,-148.077 166.5,-138.369"/>
<polygon fill="midnightblue" stroke="midnightblue" points="168.911,-140.916 174.367,-131.834 164.438,-135.532 168.911,-140.916"/>
</g>
<!-- Node9 -->
<g id="node10" class="node"><title>Node9</title>
<polygon fill="white" stroke="#bfbfbf" points="239.5,-112.5 239.5,-131.5 318.5,-131.5 318.5,-112.5 239.5,-112.5"/>
<text text-anchor="middle" x="279" y="-119.5" font-family="Helvetica,sans-Serif" font-size="10.00">ArduinoJson.h</text>
</g>
<!-- Node0&#45;&gt;Node9 -->
<g id="edge12" class="edge"><title>Node0&#45;&gt;Node9</title>
<path fill="none" stroke="midnightblue" d="M145.194,-168.444C171.943,-159.359 214.403,-144.939 244.305,-134.783"/>
<polygon fill="midnightblue" stroke="midnightblue" points="245.581,-138.046 253.924,-131.516 243.329,-131.418 245.581,-138.046"/>
</g>
<!-- Node4&#45;&gt;Node2 -->
<g id="edge5" class="edge"><title>Node4&#45;&gt;Node2</title>
<path fill="none" stroke="midnightblue" d="M186.616,-112.132C188.66,-99.5845 191.615,-75.9542 189,-56 187.844,-47.1813 185.466,-37.6328 183.13,-29.6098"/>
<polygon fill="midnightblue" stroke="midnightblue" points="186.399,-28.3366 180.088,-19.8268 179.715,-30.4151 186.399,-28.3366"/>
</g>
<!-- Node4&#45;&gt;Node3 -->
<g id="edge6" class="edge"><title>Node4&#45;&gt;Node3</title>
<path fill="none" stroke="midnightblue" d="M177.074,-112.083C170.154,-104.298 159.935,-92.8015 151.548,-83.3665"/>
<polygon fill="midnightblue" stroke="midnightblue" points="154.038,-80.8999 144.779,-75.7511 148.806,-85.5505 154.038,-80.8999"/>
</g>
<!-- Node5 -->
<g id="node6" class="node"><title>Node5</title>
<g id="a_node6"><a xlink:href="$d5/dfb/_cool_pub_sub_client_8h.html" xlink:title="internals/CoolPubSubClient.h">
<polygon fill="white" stroke="black" points="236.5,-56.5 236.5,-75.5 381.5,-75.5 381.5,-56.5 236.5,-56.5"/>
<text text-anchor="middle" x="309" y="-63.5" font-family="Helvetica,sans-Serif" font-size="10.00">internals/CoolPubSubClient.h</text>
</a>
</g>
</g>
<!-- Node4&#45;&gt;Node5 -->
<g id="edge7" class="edge"><title>Node4&#45;&gt;Node5</title>
<path fill="none" stroke="midnightblue" d="M204.648,-112.444C224.965,-103.596 256.903,-89.6875 280.098,-79.5865"/>
<polygon fill="midnightblue" stroke="midnightblue" points="281.673,-82.7181 289.444,-75.5164 278.878,-76.3002 281.673,-82.7181"/>
</g>
<!-- Node5&#45;&gt;Node2 -->
<g id="edge8" class="edge"><title>Node5&#45;&gt;Node2</title>
<path fill="none" stroke="midnightblue" d="M288.084,-56.4435C266.264,-47.5171 231.85,-33.4387 207.108,-23.3168"/>
<polygon fill="midnightblue" stroke="midnightblue" points="208.399,-20.0634 197.818,-19.5164 205.748,-26.5422 208.399,-20.0634"/>
</g>
<!-- Node6 -->
<g id="node7" class="node"><title>Node6</title>
<polygon fill="white" stroke="#bfbfbf" points="224.5,-0.5 224.5,-19.5 295.5,-19.5 295.5,-0.5 224.5,-0.5"/>
<text text-anchor="middle" x="260" y="-7.5" font-family="Helvetica,sans-Serif" font-size="10.00">IPAddress.h</text>
</g>
<!-- Node5&#45;&gt;Node6 -->
<g id="edge9" class="edge"><title>Node5&#45;&gt;Node6</title>
<path fill="none" stroke="midnightblue" d="M300.909,-56.083C293.845,-48.2982 283.412,-36.8015 274.851,-27.3665"/>
<polygon fill="midnightblue" stroke="midnightblue" points="277.253,-24.8047 267.941,-19.7511 272.069,-29.5087 277.253,-24.8047"/>
</g>
<!-- Node7 -->
<g id="node8" class="node"><title>Node7</title>
<polygon fill="white" stroke="#bfbfbf" points="314,-0.5 314,-19.5 364,-19.5 364,-0.5 314,-0.5"/>
<text text-anchor="middle" x="339" y="-7.5" font-family="Helvetica,sans-Serif" font-size="10.00">Client.h</text>
</g>
<!-- Node5&#45;&gt;Node7 -->
<g id="edge10" class="edge"><title>Node5&#45;&gt;Node7</title>
<path fill="none" stroke="midnightblue" d="M313.954,-56.083C318.104,-48.6127 324.153,-37.7244 329.267,-28.5199"/>
<polygon fill="midnightblue" stroke="midnightblue" points="332.341,-30.1924 334.138,-19.7511 326.222,-26.7929 332.341,-30.1924"/>
</g>
<!-- Node8 -->
<g id="node9" class="node"><title>Node8</title>
<polygon fill="white" stroke="#bfbfbf" points="382,-0.5 382,-19.5 438,-19.5 438,-0.5 382,-0.5"/>
<text text-anchor="middle" x="410" y="-7.5" font-family="Helvetica,sans-Serif" font-size="10.00">Stream.h</text>
</g>
<!-- Node5&#45;&gt;Node8 -->
<g id="edge11" class="edge"><title>Node5&#45;&gt;Node8</title>
<path fill="none" stroke="midnightblue" d="M325.227,-56.324C341.351,-47.7034 366.3,-34.3643 384.964,-24.3855"/>
<polygon fill="midnightblue" stroke="midnightblue" points="386.644,-27.456 393.813,-19.6545 383.344,-21.283 386.644,-27.456"/>
</g>
</g>
</svg>
