<?xml version="1.0" encoding="UTF-8" standalone="no"?>
<!DOCTYPE svg PUBLIC "-//W3C//DTD SVG 1.1//EN"
 "http://www.w3.org/Graphics/SVG/1.1/DTD/svg11.dtd">
<!-- Generated by graphviz version 2.38.0 (20140413.2041)
 -->
<!-- Title: /home/ashiroji/Arduino/libraries/CoolBoard/src/internals/CoolPubSubClient.cpp Pages: 1 -->
<svg width="306pt" height="162pt"
 viewBox="0.00 0.00 306.00 162.00" xmlns="http://www.w3.org/2000/svg" xmlns:xlink="http://www.w3.org/1999/xlink">
<g id="graph0" class="graph" transform="scale(1 1) rotate(0) translate(4 158)">
<title>/home/ashiroji/Arduino/libraries/CoolBoard/src/internals/CoolPubSubClient.cpp</title>
<polygon fill="white" stroke="none" points="-4,4 -4,-158 302,-158 302,4 -4,4"/>
<!-- Node0 -->
<g id="node1" class="node"><title>Node0</title>
<polygon fill="#bfbfbf" stroke="black" points="-1.42109e-14,-112.5 -1.42109e-14,-153.5 158,-153.5 158,-112.5 -1.42109e-14,-112.5"/>
<text text-anchor="start" x="8" y="-141.5" font-family="Helvetica,sans-Serif" font-size="10.00">/home/ashiroji/Arduino</text>
<text text-anchor="start" x="8" y="-130.5" font-family="Helvetica,sans-Serif" font-size="10.00">/libraries/CoolBoard/src</text>
<text text-anchor="middle" x="79" y="-119.5" font-family="Helvetica,sans-Serif" font-size="10.00">/internals/CoolPubSubClient.cpp</text>
</g>
<!-- Node1 -->
<g id="node2" class="node"><title>Node1</title>
<g id="a_node2"><a xlink:href="_cool_pub_sub_client_8h.html" target="_top" xlink:title="CoolPubSubClient.h">
<polygon fill="white" stroke="black" points="67.5,-56.5 67.5,-75.5 172.5,-75.5 172.5,-56.5 67.5,-56.5"/>
<text text-anchor="middle" x="120" y="-63.5" font-family="Helvetica,sans-Serif" font-size="10.00">CoolPubSubClient.h</text>
</a>
</g>
</g>
<!-- Node0&#45;&gt;Node1 -->
<g id="edge1" class="edge"><title>Node0&#45;&gt;Node1</title>
<path fill="none" stroke="midnightblue" d="M91.3014,-112.498C96.983,-103.49 103.671,-92.8881 109.16,-84.1852"/>
<polygon fill="midnightblue" stroke="midnightblue" points="112.167,-85.9778 114.542,-75.6525 106.247,-82.2432 112.167,-85.9778"/>
</g>
<!-- Node2 -->
<g id="node3" class="node"><title>Node2</title>
<polygon fill="white" stroke="#bfbfbf" points="8,-0.5 8,-19.5 66,-19.5 66,-0.5 8,-0.5"/>
<text text-anchor="middle" x="37" y="-7.5" font-family="Helvetica,sans-Serif" font-size="10.00">Arduino.h</text>
</g>
<!-- Node0&#45;&gt;Node2 -->
<g id="edge6" class="edge"><title>Node0&#45;&gt;Node2</title>
<path fill="none" stroke="midnightblue" d="M71.3904,-112.384C67.3002,-101.676 62.2407,-88.1569 58,-76 52.5683,-60.4287 46.841,-42.5942 42.7421,-29.5502"/>
<polygon fill="midnightblue" stroke="midnightblue" points="46.0432,-28.3789 39.7243,-19.8747 39.3607,-30.4633 46.0432,-28.3789"/>
</g>
<!-- Node1&#45;&gt;Node2 -->
<g id="edge2" class="edge"><title>Node1&#45;&gt;Node2</title>
<path fill="none" stroke="midnightblue" d="M106.665,-56.324C93.838,-47.979 74.215,-35.2122 59.0602,-25.3524"/>
<polygon fill="midnightblue" stroke="midnightblue" points="60.5932,-22.1742 50.3023,-19.6545 56.7757,-28.0417 60.5932,-22.1742"/>
</g>
<!-- Node3 -->
<g id="node4" class="node"><title>Node3</title>
<polygon fill="white" stroke="#bfbfbf" points="84.5,-0.5 84.5,-19.5 155.5,-19.5 155.5,-0.5 84.5,-0.5"/>
<text text-anchor="middle" x="120" y="-7.5" font-family="Helvetica,sans-Serif" font-size="10.00">IPAddress.h</text>
</g>
<!-- Node1&#45;&gt;Node3 -->
<g id="edge3" class="edge"><title>Node1&#45;&gt;Node3</title>
<path fill="none" stroke="midnightblue" d="M120,-56.083C120,-49.0059 120,-38.8611 120,-29.9865"/>
<polygon fill="midnightblue" stroke="midnightblue" points="123.5,-29.751 120,-19.7511 116.5,-29.7511 123.5,-29.751"/>
</g>
<!-- Node4 -->
<g id="node5" class="node"><title>Node4</title>
<polygon fill="white" stroke="#bfbfbf" points="174,-0.5 174,-19.5 224,-19.5 224,-0.5 174,-0.5"/>
<text text-anchor="middle" x="199" y="-7.5" font-family="Helvetica,sans-Serif" font-size="10.00">Client.h</text>
</g>
<!-- Node1&#45;&gt;Node4 -->
<g id="edge4" class="edge"><title>Node1&#45;&gt;Node4</title>
<path fill="none" stroke="midnightblue" d="M132.693,-56.324C144.901,-47.979 163.578,-35.2122 178.003,-25.3524"/>
<polygon fill="midnightblue" stroke="midnightblue" points="180.058,-28.1871 186.339,-19.6545 176.108,-22.4082 180.058,-28.1871"/>
</g>
<!-- Node5 -->
<g id="node6" class="node"><title>Node5</title>
<polygon fill="white" stroke="#bfbfbf" points="242,-0.5 242,-19.5 298,-19.5 298,-0.5 242,-0.5"/>
<text text-anchor="middle" x="270" y="-7.5" font-family="Helvetica,sans-Serif" font-size="10.00">Stream.h</text>
</g>
<!-- Node1&#45;&gt;Node5 -->
<g id="edge5" class="edge"><title>Node1&#45;&gt;Node5</title>
<path fill="none" stroke="midnightblue" d="M143.768,-56.4435C168.893,-47.3986 208.711,-33.064 236.9,-22.9158"/>
<polygon fill="midnightblue" stroke="midnightblue" points="238.12,-26.1968 246.343,-19.5164 235.749,-19.6106 238.12,-26.1968"/>
</g>
</g>
</svg>
