<?xml version="1.0" encoding="UTF-8" standalone="no"?>
<!DOCTYPE svg PUBLIC "-//W3C//DTD SVG 1.1//EN"
 "http://www.w3.org/Graphics/SVG/1.1/DTD/svg11.dtd">
<!-- Generated by graphviz version 2.38.0 (20140413.2041)
 -->
<!-- Title: i2cread Pages: 1 -->
<!--zoomable 276 -->
<svg id="main" version="1.1" xmlns="http://www.w3.org/2000/svg" xmlns:xlink="http://www.w3.org/1999/xlink" xml:space="preserve" onload="init(evt)">
<style type="text/css"><![CDATA[
.edge:hover path { stroke: red; }
.edge:hover polygon { stroke: red; fill: red; }
]]></style>
<script type="text/javascript"><![CDATA[
var edges = document.getElementsByTagName('g');
if (edges && edges.length) {
  for (var i=0;i<edges.length;i++) {
    if (edges[i].id.substr(0,4)=='edge') {
      edges[i].setAttribute('class','edge');
    }
  }
}
]]></script>
        <defs>
                <circle id="rim" cx="0" cy="0" r="7"/>
                <circle id="rim2" cx="0" cy="0" r="3.5"/>
                <g id="zoomPlus">
                        <use xlink:href="#rim" fill="#404040">
                                <set attributeName="fill" to="#808080" begin="zoomplus.mouseover" end="zoomplus.mouseout"/>
                        </use>
                        <path d="M-4,0h8M0,-4v8" fill="none" stroke="white" stroke-width="1.5" pointer-events="none"/>
                </g>
                <g id="zoomMin">
                        <use xlink:href="#rim" fill="#404040">
                                <set attributeName="fill" to="#808080" begin="zoomminus.mouseover" end="zoomminus.mouseout"/>
                        </use>
                        <path d="M-4,0h8" fill="none" stroke="white" stroke-width="1.5" pointer-events="none"/>
                </g>
                <g id="dirArrow">
                        <path fill="none" stroke="white" stroke-width="1.5" d="M0,-3.0v7 M-2.5,-0.5L0,-3.0L2.5,-0.5"/>
                </g>
               <g id="resetDef">
                       <use xlink:href="#rim2" fill="#404040">
                               <set attributeName="fill" to="#808080" begin="reset.mouseover" end="reset.mouseout"/>
                       </use>
               </g>
        </defs>

<script type="text/javascript">
var viewWidth = 977;
var viewHeight = 276;
var sectionId = 'dynsection-1';
</script>
<script xlink:href="svgpan.js"/>
<svg id="graph" class="graph">
<g id="viewport">
<title>i2cread</title>
<polygon fill="white" stroke="none" points="-4,4 -4,-271.5 973,-271.5 973,4 -4,4"/>
<!-- Node1 -->
<g id="node1" class="node"><title>Node1</title>
<polygon fill="#bfbfbf" stroke="black" points="0,-79 0,-98 48,-98 48,-79 0,-79"/>
<text text-anchor="middle" x="24" y="-86" font-family="Helvetica,sans-Serif" font-size="10.00">i2cread</text>
</g>
<!-- Node2 -->
<g id="node2" class="node"><title>Node2</title>
<g id="a_node2"><a xlink:href="_cool_adafruit___a_d_s1015_8cpp.html#a319539381b7551b2f83a92b0b596e97d" target="_top" xlink:title="Writes 16&#45;bits to the specified destination register. ">
<polygon fill="white" stroke="black" points="84,-79 84,-98 156,-98 156,-79 84,-79"/>
<text text-anchor="middle" x="120" y="-86" font-family="Helvetica,sans-Serif" font-size="10.00">readRegister</text>
</a>
</g>
</g>
<!-- Node1&#45;&gt;Node2 -->
<g id="edge1" class="edge"><title>Node1&#45;&gt;Node2</title>
<path fill="none" stroke="midnightblue" d="M58.3323,-88.5C66.6355,-88.5 75.5622,-88.5 83.9457,-88.5"/>
<polygon fill="midnightblue" stroke="midnightblue" points="58.236,-85.0001 48.236,-88.5 58.2359,-92.0001 58.236,-85.0001"/>
</g>
<!-- Node3 -->
<g id="node3" class="node"><title>Node3</title>
<g id="a_node3"><a xlink:href="class_adafruit___a_d_s1015.html#a40f38b9e1f3ec397c0670dd632510235" target="_top" xlink:title="Gets a single&#45;ended ADC reading from the specified channel. ">
<polygon fill="white" stroke="black" points="192,-147.5 192,-177.5 336,-177.5 336,-147.5 192,-147.5"/>
<text text-anchor="start" x="200" y="-165.5" font-family="Helvetica,sans-Serif" font-size="10.00">Adafruit_ADS1015::readADC</text>
<text text-anchor="middle" x="264" y="-154.5" font-family="Helvetica,sans-Serif" font-size="10.00">_SingleEnded</text>
</a>
</g>
</g>
<!-- Node2&#45;&gt;Node3 -->
<g id="edge2" class="edge"><title>Node2&#45;&gt;Node3</title>
<path fill="none" stroke="midnightblue" d="M141.161,-104.57C154.901,-114.967 173.829,-128.24 192,-137.5 199.102,-141.12 206.851,-144.434 214.535,-147.382"/>
<polygon fill="midnightblue" stroke="midnightblue" points="142.997,-101.566 132.942,-98.2246 138.719,-107.106 142.997,-101.566"/>
</g>
<!-- Node17 -->
<g id="node17" class="node"><title>Node17</title>
<g id="a_node17"><a xlink:href="class_adafruit___a_d_s1015.html#a56582333958e66efaccd3d4a8a47e3ff" target="_top" xlink:title="Reads the conversion results, measuring the voltage difference between the P (AIN0) and N (AIN1) inpu...">
<polygon fill="white" stroke="black" points="192,-98.5 192,-128.5 336,-128.5 336,-98.5 192,-98.5"/>
<text text-anchor="start" x="200" y="-116.5" font-family="Helvetica,sans-Serif" font-size="10.00">Adafruit_ADS1015::readADC</text>
<text text-anchor="middle" x="264" y="-105.5" font-family="Helvetica,sans-Serif" font-size="10.00">_Differential_0_1</text>
</a>
</g>
</g>
<!-- Node2&#45;&gt;Node17 -->
<g id="edge22" class="edge"><title>Node2&#45;&gt;Node17</title>
<path fill="none" stroke="midnightblue" d="M166.196,-96.4571C174.424,-97.9056 183.186,-99.4483 191.95,-100.991"/>
<polygon fill="midnightblue" stroke="midnightblue" points="166.557,-92.9668 156.101,-94.6798 165.343,-99.8607 166.557,-92.9668"/>
</g>
<!-- Node18 -->
<g id="node18" class="node"><title>Node18</title>
<g id="a_node18"><a xlink:href="class_adafruit___a_d_s1015.html#a38311881bcab46f7496c4bb6e4cad576" target="_top" xlink:title="Reads the conversion results, measuring the voltage difference between the P (AIN2) and N (AIN3) inpu...">
<polygon fill="white" stroke="black" points="192,-49.5 192,-79.5 336,-79.5 336,-49.5 192,-49.5"/>
<text text-anchor="start" x="200" y="-67.5" font-family="Helvetica,sans-Serif" font-size="10.00">Adafruit_ADS1015::readADC</text>
<text text-anchor="middle" x="264" y="-56.5" font-family="Helvetica,sans-Serif" font-size="10.00">_Differential_2_3</text>
</a>
</g>
</g>
<!-- Node2&#45;&gt;Node18 -->
<g id="edge23" class="edge"><title>Node2&#45;&gt;Node18</title>
<path fill="none" stroke="midnightblue" d="M166.196,-80.8612C174.424,-79.4707 183.186,-77.9897 191.95,-76.5085"/>
<polygon fill="midnightblue" stroke="midnightblue" points="165.378,-77.4498 156.101,-82.5674 166.545,-84.3519 165.378,-77.4498"/>
</g>
<!-- Node19 -->
<g id="node19" class="node"><title>Node19</title>
<g id="a_node19"><a xlink:href="class_adafruit___a_d_s1015.html#ad8f36d80847020778425107f6451a8c2" target="_top" xlink:title="In order to clear the comparator, we need to read the conversion results. This function reads the las...">
<polygon fill="white" stroke="black" points="196,-0.5 196,-30.5 332,-30.5 332,-0.5 196,-0.5"/>
<text text-anchor="start" x="204" y="-18.5" font-family="Helvetica,sans-Serif" font-size="10.00">Adafruit_ADS1015::getLast</text>
<text text-anchor="middle" x="264" y="-7.5" font-family="Helvetica,sans-Serif" font-size="10.00">ConversionResults</text>
</a>
</g>
</g>
<!-- Node2&#45;&gt;Node19 -->
<g id="edge24" class="edge"><title>Node2&#45;&gt;Node19</title>
<path fill="none" stroke="midnightblue" d="M141.123,-72.3545C154.846,-61.9259 173.771,-48.6457 192,-39.5 198.513,-36.2324 205.574,-33.246 212.631,-30.574"/>
<polygon fill="midnightblue" stroke="midnightblue" points="138.671,-69.8276 132.916,-78.7236 142.962,-75.3577 138.671,-69.8276"/>
</g>
<!-- Node4 -->
<g id="node4" class="node"><title>Node4</title>
<g id="a_node4"><a xlink:href="class_irene3000.html#a78a87eb7cf295b95c12b2ebd51c2bb77" target="_top" xlink:title="Irene3000::readButton">
<polygon fill="white" stroke="black" points="388.5,-248 388.5,-267 501.5,-267 501.5,-248 388.5,-248"/>
<text text-anchor="middle" x="445" y="-255" font-family="Helvetica,sans-Serif" font-size="10.00">Irene3000::readButton</text>
</a>
</g>
</g>
<!-- Node3&#45;&gt;Node4 -->
<g id="edge3" class="edge"><title>Node3&#45;&gt;Node4</title>
<path fill="none" stroke="midnightblue" d="M289.624,-183.925C310.337,-200.938 341.394,-224.173 372,-238.5 380.079,-242.282 389.033,-245.405 397.805,-247.95"/>
<polygon fill="midnightblue" stroke="midnightblue" points="291.867,-181.238 281.948,-177.514 287.38,-186.611 291.867,-181.238"/>
</g>
<!-- Node7 -->
<g id="node7" class="node"><title>Node7</title>
<g id="a_node7"><a xlink:href="class_irene3000.html#ae73bd2ed14a199a7e83f4d6458476a7c" target="_top" xlink:title="Irene3000::readADSChannel2">
<polygon fill="white" stroke="black" points="372,-134 372,-153 518,-153 518,-134 372,-134"/>
<text text-anchor="middle" x="445" y="-141" font-family="Helvetica,sans-Serif" font-size="10.00">Irene3000::readADSChannel2</text>
</a>
</g>
</g>
<!-- Node3&#45;&gt;Node7 -->
<g id="edge6" class="edge"><title>Node3&#45;&gt;Node7</title>
<path fill="none" stroke="midnightblue" d="M346.055,-153.896C354.676,-152.981 363.403,-152.055 371.911,-151.152"/>
<polygon fill="midnightblue" stroke="midnightblue" points="345.577,-150.427 336.003,-154.963 346.316,-157.388 345.577,-150.427"/>
</g>
<!-- Node12 -->
<g id="node12" class="node"><title>Node12</title>
<g id="a_node12"><a xlink:href="class_irene3000.html#a436fc0a06681cd0784aba56b9707f19a" target="_top" xlink:title="Irene3000::readPh">
<polygon fill="white" stroke="black" points="397,-96 397,-115 493,-115 493,-96 397,-96"/>
<text text-anchor="middle" x="445" y="-103" font-family="Helvetica,sans-Serif" font-size="10.00">Irene3000::readPh</text>
</a>
</g>
</g>
<!-- Node3&#45;&gt;Node12 -->
<g id="edge11" class="edge"><title>Node3&#45;&gt;Node12</title>
<path fill="none" stroke="midnightblue" d="M317.53,-144.056C323.758,-141.854 330.022,-139.632 336,-137.5 352.023,-131.786 355.76,-129.564 372,-124.5 382.737,-121.152 394.492,-117.885 405.333,-115.031"/>
<polygon fill="midnightblue" stroke="midnightblue" points="316.085,-140.855 307.821,-147.484 318.415,-147.455 316.085,-140.855"/>
</g>
<!-- Node13 -->
<g id="node13" class="node"><title>Node13</title>
<g id="a_node13"><a xlink:href="class_irene3000.html#a80bc6dfea106dc3bc54fa20204d4d5dc" target="_top" xlink:title="Irene3000::readTemp">
<polygon fill="white" stroke="black" points="390.5,-58 390.5,-77 499.5,-77 499.5,-58 390.5,-58"/>
<text text-anchor="middle" x="445" y="-65" font-family="Helvetica,sans-Serif" font-size="10.00">Irene3000::readTemp</text>
</a>
</g>
</g>
<!-- Node3&#45;&gt;Node13 -->
<g id="edge13" class="edge"><title>Node3&#45;&gt;Node13</title>
<path fill="none" stroke="midnightblue" d="M328.172,-142.724C330.9,-141.109 333.526,-139.371 336,-137.5 358.132,-120.768 349.213,-102.327 372,-86.5 377.628,-82.5913 384.011,-79.4867 390.596,-77.0207"/>
<polygon fill="midnightblue" stroke="midnightblue" points="326.385,-139.71 319.173,-147.472 329.651,-145.901 326.385,-139.71"/>
</g>
<!-- Node14 -->
<g id="node14" class="node"><title>Node14</title>
<g id="a_node14"><a xlink:href="class_irene3000.html#a1d3299202e4cb7afcff9c9e3e95d94c1" target="_top" xlink:title="Irene3000::calibratepH7">
<polygon fill="white" stroke="black" points="385,-210 385,-229 505,-229 505,-210 385,-210"/>
<text text-anchor="middle" x="445" y="-217" font-family="Helvetica,sans-Serif" font-size="10.00">Irene3000::calibratepH7</text>
</a>
</g>
</g>
<!-- Node3&#45;&gt;Node14 -->
<g id="edge15" class="edge"><title>Node3&#45;&gt;Node14</title>
<path fill="none" stroke="midnightblue" d="M314.574,-181.074C332.552,-187.553 353.089,-194.658 372,-200.5 382.746,-203.82 394.504,-207.078 405.344,-209.932"/>
<polygon fill="midnightblue" stroke="midnightblue" points="315.47,-177.676 304.876,-177.552 313.08,-184.255 315.47,-177.676"/>
</g>
<!-- Node16 -->
<g id="node16" class="node"><title>Node16</title>
<g id="a_node16"><a xlink:href="class_irene3000.html#aa140dd026922a04981edfd04d46cabbe" target="_top" xlink:title="Irene3000::calibratepH4">
<polygon fill="white" stroke="black" points="385,-172 385,-191 505,-191 505,-172 385,-172"/>
<text text-anchor="middle" x="445" y="-179" font-family="Helvetica,sans-Serif" font-size="10.00">Irene3000::calibratepH4</text>
</a>
</g>
</g>
<!-- Node3&#45;&gt;Node16 -->
<g id="edge19" class="edge"><title>Node3&#45;&gt;Node16</title>
<path fill="none" stroke="midnightblue" d="M345.962,-171.094C359.074,-172.485 372.432,-173.903 384.897,-175.227"/>
<polygon fill="midnightblue" stroke="midnightblue" points="346.316,-167.612 336.003,-170.037 345.577,-174.573 346.316,-167.612"/>
</g>
<!-- Node5 -->
<g id="node5" class="node"><title>Node5</title>
<g id="a_node5"><a xlink:href="class_irene3000.html#ad5891806c500ae1007afe52b9e304c2b" target="_top" xlink:title="Irene3000::begin">
<polygon fill="white" stroke="black" points="558.5,-210 558.5,-229 647.5,-229 647.5,-210 558.5,-210"/>
<text text-anchor="middle" x="603" y="-217" font-family="Helvetica,sans-Serif" font-size="10.00">Irene3000::begin</text>
</a>
</g>
</g>
<!-- Node4&#45;&gt;Node5 -->
<g id="edge4" class="edge"><title>Node4&#45;&gt;Node5</title>
<path fill="none" stroke="midnightblue" d="M495.132,-245.532C516.993,-240.207 542.376,-234.024 562.918,-229.02"/>
<polygon fill="midnightblue" stroke="midnightblue" points="494.253,-242.144 485.365,-247.911 495.91,-248.945 494.253,-242.144"/>
</g>
<!-- Node6 -->
<g id="node6" class="node"><title>Node6</title>
<g id="a_node6"><a xlink:href="class_cool_board.html#acba7c5aef7268b2c0044bdb54d3b9d76" target="_top" xlink:title="CoolBoard::begin">
<polygon fill="white" stroke="black" points="703.5,-210 703.5,-229 795.5,-229 795.5,-210 703.5,-210"/>
<text text-anchor="middle" x="749.5" y="-217" font-family="Helvetica,sans-Serif" font-size="10.00">CoolBoard::begin</text>
</a>
</g>
</g>
<!-- Node5&#45;&gt;Node6 -->
<g id="edge5" class="edge"><title>Node5&#45;&gt;Node6</title>
<path fill="none" stroke="midnightblue" d="M657.902,-219.5C672.88,-219.5 688.985,-219.5 703.401,-219.5"/>
<polygon fill="midnightblue" stroke="midnightblue" points="657.747,-216 647.747,-219.5 657.747,-223 657.747,-216"/>
</g>
<!-- Node8 -->
<g id="node8" class="node"><title>Node8</title>
<g id="a_node8"><a xlink:href="class_irene3000.html#a852a170feea994ea1df01c6b245b5d9a" target="_top" xlink:title="Irene3000::read">
<polygon fill="white" stroke="black" points="561,-101 561,-120 645,-120 645,-101 561,-101"/>
<text text-anchor="middle" x="603" y="-108" font-family="Helvetica,sans-Serif" font-size="10.00">Irene3000::read</text>
</a>
</g>
</g>
<!-- Node7&#45;&gt;Node8 -->
<g id="edge7" class="edge"><title>Node7&#45;&gt;Node8</title>
<path fill="none" stroke="midnightblue" d="M500.922,-131.882C520.679,-127.702 542.607,-123.064 560.976,-119.178"/>
<polygon fill="midnightblue" stroke="midnightblue" points="500.181,-128.461 491.122,-133.955 501.63,-135.31 500.181,-128.461"/>
</g>
<!-- Node9 -->
<g id="node9" class="node"><title>Node9</title>
<g id="a_node9"><a xlink:href="class_cool_board.html#ad03abdce2e65f520bbf2cff0f2d083cf" target="_top" xlink:title="CoolBoard::readSensors">
<polygon fill="white" stroke="black" points="688,-110 688,-129 811,-129 811,-110 688,-110"/>
<text text-anchor="middle" x="749.5" y="-117" font-family="Helvetica,sans-Serif" font-size="10.00">CoolBoard::readSensors</text>
</a>
</g>
</g>
<!-- Node8&#45;&gt;Node9 -->
<g id="edge8" class="edge"><title>Node8&#45;&gt;Node9</title>
<path fill="none" stroke="midnightblue" d="M655.327,-113.697C665.887,-114.355 677.1,-115.053 687.952,-115.729"/>
<polygon fill="midnightblue" stroke="midnightblue" points="655.22,-110.183 645.021,-113.055 654.784,-117.17 655.22,-110.183"/>
</g>
<!-- Node10 -->
<g id="node10" class="node"><title>Node10</title>
<g id="a_node10"><a xlink:href="class_cool_board.html#aa0bbc4bc605e35618d18e68795c61363" target="_top" xlink:title="CoolBoard::onLineMode">
<polygon fill="white" stroke="black" points="847.5,-157 847.5,-176 968.5,-176 968.5,-157 847.5,-157"/>
<text text-anchor="middle" x="908" y="-164" font-family="Helvetica,sans-Serif" font-size="10.00">CoolBoard::onLineMode</text>
</a>
</g>
</g>
<!-- Node9&#45;&gt;Node10 -->
<g id="edge9" class="edge"><title>Node9&#45;&gt;Node10</title>
<path fill="none" stroke="midnightblue" d="M791.783,-131.898C817.863,-139.73 851.056,-149.699 875.109,-156.922"/>
<polygon fill="midnightblue" stroke="midnightblue" points="792.754,-128.535 782.17,-129.011 790.741,-135.24 792.754,-128.535"/>
</g>
<!-- Node11 -->
<g id="node11" class="node"><title>Node11</title>
<g id="a_node11"><a xlink:href="class_cool_board.html#ae6b5e1274d760462290192acea4adca8" target="_top" xlink:title="CoolBoard::offLineMode">
<polygon fill="white" stroke="black" points="847,-110 847,-129 969,-129 969,-110 847,-110"/>
<text text-anchor="middle" x="908" y="-117" font-family="Helvetica,sans-Serif" font-size="10.00">CoolBoard::offLineMode</text>
</a>
</g>
</g>
<!-- Node9&#45;&gt;Node11 -->
<g id="edge10" class="edge"><title>Node9&#45;&gt;Node11</title>
<path fill="none" stroke="midnightblue" d="M821.059,-119.5C829.692,-119.5 838.452,-119.5 846.912,-119.5"/>
<polygon fill="midnightblue" stroke="midnightblue" points="821.007,-116 811.007,-119.5 821.007,-123 821.007,-116"/>
</g>
<!-- Node12&#45;&gt;Node8 -->
<g id="edge12" class="edge"><title>Node12&#45;&gt;Node8</title>
<path fill="none" stroke="midnightblue" d="M503.295,-107.336C522.339,-107.947 543.157,-108.614 560.745,-109.178"/>
<polygon fill="midnightblue" stroke="midnightblue" points="503.336,-103.836 493.228,-107.014 503.111,-110.832 503.336,-103.836"/>
</g>
<!-- Node13&#45;&gt;Node8 -->
<g id="edge14" class="edge"><title>Node13&#45;&gt;Node8</title>
<path fill="none" stroke="midnightblue" d="M492.466,-79.6139C500.968,-81.8725 509.757,-84.235 518,-86.5 534.965,-91.1614 553.802,-96.5262 569.332,-101"/>
<polygon fill="midnightblue" stroke="midnightblue" points="493.229,-76.1954 482.667,-77.0223 491.44,-82.9628 493.229,-76.1954"/>
</g>
<!-- Node14&#45;&gt;Node5 -->
<g id="edge18" class="edge"><title>Node14&#45;&gt;Node5</title>
<path fill="none" stroke="midnightblue" d="M515.838,-219.5C530.274,-219.5 545.087,-219.5 558.27,-219.5"/>
<polygon fill="midnightblue" stroke="midnightblue" points="515.422,-216 505.422,-219.5 515.422,-223 515.422,-216"/>
</g>
<!-- Node15 -->
<g id="node15" class="node"><title>Node15</title>
<g id="a_node15"><a xlink:href="class_cool_board.html#a8612756d3f73198cdde857a66f0fe690" target="_top" xlink:title="CoolBoard::update">
<polygon fill="white" stroke="black" points="554,-172 554,-191 652,-191 652,-172 554,-172"/>
<text text-anchor="middle" x="603" y="-179" font-family="Helvetica,sans-Serif" font-size="10.00">CoolBoard::update</text>
</a>
</g>
</g>
<!-- Node14&#45;&gt;Node15 -->
<g id="edge16" class="edge"><title>Node14&#45;&gt;Node15</title>
<path fill="none" stroke="midnightblue" d="M495.132,-207.532C516.993,-202.207 542.376,-196.024 562.918,-191.02"/>
<polygon fill="midnightblue" stroke="midnightblue" points="494.253,-204.144 485.365,-209.911 495.91,-210.945 494.253,-204.144"/>
</g>
<!-- Node15&#45;&gt;Node10 -->
<g id="edge17" class="edge"><title>Node15&#45;&gt;Node10</title>
<path fill="none" stroke="midnightblue" d="M662.293,-178.614C715.443,-175.983 793.625,-172.113 847.232,-169.459"/>
<polygon fill="midnightblue" stroke="midnightblue" points="661.826,-175.133 652.011,-179.123 662.172,-182.124 661.826,-175.133"/>
</g>
<!-- Node16&#45;&gt;Node5 -->
<g id="edge21" class="edge"><title>Node16&#45;&gt;Node5</title>
<path fill="none" stroke="midnightblue" d="M495.132,-193.468C516.993,-198.793 542.376,-204.976 562.918,-209.98"/>
<polygon fill="midnightblue" stroke="midnightblue" points="495.91,-190.055 485.365,-191.089 494.253,-196.856 495.91,-190.055"/>
</g>
<!-- Node16&#45;&gt;Node15 -->
<g id="edge20" class="edge"><title>Node16&#45;&gt;Node15</title>
<path fill="none" stroke="midnightblue" d="M515.677,-181.5C528.581,-181.5 541.793,-181.5 553.877,-181.5"/>
<polygon fill="midnightblue" stroke="midnightblue" points="515.422,-178 505.422,-181.5 515.422,-185 515.422,-178"/>
</g>
</g>
</svg>
        <g id="navigator" transform="translate(0 0)" fill="#404254">
                <rect fill="#f2f5e9" fill-opacity="0.5" stroke="#606060" stroke-width=".5" x="0" y="0" width="60" height="60"/>
                <use id="zoomplus" xlink:href="#zoomPlus" x="17" y="9" onmousedown="handleZoom(evt,'in')"/>
                <use id="zoomminus" xlink:href="#zoomMin" x="42" y="9" onmousedown="handleZoom(evt,'out')"/>
                <use id="reset" xlink:href="#resetDef" x="30" y="36" onmousedown="handleReset()"/>
                <g id="arrowUp" xlink:href="#dirArrow" transform="translate(30 24)" onmousedown="handlePan(0,-1)">
                  <use xlink:href="#rim" fill="#404040">
                        <set attributeName="fill" to="#808080" begin="arrowUp.mouseover" end="arrowUp.mouseout"/>
                  </use>
                  <path fill="none" stroke="white" stroke-width="1.5" d="M0,-3.0v7 M-2.5,-0.5L0,-3.0L2.5,-0.5"/>
                </g>
                <g id="arrowRight" xlink:href="#dirArrow" transform="rotate(90) translate(36 -43)" onmousedown="handlePan(1,0)">
                  <use xlink:href="#rim" fill="#404040">
                        <set attributeName="fill" to="#808080" begin="arrowRight.mouseover" end="arrowRight.mouseout"/>
                  </use>
                  <path fill="none" stroke="white" stroke-width="1.5" d="M0,-3.0v7 M-2.5,-0.5L0,-3.0L2.5,-0.5"/>
                </g>
                <g id="arrowDown" xlink:href="#dirArrow" transform="rotate(180) translate(-30 -48)" onmousedown="handlePan(0,1)">
                  <use xlink:href="#rim" fill="#404040">
                        <set attributeName="fill" to="#808080" begin="arrowDown.mouseover" end="arrowDown.mouseout"/>
                  </use>
                  <path fill="none" stroke="white" stroke-width="1.5" d="M0,-3.0v7 M-2.5,-0.5L0,-3.0L2.5,-0.5"/>
                </g>
                <g id="arrowLeft" xlink:href="#dirArrow" transform="rotate(270) translate(-36 17)" onmousedown="handlePan(-1,0)">
                  <use xlink:href="#rim" fill="#404040">
                        <set attributeName="fill" to="#808080" begin="arrowLeft.mouseover" end="arrowLeft.mouseout"/>
                  </use>
                  <path fill="none" stroke="white" stroke-width="1.5" d="M0,-3.0v7 M-2.5,-0.5L0,-3.0L2.5,-0.5"/>
                </g>
        </g>
        <svg viewBox="0 0 15 15" width="100%" height="30px" preserveAspectRatio="xMaxYMin meet">
         <g id="arrow_out" transform="scale(0.3 0.3)">
          <a xlink:href="_cool_adafruit___a_d_s1015_8cpp_af89e2442d757f6ec8100c473022f6701_icgraph_org.svg" target="_base">
           <rect id="button" ry="5" rx="5" y="6" x="6" height="38" width="38"
                fill="#f2f5e9" fill-opacity="0.5" stroke="#606060" stroke-width="1.0"/>
           <path id="arrow"
             d="M 11.500037,31.436501 C 11.940474,20.09759 22.043105,11.32322 32.158766,21.979434 L 37.068811,17.246167 C 37.068811,17.246167 37.088388,32 37.088388,32 L 22.160133,31.978069 C 22.160133,31.978069 26.997745,27.140456 26.997745,27.140456 C 18.528582,18.264221 13.291696,25.230495 11.500037,31.436501 z"
             style="fill:#404040;"/>
          </a>
         </g>
        </svg>
</svg>
