<?xml version="1.0" encoding="UTF-8" standalone="no"?>
<!DOCTYPE svg PUBLIC "-//W3C//DTD SVG 1.1//EN"
 "http://www.w3.org/Graphics/SVG/1.1/DTD/svg11.dtd">
<!-- Generated by graphviz version 2.38.0 (20140413.2041)
 -->
<!-- Title: /home/ashiroji/Arduino/libraries/CoolBoard/src/CoolTime.h Pages: 1 -->
<svg width="324pt" height="106pt"
 viewBox="0.00 0.00 323.50 106.00" xmlns="http://www.w3.org/2000/svg" xmlns:xlink="http://www.w3.org/1999/xlink">
<g id="graph0" class="graph" transform="scale(1 1) rotate(0) translate(4 102)">
<title>/home/ashiroji/Arduino/libraries/CoolBoard/src/CoolTime.h</title>
<polygon fill="white" stroke="none" points="-4,4 -4,-102 319.5,-102 319.5,4 -4,4"/>
<!-- Node0 -->
<g id="node1" class="node"><title>Node0</title>
<polygon fill="#bfbfbf" stroke="black" points="85.5,-56.5 85.5,-97.5 204.5,-97.5 204.5,-56.5 85.5,-56.5"/>
<text text-anchor="start" x="93.5" y="-85.5" font-family="Helvetica,sans-Serif" font-size="10.00">/home/ashiroji/Arduino</text>
<text text-anchor="start" x="93.5" y="-74.5" font-family="Helvetica,sans-Serif" font-size="10.00">/libraries/CoolBoard/src</text>
<text text-anchor="middle" x="145" y="-63.5" font-family="Helvetica,sans-Serif" font-size="10.00">/CoolTime.h</text>
</g>
<!-- Node1 -->
<g id="node2" class="node"><title>Node1</title>
<polygon fill="white" stroke="#bfbfbf" points="0,-0.5 0,-19.5 58,-19.5 58,-0.5 0,-0.5"/>
<text text-anchor="middle" x="29" y="-7.5" font-family="Helvetica,sans-Serif" font-size="10.00">Arduino.h</text>
</g>
<!-- Node0&#45;&gt;Node1 -->
<g id="edge1" class="edge"><title>Node0&#45;&gt;Node1</title>
<path fill="none" stroke="midnightblue" d="M110.196,-56.4979C91.8982,-46.2447 69.9124,-33.925 53.4361,-24.6927"/>
<polygon fill="midnightblue" stroke="midnightblue" points="54.8761,-21.4875 44.4414,-19.6525 51.4542,-27.5942 54.8761,-21.4875"/>
</g>
<!-- Node2 -->
<g id="node3" class="node"><title>Node2</title>
<polygon fill="white" stroke="#bfbfbf" points="76.5,-0.5 76.5,-19.5 135.5,-19.5 135.5,-0.5 76.5,-0.5"/>
<text text-anchor="middle" x="106" y="-7.5" font-family="Helvetica,sans-Serif" font-size="10.00">TimeLib.h</text>
</g>
<!-- Node0&#45;&gt;Node2 -->
<g id="edge2" class="edge"><title>Node0&#45;&gt;Node2</title>
<path fill="none" stroke="midnightblue" d="M133.299,-56.4979C127.952,-47.5862 121.668,-37.1135 116.478,-28.4636"/>
<polygon fill="midnightblue" stroke="midnightblue" points="119.338,-26.4267 111.191,-19.6525 113.335,-30.0282 119.338,-26.4267"/>
</g>
<!-- Node3 -->
<g id="node4" class="node"><title>Node3</title>
<polygon fill="white" stroke="#bfbfbf" points="153.5,-0.5 153.5,-19.5 216.5,-19.5 216.5,-0.5 153.5,-0.5"/>
<text text-anchor="middle" x="185" y="-7.5" font-family="Helvetica,sans-Serif" font-size="10.00">WiFiUdp.h</text>
</g>
<!-- Node0&#45;&gt;Node3 -->
<g id="edge3" class="edge"><title>Node0&#45;&gt;Node3</title>
<path fill="none" stroke="midnightblue" d="M157.001,-56.4979C162.544,-47.4904 169.069,-36.8881 174.424,-28.1852"/>
<polygon fill="midnightblue" stroke="midnightblue" points="177.415,-30.0034 179.675,-19.6525 171.454,-26.3347 177.415,-30.0034"/>
</g>
<!-- Node4 -->
<g id="node5" class="node"><title>Node4</title>
<polygon fill="white" stroke="#bfbfbf" points="234.5,-0.5 234.5,-19.5 315.5,-19.5 315.5,-0.5 234.5,-0.5"/>
<text text-anchor="middle" x="275" y="-7.5" font-family="Helvetica,sans-Serif" font-size="10.00">DS1337RTC.h</text>
</g>
<!-- Node0&#45;&gt;Node4 -->
<g id="edge4" class="edge"><title>Node0&#45;&gt;Node4</title>
<path fill="none" stroke="midnightblue" d="M184.004,-56.4979C204.894,-46.053 230.072,-33.4638 248.644,-24.1782"/>
<polygon fill="midnightblue" stroke="midnightblue" points="250.316,-27.2552 257.695,-19.6525 247.185,-20.9942 250.316,-27.2552"/>
</g>
</g>
</svg>
