<?xml version="1.0" encoding="UTF-8" standalone="no"?>
<!DOCTYPE svg PUBLIC "-//W3C//DTD SVG 1.1//EN"
 "http://www.w3.org/Graphics/SVG/1.1/DTD/svg11.dtd">
<!-- Generated by graphviz version 2.38.0 (20140413.2041)
 -->
<!-- Title: readRegister Pages: 1 -->
<svg width="893pt" height="276pt"
 viewBox="0.00 0.00 893.00 275.50" xmlns="http://www.w3.org/2000/svg" xmlns:xlink="http://www.w3.org/1999/xlink">
<g id="graph0" class="graph" transform="scale(1 1) rotate(0) translate(4 271.5)">
<title>readRegister</title>
<polygon fill="white" stroke="none" points="-4,4 -4,-271.5 889,-271.5 889,4 -4,4"/>
<!-- Node45 -->
<g id="node1" class="node"><title>Node45</title>
<polygon fill="#bfbfbf" stroke="black" points="0,-79 0,-98 72,-98 72,-79 0,-79"/>
<text text-anchor="middle" x="36" y="-86" font-family="Helvetica,sans-Serif" font-size="10.00">readRegister</text>
</g>
<!-- Node46 -->
<g id="node2" class="node"><title>Node46</title>
<g id="a_node2"><a xlink:href="class_adafruit___a_d_s1015.html#a40f38b9e1f3ec397c0670dd632510235" target="_top" xlink:title="Gets a single&#45;ended ADC reading from the specified channel. ">
<polygon fill="white" stroke="black" points="108,-147.5 108,-177.5 252,-177.5 252,-147.5 108,-147.5"/>
<text text-anchor="start" x="116" y="-165.5" font-family="Helvetica,sans-Serif" font-size="10.00">Adafruit_ADS1015::readADC</text>
<text text-anchor="middle" x="180" y="-154.5" font-family="Helvetica,sans-Serif" font-size="10.00">_SingleEnded</text>
</a>
</g>
</g>
<!-- Node45&#45;&gt;Node46 -->
<g id="edge1" class="edge"><title>Node45&#45;&gt;Node46</title>
<path fill="none" stroke="midnightblue" d="M57.1615,-104.57C70.9005,-114.967 89.8292,-128.24 108,-137.5 115.102,-141.12 122.851,-144.434 130.535,-147.382"/>
<polygon fill="midnightblue" stroke="midnightblue" points="58.9968,-101.566 48.9425,-98.2246 54.7189,-107.106 58.9968,-101.566"/>
</g>
<!-- Node60 -->
<g id="node16" class="node"><title>Node60</title>
<g id="a_node16"><a xlink:href="class_adafruit___a_d_s1015.html#a56582333958e66efaccd3d4a8a47e3ff" target="_top" xlink:title="Reads the conversion results, measuring the voltage difference between the P (AIN0) and N (AIN1) inpu...">
<polygon fill="white" stroke="black" points="108,-98.5 108,-128.5 252,-128.5 252,-98.5 108,-98.5"/>
<text text-anchor="start" x="116" y="-116.5" font-family="Helvetica,sans-Serif" font-size="10.00">Adafruit_ADS1015::readADC</text>
<text text-anchor="middle" x="180" y="-105.5" font-family="Helvetica,sans-Serif" font-size="10.00">_Differential_0_1</text>
</a>
</g>
</g>
<!-- Node45&#45;&gt;Node60 -->
<g id="edge21" class="edge"><title>Node45&#45;&gt;Node60</title>
<path fill="none" stroke="midnightblue" d="M82.1962,-96.4571C90.4236,-97.9056 99.1861,-99.4483 107.95,-100.991"/>
<polygon fill="midnightblue" stroke="midnightblue" points="82.5566,-92.9668 72.1011,-94.6798 81.3428,-99.8607 82.5566,-92.9668"/>
</g>
<!-- Node61 -->
<g id="node17" class="node"><title>Node61</title>
<g id="a_node17"><a xlink:href="class_adafruit___a_d_s1015.html#a38311881bcab46f7496c4bb6e4cad576" target="_top" xlink:title="Reads the conversion results, measuring the voltage difference between the P (AIN2) and N (AIN3) inpu...">
<polygon fill="white" stroke="black" points="108,-49.5 108,-79.5 252,-79.5 252,-49.5 108,-49.5"/>
<text text-anchor="start" x="116" y="-67.5" font-family="Helvetica,sans-Serif" font-size="10.00">Adafruit_ADS1015::readADC</text>
<text text-anchor="middle" x="180" y="-56.5" font-family="Helvetica,sans-Serif" font-size="10.00">_Differential_2_3</text>
</a>
</g>
</g>
<!-- Node45&#45;&gt;Node61 -->
<g id="edge22" class="edge"><title>Node45&#45;&gt;Node61</title>
<path fill="none" stroke="midnightblue" d="M82.1962,-80.8612C90.4236,-79.4707 99.1861,-77.9897 107.95,-76.5085"/>
<polygon fill="midnightblue" stroke="midnightblue" points="81.378,-77.4498 72.1011,-82.5674 82.5446,-84.3519 81.378,-77.4498"/>
</g>
<!-- Node62 -->
<g id="node18" class="node"><title>Node62</title>
<g id="a_node18"><a xlink:href="class_adafruit___a_d_s1015.html#ad8f36d80847020778425107f6451a8c2" target="_top" xlink:title="In order to clear the comparator, we need to read the conversion results. This function reads the las...">
<polygon fill="white" stroke="black" points="112,-0.5 112,-30.5 248,-30.5 248,-0.5 112,-0.5"/>
<text text-anchor="start" x="120" y="-18.5" font-family="Helvetica,sans-Serif" font-size="10.00">Adafruit_ADS1015::getLast</text>
<text text-anchor="middle" x="180" y="-7.5" font-family="Helvetica,sans-Serif" font-size="10.00">ConversionResults</text>
</a>
</g>
</g>
<!-- Node45&#45;&gt;Node62 -->
<g id="edge23" class="edge"><title>Node45&#45;&gt;Node62</title>
<path fill="none" stroke="midnightblue" d="M57.1234,-72.3545C70.8463,-61.9259 89.7713,-48.6457 108,-39.5 114.513,-36.2324 121.574,-33.246 128.631,-30.574"/>
<polygon fill="midnightblue" stroke="midnightblue" points="54.6706,-69.8276 48.9163,-78.7236 58.9623,-75.3577 54.6706,-69.8276"/>
</g>
<!-- Node47 -->
<g id="node3" class="node"><title>Node47</title>
<g id="a_node3"><a xlink:href="class_irene3000.html#a78a87eb7cf295b95c12b2ebd51c2bb77" target="_top" xlink:title="Irene3000::readButton">
<polygon fill="white" stroke="black" points="304.5,-248 304.5,-267 417.5,-267 417.5,-248 304.5,-248"/>
<text text-anchor="middle" x="361" y="-255" font-family="Helvetica,sans-Serif" font-size="10.00">Irene3000::readButton</text>
</a>
</g>
</g>
<!-- Node46&#45;&gt;Node47 -->
<g id="edge2" class="edge"><title>Node46&#45;&gt;Node47</title>
<path fill="none" stroke="midnightblue" d="M205.624,-183.925C226.337,-200.938 257.394,-224.173 288,-238.5 296.079,-242.282 305.033,-245.405 313.805,-247.95"/>
<polygon fill="midnightblue" stroke="midnightblue" points="207.867,-181.238 197.948,-177.514 203.38,-186.611 207.867,-181.238"/>
</g>
<!-- Node50 -->
<g id="node6" class="node"><title>Node50</title>
<g id="a_node6"><a xlink:href="class_irene3000.html#ae73bd2ed14a199a7e83f4d6458476a7c" target="_top" xlink:title="Irene3000::readADSChannel2">
<polygon fill="white" stroke="black" points="288,-134 288,-153 434,-153 434,-134 288,-134"/>
<text text-anchor="middle" x="361" y="-141" font-family="Helvetica,sans-Serif" font-size="10.00">Irene3000::readADSChannel2</text>
</a>
</g>
</g>
<!-- Node46&#45;&gt;Node50 -->
<g id="edge5" class="edge"><title>Node46&#45;&gt;Node50</title>
<path fill="none" stroke="midnightblue" d="M262.055,-153.896C270.676,-152.981 279.403,-152.055 287.911,-151.152"/>
<polygon fill="midnightblue" stroke="midnightblue" points="261.577,-150.427 252.003,-154.963 262.316,-157.388 261.577,-150.427"/>
</g>
<!-- Node55 -->
<g id="node11" class="node"><title>Node55</title>
<g id="a_node11"><a xlink:href="class_irene3000.html#a436fc0a06681cd0784aba56b9707f19a" target="_top" xlink:title="Irene3000::readPh">
<polygon fill="white" stroke="black" points="313,-96 313,-115 409,-115 409,-96 313,-96"/>
<text text-anchor="middle" x="361" y="-103" font-family="Helvetica,sans-Serif" font-size="10.00">Irene3000::readPh</text>
</a>
</g>
</g>
<!-- Node46&#45;&gt;Node55 -->
<g id="edge10" class="edge"><title>Node46&#45;&gt;Node55</title>
<path fill="none" stroke="midnightblue" d="M233.53,-144.056C239.758,-141.854 246.022,-139.632 252,-137.5 268.023,-131.786 271.76,-129.564 288,-124.5 298.737,-121.152 310.492,-117.885 321.333,-115.031"/>
<polygon fill="midnightblue" stroke="midnightblue" points="232.085,-140.855 223.821,-147.484 234.415,-147.455 232.085,-140.855"/>
</g>
<!-- Node56 -->
<g id="node12" class="node"><title>Node56</title>
<g id="a_node12"><a xlink:href="class_irene3000.html#a80bc6dfea106dc3bc54fa20204d4d5dc" target="_top" xlink:title="Irene3000::readTemp">
<polygon fill="white" stroke="black" points="306.5,-58 306.5,-77 415.5,-77 415.5,-58 306.5,-58"/>
<text text-anchor="middle" x="361" y="-65" font-family="Helvetica,sans-Serif" font-size="10.00">Irene3000::readTemp</text>
</a>
</g>
</g>
<!-- Node46&#45;&gt;Node56 -->
<g id="edge12" class="edge"><title>Node46&#45;&gt;Node56</title>
<path fill="none" stroke="midnightblue" d="M244.172,-142.724C246.9,-141.109 249.526,-139.371 252,-137.5 274.132,-120.768 265.213,-102.327 288,-86.5 293.628,-82.5913 300.011,-79.4867 306.596,-77.0207"/>
<polygon fill="midnightblue" stroke="midnightblue" points="242.385,-139.71 235.173,-147.472 245.651,-145.901 242.385,-139.71"/>
</g>
<!-- Node57 -->
<g id="node13" class="node"><title>Node57</title>
<g id="a_node13"><a xlink:href="class_irene3000.html#a1d3299202e4cb7afcff9c9e3e95d94c1" target="_top" xlink:title="Irene3000::calibratepH7">
<polygon fill="white" stroke="black" points="301,-210 301,-229 421,-229 421,-210 301,-210"/>
<text text-anchor="middle" x="361" y="-217" font-family="Helvetica,sans-Serif" font-size="10.00">Irene3000::calibratepH7</text>
</a>
</g>
</g>
<!-- Node46&#45;&gt;Node57 -->
<g id="edge14" class="edge"><title>Node46&#45;&gt;Node57</title>
<path fill="none" stroke="midnightblue" d="M230.574,-181.074C248.552,-187.553 269.089,-194.658 288,-200.5 298.746,-203.82 310.504,-207.078 321.344,-209.932"/>
<polygon fill="midnightblue" stroke="midnightblue" points="231.47,-177.676 220.876,-177.552 229.08,-184.255 231.47,-177.676"/>
</g>
<!-- Node59 -->
<g id="node15" class="node"><title>Node59</title>
<g id="a_node15"><a xlink:href="class_irene3000.html#aa140dd026922a04981edfd04d46cabbe" target="_top" xlink:title="Irene3000::calibratepH4">
<polygon fill="white" stroke="black" points="301,-172 301,-191 421,-191 421,-172 301,-172"/>
<text text-anchor="middle" x="361" y="-179" font-family="Helvetica,sans-Serif" font-size="10.00">Irene3000::calibratepH4</text>
</a>
</g>
</g>
<!-- Node46&#45;&gt;Node59 -->
<g id="edge18" class="edge"><title>Node46&#45;&gt;Node59</title>
<path fill="none" stroke="midnightblue" d="M261.962,-171.094C275.074,-172.485 288.432,-173.903 300.897,-175.227"/>
<polygon fill="midnightblue" stroke="midnightblue" points="262.316,-167.612 252.003,-170.037 261.577,-174.573 262.316,-167.612"/>
</g>
<!-- Node48 -->
<g id="node4" class="node"><title>Node48</title>
<g id="a_node4"><a xlink:href="class_irene3000.html#ad5891806c500ae1007afe52b9e304c2b" target="_top" xlink:title="Irene3000::begin">
<polygon fill="white" stroke="black" points="474.5,-210 474.5,-229 563.5,-229 563.5,-210 474.5,-210"/>
<text text-anchor="middle" x="519" y="-217" font-family="Helvetica,sans-Serif" font-size="10.00">Irene3000::begin</text>
</a>
</g>
</g>
<!-- Node47&#45;&gt;Node48 -->
<g id="edge3" class="edge"><title>Node47&#45;&gt;Node48</title>
<path fill="none" stroke="midnightblue" d="M411.132,-245.532C432.993,-240.207 458.376,-234.024 478.918,-229.02"/>
<polygon fill="midnightblue" stroke="midnightblue" points="410.253,-242.144 401.365,-247.911 411.91,-248.945 410.253,-242.144"/>
</g>
<!-- Node49 -->
<g id="node5" class="node"><title>Node49</title>
<g id="a_node5"><a xlink:href="class_cool_board.html#acba7c5aef7268b2c0044bdb54d3b9d76" target="_top" xlink:title="CoolBoard::begin">
<polygon fill="white" stroke="black" points="619.5,-210 619.5,-229 711.5,-229 711.5,-210 619.5,-210"/>
<text text-anchor="middle" x="665.5" y="-217" font-family="Helvetica,sans-Serif" font-size="10.00">CoolBoard::begin</text>
</a>
</g>
</g>
<!-- Node48&#45;&gt;Node49 -->
<g id="edge4" class="edge"><title>Node48&#45;&gt;Node49</title>
<path fill="none" stroke="midnightblue" d="M573.902,-219.5C588.88,-219.5 604.985,-219.5 619.401,-219.5"/>
<polygon fill="midnightblue" stroke="midnightblue" points="573.747,-216 563.747,-219.5 573.747,-223 573.747,-216"/>
</g>
<!-- Node51 -->
<g id="node7" class="node"><title>Node51</title>
<g id="a_node7"><a xlink:href="class_irene3000.html#a852a170feea994ea1df01c6b245b5d9a" target="_top" xlink:title="Irene3000::read">
<polygon fill="white" stroke="black" points="477,-101 477,-120 561,-120 561,-101 477,-101"/>
<text text-anchor="middle" x="519" y="-108" font-family="Helvetica,sans-Serif" font-size="10.00">Irene3000::read</text>
</a>
</g>
</g>
<!-- Node50&#45;&gt;Node51 -->
<g id="edge6" class="edge"><title>Node50&#45;&gt;Node51</title>
<path fill="none" stroke="midnightblue" d="M416.922,-131.882C436.679,-127.702 458.607,-123.064 476.976,-119.178"/>
<polygon fill="midnightblue" stroke="midnightblue" points="416.181,-128.461 407.122,-133.955 417.63,-135.31 416.181,-128.461"/>
</g>
<!-- Node52 -->
<g id="node8" class="node"><title>Node52</title>
<g id="a_node8"><a xlink:href="class_cool_board.html#ad03abdce2e65f520bbf2cff0f2d083cf" target="_top" xlink:title="CoolBoard::readSensors">
<polygon fill="white" stroke="black" points="604,-110 604,-129 727,-129 727,-110 604,-110"/>
<text text-anchor="middle" x="665.5" y="-117" font-family="Helvetica,sans-Serif" font-size="10.00">CoolBoard::readSensors</text>
</a>
</g>
</g>
<!-- Node51&#45;&gt;Node52 -->
<g id="edge7" class="edge"><title>Node51&#45;&gt;Node52</title>
<path fill="none" stroke="midnightblue" d="M571.327,-113.697C581.887,-114.355 593.1,-115.053 603.952,-115.729"/>
<polygon fill="midnightblue" stroke="midnightblue" points="571.22,-110.183 561.021,-113.055 570.784,-117.17 571.22,-110.183"/>
</g>
<!-- Node53 -->
<g id="node9" class="node"><title>Node53</title>
<g id="a_node9"><a xlink:href="class_cool_board.html#aa0bbc4bc605e35618d18e68795c61363" target="_top" xlink:title="CoolBoard::onLineMode">
<polygon fill="white" stroke="black" points="763.5,-157 763.5,-176 884.5,-176 884.5,-157 763.5,-157"/>
<text text-anchor="middle" x="824" y="-164" font-family="Helvetica,sans-Serif" font-size="10.00">CoolBoard::onLineMode</text>
</a>
</g>
</g>
<!-- Node52&#45;&gt;Node53 -->
<g id="edge8" class="edge"><title>Node52&#45;&gt;Node53</title>
<path fill="none" stroke="midnightblue" d="M707.783,-131.898C733.863,-139.73 767.056,-149.699 791.109,-156.922"/>
<polygon fill="midnightblue" stroke="midnightblue" points="708.754,-128.535 698.17,-129.011 706.741,-135.24 708.754,-128.535"/>
</g>
<!-- Node54 -->
<g id="node10" class="node"><title>Node54</title>
<g id="a_node10"><a xlink:href="class_cool_board.html#ae6b5e1274d760462290192acea4adca8" target="_top" xlink:title="CoolBoard::offLineMode">
<polygon fill="white" stroke="black" points="763,-110 763,-129 885,-129 885,-110 763,-110"/>
<text text-anchor="middle" x="824" y="-117" font-family="Helvetica,sans-Serif" font-size="10.00">CoolBoard::offLineMode</text>
</a>
</g>
</g>
<!-- Node52&#45;&gt;Node54 -->
<g id="edge9" class="edge"><title>Node52&#45;&gt;Node54</title>
<path fill="none" stroke="midnightblue" d="M737.059,-119.5C745.692,-119.5 754.452,-119.5 762.912,-119.5"/>
<polygon fill="midnightblue" stroke="midnightblue" points="737.007,-116 727.007,-119.5 737.007,-123 737.007,-116"/>
</g>
<!-- Node55&#45;&gt;Node51 -->
<g id="edge11" class="edge"><title>Node55&#45;&gt;Node51</title>
<path fill="none" stroke="midnightblue" d="M419.295,-107.336C438.339,-107.947 459.157,-108.614 476.745,-109.178"/>
<polygon fill="midnightblue" stroke="midnightblue" points="419.336,-103.836 409.228,-107.014 419.111,-110.832 419.336,-103.836"/>
</g>
<!-- Node56&#45;&gt;Node51 -->
<g id="edge13" class="edge"><title>Node56&#45;&gt;Node51</title>
<path fill="none" stroke="midnightblue" d="M408.466,-79.6139C416.968,-81.8725 425.757,-84.235 434,-86.5 450.965,-91.1614 469.802,-96.5262 485.332,-101"/>
<polygon fill="midnightblue" stroke="midnightblue" points="409.229,-76.1954 398.667,-77.0223 407.44,-82.9628 409.229,-76.1954"/>
</g>
<!-- Node57&#45;&gt;Node48 -->
<g id="edge17" class="edge"><title>Node57&#45;&gt;Node48</title>
<path fill="none" stroke="midnightblue" d="M431.838,-219.5C446.274,-219.5 461.087,-219.5 474.27,-219.5"/>
<polygon fill="midnightblue" stroke="midnightblue" points="431.422,-216 421.422,-219.5 431.422,-223 431.422,-216"/>
</g>
<!-- Node58 -->
<g id="node14" class="node"><title>Node58</title>
<g id="a_node14"><a xlink:href="class_cool_board.html#a8612756d3f73198cdde857a66f0fe690" target="_top" xlink:title="CoolBoard::update">
<polygon fill="white" stroke="black" points="470,-172 470,-191 568,-191 568,-172 470,-172"/>
<text text-anchor="middle" x="519" y="-179" font-family="Helvetica,sans-Serif" font-size="10.00">CoolBoard::update</text>
</a>
</g>
</g>
<!-- Node57&#45;&gt;Node58 -->
<g id="edge15" class="edge"><title>Node57&#45;&gt;Node58</title>
<path fill="none" stroke="midnightblue" d="M411.132,-207.532C432.993,-202.207 458.376,-196.024 478.918,-191.02"/>
<polygon fill="midnightblue" stroke="midnightblue" points="410.253,-204.144 401.365,-209.911 411.91,-210.945 410.253,-204.144"/>
</g>
<!-- Node58&#45;&gt;Node53 -->
<g id="edge16" class="edge"><title>Node58&#45;&gt;Node53</title>
<path fill="none" stroke="midnightblue" d="M578.293,-178.614C631.443,-175.983 709.625,-172.113 763.232,-169.459"/>
<polygon fill="midnightblue" stroke="midnightblue" points="577.826,-175.133 568.011,-179.123 578.172,-182.124 577.826,-175.133"/>
</g>
<!-- Node59&#45;&gt;Node48 -->
<g id="edge20" class="edge"><title>Node59&#45;&gt;Node48</title>
<path fill="none" stroke="midnightblue" d="M411.132,-193.468C432.993,-198.793 458.376,-204.976 478.918,-209.98"/>
<polygon fill="midnightblue" stroke="midnightblue" points="411.91,-190.055 401.365,-191.089 410.253,-196.856 411.91,-190.055"/>
</g>
<!-- Node59&#45;&gt;Node58 -->
<g id="edge19" class="edge"><title>Node59&#45;&gt;Node58</title>
<path fill="none" stroke="midnightblue" d="M431.677,-181.5C444.581,-181.5 457.793,-181.5 469.877,-181.5"/>
<polygon fill="midnightblue" stroke="midnightblue" points="431.422,-178 421.422,-181.5 431.422,-185 431.422,-178"/>
</g>
</g>
</svg>
