<?xml version="1.0" encoding="UTF-8" standalone="no"?>
<!DOCTYPE svg PUBLIC "-//W3C//DTD SVG 1.1//EN"
 "http://www.w3.org/Graphics/SVG/1.1/DTD/svg11.dtd">
<!-- Generated by graphviz version 2.38.0 (20140413.2041)
 -->
<!-- Title: /home/ashiroji/Arduino/libraries/CoolBoard/src/CoolFileSystem.cpp Pages: 1 -->
<svg width="296pt" height="162pt"
 viewBox="0.00 0.00 295.50 162.00" xmlns="http://www.w3.org/2000/svg" xmlns:xlink="http://www.w3.org/1999/xlink">
<g id="graph0" class="graph" transform="scale(1 1) rotate(0) translate(4 158)">
<title>/home/ashiroji/Arduino/libraries/CoolBoard/src/CoolFileSystem.cpp</title>
<polygon fill="white" stroke="none" points="-4,4 -4,-158 291.5,-158 291.5,4 -4,4"/>
<!-- Node0 -->
<g id="node1" class="node"><title>Node0</title>
<polygon fill="#bfbfbf" stroke="black" points="82.5,-112.5 82.5,-153.5 201.5,-153.5 201.5,-112.5 82.5,-112.5"/>
<text text-anchor="start" x="90.5" y="-141.5" font-family="Helvetica,sans-Serif" font-size="10.00">/home/ashiroji/Arduino</text>
<text text-anchor="start" x="90.5" y="-130.5" font-family="Helvetica,sans-Serif" font-size="10.00">/libraries/CoolBoard/src</text>
<text text-anchor="middle" x="142" y="-119.5" font-family="Helvetica,sans-Serif" font-size="10.00">/CoolFileSystem.cpp</text>
</g>
<!-- Node1 -->
<g id="node2" class="node"><title>Node1</title>
<polygon fill="white" stroke="#bfbfbf" points="0,-56.5 0,-75.5 38,-75.5 38,-56.5 0,-56.5"/>
<text text-anchor="middle" x="19" y="-63.5" font-family="Helvetica,sans-Serif" font-size="10.00">FS.h</text>
</g>
<!-- Node0&#45;&gt;Node1 -->
<g id="edge1" class="edge"><title>Node0&#45;&gt;Node1</title>
<path fill="none" stroke="midnightblue" d="M105.096,-112.498C85.5124,-102.149 61.9451,-89.6946 44.4224,-80.4346"/>
<polygon fill="midnightblue" stroke="midnightblue" points="45.8499,-77.2303 35.3732,-75.6525 42.5792,-83.4193 45.8499,-77.2303"/>
</g>
<!-- Node2 -->
<g id="node3" class="node"><title>Node2</title>
<g id="a_node3"><a xlink:href="_cool_file_system_8h.html" target="_top" xlink:title="CoolFileSystem Header file. ">
<polygon fill="white" stroke="black" points="56.5,-56.5 56.5,-75.5 151.5,-75.5 151.5,-56.5 56.5,-56.5"/>
<text text-anchor="middle" x="104" y="-63.5" font-family="Helvetica,sans-Serif" font-size="10.00">CoolFileSystem.h</text>
</a>
</g>
</g>
<!-- Node0&#45;&gt;Node2 -->
<g id="edge2" class="edge"><title>Node0&#45;&gt;Node2</title>
<path fill="none" stroke="midnightblue" d="M130.599,-112.498C125.389,-103.586 119.266,-93.1135 114.209,-84.4636"/>
<polygon fill="midnightblue" stroke="midnightblue" points="117.127,-82.519 109.058,-75.6525 111.084,-86.0519 117.127,-82.519"/>
</g>
<!-- Node3 -->
<g id="node4" class="node"><title>Node3</title>
<polygon fill="white" stroke="#bfbfbf" points="113,-0.5 113,-19.5 171,-19.5 171,-0.5 113,-0.5"/>
<text text-anchor="middle" x="142" y="-7.5" font-family="Helvetica,sans-Serif" font-size="10.00">Arduino.h</text>
</g>
<!-- Node0&#45;&gt;Node3 -->
<g id="edge5" class="edge"><title>Node0&#45;&gt;Node3</title>
<path fill="none" stroke="midnightblue" d="M151.826,-112.427C158.298,-97.1435 164.913,-75.3286 161,-56 159.107,-46.6493 155.208,-36.8267 151.433,-28.7526"/>
<polygon fill="midnightblue" stroke="midnightblue" points="154.475,-27.0106 146.876,-19.6279 148.212,-30.1381 154.475,-27.0106"/>
</g>
<!-- Node4 -->
<g id="node5" class="node"><title>Node4</title>
<polygon fill="white" stroke="#bfbfbf" points="208.5,-56.5 208.5,-75.5 287.5,-75.5 287.5,-56.5 208.5,-56.5"/>
<text text-anchor="middle" x="248" y="-63.5" font-family="Helvetica,sans-Serif" font-size="10.00">ArduinoJson.h</text>
</g>
<!-- Node0&#45;&gt;Node4 -->
<g id="edge4" class="edge"><title>Node0&#45;&gt;Node4</title>
<path fill="none" stroke="midnightblue" d="M173.803,-112.498C190.368,-102.34 210.239,-90.1551 225.247,-80.9523"/>
<polygon fill="midnightblue" stroke="midnightblue" points="227.195,-83.8637 233.89,-75.6525 223.535,-77.8963 227.195,-83.8637"/>
</g>
<!-- Node2&#45;&gt;Node3 -->
<g id="edge3" class="edge"><title>Node2&#45;&gt;Node3</title>
<path fill="none" stroke="midnightblue" d="M110.275,-56.083C115.642,-48.4554 123.518,-37.2645 130.079,-27.9408"/>
<polygon fill="midnightblue" stroke="midnightblue" points="132.949,-29.9434 135.842,-19.7511 127.225,-25.9149 132.949,-29.9434"/>
</g>
</g>
</svg>
