<?xml version="1.0" encoding="UTF-8" standalone="no"?>
<!DOCTYPE svg PUBLIC "-//W3C//DTD SVG 1.1//EN"
 "http://www.w3.org/Graphics/SVG/1.1/DTD/svg11.dtd">
<!-- Generated by graphviz version 2.38.0 (20140413.2041)
 -->
<!-- Title: /home/ashiroji/Arduino/libraries/CoolBoard/src/CoolBoard.cpp Pages: 1 -->
<svg width="1979pt" height="341pt"
 viewBox="0.00 0.00 1979.00 341.00" xmlns="http://www.w3.org/2000/svg" xmlns:xlink="http://www.w3.org/1999/xlink">
<g id="graph0" class="graph" transform="scale(1 1) rotate(0) translate(4 337)">
<title>/home/ashiroji/Arduino/libraries/CoolBoard/src/CoolBoard.cpp</title>
<polygon fill="white" stroke="none" points="-4,4 -4,-337 1975,-337 1975,4 -4,4"/>
<!-- Node0 -->
<g id="node1" class="node"><title>Node0</title>
<polygon fill="#bfbfbf" stroke="black" points="1062.5,-291.5 1062.5,-332.5 1181.5,-332.5 1181.5,-291.5 1062.5,-291.5"/>
<text text-anchor="start" x="1070.5" y="-320.5" font-family="Helvetica,sans-Serif" font-size="10.00">/home/ashiroji/Arduino</text>
<text text-anchor="start" x="1070.5" y="-309.5" font-family="Helvetica,sans-Serif" font-size="10.00">/libraries/CoolBoard/src</text>
<text text-anchor="middle" x="1122" y="-298.5" font-family="Helvetica,sans-Serif" font-size="10.00">/CoolBoard.cpp</text>
</g>
<!-- Node1 -->
<g id="node2" class="node"><title>Node1</title>
<polygon fill="white" stroke="#bfbfbf" points="0,-235.5 0,-254.5 38,-254.5 38,-235.5 0,-235.5"/>
<text text-anchor="middle" x="19" y="-242.5" font-family="Helvetica,sans-Serif" font-size="10.00">FS.h</text>
</g>
<!-- Node0&#45;&gt;Node1 -->
<g id="edge1" class="edge"><title>Node0&#45;&gt;Node1</title>
<path fill="none" stroke="midnightblue" d="M1062.29,-309.557C867.069,-304.574 248.979,-286.641 52,-255 50.7137,-254.793 49.4056,-254.556 48.0888,-254.295"/>
<polygon fill="midnightblue" stroke="midnightblue" points="48.5784,-250.815 38.0432,-251.937 46.9788,-257.63 48.5784,-250.815"/>
</g>
<!-- Node2 -->
<g id="node3" class="node"><title>Node2</title>
<g id="a_node3"><a xlink:href="_cool_board_8h.html" target="_top" xlink:title="CoolBoard Header file. ">
<polygon fill="white" stroke="black" points="1040.5,-235.5 1040.5,-254.5 1111.5,-254.5 1111.5,-235.5 1040.5,-235.5"/>
<text text-anchor="middle" x="1076" y="-242.5" font-family="Helvetica,sans-Serif" font-size="10.00">CoolBoard.h</text>
</a>
</g>
</g>
<!-- Node0&#45;&gt;Node2 -->
<g id="edge2" class="edge"><title>Node0&#45;&gt;Node2</title>
<path fill="none" stroke="midnightblue" d="M1108.2,-291.498C1101.76,-282.395 1094.16,-271.662 1087.97,-262.908"/>
<polygon fill="midnightblue" stroke="midnightblue" points="1090.76,-260.793 1082.12,-254.652 1085.04,-264.837 1090.76,-260.793"/>
</g>
<!-- Node4 -->
<g id="node5" class="node"><title>Node4</title>
<polygon fill="white" stroke="#bfbfbf" points="1137,-0.5 1137,-19.5 1195,-19.5 1195,-0.5 1137,-0.5"/>
<text text-anchor="middle" x="1166" y="-7.5" font-family="Helvetica,sans-Serif" font-size="10.00">Arduino.h</text>
</g>
<!-- Node0&#45;&gt;Node4 -->
<g id="edge52" class="edge"><title>Node0&#45;&gt;Node4</title>
<path fill="none" stroke="midnightblue" d="M1062.2,-310.479C838.809,-307.756 66,-291.032 66,-190 66,-190 66,-190 66,-132 66,-92.285 78.7301,-76.0713 113,-56 157.505,-29.934 940.624,-14.8731 1126.61,-11.6542"/>
<polygon fill="midnightblue" stroke="midnightblue" points="1126.82,-15.1512 1136.76,-11.4801 1126.7,-8.15224 1126.82,-15.1512"/>
</g>
<!-- Node35 -->
<g id="node36" class="node"><title>Node35</title>
<polygon fill="white" stroke="#bfbfbf" points="1129.5,-235.5 1129.5,-254.5 1208.5,-254.5 1208.5,-235.5 1129.5,-235.5"/>
<text text-anchor="middle" x="1169" y="-242.5" font-family="Helvetica,sans-Serif" font-size="10.00">ArduinoJson.h</text>
</g>
<!-- Node0&#45;&gt;Node35 -->
<g id="edge51" class="edge"><title>Node0&#45;&gt;Node35</title>
<path fill="none" stroke="midnightblue" d="M1136.1,-291.498C1142.68,-282.395 1150.44,-271.662 1156.77,-262.908"/>
<polygon fill="midnightblue" stroke="midnightblue" points="1159.72,-264.807 1162.74,-254.652 1154.05,-260.705 1159.72,-264.807"/>
</g>
<!-- Node36 -->
<g id="node37" class="node"><title>Node36</title>
<polygon fill="white" stroke="#bfbfbf" points="1226.5,-235.5 1226.5,-254.5 1271.5,-254.5 1271.5,-235.5 1226.5,-235.5"/>
<text text-anchor="middle" x="1249" y="-242.5" font-family="Helvetica,sans-Serif" font-size="10.00">Wire.h</text>
</g>
<!-- Node0&#45;&gt;Node36 -->
<g id="edge53" class="edge"><title>Node0&#45;&gt;Node36</title>
<path fill="none" stroke="midnightblue" d="M1160.1,-291.498C1180.32,-281.149 1204.66,-268.695 1222.75,-259.435"/>
<polygon fill="midnightblue" stroke="midnightblue" points="1224.79,-262.324 1232.09,-254.652 1221.6,-256.093 1224.79,-262.324"/>
</g>
<!-- Node37 -->
<g id="node38" class="node"><title>Node37</title>
<polygon fill="white" stroke="#bfbfbf" points="1290,-235.5 1290,-254.5 1342,-254.5 1342,-235.5 1290,-235.5"/>
<text text-anchor="middle" x="1316" y="-242.5" font-family="Helvetica,sans-Serif" font-size="10.00">memory</text>
</g>
<!-- Node0&#45;&gt;Node37 -->
<g id="edge54" class="edge"><title>Node0&#45;&gt;Node37</title>
<path fill="none" stroke="midnightblue" d="M1180.21,-291.498C1212.91,-280.541 1252.66,-267.223 1280.67,-257.836"/>
<polygon fill="midnightblue" stroke="midnightblue" points="1282.06,-261.063 1290.43,-254.567 1279.84,-254.425 1282.06,-261.063"/>
</g>
<!-- Node3 -->
<g id="node4" class="node"><title>Node3</title>
<g id="a_node4"><a xlink:href="_cool_file_system_8h.html" target="_top" xlink:title="CoolFileSystem Header file. ">
<polygon fill="white" stroke="black" points="873.5,-179.5 873.5,-198.5 968.5,-198.5 968.5,-179.5 873.5,-179.5"/>
<text text-anchor="middle" x="921" y="-186.5" font-family="Helvetica,sans-Serif" font-size="10.00">CoolFileSystem.h</text>
</a>
</g>
</g>
<!-- Node2&#45;&gt;Node3 -->
<g id="edge3" class="edge"><title>Node2&#45;&gt;Node3</title>
<path fill="none" stroke="midnightblue" d="M1051.44,-235.444C1025.48,-226.399 984.332,-212.064 955.203,-201.916"/>
<polygon fill="midnightblue" stroke="midnightblue" points="956.04,-198.501 945.445,-198.516 953.737,-205.112 956.04,-198.501"/>
</g>
<!-- Node2&#45;&gt;Node4 -->
<g id="edge50" class="edge"><title>Node2&#45;&gt;Node4</title>
<path fill="none" stroke="midnightblue" d="M1081.03,-235.469C1094.43,-212.37 1131.32,-146.35 1151,-87 1157.34,-67.8942 1161.39,-45.1505 1163.67,-29.5536"/>
<polygon fill="midnightblue" stroke="midnightblue" points="1167.14,-29.9938 1165.02,-19.6139 1160.2,-29.0523 1167.14,-29.9938"/>
</g>
<!-- Node5 -->
<g id="node6" class="node"><title>Node5</title>
<g id="a_node6"><a xlink:href="_cool_board_sensors_8h.html" target="_top" xlink:title="CoolBoardSensors Header file. ">
<polygon fill="white" stroke="black" points="1517.5,-123.5 1517.5,-142.5 1624.5,-142.5 1624.5,-123.5 1517.5,-123.5"/>
<text text-anchor="middle" x="1571" y="-130.5" font-family="Helvetica,sans-Serif" font-size="10.00">CoolBoardSensors.h</text>
</a>
</g>
</g>
<!-- Node2&#45;&gt;Node5 -->
<g id="edge5" class="edge"><title>Node2&#45;&gt;Node5</title>
<path fill="none" stroke="midnightblue" d="M1111.96,-236.328C1114.68,-235.846 1117.38,-235.396 1120,-235 1281.18,-210.634 1333.19,-258.366 1485,-199 1512.9,-188.088 1539.54,-165.404 1555.58,-149.938"/>
<polygon fill="midnightblue" stroke="midnightblue" points="1558.33,-152.142 1562.96,-142.61 1553.4,-147.177 1558.33,-152.142"/>
</g>
<!-- Node9 -->
<g id="node10" class="node"><title>Node9</title>
<g id="a_node10"><a xlink:href="_cool_board_led_8h.html" target="_top" xlink:title="CoolBoardLed Header file. ">
<polygon fill="white" stroke="black" points="1162,-179.5 1162,-198.5 1248,-198.5 1248,-179.5 1162,-179.5"/>
<text text-anchor="middle" x="1205" y="-186.5" font-family="Helvetica,sans-Serif" font-size="10.00">CoolBoardLed.h</text>
</a>
</g>
</g>
<!-- Node2&#45;&gt;Node9 -->
<g id="edge11" class="edge"><title>Node2&#45;&gt;Node9</title>
<path fill="none" stroke="midnightblue" d="M1096.44,-235.444C1117.67,-226.557 1151.1,-212.563 1175.25,-202.451"/>
<polygon fill="midnightblue" stroke="midnightblue" points="1176.78,-205.606 1184.66,-198.516 1174.08,-199.149 1176.78,-205.606"/>
</g>
<!-- Node11 -->
<g id="node12" class="node"><title>Node11</title>
<g id="a_node12"><a xlink:href="_cool_time_8h.html" target="_top" xlink:title="CoolTime Header file. ">
<polygon fill="white" stroke="black" points="658.5,-179.5 658.5,-198.5 725.5,-198.5 725.5,-179.5 658.5,-179.5"/>
<text text-anchor="middle" x="692" y="-186.5" font-family="Helvetica,sans-Serif" font-size="10.00">CoolTime.h</text>
</a>
</g>
</g>
<!-- Node2&#45;&gt;Node11 -->
<g id="edge14" class="edge"><title>Node2&#45;&gt;Node11</title>
<path fill="none" stroke="midnightblue" d="M1040.22,-238.968C969.623,-229.041 812.615,-206.962 735.898,-196.173"/>
<polygon fill="midnightblue" stroke="midnightblue" points="736.014,-192.655 725.624,-194.728 735.039,-199.587 736.014,-192.655"/>
</g>
<!-- Node15 -->
<g id="node16" class="node"><title>Node15</title>
<g id="a_node16"><a xlink:href="_cool_m_q_t_t_8h.html" target="_top" xlink:title="CoolMQTT Header file. ">
<polygon fill="white" stroke="black" points="1301.5,-123.5 1301.5,-142.5 1374.5,-142.5 1374.5,-123.5 1301.5,-123.5"/>
<text text-anchor="middle" x="1338" y="-130.5" font-family="Helvetica,sans-Serif" font-size="10.00">CoolMQTT.h</text>
</a>
</g>
</g>
<!-- Node2&#45;&gt;Node15 -->
<g id="edge19" class="edge"><title>Node2&#45;&gt;Node15</title>
<path fill="none" stroke="midnightblue" d="M1111.75,-235.981C1160.7,-224.87 1244.02,-205.432 1257,-199 1282.36,-186.439 1307.06,-164.851 1322.39,-150.024"/>
<polygon fill="midnightblue" stroke="midnightblue" points="1325.25,-152.112 1329.88,-142.583 1320.32,-147.145 1325.25,-152.112"/>
</g>
<!-- Node21 -->
<g id="node22" class="node"><title>Node21</title>
<g id="a_node22"><a xlink:href="_jetpack_8h.html" target="_top" xlink:title="Jetpack Header file. ">
<polygon fill="white" stroke="black" points="1416.5,-179.5 1416.5,-198.5 1475.5,-198.5 1475.5,-179.5 1416.5,-179.5"/>
<text text-anchor="middle" x="1446" y="-186.5" font-family="Helvetica,sans-Serif" font-size="10.00">Jetpack.h</text>
</a>
</g>
</g>
<!-- Node2&#45;&gt;Node21 -->
<g id="edge27" class="edge"><title>Node2&#45;&gt;Node21</title>
<path fill="none" stroke="midnightblue" d="M1111.98,-236.406C1114.69,-235.906 1117.38,-235.431 1120,-235 1243.62,-214.634 1278.66,-221.126 1406.1,-198.984"/>
<polygon fill="midnightblue" stroke="midnightblue" points="1407.01,-202.377 1416.25,-197.194 1405.8,-195.483 1407.01,-202.377"/>
</g>
<!-- Node22 -->
<g id="node23" class="node"><title>Node22</title>
<g id="a_node23"><a xlink:href="_irene3000_8h.html" target="_top" xlink:title="Irene3000 Header file. ">
<polygon fill="white" stroke="black" points="153,-123.5 153,-142.5 221,-142.5 221,-123.5 153,-123.5"/>
<text text-anchor="middle" x="187" y="-130.5" font-family="Helvetica,sans-Serif" font-size="10.00">Irene3000.h</text>
</a>
</g>
</g>
<!-- Node2&#45;&gt;Node22 -->
<g id="edge29" class="edge"><title>Node2&#45;&gt;Node22</title>
<path fill="none" stroke="midnightblue" d="M1040.49,-244.345C940.132,-244.736 646.196,-241.84 407,-199 338.769,-186.78 261.625,-161.131 219.226,-145.962"/>
<polygon fill="midnightblue" stroke="midnightblue" points="220.315,-142.634 209.721,-142.528 217.936,-149.218 220.315,-142.634"/>
</g>
<!-- Node24 -->
<g id="node25" class="node"><title>Node24</title>
<g id="a_node25"><a xlink:href="_external_sensors_8h.html" target="_top" xlink:title="ExternalSensors header file. ">
<polygon fill="white" stroke="black" points="416.5,-179.5 416.5,-198.5 513.5,-198.5 513.5,-179.5 416.5,-179.5"/>
<text text-anchor="middle" x="465" y="-186.5" font-family="Helvetica,sans-Serif" font-size="10.00">ExternalSensors.h</text>
</a>
</g>
</g>
<!-- Node2&#45;&gt;Node24 -->
<g id="edge33" class="edge"><title>Node2&#45;&gt;Node24</title>
<path fill="none" stroke="midnightblue" d="M1040.06,-240.824C938.546,-231.852 648.925,-206.255 523.78,-195.195"/>
<polygon fill="midnightblue" stroke="midnightblue" points="523.892,-191.691 513.623,-194.297 523.276,-198.664 523.892,-191.691"/>
</g>
<!-- Node30 -->
<g id="node31" class="node"><title>Node30</title>
<g id="a_node31"><a xlink:href="_cool_wifi_8h.html" target="_top" xlink:title="CoolWifi Header file. ">
<polygon fill="white" stroke="black" points="1045,-123.5 1045,-142.5 1107,-142.5 1107,-123.5 1045,-123.5"/>
<text text-anchor="middle" x="1076" y="-130.5" font-family="Helvetica,sans-Serif" font-size="10.00">CoolWifi.h</text>
</a>
</g>
</g>
<!-- Node2&#45;&gt;Node30 -->
<g id="edge42" class="edge"><title>Node2&#45;&gt;Node30</title>
<path fill="none" stroke="midnightblue" d="M1076,-235.368C1076,-217.617 1076,-176.666 1076,-152.597"/>
<polygon fill="midnightblue" stroke="midnightblue" points="1079.5,-152.591 1076,-142.591 1072.5,-152.591 1079.5,-152.591"/>
</g>
<!-- Node34 -->
<g id="node35" class="node"><title>Node34</title>
<g id="a_node35"><a xlink:href="_cool_board_actor_8h.html" target="_top" xlink:title="CoolBoardActor Header file. ">
<polygon fill="white" stroke="black" points="1304,-179.5 1304,-198.5 1398,-198.5 1398,-179.5 1304,-179.5"/>
<text text-anchor="middle" x="1351" y="-186.5" font-family="Helvetica,sans-Serif" font-size="10.00">CoolBoardActor.h</text>
</a>
</g>
</g>
<!-- Node2&#45;&gt;Node34 -->
<g id="edge48" class="edge"><title>Node2&#45;&gt;Node34</title>
<path fill="none" stroke="midnightblue" d="M1111.54,-236.702C1114.4,-236.123 1117.25,-235.55 1120,-235 1180.47,-222.926 1249.93,-209.447 1296.76,-200.417"/>
<polygon fill="midnightblue" stroke="midnightblue" points="1297.53,-203.833 1306.69,-198.504 1296.21,-196.959 1297.53,-203.833"/>
</g>
<!-- Node3&#45;&gt;Node4 -->
<g id="edge4" class="edge"><title>Node3&#45;&gt;Node4</title>
<path fill="none" stroke="midnightblue" d="M897.493,-179.413C845.826,-159.323 730.473,-107.082 776,-56 799.088,-30.0946 1032.25,-16.9275 1126.64,-12.6258"/>
<polygon fill="midnightblue" stroke="midnightblue" points="1127.08,-16.1097 1136.92,-12.1677 1126.77,-9.11662 1127.08,-16.1097"/>
</g>
<!-- Node5&#45;&gt;Node4 -->
<g id="edge6" class="edge"><title>Node5&#45;&gt;Node4</title>
<path fill="none" stroke="midnightblue" d="M1578.65,-123.36C1591.34,-107.975 1613.66,-75.6083 1596,-56 1570.07,-27.2168 1306.33,-15.5922 1205.19,-12.1702"/>
<polygon fill="midnightblue" stroke="midnightblue" points="1205.19,-8.66842 1195.08,-11.8373 1204.96,-15.6646 1205.19,-8.66842"/>
</g>
<!-- Node6 -->
<g id="node7" class="node"><title>Node6</title>
<g id="a_node7"><a xlink:href="_cool_s_i114_x_8h.html" target="_top" xlink:title="internals/CoolSI114X.h">
<polygon fill="white" stroke="black" points="1469.5,-62 1469.5,-81 1586.5,-81 1586.5,-62 1469.5,-62"/>
<text text-anchor="middle" x="1528" y="-69" font-family="Helvetica,sans-Serif" font-size="10.00">internals/CoolSI114X.h</text>
</a>
</g>
</g>
<!-- Node5&#45;&gt;Node6 -->
<g id="edge7" class="edge"><title>Node5&#45;&gt;Node6</title>
<path fill="none" stroke="midnightblue" d="M1564.84,-123.475C1558.39,-114.55 1548.1,-100.307 1540.03,-89.1425"/>
<polygon fill="midnightblue" stroke="midnightblue" points="1542.84,-87.064 1534.15,-81.0091 1537.17,-91.1642 1542.84,-87.064"/>
</g>
<!-- Node7 -->
<g id="node8" class="node"><title>Node7</title>
<g id="a_node8"><a xlink:href="_cool_spark_fun_b_m_e280_8h.html" target="_top" xlink:title="internals/CoolSparkFunBME280.h">
<polygon fill="white" stroke="black" points="1807,-62 1807,-81 1971,-81 1971,-62 1807,-62"/>
<text text-anchor="middle" x="1889" y="-69" font-family="Helvetica,sans-Serif" font-size="10.00">internals/CoolSparkFunBME280.h</text>
</a>
</g>
</g>
<!-- Node5&#45;&gt;Node7 -->
<g id="edge9" class="edge"><title>Node5&#45;&gt;Node7</title>
<path fill="none" stroke="midnightblue" d="M1616.56,-123.475C1673.83,-112.761 1772.05,-94.3821 1833.6,-82.8661"/>
<polygon fill="midnightblue" stroke="midnightblue" points="1834.34,-86.2886 1843.52,-81.0091 1833.05,-79.408 1834.34,-86.2886"/>
</g>
<!-- Node6&#45;&gt;Node4 -->
<g id="edge8" class="edge"><title>Node6&#45;&gt;Node4</title>
<path fill="none" stroke="midnightblue" d="M1486.75,-61.9949C1476.4,-59.9468 1465.31,-57.8251 1455,-56 1365.99,-40.2365 1261.01,-24.6353 1205.33,-16.5939"/>
<polygon fill="midnightblue" stroke="midnightblue" points="1205.59,-13.0955 1195.19,-15.1353 1204.59,-20.0241 1205.59,-13.0955"/>
</g>
<!-- Node8 -->
<g id="node9" class="node"><title>Node8</title>
<polygon fill="white" stroke="#bfbfbf" points="1864.5,-0.5 1864.5,-19.5 1913.5,-19.5 1913.5,-0.5 1864.5,-0.5"/>
<text text-anchor="middle" x="1889" y="-7.5" font-family="Helvetica,sans-Serif" font-size="10.00">stdint.h</text>
</g>
<!-- Node7&#45;&gt;Node8 -->
<g id="edge10" class="edge"><title>Node7&#45;&gt;Node8</title>
<path fill="none" stroke="midnightblue" d="M1889,-61.9751C1889,-53.5803 1889,-40.4806 1889,-29.6631"/>
<polygon fill="midnightblue" stroke="midnightblue" points="1892.5,-29.5091 1889,-19.5091 1885.5,-29.5091 1892.5,-29.5091"/>
</g>
<!-- Node9&#45;&gt;Node4 -->
<g id="edge12" class="edge"><title>Node9&#45;&gt;Node4</title>
<path fill="none" stroke="midnightblue" d="M1219.59,-179.408C1243.59,-164.303 1290.47,-130.429 1308,-87 1313.16,-74.2236 1316.14,-67.1169 1308,-56 1284.7,-24.1792 1238.77,-14.3009 1205.44,-11.5148"/>
<polygon fill="midnightblue" stroke="midnightblue" points="1205.31,-7.99914 1195.11,-10.8406 1204.86,-14.9843 1205.31,-7.99914"/>
</g>
<!-- Node10 -->
<g id="node11" class="node"><title>Node10</title>
<polygon fill="white" stroke="#bfbfbf" points="1163,-123.5 1163,-142.5 1245,-142.5 1245,-123.5 1163,-123.5"/>
<text text-anchor="middle" x="1204" y="-130.5" font-family="Helvetica,sans-Serif" font-size="10.00">NeoPixelBus.h</text>
</g>
<!-- Node9&#45;&gt;Node10 -->
<g id="edge13" class="edge"><title>Node9&#45;&gt;Node10</title>
<path fill="none" stroke="midnightblue" d="M1204.83,-179.083C1204.7,-172.006 1204.52,-161.861 1204.35,-152.986"/>
<polygon fill="midnightblue" stroke="midnightblue" points="1207.85,-152.685 1204.16,-142.751 1200.85,-152.814 1207.85,-152.685"/>
</g>
<!-- Node11&#45;&gt;Node4 -->
<g id="edge15" class="edge"><title>Node11&#45;&gt;Node4</title>
<path fill="none" stroke="midnightblue" d="M705.278,-179.243C716.485,-171.154 732.089,-158.126 741,-143 761.191,-108.728 732.159,-82.3013 762,-56 789.046,-32.1618 1030.32,-17.7083 1126.59,-12.8457"/>
<polygon fill="midnightblue" stroke="midnightblue" points="1126.97,-16.3311 1136.79,-12.3393 1126.62,-9.33969 1126.97,-16.3311"/>
</g>
<!-- Node12 -->
<g id="node13" class="node"><title>Node12</title>
<polygon fill="white" stroke="#bfbfbf" points="493.5,-123.5 493.5,-142.5 552.5,-142.5 552.5,-123.5 493.5,-123.5"/>
<text text-anchor="middle" x="523" y="-130.5" font-family="Helvetica,sans-Serif" font-size="10.00">TimeLib.h</text>
</g>
<!-- Node11&#45;&gt;Node12 -->
<g id="edge16" class="edge"><title>Node11&#45;&gt;Node12</title>
<path fill="none" stroke="midnightblue" d="M665.221,-179.444C636.667,-170.32 591.267,-155.813 559.463,-145.651"/>
<polygon fill="midnightblue" stroke="midnightblue" points="560.244,-142.226 549.653,-142.516 558.114,-148.894 560.244,-142.226"/>
</g>
<!-- Node13 -->
<g id="node14" class="node"><title>Node13</title>
<polygon fill="white" stroke="#bfbfbf" points="570.5,-123.5 570.5,-142.5 633.5,-142.5 633.5,-123.5 570.5,-123.5"/>
<text text-anchor="middle" x="602" y="-130.5" font-family="Helvetica,sans-Serif" font-size="10.00">WiFiUdp.h</text>
</g>
<!-- Node11&#45;&gt;Node13 -->
<g id="edge17" class="edge"><title>Node11&#45;&gt;Node13</title>
<path fill="none" stroke="midnightblue" d="M677.54,-179.324C663.5,-170.9 641.952,-157.971 625.457,-148.074"/>
<polygon fill="midnightblue" stroke="midnightblue" points="626.8,-144.798 616.424,-142.655 623.198,-150.801 626.8,-144.798"/>
</g>
<!-- Node14 -->
<g id="node15" class="node"><title>Node14</title>
<polygon fill="white" stroke="#bfbfbf" points="651.5,-123.5 651.5,-142.5 732.5,-142.5 732.5,-123.5 651.5,-123.5"/>
<text text-anchor="middle" x="692" y="-130.5" font-family="Helvetica,sans-Serif" font-size="10.00">DS1337RTC.h</text>
</g>
<!-- Node11&#45;&gt;Node14 -->
<g id="edge18" class="edge"><title>Node11&#45;&gt;Node14</title>
<path fill="none" stroke="midnightblue" d="M692,-179.083C692,-172.006 692,-161.861 692,-152.986"/>
<polygon fill="midnightblue" stroke="midnightblue" points="695.5,-152.751 692,-142.751 688.5,-152.751 695.5,-152.751"/>
</g>
<!-- Node15&#45;&gt;Node4 -->
<g id="edge20" class="edge"><title>Node15&#45;&gt;Node4</title>
<path fill="none" stroke="midnightblue" d="M1341.56,-123.404C1347.27,-108.087 1356.37,-75.827 1341,-56 1324.51,-34.7384 1251.56,-21.7663 1205.2,-15.5205"/>
<polygon fill="midnightblue" stroke="midnightblue" points="1205.55,-12.0357 1195.18,-14.2181 1204.64,-18.9774 1205.55,-12.0357"/>
</g>
<!-- Node16 -->
<g id="node17" class="node"><title>Node16</title>
<polygon fill="white" stroke="#bfbfbf" points="1213,-62 1213,-81 1299,-81 1299,-62 1213,-62"/>
<text text-anchor="middle" x="1256" y="-69" font-family="Helvetica,sans-Serif" font-size="10.00">ESP8266WiFi.h</text>
</g>
<!-- Node15&#45;&gt;Node16 -->
<g id="edge21" class="edge"><title>Node15&#45;&gt;Node16</title>
<path fill="none" stroke="midnightblue" d="M1326.25,-123.475C1313.22,-114.02 1291.96,-98.5961 1276.24,-87.1871"/>
<polygon fill="midnightblue" stroke="midnightblue" points="1277.88,-84.0492 1267.73,-81.0091 1273.77,-89.7149 1277.88,-84.0492"/>
</g>
<!-- Node17 -->
<g id="node18" class="node"><title>Node17</title>
<g id="a_node18"><a xlink:href="_cool_pub_sub_client_8h.html" target="_top" xlink:title="internals/CoolPubSubClient.h">
<polygon fill="white" stroke="black" points="1643.5,-62 1643.5,-81 1788.5,-81 1788.5,-62 1643.5,-62"/>
<text text-anchor="middle" x="1716" y="-69" font-family="Helvetica,sans-Serif" font-size="10.00">internals/CoolPubSubClient.h</text>
</a>
</g>
</g>
<!-- Node15&#45;&gt;Node17 -->
<g id="edge22" class="edge"><title>Node15&#45;&gt;Node17</title>
<path fill="none" stroke="midnightblue" d="M1374.59,-126.241C1438.73,-116.144 1572.22,-95.1317 1651.96,-82.581"/>
<polygon fill="midnightblue" stroke="midnightblue" points="1652.55,-86.031 1661.88,-81.0186 1651.46,-79.1162 1652.55,-86.031"/>
</g>
<!-- Node17&#45;&gt;Node4 -->
<g id="edge23" class="edge"><title>Node17&#45;&gt;Node4</title>
<path fill="none" stroke="midnightblue" d="M1668.22,-61.9346C1655.5,-59.8192 1641.75,-57.6804 1629,-56 1472.49,-35.3758 1285.04,-20.0109 1205.16,-13.8983"/>
<polygon fill="midnightblue" stroke="midnightblue" points="1205.3,-10.3989 1195.06,-13.1313 1204.77,-17.3788 1205.3,-10.3989"/>
</g>
<!-- Node18 -->
<g id="node19" class="node"><title>Node18</title>
<polygon fill="white" stroke="#bfbfbf" points="1762.5,-0.5 1762.5,-19.5 1833.5,-19.5 1833.5,-0.5 1762.5,-0.5"/>
<text text-anchor="middle" x="1798" y="-7.5" font-family="Helvetica,sans-Serif" font-size="10.00">IPAddress.h</text>
</g>
<!-- Node17&#45;&gt;Node18 -->
<g id="edge24" class="edge"><title>Node17&#45;&gt;Node18</title>
<path fill="none" stroke="midnightblue" d="M1727.75,-61.9751C1740.78,-52.5199 1762.04,-37.0961 1777.76,-25.6871"/>
<polygon fill="midnightblue" stroke="midnightblue" points="1780.23,-28.2149 1786.27,-19.5091 1776.12,-22.5492 1780.23,-28.2149"/>
</g>
<!-- Node19 -->
<g id="node20" class="node"><title>Node19</title>
<polygon fill="white" stroke="#bfbfbf" points="1620,-0.5 1620,-19.5 1670,-19.5 1670,-0.5 1620,-0.5"/>
<text text-anchor="middle" x="1645" y="-7.5" font-family="Helvetica,sans-Serif" font-size="10.00">Client.h</text>
</g>
<!-- Node17&#45;&gt;Node19 -->
<g id="edge25" class="edge"><title>Node17&#45;&gt;Node19</title>
<path fill="none" stroke="midnightblue" d="M1705.83,-61.9751C1694.65,-52.6082 1676.48,-37.3839 1662.91,-26.0081"/>
<polygon fill="midnightblue" stroke="midnightblue" points="1665.07,-23.2496 1655.15,-19.5091 1660.57,-28.6148 1665.07,-23.2496"/>
</g>
<!-- Node20 -->
<g id="node21" class="node"><title>Node20</title>
<polygon fill="white" stroke="#bfbfbf" points="1688,-0.5 1688,-19.5 1744,-19.5 1744,-0.5 1688,-0.5"/>
<text text-anchor="middle" x="1716" y="-7.5" font-family="Helvetica,sans-Serif" font-size="10.00">Stream.h</text>
</g>
<!-- Node17&#45;&gt;Node20 -->
<g id="edge26" class="edge"><title>Node17&#45;&gt;Node20</title>
<path fill="none" stroke="midnightblue" d="M1716,-61.9751C1716,-53.5803 1716,-40.4806 1716,-29.6631"/>
<polygon fill="midnightblue" stroke="midnightblue" points="1719.5,-29.5091 1716,-19.5091 1712.5,-29.5091 1719.5,-29.5091"/>
</g>
<!-- Node21&#45;&gt;Node4 -->
<g id="edge28" class="edge"><title>Node21&#45;&gt;Node4</title>
<path fill="none" stroke="midnightblue" d="M1444.5,-179.254C1439.91,-155.357 1423.77,-88.5783 1382,-56 1354.9,-34.865 1259.67,-21.2499 1205.13,-14.9964"/>
<polygon fill="midnightblue" stroke="midnightblue" points="1205.45,-11.5102 1195.13,-13.879 1204.68,-18.467 1205.45,-11.5102"/>
</g>
<!-- Node22&#45;&gt;Node4 -->
<g id="edge32" class="edge"><title>Node22&#45;&gt;Node4</title>
<path fill="none" stroke="midnightblue" d="M165.517,-123.36C150.608,-116.09 131.889,-104.117 123,-87 116.65,-74.7727 113.47,-65.9501 123,-56 140.688,-37.5325 938.202,-16.6433 1126.48,-11.9633"/>
<polygon fill="midnightblue" stroke="midnightblue" points="1126.83,-15.4557 1136.74,-11.7092 1126.66,-8.45785 1126.83,-15.4557"/>
</g>
<!-- Node23 -->
<g id="node24" class="node"><title>Node23</title>
<g id="a_node24"><a xlink:href="_cool_adafruit___a_d_s1015_8h.html" target="_top" xlink:title="internals/CoolAdafruit\l_ADS1015.h">
<polygon fill="white" stroke="black" points="132,-56.5 132,-86.5 242,-86.5 242,-56.5 132,-56.5"/>
<text text-anchor="start" x="140" y="-74.5" font-family="Helvetica,sans-Serif" font-size="10.00">internals/CoolAdafruit</text>
<text text-anchor="middle" x="187" y="-63.5" font-family="Helvetica,sans-Serif" font-size="10.00">_ADS1015.h</text>
</a>
</g>
</g>
<!-- Node22&#45;&gt;Node23 -->
<g id="edge30" class="edge"><title>Node22&#45;&gt;Node23</title>
<path fill="none" stroke="midnightblue" d="M187,-123.475C187,-116.471 187,-106.192 187,-96.6956"/>
<polygon fill="midnightblue" stroke="midnightblue" points="190.5,-96.5229 187,-86.523 183.5,-96.523 190.5,-96.5229"/>
</g>
<!-- Node23&#45;&gt;Node4 -->
<g id="edge31" class="edge"><title>Node23&#45;&gt;Node4</title>
<path fill="none" stroke="midnightblue" d="M242.047,-57.3906C245.066,-56.871 248.065,-56.4015 251,-56 587.81,-9.91936 1000.05,-9.41701 1126.97,-10.5068"/>
<polygon fill="midnightblue" stroke="midnightblue" points="1126.95,-14.0068 1136.99,-10.6015 1127.02,-7.00708 1126.95,-14.0068"/>
</g>
<!-- Node24&#45;&gt;Node4 -->
<g id="edge34" class="edge"><title>Node24&#45;&gt;Node4</title>
<path fill="none" stroke="midnightblue" d="M464.876,-179.4C465.172,-165.413 467.912,-137.811 484,-123 542.74,-68.9231 583.216,-108.885 660,-87 698.27,-76.0924 705.252,-65.0679 744,-56 882.124,-23.6756 1051.18,-14.5192 1126.51,-11.9659"/>
<polygon fill="midnightblue" stroke="midnightblue" points="1127.05,-15.4507 1136.94,-11.6351 1126.83,-8.45422 1127.05,-15.4507"/>
</g>
<!-- Node25 -->
<g id="node26" class="node"><title>Node25</title>
<g id="a_node26"><a xlink:href="_external_sensor_8h.html" target="_top" xlink:title="ExternalSensor Header file. ">
<polygon fill="white" stroke="black" points="345,-123.5 345,-142.5 437,-142.5 437,-123.5 345,-123.5"/>
<text text-anchor="middle" x="391" y="-130.5" font-family="Helvetica,sans-Serif" font-size="10.00">ExternalSensor.h</text>
</a>
</g>
</g>
<!-- Node24&#45;&gt;Node25 -->
<g id="edge35" class="edge"><title>Node24&#45;&gt;Node25</title>
<path fill="none" stroke="midnightblue" d="M453.111,-179.324C441.85,-171.107 424.713,-158.602 411.291,-148.807"/>
<polygon fill="midnightblue" stroke="midnightblue" points="413.247,-145.901 403.106,-142.834 409.12,-151.556 413.247,-145.901"/>
</g>
<!-- Node25&#45;&gt;Node4 -->
<g id="edge41" class="edge"><title>Node25&#45;&gt;Node4</title>
<path fill="none" stroke="midnightblue" d="M437.228,-124.174C500.202,-113.345 607.098,-94.3 624,-87 645.629,-77.6584 644.928,-64.2396 667,-56 751.116,-24.5988 1024.07,-14.5786 1126.6,-11.8759"/>
<polygon fill="midnightblue" stroke="midnightblue" points="1126.92,-15.369 1136.83,-11.6158 1126.74,-8.37123 1126.92,-15.369"/>
</g>
<!-- Node25&#45;&gt;Node23 -->
<g id="edge40" class="edge"><title>Node25&#45;&gt;Node23</title>
<path fill="none" stroke="midnightblue" d="M361.772,-123.475C331.432,-114.626 283.167,-100.549 245.038,-89.4277"/>
<polygon fill="midnightblue" stroke="midnightblue" points="245.659,-85.963 235.079,-86.523 243.699,-92.683 245.659,-85.963"/>
</g>
<!-- Node26 -->
<g id="node27" class="node"><title>Node26</title>
<g id="a_node27"><a xlink:href="_cool_n_d_i_r___i2_c_8h.html" target="_top" xlink:title="internals/CoolNDIR\l_I2C.h">
<polygon fill="white" stroke="black" points="260,-56.5 260,-86.5 362,-86.5 362,-56.5 260,-56.5"/>
<text text-anchor="start" x="268" y="-74.5" font-family="Helvetica,sans-Serif" font-size="10.00">internals/CoolNDIR</text>
<text text-anchor="middle" x="311" y="-63.5" font-family="Helvetica,sans-Serif" font-size="10.00">_I2C.h</text>
</a>
</g>
</g>
<!-- Node25&#45;&gt;Node26 -->
<g id="edge36" class="edge"><title>Node25&#45;&gt;Node26</title>
<path fill="none" stroke="midnightblue" d="M379.538,-123.475C368.804,-115.492 352.35,-103.254 338.254,-92.7703"/>
<polygon fill="midnightblue" stroke="midnightblue" points="339.967,-89.6825 329.854,-86.523 335.79,-95.2993 339.967,-89.6825"/>
</g>
<!-- Node27 -->
<g id="node28" class="node"><title>Node27</title>
<polygon fill="white" stroke="#bfbfbf" points="379.5,-62 379.5,-81 486.5,-81 486.5,-62 379.5,-62"/>
<text text-anchor="middle" x="433" y="-69" font-family="Helvetica,sans-Serif" font-size="10.00">DallasTemperature.h</text>
</g>
<!-- Node25&#45;&gt;Node27 -->
<g id="edge37" class="edge"><title>Node25&#45;&gt;Node27</title>
<path fill="none" stroke="midnightblue" d="M397.018,-123.475C403.255,-114.638 413.173,-100.589 421.018,-89.475"/>
<polygon fill="midnightblue" stroke="midnightblue" points="424.086,-91.1972 426.994,-81.0091 418.367,-87.1604 424.086,-91.1972"/>
</g>
<!-- Node28 -->
<g id="node29" class="node"><title>Node28</title>
<g id="a_node29"><a xlink:href="_cool_adafruit___t_c_s34725_8h.html" target="_top" xlink:title="internals/CoolAdafruit\l_TCS34725.h">
<polygon fill="white" stroke="black" points="505,-56.5 505,-86.5 615,-86.5 615,-56.5 505,-56.5"/>
<text text-anchor="start" x="513" y="-74.5" font-family="Helvetica,sans-Serif" font-size="10.00">internals/CoolAdafruit</text>
<text text-anchor="middle" x="560" y="-63.5" font-family="Helvetica,sans-Serif" font-size="10.00">_TCS34725.h</text>
</a>
</g>
</g>
<!-- Node25&#45;&gt;Node28 -->
<g id="edge38" class="edge"><title>Node25&#45;&gt;Node28</title>
<path fill="none" stroke="midnightblue" d="M415.214,-123.475C440.027,-114.739 479.314,-100.907 510.706,-89.855"/>
<polygon fill="midnightblue" stroke="midnightblue" points="511.9,-93.1453 520.17,-86.523 509.575,-86.5426 511.9,-93.1453"/>
</g>
<!-- Node29 -->
<g id="node30" class="node"><title>Node29</title>
<polygon fill="white" stroke="#bfbfbf" points="524.5,-0.5 524.5,-19.5 595.5,-19.5 595.5,-0.5 524.5,-0.5"/>
<text text-anchor="middle" x="560" y="-7.5" font-family="Helvetica,sans-Serif" font-size="10.00">WProgram.h</text>
</g>
<!-- Node28&#45;&gt;Node29 -->
<g id="edge39" class="edge"><title>Node28&#45;&gt;Node29</title>
<path fill="none" stroke="midnightblue" d="M560,-56.3993C560,-48.4664 560,-38.458 560,-29.8583"/>
<polygon fill="midnightblue" stroke="midnightblue" points="563.5,-29.6577 560,-19.6578 556.5,-29.6578 563.5,-29.6577"/>
</g>
<!-- Node30&#45;&gt;Node4 -->
<g id="edge43" class="edge"><title>Node30&#45;&gt;Node4</title>
<path fill="none" stroke="midnightblue" d="M1088.09,-123.422C1099.23,-115.071 1115.69,-101.541 1127,-87 1141.04,-68.9456 1152.32,-45.0629 1159.07,-28.9261"/>
<polygon fill="midnightblue" stroke="midnightblue" points="1162.34,-30.1631 1162.83,-19.5795 1155.85,-27.5481 1162.34,-30.1631"/>
</g>
<!-- Node30&#45;&gt;Node16 -->
<g id="edge44" class="edge"><title>Node30&#45;&gt;Node16</title>
<path fill="none" stroke="midnightblue" d="M1101.79,-123.475C1132.93,-113.18 1185.48,-95.8103 1220.45,-84.2502"/>
<polygon fill="midnightblue" stroke="midnightblue" points="1221.86,-87.4708 1230.26,-81.0091 1219.66,-80.8245 1221.86,-87.4708"/>
</g>
<!-- Node31 -->
<g id="node32" class="node"><title>Node31</title>
<polygon fill="white" stroke="#bfbfbf" points="918.5,-62 918.5,-81 1025.5,-81 1025.5,-62 918.5,-62"/>
<text text-anchor="middle" x="972" y="-69" font-family="Helvetica,sans-Serif" font-size="10.00">ESP8266WiFiMulti.h</text>
</g>
<!-- Node30&#45;&gt;Node31 -->
<g id="edge45" class="edge"><title>Node30&#45;&gt;Node31</title>
<path fill="none" stroke="midnightblue" d="M1061.1,-123.475C1044.03,-113.711 1015.84,-97.5807 995.738,-86.0808"/>
<polygon fill="midnightblue" stroke="midnightblue" points="997.291,-82.9371 986.873,-81.0091 993.815,-89.013 997.291,-82.9371"/>
</g>
<!-- Node32 -->
<g id="node33" class="node"><title>Node32</title>
<polygon fill="white" stroke="#bfbfbf" points="1043.5,-62 1043.5,-81 1118.5,-81 1118.5,-62 1043.5,-62"/>
<text text-anchor="middle" x="1081" y="-69" font-family="Helvetica,sans-Serif" font-size="10.00">DNSServer.h</text>
</g>
<!-- Node30&#45;&gt;Node32 -->
<g id="edge46" class="edge"><title>Node30&#45;&gt;Node32</title>
<path fill="none" stroke="midnightblue" d="M1076.72,-123.475C1077.42,-115.08 1078.52,-101.981 1079.43,-91.1631"/>
<polygon fill="midnightblue" stroke="midnightblue" points="1082.94,-91.2671 1080.28,-81.0091 1075.96,-90.6808 1082.94,-91.2671"/>
</g>
<!-- Node33 -->
<g id="node34" class="node"><title>Node33</title>
<polygon fill="white" stroke="#bfbfbf" points="785.5,-62 785.5,-81 900.5,-81 900.5,-62 785.5,-62"/>
<text text-anchor="middle" x="843" y="-69" font-family="Helvetica,sans-Serif" font-size="10.00">ESP8266WebServer.h</text>
</g>
<!-- Node30&#45;&gt;Node33 -->
<g id="edge47" class="edge"><title>Node30&#45;&gt;Node33</title>
<path fill="none" stroke="midnightblue" d="M1044.58,-123.976C1003.81,-113.566 932.487,-95.3519 886.528,-83.6155"/>
<polygon fill="midnightblue" stroke="midnightblue" points="887.115,-80.1531 876.56,-81.0699 885.383,-86.9354 887.115,-80.1531"/>
</g>
<!-- Node34&#45;&gt;Node4 -->
<g id="edge49" class="edge"><title>Node34&#45;&gt;Node4</title>
<path fill="none" stroke="midnightblue" d="M1359.75,-179.286C1367.56,-170.84 1378.45,-157.246 1383,-143 1392.69,-112.644 1360.78,-56.7023 1360,-56 1337.53,-35.7291 1255.08,-22.1398 1205.19,-15.5724"/>
<polygon fill="midnightblue" stroke="midnightblue" points="1205.43,-12.0751 1195.07,-14.2777 1204.54,-19.0185 1205.43,-12.0751"/>
</g>
</g>
</svg>
