<?xml version="1.0" encoding="UTF-8" standalone="no"?>
<!DOCTYPE svg PUBLIC "-//W3C//DTD SVG 1.1//EN"
 "http://www.w3.org/Graphics/SVG/1.1/DTD/svg11.dtd">
<!-- Generated by graphviz version 2.38.0 (20140413.2041)
 -->
<!-- Title: /home/ashiroji/Arduino/libraries/CoolBoard/src/CoolBoard.h Pages: 1 -->
<!--zoomable 285 -->
<svg id="main" version="1.1" xmlns="http://www.w3.org/2000/svg" xmlns:xlink="http://www.w3.org/1999/xlink" xml:space="preserve" onload="init(evt)">
<style type="text/css"><![CDATA[
.edge:hover path { stroke: red; }
.edge:hover polygon { stroke: red; fill: red; }
]]></style>
<script type="text/javascript"><![CDATA[
var edges = document.getElementsByTagName('g');
if (edges && edges.length) {
  for (var i=0;i<edges.length;i++) {
    if (edges[i].id.substr(0,4)=='edge') {
      edges[i].setAttribute('class','edge');
    }
  }
}
]]></script>
        <defs>
                <circle id="rim" cx="0" cy="0" r="7"/>
                <circle id="rim2" cx="0" cy="0" r="3.5"/>
                <g id="zoomPlus">
                        <use xlink:href="#rim" fill="#404040">
                                <set attributeName="fill" to="#808080" begin="zoomplus.mouseover" end="zoomplus.mouseout"/>
                        </use>
                        <path d="M-4,0h8M0,-4v8" fill="none" stroke="white" stroke-width="1.5" pointer-events="none"/>
                </g>
                <g id="zoomMin">
                        <use xlink:href="#rim" fill="#404040">
                                <set attributeName="fill" to="#808080" begin="zoomminus.mouseover" end="zoomminus.mouseout"/>
                        </use>
                        <path d="M-4,0h8" fill="none" stroke="white" stroke-width="1.5" pointer-events="none"/>
                </g>
                <g id="dirArrow">
                        <path fill="none" stroke="white" stroke-width="1.5" d="M0,-3.0v7 M-2.5,-0.5L0,-3.0L2.5,-0.5"/>
                </g>
               <g id="resetDef">
                       <use xlink:href="#rim2" fill="#404040">
                               <set attributeName="fill" to="#808080" begin="reset.mouseover" end="reset.mouseout"/>
                       </use>
               </g>
        </defs>

<script type="text/javascript">
var viewWidth = 2005;
var viewHeight = 285;
var sectionId = 'dynsection-0';
</script>
<script xlink:href="svgpan.js"/>
<svg id="graph" class="graph">
<g id="viewport">
<title>/home/ashiroji/Arduino/libraries/CoolBoard/src/CoolBoard.h</title>
<polygon fill="white" stroke="none" points="-4,4 -4,-281 2001,-281 2001,4 -4,4"/>
<!-- Node0 -->
<g id="node1" class="node"><title>Node0</title>
<polygon fill="#bfbfbf" stroke="black" points="655,-235.5 655,-276.5 774,-276.5 774,-235.5 655,-235.5"/>
<text text-anchor="start" x="663" y="-264.5" font-family="Helvetica,sans-Serif" font-size="10.00">/home/ashiroji/Arduino</text>
<text text-anchor="start" x="663" y="-253.5" font-family="Helvetica,sans-Serif" font-size="10.00">/libraries/CoolBoard/src</text>
<text text-anchor="middle" x="714.5" y="-242.5" font-family="Helvetica,sans-Serif" font-size="10.00">/CoolBoard.h</text>
</g>
<!-- Node1 -->
<g id="node2" class="node"><title>Node1</title>
<g id="a_node2"><a xlink:href="_cool_file_system_8h.html" target="_top" xlink:title="CoolFileSystem Header file. ">
<polygon fill="white" stroke="black" points="0,-179.5 0,-198.5 95,-198.5 95,-179.5 0,-179.5"/>
<text text-anchor="middle" x="47.5" y="-186.5" font-family="Helvetica,sans-Serif" font-size="10.00">CoolFileSystem.h</text>
</a>
</g>
</g>
<!-- Node0&#45;&gt;Node1 -->
<g id="edge1" class="edge"><title>Node0&#45;&gt;Node1</title>
<path fill="none" stroke="midnightblue" d="M654.596,-250.323C546.259,-241.664 310.612,-221.918 112.5,-199 110.113,-198.724 107.678,-198.432 105.219,-198.129"/>
<polygon fill="midnightblue" stroke="midnightblue" points="105.4,-194.624 95.038,-196.833 104.516,-201.568 105.4,-194.624"/>
</g>
<!-- Node2 -->
<g id="node3" class="node"><title>Node2</title>
<polygon fill="white" stroke="#bfbfbf" points="743.5,-0.5 743.5,-19.5 801.5,-19.5 801.5,-0.5 743.5,-0.5"/>
<text text-anchor="middle" x="772.5" y="-7.5" font-family="Helvetica,sans-Serif" font-size="10.00">Arduino.h</text>
</g>
<!-- Node0&#45;&gt;Node2 -->
<g id="edge48" class="edge"><title>Node0&#45;&gt;Node2</title>
<path fill="none" stroke="midnightblue" d="M654.759,-249.833C507.728,-235.016 148.581,-184.872 266.5,-56 297.825,-21.7653 619.635,-13.4061 733.135,-11.5154"/>
<polygon fill="midnightblue" stroke="midnightblue" points="733.509,-15.01 743.452,-11.3519 733.398,-8.01085 733.509,-15.01"/>
</g>
<!-- Node3 -->
<g id="node4" class="node"><title>Node3</title>
<g id="a_node4"><a xlink:href="_cool_board_sensors_8h.html" target="_top" xlink:title="CoolBoardSensors Header file. ">
<polygon fill="white" stroke="black" points="1112,-123.5 1112,-142.5 1219,-142.5 1219,-123.5 1112,-123.5"/>
<text text-anchor="middle" x="1165.5" y="-130.5" font-family="Helvetica,sans-Serif" font-size="10.00">CoolBoardSensors.h</text>
</a>
</g>
</g>
<!-- Node0&#45;&gt;Node3 -->
<g id="edge3" class="edge"><title>Node0&#45;&gt;Node3</title>
<path fill="none" stroke="midnightblue" d="M774.122,-252.779C845.156,-248.487 966.416,-235.902 1063.5,-199 1095.33,-186.901 1127.76,-164.049 1147.26,-148.921"/>
<polygon fill="midnightblue" stroke="midnightblue" points="1149.6,-151.534 1155.26,-142.58 1145.25,-146.048 1149.6,-151.534"/>
</g>
<!-- Node7 -->
<g id="node8" class="node"><title>Node7</title>
<g id="a_node8"><a xlink:href="_cool_board_led_8h.html" target="_top" xlink:title="CoolBoardLed Header file. ">
<polygon fill="white" stroke="black" points="671.5,-179.5 671.5,-198.5 757.5,-198.5 757.5,-179.5 671.5,-179.5"/>
<text text-anchor="middle" x="714.5" y="-186.5" font-family="Helvetica,sans-Serif" font-size="10.00">CoolBoardLed.h</text>
</a>
</g>
</g>
<!-- Node0&#45;&gt;Node7 -->
<g id="edge9" class="edge"><title>Node0&#45;&gt;Node7</title>
<path fill="none" stroke="midnightblue" d="M714.5,-235.498C714.5,-227.065 714.5,-217.235 714.5,-208.874"/>
<polygon fill="midnightblue" stroke="midnightblue" points="718,-208.652 714.5,-198.652 711,-208.653 718,-208.652"/>
</g>
<!-- Node9 -->
<g id="node10" class="node"><title>Node9</title>
<g id="a_node10"><a xlink:href="_cool_time_8h.html" target="_top" xlink:title="CoolTime Header file. ">
<polygon fill="white" stroke="black" points="853,-179.5 853,-198.5 920,-198.5 920,-179.5 853,-179.5"/>
<text text-anchor="middle" x="886.5" y="-186.5" font-family="Helvetica,sans-Serif" font-size="10.00">CoolTime.h</text>
</a>
</g>
</g>
<!-- Node0&#45;&gt;Node9 -->
<g id="edge12" class="edge"><title>Node0&#45;&gt;Node9</title>
<path fill="none" stroke="midnightblue" d="M766.106,-235.498C794.632,-224.718 829.203,-211.653 853.968,-202.294"/>
<polygon fill="midnightblue" stroke="midnightblue" points="855.487,-205.462 863.604,-198.652 853.013,-198.914 855.487,-205.462"/>
</g>
<!-- Node13 -->
<g id="node14" class="node"><title>Node13</title>
<g id="a_node14"><a xlink:href="_cool_m_q_t_t_8h.html" target="_top" xlink:title="CoolMQTT Header file. ">
<polygon fill="white" stroke="black" points="1329,-123.5 1329,-142.5 1402,-142.5 1402,-123.5 1329,-123.5"/>
<text text-anchor="middle" x="1365.5" y="-130.5" font-family="Helvetica,sans-Serif" font-size="10.00">CoolMQTT.h</text>
</a>
</g>
</g>
<!-- Node0&#45;&gt;Node13 -->
<g id="edge17" class="edge"><title>Node0&#45;&gt;Node13</title>
<path fill="none" stroke="midnightblue" d="M774.167,-248.017C849.754,-238.773 983.865,-221.039 1097.5,-199 1178.58,-183.276 1272.07,-159.23 1324.44,-145.216"/>
<polygon fill="midnightblue" stroke="midnightblue" points="1325.6,-148.528 1334.35,-142.552 1323.78,-141.768 1325.6,-148.528"/>
</g>
<!-- Node19 -->
<g id="node20" class="node"><title>Node19</title>
<g id="a_node20"><a xlink:href="_jetpack_8h.html" target="_top" xlink:title="Jetpack Header file. ">
<polygon fill="white" stroke="black" points="996,-179.5 996,-198.5 1055,-198.5 1055,-179.5 996,-179.5"/>
<text text-anchor="middle" x="1025.5" y="-186.5" font-family="Helvetica,sans-Serif" font-size="10.00">Jetpack.h</text>
</a>
</g>
</g>
<!-- Node0&#45;&gt;Node19 -->
<g id="edge25" class="edge"><title>Node0&#45;&gt;Node19</title>
<path fill="none" stroke="midnightblue" d="M774.096,-242.544C836.398,-229.523 932.397,-209.459 985.943,-198.268"/>
<polygon fill="midnightblue" stroke="midnightblue" points="986.674,-201.691 995.746,-196.219 985.242,-194.839 986.674,-201.691"/>
</g>
<!-- Node20 -->
<g id="node21" class="node"><title>Node20</title>
<g id="a_node21"><a xlink:href="_irene3000_8h.html" target="_top" xlink:title="Irene3000 Header file. ">
<polygon fill="white" stroke="black" points="553.5,-123.5 553.5,-142.5 621.5,-142.5 621.5,-123.5 553.5,-123.5"/>
<text text-anchor="middle" x="587.5" y="-130.5" font-family="Helvetica,sans-Serif" font-size="10.00">Irene3000.h</text>
</a>
</g>
</g>
<!-- Node0&#45;&gt;Node20 -->
<g id="edge27" class="edge"><title>Node0&#45;&gt;Node20</title>
<path fill="none" stroke="midnightblue" d="M693.813,-235.29C668.663,-211.329 626.743,-171.389 603.775,-149.506"/>
<polygon fill="midnightblue" stroke="midnightblue" points="606.154,-146.939 596.5,-142.575 601.326,-152.007 606.154,-146.939"/>
</g>
<!-- Node22 -->
<g id="node23" class="node"><title>Node22</title>
<g id="a_node23"><a xlink:href="_external_sensors_8h.html" target="_top" xlink:title="ExternalSensors header file. ">
<polygon fill="white" stroke="black" points="477,-179.5 477,-198.5 574,-198.5 574,-179.5 477,-179.5"/>
<text text-anchor="middle" x="525.5" y="-186.5" font-family="Helvetica,sans-Serif" font-size="10.00">ExternalSensors.h</text>
</a>
</g>
</g>
<!-- Node0&#45;&gt;Node22 -->
<g id="edge31" class="edge"><title>Node0&#45;&gt;Node22</title>
<path fill="none" stroke="midnightblue" d="M657.794,-235.498C626.03,-224.574 587.446,-211.304 560.165,-201.922"/>
<polygon fill="midnightblue" stroke="midnightblue" points="561.253,-198.595 550.659,-198.652 558.977,-205.214 561.253,-198.595"/>
</g>
<!-- Node28 -->
<g id="node29" class="node"><title>Node28</title>
<g id="a_node29"><a xlink:href="_cool_wifi_8h.html" target="_top" xlink:title="CoolWifi Header file. ">
<polygon fill="white" stroke="black" points="1563.5,-123.5 1563.5,-142.5 1625.5,-142.5 1625.5,-123.5 1563.5,-123.5"/>
<text text-anchor="middle" x="1594.5" y="-130.5" font-family="Helvetica,sans-Serif" font-size="10.00">CoolWifi.h</text>
</a>
</g>
</g>
<!-- Node0&#45;&gt;Node28 -->
<g id="edge40" class="edge"><title>Node0&#45;&gt;Node28</title>
<path fill="none" stroke="midnightblue" d="M774.112,-247.827C858.912,-237.533 1019.21,-217.741 1155.5,-199 1301.85,-178.876 1475.23,-152.436 1553.06,-140.428"/>
<polygon fill="midnightblue" stroke="midnightblue" points="1554.05,-143.817 1563.39,-138.832 1552.98,-136.899 1554.05,-143.817"/>
</g>
<!-- Node32 -->
<g id="node33" class="node"><title>Node32</title>
<g id="a_node33"><a xlink:href="_cool_board_actor_8h.html" target="_top" xlink:title="CoolBoardActor Header file. ">
<polygon fill="white" stroke="black" points="121.5,-179.5 121.5,-198.5 215.5,-198.5 215.5,-179.5 121.5,-179.5"/>
<text text-anchor="middle" x="168.5" y="-186.5" font-family="Helvetica,sans-Serif" font-size="10.00">CoolBoardActor.h</text>
</a>
</g>
</g>
<!-- Node0&#45;&gt;Node32 -->
<g id="edge46" class="edge"><title>Node0&#45;&gt;Node32</title>
<path fill="none" stroke="midnightblue" d="M654.835,-248.474C563.87,-238.43 385.073,-218.315 233.5,-199 230.978,-198.679 228.403,-198.345 225.801,-198.004"/>
<polygon fill="midnightblue" stroke="midnightblue" points="226.076,-194.509 215.701,-196.658 225.151,-201.448 226.076,-194.509"/>
</g>
<!-- Node1&#45;&gt;Node2 -->
<g id="edge2" class="edge"><title>Node1&#45;&gt;Node2</title>
<path fill="none" stroke="midnightblue" d="M47.0167,-179.44C46.1833,-155.433 47.4942,-87.1899 86.5,-56 137.092,-15.5457 595.211,-11.3423 733.289,-10.9991"/>
<polygon fill="midnightblue" stroke="midnightblue" points="733.423,-14.4989 743.416,-10.9795 733.409,-7.49892 733.423,-14.4989"/>
</g>
<!-- Node3&#45;&gt;Node2 -->
<g id="edge4" class="edge"><title>Node3&#45;&gt;Node2</title>
<path fill="none" stroke="midnightblue" d="M1158.22,-123.335C1142.79,-105.202 1106.89,-64.2508 1090.5,-56 1042.44,-31.8084 886.089,-18.5157 812.056,-13.4388"/>
<polygon fill="midnightblue" stroke="midnightblue" points="811.965,-9.92494 801.753,-12.749 811.497,-16.9093 811.965,-9.92494"/>
</g>
<!-- Node4 -->
<g id="node5" class="node"><title>Node4</title>
<g id="a_node5"><a xlink:href="_cool_s_i114_x_8h.html" target="_top" xlink:title="internals/CoolSI114X.h">
<polygon fill="white" stroke="black" points="965,-62 965,-81 1082,-81 1082,-62 965,-62"/>
<text text-anchor="middle" x="1023.5" y="-69" font-family="Helvetica,sans-Serif" font-size="10.00">internals/CoolSI114X.h</text>
</a>
</g>
</g>
<!-- Node3&#45;&gt;Node4 -->
<g id="edge5" class="edge"><title>Node3&#45;&gt;Node4</title>
<path fill="none" stroke="midnightblue" d="M1145.15,-123.475C1121.11,-113.401 1080.9,-96.5525 1053.34,-85.0023"/>
<polygon fill="midnightblue" stroke="midnightblue" points="1054.38,-81.6457 1043.81,-81.0091 1051.68,-88.1018 1054.38,-81.6457"/>
</g>
<!-- Node5 -->
<g id="node6" class="node"><title>Node5</title>
<g id="a_node6"><a xlink:href="_cool_spark_fun_b_m_e280_8h.html" target="_top" xlink:title="internals/CoolSparkFunBME280.h">
<polygon fill="white" stroke="black" points="1138.5,-62 1138.5,-81 1302.5,-81 1302.5,-62 1138.5,-62"/>
<text text-anchor="middle" x="1220.5" y="-69" font-family="Helvetica,sans-Serif" font-size="10.00">internals/CoolSparkFunBME280.h</text>
</a>
</g>
</g>
<!-- Node3&#45;&gt;Node5 -->
<g id="edge7" class="edge"><title>Node3&#45;&gt;Node5</title>
<path fill="none" stroke="midnightblue" d="M1173.38,-123.475C1181.79,-114.373 1195.32,-99.741 1205.73,-88.483"/>
<polygon fill="midnightblue" stroke="midnightblue" points="1208.42,-90.7282 1212.63,-81.0091 1203.28,-85.9766 1208.42,-90.7282"/>
</g>
<!-- Node4&#45;&gt;Node2 -->
<g id="edge6" class="edge"><title>Node4&#45;&gt;Node2</title>
<path fill="none" stroke="midnightblue" d="M987.538,-61.9751C940.84,-50.9053 859.631,-31.6546 811.493,-20.2434"/>
<polygon fill="midnightblue" stroke="midnightblue" points="812.285,-16.8342 801.748,-17.9332 810.671,-23.6455 812.285,-16.8342"/>
</g>
<!-- Node6 -->
<g id="node7" class="node"><title>Node6</title>
<polygon fill="white" stroke="#bfbfbf" points="1196,-0.5 1196,-19.5 1245,-19.5 1245,-0.5 1196,-0.5"/>
<text text-anchor="middle" x="1220.5" y="-7.5" font-family="Helvetica,sans-Serif" font-size="10.00">stdint.h</text>
</g>
<!-- Node5&#45;&gt;Node6 -->
<g id="edge8" class="edge"><title>Node5&#45;&gt;Node6</title>
<path fill="none" stroke="midnightblue" d="M1220.5,-61.9751C1220.5,-53.5803 1220.5,-40.4806 1220.5,-29.6631"/>
<polygon fill="midnightblue" stroke="midnightblue" points="1224,-29.5091 1220.5,-19.5091 1217,-29.5091 1224,-29.5091"/>
</g>
<!-- Node7&#45;&gt;Node2 -->
<g id="edge10" class="edge"><title>Node7&#45;&gt;Node2</title>
<path fill="none" stroke="midnightblue" d="M717.653,-179.403C720.945,-170.369 726.213,-155.73 730.5,-143 744.072,-102.698 758.934,-55.0913 766.828,-29.5009"/>
<polygon fill="midnightblue" stroke="midnightblue" points="770.254,-30.2686 769.848,-19.6815 763.563,-28.2108 770.254,-30.2686"/>
</g>
<!-- Node8 -->
<g id="node9" class="node"><title>Node8</title>
<polygon fill="white" stroke="#bfbfbf" points="639.5,-123.5 639.5,-142.5 721.5,-142.5 721.5,-123.5 639.5,-123.5"/>
<text text-anchor="middle" x="680.5" y="-130.5" font-family="Helvetica,sans-Serif" font-size="10.00">NeoPixelBus.h</text>
</g>
<!-- Node7&#45;&gt;Node8 -->
<g id="edge11" class="edge"><title>Node7&#45;&gt;Node8</title>
<path fill="none" stroke="midnightblue" d="M708.886,-179.083C704.133,-171.534 697.182,-160.495 691.348,-151.23"/>
<polygon fill="midnightblue" stroke="midnightblue" points="694.3,-149.349 686.01,-142.751 688.376,-153.078 694.3,-149.349"/>
</g>
<!-- Node9&#45;&gt;Node2 -->
<g id="edge13" class="edge"><title>Node9&#45;&gt;Node2</title>
<path fill="none" stroke="midnightblue" d="M920.033,-184.953C969.652,-179.063 1053.87,-162.972 1025.5,-123 997.431,-83.4557 967.116,-106 922.5,-87 877.133,-67.6797 826.333,-40.7695 797.018,-24.6955"/>
<polygon fill="midnightblue" stroke="midnightblue" points="798.386,-21.4528 787.94,-19.6864 795.005,-27.5818 798.386,-21.4528"/>
</g>
<!-- Node10 -->
<g id="node11" class="node"><title>Node10</title>
<polygon fill="white" stroke="#bfbfbf" points="778,-123.5 778,-142.5 837,-142.5 837,-123.5 778,-123.5"/>
<text text-anchor="middle" x="807.5" y="-130.5" font-family="Helvetica,sans-Serif" font-size="10.00">TimeLib.h</text>
</g>
<!-- Node9&#45;&gt;Node10 -->
<g id="edge14" class="edge"><title>Node9&#45;&gt;Node10</title>
<path fill="none" stroke="midnightblue" d="M873.807,-179.324C861.599,-170.979 842.922,-158.212 828.497,-148.352"/>
<polygon fill="midnightblue" stroke="midnightblue" points="830.392,-145.408 820.161,-142.655 826.442,-151.187 830.392,-145.408"/>
</g>
<!-- Node11 -->
<g id="node12" class="node"><title>Node11</title>
<polygon fill="white" stroke="#bfbfbf" points="855,-123.5 855,-142.5 918,-142.5 918,-123.5 855,-123.5"/>
<text text-anchor="middle" x="886.5" y="-130.5" font-family="Helvetica,sans-Serif" font-size="10.00">WiFiUdp.h</text>
</g>
<!-- Node9&#45;&gt;Node11 -->
<g id="edge15" class="edge"><title>Node9&#45;&gt;Node11</title>
<path fill="none" stroke="midnightblue" d="M886.5,-179.083C886.5,-172.006 886.5,-161.861 886.5,-152.986"/>
<polygon fill="midnightblue" stroke="midnightblue" points="890,-152.751 886.5,-142.751 883,-152.751 890,-152.751"/>
</g>
<!-- Node12 -->
<g id="node13" class="node"><title>Node12</title>
<polygon fill="white" stroke="#bfbfbf" points="936,-123.5 936,-142.5 1017,-142.5 1017,-123.5 936,-123.5"/>
<text text-anchor="middle" x="976.5" y="-130.5" font-family="Helvetica,sans-Serif" font-size="10.00">DS1337RTC.h</text>
</g>
<!-- Node9&#45;&gt;Node12 -->
<g id="edge16" class="edge"><title>Node9&#45;&gt;Node12</title>
<path fill="none" stroke="midnightblue" d="M900.96,-179.324C915,-170.9 936.548,-157.971 953.043,-148.074"/>
<polygon fill="midnightblue" stroke="midnightblue" points="955.302,-150.801 962.076,-142.655 951.7,-144.798 955.302,-150.801"/>
</g>
<!-- Node13&#45;&gt;Node2 -->
<g id="edge18" class="edge"><title>Node13&#45;&gt;Node2</title>
<path fill="none" stroke="midnightblue" d="M1362.12,-123.011C1355.37,-106.446 1338.5,-71.3921 1311.5,-56 1268.39,-31.4201 928.925,-16.7493 811.953,-12.3835"/>
<polygon fill="midnightblue" stroke="midnightblue" points="811.786,-8.87504 801.664,-12.0047 811.528,-15.8703 811.786,-8.87504"/>
</g>
<!-- Node14 -->
<g id="node15" class="node"><title>Node14</title>
<polygon fill="white" stroke="#bfbfbf" points="1358.5,-62 1358.5,-81 1444.5,-81 1444.5,-62 1358.5,-62"/>
<text text-anchor="middle" x="1401.5" y="-69" font-family="Helvetica,sans-Serif" font-size="10.00">ESP8266WiFi.h</text>
</g>
<!-- Node13&#45;&gt;Node14 -->
<g id="edge19" class="edge"><title>Node13&#45;&gt;Node14</title>
<path fill="none" stroke="midnightblue" d="M1370.66,-123.475C1375.95,-114.727 1384.34,-100.869 1391.03,-89.8093"/>
<polygon fill="midnightblue" stroke="midnightblue" points="1394.17,-91.3768 1396.35,-81.0091 1388.18,-87.7531 1394.17,-91.3768"/>
</g>
<!-- Node15 -->
<g id="node16" class="node"><title>Node15</title>
<g id="a_node16"><a xlink:href="_cool_pub_sub_client_8h.html" target="_top" xlink:title="internals/CoolPubSubClient.h">
<polygon fill="white" stroke="black" points="1501,-62 1501,-81 1646,-81 1646,-62 1501,-62"/>
<text text-anchor="middle" x="1573.5" y="-69" font-family="Helvetica,sans-Serif" font-size="10.00">internals/CoolPubSubClient.h</text>
</a>
</g>
</g>
<!-- Node13&#45;&gt;Node15 -->
<g id="edge20" class="edge"><title>Node13&#45;&gt;Node15</title>
<path fill="none" stroke="midnightblue" d="M1395.3,-123.475C1431.75,-113.048 1493.58,-95.3618 1533.97,-83.8066"/>
<polygon fill="midnightblue" stroke="midnightblue" points="1535.1,-87.1244 1543.75,-81.0091 1533.18,-80.3944 1535.1,-87.1244"/>
</g>
<!-- Node15&#45;&gt;Node2 -->
<g id="edge21" class="edge"><title>Node15&#45;&gt;Node2</title>
<path fill="none" stroke="midnightblue" d="M1527.57,-61.9434C1514.35,-59.726 1499.89,-57.5334 1486.5,-56 1230.34,-26.6591 920.132,-15.3133 811.964,-12.0714"/>
<polygon fill="midnightblue" stroke="midnightblue" points="811.938,-8.5692 801.84,-11.7741 811.733,-15.5662 811.938,-8.5692"/>
</g>
<!-- Node16 -->
<g id="node17" class="node"><title>Node16</title>
<polygon fill="white" stroke="#bfbfbf" points="1538,-0.5 1538,-19.5 1609,-19.5 1609,-0.5 1538,-0.5"/>
<text text-anchor="middle" x="1573.5" y="-7.5" font-family="Helvetica,sans-Serif" font-size="10.00">IPAddress.h</text>
</g>
<!-- Node15&#45;&gt;Node16 -->
<g id="edge22" class="edge"><title>Node15&#45;&gt;Node16</title>
<path fill="none" stroke="midnightblue" d="M1573.5,-61.9751C1573.5,-53.5803 1573.5,-40.4806 1573.5,-29.6631"/>
<polygon fill="midnightblue" stroke="midnightblue" points="1577,-29.5091 1573.5,-19.5091 1570,-29.5091 1577,-29.5091"/>
</g>
<!-- Node17 -->
<g id="node18" class="node"><title>Node17</title>
<polygon fill="white" stroke="#bfbfbf" points="1627.5,-0.5 1627.5,-19.5 1677.5,-19.5 1677.5,-0.5 1627.5,-0.5"/>
<text text-anchor="middle" x="1652.5" y="-7.5" font-family="Helvetica,sans-Serif" font-size="10.00">Client.h</text>
</g>
<!-- Node15&#45;&gt;Node17 -->
<g id="edge23" class="edge"><title>Node15&#45;&gt;Node17</title>
<path fill="none" stroke="midnightblue" d="M1584.82,-61.9751C1597.37,-52.5199 1617.85,-37.0961 1633,-25.6871"/>
<polygon fill="midnightblue" stroke="midnightblue" points="1635.32,-28.321 1641.2,-19.5091 1631.11,-22.7295 1635.32,-28.321"/>
</g>
<!-- Node18 -->
<g id="node19" class="node"><title>Node18</title>
<polygon fill="white" stroke="#bfbfbf" points="1463.5,-0.5 1463.5,-19.5 1519.5,-19.5 1519.5,-0.5 1463.5,-0.5"/>
<text text-anchor="middle" x="1491.5" y="-7.5" font-family="Helvetica,sans-Serif" font-size="10.00">Stream.h</text>
</g>
<!-- Node15&#45;&gt;Node18 -->
<g id="edge24" class="edge"><title>Node15&#45;&gt;Node18</title>
<path fill="none" stroke="midnightblue" d="M1561.75,-61.9751C1548.72,-52.5199 1527.46,-37.0961 1511.74,-25.6871"/>
<polygon fill="midnightblue" stroke="midnightblue" points="1513.38,-22.5492 1503.23,-19.5091 1509.27,-28.2149 1513.38,-22.5492"/>
</g>
<!-- Node19&#45;&gt;Node2 -->
<g id="edge26" class="edge"><title>Node19&#45;&gt;Node2</title>
<path fill="none" stroke="midnightblue" d="M1031.9,-179.27C1040.73,-166.057 1054.3,-140.649 1042.5,-123 1019.25,-88.2103 992.823,-105.924 955.5,-87 931.842,-75.0046 928.529,-67.2349 904.5,-56 874.161,-41.8146 838.069,-29.8205 811.299,-21.7913"/>
<polygon fill="midnightblue" stroke="midnightblue" points="812.108,-18.3811 801.527,-18.9118 810.13,-25.0957 812.108,-18.3811"/>
</g>
<!-- Node20&#45;&gt;Node2 -->
<g id="edge30" class="edge"><title>Node20&#45;&gt;Node2</title>
<path fill="none" stroke="midnightblue" d="M621.67,-124.74C647.746,-118.017 683.639,-106.12 710.5,-87 732.533,-71.3162 751.092,-45.8394 762.006,-28.7582"/>
<polygon fill="midnightblue" stroke="midnightblue" points="765.254,-30.1589 767.518,-19.8087 759.294,-26.4883 765.254,-30.1589"/>
</g>
<!-- Node21 -->
<g id="node22" class="node"><title>Node21</title>
<g id="a_node22"><a xlink:href="_cool_adafruit___a_d_s1015_8h.html" target="_top" xlink:title="internals/CoolAdafruit\l_ADS1015.h">
<polygon fill="white" stroke="black" points="558.5,-56.5 558.5,-86.5 668.5,-86.5 668.5,-56.5 558.5,-56.5"/>
<text text-anchor="start" x="566.5" y="-74.5" font-family="Helvetica,sans-Serif" font-size="10.00">internals/CoolAdafruit</text>
<text text-anchor="middle" x="613.5" y="-63.5" font-family="Helvetica,sans-Serif" font-size="10.00">_ADS1015.h</text>
</a>
</g>
</g>
<!-- Node20&#45;&gt;Node21 -->
<g id="edge28" class="edge"><title>Node20&#45;&gt;Node21</title>
<path fill="none" stroke="midnightblue" d="M591.225,-123.475C594.384,-116.245 599.069,-105.525 603.328,-95.7792"/>
<polygon fill="midnightblue" stroke="midnightblue" points="606.575,-97.0878 607.372,-86.523 600.161,-94.2848 606.575,-97.0878"/>
</g>
<!-- Node21&#45;&gt;Node2 -->
<g id="edge29" class="edge"><title>Node21&#45;&gt;Node2</title>
<path fill="none" stroke="midnightblue" d="M651.181,-56.3993C678.096,-46.3271 713.952,-32.9093 739.693,-23.2769"/>
<polygon fill="midnightblue" stroke="midnightblue" points="741.225,-26.4406 749.364,-19.6578 738.772,-19.8846 741.225,-26.4406"/>
</g>
<!-- Node22&#45;&gt;Node2 -->
<g id="edge32" class="edge"><title>Node22&#45;&gt;Node2</title>
<path fill="none" stroke="midnightblue" d="M525.497,-179.061C525.994,-165.097 529.051,-138.143 544.5,-123 588.234,-80.1341 624.032,-116.855 677.5,-87 695.07,-77.1895 694.993,-68.8246 710.5,-56 723.696,-45.0867 739.301,-33.7685 751.554,-25.2129"/>
<polygon fill="midnightblue" stroke="midnightblue" points="753.562,-28.0797 759.801,-19.5168 749.584,-22.3199 753.562,-28.0797"/>
</g>
<!-- Node23 -->
<g id="node24" class="node"><title>Node23</title>
<g id="a_node24"><a xlink:href="_external_sensor_8h.html" target="_top" xlink:title="ExternalSensor Header file. ">
<polygon fill="white" stroke="black" points="405.5,-123.5 405.5,-142.5 497.5,-142.5 497.5,-123.5 405.5,-123.5"/>
<text text-anchor="middle" x="451.5" y="-130.5" font-family="Helvetica,sans-Serif" font-size="10.00">ExternalSensor.h</text>
</a>
</g>
</g>
<!-- Node22&#45;&gt;Node23 -->
<g id="edge33" class="edge"><title>Node22&#45;&gt;Node23</title>
<path fill="none" stroke="midnightblue" d="M513.611,-179.324C502.35,-171.107 485.213,-158.602 471.791,-148.807"/>
<polygon fill="midnightblue" stroke="midnightblue" points="473.747,-145.901 463.606,-142.834 469.62,-151.556 473.747,-145.901"/>
</g>
<!-- Node23&#45;&gt;Node2 -->
<g id="edge39" class="edge"><title>Node23&#45;&gt;Node2</title>
<path fill="none" stroke="midnightblue" d="M463.562,-123.177C475.756,-114.206 495.092,-99.8373 511.5,-87 528.666,-73.5695 529.796,-65.3174 549.5,-56 609.621,-27.5705 687.131,-17.0714 733.143,-13.2149"/>
<polygon fill="midnightblue" stroke="midnightblue" points="733.599,-16.6902 743.299,-12.4293 733.059,-9.71105 733.599,-16.6902"/>
</g>
<!-- Node23&#45;&gt;Node21 -->
<g id="edge38" class="edge"><title>Node23&#45;&gt;Node21</title>
<path fill="none" stroke="midnightblue" d="M474.711,-123.475C498.394,-114.776 535.831,-101.026 565.858,-89.9981"/>
<polygon fill="midnightblue" stroke="midnightblue" points="567.14,-93.2561 575.32,-86.523 564.726,-86.6853 567.14,-93.2561"/>
</g>
<!-- Node24 -->
<g id="node25" class="node"><title>Node24</title>
<g id="a_node25"><a xlink:href="_cool_n_d_i_r___i2_c_8h.html" target="_top" xlink:title="internals/CoolNDIR\l_I2C.h">
<polygon fill="white" stroke="black" points="400.5,-56.5 400.5,-86.5 502.5,-86.5 502.5,-56.5 400.5,-56.5"/>
<text text-anchor="start" x="408.5" y="-74.5" font-family="Helvetica,sans-Serif" font-size="10.00">internals/CoolNDIR</text>
<text text-anchor="middle" x="451.5" y="-63.5" font-family="Helvetica,sans-Serif" font-size="10.00">_I2C.h</text>
</a>
</g>
</g>
<!-- Node23&#45;&gt;Node24 -->
<g id="edge34" class="edge"><title>Node23&#45;&gt;Node24</title>
<path fill="none" stroke="midnightblue" d="M451.5,-123.475C451.5,-116.471 451.5,-106.192 451.5,-96.6956"/>
<polygon fill="midnightblue" stroke="midnightblue" points="455,-96.5229 451.5,-86.523 448,-96.523 455,-96.5229"/>
</g>
<!-- Node25 -->
<g id="node26" class="node"><title>Node25</title>
<polygon fill="white" stroke="#bfbfbf" points="276,-62 276,-81 383,-81 383,-62 276,-62"/>
<text text-anchor="middle" x="329.5" y="-69" font-family="Helvetica,sans-Serif" font-size="10.00">DallasTemperature.h</text>
</g>
<!-- Node23&#45;&gt;Node25 -->
<g id="edge35" class="edge"><title>Node23&#45;&gt;Node25</title>
<path fill="none" stroke="midnightblue" d="M434.02,-123.475C413.637,-113.534 379.725,-96.9947 356.075,-85.461"/>
<polygon fill="midnightblue" stroke="midnightblue" points="357.469,-82.2468 346.947,-81.0091 354.401,-88.5385 357.469,-82.2468"/>
</g>
<!-- Node26 -->
<g id="node27" class="node"><title>Node26</title>
<g id="a_node27"><a xlink:href="_cool_adafruit___t_c_s34725_8h.html" target="_top" xlink:title="internals/CoolAdafruit\l_TCS34725.h">
<polygon fill="white" stroke="black" points="109.5,-56.5 109.5,-86.5 219.5,-86.5 219.5,-56.5 109.5,-56.5"/>
<text text-anchor="start" x="117.5" y="-74.5" font-family="Helvetica,sans-Serif" font-size="10.00">internals/CoolAdafruit</text>
<text text-anchor="middle" x="164.5" y="-63.5" font-family="Helvetica,sans-Serif" font-size="10.00">_TCS34725.h</text>
</a>
</g>
</g>
<!-- Node23&#45;&gt;Node26 -->
<g id="edge36" class="edge"><title>Node23&#45;&gt;Node26</title>
<path fill="none" stroke="midnightblue" d="M410.38,-123.475C363.177,-113.689 285.134,-97.5096 229.641,-86.0048"/>
<polygon fill="midnightblue" stroke="midnightblue" points="230.056,-82.5166 219.554,-83.9136 228.635,-89.3708 230.056,-82.5166"/>
</g>
<!-- Node27 -->
<g id="node28" class="node"><title>Node27</title>
<polygon fill="white" stroke="#bfbfbf" points="129,-0.5 129,-19.5 200,-19.5 200,-0.5 129,-0.5"/>
<text text-anchor="middle" x="164.5" y="-7.5" font-family="Helvetica,sans-Serif" font-size="10.00">WProgram.h</text>
</g>
<!-- Node26&#45;&gt;Node27 -->
<g id="edge37" class="edge"><title>Node26&#45;&gt;Node27</title>
<path fill="none" stroke="midnightblue" d="M164.5,-56.3993C164.5,-48.4664 164.5,-38.458 164.5,-29.8583"/>
<polygon fill="midnightblue" stroke="midnightblue" points="168,-29.6577 164.5,-19.6578 161,-29.6578 168,-29.6577"/>
</g>
<!-- Node28&#45;&gt;Node2 -->
<g id="edge41" class="edge"><title>Node28&#45;&gt;Node2</title>
<path fill="none" stroke="midnightblue" d="M1570.56,-123.446C1549.33,-115.398 1517.85,-102.315 1492.5,-87 1473.55,-75.5486 1474.15,-63.982 1453.5,-56 1393.71,-32.893 948.433,-16.6976 812.071,-12.239"/>
<polygon fill="midnightblue" stroke="midnightblue" points="811.794,-8.72829 801.686,-11.9027 811.567,-15.7246 811.794,-8.72829"/>
</g>
<!-- Node28&#45;&gt;Node14 -->
<g id="edge42" class="edge"><title>Node28&#45;&gt;Node14</title>
<path fill="none" stroke="midnightblue" d="M1566.85,-123.475C1533.31,-113.136 1476.63,-95.6611 1439.13,-84.1017"/>
<polygon fill="midnightblue" stroke="midnightblue" points="1439.69,-80.6106 1429.1,-81.0091 1437.63,-87.2999 1439.69,-80.6106"/>
</g>
<!-- Node29 -->
<g id="node30" class="node"><title>Node29</title>
<polygon fill="white" stroke="#bfbfbf" points="1664,-62 1664,-81 1771,-81 1771,-62 1664,-62"/>
<text text-anchor="middle" x="1717.5" y="-69" font-family="Helvetica,sans-Serif" font-size="10.00">ESP8266WiFiMulti.h</text>
</g>
<!-- Node28&#45;&gt;Node29 -->
<g id="edge43" class="edge"><title>Node28&#45;&gt;Node29</title>
<path fill="none" stroke="midnightblue" d="M1612.12,-123.475C1632.67,-113.534 1666.86,-96.9947 1690.71,-85.461"/>
<polygon fill="midnightblue" stroke="midnightblue" points="1692.43,-88.5145 1699.91,-81.0091 1689.38,-82.2131 1692.43,-88.5145"/>
</g>
<!-- Node30 -->
<g id="node31" class="node"><title>Node30</title>
<polygon fill="white" stroke="#bfbfbf" points="1789,-62 1789,-81 1864,-81 1864,-62 1789,-62"/>
<text text-anchor="middle" x="1826.5" y="-69" font-family="Helvetica,sans-Serif" font-size="10.00">DNSServer.h</text>
</g>
<!-- Node28&#45;&gt;Node30 -->
<g id="edge44" class="edge"><title>Node28&#45;&gt;Node30</title>
<path fill="none" stroke="midnightblue" d="M1625.6,-125.155C1662.67,-116.841 1726.41,-102.05 1780.5,-87 1783.83,-86.0741 1787.28,-85.0702 1790.72,-84.0373"/>
<polygon fill="midnightblue" stroke="midnightblue" points="1791.79,-87.3718 1800.32,-81.0909 1789.73,-80.6801 1791.79,-87.3718"/>
</g>
<!-- Node31 -->
<g id="node32" class="node"><title>Node31</title>
<polygon fill="white" stroke="#bfbfbf" points="1882,-62 1882,-81 1997,-81 1997,-62 1882,-62"/>
<text text-anchor="middle" x="1939.5" y="-69" font-family="Helvetica,sans-Serif" font-size="10.00">ESP8266WebServer.h</text>
</g>
<!-- Node28&#45;&gt;Node31 -->
<g id="edge45" class="edge"><title>Node28&#45;&gt;Node31</title>
<path fill="none" stroke="midnightblue" d="M1625.56,-127.574C1677.19,-120.087 1783.85,-104.063 1873.5,-87 1879.63,-85.834 1886.05,-84.527 1892.39,-83.1879"/>
<polygon fill="midnightblue" stroke="midnightblue" points="1893.19,-86.5973 1902.23,-81.0728 1891.72,-79.7538 1893.19,-86.5973"/>
</g>
<!-- Node32&#45;&gt;Node2 -->
<g id="edge47" class="edge"><title>Node32&#45;&gt;Node2</title>
<path fill="none" stroke="midnightblue" d="M157.58,-179.299C130.362,-156.623 64.2258,-94.7846 100.5,-56 143.8,-9.70347 595.925,-9.55104 733.197,-10.5872"/>
<polygon fill="midnightblue" stroke="midnightblue" points="733.243,-14.0876 743.272,-10.6698 733.301,-7.08779 733.243,-14.0876"/>
</g>
</g>
</svg>
        <g id="navigator" transform="translate(0 0)" fill="#404254">
                <rect fill="#f2f5e9" fill-opacity="0.5" stroke="#606060" stroke-width=".5" x="0" y="0" width="60" height="60"/>
                <use id="zoomplus" xlink:href="#zoomPlus" x="17" y="9" onmousedown="handleZoom(evt,'in')"/>
                <use id="zoomminus" xlink:href="#zoomMin" x="42" y="9" onmousedown="handleZoom(evt,'out')"/>
                <use id="reset" xlink:href="#resetDef" x="30" y="36" onmousedown="handleReset()"/>
                <g id="arrowUp" xlink:href="#dirArrow" transform="translate(30 24)" onmousedown="handlePan(0,-1)">
                  <use xlink:href="#rim" fill="#404040">
                        <set attributeName="fill" to="#808080" begin="arrowUp.mouseover" end="arrowUp.mouseout"/>
                  </use>
                  <path fill="none" stroke="white" stroke-width="1.5" d="M0,-3.0v7 M-2.5,-0.5L0,-3.0L2.5,-0.5"/>
                </g>
                <g id="arrowRight" xlink:href="#dirArrow" transform="rotate(90) translate(36 -43)" onmousedown="handlePan(1,0)">
                  <use xlink:href="#rim" fill="#404040">
                        <set attributeName="fill" to="#808080" begin="arrowRight.mouseover" end="arrowRight.mouseout"/>
                  </use>
                  <path fill="none" stroke="white" stroke-width="1.5" d="M0,-3.0v7 M-2.5,-0.5L0,-3.0L2.5,-0.5"/>
                </g>
                <g id="arrowDown" xlink:href="#dirArrow" transform="rotate(180) translate(-30 -48)" onmousedown="handlePan(0,1)">
                  <use xlink:href="#rim" fill="#404040">
                        <set attributeName="fill" to="#808080" begin="arrowDown.mouseover" end="arrowDown.mouseout"/>
                  </use>
                  <path fill="none" stroke="white" stroke-width="1.5" d="M0,-3.0v7 M-2.5,-0.5L0,-3.0L2.5,-0.5"/>
                </g>
                <g id="arrowLeft" xlink:href="#dirArrow" transform="rotate(270) translate(-36 17)" onmousedown="handlePan(-1,0)">
                  <use xlink:href="#rim" fill="#404040">
                        <set attributeName="fill" to="#808080" begin="arrowLeft.mouseover" end="arrowLeft.mouseout"/>
                  </use>
                  <path fill="none" stroke="white" stroke-width="1.5" d="M0,-3.0v7 M-2.5,-0.5L0,-3.0L2.5,-0.5"/>
                </g>
        </g>
        <svg viewBox="0 0 15 15" width="100%" height="30px" preserveAspectRatio="xMaxYMin meet">
         <g id="arrow_out" transform="scale(0.3 0.3)">
          <a xlink:href="_cool_board_8h__incl_org.svg" target="_base">
           <rect id="button" ry="5" rx="5" y="6" x="6" height="38" width="38"
                fill="#f2f5e9" fill-opacity="0.5" stroke="#606060" stroke-width="1.0"/>
           <path id="arrow"
             d="M 11.500037,31.436501 C 11.940474,20.09759 22.043105,11.32322 32.158766,21.979434 L 37.068811,17.246167 C 37.068811,17.246167 37.088388,32 37.088388,32 L 22.160133,31.978069 C 22.160133,31.978069 26.997745,27.140456 26.997745,27.140456 C 18.528582,18.264221 13.291696,25.230495 11.500037,31.436501 z"
             style="fill:#404040;"/>
          </a>
         </g>
        </svg>
</svg>
