<?xml version="1.0" encoding="UTF-8" standalone="no"?>
<!DOCTYPE svg PUBLIC "-//W3C//DTD SVG 1.1//EN"
 "http://www.w3.org/Graphics/SVG/1.1/DTD/svg11.dtd">
<!-- Generated by graphviz version 2.38.0 (20140413.2041)
 -->
<!-- Title: /home/ashiroji/Arduino/libraries/CoolBoard/src/CoolWifi.cpp Pages: 1 -->
<!--zoomable 173 -->
<svg id="main" version="1.1" xmlns="http://www.w3.org/2000/svg" xmlns:xlink="http://www.w3.org/1999/xlink" xml:space="preserve" onload="init(evt)">
<style type="text/css"><![CDATA[
.edge:hover path { stroke: red; }
.edge:hover polygon { stroke: red; fill: red; }
]]></style>
<script type="text/javascript"><![CDATA[
var edges = document.getElementsByTagName('g');
if (edges && edges.length) {
  for (var i=0;i<edges.length;i++) {
    if (edges[i].id.substr(0,4)=='edge') {
      edges[i].setAttribute('class','edge');
    }
  }
}
]]></script>
        <defs>
                <circle id="rim" cx="0" cy="0" r="7"/>
                <circle id="rim2" cx="0" cy="0" r="3.5"/>
                <g id="zoomPlus">
                        <use xlink:href="#rim" fill="#404040">
                                <set attributeName="fill" to="#808080" begin="zoomplus.mouseover" end="zoomplus.mouseout"/>
                        </use>
                        <path d="M-4,0h8M0,-4v8" fill="none" stroke="white" stroke-width="1.5" pointer-events="none"/>
                </g>
                <g id="zoomMin">
                        <use xlink:href="#rim" fill="#404040">
                                <set attributeName="fill" to="#808080" begin="zoomminus.mouseover" end="zoomminus.mouseout"/>
                        </use>
                        <path d="M-4,0h8" fill="none" stroke="white" stroke-width="1.5" pointer-events="none"/>
                </g>
                <g id="dirArrow">
                        <path fill="none" stroke="white" stroke-width="1.5" d="M0,-3.0v7 M-2.5,-0.5L0,-3.0L2.5,-0.5"/>
                </g>
               <g id="resetDef">
                       <use xlink:href="#rim2" fill="#404040">
                               <set attributeName="fill" to="#808080" begin="reset.mouseover" end="reset.mouseout"/>
                       </use>
               </g>
        </defs>

<script type="text/javascript">
var viewWidth = 695;
var viewHeight = 173;
var sectionId = 'dynsection-0';
</script>
<script xlink:href="svgpan.js"/>
<svg id="graph" class="graph">
<g id="viewport">
<title>/home/ashiroji/Arduino/libraries/CoolBoard/src/CoolWifi.cpp</title>
<polygon fill="white" stroke="none" points="-4,4 -4,-169 691,-169 691,4 -4,4"/>
<!-- Node0 -->
<g id="node1" class="node"><title>Node0</title>
<polygon fill="#bfbfbf" stroke="black" points="178.5,-123.5 178.5,-164.5 297.5,-164.5 297.5,-123.5 178.5,-123.5"/>
<text text-anchor="start" x="186.5" y="-152.5" font-family="Helvetica,sans-Serif" font-size="10.00">/home/ashiroji/Arduino</text>
<text text-anchor="start" x="186.5" y="-141.5" font-family="Helvetica,sans-Serif" font-size="10.00">/libraries/CoolBoard/src</text>
<text text-anchor="middle" x="238" y="-130.5" font-family="Helvetica,sans-Serif" font-size="10.00">/CoolWifi.cpp</text>
</g>
<!-- Node1 -->
<g id="node2" class="node"><title>Node1</title>
<polygon fill="white" stroke="#bfbfbf" points="75,-62 75,-81 113,-81 113,-62 75,-62"/>
<text text-anchor="middle" x="94" y="-69" font-family="Helvetica,sans-Serif" font-size="10.00">FS.h</text>
</g>
<!-- Node0&#45;&gt;Node1 -->
<g id="edge1" class="edge"><title>Node0&#45;&gt;Node1</title>
<path fill="none" stroke="midnightblue" d="M197.888,-123.362C173.351,-111.349 142.623,-96.3048 120.971,-85.7043"/>
<polygon fill="midnightblue" stroke="midnightblue" points="122.236,-82.4271 111.716,-81.1734 119.158,-88.7141 122.236,-82.4271"/>
</g>
<!-- Node2 -->
<g id="node3" class="node"><title>Node2</title>
<polygon fill="white" stroke="#bfbfbf" points="0,-0.5 0,-19.5 58,-19.5 58,-0.5 0,-0.5"/>
<text text-anchor="middle" x="29" y="-7.5" font-family="Helvetica,sans-Serif" font-size="10.00">Arduino.h</text>
</g>
<!-- Node0&#45;&gt;Node2 -->
<g id="edge2" class="edge"><title>Node0&#45;&gt;Node2</title>
<path fill="none" stroke="midnightblue" d="M212.202,-123.455C179.483,-98.6945 126.716,-58.8728 122,-56 101.65,-43.6049 77.3772,-31.9564 58.7326,-23.6174"/>
<polygon fill="midnightblue" stroke="midnightblue" points="60.1088,-20.3991 49.5463,-19.5719 57.2875,-26.8054 60.1088,-20.3991"/>
</g>
<!-- Node3 -->
<g id="node4" class="node"><title>Node3</title>
<polygon fill="white" stroke="#bfbfbf" points="427,-0.5 427,-19.5 513,-19.5 513,-0.5 427,-0.5"/>
<text text-anchor="middle" x="470" y="-7.5" font-family="Helvetica,sans-Serif" font-size="10.00">ESP8266WiFi.h</text>
</g>
<!-- Node0&#45;&gt;Node3 -->
<g id="edge3" class="edge"><title>Node0&#45;&gt;Node3</title>
<path fill="none" stroke="midnightblue" d="M250.835,-123.141C264.639,-103.329 288.365,-73.4064 316,-56 333.741,-44.8256 383.874,-31.2316 422.166,-21.9282"/>
<polygon fill="midnightblue" stroke="midnightblue" points="423.208,-25.2775 432.116,-19.5417 421.575,-18.4706 423.208,-25.2775"/>
</g>
<!-- Node4 -->
<g id="node5" class="node"><title>Node4</title>
<polygon fill="white" stroke="#bfbfbf" points="75.5,-0.5 75.5,-19.5 182.5,-19.5 182.5,-0.5 75.5,-0.5"/>
<text text-anchor="middle" x="129" y="-7.5" font-family="Helvetica,sans-Serif" font-size="10.00">ESP8266WiFiMulti.h</text>
</g>
<!-- Node0&#45;&gt;Node4 -->
<g id="edge4" class="edge"><title>Node0&#45;&gt;Node4</title>
<path fill="none" stroke="midnightblue" d="M221.682,-123.238C200.207,-97.2321 162.838,-51.9777 142.736,-27.6339"/>
<polygon fill="midnightblue" stroke="midnightblue" points="145.238,-25.1679 136.172,-19.6856 139.841,-29.6251 145.238,-25.1679"/>
</g>
<!-- Node5 -->
<g id="node6" class="node"><title>Node5</title>
<g id="a_node6"><a xlink:href="_wi_fi_manager_read_file_button_8h.html" target="_top" xlink:title="internals/WiFiManagerRead\lFileButton.h">
<polygon fill="white" stroke="black" points="325.5,-56.5 325.5,-86.5 462.5,-86.5 462.5,-56.5 325.5,-56.5"/>
<text text-anchor="start" x="333.5" y="-74.5" font-family="Helvetica,sans-Serif" font-size="10.00">internals/WiFiManagerRead</text>
<text text-anchor="middle" x="394" y="-63.5" font-family="Helvetica,sans-Serif" font-size="10.00">FileButton.h</text>
</a>
</g>
</g>
<!-- Node0&#45;&gt;Node5 -->
<g id="edge5" class="edge"><title>Node0&#45;&gt;Node5</title>
<path fill="none" stroke="midnightblue" d="M281.455,-123.362C304.016,-113.166 331.409,-100.786 353.521,-90.7933"/>
<polygon fill="midnightblue" stroke="midnightblue" points="354.974,-93.9777 362.645,-86.67 352.091,-87.5989 354.974,-93.9777"/>
</g>
<!-- Node10 -->
<g id="node11" class="node"><title>Node10</title>
<g id="a_node11"><a xlink:href="_cool_wifi_8h.html" target="_top" xlink:title="CoolWifi Header file. ">
<polygon fill="white" stroke="black" points="207,-62 207,-81 269,-81 269,-62 207,-62"/>
<text text-anchor="middle" x="238" y="-69" font-family="Helvetica,sans-Serif" font-size="10.00">CoolWifi.h</text>
</a>
</g>
</g>
<!-- Node0&#45;&gt;Node10 -->
<g id="edge11" class="edge"><title>Node0&#45;&gt;Node10</title>
<path fill="none" stroke="midnightblue" d="M238,-123.362C238,-113.297 238,-101.104 238,-91.18"/>
<polygon fill="midnightblue" stroke="midnightblue" points="241.5,-91.1733 238,-81.1734 234.5,-91.1734 241.5,-91.1733"/>
</g>
<!-- Node11 -->
<g id="node12" class="node"><title>Node11</title>
<polygon fill="white" stroke="#bfbfbf" points="480.5,-62 480.5,-81 559.5,-81 559.5,-62 480.5,-62"/>
<text text-anchor="middle" x="520" y="-69" font-family="Helvetica,sans-Serif" font-size="10.00">ArduinoJson.h</text>
</g>
<!-- Node0&#45;&gt;Node11 -->
<g id="edge17" class="edge"><title>Node0&#45;&gt;Node11</title>
<path fill="none" stroke="midnightblue" d="M297.874,-129.686C345.297,-118.897 413.128,-102.922 472,-87 475.571,-86.0341 479.28,-84.9893 482.982,-83.9183"/>
<polygon fill="midnightblue" stroke="midnightblue" points="484.066,-87.2476 492.665,-81.0589 482.084,-80.5342 484.066,-87.2476"/>
</g>
<!-- Node5&#45;&gt;Node3 -->
<g id="edge6" class="edge"><title>Node5&#45;&gt;Node3</title>
<path fill="none" stroke="midnightblue" d="M412.011,-56.3993C423.738,-47.2185 439.015,-35.2579 450.945,-25.9182"/>
<polygon fill="midnightblue" stroke="midnightblue" points="453.225,-28.5782 458.941,-19.6578 448.91,-23.0664 453.225,-28.5782"/>
</g>
<!-- Node6 -->
<g id="node7" class="node"><title>Node6</title>
<polygon fill="white" stroke="#bfbfbf" points="293.5,-0.5 293.5,-19.5 408.5,-19.5 408.5,-0.5 293.5,-0.5"/>
<text text-anchor="middle" x="351" y="-7.5" font-family="Helvetica,sans-Serif" font-size="10.00">ESP8266WebServer.h</text>
</g>
<!-- Node5&#45;&gt;Node6 -->
<g id="edge7" class="edge"><title>Node5&#45;&gt;Node6</title>
<path fill="none" stroke="midnightblue" d="M383.81,-56.3993C377.626,-47.8424 369.697,-36.8708 363.182,-27.857"/>
<polygon fill="midnightblue" stroke="midnightblue" points="365.951,-25.7127 357.257,-19.6578 360.278,-29.8129 365.951,-25.7127"/>
</g>
<!-- Node7 -->
<g id="node8" class="node"><title>Node7</title>
<polygon fill="white" stroke="#bfbfbf" points="200.5,-0.5 200.5,-19.5 275.5,-19.5 275.5,-0.5 200.5,-0.5"/>
<text text-anchor="middle" x="238" y="-7.5" font-family="Helvetica,sans-Serif" font-size="10.00">DNSServer.h</text>
</g>
<!-- Node5&#45;&gt;Node7 -->
<g id="edge8" class="edge"><title>Node5&#45;&gt;Node7</title>
<path fill="none" stroke="midnightblue" d="M357.03,-56.3993C330.622,-46.3271 295.443,-32.9093 270.188,-23.2769"/>
<polygon fill="midnightblue" stroke="midnightblue" points="271.29,-19.9513 260.699,-19.6578 268.796,-26.4917 271.29,-19.9513"/>
</g>
<!-- Node8 -->
<g id="node9" class="node"><title>Node8</title>
<polygon fill="white" stroke="#bfbfbf" points="635,-0.5 635,-19.5 687,-19.5 687,-0.5 635,-0.5"/>
<text text-anchor="middle" x="661" y="-7.5" font-family="Helvetica,sans-Serif" font-size="10.00">memory</text>
</g>
<!-- Node5&#45;&gt;Node8 -->
<g id="edge9" class="edge"><title>Node5&#45;&gt;Node8</title>
<path fill="none" stroke="midnightblue" d="M461.661,-56.4686C505.572,-47.2007 564.272,-34.511 624.57,-20.2784"/>
<polygon fill="midnightblue" stroke="midnightblue" points="625.73,-23.6003 634.653,-17.8874 624.115,-16.7892 625.73,-23.6003"/>
</g>
<!-- Node9 -->
<g id="node10" class="node"><title>Node9</title>
<polygon fill="white" stroke="#bfbfbf" points="531,-0.5 531,-19.5 617,-19.5 617,-0.5 531,-0.5"/>
<text text-anchor="middle" x="574" y="-7.5" font-family="Helvetica,sans-Serif" font-size="10.00">user_interface.h</text>
</g>
<!-- Node5&#45;&gt;Node9 -->
<g id="edge10" class="edge"><title>Node5&#45;&gt;Node9</title>
<path fill="none" stroke="midnightblue" d="M436.657,-56.3993C467.626,-46.1627 509.048,-32.4703 538.278,-22.8082"/>
<polygon fill="midnightblue" stroke="midnightblue" points="539.675,-26.0327 548.071,-19.5709 537.478,-19.3864 539.675,-26.0327"/>
</g>
<!-- Node10&#45;&gt;Node2 -->
<g id="edge12" class="edge"><title>Node10&#45;&gt;Node2</title>
<path fill="none" stroke="midnightblue" d="M208.055,-61.9751C171.22,-51.4886 108.598,-33.6606 68.0259,-22.1102"/>
<polygon fill="midnightblue" stroke="midnightblue" points="68.7914,-18.6892 58.2152,-19.3173 66.8747,-25.4217 68.7914,-18.6892"/>
</g>
<!-- Node10&#45;&gt;Node3 -->
<g id="edge13" class="edge"><title>Node10&#45;&gt;Node3</title>
<path fill="none" stroke="midnightblue" d="M263.599,-61.8819C269.913,-59.8585 276.678,-57.7764 283,-56 329.478,-42.9397 383.103,-30.2782 420.978,-21.7308"/>
<polygon fill="midnightblue" stroke="midnightblue" points="421.747,-25.1453 430.738,-19.5405 420.214,-18.3152 421.747,-25.1453"/>
</g>
<!-- Node10&#45;&gt;Node4 -->
<g id="edge14" class="edge"><title>Node10&#45;&gt;Node4</title>
<path fill="none" stroke="midnightblue" d="M222.383,-61.9751C204.414,-52.1664 174.679,-35.9346 153.594,-24.425"/>
<polygon fill="midnightblue" stroke="midnightblue" points="155.042,-21.2284 144.588,-19.5091 151.689,-27.3726 155.042,-21.2284"/>
</g>
<!-- Node10&#45;&gt;Node6 -->
<g id="edge16" class="edge"><title>Node10&#45;&gt;Node6</title>
<path fill="none" stroke="midnightblue" d="M254.19,-61.9751C272.902,-52.1222 303.923,-35.7883 325.799,-24.2697"/>
<polygon fill="midnightblue" stroke="midnightblue" points="327.622,-27.2651 334.84,-19.5091 324.361,-21.0713 327.622,-27.2651"/>
</g>
<!-- Node10&#45;&gt;Node7 -->
<g id="edge15" class="edge"><title>Node10&#45;&gt;Node7</title>
<path fill="none" stroke="midnightblue" d="M238,-61.9751C238,-53.5803 238,-40.4806 238,-29.6631"/>
<polygon fill="midnightblue" stroke="midnightblue" points="241.5,-29.5091 238,-19.5091 234.5,-29.5091 241.5,-29.5091"/>
</g>
</g>
</svg>
        <g id="navigator" transform="translate(0 0)" fill="#404254">
                <rect fill="#f2f5e9" fill-opacity="0.5" stroke="#606060" stroke-width=".5" x="0" y="0" width="60" height="60"/>
                <use id="zoomplus" xlink:href="#zoomPlus" x="17" y="9" onmousedown="handleZoom(evt,'in')"/>
                <use id="zoomminus" xlink:href="#zoomMin" x="42" y="9" onmousedown="handleZoom(evt,'out')"/>
                <use id="reset" xlink:href="#resetDef" x="30" y="36" onmousedown="handleReset()"/>
                <g id="arrowUp" xlink:href="#dirArrow" transform="translate(30 24)" onmousedown="handlePan(0,-1)">
                  <use xlink:href="#rim" fill="#404040">
                        <set attributeName="fill" to="#808080" begin="arrowUp.mouseover" end="arrowUp.mouseout"/>
                  </use>
                  <path fill="none" stroke="white" stroke-width="1.5" d="M0,-3.0v7 M-2.5,-0.5L0,-3.0L2.5,-0.5"/>
                </g>
                <g id="arrowRight" xlink:href="#dirArrow" transform="rotate(90) translate(36 -43)" onmousedown="handlePan(1,0)">
                  <use xlink:href="#rim" fill="#404040">
                        <set attributeName="fill" to="#808080" begin="arrowRight.mouseover" end="arrowRight.mouseout"/>
                  </use>
                  <path fill="none" stroke="white" stroke-width="1.5" d="M0,-3.0v7 M-2.5,-0.5L0,-3.0L2.5,-0.5"/>
                </g>
                <g id="arrowDown" xlink:href="#dirArrow" transform="rotate(180) translate(-30 -48)" onmousedown="handlePan(0,1)">
                  <use xlink:href="#rim" fill="#404040">
                        <set attributeName="fill" to="#808080" begin="arrowDown.mouseover" end="arrowDown.mouseout"/>
                  </use>
                  <path fill="none" stroke="white" stroke-width="1.5" d="M0,-3.0v7 M-2.5,-0.5L0,-3.0L2.5,-0.5"/>
                </g>
                <g id="arrowLeft" xlink:href="#dirArrow" transform="rotate(270) translate(-36 17)" onmousedown="handlePan(-1,0)">
                  <use xlink:href="#rim" fill="#404040">
                        <set attributeName="fill" to="#808080" begin="arrowLeft.mouseover" end="arrowLeft.mouseout"/>
                  </use>
                  <path fill="none" stroke="white" stroke-width="1.5" d="M0,-3.0v7 M-2.5,-0.5L0,-3.0L2.5,-0.5"/>
                </g>
        </g>
        <svg viewBox="0 0 15 15" width="100%" height="30px" preserveAspectRatio="xMaxYMin meet">
         <g id="arrow_out" transform="scale(0.3 0.3)">
          <a xlink:href="_cool_wifi_8cpp__incl_org.svg" target="_base">
           <rect id="button" ry="5" rx="5" y="6" x="6" height="38" width="38"
                fill="#f2f5e9" fill-opacity="0.5" stroke="#606060" stroke-width="1.0"/>
           <path id="arrow"
             d="M 11.500037,31.436501 C 11.940474,20.09759 22.043105,11.32322 32.158766,21.979434 L 37.068811,17.246167 C 37.068811,17.246167 37.088388,32 37.088388,32 L 22.160133,31.978069 C 22.160133,31.978069 26.997745,27.140456 26.997745,27.140456 C 18.528582,18.264221 13.291696,25.230495 11.500037,31.436501 z"
             style="fill:#404040;"/>
          </a>
         </g>
        </svg>
</svg>
