<?xml version="1.0" encoding="UTF-8" standalone="no"?>
<!DOCTYPE svg PUBLIC "-//W3C//DTD SVG 1.1//EN"
 "http://www.w3.org/Graphics/SVG/1.1/DTD/svg11.dtd">
<!-- Generated by graphviz version 2.38.0 (20140413.2041)
 -->
<!-- Title: /home/ashiroji/Arduino/libraries/CoolBoard/src/internals/CoolSI114X.h Pages: 1 -->
<svg width="345pt" height="284pt"
 viewBox="0.00 0.00 345.00 284.00" xmlns="http://www.w3.org/2000/svg" xmlns:xlink="http://www.w3.org/1999/xlink">
<g id="graph0" class="graph" transform="scale(1 1) rotate(0) translate(4 280)">
<title>/home/ashiroji/Arduino/libraries/CoolBoard/src/internals/CoolSI114X.h</title>
<polygon fill="white" stroke="none" points="-4,4 -4,-280 341,-280 341,4 -4,4"/>
<!-- Node2 -->
<g id="node1" class="node"><title>Node2</title>
<polygon fill="#bfbfbf" stroke="black" points="139.5,-234.5 139.5,-275.5 259.5,-275.5 259.5,-234.5 139.5,-234.5"/>
<text text-anchor="start" x="147.5" y="-263.5" font-family="Helvetica,sans-Serif" font-size="10.00">/home/ashiroji/Arduino</text>
<text text-anchor="start" x="147.5" y="-252.5" font-family="Helvetica,sans-Serif" font-size="10.00">/libraries/CoolBoard/src</text>
<text text-anchor="middle" x="199.5" y="-241.5" font-family="Helvetica,sans-Serif" font-size="10.00">/internals/CoolSI114X.h</text>
</g>
<!-- Node3 -->
<g id="node2" class="node"><title>Node3</title>
<g id="a_node2"><a xlink:href="_cool_board_sensors_8h.html" target="_top" xlink:title="CoolBoardSensors Header file. ">
<polygon fill="white" stroke="black" points="69,-156.5 69,-197.5 188,-197.5 188,-156.5 69,-156.5"/>
<text text-anchor="start" x="77" y="-185.5" font-family="Helvetica,sans-Serif" font-size="10.00">/home/ashiroji/Arduino</text>
<text text-anchor="start" x="77" y="-174.5" font-family="Helvetica,sans-Serif" font-size="10.00">/libraries/CoolBoard/src</text>
<text text-anchor="middle" x="128.5" y="-163.5" font-family="Helvetica,sans-Serif" font-size="10.00">/CoolBoardSensors.h</text>
</a>
</g>
</g>
<!-- Node2&#45;&gt;Node3 -->
<g id="edge1" class="edge"><title>Node2&#45;&gt;Node3</title>
<path fill="none" stroke="midnightblue" d="M174.198,-226.916C165.124,-217.203 155.078,-206.45 146.722,-197.506"/>
<polygon fill="midnightblue" stroke="midnightblue" points="171.832,-229.51 181.216,-234.428 176.947,-224.731 171.832,-229.51"/>
</g>
<!-- Node7 -->
<g id="node6" class="node"><title>Node7</title>
<g id="a_node6"><a xlink:href="_cool_s_i114_x_8cpp.html" target="_top" xlink:title="/home/ashiroji/Arduino\l/libraries/CoolBoard/src\l/internals/CoolSI114X.cpp">
<polygon fill="white" stroke="black" points="206,-156.5 206,-197.5 337,-197.5 337,-156.5 206,-156.5"/>
<text text-anchor="start" x="214" y="-185.5" font-family="Helvetica,sans-Serif" font-size="10.00">/home/ashiroji/Arduino</text>
<text text-anchor="start" x="214" y="-174.5" font-family="Helvetica,sans-Serif" font-size="10.00">/libraries/CoolBoard/src</text>
<text text-anchor="middle" x="271.5" y="-163.5" font-family="Helvetica,sans-Serif" font-size="10.00">/internals/CoolSI114X.cpp</text>
</a>
</g>
</g>
<!-- Node2&#45;&gt;Node7 -->
<g id="edge5" class="edge"><title>Node2&#45;&gt;Node7</title>
<path fill="none" stroke="midnightblue" d="M225.159,-226.916C234.36,-217.203 244.547,-206.45 253.021,-197.506"/>
<polygon fill="midnightblue" stroke="midnightblue" points="222.378,-224.761 218.042,-234.428 227.46,-229.576 222.378,-224.761"/>
</g>
<!-- Node4 -->
<g id="node3" class="node"><title>Node4</title>
<g id="a_node3"><a xlink:href="_cool_board_8h.html" target="_top" xlink:title="CoolBoard Header file. ">
<polygon fill="white" stroke="black" points="0,-78.5 0,-119.5 119,-119.5 119,-78.5 0,-78.5"/>
<text text-anchor="start" x="8" y="-107.5" font-family="Helvetica,sans-Serif" font-size="10.00">/home/ashiroji/Arduino</text>
<text text-anchor="start" x="8" y="-96.5" font-family="Helvetica,sans-Serif" font-size="10.00">/libraries/CoolBoard/src</text>
<text text-anchor="middle" x="59.5" y="-85.5" font-family="Helvetica,sans-Serif" font-size="10.00">/CoolBoard.h</text>
</a>
</g>
</g>
<!-- Node3&#45;&gt;Node4 -->
<g id="edge2" class="edge"><title>Node3&#45;&gt;Node4</title>
<path fill="none" stroke="midnightblue" d="M103.91,-148.916C95.0921,-139.203 85.3298,-128.45 77.209,-119.506"/>
<polygon fill="midnightblue" stroke="midnightblue" points="101.418,-151.377 110.731,-156.428 106.6,-146.672 101.418,-151.377"/>
</g>
<!-- Node6 -->
<g id="node5" class="node"><title>Node6</title>
<g id="a_node5"><a xlink:href="_cool_board_sensors_8cpp.html" target="_top" xlink:title="CoolBoardSensors Source file. ">
<polygon fill="white" stroke="black" points="137.5,-78.5 137.5,-119.5 257.5,-119.5 257.5,-78.5 137.5,-78.5"/>
<text text-anchor="start" x="145.5" y="-107.5" font-family="Helvetica,sans-Serif" font-size="10.00">/home/ashiroji/Arduino</text>
<text text-anchor="start" x="145.5" y="-96.5" font-family="Helvetica,sans-Serif" font-size="10.00">/libraries/CoolBoard/src</text>
<text text-anchor="middle" x="197.5" y="-85.5" font-family="Helvetica,sans-Serif" font-size="10.00">/CoolBoardSensors.cpp</text>
</a>
</g>
</g>
<!-- Node3&#45;&gt;Node6 -->
<g id="edge4" class="edge"><title>Node3&#45;&gt;Node6</title>
<path fill="none" stroke="midnightblue" d="M153.09,-148.916C161.908,-139.203 171.67,-128.45 179.791,-119.506"/>
<polygon fill="midnightblue" stroke="midnightblue" points="150.4,-146.672 146.269,-156.428 155.582,-151.377 150.4,-146.672"/>
</g>
<!-- Node5 -->
<g id="node4" class="node"><title>Node5</title>
<g id="a_node4"><a xlink:href="_cool_board_8cpp.html" target="_top" xlink:title="CoolBoard Source file. ">
<polygon fill="white" stroke="black" points="0,-0.5 0,-41.5 119,-41.5 119,-0.5 0,-0.5"/>
<text text-anchor="start" x="8" y="-29.5" font-family="Helvetica,sans-Serif" font-size="10.00">/home/ashiroji/Arduino</text>
<text text-anchor="start" x="8" y="-18.5" font-family="Helvetica,sans-Serif" font-size="10.00">/libraries/CoolBoard/src</text>
<text text-anchor="middle" x="59.5" y="-7.5" font-family="Helvetica,sans-Serif" font-size="10.00">/CoolBoard.cpp</text>
</a>
</g>
</g>
<!-- Node4&#45;&gt;Node5 -->
<g id="edge3" class="edge"><title>Node4&#45;&gt;Node5</title>
<path fill="none" stroke="midnightblue" d="M59.5,-68.2965C59.5,-59.3009 59.5,-49.6532 59.5,-41.5056"/>
<polygon fill="midnightblue" stroke="midnightblue" points="56.0001,-68.4281 59.5,-78.4281 63.0001,-68.4281 56.0001,-68.4281"/>
</g>
</g>
</svg>
