<?xml version="1.0" encoding="UTF-8" standalone="no"?>
<!DOCTYPE svg PUBLIC "-//W3C//DTD SVG 1.1//EN"
 "http://www.w3.org/Graphics/SVG/1.1/DTD/svg11.dtd">
<!-- Generated by graphviz version 2.38.0 (20140413.2041)
 -->
<!-- Title: /home/ashiroji/Arduino/libraries/CoolBoard/src/CoolBoardActor.cpp Pages: 1 -->
<svg width="294pt" height="162pt"
 viewBox="0.00 0.00 294.00 162.00" xmlns="http://www.w3.org/2000/svg" xmlns:xlink="http://www.w3.org/1999/xlink">
<g id="graph0" class="graph" transform="scale(1 1) rotate(0) translate(4 158)">
<title>/home/ashiroji/Arduino/libraries/CoolBoard/src/CoolBoardActor.cpp</title>
<polygon fill="white" stroke="none" points="-4,4 -4,-158 290,-158 290,4 -4,4"/>
<!-- Node0 -->
<g id="node1" class="node"><title>Node0</title>
<polygon fill="#bfbfbf" stroke="black" points="40.5,-112.5 40.5,-153.5 159.5,-153.5 159.5,-112.5 40.5,-112.5"/>
<text text-anchor="start" x="48.5" y="-141.5" font-family="Helvetica,sans-Serif" font-size="10.00">/home/ashiroji/Arduino</text>
<text text-anchor="start" x="48.5" y="-130.5" font-family="Helvetica,sans-Serif" font-size="10.00">/libraries/CoolBoard/src</text>
<text text-anchor="middle" x="100" y="-119.5" font-family="Helvetica,sans-Serif" font-size="10.00">/CoolBoardActor.cpp</text>
</g>
<!-- Node1 -->
<g id="node2" class="node"><title>Node1</title>
<polygon fill="white" stroke="#bfbfbf" points="0,-56.5 0,-75.5 38,-75.5 38,-56.5 0,-56.5"/>
<text text-anchor="middle" x="19" y="-63.5" font-family="Helvetica,sans-Serif" font-size="10.00">FS.h</text>
</g>
<!-- Node0&#45;&gt;Node1 -->
<g id="edge1" class="edge"><title>Node0&#45;&gt;Node1</title>
<path fill="none" stroke="midnightblue" d="M75.6973,-112.498C63.5173,-102.724 48.9973,-91.0719 37.7005,-82.0066"/>
<polygon fill="midnightblue" stroke="midnightblue" points="39.7722,-79.1815 29.7823,-75.6525 35.3911,-84.641 39.7722,-79.1815"/>
</g>
<!-- Node2 -->
<g id="node3" class="node"><title>Node2</title>
<polygon fill="white" stroke="#bfbfbf" points="123,-0.5 123,-19.5 181,-19.5 181,-0.5 123,-0.5"/>
<text text-anchor="middle" x="152" y="-7.5" font-family="Helvetica,sans-Serif" font-size="10.00">Arduino.h</text>
</g>
<!-- Node0&#45;&gt;Node2 -->
<g id="edge2" class="edge"><title>Node0&#45;&gt;Node2</title>
<path fill="none" stroke="midnightblue" d="M89.6734,-112.207C82.8508,-96.2137 76.7219,-73.5554 86,-56 93.4237,-41.9533 107.421,-31.4667 120.621,-24.167"/>
<polygon fill="midnightblue" stroke="midnightblue" points="122.223,-27.2788 129.541,-19.6178 119.043,-21.0428 122.223,-27.2788"/>
</g>
<!-- Node3 -->
<g id="node4" class="node"><title>Node3</title>
<polygon fill="white" stroke="#bfbfbf" points="94.5,-56.5 94.5,-75.5 173.5,-75.5 173.5,-56.5 94.5,-56.5"/>
<text text-anchor="middle" x="134" y="-63.5" font-family="Helvetica,sans-Serif" font-size="10.00">ArduinoJson.h</text>
</g>
<!-- Node0&#45;&gt;Node3 -->
<g id="edge3" class="edge"><title>Node0&#45;&gt;Node3</title>
<path fill="none" stroke="midnightblue" d="M110.201,-112.498C114.812,-103.682 120.223,-93.3385 124.719,-84.7432"/>
<polygon fill="midnightblue" stroke="midnightblue" points="127.94,-86.1357 129.474,-75.6525 121.738,-82.8912 127.94,-86.1357"/>
</g>
<!-- Node4 -->
<g id="node5" class="node"><title>Node4</title>
<g id="a_node5"><a xlink:href="_cool_board_actor_8h.html" target="_top" xlink:title="CoolBoardActor Header file. ">
<polygon fill="white" stroke="black" points="192,-56.5 192,-75.5 286,-75.5 286,-56.5 192,-56.5"/>
<text text-anchor="middle" x="239" y="-63.5" font-family="Helvetica,sans-Serif" font-size="10.00">CoolBoardActor.h</text>
</a>
</g>
</g>
<!-- Node0&#45;&gt;Node4 -->
<g id="edge4" class="edge"><title>Node0&#45;&gt;Node4</title>
<path fill="none" stroke="midnightblue" d="M141.705,-112.498C164.245,-101.957 191.456,-89.2326 211.364,-79.9235"/>
<polygon fill="midnightblue" stroke="midnightblue" points="212.921,-83.059 220.497,-75.6525 209.956,-76.7181 212.921,-83.059"/>
</g>
<!-- Node4&#45;&gt;Node2 -->
<g id="edge5" class="edge"><title>Node4&#45;&gt;Node2</title>
<path fill="none" stroke="midnightblue" d="M225.022,-56.324C211.45,-47.9002 190.62,-34.9709 174.675,-25.0741"/>
<polygon fill="midnightblue" stroke="midnightblue" points="176.286,-21.9544 165.943,-19.6545 172.594,-27.9019 176.286,-21.9544"/>
</g>
</g>
</svg>
