<?xml version="1.0" encoding="UTF-8" standalone="no"?>
<!DOCTYPE svg PUBLIC "-//W3C//DTD SVG 1.1//EN"
 "http://www.w3.org/Graphics/SVG/1.1/DTD/svg11.dtd">
<!-- Generated by graphviz version 2.38.0 (20140413.2041)
 -->
<!-- Title: writeRegister Pages: 1 -->
<svg width="925pt" height="276pt"
 viewBox="0.00 0.00 925.00 275.50" xmlns="http://www.w3.org/2000/svg" xmlns:xlink="http://www.w3.org/1999/xlink">
<g id="graph0" class="graph" transform="scale(1 1) rotate(0) translate(4 271.5)">
<title>writeRegister</title>
<polygon fill="white" stroke="none" points="-4,4 -4,-271.5 921,-271.5 921,4 -4,4"/>
<!-- Node65 -->
<g id="node1" class="node"><title>Node65</title>
<polygon fill="#bfbfbf" stroke="black" points="0,-79 0,-98 74,-98 74,-79 0,-79"/>
<text text-anchor="middle" x="37" y="-86" font-family="Helvetica,sans-Serif" font-size="10.00">writeRegister</text>
</g>
<!-- Node66 -->
<g id="node2" class="node"><title>Node66</title>
<g id="a_node2"><a xlink:href="class_adafruit___a_d_s1015.html#a40f38b9e1f3ec397c0670dd632510235" target="_top" xlink:title="Gets a single&#45;ended ADC reading from the specified channel. ">
<polygon fill="white" stroke="black" points="125,-147.5 125,-177.5 269,-177.5 269,-147.5 125,-147.5"/>
<text text-anchor="start" x="133" y="-165.5" font-family="Helvetica,sans-Serif" font-size="10.00">Adafruit_ADS1015::readADC</text>
<text text-anchor="middle" x="197" y="-154.5" font-family="Helvetica,sans-Serif" font-size="10.00">_SingleEnded</text>
</a>
</g>
</g>
<!-- Node65&#45;&gt;Node66 -->
<g id="edge1" class="edge"><title>Node65&#45;&gt;Node66</title>
<path fill="none" stroke="midnightblue" d="M57.419,-104.209C71.3589,-114.843 90.9698,-128.536 110,-137.5 117.877,-141.211 126.423,-144.494 134.969,-147.36"/>
<polygon fill="midnightblue" stroke="midnightblue" points="59.5654,-101.444 49.5281,-98.0521 55.2594,-106.963 59.5654,-101.444"/>
</g>
<!-- Node80 -->
<g id="node16" class="node"><title>Node80</title>
<g id="a_node16"><a xlink:href="class_adafruit___a_d_s1015.html#a56582333958e66efaccd3d4a8a47e3ff" target="_top" xlink:title="Reads the conversion results, measuring the voltage difference between the P (AIN0) and N (AIN1) inpu...">
<polygon fill="white" stroke="black" points="125,-98.5 125,-128.5 269,-128.5 269,-98.5 125,-98.5"/>
<text text-anchor="start" x="133" y="-116.5" font-family="Helvetica,sans-Serif" font-size="10.00">Adafruit_ADS1015::readADC</text>
<text text-anchor="middle" x="197" y="-105.5" font-family="Helvetica,sans-Serif" font-size="10.00">_Differential_0_1</text>
</a>
</g>
</g>
<!-- Node65&#45;&gt;Node80 -->
<g id="edge21" class="edge"><title>Node65&#45;&gt;Node80</title>
<path fill="none" stroke="midnightblue" d="M84.5016,-95.8578C97.1265,-97.8555 111.093,-100.065 124.747,-102.226"/>
<polygon fill="midnightblue" stroke="midnightblue" points="84.6725,-92.3414 74.2484,-94.2355 83.5785,-99.2554 84.6725,-92.3414"/>
</g>
<!-- Node81 -->
<g id="node17" class="node"><title>Node81</title>
<g id="a_node17"><a xlink:href="class_adafruit___a_d_s1015.html#a38311881bcab46f7496c4bb6e4cad576" target="_top" xlink:title="Reads the conversion results, measuring the voltage difference between the P (AIN2) and N (AIN3) inpu...">
<polygon fill="white" stroke="black" points="125,-49.5 125,-79.5 269,-79.5 269,-49.5 125,-49.5"/>
<text text-anchor="start" x="133" y="-67.5" font-family="Helvetica,sans-Serif" font-size="10.00">Adafruit_ADS1015::readADC</text>
<text text-anchor="middle" x="197" y="-56.5" font-family="Helvetica,sans-Serif" font-size="10.00">_Differential_2_3</text>
</a>
</g>
</g>
<!-- Node65&#45;&gt;Node81 -->
<g id="edge22" class="edge"><title>Node65&#45;&gt;Node81</title>
<path fill="none" stroke="midnightblue" d="M84.5016,-81.4365C97.1265,-79.5188 111.093,-77.3973 124.747,-75.3233"/>
<polygon fill="midnightblue" stroke="midnightblue" points="83.6093,-78.0318 74.2484,-82.9939 84.6606,-84.9524 83.6093,-78.0318"/>
</g>
<!-- Node82 -->
<g id="node18" class="node"><title>Node82</title>
<g id="a_node18"><a xlink:href="class_adafruit___a_d_s1015.html#aecd30775d943ea9d9cff0e3485926596" target="_top" xlink:title="Sets up the comparator to operate in basic mode, causing the ALERT/RDY pin to assert (go from high to...">
<polygon fill="white" stroke="black" points="110,-0.5 110,-30.5 284,-30.5 284,-0.5 110,-0.5"/>
<text text-anchor="start" x="118" y="-18.5" font-family="Helvetica,sans-Serif" font-size="10.00">Adafruit_ADS1015::startComparator</text>
<text text-anchor="middle" x="197" y="-7.5" font-family="Helvetica,sans-Serif" font-size="10.00">_SingleEnded</text>
</a>
</g>
</g>
<!-- Node65&#45;&gt;Node82 -->
<g id="edge23" class="edge"><title>Node65&#45;&gt;Node82</title>
<path fill="none" stroke="midnightblue" d="M57.389,-72.7273C71.3152,-62.0636 90.9219,-48.3619 110,-39.5 117.17,-36.1696 124.896,-33.2136 132.672,-30.6151"/>
<polygon fill="midnightblue" stroke="midnightblue" points="55.2196,-69.9807 49.5076,-78.904 59.5375,-75.4904 55.2196,-69.9807"/>
</g>
<!-- Node67 -->
<g id="node3" class="node"><title>Node67</title>
<g id="a_node3"><a xlink:href="class_irene3000.html#a78a87eb7cf295b95c12b2ebd51c2bb77" target="_top" xlink:title="Irene3000::readButton">
<polygon fill="white" stroke="black" points="336.5,-248 336.5,-267 449.5,-267 449.5,-248 336.5,-248"/>
<text text-anchor="middle" x="393" y="-255" font-family="Helvetica,sans-Serif" font-size="10.00">Irene3000::readButton</text>
</a>
</g>
</g>
<!-- Node66&#45;&gt;Node67 -->
<g id="edge2" class="edge"><title>Node66&#45;&gt;Node67</title>
<path fill="none" stroke="midnightblue" d="M226.36,-183.599C250.263,-200.517 285.925,-223.788 320,-238.5 328.664,-242.241 338.242,-245.393 347.507,-247.988"/>
<polygon fill="midnightblue" stroke="midnightblue" points="228.277,-180.666 218.111,-177.681 224.196,-186.354 228.277,-180.666"/>
</g>
<!-- Node70 -->
<g id="node6" class="node"><title>Node70</title>
<g id="a_node6"><a xlink:href="class_irene3000.html#ae73bd2ed14a199a7e83f4d6458476a7c" target="_top" xlink:title="Irene3000::readADSChannel2">
<polygon fill="white" stroke="black" points="320,-134 320,-153 466,-153 466,-134 320,-134"/>
<text text-anchor="middle" x="393" y="-141" font-family="Helvetica,sans-Serif" font-size="10.00">Irene3000::readADSChannel2</text>
</a>
</g>
</g>
<!-- Node66&#45;&gt;Node70 -->
<g id="edge5" class="edge"><title>Node66&#45;&gt;Node70</title>
<path fill="none" stroke="midnightblue" d="M279.335,-154.534C292.801,-153.215 306.68,-151.856 319.897,-150.562"/>
<polygon fill="midnightblue" stroke="midnightblue" points="278.748,-151.075 269.137,-155.533 279.43,-158.042 278.748,-151.075"/>
</g>
<!-- Node75 -->
<g id="node11" class="node"><title>Node75</title>
<g id="a_node11"><a xlink:href="class_irene3000.html#a436fc0a06681cd0784aba56b9707f19a" target="_top" xlink:title="Irene3000::readPh">
<polygon fill="white" stroke="black" points="345,-96 345,-115 441,-115 441,-96 345,-96"/>
<text text-anchor="middle" x="393" y="-103" font-family="Helvetica,sans-Serif" font-size="10.00">Irene3000::readPh</text>
</a>
</g>
</g>
<!-- Node66&#45;&gt;Node75 -->
<g id="edge10" class="edge"><title>Node66&#45;&gt;Node75</title>
<path fill="none" stroke="midnightblue" d="M261.442,-144.554C269.065,-142.251 276.723,-139.869 284,-137.5 300.176,-132.234 303.76,-129.564 320,-124.5 330.737,-121.152 342.492,-117.885 353.333,-115.031"/>
<polygon fill="midnightblue" stroke="midnightblue" points="260.417,-141.207 251.836,-147.421 262.419,-147.915 260.417,-141.207"/>
</g>
<!-- Node76 -->
<g id="node12" class="node"><title>Node76</title>
<g id="a_node12"><a xlink:href="class_irene3000.html#a80bc6dfea106dc3bc54fa20204d4d5dc" target="_top" xlink:title="Irene3000::readTemp">
<polygon fill="white" stroke="black" points="338.5,-58 338.5,-77 447.5,-77 447.5,-58 338.5,-58"/>
<text text-anchor="middle" x="393" y="-65" font-family="Helvetica,sans-Serif" font-size="10.00">Irene3000::readTemp</text>
</a>
</g>
</g>
<!-- Node66&#45;&gt;Node76 -->
<g id="edge12" class="edge"><title>Node66&#45;&gt;Node76</title>
<path fill="none" stroke="midnightblue" d="M275.431,-142.886C278.407,-141.232 281.278,-139.441 284,-137.5 306.589,-121.39 297.213,-102.327 320,-86.5 325.628,-82.5913 332.011,-79.4867 338.596,-77.0207"/>
<polygon fill="midnightblue" stroke="midnightblue" points="273.639,-139.867 266.231,-147.442 276.746,-146.14 273.639,-139.867"/>
</g>
<!-- Node77 -->
<g id="node13" class="node"><title>Node77</title>
<g id="a_node13"><a xlink:href="class_irene3000.html#a1d3299202e4cb7afcff9c9e3e95d94c1" target="_top" xlink:title="Irene3000::calibratepH7">
<polygon fill="white" stroke="black" points="333,-210 333,-229 453,-229 453,-210 333,-210"/>
<text text-anchor="middle" x="393" y="-217" font-family="Helvetica,sans-Serif" font-size="10.00">Irene3000::calibratepH7</text>
</a>
</g>
</g>
<!-- Node66&#45;&gt;Node77 -->
<g id="edge14" class="edge"><title>Node66&#45;&gt;Node77</title>
<path fill="none" stroke="midnightblue" d="M254.066,-180.529C274.731,-187.025 298.374,-194.282 320,-200.5 331.182,-203.715 343.401,-207.018 354.545,-209.95"/>
<polygon fill="midnightblue" stroke="midnightblue" points="255.081,-177.18 244.492,-177.508 252.974,-183.855 255.081,-177.18"/>
</g>
<!-- Node79 -->
<g id="node15" class="node"><title>Node79</title>
<g id="a_node15"><a xlink:href="class_irene3000.html#aa140dd026922a04981edfd04d46cabbe" target="_top" xlink:title="Irene3000::calibratepH4">
<polygon fill="white" stroke="black" points="333,-172 333,-191 453,-191 453,-172 333,-172"/>
<text text-anchor="middle" x="393" y="-179" font-family="Helvetica,sans-Serif" font-size="10.00">Irene3000::calibratepH4</text>
</a>
</g>
</g>
<!-- Node66&#45;&gt;Node79 -->
<g id="edge18" class="edge"><title>Node66&#45;&gt;Node79</title>
<path fill="none" stroke="midnightblue" d="M279.333,-170.466C297.327,-172.228 316.06,-174.063 332.966,-175.718"/>
<polygon fill="midnightblue" stroke="midnightblue" points="279.43,-166.958 269.137,-169.467 278.748,-173.925 279.43,-166.958"/>
</g>
<!-- Node68 -->
<g id="node4" class="node"><title>Node68</title>
<g id="a_node4"><a xlink:href="class_irene3000.html#ad5891806c500ae1007afe52b9e304c2b" target="_top" xlink:title="Irene3000::begin">
<polygon fill="white" stroke="black" points="506.5,-210 506.5,-229 595.5,-229 595.5,-210 506.5,-210"/>
<text text-anchor="middle" x="551" y="-217" font-family="Helvetica,sans-Serif" font-size="10.00">Irene3000::begin</text>
</a>
</g>
</g>
<!-- Node67&#45;&gt;Node68 -->
<g id="edge3" class="edge"><title>Node67&#45;&gt;Node68</title>
<path fill="none" stroke="midnightblue" d="M443.132,-245.532C464.993,-240.207 490.376,-234.024 510.918,-229.02"/>
<polygon fill="midnightblue" stroke="midnightblue" points="442.253,-242.144 433.365,-247.911 443.91,-248.945 442.253,-242.144"/>
</g>
<!-- Node69 -->
<g id="node5" class="node"><title>Node69</title>
<g id="a_node5"><a xlink:href="class_cool_board.html#acba7c5aef7268b2c0044bdb54d3b9d76" target="_top" xlink:title="CoolBoard::begin">
<polygon fill="white" stroke="black" points="651.5,-210 651.5,-229 743.5,-229 743.5,-210 651.5,-210"/>
<text text-anchor="middle" x="697.5" y="-217" font-family="Helvetica,sans-Serif" font-size="10.00">CoolBoard::begin</text>
</a>
</g>
</g>
<!-- Node68&#45;&gt;Node69 -->
<g id="edge4" class="edge"><title>Node68&#45;&gt;Node69</title>
<path fill="none" stroke="midnightblue" d="M605.902,-219.5C620.88,-219.5 636.985,-219.5 651.401,-219.5"/>
<polygon fill="midnightblue" stroke="midnightblue" points="605.747,-216 595.747,-219.5 605.747,-223 605.747,-216"/>
</g>
<!-- Node71 -->
<g id="node7" class="node"><title>Node71</title>
<g id="a_node7"><a xlink:href="class_irene3000.html#a852a170feea994ea1df01c6b245b5d9a" target="_top" xlink:title="Irene3000::read">
<polygon fill="white" stroke="black" points="509,-101 509,-120 593,-120 593,-101 509,-101"/>
<text text-anchor="middle" x="551" y="-108" font-family="Helvetica,sans-Serif" font-size="10.00">Irene3000::read</text>
</a>
</g>
</g>
<!-- Node70&#45;&gt;Node71 -->
<g id="edge6" class="edge"><title>Node70&#45;&gt;Node71</title>
<path fill="none" stroke="midnightblue" d="M448.922,-131.882C468.679,-127.702 490.607,-123.064 508.976,-119.178"/>
<polygon fill="midnightblue" stroke="midnightblue" points="448.181,-128.461 439.122,-133.955 449.63,-135.31 448.181,-128.461"/>
</g>
<!-- Node72 -->
<g id="node8" class="node"><title>Node72</title>
<g id="a_node8"><a xlink:href="class_cool_board.html#ad03abdce2e65f520bbf2cff0f2d083cf" target="_top" xlink:title="CoolBoard::readSensors">
<polygon fill="white" stroke="black" points="636,-110 636,-129 759,-129 759,-110 636,-110"/>
<text text-anchor="middle" x="697.5" y="-117" font-family="Helvetica,sans-Serif" font-size="10.00">CoolBoard::readSensors</text>
</a>
</g>
</g>
<!-- Node71&#45;&gt;Node72 -->
<g id="edge7" class="edge"><title>Node71&#45;&gt;Node72</title>
<path fill="none" stroke="midnightblue" d="M603.327,-113.697C613.887,-114.355 625.1,-115.053 635.952,-115.729"/>
<polygon fill="midnightblue" stroke="midnightblue" points="603.22,-110.183 593.021,-113.055 602.784,-117.17 603.22,-110.183"/>
</g>
<!-- Node73 -->
<g id="node9" class="node"><title>Node73</title>
<g id="a_node9"><a xlink:href="class_cool_board.html#aa0bbc4bc605e35618d18e68795c61363" target="_top" xlink:title="CoolBoard::onLineMode">
<polygon fill="white" stroke="black" points="795.5,-157 795.5,-176 916.5,-176 916.5,-157 795.5,-157"/>
<text text-anchor="middle" x="856" y="-164" font-family="Helvetica,sans-Serif" font-size="10.00">CoolBoard::onLineMode</text>
</a>
</g>
</g>
<!-- Node72&#45;&gt;Node73 -->
<g id="edge8" class="edge"><title>Node72&#45;&gt;Node73</title>
<path fill="none" stroke="midnightblue" d="M739.783,-131.898C765.863,-139.73 799.056,-149.699 823.109,-156.922"/>
<polygon fill="midnightblue" stroke="midnightblue" points="740.754,-128.535 730.17,-129.011 738.741,-135.24 740.754,-128.535"/>
</g>
<!-- Node74 -->
<g id="node10" class="node"><title>Node74</title>
<g id="a_node10"><a xlink:href="class_cool_board.html#ae6b5e1274d760462290192acea4adca8" target="_top" xlink:title="CoolBoard::offLineMode">
<polygon fill="white" stroke="black" points="795,-110 795,-129 917,-129 917,-110 795,-110"/>
<text text-anchor="middle" x="856" y="-117" font-family="Helvetica,sans-Serif" font-size="10.00">CoolBoard::offLineMode</text>
</a>
</g>
</g>
<!-- Node72&#45;&gt;Node74 -->
<g id="edge9" class="edge"><title>Node72&#45;&gt;Node74</title>
<path fill="none" stroke="midnightblue" d="M769.059,-119.5C777.692,-119.5 786.452,-119.5 794.912,-119.5"/>
<polygon fill="midnightblue" stroke="midnightblue" points="769.007,-116 759.007,-119.5 769.007,-123 769.007,-116"/>
</g>
<!-- Node75&#45;&gt;Node71 -->
<g id="edge11" class="edge"><title>Node75&#45;&gt;Node71</title>
<path fill="none" stroke="midnightblue" d="M451.295,-107.336C470.339,-107.947 491.157,-108.614 508.745,-109.178"/>
<polygon fill="midnightblue" stroke="midnightblue" points="451.336,-103.836 441.228,-107.014 451.111,-110.832 451.336,-103.836"/>
</g>
<!-- Node76&#45;&gt;Node71 -->
<g id="edge13" class="edge"><title>Node76&#45;&gt;Node71</title>
<path fill="none" stroke="midnightblue" d="M440.466,-79.6139C448.968,-81.8725 457.757,-84.235 466,-86.5 482.965,-91.1614 501.802,-96.5262 517.332,-101"/>
<polygon fill="midnightblue" stroke="midnightblue" points="441.229,-76.1954 430.667,-77.0223 439.44,-82.9628 441.229,-76.1954"/>
</g>
<!-- Node77&#45;&gt;Node68 -->
<g id="edge17" class="edge"><title>Node77&#45;&gt;Node68</title>
<path fill="none" stroke="midnightblue" d="M463.838,-219.5C478.274,-219.5 493.087,-219.5 506.27,-219.5"/>
<polygon fill="midnightblue" stroke="midnightblue" points="463.422,-216 453.422,-219.5 463.422,-223 463.422,-216"/>
</g>
<!-- Node78 -->
<g id="node14" class="node"><title>Node78</title>
<g id="a_node14"><a xlink:href="class_cool_board.html#a8612756d3f73198cdde857a66f0fe690" target="_top" xlink:title="CoolBoard::update">
<polygon fill="white" stroke="black" points="502,-172 502,-191 600,-191 600,-172 502,-172"/>
<text text-anchor="middle" x="551" y="-179" font-family="Helvetica,sans-Serif" font-size="10.00">CoolBoard::update</text>
</a>
</g>
</g>
<!-- Node77&#45;&gt;Node78 -->
<g id="edge15" class="edge"><title>Node77&#45;&gt;Node78</title>
<path fill="none" stroke="midnightblue" d="M443.132,-207.532C464.993,-202.207 490.376,-196.024 510.918,-191.02"/>
<polygon fill="midnightblue" stroke="midnightblue" points="442.253,-204.144 433.365,-209.911 443.91,-210.945 442.253,-204.144"/>
</g>
<!-- Node78&#45;&gt;Node73 -->
<g id="edge16" class="edge"><title>Node78&#45;&gt;Node73</title>
<path fill="none" stroke="midnightblue" d="M610.293,-178.614C663.443,-175.983 741.625,-172.113 795.232,-169.459"/>
<polygon fill="midnightblue" stroke="midnightblue" points="609.826,-175.133 600.011,-179.123 610.172,-182.124 609.826,-175.133"/>
</g>
<!-- Node79&#45;&gt;Node68 -->
<g id="edge20" class="edge"><title>Node79&#45;&gt;Node68</title>
<path fill="none" stroke="midnightblue" d="M443.132,-193.468C464.993,-198.793 490.376,-204.976 510.918,-209.98"/>
<polygon fill="midnightblue" stroke="midnightblue" points="443.91,-190.055 433.365,-191.089 442.253,-196.856 443.91,-190.055"/>
</g>
<!-- Node79&#45;&gt;Node78 -->
<g id="edge19" class="edge"><title>Node79&#45;&gt;Node78</title>
<path fill="none" stroke="midnightblue" d="M463.677,-181.5C476.581,-181.5 489.793,-181.5 501.877,-181.5"/>
<polygon fill="midnightblue" stroke="midnightblue" points="463.422,-178 453.422,-181.5 463.422,-185 463.422,-178"/>
</g>
</g>
</svg>
