<?xml version="1.0" encoding="UTF-8" standalone="no"?>
<!DOCTYPE svg PUBLIC "-//W3C//DTD SVG 1.1//EN"
 "http://www.w3.org/Graphics/SVG/1.1/DTD/svg11.dtd">
<!-- Generated by graphviz version 2.38.0 (20140413.2041)
 -->
<!-- Title: /home/ashiroji/Arduino/libraries/CoolBoard/src/CoolBoardSensors.cpp Pages: 1 -->
<svg width="459pt" height="218pt"
 viewBox="0.00 0.00 459.00 218.00" xmlns="http://www.w3.org/2000/svg" xmlns:xlink="http://www.w3.org/1999/xlink">
<g id="graph0" class="graph" transform="scale(1 1) rotate(0) translate(4 214)">
<title>/home/ashiroji/Arduino/libraries/CoolBoard/src/CoolBoardSensors.cpp</title>
<polygon fill="white" stroke="none" points="-4,4 -4,-214 455,-214 455,4 -4,4"/>
<!-- Node0 -->
<g id="node1" class="node"><title>Node0</title>
<polygon fill="#bfbfbf" stroke="black" points="168,-168.5 168,-209.5 288,-209.5 288,-168.5 168,-168.5"/>
<text text-anchor="start" x="176" y="-197.5" font-family="Helvetica,sans-Serif" font-size="10.00">/home/ashiroji/Arduino</text>
<text text-anchor="start" x="176" y="-186.5" font-family="Helvetica,sans-Serif" font-size="10.00">/libraries/CoolBoard/src</text>
<text text-anchor="middle" x="228" y="-175.5" font-family="Helvetica,sans-Serif" font-size="10.00">/CoolBoardSensors.cpp</text>
</g>
<!-- Node1 -->
<g id="node2" class="node"><title>Node1</title>
<polygon fill="white" stroke="#bfbfbf" points="0,-112.5 0,-131.5 38,-131.5 38,-112.5 0,-112.5"/>
<text text-anchor="middle" x="19" y="-119.5" font-family="Helvetica,sans-Serif" font-size="10.00">FS.h</text>
</g>
<!-- Node0&#45;&gt;Node1 -->
<g id="edge1" class="edge"><title>Node0&#45;&gt;Node1</title>
<path fill="none" stroke="midnightblue" d="M167.829,-169.287C128.392,-157.021 78.6151,-141.541 47.7968,-131.956"/>
<polygon fill="midnightblue" stroke="midnightblue" points="48.7028,-128.572 38.1145,-128.945 46.6239,-135.257 48.7028,-128.572"/>
</g>
<!-- Node2 -->
<g id="node3" class="node"><title>Node2</title>
<polygon fill="white" stroke="#bfbfbf" points="393,-0.5 393,-19.5 451,-19.5 451,-0.5 393,-0.5"/>
<text text-anchor="middle" x="422" y="-7.5" font-family="Helvetica,sans-Serif" font-size="10.00">Arduino.h</text>
</g>
<!-- Node0&#45;&gt;Node2 -->
<g id="edge2" class="edge"><title>Node0&#45;&gt;Node2</title>
<path fill="none" stroke="midnightblue" d="M288.136,-176.741C320.031,-168.462 358.419,-154.599 387,-132 410.209,-113.648 414.662,-104.389 423,-76 427.428,-60.9245 426.744,-43.0224 425.199,-29.8266"/>
<polygon fill="midnightblue" stroke="midnightblue" points="428.62,-29.028 423.726,-19.6312 421.692,-30.0289 428.62,-29.028"/>
</g>
<!-- Node3 -->
<g id="node4" class="node"><title>Node3</title>
<polygon fill="white" stroke="#bfbfbf" points="96.5,-0.5 96.5,-19.5 145.5,-19.5 145.5,-0.5 96.5,-0.5"/>
<text text-anchor="middle" x="121" y="-7.5" font-family="Helvetica,sans-Serif" font-size="10.00">stdint.h</text>
</g>
<!-- Node0&#45;&gt;Node3 -->
<g id="edge3" class="edge"><title>Node0&#45;&gt;Node3</title>
<path fill="none" stroke="midnightblue" d="M185.746,-168.353C151.55,-149.877 105.779,-118.669 85,-76 76.596,-58.7429 90.1236,-39.5873 102.927,-26.5703"/>
<polygon fill="midnightblue" stroke="midnightblue" points="105.354,-29.0924 110.211,-19.6762 100.542,-24.0086 105.354,-29.0924"/>
</g>
<!-- Node4 -->
<g id="node5" class="node"><title>Node4</title>
<polygon fill="white" stroke="#bfbfbf" points="299.5,-112.5 299.5,-131.5 378.5,-131.5 378.5,-112.5 299.5,-112.5"/>
<text text-anchor="middle" x="339" y="-119.5" font-family="Helvetica,sans-Serif" font-size="10.00">ArduinoJson.h</text>
</g>
<!-- Node0&#45;&gt;Node4 -->
<g id="edge4" class="edge"><title>Node0&#45;&gt;Node4</title>
<path fill="none" stroke="midnightblue" d="M261.304,-168.498C278.649,-158.34 299.458,-146.155 315.174,-136.952"/>
<polygon fill="midnightblue" stroke="midnightblue" points="317.364,-139.726 324.224,-131.652 313.826,-133.685 317.364,-139.726"/>
</g>
<!-- Node5 -->
<g id="node6" class="node"><title>Node5</title>
<g id="a_node6"><a xlink:href="_cool_board_sensors_8h.html" target="_top" xlink:title="CoolBoardSensors Header file. ">
<polygon fill="white" stroke="black" points="174.5,-112.5 174.5,-131.5 281.5,-131.5 281.5,-112.5 174.5,-112.5"/>
<text text-anchor="middle" x="228" y="-119.5" font-family="Helvetica,sans-Serif" font-size="10.00">CoolBoardSensors.h</text>
</a>
</g>
</g>
<!-- Node0&#45;&gt;Node5 -->
<g id="edge5" class="edge"><title>Node0&#45;&gt;Node5</title>
<path fill="none" stroke="midnightblue" d="M228,-168.498C228,-160.065 228,-150.235 228,-141.874"/>
<polygon fill="midnightblue" stroke="midnightblue" points="231.5,-141.652 228,-131.652 224.5,-141.653 231.5,-141.652"/>
</g>
<!-- Node5&#45;&gt;Node2 -->
<g id="edge6" class="edge"><title>Node5&#45;&gt;Node2</title>
<path fill="none" stroke="midnightblue" d="M281.817,-113.113C326.615,-105.504 385.756,-92.6897 403,-76 415.399,-63.9998 419.826,-44.3952 421.347,-29.8495"/>
<polygon fill="midnightblue" stroke="midnightblue" points="424.863,-29.7225 422.04,-19.5108 417.879,-29.2542 424.863,-29.7225"/>
</g>
<!-- Node6 -->
<g id="node7" class="node"><title>Node6</title>
<g id="a_node7"><a xlink:href="_cool_s_i114_x_8h.html" target="_top" xlink:title="internals/CoolSI114X.h">
<polygon fill="white" stroke="black" points="276.5,-56.5 276.5,-75.5 393.5,-75.5 393.5,-56.5 276.5,-56.5"/>
<text text-anchor="middle" x="335" y="-63.5" font-family="Helvetica,sans-Serif" font-size="10.00">internals/CoolSI114X.h</text>
</a>
</g>
</g>
<!-- Node5&#45;&gt;Node6 -->
<g id="edge7" class="edge"><title>Node5&#45;&gt;Node6</title>
<path fill="none" stroke="midnightblue" d="M245.191,-112.324C262.351,-103.664 288.946,-90.2424 308.747,-80.249"/>
<polygon fill="midnightblue" stroke="midnightblue" points="310.501,-83.2847 317.851,-75.6545 307.347,-77.0354 310.501,-83.2847"/>
</g>
<!-- Node7 -->
<g id="node8" class="node"><title>Node7</title>
<g id="a_node8"><a xlink:href="_cool_spark_fun_b_m_e280_8h.html" target="_top" xlink:title="internals/CoolSparkFunBME280.h">
<polygon fill="white" stroke="black" points="94,-56.5 94,-75.5 258,-75.5 258,-56.5 94,-56.5"/>
<text text-anchor="middle" x="176" y="-63.5" font-family="Helvetica,sans-Serif" font-size="10.00">internals/CoolSparkFunBME280.h</text>
</a>
</g>
</g>
<!-- Node5&#45;&gt;Node7 -->
<g id="edge9" class="edge"><title>Node5&#45;&gt;Node7</title>
<path fill="none" stroke="midnightblue" d="M219.413,-112.083C211.841,-104.22 200.622,-92.5688 191.486,-83.0813"/>
<polygon fill="midnightblue" stroke="midnightblue" points="193.885,-80.5266 184.427,-75.7511 188.842,-85.3821 193.885,-80.5266"/>
</g>
<!-- Node6&#45;&gt;Node2 -->
<g id="edge8" class="edge"><title>Node6&#45;&gt;Node2</title>
<path fill="none" stroke="midnightblue" d="M348.978,-56.324C362.55,-47.9002 383.38,-34.9709 399.325,-25.0741"/>
<polygon fill="midnightblue" stroke="midnightblue" points="401.406,-27.9019 408.057,-19.6545 397.714,-21.9544 401.406,-27.9019"/>
</g>
<!-- Node7&#45;&gt;Node3 -->
<g id="edge10" class="edge"><title>Node7&#45;&gt;Node3</title>
<path fill="none" stroke="midnightblue" d="M166.918,-56.083C158.829,-48.1409 146.805,-36.3354 137.09,-26.7973"/>
<polygon fill="midnightblue" stroke="midnightblue" points="139.501,-24.2595 129.913,-19.7511 134.597,-29.2545 139.501,-24.2595"/>
</g>
</g>
</svg>
