<?xml version="1.0" encoding="UTF-8" standalone="no"?>
<!DOCTYPE svg PUBLIC "-//W3C//DTD SVG 1.1//EN"
 "http://www.w3.org/Graphics/SVG/1.1/DTD/svg11.dtd">
<!-- Generated by graphviz version 2.38.0 (20140413.2041)
 -->
<!-- Title: /home/ashiroji/Arduino/libraries/CoolBoard/src/internals/CoolAdafruit_TCS34725.h Pages: 1 -->
<svg width="357pt" height="384pt"
 viewBox="0.00 0.00 357.00 384.00" xmlns="http://www.w3.org/2000/svg" xmlns:xlink="http://www.w3.org/1999/xlink">
<g id="graph0" class="graph" transform="scale(1 1) rotate(0) translate(4 380)">
<title>/home/ashiroji/Arduino/libraries/CoolBoard/src/internals/CoolAdafruit_TCS34725.h</title>
<polygon fill="white" stroke="none" points="-4,4 -4,-380 353,-380 353,4 -4,4"/>
<!-- Node2 -->
<g id="node1" class="node"><title>Node2</title>
<polygon fill="#bfbfbf" stroke="black" points="161,-323.5 161,-375.5 280,-375.5 280,-323.5 161,-323.5"/>
<text text-anchor="start" x="169" y="-363.5" font-family="Helvetica,sans-Serif" font-size="10.00">/home/ashiroji/Arduino</text>
<text text-anchor="start" x="169" y="-352.5" font-family="Helvetica,sans-Serif" font-size="10.00">/libraries/CoolBoard/src</text>
<text text-anchor="start" x="169" y="-341.5" font-family="Helvetica,sans-Serif" font-size="10.00">/internals/CoolAdafruit</text>
<text text-anchor="middle" x="220.5" y="-330.5" font-family="Helvetica,sans-Serif" font-size="10.00">_TCS34725.h</text>
</g>
<!-- Node3 -->
<g id="node2" class="node"><title>Node3</title>
<g id="a_node2"><a xlink:href="_external_sensor_8h.html" target="_top" xlink:title="ExternalSensor Header file. ">
<polygon fill="white" stroke="black" points="93,-240 93,-281 212,-281 212,-240 93,-240"/>
<text text-anchor="start" x="101" y="-269" font-family="Helvetica,sans-Serif" font-size="10.00">/home/ashiroji/Arduino</text>
<text text-anchor="start" x="101" y="-258" font-family="Helvetica,sans-Serif" font-size="10.00">/libraries/CoolBoard/src</text>
<text text-anchor="middle" x="152.5" y="-247" font-family="Helvetica,sans-Serif" font-size="10.00">/ExternalSensor.h</text>
</a>
</g>
</g>
<!-- Node2&#45;&gt;Node3 -->
<g id="edge1" class="edge"><title>Node2&#45;&gt;Node3</title>
<path fill="none" stroke="midnightblue" d="M194.455,-315.178C185.453,-303.66 175.663,-291.135 167.806,-281.082"/>
<polygon fill="midnightblue" stroke="midnightblue" points="191.916,-317.612 200.832,-323.336 197.431,-313.302 191.916,-317.612"/>
</g>
<!-- Node8 -->
<g id="node7" class="node"><title>Node8</title>
<g id="a_node7"><a xlink:href="_cool_adafruit___t_c_s34725_8cpp.html" target="_top" xlink:title="/home/ashiroji/Arduino\l/libraries/CoolBoard/src\l/internals/CoolAdafruit\l_TCS34725.cpp">
<polygon fill="white" stroke="black" points="230,-234.5 230,-286.5 349,-286.5 349,-234.5 230,-234.5"/>
<text text-anchor="start" x="238" y="-274.5" font-family="Helvetica,sans-Serif" font-size="10.00">/home/ashiroji/Arduino</text>
<text text-anchor="start" x="238" y="-263.5" font-family="Helvetica,sans-Serif" font-size="10.00">/libraries/CoolBoard/src</text>
<text text-anchor="start" x="238" y="-252.5" font-family="Helvetica,sans-Serif" font-size="10.00">/internals/CoolAdafruit</text>
<text text-anchor="middle" x="289.5" y="-241.5" font-family="Helvetica,sans-Serif" font-size="10.00">_TCS34725.cpp</text>
</a>
</g>
</g>
<!-- Node2&#45;&gt;Node8 -->
<g id="edge7" class="edge"><title>Node2&#45;&gt;Node8</title>
<path fill="none" stroke="midnightblue" d="M246.898,-315.215C254.432,-305.717 262.511,-295.529 269.587,-286.607"/>
<polygon fill="midnightblue" stroke="midnightblue" points="243.929,-313.326 240.458,-323.336 249.414,-317.676 243.929,-313.326"/>
</g>
<!-- Node4 -->
<g id="node3" class="node"><title>Node4</title>
<g id="a_node3"><a xlink:href="_external_sensors_8h.html" target="_top" xlink:title="ExternalSensors header file. ">
<polygon fill="white" stroke="black" points="49,-156.5 49,-197.5 168,-197.5 168,-156.5 49,-156.5"/>
<text text-anchor="start" x="57" y="-185.5" font-family="Helvetica,sans-Serif" font-size="10.00">/home/ashiroji/Arduino</text>
<text text-anchor="start" x="57" y="-174.5" font-family="Helvetica,sans-Serif" font-size="10.00">/libraries/CoolBoard/src</text>
<text text-anchor="middle" x="108.5" y="-163.5" font-family="Helvetica,sans-Serif" font-size="10.00">/ExternalSensors.h</text>
</a>
</g>
</g>
<!-- Node3&#45;&gt;Node4 -->
<g id="edge2" class="edge"><title>Node3&#45;&gt;Node4</title>
<path fill="none" stroke="midnightblue" d="M137.056,-230.894C131.102,-219.865 124.442,-207.53 119.053,-197.547"/>
<polygon fill="midnightblue" stroke="midnightblue" points="134.018,-232.634 141.849,-239.771 140.178,-229.309 134.018,-232.634"/>
</g>
<!-- Node7 -->
<g id="node6" class="node"><title>Node7</title>
<g id="a_node6"><a xlink:href="_external_sensors_8cpp.html" target="_top" xlink:title="ExternalSensors Source file. ">
<polygon fill="white" stroke="black" points="137,-78.5 137,-119.5 256,-119.5 256,-78.5 137,-78.5"/>
<text text-anchor="start" x="145" y="-107.5" font-family="Helvetica,sans-Serif" font-size="10.00">/home/ashiroji/Arduino</text>
<text text-anchor="start" x="145" y="-96.5" font-family="Helvetica,sans-Serif" font-size="10.00">/libraries/CoolBoard/src</text>
<text text-anchor="middle" x="196.5" y="-85.5" font-family="Helvetica,sans-Serif" font-size="10.00">/ExternalSensors.cpp</text>
</a>
</g>
</g>
<!-- Node3&#45;&gt;Node7 -->
<g id="edge6" class="edge"><title>Node3&#45;&gt;Node7</title>
<path fill="none" stroke="midnightblue" d="M165.074,-230.294C169.106,-220.194 173.34,-208.719 176.5,-198 184.357,-171.351 190.205,-139.732 193.486,-119.765"/>
<polygon fill="midnightblue" stroke="midnightblue" points="161.708,-229.276 161.157,-239.857 168.186,-231.93 161.708,-229.276"/>
</g>
<!-- Node5 -->
<g id="node4" class="node"><title>Node5</title>
<g id="a_node4"><a xlink:href="_cool_board_8h.html" target="_top" xlink:title="CoolBoard Header file. ">
<polygon fill="white" stroke="black" points="0,-78.5 0,-119.5 119,-119.5 119,-78.5 0,-78.5"/>
<text text-anchor="start" x="8" y="-107.5" font-family="Helvetica,sans-Serif" font-size="10.00">/home/ashiroji/Arduino</text>
<text text-anchor="start" x="8" y="-96.5" font-family="Helvetica,sans-Serif" font-size="10.00">/libraries/CoolBoard/src</text>
<text text-anchor="middle" x="59.5" y="-85.5" font-family="Helvetica,sans-Serif" font-size="10.00">/CoolBoard.h</text>
</a>
</g>
</g>
<!-- Node4&#45;&gt;Node5 -->
<g id="edge3" class="edge"><title>Node4&#45;&gt;Node5</title>
<path fill="none" stroke="midnightblue" d="M90.2908,-147.757C84.2282,-138.354 77.6145,-128.096 72.076,-119.506"/>
<polygon fill="midnightblue" stroke="midnightblue" points="87.5209,-149.92 95.8813,-156.428 93.4041,-146.127 87.5209,-149.92"/>
</g>
<!-- Node4&#45;&gt;Node7 -->
<g id="edge5" class="edge"><title>Node4&#45;&gt;Node7</title>
<path fill="none" stroke="midnightblue" d="M138.862,-149.779C150.366,-139.843 163.25,-128.716 173.915,-119.506"/>
<polygon fill="midnightblue" stroke="midnightblue" points="136.443,-147.243 131.162,-156.428 141.018,-152.541 136.443,-147.243"/>
</g>
<!-- Node6 -->
<g id="node5" class="node"><title>Node6</title>
<g id="a_node5"><a xlink:href="_cool_board_8cpp.html" target="_top" xlink:title="CoolBoard Source file. ">
<polygon fill="white" stroke="black" points="0,-0.5 0,-41.5 119,-41.5 119,-0.5 0,-0.5"/>
<text text-anchor="start" x="8" y="-29.5" font-family="Helvetica,sans-Serif" font-size="10.00">/home/ashiroji/Arduino</text>
<text text-anchor="start" x="8" y="-18.5" font-family="Helvetica,sans-Serif" font-size="10.00">/libraries/CoolBoard/src</text>
<text text-anchor="middle" x="59.5" y="-7.5" font-family="Helvetica,sans-Serif" font-size="10.00">/CoolBoard.cpp</text>
</a>
</g>
</g>
<!-- Node5&#45;&gt;Node6 -->
<g id="edge4" class="edge"><title>Node5&#45;&gt;Node6</title>
<path fill="none" stroke="midnightblue" d="M59.5,-68.2965C59.5,-59.3009 59.5,-49.6532 59.5,-41.5056"/>
<polygon fill="midnightblue" stroke="midnightblue" points="56.0001,-68.4281 59.5,-78.4281 63.0001,-68.4281 56.0001,-68.4281"/>
</g>
</g>
</svg>
