<?xml version="1.0" encoding="UTF-8" standalone="no"?>
<!DOCTYPE svg PUBLIC "-//W3C//DTD SVG 1.1//EN"
 "http://www.w3.org/Graphics/SVG/1.1/DTD/svg11.dtd">
<!-- Generated by graphviz version 2.38.0 (20140413.2041)
 -->
<!-- Title: CoolBoardSensors Pages: 1 -->
<!--zoomable 650 -->
<svg id="main" version="1.1" xmlns="http://www.w3.org/2000/svg" xmlns:xlink="http://www.w3.org/1999/xlink" xml:space="preserve" onload="init(evt)">
<style type="text/css"><![CDATA[
.edge:hover path { stroke: red; }
.edge:hover polygon { stroke: red; fill: red; }
]]></style>
<script type="text/javascript"><![CDATA[
var edges = document.getElementsByTagName('g');
if (edges && edges.length) {
  for (var i=0;i<edges.length;i++) {
    if (edges[i].id.substr(0,4)=='edge') {
      edges[i].setAttribute('class','edge');
    }
  }
}
]]></script>
        <defs>
                <circle id="rim" cx="0" cy="0" r="7"/>
                <circle id="rim2" cx="0" cy="0" r="3.5"/>
                <g id="zoomPlus">
                        <use xlink:href="#rim" fill="#404040">
                                <set attributeName="fill" to="#808080" begin="zoomplus.mouseover" end="zoomplus.mouseout"/>
                        </use>
                        <path d="M-4,0h8M0,-4v8" fill="none" stroke="white" stroke-width="1.5" pointer-events="none"/>
                </g>
                <g id="zoomMin">
                        <use xlink:href="#rim" fill="#404040">
                                <set attributeName="fill" to="#808080" begin="zoomminus.mouseover" end="zoomminus.mouseout"/>
                        </use>
                        <path d="M-4,0h8" fill="none" stroke="white" stroke-width="1.5" pointer-events="none"/>
                </g>
                <g id="dirArrow">
                        <path fill="none" stroke="white" stroke-width="1.5" d="M0,-3.0v7 M-2.5,-0.5L0,-3.0L2.5,-0.5"/>
                </g>
               <g id="resetDef">
                       <use xlink:href="#rim2" fill="#404040">
                               <set attributeName="fill" to="#808080" begin="reset.mouseover" end="reset.mouseout"/>
                       </use>
               </g>
        </defs>

<script type="text/javascript">
var viewWidth = 608;
var viewHeight = 650;
var sectionId = 'dynsection-0';
</script>
<script xlink:href="svgpan.js"/>
<svg id="graph" class="graph">
<g id="viewport">
<title>CoolBoardSensors</title>
<polygon fill="white" stroke="none" points="-4,4 -4,-646 603.5,-646 603.5,4 -4,4"/>
<!-- Node1 -->
<g id="node1" class="node"><title>Node1</title>
<polygon fill="#bfbfbf" stroke="black" points="255,-0.5 255,-189.5 384,-189.5 384,-0.5 255,-0.5"/>
<text text-anchor="middle" x="319.5" y="-177.5" font-family="Helvetica,sans-Serif" font-size="10.00">CoolBoardSensors</text>
<polyline fill="none" stroke="black" points="255,-170.5 384,-170.5 "/>
<text text-anchor="start" x="263" y="-158.5" font-family="Helvetica,sans-Serif" font-size="10.00">&#45; EnMoisture</text>
<text text-anchor="start" x="263" y="-147.5" font-family="Helvetica,sans-Serif" font-size="10.00">&#45; AnMplex</text>
<text text-anchor="start" x="263" y="-136.5" font-family="Helvetica,sans-Serif" font-size="10.00">&#45; vbatActive</text>
<text text-anchor="start" x="263" y="-125.5" font-family="Helvetica,sans-Serif" font-size="10.00">&#45; soilMoistureActive</text>
<polyline fill="none" stroke="black" points="255,-118.5 384,-118.5 "/>
<text text-anchor="start" x="263" y="-106.5" font-family="Helvetica,sans-Serif" font-size="10.00">+ CoolBoardSensors()</text>
<text text-anchor="start" x="263" y="-95.5" font-family="Helvetica,sans-Serif" font-size="10.00">+ begin()</text>
<text text-anchor="start" x="263" y="-84.5" font-family="Helvetica,sans-Serif" font-size="10.00">+ read()</text>
<text text-anchor="start" x="263" y="-73.5" font-family="Helvetica,sans-Serif" font-size="10.00">+ allActive()</text>
<text text-anchor="start" x="263" y="-62.5" font-family="Helvetica,sans-Serif" font-size="10.00">+ end()</text>
<text text-anchor="start" x="263" y="-51.5" font-family="Helvetica,sans-Serif" font-size="10.00">+ config()</text>
<text text-anchor="start" x="263" y="-40.5" font-family="Helvetica,sans-Serif" font-size="10.00">+ printConf()</text>
<text text-anchor="start" x="263" y="-29.5" font-family="Helvetica,sans-Serif" font-size="10.00">+ setEnvSensorSettings()</text>
<text text-anchor="start" x="263" y="-18.5" font-family="Helvetica,sans-Serif" font-size="10.00">+ readVBat()</text>
<text text-anchor="start" x="263" y="-7.5" font-family="Helvetica,sans-Serif" font-size="10.00">+ readMoisture()</text>
</g>
<!-- Node2 -->
<g id="node2" class="node"><title>Node2</title>
<g id="a_node2"><a xlink:href="class_cool_s_i114_x.html" target="_top" xlink:title="{CoolSI114X\n||+ Begin()\l+ Reset()\l+ DeInit()\l+ ReadParamData()\l+ WriteParamData()\l+ ReadVisible()\l+ ReadIR()\l+ ReadProximity()\l+ ReadUV()\l+ ReadResponseReg()\l&#45; WriteByte()\l&#45; ReadByte()\l&#45; ReadHalfWord()\l}">
<polygon fill="white" stroke="black" points="0,-237.5 0,-426.5 117,-426.5 117,-237.5 0,-237.5"/>
<text text-anchor="middle" x="58.5" y="-414.5" font-family="Helvetica,sans-Serif" font-size="10.00">CoolSI114X</text>
<polyline fill="none" stroke="black" points="0,-407.5 117,-407.5 "/>
<text text-anchor="middle" x="58.5" y="-395.5" font-family="Helvetica,sans-Serif" font-size="10.00"> </text>
<polyline fill="none" stroke="black" points="0,-388.5 117,-388.5 "/>
<text text-anchor="start" x="8" y="-376.5" font-family="Helvetica,sans-Serif" font-size="10.00">+ Begin()</text>
<text text-anchor="start" x="8" y="-365.5" font-family="Helvetica,sans-Serif" font-size="10.00">+ Reset()</text>
<text text-anchor="start" x="8" y="-354.5" font-family="Helvetica,sans-Serif" font-size="10.00">+ DeInit()</text>
<text text-anchor="start" x="8" y="-343.5" font-family="Helvetica,sans-Serif" font-size="10.00">+ ReadParamData()</text>
<text text-anchor="start" x="8" y="-332.5" font-family="Helvetica,sans-Serif" font-size="10.00">+ WriteParamData()</text>
<text text-anchor="start" x="8" y="-321.5" font-family="Helvetica,sans-Serif" font-size="10.00">+ ReadVisible()</text>
<text text-anchor="start" x="8" y="-310.5" font-family="Helvetica,sans-Serif" font-size="10.00">+ ReadIR()</text>
<text text-anchor="start" x="8" y="-299.5" font-family="Helvetica,sans-Serif" font-size="10.00">+ ReadProximity()</text>
<text text-anchor="start" x="8" y="-288.5" font-family="Helvetica,sans-Serif" font-size="10.00">+ ReadUV()</text>
<text text-anchor="start" x="8" y="-277.5" font-family="Helvetica,sans-Serif" font-size="10.00">+ ReadResponseReg()</text>
<text text-anchor="start" x="8" y="-266.5" font-family="Helvetica,sans-Serif" font-size="10.00">&#45; WriteByte()</text>
<text text-anchor="start" x="8" y="-255.5" font-family="Helvetica,sans-Serif" font-size="10.00">&#45; ReadByte()</text>
<text text-anchor="start" x="8" y="-244.5" font-family="Helvetica,sans-Serif" font-size="10.00">&#45; ReadHalfWord()</text>
</a>
</g>
</g>
<!-- Node2&#45;&gt;Node1 -->
<g id="edge1" class="edge"><title>Node2&#45;&gt;Node1</title>
<path fill="none" stroke="#404040" d="M117.145,-245.891C119.89,-242.823 122.679,-239.847 125.5,-237 160.992,-201.178 206.324,-167.692 244.24,-142.349"/>
<polygon fill="none" stroke="#404040" points="244.712,-142.037 247.512,-135.392 254.723,-135.422 251.923,-142.067 244.712,-142.037"/>
<text text-anchor="middle" x="183.5" y="-211" font-family="Helvetica,sans-Serif" font-size="10.00"> +lightSensor</text>
</g>
<!-- Node3 -->
<g id="node3" class="node"><title>Node3</title>
<g id="a_node3"><a xlink:href="class_b_m_e280.html" target="_top" xlink:title="{BME280\n|+ t_fine\l|+ BME280()\l+ begin()\l+ reset()\l+ readFloatPressure()\l+ readFloatAltitudeMeters()\l+ readFloatAltitudeFeet()\l+ readFloatHumidity()\l+ readTempC()\l+ readTempF()\l+ readRegisterRegion()\l+ readRegister()\l+ readRegisterInt16()\l+ writeRegister()\l}">
<polygon fill="white" stroke="black" points="135,-237.5 135,-426.5 270,-426.5 270,-237.5 135,-237.5"/>
<text text-anchor="middle" x="202.5" y="-414.5" font-family="Helvetica,sans-Serif" font-size="10.00">BME280</text>
<polyline fill="none" stroke="black" points="135,-407.5 270,-407.5 "/>
<text text-anchor="start" x="143" y="-395.5" font-family="Helvetica,sans-Serif" font-size="10.00">+ t_fine</text>
<polyline fill="none" stroke="black" points="135,-388.5 270,-388.5 "/>
<text text-anchor="start" x="143" y="-376.5" font-family="Helvetica,sans-Serif" font-size="10.00">+ BME280()</text>
<text text-anchor="start" x="143" y="-365.5" font-family="Helvetica,sans-Serif" font-size="10.00">+ begin()</text>
<text text-anchor="start" x="143" y="-354.5" font-family="Helvetica,sans-Serif" font-size="10.00">+ reset()</text>
<text text-anchor="start" x="143" y="-343.5" font-family="Helvetica,sans-Serif" font-size="10.00">+ readFloatPressure()</text>
<text text-anchor="start" x="143" y="-332.5" font-family="Helvetica,sans-Serif" font-size="10.00">+ readFloatAltitudeMeters()</text>
<text text-anchor="start" x="143" y="-321.5" font-family="Helvetica,sans-Serif" font-size="10.00">+ readFloatAltitudeFeet()</text>
<text text-anchor="start" x="143" y="-310.5" font-family="Helvetica,sans-Serif" font-size="10.00">+ readFloatHumidity()</text>
<text text-anchor="start" x="143" y="-299.5" font-family="Helvetica,sans-Serif" font-size="10.00">+ readTempC()</text>
<text text-anchor="start" x="143" y="-288.5" font-family="Helvetica,sans-Serif" font-size="10.00">+ readTempF()</text>
<text text-anchor="start" x="143" y="-277.5" font-family="Helvetica,sans-Serif" font-size="10.00">+ readRegisterRegion()</text>
<text text-anchor="start" x="143" y="-266.5" font-family="Helvetica,sans-Serif" font-size="10.00">+ readRegister()</text>
<text text-anchor="start" x="143" y="-255.5" font-family="Helvetica,sans-Serif" font-size="10.00">+ readRegisterInt16()</text>
<text text-anchor="start" x="143" y="-244.5" font-family="Helvetica,sans-Serif" font-size="10.00">+ writeRegister()</text>
</a>
</g>
</g>
<!-- Node3&#45;&gt;Node1 -->
<g id="edge2" class="edge"><title>Node3&#45;&gt;Node1</title>
<path fill="none" stroke="#404040" d="M249.078,-237.447C255.14,-225.27 261.381,-212.735 267.524,-200.395"/>
<polygon fill="none" stroke="#404040" points="267.543,-200.358 266.637,-193.204 272.891,-189.615 273.798,-196.769 267.543,-200.358"/>
<text text-anchor="middle" x="289.5" y="-211" font-family="Helvetica,sans-Serif" font-size="10.00"> +envSensor</text>
</g>
<!-- Node4 -->
<g id="node4" class="node"><title>Node4</title>
<g id="a_node4"><a xlink:href="struct_sensor_settings.html" target="_top" xlink:title="{SensorSettings\n|+ commInterface\l+ I2CAddress\l+ chipSelectPin\l+ runMode\l+ tStandby\l+ filter\l+ tempOverSample\l+ pressOverSample\l+ humidOverSample\l|}">
<polygon fill="white" stroke="black" points="90.5,-485.5 90.5,-630.5 196.5,-630.5 196.5,-485.5 90.5,-485.5"/>
<text text-anchor="middle" x="143.5" y="-618.5" font-family="Helvetica,sans-Serif" font-size="10.00">SensorSettings</text>
<polyline fill="none" stroke="black" points="90.5,-611.5 196.5,-611.5 "/>
<text text-anchor="start" x="98.5" y="-599.5" font-family="Helvetica,sans-Serif" font-size="10.00">+ commInterface</text>
<text text-anchor="start" x="98.5" y="-588.5" font-family="Helvetica,sans-Serif" font-size="10.00">+ I2CAddress</text>
<text text-anchor="start" x="98.5" y="-577.5" font-family="Helvetica,sans-Serif" font-size="10.00">+ chipSelectPin</text>
<text text-anchor="start" x="98.5" y="-566.5" font-family="Helvetica,sans-Serif" font-size="10.00">+ runMode</text>
<text text-anchor="start" x="98.5" y="-555.5" font-family="Helvetica,sans-Serif" font-size="10.00">+ tStandby</text>
<text text-anchor="start" x="98.5" y="-544.5" font-family="Helvetica,sans-Serif" font-size="10.00">+ filter</text>
<text text-anchor="start" x="98.5" y="-533.5" font-family="Helvetica,sans-Serif" font-size="10.00">+ tempOverSample</text>
<text text-anchor="start" x="98.5" y="-522.5" font-family="Helvetica,sans-Serif" font-size="10.00">+ pressOverSample</text>
<text text-anchor="start" x="98.5" y="-511.5" font-family="Helvetica,sans-Serif" font-size="10.00">+ humidOverSample</text>
<polyline fill="none" stroke="black" points="90.5,-504.5 196.5,-504.5 "/>
<text text-anchor="middle" x="143.5" y="-492.5" font-family="Helvetica,sans-Serif" font-size="10.00"> </text>
</a>
</g>
</g>
<!-- Node4&#45;&gt;Node3 -->
<g id="edge3" class="edge"><title>Node4&#45;&gt;Node3</title>
<path fill="none" stroke="#404040" d="M162.411,-485.201C166.306,-470.415 170.484,-454.551 174.62,-438.848"/>
<polygon fill="none" stroke="#404040" points="174.713,-438.497 172.373,-431.676 177.769,-426.893 180.109,-433.714 174.713,-438.497"/>
<text text-anchor="middle" x="195.5" y="-448" font-family="Helvetica,sans-Serif" font-size="10.00"> +settings</text>
</g>
<!-- Node5 -->
<g id="node5" class="node"><title>Node5</title>
<g id="a_node5"><a xlink:href="struct_sensor_calibration.html" target="_top" xlink:title="{SensorCalibration\n|+ dig_T1\l+ dig_T2\l+ dig_T3\l+ dig_P1\l+ dig_P2\l+ dig_P3\l+ dig_P4\l+ dig_P5\l+ dig_P6\l+ dig_P7\land 8 more...\l|}">
<polygon fill="white" stroke="black" points="214.5,-474.5 214.5,-641.5 308.5,-641.5 308.5,-474.5 214.5,-474.5"/>
<text text-anchor="middle" x="261.5" y="-629.5" font-family="Helvetica,sans-Serif" font-size="10.00">SensorCalibration</text>
<polyline fill="none" stroke="black" points="214.5,-622.5 308.5,-622.5 "/>
<text text-anchor="start" x="222.5" y="-610.5" font-family="Helvetica,sans-Serif" font-size="10.00">+ dig_T1</text>
<text text-anchor="start" x="222.5" y="-599.5" font-family="Helvetica,sans-Serif" font-size="10.00">+ dig_T2</text>
<text text-anchor="start" x="222.5" y="-588.5" font-family="Helvetica,sans-Serif" font-size="10.00">+ dig_T3</text>
<text text-anchor="start" x="222.5" y="-577.5" font-family="Helvetica,sans-Serif" font-size="10.00">+ dig_P1</text>
<text text-anchor="start" x="222.5" y="-566.5" font-family="Helvetica,sans-Serif" font-size="10.00">+ dig_P2</text>
<text text-anchor="start" x="222.5" y="-555.5" font-family="Helvetica,sans-Serif" font-size="10.00">+ dig_P3</text>
<text text-anchor="start" x="222.5" y="-544.5" font-family="Helvetica,sans-Serif" font-size="10.00">+ dig_P4</text>
<text text-anchor="start" x="222.5" y="-533.5" font-family="Helvetica,sans-Serif" font-size="10.00">+ dig_P5</text>
<text text-anchor="start" x="222.5" y="-522.5" font-family="Helvetica,sans-Serif" font-size="10.00">+ dig_P6</text>
<text text-anchor="start" x="222.5" y="-511.5" font-family="Helvetica,sans-Serif" font-size="10.00">+ dig_P7</text>
<text text-anchor="start" x="222.5" y="-500.5" font-family="Helvetica,sans-Serif" font-size="10.00">and 8 more...</text>
<polyline fill="none" stroke="black" points="214.5,-493.5 308.5,-493.5 "/>
<text text-anchor="middle" x="261.5" y="-481.5" font-family="Helvetica,sans-Serif" font-size="10.00"> </text>
</a>
</g>
</g>
<!-- Node5&#45;&gt;Node3 -->
<g id="edge4" class="edge"><title>Node5&#45;&gt;Node3</title>
<path fill="none" stroke="#404040" d="M239.698,-474.227C236.645,-462.637 233.474,-450.597 230.329,-438.655"/>
<polygon fill="none" stroke="#404040" points="230.253,-438.368 224.857,-433.585 227.197,-426.764 232.593,-431.547 230.253,-438.368"/>
<text text-anchor="middle" x="261.5" y="-448" font-family="Helvetica,sans-Serif" font-size="10.00"> +calibration</text>
</g>
<!-- Node6 -->
<g id="node6" class="node"><title>Node6</title>
<g id="a_node6"><a xlink:href="struct_cool_board_sensors_1_1air_active.html" target="_top" xlink:title="{CoolBoardSensors::airActive\n|+ temperature\l+ humidity\l+ pressure\l|}">
<polygon fill="white" stroke="black" points="288,-292.5 288,-371.5 431,-371.5 431,-292.5 288,-292.5"/>
<text text-anchor="middle" x="359.5" y="-359.5" font-family="Helvetica,sans-Serif" font-size="10.00">CoolBoardSensors::airActive</text>
<polyline fill="none" stroke="black" points="288,-352.5 431,-352.5 "/>
<text text-anchor="start" x="296" y="-340.5" font-family="Helvetica,sans-Serif" font-size="10.00">+ temperature</text>
<text text-anchor="start" x="296" y="-329.5" font-family="Helvetica,sans-Serif" font-size="10.00">+ humidity</text>
<text text-anchor="start" x="296" y="-318.5" font-family="Helvetica,sans-Serif" font-size="10.00">+ pressure</text>
<polyline fill="none" stroke="black" points="288,-311.5 431,-311.5 "/>
<text text-anchor="middle" x="359.5" y="-299.5" font-family="Helvetica,sans-Serif" font-size="10.00"> </text>
</a>
</g>
</g>
<!-- Node6&#45;&gt;Node1 -->
<g id="edge5" class="edge"><title>Node6&#45;&gt;Node1</title>
<path fill="none" stroke="#404040" d="M352.94,-292.458C348.705,-267.582 342.976,-233.919 337.456,-201.489"/>
<polygon fill="none" stroke="#404040" points="337.448,-201.445 332.498,-196.201 335.434,-189.615 340.385,-194.859 337.448,-201.445"/>
<text text-anchor="middle" x="372.5" y="-211" font-family="Helvetica,sans-Serif" font-size="10.00"> &#45;airDataActive</text>
</g>
<!-- Node7 -->
<g id="node7" class="node"><title>Node7</title>
<g id="a_node7"><a xlink:href="struct_cool_board_sensors_1_1light_active.html" target="_top" xlink:title="{CoolBoardSensors::lightActive\n|+ visible\l+ ir\l+ uv\l|}">
<polygon fill="white" stroke="black" points="449.5,-292.5 449.5,-371.5 599.5,-371.5 599.5,-292.5 449.5,-292.5"/>
<text text-anchor="middle" x="524.5" y="-359.5" font-family="Helvetica,sans-Serif" font-size="10.00">CoolBoardSensors::lightActive</text>
<polyline fill="none" stroke="black" points="449.5,-352.5 599.5,-352.5 "/>
<text text-anchor="start" x="457.5" y="-340.5" font-family="Helvetica,sans-Serif" font-size="10.00">+ visible</text>
<text text-anchor="start" x="457.5" y="-329.5" font-family="Helvetica,sans-Serif" font-size="10.00">+ ir</text>
<text text-anchor="start" x="457.5" y="-318.5" font-family="Helvetica,sans-Serif" font-size="10.00">+ uv</text>
<polyline fill="none" stroke="black" points="449.5,-311.5 599.5,-311.5 "/>
<text text-anchor="middle" x="524.5" y="-299.5" font-family="Helvetica,sans-Serif" font-size="10.00"> </text>
</a>
</g>
</g>
<!-- Node7&#45;&gt;Node1 -->
<g id="edge6" class="edge"><title>Node7&#45;&gt;Node1</title>
<path fill="none" stroke="#404040" d="M490.878,-292.458C464.168,-261.838 425.843,-217.905 392.206,-179.346"/>
<polygon fill="none" stroke="#404040" points="392.103,-179.228 385.145,-177.336 384.215,-170.185 391.173,-172.077 392.103,-179.228"/>
<text text-anchor="middle" x="459" y="-211" font-family="Helvetica,sans-Serif" font-size="10.00"> &#45;lightDataActive</text>
</g>
</g>
</svg>
        <g id="navigator" transform="translate(0 0)" fill="#404254">
                <rect fill="#f2f5e9" fill-opacity="0.5" stroke="#606060" stroke-width=".5" x="0" y="0" width="60" height="60"/>
                <use id="zoomplus" xlink:href="#zoomPlus" x="17" y="9" onmousedown="handleZoom(evt,'in')"/>
                <use id="zoomminus" xlink:href="#zoomMin" x="42" y="9" onmousedown="handleZoom(evt,'out')"/>
                <use id="reset" xlink:href="#resetDef" x="30" y="36" onmousedown="handleReset()"/>
                <g id="arrowUp" xlink:href="#dirArrow" transform="translate(30 24)" onmousedown="handlePan(0,-1)">
                  <use xlink:href="#rim" fill="#404040">
                        <set attributeName="fill" to="#808080" begin="arrowUp.mouseover" end="arrowUp.mouseout"/>
                  </use>
                  <path fill="none" stroke="white" stroke-width="1.5" d="M0,-3.0v7 M-2.5,-0.5L0,-3.0L2.5,-0.5"/>
                </g>
                <g id="arrowRight" xlink:href="#dirArrow" transform="rotate(90) translate(36 -43)" onmousedown="handlePan(1,0)">
                  <use xlink:href="#rim" fill="#404040">
                        <set attributeName="fill" to="#808080" begin="arrowRight.mouseover" end="arrowRight.mouseout"/>
                  </use>
                  <path fill="none" stroke="white" stroke-width="1.5" d="M0,-3.0v7 M-2.5,-0.5L0,-3.0L2.5,-0.5"/>
                </g>
                <g id="arrowDown" xlink:href="#dirArrow" transform="rotate(180) translate(-30 -48)" onmousedown="handlePan(0,1)">
                  <use xlink:href="#rim" fill="#404040">
                        <set attributeName="fill" to="#808080" begin="arrowDown.mouseover" end="arrowDown.mouseout"/>
                  </use>
                  <path fill="none" stroke="white" stroke-width="1.5" d="M0,-3.0v7 M-2.5,-0.5L0,-3.0L2.5,-0.5"/>
                </g>
                <g id="arrowLeft" xlink:href="#dirArrow" transform="rotate(270) translate(-36 17)" onmousedown="handlePan(-1,0)">
                  <use xlink:href="#rim" fill="#404040">
                        <set attributeName="fill" to="#808080" begin="arrowLeft.mouseover" end="arrowLeft.mouseout"/>
                  </use>
                  <path fill="none" stroke="white" stroke-width="1.5" d="M0,-3.0v7 M-2.5,-0.5L0,-3.0L2.5,-0.5"/>
                </g>
        </g>
        <svg viewBox="0 0 15 15" width="100%" height="30px" preserveAspectRatio="xMaxYMin meet">
         <g id="arrow_out" transform="scale(0.3 0.3)">
          <a xlink:href="class_cool_board_sensors__coll__graph_org.svg" target="_base">
           <rect id="button" ry="5" rx="5" y="6" x="6" height="38" width="38"
                fill="#f2f5e9" fill-opacity="0.5" stroke="#606060" stroke-width="1.0"/>
           <path id="arrow"
             d="M 11.500037,31.436501 C 11.940474,20.09759 22.043105,11.32322 32.158766,21.979434 L 37.068811,17.246167 C 37.068811,17.246167 37.088388,32 37.088388,32 L 22.160133,31.978069 C 22.160133,31.978069 26.997745,27.140456 26.997745,27.140456 C 18.528582,18.264221 13.291696,25.230495 11.500037,31.436501 z"
             style="fill:#404040;"/>
          </a>
         </g>
        </svg>
</svg>
