<?xml version="1.0" encoding="UTF-8" standalone="no"?>
<!DOCTYPE svg PUBLIC "-//W3C//DTD SVG 1.1//EN"
 "http://www.w3.org/Graphics/SVG/1.1/DTD/svg11.dtd">
<!-- Generated by graphviz version 2.38.0 (20140413.2041)
 -->
<!-- Title: WiFiManager::autoConnect Pages: 1 -->
<!--zoomable 66 -->
<svg id="main" version="1.1" xmlns="http://www.w3.org/2000/svg" xmlns:xlink="http://www.w3.org/1999/xlink" xml:space="preserve" onload="init(evt)">
<style type="text/css"><![CDATA[
.edge:hover path { stroke: red; }
.edge:hover polygon { stroke: red; fill: red; }
]]></style>
<script type="text/javascript"><![CDATA[
var edges = document.getElementsByTagName('g');
if (edges && edges.length) {
  for (var i=0;i<edges.length;i++) {
    if (edges[i].id.substr(0,4)=='edge') {
      edges[i].setAttribute('class','edge');
    }
  }
}
]]></script>
        <defs>
                <circle id="rim" cx="0" cy="0" r="7"/>
                <circle id="rim2" cx="0" cy="0" r="3.5"/>
                <g id="zoomPlus">
                        <use xlink:href="#rim" fill="#404040">
                                <set attributeName="fill" to="#808080" begin="zoomplus.mouseover" end="zoomplus.mouseout"/>
                        </use>
                        <path d="M-4,0h8M0,-4v8" fill="none" stroke="white" stroke-width="1.5" pointer-events="none"/>
                </g>
                <g id="zoomMin">
                        <use xlink:href="#rim" fill="#404040">
                                <set attributeName="fill" to="#808080" begin="zoomminus.mouseover" end="zoomminus.mouseout"/>
                        </use>
                        <path d="M-4,0h8" fill="none" stroke="white" stroke-width="1.5" pointer-events="none"/>
                </g>
                <g id="dirArrow">
                        <path fill="none" stroke="white" stroke-width="1.5" d="M0,-3.0v7 M-2.5,-0.5L0,-3.0L2.5,-0.5"/>
                </g>
               <g id="resetDef">
                       <use xlink:href="#rim2" fill="#404040">
                               <set attributeName="fill" to="#808080" begin="reset.mouseover" end="reset.mouseout"/>
                       </use>
               </g>
        </defs>

<script type="text/javascript">
var viewWidth = 716;
var viewHeight = 66;
var sectionId = 'dynsection-2';
</script>
<script xlink:href="svgpan.js"/>
<svg id="graph" class="graph">
<g id="viewport">
<title>WiFiManager::autoConnect</title>
<polygon fill="white" stroke="none" points="-4,4 -4,-62 712,-62 712,4 -4,4"/>
<!-- Node7 -->
<g id="node1" class="node"><title>Node7</title>
<polygon fill="#bfbfbf" stroke="black" points="0,-19.5 0,-38.5 136,-38.5 136,-19.5 0,-19.5"/>
<text text-anchor="middle" x="68" y="-26.5" font-family="Helvetica,sans-Serif" font-size="10.00">WiFiManager::autoConnect</text>
</g>
<!-- Node8 -->
<g id="node2" class="node"><title>Node8</title>
<g id="a_node2"><a xlink:href="class_cool_wifi.html#a7c857f27161782f5ef1d62d552aff971" target="_top" xlink:title="CoolWifi::connectAP">
<polygon fill="white" stroke="black" points="172,-19.5 172,-38.5 280,-38.5 280,-19.5 172,-19.5"/>
<text text-anchor="middle" x="226" y="-26.5" font-family="Helvetica,sans-Serif" font-size="10.00">CoolWifi::connectAP</text>
</a>
</g>
</g>
<!-- Node7&#45;&gt;Node8 -->
<g id="edge1" class="edge"><title>Node7&#45;&gt;Node8</title>
<path fill="none" stroke="midnightblue" d="M146.154,-29C154.776,-29 163.412,-29 171.641,-29"/>
<polygon fill="midnightblue" stroke="midnightblue" points="146.063,-25.5001 136.063,-29 146.063,-32.5001 146.063,-25.5001"/>
</g>
<!-- Node9 -->
<g id="node3" class="node"><title>Node9</title>
<g id="a_node3"><a xlink:href="class_cool_board.html#ae6b5e1274d760462290192acea4adca8" target="_top" xlink:title="CoolBoard::offLineMode">
<polygon fill="white" stroke="black" points="586,-38.5 586,-57.5 708,-57.5 708,-38.5 586,-38.5"/>
<text text-anchor="middle" x="647" y="-45.5" font-family="Helvetica,sans-Serif" font-size="10.00">CoolBoard::offLineMode</text>
</a>
</g>
</g>
<!-- Node8&#45;&gt;Node9 -->
<g id="edge2" class="edge"><title>Node8&#45;&gt;Node9</title>
<path fill="none" stroke="midnightblue" d="M290.507,-31.8798C370.643,-35.5137 507.454,-41.7175 585.929,-45.276"/>
<polygon fill="midnightblue" stroke="midnightblue" points="290.215,-28.363 280.067,-31.4064 289.898,-35.3559 290.215,-28.363"/>
</g>
<!-- Node10 -->
<g id="node4" class="node"><title>Node10</title>
<g id="a_node4"><a xlink:href="class_cool_wifi.html#ad060353050f40d032a2dbf9e54a768bf" target="_top" xlink:title="CoolWifi::connect">
<polygon fill="white" stroke="black" points="316,-0.5 316,-19.5 411,-19.5 411,-0.5 316,-0.5"/>
<text text-anchor="middle" x="363.5" y="-7.5" font-family="Helvetica,sans-Serif" font-size="10.00">CoolWifi::connect</text>
</a>
</g>
</g>
<!-- Node8&#45;&gt;Node10 -->
<g id="edge3" class="edge"><title>Node8&#45;&gt;Node10</title>
<path fill="none" stroke="midnightblue" d="M290.16,-20.1436C298.742,-18.9402 307.423,-17.723 315.648,-16.5697"/>
<polygon fill="midnightblue" stroke="midnightblue" points="289.581,-16.6904 280.164,-21.5452 290.553,-23.6226 289.581,-16.6904"/>
</g>
<!-- Node11 -->
<g id="node5" class="node"><title>Node11</title>
<g id="a_node5"><a xlink:href="class_cool_board.html#a519de78b807f8ec6463ff484eb925918" target="_top" xlink:title="CoolBoard::connect">
<polygon fill="white" stroke="black" points="447,-0.5 447,-19.5 550,-19.5 550,-0.5 447,-0.5"/>
<text text-anchor="middle" x="498.5" y="-7.5" font-family="Helvetica,sans-Serif" font-size="10.00">CoolBoard::connect</text>
</a>
</g>
</g>
<!-- Node10&#45;&gt;Node11 -->
<g id="edge4" class="edge"><title>Node10&#45;&gt;Node11</title>
<path fill="none" stroke="midnightblue" d="M421.204,-10C429.676,-10 438.364,-10 446.703,-10"/>
<polygon fill="midnightblue" stroke="midnightblue" points="421.017,-6.5001 411.017,-10 421.017,-13.5001 421.017,-6.5001"/>
</g>
<!-- Node11&#45;&gt;Node9 -->
<g id="edge6" class="edge"><title>Node11&#45;&gt;Node9</title>
<path fill="none" stroke="midnightblue" d="M546.195,-22.1121C566.599,-27.4044 590.181,-33.5213 609.298,-38.4799"/>
<polygon fill="midnightblue" stroke="midnightblue" points="547.027,-18.712 536.468,-19.589 545.269,-25.4877 547.027,-18.712"/>
</g>
<!-- Node12 -->
<g id="node6" class="node"><title>Node12</title>
<g id="a_node6"><a xlink:href="class_cool_board.html#acba7c5aef7268b2c0044bdb54d3b9d76" target="_top" xlink:title="CoolBoard::begin">
<polygon fill="white" stroke="black" points="601,-0.5 601,-19.5 693,-19.5 693,-0.5 601,-0.5"/>
<text text-anchor="middle" x="647" y="-7.5" font-family="Helvetica,sans-Serif" font-size="10.00">CoolBoard::begin</text>
</a>
</g>
</g>
<!-- Node11&#45;&gt;Node12 -->
<g id="edge5" class="edge"><title>Node11&#45;&gt;Node12</title>
<path fill="none" stroke="midnightblue" d="M560.472,-10C573.924,-10 587.944,-10 600.648,-10"/>
<polygon fill="midnightblue" stroke="midnightblue" points="560.327,-6.5001 550.327,-10 560.327,-13.5001 560.327,-6.5001"/>
</g>
</g>
</svg>
        <g id="navigator" transform="translate(0 0)" fill="#404254">
                <rect fill="#f2f5e9" fill-opacity="0.5" stroke="#606060" stroke-width=".5" x="0" y="0" width="60" height="60"/>
                <use id="zoomplus" xlink:href="#zoomPlus" x="17" y="9" onmousedown="handleZoom(evt,'in')"/>
                <use id="zoomminus" xlink:href="#zoomMin" x="42" y="9" onmousedown="handleZoom(evt,'out')"/>
                <use id="reset" xlink:href="#resetDef" x="30" y="36" onmousedown="handleReset()"/>
                <g id="arrowUp" xlink:href="#dirArrow" transform="translate(30 24)" onmousedown="handlePan(0,-1)">
                  <use xlink:href="#rim" fill="#404040">
                        <set attributeName="fill" to="#808080" begin="arrowUp.mouseover" end="arrowUp.mouseout"/>
                  </use>
                  <path fill="none" stroke="white" stroke-width="1.5" d="M0,-3.0v7 M-2.5,-0.5L0,-3.0L2.5,-0.5"/>
                </g>
                <g id="arrowRight" xlink:href="#dirArrow" transform="rotate(90) translate(36 -43)" onmousedown="handlePan(1,0)">
                  <use xlink:href="#rim" fill="#404040">
                        <set attributeName="fill" to="#808080" begin="arrowRight.mouseover" end="arrowRight.mouseout"/>
                  </use>
                  <path fill="none" stroke="white" stroke-width="1.5" d="M0,-3.0v7 M-2.5,-0.5L0,-3.0L2.5,-0.5"/>
                </g>
                <g id="arrowDown" xlink:href="#dirArrow" transform="rotate(180) translate(-30 -48)" onmousedown="handlePan(0,1)">
                  <use xlink:href="#rim" fill="#404040">
                        <set attributeName="fill" to="#808080" begin="arrowDown.mouseover" end="arrowDown.mouseout"/>
                  </use>
                  <path fill="none" stroke="white" stroke-width="1.5" d="M0,-3.0v7 M-2.5,-0.5L0,-3.0L2.5,-0.5"/>
                </g>
                <g id="arrowLeft" xlink:href="#dirArrow" transform="rotate(270) translate(-36 17)" onmousedown="handlePan(-1,0)">
                  <use xlink:href="#rim" fill="#404040">
                        <set attributeName="fill" to="#808080" begin="arrowLeft.mouseover" end="arrowLeft.mouseout"/>
                  </use>
                  <path fill="none" stroke="white" stroke-width="1.5" d="M0,-3.0v7 M-2.5,-0.5L0,-3.0L2.5,-0.5"/>
                </g>
        </g>
        <svg viewBox="0 0 15 15" width="100%" height="30px" preserveAspectRatio="xMaxYMin meet">
         <g id="arrow_out" transform="scale(0.3 0.3)">
          <a xlink:href="class_wi_fi_manager_ae3cdfa6b02edcfe63d7da4f696b62136_icgraph_org.svg" target="_base">
           <rect id="button" ry="5" rx="5" y="6" x="6" height="38" width="38"
                fill="#f2f5e9" fill-opacity="0.5" stroke="#606060" stroke-width="1.0"/>
           <path id="arrow"
             d="M 11.500037,31.436501 C 11.940474,20.09759 22.043105,11.32322 32.158766,21.979434 L 37.068811,17.246167 C 37.068811,17.246167 37.088388,32 37.088388,32 L 22.160133,31.978069 C 22.160133,31.978069 26.997745,27.140456 26.997745,27.140456 C 18.528582,18.264221 13.291696,25.230495 11.500037,31.436501 z"
             style="fill:#404040;"/>
          </a>
         </g>
        </svg>
</svg>
