<?xml version="1.0" encoding="UTF-8" standalone="no"?>
<!DOCTYPE svg PUBLIC "-//W3C//DTD SVG 1.1//EN"
 "http://www.w3.org/Graphics/SVG/1.1/DTD/svg11.dtd">
<!-- Generated by graphviz version 2.38.0 (20140413.2041)
 -->
<!-- Title: BME280::readFloatAltitudeFeet Pages: 1 -->
<svg width="689pt" height="39pt"
 viewBox="0.00 0.00 689.00 39.00" xmlns="http://www.w3.org/2000/svg" xmlns:xlink="http://www.w3.org/1999/xlink">
<g id="graph0" class="graph" transform="scale(1 1) rotate(0) translate(4 35)">
<title>BME280::readFloatAltitudeFeet</title>
<polygon fill="white" stroke="none" points="-4,4 -4,-35 685,-35 685,4 -4,4"/>
<!-- Node8 -->
<g id="node1" class="node"><title>Node8</title>
<polygon fill="#bfbfbf" stroke="black" points="0,-6 0,-25 153,-25 153,-6 0,-6"/>
<text text-anchor="middle" x="76.5" y="-13" font-family="Helvetica,sans-Serif" font-size="10.00">BME280::readFloatAltitudeFeet</text>
</g>
<!-- Node9 -->
<g id="node2" class="node"><title>Node9</title>
<g id="a_node2"><a xlink:href="class_b_m_e280.html#af67b56ba50760ee1d116acc6c5010221" target="_top" xlink:title="BME280::readFloatAltitude\lMeters">
<polygon fill="white" stroke="black" points="189,-0.5 189,-30.5 323,-30.5 323,-0.5 189,-0.5"/>
<text text-anchor="start" x="197" y="-18.5" font-family="Helvetica,sans-Serif" font-size="10.00">BME280::readFloatAltitude</text>
<text text-anchor="middle" x="256" y="-7.5" font-family="Helvetica,sans-Serif" font-size="10.00">Meters</text>
</a>
</g>
</g>
<!-- Node8&#45;&gt;Node9 -->
<g id="edge1" class="edge"><title>Node8&#45;&gt;Node9</title>
<path fill="none" stroke="midnightblue" d="M153.033,-15.5C161.486,-15.5 170.102,-15.5 178.565,-15.5"/>
<polygon fill="midnightblue" stroke="midnightblue" points="178.792,-19.0001 188.792,-15.5 178.792,-12.0001 178.792,-19.0001"/>
</g>
<!-- Node10 -->
<g id="node3" class="node"><title>Node10</title>
<g id="a_node3"><a xlink:href="class_b_m_e280.html#ada6e799917afb4f228e6253bc56ffe75" target="_top" xlink:title="BME280::readFloatPressure">
<polygon fill="white" stroke="black" points="359,-6 359,-25 499,-25 499,-6 359,-6"/>
<text text-anchor="middle" x="429" y="-13" font-family="Helvetica,sans-Serif" font-size="10.00">BME280::readFloatPressure</text>
</a>
</g>
</g>
<!-- Node9&#45;&gt;Node10 -->
<g id="edge2" class="edge"><title>Node9&#45;&gt;Node10</title>
<path fill="none" stroke="midnightblue" d="M323.113,-15.5C331.557,-15.5 340.267,-15.5 348.89,-15.5"/>
<polygon fill="midnightblue" stroke="midnightblue" points="348.951,-19.0001 358.951,-15.5 348.951,-12.0001 348.951,-19.0001"/>
</g>
<!-- Node11 -->
<g id="node4" class="node"><title>Node11</title>
<g id="a_node4"><a xlink:href="class_b_m_e280.html#aecca87c2c40a7f2bcabcea921bdc6124" target="_top" xlink:title="BME280::readRegisterRegion">
<polygon fill="white" stroke="black" points="535,-6 535,-25 681,-25 681,-6 535,-6"/>
<text text-anchor="middle" x="608" y="-13" font-family="Helvetica,sans-Serif" font-size="10.00">BME280::readRegisterRegion</text>
</a>
</g>
</g>
<!-- Node10&#45;&gt;Node11 -->
<g id="edge3" class="edge"><title>Node10&#45;&gt;Node11</title>
<path fill="none" stroke="midnightblue" d="M499.193,-15.5C507.626,-15.5 516.304,-15.5 524.901,-15.5"/>
<polygon fill="midnightblue" stroke="midnightblue" points="524.937,-19.0001 534.937,-15.5 524.937,-12.0001 524.937,-19.0001"/>
</g>
</g>
</svg>
