<?xml version="1.0" encoding="UTF-8" standalone="no"?>
<!DOCTYPE svg PUBLIC "-//W3C//DTD SVG 1.1//EN"
 "http://www.w3.org/Graphics/SVG/1.1/DTD/svg11.dtd">
<!-- Generated by graphviz version 2.38.0 (20140413.2041)
 -->
<!-- Title: Irene3000::readADSChannel2 Pages: 1 -->
<svg width="593pt" height="107pt"
 viewBox="0.00 0.00 593.00 107.00" xmlns="http://www.w3.org/2000/svg" xmlns:xlink="http://www.w3.org/1999/xlink">
<g id="graph0" class="graph" transform="scale(1 1) rotate(0) translate(4 103)">
<title>Irene3000::readADSChannel2</title>
<polygon fill="white" stroke="none" points="-4,4 -4,-103 589,-103 589,4 -4,4"/>
<!-- Node78 -->
<g id="node1" class="node"><title>Node78</title>
<polygon fill="#bfbfbf" stroke="black" points="0,-57.5 0,-76.5 146,-76.5 146,-57.5 0,-57.5"/>
<text text-anchor="middle" x="73" y="-64.5" font-family="Helvetica,sans-Serif" font-size="10.00">Irene3000::readADSChannel2</text>
</g>
<!-- Node79 -->
<g id="node2" class="node"><title>Node79</title>
<g id="a_node2"><a xlink:href="class_irene3000.html#aff7c5da186b388e7272e63ff88a20c34" target="_top" xlink:title="Irene3000::setGain">
<polygon fill="white" stroke="black" points="204.5,-79.5 204.5,-98.5 303.5,-98.5 303.5,-79.5 204.5,-79.5"/>
<text text-anchor="middle" x="254" y="-86.5" font-family="Helvetica,sans-Serif" font-size="10.00">Irene3000::setGain</text>
</a>
</g>
</g>
<!-- Node78&#45;&gt;Node79 -->
<g id="edge1" class="edge"><title>Node78&#45;&gt;Node79</title>
<path fill="none" stroke="midnightblue" d="M146.032,-75.8531C162.13,-77.8316 179.012,-79.9065 194.485,-81.8082"/>
<polygon fill="midnightblue" stroke="midnightblue" points="194.074,-85.284 204.426,-83.0301 194.928,-78.3362 194.074,-85.284"/>
</g>
<!-- Node81 -->
<g id="node4" class="node"><title>Node81</title>
<g id="a_node4"><a xlink:href="class_adafruit___a_d_s1015.html#a40f38b9e1f3ec397c0670dd632510235" target="_top" xlink:title="Gets a single&#45;ended ADC reading from the specified channel. ">
<polygon fill="white" stroke="black" points="182,-30 182,-60 326,-60 326,-30 182,-30"/>
<text text-anchor="start" x="190" y="-48" font-family="Helvetica,sans-Serif" font-size="10.00">Adafruit_ADS1015::readADC</text>
<text text-anchor="middle" x="254" y="-37" font-family="Helvetica,sans-Serif" font-size="10.00">_SingleEnded</text>
</a>
</g>
</g>
<!-- Node78&#45;&gt;Node81 -->
<g id="edge3" class="edge"><title>Node78&#45;&gt;Node81</title>
<path fill="none" stroke="midnightblue" d="M146.032,-58.1469C154.551,-57.0999 163.289,-56.0259 171.922,-54.9649"/>
<polygon fill="midnightblue" stroke="midnightblue" points="172.49,-58.4215 181.988,-53.7277 171.636,-51.4738 172.49,-58.4215"/>
</g>
<!-- Node80 -->
<g id="node3" class="node"><title>Node80</title>
<g id="a_node3"><a xlink:href="class_adafruit___a_d_s1015.html#a399441eace686975ff22937cbe45cc50" target="_top" xlink:title="Sets the gain and input voltage range. ">
<polygon fill="white" stroke="black" points="362,-79.5 362,-98.5 499,-98.5 499,-79.5 362,-79.5"/>
<text text-anchor="middle" x="430.5" y="-86.5" font-family="Helvetica,sans-Serif" font-size="10.00">Adafruit_ADS1015::setGain</text>
</a>
</g>
</g>
<!-- Node79&#45;&gt;Node80 -->
<g id="edge2" class="edge"><title>Node79&#45;&gt;Node80</title>
<path fill="none" stroke="midnightblue" d="M303.608,-89C318.557,-89 335.402,-89 351.793,-89"/>
<polygon fill="midnightblue" stroke="midnightblue" points="351.919,-92.5001 361.919,-89 351.919,-85.5001 351.919,-92.5001"/>
</g>
<!-- Node82 -->
<g id="node5" class="node"><title>Node82</title>
<g id="a_node5"><a xlink:href="_cool_adafruit___a_d_s1015_8cpp.html#a00ef55774dfb93dd0a7bf561d8451b71" target="_top" xlink:title="Writes 16&#45;bits to the specified destination register. ">
<polygon fill="white" stroke="black" points="393.5,-38.5 393.5,-57.5 467.5,-57.5 467.5,-38.5 393.5,-38.5"/>
<text text-anchor="middle" x="430.5" y="-45.5" font-family="Helvetica,sans-Serif" font-size="10.00">writeRegister</text>
</a>
</g>
</g>
<!-- Node81&#45;&gt;Node82 -->
<g id="edge4" class="edge"><title>Node81&#45;&gt;Node82</title>
<path fill="none" stroke="midnightblue" d="M326.228,-46.2245C345.27,-46.5519 365.367,-46.8974 382.72,-47.1958"/>
<polygon fill="midnightblue" stroke="midnightblue" points="383.078,-50.7023 393.136,-47.3748 383.198,-43.7034 383.078,-50.7023"/>
</g>
<!-- Node84 -->
<g id="node7" class="node"><title>Node84</title>
<g id="a_node7"><a xlink:href="_cool_adafruit___a_d_s1015_8cpp.html#a319539381b7551b2f83a92b0b596e97d" target="_top" xlink:title="Writes 16&#45;bits to the specified destination register. ">
<polygon fill="white" stroke="black" points="394.5,-0.5 394.5,-19.5 466.5,-19.5 466.5,-0.5 394.5,-0.5"/>
<text text-anchor="middle" x="430.5" y="-7.5" font-family="Helvetica,sans-Serif" font-size="10.00">readRegister</text>
</a>
</g>
</g>
<!-- Node81&#45;&gt;Node84 -->
<g id="edge6" class="edge"><title>Node81&#45;&gt;Node84</title>
<path fill="none" stroke="midnightblue" d="M326.228,-30.7137C345.765,-26.795 366.412,-22.6538 384.067,-19.1126"/>
<polygon fill="midnightblue" stroke="midnightblue" points="384.969,-22.5015 394.085,-17.1032 383.592,-15.6382 384.969,-22.5015"/>
</g>
<!-- Node83 -->
<g id="node6" class="node"><title>Node83</title>
<g id="a_node6"><a xlink:href="_cool_adafruit___a_d_s1015_8cpp.html#a6db5edba66e20bba6d5b421c2789af54" target="_top" xlink:title="Abstract away platform differences in Arduino wire library. ">
<polygon fill="white" stroke="black" points="535,-38.5 535,-57.5 585,-57.5 585,-38.5 535,-38.5"/>
<text text-anchor="middle" x="560" y="-45.5" font-family="Helvetica,sans-Serif" font-size="10.00">i2cwrite</text>
</a>
</g>
</g>
<!-- Node82&#45;&gt;Node83 -->
<g id="edge5" class="edge"><title>Node82&#45;&gt;Node83</title>
<path fill="none" stroke="midnightblue" d="M467.695,-48C485.498,-48 506.851,-48 524.43,-48"/>
<polygon fill="midnightblue" stroke="midnightblue" points="524.821,-51.5001 534.821,-48 524.821,-44.5001 524.821,-51.5001"/>
</g>
<!-- Node84&#45;&gt;Node83 -->
<g id="edge7" class="edge"><title>Node84&#45;&gt;Node83</title>
<path fill="none" stroke="midnightblue" d="M466.248,-19.5494C476.788,-22.5083 488.386,-25.8265 499,-29 507.502,-31.5421 516.649,-34.3837 525.176,-37.0787"/>
<polygon fill="midnightblue" stroke="midnightblue" points="524.234,-40.4519 534.824,-40.1485 526.356,-33.7813 524.234,-40.4519"/>
</g>
<!-- Node85 -->
<g id="node8" class="node"><title>Node85</title>
<g id="a_node8"><a xlink:href="_cool_adafruit___a_d_s1015_8cpp.html#af89e2442d757f6ec8100c473022f6701" target="_top" xlink:title="Abstract away platform differences in Arduino wire library. ">
<polygon fill="white" stroke="black" points="536,-0.5 536,-19.5 584,-19.5 584,-0.5 536,-0.5"/>
<text text-anchor="middle" x="560" y="-7.5" font-family="Helvetica,sans-Serif" font-size="10.00">i2cread</text>
</a>
</g>
</g>
<!-- Node84&#45;&gt;Node85 -->
<g id="edge8" class="edge"><title>Node84&#45;&gt;Node85</title>
<path fill="none" stroke="midnightblue" d="M466.677,-10C485.162,-10 507.688,-10 525.862,-10"/>
<polygon fill="midnightblue" stroke="midnightblue" points="525.996,-13.5001 535.996,-10 525.996,-6.5001 525.996,-13.5001"/>
</g>
</g>
</svg>
