<?xml version="1.0" encoding="UTF-8" standalone="no"?>
<!DOCTYPE svg PUBLIC "-//W3C//DTD SVG 1.1//EN"
 "http://www.w3.org/Graphics/SVG/1.1/DTD/svg11.dtd">
<!-- Generated by graphviz version 2.38.0 (20140413.2041)
 -->
<!-- Title: Irene3000::read Pages: 1 -->
<!--zoomable 123 -->
<svg id="main" version="1.1" xmlns="http://www.w3.org/2000/svg" xmlns:xlink="http://www.w3.org/1999/xlink" xml:space="preserve" onload="init(evt)">
<style type="text/css"><![CDATA[
.edge:hover path { stroke: red; }
.edge:hover polygon { stroke: red; fill: red; }
]]></style>
<script type="text/javascript"><![CDATA[
var edges = document.getElementsByTagName('g');
if (edges && edges.length) {
  for (var i=0;i<edges.length;i++) {
    if (edges[i].id.substr(0,4)=='edge') {
      edges[i].setAttribute('class','edge');
    }
  }
}
]]></script>
        <defs>
                <circle id="rim" cx="0" cy="0" r="7"/>
                <circle id="rim2" cx="0" cy="0" r="3.5"/>
                <g id="zoomPlus">
                        <use xlink:href="#rim" fill="#404040">
                                <set attributeName="fill" to="#808080" begin="zoomplus.mouseover" end="zoomplus.mouseout"/>
                        </use>
                        <path d="M-4,0h8M0,-4v8" fill="none" stroke="white" stroke-width="1.5" pointer-events="none"/>
                </g>
                <g id="zoomMin">
                        <use xlink:href="#rim" fill="#404040">
                                <set attributeName="fill" to="#808080" begin="zoomminus.mouseover" end="zoomminus.mouseout"/>
                        </use>
                        <path d="M-4,0h8" fill="none" stroke="white" stroke-width="1.5" pointer-events="none"/>
                </g>
                <g id="dirArrow">
                        <path fill="none" stroke="white" stroke-width="1.5" d="M0,-3.0v7 M-2.5,-0.5L0,-3.0L2.5,-0.5"/>
                </g>
               <g id="resetDef">
                       <use xlink:href="#rim2" fill="#404040">
                               <set attributeName="fill" to="#808080" begin="reset.mouseover" end="reset.mouseout"/>
                       </use>
               </g>
        </defs>

<script type="text/javascript">
var viewWidth = 713;
var viewHeight = 123;
var sectionId = 'dynsection-12';
</script>
<script xlink:href="svgpan.js"/>
<svg id="graph" class="graph">
<g id="viewport">
<title>Irene3000::read</title>
<polygon fill="white" stroke="none" points="-4,4 -4,-119 709,-119 709,4 -4,4"/>
<!-- Node63 -->
<g id="node1" class="node"><title>Node63</title>
<polygon fill="#bfbfbf" stroke="black" points="0,-57.5 0,-76.5 84,-76.5 84,-57.5 0,-57.5"/>
<text text-anchor="middle" x="42" y="-64.5" font-family="Helvetica,sans-Serif" font-size="10.00">Irene3000::read</text>
</g>
<!-- Node64 -->
<g id="node2" class="node"><title>Node64</title>
<g id="a_node2"><a xlink:href="class_irene3000.html#a80bc6dfea106dc3bc54fa20204d4d5dc" target="_top" xlink:title="Irene3000::readTemp">
<polygon fill="white" stroke="black" points="138.5,-95.5 138.5,-114.5 247.5,-114.5 247.5,-95.5 138.5,-95.5"/>
<text text-anchor="middle" x="193" y="-102.5" font-family="Helvetica,sans-Serif" font-size="10.00">Irene3000::readTemp</text>
</a>
</g>
</g>
<!-- Node63&#45;&gt;Node64 -->
<g id="edge1" class="edge"><title>Node63&#45;&gt;Node64</title>
<path fill="none" stroke="midnightblue" d="M80.599,-76.589C100.084,-81.5583 124.075,-87.6767 144.796,-92.9613"/>
<polygon fill="midnightblue" stroke="midnightblue" points="144.117,-96.4001 154.671,-95.4799 145.846,-89.6172 144.117,-96.4001"/>
</g>
<!-- Node72 -->
<g id="node10" class="node"><title>Node72</title>
<g id="a_node10"><a xlink:href="class_irene3000.html#a436fc0a06681cd0784aba56b9707f19a" target="_top" xlink:title="Irene3000::readPh">
<polygon fill="white" stroke="black" points="145,-57.5 145,-76.5 241,-76.5 241,-57.5 145,-57.5"/>
<text text-anchor="middle" x="193" y="-64.5" font-family="Helvetica,sans-Serif" font-size="10.00">Irene3000::readPh</text>
</a>
</g>
</g>
<!-- Node63&#45;&gt;Node72 -->
<g id="edge10" class="edge"><title>Node63&#45;&gt;Node72</title>
<path fill="none" stroke="midnightblue" d="M84.1093,-67C99.7314,-67 117.823,-67 134.675,-67"/>
<polygon fill="midnightblue" stroke="midnightblue" points="134.975,-70.5001 144.975,-67 134.974,-63.5001 134.975,-70.5001"/>
</g>
<!-- Node73 -->
<g id="node11" class="node"><title>Node73</title>
<g id="a_node11"><a xlink:href="class_irene3000.html#ae73bd2ed14a199a7e83f4d6458476a7c" target="_top" xlink:title="Irene3000::readADSChannel2">
<polygon fill="white" stroke="black" points="120,-19.5 120,-38.5 266,-38.5 266,-19.5 120,-19.5"/>
<text text-anchor="middle" x="193" y="-26.5" font-family="Helvetica,sans-Serif" font-size="10.00">Irene3000::readADSChannel2</text>
</a>
</g>
</g>
<!-- Node63&#45;&gt;Node73 -->
<g id="edge13" class="edge"><title>Node63&#45;&gt;Node73</title>
<path fill="none" stroke="midnightblue" d="M80.599,-57.411C100.084,-52.4417 124.075,-46.3233 144.796,-41.0387"/>
<polygon fill="midnightblue" stroke="midnightblue" points="145.846,-44.3828 154.671,-38.5201 144.117,-37.5999 145.846,-44.3828"/>
</g>
<!-- Node65 -->
<g id="node3" class="node"><title>Node65</title>
<g id="a_node3"><a xlink:href="class_irene3000.html#aff7c5da186b388e7272e63ff88a20c34" target="_top" xlink:title="Irene3000::setGain">
<polygon fill="white" stroke="black" points="324.5,-79.5 324.5,-98.5 423.5,-98.5 423.5,-79.5 324.5,-79.5"/>
<text text-anchor="middle" x="374" y="-86.5" font-family="Helvetica,sans-Serif" font-size="10.00">Irene3000::setGain</text>
</a>
</g>
</g>
<!-- Node64&#45;&gt;Node65 -->
<g id="edge2" class="edge"><title>Node64&#45;&gt;Node65</title>
<path fill="none" stroke="midnightblue" d="M247.706,-100.199C268.686,-98.3241 292.809,-96.1679 314.251,-94.2513"/>
<polygon fill="midnightblue" stroke="midnightblue" points="314.564,-97.7373 324.213,-93.3608 313.941,-90.7651 314.564,-97.7373"/>
</g>
<!-- Node67 -->
<g id="node5" class="node"><title>Node67</title>
<g id="a_node5"><a xlink:href="class_adafruit___a_d_s1015.html#a40f38b9e1f3ec397c0670dd632510235" target="_top" xlink:title="Gets a single&#45;ended ADC reading from the specified channel. ">
<polygon fill="white" stroke="black" points="302,-30 302,-60 446,-60 446,-30 302,-30"/>
<text text-anchor="start" x="310" y="-48" font-family="Helvetica,sans-Serif" font-size="10.00">Adafruit_ADS1015::readADC</text>
<text text-anchor="middle" x="374" y="-37" font-family="Helvetica,sans-Serif" font-size="10.00">_SingleEnded</text>
</a>
</g>
</g>
<!-- Node64&#45;&gt;Node67 -->
<g id="edge4" class="edge"><title>Node64&#45;&gt;Node67</title>
<path fill="none" stroke="midnightblue" d="M234.711,-95.4729C245.018,-92.7295 255.999,-89.5164 266,-86 282.518,-80.1921 285.73,-76.4683 302,-70 307.446,-67.8351 313.162,-65.6615 318.887,-63.5487"/>
<polygon fill="midnightblue" stroke="midnightblue" points="320.281,-66.7665 328.485,-60.0627 317.891,-60.1871 320.281,-66.7665"/>
</g>
<!-- Node66 -->
<g id="node4" class="node"><title>Node66</title>
<g id="a_node4"><a xlink:href="class_adafruit___a_d_s1015.html#a399441eace686975ff22937cbe45cc50" target="_top" xlink:title="Sets the gain and input voltage range. ">
<polygon fill="white" stroke="black" points="482,-79.5 482,-98.5 619,-98.5 619,-79.5 482,-79.5"/>
<text text-anchor="middle" x="550.5" y="-86.5" font-family="Helvetica,sans-Serif" font-size="10.00">Adafruit_ADS1015::setGain</text>
</a>
</g>
</g>
<!-- Node65&#45;&gt;Node66 -->
<g id="edge3" class="edge"><title>Node65&#45;&gt;Node66</title>
<path fill="none" stroke="midnightblue" d="M423.608,-89C438.557,-89 455.402,-89 471.793,-89"/>
<polygon fill="midnightblue" stroke="midnightblue" points="471.919,-92.5001 481.919,-89 471.919,-85.5001 471.919,-92.5001"/>
</g>
<!-- Node68 -->
<g id="node6" class="node"><title>Node68</title>
<g id="a_node6"><a xlink:href="_cool_adafruit___a_d_s1015_8cpp.html#a00ef55774dfb93dd0a7bf561d8451b71" target="_top" xlink:title="Writes 16&#45;bits to the specified destination register. ">
<polygon fill="white" stroke="black" points="513.5,-0.5 513.5,-19.5 587.5,-19.5 587.5,-0.5 513.5,-0.5"/>
<text text-anchor="middle" x="550.5" y="-7.5" font-family="Helvetica,sans-Serif" font-size="10.00">writeRegister</text>
</a>
</g>
</g>
<!-- Node67&#45;&gt;Node68 -->
<g id="edge5" class="edge"><title>Node67&#45;&gt;Node68</title>
<path fill="none" stroke="midnightblue" d="M446.228,-30.7137C465.45,-26.8582 485.746,-22.7873 503.211,-19.2844"/>
<polygon fill="midnightblue" stroke="midnightblue" points="504.02,-22.6918 513.136,-17.2935 502.643,-15.8285 504.02,-22.6918"/>
</g>
<!-- Node70 -->
<g id="node8" class="node"><title>Node70</title>
<g id="a_node8"><a xlink:href="_cool_adafruit___a_d_s1015_8cpp.html#a319539381b7551b2f83a92b0b596e97d" target="_top" xlink:title="Writes 16&#45;bits to the specified destination register. ">
<polygon fill="white" stroke="black" points="514.5,-38.5 514.5,-57.5 586.5,-57.5 586.5,-38.5 514.5,-38.5"/>
<text text-anchor="middle" x="550.5" y="-45.5" font-family="Helvetica,sans-Serif" font-size="10.00">readRegister</text>
</a>
</g>
</g>
<!-- Node67&#45;&gt;Node70 -->
<g id="edge7" class="edge"><title>Node67&#45;&gt;Node70</title>
<path fill="none" stroke="midnightblue" d="M446.228,-46.2245C465.765,-46.5604 486.412,-46.9154 504.067,-47.2189"/>
<polygon fill="midnightblue" stroke="midnightblue" points="504.027,-50.7186 514.085,-47.3912 504.147,-43.7197 504.027,-50.7186"/>
</g>
<!-- Node69 -->
<g id="node7" class="node"><title>Node69</title>
<g id="a_node7"><a xlink:href="_cool_adafruit___a_d_s1015_8cpp.html#a6db5edba66e20bba6d5b421c2789af54" target="_top" xlink:title="Abstract away platform differences in Arduino wire library. ">
<polygon fill="white" stroke="black" points="655,-0.5 655,-19.5 705,-19.5 705,-0.5 655,-0.5"/>
<text text-anchor="middle" x="680" y="-7.5" font-family="Helvetica,sans-Serif" font-size="10.00">i2cwrite</text>
</a>
</g>
</g>
<!-- Node68&#45;&gt;Node69 -->
<g id="edge6" class="edge"><title>Node68&#45;&gt;Node69</title>
<path fill="none" stroke="midnightblue" d="M587.695,-10C605.498,-10 626.851,-10 644.43,-10"/>
<polygon fill="midnightblue" stroke="midnightblue" points="644.821,-13.5001 654.821,-10 644.821,-6.5001 644.821,-13.5001"/>
</g>
<!-- Node70&#45;&gt;Node69 -->
<g id="edge8" class="edge"><title>Node70&#45;&gt;Node69</title>
<path fill="none" stroke="midnightblue" d="M586.248,-38.4506C596.788,-35.4917 608.386,-32.1735 619,-29 627.502,-26.4579 636.649,-23.6163 645.176,-20.9213"/>
<polygon fill="midnightblue" stroke="midnightblue" points="646.356,-24.2187 654.824,-17.8515 644.234,-17.5481 646.356,-24.2187"/>
</g>
<!-- Node71 -->
<g id="node9" class="node"><title>Node71</title>
<g id="a_node9"><a xlink:href="_cool_adafruit___a_d_s1015_8cpp.html#af89e2442d757f6ec8100c473022f6701" target="_top" xlink:title="Abstract away platform differences in Arduino wire library. ">
<polygon fill="white" stroke="black" points="656,-38.5 656,-57.5 704,-57.5 704,-38.5 656,-38.5"/>
<text text-anchor="middle" x="680" y="-45.5" font-family="Helvetica,sans-Serif" font-size="10.00">i2cread</text>
</a>
</g>
</g>
<!-- Node70&#45;&gt;Node71 -->
<g id="edge9" class="edge"><title>Node70&#45;&gt;Node71</title>
<path fill="none" stroke="midnightblue" d="M586.677,-48C605.162,-48 627.688,-48 645.862,-48"/>
<polygon fill="midnightblue" stroke="midnightblue" points="645.996,-51.5001 655.996,-48 645.996,-44.5001 645.996,-51.5001"/>
</g>
<!-- Node72&#45;&gt;Node65 -->
<g id="edge11" class="edge"><title>Node72&#45;&gt;Node65</title>
<path fill="none" stroke="midnightblue" d="M241.03,-72.7802C263.508,-75.5428 290.638,-78.8773 314.439,-81.8026"/>
<polygon fill="midnightblue" stroke="midnightblue" points="314.06,-85.2823 324.412,-83.0284 314.914,-78.3345 314.06,-85.2823"/>
</g>
<!-- Node72&#45;&gt;Node67 -->
<g id="edge12" class="edge"><title>Node72&#45;&gt;Node67</title>
<path fill="none" stroke="midnightblue" d="M241.03,-61.2198C256.53,-59.3148 274.241,-57.1379 291.548,-55.0108"/>
<polygon fill="midnightblue" stroke="midnightblue" points="292.173,-58.4604 301.672,-53.7666 291.319,-51.5127 292.173,-58.4604"/>
</g>
<!-- Node73&#45;&gt;Node65 -->
<g id="edge14" class="edge"><title>Node73&#45;&gt;Node65</title>
<path fill="none" stroke="midnightblue" d="M238.03,-38.5993C247.419,-41.2026 257.163,-44.336 266,-48 283.111,-55.0944 284.949,-61.7641 302,-69 308.416,-71.7225 315.312,-74.1913 322.195,-76.3913"/>
<polygon fill="midnightblue" stroke="midnightblue" points="321.627,-79.876 332.212,-79.4203 323.654,-73.1757 321.627,-79.876"/>
</g>
<!-- Node73&#45;&gt;Node67 -->
<g id="edge15" class="edge"><title>Node73&#45;&gt;Node67</title>
<path fill="none" stroke="midnightblue" d="M266.032,-35.4387C274.551,-36.2001 283.289,-36.9812 291.922,-37.7528"/>
<polygon fill="midnightblue" stroke="midnightblue" points="291.716,-41.2483 301.988,-38.6526 292.34,-34.2761 291.716,-41.2483"/>
</g>
</g>
</svg>
        <g id="navigator" transform="translate(0 0)" fill="#404254">
                <rect fill="#f2f5e9" fill-opacity="0.5" stroke="#606060" stroke-width=".5" x="0" y="0" width="60" height="60"/>
                <use id="zoomplus" xlink:href="#zoomPlus" x="17" y="9" onmousedown="handleZoom(evt,'in')"/>
                <use id="zoomminus" xlink:href="#zoomMin" x="42" y="9" onmousedown="handleZoom(evt,'out')"/>
                <use id="reset" xlink:href="#resetDef" x="30" y="36" onmousedown="handleReset()"/>
                <g id="arrowUp" xlink:href="#dirArrow" transform="translate(30 24)" onmousedown="handlePan(0,-1)">
                  <use xlink:href="#rim" fill="#404040">
                        <set attributeName="fill" to="#808080" begin="arrowUp.mouseover" end="arrowUp.mouseout"/>
                  </use>
                  <path fill="none" stroke="white" stroke-width="1.5" d="M0,-3.0v7 M-2.5,-0.5L0,-3.0L2.5,-0.5"/>
                </g>
                <g id="arrowRight" xlink:href="#dirArrow" transform="rotate(90) translate(36 -43)" onmousedown="handlePan(1,0)">
                  <use xlink:href="#rim" fill="#404040">
                        <set attributeName="fill" to="#808080" begin="arrowRight.mouseover" end="arrowRight.mouseout"/>
                  </use>
                  <path fill="none" stroke="white" stroke-width="1.5" d="M0,-3.0v7 M-2.5,-0.5L0,-3.0L2.5,-0.5"/>
                </g>
                <g id="arrowDown" xlink:href="#dirArrow" transform="rotate(180) translate(-30 -48)" onmousedown="handlePan(0,1)">
                  <use xlink:href="#rim" fill="#404040">
                        <set attributeName="fill" to="#808080" begin="arrowDown.mouseover" end="arrowDown.mouseout"/>
                  </use>
                  <path fill="none" stroke="white" stroke-width="1.5" d="M0,-3.0v7 M-2.5,-0.5L0,-3.0L2.5,-0.5"/>
                </g>
                <g id="arrowLeft" xlink:href="#dirArrow" transform="rotate(270) translate(-36 17)" onmousedown="handlePan(-1,0)">
                  <use xlink:href="#rim" fill="#404040">
                        <set attributeName="fill" to="#808080" begin="arrowLeft.mouseover" end="arrowLeft.mouseout"/>
                  </use>
                  <path fill="none" stroke="white" stroke-width="1.5" d="M0,-3.0v7 M-2.5,-0.5L0,-3.0L2.5,-0.5"/>
                </g>
        </g>
        <svg viewBox="0 0 15 15" width="100%" height="30px" preserveAspectRatio="xMaxYMin meet">
         <g id="arrow_out" transform="scale(0.3 0.3)">
          <a xlink:href="class_irene3000_a852a170feea994ea1df01c6b245b5d9a_cgraph_org.svg" target="_base">
           <rect id="button" ry="5" rx="5" y="6" x="6" height="38" width="38"
                fill="#f2f5e9" fill-opacity="0.5" stroke="#606060" stroke-width="1.0"/>
           <path id="arrow"
             d="M 11.500037,31.436501 C 11.940474,20.09759 22.043105,11.32322 32.158766,21.979434 L 37.068811,17.246167 C 37.068811,17.246167 37.088388,32 37.088388,32 L 22.160133,31.978069 C 22.160133,31.978069 26.997745,27.140456 26.997745,27.140456 C 18.528582,18.264221 13.291696,25.230495 11.500037,31.436501 z"
             style="fill:#404040;"/>
          </a>
         </g>
        </svg>
</svg>
