<?xml version="1.0" encoding="UTF-8" standalone="no"?>
<!DOCTYPE svg PUBLIC "-//W3C//DTD SVG 1.1//EN"
 "http://www.w3.org/Graphics/SVG/1.1/DTD/svg11.dtd">
<!-- Generated by graphviz version 2.38.0 (20140413.2041)
 -->
<!-- Title: CoolBoardActor::mixedTemporalActionOn Pages: 1 -->
<svg width="490pt" height="66pt"
 viewBox="0.00 0.00 490.00 66.00" xmlns="http://www.w3.org/2000/svg" xmlns:xlink="http://www.w3.org/1999/xlink">
<g id="graph0" class="graph" transform="scale(1 1) rotate(0) translate(4 62)">
<title>CoolBoardActor::mixedTemporalActionOn</title>
<polygon fill="white" stroke="none" points="-4,4 -4,-62 486,-62 486,4 -4,4"/>
<!-- Node73 -->
<g id="node1" class="node"><title>Node73</title>
<polygon fill="#bfbfbf" stroke="black" points="0,-14 0,-44 158,-44 158,-14 0,-14"/>
<text text-anchor="start" x="8" y="-32" font-family="Helvetica,sans-Serif" font-size="10.00">CoolBoardActor::mixedTemporal</text>
<text text-anchor="middle" x="79" y="-21" font-family="Helvetica,sans-Serif" font-size="10.00">ActionOn</text>
</g>
<!-- Node74 -->
<g id="node2" class="node"><title>Node74</title>
<g id="a_node2"><a xlink:href="class_cool_board_actor.html#a3323ba7aaa4bef3ff084dcd830fe9b61" target="_top" xlink:title="CoolBoardActor::doAction">
<polygon fill="white" stroke="black" points="194,-19.5 194,-38.5 324,-38.5 324,-19.5 194,-19.5"/>
<text text-anchor="middle" x="259" y="-26.5" font-family="Helvetica,sans-Serif" font-size="10.00">CoolBoardActor::doAction</text>
</a>
</g>
</g>
<!-- Node73&#45;&gt;Node74 -->
<g id="edge1" class="edge"><title>Node73&#45;&gt;Node74</title>
<path fill="none" stroke="midnightblue" d="M168.206,-29C176.857,-29 185.519,-29 193.864,-29"/>
<polygon fill="midnightblue" stroke="midnightblue" points="168.073,-25.5001 158.073,-29 168.073,-32.5001 168.073,-25.5001"/>
</g>
<!-- Node75 -->
<g id="node3" class="node"><title>Node75</title>
<g id="a_node3"><a xlink:href="class_cool_board.html#aa0bbc4bc605e35618d18e68795c61363" target="_top" xlink:title="CoolBoard::onLineMode">
<polygon fill="white" stroke="black" points="360.5,-38.5 360.5,-57.5 481.5,-57.5 481.5,-38.5 360.5,-38.5"/>
<text text-anchor="middle" x="421" y="-45.5" font-family="Helvetica,sans-Serif" font-size="10.00">CoolBoard::onLineMode</text>
</a>
</g>
</g>
<!-- Node74&#45;&gt;Node75 -->
<g id="edge2" class="edge"><title>Node74&#45;&gt;Node75</title>
<path fill="none" stroke="midnightblue" d="M334.371,-37.8316C343.13,-38.8717 351.98,-39.9226 360.497,-40.934"/>
<polygon fill="midnightblue" stroke="midnightblue" points="334.499,-34.3223 324.156,-36.6185 333.674,-41.2734 334.499,-34.3223"/>
</g>
<!-- Node76 -->
<g id="node4" class="node"><title>Node76</title>
<g id="a_node4"><a xlink:href="class_cool_board.html#ae6b5e1274d760462290192acea4adca8" target="_top" xlink:title="CoolBoard::offLineMode">
<polygon fill="white" stroke="black" points="360,-0.5 360,-19.5 482,-19.5 482,-0.5 360,-0.5"/>
<text text-anchor="middle" x="421" y="-7.5" font-family="Helvetica,sans-Serif" font-size="10.00">CoolBoard::offLineMode</text>
</a>
</g>
</g>
<!-- Node74&#45;&gt;Node76 -->
<g id="edge3" class="edge"><title>Node74&#45;&gt;Node76</title>
<path fill="none" stroke="midnightblue" d="M334.222,-20.1861C342.853,-19.1612 351.574,-18.1255 359.981,-17.1273"/>
<polygon fill="midnightblue" stroke="midnightblue" points="333.674,-16.7266 324.156,-21.3815 334.499,-23.6777 333.674,-16.7266"/>
</g>
</g>
</svg>
