<?xml version="1.0" encoding="UTF-8" standalone="no"?>
<!DOCTYPE svg PUBLIC "-//W3C//DTD SVG 1.1//EN"
 "http://www.w3.org/Graphics/SVG/1.1/DTD/svg11.dtd">
<!-- Generated by graphviz version 2.38.0 (20140413.2041)
 -->
<!-- Title: CoolBoardActor::write Pages: 1 -->
<!--zoomable 579 -->
<svg id="main" version="1.1" xmlns="http://www.w3.org/2000/svg" xmlns:xlink="http://www.w3.org/1999/xlink" xml:space="preserve" onload="init(evt)">
<style type="text/css"><![CDATA[
.edge:hover path { stroke: red; }
.edge:hover polygon { stroke: red; fill: red; }
]]></style>
<script type="text/javascript"><![CDATA[
var edges = document.getElementsByTagName('g');
if (edges && edges.length) {
  for (var i=0;i<edges.length;i++) {
    if (edges[i].id.substr(0,4)=='edge') {
      edges[i].setAttribute('class','edge');
    }
  }
}
]]></script>
        <defs>
                <circle id="rim" cx="0" cy="0" r="7"/>
                <circle id="rim2" cx="0" cy="0" r="3.5"/>
                <g id="zoomPlus">
                        <use xlink:href="#rim" fill="#404040">
                                <set attributeName="fill" to="#808080" begin="zoomplus.mouseover" end="zoomplus.mouseout"/>
                        </use>
                        <path d="M-4,0h8M0,-4v8" fill="none" stroke="white" stroke-width="1.5" pointer-events="none"/>
                </g>
                <g id="zoomMin">
                        <use xlink:href="#rim" fill="#404040">
                                <set attributeName="fill" to="#808080" begin="zoomminus.mouseover" end="zoomminus.mouseout"/>
                        </use>
                        <path d="M-4,0h8" fill="none" stroke="white" stroke-width="1.5" pointer-events="none"/>
                </g>
                <g id="dirArrow">
                        <path fill="none" stroke="white" stroke-width="1.5" d="M0,-3.0v7 M-2.5,-0.5L0,-3.0L2.5,-0.5"/>
                </g>
               <g id="resetDef">
                       <use xlink:href="#rim2" fill="#404040">
                               <set attributeName="fill" to="#808080" begin="reset.mouseover" end="reset.mouseout"/>
                       </use>
               </g>
        </defs>

<script type="text/javascript">
var viewWidth = 639;
var viewHeight = 579;
var sectionId = 'dynsection-30';
</script>
<script xlink:href="svgpan.js"/>
<svg id="graph" class="graph">
<g id="viewport">
<title>CoolBoardActor::write</title>
<polygon fill="white" stroke="none" points="-4,4 -4,-574.827 635,-574.827 635,4 -4,4"/>
<!-- Node99 -->
<g id="node1" class="node"><title>Node99</title>
<polygon fill="#bfbfbf" stroke="black" points="0,-280 0,-299 113,-299 113,-280 0,-280"/>
<text text-anchor="middle" x="56.5" y="-287" font-family="Helvetica,sans-Serif" font-size="10.00">CoolBoardActor::write</text>
</g>
<!-- Node100 -->
<g id="node2" class="node"><title>Node100</title>
<g id="a_node2"><a xlink:href="class_cool_board.html#a8612756d3f73198cdde857a66f0fe690" target="_top" xlink:title="CoolBoard::update">
<polygon fill="white" stroke="black" points="359,-498 359,-517 457,-517 457,-498 359,-498"/>
<text text-anchor="middle" x="408" y="-505" font-family="Helvetica,sans-Serif" font-size="10.00">CoolBoard::update</text>
</a>
</g>
</g>
<!-- Node99&#45;&gt;Node100 -->
<g id="edge1" class="edge"><title>Node99&#45;&gt;Node100</title>
<path fill="none" stroke="midnightblue" d="M57.4367,-309.158C58.4732,-359.287 68.9924,-491.912 149,-548.5 226.018,-602.974 348.202,-541.861 391.313,-517.029"/>
<polygon fill="midnightblue" stroke="midnightblue" points="60.9353,-308.986 57.3387,-299.02 53.9356,-309.054 60.9353,-308.986"/>
</g>
<!-- Node102 -->
<g id="node4" class="node"><title>Node102</title>
<g id="a_node4"><a xlink:href="class_cool_board_actor.html#a81229abf5895f4d3b0355050b822b438" target="_top" xlink:title="CoolBoardActor::normalAction">
<polygon fill="white" stroke="black" points="153.5,-520 153.5,-539 302.5,-539 302.5,-520 153.5,-520"/>
<text text-anchor="middle" x="228" y="-527" font-family="Helvetica,sans-Serif" font-size="10.00">CoolBoardActor::normalAction</text>
</a>
</g>
</g>
<!-- Node99&#45;&gt;Node102 -->
<g id="edge3" class="edge"><title>Node99&#45;&gt;Node102</title>
<path fill="none" stroke="midnightblue" d="M59.7386,-309.361C65.7278,-352.802 86.1923,-456.668 149,-510.5 153.445,-514.309 158.53,-517.38 163.927,-519.853"/>
<polygon fill="midnightblue" stroke="midnightblue" points="63.186,-308.724 58.4599,-299.242 56.2413,-309.601 63.186,-308.724"/>
</g>
<!-- Node105 -->
<g id="node7" class="node"><title>Node105</title>
<g id="a_node7"><a xlink:href="class_cool_board_actor.html#aae82b2e62f91be009d40f93c206f9bda" target="_top" xlink:title="CoolBoardActor::inverted\lAction">
<polygon fill="white" stroke="black" points="165,-470.5 165,-500.5 291,-500.5 291,-470.5 165,-470.5"/>
<text text-anchor="start" x="173" y="-488.5" font-family="Helvetica,sans-Serif" font-size="10.00">CoolBoardActor::inverted</text>
<text text-anchor="middle" x="228" y="-477.5" font-family="Helvetica,sans-Serif" font-size="10.00">Action</text>
</a>
</g>
</g>
<!-- Node99&#45;&gt;Node105 -->
<g id="edge7" class="edge"><title>Node99&#45;&gt;Node105</title>
<path fill="none" stroke="midnightblue" d="M62.5313,-309.057C72.708,-344.695 99.1263,-420.321 149,-461.5 153.698,-465.379 159.018,-468.632 164.619,-471.36"/>
<polygon fill="midnightblue" stroke="midnightblue" points="65.8953,-308.089 59.8864,-299.363 59.1421,-309.932 65.8953,-308.089"/>
</g>
<!-- Node106 -->
<g id="node8" class="node"><title>Node106</title>
<g id="a_node8"><a xlink:href="class_cool_board_actor.html#a02698bd647df49cabbe74513d4d88918" target="_top" xlink:title="CoolBoardActor::temporal\lActionOff">
<polygon fill="white" stroke="black" points="163.5,-421.5 163.5,-451.5 292.5,-451.5 292.5,-421.5 163.5,-421.5"/>
<text text-anchor="start" x="171.5" y="-439.5" font-family="Helvetica,sans-Serif" font-size="10.00">CoolBoardActor::temporal</text>
<text text-anchor="middle" x="228" y="-428.5" font-family="Helvetica,sans-Serif" font-size="10.00">ActionOff</text>
</a>
</g>
</g>
<!-- Node99&#45;&gt;Node106 -->
<g id="edge9" class="edge"><title>Node99&#45;&gt;Node106</title>
<path fill="none" stroke="midnightblue" d="M66.557,-308.277C80.5274,-335.281 109.866,-384.865 149,-412.5 153.861,-415.933 159.226,-418.885 164.8,-421.422"/>
<polygon fill="midnightblue" stroke="midnightblue" points="69.5789,-306.495 61.9668,-299.126 63.3219,-309.633 69.5789,-306.495"/>
</g>
<!-- Node107 -->
<g id="node9" class="node"><title>Node107</title>
<g id="a_node9"><a xlink:href="class_cool_board_actor.html#a00b29c4abf0388551aa6812372113cf1" target="_top" xlink:title="CoolBoardActor::mixedTemporal\lActionOff">
<polygon fill="white" stroke="black" points="149,-372.5 149,-402.5 307,-402.5 307,-372.5 149,-372.5"/>
<text text-anchor="start" x="157" y="-390.5" font-family="Helvetica,sans-Serif" font-size="10.00">CoolBoardActor::mixedTemporal</text>
<text text-anchor="middle" x="228" y="-379.5" font-family="Helvetica,sans-Serif" font-size="10.00">ActionOff</text>
</a>
</g>
</g>
<!-- Node99&#45;&gt;Node107 -->
<g id="edge11" class="edge"><title>Node99&#45;&gt;Node107</title>
<path fill="none" stroke="midnightblue" d="M74.3295,-306.482C91.6736,-323.12 120.175,-348.152 149,-363.5 155.253,-366.829 162.039,-369.774 168.911,-372.357"/>
<polygon fill="midnightblue" stroke="midnightblue" points="76.3522,-303.563 66.7589,-299.067 71.4541,-308.564 76.3522,-303.563"/>
</g>
<!-- Node108 -->
<g id="node10" class="node"><title>Node108</title>
<g id="a_node10"><a xlink:href="class_cool_board_actor.html#ada603785c203fdb0b41cc967d70bdc4d" target="_top" xlink:title="CoolBoardActor::temporal\lActionOn">
<polygon fill="white" stroke="black" points="163.5,-323.5 163.5,-353.5 292.5,-353.5 292.5,-323.5 163.5,-323.5"/>
<text text-anchor="start" x="171.5" y="-341.5" font-family="Helvetica,sans-Serif" font-size="10.00">CoolBoardActor::temporal</text>
<text text-anchor="middle" x="228" y="-330.5" font-family="Helvetica,sans-Serif" font-size="10.00">ActionOn</text>
</a>
</g>
</g>
<!-- Node99&#45;&gt;Node108 -->
<g id="edge13" class="edge"><title>Node99&#45;&gt;Node108</title>
<path fill="none" stroke="midnightblue" d="M100.275,-301.866C122.97,-308.426 151.037,-316.54 174.984,-323.463"/>
<polygon fill="midnightblue" stroke="midnightblue" points="101.162,-298.479 90.5837,-299.064 99.2183,-305.204 101.162,-298.479"/>
</g>
<!-- Node109 -->
<g id="node11" class="node"><title>Node109</title>
<g id="a_node11"><a xlink:href="class_cool_board_actor.html#a216aa7a0cfd1f31d0025cc91c2ecd5dd" target="_top" xlink:title="CoolBoardActor::mixedTemporal\lActionOn">
<polygon fill="white" stroke="black" points="149,-274.5 149,-304.5 307,-304.5 307,-274.5 149,-274.5"/>
<text text-anchor="start" x="157" y="-292.5" font-family="Helvetica,sans-Serif" font-size="10.00">CoolBoardActor::mixedTemporal</text>
<text text-anchor="middle" x="228" y="-281.5" font-family="Helvetica,sans-Serif" font-size="10.00">ActionOn</text>
</a>
</g>
</g>
<!-- Node99&#45;&gt;Node109 -->
<g id="edge15" class="edge"><title>Node99&#45;&gt;Node109</title>
<path fill="none" stroke="midnightblue" d="M123.145,-289.5C131.59,-289.5 140.301,-289.5 148.921,-289.5"/>
<polygon fill="midnightblue" stroke="midnightblue" points="123.001,-286 113.001,-289.5 123.001,-293 123.001,-286"/>
</g>
<!-- Node110 -->
<g id="node12" class="node"><title>Node110</title>
<g id="a_node12"><a xlink:href="class_cool_board_actor.html#adf3b4e15b9d73681082112adf8ef95cb" target="_top" xlink:title="CoolBoardActor::hourAction">
<polygon fill="white" stroke="black" points="159,-236 159,-255 297,-255 297,-236 159,-236"/>
<text text-anchor="middle" x="228" y="-243" font-family="Helvetica,sans-Serif" font-size="10.00">CoolBoardActor::hourAction</text>
</a>
</g>
</g>
<!-- Node99&#45;&gt;Node110 -->
<g id="edge17" class="edge"><title>Node99&#45;&gt;Node110</title>
<path fill="none" stroke="midnightblue" d="M103.361,-277.418C117.946,-273.59 134.146,-269.352 149,-265.5 162.261,-262.061 176.8,-258.324 189.695,-255.021"/>
<polygon fill="midnightblue" stroke="midnightblue" points="102.341,-274.067 93.5583,-279.993 104.119,-280.837 102.341,-274.067"/>
</g>
<!-- Node111 -->
<g id="node13" class="node"><title>Node111</title>
<g id="a_node13"><a xlink:href="class_cool_board_actor.html#a6d93a24502c56ced2ef7675c913a276b" target="_top" xlink:title="CoolBoardActor::mixedHour\lAction">
<polygon fill="white" stroke="black" points="158.5,-186.5 158.5,-216.5 297.5,-216.5 297.5,-186.5 158.5,-186.5"/>
<text text-anchor="start" x="166.5" y="-204.5" font-family="Helvetica,sans-Serif" font-size="10.00">CoolBoardActor::mixedHour</text>
<text text-anchor="middle" x="228" y="-193.5" font-family="Helvetica,sans-Serif" font-size="10.00">Action</text>
</a>
</g>
</g>
<!-- Node99&#45;&gt;Node111 -->
<g id="edge19" class="edge"><title>Node99&#45;&gt;Node111</title>
<path fill="none" stroke="midnightblue" d="M76.8654,-273.655C94.7061,-259.688 122.371,-239.58 149,-226.5 156.531,-222.801 164.733,-219.479 172.898,-216.557"/>
<polygon fill="midnightblue" stroke="midnightblue" points="74.5881,-270.995 68.9441,-279.961 78.9477,-276.471 74.5881,-270.995"/>
</g>
<!-- Node112 -->
<g id="node14" class="node"><title>Node112</title>
<g id="a_node14"><a xlink:href="class_cool_board_actor.html#af000944ce0b9abb9c6ee4b8fe839fb36" target="_top" xlink:title="CoolBoardActor::minuteAction">
<polygon fill="white" stroke="black" points="153.5,-148 153.5,-167 302.5,-167 302.5,-148 153.5,-148"/>
<text text-anchor="middle" x="228" y="-155" font-family="Helvetica,sans-Serif" font-size="10.00">CoolBoardActor::minuteAction</text>
</a>
</g>
</g>
<!-- Node99&#45;&gt;Node112 -->
<g id="edge21" class="edge"><title>Node99&#45;&gt;Node112</title>
<path fill="none" stroke="midnightblue" d="M67.4527,-271.109C81.9951,-246.029 111.452,-201.483 149,-177.5 155.833,-173.135 163.574,-169.722 171.46,-167.053"/>
<polygon fill="midnightblue" stroke="midnightblue" points="64.3183,-269.542 62.4659,-279.974 70.4193,-272.974 64.3183,-269.542"/>
</g>
<!-- Node113 -->
<g id="node15" class="node"><title>Node113</title>
<g id="a_node15"><a xlink:href="class_cool_board_actor.html#a2b8a79a27288d5246e3e3860ae76770d" target="_top" xlink:title="CoolBoardActor::mixedMinute\lAction">
<polygon fill="white" stroke="black" points="154.5,-98.5 154.5,-128.5 301.5,-128.5 301.5,-98.5 154.5,-98.5"/>
<text text-anchor="start" x="162.5" y="-116.5" font-family="Helvetica,sans-Serif" font-size="10.00">CoolBoardActor::mixedMinute</text>
<text text-anchor="middle" x="228" y="-105.5" font-family="Helvetica,sans-Serif" font-size="10.00">Action</text>
</a>
</g>
</g>
<!-- Node99&#45;&gt;Node113 -->
<g id="edge23" class="edge"><title>Node99&#45;&gt;Node113</title>
<path fill="none" stroke="midnightblue" d="M64.0755,-270.179C75.9583,-238.127 104.033,-173.985 149,-138.5 153.912,-134.624 159.439,-131.342 165.226,-128.564"/>
<polygon fill="midnightblue" stroke="midnightblue" points="60.7315,-269.136 60.6654,-279.731 67.3239,-271.49 60.7315,-269.136"/>
</g>
<!-- Node114 -->
<g id="node16" class="node"><title>Node114</title>
<g id="a_node16"><a xlink:href="class_cool_board_actor.html#a1eb1fbca19bc80aad20d2686d52317f8" target="_top" xlink:title="CoolBoardActor::hourMinute\lAction">
<polygon fill="white" stroke="black" points="158,-49.5 158,-79.5 298,-79.5 298,-49.5 158,-49.5"/>
<text text-anchor="start" x="166" y="-67.5" font-family="Helvetica,sans-Serif" font-size="10.00">CoolBoardActor::hourMinute</text>
<text text-anchor="middle" x="228" y="-56.5" font-family="Helvetica,sans-Serif" font-size="10.00">Action</text>
</a>
</g>
</g>
<!-- Node99&#45;&gt;Node114 -->
<g id="edge25" class="edge"><title>Node99&#45;&gt;Node114</title>
<path fill="none" stroke="midnightblue" d="M60.9862,-269.941C69.103,-230.121 93,-139.208 149,-89.5 153.36,-85.6296 158.325,-82.3577 163.588,-79.5918"/>
<polygon fill="midnightblue" stroke="midnightblue" points="57.5135,-269.466 59.0647,-279.947 64.3879,-270.786 57.5135,-269.466"/>
</g>
<!-- Node115 -->
<g id="node17" class="node"><title>Node115</title>
<g id="a_node17"><a xlink:href="class_cool_board_actor.html#ae6b2a17b0e73cfeb353ded2cc4e08109" target="_top" xlink:title="CoolBoardActor::mixedHour\lMinuteAction">
<polygon fill="white" stroke="black" points="158.5,-0.5 158.5,-30.5 297.5,-30.5 297.5,-0.5 158.5,-0.5"/>
<text text-anchor="start" x="166.5" y="-18.5" font-family="Helvetica,sans-Serif" font-size="10.00">CoolBoardActor::mixedHour</text>
<text text-anchor="middle" x="228" y="-7.5" font-family="Helvetica,sans-Serif" font-size="10.00">MinuteAction</text>
</a>
</g>
</g>
<!-- Node99&#45;&gt;Node115 -->
<g id="edge27" class="edge"><title>Node99&#45;&gt;Node115</title>
<path fill="none" stroke="midnightblue" d="M59.0108,-269.752C63.6443,-223.068 81.7442,-104.99 149,-40.5 153.003,-36.6616 157.597,-33.4126 162.508,-30.6623"/>
<polygon fill="midnightblue" stroke="midnightblue" points="55.5192,-269.503 58.1193,-279.774 62.4917,-270.123 55.5192,-269.503"/>
</g>
<!-- Node101 -->
<g id="node3" class="node"><title>Node101</title>
<g id="a_node3"><a xlink:href="class_cool_board.html#aa0bbc4bc605e35618d18e68795c61363" target="_top" xlink:title="CoolBoard::onLineMode">
<polygon fill="white" stroke="black" points="509.5,-378 509.5,-397 630.5,-397 630.5,-378 509.5,-378"/>
<text text-anchor="middle" x="570" y="-385" font-family="Helvetica,sans-Serif" font-size="10.00">CoolBoard::onLineMode</text>
</a>
</g>
</g>
<!-- Node100&#45;&gt;Node101 -->
<g id="edge2" class="edge"><title>Node100&#45;&gt;Node101</title>
<path fill="none" stroke="midnightblue" d="M430.042,-491.718C463.676,-466.493 528.56,-417.83 556.116,-397.163"/>
<polygon fill="midnightblue" stroke="midnightblue" points="427.723,-489.083 421.823,-497.883 431.923,-494.683 427.723,-489.083"/>
</g>
<!-- Node103 -->
<g id="node5" class="node"><title>Node103</title>
<g id="a_node5"><a xlink:href="class_cool_board_actor.html#a3323ba7aaa4bef3ff084dcd830fe9b61" target="_top" xlink:title="CoolBoardActor::doAction">
<polygon fill="white" stroke="black" points="343,-280 343,-299 473,-299 473,-280 343,-280"/>
<text text-anchor="middle" x="408" y="-287" font-family="Helvetica,sans-Serif" font-size="10.00">CoolBoardActor::doAction</text>
</a>
</g>
</g>
<!-- Node102&#45;&gt;Node103 -->
<g id="edge4" class="edge"><title>Node102&#45;&gt;Node103</title>
<path fill="none" stroke="midnightblue" d="M300.601,-515.103C302.839,-513.704 304.982,-512.174 307,-510.5 377.341,-452.16 400.284,-333.931 405.642,-299.263"/>
<polygon fill="midnightblue" stroke="midnightblue" points="298.769,-512.113 291.557,-519.874 302.035,-518.304 298.769,-512.113"/>
</g>
<!-- Node103&#45;&gt;Node101 -->
<g id="edge5" class="edge"><title>Node103&#45;&gt;Node101</title>
<path fill="none" stroke="midnightblue" d="M433.265,-304.362C466.419,-324.669 524.961,-360.526 553.067,-377.741"/>
<polygon fill="midnightblue" stroke="midnightblue" points="434.988,-301.314 424.633,-299.075 431.332,-307.283 434.988,-301.314"/>
</g>
<!-- Node104 -->
<g id="node6" class="node"><title>Node104</title>
<g id="a_node6"><a xlink:href="class_cool_board.html#ae6b5e1274d760462290192acea4adca8" target="_top" xlink:title="CoolBoard::offLineMode">
<polygon fill="white" stroke="black" points="509,-280 509,-299 631,-299 631,-280 509,-280"/>
<text text-anchor="middle" x="570" y="-287" font-family="Helvetica,sans-Serif" font-size="10.00">CoolBoard::offLineMode</text>
</a>
</g>
</g>
<!-- Node103&#45;&gt;Node104 -->
<g id="edge6" class="edge"><title>Node103&#45;&gt;Node104</title>
<path fill="none" stroke="midnightblue" d="M483.222,-289.5C491.853,-289.5 500.574,-289.5 508.981,-289.5"/>
<polygon fill="midnightblue" stroke="midnightblue" points="483.156,-286 473.156,-289.5 483.156,-293 483.156,-286"/>
</g>
<!-- Node105&#45;&gt;Node103 -->
<g id="edge8" class="edge"><title>Node105&#45;&gt;Node103</title>
<path fill="none" stroke="midnightblue" d="M300.424,-466.139C302.712,-464.702 304.913,-463.158 307,-461.5 364.066,-416.165 394.996,-328.716 404.106,-299.373"/>
<polygon fill="midnightblue" stroke="midnightblue" points="298.32,-463.301 291.23,-471.174 301.682,-469.441 298.32,-463.301"/>
</g>
<!-- Node106&#45;&gt;Node103 -->
<g id="edge10" class="edge"><title>Node106&#45;&gt;Node103</title>
<path fill="none" stroke="midnightblue" d="M299.852,-416.848C302.319,-415.491 304.711,-414.044 307,-412.5 353.319,-381.263 389.059,-322.223 401.872,-299.116"/>
<polygon fill="midnightblue" stroke="midnightblue" points="298.074,-413.823 290.647,-421.378 301.165,-420.103 298.074,-413.823"/>
</g>
<!-- Node107&#45;&gt;Node103 -->
<g id="edge12" class="edge"><title>Node107&#45;&gt;Node103</title>
<path fill="none" stroke="midnightblue" d="M295.472,-368.766C299.429,-367.124 303.301,-365.369 307,-363.5 342.856,-345.386 379.398,-314.53 396.701,-299.01"/>
<polygon fill="midnightblue" stroke="midnightblue" points="294.179,-365.514 286.125,-372.397 296.714,-372.039 294.179,-365.514"/>
</g>
<!-- Node108&#45;&gt;Node103 -->
<g id="edge14" class="edge"><title>Node108&#45;&gt;Node103</title>
<path fill="none" stroke="midnightblue" d="M293.527,-320.737C320.217,-313.39 350.089,-305.166 372.483,-299.002"/>
<polygon fill="midnightblue" stroke="midnightblue" points="292.571,-317.37 283.858,-323.399 294.429,-324.119 292.571,-317.37"/>
</g>
<!-- Node109&#45;&gt;Node103 -->
<g id="edge16" class="edge"><title>Node109&#45;&gt;Node103</title>
<path fill="none" stroke="midnightblue" d="M317.206,-289.5C325.857,-289.5 334.519,-289.5 342.864,-289.5"/>
<polygon fill="midnightblue" stroke="midnightblue" points="317.073,-286 307.073,-289.5 317.073,-293 317.073,-286"/>
</g>
<!-- Node110&#45;&gt;Node103 -->
<g id="edge18" class="edge"><title>Node110&#45;&gt;Node103</title>
<path fill="none" stroke="midnightblue" d="M277.42,-257.469C306.031,-264.541 341.761,-273.374 368.452,-279.971"/>
<polygon fill="midnightblue" stroke="midnightblue" points="278.171,-254.049 267.623,-255.047 276.491,-260.845 278.171,-254.049"/>
</g>
<!-- Node111&#45;&gt;Node103 -->
<g id="edge20" class="edge"><title>Node111&#45;&gt;Node103</title>
<path fill="none" stroke="midnightblue" d="M291.648,-220.025C296.906,-222.047 302.086,-224.21 307,-226.5 340.105,-241.931 375.519,-266.361 394.026,-279.816"/>
<polygon fill="midnightblue" stroke="midnightblue" points="292.733,-216.695 282.139,-216.539 290.324,-223.267 292.733,-216.695"/>
</g>
<!-- Node112&#45;&gt;Node103 -->
<g id="edge22" class="edge"><title>Node112&#45;&gt;Node103</title>
<path fill="none" stroke="midnightblue" d="M293.055,-170.538C297.922,-172.538 302.633,-174.844 307,-177.5 351.764,-204.728 387.882,-258.244 401.335,-279.983"/>
<polygon fill="midnightblue" stroke="midnightblue" points="294.146,-167.21 283.552,-167.054 291.736,-173.782 294.146,-167.21"/>
</g>
<!-- Node113&#45;&gt;Node103 -->
<g id="edge24" class="edge"><title>Node113&#45;&gt;Node103</title>
<path fill="none" stroke="midnightblue" d="M299.195,-133.29C301.913,-134.896 304.529,-136.629 307,-138.5 359.143,-177.976 392.569,-252.987 403.271,-279.728"/>
<polygon fill="midnightblue" stroke="midnightblue" points="300.701,-130.127 290.219,-128.582 297.45,-136.326 300.701,-130.127"/>
</g>
<!-- Node114&#45;&gt;Node103 -->
<g id="edge26" class="edge"><title>Node114&#45;&gt;Node103</title>
<path fill="none" stroke="midnightblue" d="M300.724,-84.7365C302.915,-86.2142 305.016,-87.7994 307,-89.5 370.369,-143.82 397.832,-247.967 405.003,-279.933"/>
<polygon fill="midnightblue" stroke="midnightblue" points="302.281,-81.5922 291.884,-79.5535 298.741,-87.6307 302.281,-81.5922"/>
</g>
<!-- Node115&#45;&gt;Node103 -->
<g id="edge28" class="edge"><title>Node115&#45;&gt;Node103</title>
<path fill="none" stroke="midnightblue" d="M301.646,-36.0681C303.517,-37.4505 305.308,-38.9257 307,-40.5 381.68,-110.007 401.77,-242.817 406.017,-279.755"/>
<polygon fill="midnightblue" stroke="midnightblue" points="303.31,-32.9789 292.99,-30.5831 299.563,-38.8919 303.31,-32.9789"/>
</g>
</g>
</svg>
        <g id="navigator" transform="translate(0 0)" fill="#404254">
                <rect fill="#f2f5e9" fill-opacity="0.5" stroke="#606060" stroke-width=".5" x="0" y="0" width="60" height="60"/>
                <use id="zoomplus" xlink:href="#zoomPlus" x="17" y="9" onmousedown="handleZoom(evt,'in')"/>
                <use id="zoomminus" xlink:href="#zoomMin" x="42" y="9" onmousedown="handleZoom(evt,'out')"/>
                <use id="reset" xlink:href="#resetDef" x="30" y="36" onmousedown="handleReset()"/>
                <g id="arrowUp" xlink:href="#dirArrow" transform="translate(30 24)" onmousedown="handlePan(0,-1)">
                  <use xlink:href="#rim" fill="#404040">
                        <set attributeName="fill" to="#808080" begin="arrowUp.mouseover" end="arrowUp.mouseout"/>
                  </use>
                  <path fill="none" stroke="white" stroke-width="1.5" d="M0,-3.0v7 M-2.5,-0.5L0,-3.0L2.5,-0.5"/>
                </g>
                <g id="arrowRight" xlink:href="#dirArrow" transform="rotate(90) translate(36 -43)" onmousedown="handlePan(1,0)">
                  <use xlink:href="#rim" fill="#404040">
                        <set attributeName="fill" to="#808080" begin="arrowRight.mouseover" end="arrowRight.mouseout"/>
                  </use>
                  <path fill="none" stroke="white" stroke-width="1.5" d="M0,-3.0v7 M-2.5,-0.5L0,-3.0L2.5,-0.5"/>
                </g>
                <g id="arrowDown" xlink:href="#dirArrow" transform="rotate(180) translate(-30 -48)" onmousedown="handlePan(0,1)">
                  <use xlink:href="#rim" fill="#404040">
                        <set attributeName="fill" to="#808080" begin="arrowDown.mouseover" end="arrowDown.mouseout"/>
                  </use>
                  <path fill="none" stroke="white" stroke-width="1.5" d="M0,-3.0v7 M-2.5,-0.5L0,-3.0L2.5,-0.5"/>
                </g>
                <g id="arrowLeft" xlink:href="#dirArrow" transform="rotate(270) translate(-36 17)" onmousedown="handlePan(-1,0)">
                  <use xlink:href="#rim" fill="#404040">
                        <set attributeName="fill" to="#808080" begin="arrowLeft.mouseover" end="arrowLeft.mouseout"/>
                  </use>
                  <path fill="none" stroke="white" stroke-width="1.5" d="M0,-3.0v7 M-2.5,-0.5L0,-3.0L2.5,-0.5"/>
                </g>
        </g>
        <svg viewBox="0 0 15 15" width="100%" height="30px" preserveAspectRatio="xMaxYMin meet">
         <g id="arrow_out" transform="scale(0.3 0.3)">
          <a xlink:href="class_cool_board_actor_a958786ff01ea1056ee72c72d439f86da_icgraph_org.svg" target="_base">
           <rect id="button" ry="5" rx="5" y="6" x="6" height="38" width="38"
                fill="#f2f5e9" fill-opacity="0.5" stroke="#606060" stroke-width="1.0"/>
           <path id="arrow"
             d="M 11.500037,31.436501 C 11.940474,20.09759 22.043105,11.32322 32.158766,21.979434 L 37.068811,17.246167 C 37.068811,17.246167 37.088388,32 37.088388,32 L 22.160133,31.978069 C 22.160133,31.978069 26.997745,27.140456 26.997745,27.140456 C 18.528582,18.264221 13.291696,25.230495 11.500037,31.436501 z"
             style="fill:#404040;"/>
          </a>
         </g>
        </svg>
</svg>
