<?xml version="1.0" encoding="UTF-8" standalone="no"?>
<!DOCTYPE svg PUBLIC "-//W3C//DTD SVG 1.1//EN"
 "http://www.w3.org/Graphics/SVG/1.1/DTD/svg11.dtd">
<!-- Generated by graphviz version 2.38.0 (20140413.2041)
 -->
<!-- Title: CoolBoard::userData Pages: 1 -->
<svg width="576pt" height="66pt"
 viewBox="0.00 0.00 576.00 66.00" xmlns="http://www.w3.org/2000/svg" xmlns:xlink="http://www.w3.org/1999/xlink">
<g id="graph0" class="graph" transform="scale(1 1) rotate(0) translate(4 62)">
<title>CoolBoard::userData</title>
<polygon fill="white" stroke="none" points="-4,4 -4,-62 572,-62 572,4 -4,4"/>
<!-- Node410 -->
<g id="node1" class="node"><title>Node410</title>
<polygon fill="#bfbfbf" stroke="black" points="0,-19.5 0,-38.5 108,-38.5 108,-19.5 0,-19.5"/>
<text text-anchor="middle" x="54" y="-26.5" font-family="Helvetica,sans-Serif" font-size="10.00">CoolBoard::userData</text>
</g>
<!-- Node411 -->
<g id="node2" class="node"><title>Node411</title>
<g id="a_node2"><a xlink:href="class_cool_m_q_t_t.html#a373cc92fca7760d886f02d8a6e5b3f63" target="_top" xlink:title="CoolMQTT::getUser">
<polygon fill="white" stroke="black" points="148,-38.5 148,-57.5 253,-57.5 253,-38.5 148,-38.5"/>
<text text-anchor="middle" x="200.5" y="-45.5" font-family="Helvetica,sans-Serif" font-size="10.00">CoolMQTT::getUser</text>
</a>
</g>
</g>
<!-- Node410&#45;&gt;Node411 -->
<g id="edge1" class="edge"><title>Node410&#45;&gt;Node411</title>
<path fill="none" stroke="midnightblue" d="M108.396,-36.0209C117.943,-37.2762 127.962,-38.5936 137.721,-39.8768"/>
<polygon fill="midnightblue" stroke="midnightblue" points="137.395,-43.364 147.766,-41.1976 138.307,-36.4237 137.395,-43.364"/>
</g>
<!-- Node412 -->
<g id="node3" class="node"><title>Node412</title>
<g id="a_node3"><a xlink:href="class_cool_time.html#ac4f32ee513c1328d984306645e8785a4" target="_top" xlink:title="CoolTime::getESDate">
<polygon fill="white" stroke="black" points="144,-0.5 144,-19.5 257,-19.5 257,-0.5 144,-0.5"/>
<text text-anchor="middle" x="200.5" y="-7.5" font-family="Helvetica,sans-Serif" font-size="10.00">CoolTime::getESDate</text>
</a>
</g>
</g>
<!-- Node410&#45;&gt;Node412 -->
<g id="edge2" class="edge"><title>Node410&#45;&gt;Node412</title>
<path fill="none" stroke="midnightblue" d="M108.396,-21.9791C116.717,-20.885 125.397,-19.7437 133.95,-18.619"/>
<polygon fill="midnightblue" stroke="midnightblue" points="134.445,-22.0841 143.904,-17.3102 133.533,-15.1438 134.445,-22.0841"/>
</g>
<!-- Node413 -->
<g id="node4" class="node"><title>Node413</title>
<g id="a_node4"><a xlink:href="class_cool_time.html#a7a7501c5ca77dd1248bea704c44f986c" target="_top" xlink:title="CoolTime::getTimeDate">
<polygon fill="white" stroke="black" points="293,-19.5 293,-38.5 414,-38.5 414,-19.5 293,-19.5"/>
<text text-anchor="middle" x="353.5" y="-26.5" font-family="Helvetica,sans-Serif" font-size="10.00">CoolTime::getTimeDate</text>
</a>
</g>
</g>
<!-- Node412&#45;&gt;Node413 -->
<g id="edge3" class="edge"><title>Node412&#45;&gt;Node413</title>
<path fill="none" stroke="midnightblue" d="M257.298,-17.0209C265.631,-18.0694 274.308,-19.1613 282.883,-20.2403"/>
<polygon fill="midnightblue" stroke="midnightblue" points="282.518,-23.7218 292.877,-21.4977 283.392,-16.7766 282.518,-23.7218"/>
</g>
<!-- Node414 -->
<g id="node5" class="node"><title>Node414</title>
<g id="a_node5"><a xlink:href="class_cool_time.html#acd537cd4210d7bde4e1f5c47d2ac0456" target="_top" xlink:title="CoolTime::formatDigits">
<polygon fill="white" stroke="black" points="450,-0.5 450,-19.5 568,-19.5 568,-0.5 450,-0.5"/>
<text text-anchor="middle" x="509" y="-7.5" font-family="Helvetica,sans-Serif" font-size="10.00">CoolTime::formatDigits</text>
</a>
</g>
</g>
<!-- Node412&#45;&gt;Node414 -->
<g id="edge5" class="edge"><title>Node412&#45;&gt;Node414</title>
<path fill="none" stroke="midnightblue" d="M257.005,-10C308.324,-10 384.741,-10 439.766,-10"/>
<polygon fill="midnightblue" stroke="midnightblue" points="439.781,-13.5001 449.781,-10 439.781,-6.5001 439.781,-13.5001"/>
</g>
<!-- Node413&#45;&gt;Node414 -->
<g id="edge4" class="edge"><title>Node413&#45;&gt;Node414</title>
<path fill="none" stroke="midnightblue" d="M414.287,-21.5997C422.697,-20.5587 431.393,-19.4823 439.943,-18.424"/>
<polygon fill="midnightblue" stroke="midnightblue" points="440.394,-21.895 449.888,-17.193 439.534,-14.948 440.394,-21.895"/>
</g>
</g>
</svg>
