<?xml version="1.0" encoding="UTF-8" standalone="no"?>
<!DOCTYPE svg PUBLIC "-//W3C//DTD SVG 1.1//EN"
 "http://www.w3.org/Graphics/SVG/1.1/DTD/svg11.dtd">
<!-- Generated by graphviz version 2.38.0 (20140413.2041)
 -->
<!-- Title: CoolBoardActor::doAction Pages: 1 -->
<svg width="481pt" height="548pt"
 viewBox="0.00 0.00 481.00 547.50" xmlns="http://www.w3.org/2000/svg" xmlns:xlink="http://www.w3.org/1999/xlink">
<g id="graph0" class="graph" transform="scale(1 1) rotate(0) translate(4 543.5)">
<title>CoolBoardActor::doAction</title>
<polygon fill="white" stroke="none" points="-4,4 -4,-543.5 477,-543.5 477,4 -4,4"/>
<!-- Node6 -->
<g id="node1" class="node"><title>Node6</title>
<polygon fill="#bfbfbf" stroke="black" points="0,-273 0,-292 130,-292 130,-273 0,-273"/>
<text text-anchor="middle" x="65" y="-280" font-family="Helvetica,sans-Serif" font-size="10.00">CoolBoardActor::doAction</text>
</g>
<!-- Node7 -->
<g id="node2" class="node"><title>Node7</title>
<g id="a_node2"><a xlink:href="class_cool_board_actor.html#a81229abf5895f4d3b0355050b822b438" target="_top" xlink:title="CoolBoardActor::normalAction">
<polygon fill="white" stroke="black" points="170.5,-520 170.5,-539 319.5,-539 319.5,-520 170.5,-520"/>
<text text-anchor="middle" x="245" y="-527" font-family="Helvetica,sans-Serif" font-size="10.00">CoolBoardActor::normalAction</text>
</a>
</g>
</g>
<!-- Node6&#45;&gt;Node7 -->
<g id="edge1" class="edge"><title>Node6&#45;&gt;Node7</title>
<path fill="none" stroke="midnightblue" d="M67.185,-292.076C72.0564,-327.181 93.8224,-449.927 166,-510.5 168.008,-512.186 170.143,-513.726 172.374,-515.133"/>
<polygon fill="midnightblue" stroke="midnightblue" points="170.924,-518.326 181.397,-519.929 174.21,-512.145 170.924,-518.326"/>
</g>
<!-- Node9 -->
<g id="node4" class="node"><title>Node9</title>
<g id="a_node4"><a xlink:href="class_cool_board_actor.html#aae82b2e62f91be009d40f93c206f9bda" target="_top" xlink:title="CoolBoardActor::inverted\lAction">
<polygon fill="white" stroke="black" points="182,-470.5 182,-500.5 308,-500.5 308,-470.5 182,-470.5"/>
<text text-anchor="start" x="190" y="-488.5" font-family="Helvetica,sans-Serif" font-size="10.00">CoolBoardActor::inverted</text>
<text text-anchor="middle" x="245" y="-477.5" font-family="Helvetica,sans-Serif" font-size="10.00">Action</text>
</a>
</g>
</g>
<!-- Node6&#45;&gt;Node9 -->
<g id="edge3" class="edge"><title>Node6&#45;&gt;Node9</title>
<path fill="none" stroke="midnightblue" d="M68.6461,-292.341C77.2482,-322.433 107.316,-414.053 166,-461.5 168.073,-463.176 170.262,-464.735 172.539,-466.185"/>
<polygon fill="midnightblue" stroke="midnightblue" points="171.258,-469.477 181.702,-471.259 174.649,-463.353 171.258,-469.477"/>
</g>
<!-- Node10 -->
<g id="node5" class="node"><title>Node10</title>
<g id="a_node5"><a xlink:href="class_cool_board_actor.html#a6d93a24502c56ced2ef7675c913a276b" target="_top" xlink:title="CoolBoardActor::mixedHour\lAction">
<polygon fill="white" stroke="black" points="175.5,-421.5 175.5,-451.5 314.5,-451.5 314.5,-421.5 175.5,-421.5"/>
<text text-anchor="start" x="183.5" y="-439.5" font-family="Helvetica,sans-Serif" font-size="10.00">CoolBoardActor::mixedHour</text>
<text text-anchor="middle" x="245" y="-428.5" font-family="Helvetica,sans-Serif" font-size="10.00">Action</text>
</a>
</g>
</g>
<!-- Node6&#45;&gt;Node10 -->
<g id="edge5" class="edge"><title>Node6&#45;&gt;Node10</title>
<path fill="none" stroke="midnightblue" d="M70.84,-292.202C83.2605,-316.116 118.644,-378.348 166,-411.5 168.738,-413.416 171.63,-415.192 174.625,-416.836"/>
<polygon fill="midnightblue" stroke="midnightblue" points="173.352,-420.11 183.87,-421.383 176.441,-413.828 173.352,-420.11"/>
</g>
<!-- Node11 -->
<g id="node6" class="node"><title>Node11</title>
<g id="a_node6"><a xlink:href="class_cool_board_actor.html#adf3b4e15b9d73681082112adf8ef95cb" target="_top" xlink:title="CoolBoardActor::hourAction">
<polygon fill="white" stroke="black" points="176,-383 176,-402 314,-402 314,-383 176,-383"/>
<text text-anchor="middle" x="245" y="-390" font-family="Helvetica,sans-Serif" font-size="10.00">CoolBoardActor::hourAction</text>
</a>
</g>
</g>
<!-- Node6&#45;&gt;Node11 -->
<g id="edge7" class="edge"><title>Node6&#45;&gt;Node11</title>
<path fill="none" stroke="midnightblue" d="M73.6799,-292.166C89.0955,-310.886 125.79,-352.124 166,-373.5 170.311,-375.792 174.903,-377.812 179.618,-379.593"/>
<polygon fill="midnightblue" stroke="midnightblue" points="178.824,-383.019 189.419,-382.92 181.075,-376.391 178.824,-383.019"/>
</g>
<!-- Node12 -->
<g id="node7" class="node"><title>Node12</title>
<g id="a_node7"><a xlink:href="class_cool_board_actor.html#a2b8a79a27288d5246e3e3860ae76770d" target="_top" xlink:title="CoolBoardActor::mixedMinute\lAction">
<polygon fill="white" stroke="black" points="171.5,-333.5 171.5,-363.5 318.5,-363.5 318.5,-333.5 171.5,-333.5"/>
<text text-anchor="start" x="179.5" y="-351.5" font-family="Helvetica,sans-Serif" font-size="10.00">CoolBoardActor::mixedMinute</text>
<text text-anchor="middle" x="245" y="-340.5" font-family="Helvetica,sans-Serif" font-size="10.00">Action</text>
</a>
</g>
</g>
<!-- Node6&#45;&gt;Node12 -->
<g id="edge9" class="edge"><title>Node6&#45;&gt;Node12</title>
<path fill="none" stroke="midnightblue" d="M88.0458,-292.126C108.179,-300.775 138.852,-313.602 166,-323.5 172.283,-325.791 178.891,-328.084 185.491,-330.301"/>
<polygon fill="midnightblue" stroke="midnightblue" points="184.524,-333.667 195.117,-333.485 186.722,-327.022 184.524,-333.667"/>
</g>
<!-- Node13 -->
<g id="node8" class="node"><title>Node13</title>
<g id="a_node8"><a xlink:href="class_cool_board_actor.html#af000944ce0b9abb9c6ee4b8fe839fb36" target="_top" xlink:title="CoolBoardActor::minuteAction">
<polygon fill="white" stroke="black" points="170.5,-295 170.5,-314 319.5,-314 319.5,-295 170.5,-295"/>
<text text-anchor="middle" x="245" y="-302" font-family="Helvetica,sans-Serif" font-size="10.00">CoolBoardActor::minuteAction</text>
</a>
</g>
</g>
<!-- Node6&#45;&gt;Node13 -->
<g id="edge11" class="edge"><title>Node6&#45;&gt;Node13</title>
<path fill="none" stroke="midnightblue" d="M130.011,-290.411C139.803,-291.622 150.035,-292.886 160.177,-294.14"/>
<polygon fill="midnightblue" stroke="midnightblue" points="159.915,-297.634 170.269,-295.387 160.774,-290.687 159.915,-297.634"/>
</g>
<!-- Node14 -->
<g id="node9" class="node"><title>Node14</title>
<g id="a_node9"><a xlink:href="class_cool_board_actor.html#ae6b2a17b0e73cfeb353ded2cc4e08109" target="_top" xlink:title="CoolBoardActor::mixedHour\lMinuteAction">
<polygon fill="white" stroke="black" points="175.5,-245.5 175.5,-275.5 314.5,-275.5 314.5,-245.5 175.5,-245.5"/>
<text text-anchor="start" x="183.5" y="-263.5" font-family="Helvetica,sans-Serif" font-size="10.00">CoolBoardActor::mixedHour</text>
<text text-anchor="middle" x="245" y="-252.5" font-family="Helvetica,sans-Serif" font-size="10.00">MinuteAction</text>
</a>
</g>
</g>
<!-- Node6&#45;&gt;Node14 -->
<g id="edge13" class="edge"><title>Node6&#45;&gt;Node14</title>
<path fill="none" stroke="midnightblue" d="M130.011,-274.589C141.42,-273.178 153.425,-271.695 165.19,-270.241"/>
<polygon fill="midnightblue" stroke="midnightblue" points="165.95,-273.673 175.445,-268.973 165.091,-266.726 165.95,-273.673"/>
</g>
<!-- Node15 -->
<g id="node10" class="node"><title>Node15</title>
<g id="a_node10"><a xlink:href="class_cool_board_actor.html#a1eb1fbca19bc80aad20d2686d52317f8" target="_top" xlink:title="CoolBoardActor::hourMinute\lAction">
<polygon fill="white" stroke="black" points="175,-196.5 175,-226.5 315,-226.5 315,-196.5 175,-196.5"/>
<text text-anchor="start" x="183" y="-214.5" font-family="Helvetica,sans-Serif" font-size="10.00">CoolBoardActor::hourMinute</text>
<text text-anchor="middle" x="245" y="-203.5" font-family="Helvetica,sans-Serif" font-size="10.00">Action</text>
</a>
</g>
</g>
<!-- Node6&#45;&gt;Node15 -->
<g id="edge15" class="edge"><title>Node6&#45;&gt;Node15</title>
<path fill="none" stroke="midnightblue" d="M84.8751,-272.984C104.764,-263.156 137.144,-247.714 166,-236.5 171.828,-234.235 177.955,-232.011 184.106,-229.88"/>
<polygon fill="midnightblue" stroke="midnightblue" points="185.402,-233.136 193.753,-226.616 183.159,-226.506 185.402,-233.136"/>
</g>
<!-- Node16 -->
<g id="node11" class="node"><title>Node16</title>
<g id="a_node11"><a xlink:href="class_cool_board_actor.html#a216aa7a0cfd1f31d0025cc91c2ecd5dd" target="_top" xlink:title="CoolBoardActor::mixedTemporal\lActionOn">
<polygon fill="white" stroke="black" points="166,-147.5 166,-177.5 324,-177.5 324,-147.5 166,-147.5"/>
<text text-anchor="start" x="174" y="-165.5" font-family="Helvetica,sans-Serif" font-size="10.00">CoolBoardActor::mixedTemporal</text>
<text text-anchor="middle" x="245" y="-154.5" font-family="Helvetica,sans-Serif" font-size="10.00">ActionOn</text>
</a>
</g>
</g>
<!-- Node6&#45;&gt;Node16 -->
<g id="edge17" class="edge"><title>Node6&#45;&gt;Node16</title>
<path fill="none" stroke="midnightblue" d="M73.485,-272.944C88.8343,-253.965 125.829,-211.306 166,-187.5 169.578,-185.379 173.357,-183.417 177.244,-181.605"/>
<polygon fill="midnightblue" stroke="midnightblue" points="178.659,-184.806 186.466,-177.643 175.896,-178.374 178.659,-184.806"/>
</g>
<!-- Node17 -->
<g id="node12" class="node"><title>Node17</title>
<g id="a_node12"><a xlink:href="class_cool_board_actor.html#ada603785c203fdb0b41cc967d70bdc4d" target="_top" xlink:title="CoolBoardActor::temporal\lActionOn">
<polygon fill="white" stroke="black" points="180.5,-98.5 180.5,-128.5 309.5,-128.5 309.5,-98.5 180.5,-98.5"/>
<text text-anchor="start" x="188.5" y="-116.5" font-family="Helvetica,sans-Serif" font-size="10.00">CoolBoardActor::temporal</text>
<text text-anchor="middle" x="245" y="-105.5" font-family="Helvetica,sans-Serif" font-size="10.00">ActionOn</text>
</a>
</g>
</g>
<!-- Node6&#45;&gt;Node17 -->
<g id="edge19" class="edge"><title>Node6&#45;&gt;Node17</title>
<path fill="none" stroke="midnightblue" d="M70.0217,-272.811C81.2286,-246.996 115.351,-175.974 166,-138.5 168.629,-136.555 171.416,-134.757 174.31,-133.096"/>
<polygon fill="midnightblue" stroke="midnightblue" points="175.957,-136.185 183.266,-128.514 172.769,-129.953 175.957,-136.185"/>
</g>
<!-- Node18 -->
<g id="node13" class="node"><title>Node18</title>
<g id="a_node13"><a xlink:href="class_cool_board_actor.html#a00b29c4abf0388551aa6812372113cf1" target="_top" xlink:title="CoolBoardActor::mixedTemporal\lActionOff">
<polygon fill="white" stroke="black" points="166,-49.5 166,-79.5 324,-79.5 324,-49.5 166,-49.5"/>
<text text-anchor="start" x="174" y="-67.5" font-family="Helvetica,sans-Serif" font-size="10.00">CoolBoardActor::mixedTemporal</text>
<text text-anchor="middle" x="245" y="-56.5" font-family="Helvetica,sans-Serif" font-size="10.00">ActionOff</text>
</a>
</g>
</g>
<!-- Node6&#45;&gt;Node18 -->
<g id="edge21" class="edge"><title>Node6&#45;&gt;Node18</title>
<path fill="none" stroke="midnightblue" d="M68.2102,-272.828C75.8783,-241.467 104.308,-141.616 166,-89.5 167.996,-87.8138 170.107,-86.2408 172.307,-84.7735"/>
<polygon fill="midnightblue" stroke="midnightblue" points="174.286,-87.672 181.174,-79.6221 170.769,-81.6193 174.286,-87.672"/>
</g>
<!-- Node19 -->
<g id="node14" class="node"><title>Node19</title>
<g id="a_node14"><a xlink:href="class_cool_board_actor.html#a02698bd647df49cabbe74513d4d88918" target="_top" xlink:title="CoolBoardActor::temporal\lActionOff">
<polygon fill="white" stroke="black" points="180.5,-0.5 180.5,-30.5 309.5,-30.5 309.5,-0.5 180.5,-0.5"/>
<text text-anchor="start" x="188.5" y="-18.5" font-family="Helvetica,sans-Serif" font-size="10.00">CoolBoardActor::temporal</text>
<text text-anchor="middle" x="245" y="-7.5" font-family="Helvetica,sans-Serif" font-size="10.00">ActionOff</text>
</a>
</g>
</g>
<!-- Node6&#45;&gt;Node19 -->
<g id="edge23" class="edge"><title>Node6&#45;&gt;Node19</title>
<path fill="none" stroke="midnightblue" d="M67.1386,-272.526C71.8483,-235.925 93.1215,-107.656 166,-40.5 167.742,-38.895 169.587,-37.3929 171.515,-35.9874"/>
<polygon fill="midnightblue" stroke="midnightblue" points="173.803,-38.6852 180.434,-30.4216 170.097,-32.7467 173.803,-38.6852"/>
</g>
<!-- Node8 -->
<g id="node3" class="node"><title>Node8</title>
<g id="a_node3"><a xlink:href="class_cool_board_actor.html#a958786ff01ea1056ee72c72d439f86da" target="_top" xlink:title="CoolBoardActor::write">
<polygon fill="white" stroke="black" points="360,-273 360,-292 473,-292 473,-273 360,-273"/>
<text text-anchor="middle" x="416.5" y="-280" font-family="Helvetica,sans-Serif" font-size="10.00">CoolBoardActor::write</text>
</a>
</g>
</g>
<!-- Node7&#45;&gt;Node8 -->
<g id="edge2" class="edge"><title>Node7&#45;&gt;Node8</title>
<path fill="none" stroke="midnightblue" d="M309.116,-519.903C314.504,-517.421 319.576,-514.334 324,-510.5 388.641,-454.483 408.157,-346.313 413.579,-302.077"/>
<polygon fill="midnightblue" stroke="midnightblue" points="417.067,-302.38 414.695,-292.055 410.11,-301.606 417.067,-302.38"/>
</g>
<!-- Node9&#45;&gt;Node8 -->
<g id="edge4" class="edge"><title>Node9&#45;&gt;Node8</title>
<path fill="none" stroke="midnightblue" d="M308.056,-471.63C313.788,-468.848 319.225,-465.508 324,-461.5 375.356,-418.386 401.163,-339.167 410.845,-302.318"/>
<polygon fill="midnightblue" stroke="midnightblue" points="414.312,-302.88 413.342,-292.33 407.521,-301.182 414.312,-302.88"/>
</g>
<!-- Node10&#45;&gt;Node8 -->
<g id="edge6" class="edge"><title>Node10&#45;&gt;Node8</title>
<path fill="none" stroke="midnightblue" d="M306.695,-421.433C312.823,-418.647 318.722,-415.364 324,-411.5 364.251,-382.028 393.457,-329.413 407.021,-301.349"/>
<polygon fill="midnightblue" stroke="midnightblue" points="410.23,-302.75 411.302,-292.209 403.891,-299.78 410.23,-302.75"/>
</g>
<!-- Node11&#45;&gt;Node8 -->
<g id="edge8" class="edge"><title>Node11&#45;&gt;Node8</title>
<path fill="none" stroke="midnightblue" d="M301.558,-382.947C309.359,-380.48 317.07,-377.384 324,-373.5 357.176,-354.908 386.586,-320.961 402.637,-300.197"/>
<polygon fill="midnightblue" stroke="midnightblue" points="405.449,-302.282 408.671,-292.188 399.858,-298.07 405.449,-302.282"/>
</g>
<!-- Node12&#45;&gt;Node8 -->
<g id="edge10" class="edge"><title>Node12&#45;&gt;Node8</title>
<path fill="none" stroke="midnightblue" d="M295.803,-333.45C305.233,-330.343 314.97,-326.958 324,-323.5 345.26,-315.359 368.678,-304.835 386.5,-296.488"/>
<polygon fill="midnightblue" stroke="midnightblue" points="388.231,-299.542 395.777,-292.104 385.24,-293.213 388.231,-299.542"/>
</g>
<!-- Node13&#45;&gt;Node8 -->
<g id="edge12" class="edge"><title>Node13&#45;&gt;Node8</title>
<path fill="none" stroke="midnightblue" d="M319.359,-294.978C329.453,-293.668 339.766,-292.33 349.712,-291.039"/>
<polygon fill="midnightblue" stroke="midnightblue" points="350.452,-294.472 359.919,-289.714 349.551,-287.53 350.452,-294.472"/>
</g>
<!-- Node14&#45;&gt;Node8 -->
<g id="edge14" class="edge"><title>Node14&#45;&gt;Node8</title>
<path fill="none" stroke="midnightblue" d="M314.942,-269.448C326.497,-270.948 338.458,-272.5 349.925,-273.989"/>
<polygon fill="midnightblue" stroke="midnightblue" points="349.485,-277.461 359.853,-275.277 350.386,-270.519 349.485,-277.461"/>
</g>
<!-- Node15&#45;&gt;Node8 -->
<g id="edge16" class="edge"><title>Node15&#45;&gt;Node8</title>
<path fill="none" stroke="midnightblue" d="M296.763,-226.504C305.92,-229.568 315.312,-232.949 324,-236.5 346.496,-245.695 371.055,-258.185 389.06,-267.83"/>
<polygon fill="midnightblue" stroke="midnightblue" points="387.875,-271.168 398.334,-272.856 391.21,-265.014 387.875,-271.168"/>
</g>
<!-- Node16&#45;&gt;Node8 -->
<g id="edge18" class="edge"><title>Node16&#45;&gt;Node8</title>
<path fill="none" stroke="midnightblue" d="M304.105,-177.541C311.046,-180.366 317.845,-183.665 324,-187.5 357.162,-208.16 386.766,-243.482 402.823,-264.743"/>
<polygon fill="midnightblue" stroke="midnightblue" points="400.094,-266.94 408.846,-272.911 405.728,-262.785 400.094,-266.94"/>
</g>
<!-- Node17&#45;&gt;Node8 -->
<g id="edge20" class="edge"><title>Node17&#45;&gt;Node8</title>
<path fill="none" stroke="midnightblue" d="M307.69,-128.672C313.493,-131.429 319.047,-134.676 324,-138.5 367.414,-172.017 395.895,-232.386 408.333,-263.226"/>
<polygon fill="midnightblue" stroke="midnightblue" points="405.174,-264.76 412.061,-272.811 411.697,-262.222 405.174,-264.76"/>
</g>
<!-- Node18&#45;&gt;Node8 -->
<g id="edge22" class="edge"><title>Node18&#45;&gt;Node8</title>
<path fill="none" stroke="midnightblue" d="M309.357,-79.6549C314.631,-82.4078 319.613,-85.6594 324,-89.5 378.341,-137.077 402.96,-223.979 411.627,-262.826"/>
<polygon fill="midnightblue" stroke="midnightblue" points="408.251,-263.779 413.741,-272.841 415.1,-262.334 408.251,-263.779"/>
</g>
<!-- Node19&#45;&gt;Node8 -->
<g id="edge24" class="edge"><title>Node19&#45;&gt;Node8</title>
<path fill="none" stroke="midnightblue" d="M309.694,-30.2848C314.899,-33.1139 319.773,-36.4845 324,-40.5 389.446,-102.671 408.527,-216.369 413.706,-262.378"/>
<polygon fill="midnightblue" stroke="midnightblue" points="410.246,-262.951 414.743,-272.544 417.21,-262.241 410.246,-262.951"/>
</g>
</g>
</svg>
