<?xml version="1.0" encoding="UTF-8" standalone="no"?>
<!DOCTYPE svg PUBLIC "-//W3C//DTD SVG 1.1//EN"
 "http://www.w3.org/Graphics/SVG/1.1/DTD/svg11.dtd">
<!-- Generated by graphviz version 2.38.0 (20140413.2041)
 -->
<!-- Title: CoolPubSubClient::CoolPubSubClient Pages: 1 -->
<svg width="339pt" height="104pt"
 viewBox="0.00 0.00 339.00 104.00" xmlns="http://www.w3.org/2000/svg" xmlns:xlink="http://www.w3.org/1999/xlink">
<g id="graph0" class="graph" transform="scale(1 1) rotate(0) translate(4 100)">
<title>CoolPubSubClient::CoolPubSubClient</title>
<polygon fill="white" stroke="none" points="-4,4 -4,-100 335,-100 335,4 -4,4"/>
<!-- Node55 -->
<g id="node1" class="node"><title>Node55</title>
<polygon fill="#bfbfbf" stroke="black" points="0,-33 0,-63 140,-63 140,-33 0,-33"/>
<text text-anchor="start" x="8" y="-51" font-family="Helvetica,sans-Serif" font-size="10.00">CoolPubSubClient::CoolPub</text>
<text text-anchor="middle" x="70" y="-40" font-family="Helvetica,sans-Serif" font-size="10.00">SubClient</text>
</g>
<!-- Node56 -->
<g id="node2" class="node"><title>Node56</title>
<g id="a_node2"><a xlink:href="class_cool_pub_sub_client.html#a947e70c394c66c7d08d0c53caf8425e3" target="_top" xlink:title="CoolPubSubClient::setServer">
<polygon fill="white" stroke="black" points="181,-76.5 181,-95.5 326,-95.5 326,-76.5 181,-76.5"/>
<text text-anchor="middle" x="253.5" y="-83.5" font-family="Helvetica,sans-Serif" font-size="10.00">CoolPubSubClient::setServer</text>
</a>
</g>
</g>
<!-- Node55&#45;&gt;Node56 -->
<g id="edge1" class="edge"><title>Node55&#45;&gt;Node56</title>
<path fill="none" stroke="midnightblue" d="M140.135,-62.4746C158.897,-66.4027 178.968,-70.6049 196.88,-74.355"/>
<polygon fill="midnightblue" stroke="midnightblue" points="196.362,-77.8225 206.867,-76.4461 197.797,-70.971 196.362,-77.8225"/>
</g>
<!-- Node57 -->
<g id="node3" class="node"><title>Node57</title>
<g id="a_node3"><a xlink:href="class_cool_pub_sub_client.html#ac5cab7658f1bdded32131241e468e661" target="_top" xlink:title="CoolPubSubClient::setCallback">
<polygon fill="white" stroke="black" points="176,-38.5 176,-57.5 331,-57.5 331,-38.5 176,-38.5"/>
<text text-anchor="middle" x="253.5" y="-45.5" font-family="Helvetica,sans-Serif" font-size="10.00">CoolPubSubClient::setCallback</text>
</a>
</g>
</g>
<!-- Node55&#45;&gt;Node57 -->
<g id="edge2" class="edge"><title>Node55&#45;&gt;Node57</title>
<path fill="none" stroke="midnightblue" d="M140.135,-48C148.56,-48 157.248,-48 165.886,-48"/>
<polygon fill="midnightblue" stroke="midnightblue" points="165.985,-51.5001 175.985,-48 165.985,-44.5001 165.985,-51.5001"/>
</g>
<!-- Node58 -->
<g id="node4" class="node"><title>Node58</title>
<g id="a_node4"><a xlink:href="class_cool_pub_sub_client.html#a7ee119b786010561ab6a9afa0798e91d" target="_top" xlink:title="CoolPubSubClient::setClient">
<polygon fill="white" stroke="black" points="182.5,-0.5 182.5,-19.5 324.5,-19.5 324.5,-0.5 182.5,-0.5"/>
<text text-anchor="middle" x="253.5" y="-7.5" font-family="Helvetica,sans-Serif" font-size="10.00">CoolPubSubClient::setClient</text>
</a>
</g>
</g>
<!-- Node55&#45;&gt;Node58 -->
<g id="edge3" class="edge"><title>Node55&#45;&gt;Node58</title>
<path fill="none" stroke="midnightblue" d="M140.135,-33.5254C158.897,-29.5973 178.968,-25.3951 196.88,-21.645"/>
<polygon fill="midnightblue" stroke="midnightblue" points="197.797,-25.029 206.867,-19.5539 196.362,-18.1775 197.797,-25.029"/>
</g>
</g>
</svg>
