<?xml version="1.0" encoding="UTF-8" standalone="no"?>
<!DOCTYPE svg PUBLIC "-//W3C//DTD SVG 1.1//EN"
 "http://www.w3.org/Graphics/SVG/1.1/DTD/svg11.dtd">
<!-- Generated by graphviz version 2.38.0 (20140413.2041)
 -->
<!-- Title: CoolBoard::readSensors Pages: 1 -->
<!--zoomable 610 -->
<svg id="main" version="1.1" xmlns="http://www.w3.org/2000/svg" xmlns:xlink="http://www.w3.org/1999/xlink" xml:space="preserve" onload="init(evt)">
<style type="text/css"><![CDATA[
.edge:hover path { stroke: red; }
.edge:hover polygon { stroke: red; fill: red; }
]]></style>
<script type="text/javascript"><![CDATA[
var edges = document.getElementsByTagName('g');
if (edges && edges.length) {
  for (var i=0;i<edges.length;i++) {
    if (edges[i].id.substr(0,4)=='edge') {
      edges[i].setAttribute('class','edge');
    }
  }
}
]]></script>
        <defs>
                <circle id="rim" cx="0" cy="0" r="7"/>
                <circle id="rim2" cx="0" cy="0" r="3.5"/>
                <g id="zoomPlus">
                        <use xlink:href="#rim" fill="#404040">
                                <set attributeName="fill" to="#808080" begin="zoomplus.mouseover" end="zoomplus.mouseout"/>
                        </use>
                        <path d="M-4,0h8M0,-4v8" fill="none" stroke="white" stroke-width="1.5" pointer-events="none"/>
                </g>
                <g id="zoomMin">
                        <use xlink:href="#rim" fill="#404040">
                                <set attributeName="fill" to="#808080" begin="zoomminus.mouseover" end="zoomminus.mouseout"/>
                        </use>
                        <path d="M-4,0h8" fill="none" stroke="white" stroke-width="1.5" pointer-events="none"/>
                </g>
                <g id="dirArrow">
                        <path fill="none" stroke="white" stroke-width="1.5" d="M0,-3.0v7 M-2.5,-0.5L0,-3.0L2.5,-0.5"/>
                </g>
               <g id="resetDef">
                       <use xlink:href="#rim2" fill="#404040">
                               <set attributeName="fill" to="#808080" begin="reset.mouseover" end="reset.mouseout"/>
                       </use>
               </g>
        </defs>

<script type="text/javascript">
var viewWidth = 928;
var viewHeight = 610;
var sectionId = 'dynsection-10';
</script>
<script xlink:href="svgpan.js"/>
<svg id="graph" class="graph">
<g id="viewport">
<title>CoolBoard::readSensors</title>
<polygon fill="white" stroke="none" points="-4,4 -4,-606 924,-606 924,4 -4,4"/>
<!-- Node330 -->
<g id="node1" class="node"><title>Node330</title>
<polygon fill="#bfbfbf" stroke="black" points="0,-267.5 0,-286.5 123,-286.5 123,-267.5 0,-267.5"/>
<text text-anchor="middle" x="61.5" y="-274.5" font-family="Helvetica,sans-Serif" font-size="10.00">CoolBoard::readSensors</text>
</g>
<!-- Node331 -->
<g id="node2" class="node"><title>Node331</title>
<g id="a_node2"><a xlink:href="class_cool_board_led.html#ab778f5e7bed0ab74e3906d82110493c3" target="_top" xlink:title="CoolBoardLed::fadeIn">
<polygon fill="white" stroke="black" points="165,-430.5 165,-449.5 276,-449.5 276,-430.5 165,-430.5"/>
<text text-anchor="middle" x="220.5" y="-437.5" font-family="Helvetica,sans-Serif" font-size="10.00">CoolBoardLed::fadeIn</text>
</a>
</g>
</g>
<!-- Node330&#45;&gt;Node331 -->
<g id="edge1" class="edge"><title>Node330&#45;&gt;Node331</title>
<path fill="none" stroke="midnightblue" d="M66.2706,-286.706C76.8114,-312.563 109.12,-383.68 159,-421 161.519,-422.885 164.23,-424.586 167.058,-426.12"/>
<polygon fill="midnightblue" stroke="midnightblue" points="165.857,-429.422 176.399,-430.475 168.815,-423.077 165.857,-429.422"/>
</g>
<!-- Node332 -->
<g id="node3" class="node"><title>Node332</title>
<g id="a_node3"><a xlink:href="class_cool_board_led.html#ad5f0de4c628cbfbf49896042831c64ad" target="_top" xlink:title="CoolBoardLed::strobe">
<polygon fill="white" stroke="black" points="165,-392.5 165,-411.5 276,-411.5 276,-392.5 165,-392.5"/>
<text text-anchor="middle" x="220.5" y="-399.5" font-family="Helvetica,sans-Serif" font-size="10.00">CoolBoardLed::strobe</text>
</a>
</g>
</g>
<!-- Node330&#45;&gt;Node332 -->
<g id="edge2" class="edge"><title>Node330&#45;&gt;Node332</title>
<path fill="none" stroke="midnightblue" d="M68.7203,-286.774C82.4547,-307.574 117.469,-356.481 159,-383 162.298,-385.106 165.847,-386.994 169.513,-388.683"/>
<polygon fill="midnightblue" stroke="midnightblue" points="168.212,-391.932 178.792,-392.484 170.866,-385.454 168.212,-391.932"/>
</g>
<!-- Node333 -->
<g id="node4" class="node"><title>Node333</title>
<g id="a_node4"><a xlink:href="class_cool_board.html#a397b46fadab8f530a8cf4d914c561366" target="_top" xlink:title="CoolBoard::initReadI2C">
<polygon fill="white" stroke="black" points="160.5,-354.5 160.5,-373.5 280.5,-373.5 280.5,-354.5 160.5,-354.5"/>
<text text-anchor="middle" x="220.5" y="-361.5" font-family="Helvetica,sans-Serif" font-size="10.00">CoolBoard::initReadI2C</text>
</a>
</g>
</g>
<!-- Node330&#45;&gt;Node333 -->
<g id="edge3" class="edge"><title>Node330&#45;&gt;Node333</title>
<path fill="none" stroke="midnightblue" d="M73.646,-286.618C90.8938,-301.075 125.561,-328.471 159,-345 163.395,-347.172 168.092,-349.164 172.852,-350.972"/>
<polygon fill="midnightblue" stroke="midnightblue" points="172.042,-354.397 182.636,-354.424 174.371,-347.796 172.042,-354.397"/>
</g>
<!-- Node334 -->
<g id="node5" class="node"><title>Node334</title>
<g id="a_node5"><a xlink:href="class_cool_board_sensors.html#a91badb2539d91fda8679f2a597874c48" target="_top" xlink:title="CoolBoardSensors::read">
<polygon fill="white" stroke="black" points="159,-316.5 159,-335.5 282,-335.5 282,-316.5 159,-316.5"/>
<text text-anchor="middle" x="220.5" y="-323.5" font-family="Helvetica,sans-Serif" font-size="10.00">CoolBoardSensors::read</text>
</a>
</g>
</g>
<!-- Node330&#45;&gt;Node334 -->
<g id="edge4" class="edge"><title>Node330&#45;&gt;Node334</title>
<path fill="none" stroke="midnightblue" d="M93.1439,-286.564C117.674,-294.22 152.285,-305.022 179.083,-313.386"/>
<polygon fill="midnightblue" stroke="midnightblue" points="178.345,-316.822 188.933,-316.46 180.43,-310.14 178.345,-316.822"/>
</g>
<!-- Node350 -->
<g id="node21" class="node"><title>Node350</title>
<g id="a_node21"><a xlink:href="class_external_sensors.html#a53177b81eca3be89508b5511ddcd00fc" target="_top" xlink:title="ExternalSensors::read">
<polygon fill="white" stroke="black" points="164,-218.5 164,-237.5 277,-237.5 277,-218.5 164,-218.5"/>
<text text-anchor="middle" x="220.5" y="-225.5" font-family="Helvetica,sans-Serif" font-size="10.00">ExternalSensors::read</text>
</a>
</g>
</g>
<!-- Node330&#45;&gt;Node350 -->
<g id="edge25" class="edge"><title>Node330&#45;&gt;Node350</title>
<path fill="none" stroke="midnightblue" d="M93.1439,-267.436C117.674,-259.78 152.285,-248.978 179.083,-240.614"/>
<polygon fill="midnightblue" stroke="midnightblue" points="180.43,-243.86 188.933,-237.54 178.345,-237.178 180.43,-243.86"/>
</g>
<!-- Node352 -->
<g id="node23" class="node"><title>Node352</title>
<g id="a_node23"><a xlink:href="class_irene3000.html#a852a170feea994ea1df01c6b245b5d9a" target="_top" xlink:title="Irene3000::read">
<polygon fill="white" stroke="black" points="178.5,-114.5 178.5,-133.5 262.5,-133.5 262.5,-114.5 178.5,-114.5"/>
<text text-anchor="middle" x="220.5" y="-121.5" font-family="Helvetica,sans-Serif" font-size="10.00">Irene3000::read</text>
</a>
</g>
</g>
<!-- Node330&#45;&gt;Node352 -->
<g id="edge27" class="edge"><title>Node330&#45;&gt;Node352</title>
<path fill="none" stroke="midnightblue" d="M72.3211,-267.429C98.3134,-242.099 169.162,-173.056 202.159,-140.899"/>
<polygon fill="midnightblue" stroke="midnightblue" points="204.964,-143.053 209.683,-133.567 200.078,-138.04 204.964,-143.053"/>
</g>
<!-- Node363 -->
<g id="node34" class="node"><title>Node363</title>
<g id="a_node34"><a xlink:href="class_cool_time.html#a7a7501c5ca77dd1248bea704c44f986c" target="_top" xlink:title="CoolTime::getTimeDate">
<polygon fill="white" stroke="black" points="160,-76.5 160,-95.5 281,-95.5 281,-76.5 160,-76.5"/>
<text text-anchor="middle" x="220.5" y="-83.5" font-family="Helvetica,sans-Serif" font-size="10.00">CoolTime::getTimeDate</text>
</a>
</g>
</g>
<!-- Node330&#45;&gt;Node363 -->
<g id="edge43" class="edge"><title>Node330&#45;&gt;Node363</title>
<path fill="none" stroke="midnightblue" d="M65.1976,-267.145C73.7249,-237.854 102.91,-150.535 159,-105 161.244,-103.179 163.663,-101.531 166.199,-100.04"/>
<polygon fill="midnightblue" stroke="midnightblue" points="167.799,-103.154 175.183,-95.5552 164.672,-96.8908 167.799,-103.154"/>
</g>
<!-- Node365 -->
<g id="node36" class="node"><title>Node365</title>
<g id="a_node36"><a xlink:href="class_cool_board_led.html#a93d545679237e8cc858324367149775c" target="_top" xlink:title="CoolBoardLed::fadeOut">
<polygon fill="white" stroke="black" points="161,-38.5 161,-57.5 280,-57.5 280,-38.5 161,-38.5"/>
<text text-anchor="middle" x="220.5" y="-45.5" font-family="Helvetica,sans-Serif" font-size="10.00">CoolBoardLed::fadeOut</text>
</a>
</g>
</g>
<!-- Node330&#45;&gt;Node365 -->
<g id="edge45" class="edge"><title>Node330&#45;&gt;Node365</title>
<path fill="none" stroke="midnightblue" d="M64.0685,-267.417C69.9778,-234.404 93.9679,-124.288 159,-67 160.916,-65.3126 162.98,-63.775 165.152,-62.3738"/>
<polygon fill="midnightblue" stroke="midnightblue" points="166.827,-65.4473 173.965,-57.6183 163.502,-59.2869 166.827,-65.4473"/>
</g>
<!-- Node335 -->
<g id="node6" class="node"><title>Node335</title>
<g id="a_node6"><a xlink:href="class_cool_s_i114_x.html#a869d3825147831d707f7ef324a665646" target="_top" xlink:title="CoolSI114X::ReadResponseReg">
<polygon fill="white" stroke="black" points="318,-202.5 318,-221.5 479,-221.5 479,-202.5 318,-202.5"/>
<text text-anchor="middle" x="398.5" y="-209.5" font-family="Helvetica,sans-Serif" font-size="10.00">CoolSI114X::ReadResponseReg</text>
</a>
</g>
</g>
<!-- Node334&#45;&gt;Node335 -->
<g id="edge5" class="edge"><title>Node334&#45;&gt;Node335</title>
<path fill="none" stroke="midnightblue" d="M228.276,-316.472C242.542,-297.158 277.697,-253.337 318,-231 322.018,-228.773 326.292,-226.805 330.692,-225.067"/>
<polygon fill="midnightblue" stroke="midnightblue" points="332.209,-228.243 340.475,-221.617 329.881,-221.642 332.209,-228.243"/>
</g>
<!-- Node337 -->
<g id="node8" class="node"><title>Node337</title>
<g id="a_node8"><a xlink:href="class_cool_s_i114_x.html#abf45eb10a6de1be16e68a51624fa2608" target="_top" xlink:title="CoolSI114X::WriteParamData">
<polygon fill="white" stroke="black" points="324.5,-278.5 324.5,-297.5 472.5,-297.5 472.5,-278.5 324.5,-278.5"/>
<text text-anchor="middle" x="398.5" y="-285.5" font-family="Helvetica,sans-Serif" font-size="10.00">CoolSI114X::WriteParamData</text>
</a>
</g>
</g>
<!-- Node334&#45;&gt;Node337 -->
<g id="edge7" class="edge"><title>Node334&#45;&gt;Node337</title>
<path fill="none" stroke="midnightblue" d="M265.912,-316.411C289.451,-311.329 318.557,-305.045 343.405,-299.68"/>
<polygon fill="midnightblue" stroke="midnightblue" points="344.371,-303.052 353.407,-297.52 342.894,-296.209 344.371,-303.052"/>
</g>
<!-- Node339 -->
<g id="node10" class="node"><title>Node339</title>
<g id="a_node10"><a xlink:href="class_cool_s_i114_x.html#a42e0e574256341443c647a4c0eda87d5" target="_top" xlink:title="CoolSI114X::ReadVisible">
<polygon fill="white" stroke="black" points="334.5,-316.5 334.5,-335.5 462.5,-335.5 462.5,-316.5 334.5,-316.5"/>
<text text-anchor="middle" x="398.5" y="-323.5" font-family="Helvetica,sans-Serif" font-size="10.00">CoolSI114X::ReadVisible</text>
</a>
</g>
</g>
<!-- Node334&#45;&gt;Node339 -->
<g id="edge10" class="edge"><title>Node334&#45;&gt;Node339</title>
<path fill="none" stroke="midnightblue" d="M282.069,-326C295.672,-326 310.245,-326 324.301,-326"/>
<polygon fill="midnightblue" stroke="midnightblue" points="324.422,-329.5 334.422,-326 324.422,-322.5 324.422,-329.5"/>
</g>
<!-- Node341 -->
<g id="node12" class="node"><title>Node341</title>
<g id="a_node12"><a xlink:href="class_cool_s_i114_x.html#abc536ee7ae8e3ba9d1069acc3889a2cf" target="_top" xlink:title="CoolSI114X::ReadIR">
<polygon fill="white" stroke="black" points="344,-392.5 344,-411.5 453,-411.5 453,-392.5 344,-392.5"/>
<text text-anchor="middle" x="398.5" y="-399.5" font-family="Helvetica,sans-Serif" font-size="10.00">CoolSI114X::ReadIR</text>
</a>
</g>
</g>
<!-- Node334&#45;&gt;Node341 -->
<g id="edge12" class="edge"><title>Node334&#45;&gt;Node341</title>
<path fill="none" stroke="midnightblue" d="M261.826,-335.501C268.831,-338.023 275.837,-341.15 282,-345 301.731,-357.325 297.851,-371.37 318,-383 323.039,-385.909 328.503,-388.373 334.127,-390.461"/>
<polygon fill="midnightblue" stroke="midnightblue" points="333.102,-393.808 343.695,-393.631 335.303,-387.163 333.102,-393.808"/>
</g>
<!-- Node342 -->
<g id="node13" class="node"><title>Node342</title>
<g id="a_node13"><a xlink:href="class_cool_s_i114_x.html#a14ced664d74e93438440b0274109c111" target="_top" xlink:title="CoolSI114X::ReadUV">
<polygon fill="white" stroke="black" points="342,-354.5 342,-373.5 455,-373.5 455,-354.5 342,-354.5"/>
<text text-anchor="middle" x="398.5" y="-361.5" font-family="Helvetica,sans-Serif" font-size="10.00">CoolSI114X::ReadUV</text>
</a>
</g>
</g>
<!-- Node334&#45;&gt;Node342 -->
<g id="edge14" class="edge"><title>Node334&#45;&gt;Node342</title>
<path fill="none" stroke="midnightblue" d="M265.912,-335.589C289.451,-340.671 318.557,-346.955 343.405,-352.32"/>
<polygon fill="midnightblue" stroke="midnightblue" points="342.894,-355.791 353.407,-354.48 344.371,-348.948 342.894,-355.791"/>
</g>
<!-- Node343 -->
<g id="node14" class="node"><title>Node343</title>
<g id="a_node14"><a xlink:href="class_b_m_e280.html#a1bbd14c8591966df531e40085342ff71" target="_top" xlink:title="BME280::readRegister">
<polygon fill="white" stroke="black" points="340.5,-240.5 340.5,-259.5 456.5,-259.5 456.5,-240.5 340.5,-240.5"/>
<text text-anchor="middle" x="398.5" y="-247.5" font-family="Helvetica,sans-Serif" font-size="10.00">BME280::readRegister</text>
</a>
</g>
</g>
<!-- Node334&#45;&gt;Node343 -->
<g id="edge16" class="edge"><title>Node334&#45;&gt;Node343</title>
<path fill="none" stroke="midnightblue" d="M234.887,-316.324C252.927,-303.71 286.429,-281.759 318,-269 324.276,-266.464 330.974,-264.213 337.718,-262.229"/>
<polygon fill="midnightblue" stroke="midnightblue" points="338.876,-265.54 347.589,-259.512 337.018,-258.791 338.876,-265.54"/>
</g>
<!-- Node344 -->
<g id="node15" class="node"><title>Node344</title>
<g id="a_node15"><a xlink:href="class_b_m_e280.html#afffdd1d7ded9e1f92200e70669019d97" target="_top" xlink:title="BME280::readTempC">
<polygon fill="white" stroke="black" points="343,-430.5 343,-449.5 454,-449.5 454,-430.5 343,-430.5"/>
<text text-anchor="middle" x="398.5" y="-437.5" font-family="Helvetica,sans-Serif" font-size="10.00">BME280::readTempC</text>
</a>
</g>
</g>
<!-- Node334&#45;&gt;Node344 -->
<g id="edge17" class="edge"><title>Node334&#45;&gt;Node344</title>
<path fill="none" stroke="midnightblue" d="M266.685,-335.529C272.232,-337.994 277.516,-341.096 282,-345 310.189,-369.542 288.973,-397.455 318,-421 322.589,-424.723 327.789,-427.737 333.279,-430.175"/>
<polygon fill="midnightblue" stroke="midnightblue" points="332.145,-433.488 342.736,-433.757 334.624,-426.941 332.145,-433.488"/>
</g>
<!-- Node346 -->
<g id="node17" class="node"><title>Node346</title>
<g id="a_node17"><a xlink:href="class_b_m_e280.html#ada6e799917afb4f228e6253bc56ffe75" target="_top" xlink:title="BME280::readFloatPressure">
<polygon fill="white" stroke="black" points="328.5,-582.5 328.5,-601.5 468.5,-601.5 468.5,-582.5 328.5,-582.5"/>
<text text-anchor="middle" x="398.5" y="-589.5" font-family="Helvetica,sans-Serif" font-size="10.00">BME280::readFloatPressure</text>
</a>
</g>
</g>
<!-- Node334&#45;&gt;Node346 -->
<g id="edge19" class="edge"><title>Node334&#45;&gt;Node346</title>
<path fill="none" stroke="midnightblue" d="M270.166,-335.637C274.621,-338.094 278.693,-341.165 282,-345 348.991,-422.696 248.342,-497.686 318,-573 319.084,-574.172 320.226,-575.278 321.42,-576.321"/>
<polygon fill="midnightblue" stroke="midnightblue" points="319.767,-579.438 329.96,-582.331 323.796,-573.713 319.767,-579.438"/>
</g>
<!-- Node347 -->
<g id="node18" class="node"><title>Node347</title>
<g id="a_node18"><a xlink:href="class_b_m_e280.html#a42ea7232039eebf5aadb391ef6132c35" target="_top" xlink:title="BME280::readFloatHumidity">
<polygon fill="white" stroke="black" points="328.5,-544.5 328.5,-563.5 468.5,-563.5 468.5,-544.5 328.5,-544.5"/>
<text text-anchor="middle" x="398.5" y="-551.5" font-family="Helvetica,sans-Serif" font-size="10.00">BME280::readFloatHumidity</text>
</a>
</g>
</g>
<!-- Node334&#45;&gt;Node347 -->
<g id="edge21" class="edge"><title>Node334&#45;&gt;Node347</title>
<path fill="none" stroke="midnightblue" d="M269.755,-335.582C274.346,-338.046 278.561,-341.133 282,-345 339.115,-409.224 258.682,-472.805 318,-535 319.246,-536.306 320.564,-537.529 321.944,-538.675"/>
<polygon fill="midnightblue" stroke="midnightblue" points="320.211,-541.727 330.458,-544.418 324.125,-535.924 320.211,-541.727"/>
</g>
<!-- Node348 -->
<g id="node19" class="node"><title>Node348</title>
<g id="a_node19"><a xlink:href="class_cool_board_sensors.html#a6944b6ea7bce8e2fce1b434acfd9d5f3" target="_top" xlink:title="CoolBoardSensors::readVBat">
<polygon fill="white" stroke="black" points="326,-506.5 326,-525.5 471,-525.5 471,-506.5 326,-506.5"/>
<text text-anchor="middle" x="398.5" y="-513.5" font-family="Helvetica,sans-Serif" font-size="10.00">CoolBoardSensors::readVBat</text>
</a>
</g>
</g>
<!-- Node334&#45;&gt;Node348 -->
<g id="edge23" class="edge"><title>Node334&#45;&gt;Node348</title>
<path fill="none" stroke="midnightblue" d="M269.287,-335.586C274.023,-338.046 278.4,-341.132 282,-345 329.298,-395.819 268.96,-447.86 318,-497 319.428,-498.431 320.944,-499.762 322.533,-500.999"/>
<polygon fill="midnightblue" stroke="midnightblue" points="320.713,-503.99 331.022,-506.435 324.488,-498.095 320.713,-503.99"/>
</g>
<!-- Node349 -->
<g id="node20" class="node"><title>Node349</title>
<g id="a_node20"><a xlink:href="class_cool_board_sensors.html#a8761bff50373c485f4465c8db47d0633" target="_top" xlink:title="CoolBoardSensors::readMoisture">
<polygon fill="white" stroke="black" points="318,-468.5 318,-487.5 479,-487.5 479,-468.5 318,-468.5"/>
<text text-anchor="middle" x="398.5" y="-475.5" font-family="Helvetica,sans-Serif" font-size="10.00">CoolBoardSensors::readMoisture</text>
</a>
</g>
</g>
<!-- Node334&#45;&gt;Node349 -->
<g id="edge24" class="edge"><title>Node334&#45;&gt;Node349</title>
<path fill="none" stroke="midnightblue" d="M268.411,-335.554C273.423,-338.016 278.105,-341.111 282,-345 319.6,-382.541 279.114,-422.792 318,-459 319.519,-460.414 321.124,-461.729 322.8,-462.951"/>
<polygon fill="midnightblue" stroke="midnightblue" points="321.333,-466.153 331.704,-468.318 324.946,-460.158 321.333,-466.153"/>
</g>
<!-- Node336 -->
<g id="node7" class="node"><title>Node336</title>
<g id="a_node7"><a xlink:href="class_cool_s_i114_x.html#acc20f8037e156ec4aadcbe90780b1e8b" target="_top" xlink:title="CoolSI114X::ReadByte">
<polygon fill="white" stroke="black" points="528.5,-221.5 528.5,-240.5 647.5,-240.5 647.5,-221.5 528.5,-221.5"/>
<text text-anchor="middle" x="588" y="-228.5" font-family="Helvetica,sans-Serif" font-size="10.00">CoolSI114X::ReadByte</text>
</a>
</g>
</g>
<!-- Node335&#45;&gt;Node336 -->
<g id="edge6" class="edge"><title>Node335&#45;&gt;Node336</title>
<path fill="none" stroke="midnightblue" d="M479.017,-220.058C492.091,-221.383 505.542,-222.746 518.323,-224.041"/>
<polygon fill="midnightblue" stroke="midnightblue" points="518.107,-227.537 528.409,-225.063 518.813,-220.572 518.107,-227.537"/>
</g>
<!-- Node337&#45;&gt;Node336 -->
<g id="edge9" class="edge"><title>Node337&#45;&gt;Node336</title>
<path fill="none" stroke="midnightblue" d="M443.039,-278.455C454.778,-275.648 467.429,-272.408 479,-269 503.855,-261.679 531.4,-251.961 552.452,-244.185"/>
<polygon fill="midnightblue" stroke="midnightblue" points="553.78,-247.425 561.928,-240.654 551.336,-240.866 553.78,-247.425"/>
</g>
<!-- Node338 -->
<g id="node9" class="node"><title>Node338</title>
<g id="a_node9"><a xlink:href="class_cool_s_i114_x.html#ac5c8dc5ade604da7a1c8cd1586feefc2" target="_top" xlink:title="CoolSI114X::WriteByte">
<polygon fill="white" stroke="black" points="528.5,-278.5 528.5,-297.5 647.5,-297.5 647.5,-278.5 528.5,-278.5"/>
<text text-anchor="middle" x="588" y="-285.5" font-family="Helvetica,sans-Serif" font-size="10.00">CoolSI114X::WriteByte</text>
</a>
</g>
</g>
<!-- Node337&#45;&gt;Node338 -->
<g id="edge8" class="edge"><title>Node337&#45;&gt;Node338</title>
<path fill="none" stroke="midnightblue" d="M472.529,-288C487.568,-288 503.355,-288 518.236,-288"/>
<polygon fill="midnightblue" stroke="midnightblue" points="518.373,-291.5 528.373,-288 518.373,-284.5 518.373,-291.5"/>
</g>
<!-- Node340 -->
<g id="node11" class="node"><title>Node340</title>
<g id="a_node11"><a xlink:href="class_cool_s_i114_x.html#a1d25c9e137874af529804c2ec796a6b9" target="_top" xlink:title="CoolSI114X::ReadHalfWord">
<polygon fill="white" stroke="black" points="518,-354.5 518,-373.5 658,-373.5 658,-354.5 518,-354.5"/>
<text text-anchor="middle" x="588" y="-361.5" font-family="Helvetica,sans-Serif" font-size="10.00">CoolSI114X::ReadHalfWord</text>
</a>
</g>
</g>
<!-- Node339&#45;&gt;Node340 -->
<g id="edge11" class="edge"><title>Node339&#45;&gt;Node340</title>
<path fill="none" stroke="midnightblue" d="M446.814,-335.589C472.114,-340.716 503.45,-347.067 530.075,-352.463"/>
<polygon fill="midnightblue" stroke="midnightblue" points="529.53,-355.924 540.026,-354.48 530.921,-349.063 529.53,-355.924"/>
</g>
<!-- Node341&#45;&gt;Node340 -->
<g id="edge13" class="edge"><title>Node341&#45;&gt;Node340</title>
<path fill="none" stroke="midnightblue" d="M446.814,-392.411C472.114,-387.284 503.45,-380.933 530.075,-375.537"/>
<polygon fill="midnightblue" stroke="midnightblue" points="530.921,-378.937 540.026,-373.52 529.53,-372.076 530.921,-378.937"/>
</g>
<!-- Node342&#45;&gt;Node340 -->
<g id="edge15" class="edge"><title>Node342&#45;&gt;Node340</title>
<path fill="none" stroke="midnightblue" d="M455.249,-364C471.672,-364 489.968,-364 507.574,-364"/>
<polygon fill="midnightblue" stroke="midnightblue" points="507.841,-367.5 517.841,-364 507.841,-360.5 507.841,-367.5"/>
</g>
<!-- Node345 -->
<g id="node16" class="node"><title>Node345</title>
<g id="a_node16"><a xlink:href="class_b_m_e280.html#aecca87c2c40a7f2bcabcea921bdc6124" target="_top" xlink:title="BME280::readRegisterRegion">
<polygon fill="white" stroke="black" points="515,-544.5 515,-563.5 661,-563.5 661,-544.5 515,-544.5"/>
<text text-anchor="middle" x="588" y="-551.5" font-family="Helvetica,sans-Serif" font-size="10.00">BME280::readRegisterRegion</text>
</a>
</g>
</g>
<!-- Node344&#45;&gt;Node345 -->
<g id="edge18" class="edge"><title>Node344&#45;&gt;Node345</title>
<path fill="none" stroke="midnightblue" d="M454.231,-449.346C462.777,-451.855 471.314,-455.018 479,-459 517.17,-478.776 552.842,-514.913 572.115,-536.465"/>
<polygon fill="midnightblue" stroke="midnightblue" points="569.67,-538.986 578.891,-544.204 574.937,-534.375 569.67,-538.986"/>
</g>
<!-- Node346&#45;&gt;Node345 -->
<g id="edge20" class="edge"><title>Node346&#45;&gt;Node345</title>
<path fill="none" stroke="midnightblue" d="M446.814,-582.411C472.114,-577.284 503.45,-570.933 530.075,-565.537"/>
<polygon fill="midnightblue" stroke="midnightblue" points="530.921,-568.937 540.026,-563.52 529.53,-562.076 530.921,-568.937"/>
</g>
<!-- Node347&#45;&gt;Node345 -->
<g id="edge22" class="edge"><title>Node347&#45;&gt;Node345</title>
<path fill="none" stroke="midnightblue" d="M468.519,-554C480.348,-554 492.742,-554 504.873,-554"/>
<polygon fill="midnightblue" stroke="midnightblue" points="504.983,-557.5 514.983,-554 504.983,-550.5 504.983,-557.5"/>
</g>
<!-- Node351 -->
<g id="node22" class="node"><title>Node351</title>
<g id="a_node22"><a xlink:href="class_base_external_sensor.html#a1564f16deacf57b51b9948ac29db4291" target="_top" xlink:title="BaseExternalSensor\l::read">
<polygon fill="white" stroke="black" points="345.5,-153 345.5,-183 451.5,-183 451.5,-153 345.5,-153"/>
<text text-anchor="start" x="353.5" y="-171" font-family="Helvetica,sans-Serif" font-size="10.00">BaseExternalSensor</text>
<text text-anchor="middle" x="398.5" y="-160" font-family="Helvetica,sans-Serif" font-size="10.00">::read</text>
</a>
</g>
</g>
<!-- Node350&#45;&gt;Node351 -->
<g id="edge26" class="edge"><title>Node350&#45;&gt;Node351</title>
<path fill="none" stroke="midnightblue" d="M246.792,-218.488C266.197,-211.272 293.691,-201.226 318,-193 324.784,-190.704 331.917,-188.362 339.01,-186.076"/>
<polygon fill="midnightblue" stroke="midnightblue" points="340.161,-189.383 348.621,-183.005 338.03,-182.715 340.161,-189.383"/>
</g>
<!-- Node353 -->
<g id="node24" class="node"><title>Node353</title>
<g id="a_node24"><a xlink:href="class_irene3000.html#a80bc6dfea106dc3bc54fa20204d4d5dc" target="_top" xlink:title="Irene3000::readTemp">
<polygon fill="white" stroke="black" points="344,-38.5 344,-57.5 453,-57.5 453,-38.5 344,-38.5"/>
<text text-anchor="middle" x="398.5" y="-45.5" font-family="Helvetica,sans-Serif" font-size="10.00">Irene3000::readTemp</text>
</a>
</g>
</g>
<!-- Node352&#45;&gt;Node353 -->
<g id="edge28" class="edge"><title>Node352&#45;&gt;Node353</title>
<path fill="none" stroke="midnightblue" d="M261.826,-114.499C268.831,-111.977 275.837,-108.85 282,-105 301.731,-92.6746 297.851,-78.6304 318,-67 323.039,-64.0914 328.503,-61.627 334.127,-59.5393"/>
<polygon fill="midnightblue" stroke="midnightblue" points="335.303,-62.8367 343.695,-56.3695 333.102,-56.1919 335.303,-62.8367"/>
</g>
<!-- Node361 -->
<g id="node32" class="node"><title>Node361</title>
<g id="a_node32"><a xlink:href="class_irene3000.html#a436fc0a06681cd0784aba56b9707f19a" target="_top" xlink:title="Irene3000::readPh">
<polygon fill="white" stroke="black" points="350.5,-114.5 350.5,-133.5 446.5,-133.5 446.5,-114.5 350.5,-114.5"/>
<text text-anchor="middle" x="398.5" y="-121.5" font-family="Helvetica,sans-Serif" font-size="10.00">Irene3000::readPh</text>
</a>
</g>
</g>
<!-- Node352&#45;&gt;Node361 -->
<g id="edge37" class="edge"><title>Node352&#45;&gt;Node361</title>
<path fill="none" stroke="midnightblue" d="M262.764,-124C285.803,-124 314.863,-124 340.092,-124"/>
<polygon fill="midnightblue" stroke="midnightblue" points="340.276,-127.5 350.276,-124 340.276,-120.5 340.276,-127.5"/>
</g>
<!-- Node362 -->
<g id="node33" class="node"><title>Node362</title>
<g id="a_node33"><a xlink:href="class_irene3000.html#ae73bd2ed14a199a7e83f4d6458476a7c" target="_top" xlink:title="Irene3000::readADSChannel2">
<polygon fill="white" stroke="black" points="325.5,-76.5 325.5,-95.5 471.5,-95.5 471.5,-76.5 325.5,-76.5"/>
<text text-anchor="middle" x="398.5" y="-83.5" font-family="Helvetica,sans-Serif" font-size="10.00">Irene3000::readADSChannel2</text>
</a>
</g>
</g>
<!-- Node352&#45;&gt;Node362 -->
<g id="edge40" class="edge"><title>Node352&#45;&gt;Node362</title>
<path fill="none" stroke="midnightblue" d="M262.764,-115.091C286.803,-109.901 317.396,-103.295 343.352,-97.691"/>
<polygon fill="midnightblue" stroke="midnightblue" points="344.382,-101.049 353.418,-95.5178 342.904,-94.2071 344.382,-101.049"/>
</g>
<!-- Node354 -->
<g id="node25" class="node"><title>Node354</title>
<g id="a_node25"><a xlink:href="class_irene3000.html#aff7c5da186b388e7272e63ff88a20c34" target="_top" xlink:title="Irene3000::setGain">
<polygon fill="white" stroke="black" points="538.5,-98.5 538.5,-117.5 637.5,-117.5 637.5,-98.5 538.5,-98.5"/>
<text text-anchor="middle" x="588" y="-105.5" font-family="Helvetica,sans-Serif" font-size="10.00">Irene3000::setGain</text>
</a>
</g>
</g>
<!-- Node353&#45;&gt;Node354 -->
<g id="edge29" class="edge"><title>Node353&#45;&gt;Node354</title>
<path fill="none" stroke="midnightblue" d="M449.395,-57.5517C459.369,-60.1191 469.648,-63.2503 479,-67 496.193,-73.8936 497.935,-80.7951 515,-88 521.656,-90.8101 528.823,-93.344 535.964,-95.5889"/>
<polygon fill="midnightblue" stroke="midnightblue" points="535.052,-98.9692 545.635,-98.4699 537.05,-92.2605 535.052,-98.9692"/>
</g>
<!-- Node356 -->
<g id="node27" class="node"><title>Node356</title>
<g id="a_node27"><a xlink:href="class_adafruit___a_d_s1015.html#a40f38b9e1f3ec397c0670dd632510235" target="_top" xlink:title="Gets a single&#45;ended ADC reading from the specified channel. ">
<polygon fill="white" stroke="black" points="516,-49 516,-79 660,-79 660,-49 516,-49"/>
<text text-anchor="start" x="524" y="-67" font-family="Helvetica,sans-Serif" font-size="10.00">Adafruit_ADS1015::readADC</text>
<text text-anchor="middle" x="588" y="-56" font-family="Helvetica,sans-Serif" font-size="10.00">_SingleEnded</text>
</a>
</g>
</g>
<!-- Node353&#45;&gt;Node356 -->
<g id="edge31" class="edge"><title>Node353&#45;&gt;Node356</title>
<path fill="none" stroke="midnightblue" d="M453.23,-52.585C469.513,-53.9744 487.779,-55.5331 505.456,-57.0415"/>
<polygon fill="midnightblue" stroke="midnightblue" points="505.514,-60.5592 515.776,-57.9222 506.11,-53.5846 505.514,-60.5592"/>
</g>
<!-- Node355 -->
<g id="node26" class="node"><title>Node355</title>
<g id="a_node26"><a xlink:href="class_adafruit___a_d_s1015.html#a399441eace686975ff22937cbe45cc50" target="_top" xlink:title="Sets the gain and input voltage range. ">
<polygon fill="white" stroke="black" points="697,-98.5 697,-117.5 834,-117.5 834,-98.5 697,-98.5"/>
<text text-anchor="middle" x="765.5" y="-105.5" font-family="Helvetica,sans-Serif" font-size="10.00">Adafruit_ADS1015::setGain</text>
</a>
</g>
</g>
<!-- Node354&#45;&gt;Node355 -->
<g id="edge30" class="edge"><title>Node354&#45;&gt;Node355</title>
<path fill="none" stroke="midnightblue" d="M637.887,-108C653.005,-108 670.052,-108 686.624,-108"/>
<polygon fill="midnightblue" stroke="midnightblue" points="686.859,-111.5 696.859,-108 686.859,-104.5 686.859,-111.5"/>
</g>
<!-- Node357 -->
<g id="node28" class="node"><title>Node357</title>
<g id="a_node28"><a xlink:href="_cool_adafruit___a_d_s1015_8cpp.html#a00ef55774dfb93dd0a7bf561d8451b71" target="_top" xlink:title="Writes 16&#45;bits to the specified destination register. ">
<polygon fill="white" stroke="black" points="728.5,-19.5 728.5,-38.5 802.5,-38.5 802.5,-19.5 728.5,-19.5"/>
<text text-anchor="middle" x="765.5" y="-26.5" font-family="Helvetica,sans-Serif" font-size="10.00">writeRegister</text>
</a>
</g>
</g>
<!-- Node356&#45;&gt;Node357 -->
<g id="edge32" class="edge"><title>Node356&#45;&gt;Node357</title>
<path fill="none" stroke="midnightblue" d="M660.13,-49.8146C679.669,-45.9179 700.349,-41.7936 718.102,-38.2532"/>
<polygon fill="midnightblue" stroke="midnightblue" points="719.063,-41.6305 728.185,-36.2422 717.694,-34.7657 719.063,-41.6305"/>
</g>
<!-- Node359 -->
<g id="node30" class="node"><title>Node359</title>
<g id="a_node30"><a xlink:href="_cool_adafruit___a_d_s1015_8cpp.html#a319539381b7551b2f83a92b0b596e97d" target="_top" xlink:title="Writes 16&#45;bits to the specified destination register. ">
<polygon fill="white" stroke="black" points="729.5,-57.5 729.5,-76.5 801.5,-76.5 801.5,-57.5 729.5,-57.5"/>
<text text-anchor="middle" x="765.5" y="-64.5" font-family="Helvetica,sans-Serif" font-size="10.00">readRegister</text>
</a>
</g>
</g>
<!-- Node356&#45;&gt;Node359 -->
<g id="edge34" class="edge"><title>Node356&#45;&gt;Node359</title>
<path fill="none" stroke="midnightblue" d="M660.13,-65.2159C679.986,-65.5553 701.022,-65.9149 718.965,-66.2216"/>
<polygon fill="midnightblue" stroke="midnightblue" points="719.082,-69.724 729.141,-66.3956 719.202,-62.7251 719.082,-69.724"/>
</g>
<!-- Node358 -->
<g id="node29" class="node"><title>Node358</title>
<g id="a_node29"><a xlink:href="_cool_adafruit___a_d_s1015_8cpp.html#a6db5edba66e20bba6d5b421c2789af54" target="_top" xlink:title="Abstract away platform differences in Arduino wire library. ">
<polygon fill="white" stroke="black" points="870,-19.5 870,-38.5 920,-38.5 920,-19.5 870,-19.5"/>
<text text-anchor="middle" x="895" y="-26.5" font-family="Helvetica,sans-Serif" font-size="10.00">i2cwrite</text>
</a>
</g>
</g>
<!-- Node357&#45;&gt;Node358 -->
<g id="edge33" class="edge"><title>Node357&#45;&gt;Node358</title>
<path fill="none" stroke="midnightblue" d="M802.695,-29C820.498,-29 841.851,-29 859.43,-29"/>
<polygon fill="midnightblue" stroke="midnightblue" points="859.821,-32.5001 869.821,-29 859.821,-25.5001 859.821,-32.5001"/>
</g>
<!-- Node359&#45;&gt;Node358 -->
<g id="edge35" class="edge"><title>Node359&#45;&gt;Node358</title>
<path fill="none" stroke="midnightblue" d="M801.248,-57.4506C811.788,-54.4917 823.386,-51.1735 834,-48 842.502,-45.4579 851.649,-42.6163 860.176,-39.9213"/>
<polygon fill="midnightblue" stroke="midnightblue" points="861.356,-43.2187 869.824,-36.8515 859.234,-36.5481 861.356,-43.2187"/>
</g>
<!-- Node360 -->
<g id="node31" class="node"><title>Node360</title>
<g id="a_node31"><a xlink:href="_cool_adafruit___a_d_s1015_8cpp.html#af89e2442d757f6ec8100c473022f6701" target="_top" xlink:title="Abstract away platform differences in Arduino wire library. ">
<polygon fill="white" stroke="black" points="871,-57.5 871,-76.5 919,-76.5 919,-57.5 871,-57.5"/>
<text text-anchor="middle" x="895" y="-64.5" font-family="Helvetica,sans-Serif" font-size="10.00">i2cread</text>
</a>
</g>
</g>
<!-- Node359&#45;&gt;Node360 -->
<g id="edge36" class="edge"><title>Node359&#45;&gt;Node360</title>
<path fill="none" stroke="midnightblue" d="M801.677,-67C820.162,-67 842.688,-67 860.862,-67"/>
<polygon fill="midnightblue" stroke="midnightblue" points="860.996,-70.5001 870.996,-67 860.996,-63.5001 860.996,-70.5001"/>
</g>
<!-- Node361&#45;&gt;Node354 -->
<g id="edge38" class="edge"><title>Node361&#45;&gt;Node354</title>
<path fill="none" stroke="midnightblue" d="M446.814,-119.963C471.524,-117.854 501.991,-115.254 528.204,-113.017"/>
<polygon fill="midnightblue" stroke="midnightblue" points="528.728,-116.485 538.394,-112.148 528.133,-109.511 528.728,-116.485"/>
</g>
<!-- Node361&#45;&gt;Node356 -->
<g id="edge39" class="edge"><title>Node361&#45;&gt;Node356</title>
<path fill="none" stroke="midnightblue" d="M445.732,-114.467C456.745,-111.78 468.381,-108.595 479,-105 495.585,-99.3858 498.715,-95.4328 515,-89 520.519,-86.8199 526.313,-84.6365 532.118,-82.5178"/>
<polygon fill="midnightblue" stroke="midnightblue" points="533.619,-85.6977 541.849,-79.0253 531.254,-79.1092 533.619,-85.6977"/>
</g>
<!-- Node362&#45;&gt;Node354 -->
<g id="edge41" class="edge"><title>Node362&#45;&gt;Node354</title>
<path fill="none" stroke="midnightblue" d="M471.724,-94.4743C490.439,-96.6701 510.363,-99.0079 528.29,-101.111"/>
<polygon fill="midnightblue" stroke="midnightblue" points="527.966,-104.597 538.306,-102.287 528.782,-97.645 527.966,-104.597"/>
</g>
<!-- Node362&#45;&gt;Node356 -->
<g id="edge42" class="edge"><title>Node362&#45;&gt;Node356</title>
<path fill="none" stroke="midnightblue" d="M471.724,-77.5257C482.782,-76.2282 494.262,-74.8812 505.503,-73.5623"/>
<polygon fill="midnightblue" stroke="midnightblue" points="506.216,-77.0027 515.74,-72.3611 505.401,-70.0504 506.216,-77.0027"/>
</g>
<!-- Node364 -->
<g id="node35" class="node"><title>Node364</title>
<g id="a_node35"><a xlink:href="class_cool_time.html#acd537cd4210d7bde4e1f5c47d2ac0456" target="_top" xlink:title="CoolTime::formatDigits">
<polygon fill="white" stroke="black" points="339.5,-0.5 339.5,-19.5 457.5,-19.5 457.5,-0.5 339.5,-0.5"/>
<text text-anchor="middle" x="398.5" y="-7.5" font-family="Helvetica,sans-Serif" font-size="10.00">CoolTime::formatDigits</text>
</a>
</g>
</g>
<!-- Node363&#45;&gt;Node364 -->
<g id="edge44" class="edge"><title>Node363&#45;&gt;Node364</title>
<path fill="none" stroke="midnightblue" d="M261.826,-76.4989C268.831,-73.977 275.837,-70.8495 282,-67 301.731,-54.6746 297.851,-40.6304 318,-29 321.908,-26.7442 326.072,-24.7557 330.367,-23.0029"/>
<polygon fill="midnightblue" stroke="midnightblue" points="331.728,-26.2324 339.933,-19.5297 329.339,-19.6526 331.728,-26.2324"/>
</g>
</g>
</svg>
        <g id="navigator" transform="translate(0 0)" fill="#404254">
                <rect fill="#f2f5e9" fill-opacity="0.5" stroke="#606060" stroke-width=".5" x="0" y="0" width="60" height="60"/>
                <use id="zoomplus" xlink:href="#zoomPlus" x="17" y="9" onmousedown="handleZoom(evt,'in')"/>
                <use id="zoomminus" xlink:href="#zoomMin" x="42" y="9" onmousedown="handleZoom(evt,'out')"/>
                <use id="reset" xlink:href="#resetDef" x="30" y="36" onmousedown="handleReset()"/>
                <g id="arrowUp" xlink:href="#dirArrow" transform="translate(30 24)" onmousedown="handlePan(0,-1)">
                  <use xlink:href="#rim" fill="#404040">
                        <set attributeName="fill" to="#808080" begin="arrowUp.mouseover" end="arrowUp.mouseout"/>
                  </use>
                  <path fill="none" stroke="white" stroke-width="1.5" d="M0,-3.0v7 M-2.5,-0.5L0,-3.0L2.5,-0.5"/>
                </g>
                <g id="arrowRight" xlink:href="#dirArrow" transform="rotate(90) translate(36 -43)" onmousedown="handlePan(1,0)">
                  <use xlink:href="#rim" fill="#404040">
                        <set attributeName="fill" to="#808080" begin="arrowRight.mouseover" end="arrowRight.mouseout"/>
                  </use>
                  <path fill="none" stroke="white" stroke-width="1.5" d="M0,-3.0v7 M-2.5,-0.5L0,-3.0L2.5,-0.5"/>
                </g>
                <g id="arrowDown" xlink:href="#dirArrow" transform="rotate(180) translate(-30 -48)" onmousedown="handlePan(0,1)">
                  <use xlink:href="#rim" fill="#404040">
                        <set attributeName="fill" to="#808080" begin="arrowDown.mouseover" end="arrowDown.mouseout"/>
                  </use>
                  <path fill="none" stroke="white" stroke-width="1.5" d="M0,-3.0v7 M-2.5,-0.5L0,-3.0L2.5,-0.5"/>
                </g>
                <g id="arrowLeft" xlink:href="#dirArrow" transform="rotate(270) translate(-36 17)" onmousedown="handlePan(-1,0)">
                  <use xlink:href="#rim" fill="#404040">
                        <set attributeName="fill" to="#808080" begin="arrowLeft.mouseover" end="arrowLeft.mouseout"/>
                  </use>
                  <path fill="none" stroke="white" stroke-width="1.5" d="M0,-3.0v7 M-2.5,-0.5L0,-3.0L2.5,-0.5"/>
                </g>
        </g>
        <svg viewBox="0 0 15 15" width="100%" height="30px" preserveAspectRatio="xMaxYMin meet">
         <g id="arrow_out" transform="scale(0.3 0.3)">
          <a xlink:href="class_cool_board_ad03abdce2e65f520bbf2cff0f2d083cf_cgraph_org.svg" target="_base">
           <rect id="button" ry="5" rx="5" y="6" x="6" height="38" width="38"
                fill="#f2f5e9" fill-opacity="0.5" stroke="#606060" stroke-width="1.0"/>
           <path id="arrow"
             d="M 11.500037,31.436501 C 11.940474,20.09759 22.043105,11.32322 32.158766,21.979434 L 37.068811,17.246167 C 37.068811,17.246167 37.088388,32 37.088388,32 L 22.160133,31.978069 C 22.160133,31.978069 26.997745,27.140456 26.997745,27.140456 C 18.528582,18.264221 13.291696,25.230495 11.500037,31.436501 z"
             style="fill:#404040;"/>
          </a>
         </g>
        </svg>
</svg>
