<?xml version="1.0" encoding="UTF-8" standalone="no"?>
<!DOCTYPE svg PUBLIC "-//W3C//DTD SVG 1.1//EN"
 "http://www.w3.org/Graphics/SVG/1.1/DTD/svg11.dtd">
<!-- Generated by graphviz version 2.38.0 (20140413.2041)
 -->
<!-- Title: Adafruit_TCS34725::read8 Pages: 1 -->
<svg width="404pt" height="137pt"
 viewBox="0.00 0.00 404.00 137.00" xmlns="http://www.w3.org/2000/svg" xmlns:xlink="http://www.w3.org/1999/xlink">
<g id="graph0" class="graph" transform="scale(1 1) rotate(0) translate(4 133)">
<title>Adafruit_TCS34725::read8</title>
<polygon fill="white" stroke="none" points="-4,4 -4,-133 400,-133 400,4 -4,4"/>
<!-- Node43 -->
<g id="node1" class="node"><title>Node43</title>
<polygon fill="#bfbfbf" stroke="black" points="0,-49.5 0,-79.5 108,-79.5 108,-49.5 0,-49.5"/>
<text text-anchor="start" x="8" y="-67.5" font-family="Helvetica,sans-Serif" font-size="10.00">Adafruit_TCS34725::</text>
<text text-anchor="middle" x="54" y="-56.5" font-family="Helvetica,sans-Serif" font-size="10.00">read8</text>
</g>
<!-- Node44 -->
<g id="node2" class="node"><title>Node44</title>
<g id="a_node2"><a xlink:href="class_adafruit___t_c_s34725.html#a79ac9b01a540f132d4bbf2edd2d6e8a2" target="_top" xlink:title="Adafruit_TCS34725::\ldisable">
<polygon fill="white" stroke="black" points="144,-98.5 144,-128.5 252,-128.5 252,-98.5 144,-98.5"/>
<text text-anchor="start" x="152" y="-116.5" font-family="Helvetica,sans-Serif" font-size="10.00">Adafruit_TCS34725::</text>
<text text-anchor="middle" x="198" y="-105.5" font-family="Helvetica,sans-Serif" font-size="10.00">disable</text>
</a>
</g>
</g>
<!-- Node43&#45;&gt;Node44 -->
<g id="edge1" class="edge"><title>Node43&#45;&gt;Node44</title>
<path fill="none" stroke="midnightblue" d="M108.292,-82.8896C123.078,-87.9916 138.957,-93.4711 153.137,-98.3641"/>
<polygon fill="midnightblue" stroke="midnightblue" points="109.358,-79.5549 98.7634,-79.6014 107.075,-86.172 109.358,-79.5549"/>
</g>
<!-- Node45 -->
<g id="node3" class="node"><title>Node45</title>
<g id="a_node3"><a xlink:href="class_adafruit___t_c_s34725.html#a568d79b6382ac27010a8afc26cbdae79" target="_top" xlink:title="Adafruit_TCS34725::\lbegin">
<polygon fill="white" stroke="black" points="144,-49.5 144,-79.5 252,-79.5 252,-49.5 144,-49.5"/>
<text text-anchor="start" x="152" y="-67.5" font-family="Helvetica,sans-Serif" font-size="10.00">Adafruit_TCS34725::</text>
<text text-anchor="middle" x="198" y="-56.5" font-family="Helvetica,sans-Serif" font-size="10.00">begin</text>
</a>
</g>
</g>
<!-- Node43&#45;&gt;Node45 -->
<g id="edge2" class="edge"><title>Node43&#45;&gt;Node45</title>
<path fill="none" stroke="midnightblue" d="M118.517,-64.5C126.996,-64.5 135.618,-64.5 143.894,-64.5"/>
<polygon fill="midnightblue" stroke="midnightblue" points="118.28,-61.0001 108.28,-64.5 118.28,-68.0001 118.28,-61.0001"/>
</g>
<!-- Node49 -->
<g id="node7" class="node"><title>Node49</title>
<g id="a_node7"><a xlink:href="class_adafruit___t_c_s34725.html#ae477b116ac93cf075be20637207aee57" target="_top" xlink:title="Adafruit_TCS34725::\lsetInterrupt">
<polygon fill="white" stroke="black" points="144,-0.5 144,-30.5 252,-30.5 252,-0.5 144,-0.5"/>
<text text-anchor="start" x="152" y="-18.5" font-family="Helvetica,sans-Serif" font-size="10.00">Adafruit_TCS34725::</text>
<text text-anchor="middle" x="198" y="-7.5" font-family="Helvetica,sans-Serif" font-size="10.00">setInterrupt</text>
</a>
</g>
</g>
<!-- Node43&#45;&gt;Node49 -->
<g id="edge8" class="edge"><title>Node43&#45;&gt;Node49</title>
<path fill="none" stroke="midnightblue" d="M108.292,-46.1104C123.078,-41.0084 138.957,-35.5289 153.137,-30.6359"/>
<polygon fill="midnightblue" stroke="midnightblue" points="107.075,-42.828 98.7634,-49.3986 109.358,-49.4451 107.075,-42.828"/>
</g>
<!-- Node46 -->
<g id="node4" class="node"><title>Node46</title>
<g id="a_node4"><a xlink:href="class_adafruit___t_c_s34725.html#a3c89fe5d4eea1f24f31d1afa9de8f0f3" target="_top" xlink:title="Adafruit_TCS34725::\lsetIntegrationTime">
<polygon fill="white" stroke="black" points="288,-98.5 288,-128.5 396,-128.5 396,-98.5 288,-98.5"/>
<text text-anchor="start" x="296" y="-116.5" font-family="Helvetica,sans-Serif" font-size="10.00">Adafruit_TCS34725::</text>
<text text-anchor="middle" x="342" y="-105.5" font-family="Helvetica,sans-Serif" font-size="10.00">setIntegrationTime</text>
</a>
</g>
</g>
<!-- Node45&#45;&gt;Node46 -->
<g id="edge3" class="edge"><title>Node45&#45;&gt;Node46</title>
<path fill="none" stroke="midnightblue" d="M262.147,-79.5771C280.088,-85.5988 298.705,-92.4352 313.342,-98.479"/>
<polygon fill="midnightblue" stroke="midnightblue" points="262.873,-76.131 252.28,-76.3256 260.682,-82.7794 262.873,-76.131"/>
</g>
<!-- Node47 -->
<g id="node5" class="node"><title>Node47</title>
<g id="a_node5"><a xlink:href="class_adafruit___t_c_s34725.html#a6be06315a9d33f76e44550f574f023a5" target="_top" xlink:title="Adafruit_TCS34725::\lsetGain">
<polygon fill="white" stroke="black" points="288,-49.5 288,-79.5 396,-79.5 396,-49.5 288,-49.5"/>
<text text-anchor="start" x="296" y="-67.5" font-family="Helvetica,sans-Serif" font-size="10.00">Adafruit_TCS34725::</text>
<text text-anchor="middle" x="342" y="-56.5" font-family="Helvetica,sans-Serif" font-size="10.00">setGain</text>
</a>
</g>
</g>
<!-- Node45&#45;&gt;Node47 -->
<g id="edge5" class="edge"><title>Node45&#45;&gt;Node47</title>
<path fill="none" stroke="midnightblue" d="M262.517,-57.7834C270.996,-57.7074 279.618,-57.761 287.894,-57.9443"/>
<polygon fill="midnightblue" stroke="midnightblue" points="262.225,-54.2874 252.28,-57.9404 262.332,-61.2866 262.225,-54.2874"/>
</g>
<!-- Node48 -->
<g id="node6" class="node"><title>Node48</title>
<g id="a_node6"><a xlink:href="class_adafruit___t_c_s34725.html#abd9946a9baab1e0c76248cfe1864ea27" target="_top" xlink:title="Reads the raw red, green, blue and clear channel values. ">
<polygon fill="white" stroke="black" points="288,-0.5 288,-30.5 396,-30.5 396,-0.5 288,-0.5"/>
<text text-anchor="start" x="296" y="-18.5" font-family="Helvetica,sans-Serif" font-size="10.00">Adafruit_TCS34725::</text>
<text text-anchor="middle" x="342" y="-7.5" font-family="Helvetica,sans-Serif" font-size="10.00">getRawData</text>
</a>
</g>
</g>
<!-- Node45&#45;&gt;Node48 -->
<g id="edge7" class="edge"><title>Node45&#45;&gt;Node48</title>
<path fill="none" stroke="midnightblue" d="M252.292,-46.1104C267.078,-41.0084 282.957,-35.5289 297.137,-30.6359"/>
<polygon fill="midnightblue" stroke="midnightblue" points="251.075,-42.828 242.763,-49.3986 253.358,-49.4451 251.075,-42.828"/>
</g>
<!-- Node46&#45;&gt;Node45 -->
<g id="edge4" class="edge"><title>Node46&#45;&gt;Node45</title>
<path fill="none" stroke="midnightblue" d="M277.903,-98.4397C259.971,-92.4218 241.358,-85.5885 226.716,-79.545"/>
<polygon fill="midnightblue" stroke="midnightblue" points="277.172,-101.884 287.765,-101.689 279.363,-95.2356 277.172,-101.884"/>
</g>
<!-- Node47&#45;&gt;Node45 -->
<g id="edge6" class="edge"><title>Node47&#45;&gt;Node45</title>
<path fill="none" stroke="midnightblue" d="M277.661,-71.215C269.184,-71.2928 260.56,-71.241 252.28,-71.0596"/>
<polygon fill="midnightblue" stroke="midnightblue" points="277.95,-74.711 287.894,-71.0557 277.841,-67.7118 277.95,-74.711"/>
</g>
</g>
</svg>
