<?xml version="1.0" encoding="UTF-8" standalone="no"?>
<!DOCTYPE svg PUBLIC "-//W3C//DTD SVG 1.1//EN"
 "http://www.w3.org/Graphics/SVG/1.1/DTD/svg11.dtd">
<!-- Generated by graphviz version 2.38.0 (20140413.2041)
 -->
<!-- Title: Adafruit_TCS34725::write8 Pages: 1 -->
<svg width="548pt" height="274pt"
 viewBox="0.00 0.00 548.00 274.00" xmlns="http://www.w3.org/2000/svg" xmlns:xlink="http://www.w3.org/1999/xlink">
<g id="graph0" class="graph" transform="scale(1 1) rotate(0) translate(4 270)">
<title>Adafruit_TCS34725::write8</title>
<polygon fill="white" stroke="none" points="-4,4 -4,-270 544,-270 544,4 -4,4"/>
<!-- Node78 -->
<g id="node1" class="node"><title>Node78</title>
<polygon fill="#bfbfbf" stroke="black" points="0,-120.5 0,-150.5 108,-150.5 108,-120.5 0,-120.5"/>
<text text-anchor="start" x="8" y="-138.5" font-family="Helvetica,sans-Serif" font-size="10.00">Adafruit_TCS34725::</text>
<text text-anchor="middle" x="54" y="-127.5" font-family="Helvetica,sans-Serif" font-size="10.00">write8</text>
</g>
<!-- Node79 -->
<g id="node2" class="node"><title>Node79</title>
<g id="a_node2"><a xlink:href="class_adafruit___t_c_s34725.html#ad9a0e1f4f77d32dc0a6d604f7d1d5586" target="_top" xlink:title="Adafruit_TCS34725::\lenable">
<polygon fill="white" stroke="black" points="144,-186.5 144,-216.5 252,-216.5 252,-186.5 144,-186.5"/>
<text text-anchor="start" x="152" y="-204.5" font-family="Helvetica,sans-Serif" font-size="10.00">Adafruit_TCS34725::</text>
<text text-anchor="middle" x="198" y="-193.5" font-family="Helvetica,sans-Serif" font-size="10.00">enable</text>
</a>
</g>
</g>
<!-- Node78&#45;&gt;Node79 -->
<g id="edge1" class="edge"><title>Node78&#45;&gt;Node79</title>
<path fill="none" stroke="midnightblue" d="M96.8607,-154.956C118.492,-165.01 144.49,-177.094 164.574,-186.429"/>
<polygon fill="midnightblue" stroke="midnightblue" points="98.1212,-151.683 87.5777,-150.642 95.1708,-158.031 98.1212,-151.683"/>
</g>
<!-- Node81 -->
<g id="node4" class="node"><title>Node81</title>
<g id="a_node4"><a xlink:href="class_adafruit___t_c_s34725.html#a3c89fe5d4eea1f24f31d1afa9de8f0f3" target="_top" xlink:title="Adafruit_TCS34725::\lsetIntegrationTime">
<polygon fill="white" stroke="black" points="432,-235.5 432,-265.5 540,-265.5 540,-235.5 432,-235.5"/>
<text text-anchor="start" x="440" y="-253.5" font-family="Helvetica,sans-Serif" font-size="10.00">Adafruit_TCS34725::</text>
<text text-anchor="middle" x="486" y="-242.5" font-family="Helvetica,sans-Serif" font-size="10.00">setIntegrationTime</text>
</a>
</g>
</g>
<!-- Node78&#45;&gt;Node81 -->
<g id="edge9" class="edge"><title>Node78&#45;&gt;Node81</title>
<path fill="none" stroke="midnightblue" d="M70.412,-159.13C86.0639,-180.877 112.448,-211.9 144,-226.5 237.988,-269.991 362.284,-265.342 431.9,-257.975"/>
<polygon fill="midnightblue" stroke="midnightblue" points="73.1547,-156.944 64.5683,-150.737 67.4099,-160.944 73.1547,-156.944"/>
</g>
<!-- Node82 -->
<g id="node5" class="node"><title>Node82</title>
<g id="a_node5"><a xlink:href="class_adafruit___t_c_s34725.html#a6be06315a9d33f76e44550f574f023a5" target="_top" xlink:title="Adafruit_TCS34725::\lsetGain">
<polygon fill="white" stroke="black" points="432,-137.5 432,-167.5 540,-167.5 540,-137.5 432,-137.5"/>
<text text-anchor="start" x="440" y="-155.5" font-family="Helvetica,sans-Serif" font-size="10.00">Adafruit_TCS34725::</text>
<text text-anchor="middle" x="486" y="-144.5" font-family="Helvetica,sans-Serif" font-size="10.00">setGain</text>
</a>
</g>
</g>
<!-- Node78&#45;&gt;Node82 -->
<g id="edge10" class="edge"><title>Node78&#45;&gt;Node82</title>
<path fill="none" stroke="midnightblue" d="M118.186,-137.998C203.115,-141.356 352.575,-147.265 431.964,-150.403"/>
<polygon fill="midnightblue" stroke="midnightblue" points="118.288,-134.499 108.158,-137.602 118.012,-141.494 118.288,-134.499"/>
</g>
<!-- Node84 -->
<g id="node7" class="node"><title>Node84</title>
<g id="a_node7"><a xlink:href="class_adafruit___t_c_s34725.html#a79ac9b01a540f132d4bbf2edd2d6e8a2" target="_top" xlink:title="Adafruit_TCS34725::\ldisable">
<polygon fill="white" stroke="black" points="144,-98.5 144,-128.5 252,-128.5 252,-98.5 144,-98.5"/>
<text text-anchor="start" x="152" y="-116.5" font-family="Helvetica,sans-Serif" font-size="10.00">Adafruit_TCS34725::</text>
<text text-anchor="middle" x="198" y="-105.5" font-family="Helvetica,sans-Serif" font-size="10.00">disable</text>
</a>
</g>
</g>
<!-- Node78&#45;&gt;Node84 -->
<g id="edge8" class="edge"><title>Node78&#45;&gt;Node84</title>
<path fill="none" stroke="midnightblue" d="M118.238,-125.703C126.806,-124.375 135.528,-123.024 143.894,-121.728"/>
<polygon fill="midnightblue" stroke="midnightblue" points="117.626,-122.256 108.28,-127.245 118.698,-129.173 117.626,-122.256"/>
</g>
<!-- Node85 -->
<g id="node8" class="node"><title>Node85</title>
<g id="a_node8"><a xlink:href="class_adafruit___t_c_s34725.html#ae477b116ac93cf075be20637207aee57" target="_top" xlink:title="Adafruit_TCS34725::\lsetInterrupt">
<polygon fill="white" stroke="black" points="144,-49.5 144,-79.5 252,-79.5 252,-49.5 144,-49.5"/>
<text text-anchor="start" x="152" y="-67.5" font-family="Helvetica,sans-Serif" font-size="10.00">Adafruit_TCS34725::</text>
<text text-anchor="middle" x="198" y="-56.5" font-family="Helvetica,sans-Serif" font-size="10.00">setInterrupt</text>
</a>
</g>
</g>
<!-- Node78&#45;&gt;Node85 -->
<g id="edge11" class="edge"><title>Node78&#45;&gt;Node85</title>
<path fill="none" stroke="midnightblue" d="M92.6651,-115.649C108.457,-107.426 127.054,-97.8726 144,-89.5 150.658,-86.2102 157.829,-82.7638 164.678,-79.5176"/>
<polygon fill="midnightblue" stroke="midnightblue" points="90.9686,-112.586 83.7246,-120.318 94.2089,-118.791 90.9686,-112.586"/>
</g>
<!-- Node86 -->
<g id="node9" class="node"><title>Node86</title>
<g id="a_node9"><a xlink:href="class_adafruit___t_c_s34725.html#ac17b2447df066e30d1e64fe764f88770" target="_top" xlink:title="Adafruit_TCS34725::\lsetIntLimits">
<polygon fill="white" stroke="black" points="144,-0.5 144,-30.5 252,-30.5 252,-0.5 144,-0.5"/>
<text text-anchor="start" x="152" y="-18.5" font-family="Helvetica,sans-Serif" font-size="10.00">Adafruit_TCS34725::</text>
<text text-anchor="middle" x="198" y="-7.5" font-family="Helvetica,sans-Serif" font-size="10.00">setIntLimits</text>
</a>
</g>
</g>
<!-- Node78&#45;&gt;Node86 -->
<g id="edge12" class="edge"><title>Node78&#45;&gt;Node86</title>
<path fill="none" stroke="midnightblue" d="M72.5058,-112.309C89.1358,-91.474 115.739,-61.0785 144,-40.5 149.017,-36.8469 154.652,-33.5154 160.326,-30.5594"/>
<polygon fill="midnightblue" stroke="midnightblue" points="69.6364,-110.296 66.2217,-120.326 75.1456,-114.615 69.6364,-110.296"/>
</g>
<!-- Node80 -->
<g id="node3" class="node"><title>Node80</title>
<g id="a_node3"><a xlink:href="class_adafruit___t_c_s34725.html#a568d79b6382ac27010a8afc26cbdae79" target="_top" xlink:title="Adafruit_TCS34725::\lbegin">
<polygon fill="white" stroke="black" points="288,-186.5 288,-216.5 396,-216.5 396,-186.5 288,-186.5"/>
<text text-anchor="start" x="296" y="-204.5" font-family="Helvetica,sans-Serif" font-size="10.00">Adafruit_TCS34725::</text>
<text text-anchor="middle" x="342" y="-193.5" font-family="Helvetica,sans-Serif" font-size="10.00">begin</text>
</a>
</g>
</g>
<!-- Node79&#45;&gt;Node80 -->
<g id="edge2" class="edge"><title>Node79&#45;&gt;Node80</title>
<path fill="none" stroke="midnightblue" d="M262.517,-201.5C270.996,-201.5 279.618,-201.5 287.894,-201.5"/>
<polygon fill="midnightblue" stroke="midnightblue" points="262.28,-198 252.28,-201.5 262.28,-205 262.28,-198"/>
</g>
<!-- Node80&#45;&gt;Node81 -->
<g id="edge3" class="edge"><title>Node80&#45;&gt;Node81</title>
<path fill="none" stroke="midnightblue" d="M406.147,-216.577C424.088,-222.599 442.705,-229.435 457.342,-235.479"/>
<polygon fill="midnightblue" stroke="midnightblue" points="406.873,-213.131 396.28,-213.326 404.682,-219.779 406.873,-213.131"/>
</g>
<!-- Node80&#45;&gt;Node82 -->
<g id="edge5" class="edge"><title>Node80&#45;&gt;Node82</title>
<path fill="none" stroke="midnightblue" d="M380.119,-182.677C395.888,-176.495 414.57,-169.867 431.765,-164.311"/>
<polygon fill="midnightblue" stroke="midnightblue" points="378.69,-179.479 370.716,-186.455 381.3,-185.974 378.69,-179.479"/>
</g>
<!-- Node83 -->
<g id="node6" class="node"><title>Node83</title>
<g id="a_node6"><a xlink:href="class_adafruit___t_c_s34725.html#abd9946a9baab1e0c76248cfe1864ea27" target="_top" xlink:title="Reads the raw red, green, blue and clear channel values. ">
<polygon fill="white" stroke="black" points="432,-186.5 432,-216.5 540,-216.5 540,-186.5 432,-186.5"/>
<text text-anchor="start" x="440" y="-204.5" font-family="Helvetica,sans-Serif" font-size="10.00">Adafruit_TCS34725::</text>
<text text-anchor="middle" x="486" y="-193.5" font-family="Helvetica,sans-Serif" font-size="10.00">getRawData</text>
</a>
</g>
</g>
<!-- Node80&#45;&gt;Node83 -->
<g id="edge7" class="edge"><title>Node80&#45;&gt;Node83</title>
<path fill="none" stroke="midnightblue" d="M406.517,-201.5C414.996,-201.5 423.618,-201.5 431.894,-201.5"/>
<polygon fill="midnightblue" stroke="midnightblue" points="406.28,-198 396.28,-201.5 406.28,-205 406.28,-198"/>
</g>
<!-- Node81&#45;&gt;Node80 -->
<g id="edge4" class="edge"><title>Node81&#45;&gt;Node80</title>
<path fill="none" stroke="midnightblue" d="M421.903,-235.44C403.971,-229.422 385.358,-222.588 370.716,-216.545"/>
<polygon fill="midnightblue" stroke="midnightblue" points="421.172,-238.884 431.765,-238.689 423.363,-232.236 421.172,-238.884"/>
</g>
<!-- Node82&#45;&gt;Node80 -->
<g id="edge6" class="edge"><title>Node82&#45;&gt;Node80</title>
<path fill="none" stroke="midnightblue" d="M447.941,-171.3C432.173,-177.483 413.485,-184.114 396.28,-189.674"/>
<polygon fill="midnightblue" stroke="midnightblue" points="449.369,-174.498 457.342,-167.521 446.758,-168.003 449.369,-174.498"/>
</g>
</g>
</svg>
