<?xml version="1.0" encoding="UTF-8" standalone="no"?>
<!DOCTYPE svg PUBLIC "-//W3C//DTD SVG 1.1//EN"
 "http://www.w3.org/Graphics/SVG/1.1/DTD/svg11.dtd">
<!-- Generated by graphviz version 2.38.0 (20140413.2041)
 -->
<!-- Title: Adafruit_ADS1115 Pages: 1 -->
<svg width="170pt" height="281pt"
 viewBox="0.00 0.00 170.00 281.00" xmlns="http://www.w3.org/2000/svg" xmlns:xlink="http://www.w3.org/1999/xlink">
<g id="graph0" class="graph" transform="scale(1 1) rotate(0) translate(4 277)">
<title>Adafruit_ADS1115</title>
<polygon fill="white" stroke="none" points="-4,4 -4,-277 166,-277 166,4 -4,4"/>
<!-- Node2 -->
<g id="node1" class="node"><title>Node2</title>
<polygon fill="#bfbfbf" stroke="black" points="24.5,-0.5 24.5,-57.5 137.5,-57.5 137.5,-0.5 24.5,-0.5"/>
<text text-anchor="middle" x="81" y="-45.5" font-family="Helvetica,sans-Serif" font-size="10.00">Adafruit_ADS1115</text>
<polyline fill="none" stroke="black" points="24.5,-38.5 137.5,-38.5 "/>
<text text-anchor="middle" x="81" y="-26.5" font-family="Helvetica,sans-Serif" font-size="10.00"> </text>
<polyline fill="none" stroke="black" points="24.5,-19.5 137.5,-19.5 "/>
<text text-anchor="start" x="32.5" y="-7.5" font-family="Helvetica,sans-Serif" font-size="10.00">+ Adafruit_ADS1115()</text>
</g>
<!-- Node3 -->
<g id="node2" class="node"><title>Node3</title>
<g id="a_node2"><a xlink:href="class_adafruit___a_d_s1015.html" target="_top" xlink:title="{Adafruit_ADS1015\n|# m_i2cAddress\l# m_conversionDelay\l# m_bitShift\l# m_gain\l|+ Adafruit_ADS1015()\l+ begin()\l+ readADC_SingleEnded()\l+ readADC_Differential_0_1()\l+ readADC_Differential_2_3()\l+ startComparator_SingleEnded()\l+ getLastConversionResults()\l+ setGain()\l+ getGain()\l}">
<polygon fill="white" stroke="black" points="0,-94.5 0,-272.5 162,-272.5 162,-94.5 0,-94.5"/>
<text text-anchor="middle" x="81" y="-260.5" font-family="Helvetica,sans-Serif" font-size="10.00">Adafruit_ADS1015</text>
<polyline fill="none" stroke="black" points="0,-253.5 162,-253.5 "/>
<text text-anchor="start" x="8" y="-241.5" font-family="Helvetica,sans-Serif" font-size="10.00"># m_i2cAddress</text>
<text text-anchor="start" x="8" y="-230.5" font-family="Helvetica,sans-Serif" font-size="10.00"># m_conversionDelay</text>
<text text-anchor="start" x="8" y="-219.5" font-family="Helvetica,sans-Serif" font-size="10.00"># m_bitShift</text>
<text text-anchor="start" x="8" y="-208.5" font-family="Helvetica,sans-Serif" font-size="10.00"># m_gain</text>
<polyline fill="none" stroke="black" points="0,-201.5 162,-201.5 "/>
<text text-anchor="start" x="8" y="-189.5" font-family="Helvetica,sans-Serif" font-size="10.00">+ Adafruit_ADS1015()</text>
<text text-anchor="start" x="8" y="-178.5" font-family="Helvetica,sans-Serif" font-size="10.00">+ begin()</text>
<text text-anchor="start" x="8" y="-167.5" font-family="Helvetica,sans-Serif" font-size="10.00">+ readADC_SingleEnded()</text>
<text text-anchor="start" x="8" y="-156.5" font-family="Helvetica,sans-Serif" font-size="10.00">+ readADC_Differential_0_1()</text>
<text text-anchor="start" x="8" y="-145.5" font-family="Helvetica,sans-Serif" font-size="10.00">+ readADC_Differential_2_3()</text>
<text text-anchor="start" x="8" y="-134.5" font-family="Helvetica,sans-Serif" font-size="10.00">+ startComparator_SingleEnded()</text>
<text text-anchor="start" x="8" y="-123.5" font-family="Helvetica,sans-Serif" font-size="10.00">+ getLastConversionResults()</text>
<text text-anchor="start" x="8" y="-112.5" font-family="Helvetica,sans-Serif" font-size="10.00">+ setGain()</text>
<text text-anchor="start" x="8" y="-101.5" font-family="Helvetica,sans-Serif" font-size="10.00">+ getGain()</text>
</a>
</g>
</g>
<!-- Node3&#45;&gt;Node2 -->
<g id="edge1" class="edge"><title>Node3&#45;&gt;Node2</title>
<path fill="none" stroke="midnightblue" d="M81,-84.1685C81,-74.6593 81,-65.6515 81,-57.8101"/>
<polygon fill="none" stroke="midnightblue" points="77.5001,-84.2317 81,-94.2317 84.5001,-84.2318 77.5001,-84.2317"/>
</g>
</g>
</svg>
