<?xml version="1.0" encoding="UTF-8" standalone="no"?>
<!DOCTYPE svg PUBLIC "-//W3C//DTD SVG 1.1//EN"
 "http://www.w3.org/Graphics/SVG/1.1/DTD/svg11.dtd">
<!-- Generated by graphviz version 2.38.0 (20140413.2041)
 -->
<!-- Title: WiFiManager::startConfigPortal Pages: 1 -->
<!--zoomable 666 -->
<svg id="main" version="1.1" xmlns="http://www.w3.org/2000/svg" xmlns:xlink="http://www.w3.org/1999/xlink" xml:space="preserve" onload="init(evt)">
<style type="text/css"><![CDATA[
.edge:hover path { stroke: red; }
.edge:hover polygon { stroke: red; fill: red; }
]]></style>
<script type="text/javascript"><![CDATA[
var edges = document.getElementsByTagName('g');
if (edges && edges.length) {
  for (var i=0;i<edges.length;i++) {
    if (edges[i].id.substr(0,4)=='edge') {
      edges[i].setAttribute('class','edge');
    }
  }
}
]]></script>
        <defs>
                <circle id="rim" cx="0" cy="0" r="7"/>
                <circle id="rim2" cx="0" cy="0" r="3.5"/>
                <g id="zoomPlus">
                        <use xlink:href="#rim" fill="#404040">
                                <set attributeName="fill" to="#808080" begin="zoomplus.mouseover" end="zoomplus.mouseout"/>
                        </use>
                        <path d="M-4,0h8M0,-4v8" fill="none" stroke="white" stroke-width="1.5" pointer-events="none"/>
                </g>
                <g id="zoomMin">
                        <use xlink:href="#rim" fill="#404040">
                                <set attributeName="fill" to="#808080" begin="zoomminus.mouseover" end="zoomminus.mouseout"/>
                        </use>
                        <path d="M-4,0h8" fill="none" stroke="white" stroke-width="1.5" pointer-events="none"/>
                </g>
                <g id="dirArrow">
                        <path fill="none" stroke="white" stroke-width="1.5" d="M0,-3.0v7 M-2.5,-0.5L0,-3.0L2.5,-0.5"/>
                </g>
               <g id="resetDef">
                       <use xlink:href="#rim2" fill="#404040">
                               <set attributeName="fill" to="#808080" begin="reset.mouseover" end="reset.mouseout"/>
                       </use>
               </g>
        </defs>

<script type="text/javascript">
var viewWidth = 864;
var viewHeight = 666;
var sectionId = 'dynsection-36';
</script>
<script xlink:href="svgpan.js"/>
<svg id="graph" class="graph">
<g id="viewport">
<title>WiFiManager::startConfigPortal</title>
<polygon fill="white" stroke="none" points="-4,4 -4,-662.216 860,-662.216 860,4 -4,4"/>
<!-- Node194 -->
<g id="node1" class="node"><title>Node194</title>
<polygon fill="#bfbfbf" stroke="black" points="0,-84.2164 0,-114.216 128,-114.216 128,-84.2164 0,-84.2164"/>
<text text-anchor="start" x="8" y="-102.216" font-family="Helvetica,sans-Serif" font-size="10.00">WiFiManager::startConfig</text>
<text text-anchor="middle" x="64" y="-91.2164" font-family="Helvetica,sans-Serif" font-size="10.00">Portal</text>
</g>
<!-- Node195 -->
<g id="node2" class="node"><title>Node195</title>
<g id="a_node2"><a xlink:href="class_wi_fi_manager.html#ae5f595c670ccbcf9a191baf50f5c7c26" target="_top" xlink:title="WiFiManager::DEBUG_WM">
<polygon fill="white" stroke="black" points="716,-253.716 716,-272.716 856,-272.716 856,-253.716 716,-253.716"/>
<text text-anchor="middle" x="786" y="-260.716" font-family="Helvetica,sans-Serif" font-size="10.00">WiFiManager::DEBUG_WM</text>
</a>
</g>
</g>
<!-- Node194&#45;&gt;Node195 -->
<g id="edge1" class="edge"><title>Node194&#45;&gt;Node195</title>
<path fill="none" stroke="midnightblue" d="M98.5485,-84.098C196.697,-42.3396 488.418,63.9351 680,-54.2164 748.994,-96.7661 774.234,-200.04 782.004,-243.463"/>
<polygon fill="midnightblue" stroke="midnightblue" points="778.558,-244.074 783.654,-253.363 785.463,-242.924 778.558,-244.074"/>
</g>
<!-- Node196 -->
<g id="node3" class="node"><title>Node196</title>
<g id="a_node3"><a xlink:href="class_wi_fi_manager.html#a1743325d0dd86d011df96b22d2a0ddd6" target="_top" xlink:title="WiFiManager::setupConfig\lPortal">
<polygon fill="white" stroke="black" points="164,-352.216 164,-382.216 297,-382.216 297,-352.216 164,-352.216"/>
<text text-anchor="start" x="172" y="-370.216" font-family="Helvetica,sans-Serif" font-size="10.00">WiFiManager::setupConfig</text>
<text text-anchor="middle" x="230.5" y="-359.216" font-family="Helvetica,sans-Serif" font-size="10.00">Portal</text>
</a>
</g>
</g>
<!-- Node194&#45;&gt;Node196 -->
<g id="edge2" class="edge"><title>Node194&#45;&gt;Node196</title>
<path fill="none" stroke="midnightblue" d="M74.3156,-114.393C101.686,-158.984 182.003,-289.835 215.046,-343.668"/>
<polygon fill="midnightblue" stroke="midnightblue" points="212.072,-345.514 220.287,-352.206 218.038,-341.853 212.072,-345.514"/>
</g>
<!-- Node211 -->
<g id="node18" class="node"><title>Node211</title>
<g id="a_node18"><a xlink:href="class_wi_fi_manager.html#ae0ae27b5543b47585728c084c3bbdca7" target="_top" xlink:title="WiFiManager::connectWifi">
<polygon fill="white" stroke="black" points="343,-89.7164 343,-108.716 475,-108.716 475,-89.7164 343,-89.7164"/>
<text text-anchor="middle" x="409" y="-96.7164" font-family="Helvetica,sans-Serif" font-size="10.00">WiFiManager::connectWifi</text>
</a>
</g>
</g>
<!-- Node194&#45;&gt;Node211 -->
<g id="edge26" class="edge"><title>Node194&#45;&gt;Node211</title>
<path fill="none" stroke="midnightblue" d="M128.311,-99.2164C185.951,-99.2164 271.149,-99.2164 332.354,-99.2164"/>
<polygon fill="midnightblue" stroke="midnightblue" points="332.725,-102.716 342.725,-99.2164 332.725,-95.7165 332.725,-102.716"/>
</g>
<!-- Node196&#45;&gt;Node195 -->
<g id="edge3" class="edge"><title>Node196&#45;&gt;Node195</title>
<path fill="none" stroke="midnightblue" d="M236.909,-351.949C248.745,-321.19 280.184,-252.385 333,-225.216 475.414,-151.958 676.809,-219.075 753.6,-249.769"/>
<polygon fill="midnightblue" stroke="midnightblue" points="752.591,-253.137 763.173,-253.667 755.231,-246.654 752.591,-253.137"/>
</g>
<!-- Node197 -->
<g id="node4" class="node"><title>Node197</title>
<g id="a_node4"><a xlink:href="class_wi_fi_manager.html#a47e4c7df7478f690c53ff9f5125c9760" target="_top" xlink:title="WiFiManager::handleRoot">
<polygon fill="white" stroke="black" points="344,-581.716 344,-600.716 474,-600.716 474,-581.716 344,-581.716"/>
<text text-anchor="middle" x="409" y="-588.716" font-family="Helvetica,sans-Serif" font-size="10.00">WiFiManager::handleRoot</text>
</a>
</g>
</g>
<!-- Node196&#45;&gt;Node197 -->
<g id="edge4" class="edge"><title>Node196&#45;&gt;Node197</title>
<path fill="none" stroke="midnightblue" d="M239.568,-382.284C255.406,-411.185 292.561,-475.744 333,-523.216 349.637,-542.746 371.685,-562.113 387.565,-575.152"/>
<polygon fill="midnightblue" stroke="midnightblue" points="385.7,-578.146 395.679,-581.707 390.099,-572.7 385.7,-578.146"/>
</g>
<!-- Node201 -->
<g id="node8" class="node"><title>Node201</title>
<g id="a_node8"><a xlink:href="class_wi_fi_manager.html#a57a9048175c1918340ab9d0a2c53601f" target="_top" xlink:title="WiFiManager::handleWifi">
<polygon fill="white" stroke="black" points="346,-436.716 346,-455.716 472,-455.716 472,-436.716 346,-436.716"/>
<text text-anchor="middle" x="409" y="-443.716" font-family="Helvetica,sans-Serif" font-size="10.00">WiFiManager::handleWifi</text>
</a>
</g>
</g>
<!-- Node196&#45;&gt;Node201 -->
<g id="edge10" class="edge"><title>Node196&#45;&gt;Node201</title>
<path fill="none" stroke="midnightblue" d="M265.114,-382.262C297.424,-396.723 345.843,-418.395 377.181,-432.422"/>
<polygon fill="midnightblue" stroke="midnightblue" points="376.157,-435.798 386.714,-436.689 379.017,-429.409 376.157,-435.798"/>
</g>
<!-- Node204 -->
<g id="node11" class="node"><title>Node204</title>
<g id="a_node11"><a xlink:href="class_wi_fi_manager.html#a2a8c2b60aa86dfdeab8a1a90f7122dc7" target="_top" xlink:title="WiFiManager::handleWifiSave">
<polygon fill="white" stroke="black" points="334.5,-357.716 334.5,-376.716 483.5,-376.716 483.5,-357.716 334.5,-357.716"/>
<text text-anchor="middle" x="409" y="-364.716" font-family="Helvetica,sans-Serif" font-size="10.00">WiFiManager::handleWifiSave</text>
</a>
</g>
</g>
<!-- Node196&#45;&gt;Node204 -->
<g id="edge14" class="edge"><title>Node196&#45;&gt;Node204</title>
<path fill="none" stroke="midnightblue" d="M297.222,-367.216C305.981,-367.216 315.057,-367.216 324.073,-367.216"/>
<polygon fill="midnightblue" stroke="midnightblue" points="324.207,-370.716 334.207,-367.216 324.207,-363.716 324.207,-370.716"/>
</g>
<!-- Node206 -->
<g id="node13" class="node"><title>Node206</title>
<g id="a_node13"><a xlink:href="class_wi_fi_manager.html#ac35e46661f8a209d84bba62d9aa43a35" target="_top" xlink:title="WiFiManager::handleInfo">
<polygon fill="white" stroke="black" points="538,-543.716 538,-562.716 663,-562.716 663,-543.716 538,-543.716"/>
<text text-anchor="middle" x="600.5" y="-550.716" font-family="Helvetica,sans-Serif" font-size="10.00">WiFiManager::handleInfo</text>
</a>
</g>
</g>
<!-- Node196&#45;&gt;Node206 -->
<g id="edge17" class="edge"><title>Node196&#45;&gt;Node206</title>
<path fill="none" stroke="midnightblue" d="M243.737,-382.518C261.415,-403.729 296.055,-442.063 333,-465.216 396.778,-505.185 480.623,-528.96 537.095,-541.531"/>
<polygon fill="midnightblue" stroke="midnightblue" points="536.445,-544.972 546.96,-543.676 537.932,-538.131 536.445,-544.972"/>
</g>
<!-- Node207 -->
<g id="node14" class="node"><title>Node207</title>
<g id="a_node14"><a xlink:href="class_wi_fi_manager.html#a94fb1a8fcfbd0d02714c69138bf72f9c" target="_top" xlink:title="WiFiManager::handleReset">
<polygon fill="white" stroke="black" points="341.5,-234.716 341.5,-253.716 476.5,-253.716 476.5,-234.716 341.5,-234.716"/>
<text text-anchor="middle" x="409" y="-241.716" font-family="Helvetica,sans-Serif" font-size="10.00">WiFiManager::handleReset</text>
</a>
</g>
</g>
<!-- Node196&#45;&gt;Node207 -->
<g id="edge19" class="edge"><title>Node196&#45;&gt;Node207</title>
<path fill="none" stroke="midnightblue" d="M247.125,-352.167C266.325,-334.154 300.382,-303.73 333,-282.216 346.762,-273.14 362.978,-264.676 376.804,-258.051"/>
<polygon fill="midnightblue" stroke="midnightblue" points="378.365,-261.185 385.936,-253.773 375.395,-254.846 378.365,-261.185"/>
</g>
<!-- Node208 -->
<g id="node15" class="node"><title>Node208</title>
<g id="a_node15"><a xlink:href="class_wi_fi_manager.html#a9e802fa4ca834a622f058a7176f47806" target="_top" xlink:title="WiFiManager::handleFileRead">
<polygon fill="white" stroke="black" points="335,-291.716 335,-310.716 483,-310.716 483,-291.716 335,-291.716"/>
<text text-anchor="middle" x="409" y="-298.716" font-family="Helvetica,sans-Serif" font-size="10.00">WiFiManager::handleFileRead</text>
</a>
</g>
</g>
<!-- Node196&#45;&gt;Node208 -->
<g id="edge21" class="edge"><title>Node196&#45;&gt;Node208</title>
<path fill="none" stroke="midnightblue" d="M271.993,-352.075C302.4,-340.704 343.633,-325.286 372.703,-314.415"/>
<polygon fill="midnightblue" stroke="midnightblue" points="374.299,-317.555 382.44,-310.774 371.848,-310.998 374.299,-317.555"/>
</g>
<!-- Node210 -->
<g id="node17" class="node"><title>Node210</title>
<g id="a_node17"><a xlink:href="class_wi_fi_manager.html#a7d01f7de3e4b76acdabffac79fa3d0ab" target="_top" xlink:title="WiFiManager::handleNotFound">
<polygon fill="white" stroke="black" points="333,-619.716 333,-638.716 485,-638.716 485,-619.716 333,-619.716"/>
<text text-anchor="middle" x="409" y="-626.716" font-family="Helvetica,sans-Serif" font-size="10.00">WiFiManager::handleNotFound</text>
</a>
</g>
</g>
<!-- Node196&#45;&gt;Node210 -->
<g id="edge24" class="edge"><title>Node196&#45;&gt;Node210</title>
<path fill="none" stroke="midnightblue" d="M233.19,-382.471C238.777,-425.339 260.636,-547.813 333,-610.216 334.958,-611.905 337.046,-613.447 339.233,-614.855"/>
<polygon fill="midnightblue" stroke="midnightblue" points="337.633,-617.969 348.093,-619.648 340.963,-611.812 337.633,-617.969"/>
</g>
<!-- Node197&#45;&gt;Node195 -->
<g id="edge5" class="edge"><title>Node197&#45;&gt;Node195</title>
<path fill="none" stroke="midnightblue" d="M474.255,-594.621C543.809,-596.956 648.971,-596.137 680,-572.216 774.036,-499.724 784.477,-338.852 785.171,-282.874"/>
<polygon fill="midnightblue" stroke="midnightblue" points="788.671,-282.872 785.2,-272.862 781.671,-282.851 788.671,-282.872"/>
</g>
<!-- Node198 -->
<g id="node5" class="node"><title>Node198</title>
<g id="a_node5"><a xlink:href="class_wi_fi_manager.html#a4ef4298deb224212e5242c456669a973" target="_top" xlink:title="WiFiManager::captivePortal">
<polygon fill="white" stroke="black" points="532,-619.716 532,-638.716 669,-638.716 669,-619.716 532,-619.716"/>
<text text-anchor="middle" x="600.5" y="-626.716" font-family="Helvetica,sans-Serif" font-size="10.00">WiFiManager::captivePortal</text>
</a>
</g>
</g>
<!-- Node197&#45;&gt;Node198 -->
<g id="edge6" class="edge"><title>Node197&#45;&gt;Node198</title>
<path fill="none" stroke="midnightblue" d="M457.819,-600.805C483.389,-605.933 515.059,-612.284 541.968,-617.68"/>
<polygon fill="midnightblue" stroke="midnightblue" points="541.532,-621.162 552.025,-619.696 542.908,-614.298 541.532,-621.162"/>
</g>
<!-- Node198&#45;&gt;Node195 -->
<g id="edge8" class="edge"><title>Node198&#45;&gt;Node195</title>
<path fill="none" stroke="midnightblue" d="M657.246,-619.68C665.668,-616.237 673.648,-611.561 680,-605.216 772.489,-512.836 783.871,-341.191 784.994,-283.057"/>
<polygon fill="midnightblue" stroke="midnightblue" points="788.495,-283.038 785.103,-273 781.495,-282.962 788.495,-283.038"/>
</g>
<!-- Node199 -->
<g id="node6" class="node"><title>Node199</title>
<g id="a_node6"><a xlink:href="class_wi_fi_manager.html#a9c78a8774f746ec22a99d03a53baa607" target="_top" xlink:title="WiFiManager::isIp">
<polygon fill="white" stroke="black" points="738,-638.716 738,-657.716 834,-657.716 834,-638.716 738,-638.716"/>
<text text-anchor="middle" x="786" y="-645.716" font-family="Helvetica,sans-Serif" font-size="10.00">WiFiManager::isIp</text>
</a>
</g>
</g>
<!-- Node198&#45;&gt;Node199 -->
<g id="edge7" class="edge"><title>Node198&#45;&gt;Node199</title>
<path fill="none" stroke="midnightblue" d="M669.047,-636.21C688.361,-638.21 709.216,-640.37 727.843,-642.298"/>
<polygon fill="midnightblue" stroke="midnightblue" points="727.631,-645.795 737.938,-643.343 728.352,-638.832 727.631,-645.795"/>
</g>
<!-- Node200 -->
<g id="node7" class="node"><title>Node200</title>
<g id="a_node7"><a xlink:href="class_wi_fi_manager.html#a8dfd64cefecbdf26242b16eca335c20b" target="_top" xlink:title="WiFiManager::toStringIp">
<polygon fill="white" stroke="black" points="725,-600.716 725,-619.716 847,-619.716 847,-600.716 725,-600.716"/>
<text text-anchor="middle" x="786" y="-607.716" font-family="Helvetica,sans-Serif" font-size="10.00">WiFiManager::toStringIp</text>
</a>
</g>
</g>
<!-- Node198&#45;&gt;Node200 -->
<g id="edge9" class="edge"><title>Node198&#45;&gt;Node200</title>
<path fill="none" stroke="midnightblue" d="M669.047,-622.222C683.909,-620.684 699.684,-619.05 714.654,-617.5"/>
<polygon fill="midnightblue" stroke="midnightblue" points="715.282,-620.954 724.868,-616.443 714.561,-613.991 715.282,-620.954"/>
</g>
<!-- Node201&#45;&gt;Node195 -->
<g id="edge11" class="edge"><title>Node201&#45;&gt;Node195</title>
<path fill="none" stroke="midnightblue" d="M472.218,-446.217C529.919,-443.572 616.231,-432.675 680,-394.216 725.77,-366.613 759.845,-311.337 775.495,-282.197"/>
<polygon fill="midnightblue" stroke="midnightblue" points="778.734,-283.554 780.251,-273.068 772.526,-280.32 778.734,-283.554"/>
</g>
<!-- Node202 -->
<g id="node9" class="node"><title>Node202</title>
<g id="a_node9"><a xlink:href="class_wi_fi_manager.html#ae71cfd6bd70ada2ca02e1d20b152d0e5" target="_top" xlink:title="WiFiManager::getRSSIasQuality">
<polygon fill="white" stroke="black" points="521,-455.716 521,-474.716 680,-474.716 680,-455.716 521,-455.716"/>
<text text-anchor="middle" x="600.5" y="-462.716" font-family="Helvetica,sans-Serif" font-size="10.00">WiFiManager::getRSSIasQuality</text>
</a>
</g>
</g>
<!-- Node201&#45;&gt;Node202 -->
<g id="edge12" class="edge"><title>Node201&#45;&gt;Node202</title>
<path fill="none" stroke="midnightblue" d="M472.049,-452.438C484.436,-453.68 497.672,-455.007 510.755,-456.318"/>
<polygon fill="midnightblue" stroke="midnightblue" points="510.413,-459.802 520.713,-457.317 511.112,-452.837 510.413,-459.802"/>
</g>
<!-- Node203 -->
<g id="node10" class="node"><title>Node203</title>
<g id="a_node10"><a xlink:href="class_wi_fi_manager_parameter.html#a596273c189eb40107500cee3ad31b13b" target="_top" xlink:title="WiFiManagerParameter\l::getCustomHTML">
<polygon fill="white" stroke="black" points="541,-494.216 541,-524.216 660,-524.216 660,-494.216 541,-494.216"/>
<text text-anchor="start" x="549" y="-512.216" font-family="Helvetica,sans-Serif" font-size="10.00">WiFiManagerParameter</text>
<text text-anchor="middle" x="600.5" y="-501.216" font-family="Helvetica,sans-Serif" font-size="10.00">::getCustomHTML</text>
</a>
</g>
</g>
<!-- Node201&#45;&gt;Node203 -->
<g id="edge13" class="edge"><title>Node201&#45;&gt;Node203</title>
<path fill="none" stroke="midnightblue" d="M437.315,-455.75C459.749,-463.537 492.376,-474.76 521,-484.216 527.816,-486.468 534.976,-488.798 542.085,-491.088"/>
<polygon fill="midnightblue" stroke="midnightblue" points="541.116,-494.453 551.707,-494.177 543.255,-487.788 541.116,-494.453"/>
</g>
<!-- Node204&#45;&gt;Node195 -->
<g id="edge15" class="edge"><title>Node204&#45;&gt;Node195</title>
<path fill="none" stroke="midnightblue" d="M449.389,-376.793C503.664,-387.969 603.42,-401.15 680,-369.216 722.611,-351.448 756.784,-307.041 773.614,-281.701"/>
<polygon fill="midnightblue" stroke="midnightblue" points="776.733,-283.322 779.197,-273.017 770.845,-279.536 776.733,-283.322"/>
</g>
<!-- Node205 -->
<g id="node12" class="node"><title>Node205</title>
<g id="a_node12"><a xlink:href="class_wi_fi_manager.html#a6a94f08eb43e0871932556a4ccfa11b7" target="_top" xlink:title="WiFiManager::optionalIPFrom\lString">
<polygon fill="white" stroke="black" points="527.5,-330.216 527.5,-360.216 673.5,-360.216 673.5,-330.216 527.5,-330.216"/>
<text text-anchor="start" x="535.5" y="-348.216" font-family="Helvetica,sans-Serif" font-size="10.00">WiFiManager::optionalIPFrom</text>
<text text-anchor="middle" x="600.5" y="-337.216" font-family="Helvetica,sans-Serif" font-size="10.00">String</text>
</a>
</g>
</g>
<!-- Node204&#45;&gt;Node205 -->
<g id="edge16" class="edge"><title>Node204&#45;&gt;Node205</title>
<path fill="none" stroke="midnightblue" d="M483.537,-358.679C494.529,-357.403 505.923,-356.08 517.084,-354.784"/>
<polygon fill="midnightblue" stroke="midnightblue" points="517.721,-358.234 527.251,-353.604 516.914,-351.281 517.721,-358.234"/>
</g>
<!-- Node206&#45;&gt;Node195 -->
<g id="edge18" class="edge"><title>Node206&#45;&gt;Node195</title>
<path fill="none" stroke="midnightblue" d="M663.121,-544.585C669.259,-541.947 675.042,-538.559 680,-534.216 757.822,-466.056 778.34,-333.246 783.425,-283.062"/>
<polygon fill="midnightblue" stroke="midnightblue" points="786.929,-283.185 784.353,-272.908 779.958,-282.548 786.929,-283.185"/>
</g>
<!-- Node207&#45;&gt;Node195 -->
<g id="edge20" class="edge"><title>Node207&#45;&gt;Node195</title>
<path fill="none" stroke="midnightblue" d="M476.723,-240.905C531.457,-238.984 610.903,-238.015 680,-244.216 697.113,-245.752 715.609,-248.669 732.239,-251.765"/>
<polygon fill="midnightblue" stroke="midnightblue" points="731.842,-255.253 742.323,-253.705 733.165,-248.379 731.842,-255.253"/>
</g>
<!-- Node208&#45;&gt;Node195 -->
<g id="edge22" class="edge"><title>Node208&#45;&gt;Node195</title>
<path fill="none" stroke="midnightblue" d="M483.264,-298.218C537.692,-295.467 613.674,-290.526 680,-282.216 695.833,-280.233 712.897,-277.433 728.573,-274.591"/>
<polygon fill="midnightblue" stroke="midnightblue" points="729.451,-277.988 738.647,-272.726 728.177,-271.105 729.451,-277.988"/>
</g>
<!-- Node209 -->
<g id="node16" class="node"><title>Node209</title>
<g id="a_node16"><a xlink:href="class_wi_fi_manager.html#a40f123fd290c3e331c9785d19a88f3b8" target="_top" xlink:title="WiFiManager::getContentType">
<polygon fill="white" stroke="black" points="525.5,-253.716 525.5,-272.716 675.5,-272.716 675.5,-253.716 525.5,-253.716"/>
<text text-anchor="middle" x="600.5" y="-260.716" font-family="Helvetica,sans-Serif" font-size="10.00">WiFiManager::getContentType</text>
</a>
</g>
</g>
<!-- Node208&#45;&gt;Node209 -->
<g id="edge23" class="edge"><title>Node208&#45;&gt;Node209</title>
<path fill="none" stroke="midnightblue" d="M457.819,-291.627C483.389,-286.5 515.059,-280.149 541.968,-274.753"/>
<polygon fill="midnightblue" stroke="midnightblue" points="542.908,-278.134 552.025,-272.736 541.532,-271.271 542.908,-278.134"/>
</g>
<!-- Node210&#45;&gt;Node198 -->
<g id="edge25" class="edge"><title>Node210&#45;&gt;Node198</title>
<path fill="none" stroke="midnightblue" d="M485.168,-629.216C497.196,-629.216 509.665,-629.216 521.753,-629.216"/>
<polygon fill="midnightblue" stroke="midnightblue" points="521.798,-632.716 531.798,-629.216 521.798,-625.716 521.798,-632.716"/>
</g>
<!-- Node211&#45;&gt;Node195 -->
<g id="edge27" class="edge"><title>Node211&#45;&gt;Node195</title>
<path fill="none" stroke="midnightblue" d="M432.529,-89.6963C481.408,-70.6401 599.283,-33.4693 680,-80.2164 742.159,-116.215 770.701,-204.446 780.654,-243.763"/>
<polygon fill="midnightblue" stroke="midnightblue" points="777.295,-244.765 783.027,-253.675 784.103,-243.135 777.295,-244.765"/>
</g>
<!-- Node212 -->
<g id="node19" class="node"><title>Node212</title>
<g id="a_node19"><a xlink:href="class_wi_fi_manager.html#a89a3f33997aa662ad223d6c150c1eede" target="_top" xlink:title="WiFiManager::waitForConnect\lResult">
<polygon fill="white" stroke="black" points="526,-128.216 526,-158.216 675,-158.216 675,-128.216 526,-128.216"/>
<text text-anchor="start" x="534" y="-146.216" font-family="Helvetica,sans-Serif" font-size="10.00">WiFiManager::waitForConnect</text>
<text text-anchor="middle" x="600.5" y="-135.216" font-family="Helvetica,sans-Serif" font-size="10.00">Result</text>
</a>
</g>
</g>
<!-- Node211&#45;&gt;Node212 -->
<g id="edge28" class="edge"><title>Node211&#45;&gt;Node212</title>
<path fill="none" stroke="midnightblue" d="M451.119,-108.764C472.645,-113.762 499.677,-120.039 524.752,-125.861"/>
<polygon fill="midnightblue" stroke="midnightblue" points="524.084,-129.298 534.616,-128.151 525.667,-122.48 524.084,-129.298"/>
</g>
<!-- Node213 -->
<g id="node20" class="node"><title>Node213</title>
<g id="a_node20"><a xlink:href="class_wi_fi_manager.html#abcc403fc26a47f7a111d1271f1d0869e" target="_top" xlink:title="WiFiManager::startWPS">
<polygon fill="white" stroke="black" points="539,-89.7164 539,-108.716 662,-108.716 662,-89.7164 539,-89.7164"/>
<text text-anchor="middle" x="600.5" y="-96.7164" font-family="Helvetica,sans-Serif" font-size="10.00">WiFiManager::startWPS</text>
</a>
</g>
</g>
<!-- Node211&#45;&gt;Node213 -->
<g id="edge30" class="edge"><title>Node211&#45;&gt;Node213</title>
<path fill="none" stroke="midnightblue" d="M475.215,-99.2164C492.488,-99.2164 511.216,-99.2164 528.767,-99.2164"/>
<polygon fill="midnightblue" stroke="midnightblue" points="528.945,-102.716 538.945,-99.2164 528.945,-95.7165 528.945,-102.716"/>
</g>
<!-- Node212&#45;&gt;Node195 -->
<g id="edge29" class="edge"><title>Node212&#45;&gt;Node195</title>
<path fill="none" stroke="midnightblue" d="M648.807,-158.28C659.398,-162.468 670.346,-167.471 680,-173.216 714.816,-193.937 749.357,-226.447 768.856,-246.2"/>
<polygon fill="midnightblue" stroke="midnightblue" points="766.542,-248.841 776.021,-253.574 771.563,-243.963 766.542,-248.841"/>
</g>
<!-- Node213&#45;&gt;Node195 -->
<g id="edge31" class="edge"><title>Node213&#45;&gt;Node195</title>
<path fill="none" stroke="midnightblue" d="M660.875,-108.739C667.634,-111.207 674.177,-114.311 680,-118.216 728.238,-150.568 762.002,-212.954 776.719,-244.286"/>
<polygon fill="midnightblue" stroke="midnightblue" points="773.645,-245.981 780.973,-253.633 780.016,-243.081 773.645,-245.981"/>
</g>
</g>
</svg>
        <g id="navigator" transform="translate(0 0)" fill="#404254">
                <rect fill="#f2f5e9" fill-opacity="0.5" stroke="#606060" stroke-width=".5" x="0" y="0" width="60" height="60"/>
                <use id="zoomplus" xlink:href="#zoomPlus" x="17" y="9" onmousedown="handleZoom(evt,'in')"/>
                <use id="zoomminus" xlink:href="#zoomMin" x="42" y="9" onmousedown="handleZoom(evt,'out')"/>
                <use id="reset" xlink:href="#resetDef" x="30" y="36" onmousedown="handleReset()"/>
                <g id="arrowUp" xlink:href="#dirArrow" transform="translate(30 24)" onmousedown="handlePan(0,-1)">
                  <use xlink:href="#rim" fill="#404040">
                        <set attributeName="fill" to="#808080" begin="arrowUp.mouseover" end="arrowUp.mouseout"/>
                  </use>
                  <path fill="none" stroke="white" stroke-width="1.5" d="M0,-3.0v7 M-2.5,-0.5L0,-3.0L2.5,-0.5"/>
                </g>
                <g id="arrowRight" xlink:href="#dirArrow" transform="rotate(90) translate(36 -43)" onmousedown="handlePan(1,0)">
                  <use xlink:href="#rim" fill="#404040">
                        <set attributeName="fill" to="#808080" begin="arrowRight.mouseover" end="arrowRight.mouseout"/>
                  </use>
                  <path fill="none" stroke="white" stroke-width="1.5" d="M0,-3.0v7 M-2.5,-0.5L0,-3.0L2.5,-0.5"/>
                </g>
                <g id="arrowDown" xlink:href="#dirArrow" transform="rotate(180) translate(-30 -48)" onmousedown="handlePan(0,1)">
                  <use xlink:href="#rim" fill="#404040">
                        <set attributeName="fill" to="#808080" begin="arrowDown.mouseover" end="arrowDown.mouseout"/>
                  </use>
                  <path fill="none" stroke="white" stroke-width="1.5" d="M0,-3.0v7 M-2.5,-0.5L0,-3.0L2.5,-0.5"/>
                </g>
                <g id="arrowLeft" xlink:href="#dirArrow" transform="rotate(270) translate(-36 17)" onmousedown="handlePan(-1,0)">
                  <use xlink:href="#rim" fill="#404040">
                        <set attributeName="fill" to="#808080" begin="arrowLeft.mouseover" end="arrowLeft.mouseout"/>
                  </use>
                  <path fill="none" stroke="white" stroke-width="1.5" d="M0,-3.0v7 M-2.5,-0.5L0,-3.0L2.5,-0.5"/>
                </g>
        </g>
        <svg viewBox="0 0 15 15" width="100%" height="30px" preserveAspectRatio="xMaxYMin meet">
         <g id="arrow_out" transform="scale(0.3 0.3)">
          <a xlink:href="class_wi_fi_manager_afaca5021edffb4d9a5bd39f7b0f7a686_cgraph_org.svg" target="_base">
           <rect id="button" ry="5" rx="5" y="6" x="6" height="38" width="38"
                fill="#f2f5e9" fill-opacity="0.5" stroke="#606060" stroke-width="1.0"/>
           <path id="arrow"
             d="M 11.500037,31.436501 C 11.940474,20.09759 22.043105,11.32322 32.158766,21.979434 L 37.068811,17.246167 C 37.068811,17.246167 37.088388,32 37.088388,32 L 22.160133,31.978069 C 22.160133,31.978069 26.997745,27.140456 26.997745,27.140456 C 18.528582,18.264221 13.291696,25.230495 11.500037,31.436501 z"
             style="fill:#404040;"/>
          </a>
         </g>
        </svg>
</svg>
