<?xml version="1.0" encoding="UTF-8" standalone="no"?>
<!DOCTYPE svg PUBLIC "-//W3C//DTD SVG 1.1//EN"
 "http://www.w3.org/Graphics/SVG/1.1/DTD/svg11.dtd">
<!-- Generated by graphviz version 2.38.0 (20140413.2041)
 -->
<!-- Title: Adafruit_TCS34725::begin Pages: 1 -->
<svg width="404pt" height="186pt"
 viewBox="0.00 0.00 404.00 186.00" xmlns="http://www.w3.org/2000/svg" xmlns:xlink="http://www.w3.org/1999/xlink">
<g id="graph0" class="graph" transform="scale(1 1) rotate(0) translate(4 182)">
<title>Adafruit_TCS34725::begin</title>
<polygon fill="white" stroke="none" points="-4,4 -4,-182 400,-182 400,4 -4,4"/>
<!-- Node2 -->
<g id="node1" class="node"><title>Node2</title>
<polygon fill="#bfbfbf" stroke="black" points="0,-73.5 0,-103.5 108,-103.5 108,-73.5 0,-73.5"/>
<text text-anchor="start" x="8" y="-91.5" font-family="Helvetica,sans-Serif" font-size="10.00">Adafruit_TCS34725::</text>
<text text-anchor="middle" x="54" y="-80.5" font-family="Helvetica,sans-Serif" font-size="10.00">begin</text>
</g>
<!-- Node3 -->
<g id="node2" class="node"><title>Node3</title>
<g id="a_node2"><a xlink:href="class_adafruit___t_c_s34725.html#a3ffafbdd475d6baf9abda8dd067b5319" target="_top" xlink:title="Reads an 8 bit value over I2C. ">
<polygon fill="white" stroke="black" points="144,-147.5 144,-177.5 252,-177.5 252,-147.5 144,-147.5"/>
<text text-anchor="start" x="152" y="-165.5" font-family="Helvetica,sans-Serif" font-size="10.00">Adafruit_TCS34725::</text>
<text text-anchor="middle" x="198" y="-154.5" font-family="Helvetica,sans-Serif" font-size="10.00">read8</text>
</a>
</g>
</g>
<!-- Node2&#45;&gt;Node3 -->
<g id="edge1" class="edge"><title>Node2&#45;&gt;Node3</title>
<path fill="none" stroke="midnightblue" d="M80.3868,-103.537C98.0207,-113.789 122.178,-127.456 144,-138.5 147.067,-140.052 150.255,-141.616 153.478,-143.161"/>
<polygon fill="midnightblue" stroke="midnightblue" points="152.042,-146.353 162.581,-147.438 155.019,-140.017 152.042,-146.353"/>
</g>
<!-- Node4 -->
<g id="node3" class="node"><title>Node4</title>
<g id="a_node3"><a xlink:href="class_adafruit___t_c_s34725.html#a3c89fe5d4eea1f24f31d1afa9de8f0f3" target="_top" xlink:title="Adafruit_TCS34725::\lsetIntegrationTime">
<polygon fill="white" stroke="black" points="144,-98.5 144,-128.5 252,-128.5 252,-98.5 144,-98.5"/>
<text text-anchor="start" x="152" y="-116.5" font-family="Helvetica,sans-Serif" font-size="10.00">Adafruit_TCS34725::</text>
<text text-anchor="middle" x="198" y="-105.5" font-family="Helvetica,sans-Serif" font-size="10.00">setIntegrationTime</text>
</a>
</g>
</g>
<!-- Node2&#45;&gt;Node4 -->
<g id="edge2" class="edge"><title>Node2&#45;&gt;Node4</title>
<path fill="none" stroke="midnightblue" d="M108.28,-91.3206C117.975,-92.8152 128.142,-94.5704 137.992,-96.4475"/>
<polygon fill="midnightblue" stroke="midnightblue" points="137.62,-99.9416 148.108,-98.442 138.974,-93.0738 137.62,-99.9416"/>
</g>
<!-- Node6 -->
<g id="node5" class="node"><title>Node6</title>
<g id="a_node5"><a xlink:href="class_adafruit___t_c_s34725.html#a6be06315a9d33f76e44550f574f023a5" target="_top" xlink:title="Adafruit_TCS34725::\lsetGain">
<polygon fill="white" stroke="black" points="144,-49.5 144,-79.5 252,-79.5 252,-49.5 144,-49.5"/>
<text text-anchor="start" x="152" y="-67.5" font-family="Helvetica,sans-Serif" font-size="10.00">Adafruit_TCS34725::</text>
<text text-anchor="middle" x="198" y="-56.5" font-family="Helvetica,sans-Serif" font-size="10.00">setGain</text>
</a>
</g>
</g>
<!-- Node2&#45;&gt;Node6 -->
<g id="edge5" class="edge"><title>Node2&#45;&gt;Node6</title>
<path fill="none" stroke="midnightblue" d="M105.464,-73.4784C114.596,-71.6998 124.225,-69.9983 133.67,-68.4888"/>
<polygon fill="midnightblue" stroke="midnightblue" points="134.462,-71.9083 143.815,-66.9315 133.4,-64.9893 134.462,-71.9083"/>
</g>
<!-- Node7 -->
<g id="node6" class="node"><title>Node7</title>
<g id="a_node6"><a xlink:href="class_adafruit___t_c_s34725.html#ad9a0e1f4f77d32dc0a6d604f7d1d5586" target="_top" xlink:title="Adafruit_TCS34725::\lenable">
<polygon fill="white" stroke="black" points="144,-0.5 144,-30.5 252,-30.5 252,-0.5 144,-0.5"/>
<text text-anchor="start" x="152" y="-18.5" font-family="Helvetica,sans-Serif" font-size="10.00">Adafruit_TCS34725::</text>
<text text-anchor="middle" x="198" y="-7.5" font-family="Helvetica,sans-Serif" font-size="10.00">enable</text>
</a>
</g>
</g>
<!-- Node2&#45;&gt;Node7 -->
<g id="edge8" class="edge"><title>Node2&#45;&gt;Node7</title>
<path fill="none" stroke="midnightblue" d="M82.0667,-73.4119C99.6014,-63.7594 123.002,-51.1051 144,-40.5 147.576,-38.6941 151.305,-36.8523 155.057,-35.0283"/>
<polygon fill="midnightblue" stroke="midnightblue" points="156.855,-38.0476 164.352,-30.5619 153.823,-31.7382 156.855,-38.0476"/>
</g>
<!-- Node4&#45;&gt;Node2 -->
<g id="edge3" class="edge"><title>Node4&#45;&gt;Node2</title>
<path fill="none" stroke="midnightblue" d="M143.67,-110.672C133.979,-109.177 123.819,-107.423 113.977,-105.547"/>
<polygon fill="midnightblue" stroke="midnightblue" points="114.357,-102.054 103.868,-103.553 113.002,-108.922 114.357,-102.054"/>
</g>
<!-- Node5 -->
<g id="node4" class="node"><title>Node5</title>
<g id="a_node4"><a xlink:href="class_adafruit___t_c_s34725.html#aa526557ad0d76b3b6e31e6197de583e6" target="_top" xlink:title="Writes a register and an 8 bit value over I2C. ">
<polygon fill="white" stroke="black" points="288,-49.5 288,-79.5 396,-79.5 396,-49.5 288,-49.5"/>
<text text-anchor="start" x="296" y="-67.5" font-family="Helvetica,sans-Serif" font-size="10.00">Adafruit_TCS34725::</text>
<text text-anchor="middle" x="342" y="-56.5" font-family="Helvetica,sans-Serif" font-size="10.00">write8</text>
</a>
</g>
</g>
<!-- Node4&#45;&gt;Node5 -->
<g id="edge4" class="edge"><title>Node4&#45;&gt;Node5</title>
<path fill="none" stroke="midnightblue" d="M242.763,-98.3986C256.935,-93.5083 272.813,-88.0293 287.603,-82.9256"/>
<polygon fill="midnightblue" stroke="midnightblue" points="288.825,-86.2065 297.137,-79.6359 286.542,-79.5894 288.825,-86.2065"/>
</g>
<!-- Node6&#45;&gt;Node2 -->
<g id="edge6" class="edge"><title>Node6&#45;&gt;Node2</title>
<path fill="none" stroke="midnightblue" d="M146.244,-79.5785C137.195,-81.337 127.668,-83.0188 118.321,-84.5127"/>
<polygon fill="midnightblue" stroke="midnightblue" points="117.632,-81.0773 108.28,-86.0546 118.695,-87.9962 117.632,-81.0773"/>
</g>
<!-- Node6&#45;&gt;Node5 -->
<g id="edge7" class="edge"><title>Node6&#45;&gt;Node5</title>
<path fill="none" stroke="midnightblue" d="M252.28,-64.5C260.56,-64.5 269.184,-64.5 277.661,-64.5"/>
<polygon fill="midnightblue" stroke="midnightblue" points="277.894,-68.0001 287.894,-64.5 277.894,-61.0001 277.894,-68.0001"/>
</g>
<!-- Node7&#45;&gt;Node5 -->
<g id="edge9" class="edge"><title>Node7&#45;&gt;Node5</title>
<path fill="none" stroke="midnightblue" d="M242.763,-30.6014C256.935,-35.4917 272.813,-40.9707 287.603,-46.0744"/>
<polygon fill="midnightblue" stroke="midnightblue" points="286.542,-49.4106 297.137,-49.3641 288.825,-42.7935 286.542,-49.4106"/>
</g>
</g>
</svg>
