<?xml version="1.0" encoding="UTF-8" standalone="no"?>
<!DOCTYPE svg PUBLIC "-//W3C//DTD SVG 1.1//EN"
 "http://www.w3.org/Graphics/SVG/1.1/DTD/svg11.dtd">
<!-- Generated by graphviz version 2.38.0 (20140413.2041)
 -->
<!-- Title: CoolPubSubClient::loop Pages: 1 -->
<svg width="495pt" height="66pt"
 viewBox="0.00 0.00 495.00 66.00" xmlns="http://www.w3.org/2000/svg" xmlns:xlink="http://www.w3.org/1999/xlink">
<g id="graph0" class="graph" transform="scale(1 1) rotate(0) translate(4 62)">
<title>CoolPubSubClient::loop</title>
<polygon fill="white" stroke="none" points="-4,4 -4,-62 491,-62 491,4 -4,4"/>
<!-- Node108 -->
<g id="node1" class="node"><title>Node108</title>
<polygon fill="#bfbfbf" stroke="black" points="0,-19.5 0,-38.5 121,-38.5 121,-19.5 0,-19.5"/>
<text text-anchor="middle" x="60.5" y="-26.5" font-family="Helvetica,sans-Serif" font-size="10.00">CoolPubSubClient::loop</text>
</g>
<!-- Node109 -->
<g id="node2" class="node"><title>Node109</title>
<g id="a_node2"><a xlink:href="class_cool_pub_sub_client.html#a3d5a5da4ddb1e5c1bea64d80c665d148" target="_top" xlink:title="CoolPubSubClient::connected">
<polygon fill="white" stroke="black" points="159,-38.5 159,-57.5 307,-57.5 307,-38.5 159,-38.5"/>
<text text-anchor="middle" x="233" y="-45.5" font-family="Helvetica,sans-Serif" font-size="10.00">CoolPubSubClient::connected</text>
</a>
</g>
</g>
<!-- Node108&#45;&gt;Node109 -->
<g id="edge1" class="edge"><title>Node108&#45;&gt;Node109</title>
<path fill="none" stroke="midnightblue" d="M121.133,-35.6453C130.089,-36.6433 139.461,-37.6877 148.8,-38.7285"/>
<polygon fill="midnightblue" stroke="midnightblue" points="148.574,-42.2249 158.9,-39.854 149.35,-35.2679 148.574,-42.2249"/>
</g>
<!-- Node110 -->
<g id="node3" class="node"><title>Node110</title>
<g id="a_node3"><a xlink:href="class_cool_pub_sub_client.html#a25a8779149cfa809b7c06f63568b25cf" target="_top" xlink:title="CoolPubSubClient::readPacket">
<polygon fill="white" stroke="black" points="157,-0.5 157,-19.5 309,-19.5 309,-0.5 157,-0.5"/>
<text text-anchor="middle" x="233" y="-7.5" font-family="Helvetica,sans-Serif" font-size="10.00">CoolPubSubClient::readPacket</text>
</a>
</g>
</g>
<!-- Node108&#45;&gt;Node110 -->
<g id="edge2" class="edge"><title>Node108&#45;&gt;Node110</title>
<path fill="none" stroke="midnightblue" d="M121.133,-22.3547C129.415,-21.4317 138.053,-20.4691 146.692,-19.5064"/>
<polygon fill="midnightblue" stroke="midnightblue" points="147.262,-22.9647 156.813,-18.3786 146.487,-16.0077 147.262,-22.9647"/>
</g>
<!-- Node111 -->
<g id="node4" class="node"><title>Node111</title>
<g id="a_node4"><a xlink:href="class_cool_pub_sub_client.html#ad409bbd287d5894f0cf082f62446c002" target="_top" xlink:title="CoolPubSubClient::readByte">
<polygon fill="white" stroke="black" points="345,-0.5 345,-19.5 487,-19.5 487,-0.5 345,-0.5"/>
<text text-anchor="middle" x="416" y="-7.5" font-family="Helvetica,sans-Serif" font-size="10.00">CoolPubSubClient::readByte</text>
</a>
</g>
</g>
<!-- Node110&#45;&gt;Node111 -->
<g id="edge3" class="edge"><title>Node110&#45;&gt;Node111</title>
<path fill="none" stroke="midnightblue" d="M309.188,-10C317.612,-10 326.219,-10 334.704,-10"/>
<polygon fill="midnightblue" stroke="midnightblue" points="334.974,-13.5001 344.974,-10 334.974,-6.5001 334.974,-13.5001"/>
</g>
</g>
</svg>
