<?xml version="1.0" encoding="UTF-8" standalone="no"?>
<!DOCTYPE svg PUBLIC "-//W3C//DTD SVG 1.1//EN"
 "http://www.w3.org/Graphics/SVG/1.1/DTD/svg11.dtd">
<!-- Generated by graphviz version 2.38.0 (20140413.2041)
 -->
<!-- Title: Irene3000::calcpHSlope Pages: 1 -->
<!--zoomable 66 -->
<svg id="main" version="1.1" xmlns="http://www.w3.org/2000/svg" xmlns:xlink="http://www.w3.org/1999/xlink" xml:space="preserve" onload="init(evt)">
<style type="text/css"><![CDATA[
.edge:hover path { stroke: red; }
.edge:hover polygon { stroke: red; fill: red; }
]]></style>
<script type="text/javascript"><![CDATA[
var edges = document.getElementsByTagName('g');
if (edges && edges.length) {
  for (var i=0;i<edges.length;i++) {
    if (edges[i].id.substr(0,4)=='edge') {
      edges[i].setAttribute('class','edge');
    }
  }
}
]]></script>
        <defs>
                <circle id="rim" cx="0" cy="0" r="7"/>
                <circle id="rim2" cx="0" cy="0" r="3.5"/>
                <g id="zoomPlus">
                        <use xlink:href="#rim" fill="#404040">
                                <set attributeName="fill" to="#808080" begin="zoomplus.mouseover" end="zoomplus.mouseout"/>
                        </use>
                        <path d="M-4,0h8M0,-4v8" fill="none" stroke="white" stroke-width="1.5" pointer-events="none"/>
                </g>
                <g id="zoomMin">
                        <use xlink:href="#rim" fill="#404040">
                                <set attributeName="fill" to="#808080" begin="zoomminus.mouseover" end="zoomminus.mouseout"/>
                        </use>
                        <path d="M-4,0h8" fill="none" stroke="white" stroke-width="1.5" pointer-events="none"/>
                </g>
                <g id="dirArrow">
                        <path fill="none" stroke="white" stroke-width="1.5" d="M0,-3.0v7 M-2.5,-0.5L0,-3.0L2.5,-0.5"/>
                </g>
               <g id="resetDef">
                       <use xlink:href="#rim2" fill="#404040">
                               <set attributeName="fill" to="#808080" begin="reset.mouseover" end="reset.mouseout"/>
                       </use>
               </g>
        </defs>

<script type="text/javascript">
var viewWidth = 576;
var viewHeight = 66;
var sectionId = 'dynsection-3';
</script>
<script xlink:href="svgpan.js"/>
<svg id="graph" class="graph">
<g id="viewport">
<title>Irene3000::calcpHSlope</title>
<polygon fill="white" stroke="none" points="-4,4 -4,-62 572,-62 572,4 -4,4"/>
<!-- Node17 -->
<g id="node1" class="node"><title>Node17</title>
<polygon fill="#bfbfbf" stroke="black" points="0,-19.5 0,-38.5 121,-38.5 121,-19.5 0,-19.5"/>
<text text-anchor="middle" x="60.5" y="-26.5" font-family="Helvetica,sans-Serif" font-size="10.00">Irene3000::calcpHSlope</text>
</g>
<!-- Node18 -->
<g id="node2" class="node"><title>Node18</title>
<g id="a_node2"><a xlink:href="class_irene3000.html#a1d3299202e4cb7afcff9c9e3e95d94c1" target="_top" xlink:title="Irene3000::calibratepH7">
<polygon fill="white" stroke="black" points="157,-38.5 157,-57.5 277,-57.5 277,-38.5 157,-38.5"/>
<text text-anchor="middle" x="217" y="-45.5" font-family="Helvetica,sans-Serif" font-size="10.00">Irene3000::calibratepH7</text>
</a>
</g>
</g>
<!-- Node17&#45;&gt;Node18 -->
<g id="edge1" class="edge"><title>Node17&#45;&gt;Node18</title>
<path fill="none" stroke="midnightblue" d="M131.23,-37.5752C139.816,-38.6311 148.527,-39.7024 156.934,-40.7362"/>
<polygon fill="midnightblue" stroke="midnightblue" points="131.586,-34.0927 121.234,-36.3459 130.732,-41.0404 131.586,-34.0927"/>
</g>
<!-- Node23 -->
<g id="node7" class="node"><title>Node23</title>
<g id="a_node7"><a xlink:href="class_irene3000.html#aa140dd026922a04981edfd04d46cabbe" target="_top" xlink:title="Irene3000::calibratepH4">
<polygon fill="white" stroke="black" points="157,-0.5 157,-19.5 277,-19.5 277,-0.5 157,-0.5"/>
<text text-anchor="middle" x="217" y="-7.5" font-family="Helvetica,sans-Serif" font-size="10.00">Irene3000::calibratepH4</text>
</a>
</g>
</g>
<!-- Node17&#45;&gt;Node23 -->
<g id="edge6" class="edge"><title>Node17&#45;&gt;Node23</title>
<path fill="none" stroke="midnightblue" d="M131.23,-20.4248C139.816,-19.3689 148.527,-18.2976 156.934,-17.2638"/>
<polygon fill="midnightblue" stroke="midnightblue" points="130.732,-16.9596 121.234,-21.6541 131.586,-23.9073 130.732,-16.9596"/>
</g>
<!-- Node19 -->
<g id="node3" class="node"><title>Node19</title>
<g id="a_node3"><a xlink:href="class_cool_board.html#a8612756d3f73198cdde857a66f0fe690" target="_top" xlink:title="CoolBoard::update">
<polygon fill="white" stroke="black" points="313,-38.5 313,-57.5 411,-57.5 411,-38.5 313,-38.5"/>
<text text-anchor="middle" x="362" y="-45.5" font-family="Helvetica,sans-Serif" font-size="10.00">CoolBoard::update</text>
</a>
</g>
</g>
<!-- Node18&#45;&gt;Node19 -->
<g id="edge2" class="edge"><title>Node18&#45;&gt;Node19</title>
<path fill="none" stroke="midnightblue" d="M287.451,-48C296.052,-48 304.693,-48 312.875,-48"/>
<polygon fill="midnightblue" stroke="midnightblue" points="287.403,-44.5001 277.403,-48 287.403,-51.5001 287.403,-44.5001"/>
</g>
<!-- Node21 -->
<g id="node5" class="node"><title>Node21</title>
<g id="a_node5"><a xlink:href="class_irene3000.html#ad5891806c500ae1007afe52b9e304c2b" target="_top" xlink:title="Irene3000::begin">
<polygon fill="white" stroke="black" points="317.5,-0.5 317.5,-19.5 406.5,-19.5 406.5,-0.5 317.5,-0.5"/>
<text text-anchor="middle" x="362" y="-7.5" font-family="Helvetica,sans-Serif" font-size="10.00">Irene3000::begin</text>
</a>
</g>
</g>
<!-- Node18&#45;&gt;Node21 -->
<g id="edge4" class="edge"><title>Node18&#45;&gt;Node21</title>
<path fill="none" stroke="midnightblue" d="M263.813,-35.8258C283.587,-30.5713 306.384,-24.5134 324.927,-19.5859"/>
<polygon fill="midnightblue" stroke="midnightblue" points="262.851,-32.4601 254.085,-38.411 264.648,-39.2253 262.851,-32.4601"/>
</g>
<!-- Node20 -->
<g id="node4" class="node"><title>Node20</title>
<g id="a_node4"><a xlink:href="class_cool_board.html#aa0bbc4bc605e35618d18e68795c61363" target="_top" xlink:title="CoolBoard::onLineMode">
<polygon fill="white" stroke="black" points="447,-38.5 447,-57.5 568,-57.5 568,-38.5 447,-38.5"/>
<text text-anchor="middle" x="507.5" y="-45.5" font-family="Helvetica,sans-Serif" font-size="10.00">CoolBoard::onLineMode</text>
</a>
</g>
</g>
<!-- Node19&#45;&gt;Node20 -->
<g id="edge3" class="edge"><title>Node19&#45;&gt;Node20</title>
<path fill="none" stroke="midnightblue" d="M421.332,-48C429.785,-48 438.496,-48 446.972,-48"/>
<polygon fill="midnightblue" stroke="midnightblue" points="421.183,-44.5001 411.183,-48 421.183,-51.5001 421.183,-44.5001"/>
</g>
<!-- Node22 -->
<g id="node6" class="node"><title>Node22</title>
<g id="a_node6"><a xlink:href="class_cool_board.html#acba7c5aef7268b2c0044bdb54d3b9d76" target="_top" xlink:title="CoolBoard::begin">
<polygon fill="white" stroke="black" points="461.5,-0.5 461.5,-19.5 553.5,-19.5 553.5,-0.5 461.5,-0.5"/>
<text text-anchor="middle" x="507.5" y="-7.5" font-family="Helvetica,sans-Serif" font-size="10.00">CoolBoard::begin</text>
</a>
</g>
</g>
<!-- Node21&#45;&gt;Node22 -->
<g id="edge5" class="edge"><title>Node21&#45;&gt;Node22</title>
<path fill="none" stroke="midnightblue" d="M417.233,-10C431.814,-10 447.424,-10 461.446,-10"/>
<polygon fill="midnightblue" stroke="midnightblue" points="416.834,-6.5001 406.834,-10 416.834,-13.5001 416.834,-6.5001"/>
</g>
<!-- Node23&#45;&gt;Node19 -->
<g id="edge7" class="edge"><title>Node23&#45;&gt;Node19</title>
<path fill="none" stroke="midnightblue" d="M263.813,-22.1742C283.587,-27.4287 306.384,-33.4866 324.927,-38.4141"/>
<polygon fill="midnightblue" stroke="midnightblue" points="264.648,-18.7747 254.085,-19.589 262.851,-25.5399 264.648,-18.7747"/>
</g>
<!-- Node23&#45;&gt;Node21 -->
<g id="edge8" class="edge"><title>Node23&#45;&gt;Node21</title>
<path fill="none" stroke="midnightblue" d="M287.495,-10C297.636,-10 307.83,-10 317.262,-10"/>
<polygon fill="midnightblue" stroke="midnightblue" points="287.403,-6.5001 277.403,-10 287.403,-13.5001 287.403,-6.5001"/>
</g>
</g>
</svg>
        <g id="navigator" transform="translate(0 0)" fill="#404254">
                <rect fill="#f2f5e9" fill-opacity="0.5" stroke="#606060" stroke-width=".5" x="0" y="0" width="60" height="60"/>
                <use id="zoomplus" xlink:href="#zoomPlus" x="17" y="9" onmousedown="handleZoom(evt,'in')"/>
                <use id="zoomminus" xlink:href="#zoomMin" x="42" y="9" onmousedown="handleZoom(evt,'out')"/>
                <use id="reset" xlink:href="#resetDef" x="30" y="36" onmousedown="handleReset()"/>
                <g id="arrowUp" xlink:href="#dirArrow" transform="translate(30 24)" onmousedown="handlePan(0,-1)">
                  <use xlink:href="#rim" fill="#404040">
                        <set attributeName="fill" to="#808080" begin="arrowUp.mouseover" end="arrowUp.mouseout"/>
                  </use>
                  <path fill="none" stroke="white" stroke-width="1.5" d="M0,-3.0v7 M-2.5,-0.5L0,-3.0L2.5,-0.5"/>
                </g>
                <g id="arrowRight" xlink:href="#dirArrow" transform="rotate(90) translate(36 -43)" onmousedown="handlePan(1,0)">
                  <use xlink:href="#rim" fill="#404040">
                        <set attributeName="fill" to="#808080" begin="arrowRight.mouseover" end="arrowRight.mouseout"/>
                  </use>
                  <path fill="none" stroke="white" stroke-width="1.5" d="M0,-3.0v7 M-2.5,-0.5L0,-3.0L2.5,-0.5"/>
                </g>
                <g id="arrowDown" xlink:href="#dirArrow" transform="rotate(180) translate(-30 -48)" onmousedown="handlePan(0,1)">
                  <use xlink:href="#rim" fill="#404040">
                        <set attributeName="fill" to="#808080" begin="arrowDown.mouseover" end="arrowDown.mouseout"/>
                  </use>
                  <path fill="none" stroke="white" stroke-width="1.5" d="M0,-3.0v7 M-2.5,-0.5L0,-3.0L2.5,-0.5"/>
                </g>
                <g id="arrowLeft" xlink:href="#dirArrow" transform="rotate(270) translate(-36 17)" onmousedown="handlePan(-1,0)">
                  <use xlink:href="#rim" fill="#404040">
                        <set attributeName="fill" to="#808080" begin="arrowLeft.mouseover" end="arrowLeft.mouseout"/>
                  </use>
                  <path fill="none" stroke="white" stroke-width="1.5" d="M0,-3.0v7 M-2.5,-0.5L0,-3.0L2.5,-0.5"/>
                </g>
        </g>
        <svg viewBox="0 0 15 15" width="100%" height="30px" preserveAspectRatio="xMaxYMin meet">
         <g id="arrow_out" transform="scale(0.3 0.3)">
          <a xlink:href="class_irene3000_a81f6a79e546679692053f7ac1af49613_icgraph_org.svg" target="_base">
           <rect id="button" ry="5" rx="5" y="6" x="6" height="38" width="38"
                fill="#f2f5e9" fill-opacity="0.5" stroke="#606060" stroke-width="1.0"/>
           <path id="arrow"
             d="M 11.500037,31.436501 C 11.940474,20.09759 22.043105,11.32322 32.158766,21.979434 L 37.068811,17.246167 C 37.068811,17.246167 37.088388,32 37.088388,32 L 22.160133,31.978069 C 22.160133,31.978069 26.997745,27.140456 26.997745,27.140456 C 18.528582,18.264221 13.291696,25.230495 11.500037,31.436501 z"
             style="fill:#404040;"/>
          </a>
         </g>
        </svg>
</svg>
