<?xml version="1.0" encoding="UTF-8" standalone="no"?>
<!DOCTYPE svg PUBLIC "-//W3C//DTD SVG 1.1//EN"
 "http://www.w3.org/Graphics/SVG/1.1/DTD/svg11.dtd">
<!-- Generated by graphviz version 2.38.0 (20140413.2041)
 -->
<!-- Title: CoolPubSubClient::connect Pages: 1 -->
<!--zoomable 142 -->
<svg id="main" version="1.1" xmlns="http://www.w3.org/2000/svg" xmlns:xlink="http://www.w3.org/1999/xlink" xml:space="preserve" onload="init(evt)">
<style type="text/css"><![CDATA[
.edge:hover path { stroke: red; }
.edge:hover polygon { stroke: red; fill: red; }
]]></style>
<script type="text/javascript"><![CDATA[
var edges = document.getElementsByTagName('g');
if (edges && edges.length) {
  for (var i=0;i<edges.length;i++) {
    if (edges[i].id.substr(0,4)=='edge') {
      edges[i].setAttribute('class','edge');
    }
  }
}
]]></script>
        <defs>
                <circle id="rim" cx="0" cy="0" r="7"/>
                <circle id="rim2" cx="0" cy="0" r="3.5"/>
                <g id="zoomPlus">
                        <use xlink:href="#rim" fill="#404040">
                                <set attributeName="fill" to="#808080" begin="zoomplus.mouseover" end="zoomplus.mouseout"/>
                        </use>
                        <path d="M-4,0h8M0,-4v8" fill="none" stroke="white" stroke-width="1.5" pointer-events="none"/>
                </g>
                <g id="zoomMin">
                        <use xlink:href="#rim" fill="#404040">
                                <set attributeName="fill" to="#808080" begin="zoomminus.mouseover" end="zoomminus.mouseout"/>
                        </use>
                        <path d="M-4,0h8" fill="none" stroke="white" stroke-width="1.5" pointer-events="none"/>
                </g>
                <g id="dirArrow">
                        <path fill="none" stroke="white" stroke-width="1.5" d="M0,-3.0v7 M-2.5,-0.5L0,-3.0L2.5,-0.5"/>
                </g>
               <g id="resetDef">
                       <use xlink:href="#rim2" fill="#404040">
                               <set attributeName="fill" to="#808080" begin="reset.mouseover" end="reset.mouseout"/>
                       </use>
               </g>
        </defs>

<script type="text/javascript">
var viewWidth = 511;
var viewHeight = 142;
var sectionId = 'dynsection-18';
</script>
<script xlink:href="svgpan.js"/>
<svg id="graph" class="graph">
<g id="viewport">
<title>CoolPubSubClient::connect</title>
<polygon fill="white" stroke="none" points="-4,4 -4,-138 507,-138 507,4 -4,4"/>
<!-- Node81 -->
<g id="node1" class="node"><title>Node81</title>
<polygon fill="#bfbfbf" stroke="black" points="0,-57.5 0,-76.5 137,-76.5 137,-57.5 0,-57.5"/>
<text text-anchor="middle" x="68.5" y="-64.5" font-family="Helvetica,sans-Serif" font-size="10.00">CoolPubSubClient::connect</text>
</g>
<!-- Node82 -->
<g id="node2" class="node"><title>Node82</title>
<g id="a_node2"><a xlink:href="class_cool_pub_sub_client.html#a3d5a5da4ddb1e5c1bea64d80c665d148" target="_top" xlink:title="CoolPubSubClient::connected">
<polygon fill="white" stroke="black" points="175,-114.5 175,-133.5 323,-133.5 323,-114.5 175,-114.5"/>
<text text-anchor="middle" x="249" y="-121.5" font-family="Helvetica,sans-Serif" font-size="10.00">CoolPubSubClient::connected</text>
</a>
</g>
</g>
<!-- Node81&#45;&gt;Node82 -->
<g id="edge1" class="edge"><title>Node81&#45;&gt;Node82</title>
<path fill="none" stroke="midnightblue" d="M93.5161,-76.6233C114.34,-84.7726 145.387,-96.4586 173,-105 180.754,-107.399 189.027,-109.724 197.141,-111.876"/>
<polygon fill="midnightblue" stroke="midnightblue" points="196.356,-115.288 206.914,-114.409 198.113,-108.512 196.356,-115.288"/>
</g>
<!-- Node83 -->
<g id="node3" class="node"><title>Node83</title>
<g id="a_node3"><a xlink:href="class_cool_pub_sub_client.html#a0e3d7e776d4cf4427f9569b28868905a" target="_top" xlink:title="CoolPubSubClient::writeString">
<polygon fill="white" stroke="black" points="174.5,-76.5 174.5,-95.5 323.5,-95.5 323.5,-76.5 174.5,-76.5"/>
<text text-anchor="middle" x="249" y="-83.5" font-family="Helvetica,sans-Serif" font-size="10.00">CoolPubSubClient::writeString</text>
</a>
</g>
</g>
<!-- Node81&#45;&gt;Node83 -->
<g id="edge2" class="edge"><title>Node81&#45;&gt;Node83</title>
<path fill="none" stroke="midnightblue" d="M137.238,-74.2102C146.052,-75.1484 155.163,-76.1182 164.2,-77.0801"/>
<polygon fill="midnightblue" stroke="midnightblue" points="164.037,-80.5824 174.351,-78.1606 164.778,-73.6217 164.037,-80.5824"/>
</g>
<!-- Node84 -->
<g id="node4" class="node"><title>Node84</title>
<g id="a_node4"><a xlink:href="class_cool_pub_sub_client.html#a7a8e4854a1846eaa668046d3854d47ad" target="_top" xlink:title="CoolPubSubClient::write">
<polygon fill="white" stroke="black" points="187,-38.5 187,-57.5 311,-57.5 311,-38.5 187,-38.5"/>
<text text-anchor="middle" x="249" y="-45.5" font-family="Helvetica,sans-Serif" font-size="10.00">CoolPubSubClient::write</text>
</a>
</g>
</g>
<!-- Node81&#45;&gt;Node84 -->
<g id="edge3" class="edge"><title>Node81&#45;&gt;Node84</title>
<path fill="none" stroke="midnightblue" d="M137.238,-59.7898C150.078,-58.423 163.551,-56.989 176.503,-55.6103"/>
<polygon fill="midnightblue" stroke="midnightblue" points="177.184,-59.0577 186.757,-54.5188 176.443,-52.097 177.184,-59.0577"/>
</g>
<!-- Node85 -->
<g id="node5" class="node"><title>Node85</title>
<g id="a_node5"><a xlink:href="class_cool_pub_sub_client.html#a25a8779149cfa809b7c06f63568b25cf" target="_top" xlink:title="CoolPubSubClient::readPacket">
<polygon fill="white" stroke="black" points="173,-0.5 173,-19.5 325,-19.5 325,-0.5 173,-0.5"/>
<text text-anchor="middle" x="249" y="-7.5" font-family="Helvetica,sans-Serif" font-size="10.00">CoolPubSubClient::readPacket</text>
</a>
</g>
</g>
<!-- Node81&#45;&gt;Node85 -->
<g id="edge4" class="edge"><title>Node81&#45;&gt;Node85</title>
<path fill="none" stroke="midnightblue" d="M93.5161,-57.3767C114.34,-49.2274 145.387,-37.5414 173,-29 180.754,-26.6013 189.027,-24.2764 197.141,-22.124"/>
<polygon fill="midnightblue" stroke="midnightblue" points="198.113,-25.488 206.914,-19.5908 196.356,-18.7119 198.113,-25.488"/>
</g>
<!-- Node86 -->
<g id="node6" class="node"><title>Node86</title>
<g id="a_node6"><a xlink:href="class_cool_pub_sub_client.html#ad409bbd287d5894f0cf082f62446c002" target="_top" xlink:title="CoolPubSubClient::readByte">
<polygon fill="white" stroke="black" points="361,-0.5 361,-19.5 503,-19.5 503,-0.5 361,-0.5"/>
<text text-anchor="middle" x="432" y="-7.5" font-family="Helvetica,sans-Serif" font-size="10.00">CoolPubSubClient::readByte</text>
</a>
</g>
</g>
<!-- Node85&#45;&gt;Node86 -->
<g id="edge5" class="edge"><title>Node85&#45;&gt;Node86</title>
<path fill="none" stroke="midnightblue" d="M325.188,-10C333.612,-10 342.219,-10 350.704,-10"/>
<polygon fill="midnightblue" stroke="midnightblue" points="350.974,-13.5001 360.974,-10 350.974,-6.5001 350.974,-13.5001"/>
</g>
</g>
</svg>
        <g id="navigator" transform="translate(0 0)" fill="#404254">
                <rect fill="#f2f5e9" fill-opacity="0.5" stroke="#606060" stroke-width=".5" x="0" y="0" width="60" height="60"/>
                <use id="zoomplus" xlink:href="#zoomPlus" x="17" y="9" onmousedown="handleZoom(evt,'in')"/>
                <use id="zoomminus" xlink:href="#zoomMin" x="42" y="9" onmousedown="handleZoom(evt,'out')"/>
                <use id="reset" xlink:href="#resetDef" x="30" y="36" onmousedown="handleReset()"/>
                <g id="arrowUp" xlink:href="#dirArrow" transform="translate(30 24)" onmousedown="handlePan(0,-1)">
                  <use xlink:href="#rim" fill="#404040">
                        <set attributeName="fill" to="#808080" begin="arrowUp.mouseover" end="arrowUp.mouseout"/>
                  </use>
                  <path fill="none" stroke="white" stroke-width="1.5" d="M0,-3.0v7 M-2.5,-0.5L0,-3.0L2.5,-0.5"/>
                </g>
                <g id="arrowRight" xlink:href="#dirArrow" transform="rotate(90) translate(36 -43)" onmousedown="handlePan(1,0)">
                  <use xlink:href="#rim" fill="#404040">
                        <set attributeName="fill" to="#808080" begin="arrowRight.mouseover" end="arrowRight.mouseout"/>
                  </use>
                  <path fill="none" stroke="white" stroke-width="1.5" d="M0,-3.0v7 M-2.5,-0.5L0,-3.0L2.5,-0.5"/>
                </g>
                <g id="arrowDown" xlink:href="#dirArrow" transform="rotate(180) translate(-30 -48)" onmousedown="handlePan(0,1)">
                  <use xlink:href="#rim" fill="#404040">
                        <set attributeName="fill" to="#808080" begin="arrowDown.mouseover" end="arrowDown.mouseout"/>
                  </use>
                  <path fill="none" stroke="white" stroke-width="1.5" d="M0,-3.0v7 M-2.5,-0.5L0,-3.0L2.5,-0.5"/>
                </g>
                <g id="arrowLeft" xlink:href="#dirArrow" transform="rotate(270) translate(-36 17)" onmousedown="handlePan(-1,0)">
                  <use xlink:href="#rim" fill="#404040">
                        <set attributeName="fill" to="#808080" begin="arrowLeft.mouseover" end="arrowLeft.mouseout"/>
                  </use>
                  <path fill="none" stroke="white" stroke-width="1.5" d="M0,-3.0v7 M-2.5,-0.5L0,-3.0L2.5,-0.5"/>
                </g>
        </g>
        <svg viewBox="0 0 15 15" width="100%" height="30px" preserveAspectRatio="xMaxYMin meet">
         <g id="arrow_out" transform="scale(0.3 0.3)">
          <a xlink:href="class_cool_pub_sub_client_a7e5a85731dd25d90a41f6d859e61da77_cgraph_org.svg" target="_base">
           <rect id="button" ry="5" rx="5" y="6" x="6" height="38" width="38"
                fill="#f2f5e9" fill-opacity="0.5" stroke="#606060" stroke-width="1.0"/>
           <path id="arrow"
             d="M 11.500037,31.436501 C 11.940474,20.09759 22.043105,11.32322 32.158766,21.979434 L 37.068811,17.246167 C 37.068811,17.246167 37.088388,32 37.088388,32 L 22.160133,31.978069 C 22.160133,31.978069 26.997745,27.140456 26.997745,27.140456 C 18.528582,18.264221 13.291696,25.230495 11.500037,31.436501 z"
             style="fill:#404040;"/>
          </a>
         </g>
        </svg>
</svg>
