<?xml version="1.0" encoding="UTF-8" standalone="no"?>
<!DOCTYPE svg PUBLIC "-//W3C//DTD SVG 1.1//EN"
 "http://www.w3.org/Graphics/SVG/1.1/DTD/svg11.dtd">
<!-- Generated by graphviz version 2.38.0 (20140413.2041)
 -->
<!-- Title: WiFiManager::setRemoveDuplicateAPs Pages: 1 -->
<svg width="771pt" height="66pt"
 viewBox="0.00 0.00 771.00 66.00" xmlns="http://www.w3.org/2000/svg" xmlns:xlink="http://www.w3.org/1999/xlink">
<g id="graph0" class="graph" transform="scale(1 1) rotate(0) translate(4 62)">
<title>WiFiManager::setRemoveDuplicateAPs</title>
<polygon fill="white" stroke="none" points="-4,4 -4,-62 767,-62 767,4 -4,4"/>
<!-- Node155 -->
<g id="node1" class="node"><title>Node155</title>
<polygon fill="#bfbfbf" stroke="black" points="0,-19.5 0,-38.5 191,-38.5 191,-19.5 0,-19.5"/>
<text text-anchor="middle" x="95.5" y="-26.5" font-family="Helvetica,sans-Serif" font-size="10.00">WiFiManager::setRemoveDuplicateAPs</text>
</g>
<!-- Node156 -->
<g id="node2" class="node"><title>Node156</title>
<g id="a_node2"><a xlink:href="class_cool_wifi.html#a7c857f27161782f5ef1d62d552aff971" target="_top" xlink:title="CoolWifi::connectAP">
<polygon fill="white" stroke="black" points="227,-19.5 227,-38.5 335,-38.5 335,-19.5 227,-19.5"/>
<text text-anchor="middle" x="281" y="-26.5" font-family="Helvetica,sans-Serif" font-size="10.00">CoolWifi::connectAP</text>
</a>
</g>
</g>
<!-- Node155&#45;&gt;Node156 -->
<g id="edge1" class="edge"><title>Node155&#45;&gt;Node156</title>
<path fill="none" stroke="midnightblue" d="M201.237,-29C210.075,-29 218.749,-29 226.922,-29"/>
<polygon fill="midnightblue" stroke="midnightblue" points="201.206,-25.5001 191.206,-29 201.206,-32.5001 201.206,-25.5001"/>
</g>
<!-- Node157 -->
<g id="node3" class="node"><title>Node157</title>
<g id="a_node3"><a xlink:href="class_cool_board.html#ae6b5e1274d760462290192acea4adca8" target="_top" xlink:title="CoolBoard::offLineMode">
<polygon fill="white" stroke="black" points="641,-38.5 641,-57.5 763,-57.5 763,-38.5 641,-38.5"/>
<text text-anchor="middle" x="702" y="-45.5" font-family="Helvetica,sans-Serif" font-size="10.00">CoolBoard::offLineMode</text>
</a>
</g>
</g>
<!-- Node156&#45;&gt;Node157 -->
<g id="edge2" class="edge"><title>Node156&#45;&gt;Node157</title>
<path fill="none" stroke="midnightblue" d="M345.507,-31.8798C425.643,-35.5137 562.454,-41.7175 640.929,-45.276"/>
<polygon fill="midnightblue" stroke="midnightblue" points="345.215,-28.363 335.067,-31.4064 344.898,-35.3559 345.215,-28.363"/>
</g>
<!-- Node158 -->
<g id="node4" class="node"><title>Node158</title>
<g id="a_node4"><a xlink:href="class_cool_wifi.html#ad060353050f40d032a2dbf9e54a768bf" target="_top" xlink:title="CoolWifi::connect">
<polygon fill="white" stroke="black" points="371,-0.5 371,-19.5 466,-19.5 466,-0.5 371,-0.5"/>
<text text-anchor="middle" x="418.5" y="-7.5" font-family="Helvetica,sans-Serif" font-size="10.00">CoolWifi::connect</text>
</a>
</g>
</g>
<!-- Node156&#45;&gt;Node158 -->
<g id="edge3" class="edge"><title>Node156&#45;&gt;Node158</title>
<path fill="none" stroke="midnightblue" d="M345.16,-20.1436C353.742,-18.9402 362.423,-17.723 370.648,-16.5697"/>
<polygon fill="midnightblue" stroke="midnightblue" points="344.581,-16.6904 335.164,-21.5452 345.553,-23.6226 344.581,-16.6904"/>
</g>
<!-- Node159 -->
<g id="node5" class="node"><title>Node159</title>
<g id="a_node5"><a xlink:href="class_cool_board.html#a519de78b807f8ec6463ff484eb925918" target="_top" xlink:title="CoolBoard::connect">
<polygon fill="white" stroke="black" points="502,-0.5 502,-19.5 605,-19.5 605,-0.5 502,-0.5"/>
<text text-anchor="middle" x="553.5" y="-7.5" font-family="Helvetica,sans-Serif" font-size="10.00">CoolBoard::connect</text>
</a>
</g>
</g>
<!-- Node158&#45;&gt;Node159 -->
<g id="edge4" class="edge"><title>Node158&#45;&gt;Node159</title>
<path fill="none" stroke="midnightblue" d="M476.204,-10C484.676,-10 493.364,-10 501.703,-10"/>
<polygon fill="midnightblue" stroke="midnightblue" points="476.017,-6.5001 466.017,-10 476.017,-13.5001 476.017,-6.5001"/>
</g>
<!-- Node159&#45;&gt;Node157 -->
<g id="edge6" class="edge"><title>Node159&#45;&gt;Node157</title>
<path fill="none" stroke="midnightblue" d="M601.195,-22.1121C621.599,-27.4044 645.181,-33.5213 664.298,-38.4799"/>
<polygon fill="midnightblue" stroke="midnightblue" points="602.027,-18.712 591.468,-19.589 600.269,-25.4877 602.027,-18.712"/>
</g>
<!-- Node160 -->
<g id="node6" class="node"><title>Node160</title>
<g id="a_node6"><a xlink:href="class_cool_board.html#acba7c5aef7268b2c0044bdb54d3b9d76" target="_top" xlink:title="CoolBoard::begin">
<polygon fill="white" stroke="black" points="656,-0.5 656,-19.5 748,-19.5 748,-0.5 656,-0.5"/>
<text text-anchor="middle" x="702" y="-7.5" font-family="Helvetica,sans-Serif" font-size="10.00">CoolBoard::begin</text>
</a>
</g>
</g>
<!-- Node159&#45;&gt;Node160 -->
<g id="edge5" class="edge"><title>Node159&#45;&gt;Node160</title>
<path fill="none" stroke="midnightblue" d="M615.472,-10C628.924,-10 642.944,-10 655.648,-10"/>
<polygon fill="midnightblue" stroke="midnightblue" points="615.327,-6.5001 605.327,-10 615.327,-13.5001 615.327,-6.5001"/>
</g>
</g>
</svg>
