<?xml version="1.0" encoding="UTF-8" standalone="no"?>
<!DOCTYPE svg PUBLIC "-//W3C//DTD SVG 1.1//EN"
 "http://www.w3.org/Graphics/SVG/1.1/DTD/svg11.dtd">
<!-- Generated by graphviz version 2.38.0 (20140413.2041)
 -->
<!-- Title: CoolSI114X::ReadHalfWord Pages: 1 -->
<svg width="800pt" height="142pt"
 viewBox="0.00 0.00 800.00 142.00" xmlns="http://www.w3.org/2000/svg" xmlns:xlink="http://www.w3.org/1999/xlink">
<g id="graph0" class="graph" transform="scale(1 1) rotate(0) translate(4 138)">
<title>CoolSI114X::ReadHalfWord</title>
<polygon fill="white" stroke="none" points="-4,4 -4,-138 796,-138 796,4 -4,4"/>
<!-- Node33 -->
<g id="node1" class="node"><title>Node33</title>
<polygon fill="#bfbfbf" stroke="black" points="0,-57.5 0,-76.5 140,-76.5 140,-57.5 0,-57.5"/>
<text text-anchor="middle" x="70" y="-64.5" font-family="Helvetica,sans-Serif" font-size="10.00">CoolSI114X::ReadHalfWord</text>
</g>
<!-- Node34 -->
<g id="node2" class="node"><title>Node34</title>
<g id="a_node2"><a xlink:href="class_cool_s_i114_x.html#a42e0e574256341443c647a4c0eda87d5" target="_top" xlink:title="CoolSI114X::ReadVisible">
<polygon fill="white" stroke="black" points="182,-114.5 182,-133.5 310,-133.5 310,-114.5 182,-114.5"/>
<text text-anchor="middle" x="246" y="-121.5" font-family="Helvetica,sans-Serif" font-size="10.00">CoolSI114X::ReadVisible</text>
</a>
</g>
</g>
<!-- Node33&#45;&gt;Node34 -->
<g id="edge1" class="edge"><title>Node33&#45;&gt;Node34</title>
<path fill="none" stroke="midnightblue" d="M105.334,-80.197C125.731,-87.8435 152.186,-97.4248 176,-105 186.42,-108.314 197.829,-111.595 208.317,-114.474"/>
<polygon fill="midnightblue" stroke="midnightblue" points="106.437,-76.8724 95.8451,-76.616 103.965,-83.4215 106.437,-76.8724"/>
</g>
<!-- Node39 -->
<g id="node7" class="node"><title>Node39</title>
<g id="a_node7"><a xlink:href="class_cool_s_i114_x.html#abc536ee7ae8e3ba9d1069acc3889a2cf" target="_top" xlink:title="CoolSI114X::ReadIR">
<polygon fill="white" stroke="black" points="191.5,-76.5 191.5,-95.5 300.5,-95.5 300.5,-76.5 191.5,-76.5"/>
<text text-anchor="middle" x="246" y="-83.5" font-family="Helvetica,sans-Serif" font-size="10.00">CoolSI114X::ReadIR</text>
</a>
</g>
</g>
<!-- Node33&#45;&gt;Node39 -->
<g id="edge6" class="edge"><title>Node33&#45;&gt;Node39</title>
<path fill="none" stroke="midnightblue" d="M150.116,-75.6391C164.078,-77.1636 178.312,-78.718 191.365,-80.1433"/>
<polygon fill="midnightblue" stroke="midnightblue" points="150.34,-72.1429 140.019,-74.5366 149.58,-79.1015 150.34,-72.1429"/>
</g>
<!-- Node40 -->
<g id="node8" class="node"><title>Node40</title>
<g id="a_node8"><a xlink:href="class_cool_s_i114_x.html#a194fede1105508c7803dbb567cbdcc67" target="_top" xlink:title="CoolSI114X::ReadProximity">
<polygon fill="white" stroke="black" points="176,-38.5 176,-57.5 316,-57.5 316,-38.5 176,-38.5"/>
<text text-anchor="middle" x="246" y="-45.5" font-family="Helvetica,sans-Serif" font-size="10.00">CoolSI114X::ReadProximity</text>
</a>
</g>
</g>
<!-- Node33&#45;&gt;Node40 -->
<g id="edge8" class="edge"><title>Node33&#45;&gt;Node40</title>
<path fill="none" stroke="midnightblue" d="M150.035,-58.3697C158.625,-57.4318 167.319,-56.4824 175.779,-55.5586"/>
<polygon fill="midnightblue" stroke="midnightblue" points="149.58,-54.8985 140.019,-59.4634 150.34,-61.8571 149.58,-54.8985"/>
</g>
<!-- Node41 -->
<g id="node9" class="node"><title>Node41</title>
<g id="a_node9"><a xlink:href="class_cool_s_i114_x.html#a14ced664d74e93438440b0274109c111" target="_top" xlink:title="CoolSI114X::ReadUV">
<polygon fill="white" stroke="black" points="189.5,-0.5 189.5,-19.5 302.5,-19.5 302.5,-0.5 189.5,-0.5"/>
<text text-anchor="middle" x="246" y="-7.5" font-family="Helvetica,sans-Serif" font-size="10.00">CoolSI114X::ReadUV</text>
</a>
</g>
</g>
<!-- Node33&#45;&gt;Node41 -->
<g id="edge9" class="edge"><title>Node33&#45;&gt;Node41</title>
<path fill="none" stroke="midnightblue" d="M105.334,-53.803C125.731,-46.1565 152.186,-36.5752 176,-29 186.42,-25.6856 197.829,-22.4047 208.317,-19.526"/>
<polygon fill="midnightblue" stroke="midnightblue" points="103.965,-50.5785 95.8451,-57.384 106.437,-57.1276 103.965,-50.5785"/>
</g>
<!-- Node35 -->
<g id="node3" class="node"><title>Node35</title>
<g id="a_node3"><a xlink:href="class_cool_board_sensors.html#a91badb2539d91fda8679f2a597874c48" target="_top" xlink:title="CoolBoardSensors::read">
<polygon fill="white" stroke="black" points="352,-76.5 352,-95.5 475,-95.5 475,-76.5 352,-76.5"/>
<text text-anchor="middle" x="413.5" y="-83.5" font-family="Helvetica,sans-Serif" font-size="10.00">CoolBoardSensors::read</text>
</a>
</g>
</g>
<!-- Node34&#45;&gt;Node35 -->
<g id="edge2" class="edge"><title>Node34&#45;&gt;Node35</title>
<path fill="none" stroke="midnightblue" d="M298.811,-112.104C322.073,-106.763 349.147,-100.546 371.038,-95.5201"/>
<polygon fill="midnightblue" stroke="midnightblue" points="297.726,-108.762 288.763,-114.411 299.292,-115.584 297.726,-108.762"/>
</g>
<!-- Node36 -->
<g id="node4" class="node"><title>Node36</title>
<g id="a_node4"><a xlink:href="class_cool_board.html#ad03abdce2e65f520bbf2cff0f2d083cf" target="_top" xlink:title="CoolBoard::readSensors">
<polygon fill="white" stroke="black" points="511,-76.5 511,-95.5 634,-95.5 634,-76.5 511,-76.5"/>
<text text-anchor="middle" x="572.5" y="-83.5" font-family="Helvetica,sans-Serif" font-size="10.00">CoolBoard::readSensors</text>
</a>
</g>
</g>
<!-- Node35&#45;&gt;Node36 -->
<g id="edge3" class="edge"><title>Node35&#45;&gt;Node36</title>
<path fill="none" stroke="midnightblue" d="M485.21,-86C493.807,-86 502.53,-86 510.961,-86"/>
<polygon fill="midnightblue" stroke="midnightblue" points="485.2,-82.5001 475.2,-86 485.2,-89.5001 485.2,-82.5001"/>
</g>
<!-- Node37 -->
<g id="node5" class="node"><title>Node37</title>
<g id="a_node5"><a xlink:href="class_cool_board.html#aa0bbc4bc605e35618d18e68795c61363" target="_top" xlink:title="CoolBoard::onLineMode">
<polygon fill="white" stroke="black" points="670.5,-95.5 670.5,-114.5 791.5,-114.5 791.5,-95.5 670.5,-95.5"/>
<text text-anchor="middle" x="731" y="-102.5" font-family="Helvetica,sans-Serif" font-size="10.00">CoolBoard::onLineMode</text>
</a>
</g>
</g>
<!-- Node36&#45;&gt;Node37 -->
<g id="edge4" class="edge"><title>Node36&#45;&gt;Node37</title>
<path fill="none" stroke="midnightblue" d="M644.207,-94.5842C652.968,-95.6478 661.856,-96.7269 670.427,-97.7675"/>
<polygon fill="midnightblue" stroke="midnightblue" points="644.356,-91.0767 634.007,-93.3459 643.512,-98.0257 644.356,-91.0767"/>
</g>
<!-- Node38 -->
<g id="node6" class="node"><title>Node38</title>
<g id="a_node6"><a xlink:href="class_cool_board.html#ae6b5e1274d760462290192acea4adca8" target="_top" xlink:title="CoolBoard::offLineMode">
<polygon fill="white" stroke="black" points="670,-57.5 670,-76.5 792,-76.5 792,-57.5 670,-57.5"/>
<text text-anchor="middle" x="731" y="-64.5" font-family="Helvetica,sans-Serif" font-size="10.00">CoolBoard::offLineMode</text>
</a>
</g>
</g>
<!-- Node36&#45;&gt;Node38 -->
<g id="edge5" class="edge"><title>Node36&#45;&gt;Node38</title>
<path fill="none" stroke="midnightblue" d="M644.059,-77.4338C652.692,-76.3856 661.452,-75.3221 669.912,-74.2951"/>
<polygon fill="midnightblue" stroke="midnightblue" points="643.512,-73.9743 634.007,-78.6541 644.356,-80.9233 643.512,-73.9743"/>
</g>
<!-- Node39&#45;&gt;Node35 -->
<g id="edge7" class="edge"><title>Node39&#45;&gt;Node35</title>
<path fill="none" stroke="midnightblue" d="M310.872,-86C324.342,-86 338.518,-86 351.866,-86"/>
<polygon fill="midnightblue" stroke="midnightblue" points="310.733,-82.5001 300.733,-86 310.733,-89.5001 310.733,-82.5001"/>
</g>
<!-- Node41&#45;&gt;Node35 -->
<g id="edge10" class="edge"><title>Node41&#45;&gt;Node35</title>
<path fill="none" stroke="midnightblue" d="M298.068,-22.4115C304.194,-24.3824 310.295,-26.5804 316,-29 347.348,-42.2952 380.932,-64.0495 399.046,-76.4849"/>
<polygon fill="midnightblue" stroke="midnightblue" points="299.058,-19.0547 288.473,-19.5022 297.027,-25.7535 299.058,-19.0547"/>
</g>
</g>
</svg>
