<?xml version="1.0" encoding="UTF-8" standalone="no"?>
<!DOCTYPE svg PUBLIC "-//W3C//DTD SVG 1.1//EN"
 "http://www.w3.org/Graphics/SVG/1.1/DTD/svg11.dtd">
<!-- Generated by graphviz version 2.38.0 (20140413.2041)
 -->
<!-- Title: CoolSI114X::Begin Pages: 1 -->
<svg width="584pt" height="123pt"
 viewBox="0.00 0.00 584.00 123.00" xmlns="http://www.w3.org/2000/svg" xmlns:xlink="http://www.w3.org/1999/xlink">
<g id="graph0" class="graph" transform="scale(1 1) rotate(0) translate(4 119)">
<title>CoolSI114X::Begin</title>
<polygon fill="white" stroke="none" points="-4,4 -4,-119 580,-119 580,4 -4,4"/>
<!-- Node0 -->
<g id="node1" class="node"><title>Node0</title>
<polygon fill="#bfbfbf" stroke="black" points="0,-66.5 0,-85.5 100,-85.5 100,-66.5 0,-66.5"/>
<text text-anchor="middle" x="50" y="-73.5" font-family="Helvetica,sans-Serif" font-size="10.00">CoolSI114X::Begin</text>
</g>
<!-- Node1 -->
<g id="node2" class="node"><title>Node1</title>
<g id="a_node2"><a xlink:href="class_cool_s_i114_x.html#acc20f8037e156ec4aadcbe90780b1e8b" target="_top" xlink:title="CoolSI114X::ReadByte">
<polygon fill="white" stroke="black" points="457,-95.5 457,-114.5 576,-114.5 576,-95.5 457,-95.5"/>
<text text-anchor="middle" x="516.5" y="-102.5" font-family="Helvetica,sans-Serif" font-size="10.00">CoolSI114X::ReadByte</text>
</a>
</g>
</g>
<!-- Node0&#45;&gt;Node1 -->
<g id="edge1" class="edge"><title>Node0&#45;&gt;Node1</title>
<path fill="none" stroke="midnightblue" d="M88.017,-85.517C102.845,-89.0026 120.143,-92.662 136,-95 243.579,-110.862 370.123,-110.432 446.502,-108.121"/>
<polygon fill="midnightblue" stroke="midnightblue" points="447.057,-111.605 456.939,-107.784 446.831,-104.609 447.057,-111.605"/>
</g>
<!-- Node2 -->
<g id="node3" class="node"><title>Node2</title>
<g id="a_node3"><a xlink:href="class_cool_s_i114_x.html#a9d9f9c9129c0c29ed497f8563f3dd823" target="_top" xlink:title="CoolSI114X::Reset">
<polygon fill="white" stroke="black" points="296.5,-0.5 296.5,-19.5 397.5,-19.5 397.5,-0.5 296.5,-0.5"/>
<text text-anchor="middle" x="347" y="-7.5" font-family="Helvetica,sans-Serif" font-size="10.00">CoolSI114X::Reset</text>
</a>
</g>
</g>
<!-- Node0&#45;&gt;Node2 -->
<g id="edge2" class="edge"><title>Node0&#45;&gt;Node2</title>
<path fill="none" stroke="midnightblue" d="M93.5805,-66.4735C146.414,-54.6532 236.483,-34.502 293.529,-21.7392"/>
<polygon fill="midnightblue" stroke="midnightblue" points="294.438,-25.1225 303.432,-19.5236 292.909,-18.2914 294.438,-25.1225"/>
</g>
<!-- Node4 -->
<g id="node5" class="node"><title>Node4</title>
<g id="a_node5"><a xlink:href="class_cool_s_i114_x.html#a6840abd53a2e3d71a6bb918077c6d6e6" target="_top" xlink:title="CoolSI114X::DeInit">
<polygon fill="white" stroke="black" points="136,-66.5 136,-85.5 237,-85.5 237,-66.5 136,-66.5"/>
<text text-anchor="middle" x="186.5" y="-73.5" font-family="Helvetica,sans-Serif" font-size="10.00">CoolSI114X::DeInit</text>
</a>
</g>
</g>
<!-- Node0&#45;&gt;Node4 -->
<g id="edge4" class="edge"><title>Node0&#45;&gt;Node4</title>
<path fill="none" stroke="midnightblue" d="M100.319,-76C108.527,-76 117.12,-76 125.558,-76"/>
<polygon fill="midnightblue" stroke="midnightblue" points="125.737,-79.5001 135.737,-76 125.737,-72.5001 125.737,-79.5001"/>
</g>
<!-- Node3 -->
<g id="node4" class="node"><title>Node3</title>
<g id="a_node4"><a xlink:href="class_cool_s_i114_x.html#ac5c8dc5ade604da7a1c8cd1586feefc2" target="_top" xlink:title="CoolSI114X::WriteByte">
<polygon fill="white" stroke="black" points="457,-38.5 457,-57.5 576,-57.5 576,-38.5 457,-38.5"/>
<text text-anchor="middle" x="516.5" y="-45.5" font-family="Helvetica,sans-Serif" font-size="10.00">CoolSI114X::WriteByte</text>
</a>
</g>
</g>
<!-- Node2&#45;&gt;Node3 -->
<g id="edge3" class="edge"><title>Node2&#45;&gt;Node3</title>
<path fill="none" stroke="midnightblue" d="M390.267,-19.589C412.57,-24.6487 440.123,-30.8996 463.702,-36.2488"/>
<polygon fill="midnightblue" stroke="midnightblue" points="463.01,-39.6807 473.537,-38.4799 464.559,-32.8542 463.01,-39.6807"/>
</g>
<!-- Node4&#45;&gt;Node3 -->
<g id="edge5" class="edge"><title>Node4&#45;&gt;Node3</title>
<path fill="none" stroke="midnightblue" d="M237.21,-70.5408C248.941,-69.3154 261.407,-68.0642 273,-67 331.498,-61.6305 398.024,-56.4863 446.581,-52.9081"/>
<polygon fill="midnightblue" stroke="midnightblue" points="446.943,-56.391 456.66,-52.1688 446.431,-49.4098 446.943,-56.391"/>
</g>
<!-- Node5 -->
<g id="node6" class="node"><title>Node5</title>
<g id="a_node6"><a xlink:href="class_cool_s_i114_x.html#abf45eb10a6de1be16e68a51624fa2608" target="_top" xlink:title="CoolSI114X::WriteParamData">
<polygon fill="white" stroke="black" points="273,-76.5 273,-95.5 421,-95.5 421,-76.5 273,-76.5"/>
<text text-anchor="middle" x="347" y="-83.5" font-family="Helvetica,sans-Serif" font-size="10.00">CoolSI114X::WriteParamData</text>
</a>
</g>
</g>
<!-- Node4&#45;&gt;Node5 -->
<g id="edge6" class="edge"><title>Node4&#45;&gt;Node5</title>
<path fill="none" stroke="midnightblue" d="M237.216,-79.1366C245.372,-79.6512 254.016,-80.1966 262.725,-80.746"/>
<polygon fill="midnightblue" stroke="midnightblue" points="262.752,-84.2546 272.952,-81.3913 263.193,-77.2685 262.752,-84.2546"/>
</g>
<!-- Node5&#45;&gt;Node1 -->
<g id="edge8" class="edge"><title>Node5&#45;&gt;Node1</title>
<path fill="none" stroke="midnightblue" d="M421.468,-94.3337C429.904,-95.2906 438.482,-96.2636 446.852,-97.213"/>
<polygon fill="midnightblue" stroke="midnightblue" points="446.603,-100.707 456.934,-98.3567 447.392,-93.7518 446.603,-100.707"/>
</g>
<!-- Node5&#45;&gt;Node3 -->
<g id="edge7" class="edge"><title>Node5&#45;&gt;Node3</title>
<path fill="none" stroke="midnightblue" d="M390.267,-76.411C412.57,-71.3513 440.123,-65.1004 463.702,-59.7512"/>
<polygon fill="midnightblue" stroke="midnightblue" points="464.559,-63.1458 473.537,-57.5201 463.01,-56.3193 464.559,-63.1458"/>
</g>
</g>
</svg>
