<?xml version="1.0" encoding="UTF-8" standalone="no"?>
<!DOCTYPE svg PUBLIC "-//W3C//DTD SVG 1.1//EN"
 "http://www.w3.org/Graphics/SVG/1.1/DTD/svg11.dtd">
<!-- Generated by graphviz version 2.38.0 (20140413.2041)
 -->
<!-- Title: Irene3000::readButton Pages: 1 -->
<svg width="560pt" height="107pt"
 viewBox="0.00 0.00 560.00 107.00" xmlns="http://www.w3.org/2000/svg" xmlns:xlink="http://www.w3.org/1999/xlink">
<g id="graph0" class="graph" transform="scale(1 1) rotate(0) translate(4 103)">
<title>Irene3000::readButton</title>
<polygon fill="white" stroke="none" points="-4,4 -4,-103 556,-103 556,4 -4,4"/>
<!-- Node91 -->
<g id="node1" class="node"><title>Node91</title>
<polygon fill="#bfbfbf" stroke="black" points="0,-57.5 0,-76.5 113,-76.5 113,-57.5 0,-57.5"/>
<text text-anchor="middle" x="56.5" y="-64.5" font-family="Helvetica,sans-Serif" font-size="10.00">Irene3000::readButton</text>
</g>
<!-- Node92 -->
<g id="node2" class="node"><title>Node92</title>
<g id="a_node2"><a xlink:href="class_irene3000.html#aff7c5da186b388e7272e63ff88a20c34" target="_top" xlink:title="Irene3000::setGain">
<polygon fill="white" stroke="black" points="171.5,-79.5 171.5,-98.5 270.5,-98.5 270.5,-79.5 171.5,-79.5"/>
<text text-anchor="middle" x="221" y="-86.5" font-family="Helvetica,sans-Serif" font-size="10.00">Irene3000::setGain</text>
</a>
</g>
</g>
<!-- Node91&#45;&gt;Node92 -->
<g id="edge1" class="edge"><title>Node91&#45;&gt;Node92</title>
<path fill="none" stroke="midnightblue" d="M113.423,-74.5712C128.862,-76.6613 145.656,-78.935 161.25,-81.0462"/>
<polygon fill="midnightblue" stroke="midnightblue" points="160.919,-84.5332 171.298,-82.4065 161.858,-77.5964 160.919,-84.5332"/>
</g>
<!-- Node94 -->
<g id="node4" class="node"><title>Node94</title>
<g id="a_node4"><a xlink:href="class_adafruit___a_d_s1015.html#a40f38b9e1f3ec397c0670dd632510235" target="_top" xlink:title="Gets a single&#45;ended ADC reading from the specified channel. ">
<polygon fill="white" stroke="black" points="149,-30 149,-60 293,-60 293,-30 149,-30"/>
<text text-anchor="start" x="157" y="-48" font-family="Helvetica,sans-Serif" font-size="10.00">Adafruit_ADS1015::readADC</text>
<text text-anchor="middle" x="221" y="-37" font-family="Helvetica,sans-Serif" font-size="10.00">_SingleEnded</text>
</a>
</g>
</g>
<!-- Node91&#45;&gt;Node94 -->
<g id="edge3" class="edge"><title>Node91&#45;&gt;Node94</title>
<path fill="none" stroke="midnightblue" d="M113.423,-59.4288C121.606,-58.3211 130.169,-57.1618 138.732,-56.0024"/>
<polygon fill="midnightblue" stroke="midnightblue" points="139.322,-59.4546 148.762,-54.6445 138.383,-52.5179 139.322,-59.4546"/>
</g>
<!-- Node93 -->
<g id="node3" class="node"><title>Node93</title>
<g id="a_node3"><a xlink:href="class_adafruit___a_d_s1015.html#a399441eace686975ff22937cbe45cc50" target="_top" xlink:title="Sets the gain and input voltage range. ">
<polygon fill="white" stroke="black" points="329,-79.5 329,-98.5 466,-98.5 466,-79.5 329,-79.5"/>
<text text-anchor="middle" x="397.5" y="-86.5" font-family="Helvetica,sans-Serif" font-size="10.00">Adafruit_ADS1015::setGain</text>
</a>
</g>
</g>
<!-- Node92&#45;&gt;Node93 -->
<g id="edge2" class="edge"><title>Node92&#45;&gt;Node93</title>
<path fill="none" stroke="midnightblue" d="M270.608,-89C285.557,-89 302.402,-89 318.793,-89"/>
<polygon fill="midnightblue" stroke="midnightblue" points="318.919,-92.5001 328.919,-89 318.919,-85.5001 318.919,-92.5001"/>
</g>
<!-- Node95 -->
<g id="node5" class="node"><title>Node95</title>
<g id="a_node5"><a xlink:href="_cool_adafruit___a_d_s1015_8cpp.html#a00ef55774dfb93dd0a7bf561d8451b71" target="_top" xlink:title="Writes 16&#45;bits to the specified destination register. ">
<polygon fill="white" stroke="black" points="360.5,-38.5 360.5,-57.5 434.5,-57.5 434.5,-38.5 360.5,-38.5"/>
<text text-anchor="middle" x="397.5" y="-45.5" font-family="Helvetica,sans-Serif" font-size="10.00">writeRegister</text>
</a>
</g>
</g>
<!-- Node94&#45;&gt;Node95 -->
<g id="edge4" class="edge"><title>Node94&#45;&gt;Node95</title>
<path fill="none" stroke="midnightblue" d="M293.228,-46.2245C312.27,-46.5519 332.367,-46.8974 349.72,-47.1958"/>
<polygon fill="midnightblue" stroke="midnightblue" points="350.078,-50.7023 360.136,-47.3748 350.198,-43.7034 350.078,-50.7023"/>
</g>
<!-- Node97 -->
<g id="node7" class="node"><title>Node97</title>
<g id="a_node7"><a xlink:href="_cool_adafruit___a_d_s1015_8cpp.html#a319539381b7551b2f83a92b0b596e97d" target="_top" xlink:title="Writes 16&#45;bits to the specified destination register. ">
<polygon fill="white" stroke="black" points="361.5,-0.5 361.5,-19.5 433.5,-19.5 433.5,-0.5 361.5,-0.5"/>
<text text-anchor="middle" x="397.5" y="-7.5" font-family="Helvetica,sans-Serif" font-size="10.00">readRegister</text>
</a>
</g>
</g>
<!-- Node94&#45;&gt;Node97 -->
<g id="edge6" class="edge"><title>Node94&#45;&gt;Node97</title>
<path fill="none" stroke="midnightblue" d="M293.228,-30.7137C312.765,-26.795 333.412,-22.6538 351.067,-19.1126"/>
<polygon fill="midnightblue" stroke="midnightblue" points="351.969,-22.5015 361.085,-17.1032 350.592,-15.6382 351.969,-22.5015"/>
</g>
<!-- Node96 -->
<g id="node6" class="node"><title>Node96</title>
<g id="a_node6"><a xlink:href="_cool_adafruit___a_d_s1015_8cpp.html#a6db5edba66e20bba6d5b421c2789af54" target="_top" xlink:title="Abstract away platform differences in Arduino wire library. ">
<polygon fill="white" stroke="black" points="502,-38.5 502,-57.5 552,-57.5 552,-38.5 502,-38.5"/>
<text text-anchor="middle" x="527" y="-45.5" font-family="Helvetica,sans-Serif" font-size="10.00">i2cwrite</text>
</a>
</g>
</g>
<!-- Node95&#45;&gt;Node96 -->
<g id="edge5" class="edge"><title>Node95&#45;&gt;Node96</title>
<path fill="none" stroke="midnightblue" d="M434.695,-48C452.498,-48 473.851,-48 491.43,-48"/>
<polygon fill="midnightblue" stroke="midnightblue" points="491.821,-51.5001 501.821,-48 491.821,-44.5001 491.821,-51.5001"/>
</g>
<!-- Node97&#45;&gt;Node96 -->
<g id="edge7" class="edge"><title>Node97&#45;&gt;Node96</title>
<path fill="none" stroke="midnightblue" d="M433.248,-19.5494C443.788,-22.5083 455.386,-25.8265 466,-29 474.502,-31.5421 483.649,-34.3837 492.176,-37.0787"/>
<polygon fill="midnightblue" stroke="midnightblue" points="491.234,-40.4519 501.824,-40.1485 493.356,-33.7813 491.234,-40.4519"/>
</g>
<!-- Node98 -->
<g id="node8" class="node"><title>Node98</title>
<g id="a_node8"><a xlink:href="_cool_adafruit___a_d_s1015_8cpp.html#af89e2442d757f6ec8100c473022f6701" target="_top" xlink:title="Abstract away platform differences in Arduino wire library. ">
<polygon fill="white" stroke="black" points="503,-0.5 503,-19.5 551,-19.5 551,-0.5 503,-0.5"/>
<text text-anchor="middle" x="527" y="-7.5" font-family="Helvetica,sans-Serif" font-size="10.00">i2cread</text>
</a>
</g>
</g>
<!-- Node97&#45;&gt;Node98 -->
<g id="edge8" class="edge"><title>Node97&#45;&gt;Node98</title>
<path fill="none" stroke="midnightblue" d="M433.677,-10C452.162,-10 474.688,-10 492.862,-10"/>
<polygon fill="midnightblue" stroke="midnightblue" points="492.996,-13.5001 502.996,-10 492.996,-6.5001 492.996,-13.5001"/>
</g>
</g>
</svg>
