<?xml version="1.0" encoding="UTF-8" standalone="no"?>
<!DOCTYPE svg PUBLIC "-//W3C//DTD SVG 1.1//EN"
 "http://www.w3.org/Graphics/SVG/1.1/DTD/svg11.dtd">
<!-- Generated by graphviz version 2.38.0 (20140413.2041)
 -->
<!-- Title: WiFiManager::handleFileRead Pages: 1 -->
<svg width="342pt" height="66pt"
 viewBox="0.00 0.00 342.00 66.00" xmlns="http://www.w3.org/2000/svg" xmlns:xlink="http://www.w3.org/1999/xlink">
<g id="graph0" class="graph" transform="scale(1 1) rotate(0) translate(4 62)">
<title>WiFiManager::handleFileRead</title>
<polygon fill="white" stroke="none" points="-4,4 -4,-62 338,-62 338,4 -4,4"/>
<!-- Node69 -->
<g id="node1" class="node"><title>Node69</title>
<polygon fill="#bfbfbf" stroke="black" points="0,-19.5 0,-38.5 148,-38.5 148,-19.5 0,-19.5"/>
<text text-anchor="middle" x="74" y="-26.5" font-family="Helvetica,sans-Serif" font-size="10.00">WiFiManager::handleFileRead</text>
</g>
<!-- Node70 -->
<g id="node2" class="node"><title>Node70</title>
<g id="a_node2"><a xlink:href="class_wi_fi_manager.html#ae5f595c670ccbcf9a191baf50f5c7c26" target="_top" xlink:title="WiFiManager::DEBUG_WM">
<polygon fill="white" stroke="black" points="189,-38.5 189,-57.5 329,-57.5 329,-38.5 189,-38.5"/>
<text text-anchor="middle" x="259" y="-45.5" font-family="Helvetica,sans-Serif" font-size="10.00">WiFiManager::DEBUG_WM</text>
</a>
</g>
</g>
<!-- Node69&#45;&gt;Node70 -->
<g id="edge1" class="edge"><title>Node69&#45;&gt;Node70</title>
<path fill="none" stroke="midnightblue" d="M148.115,-36.5912C158.195,-37.6378 168.586,-38.7166 178.77,-39.7739"/>
<polygon fill="midnightblue" stroke="midnightblue" points="178.558,-43.2706 188.866,-40.8222 179.281,-36.3081 178.558,-43.2706"/>
</g>
<!-- Node71 -->
<g id="node3" class="node"><title>Node71</title>
<g id="a_node3"><a xlink:href="class_wi_fi_manager.html#a40f123fd290c3e331c9785d19a88f3b8" target="_top" xlink:title="WiFiManager::getContentType">
<polygon fill="white" stroke="black" points="184,-0.5 184,-19.5 334,-19.5 334,-0.5 184,-0.5"/>
<text text-anchor="middle" x="259" y="-7.5" font-family="Helvetica,sans-Serif" font-size="10.00">WiFiManager::getContentType</text>
</a>
</g>
</g>
<!-- Node69&#45;&gt;Node71 -->
<g id="edge2" class="edge"><title>Node69&#45;&gt;Node71</title>
<path fill="none" stroke="midnightblue" d="M148.115,-21.4088C156.559,-20.5321 165.22,-19.6329 173.796,-18.7425"/>
<polygon fill="midnightblue" stroke="midnightblue" points="174.22,-22.2174 183.805,-17.7033 173.497,-15.2548 174.22,-22.2174"/>
</g>
</g>
</svg>
