<?xml version="1.0" encoding="UTF-8" standalone="no"?>
<!DOCTYPE svg PUBLIC "-//W3C//DTD SVG 1.1//EN"
 "http://www.w3.org/Graphics/SVG/1.1/DTD/svg11.dtd">
<!-- Generated by graphviz version 2.38.0 (20140413.2041)
 -->
<!-- Title: Jetpack::hourAction Pages: 1 -->
<svg width="401pt" height="66pt"
 viewBox="0.00 0.00 401.00 66.00" xmlns="http://www.w3.org/2000/svg" xmlns:xlink="http://www.w3.org/1999/xlink">
<g id="graph0" class="graph" transform="scale(1 1) rotate(0) translate(4 62)">
<title>Jetpack::hourAction</title>
<polygon fill="white" stroke="none" points="-4,4 -4,-62 397,-62 397,4 -4,4"/>
<!-- Node24 -->
<g id="node1" class="node"><title>Node24</title>
<polygon fill="#bfbfbf" stroke="black" points="0,-19.5 0,-38.5 104,-38.5 104,-19.5 0,-19.5"/>
<text text-anchor="middle" x="52" y="-26.5" font-family="Helvetica,sans-Serif" font-size="10.00">Jetpack::hourAction</text>
</g>
<!-- Node25 -->
<g id="node2" class="node"><title>Node25</title>
<g id="a_node2"><a xlink:href="class_jetpack.html#af9acedb606340c26c2636c282b54dff1" target="_top" xlink:title="Jetpack::doAction">
<polygon fill="white" stroke="black" points="140,-19.5 140,-38.5 235,-38.5 235,-19.5 140,-19.5"/>
<text text-anchor="middle" x="187.5" y="-26.5" font-family="Helvetica,sans-Serif" font-size="10.00">Jetpack::doAction</text>
</a>
</g>
</g>
<!-- Node24&#45;&gt;Node25 -->
<g id="edge1" class="edge"><title>Node24&#45;&gt;Node25</title>
<path fill="none" stroke="midnightblue" d="M114.286,-29C122.928,-29 131.692,-29 139.996,-29"/>
<polygon fill="midnightblue" stroke="midnightblue" points="114.233,-25.5001 104.233,-29 114.233,-32.5001 114.233,-25.5001"/>
</g>
<!-- Node26 -->
<g id="node3" class="node"><title>Node26</title>
<g id="a_node3"><a xlink:href="class_cool_board.html#aa0bbc4bc605e35618d18e68795c61363" target="_top" xlink:title="CoolBoard::onLineMode">
<polygon fill="white" stroke="black" points="271.5,-38.5 271.5,-57.5 392.5,-57.5 392.5,-38.5 271.5,-38.5"/>
<text text-anchor="middle" x="332" y="-45.5" font-family="Helvetica,sans-Serif" font-size="10.00">CoolBoard::onLineMode</text>
</a>
</g>
</g>
<!-- Node25&#45;&gt;Node26 -->
<g id="edge2" class="edge"><title>Node25&#45;&gt;Node26</title>
<path fill="none" stroke="midnightblue" d="M245.157,-36.5542C253.818,-37.709 262.779,-38.9039 271.499,-40.0666"/>
<polygon fill="midnightblue" stroke="midnightblue" points="245.535,-33.0737 235.16,-35.2213 244.61,-40.0123 245.535,-33.0737"/>
</g>
<!-- Node27 -->
<g id="node4" class="node"><title>Node27</title>
<g id="a_node4"><a xlink:href="class_cool_board.html#ae6b5e1274d760462290192acea4adca8" target="_top" xlink:title="CoolBoard::offLineMode">
<polygon fill="white" stroke="black" points="271,-0.5 271,-19.5 393,-19.5 393,-0.5 271,-0.5"/>
<text text-anchor="middle" x="332" y="-7.5" font-family="Helvetica,sans-Serif" font-size="10.00">CoolBoard::offLineMode</text>
</a>
</g>
</g>
<!-- Node25&#45;&gt;Node27 -->
<g id="edge3" class="edge"><title>Node25&#45;&gt;Node27</title>
<path fill="none" stroke="midnightblue" d="M245.293,-21.4276C253.743,-20.3009 262.476,-19.1365 270.99,-18.0014"/>
<polygon fill="midnightblue" stroke="midnightblue" points="244.61,-17.9877 235.16,-22.7787 245.535,-24.9263 244.61,-17.9877"/>
</g>
</g>
</svg>
