<?xml version="1.0" encoding="UTF-8" standalone="no"?>
<!DOCTYPE svg PUBLIC "-//W3C//DTD SVG 1.1//EN"
 "http://www.w3.org/Graphics/SVG/1.1/DTD/svg11.dtd">
<!-- Generated by graphviz version 2.38.0 (20140413.2041)
 -->
<!-- Title: Adafruit_TCS34725::setIntegrationTime Pages: 1 -->
<!--zoomable 152 -->
<svg id="main" version="1.1" xmlns="http://www.w3.org/2000/svg" xmlns:xlink="http://www.w3.org/1999/xlink" xml:space="preserve" onload="init(evt)">
<style type="text/css"><![CDATA[
.edge:hover path { stroke: red; }
.edge:hover polygon { stroke: red; fill: red; }
]]></style>
<script type="text/javascript"><![CDATA[
var edges = document.getElementsByTagName('g');
if (edges && edges.length) {
  for (var i=0;i<edges.length;i++) {
    if (edges[i].id.substr(0,4)=='edge') {
      edges[i].setAttribute('class','edge');
    }
  }
}
]]></script>
        <defs>
                <circle id="rim" cx="0" cy="0" r="7"/>
                <circle id="rim2" cx="0" cy="0" r="3.5"/>
                <g id="zoomPlus">
                        <use xlink:href="#rim" fill="#404040">
                                <set attributeName="fill" to="#808080" begin="zoomplus.mouseover" end="zoomplus.mouseout"/>
                        </use>
                        <path d="M-4,0h8M0,-4v8" fill="none" stroke="white" stroke-width="1.5" pointer-events="none"/>
                </g>
                <g id="zoomMin">
                        <use xlink:href="#rim" fill="#404040">
                                <set attributeName="fill" to="#808080" begin="zoomminus.mouseover" end="zoomminus.mouseout"/>
                        </use>
                        <path d="M-4,0h8" fill="none" stroke="white" stroke-width="1.5" pointer-events="none"/>
                </g>
                <g id="dirArrow">
                        <path fill="none" stroke="white" stroke-width="1.5" d="M0,-3.0v7 M-2.5,-0.5L0,-3.0L2.5,-0.5"/>
                </g>
               <g id="resetDef">
                       <use xlink:href="#rim2" fill="#404040">
                               <set attributeName="fill" to="#808080" begin="reset.mouseover" end="reset.mouseout"/>
                       </use>
               </g>
        </defs>

<script type="text/javascript">
var viewWidth = 548;
var viewHeight = 152;
var sectionId = 'dynsection-12';
</script>
<script xlink:href="svgpan.js"/>
<svg id="graph" class="graph">
<g id="viewport">
<title>Adafruit_TCS34725::setIntegrationTime</title>
<polygon fill="white" stroke="none" points="-4,4 -4,-147.814 544,-147.814 544,4 -4,4"/>
<!-- Node60 -->
<g id="node1" class="node"><title>Node60</title>
<polygon fill="#bfbfbf" stroke="black" points="0,-64.3137 0,-94.3137 108,-94.3137 108,-64.3137 0,-64.3137"/>
<text text-anchor="start" x="8" y="-82.3137" font-family="Helvetica,sans-Serif" font-size="10.00">Adafruit_TCS34725::</text>
<text text-anchor="middle" x="54" y="-71.3137" font-family="Helvetica,sans-Serif" font-size="10.00">setIntegrationTime</text>
</g>
<!-- Node61 -->
<g id="node2" class="node"><title>Node61</title>
<g id="a_node2"><a xlink:href="class_adafruit___t_c_s34725.html#a568d79b6382ac27010a8afc26cbdae79" target="_top" xlink:title="Adafruit_TCS34725::\lbegin">
<polygon fill="white" stroke="black" points="144,-64.3137 144,-94.3137 252,-94.3137 252,-64.3137 144,-64.3137"/>
<text text-anchor="start" x="152" y="-82.3137" font-family="Helvetica,sans-Serif" font-size="10.00">Adafruit_TCS34725::</text>
<text text-anchor="middle" x="198" y="-71.3137" font-family="Helvetica,sans-Serif" font-size="10.00">begin</text>
</a>
</g>
</g>
<!-- Node60&#45;&gt;Node61 -->
<g id="edge1" class="edge"><title>Node60&#45;&gt;Node61</title>
<path fill="none" stroke="midnightblue" d="M108.28,-72.7541C116.56,-72.5727 125.184,-72.5209 133.661,-72.5987"/>
<polygon fill="midnightblue" stroke="midnightblue" points="133.841,-76.1018 143.894,-72.7579 133.95,-69.1027 133.841,-76.1018"/>
</g>
<!-- Node64 -->
<g id="node5" class="node"><title>Node64</title>
<g id="a_node5"><a xlink:href="class_adafruit___t_c_s34725.html#aa526557ad0d76b3b6e31e6197de583e6" target="_top" xlink:title="Writes a register and an 8 bit value over I2C. ">
<polygon fill="white" stroke="black" points="432,-15.3137 432,-45.3137 540,-45.3137 540,-15.3137 432,-15.3137"/>
<text text-anchor="start" x="440" y="-33.3137" font-family="Helvetica,sans-Serif" font-size="10.00">Adafruit_TCS34725::</text>
<text text-anchor="middle" x="486" y="-22.3137" font-family="Helvetica,sans-Serif" font-size="10.00">write8</text>
</a>
</g>
</g>
<!-- Node60&#45;&gt;Node64 -->
<g id="edge9" class="edge"><title>Node60&#45;&gt;Node64</title>
<path fill="none" stroke="midnightblue" d="M90.4947,-64.2516C135.478,-46.0557 215.86,-16.4942 288,-5.31365 335.434,2.03781 348.449,1.23804 396,-5.31365 407.436,-6.88938 419.472,-9.5533 430.868,-12.5695"/>
<polygon fill="midnightblue" stroke="midnightblue" points="430.115,-15.9927 440.686,-15.2923 431.985,-9.24724 430.115,-15.9927"/>
</g>
<!-- Node61&#45;&gt;Node60 -->
<g id="edge3" class="edge"><title>Node61&#45;&gt;Node60</title>
<path fill="none" stroke="midnightblue" d="M143.894,-85.8694C135.618,-86.0526 126.996,-86.1062 118.517,-86.0302"/>
<polygon fill="midnightblue" stroke="midnightblue" points="118.332,-82.5271 108.28,-85.8732 118.225,-89.5262 118.332,-82.5271"/>
</g>
<!-- Node62 -->
<g id="node3" class="node"><title>Node62</title>
<g id="a_node3"><a xlink:href="class_adafruit___t_c_s34725.html#a3ffafbdd475d6baf9abda8dd067b5319" target="_top" xlink:title="Reads an 8 bit value over I2C. ">
<polygon fill="white" stroke="black" points="288,-113.314 288,-143.314 396,-143.314 396,-113.314 288,-113.314"/>
<text text-anchor="start" x="296" y="-131.314" font-family="Helvetica,sans-Serif" font-size="10.00">Adafruit_TCS34725::</text>
<text text-anchor="middle" x="342" y="-120.314" font-family="Helvetica,sans-Serif" font-size="10.00">read8</text>
</a>
</g>
</g>
<!-- Node61&#45;&gt;Node62 -->
<g id="edge2" class="edge"><title>Node61&#45;&gt;Node62</title>
<path fill="none" stroke="midnightblue" d="M242.763,-94.4151C256.935,-99.3053 272.813,-104.784 287.603,-109.888"/>
<polygon fill="midnightblue" stroke="midnightblue" points="286.542,-113.224 297.137,-113.178 288.825,-106.607 286.542,-113.224"/>
</g>
<!-- Node63 -->
<g id="node4" class="node"><title>Node63</title>
<g id="a_node4"><a xlink:href="class_adafruit___t_c_s34725.html#a6be06315a9d33f76e44550f574f023a5" target="_top" xlink:title="Adafruit_TCS34725::\lsetGain">
<polygon fill="white" stroke="black" points="288,-64.3137 288,-94.3137 396,-94.3137 396,-64.3137 288,-64.3137"/>
<text text-anchor="start" x="296" y="-82.3137" font-family="Helvetica,sans-Serif" font-size="10.00">Adafruit_TCS34725::</text>
<text text-anchor="middle" x="342" y="-71.3137" font-family="Helvetica,sans-Serif" font-size="10.00">setGain</text>
</a>
</g>
</g>
<!-- Node61&#45;&gt;Node63 -->
<g id="edge4" class="edge"><title>Node61&#45;&gt;Node63</title>
<path fill="none" stroke="midnightblue" d="M252.28,-72.7541C260.56,-72.5727 269.184,-72.5209 277.661,-72.5987"/>
<polygon fill="midnightblue" stroke="midnightblue" points="277.841,-76.1018 287.894,-72.7579 277.95,-69.1027 277.841,-76.1018"/>
</g>
<!-- Node65 -->
<g id="node6" class="node"><title>Node65</title>
<g id="a_node6"><a xlink:href="class_adafruit___t_c_s34725.html#ad9a0e1f4f77d32dc0a6d604f7d1d5586" target="_top" xlink:title="Adafruit_TCS34725::\lenable">
<polygon fill="white" stroke="black" points="288,-15.3137 288,-45.3137 396,-45.3137 396,-15.3137 288,-15.3137"/>
<text text-anchor="start" x="296" y="-33.3137" font-family="Helvetica,sans-Serif" font-size="10.00">Adafruit_TCS34725::</text>
<text text-anchor="middle" x="342" y="-22.3137" font-family="Helvetica,sans-Serif" font-size="10.00">enable</text>
</a>
</g>
</g>
<!-- Node61&#45;&gt;Node65 -->
<g id="edge7" class="edge"><title>Node61&#45;&gt;Node65</title>
<path fill="none" stroke="midnightblue" d="M242.763,-64.2122C256.935,-59.322 272.813,-53.843 287.603,-48.7393"/>
<polygon fill="midnightblue" stroke="midnightblue" points="288.825,-52.0202 297.137,-45.4496 286.542,-45.403 288.825,-52.0202"/>
</g>
<!-- Node63&#45;&gt;Node61 -->
<g id="edge5" class="edge"><title>Node63&#45;&gt;Node61</title>
<path fill="none" stroke="midnightblue" d="M287.894,-85.8694C279.618,-86.0526 270.996,-86.1062 262.517,-86.0302"/>
<polygon fill="midnightblue" stroke="midnightblue" points="262.332,-82.5271 252.28,-85.8732 262.225,-89.5262 262.332,-82.5271"/>
</g>
<!-- Node63&#45;&gt;Node64 -->
<g id="edge6" class="edge"><title>Node63&#45;&gt;Node64</title>
<path fill="none" stroke="midnightblue" d="M386.763,-64.2122C400.935,-59.322 416.813,-53.843 431.603,-48.7393"/>
<polygon fill="midnightblue" stroke="midnightblue" points="432.825,-52.0202 441.137,-45.4496 430.542,-45.403 432.825,-52.0202"/>
</g>
<!-- Node65&#45;&gt;Node64 -->
<g id="edge8" class="edge"><title>Node65&#45;&gt;Node64</title>
<path fill="none" stroke="midnightblue" d="M396.28,-30.3137C404.56,-30.3137 413.184,-30.3137 421.661,-30.3137"/>
<polygon fill="midnightblue" stroke="midnightblue" points="421.894,-33.8138 431.894,-30.3137 421.894,-26.8138 421.894,-33.8138"/>
</g>
</g>
</svg>
        <g id="navigator" transform="translate(0 0)" fill="#404254">
                <rect fill="#f2f5e9" fill-opacity="0.5" stroke="#606060" stroke-width=".5" x="0" y="0" width="60" height="60"/>
                <use id="zoomplus" xlink:href="#zoomPlus" x="17" y="9" onmousedown="handleZoom(evt,'in')"/>
                <use id="zoomminus" xlink:href="#zoomMin" x="42" y="9" onmousedown="handleZoom(evt,'out')"/>
                <use id="reset" xlink:href="#resetDef" x="30" y="36" onmousedown="handleReset()"/>
                <g id="arrowUp" xlink:href="#dirArrow" transform="translate(30 24)" onmousedown="handlePan(0,-1)">
                  <use xlink:href="#rim" fill="#404040">
                        <set attributeName="fill" to="#808080" begin="arrowUp.mouseover" end="arrowUp.mouseout"/>
                  </use>
                  <path fill="none" stroke="white" stroke-width="1.5" d="M0,-3.0v7 M-2.5,-0.5L0,-3.0L2.5,-0.5"/>
                </g>
                <g id="arrowRight" xlink:href="#dirArrow" transform="rotate(90) translate(36 -43)" onmousedown="handlePan(1,0)">
                  <use xlink:href="#rim" fill="#404040">
                        <set attributeName="fill" to="#808080" begin="arrowRight.mouseover" end="arrowRight.mouseout"/>
                  </use>
                  <path fill="none" stroke="white" stroke-width="1.5" d="M0,-3.0v7 M-2.5,-0.5L0,-3.0L2.5,-0.5"/>
                </g>
                <g id="arrowDown" xlink:href="#dirArrow" transform="rotate(180) translate(-30 -48)" onmousedown="handlePan(0,1)">
                  <use xlink:href="#rim" fill="#404040">
                        <set attributeName="fill" to="#808080" begin="arrowDown.mouseover" end="arrowDown.mouseout"/>
                  </use>
                  <path fill="none" stroke="white" stroke-width="1.5" d="M0,-3.0v7 M-2.5,-0.5L0,-3.0L2.5,-0.5"/>
                </g>
                <g id="arrowLeft" xlink:href="#dirArrow" transform="rotate(270) translate(-36 17)" onmousedown="handlePan(-1,0)">
                  <use xlink:href="#rim" fill="#404040">
                        <set attributeName="fill" to="#808080" begin="arrowLeft.mouseover" end="arrowLeft.mouseout"/>
                  </use>
                  <path fill="none" stroke="white" stroke-width="1.5" d="M0,-3.0v7 M-2.5,-0.5L0,-3.0L2.5,-0.5"/>
                </g>
        </g>
        <svg viewBox="0 0 15 15" width="100%" height="30px" preserveAspectRatio="xMaxYMin meet">
         <g id="arrow_out" transform="scale(0.3 0.3)">
          <a xlink:href="class_adafruit___t_c_s34725_a3c89fe5d4eea1f24f31d1afa9de8f0f3_cgraph_org.svg" target="_base">
           <rect id="button" ry="5" rx="5" y="6" x="6" height="38" width="38"
                fill="#f2f5e9" fill-opacity="0.5" stroke="#606060" stroke-width="1.0"/>
           <path id="arrow"
             d="M 11.500037,31.436501 C 11.940474,20.09759 22.043105,11.32322 32.158766,21.979434 L 37.068811,17.246167 C 37.068811,17.246167 37.088388,32 37.088388,32 L 22.160133,31.978069 C 22.160133,31.978069 26.997745,27.140456 26.997745,27.140456 C 18.528582,18.264221 13.291696,25.230495 11.500037,31.436501 z"
             style="fill:#404040;"/>
          </a>
         </g>
        </svg>
</svg>
