<?xml version="1.0" encoding="UTF-8" standalone="no"?>
<!DOCTYPE svg PUBLIC "-//W3C//DTD SVG 1.1//EN"
 "http://www.w3.org/Graphics/SVG/1.1/DTD/svg11.dtd">
<!-- Generated by graphviz version 2.38.0 (20140413.2041)
 -->
<!-- Title: CoolPubSubClient::readPacket Pages: 1 -->
<svg width="791pt" height="104pt"
 viewBox="0.00 0.00 791.00 104.00" xmlns="http://www.w3.org/2000/svg" xmlns:xlink="http://www.w3.org/1999/xlink">
<g id="graph0" class="graph" transform="scale(1 1) rotate(0) translate(4 100)">
<title>CoolPubSubClient::readPacket</title>
<polygon fill="white" stroke="none" points="-4,4 -4,-100 787,-100 787,4 -4,4"/>
<!-- Node155 -->
<g id="node1" class="node"><title>Node155</title>
<polygon fill="#bfbfbf" stroke="black" points="0,-57.5 0,-76.5 152,-76.5 152,-57.5 0,-57.5"/>
<text text-anchor="middle" x="76" y="-64.5" font-family="Helvetica,sans-Serif" font-size="10.00">CoolPubSubClient::readPacket</text>
</g>
<!-- Node156 -->
<g id="node2" class="node"><title>Node156</title>
<g id="a_node2"><a xlink:href="class_cool_pub_sub_client.html#a7e5a85731dd25d90a41f6d859e61da77" target="_top" xlink:title="CoolPubSubClient::connect">
<polygon fill="white" stroke="black" points="188,-76.5 188,-95.5 325,-95.5 325,-76.5 188,-76.5"/>
<text text-anchor="middle" x="256.5" y="-83.5" font-family="Helvetica,sans-Serif" font-size="10.00">CoolPubSubClient::connect</text>
</a>
</g>
</g>
<!-- Node155&#45;&gt;Node156 -->
<g id="edge1" class="edge"><title>Node155&#45;&gt;Node156</title>
<path fill="none" stroke="midnightblue" d="M162.212,-76.0702C170.792,-76.9834 179.421,-77.902 187.782,-78.7919"/>
<polygon fill="midnightblue" stroke="midnightblue" points="162.497,-72.5808 152.183,-75.0026 161.756,-79.5415 162.497,-72.5808"/>
</g>
<!-- Node157 -->
<g id="node3" class="node"><title>Node157</title>
<g id="a_node3"><a xlink:href="class_cool_pub_sub_client.html#afc15900f0fc4886a19394508e61793b8" target="_top" xlink:title="CoolPubSubClient::loop">
<polygon fill="white" stroke="black" points="196,-38.5 196,-57.5 317,-57.5 317,-38.5 196,-38.5"/>
<text text-anchor="middle" x="256.5" y="-45.5" font-family="Helvetica,sans-Serif" font-size="10.00">CoolPubSubClient::loop</text>
</a>
</g>
</g>
<!-- Node155&#45;&gt;Node157 -->
<g id="edge2" class="edge"><title>Node155&#45;&gt;Node157</title>
<path fill="none" stroke="midnightblue" d="M162.151,-57.9363C173.542,-56.7238 185.023,-55.5018 195.848,-54.3495"/>
<polygon fill="midnightblue" stroke="midnightblue" points="161.756,-54.4585 152.183,-58.9974 162.497,-61.4192 161.756,-54.4585"/>
</g>
<!-- Node158 -->
<g id="node4" class="node"><title>Node158</title>
<g id="a_node4"><a xlink:href="class_cool_m_q_t_t.html#aa5eaae967b562b62cbcf2b8d81f6e5d5" target="_top" xlink:title="CoolMQTT::mqttLoop">
<polygon fill="white" stroke="black" points="361,-38.5 361,-57.5 472,-57.5 472,-38.5 361,-38.5"/>
<text text-anchor="middle" x="416.5" y="-45.5" font-family="Helvetica,sans-Serif" font-size="10.00">CoolMQTT::mqttLoop</text>
</a>
</g>
</g>
<!-- Node157&#45;&gt;Node158 -->
<g id="edge3" class="edge"><title>Node157&#45;&gt;Node158</title>
<path fill="none" stroke="midnightblue" d="M327.432,-48C338.642,-48 350.099,-48 360.883,-48"/>
<polygon fill="midnightblue" stroke="midnightblue" points="327.233,-44.5001 317.233,-48 327.233,-51.5001 327.233,-44.5001"/>
</g>
<!-- Node159 -->
<g id="node5" class="node"><title>Node159</title>
<g id="a_node5"><a xlink:href="class_cool_board.html#aa0bbc4bc605e35618d18e68795c61363" target="_top" xlink:title="CoolBoard::onLineMode">
<polygon fill="white" stroke="black" points="662,-38.5 662,-57.5 783,-57.5 783,-38.5 662,-38.5"/>
<text text-anchor="middle" x="722.5" y="-45.5" font-family="Helvetica,sans-Serif" font-size="10.00">CoolBoard::onLineMode</text>
</a>
</g>
</g>
<!-- Node158&#45;&gt;Node159 -->
<g id="edge4" class="edge"><title>Node158&#45;&gt;Node159</title>
<path fill="none" stroke="midnightblue" d="M464.122,-59.7112C478.133,-62.7085 493.608,-65.5056 508,-67 560.164,-72.4167 573.808,-72.1415 626,-67 644.842,-65.1438 665.477,-61.2751 682.729,-57.5101"/>
<polygon fill="midnightblue" stroke="midnightblue" points="464.735,-56.2622 454.214,-57.5091 463.216,-63.0955 464.735,-56.2622"/>
</g>
<!-- Node160 -->
<g id="node6" class="node"><title>Node160</title>
<g id="a_node6"><a xlink:href="class_cool_board.html#a8612756d3f73198cdde857a66f0fe690" target="_top" xlink:title="CoolBoard::update">
<polygon fill="white" stroke="black" points="518,-38.5 518,-57.5 616,-57.5 616,-38.5 518,-38.5"/>
<text text-anchor="middle" x="567" y="-45.5" font-family="Helvetica,sans-Serif" font-size="10.00">CoolBoard::update</text>
</a>
</g>
</g>
<!-- Node158&#45;&gt;Node160 -->
<g id="edge5" class="edge"><title>Node158&#45;&gt;Node160</title>
<path fill="none" stroke="midnightblue" d="M482.623,-48C494.413,-48 506.513,-48 517.713,-48"/>
<polygon fill="midnightblue" stroke="midnightblue" points="482.374,-44.5001 472.374,-48 482.374,-51.5001 482.374,-44.5001"/>
</g>
<!-- Node161 -->
<g id="node7" class="node"><title>Node161</title>
<g id="a_node7"><a xlink:href="class_cool_board.html#a705398b11560603fcdd1b9e8e95d0027" target="_top" xlink:title="CoolBoard::sendConfig">
<polygon fill="white" stroke="black" points="508,-0.5 508,-19.5 626,-19.5 626,-0.5 508,-0.5"/>
<text text-anchor="middle" x="567" y="-7.5" font-family="Helvetica,sans-Serif" font-size="10.00">CoolBoard::sendConfig</text>
</a>
</g>
</g>
<!-- Node158&#45;&gt;Node161 -->
<g id="edge7" class="edge"><title>Node158&#45;&gt;Node161</title>
<path fill="none" stroke="midnightblue" d="M464.833,-35.8879C485.515,-30.5956 509.419,-24.4787 528.797,-19.5201"/>
<polygon fill="midnightblue" stroke="midnightblue" points="463.793,-32.5411 454.973,-38.411 465.528,-39.3226 463.793,-32.5411"/>
</g>
<!-- Node160&#45;&gt;Node159 -->
<g id="edge6" class="edge"><title>Node160&#45;&gt;Node159</title>
<path fill="none" stroke="midnightblue" d="M626.223,-48C637.901,-48 650.187,-48 661.91,-48"/>
<polygon fill="midnightblue" stroke="midnightblue" points="626.147,-44.5001 616.147,-48 626.147,-51.5001 626.147,-44.5001"/>
</g>
<!-- Node161&#45;&gt;Node159 -->
<g id="edge8" class="edge"><title>Node161&#45;&gt;Node159</title>
<path fill="none" stroke="midnightblue" d="M616.635,-22.04C638.08,-27.3488 662.923,-33.4988 683.044,-38.4799"/>
<polygon fill="midnightblue" stroke="midnightblue" points="617.283,-18.5947 606.735,-19.589 615.6,-25.3896 617.283,-18.5947"/>
</g>
</g>
</svg>
