<?xml version="1.0" encoding="UTF-8" standalone="no"?>
<!DOCTYPE svg PUBLIC "-//W3C//DTD SVG 1.1//EN"
 "http://www.w3.org/Graphics/SVG/1.1/DTD/svg11.dtd">
<!-- Generated by graphviz version 2.38.0 (20140413.2041)
 -->
<!-- Title: Irene3000::begin Pages: 1 -->
<!--zoomable 180 -->
<svg id="main" version="1.1" xmlns="http://www.w3.org/2000/svg" xmlns:xlink="http://www.w3.org/1999/xlink" xml:space="preserve" onload="init(evt)">
<style type="text/css"><![CDATA[
.edge:hover path { stroke: red; }
.edge:hover polygon { stroke: red; fill: red; }
]]></style>
<script type="text/javascript"><![CDATA[
var edges = document.getElementsByTagName('g');
if (edges && edges.length) {
  for (var i=0;i<edges.length;i++) {
    if (edges[i].id.substr(0,4)=='edge') {
      edges[i].setAttribute('class','edge');
    }
  }
}
]]></script>
        <defs>
                <circle id="rim" cx="0" cy="0" r="7"/>
                <circle id="rim2" cx="0" cy="0" r="3.5"/>
                <g id="zoomPlus">
                        <use xlink:href="#rim" fill="#404040">
                                <set attributeName="fill" to="#808080" begin="zoomplus.mouseover" end="zoomplus.mouseout"/>
                        </use>
                        <path d="M-4,0h8M0,-4v8" fill="none" stroke="white" stroke-width="1.5" pointer-events="none"/>
                </g>
                <g id="zoomMin">
                        <use xlink:href="#rim" fill="#404040">
                                <set attributeName="fill" to="#808080" begin="zoomminus.mouseover" end="zoomminus.mouseout"/>
                        </use>
                        <path d="M-4,0h8" fill="none" stroke="white" stroke-width="1.5" pointer-events="none"/>
                </g>
                <g id="dirArrow">
                        <path fill="none" stroke="white" stroke-width="1.5" d="M0,-3.0v7 M-2.5,-0.5L0,-3.0L2.5,-0.5"/>
                </g>
               <g id="resetDef">
                       <use xlink:href="#rim2" fill="#404040">
                               <set attributeName="fill" to="#808080" begin="reset.mouseover" end="reset.mouseout"/>
                       </use>
               </g>
        </defs>

<script type="text/javascript">
var viewWidth = 699;
var viewHeight = 180;
var sectionId = 'dynsection-1';
</script>
<script xlink:href="svgpan.js"/>
<svg id="graph" class="graph">
<g id="viewport">
<title>Irene3000::begin</title>
<polygon fill="white" stroke="none" points="-4,4 -4,-176 695,-176 695,4 -4,4"/>
<!-- Node0 -->
<g id="node1" class="node"><title>Node0</title>
<polygon fill="#bfbfbf" stroke="black" points="0,-76.5 0,-95.5 89,-95.5 89,-76.5 0,-76.5"/>
<text text-anchor="middle" x="44.5" y="-83.5" font-family="Helvetica,sans-Serif" font-size="10.00">Irene3000::begin</text>
</g>
<!-- Node1 -->
<g id="node2" class="node"><title>Node1</title>
<g id="a_node2"><a xlink:href="class_adafruit___a_d_s1015.html#a6eba7c3cd854927f60883bb371e5faa6" target="_top" xlink:title="Sets up the HW (reads coefficients values, etc.) ">
<polygon fill="white" stroke="black" points="125,-152.5 125,-171.5 252,-171.5 252,-152.5 125,-152.5"/>
<text text-anchor="middle" x="188.5" y="-159.5" font-family="Helvetica,sans-Serif" font-size="10.00">Adafruit_ADS1015::begin</text>
</a>
</g>
</g>
<!-- Node0&#45;&gt;Node1 -->
<g id="edge1" class="edge"><title>Node0&#45;&gt;Node1</title>
<path fill="none" stroke="midnightblue" d="M56.3364,-95.5568C70.9853,-108.038 98.3502,-129.844 125,-143 129.586,-145.264 134.495,-147.32 139.472,-149.171"/>
<polygon fill="midnightblue" stroke="midnightblue" points="138.464,-152.525 149.058,-152.478 140.747,-145.908 138.464,-152.525"/>
</g>
<!-- Node2 -->
<g id="node3" class="node"><title>Node2</title>
<g id="a_node3"><a xlink:href="class_irene3000.html#a78a87eb7cf295b95c12b2ebd51c2bb77" target="_top" xlink:title="Irene3000::readButton">
<polygon fill="white" stroke="black" points="132,-114.5 132,-133.5 245,-133.5 245,-114.5 132,-114.5"/>
<text text-anchor="middle" x="188.5" y="-121.5" font-family="Helvetica,sans-Serif" font-size="10.00">Irene3000::readButton</text>
</a>
</g>
</g>
<!-- Node0&#45;&gt;Node2 -->
<g id="edge2" class="edge"><title>Node0&#45;&gt;Node2</title>
<path fill="none" stroke="midnightblue" d="M81.3326,-95.589C99.6634,-100.494 122.178,-106.52 141.75,-111.757"/>
<polygon fill="midnightblue" stroke="midnightblue" points="141.114,-115.21 151.679,-114.414 142.924,-108.448 141.114,-115.21"/>
</g>
<!-- Node10 -->
<g id="node11" class="node"><title>Node10</title>
<g id="a_node11"><a xlink:href="class_irene3000.html#a1d3299202e4cb7afcff9c9e3e95d94c1" target="_top" xlink:title="Irene3000::calibratepH7">
<polygon fill="white" stroke="black" points="128.5,-38.5 128.5,-57.5 248.5,-57.5 248.5,-38.5 128.5,-38.5"/>
<text text-anchor="middle" x="188.5" y="-45.5" font-family="Helvetica,sans-Serif" font-size="10.00">Irene3000::calibratepH7</text>
</a>
</g>
</g>
<!-- Node0&#45;&gt;Node10 -->
<g id="edge11" class="edge"><title>Node0&#45;&gt;Node10</title>
<path fill="none" stroke="midnightblue" d="M81.3326,-76.411C99.6634,-71.5056 122.178,-65.4804 141.75,-60.2429"/>
<polygon fill="midnightblue" stroke="midnightblue" points="142.924,-63.5521 151.679,-57.5859 141.114,-56.7901 142.924,-63.5521"/>
</g>
<!-- Node12 -->
<g id="node13" class="node"><title>Node12</title>
<g id="a_node13"><a xlink:href="class_irene3000.html#aa140dd026922a04981edfd04d46cabbe" target="_top" xlink:title="Irene3000::calibratepH4">
<polygon fill="white" stroke="black" points="128.5,-76.5 128.5,-95.5 248.5,-95.5 248.5,-76.5 128.5,-76.5"/>
<text text-anchor="middle" x="188.5" y="-83.5" font-family="Helvetica,sans-Serif" font-size="10.00">Irene3000::calibratepH4</text>
</a>
</g>
</g>
<!-- Node0&#45;&gt;Node12 -->
<g id="edge15" class="edge"><title>Node0&#45;&gt;Node12</title>
<path fill="none" stroke="midnightblue" d="M89.2634,-86C98.4565,-86 108.368,-86 118.234,-86"/>
<polygon fill="midnightblue" stroke="midnightblue" points="118.468,-89.5001 128.468,-86 118.468,-82.5001 118.468,-89.5001"/>
</g>
<!-- Node13 -->
<g id="node14" class="node"><title>Node13</title>
<g id="a_node14"><a xlink:href="class_irene3000.html#a63dbd38e79b8cd5f1fba4b245501a894" target="_top" xlink:title="Irene3000::saveParams">
<polygon fill="white" stroke="black" points="128.5,-0.5 128.5,-19.5 248.5,-19.5 248.5,-0.5 128.5,-0.5"/>
<text text-anchor="middle" x="188.5" y="-7.5" font-family="Helvetica,sans-Serif" font-size="10.00">Irene3000::saveParams</text>
</a>
</g>
</g>
<!-- Node0&#45;&gt;Node13 -->
<g id="edge19" class="edge"><title>Node0&#45;&gt;Node13</title>
<path fill="none" stroke="midnightblue" d="M56.3364,-76.4432C70.9853,-63.9617 98.3502,-42.1564 125,-29 129.586,-26.7361 134.495,-24.6803 139.472,-22.8294"/>
<polygon fill="midnightblue" stroke="midnightblue" points="140.747,-26.0921 149.058,-19.5219 138.464,-19.4749 140.747,-26.0921"/>
</g>
<!-- Node3 -->
<g id="node4" class="node"><title>Node3</title>
<g id="a_node4"><a xlink:href="class_irene3000.html#aff7c5da186b388e7272e63ff88a20c34" target="_top" xlink:title="Irene3000::setGain">
<polygon fill="white" stroke="black" points="310.5,-73.5 310.5,-92.5 409.5,-92.5 409.5,-73.5 310.5,-73.5"/>
<text text-anchor="middle" x="360" y="-80.5" font-family="Helvetica,sans-Serif" font-size="10.00">Irene3000::setGain</text>
</a>
</g>
</g>
<!-- Node2&#45;&gt;Node3 -->
<g id="edge3" class="edge"><title>Node2&#45;&gt;Node3</title>
<path fill="none" stroke="midnightblue" d="M228.813,-114.491C252.901,-108.664 283.941,-101.156 309.67,-94.9322"/>
<polygon fill="midnightblue" stroke="midnightblue" points="310.71,-98.2817 319.607,-92.5286 309.065,-91.4779 310.71,-98.2817"/>
</g>
<!-- Node5 -->
<g id="node6" class="node"><title>Node5</title>
<g id="a_node6"><a xlink:href="class_adafruit___a_d_s1015.html#a40f38b9e1f3ec397c0670dd632510235" target="_top" xlink:title="Gets a single&#45;ended ADC reading from the specified channel. ">
<polygon fill="white" stroke="black" points="288,-112 288,-142 432,-142 432,-112 288,-112"/>
<text text-anchor="start" x="296" y="-130" font-family="Helvetica,sans-Serif" font-size="10.00">Adafruit_ADS1015::readADC</text>
<text text-anchor="middle" x="360" y="-119" font-family="Helvetica,sans-Serif" font-size="10.00">_SingleEnded</text>
</a>
</g>
</g>
<!-- Node2&#45;&gt;Node5 -->
<g id="edge5" class="edge"><title>Node2&#45;&gt;Node5</title>
<path fill="none" stroke="midnightblue" d="M245.001,-124.982C255.497,-125.168 266.676,-125.366 277.775,-125.562"/>
<polygon fill="midnightblue" stroke="midnightblue" points="277.862,-129.064 287.923,-125.742 277.986,-122.065 277.862,-129.064"/>
</g>
<!-- Node4 -->
<g id="node5" class="node"><title>Node4</title>
<g id="a_node5"><a xlink:href="class_adafruit___a_d_s1015.html#a399441eace686975ff22937cbe45cc50" target="_top" xlink:title="Sets the gain and input voltage range. ">
<polygon fill="white" stroke="black" points="468,-73.5 468,-92.5 605,-92.5 605,-73.5 468,-73.5"/>
<text text-anchor="middle" x="536.5" y="-80.5" font-family="Helvetica,sans-Serif" font-size="10.00">Adafruit_ADS1015::setGain</text>
</a>
</g>
</g>
<!-- Node3&#45;&gt;Node4 -->
<g id="edge4" class="edge"><title>Node3&#45;&gt;Node4</title>
<path fill="none" stroke="midnightblue" d="M409.608,-83C424.557,-83 441.402,-83 457.793,-83"/>
<polygon fill="midnightblue" stroke="midnightblue" points="457.919,-86.5001 467.919,-83 457.919,-79.5001 457.919,-86.5001"/>
</g>
<!-- Node6 -->
<g id="node7" class="node"><title>Node6</title>
<g id="a_node7"><a xlink:href="_cool_adafruit___a_d_s1015_8cpp.html#a00ef55774dfb93dd0a7bf561d8451b71" target="_top" xlink:title="Writes 16&#45;bits to the specified destination register. ">
<polygon fill="white" stroke="black" points="499.5,-152.5 499.5,-171.5 573.5,-171.5 573.5,-152.5 499.5,-152.5"/>
<text text-anchor="middle" x="536.5" y="-159.5" font-family="Helvetica,sans-Serif" font-size="10.00">writeRegister</text>
</a>
</g>
</g>
<!-- Node5&#45;&gt;Node6 -->
<g id="edge6" class="edge"><title>Node5&#45;&gt;Node6</title>
<path fill="none" stroke="midnightblue" d="M432.228,-141.286C451.45,-145.142 471.746,-149.213 489.211,-152.716"/>
<polygon fill="midnightblue" stroke="midnightblue" points="488.643,-156.171 499.136,-154.706 490.02,-149.308 488.643,-156.171"/>
</g>
<!-- Node8 -->
<g id="node9" class="node"><title>Node8</title>
<g id="a_node9"><a xlink:href="_cool_adafruit___a_d_s1015_8cpp.html#a319539381b7551b2f83a92b0b596e97d" target="_top" xlink:title="Writes 16&#45;bits to the specified destination register. ">
<polygon fill="white" stroke="black" points="500.5,-114.5 500.5,-133.5 572.5,-133.5 572.5,-114.5 500.5,-114.5"/>
<text text-anchor="middle" x="536.5" y="-121.5" font-family="Helvetica,sans-Serif" font-size="10.00">readRegister</text>
</a>
</g>
</g>
<!-- Node5&#45;&gt;Node8 -->
<g id="edge8" class="edge"><title>Node5&#45;&gt;Node8</title>
<path fill="none" stroke="midnightblue" d="M432.228,-125.775C451.765,-125.44 472.412,-125.085 490.067,-124.781"/>
<polygon fill="midnightblue" stroke="midnightblue" points="490.147,-128.28 500.085,-124.609 490.027,-121.281 490.147,-128.28"/>
</g>
<!-- Node7 -->
<g id="node8" class="node"><title>Node7</title>
<g id="a_node8"><a xlink:href="_cool_adafruit___a_d_s1015_8cpp.html#a6db5edba66e20bba6d5b421c2789af54" target="_top" xlink:title="Abstract away platform differences in Arduino wire library. ">
<polygon fill="white" stroke="black" points="641,-152.5 641,-171.5 691,-171.5 691,-152.5 641,-152.5"/>
<text text-anchor="middle" x="666" y="-159.5" font-family="Helvetica,sans-Serif" font-size="10.00">i2cwrite</text>
</a>
</g>
</g>
<!-- Node6&#45;&gt;Node7 -->
<g id="edge7" class="edge"><title>Node6&#45;&gt;Node7</title>
<path fill="none" stroke="midnightblue" d="M573.695,-162C591.498,-162 612.851,-162 630.43,-162"/>
<polygon fill="midnightblue" stroke="midnightblue" points="630.821,-165.5 640.821,-162 630.821,-158.5 630.821,-165.5"/>
</g>
<!-- Node8&#45;&gt;Node7 -->
<g id="edge9" class="edge"><title>Node8&#45;&gt;Node7</title>
<path fill="none" stroke="midnightblue" d="M572.248,-133.549C582.788,-136.508 594.386,-139.826 605,-143 613.502,-145.542 622.649,-148.384 631.176,-151.079"/>
<polygon fill="midnightblue" stroke="midnightblue" points="630.234,-154.452 640.824,-154.149 632.356,-147.781 630.234,-154.452"/>
</g>
<!-- Node9 -->
<g id="node10" class="node"><title>Node9</title>
<g id="a_node10"><a xlink:href="_cool_adafruit___a_d_s1015_8cpp.html#af89e2442d757f6ec8100c473022f6701" target="_top" xlink:title="Abstract away platform differences in Arduino wire library. ">
<polygon fill="white" stroke="black" points="642,-114.5 642,-133.5 690,-133.5 690,-114.5 642,-114.5"/>
<text text-anchor="middle" x="666" y="-121.5" font-family="Helvetica,sans-Serif" font-size="10.00">i2cread</text>
</a>
</g>
</g>
<!-- Node8&#45;&gt;Node9 -->
<g id="edge10" class="edge"><title>Node8&#45;&gt;Node9</title>
<path fill="none" stroke="midnightblue" d="M572.677,-124C591.162,-124 613.688,-124 631.862,-124"/>
<polygon fill="midnightblue" stroke="midnightblue" points="631.996,-127.5 641.996,-124 631.996,-120.5 631.996,-127.5"/>
</g>
<!-- Node10&#45;&gt;Node3 -->
<g id="edge12" class="edge"><title>Node10&#45;&gt;Node3</title>
<path fill="none" stroke="midnightblue" d="M235.817,-57.5639C256.463,-61.8273 280.971,-66.8879 302.669,-71.3682"/>
<polygon fill="midnightblue" stroke="midnightblue" points="302.238,-74.853 312.739,-73.4477 303.654,-67.9977 302.238,-74.853"/>
</g>
<!-- Node10&#45;&gt;Node5 -->
<g id="edge13" class="edge"><title>Node10&#45;&gt;Node5</title>
<path fill="none" stroke="midnightblue" d="M231.027,-57.5751C238.278,-60.0895 245.554,-63.1953 252,-67 271.217,-78.3431 269.033,-90.2423 288,-102 291.341,-104.071 294.877,-106 298.516,-107.793"/>
<polygon fill="midnightblue" stroke="midnightblue" points="297.169,-111.025 307.721,-111.97 300.061,-104.651 297.169,-111.025"/>
</g>
<!-- Node11 -->
<g id="node12" class="node"><title>Node11</title>
<g id="a_node12"><a xlink:href="class_irene3000.html#a81f6a79e546679692053f7ac1af49613" target="_top" xlink:title="Irene3000::calcpHSlope">
<polygon fill="white" stroke="black" points="299.5,-35.5 299.5,-54.5 420.5,-54.5 420.5,-35.5 299.5,-35.5"/>
<text text-anchor="middle" x="360" y="-42.5" font-family="Helvetica,sans-Serif" font-size="10.00">Irene3000::calcpHSlope</text>
</a>
</g>
</g>
<!-- Node10&#45;&gt;Node11 -->
<g id="edge14" class="edge"><title>Node10&#45;&gt;Node11</title>
<path fill="none" stroke="midnightblue" d="M248.783,-46.9507C261.868,-46.7192 275.846,-46.4718 289.3,-46.2336"/>
<polygon fill="midnightblue" stroke="midnightblue" points="289.528,-49.7302 299.464,-46.0537 289.404,-42.7313 289.528,-49.7302"/>
</g>
<!-- Node12&#45;&gt;Node3 -->
<g id="edge16" class="edge"><title>Node12&#45;&gt;Node3</title>
<path fill="none" stroke="midnightblue" d="M248.783,-84.9507C265.464,-84.6555 283.597,-84.3346 300.247,-84.0399"/>
<polygon fill="midnightblue" stroke="midnightblue" points="300.46,-87.5368 310.396,-83.8602 300.336,-80.5379 300.46,-87.5368"/>
</g>
<!-- Node12&#45;&gt;Node5 -->
<g id="edge17" class="edge"><title>Node12&#45;&gt;Node5</title>
<path fill="none" stroke="midnightblue" d="M228.813,-95.5093C246.047,-99.6781 266.841,-104.708 286.702,-109.512"/>
<polygon fill="midnightblue" stroke="midnightblue" points="286.124,-112.973 296.667,-111.922 287.77,-106.169 286.124,-112.973"/>
</g>
<!-- Node12&#45;&gt;Node11 -->
<g id="edge18" class="edge"><title>Node12&#45;&gt;Node11</title>
<path fill="none" stroke="midnightblue" d="M228.813,-76.4907C252.901,-70.6642 283.941,-63.1558 309.67,-56.9322"/>
<polygon fill="midnightblue" stroke="midnightblue" points="310.71,-60.2817 319.607,-54.5286 309.065,-53.4779 310.71,-60.2817"/>
</g>
</g>
</svg>
        <g id="navigator" transform="translate(0 0)" fill="#404254">
                <rect fill="#f2f5e9" fill-opacity="0.5" stroke="#606060" stroke-width=".5" x="0" y="0" width="60" height="60"/>
                <use id="zoomplus" xlink:href="#zoomPlus" x="17" y="9" onmousedown="handleZoom(evt,'in')"/>
                <use id="zoomminus" xlink:href="#zoomMin" x="42" y="9" onmousedown="handleZoom(evt,'out')"/>
                <use id="reset" xlink:href="#resetDef" x="30" y="36" onmousedown="handleReset()"/>
                <g id="arrowUp" xlink:href="#dirArrow" transform="translate(30 24)" onmousedown="handlePan(0,-1)">
                  <use xlink:href="#rim" fill="#404040">
                        <set attributeName="fill" to="#808080" begin="arrowUp.mouseover" end="arrowUp.mouseout"/>
                  </use>
                  <path fill="none" stroke="white" stroke-width="1.5" d="M0,-3.0v7 M-2.5,-0.5L0,-3.0L2.5,-0.5"/>
                </g>
                <g id="arrowRight" xlink:href="#dirArrow" transform="rotate(90) translate(36 -43)" onmousedown="handlePan(1,0)">
                  <use xlink:href="#rim" fill="#404040">
                        <set attributeName="fill" to="#808080" begin="arrowRight.mouseover" end="arrowRight.mouseout"/>
                  </use>
                  <path fill="none" stroke="white" stroke-width="1.5" d="M0,-3.0v7 M-2.5,-0.5L0,-3.0L2.5,-0.5"/>
                </g>
                <g id="arrowDown" xlink:href="#dirArrow" transform="rotate(180) translate(-30 -48)" onmousedown="handlePan(0,1)">
                  <use xlink:href="#rim" fill="#404040">
                        <set attributeName="fill" to="#808080" begin="arrowDown.mouseover" end="arrowDown.mouseout"/>
                  </use>
                  <path fill="none" stroke="white" stroke-width="1.5" d="M0,-3.0v7 M-2.5,-0.5L0,-3.0L2.5,-0.5"/>
                </g>
                <g id="arrowLeft" xlink:href="#dirArrow" transform="rotate(270) translate(-36 17)" onmousedown="handlePan(-1,0)">
                  <use xlink:href="#rim" fill="#404040">
                        <set attributeName="fill" to="#808080" begin="arrowLeft.mouseover" end="arrowLeft.mouseout"/>
                  </use>
                  <path fill="none" stroke="white" stroke-width="1.5" d="M0,-3.0v7 M-2.5,-0.5L0,-3.0L2.5,-0.5"/>
                </g>
        </g>
        <svg viewBox="0 0 15 15" width="100%" height="30px" preserveAspectRatio="xMaxYMin meet">
         <g id="arrow_out" transform="scale(0.3 0.3)">
          <a xlink:href="class_irene3000_ad5891806c500ae1007afe52b9e304c2b_cgraph_org.svg" target="_base">
           <rect id="button" ry="5" rx="5" y="6" x="6" height="38" width="38"
                fill="#f2f5e9" fill-opacity="0.5" stroke="#606060" stroke-width="1.0"/>
           <path id="arrow"
             d="M 11.500037,31.436501 C 11.940474,20.09759 22.043105,11.32322 32.158766,21.979434 L 37.068811,17.246167 C 37.068811,17.246167 37.088388,32 37.088388,32 L 22.160133,31.978069 C 22.160133,31.978069 26.997745,27.140456 26.997745,27.140456 C 18.528582,18.264221 13.291696,25.230495 11.500037,31.436501 z"
             style="fill:#404040;"/>
          </a>
         </g>
        </svg>
</svg>
