<?xml version="1.0" encoding="UTF-8" standalone="no"?>
<!DOCTYPE svg PUBLIC "-//W3C//DTD SVG 1.1//EN"
 "http://www.w3.org/Graphics/SVG/1.1/DTD/svg11.dtd">
<!-- Generated by graphviz version 2.38.0 (20140413.2041)
 -->
<!-- Title: CoolFileSystem::incrementsavedData Pages: 1 -->
<svg width="549pt" height="78pt"
 viewBox="0.00 0.00 549.00 77.50" xmlns="http://www.w3.org/2000/svg" xmlns:xlink="http://www.w3.org/1999/xlink">
<g id="graph0" class="graph" transform="scale(1 1) rotate(0) translate(4 73.5)">
<title>CoolFileSystem::incrementsavedData</title>
<polygon fill="white" stroke="none" points="-4,4 -4,-73.5 545,-73.5 545,4 -4,4"/>
<!-- Node18 -->
<g id="node1" class="node"><title>Node18</title>
<polygon fill="#bfbfbf" stroke="black" points="0,-28 0,-47 182,-47 182,-28 0,-28"/>
<text text-anchor="middle" x="91" y="-35" font-family="Helvetica,sans-Serif" font-size="10.00">CoolFileSystem::incrementsavedData</text>
</g>
<!-- Node19 -->
<g id="node2" class="node"><title>Node19</title>
<g id="a_node2"><a xlink:href="class_cool_file_system.html#afa3a4feae94871d4d3b6bebb701c2e67" target="_top" xlink:title="CoolFileSystem::saveSensorData">
<polygon fill="white" stroke="black" points="218,-50 218,-69 383,-69 383,-50 218,-50"/>
<text text-anchor="middle" x="300.5" y="-57" font-family="Helvetica,sans-Serif" font-size="10.00">CoolFileSystem::saveSensorData</text>
</a>
</g>
</g>
<!-- Node18&#45;&gt;Node19 -->
<g id="edge1" class="edge"><title>Node18&#45;&gt;Node19</title>
<path fill="none" stroke="midnightblue" d="M191.924,-48.0944C200.57,-49.011 209.251,-49.9314 217.727,-50.8301"/>
<polygon fill="midnightblue" stroke="midnightblue" points="192.119,-44.5955 181.806,-47.0216 191.381,-51.5565 192.119,-44.5955"/>
</g>
<!-- Node21 -->
<g id="node4" class="node"><title>Node21</title>
<g id="a_node4"><a xlink:href="class_cool_file_system.html#a3223ffff4266a6300988fab956d6b4b2" target="_top" xlink:title="CoolFileSystem::getSensor\lSavedData">
<polygon fill="white" stroke="black" points="232,-0.5 232,-30.5 369,-30.5 369,-0.5 232,-0.5"/>
<text text-anchor="start" x="240" y="-18.5" font-family="Helvetica,sans-Serif" font-size="10.00">CoolFileSystem::getSensor</text>
<text text-anchor="middle" x="300.5" y="-7.5" font-family="Helvetica,sans-Serif" font-size="10.00">SavedData</text>
</a>
</g>
</g>
<!-- Node18&#45;&gt;Node21 -->
<g id="edge3" class="edge"><title>Node18&#45;&gt;Node21</title>
<path fill="none" stroke="midnightblue" d="M192.064,-26.8908C205.519,-25.4642 219.057,-24.0289 231.771,-22.6809"/>
<polygon fill="midnightblue" stroke="midnightblue" points="191.381,-23.4435 181.806,-27.9784 192.119,-30.4045 191.381,-23.4435"/>
</g>
<!-- Node20 -->
<g id="node3" class="node"><title>Node20</title>
<g id="a_node3"><a xlink:href="class_cool_board.html#ae6b5e1274d760462290192acea4adca8" target="_top" xlink:title="CoolBoard::offLineMode">
<polygon fill="white" stroke="black" points="419,-50 419,-69 541,-69 541,-50 419,-50"/>
<text text-anchor="middle" x="480" y="-57" font-family="Helvetica,sans-Serif" font-size="10.00">CoolBoard::offLineMode</text>
</a>
</g>
</g>
<!-- Node19&#45;&gt;Node20 -->
<g id="edge2" class="edge"><title>Node19&#45;&gt;Node20</title>
<path fill="none" stroke="midnightblue" d="M393.391,-59.5C402.043,-59.5 410.654,-59.5 418.897,-59.5"/>
<polygon fill="midnightblue" stroke="midnightblue" points="393.236,-56.0001 383.236,-59.5 393.236,-63.0001 393.236,-56.0001"/>
</g>
<!-- Node22 -->
<g id="node5" class="node"><title>Node22</title>
<g id="a_node5"><a xlink:href="class_cool_board.html#aa0bbc4bc605e35618d18e68795c61363" target="_top" xlink:title="CoolBoard::onLineMode">
<polygon fill="white" stroke="black" points="419.5,-6 419.5,-25 540.5,-25 540.5,-6 419.5,-6"/>
<text text-anchor="middle" x="480" y="-13" font-family="Helvetica,sans-Serif" font-size="10.00">CoolBoard::onLineMode</text>
</a>
</g>
</g>
<!-- Node21&#45;&gt;Node22 -->
<g id="edge4" class="edge"><title>Node21&#45;&gt;Node22</title>
<path fill="none" stroke="midnightblue" d="M379.309,-15.5C392.759,-15.5 406.548,-15.5 419.418,-15.5"/>
<polygon fill="midnightblue" stroke="midnightblue" points="379.112,-12.0001 369.111,-15.5 379.111,-19.0001 379.112,-12.0001"/>
</g>
</g>
</svg>
