<?xml version="1.0" encoding="UTF-8" standalone="no"?>
<!DOCTYPE svg PUBLIC "-//W3C//DTD SVG 1.1//EN"
 "http://www.w3.org/Graphics/SVG/1.1/DTD/svg11.dtd">
<!-- Generated by graphviz version 2.38.0 (20140413.2041)
 -->
<!-- Title: CoolSI114X::WriteByte Pages: 1 -->
<svg width="921pt" height="161pt"
 viewBox="0.00 0.00 921.00 161.00" xmlns="http://www.w3.org/2000/svg" xmlns:xlink="http://www.w3.org/1999/xlink">
<g id="graph0" class="graph" transform="scale(1 1) rotate(0) translate(4 157)">
<title>CoolSI114X::WriteByte</title>
<polygon fill="white" stroke="none" points="-4,4 -4,-157 917,-157 917,4 -4,4"/>
<!-- Node84 -->
<g id="node1" class="node"><title>Node84</title>
<polygon fill="#bfbfbf" stroke="black" points="0,-76.5 0,-95.5 119,-95.5 119,-76.5 0,-76.5"/>
<text text-anchor="middle" x="59.5" y="-83.5" font-family="Helvetica,sans-Serif" font-size="10.00">CoolSI114X::WriteByte</text>
</g>
<!-- Node85 -->
<g id="node2" class="node"><title>Node85</title>
<g id="a_node2"><a xlink:href="class_cool_s_i114_x.html#a6840abd53a2e3d71a6bb918077c6d6e6" target="_top" xlink:title="CoolSI114X::DeInit">
<polygon fill="white" stroke="black" points="350,-95.5 350,-114.5 451,-114.5 451,-95.5 350,-95.5"/>
<text text-anchor="middle" x="400.5" y="-102.5" font-family="Helvetica,sans-Serif" font-size="10.00">CoolSI114X::DeInit</text>
</a>
</g>
</g>
<!-- Node84&#45;&gt;Node85 -->
<g id="edge1" class="edge"><title>Node84&#45;&gt;Node85</title>
<path fill="none" stroke="midnightblue" d="M129.384,-89.8608C194.818,-93.5282 291.606,-98.9528 349.815,-102.215"/>
<polygon fill="midnightblue" stroke="midnightblue" points="129.342,-86.353 119.162,-89.2879 128.951,-93.3421 129.342,-86.353"/>
</g>
<!-- Node90 -->
<g id="node7" class="node"><title>Node90</title>
<g id="a_node7"><a xlink:href="class_cool_s_i114_x.html#a9d9f9c9129c0c29ed497f8563f3dd823" target="_top" xlink:title="CoolSI114X::Reset">
<polygon fill="white" stroke="black" points="350,-133.5 350,-152.5 451,-152.5 451,-133.5 350,-133.5"/>
<text text-anchor="middle" x="400.5" y="-140.5" font-family="Helvetica,sans-Serif" font-size="10.00">CoolSI114X::Reset</text>
</a>
</g>
</g>
<!-- Node84&#45;&gt;Node90 -->
<g id="edge6" class="edge"><title>Node84&#45;&gt;Node90</title>
<path fill="none" stroke="midnightblue" d="M104.457,-98.2772C120.299,-102.406 138.369,-106.777 155,-110 221.86,-122.958 299.985,-132.55 349.59,-137.958"/>
<polygon fill="midnightblue" stroke="midnightblue" points="104.969,-94.792 94.4056,-95.6135 103.175,-101.558 104.969,-94.792"/>
</g>
<!-- Node91 -->
<g id="node8" class="node"><title>Node91</title>
<g id="a_node8"><a xlink:href="class_cool_s_i114_x.html#a33cf431103c722442f6a0cc93848d640" target="_top" xlink:title="CoolSI114X::ReadParamData">
<polygon fill="white" stroke="black" points="155,-57.5 155,-76.5 303,-76.5 303,-57.5 155,-57.5"/>
<text text-anchor="middle" x="229" y="-64.5" font-family="Helvetica,sans-Serif" font-size="10.00">CoolSI114X::ReadParamData</text>
</a>
</g>
</g>
<!-- Node84&#45;&gt;Node91 -->
<g id="edge8" class="edge"><title>Node84&#45;&gt;Node91</title>
<path fill="none" stroke="midnightblue" d="M129.216,-78.2054C137.627,-77.2513 146.247,-76.2734 154.722,-75.3121"/>
<polygon fill="midnightblue" stroke="midnightblue" points="128.625,-74.7498 119.083,-79.3547 129.414,-81.7052 128.625,-74.7498"/>
</g>
<!-- Node92 -->
<g id="node9" class="node"><title>Node92</title>
<g id="a_node9"><a xlink:href="class_cool_s_i114_x.html#abf45eb10a6de1be16e68a51624fa2608" target="_top" xlink:title="CoolSI114X::WriteParamData">
<polygon fill="white" stroke="black" points="155,-19.5 155,-38.5 303,-38.5 303,-19.5 155,-19.5"/>
<text text-anchor="middle" x="229" y="-26.5" font-family="Helvetica,sans-Serif" font-size="10.00">CoolSI114X::WriteParamData</text>
</a>
</g>
</g>
<!-- Node84&#45;&gt;Node92 -->
<g id="edge9" class="edge"><title>Node84&#45;&gt;Node92</title>
<path fill="none" stroke="midnightblue" d="M91.2678,-72.468C109.567,-64.7126 133.362,-55.134 155,-48 165.447,-44.5555 176.898,-41.3258 187.569,-38.5408"/>
<polygon fill="midnightblue" stroke="midnightblue" points="89.7916,-69.2927 81.978,-76.4481 92.5483,-75.727 89.7916,-69.2927"/>
</g>
<!-- Node86 -->
<g id="node3" class="node"><title>Node86</title>
<g id="a_node3"><a xlink:href="class_cool_board_sensors.html#a4902b69f6e628bd6557193758fdd2bae" target="_top" xlink:title="CoolBoardSensors::end">
<polygon fill="white" stroke="black" points="499.5,-95.5 499.5,-114.5 619.5,-114.5 619.5,-95.5 499.5,-95.5"/>
<text text-anchor="middle" x="559.5" y="-102.5" font-family="Helvetica,sans-Serif" font-size="10.00">CoolBoardSensors::end</text>
</a>
</g>
</g>
<!-- Node85&#45;&gt;Node86 -->
<g id="edge2" class="edge"><title>Node85&#45;&gt;Node86</title>
<path fill="none" stroke="midnightblue" d="M461.411,-105C473.816,-105 486.877,-105 499.257,-105"/>
<polygon fill="midnightblue" stroke="midnightblue" points="461.176,-101.5 451.176,-105 461.176,-108.5 461.176,-101.5"/>
</g>
<!-- Node87 -->
<g id="node4" class="node"><title>Node87</title>
<g id="a_node4"><a xlink:href="class_cool_s_i114_x.html#a206b36aca7049f63be1d11088c30a09f" target="_top" xlink:title="CoolSI114X::Begin">
<polygon fill="white" stroke="black" points="509.5,-133.5 509.5,-152.5 609.5,-152.5 609.5,-133.5 509.5,-133.5"/>
<text text-anchor="middle" x="559.5" y="-140.5" font-family="Helvetica,sans-Serif" font-size="10.00">CoolSI114X::Begin</text>
</a>
</g>
</g>
<!-- Node85&#45;&gt;Node87 -->
<g id="edge3" class="edge"><title>Node85&#45;&gt;Node87</title>
<path fill="none" stroke="midnightblue" d="M450.947,-116.968C472.948,-122.293 498.494,-128.476 519.167,-133.48"/>
<polygon fill="midnightblue" stroke="midnightblue" points="451.66,-113.54 441.118,-114.589 450.014,-120.343 451.66,-113.54"/>
</g>
<!-- Node88 -->
<g id="node5" class="node"><title>Node88</title>
<g id="a_node5"><a xlink:href="class_cool_board_sensors.html#a97095823ef7c8f5290812f1405b966b3" target="_top" xlink:title="CoolBoardSensors::begin">
<polygon fill="white" stroke="black" points="657,-133.5 657,-152.5 785,-152.5 785,-133.5 657,-133.5"/>
<text text-anchor="middle" x="721" y="-140.5" font-family="Helvetica,sans-Serif" font-size="10.00">CoolBoardSensors::begin</text>
</a>
</g>
</g>
<!-- Node87&#45;&gt;Node88 -->
<g id="edge4" class="edge"><title>Node87&#45;&gt;Node88</title>
<path fill="none" stroke="midnightblue" d="M619.663,-143C631.798,-143 644.615,-143 656.884,-143"/>
<polygon fill="midnightblue" stroke="midnightblue" points="619.657,-139.5 609.657,-143 619.657,-146.5 619.657,-139.5"/>
</g>
<!-- Node89 -->
<g id="node6" class="node"><title>Node89</title>
<g id="a_node6"><a xlink:href="class_cool_board.html#acba7c5aef7268b2c0044bdb54d3b9d76" target="_top" xlink:title="CoolBoard::begin">
<polygon fill="white" stroke="black" points="821,-133.5 821,-152.5 913,-152.5 913,-133.5 821,-133.5"/>
<text text-anchor="middle" x="867" y="-140.5" font-family="Helvetica,sans-Serif" font-size="10.00">CoolBoard::begin</text>
</a>
</g>
</g>
<!-- Node88&#45;&gt;Node89 -->
<g id="edge5" class="edge"><title>Node88&#45;&gt;Node89</title>
<path fill="none" stroke="midnightblue" d="M795.283,-143C803.922,-143 812.536,-143 820.627,-143"/>
<polygon fill="midnightblue" stroke="midnightblue" points="795.161,-139.5 785.16,-143 795.16,-146.5 795.161,-139.5"/>
</g>
<!-- Node90&#45;&gt;Node87 -->
<g id="edge7" class="edge"><title>Node90&#45;&gt;Node87</title>
<path fill="none" stroke="midnightblue" d="M461.414,-143C477.273,-143 494.206,-143 509.416,-143"/>
<polygon fill="midnightblue" stroke="midnightblue" points="461.176,-139.5 451.176,-143 461.176,-146.5 461.176,-139.5"/>
</g>
<!-- Node92&#45;&gt;Node85 -->
<g id="edge14" class="edge"><title>Node92&#45;&gt;Node85</title>
<path fill="none" stroke="midnightblue" d="M284.549,-41.3984C290.857,-43.359 297.128,-45.5582 303,-48 334.441,-61.0742 367.991,-82.9097 386.074,-95.4185"/>
<polygon fill="midnightblue" stroke="midnightblue" points="285.239,-37.9539 274.659,-38.5131 283.279,-44.6738 285.239,-37.9539"/>
</g>
<!-- Node93 -->
<g id="node10" class="node"><title>Node93</title>
<g id="a_node10"><a xlink:href="class_cool_board_sensors.html#a91badb2539d91fda8679f2a597874c48" target="_top" xlink:title="CoolBoardSensors::read">
<polygon fill="white" stroke="black" points="339,-19.5 339,-38.5 462,-38.5 462,-19.5 339,-19.5"/>
<text text-anchor="middle" x="400.5" y="-26.5" font-family="Helvetica,sans-Serif" font-size="10.00">CoolBoardSensors::read</text>
</a>
</g>
</g>
<!-- Node92&#45;&gt;Node93 -->
<g id="edge10" class="edge"><title>Node92&#45;&gt;Node93</title>
<path fill="none" stroke="midnightblue" d="M313.375,-29C321.931,-29 330.507,-29 338.752,-29"/>
<polygon fill="midnightblue" stroke="midnightblue" points="313.359,-25.5001 303.359,-29 313.359,-32.5001 313.359,-25.5001"/>
</g>
<!-- Node94 -->
<g id="node11" class="node"><title>Node94</title>
<g id="a_node11"><a xlink:href="class_cool_board.html#ad03abdce2e65f520bbf2cff0f2d083cf" target="_top" xlink:title="CoolBoard::readSensors">
<polygon fill="white" stroke="black" points="498,-19.5 498,-38.5 621,-38.5 621,-19.5 498,-19.5"/>
<text text-anchor="middle" x="559.5" y="-26.5" font-family="Helvetica,sans-Serif" font-size="10.00">CoolBoard::readSensors</text>
</a>
</g>
</g>
<!-- Node93&#45;&gt;Node94 -->
<g id="edge11" class="edge"><title>Node93&#45;&gt;Node94</title>
<path fill="none" stroke="midnightblue" d="M472.21,-29C480.807,-29 489.53,-29 497.961,-29"/>
<polygon fill="midnightblue" stroke="midnightblue" points="472.2,-25.5001 462.2,-29 472.2,-32.5001 472.2,-25.5001"/>
</g>
<!-- Node95 -->
<g id="node12" class="node"><title>Node95</title>
<g id="a_node12"><a xlink:href="class_cool_board.html#aa0bbc4bc605e35618d18e68795c61363" target="_top" xlink:title="CoolBoard::onLineMode">
<polygon fill="white" stroke="black" points="660.5,-0.5 660.5,-19.5 781.5,-19.5 781.5,-0.5 660.5,-0.5"/>
<text text-anchor="middle" x="721" y="-7.5" font-family="Helvetica,sans-Serif" font-size="10.00">CoolBoard::onLineMode</text>
</a>
</g>
</g>
<!-- Node94&#45;&gt;Node95 -->
<g id="edge12" class="edge"><title>Node94&#45;&gt;Node95</title>
<path fill="none" stroke="midnightblue" d="M631.311,-20.5648C641.047,-19.4051 650.963,-18.2239 660.468,-17.0916"/>
<polygon fill="midnightblue" stroke="midnightblue" points="630.771,-17.1043 621.255,-21.7627 631.599,-24.0552 630.771,-17.1043"/>
</g>
<!-- Node96 -->
<g id="node13" class="node"><title>Node96</title>
<g id="a_node13"><a xlink:href="class_cool_board.html#ae6b5e1274d760462290192acea4adca8" target="_top" xlink:title="CoolBoard::offLineMode">
<polygon fill="white" stroke="black" points="660,-38.5 660,-57.5 782,-57.5 782,-38.5 660,-38.5"/>
<text text-anchor="middle" x="721" y="-45.5" font-family="Helvetica,sans-Serif" font-size="10.00">CoolBoard::offLineMode</text>
</a>
</g>
</g>
<!-- Node94&#45;&gt;Node96 -->
<g id="edge13" class="edge"><title>Node94&#45;&gt;Node96</title>
<path fill="none" stroke="midnightblue" d="M631.475,-37.4547C640.979,-38.5868 650.65,-39.7389 659.941,-40.8457"/>
<polygon fill="midnightblue" stroke="midnightblue" points="631.599,-33.9448 621.255,-36.2373 630.771,-40.8957 631.599,-33.9448"/>
</g>
</g>
</svg>
