<?xml version="1.0" encoding="UTF-8" standalone="no"?>
<!DOCTYPE svg PUBLIC "-//W3C//DTD SVG 1.1//EN"
 "http://www.w3.org/Graphics/SVG/1.1/DTD/svg11.dtd">
<!-- Generated by graphviz version 2.38.0 (20140413.2041)
 -->
<!-- Title: CoolBoardSensors::begin Pages: 1 -->
<svg width="800pt" height="224pt"
 viewBox="0.00 0.00 800.00 224.00" xmlns="http://www.w3.org/2000/svg" xmlns:xlink="http://www.w3.org/1999/xlink">
<g id="graph0" class="graph" transform="scale(1 1) rotate(0) translate(4 220)">
<title>CoolBoardSensors::begin</title>
<polygon fill="white" stroke="none" points="-4,4 -4,-220 796,-220 796,4 -4,4"/>
<!-- Node4 -->
<g id="node1" class="node"><title>Node4</title>
<polygon fill="#bfbfbf" stroke="black" points="0,-79.5 0,-98.5 128,-98.5 128,-79.5 0,-79.5"/>
<text text-anchor="middle" x="64" y="-86.5" font-family="Helvetica,sans-Serif" font-size="10.00">CoolBoardSensors::begin</text>
</g>
<!-- Node5 -->
<g id="node2" class="node"><title>Node5</title>
<g id="a_node2"><a xlink:href="class_cool_s_i114_x.html#a206b36aca7049f63be1d11088c30a09f" target="_top" xlink:title="CoolSI114X::Begin">
<polygon fill="white" stroke="black" points="181.5,-123.5 181.5,-142.5 281.5,-142.5 281.5,-123.5 181.5,-123.5"/>
<text text-anchor="middle" x="231.5" y="-130.5" font-family="Helvetica,sans-Serif" font-size="10.00">CoolSI114X::Begin</text>
</a>
</g>
</g>
<!-- Node4&#45;&gt;Node5 -->
<g id="edge1" class="edge"><title>Node4&#45;&gt;Node5</title>
<path fill="none" stroke="midnightblue" d="M100.911,-98.5473C125.526,-105.092 158.386,-113.828 184.857,-120.865"/>
<polygon fill="midnightblue" stroke="midnightblue" points="184.095,-124.284 194.659,-123.471 185.894,-117.519 184.095,-124.284"/>
</g>
<!-- Node11 -->
<g id="node8" class="node"><title>Node11</title>
<g id="a_node8"><a xlink:href="class_cool_board_sensors.html#a406307ffd70272282d91479c7ed8d66f" target="_top" xlink:title="CoolBoardSensors::setEnv\lSensorSettings">
<polygon fill="white" stroke="black" points="164,-74 164,-104 299,-104 299,-74 164,-74"/>
<text text-anchor="start" x="172" y="-92" font-family="Helvetica,sans-Serif" font-size="10.00">CoolBoardSensors::setEnv</text>
<text text-anchor="middle" x="231.5" y="-81" font-family="Helvetica,sans-Serif" font-size="10.00">SensorSettings</text>
</a>
</g>
</g>
<!-- Node4&#45;&gt;Node11 -->
<g id="edge10" class="edge"><title>Node4&#45;&gt;Node11</title>
<path fill="none" stroke="midnightblue" d="M128.041,-89C136.445,-89 145.137,-89 153.742,-89"/>
<polygon fill="midnightblue" stroke="midnightblue" points="153.781,-92.5001 163.781,-89 153.781,-85.5001 153.781,-92.5001"/>
</g>
<!-- Node12 -->
<g id="node9" class="node"><title>Node12</title>
<g id="a_node9"><a xlink:href="class_b_m_e280.html#a994c102f010547f9c740a338ef9905c7" target="_top" xlink:title="BME280::begin">
<polygon fill="white" stroke="black" points="190,-35.5 190,-54.5 273,-54.5 273,-35.5 190,-35.5"/>
<text text-anchor="middle" x="231.5" y="-42.5" font-family="Helvetica,sans-Serif" font-size="10.00">BME280::begin</text>
</a>
</g>
</g>
<!-- Node4&#45;&gt;Node12 -->
<g id="edge11" class="edge"><title>Node4&#45;&gt;Node12</title>
<path fill="none" stroke="midnightblue" d="M100.911,-79.4527C125.526,-72.9084 158.386,-64.1722 184.857,-57.1346"/>
<polygon fill="midnightblue" stroke="midnightblue" points="185.894,-60.4806 194.659,-54.5287 184.095,-53.7156 185.894,-60.4806"/>
</g>
<!-- Node6 -->
<g id="node3" class="node"><title>Node6</title>
<g id="a_node3"><a xlink:href="class_cool_s_i114_x.html#acc20f8037e156ec4aadcbe90780b1e8b" target="_top" xlink:title="CoolSI114X::ReadByte">
<polygon fill="white" stroke="black" points="673,-101.5 673,-120.5 792,-120.5 792,-101.5 673,-101.5"/>
<text text-anchor="middle" x="732.5" y="-108.5" font-family="Helvetica,sans-Serif" font-size="10.00">CoolSI114X::ReadByte</text>
</a>
</g>
</g>
<!-- Node5&#45;&gt;Node6 -->
<g id="edge2" class="edge"><title>Node5&#45;&gt;Node6</title>
<path fill="none" stroke="midnightblue" d="M275.163,-123.475C293.484,-119.806 315.194,-116.015 335,-114 449.372,-102.365 583.258,-104.633 662.526,-107.617"/>
<polygon fill="midnightblue" stroke="midnightblue" points="662.736,-111.128 672.865,-108.022 663.01,-104.133 662.736,-111.128"/>
</g>
<!-- Node7 -->
<g id="node4" class="node"><title>Node7</title>
<g id="a_node4"><a xlink:href="class_cool_s_i114_x.html#a9d9f9c9129c0c29ed497f8563f3dd823" target="_top" xlink:title="CoolSI114X::Reset">
<polygon fill="white" stroke="black" points="512.5,-196.5 512.5,-215.5 613.5,-215.5 613.5,-196.5 512.5,-196.5"/>
<text text-anchor="middle" x="563" y="-203.5" font-family="Helvetica,sans-Serif" font-size="10.00">CoolSI114X::Reset</text>
</a>
</g>
</g>
<!-- Node5&#45;&gt;Node7 -->
<g id="edge3" class="edge"><title>Node5&#45;&gt;Node7</title>
<path fill="none" stroke="midnightblue" d="M275.576,-142.543C335.518,-155.823 444.011,-179.86 508.889,-194.233"/>
<polygon fill="midnightblue" stroke="midnightblue" points="508.393,-197.708 518.913,-196.454 509.907,-190.874 508.393,-197.708"/>
</g>
<!-- Node9 -->
<g id="node6" class="node"><title>Node9</title>
<g id="a_node6"><a xlink:href="class_cool_s_i114_x.html#a6840abd53a2e3d71a6bb918077c6d6e6" target="_top" xlink:title="CoolSI114X::DeInit">
<polygon fill="white" stroke="black" points="343.5,-123.5 343.5,-142.5 444.5,-142.5 444.5,-123.5 343.5,-123.5"/>
<text text-anchor="middle" x="394" y="-130.5" font-family="Helvetica,sans-Serif" font-size="10.00">CoolSI114X::DeInit</text>
</a>
</g>
</g>
<!-- Node5&#45;&gt;Node9 -->
<g id="edge5" class="edge"><title>Node5&#45;&gt;Node9</title>
<path fill="none" stroke="midnightblue" d="M281.527,-133C297.788,-133 316.076,-133 333.063,-133"/>
<polygon fill="midnightblue" stroke="midnightblue" points="333.443,-136.5 343.443,-133 333.443,-129.5 333.443,-136.5"/>
</g>
<!-- Node8 -->
<g id="node5" class="node"><title>Node8</title>
<g id="a_node5"><a xlink:href="class_cool_s_i114_x.html#ac5c8dc5ade604da7a1c8cd1586feefc2" target="_top" xlink:title="CoolSI114X::WriteByte">
<polygon fill="white" stroke="black" points="673,-158.5 673,-177.5 792,-177.5 792,-158.5 673,-158.5"/>
<text text-anchor="middle" x="732.5" y="-165.5" font-family="Helvetica,sans-Serif" font-size="10.00">CoolSI114X::WriteByte</text>
</a>
</g>
</g>
<!-- Node7&#45;&gt;Node8 -->
<g id="edge4" class="edge"><title>Node7&#45;&gt;Node8</title>
<path fill="none" stroke="midnightblue" d="M606.267,-196.411C628.57,-191.351 656.123,-185.1 679.702,-179.751"/>
<polygon fill="midnightblue" stroke="midnightblue" points="680.559,-183.146 689.537,-177.52 679.01,-176.319 680.559,-183.146"/>
</g>
<!-- Node9&#45;&gt;Node8 -->
<g id="edge6" class="edge"><title>Node9&#45;&gt;Node8</title>
<path fill="none" stroke="midnightblue" d="M444.636,-142.311C458.918,-144.756 474.543,-147.207 489,-149 547.297,-156.23 613.84,-161.213 662.455,-164.256"/>
<polygon fill="midnightblue" stroke="midnightblue" points="662.352,-167.756 672.548,-164.876 662.781,-160.769 662.352,-167.756"/>
</g>
<!-- Node10 -->
<g id="node7" class="node"><title>Node10</title>
<g id="a_node7"><a xlink:href="class_cool_s_i114_x.html#abf45eb10a6de1be16e68a51624fa2608" target="_top" xlink:title="CoolSI114X::WriteParamData">
<polygon fill="white" stroke="black" points="489,-120.5 489,-139.5 637,-139.5 637,-120.5 489,-120.5"/>
<text text-anchor="middle" x="563" y="-127.5" font-family="Helvetica,sans-Serif" font-size="10.00">CoolSI114X::WriteParamData</text>
</a>
</g>
</g>
<!-- Node9&#45;&gt;Node10 -->
<g id="edge7" class="edge"><title>Node9&#45;&gt;Node10</title>
<path fill="none" stroke="midnightblue" d="M444.653,-132.108C455.362,-131.916 466.964,-131.707 478.565,-131.499"/>
<polygon fill="midnightblue" stroke="midnightblue" points="478.801,-134.995 488.736,-131.316 478.675,-127.996 478.801,-134.995"/>
</g>
<!-- Node10&#45;&gt;Node6 -->
<g id="edge9" class="edge"><title>Node10&#45;&gt;Node6</title>
<path fill="none" stroke="midnightblue" d="M637.468,-121.666C645.904,-120.709 654.482,-119.736 662.852,-118.787"/>
<polygon fill="midnightblue" stroke="midnightblue" points="663.392,-122.248 672.934,-117.643 662.603,-115.293 663.392,-122.248"/>
</g>
<!-- Node10&#45;&gt;Node8 -->
<g id="edge8" class="edge"><title>Node10&#45;&gt;Node8</title>
<path fill="none" stroke="midnightblue" d="M606.267,-139.589C628.57,-144.649 656.123,-150.9 679.702,-156.249"/>
<polygon fill="midnightblue" stroke="midnightblue" points="679.01,-159.681 689.537,-158.48 680.559,-152.854 679.01,-159.681"/>
</g>
<!-- Node13 -->
<g id="node10" class="node"><title>Node13</title>
<g id="a_node10"><a xlink:href="class_b_m_e280.html#a1bbd14c8591966df531e40085342ff71" target="_top" xlink:title="BME280::readRegister">
<polygon fill="white" stroke="black" points="336,-0.5 336,-19.5 452,-19.5 452,-0.5 336,-0.5"/>
<text text-anchor="middle" x="394" y="-7.5" font-family="Helvetica,sans-Serif" font-size="10.00">BME280::readRegister</text>
</a>
</g>
</g>
<!-- Node12&#45;&gt;Node13 -->
<g id="edge12" class="edge"><title>Node12&#45;&gt;Node13</title>
<path fill="none" stroke="midnightblue" d="M273.001,-36.168C293.123,-31.78 317.706,-26.4192 339.37,-21.6949"/>
<polygon fill="midnightblue" stroke="midnightblue" points="340.39,-25.055 349.414,-19.5047 338.898,-18.2157 340.39,-25.055"/>
</g>
<!-- Node14 -->
<g id="node11" class="node"><title>Node14</title>
<g id="a_node11"><a xlink:href="class_b_m_e280.html#afcff21c342725246bf415d7f0e4d04f0" target="_top" xlink:title="BME280::writeRegister">
<polygon fill="white" stroke="black" points="335,-38.5 335,-57.5 453,-57.5 453,-38.5 335,-38.5"/>
<text text-anchor="middle" x="394" y="-45.5" font-family="Helvetica,sans-Serif" font-size="10.00">BME280::writeRegister</text>
</a>
</g>
</g>
<!-- Node12&#45;&gt;Node14 -->
<g id="edge13" class="edge"><title>Node12&#45;&gt;Node14</title>
<path fill="none" stroke="midnightblue" d="M273.001,-45.757C288.682,-46.0501 307.072,-46.3939 324.679,-46.723"/>
<polygon fill="midnightblue" stroke="midnightblue" points="324.864,-50.227 334.928,-46.9145 324.995,-43.2282 324.864,-50.227"/>
</g>
</g>
</svg>
