<?xml version="1.0" encoding="UTF-8" standalone="no"?>
<!DOCTYPE svg PUBLIC "-//W3C//DTD SVG 1.1//EN"
 "http://www.w3.org/Graphics/SVG/1.1/DTD/svg11.dtd">
<!-- Generated by graphviz version 2.38.0 (20140413.2041)
 -->
<!-- Title: CoolTime::setDateTime Pages: 1 -->
<svg width="589pt" height="85pt"
 viewBox="0.00 0.00 589.00 85.00" xmlns="http://www.w3.org/2000/svg" xmlns:xlink="http://www.w3.org/1999/xlink">
<g id="graph0" class="graph" transform="scale(1 1) rotate(0) translate(4 81)">
<title>CoolTime::setDateTime</title>
<polygon fill="white" stroke="none" points="-4,4 -4,-81 585,-81 585,4 -4,4"/>
<!-- Node77 -->
<g id="node1" class="node"><title>Node77</title>
<polygon fill="#bfbfbf" stroke="black" points="0,-57.5 0,-76.5 121,-76.5 121,-57.5 0,-57.5"/>
<text text-anchor="middle" x="60.5" y="-64.5" font-family="Helvetica,sans-Serif" font-size="10.00">CoolTime::setDateTime</text>
</g>
<!-- Node78 -->
<g id="node2" class="node"><title>Node78</title>
<g id="a_node2"><a xlink:href="class_cool_time.html#acd537cd4210d7bde4e1f5c47d2ac0456" target="_top" xlink:title="CoolTime::formatDigits">
<polygon fill="white" stroke="black" points="463,-38.5 463,-57.5 581,-57.5 581,-38.5 463,-38.5"/>
<text text-anchor="middle" x="522" y="-45.5" font-family="Helvetica,sans-Serif" font-size="10.00">CoolTime::formatDigits</text>
</a>
</g>
</g>
<!-- Node77&#45;&gt;Node78 -->
<g id="edge1" class="edge"><title>Node77&#45;&gt;Node78</title>
<path fill="none" stroke="midnightblue" d="M121.153,-68.9634C193.63,-70.7083 319.552,-71.6795 427,-62 435.93,-61.1955 445.305,-60.1017 454.533,-58.8776"/>
<polygon fill="midnightblue" stroke="midnightblue" points="455.034,-62.3417 464.461,-57.5058 454.076,-55.4076 455.034,-62.3417"/>
</g>
<!-- Node79 -->
<g id="node3" class="node"><title>Node79</title>
<g id="a_node3"><a xlink:href="class_cool_time.html#ac4f32ee513c1328d984306645e8785a4" target="_top" xlink:title="CoolTime::getESDate">
<polygon fill="white" stroke="black" points="157,-38.5 157,-57.5 270,-57.5 270,-38.5 157,-38.5"/>
<text text-anchor="middle" x="213.5" y="-45.5" font-family="Helvetica,sans-Serif" font-size="10.00">CoolTime::getESDate</text>
</a>
</g>
</g>
<!-- Node77&#45;&gt;Node79 -->
<g id="edge2" class="edge"><title>Node77&#45;&gt;Node79</title>
<path fill="none" stroke="midnightblue" d="M121.179,-59.4907C129.501,-58.4435 138.092,-57.3626 146.522,-56.3019"/>
<polygon fill="midnightblue" stroke="midnightblue" points="147.211,-59.7429 156.695,-55.0218 146.337,-52.7977 147.211,-59.7429"/>
</g>
<!-- Node79&#45;&gt;Node78 -->
<g id="edge5" class="edge"><title>Node79&#45;&gt;Node78</title>
<path fill="none" stroke="midnightblue" d="M270.005,-48C321.324,-48 397.741,-48 452.766,-48"/>
<polygon fill="midnightblue" stroke="midnightblue" points="452.781,-51.5001 462.781,-48 452.781,-44.5001 452.781,-51.5001"/>
</g>
<!-- Node80 -->
<g id="node4" class="node"><title>Node80</title>
<g id="a_node4"><a xlink:href="class_cool_time.html#a7a7501c5ca77dd1248bea704c44f986c" target="_top" xlink:title="CoolTime::getTimeDate">
<polygon fill="white" stroke="black" points="306,-0.5 306,-19.5 427,-19.5 427,-0.5 306,-0.5"/>
<text text-anchor="middle" x="366.5" y="-7.5" font-family="Helvetica,sans-Serif" font-size="10.00">CoolTime::getTimeDate</text>
</a>
</g>
</g>
<!-- Node79&#45;&gt;Node80 -->
<g id="edge3" class="edge"><title>Node79&#45;&gt;Node80</title>
<path fill="none" stroke="midnightblue" d="M252.604,-38.411C272.44,-33.4191 296.884,-27.2676 317.948,-21.9666"/>
<polygon fill="midnightblue" stroke="midnightblue" points="318.827,-25.3548 327.67,-19.5201 317.118,-18.5664 318.827,-25.3548"/>
</g>
<!-- Node80&#45;&gt;Node78 -->
<g id="edge4" class="edge"><title>Node80&#45;&gt;Node78</title>
<path fill="none" stroke="midnightblue" d="M406.235,-19.589C426.399,-24.5809 451.248,-30.7324 472.661,-36.0334"/>
<polygon fill="midnightblue" stroke="midnightblue" points="471.996,-39.4743 482.544,-38.4799 473.678,-32.6794 471.996,-39.4743"/>
</g>
</g>
</svg>
