<?xml version="1.0" encoding="UTF-8" standalone="no"?>
<!DOCTYPE svg PUBLIC "-//W3C//DTD SVG 1.1//EN"
 "http://www.w3.org/Graphics/SVG/1.1/DTD/svg11.dtd">
<!-- Generated by graphviz version 2.38.0 (20140413.2041)
 -->
<!-- Title: ExternalSensors::begin Pages: 1 -->
<svg width="268pt" height="127pt"
 viewBox="0.00 0.00 268.00 126.50" xmlns="http://www.w3.org/2000/svg" xmlns:xlink="http://www.w3.org/1999/xlink">
<g id="graph0" class="graph" transform="scale(1 1) rotate(0) translate(4 122.5)">
<title>ExternalSensors::begin</title>
<polygon fill="white" stroke="none" points="-4,4 -4,-122.5 264,-122.5 264,4 -4,4"/>
<!-- Node0 -->
<g id="node1" class="node"><title>Node0</title>
<polygon fill="#bfbfbf" stroke="black" points="0,-44.5 0,-63.5 118,-63.5 118,-44.5 0,-44.5"/>
<text text-anchor="middle" x="59" y="-51.5" font-family="Helvetica,sans-Serif" font-size="10.00">ExternalSensors::begin</text>
</g>
<!-- Node1 -->
<g id="node2" class="node"><title>Node1</title>
<g id="a_node2"><a xlink:href="class_base_external_sensor.html#a87d132803d4f4fdd4e66332809f0c9a0" target="_top" xlink:title="BaseExternalSensor\l::begin">
<polygon fill="white" stroke="black" points="154,-88 154,-118 260,-118 260,-88 154,-88"/>
<text text-anchor="start" x="162" y="-106" font-family="Helvetica,sans-Serif" font-size="10.00">BaseExternalSensor</text>
<text text-anchor="middle" x="207" y="-95" font-family="Helvetica,sans-Serif" font-size="10.00">::begin</text>
</a>
</g>
</g>
<!-- Node0&#45;&gt;Node1 -->
<g id="edge1" class="edge"><title>Node0&#45;&gt;Node1</title>
<path fill="none" stroke="midnightblue" d="M88.4969,-63.564C106.416,-69.5779 130.12,-77.5335 151.543,-84.7232"/>
<polygon fill="midnightblue" stroke="midnightblue" points="150.602,-88.0993 161.196,-87.963 152.829,-81.4631 150.602,-88.0993"/>
</g>
<!-- Node2 -->
<g id="node3" class="node"><title>Node2</title>
<g id="a_node3"><a xlink:href="class_base_external_sensor.html#a1564f16deacf57b51b9948ac29db4291" target="_top" xlink:title="BaseExternalSensor\l::read">
<polygon fill="white" stroke="black" points="154,-39 154,-69 260,-69 260,-39 154,-39"/>
<text text-anchor="start" x="162" y="-57" font-family="Helvetica,sans-Serif" font-size="10.00">BaseExternalSensor</text>
<text text-anchor="middle" x="207" y="-46" font-family="Helvetica,sans-Serif" font-size="10.00">::read</text>
</a>
</g>
</g>
<!-- Node0&#45;&gt;Node2 -->
<g id="edge2" class="edge"><title>Node0&#45;&gt;Node2</title>
<path fill="none" stroke="midnightblue" d="M118.123,-54C126.49,-54 135.129,-54 143.576,-54"/>
<polygon fill="midnightblue" stroke="midnightblue" points="143.751,-57.5001 153.751,-54 143.751,-50.5001 143.751,-57.5001"/>
</g>
<!-- Node3 -->
<g id="node4" class="node"><title>Node3</title>
<g id="a_node4"><a xlink:href="_external_sensors_8cpp.html#af39fa3dad1ba161b384c0b26b8145e65" target="_top" xlink:title="oneWire">
<polygon fill="white" stroke="black" points="180.5,-0.5 180.5,-19.5 233.5,-19.5 233.5,-0.5 180.5,-0.5"/>
<text text-anchor="middle" x="207" y="-7.5" font-family="Helvetica,sans-Serif" font-size="10.00">oneWire</text>
</a>
</g>
</g>
<!-- Node0&#45;&gt;Node3 -->
<g id="edge3" class="edge"><title>Node0&#45;&gt;Node3</title>
<path fill="none" stroke="midnightblue" d="M91.6798,-44.4527C114.869,-37.4641 146.353,-27.9759 170.409,-20.726"/>
<polygon fill="midnightblue" stroke="midnightblue" points="171.654,-24.0065 180.218,-17.7698 169.634,-17.3042 171.654,-24.0065"/>
</g>
</g>
</svg>
