<?xml version="1.0" encoding="UTF-8" standalone="no"?>
<!DOCTYPE svg PUBLIC "-//W3C//DTD SVG 1.1//EN"
 "http://www.w3.org/Graphics/SVG/1.1/DTD/svg11.dtd">
<!-- Generated by graphviz version 2.38.0 (20140413.2041)
 -->
<!-- Title: Adafruit_ADS1015::readADC_SingleEnded Pages: 1 -->
<svg width="785pt" height="218pt"
 viewBox="0.00 0.00 785.00 218.00" xmlns="http://www.w3.org/2000/svg" xmlns:xlink="http://www.w3.org/1999/xlink">
<g id="graph0" class="graph" transform="scale(1 1) rotate(0) translate(4 214)">
<title>Adafruit_ADS1015::readADC_SingleEnded</title>
<polygon fill="white" stroke="none" points="-4,4 -4,-214 781,-214 781,4 -4,4"/>
<!-- Node30 -->
<g id="node1" class="node"><title>Node30</title>
<polygon fill="#bfbfbf" stroke="black" points="0,-90 0,-120 144,-120 144,-90 0,-90"/>
<text text-anchor="start" x="8" y="-108" font-family="Helvetica,sans-Serif" font-size="10.00">Adafruit_ADS1015::readADC</text>
<text text-anchor="middle" x="72" y="-97" font-family="Helvetica,sans-Serif" font-size="10.00">_SingleEnded</text>
</g>
<!-- Node31 -->
<g id="node2" class="node"><title>Node31</title>
<g id="a_node2"><a xlink:href="class_irene3000.html#a78a87eb7cf295b95c12b2ebd51c2bb77" target="_top" xlink:title="Irene3000::readButton">
<polygon fill="white" stroke="black" points="196.5,-190.5 196.5,-209.5 309.5,-209.5 309.5,-190.5 196.5,-190.5"/>
<text text-anchor="middle" x="253" y="-197.5" font-family="Helvetica,sans-Serif" font-size="10.00">Irene3000::readButton</text>
</a>
</g>
</g>
<!-- Node30&#45;&gt;Node31 -->
<g id="edge1" class="edge"><title>Node30&#45;&gt;Node31</title>
<path fill="none" stroke="midnightblue" d="M97.6245,-126.425C118.337,-143.438 149.394,-166.673 180,-181 188.079,-184.782 197.033,-187.905 205.805,-190.45"/>
<polygon fill="midnightblue" stroke="midnightblue" points="99.8672,-123.738 89.9482,-120.014 95.3801,-129.111 99.8672,-123.738"/>
</g>
<!-- Node34 -->
<g id="node5" class="node"><title>Node34</title>
<g id="a_node5"><a xlink:href="class_irene3000.html#ae73bd2ed14a199a7e83f4d6458476a7c" target="_top" xlink:title="Irene3000::readADSChannel2">
<polygon fill="white" stroke="black" points="180,-76.5 180,-95.5 326,-95.5 326,-76.5 180,-76.5"/>
<text text-anchor="middle" x="253" y="-83.5" font-family="Helvetica,sans-Serif" font-size="10.00">Irene3000::readADSChannel2</text>
</a>
</g>
</g>
<!-- Node30&#45;&gt;Node34 -->
<g id="edge4" class="edge"><title>Node30&#45;&gt;Node34</title>
<path fill="none" stroke="midnightblue" d="M154.055,-96.3964C162.676,-95.4813 171.403,-94.555 179.911,-93.6519"/>
<polygon fill="midnightblue" stroke="midnightblue" points="153.577,-92.9273 144.003,-97.4634 154.316,-99.8882 153.577,-92.9273"/>
</g>
<!-- Node39 -->
<g id="node10" class="node"><title>Node39</title>
<g id="a_node10"><a xlink:href="class_irene3000.html#a436fc0a06681cd0784aba56b9707f19a" target="_top" xlink:title="Irene3000::readPh">
<polygon fill="white" stroke="black" points="205,-38.5 205,-57.5 301,-57.5 301,-38.5 205,-38.5"/>
<text text-anchor="middle" x="253" y="-45.5" font-family="Helvetica,sans-Serif" font-size="10.00">Irene3000::readPh</text>
</a>
</g>
</g>
<!-- Node30&#45;&gt;Node39 -->
<g id="edge9" class="edge"><title>Node30&#45;&gt;Node39</title>
<path fill="none" stroke="midnightblue" d="M122.574,-86.4257C140.552,-79.9472 161.089,-72.8422 180,-67 190.746,-63.6802 202.504,-60.4225 213.344,-57.568"/>
<polygon fill="midnightblue" stroke="midnightblue" points="121.08,-83.2445 112.876,-89.9484 123.47,-89.8239 121.08,-83.2445"/>
</g>
<!-- Node40 -->
<g id="node11" class="node"><title>Node40</title>
<g id="a_node11"><a xlink:href="class_irene3000.html#a80bc6dfea106dc3bc54fa20204d4d5dc" target="_top" xlink:title="Irene3000::readTemp">
<polygon fill="white" stroke="black" points="198.5,-0.5 198.5,-19.5 307.5,-19.5 307.5,-0.5 198.5,-0.5"/>
<text text-anchor="middle" x="253" y="-7.5" font-family="Helvetica,sans-Serif" font-size="10.00">Irene3000::readTemp</text>
</a>
</g>
</g>
<!-- Node30&#45;&gt;Node40 -->
<g id="edge11" class="edge"><title>Node30&#45;&gt;Node40</title>
<path fill="none" stroke="midnightblue" d="M97.6245,-83.5748C118.337,-66.562 149.394,-43.3267 180,-29 188.079,-25.2183 197.033,-22.0948 205.805,-19.5496"/>
<polygon fill="midnightblue" stroke="midnightblue" points="95.3801,-80.8891 89.9482,-89.9855 99.8672,-86.2619 95.3801,-80.8891"/>
</g>
<!-- Node41 -->
<g id="node12" class="node"><title>Node41</title>
<g id="a_node12"><a xlink:href="class_irene3000.html#a1d3299202e4cb7afcff9c9e3e95d94c1" target="_top" xlink:title="Irene3000::calibratepH7">
<polygon fill="white" stroke="black" points="193,-152.5 193,-171.5 313,-171.5 313,-152.5 193,-152.5"/>
<text text-anchor="middle" x="253" y="-159.5" font-family="Helvetica,sans-Serif" font-size="10.00">Irene3000::calibratepH7</text>
</a>
</g>
</g>
<!-- Node30&#45;&gt;Node41 -->
<g id="edge13" class="edge"><title>Node30&#45;&gt;Node41</title>
<path fill="none" stroke="midnightblue" d="M122.574,-123.574C140.552,-130.053 161.089,-137.158 180,-143 190.746,-146.32 202.504,-149.578 213.344,-152.432"/>
<polygon fill="midnightblue" stroke="midnightblue" points="123.47,-120.176 112.876,-120.052 121.08,-126.755 123.47,-120.176"/>
</g>
<!-- Node43 -->
<g id="node14" class="node"><title>Node43</title>
<g id="a_node14"><a xlink:href="class_irene3000.html#aa140dd026922a04981edfd04d46cabbe" target="_top" xlink:title="Irene3000::calibratepH4">
<polygon fill="white" stroke="black" points="193,-114.5 193,-133.5 313,-133.5 313,-114.5 193,-114.5"/>
<text text-anchor="middle" x="253" y="-121.5" font-family="Helvetica,sans-Serif" font-size="10.00">Irene3000::calibratepH4</text>
</a>
</g>
</g>
<!-- Node30&#45;&gt;Node43 -->
<g id="edge17" class="edge"><title>Node30&#45;&gt;Node43</title>
<path fill="none" stroke="midnightblue" d="M153.962,-113.594C167.074,-114.985 180.432,-116.403 192.897,-117.727"/>
<polygon fill="midnightblue" stroke="midnightblue" points="154.316,-110.112 144.003,-112.537 153.577,-117.073 154.316,-110.112"/>
</g>
<!-- Node32 -->
<g id="node3" class="node"><title>Node32</title>
<g id="a_node3"><a xlink:href="class_irene3000.html#ad5891806c500ae1007afe52b9e304c2b" target="_top" xlink:title="Irene3000::begin">
<polygon fill="white" stroke="black" points="366.5,-152.5 366.5,-171.5 455.5,-171.5 455.5,-152.5 366.5,-152.5"/>
<text text-anchor="middle" x="411" y="-159.5" font-family="Helvetica,sans-Serif" font-size="10.00">Irene3000::begin</text>
</a>
</g>
</g>
<!-- Node31&#45;&gt;Node32 -->
<g id="edge2" class="edge"><title>Node31&#45;&gt;Node32</title>
<path fill="none" stroke="midnightblue" d="M303.132,-188.032C324.993,-182.707 350.376,-176.524 370.918,-171.52"/>
<polygon fill="midnightblue" stroke="midnightblue" points="302.253,-184.644 293.365,-190.411 303.91,-191.445 302.253,-184.644"/>
</g>
<!-- Node33 -->
<g id="node4" class="node"><title>Node33</title>
<g id="a_node4"><a xlink:href="class_cool_board.html#acba7c5aef7268b2c0044bdb54d3b9d76" target="_top" xlink:title="CoolBoard::begin">
<polygon fill="white" stroke="black" points="511.5,-152.5 511.5,-171.5 603.5,-171.5 603.5,-152.5 511.5,-152.5"/>
<text text-anchor="middle" x="557.5" y="-159.5" font-family="Helvetica,sans-Serif" font-size="10.00">CoolBoard::begin</text>
</a>
</g>
</g>
<!-- Node32&#45;&gt;Node33 -->
<g id="edge3" class="edge"><title>Node32&#45;&gt;Node33</title>
<path fill="none" stroke="midnightblue" d="M465.902,-162C480.88,-162 496.985,-162 511.401,-162"/>
<polygon fill="midnightblue" stroke="midnightblue" points="465.747,-158.5 455.747,-162 465.747,-165.5 465.747,-158.5"/>
</g>
<!-- Node35 -->
<g id="node6" class="node"><title>Node35</title>
<g id="a_node6"><a xlink:href="class_irene3000.html#a852a170feea994ea1df01c6b245b5d9a" target="_top" xlink:title="Irene3000::read">
<polygon fill="white" stroke="black" points="369,-43.5 369,-62.5 453,-62.5 453,-43.5 369,-43.5"/>
<text text-anchor="middle" x="411" y="-50.5" font-family="Helvetica,sans-Serif" font-size="10.00">Irene3000::read</text>
</a>
</g>
</g>
<!-- Node34&#45;&gt;Node35 -->
<g id="edge5" class="edge"><title>Node34&#45;&gt;Node35</title>
<path fill="none" stroke="midnightblue" d="M308.922,-74.3819C328.679,-70.2025 350.607,-65.5638 368.976,-61.6781"/>
<polygon fill="midnightblue" stroke="midnightblue" points="308.181,-70.9611 299.122,-76.455 309.63,-77.8096 308.181,-70.9611"/>
</g>
<!-- Node36 -->
<g id="node7" class="node"><title>Node36</title>
<g id="a_node7"><a xlink:href="class_cool_board.html#ad03abdce2e65f520bbf2cff0f2d083cf" target="_top" xlink:title="CoolBoard::readSensors">
<polygon fill="white" stroke="black" points="496,-52.5 496,-71.5 619,-71.5 619,-52.5 496,-52.5"/>
<text text-anchor="middle" x="557.5" y="-59.5" font-family="Helvetica,sans-Serif" font-size="10.00">CoolBoard::readSensors</text>
</a>
</g>
</g>
<!-- Node35&#45;&gt;Node36 -->
<g id="edge6" class="edge"><title>Node35&#45;&gt;Node36</title>
<path fill="none" stroke="midnightblue" d="M463.327,-56.1968C473.887,-56.8546 485.1,-57.553 495.952,-58.2288"/>
<polygon fill="midnightblue" stroke="midnightblue" points="463.22,-52.6835 453.021,-55.555 462.784,-59.6699 463.22,-52.6835"/>
</g>
<!-- Node37 -->
<g id="node8" class="node"><title>Node37</title>
<g id="a_node8"><a xlink:href="class_cool_board.html#aa0bbc4bc605e35618d18e68795c61363" target="_top" xlink:title="CoolBoard::onLineMode">
<polygon fill="white" stroke="black" points="655.5,-99.5 655.5,-118.5 776.5,-118.5 776.5,-99.5 655.5,-99.5"/>
<text text-anchor="middle" x="716" y="-106.5" font-family="Helvetica,sans-Serif" font-size="10.00">CoolBoard::onLineMode</text>
</a>
</g>
</g>
<!-- Node36&#45;&gt;Node37 -->
<g id="edge7" class="edge"><title>Node36&#45;&gt;Node37</title>
<path fill="none" stroke="midnightblue" d="M599.783,-74.3982C625.863,-82.2304 659.056,-92.1988 683.109,-99.4224"/>
<polygon fill="midnightblue" stroke="midnightblue" points="600.754,-71.0354 590.17,-71.5112 598.741,-77.7396 600.754,-71.0354"/>
</g>
<!-- Node38 -->
<g id="node9" class="node"><title>Node38</title>
<g id="a_node9"><a xlink:href="class_cool_board.html#ae6b5e1274d760462290192acea4adca8" target="_top" xlink:title="CoolBoard::offLineMode">
<polygon fill="white" stroke="black" points="655,-52.5 655,-71.5 777,-71.5 777,-52.5 655,-52.5"/>
<text text-anchor="middle" x="716" y="-59.5" font-family="Helvetica,sans-Serif" font-size="10.00">CoolBoard::offLineMode</text>
</a>
</g>
</g>
<!-- Node36&#45;&gt;Node38 -->
<g id="edge8" class="edge"><title>Node36&#45;&gt;Node38</title>
<path fill="none" stroke="midnightblue" d="M629.059,-62C637.692,-62 646.452,-62 654.912,-62"/>
<polygon fill="midnightblue" stroke="midnightblue" points="629.007,-58.5001 619.007,-62 629.007,-65.5001 629.007,-58.5001"/>
</g>
<!-- Node39&#45;&gt;Node35 -->
<g id="edge10" class="edge"><title>Node39&#45;&gt;Node35</title>
<path fill="none" stroke="midnightblue" d="M311.295,-49.8364C330.339,-50.4467 351.157,-51.114 368.745,-51.6777"/>
<polygon fill="midnightblue" stroke="midnightblue" points="311.336,-46.336 301.228,-49.5137 311.111,-53.3324 311.336,-46.336"/>
</g>
<!-- Node40&#45;&gt;Node35 -->
<g id="edge12" class="edge"><title>Node40&#45;&gt;Node35</title>
<path fill="none" stroke="midnightblue" d="M300.466,-22.1139C308.968,-24.3725 317.757,-26.735 326,-29 342.965,-33.6614 361.802,-39.0262 377.332,-43.4998"/>
<polygon fill="midnightblue" stroke="midnightblue" points="301.229,-18.6954 290.667,-19.5223 299.44,-25.4628 301.229,-18.6954"/>
</g>
<!-- Node41&#45;&gt;Node32 -->
<g id="edge16" class="edge"><title>Node41&#45;&gt;Node32</title>
<path fill="none" stroke="midnightblue" d="M323.838,-162C338.274,-162 353.087,-162 366.27,-162"/>
<polygon fill="midnightblue" stroke="midnightblue" points="323.422,-158.5 313.422,-162 323.422,-165.5 323.422,-158.5"/>
</g>
<!-- Node42 -->
<g id="node13" class="node"><title>Node42</title>
<g id="a_node13"><a xlink:href="class_cool_board.html#a8612756d3f73198cdde857a66f0fe690" target="_top" xlink:title="CoolBoard::update">
<polygon fill="white" stroke="black" points="362,-114.5 362,-133.5 460,-133.5 460,-114.5 362,-114.5"/>
<text text-anchor="middle" x="411" y="-121.5" font-family="Helvetica,sans-Serif" font-size="10.00">CoolBoard::update</text>
</a>
</g>
</g>
<!-- Node41&#45;&gt;Node42 -->
<g id="edge14" class="edge"><title>Node41&#45;&gt;Node42</title>
<path fill="none" stroke="midnightblue" d="M303.132,-150.032C324.993,-144.707 350.376,-138.524 370.918,-133.52"/>
<polygon fill="midnightblue" stroke="midnightblue" points="302.253,-146.644 293.365,-152.411 303.91,-153.445 302.253,-146.644"/>
</g>
<!-- Node42&#45;&gt;Node37 -->
<g id="edge15" class="edge"><title>Node42&#45;&gt;Node37</title>
<path fill="none" stroke="midnightblue" d="M470.293,-121.114C523.443,-118.483 601.625,-114.613 655.232,-111.959"/>
<polygon fill="midnightblue" stroke="midnightblue" points="469.826,-117.633 460.011,-121.623 470.172,-124.624 469.826,-117.633"/>
</g>
<!-- Node43&#45;&gt;Node32 -->
<g id="edge19" class="edge"><title>Node43&#45;&gt;Node32</title>
<path fill="none" stroke="midnightblue" d="M303.132,-135.968C324.993,-141.293 350.376,-147.476 370.918,-152.48"/>
<polygon fill="midnightblue" stroke="midnightblue" points="303.91,-132.555 293.365,-133.589 302.253,-139.356 303.91,-132.555"/>
</g>
<!-- Node43&#45;&gt;Node42 -->
<g id="edge18" class="edge"><title>Node43&#45;&gt;Node42</title>
<path fill="none" stroke="midnightblue" d="M323.677,-124C336.581,-124 349.793,-124 361.877,-124"/>
<polygon fill="midnightblue" stroke="midnightblue" points="323.422,-120.5 313.422,-124 323.422,-127.5 323.422,-120.5"/>
</g>
</g>
</svg>
