<?xml version="1.0" encoding="UTF-8" standalone="no"?>
<!DOCTYPE svg PUBLIC "-//W3C//DTD SVG 1.1//EN"
 "http://www.w3.org/Graphics/SVG/1.1/DTD/svg11.dtd">
<!-- Generated by graphviz version 2.38.0 (20140413.2041)
 -->
<!-- Title: CoolSI114X::WriteParamData Pages: 1 -->
<svg width="766pt" height="123pt"
 viewBox="0.00 0.00 766.00 123.00" xmlns="http://www.w3.org/2000/svg" xmlns:xlink="http://www.w3.org/1999/xlink">
<g id="graph0" class="graph" transform="scale(1 1) rotate(0) translate(4 119)">
<title>CoolSI114X::WriteParamData</title>
<polygon fill="white" stroke="none" points="-4,4 -4,-119 762,-119 762,4 -4,4"/>
<!-- Node100 -->
<g id="node1" class="node"><title>Node100</title>
<polygon fill="#bfbfbf" stroke="black" points="0,-57.5 0,-76.5 148,-76.5 148,-57.5 0,-57.5"/>
<text text-anchor="middle" x="74" y="-64.5" font-family="Helvetica,sans-Serif" font-size="10.00">CoolSI114X::WriteParamData</text>
</g>
<!-- Node101 -->
<g id="node2" class="node"><title>Node101</title>
<g id="a_node2"><a xlink:href="class_cool_board_sensors.html#a91badb2539d91fda8679f2a597874c48" target="_top" xlink:title="CoolBoardSensors::read">
<polygon fill="white" stroke="black" points="184,-76.5 184,-95.5 307,-95.5 307,-76.5 184,-76.5"/>
<text text-anchor="middle" x="245.5" y="-83.5" font-family="Helvetica,sans-Serif" font-size="10.00">CoolBoardSensors::read</text>
</a>
</g>
</g>
<!-- Node100&#45;&gt;Node101 -->
<g id="edge1" class="edge"><title>Node100&#45;&gt;Node101</title>
<path fill="none" stroke="midnightblue" d="M158.375,-76.3458C166.931,-77.305 175.507,-78.2662 183.752,-79.1905"/>
<polygon fill="midnightblue" stroke="midnightblue" points="158.687,-72.859 148.359,-75.2232 157.907,-79.8154 158.687,-72.859"/>
</g>
<!-- Node105 -->
<g id="node6" class="node"><title>Node105</title>
<g id="a_node6"><a xlink:href="class_cool_s_i114_x.html#a6840abd53a2e3d71a6bb918077c6d6e6" target="_top" xlink:title="CoolSI114X::DeInit">
<polygon fill="white" stroke="black" points="195,-38.5 195,-57.5 296,-57.5 296,-38.5 195,-38.5"/>
<text text-anchor="middle" x="245.5" y="-45.5" font-family="Helvetica,sans-Serif" font-size="10.00">CoolSI114X::DeInit</text>
</a>
</g>
</g>
<!-- Node100&#45;&gt;Node105 -->
<g id="edge5" class="edge"><title>Node100&#45;&gt;Node105</title>
<path fill="none" stroke="midnightblue" d="M158.375,-57.6542C170.9,-56.2502 183.465,-54.8417 194.975,-53.5515"/>
<polygon fill="midnightblue" stroke="midnightblue" points="157.907,-54.1846 148.359,-58.7768 158.687,-61.141 157.907,-54.1846"/>
</g>
<!-- Node102 -->
<g id="node3" class="node"><title>Node102</title>
<g id="a_node3"><a xlink:href="class_cool_board.html#ad03abdce2e65f520bbf2cff0f2d083cf" target="_top" xlink:title="CoolBoard::readSensors">
<polygon fill="white" stroke="black" points="343,-76.5 343,-95.5 466,-95.5 466,-76.5 343,-76.5"/>
<text text-anchor="middle" x="404.5" y="-83.5" font-family="Helvetica,sans-Serif" font-size="10.00">CoolBoard::readSensors</text>
</a>
</g>
</g>
<!-- Node101&#45;&gt;Node102 -->
<g id="edge2" class="edge"><title>Node101&#45;&gt;Node102</title>
<path fill="none" stroke="midnightblue" d="M317.21,-86C325.807,-86 334.53,-86 342.961,-86"/>
<polygon fill="midnightblue" stroke="midnightblue" points="317.2,-82.5001 307.2,-86 317.2,-89.5001 317.2,-82.5001"/>
</g>
<!-- Node103 -->
<g id="node4" class="node"><title>Node103</title>
<g id="a_node4"><a xlink:href="class_cool_board.html#aa0bbc4bc605e35618d18e68795c61363" target="_top" xlink:title="CoolBoard::onLineMode">
<polygon fill="white" stroke="black" points="505.5,-95.5 505.5,-114.5 626.5,-114.5 626.5,-95.5 505.5,-95.5"/>
<text text-anchor="middle" x="566" y="-102.5" font-family="Helvetica,sans-Serif" font-size="10.00">CoolBoard::onLineMode</text>
</a>
</g>
</g>
<!-- Node102&#45;&gt;Node103 -->
<g id="edge3" class="edge"><title>Node102&#45;&gt;Node103</title>
<path fill="none" stroke="midnightblue" d="M476.311,-94.4352C486.047,-95.5949 495.963,-96.7761 505.468,-97.9084"/>
<polygon fill="midnightblue" stroke="midnightblue" points="476.599,-90.9448 466.255,-93.2373 475.771,-97.8957 476.599,-90.9448"/>
</g>
<!-- Node104 -->
<g id="node5" class="node"><title>Node104</title>
<g id="a_node5"><a xlink:href="class_cool_board.html#ae6b5e1274d760462290192acea4adca8" target="_top" xlink:title="CoolBoard::offLineMode">
<polygon fill="white" stroke="black" points="505,-57.5 505,-76.5 627,-76.5 627,-57.5 505,-57.5"/>
<text text-anchor="middle" x="566" y="-64.5" font-family="Helvetica,sans-Serif" font-size="10.00">CoolBoard::offLineMode</text>
</a>
</g>
</g>
<!-- Node102&#45;&gt;Node104 -->
<g id="edge4" class="edge"><title>Node102&#45;&gt;Node104</title>
<path fill="none" stroke="midnightblue" d="M476.475,-77.5453C485.979,-76.4132 495.65,-75.2611 504.941,-74.1543"/>
<polygon fill="midnightblue" stroke="midnightblue" points="475.771,-74.1043 466.255,-78.7627 476.599,-81.0552 475.771,-74.1043"/>
</g>
<!-- Node106 -->
<g id="node7" class="node"><title>Node106</title>
<g id="a_node7"><a xlink:href="class_cool_board_sensors.html#a4902b69f6e628bd6557193758fdd2bae" target="_top" xlink:title="CoolBoardSensors::end">
<polygon fill="white" stroke="black" points="344.5,-38.5 344.5,-57.5 464.5,-57.5 464.5,-38.5 344.5,-38.5"/>
<text text-anchor="middle" x="404.5" y="-45.5" font-family="Helvetica,sans-Serif" font-size="10.00">CoolBoardSensors::end</text>
</a>
</g>
</g>
<!-- Node105&#45;&gt;Node106 -->
<g id="edge6" class="edge"><title>Node105&#45;&gt;Node106</title>
<path fill="none" stroke="midnightblue" d="M306.411,-48C318.816,-48 331.877,-48 344.257,-48"/>
<polygon fill="midnightblue" stroke="midnightblue" points="306.176,-44.5001 296.176,-48 306.176,-51.5001 306.176,-44.5001"/>
</g>
<!-- Node107 -->
<g id="node8" class="node"><title>Node107</title>
<g id="a_node8"><a xlink:href="class_cool_s_i114_x.html#a206b36aca7049f63be1d11088c30a09f" target="_top" xlink:title="CoolSI114X::Begin">
<polygon fill="white" stroke="black" points="354.5,-0.5 354.5,-19.5 454.5,-19.5 454.5,-0.5 354.5,-0.5"/>
<text text-anchor="middle" x="404.5" y="-7.5" font-family="Helvetica,sans-Serif" font-size="10.00">CoolSI114X::Begin</text>
</a>
</g>
</g>
<!-- Node105&#45;&gt;Node107 -->
<g id="edge7" class="edge"><title>Node105&#45;&gt;Node107</title>
<path fill="none" stroke="midnightblue" d="M295.947,-36.032C317.948,-30.7069 343.494,-24.5238 364.167,-19.5201"/>
<polygon fill="midnightblue" stroke="midnightblue" points="295.014,-32.6567 286.118,-38.411 296.66,-39.4602 295.014,-32.6567"/>
</g>
<!-- Node108 -->
<g id="node9" class="node"><title>Node108</title>
<g id="a_node9"><a xlink:href="class_cool_board_sensors.html#a97095823ef7c8f5290812f1405b966b3" target="_top" xlink:title="CoolBoardSensors::begin">
<polygon fill="white" stroke="black" points="502,-0.5 502,-19.5 630,-19.5 630,-0.5 502,-0.5"/>
<text text-anchor="middle" x="566" y="-7.5" font-family="Helvetica,sans-Serif" font-size="10.00">CoolBoardSensors::begin</text>
</a>
</g>
</g>
<!-- Node107&#45;&gt;Node108 -->
<g id="edge8" class="edge"><title>Node107&#45;&gt;Node108</title>
<path fill="none" stroke="midnightblue" d="M464.663,-10C476.798,-10 489.615,-10 501.884,-10"/>
<polygon fill="midnightblue" stroke="midnightblue" points="464.657,-6.5001 454.657,-10 464.657,-13.5001 464.657,-6.5001"/>
</g>
<!-- Node109 -->
<g id="node10" class="node"><title>Node109</title>
<g id="a_node10"><a xlink:href="class_cool_board.html#acba7c5aef7268b2c0044bdb54d3b9d76" target="_top" xlink:title="CoolBoard::begin">
<polygon fill="white" stroke="black" points="666,-0.5 666,-19.5 758,-19.5 758,-0.5 666,-0.5"/>
<text text-anchor="middle" x="712" y="-7.5" font-family="Helvetica,sans-Serif" font-size="10.00">CoolBoard::begin</text>
</a>
</g>
</g>
<!-- Node108&#45;&gt;Node109 -->
<g id="edge9" class="edge"><title>Node108&#45;&gt;Node109</title>
<path fill="none" stroke="midnightblue" d="M640.283,-10C648.922,-10 657.536,-10 665.627,-10"/>
<polygon fill="midnightblue" stroke="midnightblue" points="640.161,-6.5001 630.16,-10 640.16,-13.5001 640.161,-6.5001"/>
</g>
</g>
</svg>
