<?xml version="1.0" encoding="UTF-8" standalone="no"?>
<!DOCTYPE svg PUBLIC "-//W3C//DTD SVG 1.1//EN"
 "http://www.w3.org/Graphics/SVG/1.1/DTD/svg11.dtd">
<!-- Generated by graphviz version 2.38.0 (20140413.2041)
 -->
<!-- Title: Irene3000::readPh Pages: 1 -->
<!--zoomable 107 -->
<svg id="main" version="1.1" xmlns="http://www.w3.org/2000/svg" xmlns:xlink="http://www.w3.org/1999/xlink" xml:space="preserve" onload="init(evt)">
<style type="text/css"><![CDATA[
.edge:hover path { stroke: red; }
.edge:hover polygon { stroke: red; fill: red; }
]]></style>
<script type="text/javascript"><![CDATA[
var edges = document.getElementsByTagName('g');
if (edges && edges.length) {
  for (var i=0;i<edges.length;i++) {
    if (edges[i].id.substr(0,4)=='edge') {
      edges[i].setAttribute('class','edge');
    }
  }
}
]]></script>
        <defs>
                <circle id="rim" cx="0" cy="0" r="7"/>
                <circle id="rim2" cx="0" cy="0" r="3.5"/>
                <g id="zoomPlus">
                        <use xlink:href="#rim" fill="#404040">
                                <set attributeName="fill" to="#808080" begin="zoomplus.mouseover" end="zoomplus.mouseout"/>
                        </use>
                        <path d="M-4,0h8M0,-4v8" fill="none" stroke="white" stroke-width="1.5" pointer-events="none"/>
                </g>
                <g id="zoomMin">
                        <use xlink:href="#rim" fill="#404040">
                                <set attributeName="fill" to="#808080" begin="zoomminus.mouseover" end="zoomminus.mouseout"/>
                        </use>
                        <path d="M-4,0h8" fill="none" stroke="white" stroke-width="1.5" pointer-events="none"/>
                </g>
                <g id="dirArrow">
                        <path fill="none" stroke="white" stroke-width="1.5" d="M0,-3.0v7 M-2.5,-0.5L0,-3.0L2.5,-0.5"/>
                </g>
               <g id="resetDef">
                       <use xlink:href="#rim2" fill="#404040">
                               <set attributeName="fill" to="#808080" begin="reset.mouseover" end="reset.mouseout"/>
                       </use>
               </g>
        </defs>

<script type="text/javascript">
var viewWidth = 543;
var viewHeight = 107;
var sectionId = 'dynsection-18';
</script>
<script xlink:href="svgpan.js"/>
<svg id="graph" class="graph">
<g id="viewport">
<title>Irene3000::readPh</title>
<polygon fill="white" stroke="none" points="-4,4 -4,-103 539,-103 539,4 -4,4"/>
<!-- Node102 -->
<g id="node1" class="node"><title>Node102</title>
<polygon fill="#bfbfbf" stroke="black" points="0,-57.5 0,-76.5 96,-76.5 96,-57.5 0,-57.5"/>
<text text-anchor="middle" x="48" y="-64.5" font-family="Helvetica,sans-Serif" font-size="10.00">Irene3000::readPh</text>
</g>
<!-- Node103 -->
<g id="node2" class="node"><title>Node103</title>
<g id="a_node2"><a xlink:href="class_irene3000.html#aff7c5da186b388e7272e63ff88a20c34" target="_top" xlink:title="Irene3000::setGain">
<polygon fill="white" stroke="black" points="154.5,-79.5 154.5,-98.5 253.5,-98.5 253.5,-79.5 154.5,-79.5"/>
<text text-anchor="middle" x="204" y="-86.5" font-family="Helvetica,sans-Serif" font-size="10.00">Irene3000::setGain</text>
</a>
</g>
</g>
<!-- Node102&#45;&gt;Node103 -->
<g id="edge1" class="edge"><title>Node102&#45;&gt;Node103</title>
<path fill="none" stroke="midnightblue" d="M96.0419,-73.7203C111.207,-75.8867 128.209,-78.3155 144.117,-80.5881"/>
<polygon fill="midnightblue" stroke="midnightblue" points="143.988,-84.1052 154.382,-82.0546 144.978,-77.1755 143.988,-84.1052"/>
</g>
<!-- Node105 -->
<g id="node4" class="node"><title>Node105</title>
<g id="a_node4"><a xlink:href="class_adafruit___a_d_s1015.html#a40f38b9e1f3ec397c0670dd632510235" target="_top" xlink:title="Gets a single&#45;ended ADC reading from the specified channel. ">
<polygon fill="white" stroke="black" points="132,-30 132,-60 276,-60 276,-30 132,-30"/>
<text text-anchor="start" x="140" y="-48" font-family="Helvetica,sans-Serif" font-size="10.00">Adafruit_ADS1015::readADC</text>
<text text-anchor="middle" x="204" y="-37" font-family="Helvetica,sans-Serif" font-size="10.00">_SingleEnded</text>
</a>
</g>
</g>
<!-- Node102&#45;&gt;Node105 -->
<g id="edge3" class="edge"><title>Node102&#45;&gt;Node105</title>
<path fill="none" stroke="midnightblue" d="M96.0419,-60.2797C104.268,-59.1046 113.035,-57.8522 121.874,-56.5894"/>
<polygon fill="midnightblue" stroke="midnightblue" points="122.456,-60.042 131.86,-55.1628 121.466,-53.1123 122.456,-60.042"/>
</g>
<!-- Node104 -->
<g id="node3" class="node"><title>Node104</title>
<g id="a_node3"><a xlink:href="class_adafruit___a_d_s1015.html#a399441eace686975ff22937cbe45cc50" target="_top" xlink:title="Sets the gain and input voltage range. ">
<polygon fill="white" stroke="black" points="312,-79.5 312,-98.5 449,-98.5 449,-79.5 312,-79.5"/>
<text text-anchor="middle" x="380.5" y="-86.5" font-family="Helvetica,sans-Serif" font-size="10.00">Adafruit_ADS1015::setGain</text>
</a>
</g>
</g>
<!-- Node103&#45;&gt;Node104 -->
<g id="edge2" class="edge"><title>Node103&#45;&gt;Node104</title>
<path fill="none" stroke="midnightblue" d="M253.608,-89C268.557,-89 285.402,-89 301.793,-89"/>
<polygon fill="midnightblue" stroke="midnightblue" points="301.919,-92.5001 311.919,-89 301.919,-85.5001 301.919,-92.5001"/>
</g>
<!-- Node106 -->
<g id="node5" class="node"><title>Node106</title>
<g id="a_node5"><a xlink:href="_cool_adafruit___a_d_s1015_8cpp.html#a00ef55774dfb93dd0a7bf561d8451b71" target="_top" xlink:title="Writes 16&#45;bits to the specified destination register. ">
<polygon fill="white" stroke="black" points="343.5,-38.5 343.5,-57.5 417.5,-57.5 417.5,-38.5 343.5,-38.5"/>
<text text-anchor="middle" x="380.5" y="-45.5" font-family="Helvetica,sans-Serif" font-size="10.00">writeRegister</text>
</a>
</g>
</g>
<!-- Node105&#45;&gt;Node106 -->
<g id="edge4" class="edge"><title>Node105&#45;&gt;Node106</title>
<path fill="none" stroke="midnightblue" d="M276.228,-46.2245C295.27,-46.5519 315.367,-46.8974 332.72,-47.1958"/>
<polygon fill="midnightblue" stroke="midnightblue" points="333.078,-50.7023 343.136,-47.3748 333.198,-43.7034 333.078,-50.7023"/>
</g>
<!-- Node108 -->
<g id="node7" class="node"><title>Node108</title>
<g id="a_node7"><a xlink:href="_cool_adafruit___a_d_s1015_8cpp.html#a319539381b7551b2f83a92b0b596e97d" target="_top" xlink:title="Writes 16&#45;bits to the specified destination register. ">
<polygon fill="white" stroke="black" points="344.5,-0.5 344.5,-19.5 416.5,-19.5 416.5,-0.5 344.5,-0.5"/>
<text text-anchor="middle" x="380.5" y="-7.5" font-family="Helvetica,sans-Serif" font-size="10.00">readRegister</text>
</a>
</g>
</g>
<!-- Node105&#45;&gt;Node108 -->
<g id="edge6" class="edge"><title>Node105&#45;&gt;Node108</title>
<path fill="none" stroke="midnightblue" d="M276.228,-30.7137C295.765,-26.795 316.412,-22.6538 334.067,-19.1126"/>
<polygon fill="midnightblue" stroke="midnightblue" points="334.969,-22.5015 344.085,-17.1032 333.592,-15.6382 334.969,-22.5015"/>
</g>
<!-- Node107 -->
<g id="node6" class="node"><title>Node107</title>
<g id="a_node6"><a xlink:href="_cool_adafruit___a_d_s1015_8cpp.html#a6db5edba66e20bba6d5b421c2789af54" target="_top" xlink:title="Abstract away platform differences in Arduino wire library. ">
<polygon fill="white" stroke="black" points="485,-38.5 485,-57.5 535,-57.5 535,-38.5 485,-38.5"/>
<text text-anchor="middle" x="510" y="-45.5" font-family="Helvetica,sans-Serif" font-size="10.00">i2cwrite</text>
</a>
</g>
</g>
<!-- Node106&#45;&gt;Node107 -->
<g id="edge5" class="edge"><title>Node106&#45;&gt;Node107</title>
<path fill="none" stroke="midnightblue" d="M417.695,-48C435.498,-48 456.851,-48 474.43,-48"/>
<polygon fill="midnightblue" stroke="midnightblue" points="474.821,-51.5001 484.821,-48 474.821,-44.5001 474.821,-51.5001"/>
</g>
<!-- Node108&#45;&gt;Node107 -->
<g id="edge7" class="edge"><title>Node108&#45;&gt;Node107</title>
<path fill="none" stroke="midnightblue" d="M416.248,-19.5494C426.788,-22.5083 438.386,-25.8265 449,-29 457.502,-31.5421 466.649,-34.3837 475.176,-37.0787"/>
<polygon fill="midnightblue" stroke="midnightblue" points="474.234,-40.4519 484.824,-40.1485 476.356,-33.7813 474.234,-40.4519"/>
</g>
<!-- Node109 -->
<g id="node8" class="node"><title>Node109</title>
<g id="a_node8"><a xlink:href="_cool_adafruit___a_d_s1015_8cpp.html#af89e2442d757f6ec8100c473022f6701" target="_top" xlink:title="Abstract away platform differences in Arduino wire library. ">
<polygon fill="white" stroke="black" points="486,-0.5 486,-19.5 534,-19.5 534,-0.5 486,-0.5"/>
<text text-anchor="middle" x="510" y="-7.5" font-family="Helvetica,sans-Serif" font-size="10.00">i2cread</text>
</a>
</g>
</g>
<!-- Node108&#45;&gt;Node109 -->
<g id="edge8" class="edge"><title>Node108&#45;&gt;Node109</title>
<path fill="none" stroke="midnightblue" d="M416.677,-10C435.162,-10 457.688,-10 475.862,-10"/>
<polygon fill="midnightblue" stroke="midnightblue" points="475.996,-13.5001 485.996,-10 475.996,-6.5001 475.996,-13.5001"/>
</g>
</g>
</svg>
        <g id="navigator" transform="translate(0 0)" fill="#404254">
                <rect fill="#f2f5e9" fill-opacity="0.5" stroke="#606060" stroke-width=".5" x="0" y="0" width="60" height="60"/>
                <use id="zoomplus" xlink:href="#zoomPlus" x="17" y="9" onmousedown="handleZoom(evt,'in')"/>
                <use id="zoomminus" xlink:href="#zoomMin" x="42" y="9" onmousedown="handleZoom(evt,'out')"/>
                <use id="reset" xlink:href="#resetDef" x="30" y="36" onmousedown="handleReset()"/>
                <g id="arrowUp" xlink:href="#dirArrow" transform="translate(30 24)" onmousedown="handlePan(0,-1)">
                  <use xlink:href="#rim" fill="#404040">
                        <set attributeName="fill" to="#808080" begin="arrowUp.mouseover" end="arrowUp.mouseout"/>
                  </use>
                  <path fill="none" stroke="white" stroke-width="1.5" d="M0,-3.0v7 M-2.5,-0.5L0,-3.0L2.5,-0.5"/>
                </g>
                <g id="arrowRight" xlink:href="#dirArrow" transform="rotate(90) translate(36 -43)" onmousedown="handlePan(1,0)">
                  <use xlink:href="#rim" fill="#404040">
                        <set attributeName="fill" to="#808080" begin="arrowRight.mouseover" end="arrowRight.mouseout"/>
                  </use>
                  <path fill="none" stroke="white" stroke-width="1.5" d="M0,-3.0v7 M-2.5,-0.5L0,-3.0L2.5,-0.5"/>
                </g>
                <g id="arrowDown" xlink:href="#dirArrow" transform="rotate(180) translate(-30 -48)" onmousedown="handlePan(0,1)">
                  <use xlink:href="#rim" fill="#404040">
                        <set attributeName="fill" to="#808080" begin="arrowDown.mouseover" end="arrowDown.mouseout"/>
                  </use>
                  <path fill="none" stroke="white" stroke-width="1.5" d="M0,-3.0v7 M-2.5,-0.5L0,-3.0L2.5,-0.5"/>
                </g>
                <g id="arrowLeft" xlink:href="#dirArrow" transform="rotate(270) translate(-36 17)" onmousedown="handlePan(-1,0)">
                  <use xlink:href="#rim" fill="#404040">
                        <set attributeName="fill" to="#808080" begin="arrowLeft.mouseover" end="arrowLeft.mouseout"/>
                  </use>
                  <path fill="none" stroke="white" stroke-width="1.5" d="M0,-3.0v7 M-2.5,-0.5L0,-3.0L2.5,-0.5"/>
                </g>
        </g>
        <svg viewBox="0 0 15 15" width="100%" height="30px" preserveAspectRatio="xMaxYMin meet">
         <g id="arrow_out" transform="scale(0.3 0.3)">
          <a xlink:href="class_irene3000_a436fc0a06681cd0784aba56b9707f19a_cgraph_org.svg" target="_base">
           <rect id="button" ry="5" rx="5" y="6" x="6" height="38" width="38"
                fill="#f2f5e9" fill-opacity="0.5" stroke="#606060" stroke-width="1.0"/>
           <path id="arrow"
             d="M 11.500037,31.436501 C 11.940474,20.09759 22.043105,11.32322 32.158766,21.979434 L 37.068811,17.246167 C 37.068811,17.246167 37.088388,32 37.088388,32 L 22.160133,31.978069 C 22.160133,31.978069 26.997745,27.140456 26.997745,27.140456 C 18.528582,18.264221 13.291696,25.230495 11.500037,31.436501 z"
             style="fill:#404040;"/>
          </a>
         </g>
        </svg>
</svg>
