<?xml version="1.0" encoding="UTF-8" standalone="no"?>
<!DOCTYPE svg PUBLIC "-//W3C//DTD SVG 1.1//EN"
 "http://www.w3.org/Graphics/SVG/1.1/DTD/svg11.dtd">
<!-- Generated by graphviz version 2.38.0 (20140413.2041)
 -->
<!-- Title: CoolPubSubClient::subscribe Pages: 1 -->
<svg width="591pt" height="66pt"
 viewBox="0.00 0.00 591.00 66.00" xmlns="http://www.w3.org/2000/svg" xmlns:xlink="http://www.w3.org/1999/xlink">
<g id="graph0" class="graph" transform="scale(1 1) rotate(0) translate(4 62)">
<title>CoolPubSubClient::subscribe</title>
<polygon fill="white" stroke="none" points="-4,4 -4,-62 587,-62 587,4 -4,4"/>
<!-- Node201 -->
<g id="node1" class="node"><title>Node201</title>
<polygon fill="#bfbfbf" stroke="black" points="0,-19.5 0,-38.5 145,-38.5 145,-19.5 0,-19.5"/>
<text text-anchor="middle" x="72.5" y="-26.5" font-family="Helvetica,sans-Serif" font-size="10.00">CoolPubSubClient::subscribe</text>
</g>
<!-- Node202 -->
<g id="node2" class="node"><title>Node202</title>
<g id="a_node2"><a xlink:href="class_cool_m_q_t_t.html#a50075d0ab23a327ab897fd6adad20eda" target="_top" xlink:title="CoolMQTT::connect">
<polygon fill="white" stroke="black" points="181,-19.5 181,-38.5 286,-38.5 286,-19.5 181,-19.5"/>
<text text-anchor="middle" x="233.5" y="-26.5" font-family="Helvetica,sans-Serif" font-size="10.00">CoolMQTT::connect</text>
</a>
</g>
</g>
<!-- Node201&#45;&gt;Node202 -->
<g id="edge1" class="edge"><title>Node201&#45;&gt;Node202</title>
<path fill="none" stroke="midnightblue" d="M155.28,-29C163.965,-29 172.613,-29 180.81,-29"/>
<polygon fill="midnightblue" stroke="midnightblue" points="155.093,-25.5001 145.093,-29 155.093,-32.5001 155.093,-25.5001"/>
</g>
<!-- Node203 -->
<g id="node3" class="node"><title>Node203</title>
<g id="a_node3"><a xlink:href="class_cool_board.html#a519de78b807f8ec6463ff484eb925918" target="_top" xlink:title="CoolBoard::connect">
<polygon fill="white" stroke="black" points="322,-19.5 322,-38.5 425,-38.5 425,-19.5 322,-19.5"/>
<text text-anchor="middle" x="373.5" y="-26.5" font-family="Helvetica,sans-Serif" font-size="10.00">CoolBoard::connect</text>
</a>
</g>
</g>
<!-- Node202&#45;&gt;Node203 -->
<g id="edge2" class="edge"><title>Node202&#45;&gt;Node203</title>
<path fill="none" stroke="midnightblue" d="M296.5,-29C304.965,-29 313.573,-29 321.806,-29"/>
<polygon fill="midnightblue" stroke="midnightblue" points="296.279,-25.5001 286.279,-29 296.279,-32.5001 296.279,-25.5001"/>
</g>
<!-- Node204 -->
<g id="node4" class="node"><title>Node204</title>
<g id="a_node4"><a xlink:href="class_cool_board.html#acba7c5aef7268b2c0044bdb54d3b9d76" target="_top" xlink:title="CoolBoard::begin">
<polygon fill="white" stroke="black" points="476,-38.5 476,-57.5 568,-57.5 568,-38.5 476,-38.5"/>
<text text-anchor="middle" x="522" y="-45.5" font-family="Helvetica,sans-Serif" font-size="10.00">CoolBoard::begin</text>
</a>
</g>
</g>
<!-- Node203&#45;&gt;Node204 -->
<g id="edge3" class="edge"><title>Node203&#45;&gt;Node204</title>
<path fill="none" stroke="midnightblue" d="M435.472,-36.9076C448.924,-38.6522 462.944,-40.4706 475.648,-42.1182"/>
<polygon fill="midnightblue" stroke="midnightblue" points="435.695,-33.4073 425.327,-35.592 434.794,-40.3491 435.695,-33.4073"/>
</g>
<!-- Node205 -->
<g id="node5" class="node"><title>Node205</title>
<g id="a_node5"><a xlink:href="class_cool_board.html#ae6b5e1274d760462290192acea4adca8" target="_top" xlink:title="CoolBoard::offLineMode">
<polygon fill="white" stroke="black" points="461,-0.5 461,-19.5 583,-19.5 583,-0.5 461,-0.5"/>
<text text-anchor="middle" x="522" y="-7.5" font-family="Helvetica,sans-Serif" font-size="10.00">CoolBoard::offLineMode</text>
</a>
</g>
</g>
<!-- Node203&#45;&gt;Node205 -->
<g id="edge4" class="edge"><title>Node203&#45;&gt;Node205</title>
<path fill="none" stroke="midnightblue" d="M435.462,-21.0937C443.887,-20.001 452.535,-18.8794 460.943,-17.789"/>
<polygon fill="midnightblue" stroke="midnightblue" points="434.794,-17.6509 425.327,-22.408 435.695,-24.5927 434.794,-17.6509"/>
</g>
</g>
</svg>
