<?xml version="1.0" encoding="UTF-8" standalone="no"?>
<!DOCTYPE svg PUBLIC "-//W3C//DTD SVG 1.1//EN"
 "http://www.w3.org/Graphics/SVG/1.1/DTD/svg11.dtd">
<!-- Generated by graphviz version 2.38.0 (20140413.2041)
 -->
<!-- Title: BaseExternalSensor Pages: 1 -->
<!--zoomable 226 -->
<svg id="main" version="1.1" xmlns="http://www.w3.org/2000/svg" xmlns:xlink="http://www.w3.org/1999/xlink" xml:space="preserve" onload="init(evt)">
<style type="text/css"><![CDATA[
.edge:hover path { stroke: red; }
.edge:hover polygon { stroke: red; fill: red; }
]]></style>
<script type="text/javascript"><![CDATA[
var edges = document.getElementsByTagName('g');
if (edges && edges.length) {
  for (var i=0;i<edges.length;i++) {
    if (edges[i].id.substr(0,4)=='edge') {
      edges[i].setAttribute('class','edge');
    }
  }
}
]]></script>
        <defs>
                <circle id="rim" cx="0" cy="0" r="7"/>
                <circle id="rim2" cx="0" cy="0" r="3.5"/>
                <g id="zoomPlus">
                        <use xlink:href="#rim" fill="#404040">
                                <set attributeName="fill" to="#808080" begin="zoomplus.mouseover" end="zoomplus.mouseout"/>
                        </use>
                        <path d="M-4,0h8M0,-4v8" fill="none" stroke="white" stroke-width="1.5" pointer-events="none"/>
                </g>
                <g id="zoomMin">
                        <use xlink:href="#rim" fill="#404040">
                                <set attributeName="fill" to="#808080" begin="zoomminus.mouseover" end="zoomminus.mouseout"/>
                        </use>
                        <path d="M-4,0h8" fill="none" stroke="white" stroke-width="1.5" pointer-events="none"/>
                </g>
                <g id="dirArrow">
                        <path fill="none" stroke="white" stroke-width="1.5" d="M0,-3.0v7 M-2.5,-0.5L0,-3.0L2.5,-0.5"/>
                </g>
               <g id="resetDef">
                       <use xlink:href="#rim2" fill="#404040">
                               <set attributeName="fill" to="#808080" begin="reset.mouseover" end="reset.mouseout"/>
                       </use>
               </g>
        </defs>

<script type="text/javascript">
var viewWidth = 886;
var viewHeight = 226;
var sectionId = 'dynsection-0';
</script>
<script xlink:href="svgpan.js"/>
<svg id="graph" class="graph">
<g id="viewport">
<title>BaseExternalSensor</title>
<polygon fill="white" stroke="none" points="-4,4 -4,-222 881.5,-222 881.5,4 -4,4"/>
<!-- Node0 -->
<g id="node1" class="node"><title>Node0</title>
<polygon fill="#bfbfbf" stroke="black" points="344,-127.5 344,-217.5 465,-217.5 465,-127.5 344,-127.5"/>
<text text-anchor="middle" x="404.5" y="-205.5" font-family="Helvetica,sans-Serif" font-size="10.00">BaseExternalSensor</text>
<polyline fill="none" stroke="black" points="344,-198.5 465,-198.5 "/>
<text text-anchor="middle" x="404.5" y="-186.5" font-family="Helvetica,sans-Serif" font-size="10.00"> </text>
<polyline fill="none" stroke="black" points="344,-179.5 465,-179.5 "/>
<text text-anchor="start" x="352" y="-167.5" font-family="Helvetica,sans-Serif" font-size="10.00">+ BaseExternalSensor()</text>
<text text-anchor="start" x="352" y="-156.5" font-family="Helvetica,sans-Serif" font-size="10.00">+ begin()</text>
<text text-anchor="start" x="352" y="-145.5" font-family="Helvetica,sans-Serif" font-size="10.00">+ read()</text>
<text text-anchor="start" x="352" y="-134.5" font-family="Helvetica,sans-Serif" font-size="10.00">+ read()</text>
</g>
<!-- Node1 -->
<g id="node2" class="node"><title>Node1</title>
<g id="a_node2"><a xlink:href="class_external_sensor.html" target="_top" xlink:title="template&lt;class SensorClass&gt; class External Sensor: Derived class from BaseExternalSensor. ">
<polygon fill="white" stroke="black" points="0,-6 0,-85 107,-85 107,-6 0,-6"/>
<text text-anchor="middle" x="53.5" y="-73" font-family="Helvetica,sans-Serif" font-size="10.00">ExternalSensor&lt; T &gt;</text>
<polyline fill="none" stroke="black" points="0,-66 107,-66 "/>
<text text-anchor="start" x="8" y="-54" font-family="Helvetica,sans-Serif" font-size="10.00">&#45; sensor</text>
<polyline fill="none" stroke="black" points="0,-47 107,-47 "/>
<text text-anchor="start" x="8" y="-35" font-family="Helvetica,sans-Serif" font-size="10.00">+ ExternalSensor()</text>
<text text-anchor="start" x="8" y="-24" font-family="Helvetica,sans-Serif" font-size="10.00">+ begin()</text>
<text text-anchor="start" x="8" y="-13" font-family="Helvetica,sans-Serif" font-size="10.00">+ read()</text>
</a>
</g>
</g>
<!-- Node0&#45;&gt;Node1 -->
<g id="edge1" class="edge"><title>Node0&#45;&gt;Node1</title>
<path fill="none" stroke="midnightblue" d="M333.798,-158.797C273.973,-146.415 186.975,-124.503 116.5,-91 112.751,-89.2177 108.986,-87.2146 105.264,-85.0701"/>
<polygon fill="none" stroke="midnightblue" points="333.403,-162.288 343.9,-160.851 334.798,-155.429 333.403,-162.288"/>
</g>
<!-- Node2 -->
<g id="node3" class="node"><title>Node2</title>
<g id="a_node3"><a xlink:href="class_external_sensor_3_01_adafruit___a_d_s1015_01_4.html" target="_top" xlink:title="Adafruit_ADS1015 Specialization Class This is the template specialization for the Adafruit Analog I2C...">
<polygon fill="white" stroke="black" points="125.5,-0.5 125.5,-90.5 251.5,-90.5 251.5,-0.5 125.5,-0.5"/>
<text text-anchor="start" x="133.5" y="-78.5" font-family="Helvetica,sans-Serif" font-size="10.00">ExternalSensor&lt; Adafruit</text>
<text text-anchor="middle" x="188.5" y="-67.5" font-family="Helvetica,sans-Serif" font-size="10.00">_ADS1015 &gt;</text>
<polyline fill="none" stroke="black" points="125.5,-60.5 251.5,-60.5 "/>
<text text-anchor="start" x="133.5" y="-48.5" font-family="Helvetica,sans-Serif" font-size="10.00">&#45; sensor</text>
<polyline fill="none" stroke="black" points="125.5,-41.5 251.5,-41.5 "/>
<text text-anchor="start" x="133.5" y="-29.5" font-family="Helvetica,sans-Serif" font-size="10.00">+ ExternalSensor()</text>
<text text-anchor="start" x="133.5" y="-18.5" font-family="Helvetica,sans-Serif" font-size="10.00">+ begin()</text>
<text text-anchor="start" x="133.5" y="-7.5" font-family="Helvetica,sans-Serif" font-size="10.00">+ read()</text>
</a>
</g>
</g>
<!-- Node0&#45;&gt;Node2 -->
<g id="edge2" class="edge"><title>Node0&#45;&gt;Node2</title>
<path fill="none" stroke="midnightblue" d="M334.962,-133.433C311.215,-120.22 284.58,-105.163 260.5,-91 257.587,-89.2865 254.616,-87.5218 251.621,-85.7287"/>
<polygon fill="none" stroke="midnightblue" points="333.469,-136.607 343.911,-138.401 336.867,-130.487 333.469,-136.607"/>
</g>
<!-- Node3 -->
<g id="node4" class="node"><title>Node3</title>
<g id="a_node4"><a xlink:href="class_external_sensor_3_01_adafruit___a_d_s1115_01_4.html" target="_top" xlink:title="Adafruit_ADS1115 Specialization Class This is the template specialization for the Adafruit Analog I2C...">
<polygon fill="white" stroke="black" points="269.5,-0.5 269.5,-90.5 395.5,-90.5 395.5,-0.5 269.5,-0.5"/>
<text text-anchor="start" x="277.5" y="-78.5" font-family="Helvetica,sans-Serif" font-size="10.00">ExternalSensor&lt; Adafruit</text>
<text text-anchor="middle" x="332.5" y="-67.5" font-family="Helvetica,sans-Serif" font-size="10.00">_ADS1115 &gt;</text>
<polyline fill="none" stroke="black" points="269.5,-60.5 395.5,-60.5 "/>
<text text-anchor="start" x="277.5" y="-48.5" font-family="Helvetica,sans-Serif" font-size="10.00">&#45; sensor</text>
<polyline fill="none" stroke="black" points="269.5,-41.5 395.5,-41.5 "/>
<text text-anchor="start" x="277.5" y="-29.5" font-family="Helvetica,sans-Serif" font-size="10.00">+ ExternalSensor()</text>
<text text-anchor="start" x="277.5" y="-18.5" font-family="Helvetica,sans-Serif" font-size="10.00">+ begin()</text>
<text text-anchor="start" x="277.5" y="-7.5" font-family="Helvetica,sans-Serif" font-size="10.00">+ read()</text>
</a>
</g>
</g>
<!-- Node0&#45;&gt;Node3 -->
<g id="edge3" class="edge"><title>Node0&#45;&gt;Node3</title>
<path fill="none" stroke="midnightblue" d="M374.031,-118.602C368.657,-109.272 363.114,-99.6499 357.898,-90.5937"/>
<polygon fill="none" stroke="midnightblue" points="371.091,-120.511 379.115,-127.43 377.157,-117.017 371.091,-120.511"/>
</g>
<!-- Node4 -->
<g id="node5" class="node"><title>Node4</title>
<g id="a_node5"><a xlink:href="class_external_sensor_3_01_adafruit___t_c_s34725_01_4.html" target="_top" xlink:title="Adafruit_TCS34725 Specialization Class This is the template specialization for the Adafruit RGB Senso...">
<polygon fill="white" stroke="black" points="413.5,-0.5 413.5,-90.5 539.5,-90.5 539.5,-0.5 413.5,-0.5"/>
<text text-anchor="start" x="421.5" y="-78.5" font-family="Helvetica,sans-Serif" font-size="10.00">ExternalSensor&lt; Adafruit</text>
<text text-anchor="middle" x="476.5" y="-67.5" font-family="Helvetica,sans-Serif" font-size="10.00">_TCS34725 &gt;</text>
<polyline fill="none" stroke="black" points="413.5,-60.5 539.5,-60.5 "/>
<text text-anchor="start" x="421.5" y="-48.5" font-family="Helvetica,sans-Serif" font-size="10.00">&#45; sensor</text>
<polyline fill="none" stroke="black" points="413.5,-41.5 539.5,-41.5 "/>
<text text-anchor="start" x="421.5" y="-29.5" font-family="Helvetica,sans-Serif" font-size="10.00">+ ExternalSensor()</text>
<text text-anchor="start" x="421.5" y="-18.5" font-family="Helvetica,sans-Serif" font-size="10.00">+ begin()</text>
<text text-anchor="start" x="421.5" y="-7.5" font-family="Helvetica,sans-Serif" font-size="10.00">+ read()</text>
</a>
</g>
</g>
<!-- Node0&#45;&gt;Node4 -->
<g id="edge4" class="edge"><title>Node0&#45;&gt;Node4</title>
<path fill="none" stroke="midnightblue" d="M434.969,-118.602C440.343,-109.272 445.886,-99.6499 451.102,-90.5937"/>
<polygon fill="none" stroke="midnightblue" points="431.843,-117.017 429.885,-127.43 437.909,-120.511 431.843,-117.017"/>
</g>
<!-- Node5 -->
<g id="node6" class="node"><title>Node5</title>
<g id="a_node6"><a xlink:href="class_external_sensor_3_01_dallas_temperature_01_4.html" target="_top" xlink:title="DallasTemperature Specialization Class This is the template specialization for the Dallas Temperature...">
<polygon fill="white" stroke="black" points="557.5,-0.5 557.5,-90.5 741.5,-90.5 741.5,-0.5 557.5,-0.5"/>
<text text-anchor="middle" x="649.5" y="-78.5" font-family="Helvetica,sans-Serif" font-size="10.00">ExternalSensor&lt; DallasTemperature &gt;</text>
<polyline fill="none" stroke="black" points="557.5,-71.5 741.5,-71.5 "/>
<text text-anchor="start" x="565.5" y="-59.5" font-family="Helvetica,sans-Serif" font-size="10.00">&#45; sensor</text>
<text text-anchor="start" x="565.5" y="-48.5" font-family="Helvetica,sans-Serif" font-size="10.00">&#45; dallasAddress</text>
<polyline fill="none" stroke="black" points="557.5,-41.5 741.5,-41.5 "/>
<text text-anchor="start" x="565.5" y="-29.5" font-family="Helvetica,sans-Serif" font-size="10.00">+ ExternalSensor()</text>
<text text-anchor="start" x="565.5" y="-18.5" font-family="Helvetica,sans-Serif" font-size="10.00">+ begin()</text>
<text text-anchor="start" x="565.5" y="-7.5" font-family="Helvetica,sans-Serif" font-size="10.00">+ read()</text>
</a>
</g>
</g>
<!-- Node0&#45;&gt;Node5 -->
<g id="edge5" class="edge"><title>Node0&#45;&gt;Node5</title>
<path fill="none" stroke="midnightblue" d="M474.232,-135.922C501.804,-121.855 533.784,-105.539 562.82,-90.7242"/>
<polygon fill="none" stroke="midnightblue" points="472.379,-132.939 465.062,-140.601 475.56,-139.174 472.379,-132.939"/>
</g>
<!-- Node6 -->
<g id="node7" class="node"><title>Node6</title>
<g id="a_node7"><a xlink:href="class_external_sensor_3_01_n_d_i_r___i2_c_01_4.html" target="_top" xlink:title="NDIR_I2C Specialization Class This is the template specialization for the NDIR_I2C CO2 sensor...">
<polygon fill="white" stroke="black" points="759.5,-0.5 759.5,-90.5 877.5,-90.5 877.5,-0.5 759.5,-0.5"/>
<text text-anchor="start" x="767.5" y="-78.5" font-family="Helvetica,sans-Serif" font-size="10.00">ExternalSensor&lt; NDIR</text>
<text text-anchor="middle" x="818.5" y="-67.5" font-family="Helvetica,sans-Serif" font-size="10.00">_I2C &gt;</text>
<polyline fill="none" stroke="black" points="759.5,-60.5 877.5,-60.5 "/>
<text text-anchor="start" x="767.5" y="-48.5" font-family="Helvetica,sans-Serif" font-size="10.00">&#45; sensor</text>
<polyline fill="none" stroke="black" points="759.5,-41.5 877.5,-41.5 "/>
<text text-anchor="start" x="767.5" y="-29.5" font-family="Helvetica,sans-Serif" font-size="10.00">+ ExternalSensor()</text>
<text text-anchor="start" x="767.5" y="-18.5" font-family="Helvetica,sans-Serif" font-size="10.00">+ begin()</text>
<text text-anchor="start" x="767.5" y="-7.5" font-family="Helvetica,sans-Serif" font-size="10.00">+ read()</text>
</a>
</g>
</g>
<!-- Node0&#45;&gt;Node6 -->
<g id="edge6" class="edge"><title>Node0&#45;&gt;Node6</title>
<path fill="none" stroke="midnightblue" d="M475.531,-162.421C547.118,-151.574 659.696,-129.823 750.5,-91 753.484,-89.7243 756.48,-88.3186 759.463,-86.8166"/>
<polygon fill="none" stroke="midnightblue" points="474.652,-159.013 465.274,-163.942 475.679,-165.937 474.652,-159.013"/>
</g>
</g>
</svg>
        <g id="navigator" transform="translate(0 0)" fill="#404254">
                <rect fill="#f2f5e9" fill-opacity="0.5" stroke="#606060" stroke-width=".5" x="0" y="0" width="60" height="60"/>
                <use id="zoomplus" xlink:href="#zoomPlus" x="17" y="9" onmousedown="handleZoom(evt,'in')"/>
                <use id="zoomminus" xlink:href="#zoomMin" x="42" y="9" onmousedown="handleZoom(evt,'out')"/>
                <use id="reset" xlink:href="#resetDef" x="30" y="36" onmousedown="handleReset()"/>
                <g id="arrowUp" xlink:href="#dirArrow" transform="translate(30 24)" onmousedown="handlePan(0,-1)">
                  <use xlink:href="#rim" fill="#404040">
                        <set attributeName="fill" to="#808080" begin="arrowUp.mouseover" end="arrowUp.mouseout"/>
                  </use>
                  <path fill="none" stroke="white" stroke-width="1.5" d="M0,-3.0v7 M-2.5,-0.5L0,-3.0L2.5,-0.5"/>
                </g>
                <g id="arrowRight" xlink:href="#dirArrow" transform="rotate(90) translate(36 -43)" onmousedown="handlePan(1,0)">
                  <use xlink:href="#rim" fill="#404040">
                        <set attributeName="fill" to="#808080" begin="arrowRight.mouseover" end="arrowRight.mouseout"/>
                  </use>
                  <path fill="none" stroke="white" stroke-width="1.5" d="M0,-3.0v7 M-2.5,-0.5L0,-3.0L2.5,-0.5"/>
                </g>
                <g id="arrowDown" xlink:href="#dirArrow" transform="rotate(180) translate(-30 -48)" onmousedown="handlePan(0,1)">
                  <use xlink:href="#rim" fill="#404040">
                        <set attributeName="fill" to="#808080" begin="arrowDown.mouseover" end="arrowDown.mouseout"/>
                  </use>
                  <path fill="none" stroke="white" stroke-width="1.5" d="M0,-3.0v7 M-2.5,-0.5L0,-3.0L2.5,-0.5"/>
                </g>
                <g id="arrowLeft" xlink:href="#dirArrow" transform="rotate(270) translate(-36 17)" onmousedown="handlePan(-1,0)">
                  <use xlink:href="#rim" fill="#404040">
                        <set attributeName="fill" to="#808080" begin="arrowLeft.mouseover" end="arrowLeft.mouseout"/>
                  </use>
                  <path fill="none" stroke="white" stroke-width="1.5" d="M0,-3.0v7 M-2.5,-0.5L0,-3.0L2.5,-0.5"/>
                </g>
        </g>
        <svg viewBox="0 0 15 15" width="100%" height="30px" preserveAspectRatio="xMaxYMin meet">
         <g id="arrow_out" transform="scale(0.3 0.3)">
          <a xlink:href="class_base_external_sensor__inherit__graph_org.svg" target="_base">
           <rect id="button" ry="5" rx="5" y="6" x="6" height="38" width="38"
                fill="#f2f5e9" fill-opacity="0.5" stroke="#606060" stroke-width="1.0"/>
           <path id="arrow"
             d="M 11.500037,31.436501 C 11.940474,20.09759 22.043105,11.32322 32.158766,21.979434 L 37.068811,17.246167 C 37.068811,17.246167 37.088388,32 37.088388,32 L 22.160133,31.978069 C 22.160133,31.978069 26.997745,27.140456 26.997745,27.140456 C 18.528582,18.264221 13.291696,25.230495 11.500037,31.436501 z"
             style="fill:#404040;"/>
          </a>
         </g>
        </svg>
</svg>
