<?xml version="1.0" encoding="UTF-8" standalone="no"?>
<!DOCTYPE svg PUBLIC "-//W3C//DTD SVG 1.1//EN"
 "http://www.w3.org/Graphics/SVG/1.1/DTD/svg11.dtd">
<!-- Generated by graphviz version 2.38.0 (20140413.2041)
 -->
<!-- Title: BME280::readRegister Pages: 1 -->
<!--zoomable 104 -->
<svg id="main" version="1.1" xmlns="http://www.w3.org/2000/svg" xmlns:xlink="http://www.w3.org/1999/xlink" xml:space="preserve" onload="init(evt)">
<style type="text/css"><![CDATA[
.edge:hover path { stroke: red; }
.edge:hover polygon { stroke: red; fill: red; }
]]></style>
<script type="text/javascript"><![CDATA[
var edges = document.getElementsByTagName('g');
if (edges && edges.length) {
  for (var i=0;i<edges.length;i++) {
    if (edges[i].id.substr(0,4)=='edge') {
      edges[i].setAttribute('class','edge');
    }
  }
}
]]></script>
        <defs>
                <circle id="rim" cx="0" cy="0" r="7"/>
                <circle id="rim2" cx="0" cy="0" r="3.5"/>
                <g id="zoomPlus">
                        <use xlink:href="#rim" fill="#404040">
                                <set attributeName="fill" to="#808080" begin="zoomplus.mouseover" end="zoomplus.mouseout"/>
                        </use>
                        <path d="M-4,0h8M0,-4v8" fill="none" stroke="white" stroke-width="1.5" pointer-events="none"/>
                </g>
                <g id="zoomMin">
                        <use xlink:href="#rim" fill="#404040">
                                <set attributeName="fill" to="#808080" begin="zoomminus.mouseover" end="zoomminus.mouseout"/>
                        </use>
                        <path d="M-4,0h8" fill="none" stroke="white" stroke-width="1.5" pointer-events="none"/>
                </g>
                <g id="dirArrow">
                        <path fill="none" stroke="white" stroke-width="1.5" d="M0,-3.0v7 M-2.5,-0.5L0,-3.0L2.5,-0.5"/>
                </g>
               <g id="resetDef">
                       <use xlink:href="#rim2" fill="#404040">
                               <set attributeName="fill" to="#808080" begin="reset.mouseover" end="reset.mouseout"/>
                       </use>
               </g>
        </defs>

<script type="text/javascript">
var viewWidth = 605;
var viewHeight = 104;
var sectionId = 'dynsection-10';
</script>
<script xlink:href="svgpan.js"/>
<svg id="graph" class="graph">
<g id="viewport">
<title>BME280::readRegister</title>
<polygon fill="white" stroke="none" points="-4,4 -4,-100 601,-100 601,4 -4,4"/>
<!-- Node35 -->
<g id="node1" class="node"><title>Node35</title>
<polygon fill="#bfbfbf" stroke="black" points="0,-19.5 0,-38.5 116,-38.5 116,-19.5 0,-19.5"/>
<text text-anchor="middle" x="58" y="-26.5" font-family="Helvetica,sans-Serif" font-size="10.00">BME280::readRegister</text>
</g>
<!-- Node36 -->
<g id="node2" class="node"><title>Node36</title>
<g id="a_node2"><a xlink:href="class_cool_board_sensors.html#a91badb2539d91fda8679f2a597874c48" target="_top" xlink:title="CoolBoardSensors::read">
<polygon fill="white" stroke="black" points="152,-38.5 152,-57.5 275,-57.5 275,-38.5 152,-38.5"/>
<text text-anchor="middle" x="213.5" y="-45.5" font-family="Helvetica,sans-Serif" font-size="10.00">CoolBoardSensors::read</text>
</a>
</g>
</g>
<!-- Node35&#45;&gt;Node36 -->
<g id="edge1" class="edge"><title>Node35&#45;&gt;Node36</title>
<path fill="none" stroke="midnightblue" d="M126.138,-37.3103C134.727,-38.3733 143.478,-39.4566 151.953,-40.5056"/>
<polygon fill="midnightblue" stroke="midnightblue" points="126.512,-33.8299 116.158,-36.0749 125.652,-40.7769 126.512,-33.8299"/>
</g>
<!-- Node40 -->
<g id="node6" class="node"><title>Node40</title>
<g id="a_node6"><a xlink:href="class_b_m_e280.html#a994c102f010547f9c740a338ef9905c7" target="_top" xlink:title="BME280::begin">
<polygon fill="white" stroke="black" points="172,-0.5 172,-19.5 255,-19.5 255,-0.5 172,-0.5"/>
<text text-anchor="middle" x="213.5" y="-7.5" font-family="Helvetica,sans-Serif" font-size="10.00">BME280::begin</text>
</a>
</g>
</g>
<!-- Node35&#45;&gt;Node40 -->
<g id="edge5" class="edge"><title>Node35&#45;&gt;Node40</title>
<path fill="none" stroke="midnightblue" d="M126.212,-20.6806C141.668,-18.7675 157.647,-16.7896 171.592,-15.0636"/>
<polygon fill="midnightblue" stroke="midnightblue" points="125.652,-17.2231 116.158,-21.9251 126.512,-24.1701 125.652,-17.2231"/>
</g>
<!-- Node37 -->
<g id="node3" class="node"><title>Node37</title>
<g id="a_node3"><a xlink:href="class_cool_board.html#ad03abdce2e65f520bbf2cff0f2d083cf" target="_top" xlink:title="CoolBoard::readSensors">
<polygon fill="white" stroke="black" points="313.5,-38.5 313.5,-57.5 436.5,-57.5 436.5,-38.5 313.5,-38.5"/>
<text text-anchor="middle" x="375" y="-45.5" font-family="Helvetica,sans-Serif" font-size="10.00">CoolBoard::readSensors</text>
</a>
</g>
</g>
<!-- Node36&#45;&gt;Node37 -->
<g id="edge2" class="edge"><title>Node36&#45;&gt;Node37</title>
<path fill="none" stroke="midnightblue" d="M285.332,-48C294.702,-48 304.238,-48 313.414,-48"/>
<polygon fill="midnightblue" stroke="midnightblue" points="285.255,-44.5001 275.255,-48 285.255,-51.5001 285.255,-44.5001"/>
</g>
<!-- Node38 -->
<g id="node4" class="node"><title>Node38</title>
<g id="a_node4"><a xlink:href="class_cool_board.html#aa0bbc4bc605e35618d18e68795c61363" target="_top" xlink:title="CoolBoard::onLineMode">
<polygon fill="white" stroke="black" points="475.5,-76.5 475.5,-95.5 596.5,-95.5 596.5,-76.5 475.5,-76.5"/>
<text text-anchor="middle" x="536" y="-83.5" font-family="Helvetica,sans-Serif" font-size="10.00">CoolBoard::onLineMode</text>
</a>
</g>
</g>
<!-- Node37&#45;&gt;Node38 -->
<g id="edge3" class="edge"><title>Node37&#45;&gt;Node38</title>
<path fill="none" stroke="midnightblue" d="M426.077,-59.968C448.358,-65.2931 474.229,-71.4762 495.166,-76.4799"/>
<polygon fill="midnightblue" stroke="midnightblue" points="426.662,-56.5094 416.122,-57.589 425.035,-63.3177 426.662,-56.5094"/>
</g>
<!-- Node39 -->
<g id="node5" class="node"><title>Node39</title>
<g id="a_node5"><a xlink:href="class_cool_board.html#ae6b5e1274d760462290192acea4adca8" target="_top" xlink:title="CoolBoard::offLineMode">
<polygon fill="white" stroke="black" points="475,-38.5 475,-57.5 597,-57.5 597,-38.5 475,-38.5"/>
<text text-anchor="middle" x="536" y="-45.5" font-family="Helvetica,sans-Serif" font-size="10.00">CoolBoard::offLineMode</text>
</a>
</g>
</g>
<!-- Node37&#45;&gt;Node39 -->
<g id="edge4" class="edge"><title>Node37&#45;&gt;Node39</title>
<path fill="none" stroke="midnightblue" d="M446.681,-48C456.088,-48 465.662,-48 474.867,-48"/>
<polygon fill="midnightblue" stroke="midnightblue" points="446.565,-44.5001 436.565,-48 446.565,-51.5001 446.565,-44.5001"/>
</g>
<!-- Node41 -->
<g id="node7" class="node"><title>Node41</title>
<g id="a_node7"><a xlink:href="class_cool_board_sensors.html#a97095823ef7c8f5290812f1405b966b3" target="_top" xlink:title="CoolBoardSensors::begin">
<polygon fill="white" stroke="black" points="311,-0.5 311,-19.5 439,-19.5 439,-0.5 311,-0.5"/>
<text text-anchor="middle" x="375" y="-7.5" font-family="Helvetica,sans-Serif" font-size="10.00">CoolBoardSensors::begin</text>
</a>
</g>
</g>
<!-- Node40&#45;&gt;Node41 -->
<g id="edge6" class="edge"><title>Node40&#45;&gt;Node41</title>
<path fill="none" stroke="midnightblue" d="M265.381,-10C279.815,-10 295.707,-10 310.776,-10"/>
<polygon fill="midnightblue" stroke="midnightblue" points="265.161,-6.5001 255.161,-10 265.161,-13.5001 265.161,-6.5001"/>
</g>
<!-- Node42 -->
<g id="node8" class="node"><title>Node42</title>
<g id="a_node8"><a xlink:href="class_cool_board.html#acba7c5aef7268b2c0044bdb54d3b9d76" target="_top" xlink:title="CoolBoard::begin">
<polygon fill="white" stroke="black" points="490,-0.5 490,-19.5 582,-19.5 582,-0.5 490,-0.5"/>
<text text-anchor="middle" x="536" y="-7.5" font-family="Helvetica,sans-Serif" font-size="10.00">CoolBoard::begin</text>
</a>
</g>
</g>
<!-- Node41&#45;&gt;Node42 -->
<g id="edge7" class="edge"><title>Node41&#45;&gt;Node42</title>
<path fill="none" stroke="midnightblue" d="M449.634,-10C463.244,-10 477.085,-10 489.548,-10"/>
<polygon fill="midnightblue" stroke="midnightblue" points="449.298,-6.5001 439.298,-10 449.298,-13.5001 449.298,-6.5001"/>
</g>
</g>
</svg>
        <g id="navigator" transform="translate(0 0)" fill="#404254">
                <rect fill="#f2f5e9" fill-opacity="0.5" stroke="#606060" stroke-width=".5" x="0" y="0" width="60" height="60"/>
                <use id="zoomplus" xlink:href="#zoomPlus" x="17" y="9" onmousedown="handleZoom(evt,'in')"/>
                <use id="zoomminus" xlink:href="#zoomMin" x="42" y="9" onmousedown="handleZoom(evt,'out')"/>
                <use id="reset" xlink:href="#resetDef" x="30" y="36" onmousedown="handleReset()"/>
                <g id="arrowUp" xlink:href="#dirArrow" transform="translate(30 24)" onmousedown="handlePan(0,-1)">
                  <use xlink:href="#rim" fill="#404040">
                        <set attributeName="fill" to="#808080" begin="arrowUp.mouseover" end="arrowUp.mouseout"/>
                  </use>
                  <path fill="none" stroke="white" stroke-width="1.5" d="M0,-3.0v7 M-2.5,-0.5L0,-3.0L2.5,-0.5"/>
                </g>
                <g id="arrowRight" xlink:href="#dirArrow" transform="rotate(90) translate(36 -43)" onmousedown="handlePan(1,0)">
                  <use xlink:href="#rim" fill="#404040">
                        <set attributeName="fill" to="#808080" begin="arrowRight.mouseover" end="arrowRight.mouseout"/>
                  </use>
                  <path fill="none" stroke="white" stroke-width="1.5" d="M0,-3.0v7 M-2.5,-0.5L0,-3.0L2.5,-0.5"/>
                </g>
                <g id="arrowDown" xlink:href="#dirArrow" transform="rotate(180) translate(-30 -48)" onmousedown="handlePan(0,1)">
                  <use xlink:href="#rim" fill="#404040">
                        <set attributeName="fill" to="#808080" begin="arrowDown.mouseover" end="arrowDown.mouseout"/>
                  </use>
                  <path fill="none" stroke="white" stroke-width="1.5" d="M0,-3.0v7 M-2.5,-0.5L0,-3.0L2.5,-0.5"/>
                </g>
                <g id="arrowLeft" xlink:href="#dirArrow" transform="rotate(270) translate(-36 17)" onmousedown="handlePan(-1,0)">
                  <use xlink:href="#rim" fill="#404040">
                        <set attributeName="fill" to="#808080" begin="arrowLeft.mouseover" end="arrowLeft.mouseout"/>
                  </use>
                  <path fill="none" stroke="white" stroke-width="1.5" d="M0,-3.0v7 M-2.5,-0.5L0,-3.0L2.5,-0.5"/>
                </g>
        </g>
        <svg viewBox="0 0 15 15" width="100%" height="30px" preserveAspectRatio="xMaxYMin meet">
         <g id="arrow_out" transform="scale(0.3 0.3)">
          <a xlink:href="class_b_m_e280_a1bbd14c8591966df531e40085342ff71_icgraph_org.svg" target="_base">
           <rect id="button" ry="5" rx="5" y="6" x="6" height="38" width="38"
                fill="#f2f5e9" fill-opacity="0.5" stroke="#606060" stroke-width="1.0"/>
           <path id="arrow"
             d="M 11.500037,31.436501 C 11.940474,20.09759 22.043105,11.32322 32.158766,21.979434 L 37.068811,17.246167 C 37.068811,17.246167 37.088388,32 37.088388,32 L 22.160133,31.978069 C 22.160133,31.978069 26.997745,27.140456 26.997745,27.140456 C 18.528582,18.264221 13.291696,25.230495 11.500037,31.436501 z"
             style="fill:#404040;"/>
          </a>
         </g>
        </svg>
</svg>
