<?xml version="1.0" encoding="UTF-8" standalone="no"?>
<!DOCTYPE svg PUBLIC "-//W3C//DTD SVG 1.1//EN"
 "http://www.w3.org/Graphics/SVG/1.1/DTD/svg11.dtd">
<!-- Generated by graphviz version 2.38.0 (20140413.2041)
 -->
<!-- Title: CoolBoardLed::fadeOut Pages: 1 -->
<svg width="444pt" height="200pt"
 viewBox="0.00 0.00 444.00 200.34" xmlns="http://www.w3.org/2000/svg" xmlns:xlink="http://www.w3.org/1999/xlink">
<g id="graph0" class="graph" transform="scale(1 1) rotate(0) translate(4 196.344)">
<title>CoolBoardLed::fadeOut</title>
<polygon fill="white" stroke="none" points="-4,4 -4,-196.344 440,-196.344 440,4 -4,4"/>
<!-- Node29 -->
<g id="node1" class="node"><title>Node29</title>
<polygon fill="#bfbfbf" stroke="black" points="0,-77.8443 0,-96.8443 119,-96.8443 119,-77.8443 0,-77.8443"/>
<text text-anchor="middle" x="59.5" y="-84.8443" font-family="Helvetica,sans-Serif" font-size="10.00">CoolBoardLed::fadeOut</text>
</g>
<!-- Node30 -->
<g id="node2" class="node"><title>Node30</title>
<g id="a_node2"><a xlink:href="class_cool_board.html#acba7c5aef7268b2c0044bdb54d3b9d76" target="_top" xlink:title="CoolBoard::begin">
<polygon fill="white" stroke="black" points="170.5,-172.844 170.5,-191.844 262.5,-191.844 262.5,-172.844 170.5,-172.844"/>
<text text-anchor="middle" x="216.5" y="-179.844" font-family="Helvetica,sans-Serif" font-size="10.00">CoolBoard::begin</text>
</a>
</g>
</g>
<!-- Node29&#45;&gt;Node30 -->
<g id="edge1" class="edge"><title>Node29&#45;&gt;Node30</title>
<path fill="none" stroke="midnightblue" d="M78.7679,-103.417C97.0918,-118.953 126.594,-142.418 155,-158.344 164.955,-163.926 176.472,-168.839 186.769,-172.742"/>
<polygon fill="midnightblue" stroke="midnightblue" points="81.0439,-100.758 71.1796,-96.8916 76.4799,-106.065 81.0439,-100.758"/>
</g>
<!-- Node31 -->
<g id="node3" class="node"><title>Node31</title>
<g id="a_node3"><a xlink:href="class_cool_board.html#aa0bbc4bc605e35618d18e68795c61363" target="_top" xlink:title="CoolBoard::onLineMode">
<polygon fill="white" stroke="black" points="314.5,-20.8443 314.5,-39.8443 435.5,-39.8443 435.5,-20.8443 314.5,-20.8443"/>
<text text-anchor="middle" x="375" y="-27.8443" font-family="Helvetica,sans-Serif" font-size="10.00">CoolBoard::onLineMode</text>
</a>
</g>
</g>
<!-- Node29&#45;&gt;Node31 -->
<g id="edge2" class="edge"><title>Node29&#45;&gt;Node31</title>
<path fill="none" stroke="midnightblue" d="M74.9883,-70.2015C91.9509,-51.5943 121.961,-22.9817 155,-11.3443 220.693,11.7945 304.021,-7.71363 346.454,-20.8229"/>
<polygon fill="midnightblue" stroke="midnightblue" points="72.346,-67.9061 68.3475,-77.7174 77.5917,-72.541 72.346,-67.9061"/>
</g>
<!-- Node32 -->
<g id="node4" class="node"><title>Node32</title>
<g id="a_node4"><a xlink:href="class_cool_board.html#ae6b5e1274d760462290192acea4adca8" target="_top" xlink:title="CoolBoard::offLineMode">
<polygon fill="white" stroke="black" points="314,-115.844 314,-134.844 436,-134.844 436,-115.844 314,-115.844"/>
<text text-anchor="middle" x="375" y="-122.844" font-family="Helvetica,sans-Serif" font-size="10.00">CoolBoard::offLineMode</text>
</a>
</g>
</g>
<!-- Node29&#45;&gt;Node32 -->
<g id="edge3" class="edge"><title>Node29&#45;&gt;Node32</title>
<path fill="none" stroke="midnightblue" d="M87.3158,-101.34C105.786,-110.166 131.198,-120.738 155,-125.344 208.006,-135.602 269.59,-134.48 313.927,-131.447"/>
<polygon fill="midnightblue" stroke="midnightblue" points="88.8532,-98.1961 78.3349,-96.9247 85.7646,-104.478 88.8532,-98.1961"/>
</g>
<!-- Node33 -->
<g id="node5" class="node"><title>Node33</title>
<g id="a_node5"><a xlink:href="class_cool_board.html#a583a874c09c07e70a6eb9229fc4beddb" target="_top" xlink:title="CoolBoard::config">
<polygon fill="white" stroke="black" points="169,-58.8443 169,-77.8443 264,-77.8443 264,-58.8443 169,-58.8443"/>
<text text-anchor="middle" x="216.5" y="-65.8443" font-family="Helvetica,sans-Serif" font-size="10.00">CoolBoard::config</text>
</a>
</g>
</g>
<!-- Node29&#45;&gt;Node33 -->
<g id="edge4" class="edge"><title>Node29&#45;&gt;Node33</title>
<path fill="none" stroke="midnightblue" d="M129.252,-78.9167C142.655,-77.2737 156.411,-75.5875 168.89,-74.0578"/>
<polygon fill="midnightblue" stroke="midnightblue" points="128.599,-75.4705 119.099,-80.1612 129.45,-82.4185 128.599,-75.4705"/>
</g>
<!-- Node34 -->
<g id="node6" class="node"><title>Node34</title>
<g id="a_node6"><a xlink:href="class_cool_board.html#a8612756d3f73198cdde857a66f0fe690" target="_top" xlink:title="CoolBoard::update">
<polygon fill="white" stroke="black" points="167.5,-20.8443 167.5,-39.8443 265.5,-39.8443 265.5,-20.8443 167.5,-20.8443"/>
<text text-anchor="middle" x="216.5" y="-27.8443" font-family="Helvetica,sans-Serif" font-size="10.00">CoolBoard::update</text>
</a>
</g>
</g>
<!-- Node29&#45;&gt;Node34 -->
<g id="edge5" class="edge"><title>Node29&#45;&gt;Node34</title>
<path fill="none" stroke="midnightblue" d="M92.1308,-73.9066C110.376,-66.3369 133.828,-56.9125 155,-49.3443 164.123,-46.0832 174.123,-42.819 183.318,-39.9392"/>
<polygon fill="midnightblue" stroke="midnightblue" points="90.7201,-70.7028 82.8417,-77.7868 93.4181,-77.1619 90.7201,-70.7028"/>
</g>
<!-- Node35 -->
<g id="node7" class="node"><title>Node35</title>
<g id="a_node7"><a xlink:href="class_cool_board.html#ad03abdce2e65f520bbf2cff0f2d083cf" target="_top" xlink:title="CoolBoard::readSensors">
<polygon fill="white" stroke="black" points="155,-96.8443 155,-115.844 278,-115.844 278,-96.8443 155,-96.8443"/>
<text text-anchor="middle" x="216.5" y="-103.844" font-family="Helvetica,sans-Serif" font-size="10.00">CoolBoard::readSensors</text>
</a>
</g>
</g>
<!-- Node29&#45;&gt;Node35 -->
<g id="edge7" class="edge"><title>Node29&#45;&gt;Node35</title>
<path fill="none" stroke="midnightblue" d="M129.055,-95.7478C137.616,-96.7972 146.324,-97.8647 154.754,-98.8981"/>
<polygon fill="midnightblue" stroke="midnightblue" points="129.45,-92.2702 119.099,-94.5274 128.599,-99.2182 129.45,-92.2702"/>
</g>
<!-- Node34&#45;&gt;Node31 -->
<g id="edge6" class="edge"><title>Node34&#45;&gt;Node31</title>
<path fill="none" stroke="midnightblue" d="M276.041,-30.3443C288.551,-30.3443 301.781,-30.3443 314.333,-30.3443"/>
<polygon fill="midnightblue" stroke="midnightblue" points="275.732,-26.8444 265.732,-30.3443 275.732,-33.8444 275.732,-26.8444"/>
</g>
<!-- Node35&#45;&gt;Node31 -->
<g id="edge8" class="edge"><title>Node35&#45;&gt;Node31</title>
<path fill="none" stroke="midnightblue" d="M262.214,-93.5963C267.603,-91.6819 272.974,-89.5892 278,-87.3443 308.795,-73.5903 342.077,-52.2006 360.24,-39.9089"/>
<polygon fill="midnightblue" stroke="midnightblue" points="260.926,-90.3369 252.565,-96.844 263.159,-96.9712 260.926,-90.3369"/>
</g>
<!-- Node35&#45;&gt;Node32 -->
<g id="edge9" class="edge"><title>Node35&#45;&gt;Node32</title>
<path fill="none" stroke="midnightblue" d="M288.059,-114.911C296.692,-115.959 305.452,-117.022 313.912,-118.049"/>
<polygon fill="midnightblue" stroke="midnightblue" points="288.356,-111.421 278.007,-113.69 287.512,-118.37 288.356,-111.421"/>
</g>
</g>
</svg>
