<?xml version="1.0" encoding="UTF-8" standalone="no"?>
<!DOCTYPE svg PUBLIC "-//W3C//DTD SVG 1.1//EN"
 "http://www.w3.org/Graphics/SVG/1.1/DTD/svg11.dtd">
<!-- Generated by graphviz version 2.38.0 (20140413.2041)
 -->
<!-- Title: WiFiManager::handleWifiSave Pages: 1 -->
<svg width="490pt" height="39pt"
 viewBox="0.00 0.00 490.00 39.00" xmlns="http://www.w3.org/2000/svg" xmlns:xlink="http://www.w3.org/1999/xlink">
<g id="graph0" class="graph" transform="scale(1 1) rotate(0) translate(4 35)">
<title>WiFiManager::handleWifiSave</title>
<polygon fill="white" stroke="none" points="-4,4 -4,-35 486,-35 486,4 -4,4"/>
<!-- Node111 -->
<g id="node1" class="node"><title>Node111</title>
<polygon fill="#bfbfbf" stroke="black" points="0,-6 0,-25 149,-25 149,-6 0,-6"/>
<text text-anchor="middle" x="74.5" y="-13" font-family="Helvetica,sans-Serif" font-size="10.00">WiFiManager::handleWifiSave</text>
</g>
<!-- Node112 -->
<g id="node2" class="node"><title>Node112</title>
<g id="a_node2"><a xlink:href="class_wi_fi_manager.html#a1743325d0dd86d011df96b22d2a0ddd6" target="_top" xlink:title="WiFiManager::setupConfig\lPortal">
<polygon fill="white" stroke="black" points="185,-0.5 185,-30.5 318,-30.5 318,-0.5 185,-0.5"/>
<text text-anchor="start" x="193" y="-18.5" font-family="Helvetica,sans-Serif" font-size="10.00">WiFiManager::setupConfig</text>
<text text-anchor="middle" x="251.5" y="-7.5" font-family="Helvetica,sans-Serif" font-size="10.00">Portal</text>
</a>
</g>
</g>
<!-- Node111&#45;&gt;Node112 -->
<g id="edge1" class="edge"><title>Node111&#45;&gt;Node112</title>
<path fill="none" stroke="midnightblue" d="M159.28,-15.5C167.896,-15.5 176.56,-15.5 184.937,-15.5"/>
<polygon fill="midnightblue" stroke="midnightblue" points="159.209,-12.0001 149.209,-15.5 159.209,-19.0001 159.209,-12.0001"/>
</g>
<!-- Node113 -->
<g id="node3" class="node"><title>Node113</title>
<g id="a_node3"><a xlink:href="class_wi_fi_manager.html#afaca5021edffb4d9a5bd39f7b0f7a686" target="_top" xlink:title="WiFiManager::startConfig\lPortal">
<polygon fill="white" stroke="black" points="354,-0.5 354,-30.5 482,-30.5 482,-0.5 354,-0.5"/>
<text text-anchor="start" x="362" y="-18.5" font-family="Helvetica,sans-Serif" font-size="10.00">WiFiManager::startConfig</text>
<text text-anchor="middle" x="418" y="-7.5" font-family="Helvetica,sans-Serif" font-size="10.00">Portal</text>
</a>
</g>
</g>
<!-- Node112&#45;&gt;Node113 -->
<g id="edge2" class="edge"><title>Node112&#45;&gt;Node113</title>
<path fill="none" stroke="midnightblue" d="M328.706,-15.5C337.16,-15.5 345.699,-15.5 353.964,-15.5"/>
<polygon fill="midnightblue" stroke="midnightblue" points="328.461,-12.0001 318.461,-15.5 328.461,-19.0001 328.461,-12.0001"/>
</g>
</g>
</svg>
