<?xml version="1.0" encoding="UTF-8" standalone="no"?>
<!DOCTYPE svg PUBLIC "-//W3C//DTD SVG 1.1//EN"
 "http://www.w3.org/Graphics/SVG/1.1/DTD/svg11.dtd">
<!-- Generated by graphviz version 2.38.0 (20140413.2041)
 -->
<!-- Title: NDIR_I2C::begin Pages: 1 -->
<svg width="544pt" height="142pt"
 viewBox="0.00 0.00 544.00 142.00" xmlns="http://www.w3.org/2000/svg" xmlns:xlink="http://www.w3.org/1999/xlink">
<g id="graph0" class="graph" transform="scale(1 1) rotate(0) translate(4 138)">
<title>NDIR_I2C::begin</title>
<polygon fill="white" stroke="none" points="-4,4 -4,-138 540,-138 540,4 -4,4"/>
<!-- Node2 -->
<g id="node1" class="node"><title>Node2</title>
<polygon fill="#bfbfbf" stroke="black" points="0,-114.5 0,-133.5 92,-133.5 92,-114.5 0,-114.5"/>
<text text-anchor="middle" x="46" y="-121.5" font-family="Helvetica,sans-Serif" font-size="10.00">NDIR_I2C::begin</text>
</g>
<!-- Node3 -->
<g id="node2" class="node"><title>Node3</title>
<g id="a_node2"><a xlink:href="class_n_d_i_r___i2_c.html#a5de6a044b00e985f035edca07521e319" target="_top" xlink:title="NDIR_I2C::write_register">
<polygon fill="white" stroke="black" points="408,-114.5 408,-133.5 536,-133.5 536,-114.5 408,-114.5"/>
<text text-anchor="middle" x="472" y="-121.5" font-family="Helvetica,sans-Serif" font-size="10.00">NDIR_I2C::write_register</text>
</a>
</g>
</g>
<!-- Node2&#45;&gt;Node3 -->
<g id="edge1" class="edge"><title>Node2&#45;&gt;Node3</title>
<path fill="none" stroke="midnightblue" d="M92.3754,-124C165.43,-124 309.796,-124 397.629,-124"/>
<polygon fill="midnightblue" stroke="midnightblue" points="397.788,-127.5 407.788,-124 397.788,-120.5 397.788,-127.5"/>
</g>
<!-- Node4 -->
<g id="node3" class="node"><title>Node4</title>
<g id="a_node3"><a xlink:href="class_n_d_i_r___i2_c.html#ab8f50d38501d498b802b822bd4844ede" target="_top" xlink:title="NDIR_I2C::measure">
<polygon fill="white" stroke="black" points="128,-76.5 128,-95.5 235,-95.5 235,-76.5 128,-76.5"/>
<text text-anchor="middle" x="181.5" y="-83.5" font-family="Helvetica,sans-Serif" font-size="10.00">NDIR_I2C::measure</text>
</a>
</g>
</g>
<!-- Node2&#45;&gt;Node4 -->
<g id="edge2" class="edge"><title>Node2&#45;&gt;Node4</title>
<path fill="none" stroke="midnightblue" d="M80.6877,-114.411C97.7632,-109.551 118.7,-103.591 136.982,-98.3873"/>
<polygon fill="midnightblue" stroke="midnightblue" points="138.163,-101.69 146.823,-95.5859 136.247,-94.9574 138.163,-101.69"/>
</g>
<!-- Node4&#45;&gt;Node3 -->
<g id="edge3" class="edge"><title>Node4&#45;&gt;Node3</title>
<path fill="none" stroke="midnightblue" d="M221.967,-95.5046C237.213,-98.9046 254.848,-102.508 271,-105 312.591,-111.418 359.404,-116.006 397.279,-119.065"/>
<polygon fill="midnightblue" stroke="midnightblue" points="397.468,-122.59 407.712,-119.887 398.018,-115.612 397.468,-122.59"/>
</g>
<!-- Node5 -->
<g id="node4" class="node"><title>Node5</title>
<g id="a_node4"><a xlink:href="class_n_d_i_r___i2_c.html#aab0c04c2b7d08e99d12af044df179f0c" target="_top" xlink:title="NDIR_I2C::send">
<polygon fill="white" stroke="black" points="276.5,-76.5 276.5,-95.5 366.5,-95.5 366.5,-76.5 276.5,-76.5"/>
<text text-anchor="middle" x="321.5" y="-83.5" font-family="Helvetica,sans-Serif" font-size="10.00">NDIR_I2C::send</text>
</a>
</g>
</g>
<!-- Node4&#45;&gt;Node5 -->
<g id="edge4" class="edge"><title>Node4&#45;&gt;Node5</title>
<path fill="none" stroke="midnightblue" d="M235.066,-86C245.234,-86 255.908,-86 266.133,-86"/>
<polygon fill="midnightblue" stroke="midnightblue" points="266.173,-89.5001 276.173,-86 266.173,-82.5001 266.173,-89.5001"/>
</g>
<!-- Node7 -->
<g id="node6" class="node"><title>Node7</title>
<g id="a_node6"><a xlink:href="class_n_d_i_r___i2_c.html#aa6d2b8dd287f9c9015461cebb18f9abc" target="_top" xlink:title="NDIR_I2C::receive">
<polygon fill="white" stroke="black" points="271,-38.5 271,-57.5 372,-57.5 372,-38.5 271,-38.5"/>
<text text-anchor="middle" x="321.5" y="-45.5" font-family="Helvetica,sans-Serif" font-size="10.00">NDIR_I2C::receive</text>
</a>
</g>
</g>
<!-- Node4&#45;&gt;Node7 -->
<g id="edge7" class="edge"><title>Node4&#45;&gt;Node7</title>
<path fill="none" stroke="midnightblue" d="M217.323,-76.411C235.138,-71.5056 257.018,-65.4804 276.039,-60.2429"/>
<polygon fill="midnightblue" stroke="midnightblue" points="276.976,-63.6152 285.688,-57.5859 275.118,-56.8664 276.976,-63.6152"/>
</g>
<!-- Node8 -->
<g id="node7" class="node"><title>Node8</title>
<g id="a_node7"><a xlink:href="class_n_d_i_r___i2_c.html#a907b756fc9244c7398b7d187b73cde94" target="_top" xlink:title="NDIR_I2C::parse">
<polygon fill="white" stroke="black" points="275,-0.5 275,-19.5 368,-19.5 368,-0.5 275,-0.5"/>
<text text-anchor="middle" x="321.5" y="-7.5" font-family="Helvetica,sans-Serif" font-size="10.00">NDIR_I2C::parse</text>
</a>
</g>
</g>
<!-- Node4&#45;&gt;Node8 -->
<g id="edge9" class="edge"><title>Node4&#45;&gt;Node8</title>
<path fill="none" stroke="midnightblue" d="M195.484,-76.4198C212.299,-64.3037 242.802,-43.3004 271,-29 274.833,-27.0562 278.914,-25.1894 283.026,-23.4363"/>
<polygon fill="midnightblue" stroke="midnightblue" points="284.617,-26.5678 292.571,-19.5689 281.989,-20.08 284.617,-26.5678"/>
</g>
<!-- Node5&#45;&gt;Node3 -->
<g id="edge6" class="edge"><title>Node5&#45;&gt;Node3</title>
<path fill="none" stroke="midnightblue" d="M359.973,-95.589C379.392,-100.558 403.302,-106.677 423.954,-111.961"/>
<polygon fill="midnightblue" stroke="midnightblue" points="423.241,-115.392 433.797,-114.48 424.976,-108.61 423.241,-115.392"/>
</g>
<!-- Node6 -->
<g id="node5" class="node"><title>Node6</title>
<g id="a_node5"><a xlink:href="class_n_d_i_r___i2_c.html#aa72058e6e7c6174b14466fee4b2df1e0" target="_top" xlink:title="NDIR_I2C::read_register">
<polygon fill="white" stroke="black" points="409.5,-57.5 409.5,-76.5 534.5,-76.5 534.5,-57.5 409.5,-57.5"/>
<text text-anchor="middle" x="472" y="-64.5" font-family="Helvetica,sans-Serif" font-size="10.00">NDIR_I2C::read_register</text>
</a>
</g>
</g>
<!-- Node5&#45;&gt;Node6 -->
<g id="edge5" class="edge"><title>Node5&#45;&gt;Node6</title>
<path fill="none" stroke="midnightblue" d="M366.653,-80.3508C376.93,-79.0359 388.132,-77.6026 399.26,-76.1789"/>
<polygon fill="midnightblue" stroke="midnightblue" points="399.954,-79.6186 409.429,-74.8777 399.066,-72.6752 399.954,-79.6186"/>
</g>
<!-- Node7&#45;&gt;Node6 -->
<g id="edge8" class="edge"><title>Node7&#45;&gt;Node6</title>
<path fill="none" stroke="midnightblue" d="M372.361,-54.3796C380.993,-55.484 390.12,-56.6517 399.198,-57.8132"/>
<polygon fill="midnightblue" stroke="midnightblue" points="399.034,-61.3207 409.397,-59.1182 399.923,-54.3773 399.034,-61.3207"/>
</g>
</g>
</svg>
