<?xml version="1.0" encoding="UTF-8" standalone="no"?>
<!DOCTYPE svg PUBLIC "-//W3C//DTD SVG 1.1//EN"
 "http://www.w3.org/Graphics/SVG/1.1/DTD/svg11.dtd">
<!-- Generated by graphviz version 2.38.0 (20140413.2041)
 -->
<!-- Title: Irene3000::setGain Pages: 1 -->
<svg width="740pt" height="218pt"
 viewBox="0.00 0.00 740.00 218.00" xmlns="http://www.w3.org/2000/svg" xmlns:xlink="http://www.w3.org/1999/xlink">
<g id="graph0" class="graph" transform="scale(1 1) rotate(0) translate(4 214)">
<title>Irene3000::setGain</title>
<polygon fill="white" stroke="none" points="-4,4 -4,-214 736,-214 736,4 -4,4"/>
<!-- Node138 -->
<g id="node1" class="node"><title>Node138</title>
<polygon fill="#bfbfbf" stroke="black" points="0,-95.5 0,-114.5 99,-114.5 99,-95.5 0,-95.5"/>
<text text-anchor="middle" x="49.5" y="-102.5" font-family="Helvetica,sans-Serif" font-size="10.00">Irene3000::setGain</text>
</g>
<!-- Node139 -->
<g id="node2" class="node"><title>Node139</title>
<g id="a_node2"><a xlink:href="class_irene3000.html#a78a87eb7cf295b95c12b2ebd51c2bb77" target="_top" xlink:title="Irene3000::readButton">
<polygon fill="white" stroke="black" points="151.5,-190.5 151.5,-209.5 264.5,-209.5 264.5,-190.5 151.5,-190.5"/>
<text text-anchor="middle" x="208" y="-197.5" font-family="Helvetica,sans-Serif" font-size="10.00">Irene3000::readButton</text>
</a>
</g>
</g>
<!-- Node138&#45;&gt;Node139 -->
<g id="edge1" class="edge"><title>Node138&#45;&gt;Node139</title>
<path fill="none" stroke="midnightblue" d="M65.0629,-122.212C80.651,-139.552 106.952,-165.85 135,-181 142.166,-184.871 150.165,-187.987 158.154,-190.486"/>
<polygon fill="midnightblue" stroke="midnightblue" points="67.5336,-119.721 58.3105,-114.507 62.2691,-124.334 67.5336,-119.721"/>
</g>
<!-- Node142 -->
<g id="node5" class="node"><title>Node142</title>
<g id="a_node5"><a xlink:href="class_irene3000.html#ae73bd2ed14a199a7e83f4d6458476a7c" target="_top" xlink:title="Irene3000::readADSChannel2">
<polygon fill="white" stroke="black" points="135,-76.5 135,-95.5 281,-95.5 281,-76.5 135,-76.5"/>
<text text-anchor="middle" x="208" y="-83.5" font-family="Helvetica,sans-Serif" font-size="10.00">Irene3000::readADSChannel2</text>
</a>
</g>
</g>
<!-- Node138&#45;&gt;Node142 -->
<g id="edge4" class="edge"><title>Node138&#45;&gt;Node142</title>
<path fill="none" stroke="midnightblue" d="M109.178,-97.8761C117.544,-96.8605 126.229,-95.806 134.816,-94.7635"/>
<polygon fill="midnightblue" stroke="midnightblue" points="108.665,-94.4126 99.1597,-99.0924 109.509,-101.362 108.665,-94.4126"/>
</g>
<!-- Node147 -->
<g id="node10" class="node"><title>Node147</title>
<g id="a_node10"><a xlink:href="class_irene3000.html#a436fc0a06681cd0784aba56b9707f19a" target="_top" xlink:title="Irene3000::readPh">
<polygon fill="white" stroke="black" points="160,-38.5 160,-57.5 256,-57.5 256,-38.5 160,-38.5"/>
<text text-anchor="middle" x="208" y="-45.5" font-family="Helvetica,sans-Serif" font-size="10.00">Irene3000::readPh</text>
</a>
</g>
</g>
<!-- Node138&#45;&gt;Node147 -->
<g id="edge9" class="edge"><title>Node138&#45;&gt;Node147</title>
<path fill="none" stroke="midnightblue" d="M78.6898,-90.9171C94.8945,-83.18 115.788,-73.8026 135,-67 144.871,-63.5048 155.704,-60.3193 165.901,-57.5974"/>
<polygon fill="midnightblue" stroke="midnightblue" points="76.736,-87.9745 69.263,-95.4849 79.7884,-94.2739 76.736,-87.9745"/>
</g>
<!-- Node148 -->
<g id="node11" class="node"><title>Node148</title>
<g id="a_node11"><a xlink:href="class_irene3000.html#a80bc6dfea106dc3bc54fa20204d4d5dc" target="_top" xlink:title="Irene3000::readTemp">
<polygon fill="white" stroke="black" points="153.5,-0.5 153.5,-19.5 262.5,-19.5 262.5,-0.5 153.5,-0.5"/>
<text text-anchor="middle" x="208" y="-7.5" font-family="Helvetica,sans-Serif" font-size="10.00">Irene3000::readTemp</text>
</a>
</g>
</g>
<!-- Node138&#45;&gt;Node148 -->
<g id="edge11" class="edge"><title>Node138&#45;&gt;Node148</title>
<path fill="none" stroke="midnightblue" d="M65.0629,-87.7883C80.651,-70.4476 106.952,-44.1498 135,-29 142.166,-25.1293 150.165,-22.013 158.154,-19.5143"/>
<polygon fill="midnightblue" stroke="midnightblue" points="62.2691,-85.6658 58.3105,-95.4933 67.5336,-90.2794 62.2691,-85.6658"/>
</g>
<!-- Node149 -->
<g id="node12" class="node"><title>Node149</title>
<g id="a_node12"><a xlink:href="class_irene3000.html#a1d3299202e4cb7afcff9c9e3e95d94c1" target="_top" xlink:title="Irene3000::calibratepH7">
<polygon fill="white" stroke="black" points="148,-152.5 148,-171.5 268,-171.5 268,-152.5 148,-152.5"/>
<text text-anchor="middle" x="208" y="-159.5" font-family="Helvetica,sans-Serif" font-size="10.00">Irene3000::calibratepH7</text>
</a>
</g>
</g>
<!-- Node138&#45;&gt;Node149 -->
<g id="edge13" class="edge"><title>Node138&#45;&gt;Node149</title>
<path fill="none" stroke="midnightblue" d="M78.6898,-119.083C94.8945,-126.82 115.788,-136.197 135,-143 144.871,-146.495 155.704,-149.681 165.901,-152.403"/>
<polygon fill="midnightblue" stroke="midnightblue" points="79.7884,-115.726 69.263,-114.515 76.736,-122.025 79.7884,-115.726"/>
</g>
<!-- Node151 -->
<g id="node14" class="node"><title>Node151</title>
<g id="a_node14"><a xlink:href="class_irene3000.html#aa140dd026922a04981edfd04d46cabbe" target="_top" xlink:title="Irene3000::calibratepH4">
<polygon fill="white" stroke="black" points="148,-114.5 148,-133.5 268,-133.5 268,-114.5 148,-114.5"/>
<text text-anchor="middle" x="208" y="-121.5" font-family="Helvetica,sans-Serif" font-size="10.00">Irene3000::calibratepH4</text>
</a>
</g>
</g>
<!-- Node138&#45;&gt;Node151 -->
<g id="edge17" class="edge"><title>Node138&#45;&gt;Node151</title>
<path fill="none" stroke="midnightblue" d="M109.139,-112.119C121.812,-113.658 135.22,-115.285 147.911,-116.826"/>
<polygon fill="midnightblue" stroke="midnightblue" points="109.509,-108.638 99.1597,-110.908 108.665,-115.587 109.509,-108.638"/>
</g>
<!-- Node140 -->
<g id="node3" class="node"><title>Node140</title>
<g id="a_node3"><a xlink:href="class_irene3000.html#ad5891806c500ae1007afe52b9e304c2b" target="_top" xlink:title="Irene3000::begin">
<polygon fill="white" stroke="black" points="321.5,-152.5 321.5,-171.5 410.5,-171.5 410.5,-152.5 321.5,-152.5"/>
<text text-anchor="middle" x="366" y="-159.5" font-family="Helvetica,sans-Serif" font-size="10.00">Irene3000::begin</text>
</a>
</g>
</g>
<!-- Node139&#45;&gt;Node140 -->
<g id="edge2" class="edge"><title>Node139&#45;&gt;Node140</title>
<path fill="none" stroke="midnightblue" d="M258.132,-188.032C279.993,-182.707 305.376,-176.524 325.918,-171.52"/>
<polygon fill="midnightblue" stroke="midnightblue" points="257.253,-184.644 248.365,-190.411 258.91,-191.445 257.253,-184.644"/>
</g>
<!-- Node141 -->
<g id="node4" class="node"><title>Node141</title>
<g id="a_node4"><a xlink:href="class_cool_board.html#acba7c5aef7268b2c0044bdb54d3b9d76" target="_top" xlink:title="CoolBoard::begin">
<polygon fill="white" stroke="black" points="466.5,-152.5 466.5,-171.5 558.5,-171.5 558.5,-152.5 466.5,-152.5"/>
<text text-anchor="middle" x="512.5" y="-159.5" font-family="Helvetica,sans-Serif" font-size="10.00">CoolBoard::begin</text>
</a>
</g>
</g>
<!-- Node140&#45;&gt;Node141 -->
<g id="edge3" class="edge"><title>Node140&#45;&gt;Node141</title>
<path fill="none" stroke="midnightblue" d="M420.902,-162C435.88,-162 451.985,-162 466.401,-162"/>
<polygon fill="midnightblue" stroke="midnightblue" points="420.747,-158.5 410.747,-162 420.747,-165.5 420.747,-158.5"/>
</g>
<!-- Node143 -->
<g id="node6" class="node"><title>Node143</title>
<g id="a_node6"><a xlink:href="class_irene3000.html#a852a170feea994ea1df01c6b245b5d9a" target="_top" xlink:title="Irene3000::read">
<polygon fill="white" stroke="black" points="324,-43.5 324,-62.5 408,-62.5 408,-43.5 324,-43.5"/>
<text text-anchor="middle" x="366" y="-50.5" font-family="Helvetica,sans-Serif" font-size="10.00">Irene3000::read</text>
</a>
</g>
</g>
<!-- Node142&#45;&gt;Node143 -->
<g id="edge5" class="edge"><title>Node142&#45;&gt;Node143</title>
<path fill="none" stroke="midnightblue" d="M263.922,-74.3819C283.679,-70.2025 305.607,-65.5638 323.976,-61.6781"/>
<polygon fill="midnightblue" stroke="midnightblue" points="263.181,-70.9611 254.122,-76.455 264.63,-77.8096 263.181,-70.9611"/>
</g>
<!-- Node144 -->
<g id="node7" class="node"><title>Node144</title>
<g id="a_node7"><a xlink:href="class_cool_board.html#ad03abdce2e65f520bbf2cff0f2d083cf" target="_top" xlink:title="CoolBoard::readSensors">
<polygon fill="white" stroke="black" points="451,-52.5 451,-71.5 574,-71.5 574,-52.5 451,-52.5"/>
<text text-anchor="middle" x="512.5" y="-59.5" font-family="Helvetica,sans-Serif" font-size="10.00">CoolBoard::readSensors</text>
</a>
</g>
</g>
<!-- Node143&#45;&gt;Node144 -->
<g id="edge6" class="edge"><title>Node143&#45;&gt;Node144</title>
<path fill="none" stroke="midnightblue" d="M418.327,-56.1968C428.887,-56.8546 440.1,-57.553 450.952,-58.2288"/>
<polygon fill="midnightblue" stroke="midnightblue" points="418.22,-52.6835 408.021,-55.555 417.784,-59.6699 418.22,-52.6835"/>
</g>
<!-- Node145 -->
<g id="node8" class="node"><title>Node145</title>
<g id="a_node8"><a xlink:href="class_cool_board.html#aa0bbc4bc605e35618d18e68795c61363" target="_top" xlink:title="CoolBoard::onLineMode">
<polygon fill="white" stroke="black" points="610.5,-99.5 610.5,-118.5 731.5,-118.5 731.5,-99.5 610.5,-99.5"/>
<text text-anchor="middle" x="671" y="-106.5" font-family="Helvetica,sans-Serif" font-size="10.00">CoolBoard::onLineMode</text>
</a>
</g>
</g>
<!-- Node144&#45;&gt;Node145 -->
<g id="edge7" class="edge"><title>Node144&#45;&gt;Node145</title>
<path fill="none" stroke="midnightblue" d="M554.783,-74.3982C580.863,-82.2304 614.056,-92.1988 638.109,-99.4224"/>
<polygon fill="midnightblue" stroke="midnightblue" points="555.754,-71.0354 545.17,-71.5112 553.741,-77.7396 555.754,-71.0354"/>
</g>
<!-- Node146 -->
<g id="node9" class="node"><title>Node146</title>
<g id="a_node9"><a xlink:href="class_cool_board.html#ae6b5e1274d760462290192acea4adca8" target="_top" xlink:title="CoolBoard::offLineMode">
<polygon fill="white" stroke="black" points="610,-52.5 610,-71.5 732,-71.5 732,-52.5 610,-52.5"/>
<text text-anchor="middle" x="671" y="-59.5" font-family="Helvetica,sans-Serif" font-size="10.00">CoolBoard::offLineMode</text>
</a>
</g>
</g>
<!-- Node144&#45;&gt;Node146 -->
<g id="edge8" class="edge"><title>Node144&#45;&gt;Node146</title>
<path fill="none" stroke="midnightblue" d="M584.059,-62C592.692,-62 601.452,-62 609.912,-62"/>
<polygon fill="midnightblue" stroke="midnightblue" points="584.007,-58.5001 574.007,-62 584.007,-65.5001 584.007,-58.5001"/>
</g>
<!-- Node147&#45;&gt;Node143 -->
<g id="edge10" class="edge"><title>Node147&#45;&gt;Node143</title>
<path fill="none" stroke="midnightblue" d="M266.295,-49.8364C285.339,-50.4467 306.157,-51.114 323.745,-51.6777"/>
<polygon fill="midnightblue" stroke="midnightblue" points="266.336,-46.336 256.228,-49.5137 266.111,-53.3324 266.336,-46.336"/>
</g>
<!-- Node148&#45;&gt;Node143 -->
<g id="edge12" class="edge"><title>Node148&#45;&gt;Node143</title>
<path fill="none" stroke="midnightblue" d="M255.466,-22.1139C263.968,-24.3725 272.757,-26.735 281,-29 297.965,-33.6614 316.802,-39.0262 332.332,-43.4998"/>
<polygon fill="midnightblue" stroke="midnightblue" points="256.229,-18.6954 245.667,-19.5223 254.44,-25.4628 256.229,-18.6954"/>
</g>
<!-- Node149&#45;&gt;Node140 -->
<g id="edge16" class="edge"><title>Node149&#45;&gt;Node140</title>
<path fill="none" stroke="midnightblue" d="M278.838,-162C293.274,-162 308.087,-162 321.27,-162"/>
<polygon fill="midnightblue" stroke="midnightblue" points="278.422,-158.5 268.422,-162 278.422,-165.5 278.422,-158.5"/>
</g>
<!-- Node150 -->
<g id="node13" class="node"><title>Node150</title>
<g id="a_node13"><a xlink:href="class_cool_board.html#a8612756d3f73198cdde857a66f0fe690" target="_top" xlink:title="CoolBoard::update">
<polygon fill="white" stroke="black" points="317,-114.5 317,-133.5 415,-133.5 415,-114.5 317,-114.5"/>
<text text-anchor="middle" x="366" y="-121.5" font-family="Helvetica,sans-Serif" font-size="10.00">CoolBoard::update</text>
</a>
</g>
</g>
<!-- Node149&#45;&gt;Node150 -->
<g id="edge14" class="edge"><title>Node149&#45;&gt;Node150</title>
<path fill="none" stroke="midnightblue" d="M258.132,-150.032C279.993,-144.707 305.376,-138.524 325.918,-133.52"/>
<polygon fill="midnightblue" stroke="midnightblue" points="257.253,-146.644 248.365,-152.411 258.91,-153.445 257.253,-146.644"/>
</g>
<!-- Node150&#45;&gt;Node145 -->
<g id="edge15" class="edge"><title>Node150&#45;&gt;Node145</title>
<path fill="none" stroke="midnightblue" d="M425.293,-121.114C478.443,-118.483 556.625,-114.613 610.232,-111.959"/>
<polygon fill="midnightblue" stroke="midnightblue" points="424.826,-117.633 415.011,-121.623 425.172,-124.624 424.826,-117.633"/>
</g>
<!-- Node151&#45;&gt;Node140 -->
<g id="edge19" class="edge"><title>Node151&#45;&gt;Node140</title>
<path fill="none" stroke="midnightblue" d="M258.132,-135.968C279.993,-141.293 305.376,-147.476 325.918,-152.48"/>
<polygon fill="midnightblue" stroke="midnightblue" points="258.91,-132.555 248.365,-133.589 257.253,-139.356 258.91,-132.555"/>
</g>
<!-- Node151&#45;&gt;Node150 -->
<g id="edge18" class="edge"><title>Node151&#45;&gt;Node150</title>
<path fill="none" stroke="midnightblue" d="M278.677,-124C291.581,-124 304.793,-124 316.877,-124"/>
<polygon fill="midnightblue" stroke="midnightblue" points="278.422,-120.5 268.422,-124 278.422,-127.5 278.422,-120.5"/>
</g>
</g>
</svg>
