<?xml version="1.0" encoding="UTF-8" standalone="no"?>
<!DOCTYPE svg PUBLIC "-//W3C//DTD SVG 1.1//EN"
 "http://www.w3.org/Graphics/SVG/1.1/DTD/svg11.dtd">
<!-- Generated by graphviz version 2.38.0 (20140413.2041)
 -->
<!-- Title: CoolBoard::update Pages: 1 -->
<!--zoomable 420 -->
<svg id="main" version="1.1" xmlns="http://www.w3.org/2000/svg" xmlns:xlink="http://www.w3.org/1999/xlink" xml:space="preserve" onload="init(evt)">
<style type="text/css"><![CDATA[
.edge:hover path { stroke: red; }
.edge:hover polygon { stroke: red; fill: red; }
]]></style>
<script type="text/javascript"><![CDATA[
var edges = document.getElementsByTagName('g');
if (edges && edges.length) {
  for (var i=0;i<edges.length;i++) {
    if (edges[i].id.substr(0,4)=='edge') {
      edges[i].setAttribute('class','edge');
    }
  }
}
]]></script>
        <defs>
                <circle id="rim" cx="0" cy="0" r="7"/>
                <circle id="rim2" cx="0" cy="0" r="3.5"/>
                <g id="zoomPlus">
                        <use xlink:href="#rim" fill="#404040">
                                <set attributeName="fill" to="#808080" begin="zoomplus.mouseover" end="zoomplus.mouseout"/>
                        </use>
                        <path d="M-4,0h8M0,-4v8" fill="none" stroke="white" stroke-width="1.5" pointer-events="none"/>
                </g>
                <g id="zoomMin">
                        <use xlink:href="#rim" fill="#404040">
                                <set attributeName="fill" to="#808080" begin="zoomminus.mouseover" end="zoomminus.mouseout"/>
                        </use>
                        <path d="M-4,0h8" fill="none" stroke="white" stroke-width="1.5" pointer-events="none"/>
                </g>
                <g id="dirArrow">
                        <path fill="none" stroke="white" stroke-width="1.5" d="M0,-3.0v7 M-2.5,-0.5L0,-3.0L2.5,-0.5"/>
                </g>
               <g id="resetDef">
                       <use xlink:href="#rim2" fill="#404040">
                               <set attributeName="fill" to="#808080" begin="reset.mouseover" end="reset.mouseout"/>
                       </use>
               </g>
        </defs>

<script type="text/javascript">
var viewWidth = 838;
var viewHeight = 420;
var sectionId = 'dynsection-15';
</script>
<script xlink:href="svgpan.js"/>
<svg id="graph" class="graph">
<g id="viewport">
<title>CoolBoard::update</title>
<polygon fill="white" stroke="none" points="-4,4 -4,-416 834,-416 834,4 -4,4"/>
<!-- Node382 -->
<g id="node1" class="node"><title>Node382</title>
<polygon fill="#bfbfbf" stroke="black" points="0,-202.5 0,-221.5 98,-221.5 98,-202.5 0,-202.5"/>
<text text-anchor="middle" x="49" y="-209.5" font-family="Helvetica,sans-Serif" font-size="10.00">CoolBoard::update</text>
</g>
<!-- Node383 -->
<g id="node2" class="node"><title>Node383</title>
<g id="a_node2"><a xlink:href="class_cool_board_led.html#ab778f5e7bed0ab74e3906d82110493c3" target="_top" xlink:title="CoolBoardLed::fadeIn">
<polygon fill="white" stroke="black" points="153.5,-392.5 153.5,-411.5 264.5,-411.5 264.5,-392.5 153.5,-392.5"/>
<text text-anchor="middle" x="209" y="-399.5" font-family="Helvetica,sans-Serif" font-size="10.00">CoolBoardLed::fadeIn</text>
</a>
</g>
</g>
<!-- Node382&#45;&gt;Node383 -->
<g id="edge1" class="edge"><title>Node382&#45;&gt;Node383</title>
<path fill="none" stroke="midnightblue" d="M51.8549,-221.912C57.9001,-251.353 79.8542,-338.967 134,-383 137.095,-385.517 140.485,-387.705 144.056,-389.606"/>
<polygon fill="midnightblue" stroke="midnightblue" points="142.693,-392.831 153.247,-393.767 145.58,-386.454 142.693,-392.831"/>
</g>
<!-- Node384 -->
<g id="node3" class="node"><title>Node384</title>
<g id="a_node3"><a xlink:href="class_jetpack.html#a79ae7bc3c1828a0551a7c005c4f8bd00" target="_top" xlink:title="Jetpack::writeBit">
<polygon fill="white" stroke="black" points="164,-354.5 164,-373.5 254,-373.5 254,-354.5 164,-354.5"/>
<text text-anchor="middle" x="209" y="-361.5" font-family="Helvetica,sans-Serif" font-size="10.00">Jetpack::writeBit</text>
</a>
</g>
</g>
<!-- Node382&#45;&gt;Node384 -->
<g id="edge2" class="edge"><title>Node382&#45;&gt;Node384</title>
<path fill="none" stroke="midnightblue" d="M53.2845,-221.808C62.1027,-246.583 88.7426,-312.043 134,-345 139.971,-349.348 146.846,-352.704 153.949,-355.292"/>
<polygon fill="midnightblue" stroke="midnightblue" points="153.123,-358.702 163.713,-358.369 155.227,-352.025 153.123,-358.702"/>
</g>
<!-- Node385 -->
<g id="node4" class="node"><title>Node385</title>
<g id="a_node4"><a xlink:href="class_cool_board_actor.html#a958786ff01ea1056ee72c72d439f86da" target="_top" xlink:title="CoolBoardActor::write">
<polygon fill="white" stroke="black" points="152.5,-316.5 152.5,-335.5 265.5,-335.5 265.5,-316.5 152.5,-316.5"/>
<text text-anchor="middle" x="209" y="-323.5" font-family="Helvetica,sans-Serif" font-size="10.00">CoolBoardActor::write</text>
</a>
</g>
</g>
<!-- Node382&#45;&gt;Node385 -->
<g id="edge3" class="edge"><title>Node382&#45;&gt;Node385</title>
<path fill="none" stroke="midnightblue" d="M55.7974,-221.795C67.8098,-241.202 97.3792,-284.595 134,-307 137.564,-309.18 141.371,-311.112 145.308,-312.823"/>
<polygon fill="midnightblue" stroke="midnightblue" points="144.086,-316.103 154.676,-316.428 146.6,-309.57 144.086,-316.103"/>
</g>
<!-- Node386 -->
<g id="node5" class="node"><title>Node386</title>
<g id="a_node5"><a xlink:href="class_irene3000.html#a1d3299202e4cb7afcff9c9e3e95d94c1" target="_top" xlink:title="Irene3000::calibratepH7">
<polygon fill="white" stroke="black" points="149,-240.5 149,-259.5 269,-259.5 269,-240.5 149,-240.5"/>
<text text-anchor="middle" x="209" y="-247.5" font-family="Helvetica,sans-Serif" font-size="10.00">Irene3000::calibratepH7</text>
</a>
</g>
</g>
<!-- Node382&#45;&gt;Node386 -->
<g id="edge4" class="edge"><title>Node382&#45;&gt;Node386</title>
<path fill="none" stroke="midnightblue" d="M89.8701,-221.589C110.72,-226.604 136.435,-232.788 158.543,-238.105"/>
<polygon fill="midnightblue" stroke="midnightblue" points="157.875,-241.544 168.417,-240.48 159.512,-234.739 157.875,-241.544"/>
</g>
<!-- Node395 -->
<g id="node14" class="node"><title>Node395</title>
<g id="a_node14"><a xlink:href="class_irene3000.html#aa140dd026922a04981edfd04d46cabbe" target="_top" xlink:title="Irene3000::calibratepH4">
<polygon fill="white" stroke="black" points="149,-278.5 149,-297.5 269,-297.5 269,-278.5 149,-278.5"/>
<text text-anchor="middle" x="209" y="-285.5" font-family="Helvetica,sans-Serif" font-size="10.00">Irene3000::calibratepH4</text>
</a>
</g>
</g>
<!-- Node382&#45;&gt;Node395 -->
<g id="edge14" class="edge"><title>Node382&#45;&gt;Node395</title>
<path fill="none" stroke="midnightblue" d="M61.4632,-221.699C76.956,-234.339 105.886,-256.318 134,-269 139.344,-271.411 145.05,-273.556 150.831,-275.454"/>
<polygon fill="midnightblue" stroke="midnightblue" points="149.998,-278.859 160.584,-278.421 152.036,-272.162 149.998,-278.859"/>
</g>
<!-- Node396 -->
<g id="node15" class="node"><title>Node396</title>
<g id="a_node15"><a xlink:href="class_irene3000.html#a63dbd38e79b8cd5f1fba4b245501a894" target="_top" xlink:title="Irene3000::saveParams">
<polygon fill="white" stroke="black" points="149,-202.5 149,-221.5 269,-221.5 269,-202.5 149,-202.5"/>
<text text-anchor="middle" x="209" y="-209.5" font-family="Helvetica,sans-Serif" font-size="10.00">Irene3000::saveParams</text>
</a>
</g>
</g>
<!-- Node382&#45;&gt;Node396 -->
<g id="edge18" class="edge"><title>Node382&#45;&gt;Node396</title>
<path fill="none" stroke="midnightblue" d="M98.2637,-212C110.992,-212 124.981,-212 138.585,-212"/>
<polygon fill="midnightblue" stroke="midnightblue" points="138.886,-215.5 148.886,-212 138.886,-208.5 138.886,-215.5"/>
</g>
<!-- Node397 -->
<g id="node16" class="node"><title>Node397</title>
<g id="a_node16"><a xlink:href="class_cool_file_system.html#adfa8e2e80641ae6f0cceabd348a9b841" target="_top" xlink:title="CoolFileSystem::updateConfig\lFiles">
<polygon fill="white" stroke="black" points="134,-153 134,-183 284,-183 284,-153 134,-153"/>
<text text-anchor="start" x="142" y="-171" font-family="Helvetica,sans-Serif" font-size="10.00">CoolFileSystem::updateConfig</text>
<text text-anchor="middle" x="209" y="-160" font-family="Helvetica,sans-Serif" font-size="10.00">Files</text>
</a>
</g>
</g>
<!-- Node382&#45;&gt;Node397 -->
<g id="edge19" class="edge"><title>Node382&#45;&gt;Node397</title>
<path fill="none" stroke="midnightblue" d="M84.2836,-202.453C101.755,-197.587 123.577,-191.51 144.008,-185.82"/>
<polygon fill="midnightblue" stroke="midnightblue" points="145.207,-189.12 153.902,-183.065 143.329,-182.376 145.207,-189.12"/>
</g>
<!-- Node399 -->
<g id="node18" class="node"><title>Node399</title>
<g id="a_node18"><a xlink:href="class_cool_m_q_t_t.html#ace977b3e90ab14b1199fe5c4fb0a13ec" target="_top" xlink:title="CoolMQTT::publish">
<polygon fill="white" stroke="black" points="158.5,-114.5 158.5,-133.5 259.5,-133.5 259.5,-114.5 158.5,-114.5"/>
<text text-anchor="middle" x="209" y="-121.5" font-family="Helvetica,sans-Serif" font-size="10.00">CoolMQTT::publish</text>
</a>
</g>
</g>
<!-- Node382&#45;&gt;Node399 -->
<g id="edge21" class="edge"><title>Node382&#45;&gt;Node399</title>
<path fill="none" stroke="midnightblue" d="M59.3755,-202.133C73.9624,-187.35 103.589,-159.534 134,-144 139.522,-141.179 145.485,-138.723 151.546,-136.592"/>
<polygon fill="midnightblue" stroke="midnightblue" points="152.662,-139.909 161.102,-133.504 150.51,-133.248 152.662,-139.909"/>
</g>
<!-- Node401 -->
<g id="node20" class="node"><title>Node401</title>
<g id="a_node20"><a xlink:href="class_cool_m_q_t_t.html#aa5eaae967b562b62cbcf2b8d81f6e5d5" target="_top" xlink:title="CoolMQTT::mqttLoop">
<polygon fill="white" stroke="black" points="153.5,-76.5 153.5,-95.5 264.5,-95.5 264.5,-76.5 153.5,-76.5"/>
<text text-anchor="middle" x="209" y="-83.5" font-family="Helvetica,sans-Serif" font-size="10.00">CoolMQTT::mqttLoop</text>
</a>
</g>
</g>
<!-- Node382&#45;&gt;Node401 -->
<g id="edge23" class="edge"><title>Node382&#45;&gt;Node401</title>
<path fill="none" stroke="midnightblue" d="M54.7854,-202.269C65.7162,-181.095 94.6442,-130.688 134,-105 137.28,-102.859 140.788,-100.959 144.428,-99.2733"/>
<polygon fill="midnightblue" stroke="midnightblue" points="145.746,-102.516 153.692,-95.5079 143.11,-96.0309 145.746,-102.516"/>
</g>
<!-- Node406 -->
<g id="node25" class="node"><title>Node406</title>
<g id="a_node25"><a xlink:href="class_cool_board_led.html#ad5f0de4c628cbfbf49896042831c64ad" target="_top" xlink:title="CoolBoardLed::strobe">
<polygon fill="white" stroke="black" points="153.5,-38.5 153.5,-57.5 264.5,-57.5 264.5,-38.5 153.5,-38.5"/>
<text text-anchor="middle" x="209" y="-45.5" font-family="Helvetica,sans-Serif" font-size="10.00">CoolBoardLed::strobe</text>
</a>
</g>
</g>
<!-- Node382&#45;&gt;Node406 -->
<g id="edge28" class="edge"><title>Node382&#45;&gt;Node406</title>
<path fill="none" stroke="midnightblue" d="M52.6655,-202.474C60.4617,-176.429 85.7729,-103.551 134,-67 137.033,-64.7017 140.315,-62.6799 143.752,-60.9014"/>
<polygon fill="midnightblue" stroke="midnightblue" points="145.425,-63.9888 153.151,-56.7396 142.59,-57.5883 145.425,-63.9888"/>
</g>
<!-- Node407 -->
<g id="node26" class="node"><title>Node407</title>
<g id="a_node26"><a xlink:href="class_cool_board_led.html#a93d545679237e8cc858324367149775c" target="_top" xlink:title="CoolBoardLed::fadeOut">
<polygon fill="white" stroke="black" points="149.5,-0.5 149.5,-19.5 268.5,-19.5 268.5,-0.5 149.5,-0.5"/>
<text text-anchor="middle" x="209" y="-7.5" font-family="Helvetica,sans-Serif" font-size="10.00">CoolBoardLed::fadeOut</text>
</a>
</g>
</g>
<!-- Node382&#45;&gt;Node407 -->
<g id="edge29" class="edge"><title>Node382&#45;&gt;Node407</title>
<path fill="none" stroke="midnightblue" d="M51.4767,-202.286C56.6511,-171.722 76.8532,-76.7348 134,-29 136.004,-27.3259 138.138,-25.797 140.369,-24.4007"/>
<polygon fill="midnightblue" stroke="midnightblue" points="142.176,-27.4047 149.392,-19.6468 138.913,-21.2117 142.176,-27.4047"/>
</g>
<!-- Node387 -->
<g id="node6" class="node"><title>Node387</title>
<g id="a_node6"><a xlink:href="class_irene3000.html#aff7c5da186b388e7272e63ff88a20c34" target="_top" xlink:title="Irene3000::setGain">
<polygon fill="white" stroke="black" points="342.5,-303.5 342.5,-322.5 441.5,-322.5 441.5,-303.5 342.5,-303.5"/>
<text text-anchor="middle" x="392" y="-310.5" font-family="Helvetica,sans-Serif" font-size="10.00">Irene3000::setGain</text>
</a>
</g>
</g>
<!-- Node386&#45;&gt;Node387 -->
<g id="edge5" class="edge"><title>Node386&#45;&gt;Node387</title>
<path fill="none" stroke="midnightblue" d="M257.449,-259.507C266.466,-262.056 275.678,-265.192 284,-269 301.713,-277.106 302.328,-285.805 320,-294 325.064,-296.349 330.472,-298.449 335.956,-300.319"/>
<polygon fill="midnightblue" stroke="midnightblue" points="335.266,-303.771 345.855,-303.436 337.368,-297.094 335.266,-303.771"/>
</g>
<!-- Node389 -->
<g id="node8" class="node"><title>Node389</title>
<g id="a_node8"><a xlink:href="class_adafruit___a_d_s1015.html#a40f38b9e1f3ec397c0670dd632510235" target="_top" xlink:title="Gets a single&#45;ended ADC reading from the specified channel. ">
<polygon fill="white" stroke="black" points="320,-254 320,-284 464,-284 464,-254 320,-254"/>
<text text-anchor="start" x="328" y="-272" font-family="Helvetica,sans-Serif" font-size="10.00">Adafruit_ADS1015::readADC</text>
<text text-anchor="middle" x="392" y="-261" font-family="Helvetica,sans-Serif" font-size="10.00">_SingleEnded</text>
</a>
</g>
</g>
<!-- Node386&#45;&gt;Node389 -->
<g id="edge7" class="edge"><title>Node386&#45;&gt;Node389</title>
<path fill="none" stroke="midnightblue" d="M269.266,-256.221C282.165,-257.575 296.029,-259.031 309.615,-260.457"/>
<polygon fill="midnightblue" stroke="midnightblue" points="309.62,-263.976 319.931,-261.54 310.351,-257.015 309.62,-263.976"/>
</g>
<!-- Node394 -->
<g id="node13" class="node"><title>Node394</title>
<g id="a_node13"><a xlink:href="class_irene3000.html#a81f6a79e546679692053f7ac1af49613" target="_top" xlink:title="Irene3000::calcpHSlope">
<polygon fill="white" stroke="black" points="331.5,-215.5 331.5,-234.5 452.5,-234.5 452.5,-215.5 331.5,-215.5"/>
<text text-anchor="middle" x="392" y="-222.5" font-family="Helvetica,sans-Serif" font-size="10.00">Irene3000::calcpHSlope</text>
</a>
</g>
</g>
<!-- Node386&#45;&gt;Node394 -->
<g id="edge13" class="edge"><title>Node386&#45;&gt;Node394</title>
<path fill="none" stroke="midnightblue" d="M269.266,-241.814C285.9,-239.517 304.138,-236.997 321.318,-234.625"/>
<polygon fill="midnightblue" stroke="midnightblue" points="321.864,-238.082 331.291,-233.247 320.906,-231.148 321.864,-238.082"/>
</g>
<!-- Node388 -->
<g id="node7" class="node"><title>Node388</title>
<g id="a_node7"><a xlink:href="class_adafruit___a_d_s1015.html#a399441eace686975ff22937cbe45cc50" target="_top" xlink:title="Sets the gain and input voltage range. ">
<polygon fill="white" stroke="black" points="507.5,-303.5 507.5,-322.5 644.5,-322.5 644.5,-303.5 507.5,-303.5"/>
<text text-anchor="middle" x="576" y="-310.5" font-family="Helvetica,sans-Serif" font-size="10.00">Adafruit_ADS1015::setGain</text>
</a>
</g>
</g>
<!-- Node387&#45;&gt;Node388 -->
<g id="edge6" class="edge"><title>Node387&#45;&gt;Node388</title>
<path fill="none" stroke="midnightblue" d="M441.773,-313C458.82,-313 478.408,-313 497.225,-313"/>
<polygon fill="midnightblue" stroke="midnightblue" points="497.276,-316.5 507.276,-313 497.276,-309.5 497.276,-316.5"/>
</g>
<!-- Node390 -->
<g id="node9" class="node"><title>Node390</title>
<g id="a_node9"><a xlink:href="_cool_adafruit___a_d_s1015_8cpp.html#a00ef55774dfb93dd0a7bf561d8451b71" target="_top" xlink:title="Writes 16&#45;bits to the specified destination register. ">
<polygon fill="white" stroke="black" points="539,-224.5 539,-243.5 613,-243.5 613,-224.5 539,-224.5"/>
<text text-anchor="middle" x="576" y="-231.5" font-family="Helvetica,sans-Serif" font-size="10.00">writeRegister</text>
</a>
</g>
</g>
<!-- Node389&#45;&gt;Node390 -->
<g id="edge8" class="edge"><title>Node389&#45;&gt;Node390</title>
<path fill="none" stroke="midnightblue" d="M464.148,-255.318C485.882,-251.138 509.205,-246.653 528.823,-242.88"/>
<polygon fill="midnightblue" stroke="midnightblue" points="529.557,-246.303 538.716,-240.978 528.235,-239.429 529.557,-246.303"/>
</g>
<!-- Node392 -->
<g id="node11" class="node"><title>Node392</title>
<g id="a_node11"><a xlink:href="_cool_adafruit___a_d_s1015_8cpp.html#a319539381b7551b2f83a92b0b596e97d" target="_top" xlink:title="Writes 16&#45;bits to the specified destination register. ">
<polygon fill="white" stroke="black" points="540,-262.5 540,-281.5 612,-281.5 612,-262.5 540,-262.5"/>
<text text-anchor="middle" x="576" y="-269.5" font-family="Helvetica,sans-Serif" font-size="10.00">readRegister</text>
</a>
</g>
</g>
<!-- Node389&#45;&gt;Node392 -->
<g id="edge10" class="edge"><title>Node389&#45;&gt;Node392</title>
<path fill="none" stroke="midnightblue" d="M464.148,-270.173C486.121,-270.535 509.716,-270.924 529.467,-271.249"/>
<polygon fill="midnightblue" stroke="midnightblue" points="529.655,-274.753 539.711,-271.418 529.77,-267.754 529.655,-274.753"/>
</g>
<!-- Node391 -->
<g id="node10" class="node"><title>Node391</title>
<g id="a_node10"><a xlink:href="_cool_adafruit___a_d_s1015_8cpp.html#a6db5edba66e20bba6d5b421c2789af54" target="_top" xlink:title="Abstract away platform differences in Arduino wire library. ">
<polygon fill="white" stroke="black" points="734,-224.5 734,-243.5 784,-243.5 784,-224.5 734,-224.5"/>
<text text-anchor="middle" x="759" y="-231.5" font-family="Helvetica,sans-Serif" font-size="10.00">i2cwrite</text>
</a>
</g>
</g>
<!-- Node390&#45;&gt;Node391 -->
<g id="edge9" class="edge"><title>Node390&#45;&gt;Node391</title>
<path fill="none" stroke="midnightblue" d="M613.193,-234C645.448,-234 692.308,-234 723.908,-234"/>
<polygon fill="midnightblue" stroke="midnightblue" points="723.997,-237.5 733.997,-234 723.997,-230.5 723.997,-237.5"/>
</g>
<!-- Node392&#45;&gt;Node391 -->
<g id="edge11" class="edge"><title>Node392&#45;&gt;Node391</title>
<path fill="none" stroke="midnightblue" d="M612.328,-264.583C644.494,-257.83 691.697,-247.92 723.577,-241.227"/>
<polygon fill="midnightblue" stroke="midnightblue" points="724.689,-244.57 733.757,-239.09 723.251,-237.719 724.689,-244.57"/>
</g>
<!-- Node393 -->
<g id="node12" class="node"><title>Node393</title>
<g id="a_node12"><a xlink:href="_cool_adafruit___a_d_s1015_8cpp.html#af89e2442d757f6ec8100c473022f6701" target="_top" xlink:title="Abstract away platform differences in Arduino wire library. ">
<polygon fill="white" stroke="black" points="735,-262.5 735,-281.5 783,-281.5 783,-262.5 735,-262.5"/>
<text text-anchor="middle" x="759" y="-269.5" font-family="Helvetica,sans-Serif" font-size="10.00">i2cread</text>
</a>
</g>
</g>
<!-- Node392&#45;&gt;Node393 -->
<g id="edge12" class="edge"><title>Node392&#45;&gt;Node393</title>
<path fill="none" stroke="midnightblue" d="M612.328,-272C644.864,-272 692.784,-272 724.67,-272"/>
<polygon fill="midnightblue" stroke="midnightblue" points="724.823,-275.5 734.823,-272 724.823,-268.5 724.823,-275.5"/>
</g>
<!-- Node395&#45;&gt;Node387 -->
<g id="edge15" class="edge"><title>Node395&#45;&gt;Node387</title>
<path fill="none" stroke="midnightblue" d="M269.266,-296.186C289.552,-298.988 312.224,-302.119 332.453,-304.913"/>
<polygon fill="midnightblue" stroke="midnightblue" points="332.088,-308.396 342.473,-306.297 333.046,-301.462 332.088,-308.396"/>
</g>
<!-- Node395&#45;&gt;Node389 -->
<g id="edge16" class="edge"><title>Node395&#45;&gt;Node389</title>
<path fill="none" stroke="midnightblue" d="M269.266,-281.779C282.165,-280.425 296.029,-278.969 309.615,-277.543"/>
<polygon fill="midnightblue" stroke="midnightblue" points="310.351,-280.985 319.931,-276.46 309.62,-274.024 310.351,-280.985"/>
</g>
<!-- Node395&#45;&gt;Node394 -->
<g id="edge17" class="edge"><title>Node395&#45;&gt;Node394</title>
<path fill="none" stroke="midnightblue" d="M256.999,-278.476C266.146,-275.918 275.521,-272.783 284,-269 301.561,-261.165 302.531,-253.039 320,-245 326.097,-242.194 332.673,-239.699 339.276,-237.505"/>
<polygon fill="midnightblue" stroke="midnightblue" points="340.41,-240.818 348.918,-234.505 338.33,-234.134 340.41,-240.818"/>
</g>
<!-- Node398 -->
<g id="node17" class="node"><title>Node398</title>
<g id="a_node17"><a xlink:href="class_cool_file_system.html#a13f2958f5b87757c31fc53797a30d23a" target="_top" xlink:title="CoolFileSystem::fileUpdate">
<polygon fill="white" stroke="black" points="323.5,-158.5 323.5,-177.5 460.5,-177.5 460.5,-158.5 323.5,-158.5"/>
<text text-anchor="middle" x="392" y="-165.5" font-family="Helvetica,sans-Serif" font-size="10.00">CoolFileSystem::fileUpdate</text>
</a>
</g>
</g>
<!-- Node397&#45;&gt;Node398 -->
<g id="edge20" class="edge"><title>Node397&#45;&gt;Node398</title>
<path fill="none" stroke="midnightblue" d="M284.142,-168C293.779,-168 303.672,-168 313.364,-168"/>
<polygon fill="midnightblue" stroke="midnightblue" points="313.372,-171.5 323.372,-168 313.372,-164.5 313.372,-171.5"/>
</g>
<!-- Node400 -->
<g id="node19" class="node"><title>Node400</title>
<g id="a_node19"><a xlink:href="class_cool_pub_sub_client.html#ab6ad5fa2d3db8f91454027257f225a89" target="_top" xlink:title="CoolPubSubClient::publish">
<polygon fill="white" stroke="black" points="325,-114.5 325,-133.5 459,-133.5 459,-114.5 325,-114.5"/>
<text text-anchor="middle" x="392" y="-121.5" font-family="Helvetica,sans-Serif" font-size="10.00">CoolPubSubClient::publish</text>
</a>
</g>
</g>
<!-- Node399&#45;&gt;Node400 -->
<g id="edge22" class="edge"><title>Node399&#45;&gt;Node400</title>
<path fill="none" stroke="midnightblue" d="M259.938,-124C276.89,-124 296.235,-124 314.762,-124"/>
<polygon fill="midnightblue" stroke="midnightblue" points="314.951,-127.5 324.951,-124 314.951,-120.5 314.951,-127.5"/>
</g>
<!-- Node402 -->
<g id="node21" class="node"><title>Node402</title>
<g id="a_node21"><a xlink:href="class_cool_pub_sub_client.html#afc15900f0fc4886a19394508e61793b8" target="_top" xlink:title="CoolPubSubClient::loop">
<polygon fill="white" stroke="black" points="331.5,-76.5 331.5,-95.5 452.5,-95.5 452.5,-76.5 331.5,-76.5"/>
<text text-anchor="middle" x="392" y="-83.5" font-family="Helvetica,sans-Serif" font-size="10.00">CoolPubSubClient::loop</text>
</a>
</g>
</g>
<!-- Node401&#45;&gt;Node402 -->
<g id="edge24" class="edge"><title>Node401&#45;&gt;Node402</title>
<path fill="none" stroke="midnightblue" d="M264.797,-86C282.531,-86 302.443,-86 321.118,-86"/>
<polygon fill="midnightblue" stroke="midnightblue" points="321.344,-89.5001 331.344,-86 321.344,-82.5001 321.344,-89.5001"/>
</g>
<!-- Node403 -->
<g id="node22" class="node"><title>Node403</title>
<g id="a_node22"><a xlink:href="class_cool_pub_sub_client.html#a3d5a5da4ddb1e5c1bea64d80c665d148" target="_top" xlink:title="CoolPubSubClient::connected">
<polygon fill="white" stroke="black" points="502,-57.5 502,-76.5 650,-76.5 650,-57.5 502,-57.5"/>
<text text-anchor="middle" x="576" y="-64.5" font-family="Helvetica,sans-Serif" font-size="10.00">CoolPubSubClient::connected</text>
</a>
</g>
</g>
<!-- Node402&#45;&gt;Node403 -->
<g id="edge25" class="edge"><title>Node402&#45;&gt;Node403</title>
<path fill="none" stroke="midnightblue" d="M452.594,-79.7787C465.151,-78.4678 478.617,-77.062 491.86,-75.6795"/>
<polygon fill="midnightblue" stroke="midnightblue" points="492.342,-79.1483 501.924,-74.6288 491.615,-72.1861 492.342,-79.1483"/>
</g>
<!-- Node404 -->
<g id="node23" class="node"><title>Node404</title>
<g id="a_node23"><a xlink:href="class_cool_pub_sub_client.html#a25a8779149cfa809b7c06f63568b25cf" target="_top" xlink:title="CoolPubSubClient::readPacket">
<polygon fill="white" stroke="black" points="500,-95.5 500,-114.5 652,-114.5 652,-95.5 500,-95.5"/>
<text text-anchor="middle" x="576" y="-102.5" font-family="Helvetica,sans-Serif" font-size="10.00">CoolPubSubClient::readPacket</text>
</a>
</g>
</g>
<!-- Node402&#45;&gt;Node404 -->
<g id="edge26" class="edge"><title>Node402&#45;&gt;Node404</title>
<path fill="none" stroke="midnightblue" d="M452.594,-92.2213C464.537,-93.4681 477.302,-94.8008 489.916,-96.1176"/>
<polygon fill="midnightblue" stroke="midnightblue" points="489.671,-99.611 499.98,-97.1683 490.398,-92.6488 489.671,-99.611"/>
</g>
<!-- Node405 -->
<g id="node24" class="node"><title>Node405</title>
<g id="a_node24"><a xlink:href="class_cool_pub_sub_client.html#ad409bbd287d5894f0cf082f62446c002" target="_top" xlink:title="CoolPubSubClient::readByte">
<polygon fill="white" stroke="black" points="688,-95.5 688,-114.5 830,-114.5 830,-95.5 688,-95.5"/>
<text text-anchor="middle" x="759" y="-102.5" font-family="Helvetica,sans-Serif" font-size="10.00">CoolPubSubClient::readByte</text>
</a>
</g>
</g>
<!-- Node404&#45;&gt;Node405 -->
<g id="edge27" class="edge"><title>Node404&#45;&gt;Node405</title>
<path fill="none" stroke="midnightblue" d="M652.188,-105C660.612,-105 669.219,-105 677.704,-105"/>
<polygon fill="midnightblue" stroke="midnightblue" points="677.974,-108.5 687.974,-105 677.974,-101.5 677.974,-108.5"/>
</g>
</g>
</svg>
        <g id="navigator" transform="translate(0 0)" fill="#404254">
                <rect fill="#f2f5e9" fill-opacity="0.5" stroke="#606060" stroke-width=".5" x="0" y="0" width="60" height="60"/>
                <use id="zoomplus" xlink:href="#zoomPlus" x="17" y="9" onmousedown="handleZoom(evt,'in')"/>
                <use id="zoomminus" xlink:href="#zoomMin" x="42" y="9" onmousedown="handleZoom(evt,'out')"/>
                <use id="reset" xlink:href="#resetDef" x="30" y="36" onmousedown="handleReset()"/>
                <g id="arrowUp" xlink:href="#dirArrow" transform="translate(30 24)" onmousedown="handlePan(0,-1)">
                  <use xlink:href="#rim" fill="#404040">
                        <set attributeName="fill" to="#808080" begin="arrowUp.mouseover" end="arrowUp.mouseout"/>
                  </use>
                  <path fill="none" stroke="white" stroke-width="1.5" d="M0,-3.0v7 M-2.5,-0.5L0,-3.0L2.5,-0.5"/>
                </g>
                <g id="arrowRight" xlink:href="#dirArrow" transform="rotate(90) translate(36 -43)" onmousedown="handlePan(1,0)">
                  <use xlink:href="#rim" fill="#404040">
                        <set attributeName="fill" to="#808080" begin="arrowRight.mouseover" end="arrowRight.mouseout"/>
                  </use>
                  <path fill="none" stroke="white" stroke-width="1.5" d="M0,-3.0v7 M-2.5,-0.5L0,-3.0L2.5,-0.5"/>
                </g>
                <g id="arrowDown" xlink:href="#dirArrow" transform="rotate(180) translate(-30 -48)" onmousedown="handlePan(0,1)">
                  <use xlink:href="#rim" fill="#404040">
                        <set attributeName="fill" to="#808080" begin="arrowDown.mouseover" end="arrowDown.mouseout"/>
                  </use>
                  <path fill="none" stroke="white" stroke-width="1.5" d="M0,-3.0v7 M-2.5,-0.5L0,-3.0L2.5,-0.5"/>
                </g>
                <g id="arrowLeft" xlink:href="#dirArrow" transform="rotate(270) translate(-36 17)" onmousedown="handlePan(-1,0)">
                  <use xlink:href="#rim" fill="#404040">
                        <set attributeName="fill" to="#808080" begin="arrowLeft.mouseover" end="arrowLeft.mouseout"/>
                  </use>
                  <path fill="none" stroke="white" stroke-width="1.5" d="M0,-3.0v7 M-2.5,-0.5L0,-3.0L2.5,-0.5"/>
                </g>
        </g>
        <svg viewBox="0 0 15 15" width="100%" height="30px" preserveAspectRatio="xMaxYMin meet">
         <g id="arrow_out" transform="scale(0.3 0.3)">
          <a xlink:href="class_cool_board_a8612756d3f73198cdde857a66f0fe690_cgraph_org.svg" target="_base">
           <rect id="button" ry="5" rx="5" y="6" x="6" height="38" width="38"
                fill="#f2f5e9" fill-opacity="0.5" stroke="#606060" stroke-width="1.0"/>
           <path id="arrow"
             d="M 11.500037,31.436501 C 11.940474,20.09759 22.043105,11.32322 32.158766,21.979434 L 37.068811,17.246167 C 37.068811,17.246167 37.088388,32 37.088388,32 L 22.160133,31.978069 C 22.160133,31.978069 26.997745,27.140456 26.997745,27.140456 C 18.528582,18.264221 13.291696,25.230495 11.500037,31.436501 z"
             style="fill:#404040;"/>
          </a>
         </g>
        </svg>
</svg>
