<?xml version="1.0" encoding="UTF-8" standalone="no"?>
<!DOCTYPE svg PUBLIC "-//W3C//DTD SVG 1.1//EN"
 "http://www.w3.org/Graphics/SVG/1.1/DTD/svg11.dtd">
<!-- Generated by graphviz version 2.38.0 (20140413.2041)
 -->
<!-- Title: CoolBoard::connect Pages: 1 -->
<!--zoomable 275 -->
<svg id="main" version="1.1" xmlns="http://www.w3.org/2000/svg" xmlns:xlink="http://www.w3.org/1999/xlink" xml:space="preserve" onload="init(evt)">
<style type="text/css"><![CDATA[
.edge:hover path { stroke: red; }
.edge:hover polygon { stroke: red; fill: red; }
]]></style>
<script type="text/javascript"><![CDATA[
var edges = document.getElementsByTagName('g');
if (edges && edges.length) {
  for (var i=0;i<edges.length;i++) {
    if (edges[i].id.substr(0,4)=='edge') {
      edges[i].setAttribute('class','edge');
    }
  }
}
]]></script>
        <defs>
                <circle id="rim" cx="0" cy="0" r="7"/>
                <circle id="rim2" cx="0" cy="0" r="3.5"/>
                <g id="zoomPlus">
                        <use xlink:href="#rim" fill="#404040">
                                <set attributeName="fill" to="#808080" begin="zoomplus.mouseover" end="zoomplus.mouseout"/>
                        </use>
                        <path d="M-4,0h8M0,-4v8" fill="none" stroke="white" stroke-width="1.5" pointer-events="none"/>
                </g>
                <g id="zoomMin">
                        <use xlink:href="#rim" fill="#404040">
                                <set attributeName="fill" to="#808080" begin="zoomminus.mouseover" end="zoomminus.mouseout"/>
                        </use>
                        <path d="M-4,0h8" fill="none" stroke="white" stroke-width="1.5" pointer-events="none"/>
                </g>
                <g id="dirArrow">
                        <path fill="none" stroke="white" stroke-width="1.5" d="M0,-3.0v7 M-2.5,-0.5L0,-3.0L2.5,-0.5"/>
                </g>
               <g id="resetDef">
                       <use xlink:href="#rim2" fill="#404040">
                               <set attributeName="fill" to="#808080" begin="reset.mouseover" end="reset.mouseout"/>
                       </use>
               </g>
        </defs>

<script type="text/javascript">
var viewWidth = 872;
var viewHeight = 275;
var sectionId = 'dynsection-3';
</script>
<script xlink:href="svgpan.js"/>
<svg id="graph" class="graph">
<g id="viewport">
<title>CoolBoard::connect</title>
<polygon fill="white" stroke="none" points="-4,4 -4,-271 868,-271 868,4 -4,4"/>
<!-- Node98 -->
<g id="node1" class="node"><title>Node98</title>
<polygon fill="#bfbfbf" stroke="black" points="0,-114.5 0,-133.5 103,-133.5 103,-114.5 0,-114.5"/>
<text text-anchor="middle" x="51.5" y="-121.5" font-family="Helvetica,sans-Serif" font-size="10.00">CoolBoard::connect</text>
</g>
<!-- Node99 -->
<g id="node2" class="node"><title>Node99</title>
<g id="a_node2"><a xlink:href="class_cool_board_led.html#a30fadd4cbec17ceea428bf7a32207e87" target="_top" xlink:title="CoolBoardLed::write">
<polygon fill="white" stroke="black" points="151.5,-228.5 151.5,-247.5 256.5,-247.5 256.5,-228.5 151.5,-228.5"/>
<text text-anchor="middle" x="204" y="-235.5" font-family="Helvetica,sans-Serif" font-size="10.00">CoolBoardLed::write</text>
</a>
</g>
</g>
<!-- Node98&#45;&gt;Node99 -->
<g id="edge1" class="edge"><title>Node98&#45;&gt;Node99</title>
<path fill="none" stroke="midnightblue" d="M58.6177,-133.673C71.2533,-152.862 102.157,-195.881 139,-219 142.329,-221.089 145.898,-222.958 149.587,-224.628"/>
<polygon fill="midnightblue" stroke="midnightblue" points="148.346,-227.901 158.93,-228.384 150.957,-221.407 148.346,-227.901"/>
</g>
<!-- Node100 -->
<g id="node3" class="node"><title>Node100</title>
<g id="a_node3"><a xlink:href="class_cool_wifi.html#ad060353050f40d032a2dbf9e54a768bf" target="_top" xlink:title="CoolWifi::connect">
<polygon fill="white" stroke="black" points="156.5,-190.5 156.5,-209.5 251.5,-209.5 251.5,-190.5 156.5,-190.5"/>
<text text-anchor="middle" x="204" y="-197.5" font-family="Helvetica,sans-Serif" font-size="10.00">CoolWifi::connect</text>
</a>
</g>
</g>
<!-- Node98&#45;&gt;Node100 -->
<g id="edge2" class="edge"><title>Node98&#45;&gt;Node100</title>
<path fill="none" stroke="midnightblue" d="M64.4295,-133.519C80.5219,-145.96 110.466,-167.719 139,-181 143.926,-183.293 149.193,-185.383 154.512,-187.267"/>
<polygon fill="midnightblue" stroke="midnightblue" points="153.486,-190.615 164.08,-190.438 155.688,-183.97 153.486,-190.615"/>
</g>
<!-- Node108 -->
<g id="node11" class="node"><title>Node108</title>
<g id="a_node11"><a xlink:href="class_cool_wifi.html#a1c7b4d82a4098d346e7593dce92039fa" target="_top" xlink:title="CoolWifi::state">
<polygon fill="white" stroke="black" points="163,-152.5 163,-171.5 245,-171.5 245,-152.5 163,-152.5"/>
<text text-anchor="middle" x="204" y="-159.5" font-family="Helvetica,sans-Serif" font-size="10.00">CoolWifi::state</text>
</a>
</g>
</g>
<!-- Node98&#45;&gt;Node108 -->
<g id="edge10" class="edge"><title>Node98&#45;&gt;Node108</title>
<path fill="none" stroke="midnightblue" d="M90.4775,-133.589C110.159,-138.558 134.391,-144.677 155.321,-149.961"/>
<polygon fill="midnightblue" stroke="midnightblue" points="154.743,-153.425 165.296,-152.48 156.457,-146.638 154.743,-153.425"/>
</g>
<!-- Node109 -->
<g id="node12" class="node"><title>Node109</title>
<g id="a_node12"><a xlink:href="class_cool_m_q_t_t.html#a50075d0ab23a327ab897fd6adad20eda" target="_top" xlink:title="CoolMQTT::connect">
<polygon fill="white" stroke="black" points="151.5,-114.5 151.5,-133.5 256.5,-133.5 256.5,-114.5 151.5,-114.5"/>
<text text-anchor="middle" x="204" y="-121.5" font-family="Helvetica,sans-Serif" font-size="10.00">CoolMQTT::connect</text>
</a>
</g>
</g>
<!-- Node98&#45;&gt;Node109 -->
<g id="edge11" class="edge"><title>Node98&#45;&gt;Node109</title>
<path fill="none" stroke="midnightblue" d="M103.033,-124C115.296,-124 128.545,-124 141.261,-124"/>
<polygon fill="midnightblue" stroke="midnightblue" points="141.317,-127.5 151.317,-124 141.317,-120.5 141.317,-127.5"/>
</g>
<!-- Node113 -->
<g id="node16" class="node"><title>Node113</title>
<g id="a_node16"><a xlink:href="class_cool_m_q_t_t.html#a5d003307eff78efbd585e42b43b72b6d" target="_top" xlink:title="CoolMQTT::state">
<polygon fill="white" stroke="black" points="333,-38.5 333,-57.5 425,-57.5 425,-38.5 333,-38.5"/>
<text text-anchor="middle" x="379" y="-45.5" font-family="Helvetica,sans-Serif" font-size="10.00">CoolMQTT::state</text>
</a>
</g>
</g>
<!-- Node98&#45;&gt;Node113 -->
<g id="edge18" class="edge"><title>Node98&#45;&gt;Node113</title>
<path fill="none" stroke="midnightblue" d="M93.3952,-114.452C152.796,-100.582 262.871,-74.8811 327.333,-59.8301"/>
<polygon fill="midnightblue" stroke="midnightblue" points="328.33,-63.1916 337.272,-57.5094 326.738,-56.3749 328.33,-63.1916"/>
</g>
<!-- Node115 -->
<g id="node18" class="node"><title>Node115</title>
<g id="a_node18"><a xlink:href="class_cool_board.html#a7508e029f2ee17bb747ffab599285e0d" target="_top" xlink:title="CoolBoard::getLogInterval">
<polygon fill="white" stroke="black" points="139,-38.5 139,-57.5 269,-57.5 269,-38.5 139,-38.5"/>
<text text-anchor="middle" x="204" y="-45.5" font-family="Helvetica,sans-Serif" font-size="10.00">CoolBoard::getLogInterval</text>
</a>
</g>
</g>
<!-- Node98&#45;&gt;Node115 -->
<g id="edge17" class="edge"><title>Node98&#45;&gt;Node115</title>
<path fill="none" stroke="midnightblue" d="M66.7403,-114.33C83.5245,-103.198 112.494,-84.8046 139,-72 147.152,-68.0621 156.128,-64.3399 164.715,-61.0545"/>
<polygon fill="midnightblue" stroke="midnightblue" points="166.021,-64.3032 174.178,-57.5426 163.585,-57.7405 166.021,-64.3032"/>
</g>
<!-- Node116 -->
<g id="node19" class="node"><title>Node116</title>
<g id="a_node19"><a xlink:href="class_cool_board_led.html#a96e1ea13003eee34c9dbcef340404426" target="_top" xlink:title="CoolBoardLed::blink">
<polygon fill="white" stroke="black" points="152,-0.5 152,-19.5 256,-19.5 256,-0.5 152,-0.5"/>
<text text-anchor="middle" x="204" y="-7.5" font-family="Helvetica,sans-Serif" font-size="10.00">CoolBoardLed::blink</text>
</a>
</g>
</g>
<!-- Node98&#45;&gt;Node116 -->
<g id="edge19" class="edge"><title>Node98&#45;&gt;Node116</title>
<path fill="none" stroke="midnightblue" d="M58.6177,-114.327C71.2533,-95.1381 102.157,-52.1189 139,-29 142.329,-26.9112 145.898,-25.0424 149.587,-23.372"/>
<polygon fill="midnightblue" stroke="midnightblue" points="150.957,-26.5934 158.93,-19.6161 148.346,-20.0985 150.957,-26.5934"/>
</g>
<!-- Node101 -->
<g id="node4" class="node"><title>Node101</title>
<g id="a_node4"><a xlink:href="class_cool_wifi.html#a419de92d738f14b7444cf822b3ab0070" target="_top" xlink:title="CoolWifi::connectWifiMulti">
<polygon fill="white" stroke="black" points="312.5,-228.5 312.5,-247.5 445.5,-247.5 445.5,-228.5 312.5,-228.5"/>
<text text-anchor="middle" x="379" y="-235.5" font-family="Helvetica,sans-Serif" font-size="10.00">CoolWifi::connectWifiMulti</text>
</a>
</g>
</g>
<!-- Node100&#45;&gt;Node101 -->
<g id="edge3" class="edge"><title>Node100&#45;&gt;Node101</title>
<path fill="none" stroke="midnightblue" d="M248.655,-209.589C271.793,-214.671 300.402,-220.955 324.827,-226.32"/>
<polygon fill="midnightblue" stroke="midnightblue" points="324.141,-229.753 334.659,-228.48 325.642,-222.916 324.141,-229.753"/>
</g>
<!-- Node102 -->
<g id="node5" class="node"><title>Node102</title>
<g id="a_node5"><a xlink:href="class_cool_wifi.html#a7c857f27161782f5ef1d62d552aff971" target="_top" xlink:title="CoolWifi::connectAP">
<polygon fill="white" stroke="black" points="325,-190.5 325,-209.5 433,-209.5 433,-190.5 325,-190.5"/>
<text text-anchor="middle" x="379" y="-197.5" font-family="Helvetica,sans-Serif" font-size="10.00">CoolWifi::connectAP</text>
</a>
</g>
</g>
<!-- Node100&#45;&gt;Node102 -->
<g id="edge4" class="edge"><title>Node100&#45;&gt;Node102</title>
<path fill="none" stroke="midnightblue" d="M251.816,-200C271.165,-200 293.897,-200 314.696,-200"/>
<polygon fill="midnightblue" stroke="midnightblue" points="314.728,-203.5 324.728,-200 314.728,-196.5 314.728,-203.5"/>
</g>
<!-- Node103 -->
<g id="node6" class="node"><title>Node103</title>
<g id="a_node6"><a xlink:href="class_wi_fi_manager.html#a4dd1dbf4f22900f226a3897b88155212" target="_top" xlink:title="WiFiManager::setRemoveDuplicateAPs">
<polygon fill="white" stroke="black" points="489,-247.5 489,-266.5 680,-266.5 680,-247.5 489,-247.5"/>
<text text-anchor="middle" x="584.5" y="-254.5" font-family="Helvetica,sans-Serif" font-size="10.00">WiFiManager::setRemoveDuplicateAPs</text>
</a>
</g>
</g>
<!-- Node102&#45;&gt;Node103 -->
<g id="edge5" class="edge"><title>Node102&#45;&gt;Node103</title>
<path fill="none" stroke="midnightblue" d="M423.372,-209.527C433.249,-212.18 443.599,-215.352 453,-219 469.867,-225.544 471.956,-231.932 489,-238 496.622,-240.713 504.735,-243.079 512.882,-245.133"/>
<polygon fill="midnightblue" stroke="midnightblue" points="512.268,-248.584 522.805,-247.484 513.882,-241.773 512.268,-248.584"/>
</g>
<!-- Node104 -->
<g id="node7" class="node"><title>Node104</title>
<g id="a_node7"><a xlink:href="class_wi_fi_manager.html#aa6493d59c284ff245edb767ff684756d" target="_top" xlink:title="WiFiManager::setTimeout">
<polygon fill="white" stroke="black" points="520,-209.5 520,-228.5 649,-228.5 649,-209.5 520,-209.5"/>
<text text-anchor="middle" x="584.5" y="-216.5" font-family="Helvetica,sans-Serif" font-size="10.00">WiFiManager::setTimeout</text>
</a>
</g>
</g>
<!-- Node102&#45;&gt;Node104 -->
<g id="edge6" class="edge"><title>Node102&#45;&gt;Node104</title>
<path fill="none" stroke="midnightblue" d="M433.201,-204.967C456.49,-207.142 484.21,-209.73 509.464,-212.088"/>
<polygon fill="midnightblue" stroke="midnightblue" points="509.462,-215.603 519.744,-213.047 510.113,-208.633 509.462,-215.603"/>
</g>
<!-- Node106 -->
<g id="node9" class="node"><title>Node106</title>
<g id="a_node9"><a xlink:href="class_wi_fi_manager.html#ae3cdfa6b02edcfe63d7da4f696b62136" target="_top" xlink:title="WiFiManager::autoConnect">
<polygon fill="white" stroke="black" points="516.5,-171.5 516.5,-190.5 652.5,-190.5 652.5,-171.5 516.5,-171.5"/>
<text text-anchor="middle" x="584.5" y="-178.5" font-family="Helvetica,sans-Serif" font-size="10.00">WiFiManager::autoConnect</text>
</a>
</g>
</g>
<!-- Node102&#45;&gt;Node106 -->
<g id="edge8" class="edge"><title>Node102&#45;&gt;Node106</title>
<path fill="none" stroke="midnightblue" d="M433.201,-195.033C455.558,-192.945 481.999,-190.477 506.422,-188.196"/>
<polygon fill="midnightblue" stroke="midnightblue" points="506.755,-191.681 516.386,-187.266 506.104,-184.711 506.755,-191.681"/>
</g>
<!-- Node107 -->
<g id="node10" class="node"><title>Node107</title>
<g id="a_node10"><a xlink:href="class_cool_wifi.html#a914d7a1df14dd6b75345fb614c34e9d6" target="_top" xlink:title="CoolWifi::addWifi">
<polygon fill="white" stroke="black" points="538,-133.5 538,-152.5 631,-152.5 631,-133.5 538,-133.5"/>
<text text-anchor="middle" x="584.5" y="-140.5" font-family="Helvetica,sans-Serif" font-size="10.00">CoolWifi::addWifi</text>
</a>
</g>
</g>
<!-- Node102&#45;&gt;Node107 -->
<g id="edge9" class="edge"><title>Node102&#45;&gt;Node107</title>
<path fill="none" stroke="midnightblue" d="M423.372,-190.473C433.249,-187.82 443.599,-184.648 453,-181 469.867,-174.456 471.956,-168.068 489,-162 501.191,-157.66 514.639,-154.208 527.473,-151.504"/>
<polygon fill="midnightblue" stroke="midnightblue" points="528.472,-154.874 537.598,-149.493 527.108,-148.008 528.472,-154.874"/>
</g>
<!-- Node105 -->
<g id="node8" class="node"><title>Node105</title>
<g id="a_node8"><a xlink:href="class_wi_fi_manager.html#a904006cb4d2c769e93bfdef336853766" target="_top" xlink:title="WiFiManager::setConfigPortal\lTimeout">
<polygon fill="white" stroke="black" points="716,-204 716,-234 864,-234 864,-204 716,-204"/>
<text text-anchor="start" x="724" y="-222" font-family="Helvetica,sans-Serif" font-size="10.00">WiFiManager::setConfigPortal</text>
<text text-anchor="middle" x="790" y="-211" font-family="Helvetica,sans-Serif" font-size="10.00">Timeout</text>
</a>
</g>
</g>
<!-- Node104&#45;&gt;Node105 -->
<g id="edge7" class="edge"><title>Node104&#45;&gt;Node105</title>
<path fill="none" stroke="midnightblue" d="M649.052,-219C667.043,-219 686.898,-219 705.861,-219"/>
<polygon fill="midnightblue" stroke="midnightblue" points="705.982,-222.5 715.982,-219 705.982,-215.5 705.982,-222.5"/>
</g>
<!-- Node110 -->
<g id="node13" class="node"><title>Node110</title>
<g id="a_node13"><a xlink:href="class_cool_pub_sub_client.html#a3d5a5da4ddb1e5c1bea64d80c665d148" target="_top" xlink:title="CoolPubSubClient::connected">
<polygon fill="white" stroke="black" points="305,-152.5 305,-171.5 453,-171.5 453,-152.5 305,-152.5"/>
<text text-anchor="middle" x="379" y="-159.5" font-family="Helvetica,sans-Serif" font-size="10.00">CoolPubSubClient::connected</text>
</a>
</g>
</g>
<!-- Node109&#45;&gt;Node110 -->
<g id="edge12" class="edge"><title>Node109&#45;&gt;Node110</title>
<path fill="none" stroke="midnightblue" d="M248.655,-133.589C271.793,-138.671 300.402,-144.955 324.827,-150.32"/>
<polygon fill="midnightblue" stroke="midnightblue" points="324.141,-153.753 334.659,-152.48 325.642,-146.916 324.141,-153.753"/>
</g>
<!-- Node111 -->
<g id="node14" class="node"><title>Node111</title>
<g id="a_node14"><a xlink:href="class_cool_pub_sub_client.html#a2664c2ebc302b2fa49f493a339ecc891" target="_top" xlink:title="CoolPubSubClient::connect">
<polygon fill="white" stroke="black" points="310.5,-114.5 310.5,-133.5 447.5,-133.5 447.5,-114.5 310.5,-114.5"/>
<text text-anchor="middle" x="379" y="-121.5" font-family="Helvetica,sans-Serif" font-size="10.00">CoolPubSubClient::connect</text>
</a>
</g>
</g>
<!-- Node109&#45;&gt;Node111 -->
<g id="edge13" class="edge"><title>Node109&#45;&gt;Node111</title>
<path fill="none" stroke="midnightblue" d="M256.906,-124C270.572,-124 285.618,-124 300.32,-124"/>
<polygon fill="midnightblue" stroke="midnightblue" points="300.423,-127.5 310.423,-124 300.423,-120.5 300.423,-127.5"/>
</g>
<!-- Node112 -->
<g id="node15" class="node"><title>Node112</title>
<g id="a_node15"><a xlink:href="class_cool_pub_sub_client.html#ac1ebc9ad874128aefa985d78496d2e8f" target="_top" xlink:title="CoolPubSubClient::subscribe">
<polygon fill="white" stroke="black" points="306.5,-76.5 306.5,-95.5 451.5,-95.5 451.5,-76.5 306.5,-76.5"/>
<text text-anchor="middle" x="379" y="-83.5" font-family="Helvetica,sans-Serif" font-size="10.00">CoolPubSubClient::subscribe</text>
</a>
</g>
</g>
<!-- Node109&#45;&gt;Node112 -->
<g id="edge14" class="edge"><title>Node109&#45;&gt;Node112</title>
<path fill="none" stroke="midnightblue" d="M248.655,-114.411C271.793,-109.329 300.402,-103.045 324.827,-97.6797"/>
<polygon fill="midnightblue" stroke="midnightblue" points="325.642,-101.084 334.659,-95.5201 324.141,-94.247 325.642,-101.084"/>
</g>
<!-- Node109&#45;&gt;Node113 -->
<g id="edge15" class="edge"><title>Node109&#45;&gt;Node113</title>
<path fill="none" stroke="midnightblue" d="M237.699,-114.458C248.101,-110.721 259.391,-105.896 269,-100 287.5,-88.6484 285.934,-77.3733 305,-67 310.586,-63.9606 316.68,-61.3906 322.888,-59.2213"/>
<polygon fill="midnightblue" stroke="midnightblue" points="324.196,-62.4786 332.68,-56.1323 322.09,-55.8029 324.196,-62.4786"/>
</g>
<!-- Node114 -->
<g id="node17" class="node"><title>Node114</title>
<g id="a_node17"><a xlink:href="class_cool_pub_sub_client.html#a3245a5afc6d22e61270dcfe392ccb866" target="_top" xlink:title="CoolPubSubClient::state">
<polygon fill="white" stroke="black" points="522,-38.5 522,-57.5 647,-57.5 647,-38.5 522,-38.5"/>
<text text-anchor="middle" x="584.5" y="-45.5" font-family="Helvetica,sans-Serif" font-size="10.00">CoolPubSubClient::state</text>
</a>
</g>
</g>
<!-- Node113&#45;&gt;Node114 -->
<g id="edge16" class="edge"><title>Node113&#45;&gt;Node114</title>
<path fill="none" stroke="midnightblue" d="M425.163,-48C450.616,-48 482.997,-48 511.834,-48"/>
<polygon fill="midnightblue" stroke="midnightblue" points="511.869,-51.5001 521.869,-48 511.869,-44.5001 511.869,-51.5001"/>
</g>
</g>
</svg>
        <g id="navigator" transform="translate(0 0)" fill="#404254">
                <rect fill="#f2f5e9" fill-opacity="0.5" stroke="#606060" stroke-width=".5" x="0" y="0" width="60" height="60"/>
                <use id="zoomplus" xlink:href="#zoomPlus" x="17" y="9" onmousedown="handleZoom(evt,'in')"/>
                <use id="zoomminus" xlink:href="#zoomMin" x="42" y="9" onmousedown="handleZoom(evt,'out')"/>
                <use id="reset" xlink:href="#resetDef" x="30" y="36" onmousedown="handleReset()"/>
                <g id="arrowUp" xlink:href="#dirArrow" transform="translate(30 24)" onmousedown="handlePan(0,-1)">
                  <use xlink:href="#rim" fill="#404040">
                        <set attributeName="fill" to="#808080" begin="arrowUp.mouseover" end="arrowUp.mouseout"/>
                  </use>
                  <path fill="none" stroke="white" stroke-width="1.5" d="M0,-3.0v7 M-2.5,-0.5L0,-3.0L2.5,-0.5"/>
                </g>
                <g id="arrowRight" xlink:href="#dirArrow" transform="rotate(90) translate(36 -43)" onmousedown="handlePan(1,0)">
                  <use xlink:href="#rim" fill="#404040">
                        <set attributeName="fill" to="#808080" begin="arrowRight.mouseover" end="arrowRight.mouseout"/>
                  </use>
                  <path fill="none" stroke="white" stroke-width="1.5" d="M0,-3.0v7 M-2.5,-0.5L0,-3.0L2.5,-0.5"/>
                </g>
                <g id="arrowDown" xlink:href="#dirArrow" transform="rotate(180) translate(-30 -48)" onmousedown="handlePan(0,1)">
                  <use xlink:href="#rim" fill="#404040">
                        <set attributeName="fill" to="#808080" begin="arrowDown.mouseover" end="arrowDown.mouseout"/>
                  </use>
                  <path fill="none" stroke="white" stroke-width="1.5" d="M0,-3.0v7 M-2.5,-0.5L0,-3.0L2.5,-0.5"/>
                </g>
                <g id="arrowLeft" xlink:href="#dirArrow" transform="rotate(270) translate(-36 17)" onmousedown="handlePan(-1,0)">
                  <use xlink:href="#rim" fill="#404040">
                        <set attributeName="fill" to="#808080" begin="arrowLeft.mouseover" end="arrowLeft.mouseout"/>
                  </use>
                  <path fill="none" stroke="white" stroke-width="1.5" d="M0,-3.0v7 M-2.5,-0.5L0,-3.0L2.5,-0.5"/>
                </g>
        </g>
        <svg viewBox="0 0 15 15" width="100%" height="30px" preserveAspectRatio="xMaxYMin meet">
         <g id="arrow_out" transform="scale(0.3 0.3)">
          <a xlink:href="class_cool_board_a519de78b807f8ec6463ff484eb925918_cgraph_org.svg" target="_base">
           <rect id="button" ry="5" rx="5" y="6" x="6" height="38" width="38"
                fill="#f2f5e9" fill-opacity="0.5" stroke="#606060" stroke-width="1.0"/>
           <path id="arrow"
             d="M 11.500037,31.436501 C 11.940474,20.09759 22.043105,11.32322 32.158766,21.979434 L 37.068811,17.246167 C 37.068811,17.246167 37.088388,32 37.088388,32 L 22.160133,31.978069 C 22.160133,31.978069 26.997745,27.140456 26.997745,27.140456 C 18.528582,18.264221 13.291696,25.230495 11.500037,31.436501 z"
             style="fill:#404040;"/>
          </a>
         </g>
        </svg>
</svg>
