<?xml version="1.0" encoding="UTF-8" standalone="no"?>
<!DOCTYPE svg PUBLIC "-//W3C//DTD SVG 1.1//EN"
 "http://www.w3.org/Graphics/SVG/1.1/DTD/svg11.dtd">
<!-- Generated by graphviz version 2.38.0 (20140413.2041)
 -->
<!-- Title: CoolBoardSensors::read Pages: 1 -->
<svg width="510pt" height="408pt"
 viewBox="0.00 0.00 510.00 408.00" xmlns="http://www.w3.org/2000/svg" xmlns:xlink="http://www.w3.org/1999/xlink">
<g id="graph0" class="graph" transform="scale(1 1) rotate(0) translate(4 404)">
<title>CoolBoardSensors::read</title>
<polygon fill="white" stroke="none" points="-4,4 -4,-404 506,-404 506,4 -4,4"/>
<!-- Node29 -->
<g id="node1" class="node"><title>Node29</title>
<polygon fill="#bfbfbf" stroke="black" points="0,-190.5 0,-209.5 123,-209.5 123,-190.5 0,-190.5"/>
<text text-anchor="middle" x="61.5" y="-197.5" font-family="Helvetica,sans-Serif" font-size="10.00">CoolBoardSensors::read</text>
</g>
<!-- Node30 -->
<g id="node2" class="node"><title>Node30</title>
<g id="a_node2"><a xlink:href="class_cool_s_i114_x.html#a869d3825147831d707f7ef324a665646" target="_top" xlink:title="CoolSI114X::ReadResponseReg">
<polygon fill="white" stroke="black" points="159,-380.5 159,-399.5 320,-399.5 320,-380.5 159,-380.5"/>
<text text-anchor="middle" x="239.5" y="-387.5" font-family="Helvetica,sans-Serif" font-size="10.00">CoolSI114X::ReadResponseReg</text>
</a>
</g>
</g>
<!-- Node29&#45;&gt;Node30 -->
<g id="edge1" class="edge"><title>Node29&#45;&gt;Node30</title>
<path fill="none" stroke="midnightblue" d="M64.9574,-209.564C72.982,-238.779 101.286,-327.506 159,-371 161.47,-372.862 164.096,-374.544 166.833,-376.064"/>
<polygon fill="midnightblue" stroke="midnightblue" points="165.367,-379.242 175.899,-380.387 168.38,-372.924 165.367,-379.242"/>
</g>
<!-- Node32 -->
<g id="node4" class="node"><title>Node32</title>
<g id="a_node4"><a xlink:href="class_cool_s_i114_x.html#abf45eb10a6de1be16e68a51624fa2608" target="_top" xlink:title="CoolSI114X::WriteParamData">
<polygon fill="white" stroke="black" points="165.5,-342.5 165.5,-361.5 313.5,-361.5 313.5,-342.5 165.5,-342.5"/>
<text text-anchor="middle" x="239.5" y="-349.5" font-family="Helvetica,sans-Serif" font-size="10.00">CoolSI114X::WriteParamData</text>
</a>
</g>
</g>
<!-- Node29&#45;&gt;Node32 -->
<g id="edge3" class="edge"><title>Node29&#45;&gt;Node32</title>
<path fill="none" stroke="midnightblue" d="M66.5129,-209.503C77.4244,-234.13 110.13,-300.36 159,-333 162.072,-335.052 165.341,-336.883 168.736,-338.516"/>
<polygon fill="midnightblue" stroke="midnightblue" points="167.39,-341.747 177.965,-342.397 170.103,-335.295 167.39,-341.747"/>
</g>
<!-- Node34 -->
<g id="node6" class="node"><title>Node34</title>
<g id="a_node6"><a xlink:href="class_cool_s_i114_x.html#a42e0e574256341443c647a4c0eda87d5" target="_top" xlink:title="CoolSI114X::ReadVisible">
<polygon fill="white" stroke="black" points="175.5,-304.5 175.5,-323.5 303.5,-323.5 303.5,-304.5 175.5,-304.5"/>
<text text-anchor="middle" x="239.5" y="-311.5" font-family="Helvetica,sans-Serif" font-size="10.00">CoolSI114X::ReadVisible</text>
</a>
</g>
</g>
<!-- Node29&#45;&gt;Node34 -->
<g id="edge6" class="edge"><title>Node29&#45;&gt;Node34</title>
<path fill="none" stroke="midnightblue" d="M69.2762,-209.528C83.5415,-228.842 118.697,-272.663 159,-295 163.018,-297.227 167.292,-299.195 171.692,-300.933"/>
<polygon fill="midnightblue" stroke="midnightblue" points="170.881,-304.358 181.475,-304.383 173.209,-297.757 170.881,-304.358"/>
</g>
<!-- Node36 -->
<g id="node8" class="node"><title>Node36</title>
<g id="a_node8"><a xlink:href="class_cool_s_i114_x.html#abc536ee7ae8e3ba9d1069acc3889a2cf" target="_top" xlink:title="CoolSI114X::ReadIR">
<polygon fill="white" stroke="black" points="185,-266.5 185,-285.5 294,-285.5 294,-266.5 185,-266.5"/>
<text text-anchor="middle" x="239.5" y="-273.5" font-family="Helvetica,sans-Serif" font-size="10.00">CoolSI114X::ReadIR</text>
</a>
</g>
</g>
<!-- Node29&#45;&gt;Node36 -->
<g id="edge8" class="edge"><title>Node29&#45;&gt;Node36</title>
<path fill="none" stroke="midnightblue" d="M75.8873,-209.676C93.9273,-222.29 127.429,-244.241 159,-257 165.276,-259.536 171.974,-261.787 178.718,-263.771"/>
<polygon fill="midnightblue" stroke="midnightblue" points="178.018,-267.209 188.589,-266.488 179.876,-260.46 178.018,-267.209"/>
</g>
<!-- Node37 -->
<g id="node9" class="node"><title>Node37</title>
<g id="a_node9"><a xlink:href="class_cool_s_i114_x.html#a14ced664d74e93438440b0274109c111" target="_top" xlink:title="CoolSI114X::ReadUV">
<polygon fill="white" stroke="black" points="183,-228.5 183,-247.5 296,-247.5 296,-228.5 183,-228.5"/>
<text text-anchor="middle" x="239.5" y="-235.5" font-family="Helvetica,sans-Serif" font-size="10.00">CoolSI114X::ReadUV</text>
</a>
</g>
</g>
<!-- Node29&#45;&gt;Node37 -->
<g id="edge10" class="edge"><title>Node29&#45;&gt;Node37</title>
<path fill="none" stroke="midnightblue" d="M106.912,-209.589C130.451,-214.671 159.557,-220.955 184.405,-226.32"/>
<polygon fill="midnightblue" stroke="midnightblue" points="183.894,-229.791 194.407,-228.48 185.371,-222.948 183.894,-229.791"/>
</g>
<!-- Node38 -->
<g id="node10" class="node"><title>Node38</title>
<g id="a_node10"><a xlink:href="class_b_m_e280.html#a1bbd14c8591966df531e40085342ff71" target="_top" xlink:title="BME280::readRegister">
<polygon fill="white" stroke="black" points="181.5,-190.5 181.5,-209.5 297.5,-209.5 297.5,-190.5 181.5,-190.5"/>
<text text-anchor="middle" x="239.5" y="-197.5" font-family="Helvetica,sans-Serif" font-size="10.00">BME280::readRegister</text>
</a>
</g>
</g>
<!-- Node29&#45;&gt;Node38 -->
<g id="edge12" class="edge"><title>Node29&#45;&gt;Node38</title>
<path fill="none" stroke="midnightblue" d="M123.069,-200C138.567,-200 155.326,-200 171.142,-200"/>
<polygon fill="midnightblue" stroke="midnightblue" points="171.377,-203.5 181.377,-200 171.377,-196.5 171.377,-203.5"/>
</g>
<!-- Node39 -->
<g id="node11" class="node"><title>Node39</title>
<g id="a_node11"><a xlink:href="class_b_m_e280.html#afffdd1d7ded9e1f92200e70669019d97" target="_top" xlink:title="BME280::readTempC">
<polygon fill="white" stroke="black" points="184,-152.5 184,-171.5 295,-171.5 295,-152.5 184,-152.5"/>
<text text-anchor="middle" x="239.5" y="-159.5" font-family="Helvetica,sans-Serif" font-size="10.00">BME280::readTempC</text>
</a>
</g>
</g>
<!-- Node29&#45;&gt;Node39 -->
<g id="edge13" class="edge"><title>Node29&#45;&gt;Node39</title>
<path fill="none" stroke="midnightblue" d="M106.912,-190.411C130.451,-185.329 159.557,-179.045 184.405,-173.68"/>
<polygon fill="midnightblue" stroke="midnightblue" points="185.371,-177.052 194.407,-171.52 183.894,-170.209 185.371,-177.052"/>
</g>
<!-- Node41 -->
<g id="node13" class="node"><title>Node41</title>
<g id="a_node13"><a xlink:href="class_b_m_e280.html#ada6e799917afb4f228e6253bc56ffe75" target="_top" xlink:title="BME280::readFloatPressure">
<polygon fill="white" stroke="black" points="169.5,-114.5 169.5,-133.5 309.5,-133.5 309.5,-114.5 169.5,-114.5"/>
<text text-anchor="middle" x="239.5" y="-121.5" font-family="Helvetica,sans-Serif" font-size="10.00">BME280::readFloatPressure</text>
</a>
</g>
</g>
<!-- Node29&#45;&gt;Node41 -->
<g id="edge15" class="edge"><title>Node29&#45;&gt;Node41</title>
<path fill="none" stroke="midnightblue" d="M75.8873,-190.324C93.9273,-177.71 127.429,-155.759 159,-143 165.276,-140.464 171.974,-138.213 178.718,-136.229"/>
<polygon fill="midnightblue" stroke="midnightblue" points="179.876,-139.54 188.589,-133.512 178.018,-132.791 179.876,-139.54"/>
</g>
<!-- Node42 -->
<g id="node14" class="node"><title>Node42</title>
<g id="a_node14"><a xlink:href="class_b_m_e280.html#a42ea7232039eebf5aadb391ef6132c35" target="_top" xlink:title="BME280::readFloatHumidity">
<polygon fill="white" stroke="black" points="169.5,-76.5 169.5,-95.5 309.5,-95.5 309.5,-76.5 169.5,-76.5"/>
<text text-anchor="middle" x="239.5" y="-83.5" font-family="Helvetica,sans-Serif" font-size="10.00">BME280::readFloatHumidity</text>
</a>
</g>
</g>
<!-- Node29&#45;&gt;Node42 -->
<g id="edge17" class="edge"><title>Node29&#45;&gt;Node42</title>
<path fill="none" stroke="midnightblue" d="M69.2762,-190.472C83.5415,-171.158 118.697,-127.337 159,-105 163.018,-102.773 167.292,-100.805 171.692,-99.067"/>
<polygon fill="midnightblue" stroke="midnightblue" points="173.209,-102.243 181.475,-95.6166 170.881,-95.6418 173.209,-102.243"/>
</g>
<!-- Node43 -->
<g id="node15" class="node"><title>Node43</title>
<g id="a_node15"><a xlink:href="class_cool_board_sensors.html#a6944b6ea7bce8e2fce1b434acfd9d5f3" target="_top" xlink:title="CoolBoardSensors::readVBat">
<polygon fill="white" stroke="black" points="167,-38.5 167,-57.5 312,-57.5 312,-38.5 167,-38.5"/>
<text text-anchor="middle" x="239.5" y="-45.5" font-family="Helvetica,sans-Serif" font-size="10.00">CoolBoardSensors::readVBat</text>
</a>
</g>
</g>
<!-- Node29&#45;&gt;Node43 -->
<g id="edge19" class="edge"><title>Node29&#45;&gt;Node43</title>
<path fill="none" stroke="midnightblue" d="M66.5129,-190.497C77.4244,-165.87 110.13,-99.64 159,-67 162.072,-64.9483 165.341,-63.1174 168.736,-61.4836"/>
<polygon fill="midnightblue" stroke="midnightblue" points="170.103,-64.7055 177.965,-57.6029 167.39,-58.2527 170.103,-64.7055"/>
</g>
<!-- Node44 -->
<g id="node16" class="node"><title>Node44</title>
<g id="a_node16"><a xlink:href="class_cool_board_sensors.html#a8761bff50373c485f4465c8db47d0633" target="_top" xlink:title="CoolBoardSensors::readMoisture">
<polygon fill="white" stroke="black" points="159,-0.5 159,-19.5 320,-19.5 320,-0.5 159,-0.5"/>
<text text-anchor="middle" x="239.5" y="-7.5" font-family="Helvetica,sans-Serif" font-size="10.00">CoolBoardSensors::readMoisture</text>
</a>
</g>
</g>
<!-- Node29&#45;&gt;Node44 -->
<g id="edge20" class="edge"><title>Node29&#45;&gt;Node44</title>
<path fill="none" stroke="midnightblue" d="M64.9574,-190.436C72.982,-161.221 101.286,-72.4938 159,-29 161.47,-27.1384 164.096,-25.4561 166.833,-23.936"/>
<polygon fill="midnightblue" stroke="midnightblue" points="168.38,-27.0762 175.899,-19.6125 165.367,-20.7579 168.38,-27.0762"/>
</g>
<!-- Node31 -->
<g id="node3" class="node"><title>Node31</title>
<g id="a_node3"><a xlink:href="class_cool_s_i114_x.html#acc20f8037e156ec4aadcbe90780b1e8b" target="_top" xlink:title="CoolSI114X::ReadByte">
<polygon fill="white" stroke="black" points="369.5,-380.5 369.5,-399.5 488.5,-399.5 488.5,-380.5 369.5,-380.5"/>
<text text-anchor="middle" x="429" y="-387.5" font-family="Helvetica,sans-Serif" font-size="10.00">CoolSI114X::ReadByte</text>
</a>
</g>
</g>
<!-- Node30&#45;&gt;Node31 -->
<g id="edge2" class="edge"><title>Node30&#45;&gt;Node31</title>
<path fill="none" stroke="midnightblue" d="M320.017,-390C333.091,-390 346.542,-390 359.323,-390"/>
<polygon fill="midnightblue" stroke="midnightblue" points="359.409,-393.5 369.409,-390 359.409,-386.5 359.409,-393.5"/>
</g>
<!-- Node32&#45;&gt;Node31 -->
<g id="edge5" class="edge"><title>Node32&#45;&gt;Node31</title>
<path fill="none" stroke="midnightblue" d="M287.814,-361.589C313.114,-366.716 344.45,-373.067 371.075,-378.463"/>
<polygon fill="midnightblue" stroke="midnightblue" points="370.53,-381.924 381.026,-380.48 371.921,-375.063 370.53,-381.924"/>
</g>
<!-- Node33 -->
<g id="node5" class="node"><title>Node33</title>
<g id="a_node5"><a xlink:href="class_cool_s_i114_x.html#ac5c8dc5ade604da7a1c8cd1586feefc2" target="_top" xlink:title="CoolSI114X::WriteByte">
<polygon fill="white" stroke="black" points="369.5,-342.5 369.5,-361.5 488.5,-361.5 488.5,-342.5 369.5,-342.5"/>
<text text-anchor="middle" x="429" y="-349.5" font-family="Helvetica,sans-Serif" font-size="10.00">CoolSI114X::WriteByte</text>
</a>
</g>
</g>
<!-- Node32&#45;&gt;Node33 -->
<g id="edge4" class="edge"><title>Node32&#45;&gt;Node33</title>
<path fill="none" stroke="midnightblue" d="M313.529,-352C328.568,-352 344.355,-352 359.236,-352"/>
<polygon fill="midnightblue" stroke="midnightblue" points="359.373,-355.5 369.373,-352 359.373,-348.5 359.373,-355.5"/>
</g>
<!-- Node35 -->
<g id="node7" class="node"><title>Node35</title>
<g id="a_node7"><a xlink:href="class_cool_s_i114_x.html#a1d25c9e137874af529804c2ec796a6b9" target="_top" xlink:title="CoolSI114X::ReadHalfWord">
<polygon fill="white" stroke="black" points="359,-266.5 359,-285.5 499,-285.5 499,-266.5 359,-266.5"/>
<text text-anchor="middle" x="429" y="-273.5" font-family="Helvetica,sans-Serif" font-size="10.00">CoolSI114X::ReadHalfWord</text>
</a>
</g>
</g>
<!-- Node34&#45;&gt;Node35 -->
<g id="edge7" class="edge"><title>Node34&#45;&gt;Node35</title>
<path fill="none" stroke="midnightblue" d="M287.814,-304.411C313.114,-299.284 344.45,-292.933 371.075,-287.537"/>
<polygon fill="midnightblue" stroke="midnightblue" points="371.921,-290.937 381.026,-285.52 370.53,-284.076 371.921,-290.937"/>
</g>
<!-- Node36&#45;&gt;Node35 -->
<g id="edge9" class="edge"><title>Node36&#45;&gt;Node35</title>
<path fill="none" stroke="midnightblue" d="M294.23,-276C311.213,-276 330.353,-276 348.732,-276"/>
<polygon fill="midnightblue" stroke="midnightblue" points="348.846,-279.5 358.846,-276 348.846,-272.5 348.846,-279.5"/>
</g>
<!-- Node37&#45;&gt;Node35 -->
<g id="edge11" class="edge"><title>Node37&#45;&gt;Node35</title>
<path fill="none" stroke="midnightblue" d="M287.814,-247.589C313.114,-252.716 344.45,-259.067 371.075,-264.463"/>
<polygon fill="midnightblue" stroke="midnightblue" points="370.53,-267.924 381.026,-266.48 371.921,-261.063 370.53,-267.924"/>
</g>
<!-- Node40 -->
<g id="node12" class="node"><title>Node40</title>
<g id="a_node12"><a xlink:href="class_b_m_e280.html#aecca87c2c40a7f2bcabcea921bdc6124" target="_top" xlink:title="BME280::readRegisterRegion">
<polygon fill="white" stroke="black" points="356,-114.5 356,-133.5 502,-133.5 502,-114.5 356,-114.5"/>
<text text-anchor="middle" x="429" y="-121.5" font-family="Helvetica,sans-Serif" font-size="10.00">BME280::readRegisterRegion</text>
</a>
</g>
</g>
<!-- Node39&#45;&gt;Node40 -->
<g id="edge14" class="edge"><title>Node39&#45;&gt;Node40</title>
<path fill="none" stroke="midnightblue" d="M287.814,-152.411C313.114,-147.284 344.45,-140.933 371.075,-135.537"/>
<polygon fill="midnightblue" stroke="midnightblue" points="371.921,-138.937 381.026,-133.52 370.53,-132.076 371.921,-138.937"/>
</g>
<!-- Node41&#45;&gt;Node40 -->
<g id="edge16" class="edge"><title>Node41&#45;&gt;Node40</title>
<path fill="none" stroke="midnightblue" d="M309.519,-124C321.348,-124 333.742,-124 345.873,-124"/>
<polygon fill="midnightblue" stroke="midnightblue" points="345.983,-127.5 355.983,-124 345.983,-120.5 345.983,-127.5"/>
</g>
<!-- Node42&#45;&gt;Node40 -->
<g id="edge18" class="edge"><title>Node42&#45;&gt;Node40</title>
<path fill="none" stroke="midnightblue" d="M287.814,-95.589C313.114,-100.716 344.45,-107.067 371.075,-112.463"/>
<polygon fill="midnightblue" stroke="midnightblue" points="370.53,-115.924 381.026,-114.48 371.921,-109.063 370.53,-115.924"/>
</g>
</g>
</svg>
