<?xml version="1.0" encoding="UTF-8" standalone="no"?>
<!DOCTYPE svg PUBLIC "-//W3C//DTD SVG 1.1//EN"
 "http://www.w3.org/Graphics/SVG/1.1/DTD/svg11.dtd">
<!-- Generated by graphviz version 2.38.0 (20140413.2041)
 -->
<!-- Title: CoolBoard::offLineMode Pages: 1 -->
<svg width="710pt" height="1635pt"
 viewBox="0.00 0.00 710.00 1635.00" xmlns="http://www.w3.org/2000/svg" xmlns:xlink="http://www.w3.org/1999/xlink">
<g id="graph0" class="graph" transform="scale(1 1) rotate(0) translate(4 1631)">
<title>CoolBoard::offLineMode</title>
<polygon fill="white" stroke="none" points="-4,4 -4,-1631 706,-1631 706,4 -4,4"/>
<!-- Node137 -->
<g id="node1" class="node"><title>Node137</title>
<polygon fill="#bfbfbf" stroke="black" points="0,-1189.5 0,-1208.5 122,-1208.5 122,-1189.5 0,-1189.5"/>
<text text-anchor="middle" x="61" y="-1196.5" font-family="Helvetica,sans-Serif" font-size="10.00">CoolBoard::offLineMode</text>
</g>
<!-- Node138 -->
<g id="node2" class="node"><title>Node138</title>
<g id="a_node2"><a xlink:href="class_cool_board_led.html#af1cacbaa88db8bcf6042c1083ba41155" target="_top" xlink:title="CoolBoardLed::fade">
<polygon fill="white" stroke="black" points="189,-1578.5 189,-1597.5 292,-1597.5 292,-1578.5 189,-1578.5"/>
<text text-anchor="middle" x="240.5" y="-1585.5" font-family="Helvetica,sans-Serif" font-size="10.00">CoolBoardLed::fade</text>
</a>
</g>
</g>
<!-- Node137&#45;&gt;Node138 -->
<g id="edge1" class="edge"><title>Node137&#45;&gt;Node138</title>
<path fill="none" stroke="midnightblue" d="M63.1632,-1208.71C69.7087,-1261.74 103.607,-1515.94 158,-1569 163.915,-1574.77 171.225,-1578.91 179.017,-1581.87"/>
<polygon fill="midnightblue" stroke="midnightblue" points="178.111,-1585.25 188.7,-1584.92 180.211,-1578.58 178.111,-1585.25"/>
</g>
<!-- Node139 -->
<g id="node3" class="node"><title>Node139</title>
<g id="a_node3"><a xlink:href="class_cool_board_led.html#ab778f5e7bed0ab74e3906d82110493c3" target="_top" xlink:title="CoolBoardLed::fadeIn">
<polygon fill="white" stroke="black" points="394.5,-1531.5 394.5,-1550.5 505.5,-1550.5 505.5,-1531.5 394.5,-1531.5"/>
<text text-anchor="middle" x="450" y="-1538.5" font-family="Helvetica,sans-Serif" font-size="10.00">CoolBoardLed::fadeIn</text>
</a>
</g>
</g>
<!-- Node137&#45;&gt;Node139 -->
<g id="edge2" class="edge"><title>Node137&#45;&gt;Node139</title>
<path fill="none" stroke="midnightblue" d="M64.0754,-1208.55C71.4601,-1240.54 99.2213,-1345.43 158,-1408 222.169,-1476.31 328.159,-1512.35 392.969,-1528.98"/>
<polygon fill="midnightblue" stroke="midnightblue" points="392.454,-1532.46 403.004,-1531.49 394.15,-1525.67 392.454,-1532.46"/>
</g>
<!-- Node140 -->
<g id="node4" class="node"><title>Node140</title>
<g id="a_node4"><a xlink:href="class_cool_board_led.html#a96e1ea13003eee34c9dbcef340404426" target="_top" xlink:title="CoolBoardLed::blink">
<polygon fill="white" stroke="black" points="398,-1227.5 398,-1246.5 502,-1246.5 502,-1227.5 398,-1227.5"/>
<text text-anchor="middle" x="450" y="-1234.5" font-family="Helvetica,sans-Serif" font-size="10.00">CoolBoardLed::blink</text>
</a>
</g>
</g>
<!-- Node137&#45;&gt;Node140 -->
<g id="edge3" class="edge"><title>Node137&#45;&gt;Node140</title>
<path fill="none" stroke="midnightblue" d="M122.097,-1208.35C133.978,-1210.04 146.37,-1211.67 158,-1213 237.109,-1222.02 328.689,-1229.01 387.656,-1233.06"/>
<polygon fill="midnightblue" stroke="midnightblue" points="387.701,-1236.57 397.915,-1233.76 388.176,-1229.59 387.701,-1236.57"/>
</g>
<!-- Node141 -->
<g id="node5" class="node"><title>Node141</title>
<g id="a_node5"><a xlink:href="class_cool_board.html#ae7358fb6e623cfc81b775f5f1734909b" target="_top" xlink:title="CoolBoard::userData">
<polygon fill="white" stroke="black" points="186.5,-1540.5 186.5,-1559.5 294.5,-1559.5 294.5,-1540.5 186.5,-1540.5"/>
<text text-anchor="middle" x="240.5" y="-1547.5" font-family="Helvetica,sans-Serif" font-size="10.00">CoolBoard::userData</text>
</a>
</g>
</g>
<!-- Node137&#45;&gt;Node141 -->
<g id="edge4" class="edge"><title>Node137&#45;&gt;Node141</title>
<path fill="none" stroke="midnightblue" d="M62.7433,-1208.62C66.2582,-1248.38 84.2673,-1402.36 158,-1498 170.71,-1514.49 190.236,-1527.2 206.989,-1535.93"/>
<polygon fill="midnightblue" stroke="midnightblue" points="205.435,-1539.07 215.95,-1540.37 208.542,-1532.8 205.435,-1539.07"/>
</g>
<!-- Node146 -->
<g id="node9" class="node"><title>Node146</title>
<g id="a_node9"><a xlink:href="class_cool_board.html#ad03abdce2e65f520bbf2cff0f2d083cf" target="_top" xlink:title="CoolBoard::readSensors">
<polygon fill="white" stroke="black" points="179,-1379.5 179,-1398.5 302,-1398.5 302,-1379.5 179,-1379.5"/>
<text text-anchor="middle" x="240.5" y="-1386.5" font-family="Helvetica,sans-Serif" font-size="10.00">CoolBoard::readSensors</text>
</a>
</g>
</g>
<!-- Node137&#45;&gt;Node146 -->
<g id="edge8" class="edge"><title>Node137&#45;&gt;Node146</title>
<path fill="none" stroke="midnightblue" d="M71.0463,-1208.68C99.407,-1239.04 186.854,-1332.65 223.297,-1371.66"/>
<polygon fill="midnightblue" stroke="midnightblue" points="220.875,-1374.19 230.259,-1379.11 225.99,-1369.41 220.875,-1374.19"/>
</g>
<!-- Node178 -->
<g id="node15" class="node"><title>Node178</title>
<g id="a_node15"><a xlink:href="class_cool_board_led.html#a93d545679237e8cc858324367149775c" target="_top" xlink:title="CoolBoardLed::fadeOut">
<polygon fill="white" stroke="black" points="390.5,-1265.5 390.5,-1284.5 509.5,-1284.5 509.5,-1265.5 390.5,-1265.5"/>
<text text-anchor="middle" x="450" y="-1272.5" font-family="Helvetica,sans-Serif" font-size="10.00">CoolBoardLed::fadeOut</text>
</a>
</g>
</g>
<!-- Node137&#45;&gt;Node178 -->
<g id="edge17" class="edge"><title>Node137&#45;&gt;Node178</title>
<path fill="none" stroke="midnightblue" d="M84.0857,-1208.56C103.281,-1216.5 132.011,-1227.51 158,-1234 232.867,-1252.7 320.847,-1263.62 380.312,-1269.42"/>
<polygon fill="midnightblue" stroke="midnightblue" points="380.05,-1272.91 390.337,-1270.37 380.715,-1265.94 380.05,-1272.91"/>
</g>
<!-- Node179 -->
<g id="node16" class="node"><title>Node179</title>
<g id="a_node16"><a xlink:href="class_jetpack.html#af9acedb606340c26c2636c282b54dff1" target="_top" xlink:title="Jetpack::doAction">
<polygon fill="white" stroke="black" points="193,-904.5 193,-923.5 288,-923.5 288,-904.5 193,-904.5"/>
<text text-anchor="middle" x="240.5" y="-911.5" font-family="Helvetica,sans-Serif" font-size="10.00">Jetpack::doAction</text>
</a>
</g>
</g>
<!-- Node137&#45;&gt;Node179 -->
<g id="edge18" class="edge"><title>Node137&#45;&gt;Node179</title>
<path fill="none" stroke="midnightblue" d="M68.11,-1189.19C93.8732,-1147.82 193.881,-987.247 228.011,-932.447"/>
<polygon fill="midnightblue" stroke="midnightblue" points="231.1,-934.108 233.416,-923.769 225.158,-930.407 231.1,-934.108"/>
</g>
<!-- Node193 -->
<g id="node30" class="node"><title>Node193</title>
<g id="a_node30"><a xlink:href="class_cool_board_actor.html#a3323ba7aaa4bef3ff084dcd830fe9b61" target="_top" xlink:title="CoolBoardActor::doAction">
<polygon fill="white" stroke="black" points="175.5,-382.5 175.5,-401.5 305.5,-401.5 305.5,-382.5 175.5,-382.5"/>
<text text-anchor="middle" x="240.5" y="-389.5" font-family="Helvetica,sans-Serif" font-size="10.00">CoolBoardActor::doAction</text>
</a>
</g>
</g>
<!-- Node137&#45;&gt;Node193 -->
<g id="edge32" class="edge"><title>Node137&#45;&gt;Node193</title>
<path fill="none" stroke="midnightblue" d="M64.1171,-1189.37C82.1543,-1107.37 209.973,-526.245 235.187,-411.611"/>
<polygon fill="midnightblue" stroke="midnightblue" points="238.626,-412.265 237.356,-401.746 231.79,-410.761 238.626,-412.265"/>
</g>
<!-- Node207 -->
<g id="node43" class="node"><title>Node207</title>
<g id="a_node43"><a xlink:href="class_cool_file_system.html#afa3a4feae94871d4d3b6bebb701c2e67" target="_top" xlink:title="CoolFileSystem::saveSensorData">
<polygon fill="white" stroke="black" points="158,-194.5 158,-213.5 323,-213.5 323,-194.5 158,-194.5"/>
<text text-anchor="middle" x="240.5" y="-201.5" font-family="Helvetica,sans-Serif" font-size="10.00">CoolFileSystem::saveSensorData</text>
</a>
</g>
</g>
<!-- Node137&#45;&gt;Node207 -->
<g id="edge45" class="edge"><title>Node137&#45;&gt;Node207</title>
<path fill="none" stroke="midnightblue" d="M61.9206,-1189.38C61.5951,-1120.69 63.6206,-698.121 158,-373 174.798,-315.134 209.873,-252.655 228.041,-222.443"/>
<polygon fill="midnightblue" stroke="midnightblue" points="231.085,-224.174 233.302,-213.814 225.108,-220.531 231.085,-224.174"/>
</g>
<!-- Node210 -->
<g id="node46" class="node"><title>Node210</title>
<g id="a_node46"><a xlink:href="class_cool_wifi.html#a1c7b4d82a4098d346e7593dce92039fa" target="_top" xlink:title="CoolWifi::state">
<polygon fill="white" stroke="black" points="409,-1189.5 409,-1208.5 491,-1208.5 491,-1189.5 409,-1189.5"/>
<text text-anchor="middle" x="450" y="-1196.5" font-family="Helvetica,sans-Serif" font-size="10.00">CoolWifi::state</text>
</a>
</g>
</g>
<!-- Node137&#45;&gt;Node210 -->
<g id="edge48" class="edge"><title>Node137&#45;&gt;Node210</title>
<path fill="none" stroke="midnightblue" d="M122.044,-1199C198.13,-1199 327.889,-1199 398.907,-1199"/>
<polygon fill="midnightblue" stroke="midnightblue" points="398.946,-1202.5 408.946,-1199 398.946,-1195.5 398.946,-1202.5"/>
</g>
<!-- Node211 -->
<g id="node47" class="node"><title>Node211</title>
<g id="a_node47"><a xlink:href="class_cool_m_q_t_t.html#a5d003307eff78efbd585e42b43b72b6d" target="_top" xlink:title="CoolMQTT::state">
<polygon fill="white" stroke="black" points="404,-1151.5 404,-1170.5 496,-1170.5 496,-1151.5 404,-1151.5"/>
<text text-anchor="middle" x="450" y="-1158.5" font-family="Helvetica,sans-Serif" font-size="10.00">CoolMQTT::state</text>
</a>
</g>
</g>
<!-- Node137&#45;&gt;Node211 -->
<g id="edge49" class="edge"><title>Node137&#45;&gt;Node211</title>
<path fill="none" stroke="midnightblue" d="M73.4632,-1189.35C90.5623,-1175.66 124.355,-1151.24 158,-1142 228.717,-1122.59 249.872,-1136.52 323,-1142 346.329,-1143.75 371.886,-1147.3 393.848,-1150.86"/>
<polygon fill="midnightblue" stroke="midnightblue" points="393.551,-1154.35 403.989,-1152.54 394.698,-1147.45 393.551,-1154.35"/>
</g>
<!-- Node213 -->
<g id="node49" class="node"><title>Node213</title>
<g id="a_node49"><a xlink:href="class_cool_wifi.html#a7c857f27161782f5ef1d62d552aff971" target="_top" xlink:title="CoolWifi::connectAP">
<polygon fill="white" stroke="red" points="186.5,-156.5 186.5,-175.5 294.5,-175.5 294.5,-156.5 186.5,-156.5"/>
<text text-anchor="middle" x="240.5" y="-163.5" font-family="Helvetica,sans-Serif" font-size="10.00">CoolWifi::connectAP</text>
</a>
</g>
</g>
<!-- Node137&#45;&gt;Node213 -->
<g id="edge51" class="edge"><title>Node137&#45;&gt;Node213</title>
<path fill="none" stroke="midnightblue" d="M62.236,-1189.49C64.7542,-1091.34 87.9765,-265.149 158,-185 163.06,-179.208 169.513,-174.999 176.565,-171.966"/>
<polygon fill="midnightblue" stroke="midnightblue" points="178.183,-175.109 186.48,-168.521 175.885,-168.497 178.183,-175.109"/>
</g>
<!-- Node219 -->
<g id="node50" class="node"><title>Node219</title>
<g id="a_node50"><a xlink:href="class_cool_board.html#a519de78b807f8ec6463ff484eb925918" target="_top" xlink:title="CoolBoard::connect">
<polygon fill="white" stroke="red" points="189,-1151.5 189,-1170.5 292,-1170.5 292,-1151.5 189,-1151.5"/>
<text text-anchor="middle" x="240.5" y="-1158.5" font-family="Helvetica,sans-Serif" font-size="10.00">CoolBoard::connect</text>
</a>
</g>
</g>
<!-- Node137&#45;&gt;Node219 -->
<g id="edge52" class="edge"><title>Node137&#45;&gt;Node219</title>
<path fill="none" stroke="midnightblue" d="M106.791,-1189.41C130.53,-1184.33 159.884,-1178.04 184.944,-1172.68"/>
<polygon fill="midnightblue" stroke="midnightblue" points="185.986,-1176.04 195.031,-1170.52 184.52,-1169.19 185.986,-1176.04"/>
</g>
<!-- Node142 -->
<g id="node6" class="node"><title>Node142</title>
<g id="a_node6"><a xlink:href="class_cool_m_q_t_t.html#a373cc92fca7760d886f02d8a6e5b3f63" target="_top" xlink:title="CoolMQTT::getUser">
<polygon fill="white" stroke="black" points="397.5,-1607.5 397.5,-1626.5 502.5,-1626.5 502.5,-1607.5 397.5,-1607.5"/>
<text text-anchor="middle" x="450" y="-1614.5" font-family="Helvetica,sans-Serif" font-size="10.00">CoolMQTT::getUser</text>
</a>
</g>
</g>
<!-- Node141&#45;&gt;Node142 -->
<g id="edge5" class="edge"><title>Node141&#45;&gt;Node142</title>
<path fill="none" stroke="midnightblue" d="M294.867,-1558.8C304.498,-1561.4 314.25,-1564.73 323,-1569 341.468,-1578 340.438,-1589.19 359,-1598 367.873,-1602.21 377.677,-1605.49 387.452,-1608.05"/>
<polygon fill="midnightblue" stroke="midnightblue" points="386.643,-1611.46 397.182,-1610.38 388.27,-1604.65 386.643,-1611.46"/>
</g>
<!-- Node143 -->
<g id="node7" class="node"><title>Node143</title>
<g id="a_node7"><a xlink:href="class_cool_time.html#ac4f32ee513c1328d984306645e8785a4" target="_top" xlink:title="CoolTime::getESDate">
<polygon fill="white" stroke="red" points="393.5,-1569.5 393.5,-1588.5 506.5,-1588.5 506.5,-1569.5 393.5,-1569.5"/>
<text text-anchor="middle" x="450" y="-1576.5" font-family="Helvetica,sans-Serif" font-size="10.00">CoolTime::getESDate</text>
</a>
</g>
</g>
<!-- Node141&#45;&gt;Node143 -->
<g id="edge6" class="edge"><title>Node141&#45;&gt;Node143</title>
<path fill="none" stroke="midnightblue" d="M294.667,-1557.43C321.735,-1561.21 354.885,-1565.85 383.514,-1569.85"/>
<polygon fill="midnightblue" stroke="midnightblue" points="383.046,-1573.32 393.434,-1571.23 384.015,-1566.38 383.046,-1573.32"/>
</g>
<!-- Node144 -->
<g id="node8" class="node"><title>Node144</title>
<g id="a_node8"><a xlink:href="class_cool_time.html#a7a7501c5ca77dd1248bea704c44f986c" target="_top" xlink:title="CoolTime::getTimeDate">
<polygon fill="white" stroke="red" points="579,-1531.5 579,-1550.5 700,-1550.5 700,-1531.5 579,-1531.5"/>
<text text-anchor="middle" x="639.5" y="-1538.5" font-family="Helvetica,sans-Serif" font-size="10.00">CoolTime::getTimeDate</text>
</a>
</g>
</g>
<!-- Node143&#45;&gt;Node144 -->
<g id="edge7" class="edge"><title>Node143&#45;&gt;Node144</title>
<path fill="none" stroke="midnightblue" d="M498.314,-1569.41C523.614,-1564.28 554.95,-1557.93 581.575,-1552.54"/>
<polygon fill="midnightblue" stroke="midnightblue" points="582.421,-1555.94 591.526,-1550.52 581.03,-1549.08 582.421,-1555.94"/>
</g>
<!-- Node146&#45;&gt;Node139 -->
<g id="edge9" class="edge"><title>Node146&#45;&gt;Node139</title>
<path fill="none" stroke="midnightblue" d="M251.984,-1398.56C267.95,-1413.29 299.031,-1442.73 323,-1470 340.371,-1489.76 337.12,-1502.39 359,-1517 366.703,-1522.14 375.464,-1526.19 384.425,-1529.37"/>
<polygon fill="midnightblue" stroke="midnightblue" points="383.596,-1532.78 394.187,-1532.49 385.727,-1526.11 383.596,-1532.78"/>
</g>
<!-- Node146&#45;&gt;Node144 -->
<g id="edge15" class="edge"><title>Node146&#45;&gt;Node144</title>
<path fill="none" stroke="midnightblue" d="M250.174,-1398.6C268.324,-1418.04 312.493,-1462.07 359,-1484 364.034,-1486.37 499.885,-1513.53 580.302,-1529.49"/>
<polygon fill="midnightblue" stroke="midnightblue" points="579.812,-1532.96 590.302,-1531.47 581.174,-1526.09 579.812,-1532.96"/>
</g>
<!-- Node147 -->
<g id="node10" class="node"><title>Node147</title>
<g id="a_node10"><a xlink:href="class_cool_board_led.html#ad5f0de4c628cbfbf49896042831c64ad" target="_top" xlink:title="CoolBoardLed::strobe">
<polygon fill="white" stroke="black" points="394.5,-1455.5 394.5,-1474.5 505.5,-1474.5 505.5,-1455.5 394.5,-1455.5"/>
<text text-anchor="middle" x="450" y="-1462.5" font-family="Helvetica,sans-Serif" font-size="10.00">CoolBoardLed::strobe</text>
</a>
</g>
</g>
<!-- Node146&#45;&gt;Node147 -->
<g id="edge10" class="edge"><title>Node146&#45;&gt;Node147</title>
<path fill="none" stroke="midnightblue" d="M258.072,-1398.65C280.337,-1411.23 321.462,-1433.15 359,-1446 367.036,-1448.75 375.617,-1451.18 384.171,-1453.3"/>
<polygon fill="midnightblue" stroke="midnightblue" points="383.63,-1456.77 394.165,-1455.65 385.232,-1449.95 383.63,-1456.77"/>
</g>
<!-- Node148 -->
<g id="node11" class="node"><title>Node148</title>
<g id="a_node11"><a xlink:href="class_cool_board.html#a397b46fadab8f530a8cf4d914c561366" target="_top" xlink:title="CoolBoard::initReadI2C">
<polygon fill="white" stroke="black" points="390,-1417.5 390,-1436.5 510,-1436.5 510,-1417.5 390,-1417.5"/>
<text text-anchor="middle" x="450" y="-1424.5" font-family="Helvetica,sans-Serif" font-size="10.00">CoolBoard::initReadI2C</text>
</a>
</g>
</g>
<!-- Node146&#45;&gt;Node148 -->
<g id="edge11" class="edge"><title>Node146&#45;&gt;Node148</title>
<path fill="none" stroke="midnightblue" d="M293.593,-1398.54C321.96,-1403.73 357.243,-1410.2 387.017,-1415.65"/>
<polygon fill="midnightblue" stroke="midnightblue" points="386.418,-1419.1 396.885,-1417.46 387.679,-1412.21 386.418,-1419.1"/>
</g>
<!-- Node149 -->
<g id="node12" class="node"><title>Node149</title>
<g id="a_node12"><a xlink:href="class_cool_board_sensors.html#a91badb2539d91fda8679f2a597874c48" target="_top" xlink:title="CoolBoardSensors::read">
<polygon fill="white" stroke="red" points="388.5,-1379.5 388.5,-1398.5 511.5,-1398.5 511.5,-1379.5 388.5,-1379.5"/>
<text text-anchor="middle" x="450" y="-1386.5" font-family="Helvetica,sans-Serif" font-size="10.00">CoolBoardSensors::read</text>
</a>
</g>
</g>
<!-- Node146&#45;&gt;Node149 -->
<g id="edge12" class="edge"><title>Node146&#45;&gt;Node149</title>
<path fill="none" stroke="midnightblue" d="M302.075,-1389C325.941,-1389 353.517,-1389 378.288,-1389"/>
<polygon fill="midnightblue" stroke="midnightblue" points="378.349,-1392.5 388.349,-1389 378.349,-1385.5 378.349,-1392.5"/>
</g>
<!-- Node165 -->
<g id="node13" class="node"><title>Node165</title>
<g id="a_node13"><a xlink:href="class_external_sensors.html#a53177b81eca3be89508b5511ddcd00fc" target="_top" xlink:title="ExternalSensors::read">
<polygon fill="white" stroke="red" points="393.5,-1341.5 393.5,-1360.5 506.5,-1360.5 506.5,-1341.5 393.5,-1341.5"/>
<text text-anchor="middle" x="450" y="-1348.5" font-family="Helvetica,sans-Serif" font-size="10.00">ExternalSensors::read</text>
</a>
</g>
</g>
<!-- Node146&#45;&gt;Node165 -->
<g id="edge13" class="edge"><title>Node146&#45;&gt;Node165</title>
<path fill="none" stroke="midnightblue" d="M293.593,-1379.46C321.96,-1374.27 357.243,-1367.8 387.017,-1362.35"/>
<polygon fill="midnightblue" stroke="midnightblue" points="387.679,-1365.79 396.885,-1360.54 386.418,-1358.9 387.679,-1365.79"/>
</g>
<!-- Node167 -->
<g id="node14" class="node"><title>Node167</title>
<g id="a_node14"><a xlink:href="class_irene3000.html#a852a170feea994ea1df01c6b245b5d9a" target="_top" xlink:title="Irene3000::read">
<polygon fill="white" stroke="red" points="408,-1303.5 408,-1322.5 492,-1322.5 492,-1303.5 408,-1303.5"/>
<text text-anchor="middle" x="450" y="-1310.5" font-family="Helvetica,sans-Serif" font-size="10.00">Irene3000::read</text>
</a>
</g>
</g>
<!-- Node146&#45;&gt;Node167 -->
<g id="edge14" class="edge"><title>Node146&#45;&gt;Node167</title>
<path fill="none" stroke="midnightblue" d="M258.072,-1379.35C280.337,-1366.77 321.462,-1344.85 359,-1332 371.279,-1327.8 384.833,-1324.35 397.614,-1321.6"/>
<polygon fill="midnightblue" stroke="midnightblue" points="398.565,-1324.97 407.66,-1319.54 397.161,-1318.12 398.565,-1324.97"/>
</g>
<!-- Node146&#45;&gt;Node178 -->
<g id="edge16" class="edge"><title>Node146&#45;&gt;Node178</title>
<path fill="none" stroke="midnightblue" d="M250.186,-1379.43C268.359,-1360.04 312.569,-1316.09 359,-1294 365.643,-1290.84 372.809,-1288.2 380.095,-1286"/>
<polygon fill="midnightblue" stroke="midnightblue" points="381.351,-1289.29 390.067,-1283.26 379.497,-1282.54 381.351,-1289.29"/>
</g>
<!-- Node180 -->
<g id="node17" class="node"><title>Node180</title>
<g id="a_node17"><a xlink:href="class_jetpack.html#a65ce9533c39fa71e4945b970bf14b980" target="_top" xlink:title="Jetpack::normalAction">
<polygon fill="white" stroke="black" points="393,-999.5 393,-1018.5 507,-1018.5 507,-999.5 393,-999.5"/>
<text text-anchor="middle" x="450" y="-1006.5" font-family="Helvetica,sans-Serif" font-size="10.00">Jetpack::normalAction</text>
</a>
</g>
</g>
<!-- Node179&#45;&gt;Node180 -->
<g id="edge19" class="edge"><title>Node179&#45;&gt;Node180</title>
<path fill="none" stroke="midnightblue" d="M253.029,-923.553C273.199,-939.763 316.775,-972.589 359,-990 366.557,-993.116 374.69,-995.746 382.867,-997.959"/>
<polygon fill="midnightblue" stroke="midnightblue" points="382.276,-1001.42 392.827,-1000.46 383.979,-994.629 382.276,-1001.42"/>
</g>
<!-- Node181 -->
<g id="node18" class="node"><title>Node181</title>
<g id="a_node18"><a xlink:href="class_jetpack.html#adacfc35fab4a621357caf98ce1c9cb54" target="_top" xlink:title="Jetpack::invertedAction">
<polygon fill="white" stroke="black" points="390.5,-961.5 390.5,-980.5 509.5,-980.5 509.5,-961.5 390.5,-961.5"/>
<text text-anchor="middle" x="450" y="-968.5" font-family="Helvetica,sans-Serif" font-size="10.00">Jetpack::invertedAction</text>
</a>
</g>
</g>
<!-- Node179&#45;&gt;Node181 -->
<g id="edge20" class="edge"><title>Node179&#45;&gt;Node181</title>
<path fill="none" stroke="midnightblue" d="M268.329,-923.564C291.992,-931.786 327.511,-943.609 359,-952 368.721,-954.591 379.109,-957.057 389.245,-959.303"/>
<polygon fill="midnightblue" stroke="midnightblue" points="388.75,-962.777 399.265,-961.472 390.232,-955.935 388.75,-962.777"/>
</g>
<!-- Node182 -->
<g id="node19" class="node"><title>Node182</title>
<g id="a_node19"><a xlink:href="class_jetpack.html#ac1a49ab4867718cdb415ad74c2066b9d" target="_top" xlink:title="Jetpack::mixedHourAction">
<polygon fill="white" stroke="black" points="384,-923.5 384,-942.5 516,-942.5 516,-923.5 384,-923.5"/>
<text text-anchor="middle" x="450" y="-930.5" font-family="Helvetica,sans-Serif" font-size="10.00">Jetpack::mixedHourAction</text>
</a>
</g>
</g>
<!-- Node179&#45;&gt;Node182 -->
<g id="edge21" class="edge"><title>Node179&#45;&gt;Node182</title>
<path fill="none" stroke="midnightblue" d="M288.067,-918.264C313.292,-920.574 345.076,-923.484 373.721,-926.107"/>
<polygon fill="midnightblue" stroke="midnightblue" points="373.429,-929.595 383.706,-927.021 374.067,-922.624 373.429,-929.595"/>
</g>
<!-- Node183 -->
<g id="node20" class="node"><title>Node183</title>
<g id="a_node20"><a xlink:href="class_jetpack.html#acd6889af2fe5b057c6bd51b6dac827ef" target="_top" xlink:title="Jetpack::hourAction">
<polygon fill="white" stroke="black" points="398,-885.5 398,-904.5 502,-904.5 502,-885.5 398,-885.5"/>
<text text-anchor="middle" x="450" y="-892.5" font-family="Helvetica,sans-Serif" font-size="10.00">Jetpack::hourAction</text>
</a>
</g>
</g>
<!-- Node179&#45;&gt;Node183 -->
<g id="edge22" class="edge"><title>Node179&#45;&gt;Node183</title>
<path fill="none" stroke="midnightblue" d="M288.067,-909.736C317.502,-907.041 355.867,-903.528 387.755,-900.608"/>
<polygon fill="midnightblue" stroke="midnightblue" points="388.222,-904.08 397.861,-899.683 387.583,-897.109 388.222,-904.08"/>
</g>
<!-- Node184 -->
<g id="node21" class="node"><title>Node184</title>
<g id="a_node21"><a xlink:href="class_jetpack.html#acf8ed1fb594b9e8e224f4ed872a8e093" target="_top" xlink:title="Jetpack::mixedMinuteAction">
<polygon fill="white" stroke="black" points="380,-847.5 380,-866.5 520,-866.5 520,-847.5 380,-847.5"/>
<text text-anchor="middle" x="450" y="-854.5" font-family="Helvetica,sans-Serif" font-size="10.00">Jetpack::mixedMinuteAction</text>
</a>
</g>
</g>
<!-- Node179&#45;&gt;Node184 -->
<g id="edge23" class="edge"><title>Node179&#45;&gt;Node184</title>
<path fill="none" stroke="midnightblue" d="M268.329,-904.436C291.992,-896.214 327.511,-884.391 359,-876 368.721,-873.409 379.109,-870.943 389.245,-868.697"/>
<polygon fill="midnightblue" stroke="midnightblue" points="390.232,-872.065 399.265,-866.528 388.75,-865.223 390.232,-872.065"/>
</g>
<!-- Node185 -->
<g id="node22" class="node"><title>Node185</title>
<g id="a_node22"><a xlink:href="class_jetpack.html#a97da41141c7b53ddee61143519c8d17d" target="_top" xlink:title="Jetpack::minuteAction">
<polygon fill="white" stroke="black" points="393,-809.5 393,-828.5 507,-828.5 507,-809.5 393,-809.5"/>
<text text-anchor="middle" x="450" y="-816.5" font-family="Helvetica,sans-Serif" font-size="10.00">Jetpack::minuteAction</text>
</a>
</g>
</g>
<!-- Node179&#45;&gt;Node185 -->
<g id="edge24" class="edge"><title>Node179&#45;&gt;Node185</title>
<path fill="none" stroke="midnightblue" d="M253.029,-904.447C273.199,-888.237 316.775,-855.411 359,-838 366.557,-834.884 374.69,-832.254 382.867,-830.041"/>
<polygon fill="midnightblue" stroke="midnightblue" points="383.979,-833.371 392.827,-827.544 382.276,-826.581 383.979,-833.371"/>
</g>
<!-- Node186 -->
<g id="node23" class="node"><title>Node186</title>
<g id="a_node23"><a xlink:href="class_jetpack.html#a273dae1517b56f0242e28b8944edc26b" target="_top" xlink:title="Jetpack::mixedHourMinute\lAction">
<polygon fill="white" stroke="black" points="383,-760 383,-790 517,-790 517,-760 383,-760"/>
<text text-anchor="start" x="391" y="-778" font-family="Helvetica,sans-Serif" font-size="10.00">Jetpack::mixedHourMinute</text>
<text text-anchor="middle" x="450" y="-767" font-family="Helvetica,sans-Serif" font-size="10.00">Action</text>
</a>
</g>
</g>
<!-- Node179&#45;&gt;Node186 -->
<g id="edge25" class="edge"><title>Node179&#45;&gt;Node186</title>
<path fill="none" stroke="midnightblue" d="M248.577,-904.41C265.269,-882.488 309.439,-828.417 359,-800 363.458,-797.444 368.191,-795.138 373.063,-793.058"/>
<polygon fill="midnightblue" stroke="midnightblue" points="374.534,-796.241 382.568,-789.334 371.98,-789.724 374.534,-796.241"/>
</g>
<!-- Node187 -->
<g id="node24" class="node"><title>Node187</title>
<g id="a_node24"><a xlink:href="class_jetpack.html#ae01c13c785ebdf1b0bb5500234aba1bd" target="_top" xlink:title="Jetpack::hourMinuteAction">
<polygon fill="white" stroke="black" points="383.5,-721.5 383.5,-740.5 516.5,-740.5 516.5,-721.5 383.5,-721.5"/>
<text text-anchor="middle" x="450" y="-728.5" font-family="Helvetica,sans-Serif" font-size="10.00">Jetpack::hourMinuteAction</text>
</a>
</g>
</g>
<!-- Node179&#45;&gt;Node187 -->
<g id="edge26" class="edge"><title>Node179&#45;&gt;Node187</title>
<path fill="none" stroke="midnightblue" d="M245.38,-904.325C257.425,-875.619 297.124,-790.414 359,-750 363.596,-746.998 368.58,-744.46 373.766,-742.315"/>
<polygon fill="midnightblue" stroke="midnightblue" points="375.071,-745.565 383.277,-738.863 372.683,-738.985 375.071,-745.565"/>
</g>
<!-- Node188 -->
<g id="node25" class="node"><title>Node188</title>
<g id="a_node25"><a xlink:href="class_jetpack.html#af44bc8a08818e4433dfb1c7104601f12" target="_top" xlink:title="Jetpack::mixedTemporalActionOn">
<polygon fill="white" stroke="black" points="368,-683.5 368,-702.5 532,-702.5 532,-683.5 368,-683.5"/>
<text text-anchor="middle" x="450" y="-690.5" font-family="Helvetica,sans-Serif" font-size="10.00">Jetpack::mixedTemporalActionOn</text>
</a>
</g>
</g>
<!-- Node179&#45;&gt;Node188 -->
<g id="edge27" class="edge"><title>Node179&#45;&gt;Node188</title>
<path fill="none" stroke="midnightblue" d="M244.137,-904.048C253.481,-870.849 288.313,-763.108 359,-712 361.57,-710.142 364.283,-708.458 367.101,-706.932"/>
<polygon fill="midnightblue" stroke="midnightblue" points="368.838,-709.983 376.413,-702.577 365.872,-703.642 368.838,-709.983"/>
</g>
<!-- Node189 -->
<g id="node26" class="node"><title>Node189</title>
<g id="a_node26"><a xlink:href="class_jetpack.html#ad011d904f639accb5f94ef806846ef59" target="_top" xlink:title="Jetpack::temporalActionOn">
<polygon fill="white" stroke="black" points="382.5,-645.5 382.5,-664.5 517.5,-664.5 517.5,-645.5 382.5,-645.5"/>
<text text-anchor="middle" x="450" y="-652.5" font-family="Helvetica,sans-Serif" font-size="10.00">Jetpack::temporalActionOn</text>
</a>
</g>
</g>
<!-- Node179&#45;&gt;Node189 -->
<g id="edge28" class="edge"><title>Node179&#45;&gt;Node189</title>
<path fill="none" stroke="midnightblue" d="M243.131,-904.322C249.842,-867.686 278.849,-736.435 359,-674 363.331,-670.627 368.121,-667.817 373.17,-665.479"/>
<polygon fill="midnightblue" stroke="midnightblue" points="374.499,-668.717 382.492,-661.764 371.907,-662.215 374.499,-668.717"/>
</g>
<!-- Node190 -->
<g id="node27" class="node"><title>Node190</title>
<g id="a_node27"><a xlink:href="class_jetpack.html#af2f567ef6311a8fc2f7bb948837667b7" target="_top" xlink:title="Jetpack::mixedTemporalActionOff">
<polygon fill="white" stroke="black" points="367.5,-1113.5 367.5,-1132.5 532.5,-1132.5 532.5,-1113.5 367.5,-1113.5"/>
<text text-anchor="middle" x="450" y="-1120.5" font-family="Helvetica,sans-Serif" font-size="10.00">Jetpack::mixedTemporalActionOff</text>
</a>
</g>
</g>
<!-- Node179&#45;&gt;Node190 -->
<g id="edge29" class="edge"><title>Node179&#45;&gt;Node190</title>
<path fill="none" stroke="midnightblue" d="M244.467,-923.811C254.609,-955.573 291.09,-1056.28 359,-1104 361.744,-1105.93 364.643,-1107.67 367.654,-1109.24"/>
<polygon fill="midnightblue" stroke="midnightblue" points="366.423,-1112.52 376.977,-1113.45 369.306,-1106.14 366.423,-1112.52"/>
</g>
<!-- Node191 -->
<g id="node28" class="node"><title>Node191</title>
<g id="a_node28"><a xlink:href="class_jetpack.html#a2991b302cd99bf89325f9b66b104d575" target="_top" xlink:title="Jetpack::temporalActionOff">
<polygon fill="white" stroke="black" points="382,-1075.5 382,-1094.5 518,-1094.5 518,-1075.5 382,-1075.5"/>
<text text-anchor="middle" x="450" y="-1082.5" font-family="Helvetica,sans-Serif" font-size="10.00">Jetpack::temporalActionOff</text>
</a>
</g>
</g>
<!-- Node179&#45;&gt;Node191 -->
<g id="edge30" class="edge"><title>Node179&#45;&gt;Node191</title>
<path fill="none" stroke="midnightblue" d="M245.956,-923.742C259.002,-951.084 299.952,-1028.95 359,-1066 363.096,-1068.57 367.482,-1070.8 372.033,-1072.73"/>
<polygon fill="midnightblue" stroke="midnightblue" points="370.971,-1076.07 381.564,-1076.29 373.421,-1069.51 370.971,-1076.07"/>
</g>
<!-- Node192 -->
<g id="node29" class="node"><title>Node192</title>
<g id="a_node29"><a xlink:href="class_jetpack.html#a338f1af8cbc6504ac69b47c7328569b5" target="_top" xlink:title="Jetpack::write">
<polygon fill="white" stroke="black" points="411,-1037.5 411,-1056.5 489,-1056.5 489,-1037.5 411,-1037.5"/>
<text text-anchor="middle" x="450" y="-1044.5" font-family="Helvetica,sans-Serif" font-size="10.00">Jetpack::write</text>
</a>
</g>
</g>
<!-- Node179&#45;&gt;Node192 -->
<g id="edge31" class="edge"><title>Node179&#45;&gt;Node192</title>
<path fill="none" stroke="midnightblue" d="M248.457,-923.808C264.896,-946.188 308.571,-1001.16 359,-1028 371.705,-1034.76 386.618,-1039.12 400.611,-1041.92"/>
<polygon fill="midnightblue" stroke="midnightblue" points="400.133,-1045.39 410.593,-1043.71 401.363,-1038.5 400.133,-1045.39"/>
</g>
<!-- Node194 -->
<g id="node31" class="node"><title>Node194</title>
<g id="a_node31"><a xlink:href="class_cool_board_actor.html#a81229abf5895f4d3b0355050b822b438" target="_top" xlink:title="CoolBoardActor::normalAction">
<polygon fill="white" stroke="red" points="375.5,-607.5 375.5,-626.5 524.5,-626.5 524.5,-607.5 375.5,-607.5"/>
<text text-anchor="middle" x="450" y="-614.5" font-family="Helvetica,sans-Serif" font-size="10.00">CoolBoardActor::normalAction</text>
</a>
</g>
</g>
<!-- Node193&#45;&gt;Node194 -->
<g id="edge33" class="edge"><title>Node193&#45;&gt;Node194</title>
<path fill="none" stroke="midnightblue" d="M243.983,-401.604C253.05,-434.644 287.639,-544.476 359,-597 362.082,-599.268 365.373,-601.287 368.807,-603.084"/>
<polygon fill="midnightblue" stroke="midnightblue" points="367.635,-606.395 378.187,-607.338 370.526,-600.02 367.635,-606.395"/>
</g>
<!-- Node196 -->
<g id="node32" class="node"><title>Node196</title>
<g id="a_node32"><a xlink:href="class_cool_board_actor.html#aae82b2e62f91be009d40f93c206f9bda" target="_top" xlink:title="CoolBoardActor::inverted\lAction">
<polygon fill="white" stroke="red" points="387,-558 387,-588 513,-588 513,-558 387,-558"/>
<text text-anchor="start" x="395" y="-576" font-family="Helvetica,sans-Serif" font-size="10.00">CoolBoardActor::inverted</text>
<text text-anchor="middle" x="450" y="-565" font-family="Helvetica,sans-Serif" font-size="10.00">Action</text>
</a>
</g>
</g>
<!-- Node193&#45;&gt;Node196 -->
<g id="edge34" class="edge"><title>Node193&#45;&gt;Node196</title>
<path fill="none" stroke="midnightblue" d="M246.005,-401.809C259.18,-429.372 300.437,-508.098 359,-548 364.583,-551.804 370.731,-555.031 377.114,-557.77"/>
<polygon fill="midnightblue" stroke="midnightblue" points="376.006,-561.094 386.595,-561.442 378.534,-554.567 376.006,-561.094"/>
</g>
<!-- Node197 -->
<g id="node33" class="node"><title>Node197</title>
<g id="a_node33"><a xlink:href="class_cool_board_actor.html#a6d93a24502c56ced2ef7675c913a276b" target="_top" xlink:title="CoolBoardActor::mixedHour\lAction">
<polygon fill="white" stroke="red" points="380.5,-509 380.5,-539 519.5,-539 519.5,-509 380.5,-509"/>
<text text-anchor="start" x="388.5" y="-527" font-family="Helvetica,sans-Serif" font-size="10.00">CoolBoardActor::mixedHour</text>
<text text-anchor="middle" x="450" y="-516" font-family="Helvetica,sans-Serif" font-size="10.00">Action</text>
</a>
</g>
</g>
<!-- Node193&#45;&gt;Node197 -->
<g id="edge35" class="edge"><title>Node193&#45;&gt;Node197</title>
<path fill="none" stroke="midnightblue" d="M249.234,-401.602C266.599,-422.519 310.944,-472.446 359,-499 363.13,-501.282 367.483,-503.368 371.956,-505.273"/>
<polygon fill="midnightblue" stroke="midnightblue" points="370.684,-508.534 381.272,-508.935 373.245,-502.019 370.684,-508.534"/>
</g>
<!-- Node198 -->
<g id="node34" class="node"><title>Node198</title>
<g id="a_node34"><a xlink:href="class_cool_board_actor.html#adf3b4e15b9d73681082112adf8ef95cb" target="_top" xlink:title="CoolBoardActor::hourAction">
<polygon fill="white" stroke="red" points="381,-470.5 381,-489.5 519,-489.5 519,-470.5 381,-470.5"/>
<text text-anchor="middle" x="450" y="-477.5" font-family="Helvetica,sans-Serif" font-size="10.00">CoolBoardActor::hourAction</text>
</a>
</g>
</g>
<!-- Node193&#45;&gt;Node198 -->
<g id="edge36" class="edge"><title>Node193&#45;&gt;Node198</title>
<path fill="none" stroke="midnightblue" d="M254.911,-401.614C276.038,-416.319 318.813,-444.337 359,-460 366.825,-463.05 375.223,-465.69 383.63,-467.959"/>
<polygon fill="midnightblue" stroke="midnightblue" points="382.917,-471.389 393.471,-470.456 384.639,-464.604 382.917,-471.389"/>
</g>
<!-- Node199 -->
<g id="node35" class="node"><title>Node199</title>
<g id="a_node35"><a xlink:href="class_cool_board_actor.html#a2b8a79a27288d5246e3e3860ae76770d" target="_top" xlink:title="CoolBoardActor::mixedMinute\lAction">
<polygon fill="white" stroke="red" points="376.5,-421 376.5,-451 523.5,-451 523.5,-421 376.5,-421"/>
<text text-anchor="start" x="384.5" y="-439" font-family="Helvetica,sans-Serif" font-size="10.00">CoolBoardActor::mixedMinute</text>
<text text-anchor="middle" x="450" y="-428" font-family="Helvetica,sans-Serif" font-size="10.00">Action</text>
</a>
</g>
</g>
<!-- Node193&#45;&gt;Node199 -->
<g id="edge37" class="edge"><title>Node193&#45;&gt;Node199</title>
<path fill="none" stroke="midnightblue" d="M286.524,-401.547C310.304,-406.59 340.22,-412.933 367.88,-418.799"/>
<polygon fill="midnightblue" stroke="midnightblue" points="367.445,-422.284 377.953,-420.935 368.897,-415.436 367.445,-422.284"/>
</g>
<!-- Node200 -->
<g id="node36" class="node"><title>Node200</title>
<g id="a_node36"><a xlink:href="class_cool_board_actor.html#af000944ce0b9abb9c6ee4b8fe839fb36" target="_top" xlink:title="CoolBoardActor::minuteAction">
<polygon fill="white" stroke="red" points="375.5,-382.5 375.5,-401.5 524.5,-401.5 524.5,-382.5 375.5,-382.5"/>
<text text-anchor="middle" x="450" y="-389.5" font-family="Helvetica,sans-Serif" font-size="10.00">CoolBoardActor::minuteAction</text>
</a>
</g>
</g>
<!-- Node193&#45;&gt;Node200 -->
<g id="edge38" class="edge"><title>Node193&#45;&gt;Node200</title>
<path fill="none" stroke="midnightblue" d="M305.733,-392C324.484,-392 345.26,-392 365.039,-392"/>
<polygon fill="midnightblue" stroke="midnightblue" points="365.276,-395.5 375.276,-392 365.276,-388.5 365.276,-395.5"/>
</g>
<!-- Node201 -->
<g id="node37" class="node"><title>Node201</title>
<g id="a_node37"><a xlink:href="class_cool_board_actor.html#ae6b2a17b0e73cfeb353ded2cc4e08109" target="_top" xlink:title="CoolBoardActor::mixedHour\lMinuteAction">
<polygon fill="white" stroke="red" points="380.5,-333 380.5,-363 519.5,-363 519.5,-333 380.5,-333"/>
<text text-anchor="start" x="388.5" y="-351" font-family="Helvetica,sans-Serif" font-size="10.00">CoolBoardActor::mixedHour</text>
<text text-anchor="middle" x="450" y="-340" font-family="Helvetica,sans-Serif" font-size="10.00">MinuteAction</text>
</a>
</g>
</g>
<!-- Node193&#45;&gt;Node201 -->
<g id="edge39" class="edge"><title>Node193&#45;&gt;Node201</title>
<path fill="none" stroke="midnightblue" d="M286.524,-382.453C311.048,-377.253 342.098,-370.668 370.47,-364.652"/>
<polygon fill="midnightblue" stroke="midnightblue" points="371.322,-368.049 380.378,-362.551 369.87,-361.202 371.322,-368.049"/>
</g>
<!-- Node202 -->
<g id="node38" class="node"><title>Node202</title>
<g id="a_node38"><a xlink:href="class_cool_board_actor.html#a1eb1fbca19bc80aad20d2686d52317f8" target="_top" xlink:title="CoolBoardActor::hourMinute\lAction">
<polygon fill="white" stroke="red" points="380,-284 380,-314 520,-314 520,-284 380,-284"/>
<text text-anchor="start" x="388" y="-302" font-family="Helvetica,sans-Serif" font-size="10.00">CoolBoardActor::hourMinute</text>
<text text-anchor="middle" x="450" y="-291" font-family="Helvetica,sans-Serif" font-size="10.00">Action</text>
</a>
</g>
</g>
<!-- Node193&#45;&gt;Node202 -->
<g id="edge40" class="edge"><title>Node193&#45;&gt;Node202</title>
<path fill="none" stroke="midnightblue" d="M254.97,-382.439C276.176,-367.778 319.055,-339.691 359,-323 363.943,-320.935 369.113,-319.002 374.369,-317.203"/>
<polygon fill="midnightblue" stroke="midnightblue" points="375.465,-320.527 383.893,-314.107 373.301,-313.87 375.465,-320.527"/>
</g>
<!-- Node203 -->
<g id="node39" class="node"><title>Node203</title>
<g id="a_node39"><a xlink:href="class_cool_board_actor.html#a216aa7a0cfd1f31d0025cc91c2ecd5dd" target="_top" xlink:title="CoolBoardActor::mixedTemporal\lActionOn">
<polygon fill="white" stroke="red" points="371,-235 371,-265 529,-265 529,-235 371,-235"/>
<text text-anchor="start" x="379" y="-253" font-family="Helvetica,sans-Serif" font-size="10.00">CoolBoardActor::mixedTemporal</text>
<text text-anchor="middle" x="450" y="-242" font-family="Helvetica,sans-Serif" font-size="10.00">ActionOn</text>
</a>
</g>
</g>
<!-- Node193&#45;&gt;Node203 -->
<g id="edge41" class="edge"><title>Node193&#45;&gt;Node203</title>
<path fill="none" stroke="midnightblue" d="M248.23,-382.365C264.512,-359.798 308.438,-303.223 359,-274 362.032,-272.248 365.195,-270.62 368.445,-269.108"/>
<polygon fill="midnightblue" stroke="midnightblue" points="369.955,-272.27 377.8,-265.149 367.227,-265.824 369.955,-272.27"/>
</g>
<!-- Node204 -->
<g id="node40" class="node"><title>Node204</title>
<g id="a_node40"><a xlink:href="class_cool_board_actor.html#ada603785c203fdb0b41cc967d70bdc4d" target="_top" xlink:title="CoolBoardActor::temporal\lActionOn">
<polygon fill="white" stroke="red" points="385.5,-186 385.5,-216 514.5,-216 514.5,-186 385.5,-186"/>
<text text-anchor="start" x="393.5" y="-204" font-family="Helvetica,sans-Serif" font-size="10.00">CoolBoardActor::temporal</text>
<text text-anchor="middle" x="450" y="-193" font-family="Helvetica,sans-Serif" font-size="10.00">ActionOn</text>
</a>
</g>
</g>
<!-- Node193&#45;&gt;Node204 -->
<g id="edge42" class="edge"><title>Node193&#45;&gt;Node204</title>
<path fill="none" stroke="midnightblue" d="M245.429,-382.301C257.611,-353.495 297.653,-267.797 359,-225 364.135,-221.418 369.776,-218.37 375.651,-215.777"/>
<polygon fill="midnightblue" stroke="midnightblue" points="377.026,-218.997 385.039,-212.065 374.453,-212.487 377.026,-218.997"/>
</g>
<!-- Node205 -->
<g id="node41" class="node"><title>Node205</title>
<g id="a_node41"><a xlink:href="class_cool_board_actor.html#a00b29c4abf0388551aa6812372113cf1" target="_top" xlink:title="CoolBoardActor::mixedTemporal\lActionOff">
<polygon fill="white" stroke="red" points="371,-137 371,-167 529,-167 529,-137 371,-137"/>
<text text-anchor="start" x="379" y="-155" font-family="Helvetica,sans-Serif" font-size="10.00">CoolBoardActor::mixedTemporal</text>
<text text-anchor="middle" x="450" y="-144" font-family="Helvetica,sans-Serif" font-size="10.00">ActionOff</text>
</a>
</g>
</g>
<!-- Node193&#45;&gt;Node205 -->
<g id="edge43" class="edge"><title>Node193&#45;&gt;Node205</title>
<path fill="none" stroke="midnightblue" d="M245.518,-382.37C261.569,-344.318 322.01,-205.101 359,-176 360.62,-174.725 362.303,-173.518 364.037,-172.374"/>
<polygon fill="midnightblue" stroke="midnightblue" points="366.163,-175.189 373.09,-167.173 362.675,-169.12 366.163,-175.189"/>
</g>
<!-- Node206 -->
<g id="node42" class="node"><title>Node206</title>
<g id="a_node42"><a xlink:href="class_cool_board_actor.html#a02698bd647df49cabbe74513d4d88918" target="_top" xlink:title="CoolBoardActor::temporal\lActionOff">
<polygon fill="white" stroke="red" points="385.5,-88 385.5,-118 514.5,-118 514.5,-88 385.5,-88"/>
<text text-anchor="start" x="393.5" y="-106" font-family="Helvetica,sans-Serif" font-size="10.00">CoolBoardActor::temporal</text>
<text text-anchor="middle" x="450" y="-95" font-family="Helvetica,sans-Serif" font-size="10.00">ActionOff</text>
</a>
</g>
</g>
<!-- Node193&#45;&gt;Node206 -->
<g id="edge44" class="edge"><title>Node193&#45;&gt;Node206</title>
<path fill="none" stroke="midnightblue" d="M246.593,-382.239C259.922,-356.532 296.619,-284.699 323,-223 340.915,-181.101 325.236,-157.602 359,-127 363.991,-122.476 369.741,-118.789 375.871,-115.786"/>
<polygon fill="midnightblue" stroke="midnightblue" points="377.253,-119.002 385.078,-111.859 374.507,-112.563 377.253,-119.002"/>
</g>
<!-- Node208 -->
<g id="node44" class="node"><title>Node208</title>
<g id="a_node44"><a xlink:href="class_cool_file_system.html#ab78704d5d21ce10fc6f1138ab5ab46c8" target="_top" xlink:title="CoolFileSystem::saveSensor\lDataCSV">
<polygon fill="white" stroke="black" points="378,-39 378,-69 522,-69 522,-39 378,-39"/>
<text text-anchor="start" x="386" y="-57" font-family="Helvetica,sans-Serif" font-size="10.00">CoolFileSystem::saveSensor</text>
<text text-anchor="middle" x="450" y="-46" font-family="Helvetica,sans-Serif" font-size="10.00">DataCSV</text>
</a>
</g>
</g>
<!-- Node207&#45;&gt;Node208 -->
<g id="edge46" class="edge"><title>Node207&#45;&gt;Node208</title>
<path fill="none" stroke="midnightblue" d="M308.863,-194.403C314,-191.901 318.807,-188.811 323,-185 360.132,-151.255 322.405,-112.327 359,-78 361.967,-75.2169 365.22,-72.749 368.674,-70.5613"/>
<polygon fill="midnightblue" stroke="midnightblue" points="370.522,-73.5404 377.626,-65.6802 367.171,-67.3946 370.522,-73.5404"/>
</g>
<!-- Node209 -->
<g id="node45" class="node"><title>Node209</title>
<g id="a_node45"><a xlink:href="class_cool_file_system.html#aae045125288f255f3e258073dcada2a6" target="_top" xlink:title="CoolFileSystem::incrementsavedData">
<polygon fill="white" stroke="black" points="359,-0.5 359,-19.5 541,-19.5 541,-0.5 359,-0.5"/>
<text text-anchor="middle" x="450" y="-7.5" font-family="Helvetica,sans-Serif" font-size="10.00">CoolFileSystem::incrementsavedData</text>
</a>
</g>
</g>
<!-- Node207&#45;&gt;Node209 -->
<g id="edge47" class="edge"><title>Node207&#45;&gt;Node209</title>
<path fill="none" stroke="midnightblue" d="M310.049,-194.431C314.801,-191.908 319.203,-188.805 323,-185 373.258,-134.629 308.216,-78.8408 359,-29 360.453,-27.5738 361.985,-26.2426 363.584,-25.0003"/>
<polygon fill="midnightblue" stroke="midnightblue" points="365.587,-27.8729 372.083,-19.5035 361.786,-21.995 365.587,-27.8729"/>
</g>
<!-- Node212 -->
<g id="node48" class="node"><title>Node212</title>
<g id="a_node48"><a xlink:href="class_cool_pub_sub_client.html#a3245a5afc6d22e61270dcfe392ccb866" target="_top" xlink:title="CoolPubSubClient::state">
<polygon fill="white" stroke="black" points="577,-1151.5 577,-1170.5 702,-1170.5 702,-1151.5 577,-1151.5"/>
<text text-anchor="middle" x="639.5" y="-1158.5" font-family="Helvetica,sans-Serif" font-size="10.00">CoolPubSubClient::state</text>
</a>
</g>
</g>
<!-- Node211&#45;&gt;Node212 -->
<g id="edge50" class="edge"><title>Node211&#45;&gt;Node212</title>
<path fill="none" stroke="midnightblue" d="M496.389,-1161C517.536,-1161 543.205,-1161 566.878,-1161"/>
<polygon fill="midnightblue" stroke="midnightblue" points="566.882,-1164.5 576.882,-1161 566.882,-1157.5 566.882,-1164.5"/>
</g>
<!-- Node219&#45;&gt;Node140 -->
<g id="edge55" class="edge"><title>Node219&#45;&gt;Node140</title>
<path fill="none" stroke="midnightblue" d="M258.072,-1170.65C280.337,-1183.23 321.462,-1205.15 359,-1218 368.292,-1221.18 378.313,-1223.93 388.177,-1226.27"/>
<polygon fill="midnightblue" stroke="midnightblue" points="387.432,-1229.69 397.957,-1228.48 388.972,-1222.86 387.432,-1229.69"/>
</g>
<!-- Node219&#45;&gt;Node210 -->
<g id="edge53" class="edge"><title>Node219&#45;&gt;Node210</title>
<path fill="none" stroke="midnightblue" d="M292.26,-1170.3C324.631,-1176.22 366.41,-1183.88 398.692,-1189.79"/>
<polygon fill="midnightblue" stroke="midnightblue" points="398.349,-1193.28 408.816,-1191.64 399.61,-1186.4 398.349,-1193.28"/>
</g>
<!-- Node219&#45;&gt;Node211 -->
<g id="edge54" class="edge"><title>Node219&#45;&gt;Node211</title>
<path fill="none" stroke="midnightblue" d="M292.26,-1161C322.874,-1161 361.902,-1161 393.355,-1161"/>
<polygon fill="midnightblue" stroke="midnightblue" points="393.708,-1164.5 403.708,-1161 393.708,-1157.5 393.708,-1164.5"/>
</g>
</g>
</svg>
