<?xml version="1.0" encoding="UTF-8" standalone="no"?>
<!DOCTYPE svg PUBLIC "-//W3C//DTD SVG 1.1//EN"
 "http://www.w3.org/Graphics/SVG/1.1/DTD/svg11.dtd">
<!-- Generated by graphviz version 2.38.0 (20140413.2041)
 -->
<!-- Title: CoolTime::getTimeDate Pages: 1 -->
<svg width="595pt" height="104pt"
 viewBox="0.00 0.00 595.00 104.00" xmlns="http://www.w3.org/2000/svg" xmlns:xlink="http://www.w3.org/1999/xlink">
<g id="graph0" class="graph" transform="scale(1 1) rotate(0) translate(4 100)">
<title>CoolTime::getTimeDate</title>
<polygon fill="white" stroke="none" points="-4,4 -4,-100 591,-100 591,4 -4,4"/>
<!-- Node47 -->
<g id="node1" class="node"><title>Node47</title>
<polygon fill="#bfbfbf" stroke="black" points="0,-57.5 0,-76.5 121,-76.5 121,-57.5 0,-57.5"/>
<text text-anchor="middle" x="60.5" y="-64.5" font-family="Helvetica,sans-Serif" font-size="10.00">CoolTime::getTimeDate</text>
</g>
<!-- Node48 -->
<g id="node2" class="node"><title>Node48</title>
<g id="a_node2"><a xlink:href="class_cool_board.html#ad03abdce2e65f520bbf2cff0f2d083cf" target="_top" xlink:title="CoolBoard::readSensors">
<polygon fill="white" stroke="black" points="306,-76.5 306,-95.5 429,-95.5 429,-76.5 306,-76.5"/>
<text text-anchor="middle" x="367.5" y="-83.5" font-family="Helvetica,sans-Serif" font-size="10.00">CoolBoard::readSensors</text>
</a>
</g>
</g>
<!-- Node47&#45;&gt;Node48 -->
<g id="edge1" class="edge"><title>Node47&#45;&gt;Node48</title>
<path fill="none" stroke="midnightblue" d="M131.302,-71.3483C183.972,-74.6294 255.51,-79.0859 305.815,-82.2196"/>
<polygon fill="midnightblue" stroke="midnightblue" points="131.229,-67.8371 121.031,-70.7085 130.794,-74.8236 131.229,-67.8371"/>
</g>
<!-- Node51 -->
<g id="node5" class="node"><title>Node51</title>
<g id="a_node5"><a xlink:href="class_cool_time.html#ac4f32ee513c1328d984306645e8785a4" target="_top" xlink:title="CoolTime::getESDate">
<polygon fill="white" stroke="black" points="157,-38.5 157,-57.5 270,-57.5 270,-38.5 157,-38.5"/>
<text text-anchor="middle" x="213.5" y="-45.5" font-family="Helvetica,sans-Serif" font-size="10.00">CoolTime::getESDate</text>
</a>
</g>
</g>
<!-- Node47&#45;&gt;Node51 -->
<g id="edge4" class="edge"><title>Node47&#45;&gt;Node51</title>
<path fill="none" stroke="midnightblue" d="M131.156,-58.2354C139.716,-57.1583 148.377,-56.0684 156.695,-55.0218"/>
<polygon fill="midnightblue" stroke="midnightblue" points="130.664,-54.7696 121.179,-59.4907 131.538,-61.7148 130.664,-54.7696"/>
</g>
<!-- Node49 -->
<g id="node3" class="node"><title>Node49</title>
<g id="a_node3"><a xlink:href="class_cool_board.html#aa0bbc4bc605e35618d18e68795c61363" target="_top" xlink:title="CoolBoard::onLineMode">
<polygon fill="white" stroke="black" points="465.5,-66.5 465.5,-85.5 586.5,-85.5 586.5,-66.5 465.5,-66.5"/>
<text text-anchor="middle" x="526" y="-73.5" font-family="Helvetica,sans-Serif" font-size="10.00">CoolBoard::onLineMode</text>
</a>
</g>
</g>
<!-- Node48&#45;&gt;Node49 -->
<g id="edge2" class="edge"><title>Node48&#45;&gt;Node49</title>
<path fill="none" stroke="midnightblue" d="M439.207,-81.482C447.968,-80.9222 456.856,-80.3542 465.427,-79.8066"/>
<polygon fill="midnightblue" stroke="midnightblue" points="438.763,-78.0031 429.007,-82.1337 439.21,-84.9888 438.763,-78.0031"/>
</g>
<!-- Node50 -->
<g id="node4" class="node"><title>Node50</title>
<g id="a_node4"><a xlink:href="class_cool_board.html#ae6b5e1274d760462290192acea4adca8" target="_top" xlink:title="CoolBoard::offLineMode">
<polygon fill="white" stroke="black" points="465,-19.5 465,-38.5 587,-38.5 587,-19.5 465,-19.5"/>
<text text-anchor="middle" x="526" y="-26.5" font-family="Helvetica,sans-Serif" font-size="10.00">CoolBoard::offLineMode</text>
</a>
</g>
</g>
<!-- Node48&#45;&gt;Node50 -->
<g id="edge3" class="edge"><title>Node48&#45;&gt;Node50</title>
<path fill="none" stroke="midnightblue" d="M410.157,-73.3547C416.495,-71.3049 422.939,-69.148 429,-67 454.343,-58.0182 482.946,-46.5156 502.288,-38.53"/>
<polygon fill="midnightblue" stroke="midnightblue" points="408.826,-70.1053 400.357,-76.4713 410.947,-76.7762 408.826,-70.1053"/>
</g>
<!-- Node52 -->
<g id="node6" class="node"><title>Node52</title>
<g id="a_node6"><a xlink:href="class_cool_board.html#ae7358fb6e623cfc81b775f5f1734909b" target="_top" xlink:title="CoolBoard::userData">
<polygon fill="white" stroke="black" points="313.5,-0.5 313.5,-19.5 421.5,-19.5 421.5,-0.5 313.5,-0.5"/>
<text text-anchor="middle" x="367.5" y="-7.5" font-family="Helvetica,sans-Serif" font-size="10.00">CoolBoard::userData</text>
</a>
</g>
</g>
<!-- Node51&#45;&gt;Node52 -->
<g id="edge5" class="edge"><title>Node51&#45;&gt;Node52</title>
<path fill="none" stroke="midnightblue" d="M262.66,-35.96C283.895,-30.6512 308.495,-24.5012 328.42,-19.5201"/>
<polygon fill="midnightblue" stroke="midnightblue" points="261.709,-32.5901 252.856,-38.411 263.406,-39.3811 261.709,-32.5901"/>
</g>
<!-- Node53 -->
<g id="node7" class="node"><title>Node53</title>
<g id="a_node7"><a xlink:href="class_cool_time.html#ab81ea7fdaace111aa01cc1ec84c6d297" target="_top" xlink:title="CoolTime::setDateTime">
<polygon fill="white" stroke="black" points="307,-38.5 307,-57.5 428,-57.5 428,-38.5 307,-38.5"/>
<text text-anchor="middle" x="367.5" y="-45.5" font-family="Helvetica,sans-Serif" font-size="10.00">CoolTime::setDateTime</text>
</a>
</g>
</g>
<!-- Node51&#45;&gt;Node53 -->
<g id="edge8" class="edge"><title>Node51&#45;&gt;Node53</title>
<path fill="none" stroke="midnightblue" d="M280.458,-48C289.262,-48 298.249,-48 306.935,-48"/>
<polygon fill="midnightblue" stroke="midnightblue" points="280.236,-44.5001 270.236,-48 280.236,-51.5001 280.236,-44.5001"/>
</g>
<!-- Node52&#45;&gt;Node49 -->
<g id="edge6" class="edge"><title>Node52&#45;&gt;Node49</title>
<path fill="none" stroke="midnightblue" d="M412.702,-22.8542C418.245,-24.7658 423.792,-26.829 429,-29 445.699,-35.9611 448.798,-39.95 465,-48 477.765,-54.3424 492.241,-61.1099 503.776,-66.4027"/>
<polygon fill="midnightblue" stroke="midnightblue" points="413.399,-19.3986 402.806,-19.5865 411.205,-26.0456 413.399,-19.3986"/>
</g>
<!-- Node52&#45;&gt;Node50 -->
<g id="edge7" class="edge"><title>Node52&#45;&gt;Node50</title>
<path fill="none" stroke="midnightblue" d="M432.132,-17.7252C442.934,-19.0367 454.122,-20.395 464.832,-21.6953"/>
<polygon fill="midnightblue" stroke="midnightblue" points="432.27,-14.2164 421.921,-16.4856 431.426,-21.1654 432.27,-14.2164"/>
</g>
</g>
</svg>
