<?xml version="1.0" encoding="UTF-8" standalone="no"?>
<!DOCTYPE svg PUBLIC "-//W3C//DTD SVG 1.1//EN"
 "http://www.w3.org/Graphics/SVG/1.1/DTD/svg11.dtd">
<!-- Generated by graphviz version 2.38.0 (20140413.2041)
 -->
<!-- Title: WiFiManager::setConfigPortalTimeout Pages: 1 -->
<!--zoomable 66 -->
<svg id="main" version="1.1" xmlns="http://www.w3.org/2000/svg" xmlns:xlink="http://www.w3.org/1999/xlink" xml:space="preserve" onload="init(evt)">
<style type="text/css"><![CDATA[
.edge:hover path { stroke: red; }
.edge:hover polygon { stroke: red; fill: red; }
]]></style>
<script type="text/javascript"><![CDATA[
var edges = document.getElementsByTagName('g');
if (edges && edges.length) {
  for (var i=0;i<edges.length;i++) {
    if (edges[i].id.substr(0,4)=='edge') {
      edges[i].setAttribute('class','edge');
    }
  }
}
]]></script>
        <defs>
                <circle id="rim" cx="0" cy="0" r="7"/>
                <circle id="rim2" cx="0" cy="0" r="3.5"/>
                <g id="zoomPlus">
                        <use xlink:href="#rim" fill="#404040">
                                <set attributeName="fill" to="#808080" begin="zoomplus.mouseover" end="zoomplus.mouseout"/>
                        </use>
                        <path d="M-4,0h8M0,-4v8" fill="none" stroke="white" stroke-width="1.5" pointer-events="none"/>
                </g>
                <g id="zoomMin">
                        <use xlink:href="#rim" fill="#404040">
                                <set attributeName="fill" to="#808080" begin="zoomminus.mouseover" end="zoomminus.mouseout"/>
                        </use>
                        <path d="M-4,0h8" fill="none" stroke="white" stroke-width="1.5" pointer-events="none"/>
                </g>
                <g id="dirArrow">
                        <path fill="none" stroke="white" stroke-width="1.5" d="M0,-3.0v7 M-2.5,-0.5L0,-3.0L2.5,-0.5"/>
                </g>
               <g id="resetDef">
                       <use xlink:href="#rim2" fill="#404040">
                               <set attributeName="fill" to="#808080" begin="reset.mouseover" end="reset.mouseout"/>
                       </use>
               </g>
        </defs>

<script type="text/javascript">
var viewWidth = 893;
var viewHeight = 66;
var sectionId = 'dynsection-29';
</script>
<script xlink:href="svgpan.js"/>
<svg id="graph" class="graph">
<g id="viewport">
<title>WiFiManager::setConfigPortalTimeout</title>
<polygon fill="white" stroke="none" points="-4,4 -4,-62 889,-62 889,4 -4,4"/>
<!-- Node139 -->
<g id="node1" class="node"><title>Node139</title>
<polygon fill="#bfbfbf" stroke="black" points="0,-14 0,-44 148,-44 148,-14 0,-14"/>
<text text-anchor="start" x="8" y="-32" font-family="Helvetica,sans-Serif" font-size="10.00">WiFiManager::setConfigPortal</text>
<text text-anchor="middle" x="74" y="-21" font-family="Helvetica,sans-Serif" font-size="10.00">Timeout</text>
</g>
<!-- Node140 -->
<g id="node2" class="node"><title>Node140</title>
<g id="a_node2"><a xlink:href="class_wi_fi_manager.html#aa6493d59c284ff245edb767ff684756d" target="_top" xlink:title="WiFiManager::setTimeout">
<polygon fill="white" stroke="black" points="184,-19.5 184,-38.5 313,-38.5 313,-19.5 184,-19.5"/>
<text text-anchor="middle" x="248.5" y="-26.5" font-family="Helvetica,sans-Serif" font-size="10.00">WiFiManager::setTimeout</text>
</a>
</g>
</g>
<!-- Node139&#45;&gt;Node140 -->
<g id="edge1" class="edge"><title>Node139&#45;&gt;Node140</title>
<path fill="none" stroke="midnightblue" d="M158.21,-29C166.808,-29 175.446,-29 183.782,-29"/>
<polygon fill="midnightblue" stroke="midnightblue" points="158.156,-25.5001 148.156,-29 158.155,-32.5001 158.156,-25.5001"/>
</g>
<!-- Node141 -->
<g id="node3" class="node"><title>Node141</title>
<g id="a_node3"><a xlink:href="class_cool_wifi.html#a7c857f27161782f5ef1d62d552aff971" target="_top" xlink:title="CoolWifi::connectAP">
<polygon fill="white" stroke="black" points="349,-19.5 349,-38.5 457,-38.5 457,-19.5 349,-19.5"/>
<text text-anchor="middle" x="403" y="-26.5" font-family="Helvetica,sans-Serif" font-size="10.00">CoolWifi::connectAP</text>
</a>
</g>
</g>
<!-- Node140&#45;&gt;Node141 -->
<g id="edge2" class="edge"><title>Node140&#45;&gt;Node141</title>
<path fill="none" stroke="midnightblue" d="M323.556,-29C332.01,-29 340.5,-29 348.609,-29"/>
<polygon fill="midnightblue" stroke="midnightblue" points="323.29,-25.5001 313.29,-29 323.29,-32.5001 323.29,-25.5001"/>
</g>
<!-- Node142 -->
<g id="node4" class="node"><title>Node142</title>
<g id="a_node4"><a xlink:href="class_cool_board.html#ae6b5e1274d760462290192acea4adca8" target="_top" xlink:title="CoolBoard::offLineMode">
<polygon fill="white" stroke="black" points="763,-38.5 763,-57.5 885,-57.5 885,-38.5 763,-38.5"/>
<text text-anchor="middle" x="824" y="-45.5" font-family="Helvetica,sans-Serif" font-size="10.00">CoolBoard::offLineMode</text>
</a>
</g>
</g>
<!-- Node141&#45;&gt;Node142 -->
<g id="edge3" class="edge"><title>Node141&#45;&gt;Node142</title>
<path fill="none" stroke="midnightblue" d="M467.507,-31.8798C547.643,-35.5137 684.454,-41.7175 762.929,-45.276"/>
<polygon fill="midnightblue" stroke="midnightblue" points="467.215,-28.363 457.067,-31.4064 466.898,-35.3559 467.215,-28.363"/>
</g>
<!-- Node143 -->
<g id="node5" class="node"><title>Node143</title>
<g id="a_node5"><a xlink:href="class_cool_wifi.html#ad060353050f40d032a2dbf9e54a768bf" target="_top" xlink:title="CoolWifi::connect">
<polygon fill="white" stroke="black" points="493,-0.5 493,-19.5 588,-19.5 588,-0.5 493,-0.5"/>
<text text-anchor="middle" x="540.5" y="-7.5" font-family="Helvetica,sans-Serif" font-size="10.00">CoolWifi::connect</text>
</a>
</g>
</g>
<!-- Node141&#45;&gt;Node143 -->
<g id="edge4" class="edge"><title>Node141&#45;&gt;Node143</title>
<path fill="none" stroke="midnightblue" d="M467.16,-20.1436C475.742,-18.9402 484.423,-17.723 492.648,-16.5697"/>
<polygon fill="midnightblue" stroke="midnightblue" points="466.581,-16.6904 457.164,-21.5452 467.553,-23.6226 466.581,-16.6904"/>
</g>
<!-- Node144 -->
<g id="node6" class="node"><title>Node144</title>
<g id="a_node6"><a xlink:href="class_cool_board.html#a519de78b807f8ec6463ff484eb925918" target="_top" xlink:title="CoolBoard::connect">
<polygon fill="white" stroke="black" points="624,-0.5 624,-19.5 727,-19.5 727,-0.5 624,-0.5"/>
<text text-anchor="middle" x="675.5" y="-7.5" font-family="Helvetica,sans-Serif" font-size="10.00">CoolBoard::connect</text>
</a>
</g>
</g>
<!-- Node143&#45;&gt;Node144 -->
<g id="edge5" class="edge"><title>Node143&#45;&gt;Node144</title>
<path fill="none" stroke="midnightblue" d="M598.204,-10C606.676,-10 615.364,-10 623.703,-10"/>
<polygon fill="midnightblue" stroke="midnightblue" points="598.017,-6.5001 588.017,-10 598.017,-13.5001 598.017,-6.5001"/>
</g>
<!-- Node144&#45;&gt;Node142 -->
<g id="edge7" class="edge"><title>Node144&#45;&gt;Node142</title>
<path fill="none" stroke="midnightblue" d="M723.195,-22.1121C743.599,-27.4044 767.181,-33.5213 786.298,-38.4799"/>
<polygon fill="midnightblue" stroke="midnightblue" points="724.027,-18.712 713.468,-19.589 722.269,-25.4877 724.027,-18.712"/>
</g>
<!-- Node145 -->
<g id="node7" class="node"><title>Node145</title>
<g id="a_node7"><a xlink:href="class_cool_board.html#acba7c5aef7268b2c0044bdb54d3b9d76" target="_top" xlink:title="CoolBoard::begin">
<polygon fill="white" stroke="black" points="778,-0.5 778,-19.5 870,-19.5 870,-0.5 778,-0.5"/>
<text text-anchor="middle" x="824" y="-7.5" font-family="Helvetica,sans-Serif" font-size="10.00">CoolBoard::begin</text>
</a>
</g>
</g>
<!-- Node144&#45;&gt;Node145 -->
<g id="edge6" class="edge"><title>Node144&#45;&gt;Node145</title>
<path fill="none" stroke="midnightblue" d="M737.472,-10C750.924,-10 764.944,-10 777.648,-10"/>
<polygon fill="midnightblue" stroke="midnightblue" points="737.327,-6.5001 727.327,-10 737.327,-13.5001 737.327,-6.5001"/>
</g>
</g>
</svg>
        <g id="navigator" transform="translate(0 0)" fill="#404254">
                <rect fill="#f2f5e9" fill-opacity="0.5" stroke="#606060" stroke-width=".5" x="0" y="0" width="60" height="60"/>
                <use id="zoomplus" xlink:href="#zoomPlus" x="17" y="9" onmousedown="handleZoom(evt,'in')"/>
                <use id="zoomminus" xlink:href="#zoomMin" x="42" y="9" onmousedown="handleZoom(evt,'out')"/>
                <use id="reset" xlink:href="#resetDef" x="30" y="36" onmousedown="handleReset()"/>
                <g id="arrowUp" xlink:href="#dirArrow" transform="translate(30 24)" onmousedown="handlePan(0,-1)">
                  <use xlink:href="#rim" fill="#404040">
                        <set attributeName="fill" to="#808080" begin="arrowUp.mouseover" end="arrowUp.mouseout"/>
                  </use>
                  <path fill="none" stroke="white" stroke-width="1.5" d="M0,-3.0v7 M-2.5,-0.5L0,-3.0L2.5,-0.5"/>
                </g>
                <g id="arrowRight" xlink:href="#dirArrow" transform="rotate(90) translate(36 -43)" onmousedown="handlePan(1,0)">
                  <use xlink:href="#rim" fill="#404040">
                        <set attributeName="fill" to="#808080" begin="arrowRight.mouseover" end="arrowRight.mouseout"/>
                  </use>
                  <path fill="none" stroke="white" stroke-width="1.5" d="M0,-3.0v7 M-2.5,-0.5L0,-3.0L2.5,-0.5"/>
                </g>
                <g id="arrowDown" xlink:href="#dirArrow" transform="rotate(180) translate(-30 -48)" onmousedown="handlePan(0,1)">
                  <use xlink:href="#rim" fill="#404040">
                        <set attributeName="fill" to="#808080" begin="arrowDown.mouseover" end="arrowDown.mouseout"/>
                  </use>
                  <path fill="none" stroke="white" stroke-width="1.5" d="M0,-3.0v7 M-2.5,-0.5L0,-3.0L2.5,-0.5"/>
                </g>
                <g id="arrowLeft" xlink:href="#dirArrow" transform="rotate(270) translate(-36 17)" onmousedown="handlePan(-1,0)">
                  <use xlink:href="#rim" fill="#404040">
                        <set attributeName="fill" to="#808080" begin="arrowLeft.mouseover" end="arrowLeft.mouseout"/>
                  </use>
                  <path fill="none" stroke="white" stroke-width="1.5" d="M0,-3.0v7 M-2.5,-0.5L0,-3.0L2.5,-0.5"/>
                </g>
        </g>
        <svg viewBox="0 0 15 15" width="100%" height="30px" preserveAspectRatio="xMaxYMin meet">
         <g id="arrow_out" transform="scale(0.3 0.3)">
          <a xlink:href="class_wi_fi_manager_a904006cb4d2c769e93bfdef336853766_icgraph_org.svg" target="_base">
           <rect id="button" ry="5" rx="5" y="6" x="6" height="38" width="38"
                fill="#f2f5e9" fill-opacity="0.5" stroke="#606060" stroke-width="1.0"/>
           <path id="arrow"
             d="M 11.500037,31.436501 C 11.940474,20.09759 22.043105,11.32322 32.158766,21.979434 L 37.068811,17.246167 C 37.068811,17.246167 37.088388,32 37.088388,32 L 22.160133,31.978069 C 22.160133,31.978069 26.997745,27.140456 26.997745,27.140456 C 18.528582,18.264221 13.291696,25.230495 11.500037,31.436501 z"
             style="fill:#404040;"/>
          </a>
         </g>
        </svg>
</svg>
