<?xml version="1.0" encoding="UTF-8" standalone="no"?>
<!DOCTYPE svg PUBLIC "-//W3C//DTD SVG 1.1//EN"
 "http://www.w3.org/Graphics/SVG/1.1/DTD/svg11.dtd">
<!-- Generated by graphviz version 2.38.0 (20140413.2041)
 -->
<!-- Title: WiFiManager::startWPS Pages: 1 -->
<svg width="471pt" height="78pt"
 viewBox="0.00 0.00 471.00 77.50" xmlns="http://www.w3.org/2000/svg" xmlns:xlink="http://www.w3.org/1999/xlink">
<g id="graph0" class="graph" transform="scale(1 1) rotate(0) translate(4 73.5)">
<title>WiFiManager::startWPS</title>
<polygon fill="white" stroke="none" points="-4,4 -4,-73.5 467,-73.5 467,4 -4,4"/>
<!-- Node217 -->
<g id="node1" class="node"><title>Node217</title>
<polygon fill="#bfbfbf" stroke="black" points="0,-28 0,-47 123,-47 123,-28 0,-28"/>
<text text-anchor="middle" x="61.5" y="-35" font-family="Helvetica,sans-Serif" font-size="10.00">WiFiManager::startWPS</text>
</g>
<!-- Node218 -->
<g id="node2" class="node"><title>Node218</title>
<g id="a_node2"><a xlink:href="class_wi_fi_manager.html#ae0ae27b5543b47585728c084c3bbdca7" target="_top" xlink:title="WiFiManager::connectWifi">
<polygon fill="white" stroke="black" points="159,-28 159,-47 291,-47 291,-28 159,-28"/>
<text text-anchor="middle" x="225" y="-35" font-family="Helvetica,sans-Serif" font-size="10.00">WiFiManager::connectWifi</text>
</a>
</g>
</g>
<!-- Node217&#45;&gt;Node218 -->
<g id="edge1" class="edge"><title>Node217&#45;&gt;Node218</title>
<path fill="none" stroke="midnightblue" d="M133.31,-37.5C141.765,-37.5 150.368,-37.5 158.739,-37.5"/>
<polygon fill="midnightblue" stroke="midnightblue" points="133.096,-34.0001 123.096,-37.5 133.096,-41.0001 133.096,-34.0001"/>
</g>
<!-- Node219 -->
<g id="node3" class="node"><title>Node219</title>
<g id="a_node3"><a xlink:href="class_wi_fi_manager.html#ab1d094034e5e3e36e2e1b3624edad469" target="_top" xlink:title="WiFiManager::autoConnect">
<polygon fill="white" stroke="black" points="327,-50 327,-69 463,-69 463,-50 327,-50"/>
<text text-anchor="middle" x="395" y="-57" font-family="Helvetica,sans-Serif" font-size="10.00">WiFiManager::autoConnect</text>
</a>
</g>
</g>
<!-- Node218&#45;&gt;Node219 -->
<g id="edge2" class="edge"><title>Node218&#45;&gt;Node219</title>
<path fill="none" stroke="midnightblue" d="M301.603,-47.4004C310.004,-48.5006 318.519,-49.6156 326.806,-50.7008"/>
<polygon fill="midnightblue" stroke="midnightblue" points="301.804,-43.8969 291.434,-46.0688 300.895,-50.8377 301.804,-43.8969"/>
</g>
<!-- Node220 -->
<g id="node4" class="node"><title>Node220</title>
<g id="a_node4"><a xlink:href="class_wi_fi_manager.html#afaca5021edffb4d9a5bd39f7b0f7a686" target="_top" xlink:title="WiFiManager::startConfig\lPortal">
<polygon fill="white" stroke="black" points="331,-0.5 331,-30.5 459,-30.5 459,-0.5 331,-0.5"/>
<text text-anchor="start" x="339" y="-18.5" font-family="Helvetica,sans-Serif" font-size="10.00">WiFiManager::startConfig</text>
<text text-anchor="middle" x="395" y="-7.5" font-family="Helvetica,sans-Serif" font-size="10.00">Portal</text>
</a>
</g>
</g>
<!-- Node218&#45;&gt;Node220 -->
<g id="edge3" class="edge"><title>Node218&#45;&gt;Node220</title>
<path fill="none" stroke="midnightblue" d="M301.583,-27.6022C311.398,-26.317 321.367,-25.0114 330.948,-23.7568"/>
<polygon fill="midnightblue" stroke="midnightblue" points="300.895,-24.1623 291.434,-28.9312 301.804,-31.1031 300.895,-24.1623"/>
</g>
</g>
</svg>
