<?xml version="1.0" encoding="UTF-8" standalone="no"?>
<!DOCTYPE svg PUBLIC "-//W3C//DTD SVG 1.1//EN"
 "http://www.w3.org/Graphics/SVG/1.1/DTD/svg11.dtd">
<!-- Generated by graphviz version 2.38.0 (20140413.2041)
 -->
<!-- Title: Adafruit_TCS34725::setIntegrationTime Pages: 1 -->
<svg width="404pt" height="88pt"
 viewBox="0.00 0.00 404.00 88.00" xmlns="http://www.w3.org/2000/svg" xmlns:xlink="http://www.w3.org/1999/xlink">
<g id="graph0" class="graph" transform="scale(1 1) rotate(0) translate(4 84)">
<title>Adafruit_TCS34725::setIntegrationTime</title>
<polygon fill="white" stroke="none" points="-4,4 -4,-84 400,-84 400,4 -4,4"/>
<!-- Node66 -->
<g id="node1" class="node"><title>Node66</title>
<polygon fill="#bfbfbf" stroke="black" points="0,-49.5 0,-79.5 108,-79.5 108,-49.5 0,-49.5"/>
<text text-anchor="start" x="8" y="-67.5" font-family="Helvetica,sans-Serif" font-size="10.00">Adafruit_TCS34725::</text>
<text text-anchor="middle" x="54" y="-56.5" font-family="Helvetica,sans-Serif" font-size="10.00">setIntegrationTime</text>
</g>
<!-- Node67 -->
<g id="node2" class="node"><title>Node67</title>
<g id="a_node2"><a xlink:href="class_adafruit___t_c_s34725.html#a568d79b6382ac27010a8afc26cbdae79" target="_top" xlink:title="Adafruit_TCS34725::\lbegin">
<polygon fill="white" stroke="black" points="144,-49.5 144,-79.5 252,-79.5 252,-49.5 144,-49.5"/>
<text text-anchor="start" x="152" y="-67.5" font-family="Helvetica,sans-Serif" font-size="10.00">Adafruit_TCS34725::</text>
<text text-anchor="middle" x="198" y="-56.5" font-family="Helvetica,sans-Serif" font-size="10.00">begin</text>
</a>
</g>
</g>
<!-- Node66&#45;&gt;Node67 -->
<g id="edge1" class="edge"><title>Node66&#45;&gt;Node67</title>
<path fill="none" stroke="midnightblue" d="M118.517,-57.7834C126.996,-57.7074 135.618,-57.761 143.894,-57.9443"/>
<polygon fill="midnightblue" stroke="midnightblue" points="118.225,-54.2874 108.28,-57.9404 118.332,-61.2866 118.225,-54.2874"/>
</g>
<!-- Node67&#45;&gt;Node66 -->
<g id="edge2" class="edge"><title>Node67&#45;&gt;Node66</title>
<path fill="none" stroke="midnightblue" d="M133.661,-71.215C125.184,-71.2928 116.56,-71.241 108.28,-71.0596"/>
<polygon fill="midnightblue" stroke="midnightblue" points="133.95,-74.711 143.894,-71.0557 133.841,-67.7118 133.95,-74.711"/>
</g>
<!-- Node68 -->
<g id="node3" class="node"><title>Node68</title>
<g id="a_node3"><a xlink:href="class_adafruit___t_c_s34725.html#a6be06315a9d33f76e44550f574f023a5" target="_top" xlink:title="Adafruit_TCS34725::\lsetGain">
<polygon fill="white" stroke="black" points="288,-49.5 288,-79.5 396,-79.5 396,-49.5 288,-49.5"/>
<text text-anchor="start" x="296" y="-67.5" font-family="Helvetica,sans-Serif" font-size="10.00">Adafruit_TCS34725::</text>
<text text-anchor="middle" x="342" y="-56.5" font-family="Helvetica,sans-Serif" font-size="10.00">setGain</text>
</a>
</g>
</g>
<!-- Node67&#45;&gt;Node68 -->
<g id="edge3" class="edge"><title>Node67&#45;&gt;Node68</title>
<path fill="none" stroke="midnightblue" d="M262.517,-57.7834C270.996,-57.7074 279.618,-57.761 287.894,-57.9443"/>
<polygon fill="midnightblue" stroke="midnightblue" points="262.225,-54.2874 252.28,-57.9404 262.332,-61.2866 262.225,-54.2874"/>
</g>
<!-- Node69 -->
<g id="node4" class="node"><title>Node69</title>
<g id="a_node4"><a xlink:href="class_adafruit___t_c_s34725.html#abd9946a9baab1e0c76248cfe1864ea27" target="_top" xlink:title="Reads the raw red, green, blue and clear channel values. ">
<polygon fill="white" stroke="black" points="288,-0.5 288,-30.5 396,-30.5 396,-0.5 288,-0.5"/>
<text text-anchor="start" x="296" y="-18.5" font-family="Helvetica,sans-Serif" font-size="10.00">Adafruit_TCS34725::</text>
<text text-anchor="middle" x="342" y="-7.5" font-family="Helvetica,sans-Serif" font-size="10.00">getRawData</text>
</a>
</g>
</g>
<!-- Node67&#45;&gt;Node69 -->
<g id="edge5" class="edge"><title>Node67&#45;&gt;Node69</title>
<path fill="none" stroke="midnightblue" d="M252.292,-46.1104C267.078,-41.0084 282.957,-35.5289 297.137,-30.6359"/>
<polygon fill="midnightblue" stroke="midnightblue" points="251.075,-42.828 242.763,-49.3986 253.358,-49.4451 251.075,-42.828"/>
</g>
<!-- Node68&#45;&gt;Node67 -->
<g id="edge4" class="edge"><title>Node68&#45;&gt;Node67</title>
<path fill="none" stroke="midnightblue" d="M277.661,-71.215C269.184,-71.2928 260.56,-71.241 252.28,-71.0596"/>
<polygon fill="midnightblue" stroke="midnightblue" points="277.95,-74.711 287.894,-71.0557 277.841,-67.7118 277.95,-74.711"/>
</g>
</g>
</svg>
