<?xml version="1.0" encoding="UTF-8" standalone="no"?>
<!DOCTYPE svg PUBLIC "-//W3C//DTD SVG 1.1//EN"
 "http://www.w3.org/Graphics/SVG/1.1/DTD/svg11.dtd">
<!-- Generated by graphviz version 2.38.0 (20140413.2041)
 -->
<!-- Title: CoolMQTT::state Pages: 1 -->
<!--zoomable 142 -->
<svg id="main" version="1.1" xmlns="http://www.w3.org/2000/svg" xmlns:xlink="http://www.w3.org/1999/xlink" xml:space="preserve" onload="init(evt)">
<style type="text/css"><![CDATA[
.edge:hover path { stroke: red; }
.edge:hover polygon { stroke: red; fill: red; }
]]></style>
<script type="text/javascript"><![CDATA[
var edges = document.getElementsByTagName('g');
if (edges && edges.length) {
  for (var i=0;i<edges.length;i++) {
    if (edges[i].id.substr(0,4)=='edge') {
      edges[i].setAttribute('class','edge');
    }
  }
}
]]></script>
        <defs>
                <circle id="rim" cx="0" cy="0" r="7"/>
                <circle id="rim2" cx="0" cy="0" r="3.5"/>
                <g id="zoomPlus">
                        <use xlink:href="#rim" fill="#404040">
                                <set attributeName="fill" to="#808080" begin="zoomplus.mouseover" end="zoomplus.mouseout"/>
                        </use>
                        <path d="M-4,0h8M0,-4v8" fill="none" stroke="white" stroke-width="1.5" pointer-events="none"/>
                </g>
                <g id="zoomMin">
                        <use xlink:href="#rim" fill="#404040">
                                <set attributeName="fill" to="#808080" begin="zoomminus.mouseover" end="zoomminus.mouseout"/>
                        </use>
                        <path d="M-4,0h8" fill="none" stroke="white" stroke-width="1.5" pointer-events="none"/>
                </g>
                <g id="dirArrow">
                        <path fill="none" stroke="white" stroke-width="1.5" d="M0,-3.0v7 M-2.5,-0.5L0,-3.0L2.5,-0.5"/>
                </g>
               <g id="resetDef">
                       <use xlink:href="#rim2" fill="#404040">
                               <set attributeName="fill" to="#808080" begin="reset.mouseover" end="reset.mouseout"/>
                       </use>
               </g>
        </defs>

<script type="text/javascript">
var viewWidth = 556;
var viewHeight = 142;
var sectionId = 'dynsection-16';
</script>
<script xlink:href="svgpan.js"/>
<svg id="graph" class="graph">
<g id="viewport">
<title>CoolMQTT::state</title>
<polygon fill="white" stroke="none" points="-4,4 -4,-138 552,-138 552,4 -4,4"/>
<!-- Node60 -->
<g id="node1" class="node"><title>Node60</title>
<polygon fill="#bfbfbf" stroke="black" points="0,-57.5 0,-76.5 92,-76.5 92,-57.5 0,-57.5"/>
<text text-anchor="middle" x="46" y="-64.5" font-family="Helvetica,sans-Serif" font-size="10.00">CoolMQTT::state</text>
</g>
<!-- Node61 -->
<g id="node2" class="node"><title>Node61</title>
<g id="a_node2"><a xlink:href="class_cool_board.html#ad7442cf4b62c7b0d5bd62a0f75ffc065" target="_top" xlink:title="CoolBoard::isConnected">
<polygon fill="white" stroke="black" points="128,-114.5 128,-133.5 251,-133.5 251,-114.5 128,-114.5"/>
<text text-anchor="middle" x="189.5" y="-121.5" font-family="Helvetica,sans-Serif" font-size="10.00">CoolBoard::isConnected</text>
</a>
</g>
</g>
<!-- Node60&#45;&gt;Node61 -->
<g id="edge1" class="edge"><title>Node60&#45;&gt;Node61</title>
<path fill="none" stroke="midnightblue" d="M80.027,-80.5358C94.7052,-86.5308 112.203,-93.6489 128,-100 139.952,-104.805 153.257,-110.09 164.339,-114.474"/>
<polygon fill="midnightblue" stroke="midnightblue" points="80.9519,-77.1328 70.3711,-76.5881 78.3029,-83.6122 80.9519,-77.1328"/>
</g>
<!-- Node62 -->
<g id="node3" class="node"><title>Node62</title>
<g id="a_node3"><a xlink:href="class_cool_board.html#a519de78b807f8ec6463ff484eb925918" target="_top" xlink:title="CoolBoard::connect">
<polygon fill="white" stroke="black" points="287,-38.5 287,-57.5 390,-57.5 390,-38.5 287,-38.5"/>
<text text-anchor="middle" x="338.5" y="-45.5" font-family="Helvetica,sans-Serif" font-size="10.00">CoolBoard::connect</text>
</a>
</g>
</g>
<!-- Node60&#45;&gt;Node62 -->
<g id="edge2" class="edge"><title>Node60&#45;&gt;Node62</title>
<path fill="none" stroke="midnightblue" d="M102.215,-70.2136C143.357,-71.8293 200.851,-72.4429 251,-67 268.12,-65.1419 286.817,-61.273 302.433,-57.5083"/>
<polygon fill="midnightblue" stroke="midnightblue" points="102.262,-66.7126 92.1221,-69.7844 101.964,-73.7062 102.262,-66.7126"/>
</g>
<!-- Node64 -->
<g id="node5" class="node"><title>Node64</title>
<g id="a_node5"><a xlink:href="class_cool_board.html#ae6b5e1274d760462290192acea4adca8" target="_top" xlink:title="CoolBoard::offLineMode">
<polygon fill="white" stroke="black" points="426,-0.5 426,-19.5 548,-19.5 548,-0.5 426,-0.5"/>
<text text-anchor="middle" x="487" y="-7.5" font-family="Helvetica,sans-Serif" font-size="10.00">CoolBoard::offLineMode</text>
</a>
</g>
</g>
<!-- Node60&#45;&gt;Node64 -->
<g id="edge5" class="edge"><title>Node60&#45;&gt;Node64</title>
<path fill="none" stroke="midnightblue" d="M71.7208,-52.3394C87.3028,-43.8876 108.162,-33.9776 128,-29 230.174,-3.36311 353.728,-3.32016 425.731,-6.23496"/>
<polygon fill="midnightblue" stroke="midnightblue" points="69.774,-49.4181 62.7571,-57.3562 73.1927,-55.5264 69.774,-49.4181"/>
</g>
<!-- Node65 -->
<g id="node6" class="node"><title>Node65</title>
<g id="a_node6"><a xlink:href="class_cool_m_q_t_t.html#a50075d0ab23a327ab897fd6adad20eda" target="_top" xlink:title="CoolMQTT::connect">
<polygon fill="white" stroke="black" points="137,-38.5 137,-57.5 242,-57.5 242,-38.5 137,-38.5"/>
<text text-anchor="middle" x="189.5" y="-45.5" font-family="Helvetica,sans-Serif" font-size="10.00">CoolMQTT::connect</text>
</a>
</g>
</g>
<!-- Node60&#45;&gt;Node65 -->
<g id="edge6" class="edge"><title>Node60&#45;&gt;Node65</title>
<path fill="none" stroke="midnightblue" d="M102.397,-59.5615C113.752,-58.0368 125.661,-56.4377 136.877,-54.9317"/>
<polygon fill="midnightblue" stroke="midnightblue" points="101.606,-56.1363 92.1605,-60.936 102.537,-63.074 101.606,-56.1363"/>
</g>
<!-- Node63 -->
<g id="node4" class="node"><title>Node63</title>
<g id="a_node4"><a xlink:href="class_cool_board.html#acba7c5aef7268b2c0044bdb54d3b9d76" target="_top" xlink:title="CoolBoard::begin">
<polygon fill="white" stroke="black" points="441,-38.5 441,-57.5 533,-57.5 533,-38.5 441,-38.5"/>
<text text-anchor="middle" x="487" y="-45.5" font-family="Helvetica,sans-Serif" font-size="10.00">CoolBoard::begin</text>
</a>
</g>
</g>
<!-- Node62&#45;&gt;Node63 -->
<g id="edge3" class="edge"><title>Node62&#45;&gt;Node63</title>
<path fill="none" stroke="midnightblue" d="M400.472,-48C413.924,-48 427.944,-48 440.648,-48"/>
<polygon fill="midnightblue" stroke="midnightblue" points="400.327,-44.5001 390.327,-48 400.327,-51.5001 400.327,-44.5001"/>
</g>
<!-- Node62&#45;&gt;Node64 -->
<g id="edge4" class="edge"><title>Node62&#45;&gt;Node64</title>
<path fill="none" stroke="midnightblue" d="M386.195,-35.8879C406.599,-30.5956 430.181,-24.4787 449.298,-19.5201"/>
<polygon fill="midnightblue" stroke="midnightblue" points="385.269,-32.5123 376.468,-38.411 387.027,-39.288 385.269,-32.5123"/>
</g>
<!-- Node65&#45;&gt;Node62 -->
<g id="edge7" class="edge"><title>Node65&#45;&gt;Node62</title>
<path fill="none" stroke="midnightblue" d="M252.608,-48C263.952,-48 275.667,-48 286.636,-48"/>
<polygon fill="midnightblue" stroke="midnightblue" points="252.327,-44.5001 242.327,-48 252.327,-51.5001 252.327,-44.5001"/>
</g>
</g>
</svg>
        <g id="navigator" transform="translate(0 0)" fill="#404254">
                <rect fill="#f2f5e9" fill-opacity="0.5" stroke="#606060" stroke-width=".5" x="0" y="0" width="60" height="60"/>
                <use id="zoomplus" xlink:href="#zoomPlus" x="17" y="9" onmousedown="handleZoom(evt,'in')"/>
                <use id="zoomminus" xlink:href="#zoomMin" x="42" y="9" onmousedown="handleZoom(evt,'out')"/>
                <use id="reset" xlink:href="#resetDef" x="30" y="36" onmousedown="handleReset()"/>
                <g id="arrowUp" xlink:href="#dirArrow" transform="translate(30 24)" onmousedown="handlePan(0,-1)">
                  <use xlink:href="#rim" fill="#404040">
                        <set attributeName="fill" to="#808080" begin="arrowUp.mouseover" end="arrowUp.mouseout"/>
                  </use>
                  <path fill="none" stroke="white" stroke-width="1.5" d="M0,-3.0v7 M-2.5,-0.5L0,-3.0L2.5,-0.5"/>
                </g>
                <g id="arrowRight" xlink:href="#dirArrow" transform="rotate(90) translate(36 -43)" onmousedown="handlePan(1,0)">
                  <use xlink:href="#rim" fill="#404040">
                        <set attributeName="fill" to="#808080" begin="arrowRight.mouseover" end="arrowRight.mouseout"/>
                  </use>
                  <path fill="none" stroke="white" stroke-width="1.5" d="M0,-3.0v7 M-2.5,-0.5L0,-3.0L2.5,-0.5"/>
                </g>
                <g id="arrowDown" xlink:href="#dirArrow" transform="rotate(180) translate(-30 -48)" onmousedown="handlePan(0,1)">
                  <use xlink:href="#rim" fill="#404040">
                        <set attributeName="fill" to="#808080" begin="arrowDown.mouseover" end="arrowDown.mouseout"/>
                  </use>
                  <path fill="none" stroke="white" stroke-width="1.5" d="M0,-3.0v7 M-2.5,-0.5L0,-3.0L2.5,-0.5"/>
                </g>
                <g id="arrowLeft" xlink:href="#dirArrow" transform="rotate(270) translate(-36 17)" onmousedown="handlePan(-1,0)">
                  <use xlink:href="#rim" fill="#404040">
                        <set attributeName="fill" to="#808080" begin="arrowLeft.mouseover" end="arrowLeft.mouseout"/>
                  </use>
                  <path fill="none" stroke="white" stroke-width="1.5" d="M0,-3.0v7 M-2.5,-0.5L0,-3.0L2.5,-0.5"/>
                </g>
        </g>
        <svg viewBox="0 0 15 15" width="100%" height="30px" preserveAspectRatio="xMaxYMin meet">
         <g id="arrow_out" transform="scale(0.3 0.3)">
          <a xlink:href="class_cool_m_q_t_t_a5d003307eff78efbd585e42b43b72b6d_icgraph_org.svg" target="_base">
           <rect id="button" ry="5" rx="5" y="6" x="6" height="38" width="38"
                fill="#f2f5e9" fill-opacity="0.5" stroke="#606060" stroke-width="1.0"/>
           <path id="arrow"
             d="M 11.500037,31.436501 C 11.940474,20.09759 22.043105,11.32322 32.158766,21.979434 L 37.068811,17.246167 C 37.068811,17.246167 37.088388,32 37.088388,32 L 22.160133,31.978069 C 22.160133,31.978069 26.997745,27.140456 26.997745,27.140456 C 18.528582,18.264221 13.291696,25.230495 11.500037,31.436501 z"
             style="fill:#404040;"/>
          </a>
         </g>
        </svg>
</svg>
