<?xml version="1.0" encoding="UTF-8" standalone="no"?>
<!DOCTYPE svg PUBLIC "-//W3C//DTD SVG 1.1//EN"
 "http://www.w3.org/Graphics/SVG/1.1/DTD/svg11.dtd">
<!-- Generated by graphviz version 2.38.0 (20140413.2041)
 -->
<!-- Title: CoolPubSubClient::publish Pages: 1 -->
<!--zoomable 118 -->
<svg id="main" version="1.1" xmlns="http://www.w3.org/2000/svg" xmlns:xlink="http://www.w3.org/1999/xlink" xml:space="preserve" onload="init(evt)">
<style type="text/css"><![CDATA[
.edge:hover path { stroke: red; }
.edge:hover polygon { stroke: red; fill: red; }
]]></style>
<script type="text/javascript"><![CDATA[
var edges = document.getElementsByTagName('g');
if (edges && edges.length) {
  for (var i=0;i<edges.length;i++) {
    if (edges[i].id.substr(0,4)=='edge') {
      edges[i].setAttribute('class','edge');
    }
  }
}
]]></script>
        <defs>
                <circle id="rim" cx="0" cy="0" r="7"/>
                <circle id="rim2" cx="0" cy="0" r="3.5"/>
                <g id="zoomPlus">
                        <use xlink:href="#rim" fill="#404040">
                                <set attributeName="fill" to="#808080" begin="zoomplus.mouseover" end="zoomplus.mouseout"/>
                        </use>
                        <path d="M-4,0h8M0,-4v8" fill="none" stroke="white" stroke-width="1.5" pointer-events="none"/>
                </g>
                <g id="zoomMin">
                        <use xlink:href="#rim" fill="#404040">
                                <set attributeName="fill" to="#808080" begin="zoomminus.mouseover" end="zoomminus.mouseout"/>
                        </use>
                        <path d="M-4,0h8" fill="none" stroke="white" stroke-width="1.5" pointer-events="none"/>
                </g>
                <g id="dirArrow">
                        <path fill="none" stroke="white" stroke-width="1.5" d="M0,-3.0v7 M-2.5,-0.5L0,-3.0L2.5,-0.5"/>
                </g>
               <g id="resetDef">
                       <use xlink:href="#rim2" fill="#404040">
                               <set attributeName="fill" to="#808080" begin="reset.mouseover" end="reset.mouseout"/>
                       </use>
               </g>
        </defs>

<script type="text/javascript">
var viewWidth = 623;
var viewHeight = 118;
var sectionId = 'dynsection-22';
</script>
<script xlink:href="svgpan.js"/>
<svg id="graph" class="graph">
<g id="viewport">
<title>CoolPubSubClient::publish</title>
<polygon fill="white" stroke="none" points="-4,4 -4,-113.777 619,-113.777 619,4 -4,4"/>
<!-- Node118 -->
<g id="node1" class="node"><title>Node118</title>
<polygon fill="#bfbfbf" stroke="black" points="0,-38.5 0,-57.5 134,-57.5 134,-38.5 0,-38.5"/>
<text text-anchor="middle" x="67" y="-45.5" font-family="Helvetica,sans-Serif" font-size="10.00">CoolPubSubClient::publish</text>
</g>
<!-- Node119 -->
<g id="node2" class="node"><title>Node119</title>
<g id="a_node2"><a xlink:href="class_cool_m_q_t_t.html#ace977b3e90ab14b1199fe5c4fb0a13ec" target="_top" xlink:title="CoolMQTT::publish">
<polygon fill="white" stroke="black" points="186.5,-57.5 186.5,-76.5 287.5,-76.5 287.5,-57.5 186.5,-57.5"/>
<text text-anchor="middle" x="237" y="-64.5" font-family="Helvetica,sans-Serif" font-size="10.00">CoolMQTT::publish</text>
</a>
</g>
</g>
<!-- Node118&#45;&gt;Node119 -->
<g id="edge1" class="edge"><title>Node118&#45;&gt;Node119</title>
<path fill="none" stroke="midnightblue" d="M144.651,-56.6689C158.833,-58.2728 173.296,-59.9085 186.407,-61.3913"/>
<polygon fill="midnightblue" stroke="midnightblue" points="144.728,-53.1553 134.398,-55.5093 143.941,-60.111 144.728,-53.1553"/>
</g>
<!-- Node124 -->
<g id="node7" class="node"><title>Node124</title>
<g id="a_node7"><a xlink:href="class_cool_pub_sub_client.html#a0b01cef98af0b57d8da4df373e196448" target="_top" xlink:title="CoolPubSubClient::publish">
<polygon fill="white" stroke="black" points="170,-19.5 170,-38.5 304,-38.5 304,-19.5 170,-19.5"/>
<text text-anchor="middle" x="237" y="-26.5" font-family="Helvetica,sans-Serif" font-size="10.00">CoolPubSubClient::publish</text>
</a>
</g>
</g>
<!-- Node118&#45;&gt;Node124 -->
<g id="edge8" class="edge"><title>Node118&#45;&gt;Node124</title>
<path fill="none" stroke="midnightblue" d="M144.595,-39.3375C153.013,-38.3854 161.532,-37.422 169.809,-36.4859"/>
<polygon fill="midnightblue" stroke="midnightblue" points="143.941,-35.889 134.398,-40.4907 144.728,-42.8447 143.941,-35.889"/>
</g>
<!-- Node120 -->
<g id="node3" class="node"><title>Node120</title>
<g id="a_node3"><a xlink:href="class_cool_board.html#aa0bbc4bc605e35618d18e68795c61363" target="_top" xlink:title="CoolBoard::onLineMode">
<polygon fill="white" stroke="black" points="494,-76.5 494,-95.5 615,-95.5 615,-76.5 494,-76.5"/>
<text text-anchor="middle" x="554.5" y="-83.5" font-family="Helvetica,sans-Serif" font-size="10.00">CoolBoard::onLineMode</text>
</a>
</g>
</g>
<!-- Node119&#45;&gt;Node120 -->
<g id="edge2" class="edge"><title>Node119&#45;&gt;Node120</title>
<path fill="none" stroke="midnightblue" d="M266.521,-80.7606C286.556,-89.6379 314.268,-100.363 340,-105 400.61,-115.923 472.084,-104.782 515.043,-95.54"/>
<polygon fill="midnightblue" stroke="midnightblue" points="267.896,-77.541 257.344,-76.5857 264.997,-83.9126 267.896,-77.541"/>
</g>
<!-- Node121 -->
<g id="node4" class="node"><title>Node121</title>
<g id="a_node4"><a xlink:href="class_cool_board.html#a8612756d3f73198cdde857a66f0fe690" target="_top" xlink:title="CoolBoard::update">
<polygon fill="white" stroke="black" points="350,-76.5 350,-95.5 448,-95.5 448,-76.5 350,-76.5"/>
<text text-anchor="middle" x="399" y="-83.5" font-family="Helvetica,sans-Serif" font-size="10.00">CoolBoard::update</text>
</a>
</g>
</g>
<!-- Node119&#45;&gt;Node121 -->
<g id="edge3" class="edge"><title>Node119&#45;&gt;Node121</title>
<path fill="none" stroke="midnightblue" d="M297.709,-74.0904C314.935,-76.136 333.504,-78.3411 349.927,-80.2913"/>
<polygon fill="midnightblue" stroke="midnightblue" points="298.091,-70.6113 287.748,-72.9076 297.265,-77.5625 298.091,-70.6113"/>
</g>
<!-- Node122 -->
<g id="node5" class="node"><title>Node122</title>
<g id="a_node5"><a xlink:href="class_cool_board.html#a705398b11560603fcdd1b9e8e95d0027" target="_top" xlink:title="CoolBoard::sendConfig">
<polygon fill="white" stroke="black" points="340,-38.5 340,-57.5 458,-57.5 458,-38.5 340,-38.5"/>
<text text-anchor="middle" x="399" y="-45.5" font-family="Helvetica,sans-Serif" font-size="10.00">CoolBoard::sendConfig</text>
</a>
</g>
</g>
<!-- Node119&#45;&gt;Node122 -->
<g id="edge5" class="edge"><title>Node119&#45;&gt;Node122</title>
<path fill="none" stroke="midnightblue" d="M298.031,-59.8713C311.728,-58.2448 326.26,-56.5191 339.876,-54.9023"/>
<polygon fill="midnightblue" stroke="midnightblue" points="297.265,-56.4376 287.748,-61.0924 298.091,-63.3887 297.265,-56.4376"/>
</g>
<!-- Node123 -->
<g id="node6" class="node"><title>Node123</title>
<g id="a_node6"><a xlink:href="class_cool_m_q_t_t.html#a613c5e3927ae85bb94fbf648d84d8780" target="_top" xlink:title="CoolMQTT::publish">
<polygon fill="white" stroke="black" points="348.5,-0.5 348.5,-19.5 449.5,-19.5 449.5,-0.5 348.5,-0.5"/>
<text text-anchor="middle" x="399" y="-7.5" font-family="Helvetica,sans-Serif" font-size="10.00">CoolMQTT::publish</text>
</a>
</g>
</g>
<!-- Node119&#45;&gt;Node123 -->
<g id="edge7" class="edge"><title>Node119&#45;&gt;Node123</title>
<path fill="none" stroke="midnightblue" d="M285.804,-54.5038C291.993,-52.518 298.194,-50.3391 304,-48 320.781,-41.2397 323.344,-36.0635 340,-29 348.097,-25.5663 357.04,-22.3619 365.43,-19.5991"/>
<polygon fill="midnightblue" stroke="midnightblue" points="284.683,-51.1865 276.146,-57.461 286.733,-57.8797 284.683,-51.1865"/>
</g>
<!-- Node121&#45;&gt;Node120 -->
<g id="edge4" class="edge"><title>Node121&#45;&gt;Node120</title>
<path fill="none" stroke="midnightblue" d="M458.223,-86C469.901,-86 482.187,-86 493.91,-86"/>
<polygon fill="midnightblue" stroke="midnightblue" points="458.147,-82.5001 448.147,-86 458.147,-89.5001 458.147,-82.5001"/>
</g>
<!-- Node122&#45;&gt;Node120 -->
<g id="edge6" class="edge"><title>Node122&#45;&gt;Node120</title>
<path fill="none" stroke="midnightblue" d="M448.635,-60.04C470.08,-65.3488 494.923,-71.4988 515.044,-76.4799"/>
<polygon fill="midnightblue" stroke="midnightblue" points="449.283,-56.5947 438.735,-57.589 447.6,-63.3896 449.283,-56.5947"/>
</g>
</g>
</svg>
        <g id="navigator" transform="translate(0 0)" fill="#404254">
                <rect fill="#f2f5e9" fill-opacity="0.5" stroke="#606060" stroke-width=".5" x="0" y="0" width="60" height="60"/>
                <use id="zoomplus" xlink:href="#zoomPlus" x="17" y="9" onmousedown="handleZoom(evt,'in')"/>
                <use id="zoomminus" xlink:href="#zoomMin" x="42" y="9" onmousedown="handleZoom(evt,'out')"/>
                <use id="reset" xlink:href="#resetDef" x="30" y="36" onmousedown="handleReset()"/>
                <g id="arrowUp" xlink:href="#dirArrow" transform="translate(30 24)" onmousedown="handlePan(0,-1)">
                  <use xlink:href="#rim" fill="#404040">
                        <set attributeName="fill" to="#808080" begin="arrowUp.mouseover" end="arrowUp.mouseout"/>
                  </use>
                  <path fill="none" stroke="white" stroke-width="1.5" d="M0,-3.0v7 M-2.5,-0.5L0,-3.0L2.5,-0.5"/>
                </g>
                <g id="arrowRight" xlink:href="#dirArrow" transform="rotate(90) translate(36 -43)" onmousedown="handlePan(1,0)">
                  <use xlink:href="#rim" fill="#404040">
                        <set attributeName="fill" to="#808080" begin="arrowRight.mouseover" end="arrowRight.mouseout"/>
                  </use>
                  <path fill="none" stroke="white" stroke-width="1.5" d="M0,-3.0v7 M-2.5,-0.5L0,-3.0L2.5,-0.5"/>
                </g>
                <g id="arrowDown" xlink:href="#dirArrow" transform="rotate(180) translate(-30 -48)" onmousedown="handlePan(0,1)">
                  <use xlink:href="#rim" fill="#404040">
                        <set attributeName="fill" to="#808080" begin="arrowDown.mouseover" end="arrowDown.mouseout"/>
                  </use>
                  <path fill="none" stroke="white" stroke-width="1.5" d="M0,-3.0v7 M-2.5,-0.5L0,-3.0L2.5,-0.5"/>
                </g>
                <g id="arrowLeft" xlink:href="#dirArrow" transform="rotate(270) translate(-36 17)" onmousedown="handlePan(-1,0)">
                  <use xlink:href="#rim" fill="#404040">
                        <set attributeName="fill" to="#808080" begin="arrowLeft.mouseover" end="arrowLeft.mouseout"/>
                  </use>
                  <path fill="none" stroke="white" stroke-width="1.5" d="M0,-3.0v7 M-2.5,-0.5L0,-3.0L2.5,-0.5"/>
                </g>
        </g>
        <svg viewBox="0 0 15 15" width="100%" height="30px" preserveAspectRatio="xMaxYMin meet">
         <g id="arrow_out" transform="scale(0.3 0.3)">
          <a xlink:href="class_cool_pub_sub_client_ab6ad5fa2d3db8f91454027257f225a89_icgraph_org.svg" target="_base">
           <rect id="button" ry="5" rx="5" y="6" x="6" height="38" width="38"
                fill="#f2f5e9" fill-opacity="0.5" stroke="#606060" stroke-width="1.0"/>
           <path id="arrow"
             d="M 11.500037,31.436501 C 11.940474,20.09759 22.043105,11.32322 32.158766,21.979434 L 37.068811,17.246167 C 37.068811,17.246167 37.088388,32 37.088388,32 L 22.160133,31.978069 C 22.160133,31.978069 26.997745,27.140456 26.997745,27.140456 C 18.528582,18.264221 13.291696,25.230495 11.500037,31.436501 z"
             style="fill:#404040;"/>
          </a>
         </g>
        </svg>
</svg>
