<?xml version="1.0" encoding="UTF-8" standalone="no"?>
<!DOCTYPE svg PUBLIC "-//W3C//DTD SVG 1.1//EN"
 "http://www.w3.org/Graphics/SVG/1.1/DTD/svg11.dtd">
<!-- Generated by graphviz version 2.38.0 (20140413.2041)
 -->
<!-- Title: CoolPubSubClient::CoolPubSubClient Pages: 1 -->
<svg width="332pt" height="104pt"
 viewBox="0.00 0.00 332.00 104.00" xmlns="http://www.w3.org/2000/svg" xmlns:xlink="http://www.w3.org/1999/xlink">
<g id="graph0" class="graph" transform="scale(1 1) rotate(0) translate(4 100)">
<title>CoolPubSubClient::CoolPubSubClient</title>
<polygon fill="white" stroke="none" points="-4,4 -4,-100 328,-100 328,4 -4,4"/>
<!-- Node50 -->
<g id="node1" class="node"><title>Node50</title>
<polygon fill="#bfbfbf" stroke="black" points="0,-33 0,-63 140,-63 140,-33 0,-33"/>
<text text-anchor="start" x="8" y="-51" font-family="Helvetica,sans-Serif" font-size="10.00">CoolPubSubClient::CoolPub</text>
<text text-anchor="middle" x="70" y="-40" font-family="Helvetica,sans-Serif" font-size="10.00">SubClient</text>
</g>
<!-- Node51 -->
<g id="node2" class="node"><title>Node51</title>
<g id="a_node2"><a xlink:href="class_cool_pub_sub_client.html#a947e70c394c66c7d08d0c53caf8425e3" target="_top" xlink:title="CoolPubSubClient::setServer">
<polygon fill="white" stroke="black" points="177.5,-76.5 177.5,-95.5 322.5,-95.5 322.5,-76.5 177.5,-76.5"/>
<text text-anchor="middle" x="250" y="-83.5" font-family="Helvetica,sans-Serif" font-size="10.00">CoolPubSubClient::setServer</text>
</a>
</g>
</g>
<!-- Node50&#45;&gt;Node51 -->
<g id="edge1" class="edge"><title>Node50&#45;&gt;Node51</title>
<path fill="none" stroke="midnightblue" d="M140.074,-62.7462C158.128,-66.6003 177.335,-70.7007 194.512,-74.3677"/>
<polygon fill="midnightblue" stroke="midnightblue" points="193.857,-77.8066 204.367,-76.4716 195.318,-70.9609 193.857,-77.8066"/>
</g>
<!-- Node52 -->
<g id="node3" class="node"><title>Node52</title>
<g id="a_node3"><a xlink:href="class_cool_pub_sub_client.html#a7ee119b786010561ab6a9afa0798e91d" target="_top" xlink:title="CoolPubSubClient::setClient">
<polygon fill="white" stroke="black" points="179,-38.5 179,-57.5 321,-57.5 321,-38.5 179,-38.5"/>
<text text-anchor="middle" x="250" y="-45.5" font-family="Helvetica,sans-Serif" font-size="10.00">CoolPubSubClient::setClient</text>
</a>
</g>
</g>
<!-- Node50&#45;&gt;Node52 -->
<g id="edge2" class="edge"><title>Node50&#45;&gt;Node52</title>
<path fill="none" stroke="midnightblue" d="M140.074,-48C149.404,-48 159.041,-48 168.547,-48"/>
<polygon fill="midnightblue" stroke="midnightblue" points="168.79,-51.5001 178.79,-48 168.79,-44.5001 168.79,-51.5001"/>
</g>
<!-- Node53 -->
<g id="node4" class="node"><title>Node53</title>
<g id="a_node4"><a xlink:href="class_cool_pub_sub_client.html#ae97e40823ea689ff9e36d5bdd71bb933" target="_top" xlink:title="CoolPubSubClient::setStream">
<polygon fill="white" stroke="black" points="176,-0.5 176,-19.5 324,-19.5 324,-0.5 176,-0.5"/>
<text text-anchor="middle" x="250" y="-7.5" font-family="Helvetica,sans-Serif" font-size="10.00">CoolPubSubClient::setStream</text>
</a>
</g>
</g>
<!-- Node50&#45;&gt;Node53 -->
<g id="edge3" class="edge"><title>Node50&#45;&gt;Node53</title>
<path fill="none" stroke="midnightblue" d="M140.074,-33.2538C158.128,-29.3997 177.335,-25.2993 194.512,-21.6323"/>
<polygon fill="midnightblue" stroke="midnightblue" points="195.318,-25.0391 204.367,-19.5284 193.857,-18.1934 195.318,-25.0391"/>
</g>
</g>
</svg>
