<?xml version="1.0" encoding="UTF-8" standalone="no"?>
<!DOCTYPE svg PUBLIC "-//W3C//DTD SVG 1.1//EN"
 "http://www.w3.org/Graphics/SVG/1.1/DTD/svg11.dtd">
<!-- Generated by graphviz version 2.38.0 (20140413.2041)
 -->
<!-- Title: Adafruit_ADS1015::setGain Pages: 1 -->
<!--zoomable 218 -->
<svg id="main" version="1.1" xmlns="http://www.w3.org/2000/svg" xmlns:xlink="http://www.w3.org/1999/xlink" xml:space="preserve" onload="init(evt)">
<style type="text/css"><![CDATA[
.edge:hover path { stroke: red; }
.edge:hover polygon { stroke: red; fill: red; }
]]></style>
<script type="text/javascript"><![CDATA[
var edges = document.getElementsByTagName('g');
if (edges && edges.length) {
  for (var i=0;i<edges.length;i++) {
    if (edges[i].id.substr(0,4)=='edge') {
      edges[i].setAttribute('class','edge');
    }
  }
}
]]></script>
        <defs>
                <circle id="rim" cx="0" cy="0" r="7"/>
                <circle id="rim2" cx="0" cy="0" r="3.5"/>
                <g id="zoomPlus">
                        <use xlink:href="#rim" fill="#404040">
                                <set attributeName="fill" to="#808080" begin="zoomplus.mouseover" end="zoomplus.mouseout"/>
                        </use>
                        <path d="M-4,0h8M0,-4v8" fill="none" stroke="white" stroke-width="1.5" pointer-events="none"/>
                </g>
                <g id="zoomMin">
                        <use xlink:href="#rim" fill="#404040">
                                <set attributeName="fill" to="#808080" begin="zoomminus.mouseover" end="zoomminus.mouseout"/>
                        </use>
                        <path d="M-4,0h8" fill="none" stroke="white" stroke-width="1.5" pointer-events="none"/>
                </g>
                <g id="dirArrow">
                        <path fill="none" stroke="white" stroke-width="1.5" d="M0,-3.0v7 M-2.5,-0.5L0,-3.0L2.5,-0.5"/>
                </g>
               <g id="resetDef">
                       <use xlink:href="#rim2" fill="#404040">
                               <set attributeName="fill" to="#808080" begin="reset.mouseover" end="reset.mouseout"/>
                       </use>
               </g>
        </defs>

<script type="text/javascript">
var viewWidth = 913;
var viewHeight = 218;
var sectionId = 'dynsection-8';
</script>
<script xlink:href="svgpan.js"/>
<svg id="graph" class="graph">
<g id="viewport">
<title>Adafruit_ADS1015::setGain</title>
<polygon fill="white" stroke="none" points="-4,4 -4,-214 909,-214 909,4 -4,4"/>
<!-- Node45 -->
<g id="node1" class="node"><title>Node45</title>
<polygon fill="#bfbfbf" stroke="black" points="0,-95.5 0,-114.5 137,-114.5 137,-95.5 0,-95.5"/>
<text text-anchor="middle" x="68.5" y="-102.5" font-family="Helvetica,sans-Serif" font-size="10.00">Adafruit_ADS1015::setGain</text>
</g>
<!-- Node46 -->
<g id="node2" class="node"><title>Node46</title>
<g id="a_node2"><a xlink:href="class_irene3000.html#aff7c5da186b388e7272e63ff88a20c34" target="_top" xlink:title="Irene3000::setGain">
<polygon fill="white" stroke="black" points="173,-95.5 173,-114.5 272,-114.5 272,-95.5 173,-95.5"/>
<text text-anchor="middle" x="222.5" y="-102.5" font-family="Helvetica,sans-Serif" font-size="10.00">Irene3000::setGain</text>
</a>
</g>
</g>
<!-- Node45&#45;&gt;Node46 -->
<g id="edge1" class="edge"><title>Node45&#45;&gt;Node46</title>
<path fill="none" stroke="midnightblue" d="M147.264,-105C155.972,-105 164.649,-105 172.838,-105"/>
<polygon fill="midnightblue" stroke="midnightblue" points="147.055,-101.5 137.055,-105 147.055,-108.5 147.055,-101.5"/>
</g>
<!-- Node47 -->
<g id="node3" class="node"><title>Node47</title>
<g id="a_node3"><a xlink:href="class_irene3000.html#a78a87eb7cf295b95c12b2ebd51c2bb77" target="_top" xlink:title="Irene3000::readButton">
<polygon fill="white" stroke="black" points="324.5,-190.5 324.5,-209.5 437.5,-209.5 437.5,-190.5 324.5,-190.5"/>
<text text-anchor="middle" x="381" y="-197.5" font-family="Helvetica,sans-Serif" font-size="10.00">Irene3000::readButton</text>
</a>
</g>
</g>
<!-- Node46&#45;&gt;Node47 -->
<g id="edge2" class="edge"><title>Node46&#45;&gt;Node47</title>
<path fill="none" stroke="midnightblue" d="M238.063,-122.212C253.651,-139.552 279.952,-165.85 308,-181 315.166,-184.871 323.165,-187.987 331.154,-190.486"/>
<polygon fill="midnightblue" stroke="midnightblue" points="240.534,-119.721 231.31,-114.507 235.269,-124.334 240.534,-119.721"/>
</g>
<!-- Node50 -->
<g id="node6" class="node"><title>Node50</title>
<g id="a_node6"><a xlink:href="class_irene3000.html#ae73bd2ed14a199a7e83f4d6458476a7c" target="_top" xlink:title="Irene3000::readADSChannel2">
<polygon fill="white" stroke="black" points="308,-76.5 308,-95.5 454,-95.5 454,-76.5 308,-76.5"/>
<text text-anchor="middle" x="381" y="-83.5" font-family="Helvetica,sans-Serif" font-size="10.00">Irene3000::readADSChannel2</text>
</a>
</g>
</g>
<!-- Node46&#45;&gt;Node50 -->
<g id="edge5" class="edge"><title>Node46&#45;&gt;Node50</title>
<path fill="none" stroke="midnightblue" d="M282.178,-97.8761C290.544,-96.8605 299.229,-95.806 307.816,-94.7635"/>
<polygon fill="midnightblue" stroke="midnightblue" points="281.665,-94.4126 272.16,-99.0924 282.509,-101.362 281.665,-94.4126"/>
</g>
<!-- Node55 -->
<g id="node11" class="node"><title>Node55</title>
<g id="a_node11"><a xlink:href="class_irene3000.html#a436fc0a06681cd0784aba56b9707f19a" target="_top" xlink:title="Irene3000::readPh">
<polygon fill="white" stroke="black" points="333,-38.5 333,-57.5 429,-57.5 429,-38.5 333,-38.5"/>
<text text-anchor="middle" x="381" y="-45.5" font-family="Helvetica,sans-Serif" font-size="10.00">Irene3000::readPh</text>
</a>
</g>
</g>
<!-- Node46&#45;&gt;Node55 -->
<g id="edge10" class="edge"><title>Node46&#45;&gt;Node55</title>
<path fill="none" stroke="midnightblue" d="M251.69,-90.9171C267.894,-83.18 288.788,-73.8026 308,-67 317.871,-63.5048 328.704,-60.3193 338.901,-57.5974"/>
<polygon fill="midnightblue" stroke="midnightblue" points="249.736,-87.9745 242.263,-95.4849 252.788,-94.2739 249.736,-87.9745"/>
</g>
<!-- Node56 -->
<g id="node12" class="node"><title>Node56</title>
<g id="a_node12"><a xlink:href="class_irene3000.html#a80bc6dfea106dc3bc54fa20204d4d5dc" target="_top" xlink:title="Irene3000::readTemp">
<polygon fill="white" stroke="black" points="326.5,-0.5 326.5,-19.5 435.5,-19.5 435.5,-0.5 326.5,-0.5"/>
<text text-anchor="middle" x="381" y="-7.5" font-family="Helvetica,sans-Serif" font-size="10.00">Irene3000::readTemp</text>
</a>
</g>
</g>
<!-- Node46&#45;&gt;Node56 -->
<g id="edge12" class="edge"><title>Node46&#45;&gt;Node56</title>
<path fill="none" stroke="midnightblue" d="M238.063,-87.7883C253.651,-70.4476 279.952,-44.1498 308,-29 315.166,-25.1293 323.165,-22.013 331.154,-19.5143"/>
<polygon fill="midnightblue" stroke="midnightblue" points="235.269,-85.6658 231.31,-95.4933 240.534,-90.2794 235.269,-85.6658"/>
</g>
<!-- Node57 -->
<g id="node13" class="node"><title>Node57</title>
<g id="a_node13"><a xlink:href="class_irene3000.html#a1d3299202e4cb7afcff9c9e3e95d94c1" target="_top" xlink:title="Irene3000::calibratepH7">
<polygon fill="white" stroke="black" points="321,-152.5 321,-171.5 441,-171.5 441,-152.5 321,-152.5"/>
<text text-anchor="middle" x="381" y="-159.5" font-family="Helvetica,sans-Serif" font-size="10.00">Irene3000::calibratepH7</text>
</a>
</g>
</g>
<!-- Node46&#45;&gt;Node57 -->
<g id="edge14" class="edge"><title>Node46&#45;&gt;Node57</title>
<path fill="none" stroke="midnightblue" d="M251.69,-119.083C267.894,-126.82 288.788,-136.197 308,-143 317.871,-146.495 328.704,-149.681 338.901,-152.403"/>
<polygon fill="midnightblue" stroke="midnightblue" points="252.788,-115.726 242.263,-114.515 249.736,-122.025 252.788,-115.726"/>
</g>
<!-- Node59 -->
<g id="node15" class="node"><title>Node59</title>
<g id="a_node15"><a xlink:href="class_irene3000.html#aa140dd026922a04981edfd04d46cabbe" target="_top" xlink:title="Irene3000::calibratepH4">
<polygon fill="white" stroke="black" points="321,-114.5 321,-133.5 441,-133.5 441,-114.5 321,-114.5"/>
<text text-anchor="middle" x="381" y="-121.5" font-family="Helvetica,sans-Serif" font-size="10.00">Irene3000::calibratepH4</text>
</a>
</g>
</g>
<!-- Node46&#45;&gt;Node59 -->
<g id="edge18" class="edge"><title>Node46&#45;&gt;Node59</title>
<path fill="none" stroke="midnightblue" d="M282.139,-112.119C294.812,-113.658 308.22,-115.285 320.911,-116.826"/>
<polygon fill="midnightblue" stroke="midnightblue" points="282.509,-108.638 272.16,-110.908 281.665,-115.587 282.509,-108.638"/>
</g>
<!-- Node48 -->
<g id="node4" class="node"><title>Node48</title>
<g id="a_node4"><a xlink:href="class_irene3000.html#ad5891806c500ae1007afe52b9e304c2b" target="_top" xlink:title="Irene3000::begin">
<polygon fill="white" stroke="black" points="494.5,-152.5 494.5,-171.5 583.5,-171.5 583.5,-152.5 494.5,-152.5"/>
<text text-anchor="middle" x="539" y="-159.5" font-family="Helvetica,sans-Serif" font-size="10.00">Irene3000::begin</text>
</a>
</g>
</g>
<!-- Node47&#45;&gt;Node48 -->
<g id="edge3" class="edge"><title>Node47&#45;&gt;Node48</title>
<path fill="none" stroke="midnightblue" d="M431.132,-188.032C452.993,-182.707 478.376,-176.524 498.918,-171.52"/>
<polygon fill="midnightblue" stroke="midnightblue" points="430.253,-184.644 421.365,-190.411 431.91,-191.445 430.253,-184.644"/>
</g>
<!-- Node49 -->
<g id="node5" class="node"><title>Node49</title>
<g id="a_node5"><a xlink:href="class_cool_board.html#acba7c5aef7268b2c0044bdb54d3b9d76" target="_top" xlink:title="CoolBoard::begin">
<polygon fill="white" stroke="black" points="639.5,-152.5 639.5,-171.5 731.5,-171.5 731.5,-152.5 639.5,-152.5"/>
<text text-anchor="middle" x="685.5" y="-159.5" font-family="Helvetica,sans-Serif" font-size="10.00">CoolBoard::begin</text>
</a>
</g>
</g>
<!-- Node48&#45;&gt;Node49 -->
<g id="edge4" class="edge"><title>Node48&#45;&gt;Node49</title>
<path fill="none" stroke="midnightblue" d="M593.902,-162C608.88,-162 624.985,-162 639.401,-162"/>
<polygon fill="midnightblue" stroke="midnightblue" points="593.747,-158.5 583.747,-162 593.747,-165.5 593.747,-158.5"/>
</g>
<!-- Node51 -->
<g id="node7" class="node"><title>Node51</title>
<g id="a_node7"><a xlink:href="class_irene3000.html#a852a170feea994ea1df01c6b245b5d9a" target="_top" xlink:title="Irene3000::read">
<polygon fill="white" stroke="black" points="497,-43.5 497,-62.5 581,-62.5 581,-43.5 497,-43.5"/>
<text text-anchor="middle" x="539" y="-50.5" font-family="Helvetica,sans-Serif" font-size="10.00">Irene3000::read</text>
</a>
</g>
</g>
<!-- Node50&#45;&gt;Node51 -->
<g id="edge6" class="edge"><title>Node50&#45;&gt;Node51</title>
<path fill="none" stroke="midnightblue" d="M436.922,-74.3819C456.679,-70.2025 478.607,-65.5638 496.976,-61.6781"/>
<polygon fill="midnightblue" stroke="midnightblue" points="436.181,-70.9611 427.122,-76.455 437.63,-77.8096 436.181,-70.9611"/>
</g>
<!-- Node52 -->
<g id="node8" class="node"><title>Node52</title>
<g id="a_node8"><a xlink:href="class_cool_board.html#ad03abdce2e65f520bbf2cff0f2d083cf" target="_top" xlink:title="CoolBoard::readSensors">
<polygon fill="white" stroke="black" points="624,-52.5 624,-71.5 747,-71.5 747,-52.5 624,-52.5"/>
<text text-anchor="middle" x="685.5" y="-59.5" font-family="Helvetica,sans-Serif" font-size="10.00">CoolBoard::readSensors</text>
</a>
</g>
</g>
<!-- Node51&#45;&gt;Node52 -->
<g id="edge7" class="edge"><title>Node51&#45;&gt;Node52</title>
<path fill="none" stroke="midnightblue" d="M591.327,-56.1968C601.887,-56.8546 613.1,-57.553 623.952,-58.2288"/>
<polygon fill="midnightblue" stroke="midnightblue" points="591.22,-52.6835 581.021,-55.555 590.784,-59.6699 591.22,-52.6835"/>
</g>
<!-- Node53 -->
<g id="node9" class="node"><title>Node53</title>
<g id="a_node9"><a xlink:href="class_cool_board.html#aa0bbc4bc605e35618d18e68795c61363" target="_top" xlink:title="CoolBoard::onLineMode">
<polygon fill="white" stroke="black" points="783.5,-99.5 783.5,-118.5 904.5,-118.5 904.5,-99.5 783.5,-99.5"/>
<text text-anchor="middle" x="844" y="-106.5" font-family="Helvetica,sans-Serif" font-size="10.00">CoolBoard::onLineMode</text>
</a>
</g>
</g>
<!-- Node52&#45;&gt;Node53 -->
<g id="edge8" class="edge"><title>Node52&#45;&gt;Node53</title>
<path fill="none" stroke="midnightblue" d="M727.783,-74.3982C753.863,-82.2304 787.056,-92.1988 811.109,-99.4224"/>
<polygon fill="midnightblue" stroke="midnightblue" points="728.754,-71.0354 718.17,-71.5112 726.741,-77.7396 728.754,-71.0354"/>
</g>
<!-- Node54 -->
<g id="node10" class="node"><title>Node54</title>
<g id="a_node10"><a xlink:href="class_cool_board.html#ae6b5e1274d760462290192acea4adca8" target="_top" xlink:title="CoolBoard::offLineMode">
<polygon fill="white" stroke="black" points="783,-52.5 783,-71.5 905,-71.5 905,-52.5 783,-52.5"/>
<text text-anchor="middle" x="844" y="-59.5" font-family="Helvetica,sans-Serif" font-size="10.00">CoolBoard::offLineMode</text>
</a>
</g>
</g>
<!-- Node52&#45;&gt;Node54 -->
<g id="edge9" class="edge"><title>Node52&#45;&gt;Node54</title>
<path fill="none" stroke="midnightblue" d="M757.059,-62C765.692,-62 774.452,-62 782.912,-62"/>
<polygon fill="midnightblue" stroke="midnightblue" points="757.007,-58.5001 747.007,-62 757.007,-65.5001 757.007,-58.5001"/>
</g>
<!-- Node55&#45;&gt;Node51 -->
<g id="edge11" class="edge"><title>Node55&#45;&gt;Node51</title>
<path fill="none" stroke="midnightblue" d="M439.295,-49.8364C458.339,-50.4467 479.157,-51.114 496.745,-51.6777"/>
<polygon fill="midnightblue" stroke="midnightblue" points="439.336,-46.336 429.228,-49.5137 439.111,-53.3324 439.336,-46.336"/>
</g>
<!-- Node56&#45;&gt;Node51 -->
<g id="edge13" class="edge"><title>Node56&#45;&gt;Node51</title>
<path fill="none" stroke="midnightblue" d="M428.466,-22.1139C436.968,-24.3725 445.757,-26.735 454,-29 470.965,-33.6614 489.802,-39.0262 505.332,-43.4998"/>
<polygon fill="midnightblue" stroke="midnightblue" points="429.229,-18.6954 418.667,-19.5223 427.44,-25.4628 429.229,-18.6954"/>
</g>
<!-- Node57&#45;&gt;Node48 -->
<g id="edge17" class="edge"><title>Node57&#45;&gt;Node48</title>
<path fill="none" stroke="midnightblue" d="M451.838,-162C466.274,-162 481.087,-162 494.27,-162"/>
<polygon fill="midnightblue" stroke="midnightblue" points="451.422,-158.5 441.422,-162 451.422,-165.5 451.422,-158.5"/>
</g>
<!-- Node58 -->
<g id="node14" class="node"><title>Node58</title>
<g id="a_node14"><a xlink:href="class_cool_board.html#a8612756d3f73198cdde857a66f0fe690" target="_top" xlink:title="CoolBoard::update">
<polygon fill="white" stroke="black" points="490,-114.5 490,-133.5 588,-133.5 588,-114.5 490,-114.5"/>
<text text-anchor="middle" x="539" y="-121.5" font-family="Helvetica,sans-Serif" font-size="10.00">CoolBoard::update</text>
</a>
</g>
</g>
<!-- Node57&#45;&gt;Node58 -->
<g id="edge15" class="edge"><title>Node57&#45;&gt;Node58</title>
<path fill="none" stroke="midnightblue" d="M431.132,-150.032C452.993,-144.707 478.376,-138.524 498.918,-133.52"/>
<polygon fill="midnightblue" stroke="midnightblue" points="430.253,-146.644 421.365,-152.411 431.91,-153.445 430.253,-146.644"/>
</g>
<!-- Node58&#45;&gt;Node53 -->
<g id="edge16" class="edge"><title>Node58&#45;&gt;Node53</title>
<path fill="none" stroke="midnightblue" d="M598.293,-121.114C651.443,-118.483 729.625,-114.613 783.232,-111.959"/>
<polygon fill="midnightblue" stroke="midnightblue" points="597.826,-117.633 588.011,-121.623 598.172,-124.624 597.826,-117.633"/>
</g>
<!-- Node59&#45;&gt;Node48 -->
<g id="edge20" class="edge"><title>Node59&#45;&gt;Node48</title>
<path fill="none" stroke="midnightblue" d="M431.132,-135.968C452.993,-141.293 478.376,-147.476 498.918,-152.48"/>
<polygon fill="midnightblue" stroke="midnightblue" points="431.91,-132.555 421.365,-133.589 430.253,-139.356 431.91,-132.555"/>
</g>
<!-- Node59&#45;&gt;Node58 -->
<g id="edge19" class="edge"><title>Node59&#45;&gt;Node58</title>
<path fill="none" stroke="midnightblue" d="M451.677,-124C464.581,-124 477.793,-124 489.877,-124"/>
<polygon fill="midnightblue" stroke="midnightblue" points="451.422,-120.5 441.422,-124 451.422,-127.5 451.422,-120.5"/>
</g>
</g>
</svg>
        <g id="navigator" transform="translate(0 0)" fill="#404254">
                <rect fill="#f2f5e9" fill-opacity="0.5" stroke="#606060" stroke-width=".5" x="0" y="0" width="60" height="60"/>
                <use id="zoomplus" xlink:href="#zoomPlus" x="17" y="9" onmousedown="handleZoom(evt,'in')"/>
                <use id="zoomminus" xlink:href="#zoomMin" x="42" y="9" onmousedown="handleZoom(evt,'out')"/>
                <use id="reset" xlink:href="#resetDef" x="30" y="36" onmousedown="handleReset()"/>
                <g id="arrowUp" xlink:href="#dirArrow" transform="translate(30 24)" onmousedown="handlePan(0,-1)">
                  <use xlink:href="#rim" fill="#404040">
                        <set attributeName="fill" to="#808080" begin="arrowUp.mouseover" end="arrowUp.mouseout"/>
                  </use>
                  <path fill="none" stroke="white" stroke-width="1.5" d="M0,-3.0v7 M-2.5,-0.5L0,-3.0L2.5,-0.5"/>
                </g>
                <g id="arrowRight" xlink:href="#dirArrow" transform="rotate(90) translate(36 -43)" onmousedown="handlePan(1,0)">
                  <use xlink:href="#rim" fill="#404040">
                        <set attributeName="fill" to="#808080" begin="arrowRight.mouseover" end="arrowRight.mouseout"/>
                  </use>
                  <path fill="none" stroke="white" stroke-width="1.5" d="M0,-3.0v7 M-2.5,-0.5L0,-3.0L2.5,-0.5"/>
                </g>
                <g id="arrowDown" xlink:href="#dirArrow" transform="rotate(180) translate(-30 -48)" onmousedown="handlePan(0,1)">
                  <use xlink:href="#rim" fill="#404040">
                        <set attributeName="fill" to="#808080" begin="arrowDown.mouseover" end="arrowDown.mouseout"/>
                  </use>
                  <path fill="none" stroke="white" stroke-width="1.5" d="M0,-3.0v7 M-2.5,-0.5L0,-3.0L2.5,-0.5"/>
                </g>
                <g id="arrowLeft" xlink:href="#dirArrow" transform="rotate(270) translate(-36 17)" onmousedown="handlePan(-1,0)">
                  <use xlink:href="#rim" fill="#404040">
                        <set attributeName="fill" to="#808080" begin="arrowLeft.mouseover" end="arrowLeft.mouseout"/>
                  </use>
                  <path fill="none" stroke="white" stroke-width="1.5" d="M0,-3.0v7 M-2.5,-0.5L0,-3.0L2.5,-0.5"/>
                </g>
        </g>
        <svg viewBox="0 0 15 15" width="100%" height="30px" preserveAspectRatio="xMaxYMin meet">
         <g id="arrow_out" transform="scale(0.3 0.3)">
          <a xlink:href="class_adafruit___a_d_s1015_a399441eace686975ff22937cbe45cc50_icgraph_org.svg" target="_base">
           <rect id="button" ry="5" rx="5" y="6" x="6" height="38" width="38"
                fill="#f2f5e9" fill-opacity="0.5" stroke="#606060" stroke-width="1.0"/>
           <path id="arrow"
             d="M 11.500037,31.436501 C 11.940474,20.09759 22.043105,11.32322 32.158766,21.979434 L 37.068811,17.246167 C 37.068811,17.246167 37.088388,32 37.088388,32 L 22.160133,31.978069 C 22.160133,31.978069 26.997745,27.140456 26.997745,27.140456 C 18.528582,18.264221 13.291696,25.230495 11.500037,31.436501 z"
             style="fill:#404040;"/>
          </a>
         </g>
        </svg>
</svg>
