<?xml version="1.0" encoding="UTF-8" standalone="no"?>
<!DOCTYPE svg PUBLIC "-//W3C//DTD SVG 1.1//EN"
 "http://www.w3.org/Graphics/SVG/1.1/DTD/svg11.dtd">
<!-- Generated by graphviz version 2.38.0 (20140413.2041)
 -->
<!-- Title: Graphical Class Hierarchy Pages: 1 -->
<svg width="334pt" height="264pt"
 viewBox="0.00 0.00 334.00 263.50" xmlns="http://www.w3.org/2000/svg" xmlns:xlink="http://www.w3.org/1999/xlink">
<g id="graph0" class="graph" transform="scale(1 1) rotate(0) translate(4 259.5)">
<title>Graphical Class Hierarchy</title>
<polygon fill="white" stroke="none" points="-4,4 -4,-259.5 330,-259.5 330,4 -4,4"/>
<!-- Node0 -->
<g id="node1" class="node"><title>Node0</title>
<g id="a_node1"><a xlink:href="class_base_external_sensor.html" target="_top" xlink:title="This class is a generic external Sensor it is a way to access real external sensor methods through ru...">
<polygon fill="white" stroke="black" points="0,-118 0,-137 106,-137 106,-118 0,-118"/>
<text text-anchor="middle" x="53" y="-125" font-family="Helvetica,sans-Serif" font-size="10.00">BaseExternalSensor</text>
</a>
</g>
</g>
<!-- Node1 -->
<g id="node2" class="node"><title>Node1</title>
<g id="a_node2"><a xlink:href="class_external_sensor.html" target="_top" xlink:title="template&lt;class SensorClass&gt; class External Sensor: Derived class from BaseExternalSensor. ">
<polygon fill="white" stroke="black" points="180.5,-236 180.5,-255 287.5,-255 287.5,-236 180.5,-236"/>
<text text-anchor="middle" x="234" y="-243" font-family="Helvetica,sans-Serif" font-size="10.00">ExternalSensor&lt; T &gt;</text>
</a>
</g>
</g>
<!-- Node0&#45;&gt;Node1 -->
<g id="edge1" class="edge"><title>Node0&#45;&gt;Node1</title>
<path fill="none" stroke="midnightblue" d="M65.0553,-145.93C79.6923,-168.635 107.699,-206.632 142,-226.5 153.592,-233.214 167.232,-237.572 180.375,-240.395"/>
<polygon fill="midnightblue" stroke="midnightblue" points="67.8886,-143.86 59.6214,-137.233 61.9521,-147.569 67.8886,-143.86"/>
</g>
<!-- Node2 -->
<g id="node3" class="node"><title>Node2</title>
<g id="a_node3"><a xlink:href="class_external_sensor_3_01_adafruit___a_d_s1015_01_4.html" target="_top" xlink:title="Adafruit_ADS1015 Specialization Class This is the template specialization for the Adafruit Analog I2C...">
<polygon fill="white" stroke="black" points="171,-186.5 171,-216.5 297,-216.5 297,-186.5 171,-186.5"/>
<text text-anchor="start" x="179" y="-204.5" font-family="Helvetica,sans-Serif" font-size="10.00">ExternalSensor&lt; Adafruit</text>
<text text-anchor="middle" x="234" y="-193.5" font-family="Helvetica,sans-Serif" font-size="10.00">_ADS1015 &gt;</text>
</a>
</g>
</g>
<!-- Node0&#45;&gt;Node2 -->
<g id="edge2" class="edge"><title>Node0&#45;&gt;Node2</title>
<path fill="none" stroke="midnightblue" d="M76.849,-142.672C94.1422,-153.603 118.8,-168.037 142,-177.5 151.077,-181.202 160.898,-184.488 170.616,-187.348"/>
<polygon fill="midnightblue" stroke="midnightblue" points="78.3586,-139.481 68.0553,-137.013 74.5706,-145.368 78.3586,-139.481"/>
</g>
<!-- Node3 -->
<g id="node4" class="node"><title>Node3</title>
<g id="a_node4"><a xlink:href="class_external_sensor_3_01_adafruit___a_d_s1115_01_4.html" target="_top" xlink:title="Adafruit_ADS1115 Specialization Class This is the template specialization for the Adafruit Analog I2C...">
<polygon fill="white" stroke="black" points="171,-137.5 171,-167.5 297,-167.5 297,-137.5 171,-137.5"/>
<text text-anchor="start" x="179" y="-155.5" font-family="Helvetica,sans-Serif" font-size="10.00">ExternalSensor&lt; Adafruit</text>
<text text-anchor="middle" x="234" y="-144.5" font-family="Helvetica,sans-Serif" font-size="10.00">_ADS1115 &gt;</text>
</a>
</g>
</g>
<!-- Node0&#45;&gt;Node3 -->
<g id="edge3" class="edge"><title>Node0&#45;&gt;Node3</title>
<path fill="none" stroke="midnightblue" d="M116.436,-136.22C134.071,-138.683 153.253,-141.362 170.869,-143.823"/>
<polygon fill="midnightblue" stroke="midnightblue" points="116.643,-132.715 106.255,-134.798 115.675,-139.648 116.643,-132.715"/>
</g>
<!-- Node4 -->
<g id="node5" class="node"><title>Node4</title>
<g id="a_node5"><a xlink:href="class_external_sensor_3_01_adafruit___t_c_s34725_01_4.html" target="_top" xlink:title="Adafruit_TCS34725 Specialization Class This is the template specialization for the Adafruit RGB Senso...">
<polygon fill="white" stroke="black" points="171,-88.5 171,-118.5 297,-118.5 297,-88.5 171,-88.5"/>
<text text-anchor="start" x="179" y="-106.5" font-family="Helvetica,sans-Serif" font-size="10.00">ExternalSensor&lt; Adafruit</text>
<text text-anchor="middle" x="234" y="-95.5" font-family="Helvetica,sans-Serif" font-size="10.00">_TCS34725 &gt;</text>
</a>
</g>
</g>
<!-- Node0&#45;&gt;Node4 -->
<g id="edge4" class="edge"><title>Node0&#45;&gt;Node4</title>
<path fill="none" stroke="midnightblue" d="M116.436,-119.129C134.071,-116.764 153.253,-114.192 170.869,-111.83"/>
<polygon fill="midnightblue" stroke="midnightblue" points="115.702,-115.696 106.255,-120.494 116.632,-122.634 115.702,-115.696"/>
</g>
<!-- Node5 -->
<g id="node6" class="node"><title>Node5</title>
<g id="a_node6"><a xlink:href="class_external_sensor_3_01_dallas_temperature_01_4.html" target="_top" xlink:title="DallasTemperature Specialization Class This is the template specialization for the Dallas Temperature...">
<polygon fill="white" stroke="black" points="142,-50 142,-69 326,-69 326,-50 142,-50"/>
<text text-anchor="middle" x="234" y="-57" font-family="Helvetica,sans-Serif" font-size="10.00">ExternalSensor&lt; DallasTemperature &gt;</text>
</a>
</g>
</g>
<!-- Node0&#45;&gt;Node5 -->
<g id="edge5" class="edge"><title>Node0&#45;&gt;Node5</title>
<path fill="none" stroke="midnightblue" d="M77.4403,-112.326C94.6875,-101.765 119.032,-88.0888 142,-79.5 153.212,-75.3074 165.545,-71.8676 177.416,-69.0955"/>
<polygon fill="midnightblue" stroke="midnightblue" points="75.2702,-109.554 68.6425,-117.82 78.9783,-115.492 75.2702,-109.554"/>
</g>
<!-- Node6 -->
<g id="node7" class="node"><title>Node6</title>
<g id="a_node7"><a xlink:href="class_external_sensor_3_01_n_d_i_r___i2_c_01_4.html" target="_top" xlink:title="NDIR_I2C Specialization Class This is the template specialization for the NDIR_I2C CO2 sensor...">
<polygon fill="white" stroke="black" points="175,-0.5 175,-30.5 293,-30.5 293,-0.5 175,-0.5"/>
<text text-anchor="start" x="183" y="-18.5" font-family="Helvetica,sans-Serif" font-size="10.00">ExternalSensor&lt; NDIR</text>
<text text-anchor="middle" x="234" y="-7.5" font-family="Helvetica,sans-Serif" font-size="10.00">_I2C &gt;</text>
</a>
</g>
</g>
<!-- Node0&#45;&gt;Node6 -->
<g id="edge6" class="edge"><title>Node0&#45;&gt;Node6</title>
<path fill="none" stroke="midnightblue" d="M67.1782,-109.862C82.8673,-90.0971 110.888,-58.475 142,-40.5 152.072,-34.6807 163.557,-30.1663 174.897,-26.6806"/>
<polygon fill="midnightblue" stroke="midnightblue" points="64.4065,-107.725 61.0532,-117.775 69.942,-112.01 64.4065,-107.725"/>
</g>
</g>
</svg>
