<?xml version="1.0" encoding="UTF-8" standalone="no"?>
<!DOCTYPE svg PUBLIC "-//W3C//DTD SVG 1.1//EN"
 "http://www.w3.org/Graphics/SVG/1.1/DTD/svg11.dtd">
<!-- Generated by graphviz version 2.38.0 (20140413.2041)
 -->
<!-- Title: Jetpack.cpp Pages: 1 -->
<svg width="259pt" height="140pt"
 viewBox="0.00 0.00 258.50 140.00" xmlns="http://www.w3.org/2000/svg" xmlns:xlink="http://www.w3.org/1999/xlink">
<g id="graph0" class="graph" transform="scale(1 1) rotate(0) translate(4 136)">
<title>Jetpack.cpp</title>
<polygon fill="white" stroke="none" points="-4,4 -4,-136 254.5,-136 254.5,4 -4,4"/>
<!-- Node0 -->
<g id="node1" class="node"><title>Node0</title>
<polygon fill="#bfbfbf" stroke="black" points="65,-112.5 65,-131.5 135,-131.5 135,-112.5 65,-112.5"/>
<text text-anchor="middle" x="100" y="-119.5" font-family="Helvetica,sans-Serif" font-size="10.00">Jetpack.cpp</text>
</g>
<!-- Node1 -->
<g id="node2" class="node"><title>Node1</title>
<polygon fill="white" stroke="#bfbfbf" points="0,-56.5 0,-75.5 38,-75.5 38,-56.5 0,-56.5"/>
<text text-anchor="middle" x="19" y="-63.5" font-family="Helvetica,sans-Serif" font-size="10.00">FS.h</text>
</g>
<!-- Node0&#45;&gt;Node1 -->
<g id="edge1" class="edge"><title>Node0&#45;&gt;Node1</title>
<path fill="none" stroke="midnightblue" d="M86.9859,-112.324C74.4684,-103.979 55.3183,-91.2122 40.5286,-81.3524"/>
<polygon fill="midnightblue" stroke="midnightblue" points="42.2437,-78.2894 31.9818,-75.6545 38.3608,-84.1137 42.2437,-78.2894"/>
</g>
<!-- Node2 -->
<g id="node3" class="node"><title>Node2</title>
<polygon fill="white" stroke="#bfbfbf" points="114,-0.5 114,-19.5 172,-19.5 172,-0.5 114,-0.5"/>
<text text-anchor="middle" x="143" y="-7.5" font-family="Helvetica,sans-Serif" font-size="10.00">Arduino.h</text>
</g>
<!-- Node0&#45;&gt;Node2 -->
<g id="edge2" class="edge"><title>Node0&#45;&gt;Node2</title>
<path fill="none" stroke="midnightblue" d="M94.6351,-112.159C87.5412,-99.2372 76.9387,-74.6984 86,-56 92.3969,-42.7996 104.752,-32.3032 116.329,-24.7794"/>
<polygon fill="midnightblue" stroke="midnightblue" points="118.155,-27.7653 124.918,-19.6099 114.546,-21.7678 118.155,-27.7653"/>
</g>
<!-- Node3 -->
<g id="node4" class="node"><title>Node3</title>
<polygon fill="white" stroke="#bfbfbf" points="94.5,-56.5 94.5,-75.5 173.5,-75.5 173.5,-56.5 94.5,-56.5"/>
<text text-anchor="middle" x="134" y="-63.5" font-family="Helvetica,sans-Serif" font-size="10.00">ArduinoJson.h</text>
</g>
<!-- Node0&#45;&gt;Node3 -->
<g id="edge3" class="edge"><title>Node0&#45;&gt;Node3</title>
<path fill="none" stroke="midnightblue" d="M105.614,-112.083C110.367,-104.534 117.318,-93.4948 123.152,-84.2298"/>
<polygon fill="midnightblue" stroke="midnightblue" points="126.124,-86.0783 128.49,-75.7511 120.2,-82.3486 126.124,-86.0783"/>
</g>
<!-- Node4 -->
<g id="node5" class="node"><title>Node4</title>
<g id="a_node5"><a xlink:href="../../db/d6c/_jetpack_8h.html" target="_top" xlink:title="Jetpack Header file. ">
<polygon fill="white" stroke="black" points="191.5,-56.5 191.5,-75.5 250.5,-75.5 250.5,-56.5 191.5,-56.5"/>
<text text-anchor="middle" x="221" y="-63.5" font-family="Helvetica,sans-Serif" font-size="10.00">Jetpack.h</text>
</a>
</g>
</g>
<!-- Node0&#45;&gt;Node4 -->
<g id="edge4" class="edge"><title>Node0&#45;&gt;Node4</title>
<path fill="none" stroke="midnightblue" d="M119.173,-112.444C138.909,-103.636 169.885,-89.8116 192.493,-79.722"/>
<polygon fill="midnightblue" stroke="midnightblue" points="194.211,-82.788 201.917,-75.5164 191.359,-76.3957 194.211,-82.788"/>
</g>
<!-- Node4&#45;&gt;Node2 -->
<g id="edge5" class="edge"><title>Node4&#45;&gt;Node2</title>
<path fill="none" stroke="midnightblue" d="M208.468,-56.324C196.414,-47.979 177.973,-35.2122 163.731,-25.3524"/>
<polygon fill="midnightblue" stroke="midnightblue" points="165.715,-22.469 155.501,-19.6545 161.731,-28.2243 165.715,-22.469"/>
</g>
</g>
</svg>
