<?xml version="1.0" encoding="UTF-8" standalone="no"?>
<!DOCTYPE svg PUBLIC "-//W3C//DTD SVG 1.1//EN"
 "http://www.w3.org/Graphics/SVG/1.1/DTD/svg11.dtd">
<!-- Generated by graphviz version 2.38.0 (20140413.2041)
 -->
<!-- Title: Jetpack::mixedMinuteAction Pages: 1 -->
<svg width="437pt" height="66pt"
 viewBox="0.00 0.00 437.00 66.00" xmlns="http://www.w3.org/2000/svg" xmlns:xlink="http://www.w3.org/1999/xlink">
<g id="graph0" class="graph" transform="scale(1 1) rotate(0) translate(4 62)">
<title>Jetpack::mixedMinuteAction</title>
<polygon fill="white" stroke="none" points="-4,4 -4,-62 433,-62 433,4 -4,4"/>
<!-- Node75 -->
<g id="node1" class="node"><title>Node75</title>
<polygon fill="#bfbfbf" stroke="black" points="0,-19.5 0,-38.5 140,-38.5 140,-19.5 0,-19.5"/>
<text text-anchor="middle" x="70" y="-26.5" font-family="Helvetica,sans-Serif" font-size="10.00">Jetpack::mixedMinuteAction</text>
</g>
<!-- Node76 -->
<g id="node2" class="node"><title>Node76</title>
<g id="a_node2"><a xlink:href="$df/d1d/class_jetpack.html#af9acedb606340c26c2636c282b54dff1" xlink:title="Jetpack::doAction">
<polygon fill="white" stroke="black" points="176,-19.5 176,-38.5 271,-38.5 271,-19.5 176,-19.5"/>
<text text-anchor="middle" x="223.5" y="-26.5" font-family="Helvetica,sans-Serif" font-size="10.00">Jetpack::doAction</text>
</a>
</g>
</g>
<!-- Node75&#45;&gt;Node76 -->
<g id="edge1" class="edge"><title>Node75&#45;&gt;Node76</title>
<path fill="none" stroke="midnightblue" d="M150.266,-29C158.926,-29 167.524,-29 175.607,-29"/>
<polygon fill="midnightblue" stroke="midnightblue" points="150.1,-25.5001 140.1,-29 150.1,-32.5001 150.1,-25.5001"/>
</g>
<!-- Node77 -->
<g id="node3" class="node"><title>Node77</title>
<g id="a_node3"><a xlink:href="$d7/df9/class_cool_board.html#ae6b5e1274d760462290192acea4adca8" xlink:title="CoolBoard::offLineMode">
<polygon fill="white" stroke="black" points="307,-38.5 307,-57.5 429,-57.5 429,-38.5 307,-38.5"/>
<text text-anchor="middle" x="368" y="-45.5" font-family="Helvetica,sans-Serif" font-size="10.00">CoolBoard::offLineMode</text>
</a>
</g>
</g>
<!-- Node76&#45;&gt;Node77 -->
<g id="edge2" class="edge"><title>Node76&#45;&gt;Node77</title>
<path fill="none" stroke="midnightblue" d="M281.293,-36.5724C289.743,-37.6991 298.476,-38.8635 306.99,-39.9986"/>
<polygon fill="midnightblue" stroke="midnightblue" points="281.535,-33.0737 271.16,-35.2213 280.61,-40.0123 281.535,-33.0737"/>
</g>
<!-- Node78 -->
<g id="node4" class="node"><title>Node78</title>
<g id="a_node4"><a xlink:href="$d7/df9/class_cool_board.html#aa0bbc4bc605e35618d18e68795c61363" xlink:title="CoolBoard::onLineMode">
<polygon fill="white" stroke="black" points="307.5,-0.5 307.5,-19.5 428.5,-19.5 428.5,-0.5 307.5,-0.5"/>
<text text-anchor="middle" x="368" y="-7.5" font-family="Helvetica,sans-Serif" font-size="10.00">CoolBoard::onLineMode</text>
</a>
</g>
</g>
<!-- Node76&#45;&gt;Node78 -->
<g id="edge3" class="edge"><title>Node76&#45;&gt;Node78</title>
<path fill="none" stroke="midnightblue" d="M281.157,-21.4458C289.818,-20.291 298.779,-19.0961 307.499,-17.9334"/>
<polygon fill="midnightblue" stroke="midnightblue" points="280.61,-17.9877 271.16,-22.7787 281.535,-24.9263 280.61,-17.9877"/>
</g>
</g>
</svg>
