<?xml version="1.0" encoding="UTF-8" standalone="no"?>
<!DOCTYPE svg PUBLIC "-//W3C//DTD SVG 1.1//EN"
 "http://www.w3.org/Graphics/SVG/1.1/DTD/svg11.dtd">
<!-- Generated by graphviz version 2.38.0 (20140413.2041)
 -->
<!-- Title: Jetpack::doAction Pages: 1 -->
<svg width="304pt" height="496pt"
 viewBox="0.00 0.00 304.00 496.00" xmlns="http://www.w3.org/2000/svg" xmlns:xlink="http://www.w3.org/1999/xlink">
<g id="graph0" class="graph" transform="scale(1 1) rotate(0) translate(4 492)">
<title>Jetpack::doAction</title>
<polygon fill="white" stroke="none" points="-4,4 -4,-492 300,-492 300,4 -4,4"/>
<!-- Node12 -->
<g id="node1" class="node"><title>Node12</title>
<polygon fill="#bfbfbf" stroke="black" points="0,-228.5 0,-247.5 95,-247.5 95,-228.5 0,-228.5"/>
<text text-anchor="middle" x="47.5" y="-235.5" font-family="Helvetica,sans-Serif" font-size="10.00">Jetpack::doAction</text>
</g>
<!-- Node13 -->
<g id="node2" class="node"><title>Node13</title>
<g id="a_node2"><a xlink:href="$df/d1d/class_jetpack.html#acd6889af2fe5b057c6bd51b6dac827ef" xlink:title="Jetpack::hourAction">
<polygon fill="white" stroke="black" points="161.5,-468.5 161.5,-487.5 265.5,-487.5 265.5,-468.5 161.5,-468.5"/>
<text text-anchor="middle" x="213.5" y="-475.5" font-family="Helvetica,sans-Serif" font-size="10.00">Jetpack::hourAction</text>
</a>
</g>
</g>
<!-- Node12&#45;&gt;Node13 -->
<g id="edge1" class="edge"><title>Node12&#45;&gt;Node13</title>
<path fill="none" stroke="midnightblue" d="M49.014,-247.739C51.3875,-282.326 64.2613,-400.315 131,-459 136.984,-464.262 144.144,-468.141 151.702,-470.989"/>
<polygon fill="midnightblue" stroke="midnightblue" points="150.84,-474.387 161.431,-474.07 152.954,-467.714 150.84,-474.387"/>
</g>
<!-- Node14 -->
<g id="node3" class="node"><title>Node14</title>
<g id="a_node3"><a xlink:href="$df/d1d/class_jetpack.html#ae01c13c785ebdf1b0bb5500234aba1bd" xlink:title="Jetpack::hourMinuteAction">
<polygon fill="white" stroke="black" points="147,-430.5 147,-449.5 280,-449.5 280,-430.5 147,-430.5"/>
<text text-anchor="middle" x="213.5" y="-437.5" font-family="Helvetica,sans-Serif" font-size="10.00">Jetpack::hourMinuteAction</text>
</a>
</g>
</g>
<!-- Node12&#45;&gt;Node14 -->
<g id="edge2" class="edge"><title>Node12&#45;&gt;Node14</title>
<path fill="none" stroke="midnightblue" d="M49.8478,-247.764C54.6254,-278.476 73.6625,-373.855 131,-421 133.062,-422.696 135.248,-424.246 137.529,-425.662"/>
<polygon fill="midnightblue" stroke="midnightblue" points="136.26,-428.949 146.742,-430.491 139.51,-422.749 136.26,-428.949"/>
</g>
<!-- Node15 -->
<g id="node4" class="node"><title>Node15</title>
<g id="a_node4"><a xlink:href="$df/d1d/class_jetpack.html#adacfc35fab4a621357caf98ce1c9cb54" xlink:title="Jetpack::invertedAction">
<polygon fill="white" stroke="black" points="154,-392.5 154,-411.5 273,-411.5 273,-392.5 154,-392.5"/>
<text text-anchor="middle" x="213.5" y="-399.5" font-family="Helvetica,sans-Serif" font-size="10.00">Jetpack::invertedAction</text>
</a>
</g>
</g>
<!-- Node12&#45;&gt;Node15 -->
<g id="edge3" class="edge"><title>Node12&#45;&gt;Node15</title>
<path fill="none" stroke="midnightblue" d="M51.022,-247.58C58.434,-273.763 82.7251,-346.962 131,-383 135.115,-386.072 139.647,-388.658 144.403,-390.833"/>
<polygon fill="midnightblue" stroke="midnightblue" points="143.186,-394.116 153.773,-394.531 145.756,-387.604 143.186,-394.116"/>
</g>
<!-- Node16 -->
<g id="node5" class="node"><title>Node16</title>
<g id="a_node5"><a xlink:href="$df/d1d/class_jetpack.html#a97da41141c7b53ddee61143519c8d17d" xlink:title="Jetpack::minuteAction">
<polygon fill="white" stroke="black" points="156.5,-354.5 156.5,-373.5 270.5,-373.5 270.5,-354.5 156.5,-354.5"/>
<text text-anchor="middle" x="213.5" y="-361.5" font-family="Helvetica,sans-Serif" font-size="10.00">Jetpack::minuteAction</text>
</a>
</g>
</g>
<!-- Node12&#45;&gt;Node16 -->
<g id="edge4" class="edge"><title>Node12&#45;&gt;Node16</title>
<path fill="none" stroke="midnightblue" d="M53.1094,-247.796C63.6647,-269.1 91.7386,-319.751 131,-345 135.735,-348.045 140.904,-350.604 146.267,-352.753"/>
<polygon fill="midnightblue" stroke="midnightblue" points="145.484,-356.188 156.078,-356.198 147.802,-349.583 145.484,-356.188"/>
</g>
<!-- Node17 -->
<g id="node6" class="node"><title>Node17</title>
<g id="a_node6"><a xlink:href="$df/d1d/class_jetpack.html#ac1a49ab4867718cdb415ad74c2066b9d" xlink:title="Jetpack::mixedHourAction">
<polygon fill="white" stroke="black" points="147.5,-316.5 147.5,-335.5 279.5,-335.5 279.5,-316.5 147.5,-316.5"/>
<text text-anchor="middle" x="213.5" y="-323.5" font-family="Helvetica,sans-Serif" font-size="10.00">Jetpack::mixedHourAction</text>
</a>
</g>
</g>
<!-- Node12&#45;&gt;Node17 -->
<g id="edge5" class="edge"><title>Node12&#45;&gt;Node17</title>
<path fill="none" stroke="midnightblue" d="M57.1114,-247.664C71.0875,-262.727 100.257,-291.662 131,-307 135.875,-309.432 141.071,-311.56 146.389,-313.419"/>
<polygon fill="midnightblue" stroke="midnightblue" points="145.459,-316.796 156.049,-316.486 147.577,-310.124 145.459,-316.796"/>
</g>
<!-- Node18 -->
<g id="node7" class="node"><title>Node18</title>
<g id="a_node7"><a xlink:href="$df/d1d/class_jetpack.html#a273dae1517b56f0242e28b8944edc26b" xlink:title="Jetpack::mixedHourMinute\lAction">
<polygon fill="white" stroke="black" points="146.5,-267 146.5,-297 280.5,-297 280.5,-267 146.5,-267"/>
<text text-anchor="start" x="154.5" y="-285" font-family="Helvetica,sans-Serif" font-size="10.00">Jetpack::mixedHourMinute</text>
<text text-anchor="middle" x="213.5" y="-274" font-family="Helvetica,sans-Serif" font-size="10.00">Action</text>
</a>
</g>
</g>
<!-- Node12&#45;&gt;Node18 -->
<g id="edge6" class="edge"><title>Node12&#45;&gt;Node18</title>
<path fill="none" stroke="midnightblue" d="M84.0856,-247.547C102.385,-252.457 125.283,-258.6 146.656,-264.335"/>
<polygon fill="midnightblue" stroke="midnightblue" points="145.782,-267.724 156.347,-266.935 147.596,-260.963 145.782,-267.724"/>
</g>
<!-- Node19 -->
<g id="node8" class="node"><title>Node19</title>
<g id="a_node8"><a xlink:href="$df/d1d/class_jetpack.html#acf8ed1fb594b9e8e224f4ed872a8e093" xlink:title="Jetpack::mixedMinuteAction">
<polygon fill="white" stroke="black" points="143.5,-228.5 143.5,-247.5 283.5,-247.5 283.5,-228.5 143.5,-228.5"/>
<text text-anchor="middle" x="213.5" y="-235.5" font-family="Helvetica,sans-Serif" font-size="10.00">Jetpack::mixedMinuteAction</text>
</a>
</g>
</g>
<!-- Node12&#45;&gt;Node19 -->
<g id="edge7" class="edge"><title>Node12&#45;&gt;Node19</title>
<path fill="none" stroke="midnightblue" d="M95.0571,-238C107.056,-238 120.308,-238 133.459,-238"/>
<polygon fill="midnightblue" stroke="midnightblue" points="133.473,-241.5 143.473,-238 133.473,-234.5 133.473,-241.5"/>
</g>
<!-- Node20 -->
<g id="node9" class="node"><title>Node20</title>
<g id="a_node9"><a xlink:href="$df/d1d/class_jetpack.html#af2f567ef6311a8fc2f7bb948837667b7" xlink:title="Jetpack::mixedTemporalActionOff">
<polygon fill="white" stroke="black" points="131,-190.5 131,-209.5 296,-209.5 296,-190.5 131,-190.5"/>
<text text-anchor="middle" x="213.5" y="-197.5" font-family="Helvetica,sans-Serif" font-size="10.00">Jetpack::mixedTemporalActionOff</text>
</a>
</g>
</g>
<!-- Node12&#45;&gt;Node20 -->
<g id="edge8" class="edge"><title>Node12&#45;&gt;Node20</title>
<path fill="none" stroke="midnightblue" d="M89.8841,-228.411C111.623,-223.374 138.457,-217.156 161.475,-211.823"/>
<polygon fill="midnightblue" stroke="midnightblue" points="162.462,-215.187 171.413,-209.52 160.881,-208.368 162.462,-215.187"/>
</g>
<!-- Node21 -->
<g id="node10" class="node"><title>Node21</title>
<g id="a_node10"><a xlink:href="$df/d1d/class_jetpack.html#af44bc8a08818e4433dfb1c7104601f12" xlink:title="Jetpack::mixedTemporalActionOn">
<polygon fill="white" stroke="black" points="131.5,-152.5 131.5,-171.5 295.5,-171.5 295.5,-152.5 131.5,-152.5"/>
<text text-anchor="middle" x="213.5" y="-159.5" font-family="Helvetica,sans-Serif" font-size="10.00">Jetpack::mixedTemporalActionOn</text>
</a>
</g>
</g>
<!-- Node12&#45;&gt;Node21 -->
<g id="edge9" class="edge"><title>Node12&#45;&gt;Node21</title>
<path fill="none" stroke="midnightblue" d="M59.4266,-228.414C74.4955,-215.694 102.983,-193.405 131,-181 136.667,-178.491 142.708,-176.291 148.841,-174.366"/>
<polygon fill="midnightblue" stroke="midnightblue" points="149.884,-177.707 158.515,-171.563 147.936,-170.984 149.884,-177.707"/>
</g>
<!-- Node22 -->
<g id="node11" class="node"><title>Node22</title>
<g id="a_node11"><a xlink:href="$df/d1d/class_jetpack.html#a65ce9533c39fa71e4945b970bf14b980" xlink:title="Jetpack::normalAction">
<polygon fill="white" stroke="black" points="156.5,-114.5 156.5,-133.5 270.5,-133.5 270.5,-114.5 156.5,-114.5"/>
<text text-anchor="middle" x="213.5" y="-121.5" font-family="Helvetica,sans-Serif" font-size="10.00">Jetpack::normalAction</text>
</a>
</g>
</g>
<!-- Node12&#45;&gt;Node22 -->
<g id="edge10" class="edge"><title>Node12&#45;&gt;Node22</title>
<path fill="none" stroke="midnightblue" d="M53.9282,-228.433C65.4509,-209.046 94.3299,-165.1 131,-143 135.822,-140.094 141.051,-137.632 146.455,-135.547"/>
<polygon fill="midnightblue" stroke="midnightblue" points="147.981,-138.725 156.317,-132.186 145.723,-132.099 147.981,-138.725"/>
</g>
<!-- Node23 -->
<g id="node12" class="node"><title>Node23</title>
<g id="a_node12"><a xlink:href="$df/d1d/class_jetpack.html#a2991b302cd99bf89325f9b66b104d575" xlink:title="Jetpack::temporalActionOff">
<polygon fill="white" stroke="black" points="145.5,-76.5 145.5,-95.5 281.5,-95.5 281.5,-76.5 145.5,-76.5"/>
<text text-anchor="middle" x="213.5" y="-83.5" font-family="Helvetica,sans-Serif" font-size="10.00">Jetpack::temporalActionOff</text>
</a>
</g>
</g>
<!-- Node12&#45;&gt;Node23 -->
<g id="edge11" class="edge"><title>Node12&#45;&gt;Node23</title>
<path fill="none" stroke="midnightblue" d="M51.5072,-228.495C59.8135,-203.866 85.5193,-137.628 131,-105 133.715,-103.052 136.6,-101.301 139.603,-99.7267"/>
<polygon fill="midnightblue" stroke="midnightblue" points="141.243,-102.826 148.911,-95.5156 138.357,-96.4487 141.243,-102.826"/>
</g>
<!-- Node24 -->
<g id="node13" class="node"><title>Node24</title>
<g id="a_node13"><a xlink:href="$df/d1d/class_jetpack.html#ad011d904f639accb5f94ef806846ef59" xlink:title="Jetpack::temporalActionOn">
<polygon fill="white" stroke="black" points="146,-38.5 146,-57.5 281,-57.5 281,-38.5 146,-38.5"/>
<text text-anchor="middle" x="213.5" y="-45.5" font-family="Helvetica,sans-Serif" font-size="10.00">Jetpack::temporalActionOn</text>
</a>
</g>
</g>
<!-- Node12&#45;&gt;Node24 -->
<g id="edge12" class="edge"><title>Node12&#45;&gt;Node24</title>
<path fill="none" stroke="midnightblue" d="M50.1394,-228.453C55.6712,-199.284 76.4516,-110.676 131,-67 133.084,-65.3314 135.289,-63.8045 137.586,-62.4074"/>
<polygon fill="midnightblue" stroke="midnightblue" points="139.559,-65.3282 146.847,-57.6382 136.354,-59.105 139.559,-65.3282"/>
</g>
<!-- Node25 -->
<g id="node14" class="node"><title>Node25</title>
<g id="a_node14"><a xlink:href="$df/d1d/class_jetpack.html#a338f1af8cbc6504ac69b47c7328569b5" xlink:title="Jetpack::write">
<polygon fill="white" stroke="black" points="174.5,-0.5 174.5,-19.5 252.5,-19.5 252.5,-0.5 174.5,-0.5"/>
<text text-anchor="middle" x="213.5" y="-7.5" font-family="Helvetica,sans-Serif" font-size="10.00">Jetpack::write</text>
</a>
</g>
</g>
<!-- Node12&#45;&gt;Node25 -->
<g id="edge13" class="edge"><title>Node12&#45;&gt;Node25</title>
<path fill="none" stroke="midnightblue" d="M49.2407,-228.319C52.3317,-194.992 67.2068,-84.0472 131,-29 140.281,-20.9914 152.297,-16.198 164.238,-13.3703"/>
<polygon fill="midnightblue" stroke="midnightblue" points="165.043,-16.7793 174.188,-11.43 163.703,-9.90868 165.043,-16.7793"/>
</g>
</g>
</svg>
