<?xml version="1.0" encoding="UTF-8" standalone="no"?>
<!DOCTYPE svg PUBLIC "-//W3C//DTD SVG 1.1//EN"
 "http://www.w3.org/Graphics/SVG/1.1/DTD/svg11.dtd">
<!-- Generated by graphviz version 2.38.0 (20140413.2041)
 -->
<!-- Title: Jetpack::temporalActionOff Pages: 1 -->
<svg width="433pt" height="66pt"
 viewBox="0.00 0.00 433.00 66.00" xmlns="http://www.w3.org/2000/svg" xmlns:xlink="http://www.w3.org/1999/xlink">
<g id="graph0" class="graph" transform="scale(1 1) rotate(0) translate(4 62)">
<title>Jetpack::temporalActionOff</title>
<polygon fill="white" stroke="none" points="-4,4 -4,-62 429,-62 429,4 -4,4"/>
<!-- Node40 -->
<g id="node1" class="node"><title>Node40</title>
<polygon fill="#bfbfbf" stroke="black" points="0,-19.5 0,-38.5 136,-38.5 136,-19.5 0,-19.5"/>
<text text-anchor="middle" x="68" y="-26.5" font-family="Helvetica,sans-Serif" font-size="10.00">Jetpack::temporalActionOff</text>
</g>
<!-- Node41 -->
<g id="node2" class="node"><title>Node41</title>
<g id="a_node2"><a xlink:href="$df/d1d/class_jetpack.html#af9acedb606340c26c2636c282b54dff1" xlink:title="Jetpack::doAction">
<polygon fill="white" stroke="black" points="172,-19.5 172,-38.5 267,-38.5 267,-19.5 172,-19.5"/>
<text text-anchor="middle" x="219.5" y="-26.5" font-family="Helvetica,sans-Serif" font-size="10.00">Jetpack::doAction</text>
</a>
</g>
</g>
<!-- Node40&#45;&gt;Node41 -->
<g id="edge1" class="edge"><title>Node40&#45;&gt;Node41</title>
<path fill="none" stroke="midnightblue" d="M146.419,-29C155.03,-29 163.595,-29 171.654,-29"/>
<polygon fill="midnightblue" stroke="midnightblue" points="146.315,-25.5001 136.315,-29 146.315,-32.5001 146.315,-25.5001"/>
</g>
<!-- Node42 -->
<g id="node3" class="node"><title>Node42</title>
<g id="a_node3"><a xlink:href="$d7/df9/class_cool_board.html#ae6b5e1274d760462290192acea4adca8" xlink:title="CoolBoard::offLineMode">
<polygon fill="white" stroke="black" points="303,-38.5 303,-57.5 425,-57.5 425,-38.5 303,-38.5"/>
<text text-anchor="middle" x="364" y="-45.5" font-family="Helvetica,sans-Serif" font-size="10.00">CoolBoard::offLineMode</text>
</a>
</g>
</g>
<!-- Node41&#45;&gt;Node42 -->
<g id="edge2" class="edge"><title>Node41&#45;&gt;Node42</title>
<path fill="none" stroke="midnightblue" d="M277.293,-36.5724C285.743,-37.6991 294.476,-38.8635 302.99,-39.9986"/>
<polygon fill="midnightblue" stroke="midnightblue" points="277.535,-33.0737 267.16,-35.2213 276.61,-40.0123 277.535,-33.0737"/>
</g>
<!-- Node43 -->
<g id="node4" class="node"><title>Node43</title>
<g id="a_node4"><a xlink:href="$d7/df9/class_cool_board.html#aa0bbc4bc605e35618d18e68795c61363" xlink:title="CoolBoard::onLineMode">
<polygon fill="white" stroke="black" points="303.5,-0.5 303.5,-19.5 424.5,-19.5 424.5,-0.5 303.5,-0.5"/>
<text text-anchor="middle" x="364" y="-7.5" font-family="Helvetica,sans-Serif" font-size="10.00">CoolBoard::onLineMode</text>
</a>
</g>
</g>
<!-- Node41&#45;&gt;Node43 -->
<g id="edge3" class="edge"><title>Node41&#45;&gt;Node43</title>
<path fill="none" stroke="midnightblue" d="M277.157,-21.4458C285.818,-20.291 294.779,-19.0961 303.499,-17.9334"/>
<polygon fill="midnightblue" stroke="midnightblue" points="276.61,-17.9877 267.16,-22.7787 277.535,-24.9263 276.61,-17.9877"/>
</g>
</g>
</svg>
