<?xml version="1.0" encoding="UTF-8" standalone="no"?>
<!DOCTYPE svg PUBLIC "-//W3C//DTD SVG 1.1//EN"
 "http://www.w3.org/Graphics/SVG/1.1/DTD/svg11.dtd">
<!-- Generated by graphviz version 2.38.0 (20140413.2041)
 -->
<!-- Title: Jetpack::invertedAction Pages: 1 -->
<svg width="416pt" height="66pt"
 viewBox="0.00 0.00 416.00 66.00" xmlns="http://www.w3.org/2000/svg" xmlns:xlink="http://www.w3.org/1999/xlink">
<g id="graph0" class="graph" transform="scale(1 1) rotate(0) translate(4 62)">
<title>Jetpack::invertedAction</title>
<polygon fill="white" stroke="none" points="-4,4 -4,-62 412,-62 412,4 -4,4"/>
<!-- Node35 -->
<g id="node1" class="node"><title>Node35</title>
<polygon fill="#bfbfbf" stroke="black" points="0,-19.5 0,-38.5 119,-38.5 119,-19.5 0,-19.5"/>
<text text-anchor="middle" x="59.5" y="-26.5" font-family="Helvetica,sans-Serif" font-size="10.00">Jetpack::invertedAction</text>
</g>
<!-- Node36 -->
<g id="node2" class="node"><title>Node36</title>
<g id="a_node2"><a xlink:href="$df/d1d/class_jetpack.html#af9acedb606340c26c2636c282b54dff1" xlink:title="Jetpack::doAction">
<polygon fill="white" stroke="black" points="155,-19.5 155,-38.5 250,-38.5 250,-19.5 155,-19.5"/>
<text text-anchor="middle" x="202.5" y="-26.5" font-family="Helvetica,sans-Serif" font-size="10.00">Jetpack::doAction</text>
</a>
</g>
</g>
<!-- Node35&#45;&gt;Node36 -->
<g id="edge1" class="edge"><title>Node35&#45;&gt;Node36</title>
<path fill="none" stroke="midnightblue" d="M129.239,-29C137.94,-29 146.678,-29 154.921,-29"/>
<polygon fill="midnightblue" stroke="midnightblue" points="129.072,-25.5001 119.072,-29 129.072,-32.5001 129.072,-25.5001"/>
</g>
<!-- Node37 -->
<g id="node3" class="node"><title>Node37</title>
<g id="a_node3"><a xlink:href="$d7/df9/class_cool_board.html#ae6b5e1274d760462290192acea4adca8" xlink:title="CoolBoard::offLineMode">
<polygon fill="white" stroke="black" points="286,-38.5 286,-57.5 408,-57.5 408,-38.5 286,-38.5"/>
<text text-anchor="middle" x="347" y="-45.5" font-family="Helvetica,sans-Serif" font-size="10.00">CoolBoard::offLineMode</text>
</a>
</g>
</g>
<!-- Node36&#45;&gt;Node37 -->
<g id="edge2" class="edge"><title>Node36&#45;&gt;Node37</title>
<path fill="none" stroke="midnightblue" d="M260.293,-36.5724C268.743,-37.6991 277.476,-38.8635 285.99,-39.9986"/>
<polygon fill="midnightblue" stroke="midnightblue" points="260.535,-33.0737 250.16,-35.2213 259.61,-40.0123 260.535,-33.0737"/>
</g>
<!-- Node38 -->
<g id="node4" class="node"><title>Node38</title>
<g id="a_node4"><a xlink:href="$d7/df9/class_cool_board.html#aa0bbc4bc605e35618d18e68795c61363" xlink:title="CoolBoard::onLineMode">
<polygon fill="white" stroke="black" points="286.5,-0.5 286.5,-19.5 407.5,-19.5 407.5,-0.5 286.5,-0.5"/>
<text text-anchor="middle" x="347" y="-7.5" font-family="Helvetica,sans-Serif" font-size="10.00">CoolBoard::onLineMode</text>
</a>
</g>
</g>
<!-- Node36&#45;&gt;Node38 -->
<g id="edge3" class="edge"><title>Node36&#45;&gt;Node38</title>
<path fill="none" stroke="midnightblue" d="M260.157,-21.4458C268.818,-20.291 277.779,-19.0961 286.499,-17.9334"/>
<polygon fill="midnightblue" stroke="midnightblue" points="259.61,-17.9877 250.16,-22.7787 260.535,-24.9263 259.61,-17.9877"/>
</g>
</g>
</svg>
