<?xml version="1.0" encoding="UTF-8" standalone="no"?>
<!DOCTYPE svg PUBLIC "-//W3C//DTD SVG 1.1//EN"
 "http://www.w3.org/Graphics/SVG/1.1/DTD/svg11.dtd">
<!-- Generated by graphviz version 2.38.0 (20140413.2041)
 -->
<!-- Title: ExternalSensors::sensor Pages: 1 -->
<svg width="132pt" height="226pt"
 viewBox="0.00 0.00 132.00 226.00" xmlns="http://www.w3.org/2000/svg" xmlns:xlink="http://www.w3.org/1999/xlink">
<g id="graph0" class="graph" transform="scale(1 1) rotate(0) translate(4 222)">
<title>ExternalSensors::sensor</title>
<polygon fill="white" stroke="none" points="-4,4 -4,-222 128,-222 128,4 -4,4"/>
<!-- Node5 -->
<g id="node1" class="node"><title>Node5</title>
<polygon fill="#bfbfbf" stroke="black" points="-7.10543e-15,-0.5 -7.10543e-15,-79.5 124,-79.5 124,-0.5 -7.10543e-15,-0.5"/>
<text text-anchor="middle" x="62" y="-67.5" font-family="Helvetica,sans-Serif" font-size="10.00">ExternalSensors::sensor</text>
<polyline fill="none" stroke="black" points="-7.10543e-15,-60.5 124,-60.5 "/>
<text text-anchor="start" x="8" y="-48.5" font-family="Helvetica,sans-Serif" font-size="10.00">+ reference</text>
<text text-anchor="start" x="8" y="-37.5" font-family="Helvetica,sans-Serif" font-size="10.00">+ type</text>
<text text-anchor="start" x="8" y="-26.5" font-family="Helvetica,sans-Serif" font-size="10.00">+ address</text>
<polyline fill="none" stroke="black" points="-7.10543e-15,-19.5 124,-19.5 "/>
<text text-anchor="middle" x="62" y="-7.5" font-family="Helvetica,sans-Serif" font-size="10.00"> </text>
</g>
<!-- Node6 -->
<g id="node2" class="node"><title>Node6</title>
<g id="a_node2"><a xlink:href="$d1/d68/class_base_external_sensor.html" xlink:title="This class is a generic external Sensor it is a way to access real external sensor methods through ru...">
<polygon fill="white" stroke="black" points="1.5,-127.5 1.5,-217.5 122.5,-217.5 122.5,-127.5 1.5,-127.5"/>
<text text-anchor="middle" x="62" y="-205.5" font-family="Helvetica,sans-Serif" font-size="10.00">BaseExternalSensor</text>
<polyline fill="none" stroke="black" points="1.5,-198.5 122.5,-198.5 "/>
<text text-anchor="middle" x="62" y="-186.5" font-family="Helvetica,sans-Serif" font-size="10.00"> </text>
<polyline fill="none" stroke="black" points="1.5,-179.5 122.5,-179.5 "/>
<text text-anchor="start" x="9.5" y="-167.5" font-family="Helvetica,sans-Serif" font-size="10.00">+ BaseExternalSensor()</text>
<text text-anchor="start" x="9.5" y="-156.5" font-family="Helvetica,sans-Serif" font-size="10.00">+ begin()</text>
<text text-anchor="start" x="9.5" y="-145.5" font-family="Helvetica,sans-Serif" font-size="10.00">+ read()</text>
<text text-anchor="start" x="9.5" y="-134.5" font-family="Helvetica,sans-Serif" font-size="10.00">+ read()</text>
</a>
</g>
</g>
<!-- Node6&#45;&gt;Node5 -->
<g id="edge1" class="edge"><title>Node6&#45;&gt;Node5</title>
<path fill="none" stroke="#404040" d="M62,-127.319C62,-116.024 62,-103.785 62,-92.1718"/>
<polygon fill="none" stroke="#404040" points="62.0001,-91.8892 58,-85.8893 62,-79.8892 66,-85.8892 62.0001,-91.8892"/>
<text text-anchor="middle" x="87.5" y="-101" font-family="Helvetica,sans-Serif" font-size="10.00"> +exSensor</text>
</g>
</g>
</svg>
