<?xml version="1.0" encoding="UTF-8" standalone="no"?>
<!DOCTYPE svg PUBLIC "-//W3C//DTD SVG 1.1//EN"
 "http://www.w3.org/Graphics/SVG/1.1/DTD/svg11.dtd">
<!-- Generated by graphviz version 2.38.0 (20140413.2041)
 -->
<!-- Title: i2cwrite Pages: 1 -->
<!--zoomable 276 -->
<svg id="main" version="1.1" xmlns="http://www.w3.org/2000/svg" xmlns:xlink="http://www.w3.org/1999/xlink" xml:space="preserve" onload="init(evt)">
<style type="text/css"><![CDATA[
.edge:hover path { stroke: red; }
.edge:hover polygon { stroke: red; fill: red; }
]]></style>
<script type="text/javascript"><![CDATA[
var edges = document.getElementsByTagName('g');
if (edges && edges.length) {
  for (var i=0;i<edges.length;i++) {
    if (edges[i].id.substr(0,4)=='edge') {
      edges[i].setAttribute('class','edge');
    }
  }
}
]]></script>
        <defs>
                <circle id="rim" cx="0" cy="0" r="7"/>
                <circle id="rim2" cx="0" cy="0" r="3.5"/>
                <g id="zoomPlus">
                        <use xlink:href="#rim" fill="#404040">
                                <set attributeName="fill" to="#808080" begin="zoomplus.mouseover" end="zoomplus.mouseout"/>
                        </use>
                        <path d="M-4,0h8M0,-4v8" fill="none" stroke="white" stroke-width="1.5" pointer-events="none"/>
                </g>
                <g id="zoomMin">
                        <use xlink:href="#rim" fill="#404040">
                                <set attributeName="fill" to="#808080" begin="zoomminus.mouseover" end="zoomminus.mouseout"/>
                        </use>
                        <path d="M-4,0h8" fill="none" stroke="white" stroke-width="1.5" pointer-events="none"/>
                </g>
                <g id="dirArrow">
                        <path fill="none" stroke="white" stroke-width="1.5" d="M0,-3.0v7 M-2.5,-0.5L0,-3.0L2.5,-0.5"/>
                </g>
               <g id="resetDef">
                       <use xlink:href="#rim2" fill="#404040">
                               <set attributeName="fill" to="#808080" begin="reset.mouseover" end="reset.mouseout"/>
                       </use>
               </g>
        </defs>

<script type="text/javascript">
var viewWidth = 1011;
var viewHeight = 276;
var sectionId = 'dynsection-2';
</script>
<script xlink:href="../../svgpan.js"/>
<svg id="graph" class="graph">
<g id="viewport">
<title>i2cwrite</title>
<polygon fill="white" stroke="none" points="-4,4 -4,-271.5 1007,-271.5 1007,4 -4,4"/>
<!-- Node21 -->
<g id="node1" class="node"><title>Node21</title>
<polygon fill="#bfbfbf" stroke="black" points="0,-104 0,-123 50,-123 50,-104 0,-104"/>
<text text-anchor="middle" x="25" y="-111" font-family="Helvetica,sans-Serif" font-size="10.00">i2cwrite</text>
</g>
<!-- Node22 -->
<g id="node2" class="node"><title>Node22</title>
<g id="a_node2"><a xlink:href="../../d8/daa/_cool_adafruit___a_d_s1015_8cpp.html#a319539381b7551b2f83a92b0b596e97d" target="_top" xlink:title="Writes 16&#45;bits to the specified destination register. ">
<polygon fill="white" stroke="black" points="87,-85 87,-104 159,-104 159,-85 87,-85"/>
<text text-anchor="middle" x="123" y="-92" font-family="Helvetica,sans-Serif" font-size="10.00">readRegister</text>
</a>
</g>
</g>
<!-- Node21&#45;&gt;Node22 -->
<g id="edge1" class="edge"><title>Node21&#45;&gt;Node22</title>
<path fill="none" stroke="midnightblue" d="M60.0603,-106.759C68.7666,-105.036 78.1429,-103.18 86.9003,-101.447"/>
<polygon fill="midnightblue" stroke="midnightblue" points="59.355,-103.331 50.2249,-108.705 60.7141,-110.197 59.355,-103.331"/>
</g>
<!-- Node40 -->
<g id="node20" class="node"><title>Node40</title>
<g id="a_node20"><a xlink:href="../../d8/daa/_cool_adafruit___a_d_s1015_8cpp.html#a00ef55774dfb93dd0a7bf561d8451b71" target="_top" xlink:title="Writes 16&#45;bits to the specified destination register. ">
<polygon fill="white" stroke="black" points="86,-123 86,-142 160,-142 160,-123 86,-123"/>
<text text-anchor="middle" x="123" y="-130" font-family="Helvetica,sans-Serif" font-size="10.00">writeRegister</text>
</a>
</g>
</g>
<!-- Node21&#45;&gt;Node40 -->
<g id="edge25" class="edge"><title>Node21&#45;&gt;Node40</title>
<path fill="none" stroke="midnightblue" d="M60.3046,-120.289C68.5779,-121.927 77.4436,-123.682 85.8006,-125.336"/>
<polygon fill="midnightblue" stroke="midnightblue" points="60.7141,-116.803 50.2249,-118.295 59.355,-123.669 60.7141,-116.803"/>
</g>
<!-- Node23 -->
<g id="node3" class="node"><title>Node23</title>
<g id="a_node3"><a xlink:href="../../df/df6/class_adafruit___a_d_s1015.html#a40f38b9e1f3ec397c0670dd632510235" target="_top" xlink:title="Gets a single&#45;ended ADC reading from the specified channel. ">
<polygon fill="white" stroke="black" points="211,-147.5 211,-177.5 355,-177.5 355,-147.5 211,-147.5"/>
<text text-anchor="start" x="219" y="-165.5" font-family="Helvetica,sans-Serif" font-size="10.00">Adafruit_ADS1015::readADC</text>
<text text-anchor="middle" x="283" y="-154.5" font-family="Helvetica,sans-Serif" font-size="10.00">_SingleEnded</text>
</a>
</g>
</g>
<!-- Node22&#45;&gt;Node23 -->
<g id="edge2" class="edge"><title>Node22&#45;&gt;Node23</title>
<path fill="none" stroke="midnightblue" d="M152.239,-108.982C154.886,-110.466 157.509,-111.985 160,-113.5 176.644,-123.62 178.372,-130.21 196,-138.5 203.154,-141.864 210.871,-144.84 218.642,-147.45"/>
<polygon fill="midnightblue" stroke="midnightblue" points="153.757,-105.823 143.297,-104.134 150.42,-111.977 153.757,-105.823"/>
</g>
<!-- Node37 -->
<g id="node17" class="node"><title>Node37</title>
<g id="a_node17"><a xlink:href="../../df/df6/class_adafruit___a_d_s1015.html#a56582333958e66efaccd3d4a8a47e3ff" target="_top" xlink:title="Reads the conversion results, measuring the voltage difference between the P (AIN0) and N (AIN1) inpu...">
<polygon fill="white" stroke="black" points="211,-98.5 211,-128.5 355,-128.5 355,-98.5 211,-98.5"/>
<text text-anchor="start" x="219" y="-116.5" font-family="Helvetica,sans-Serif" font-size="10.00">Adafruit_ADS1015::readADC</text>
<text text-anchor="middle" x="283" y="-105.5" font-family="Helvetica,sans-Serif" font-size="10.00">_Differential_0_1</text>
</a>
</g>
</g>
<!-- Node22&#45;&gt;Node37 -->
<g id="edge22" class="edge"><title>Node22&#45;&gt;Node37</title>
<path fill="none" stroke="midnightblue" d="M169.124,-99.9263C182.114,-101.488 196.611,-103.232 210.771,-104.935"/>
<polygon fill="midnightblue" stroke="midnightblue" points="169.412,-96.4358 159.065,-98.7167 168.576,-103.386 169.412,-96.4358"/>
</g>
<!-- Node38 -->
<g id="node18" class="node"><title>Node38</title>
<g id="a_node18"><a xlink:href="../../df/df6/class_adafruit___a_d_s1015.html#a38311881bcab46f7496c4bb6e4cad576" target="_top" xlink:title="Reads the conversion results, measuring the voltage difference between the P (AIN2) and N (AIN3) inpu...">
<polygon fill="white" stroke="black" points="211,-49.5 211,-79.5 355,-79.5 355,-49.5 211,-49.5"/>
<text text-anchor="start" x="219" y="-67.5" font-family="Helvetica,sans-Serif" font-size="10.00">Adafruit_ADS1015::readADC</text>
<text text-anchor="middle" x="283" y="-56.5" font-family="Helvetica,sans-Serif" font-size="10.00">_Differential_2_3</text>
</a>
</g>
</g>
<!-- Node22&#45;&gt;Node38 -->
<g id="edge23" class="edge"><title>Node22&#45;&gt;Node38</title>
<path fill="none" stroke="midnightblue" d="M169.124,-85.9321C182.114,-83.4657 196.611,-80.7132 210.771,-78.0245"/>
<polygon fill="midnightblue" stroke="midnightblue" points="168.237,-82.538 159.065,-87.842 169.543,-89.4151 168.237,-82.538"/>
</g>
<!-- Node39 -->
<g id="node19" class="node"><title>Node39</title>
<g id="a_node19"><a xlink:href="../../df/df6/class_adafruit___a_d_s1015.html#ad8f36d80847020778425107f6451a8c2" target="_top" xlink:title="In order to clear the comparator, we need to read the conversion results. This function reads the las...">
<polygon fill="white" stroke="black" points="215,-0.5 215,-30.5 351,-30.5 351,-0.5 215,-0.5"/>
<text text-anchor="start" x="223" y="-18.5" font-family="Helvetica,sans-Serif" font-size="10.00">Adafruit_ADS1015::getLast</text>
<text text-anchor="middle" x="283" y="-7.5" font-family="Helvetica,sans-Serif" font-size="10.00">ConversionResults</text>
</a>
</g>
</g>
<!-- Node22&#45;&gt;Node39 -->
<g id="edge24" class="edge"><title>Node22&#45;&gt;Node39</title>
<path fill="none" stroke="midnightblue" d="M141.617,-77.9535C155.453,-65.7619 175.713,-49.6078 196,-39.5 202.798,-36.1128 210.145,-33.1429 217.581,-30.5548"/>
<polygon fill="midnightblue" stroke="midnightblue" points="138.958,-75.6392 133.889,-84.9429 143.653,-80.8307 138.958,-75.6392"/>
</g>
<!-- Node24 -->
<g id="node4" class="node"><title>Node24</title>
<g id="a_node4"><a xlink:href="../../d6/d03/class_irene3000.html#a78a87eb7cf295b95c12b2ebd51c2bb77" target="_top" xlink:title="Irene3000::readButton">
<polygon fill="white" stroke="black" points="422.5,-248 422.5,-267 535.5,-267 535.5,-248 422.5,-248"/>
<text text-anchor="middle" x="479" y="-255" font-family="Helvetica,sans-Serif" font-size="10.00">Irene3000::readButton</text>
</a>
</g>
</g>
<!-- Node23&#45;&gt;Node24 -->
<g id="edge3" class="edge"><title>Node23&#45;&gt;Node24</title>
<path fill="none" stroke="midnightblue" d="M361.431,-182.114C364.407,-183.768 367.278,-185.559 370,-187.5 392.589,-203.61 383.213,-222.673 406,-238.5 411.628,-242.409 418.011,-245.513 424.596,-247.979"/>
<polygon fill="midnightblue" stroke="midnightblue" points="362.746,-178.86 352.231,-177.558 359.639,-185.133 362.746,-178.86"/>
</g>
<!-- Node27 -->
<g id="node7" class="node"><title>Node27</title>
<g id="a_node7"><a xlink:href="../../d6/d03/class_irene3000.html#ae73bd2ed14a199a7e83f4d6458476a7c" target="_top" xlink:title="Irene3000::readADSChannel2">
<polygon fill="white" stroke="black" points="406,-134 406,-153 552,-153 552,-134 406,-134"/>
<text text-anchor="middle" x="479" y="-141" font-family="Helvetica,sans-Serif" font-size="10.00">Irene3000::readADSChannel2</text>
</a>
</g>
</g>
<!-- Node23&#45;&gt;Node27 -->
<g id="edge6" class="edge"><title>Node23&#45;&gt;Node27</title>
<path fill="none" stroke="midnightblue" d="M365.335,-154.534C378.801,-153.215 392.68,-151.856 405.897,-150.562"/>
<polygon fill="midnightblue" stroke="midnightblue" points="364.748,-151.075 355.137,-155.533 365.43,-158.042 364.748,-151.075"/>
</g>
<!-- Node32 -->
<g id="node12" class="node"><title>Node32</title>
<g id="a_node12"><a xlink:href="../../d6/d03/class_irene3000.html#a436fc0a06681cd0784aba56b9707f19a" target="_top" xlink:title="Irene3000::readPh">
<polygon fill="white" stroke="black" points="431,-96 431,-115 527,-115 527,-96 431,-96"/>
<text text-anchor="middle" x="479" y="-103" font-family="Helvetica,sans-Serif" font-size="10.00">Irene3000::readPh</text>
</a>
</g>
</g>
<!-- Node23&#45;&gt;Node32 -->
<g id="edge11" class="edge"><title>Node23&#45;&gt;Node32</title>
<path fill="none" stroke="midnightblue" d="M351.17,-144.447C357.56,-142.522 363.92,-140.525 370,-138.5 386.288,-133.075 389.674,-129.81 406,-124.5 416.45,-121.101 427.898,-117.865 438.529,-115.058"/>
<polygon fill="midnightblue" stroke="midnightblue" points="349.741,-141.22 341.14,-147.407 351.722,-147.934 349.741,-141.22"/>
</g>
<!-- Node33 -->
<g id="node13" class="node"><title>Node33</title>
<g id="a_node13"><a xlink:href="../../d6/d03/class_irene3000.html#a80bc6dfea106dc3bc54fa20204d4d5dc" target="_top" xlink:title="Irene3000::readTemp">
<polygon fill="white" stroke="black" points="424.5,-58 424.5,-77 533.5,-77 533.5,-58 424.5,-58"/>
<text text-anchor="middle" x="479" y="-65" font-family="Helvetica,sans-Serif" font-size="10.00">Irene3000::readTemp</text>
</a>
</g>
</g>
<!-- Node23&#45;&gt;Node33 -->
<g id="edge13" class="edge"><title>Node23&#45;&gt;Node33</title>
<path fill="none" stroke="midnightblue" d="M363.452,-142.711C365.711,-141.396 367.901,-139.995 370,-138.5 392.899,-122.197 382.987,-102.64 406,-86.5 411.504,-82.6399 417.742,-79.5641 424.19,-77.1131"/>
<polygon fill="midnightblue" stroke="midnightblue" points="361.721,-139.666 354.439,-147.361 364.93,-145.887 361.721,-139.666"/>
</g>
<!-- Node34 -->
<g id="node14" class="node"><title>Node34</title>
<g id="a_node14"><a xlink:href="../../d6/d03/class_irene3000.html#a1d3299202e4cb7afcff9c9e3e95d94c1" target="_top" xlink:title="Irene3000::calibratepH7">
<polygon fill="white" stroke="black" points="419,-210 419,-229 539,-229 539,-210 419,-210"/>
<text text-anchor="middle" x="479" y="-217" font-family="Helvetica,sans-Serif" font-size="10.00">Irene3000::calibratepH7</text>
</a>
</g>
</g>
<!-- Node23&#45;&gt;Node34 -->
<g id="edge15" class="edge"><title>Node23&#45;&gt;Node34</title>
<path fill="none" stroke="midnightblue" d="M347.442,-180.446C355.065,-182.749 362.723,-185.131 370,-187.5 386.176,-192.766 389.76,-195.436 406,-200.5 416.737,-203.848 428.492,-207.115 439.333,-209.969"/>
<polygon fill="midnightblue" stroke="midnightblue" points="348.419,-177.085 337.836,-177.579 346.417,-183.793 348.419,-177.085"/>
</g>
<!-- Node36 -->
<g id="node16" class="node"><title>Node36</title>
<g id="a_node16"><a xlink:href="../../d6/d03/class_irene3000.html#aa140dd026922a04981edfd04d46cabbe" target="_top" xlink:title="Irene3000::calibratepH4">
<polygon fill="white" stroke="black" points="419,-172 419,-191 539,-191 539,-172 419,-172"/>
<text text-anchor="middle" x="479" y="-179" font-family="Helvetica,sans-Serif" font-size="10.00">Irene3000::calibratepH4</text>
</a>
</g>
</g>
<!-- Node23&#45;&gt;Node36 -->
<g id="edge19" class="edge"><title>Node23&#45;&gt;Node36</title>
<path fill="none" stroke="midnightblue" d="M365.333,-170.466C383.327,-172.228 402.06,-174.063 418.966,-175.718"/>
<polygon fill="midnightblue" stroke="midnightblue" points="365.43,-166.958 355.137,-169.467 364.748,-173.925 365.43,-166.958"/>
</g>
<!-- Node25 -->
<g id="node5" class="node"><title>Node25</title>
<g id="a_node5"><a xlink:href="../../d6/d03/class_irene3000.html#ad5891806c500ae1007afe52b9e304c2b" target="_top" xlink:title="Irene3000::begin">
<polygon fill="white" stroke="black" points="592.5,-210 592.5,-229 681.5,-229 681.5,-210 592.5,-210"/>
<text text-anchor="middle" x="637" y="-217" font-family="Helvetica,sans-Serif" font-size="10.00">Irene3000::begin</text>
</a>
</g>
</g>
<!-- Node24&#45;&gt;Node25 -->
<g id="edge4" class="edge"><title>Node24&#45;&gt;Node25</title>
<path fill="none" stroke="midnightblue" d="M529.132,-245.532C550.993,-240.207 576.376,-234.024 596.918,-229.02"/>
<polygon fill="midnightblue" stroke="midnightblue" points="528.253,-242.144 519.365,-247.911 529.91,-248.945 528.253,-242.144"/>
</g>
<!-- Node26 -->
<g id="node6" class="node"><title>Node26</title>
<g id="a_node6"><a xlink:href="../../d7/df9/class_cool_board.html#acba7c5aef7268b2c0044bdb54d3b9d76" target="_top" xlink:title="CoolBoard::begin">
<polygon fill="white" stroke="black" points="737.5,-210 737.5,-229 829.5,-229 829.5,-210 737.5,-210"/>
<text text-anchor="middle" x="783.5" y="-217" font-family="Helvetica,sans-Serif" font-size="10.00">CoolBoard::begin</text>
</a>
</g>
</g>
<!-- Node25&#45;&gt;Node26 -->
<g id="edge5" class="edge"><title>Node25&#45;&gt;Node26</title>
<path fill="none" stroke="midnightblue" d="M691.902,-219.5C706.88,-219.5 722.985,-219.5 737.401,-219.5"/>
<polygon fill="midnightblue" stroke="midnightblue" points="691.747,-216 681.747,-219.5 691.747,-223 691.747,-216"/>
</g>
<!-- Node28 -->
<g id="node8" class="node"><title>Node28</title>
<g id="a_node8"><a xlink:href="../../d6/d03/class_irene3000.html#a852a170feea994ea1df01c6b245b5d9a" target="_top" xlink:title="Irene3000::read">
<polygon fill="white" stroke="black" points="595,-101 595,-120 679,-120 679,-101 595,-101"/>
<text text-anchor="middle" x="637" y="-108" font-family="Helvetica,sans-Serif" font-size="10.00">Irene3000::read</text>
</a>
</g>
</g>
<!-- Node27&#45;&gt;Node28 -->
<g id="edge7" class="edge"><title>Node27&#45;&gt;Node28</title>
<path fill="none" stroke="midnightblue" d="M534.922,-131.882C554.679,-127.702 576.607,-123.064 594.976,-119.178"/>
<polygon fill="midnightblue" stroke="midnightblue" points="534.181,-128.461 525.122,-133.955 535.63,-135.31 534.181,-128.461"/>
</g>
<!-- Node29 -->
<g id="node9" class="node"><title>Node29</title>
<g id="a_node9"><a xlink:href="../../d7/df9/class_cool_board.html#ad03abdce2e65f520bbf2cff0f2d083cf" target="_top" xlink:title="CoolBoard::readSensors">
<polygon fill="white" stroke="black" points="722,-110 722,-129 845,-129 845,-110 722,-110"/>
<text text-anchor="middle" x="783.5" y="-117" font-family="Helvetica,sans-Serif" font-size="10.00">CoolBoard::readSensors</text>
</a>
</g>
</g>
<!-- Node28&#45;&gt;Node29 -->
<g id="edge8" class="edge"><title>Node28&#45;&gt;Node29</title>
<path fill="none" stroke="midnightblue" d="M689.327,-113.697C699.887,-114.355 711.1,-115.053 721.952,-115.729"/>
<polygon fill="midnightblue" stroke="midnightblue" points="689.22,-110.183 679.021,-113.055 688.784,-117.17 689.22,-110.183"/>
</g>
<!-- Node30 -->
<g id="node10" class="node"><title>Node30</title>
<g id="a_node10"><a xlink:href="../../d7/df9/class_cool_board.html#aa0bbc4bc605e35618d18e68795c61363" target="_top" xlink:title="CoolBoard::onLineMode">
<polygon fill="white" stroke="black" points="881.5,-157 881.5,-176 1002.5,-176 1002.5,-157 881.5,-157"/>
<text text-anchor="middle" x="942" y="-164" font-family="Helvetica,sans-Serif" font-size="10.00">CoolBoard::onLineMode</text>
</a>
</g>
</g>
<!-- Node29&#45;&gt;Node30 -->
<g id="edge9" class="edge"><title>Node29&#45;&gt;Node30</title>
<path fill="none" stroke="midnightblue" d="M825.783,-131.898C851.863,-139.73 885.056,-149.699 909.109,-156.922"/>
<polygon fill="midnightblue" stroke="midnightblue" points="826.754,-128.535 816.17,-129.011 824.741,-135.24 826.754,-128.535"/>
</g>
<!-- Node31 -->
<g id="node11" class="node"><title>Node31</title>
<g id="a_node11"><a xlink:href="../../d7/df9/class_cool_board.html#ae6b5e1274d760462290192acea4adca8" target="_top" xlink:title="CoolBoard::offLineMode">
<polygon fill="white" stroke="black" points="881,-110 881,-129 1003,-129 1003,-110 881,-110"/>
<text text-anchor="middle" x="942" y="-117" font-family="Helvetica,sans-Serif" font-size="10.00">CoolBoard::offLineMode</text>
</a>
</g>
</g>
<!-- Node29&#45;&gt;Node31 -->
<g id="edge10" class="edge"><title>Node29&#45;&gt;Node31</title>
<path fill="none" stroke="midnightblue" d="M855.059,-119.5C863.692,-119.5 872.452,-119.5 880.912,-119.5"/>
<polygon fill="midnightblue" stroke="midnightblue" points="855.007,-116 845.007,-119.5 855.007,-123 855.007,-116"/>
</g>
<!-- Node32&#45;&gt;Node28 -->
<g id="edge12" class="edge"><title>Node32&#45;&gt;Node28</title>
<path fill="none" stroke="midnightblue" d="M537.295,-107.336C556.339,-107.947 577.157,-108.614 594.745,-109.178"/>
<polygon fill="midnightblue" stroke="midnightblue" points="537.336,-103.836 527.228,-107.014 537.111,-110.832 537.336,-103.836"/>
</g>
<!-- Node33&#45;&gt;Node28 -->
<g id="edge14" class="edge"><title>Node33&#45;&gt;Node28</title>
<path fill="none" stroke="midnightblue" d="M526.466,-79.6139C534.968,-81.8725 543.757,-84.235 552,-86.5 568.965,-91.1614 587.802,-96.5262 603.332,-101"/>
<polygon fill="midnightblue" stroke="midnightblue" points="527.229,-76.1954 516.667,-77.0223 525.44,-82.9628 527.229,-76.1954"/>
</g>
<!-- Node34&#45;&gt;Node25 -->
<g id="edge18" class="edge"><title>Node34&#45;&gt;Node25</title>
<path fill="none" stroke="midnightblue" d="M549.838,-219.5C564.274,-219.5 579.087,-219.5 592.27,-219.5"/>
<polygon fill="midnightblue" stroke="midnightblue" points="549.422,-216 539.422,-219.5 549.422,-223 549.422,-216"/>
</g>
<!-- Node35 -->
<g id="node15" class="node"><title>Node35</title>
<g id="a_node15"><a xlink:href="../../d7/df9/class_cool_board.html#a8612756d3f73198cdde857a66f0fe690" target="_top" xlink:title="CoolBoard::update">
<polygon fill="white" stroke="black" points="588,-172 588,-191 686,-191 686,-172 588,-172"/>
<text text-anchor="middle" x="637" y="-179" font-family="Helvetica,sans-Serif" font-size="10.00">CoolBoard::update</text>
</a>
</g>
</g>
<!-- Node34&#45;&gt;Node35 -->
<g id="edge16" class="edge"><title>Node34&#45;&gt;Node35</title>
<path fill="none" stroke="midnightblue" d="M529.132,-207.532C550.993,-202.207 576.376,-196.024 596.918,-191.02"/>
<polygon fill="midnightblue" stroke="midnightblue" points="528.253,-204.144 519.365,-209.911 529.91,-210.945 528.253,-204.144"/>
</g>
<!-- Node35&#45;&gt;Node30 -->
<g id="edge17" class="edge"><title>Node35&#45;&gt;Node30</title>
<path fill="none" stroke="midnightblue" d="M696.293,-178.614C749.443,-175.983 827.625,-172.113 881.232,-169.459"/>
<polygon fill="midnightblue" stroke="midnightblue" points="695.826,-175.133 686.011,-179.123 696.172,-182.124 695.826,-175.133"/>
</g>
<!-- Node36&#45;&gt;Node25 -->
<g id="edge21" class="edge"><title>Node36&#45;&gt;Node25</title>
<path fill="none" stroke="midnightblue" d="M529.132,-193.468C550.993,-198.793 576.376,-204.976 596.918,-209.98"/>
<polygon fill="midnightblue" stroke="midnightblue" points="529.91,-190.055 519.365,-191.089 528.253,-196.856 529.91,-190.055"/>
</g>
<!-- Node36&#45;&gt;Node35 -->
<g id="edge20" class="edge"><title>Node36&#45;&gt;Node35</title>
<path fill="none" stroke="midnightblue" d="M549.677,-181.5C562.581,-181.5 575.793,-181.5 587.877,-181.5"/>
<polygon fill="midnightblue" stroke="midnightblue" points="549.422,-178 539.422,-181.5 549.422,-185 549.422,-178"/>
</g>
<!-- Node40&#45;&gt;Node23 -->
<g id="edge26" class="edge"><title>Node40&#45;&gt;Node23</title>
<path fill="none" stroke="midnightblue" d="M170.123,-141.258C182.847,-143.674 196.956,-146.352 210.747,-148.971"/>
<polygon fill="midnightblue" stroke="midnightblue" points="170.726,-137.81 160.248,-139.383 169.42,-144.687 170.726,-137.81"/>
</g>
<!-- Node40&#45;&gt;Node37 -->
<g id="edge27" class="edge"><title>Node40&#45;&gt;Node37</title>
<path fill="none" stroke="midnightblue" d="M170.502,-126.908C183.127,-125.39 197.093,-123.71 210.747,-122.068"/>
<polygon fill="midnightblue" stroke="midnightblue" points="169.759,-123.472 160.248,-128.141 170.595,-130.422 169.759,-123.472"/>
</g>
<!-- Node40&#45;&gt;Node38 -->
<g id="edge28" class="edge"><title>Node40&#45;&gt;Node38</title>
<path fill="none" stroke="midnightblue" d="M151.756,-118.219C154.563,-116.665 157.353,-115.076 160,-113.5 176.525,-103.666 178.565,-97.6114 196,-89.5 204.036,-85.7615 212.756,-82.4485 221.459,-79.5567"/>
<polygon fill="midnightblue" stroke="midnightblue" points="150.03,-115.173 142.886,-122.997 153.35,-121.336 150.03,-115.173"/>
</g>
<!-- Node41 -->
<g id="node21" class="node"><title>Node41</title>
<g id="a_node21"><a xlink:href="../../df/df6/class_adafruit___a_d_s1015.html#aecd30775d943ea9d9cff0e3485926596" target="_top" xlink:title="Sets up the comparator to operate in basic mode, causing the ALERT/RDY pin to assert (go from high to...">
<polygon fill="white" stroke="black" points="196,-196.5 196,-226.5 370,-226.5 370,-196.5 196,-196.5"/>
<text text-anchor="start" x="204" y="-214.5" font-family="Helvetica,sans-Serif" font-size="10.00">Adafruit_ADS1015::startComparator</text>
<text text-anchor="middle" x="283" y="-203.5" font-family="Helvetica,sans-Serif" font-size="10.00">_SingleEnded</text>
</a>
</g>
</g>
<!-- Node40&#45;&gt;Node41 -->
<g id="edge29" class="edge"><title>Node40&#45;&gt;Node41</title>
<path fill="none" stroke="midnightblue" d="M141.617,-149.046C155.453,-161.238 175.713,-177.392 196,-187.5 202.798,-190.887 210.145,-193.857 217.581,-196.445"/>
<polygon fill="midnightblue" stroke="midnightblue" points="143.653,-146.169 133.889,-142.057 138.958,-151.361 143.653,-146.169"/>
</g>
</g>
</svg>
        <g id="navigator" transform="translate(0 0)" fill="#404254">
                <rect fill="#f2f5e9" fill-opacity="0.5" stroke="#606060" stroke-width=".5" x="0" y="0" width="60" height="60"/>
                <use id="zoomplus" xlink:href="#zoomPlus" x="17" y="9" onmousedown="handleZoom(evt,'in')"/>
                <use id="zoomminus" xlink:href="#zoomMin" x="42" y="9" onmousedown="handleZoom(evt,'out')"/>
                <use id="reset" xlink:href="#resetDef" x="30" y="36" onmousedown="handleReset()"/>
                <g id="arrowUp" xlink:href="#dirArrow" transform="translate(30 24)" onmousedown="handlePan(0,-1)">
                  <use xlink:href="#rim" fill="#404040">
                        <set attributeName="fill" to="#808080" begin="arrowUp.mouseover" end="arrowUp.mouseout"/>
                  </use>
                  <path fill="none" stroke="white" stroke-width="1.5" d="M0,-3.0v7 M-2.5,-0.5L0,-3.0L2.5,-0.5"/>
                </g>
                <g id="arrowRight" xlink:href="#dirArrow" transform="rotate(90) translate(36 -43)" onmousedown="handlePan(1,0)">
                  <use xlink:href="#rim" fill="#404040">
                        <set attributeName="fill" to="#808080" begin="arrowRight.mouseover" end="arrowRight.mouseout"/>
                  </use>
                  <path fill="none" stroke="white" stroke-width="1.5" d="M0,-3.0v7 M-2.5,-0.5L0,-3.0L2.5,-0.5"/>
                </g>
                <g id="arrowDown" xlink:href="#dirArrow" transform="rotate(180) translate(-30 -48)" onmousedown="handlePan(0,1)">
                  <use xlink:href="#rim" fill="#404040">
                        <set attributeName="fill" to="#808080" begin="arrowDown.mouseover" end="arrowDown.mouseout"/>
                  </use>
                  <path fill="none" stroke="white" stroke-width="1.5" d="M0,-3.0v7 M-2.5,-0.5L0,-3.0L2.5,-0.5"/>
                </g>
                <g id="arrowLeft" xlink:href="#dirArrow" transform="rotate(270) translate(-36 17)" onmousedown="handlePan(-1,0)">
                  <use xlink:href="#rim" fill="#404040">
                        <set attributeName="fill" to="#808080" begin="arrowLeft.mouseover" end="arrowLeft.mouseout"/>
                  </use>
                  <path fill="none" stroke="white" stroke-width="1.5" d="M0,-3.0v7 M-2.5,-0.5L0,-3.0L2.5,-0.5"/>
                </g>
        </g>
        <svg viewBox="0 0 15 15" width="100%" height="30px" preserveAspectRatio="xMaxYMin meet">
         <g id="arrow_out" transform="scale(0.3 0.3)">
          <a xlink:href="_cool_adafruit___a_d_s1015_8cpp_a6db5edba66e20bba6d5b421c2789af54_icgraph_org.svg" target="_base">
           <rect id="button" ry="5" rx="5" y="6" x="6" height="38" width="38"
                fill="#f2f5e9" fill-opacity="0.5" stroke="#606060" stroke-width="1.0"/>
           <path id="arrow"
             d="M 11.500037,31.436501 C 11.940474,20.09759 22.043105,11.32322 32.158766,21.979434 L 37.068811,17.246167 C 37.068811,17.246167 37.088388,32 37.088388,32 L 22.160133,31.978069 C 22.160133,31.978069 26.997745,27.140456 26.997745,27.140456 C 18.528582,18.264221 13.291696,25.230495 11.500037,31.436501 z"
             style="fill:#404040;"/>
          </a>
         </g>
        </svg>
</svg>
