<?xml version="1.0" encoding="UTF-8" standalone="no"?>
<!DOCTYPE svg PUBLIC "-//W3C//DTD SVG 1.1//EN"
 "http://www.w3.org/Graphics/SVG/1.1/DTD/svg11.dtd">
<!-- Generated by graphviz version 2.38.0 (20140413.2041)
 -->
<!-- Title: readRegister Pages: 1 -->
<!--zoomable 276 -->
<svg id="main" version="1.1" xmlns="http://www.w3.org/2000/svg" xmlns:xlink="http://www.w3.org/1999/xlink" xml:space="preserve" onload="init(evt)">
<style type="text/css"><![CDATA[
.edge:hover path { stroke: red; }
.edge:hover polygon { stroke: red; fill: red; }
]]></style>
<script type="text/javascript"><![CDATA[
var edges = document.getElementsByTagName('g');
if (edges && edges.length) {
  for (var i=0;i<edges.length;i++) {
    if (edges[i].id.substr(0,4)=='edge') {
      edges[i].setAttribute('class','edge');
    }
  }
}
]]></script>
        <defs>
                <circle id="rim" cx="0" cy="0" r="7"/>
                <circle id="rim2" cx="0" cy="0" r="3.5"/>
                <g id="zoomPlus">
                        <use xlink:href="#rim" fill="#404040">
                                <set attributeName="fill" to="#808080" begin="zoomplus.mouseover" end="zoomplus.mouseout"/>
                        </use>
                        <path d="M-4,0h8M0,-4v8" fill="none" stroke="white" stroke-width="1.5" pointer-events="none"/>
                </g>
                <g id="zoomMin">
                        <use xlink:href="#rim" fill="#404040">
                                <set attributeName="fill" to="#808080" begin="zoomminus.mouseover" end="zoomminus.mouseout"/>
                        </use>
                        <path d="M-4,0h8" fill="none" stroke="white" stroke-width="1.5" pointer-events="none"/>
                </g>
                <g id="dirArrow">
                        <path fill="none" stroke="white" stroke-width="1.5" d="M0,-3.0v7 M-2.5,-0.5L0,-3.0L2.5,-0.5"/>
                </g>
               <g id="resetDef">
                       <use xlink:href="#rim2" fill="#404040">
                               <set attributeName="fill" to="#808080" begin="reset.mouseover" end="reset.mouseout"/>
                       </use>
               </g>
        </defs>

<script type="text/javascript">
var viewWidth = 893;
var viewHeight = 276;
var sectionId = 'dynsection-6';
</script>
<script xlink:href="../../svgpan.js"/>
<svg id="graph" class="graph">
<g id="viewport">
<title>readRegister</title>
<polygon fill="white" stroke="none" points="-4,4 -4,-271.5 889,-271.5 889,4 -4,4"/>
<!-- Node65 -->
<g id="node1" class="node"><title>Node65</title>
<polygon fill="#bfbfbf" stroke="black" points="0,-168.5 0,-187.5 72,-187.5 72,-168.5 0,-168.5"/>
<text text-anchor="middle" x="36" y="-175.5" font-family="Helvetica,sans-Serif" font-size="10.00">readRegister</text>
</g>
<!-- Node66 -->
<g id="node2" class="node"><title>Node66</title>
<g id="a_node2"><a xlink:href="../../df/df6/class_adafruit___a_d_s1015.html#ad8f36d80847020778425107f6451a8c2" target="_top" xlink:title="In order to clear the comparator, we need to read the conversion results. This function reads the las...">
<polygon fill="white" stroke="black" points="112,-237 112,-267 248,-267 248,-237 112,-237"/>
<text text-anchor="start" x="120" y="-255" font-family="Helvetica,sans-Serif" font-size="10.00">Adafruit_ADS1015::getLast</text>
<text text-anchor="middle" x="180" y="-244" font-family="Helvetica,sans-Serif" font-size="10.00">ConversionResults</text>
</a>
</g>
</g>
<!-- Node65&#45;&gt;Node66 -->
<g id="edge1" class="edge"><title>Node65&#45;&gt;Node66</title>
<path fill="none" stroke="midnightblue" d="M56.5798,-194.117C70.3182,-204.826 89.4738,-218.595 108,-228 114.497,-231.298 121.549,-234.302 128.603,-236.982"/>
<polygon fill="midnightblue" stroke="midnightblue" points="58.3978,-191.091 48.3951,-187.598 54.0368,-196.566 58.3978,-191.091"/>
</g>
<!-- Node67 -->
<g id="node3" class="node"><title>Node67</title>
<g id="a_node3"><a xlink:href="../../df/df6/class_adafruit___a_d_s1015.html#a56582333958e66efaccd3d4a8a47e3ff" target="_top" xlink:title="Reads the conversion results, measuring the voltage difference between the P (AIN0) and N (AIN1) inpu...">
<polygon fill="white" stroke="black" points="108,-188 108,-218 252,-218 252,-188 108,-188"/>
<text text-anchor="start" x="116" y="-206" font-family="Helvetica,sans-Serif" font-size="10.00">Adafruit_ADS1015::readADC</text>
<text text-anchor="middle" x="180" y="-195" font-family="Helvetica,sans-Serif" font-size="10.00">_Differential_0_1</text>
</a>
</g>
</g>
<!-- Node65&#45;&gt;Node67 -->
<g id="edge2" class="edge"><title>Node65&#45;&gt;Node67</title>
<path fill="none" stroke="midnightblue" d="M82.1962,-185.957C90.4236,-187.406 99.1861,-188.948 107.95,-190.491"/>
<polygon fill="midnightblue" stroke="midnightblue" points="82.5566,-182.467 72.1011,-184.18 81.3428,-189.361 82.5566,-182.467"/>
</g>
<!-- Node68 -->
<g id="node4" class="node"><title>Node68</title>
<g id="a_node4"><a xlink:href="../../df/df6/class_adafruit___a_d_s1015.html#a38311881bcab46f7496c4bb6e4cad576" target="_top" xlink:title="Reads the conversion results, measuring the voltage difference between the P (AIN2) and N (AIN3) inpu...">
<polygon fill="white" stroke="black" points="108,-139 108,-169 252,-169 252,-139 108,-139"/>
<text text-anchor="start" x="116" y="-157" font-family="Helvetica,sans-Serif" font-size="10.00">Adafruit_ADS1015::readADC</text>
<text text-anchor="middle" x="180" y="-146" font-family="Helvetica,sans-Serif" font-size="10.00">_Differential_2_3</text>
</a>
</g>
</g>
<!-- Node65&#45;&gt;Node68 -->
<g id="edge3" class="edge"><title>Node65&#45;&gt;Node68</title>
<path fill="none" stroke="midnightblue" d="M82.1962,-170.361C90.4236,-168.971 99.1861,-167.49 107.95,-166.009"/>
<polygon fill="midnightblue" stroke="midnightblue" points="81.378,-166.95 72.1011,-172.067 82.5446,-173.852 81.378,-166.95"/>
</g>
<!-- Node69 -->
<g id="node5" class="node"><title>Node69</title>
<g id="a_node5"><a xlink:href="../../df/df6/class_adafruit___a_d_s1015.html#a40f38b9e1f3ec397c0670dd632510235" target="_top" xlink:title="Gets a single&#45;ended ADC reading from the specified channel. ">
<polygon fill="white" stroke="black" points="108,-90 108,-120 252,-120 252,-90 108,-90"/>
<text text-anchor="start" x="116" y="-108" font-family="Helvetica,sans-Serif" font-size="10.00">Adafruit_ADS1015::readADC</text>
<text text-anchor="middle" x="180" y="-97" font-family="Helvetica,sans-Serif" font-size="10.00">_SingleEnded</text>
</a>
</g>
</g>
<!-- Node65&#45;&gt;Node69 -->
<g id="edge4" class="edge"><title>Node65&#45;&gt;Node69</title>
<path fill="none" stroke="midnightblue" d="M57.2107,-162.285C70.9706,-152.112 89.9041,-139.113 108,-130 115.236,-126.356 123.132,-123.01 130.944,-120.033"/>
<polygon fill="midnightblue" stroke="midnightblue" points="54.8546,-159.678 48.9763,-168.493 59.0684,-165.268 54.8546,-159.678"/>
</g>
<!-- Node70 -->
<g id="node6" class="node"><title>Node70</title>
<g id="a_node6"><a xlink:href="../../d6/d03/class_irene3000.html#a78a87eb7cf295b95c12b2ebd51c2bb77" target="_top" xlink:title="Irene3000::readButton">
<polygon fill="white" stroke="black" points="304.5,-190.5 304.5,-209.5 417.5,-209.5 417.5,-190.5 304.5,-190.5"/>
<text text-anchor="middle" x="361" y="-197.5" font-family="Helvetica,sans-Serif" font-size="10.00">Irene3000::readButton</text>
</a>
</g>
</g>
<!-- Node69&#45;&gt;Node70 -->
<g id="edge5" class="edge"><title>Node69&#45;&gt;Node70</title>
<path fill="none" stroke="midnightblue" d="M244.172,-124.776C246.9,-126.391 249.526,-128.129 252,-130 274.132,-146.732 265.213,-165.173 288,-181 293.628,-184.909 300.011,-188.013 306.596,-190.479"/>
<polygon fill="midnightblue" stroke="midnightblue" points="245.651,-121.599 235.173,-120.028 242.385,-127.79 245.651,-121.599"/>
</g>
<!-- Node73 -->
<g id="node9" class="node"><title>Node73</title>
<g id="a_node9"><a xlink:href="../../d6/d03/class_irene3000.html#ae73bd2ed14a199a7e83f4d6458476a7c" target="_top" xlink:title="Irene3000::readADSChannel2">
<polygon fill="white" stroke="black" points="288,-76.5 288,-95.5 434,-95.5 434,-76.5 288,-76.5"/>
<text text-anchor="middle" x="361" y="-83.5" font-family="Helvetica,sans-Serif" font-size="10.00">Irene3000::readADSChannel2</text>
</a>
</g>
</g>
<!-- Node69&#45;&gt;Node73 -->
<g id="edge8" class="edge"><title>Node69&#45;&gt;Node73</title>
<path fill="none" stroke="midnightblue" d="M262.055,-96.3964C270.676,-95.4813 279.403,-94.555 287.911,-93.6519"/>
<polygon fill="midnightblue" stroke="midnightblue" points="261.577,-92.9273 252.003,-97.4634 262.316,-99.8882 261.577,-92.9273"/>
</g>
<!-- Node78 -->
<g id="node14" class="node"><title>Node78</title>
<g id="a_node14"><a xlink:href="../../d6/d03/class_irene3000.html#a436fc0a06681cd0784aba56b9707f19a" target="_top" xlink:title="Irene3000::readPh">
<polygon fill="white" stroke="black" points="313,-38.5 313,-57.5 409,-57.5 409,-38.5 313,-38.5"/>
<text text-anchor="middle" x="361" y="-45.5" font-family="Helvetica,sans-Serif" font-size="10.00">Irene3000::readPh</text>
</a>
</g>
</g>
<!-- Node69&#45;&gt;Node78 -->
<g id="edge13" class="edge"><title>Node69&#45;&gt;Node78</title>
<path fill="none" stroke="midnightblue" d="M230.574,-86.4257C248.552,-79.9472 269.089,-72.8422 288,-67 298.746,-63.6802 310.504,-60.4225 321.344,-57.568"/>
<polygon fill="midnightblue" stroke="midnightblue" points="229.08,-83.2445 220.876,-89.9484 231.47,-89.8239 229.08,-83.2445"/>
</g>
<!-- Node79 -->
<g id="node15" class="node"><title>Node79</title>
<g id="a_node15"><a xlink:href="../../d6/d03/class_irene3000.html#a80bc6dfea106dc3bc54fa20204d4d5dc" target="_top" xlink:title="Irene3000::readTemp">
<polygon fill="white" stroke="black" points="306.5,-0.5 306.5,-19.5 415.5,-19.5 415.5,-0.5 306.5,-0.5"/>
<text text-anchor="middle" x="361" y="-7.5" font-family="Helvetica,sans-Serif" font-size="10.00">Irene3000::readTemp</text>
</a>
</g>
</g>
<!-- Node69&#45;&gt;Node79 -->
<g id="edge15" class="edge"><title>Node69&#45;&gt;Node79</title>
<path fill="none" stroke="midnightblue" d="M205.624,-83.5748C226.337,-66.562 257.394,-43.3267 288,-29 296.079,-25.2183 305.033,-22.0948 313.805,-19.5496"/>
<polygon fill="midnightblue" stroke="midnightblue" points="203.38,-80.8891 197.948,-89.9855 207.867,-86.2619 203.38,-80.8891"/>
</g>
<!-- Node80 -->
<g id="node16" class="node"><title>Node80</title>
<g id="a_node16"><a xlink:href="../../d6/d03/class_irene3000.html#a1d3299202e4cb7afcff9c9e3e95d94c1" target="_top" xlink:title="Irene3000::calibratepH7">
<polygon fill="white" stroke="black" points="301,-152.5 301,-171.5 421,-171.5 421,-152.5 301,-152.5"/>
<text text-anchor="middle" x="361" y="-159.5" font-family="Helvetica,sans-Serif" font-size="10.00">Irene3000::calibratepH7</text>
</a>
</g>
</g>
<!-- Node69&#45;&gt;Node80 -->
<g id="edge17" class="edge"><title>Node69&#45;&gt;Node80</title>
<path fill="none" stroke="midnightblue" d="M233.53,-123.444C239.758,-125.646 246.022,-127.868 252,-130 268.023,-135.714 271.76,-137.936 288,-143 298.737,-146.348 310.492,-149.615 321.333,-152.469"/>
<polygon fill="midnightblue" stroke="midnightblue" points="234.415,-120.045 223.821,-120.016 232.085,-126.645 234.415,-120.045"/>
</g>
<!-- Node82 -->
<g id="node18" class="node"><title>Node82</title>
<g id="a_node18"><a xlink:href="../../d6/d03/class_irene3000.html#aa140dd026922a04981edfd04d46cabbe" target="_top" xlink:title="Irene3000::calibratepH4">
<polygon fill="white" stroke="black" points="301,-114.5 301,-133.5 421,-133.5 421,-114.5 301,-114.5"/>
<text text-anchor="middle" x="361" y="-121.5" font-family="Helvetica,sans-Serif" font-size="10.00">Irene3000::calibratepH4</text>
</a>
</g>
</g>
<!-- Node69&#45;&gt;Node82 -->
<g id="edge21" class="edge"><title>Node69&#45;&gt;Node82</title>
<path fill="none" stroke="midnightblue" d="M261.962,-113.594C275.074,-114.985 288.432,-116.403 300.897,-117.727"/>
<polygon fill="midnightblue" stroke="midnightblue" points="262.316,-110.112 252.003,-112.537 261.577,-117.073 262.316,-110.112"/>
</g>
<!-- Node71 -->
<g id="node7" class="node"><title>Node71</title>
<g id="a_node7"><a xlink:href="../../d6/d03/class_irene3000.html#ad5891806c500ae1007afe52b9e304c2b" target="_top" xlink:title="Irene3000::begin">
<polygon fill="white" stroke="black" points="474.5,-152.5 474.5,-171.5 563.5,-171.5 563.5,-152.5 474.5,-152.5"/>
<text text-anchor="middle" x="519" y="-159.5" font-family="Helvetica,sans-Serif" font-size="10.00">Irene3000::begin</text>
</a>
</g>
</g>
<!-- Node70&#45;&gt;Node71 -->
<g id="edge6" class="edge"><title>Node70&#45;&gt;Node71</title>
<path fill="none" stroke="midnightblue" d="M411.132,-188.032C432.993,-182.707 458.376,-176.524 478.918,-171.52"/>
<polygon fill="midnightblue" stroke="midnightblue" points="410.253,-184.644 401.365,-190.411 411.91,-191.445 410.253,-184.644"/>
</g>
<!-- Node72 -->
<g id="node8" class="node"><title>Node72</title>
<g id="a_node8"><a xlink:href="../../d7/df9/class_cool_board.html#acba7c5aef7268b2c0044bdb54d3b9d76" target="_top" xlink:title="CoolBoard::begin">
<polygon fill="white" stroke="black" points="619.5,-152.5 619.5,-171.5 711.5,-171.5 711.5,-152.5 619.5,-152.5"/>
<text text-anchor="middle" x="665.5" y="-159.5" font-family="Helvetica,sans-Serif" font-size="10.00">CoolBoard::begin</text>
</a>
</g>
</g>
<!-- Node71&#45;&gt;Node72 -->
<g id="edge7" class="edge"><title>Node71&#45;&gt;Node72</title>
<path fill="none" stroke="midnightblue" d="M573.902,-162C588.88,-162 604.985,-162 619.401,-162"/>
<polygon fill="midnightblue" stroke="midnightblue" points="573.747,-158.5 563.747,-162 573.747,-165.5 573.747,-158.5"/>
</g>
<!-- Node74 -->
<g id="node10" class="node"><title>Node74</title>
<g id="a_node10"><a xlink:href="../../d6/d03/class_irene3000.html#a852a170feea994ea1df01c6b245b5d9a" target="_top" xlink:title="Irene3000::read">
<polygon fill="white" stroke="black" points="477,-43.5 477,-62.5 561,-62.5 561,-43.5 477,-43.5"/>
<text text-anchor="middle" x="519" y="-50.5" font-family="Helvetica,sans-Serif" font-size="10.00">Irene3000::read</text>
</a>
</g>
</g>
<!-- Node73&#45;&gt;Node74 -->
<g id="edge9" class="edge"><title>Node73&#45;&gt;Node74</title>
<path fill="none" stroke="midnightblue" d="M416.922,-74.3819C436.679,-70.2025 458.607,-65.5638 476.976,-61.6781"/>
<polygon fill="midnightblue" stroke="midnightblue" points="416.181,-70.9611 407.122,-76.455 417.63,-77.8096 416.181,-70.9611"/>
</g>
<!-- Node75 -->
<g id="node11" class="node"><title>Node75</title>
<g id="a_node11"><a xlink:href="../../d7/df9/class_cool_board.html#ad03abdce2e65f520bbf2cff0f2d083cf" target="_top" xlink:title="CoolBoard::readSensors">
<polygon fill="white" stroke="black" points="604,-52.5 604,-71.5 727,-71.5 727,-52.5 604,-52.5"/>
<text text-anchor="middle" x="665.5" y="-59.5" font-family="Helvetica,sans-Serif" font-size="10.00">CoolBoard::readSensors</text>
</a>
</g>
</g>
<!-- Node74&#45;&gt;Node75 -->
<g id="edge10" class="edge"><title>Node74&#45;&gt;Node75</title>
<path fill="none" stroke="midnightblue" d="M571.327,-56.1968C581.887,-56.8546 593.1,-57.553 603.952,-58.2288"/>
<polygon fill="midnightblue" stroke="midnightblue" points="571.22,-52.6835 561.021,-55.555 570.784,-59.6699 571.22,-52.6835"/>
</g>
<!-- Node76 -->
<g id="node12" class="node"><title>Node76</title>
<g id="a_node12"><a xlink:href="../../d7/df9/class_cool_board.html#aa0bbc4bc605e35618d18e68795c61363" target="_top" xlink:title="CoolBoard::onLineMode">
<polygon fill="white" stroke="black" points="763.5,-99.5 763.5,-118.5 884.5,-118.5 884.5,-99.5 763.5,-99.5"/>
<text text-anchor="middle" x="824" y="-106.5" font-family="Helvetica,sans-Serif" font-size="10.00">CoolBoard::onLineMode</text>
</a>
</g>
</g>
<!-- Node75&#45;&gt;Node76 -->
<g id="edge11" class="edge"><title>Node75&#45;&gt;Node76</title>
<path fill="none" stroke="midnightblue" d="M707.783,-74.3982C733.863,-82.2304 767.056,-92.1988 791.109,-99.4224"/>
<polygon fill="midnightblue" stroke="midnightblue" points="708.754,-71.0354 698.17,-71.5112 706.741,-77.7396 708.754,-71.0354"/>
</g>
<!-- Node77 -->
<g id="node13" class="node"><title>Node77</title>
<g id="a_node13"><a xlink:href="../../d7/df9/class_cool_board.html#ae6b5e1274d760462290192acea4adca8" target="_top" xlink:title="CoolBoard::offLineMode">
<polygon fill="white" stroke="black" points="763,-52.5 763,-71.5 885,-71.5 885,-52.5 763,-52.5"/>
<text text-anchor="middle" x="824" y="-59.5" font-family="Helvetica,sans-Serif" font-size="10.00">CoolBoard::offLineMode</text>
</a>
</g>
</g>
<!-- Node75&#45;&gt;Node77 -->
<g id="edge12" class="edge"><title>Node75&#45;&gt;Node77</title>
<path fill="none" stroke="midnightblue" d="M737.059,-62C745.692,-62 754.452,-62 762.912,-62"/>
<polygon fill="midnightblue" stroke="midnightblue" points="737.007,-58.5001 727.007,-62 737.007,-65.5001 737.007,-58.5001"/>
</g>
<!-- Node78&#45;&gt;Node74 -->
<g id="edge14" class="edge"><title>Node78&#45;&gt;Node74</title>
<path fill="none" stroke="midnightblue" d="M419.295,-49.8364C438.339,-50.4467 459.157,-51.114 476.745,-51.6777"/>
<polygon fill="midnightblue" stroke="midnightblue" points="419.336,-46.336 409.228,-49.5137 419.111,-53.3324 419.336,-46.336"/>
</g>
<!-- Node79&#45;&gt;Node74 -->
<g id="edge16" class="edge"><title>Node79&#45;&gt;Node74</title>
<path fill="none" stroke="midnightblue" d="M408.466,-22.1139C416.968,-24.3725 425.757,-26.735 434,-29 450.965,-33.6614 469.802,-39.0262 485.332,-43.4998"/>
<polygon fill="midnightblue" stroke="midnightblue" points="409.229,-18.6954 398.667,-19.5223 407.44,-25.4628 409.229,-18.6954"/>
</g>
<!-- Node80&#45;&gt;Node71 -->
<g id="edge20" class="edge"><title>Node80&#45;&gt;Node71</title>
<path fill="none" stroke="midnightblue" d="M431.838,-162C446.274,-162 461.087,-162 474.27,-162"/>
<polygon fill="midnightblue" stroke="midnightblue" points="431.422,-158.5 421.422,-162 431.422,-165.5 431.422,-158.5"/>
</g>
<!-- Node81 -->
<g id="node17" class="node"><title>Node81</title>
<g id="a_node17"><a xlink:href="../../d7/df9/class_cool_board.html#a8612756d3f73198cdde857a66f0fe690" target="_top" xlink:title="CoolBoard::update">
<polygon fill="white" stroke="black" points="470,-114.5 470,-133.5 568,-133.5 568,-114.5 470,-114.5"/>
<text text-anchor="middle" x="519" y="-121.5" font-family="Helvetica,sans-Serif" font-size="10.00">CoolBoard::update</text>
</a>
</g>
</g>
<!-- Node80&#45;&gt;Node81 -->
<g id="edge18" class="edge"><title>Node80&#45;&gt;Node81</title>
<path fill="none" stroke="midnightblue" d="M411.132,-150.032C432.993,-144.707 458.376,-138.524 478.918,-133.52"/>
<polygon fill="midnightblue" stroke="midnightblue" points="410.253,-146.644 401.365,-152.411 411.91,-153.445 410.253,-146.644"/>
</g>
<!-- Node81&#45;&gt;Node76 -->
<g id="edge19" class="edge"><title>Node81&#45;&gt;Node76</title>
<path fill="none" stroke="midnightblue" d="M578.293,-121.114C631.443,-118.483 709.625,-114.613 763.232,-111.959"/>
<polygon fill="midnightblue" stroke="midnightblue" points="577.826,-117.633 568.011,-121.623 578.172,-124.624 577.826,-117.633"/>
</g>
<!-- Node82&#45;&gt;Node71 -->
<g id="edge23" class="edge"><title>Node82&#45;&gt;Node71</title>
<path fill="none" stroke="midnightblue" d="M411.132,-135.968C432.993,-141.293 458.376,-147.476 478.918,-152.48"/>
<polygon fill="midnightblue" stroke="midnightblue" points="411.91,-132.555 401.365,-133.589 410.253,-139.356 411.91,-132.555"/>
</g>
<!-- Node82&#45;&gt;Node81 -->
<g id="edge22" class="edge"><title>Node82&#45;&gt;Node81</title>
<path fill="none" stroke="midnightblue" d="M431.677,-124C444.581,-124 457.793,-124 469.877,-124"/>
<polygon fill="midnightblue" stroke="midnightblue" points="431.422,-120.5 421.422,-124 431.422,-127.5 431.422,-120.5"/>
</g>
</g>
</svg>
        <g id="navigator" transform="translate(0 0)" fill="#404254">
                <rect fill="#f2f5e9" fill-opacity="0.5" stroke="#606060" stroke-width=".5" x="0" y="0" width="60" height="60"/>
                <use id="zoomplus" xlink:href="#zoomPlus" x="17" y="9" onmousedown="handleZoom(evt,'in')"/>
                <use id="zoomminus" xlink:href="#zoomMin" x="42" y="9" onmousedown="handleZoom(evt,'out')"/>
                <use id="reset" xlink:href="#resetDef" x="30" y="36" onmousedown="handleReset()"/>
                <g id="arrowUp" xlink:href="#dirArrow" transform="translate(30 24)" onmousedown="handlePan(0,-1)">
                  <use xlink:href="#rim" fill="#404040">
                        <set attributeName="fill" to="#808080" begin="arrowUp.mouseover" end="arrowUp.mouseout"/>
                  </use>
                  <path fill="none" stroke="white" stroke-width="1.5" d="M0,-3.0v7 M-2.5,-0.5L0,-3.0L2.5,-0.5"/>
                </g>
                <g id="arrowRight" xlink:href="#dirArrow" transform="rotate(90) translate(36 -43)" onmousedown="handlePan(1,0)">
                  <use xlink:href="#rim" fill="#404040">
                        <set attributeName="fill" to="#808080" begin="arrowRight.mouseover" end="arrowRight.mouseout"/>
                  </use>
                  <path fill="none" stroke="white" stroke-width="1.5" d="M0,-3.0v7 M-2.5,-0.5L0,-3.0L2.5,-0.5"/>
                </g>
                <g id="arrowDown" xlink:href="#dirArrow" transform="rotate(180) translate(-30 -48)" onmousedown="handlePan(0,1)">
                  <use xlink:href="#rim" fill="#404040">
                        <set attributeName="fill" to="#808080" begin="arrowDown.mouseover" end="arrowDown.mouseout"/>
                  </use>
                  <path fill="none" stroke="white" stroke-width="1.5" d="M0,-3.0v7 M-2.5,-0.5L0,-3.0L2.5,-0.5"/>
                </g>
                <g id="arrowLeft" xlink:href="#dirArrow" transform="rotate(270) translate(-36 17)" onmousedown="handlePan(-1,0)">
                  <use xlink:href="#rim" fill="#404040">
                        <set attributeName="fill" to="#808080" begin="arrowLeft.mouseover" end="arrowLeft.mouseout"/>
                  </use>
                  <path fill="none" stroke="white" stroke-width="1.5" d="M0,-3.0v7 M-2.5,-0.5L0,-3.0L2.5,-0.5"/>
                </g>
        </g>
        <svg viewBox="0 0 15 15" width="100%" height="30px" preserveAspectRatio="xMaxYMin meet">
         <g id="arrow_out" transform="scale(0.3 0.3)">
          <a xlink:href="_cool_adafruit___a_d_s1015_8cpp_a319539381b7551b2f83a92b0b596e97d_icgraph_org.svg" target="_base">
           <rect id="button" ry="5" rx="5" y="6" x="6" height="38" width="38"
                fill="#f2f5e9" fill-opacity="0.5" stroke="#606060" stroke-width="1.0"/>
           <path id="arrow"
             d="M 11.500037,31.436501 C 11.940474,20.09759 22.043105,11.32322 32.158766,21.979434 L 37.068811,17.246167 C 37.068811,17.246167 37.088388,32 37.088388,32 L 22.160133,31.978069 C 22.160133,31.978069 26.997745,27.140456 26.997745,27.140456 C 18.528582,18.264221 13.291696,25.230495 11.500037,31.436501 z"
             style="fill:#404040;"/>
          </a>
         </g>
        </svg>
</svg>
