<?xml version="1.0" encoding="UTF-8" standalone="no"?>
<!DOCTYPE svg PUBLIC "-//W3C//DTD SVG 1.1//EN"
 "http://www.w3.org/Graphics/SVG/1.1/DTD/svg11.dtd">
<!-- Generated by graphviz version 2.38.0 (20140413.2041)
 -->
<!-- Title: writeRegister Pages: 1 -->
<!--zoomable 227 -->
<svg id="main" version="1.1" xmlns="http://www.w3.org/2000/svg" xmlns:xlink="http://www.w3.org/1999/xlink" xml:space="preserve" onload="init(evt)">
<style type="text/css"><![CDATA[
.edge:hover path { stroke: red; }
.edge:hover polygon { stroke: red; fill: red; }
]]></style>
<script type="text/javascript"><![CDATA[
var edges = document.getElementsByTagName('g');
if (edges && edges.length) {
  for (var i=0;i<edges.length;i++) {
    if (edges[i].id.substr(0,4)=='edge') {
      edges[i].setAttribute('class','edge');
    }
  }
}
]]></script>
        <defs>
                <circle id="rim" cx="0" cy="0" r="7"/>
                <circle id="rim2" cx="0" cy="0" r="3.5"/>
                <g id="zoomPlus">
                        <use xlink:href="#rim" fill="#404040">
                                <set attributeName="fill" to="#808080" begin="zoomplus.mouseover" end="zoomplus.mouseout"/>
                        </use>
                        <path d="M-4,0h8M0,-4v8" fill="none" stroke="white" stroke-width="1.5" pointer-events="none"/>
                </g>
                <g id="zoomMin">
                        <use xlink:href="#rim" fill="#404040">
                                <set attributeName="fill" to="#808080" begin="zoomminus.mouseover" end="zoomminus.mouseout"/>
                        </use>
                        <path d="M-4,0h8" fill="none" stroke="white" stroke-width="1.5" pointer-events="none"/>
                </g>
                <g id="dirArrow">
                        <path fill="none" stroke="white" stroke-width="1.5" d="M0,-3.0v7 M-2.5,-0.5L0,-3.0L2.5,-0.5"/>
                </g>
               <g id="resetDef">
                       <use xlink:href="#rim2" fill="#404040">
                               <set attributeName="fill" to="#808080" begin="reset.mouseover" end="reset.mouseout"/>
                       </use>
               </g>
        </defs>

<script type="text/javascript">
var viewWidth = 925;
var viewHeight = 227;
var sectionId = 'dynsection-4';
</script>
<script xlink:href="../../svgpan.js"/>
<svg id="graph" class="graph">
<g id="viewport">
<title>writeRegister</title>
<polygon fill="white" stroke="none" points="-4,4 -4,-222.5 921,-222.5 921,4 -4,4"/>
<!-- Node44 -->
<g id="node1" class="node"><title>Node44</title>
<polygon fill="#bfbfbf" stroke="black" points="0,-119.5 0,-138.5 74,-138.5 74,-119.5 0,-119.5"/>
<text text-anchor="middle" x="37" y="-126.5" font-family="Helvetica,sans-Serif" font-size="10.00">writeRegister</text>
</g>
<!-- Node45 -->
<g id="node2" class="node"><title>Node45</title>
<g id="a_node2"><a xlink:href="../../df/df6/class_adafruit___a_d_s1015.html#a56582333958e66efaccd3d4a8a47e3ff" target="_top" xlink:title="Reads the conversion results, measuring the voltage difference between the P (AIN0) and N (AIN1) inpu...">
<polygon fill="white" stroke="black" points="125,-188 125,-218 269,-218 269,-188 125,-188"/>
<text text-anchor="start" x="133" y="-206" font-family="Helvetica,sans-Serif" font-size="10.00">Adafruit_ADS1015::readADC</text>
<text text-anchor="middle" x="197" y="-195" font-family="Helvetica,sans-Serif" font-size="10.00">_Differential_0_1</text>
</a>
</g>
</g>
<!-- Node44&#45;&gt;Node45 -->
<g id="edge1" class="edge"><title>Node44&#45;&gt;Node45</title>
<path fill="none" stroke="midnightblue" d="M57.3379,-145.115C71.2404,-156.006 90.8401,-169.99 110,-179 117.154,-182.364 124.871,-185.34 132.642,-187.95"/>
<polygon fill="midnightblue" stroke="midnightblue" points="59.4631,-142.333 49.4726,-138.806 55.083,-147.793 59.4631,-142.333"/>
</g>
<!-- Node46 -->
<g id="node3" class="node"><title>Node46</title>
<g id="a_node3"><a xlink:href="../../df/df6/class_adafruit___a_d_s1015.html#a38311881bcab46f7496c4bb6e4cad576" target="_top" xlink:title="Reads the conversion results, measuring the voltage difference between the P (AIN2) and N (AIN3) inpu...">
<polygon fill="white" stroke="black" points="125,-139 125,-169 269,-169 269,-139 125,-139"/>
<text text-anchor="start" x="133" y="-157" font-family="Helvetica,sans-Serif" font-size="10.00">Adafruit_ADS1015::readADC</text>
<text text-anchor="middle" x="197" y="-146" font-family="Helvetica,sans-Serif" font-size="10.00">_Differential_2_3</text>
</a>
</g>
</g>
<!-- Node44&#45;&gt;Node46 -->
<g id="edge2" class="edge"><title>Node44&#45;&gt;Node46</title>
<path fill="none" stroke="midnightblue" d="M84.5016,-136.358C97.1265,-138.355 111.093,-140.565 124.747,-142.726"/>
<polygon fill="midnightblue" stroke="midnightblue" points="84.6725,-132.841 74.2484,-134.736 83.5785,-139.755 84.6725,-132.841"/>
</g>
<!-- Node47 -->
<g id="node4" class="node"><title>Node47</title>
<g id="a_node4"><a xlink:href="../../df/df6/class_adafruit___a_d_s1015.html#a40f38b9e1f3ec397c0670dd632510235" target="_top" xlink:title="Gets a single&#45;ended ADC reading from the specified channel. ">
<polygon fill="white" stroke="black" points="125,-90 125,-120 269,-120 269,-90 125,-90"/>
<text text-anchor="start" x="133" y="-108" font-family="Helvetica,sans-Serif" font-size="10.00">Adafruit_ADS1015::readADC</text>
<text text-anchor="middle" x="197" y="-97" font-family="Helvetica,sans-Serif" font-size="10.00">_SingleEnded</text>
</a>
</g>
</g>
<!-- Node44&#45;&gt;Node47 -->
<g id="edge3" class="edge"><title>Node44&#45;&gt;Node47</title>
<path fill="none" stroke="midnightblue" d="M84.5016,-121.936C97.1265,-120.019 111.093,-117.897 124.747,-115.823"/>
<polygon fill="midnightblue" stroke="midnightblue" points="83.6093,-118.532 74.2484,-123.494 84.6606,-125.452 83.6093,-118.532"/>
</g>
<!-- Node61 -->
<g id="node18" class="node"><title>Node61</title>
<g id="a_node18"><a xlink:href="../../df/df6/class_adafruit___a_d_s1015.html#aecd30775d943ea9d9cff0e3485926596" target="_top" xlink:title="Sets up the comparator to operate in basic mode, causing the ALERT/RDY pin to assert (go from high to...">
<polygon fill="white" stroke="black" points="110,-41 110,-71 284,-71 284,-41 110,-41"/>
<text text-anchor="start" x="118" y="-59" font-family="Helvetica,sans-Serif" font-size="10.00">Adafruit_ADS1015::startComparator</text>
<text text-anchor="middle" x="197" y="-48" font-family="Helvetica,sans-Serif" font-size="10.00">_SingleEnded</text>
</a>
</g>
</g>
<!-- Node44&#45;&gt;Node61 -->
<g id="edge23" class="edge"><title>Node44&#45;&gt;Node61</title>
<path fill="none" stroke="midnightblue" d="M58.115,-113.153C72.0331,-102.817 91.3401,-89.6813 110,-81 118.036,-77.2615 126.756,-73.9485 135.459,-71.0567"/>
<polygon fill="midnightblue" stroke="midnightblue" points="55.6517,-110.629 49.8079,-119.467 59.8874,-116.202 55.6517,-110.629"/>
</g>
<!-- Node48 -->
<g id="node5" class="node"><title>Node48</title>
<g id="a_node5"><a xlink:href="../../d6/d03/class_irene3000.html#a78a87eb7cf295b95c12b2ebd51c2bb77" target="_top" xlink:title="Irene3000::readButton">
<polygon fill="white" stroke="black" points="336.5,-190.5 336.5,-209.5 449.5,-209.5 449.5,-190.5 336.5,-190.5"/>
<text text-anchor="middle" x="393" y="-197.5" font-family="Helvetica,sans-Serif" font-size="10.00">Irene3000::readButton</text>
</a>
</g>
</g>
<!-- Node47&#45;&gt;Node48 -->
<g id="edge4" class="edge"><title>Node47&#45;&gt;Node48</title>
<path fill="none" stroke="midnightblue" d="M275.431,-124.614C278.407,-126.268 281.278,-128.059 284,-130 306.589,-146.11 297.213,-165.173 320,-181 325.628,-184.909 332.011,-188.013 338.596,-190.479"/>
<polygon fill="midnightblue" stroke="midnightblue" points="276.746,-121.36 266.231,-120.058 273.639,-127.633 276.746,-121.36"/>
</g>
<!-- Node51 -->
<g id="node8" class="node"><title>Node51</title>
<g id="a_node8"><a xlink:href="../../d6/d03/class_irene3000.html#ae73bd2ed14a199a7e83f4d6458476a7c" target="_top" xlink:title="Irene3000::readADSChannel2">
<polygon fill="white" stroke="black" points="320,-76.5 320,-95.5 466,-95.5 466,-76.5 320,-76.5"/>
<text text-anchor="middle" x="393" y="-83.5" font-family="Helvetica,sans-Serif" font-size="10.00">Irene3000::readADSChannel2</text>
</a>
</g>
</g>
<!-- Node47&#45;&gt;Node51 -->
<g id="edge7" class="edge"><title>Node47&#45;&gt;Node51</title>
<path fill="none" stroke="midnightblue" d="M279.335,-97.0342C292.801,-95.7154 306.68,-94.3561 319.897,-93.0616"/>
<polygon fill="midnightblue" stroke="midnightblue" points="278.748,-93.5748 269.137,-98.033 279.43,-100.542 278.748,-93.5748"/>
</g>
<!-- Node56 -->
<g id="node13" class="node"><title>Node56</title>
<g id="a_node13"><a xlink:href="../../d6/d03/class_irene3000.html#a436fc0a06681cd0784aba56b9707f19a" target="_top" xlink:title="Irene3000::readPh">
<polygon fill="white" stroke="black" points="345,-38.5 345,-57.5 441,-57.5 441,-38.5 345,-38.5"/>
<text text-anchor="middle" x="393" y="-45.5" font-family="Helvetica,sans-Serif" font-size="10.00">Irene3000::readPh</text>
</a>
</g>
</g>
<!-- Node47&#45;&gt;Node56 -->
<g id="edge12" class="edge"><title>Node47&#45;&gt;Node56</title>
<path fill="none" stroke="midnightblue" d="M261.442,-87.0538C269.065,-84.7511 276.723,-82.3689 284,-80 300.176,-74.7342 303.76,-72.0641 320,-67 330.737,-63.6518 342.492,-60.3849 353.333,-57.5308"/>
<polygon fill="midnightblue" stroke="midnightblue" points="260.417,-83.707 251.836,-89.921 262.419,-90.4146 260.417,-83.707"/>
</g>
<!-- Node57 -->
<g id="node14" class="node"><title>Node57</title>
<g id="a_node14"><a xlink:href="../../d6/d03/class_irene3000.html#a80bc6dfea106dc3bc54fa20204d4d5dc" target="_top" xlink:title="Irene3000::readTemp">
<polygon fill="white" stroke="black" points="338.5,-0.5 338.5,-19.5 447.5,-19.5 447.5,-0.5 338.5,-0.5"/>
<text text-anchor="middle" x="393" y="-7.5" font-family="Helvetica,sans-Serif" font-size="10.00">Irene3000::readTemp</text>
</a>
</g>
</g>
<!-- Node47&#45;&gt;Node57 -->
<g id="edge14" class="edge"><title>Node47&#45;&gt;Node57</title>
<path fill="none" stroke="midnightblue" d="M275.431,-85.3855C278.407,-83.7324 281.278,-81.9411 284,-80 306.589,-63.8902 297.213,-44.8274 320,-29 325.628,-25.0913 332.011,-21.9867 338.596,-19.5207"/>
<polygon fill="midnightblue" stroke="midnightblue" points="273.639,-82.3672 266.231,-89.9416 276.746,-88.6401 273.639,-82.3672"/>
</g>
<!-- Node58 -->
<g id="node15" class="node"><title>Node58</title>
<g id="a_node15"><a xlink:href="../../d6/d03/class_irene3000.html#a1d3299202e4cb7afcff9c9e3e95d94c1" target="_top" xlink:title="Irene3000::calibratepH7">
<polygon fill="white" stroke="black" points="333,-152.5 333,-171.5 453,-171.5 453,-152.5 333,-152.5"/>
<text text-anchor="middle" x="393" y="-159.5" font-family="Helvetica,sans-Serif" font-size="10.00">Irene3000::calibratepH7</text>
</a>
</g>
</g>
<!-- Node47&#45;&gt;Node58 -->
<g id="edge16" class="edge"><title>Node47&#45;&gt;Node58</title>
<path fill="none" stroke="midnightblue" d="M261.442,-122.946C269.065,-125.249 276.723,-127.631 284,-130 300.176,-135.266 303.76,-137.936 320,-143 330.737,-146.348 342.492,-149.615 353.333,-152.469"/>
<polygon fill="midnightblue" stroke="midnightblue" points="262.419,-119.585 251.836,-120.079 260.417,-126.293 262.419,-119.585"/>
</g>
<!-- Node60 -->
<g id="node17" class="node"><title>Node60</title>
<g id="a_node17"><a xlink:href="../../d6/d03/class_irene3000.html#aa140dd026922a04981edfd04d46cabbe" target="_top" xlink:title="Irene3000::calibratepH4">
<polygon fill="white" stroke="black" points="333,-114.5 333,-133.5 453,-133.5 453,-114.5 333,-114.5"/>
<text text-anchor="middle" x="393" y="-121.5" font-family="Helvetica,sans-Serif" font-size="10.00">Irene3000::calibratepH4</text>
</a>
</g>
</g>
<!-- Node47&#45;&gt;Node60 -->
<g id="edge20" class="edge"><title>Node47&#45;&gt;Node60</title>
<path fill="none" stroke="midnightblue" d="M279.333,-112.966C297.327,-114.728 316.06,-116.563 332.966,-118.218"/>
<polygon fill="midnightblue" stroke="midnightblue" points="279.43,-109.458 269.137,-111.967 278.748,-116.425 279.43,-109.458"/>
</g>
<!-- Node49 -->
<g id="node6" class="node"><title>Node49</title>
<g id="a_node6"><a xlink:href="../../d6/d03/class_irene3000.html#ad5891806c500ae1007afe52b9e304c2b" target="_top" xlink:title="Irene3000::begin">
<polygon fill="white" stroke="black" points="506.5,-152.5 506.5,-171.5 595.5,-171.5 595.5,-152.5 506.5,-152.5"/>
<text text-anchor="middle" x="551" y="-159.5" font-family="Helvetica,sans-Serif" font-size="10.00">Irene3000::begin</text>
</a>
</g>
</g>
<!-- Node48&#45;&gt;Node49 -->
<g id="edge5" class="edge"><title>Node48&#45;&gt;Node49</title>
<path fill="none" stroke="midnightblue" d="M443.132,-188.032C464.993,-182.707 490.376,-176.524 510.918,-171.52"/>
<polygon fill="midnightblue" stroke="midnightblue" points="442.253,-184.644 433.365,-190.411 443.91,-191.445 442.253,-184.644"/>
</g>
<!-- Node50 -->
<g id="node7" class="node"><title>Node50</title>
<g id="a_node7"><a xlink:href="../../d7/df9/class_cool_board.html#acba7c5aef7268b2c0044bdb54d3b9d76" target="_top" xlink:title="CoolBoard::begin">
<polygon fill="white" stroke="black" points="651.5,-152.5 651.5,-171.5 743.5,-171.5 743.5,-152.5 651.5,-152.5"/>
<text text-anchor="middle" x="697.5" y="-159.5" font-family="Helvetica,sans-Serif" font-size="10.00">CoolBoard::begin</text>
</a>
</g>
</g>
<!-- Node49&#45;&gt;Node50 -->
<g id="edge6" class="edge"><title>Node49&#45;&gt;Node50</title>
<path fill="none" stroke="midnightblue" d="M605.902,-162C620.88,-162 636.985,-162 651.401,-162"/>
<polygon fill="midnightblue" stroke="midnightblue" points="605.747,-158.5 595.747,-162 605.747,-165.5 605.747,-158.5"/>
</g>
<!-- Node52 -->
<g id="node9" class="node"><title>Node52</title>
<g id="a_node9"><a xlink:href="../../d6/d03/class_irene3000.html#a852a170feea994ea1df01c6b245b5d9a" target="_top" xlink:title="Irene3000::read">
<polygon fill="white" stroke="black" points="509,-43.5 509,-62.5 593,-62.5 593,-43.5 509,-43.5"/>
<text text-anchor="middle" x="551" y="-50.5" font-family="Helvetica,sans-Serif" font-size="10.00">Irene3000::read</text>
</a>
</g>
</g>
<!-- Node51&#45;&gt;Node52 -->
<g id="edge8" class="edge"><title>Node51&#45;&gt;Node52</title>
<path fill="none" stroke="midnightblue" d="M448.922,-74.3819C468.679,-70.2025 490.607,-65.5638 508.976,-61.6781"/>
<polygon fill="midnightblue" stroke="midnightblue" points="448.181,-70.9611 439.122,-76.455 449.63,-77.8096 448.181,-70.9611"/>
</g>
<!-- Node53 -->
<g id="node10" class="node"><title>Node53</title>
<g id="a_node10"><a xlink:href="../../d7/df9/class_cool_board.html#ad03abdce2e65f520bbf2cff0f2d083cf" target="_top" xlink:title="CoolBoard::readSensors">
<polygon fill="white" stroke="black" points="636,-52.5 636,-71.5 759,-71.5 759,-52.5 636,-52.5"/>
<text text-anchor="middle" x="697.5" y="-59.5" font-family="Helvetica,sans-Serif" font-size="10.00">CoolBoard::readSensors</text>
</a>
</g>
</g>
<!-- Node52&#45;&gt;Node53 -->
<g id="edge9" class="edge"><title>Node52&#45;&gt;Node53</title>
<path fill="none" stroke="midnightblue" d="M603.327,-56.1968C613.887,-56.8546 625.1,-57.553 635.952,-58.2288"/>
<polygon fill="midnightblue" stroke="midnightblue" points="603.22,-52.6835 593.021,-55.555 602.784,-59.6699 603.22,-52.6835"/>
</g>
<!-- Node54 -->
<g id="node11" class="node"><title>Node54</title>
<g id="a_node11"><a xlink:href="../../d7/df9/class_cool_board.html#aa0bbc4bc605e35618d18e68795c61363" target="_top" xlink:title="CoolBoard::onLineMode">
<polygon fill="white" stroke="black" points="795.5,-99.5 795.5,-118.5 916.5,-118.5 916.5,-99.5 795.5,-99.5"/>
<text text-anchor="middle" x="856" y="-106.5" font-family="Helvetica,sans-Serif" font-size="10.00">CoolBoard::onLineMode</text>
</a>
</g>
</g>
<!-- Node53&#45;&gt;Node54 -->
<g id="edge10" class="edge"><title>Node53&#45;&gt;Node54</title>
<path fill="none" stroke="midnightblue" d="M739.783,-74.3982C765.863,-82.2304 799.056,-92.1988 823.109,-99.4224"/>
<polygon fill="midnightblue" stroke="midnightblue" points="740.754,-71.0354 730.17,-71.5112 738.741,-77.7396 740.754,-71.0354"/>
</g>
<!-- Node55 -->
<g id="node12" class="node"><title>Node55</title>
<g id="a_node12"><a xlink:href="../../d7/df9/class_cool_board.html#ae6b5e1274d760462290192acea4adca8" target="_top" xlink:title="CoolBoard::offLineMode">
<polygon fill="white" stroke="black" points="795,-52.5 795,-71.5 917,-71.5 917,-52.5 795,-52.5"/>
<text text-anchor="middle" x="856" y="-59.5" font-family="Helvetica,sans-Serif" font-size="10.00">CoolBoard::offLineMode</text>
</a>
</g>
</g>
<!-- Node53&#45;&gt;Node55 -->
<g id="edge11" class="edge"><title>Node53&#45;&gt;Node55</title>
<path fill="none" stroke="midnightblue" d="M769.059,-62C777.692,-62 786.452,-62 794.912,-62"/>
<polygon fill="midnightblue" stroke="midnightblue" points="769.007,-58.5001 759.007,-62 769.007,-65.5001 769.007,-58.5001"/>
</g>
<!-- Node56&#45;&gt;Node52 -->
<g id="edge13" class="edge"><title>Node56&#45;&gt;Node52</title>
<path fill="none" stroke="midnightblue" d="M451.295,-49.8364C470.339,-50.4467 491.157,-51.114 508.745,-51.6777"/>
<polygon fill="midnightblue" stroke="midnightblue" points="451.336,-46.336 441.228,-49.5137 451.111,-53.3324 451.336,-46.336"/>
</g>
<!-- Node57&#45;&gt;Node52 -->
<g id="edge15" class="edge"><title>Node57&#45;&gt;Node52</title>
<path fill="none" stroke="midnightblue" d="M440.466,-22.1139C448.968,-24.3725 457.757,-26.735 466,-29 482.965,-33.6614 501.802,-39.0262 517.332,-43.4998"/>
<polygon fill="midnightblue" stroke="midnightblue" points="441.229,-18.6954 430.667,-19.5223 439.44,-25.4628 441.229,-18.6954"/>
</g>
<!-- Node58&#45;&gt;Node49 -->
<g id="edge19" class="edge"><title>Node58&#45;&gt;Node49</title>
<path fill="none" stroke="midnightblue" d="M463.838,-162C478.274,-162 493.087,-162 506.27,-162"/>
<polygon fill="midnightblue" stroke="midnightblue" points="463.422,-158.5 453.422,-162 463.422,-165.5 463.422,-158.5"/>
</g>
<!-- Node59 -->
<g id="node16" class="node"><title>Node59</title>
<g id="a_node16"><a xlink:href="../../d7/df9/class_cool_board.html#a8612756d3f73198cdde857a66f0fe690" target="_top" xlink:title="CoolBoard::update">
<polygon fill="white" stroke="black" points="502,-114.5 502,-133.5 600,-133.5 600,-114.5 502,-114.5"/>
<text text-anchor="middle" x="551" y="-121.5" font-family="Helvetica,sans-Serif" font-size="10.00">CoolBoard::update</text>
</a>
</g>
</g>
<!-- Node58&#45;&gt;Node59 -->
<g id="edge17" class="edge"><title>Node58&#45;&gt;Node59</title>
<path fill="none" stroke="midnightblue" d="M443.132,-150.032C464.993,-144.707 490.376,-138.524 510.918,-133.52"/>
<polygon fill="midnightblue" stroke="midnightblue" points="442.253,-146.644 433.365,-152.411 443.91,-153.445 442.253,-146.644"/>
</g>
<!-- Node59&#45;&gt;Node54 -->
<g id="edge18" class="edge"><title>Node59&#45;&gt;Node54</title>
<path fill="none" stroke="midnightblue" d="M610.293,-121.114C663.443,-118.483 741.625,-114.613 795.232,-111.959"/>
<polygon fill="midnightblue" stroke="midnightblue" points="609.826,-117.633 600.011,-121.623 610.172,-124.624 609.826,-117.633"/>
</g>
<!-- Node60&#45;&gt;Node49 -->
<g id="edge22" class="edge"><title>Node60&#45;&gt;Node49</title>
<path fill="none" stroke="midnightblue" d="M443.132,-135.968C464.993,-141.293 490.376,-147.476 510.918,-152.48"/>
<polygon fill="midnightblue" stroke="midnightblue" points="443.91,-132.555 433.365,-133.589 442.253,-139.356 443.91,-132.555"/>
</g>
<!-- Node60&#45;&gt;Node59 -->
<g id="edge21" class="edge"><title>Node60&#45;&gt;Node59</title>
<path fill="none" stroke="midnightblue" d="M463.677,-124C476.581,-124 489.793,-124 501.877,-124"/>
<polygon fill="midnightblue" stroke="midnightblue" points="463.422,-120.5 453.422,-124 463.422,-127.5 463.422,-120.5"/>
</g>
</g>
</svg>
        <g id="navigator" transform="translate(0 0)" fill="#404254">
                <rect fill="#f2f5e9" fill-opacity="0.5" stroke="#606060" stroke-width=".5" x="0" y="0" width="60" height="60"/>
                <use id="zoomplus" xlink:href="#zoomPlus" x="17" y="9" onmousedown="handleZoom(evt,'in')"/>
                <use id="zoomminus" xlink:href="#zoomMin" x="42" y="9" onmousedown="handleZoom(evt,'out')"/>
                <use id="reset" xlink:href="#resetDef" x="30" y="36" onmousedown="handleReset()"/>
                <g id="arrowUp" xlink:href="#dirArrow" transform="translate(30 24)" onmousedown="handlePan(0,-1)">
                  <use xlink:href="#rim" fill="#404040">
                        <set attributeName="fill" to="#808080" begin="arrowUp.mouseover" end="arrowUp.mouseout"/>
                  </use>
                  <path fill="none" stroke="white" stroke-width="1.5" d="M0,-3.0v7 M-2.5,-0.5L0,-3.0L2.5,-0.5"/>
                </g>
                <g id="arrowRight" xlink:href="#dirArrow" transform="rotate(90) translate(36 -43)" onmousedown="handlePan(1,0)">
                  <use xlink:href="#rim" fill="#404040">
                        <set attributeName="fill" to="#808080" begin="arrowRight.mouseover" end="arrowRight.mouseout"/>
                  </use>
                  <path fill="none" stroke="white" stroke-width="1.5" d="M0,-3.0v7 M-2.5,-0.5L0,-3.0L2.5,-0.5"/>
                </g>
                <g id="arrowDown" xlink:href="#dirArrow" transform="rotate(180) translate(-30 -48)" onmousedown="handlePan(0,1)">
                  <use xlink:href="#rim" fill="#404040">
                        <set attributeName="fill" to="#808080" begin="arrowDown.mouseover" end="arrowDown.mouseout"/>
                  </use>
                  <path fill="none" stroke="white" stroke-width="1.5" d="M0,-3.0v7 M-2.5,-0.5L0,-3.0L2.5,-0.5"/>
                </g>
                <g id="arrowLeft" xlink:href="#dirArrow" transform="rotate(270) translate(-36 17)" onmousedown="handlePan(-1,0)">
                  <use xlink:href="#rim" fill="#404040">
                        <set attributeName="fill" to="#808080" begin="arrowLeft.mouseover" end="arrowLeft.mouseout"/>
                  </use>
                  <path fill="none" stroke="white" stroke-width="1.5" d="M0,-3.0v7 M-2.5,-0.5L0,-3.0L2.5,-0.5"/>
                </g>
        </g>
        <svg viewBox="0 0 15 15" width="100%" height="30px" preserveAspectRatio="xMaxYMin meet">
         <g id="arrow_out" transform="scale(0.3 0.3)">
          <a xlink:href="_cool_adafruit___a_d_s1015_8cpp_a00ef55774dfb93dd0a7bf561d8451b71_icgraph_org.svg" target="_base">
           <rect id="button" ry="5" rx="5" y="6" x="6" height="38" width="38"
                fill="#f2f5e9" fill-opacity="0.5" stroke="#606060" stroke-width="1.0"/>
           <path id="arrow"
             d="M 11.500037,31.436501 C 11.940474,20.09759 22.043105,11.32322 32.158766,21.979434 L 37.068811,17.246167 C 37.068811,17.246167 37.088388,32 37.088388,32 L 22.160133,31.978069 C 22.160133,31.978069 26.997745,27.140456 26.997745,27.140456 C 18.528582,18.264221 13.291696,25.230495 11.500037,31.436501 z"
             style="fill:#404040;"/>
          </a>
         </g>
        </svg>
</svg>
