<?xml version="1.0" encoding="UTF-8" standalone="no"?>
<!DOCTYPE svg PUBLIC "-//W3C//DTD SVG 1.1//EN"
 "http://www.w3.org/Graphics/SVG/1.1/DTD/svg11.dtd">
<!-- Generated by graphviz version 2.38.0 (20140413.2041)
 -->
<!-- Title: CoolPubSubClient.cpp Pages: 1 -->
<svg width="298pt" height="140pt"
 viewBox="0.00 0.00 298.00 140.00" xmlns="http://www.w3.org/2000/svg" xmlns:xlink="http://www.w3.org/1999/xlink">
<g id="graph0" class="graph" transform="scale(1 1) rotate(0) translate(4 136)">
<title>CoolPubSubClient.cpp</title>
<polygon fill="white" stroke="none" points="-4,4 -4,-136 294,-136 294,4 -4,4"/>
<!-- Node0 -->
<g id="node1" class="node"><title>Node0</title>
<polygon fill="#bfbfbf" stroke="black" points="13,-112.5 13,-131.5 129,-131.5 129,-112.5 13,-112.5"/>
<text text-anchor="middle" x="71" y="-119.5" font-family="Helvetica,sans-Serif" font-size="10.00">CoolPubSubClient.cpp</text>
</g>
<!-- Node1 -->
<g id="node2" class="node"><title>Node1</title>
<g id="a_node2"><a xlink:href="$d5/dfb/_cool_pub_sub_client_8h.html" xlink:title="CoolPubSubClient.h">
<polygon fill="white" stroke="black" points="59.5,-56.5 59.5,-75.5 164.5,-75.5 164.5,-56.5 59.5,-56.5"/>
<text text-anchor="middle" x="112" y="-63.5" font-family="Helvetica,sans-Serif" font-size="10.00">CoolPubSubClient.h</text>
</a>
</g>
</g>
<!-- Node0&#45;&gt;Node1 -->
<g id="edge1" class="edge"><title>Node0&#45;&gt;Node1</title>
<path fill="none" stroke="midnightblue" d="M77.7703,-112.083C83.5616,-104.455 92.0585,-93.2645 99.1375,-83.9408"/>
<polygon fill="midnightblue" stroke="midnightblue" points="102.096,-85.8321 105.356,-75.7511 96.521,-81.5991 102.096,-85.8321"/>
</g>
<!-- Node2 -->
<g id="node3" class="node"><title>Node2</title>
<polygon fill="white" stroke="#bfbfbf" points="0,-0.5 0,-19.5 58,-19.5 58,-0.5 0,-0.5"/>
<text text-anchor="middle" x="29" y="-7.5" font-family="Helvetica,sans-Serif" font-size="10.00">Arduino.h</text>
</g>
<!-- Node0&#45;&gt;Node2 -->
<g id="edge6" class="edge"><title>Node0&#45;&gt;Node2</title>
<path fill="none" stroke="midnightblue" d="M66.4846,-112.178C61.9882,-103.206 55.0468,-88.8378 50,-76 43.8986,-60.4794 38.1637,-42.3966 34.2337,-29.2498"/>
<polygon fill="midnightblue" stroke="midnightblue" points="37.5575,-28.1458 31.3886,-19.5321 30.8395,-30.1127 37.5575,-28.1458"/>
</g>
<!-- Node1&#45;&gt;Node2 -->
<g id="edge2" class="edge"><title>Node1&#45;&gt;Node2</title>
<path fill="none" stroke="midnightblue" d="M98.6646,-56.324C85.838,-47.979 66.215,-35.2122 51.0602,-25.3524"/>
<polygon fill="midnightblue" stroke="midnightblue" points="52.5932,-22.1742 42.3023,-19.6545 48.7757,-28.0417 52.5932,-22.1742"/>
</g>
<!-- Node3 -->
<g id="node4" class="node"><title>Node3</title>
<polygon fill="white" stroke="#bfbfbf" points="76.5,-0.5 76.5,-19.5 147.5,-19.5 147.5,-0.5 76.5,-0.5"/>
<text text-anchor="middle" x="112" y="-7.5" font-family="Helvetica,sans-Serif" font-size="10.00">IPAddress.h</text>
</g>
<!-- Node1&#45;&gt;Node3 -->
<g id="edge3" class="edge"><title>Node1&#45;&gt;Node3</title>
<path fill="none" stroke="midnightblue" d="M112,-56.083C112,-49.0059 112,-38.8611 112,-29.9865"/>
<polygon fill="midnightblue" stroke="midnightblue" points="115.5,-29.751 112,-19.7511 108.5,-29.7511 115.5,-29.751"/>
</g>
<!-- Node4 -->
<g id="node5" class="node"><title>Node4</title>
<polygon fill="white" stroke="#bfbfbf" points="166,-0.5 166,-19.5 216,-19.5 216,-0.5 166,-0.5"/>
<text text-anchor="middle" x="191" y="-7.5" font-family="Helvetica,sans-Serif" font-size="10.00">Client.h</text>
</g>
<!-- Node1&#45;&gt;Node4 -->
<g id="edge4" class="edge"><title>Node1&#45;&gt;Node4</title>
<path fill="none" stroke="midnightblue" d="M124.693,-56.324C136.901,-47.979 155.578,-35.2122 170.003,-25.3524"/>
<polygon fill="midnightblue" stroke="midnightblue" points="172.058,-28.1871 178.339,-19.6545 168.108,-22.4082 172.058,-28.1871"/>
</g>
<!-- Node5 -->
<g id="node6" class="node"><title>Node5</title>
<polygon fill="white" stroke="#bfbfbf" points="234,-0.5 234,-19.5 290,-19.5 290,-0.5 234,-0.5"/>
<text text-anchor="middle" x="262" y="-7.5" font-family="Helvetica,sans-Serif" font-size="10.00">Stream.h</text>
</g>
<!-- Node1&#45;&gt;Node5 -->
<g id="edge5" class="edge"><title>Node1&#45;&gt;Node5</title>
<path fill="none" stroke="midnightblue" d="M135.768,-56.4435C160.893,-47.3986 200.711,-33.064 228.9,-22.9158"/>
<polygon fill="midnightblue" stroke="midnightblue" points="230.12,-26.1968 238.343,-19.5164 227.749,-19.6106 230.12,-26.1968"/>
</g>
</g>
</svg>
