<?xml version="1.0" encoding="UTF-8" standalone="no"?>
<!DOCTYPE svg PUBLIC "-//W3C//DTD SVG 1.1//EN"
 "http://www.w3.org/Graphics/SVG/1.1/DTD/svg11.dtd">
<!-- Generated by graphviz version 2.38.0 (20140413.2041)
 -->
<!-- Title: CoolSparkFunBME280.cpp Pages: 1 -->
<svg width="359pt" height="140pt"
 viewBox="0.00 0.00 359.00 140.00" xmlns="http://www.w3.org/2000/svg" xmlns:xlink="http://www.w3.org/1999/xlink">
<g id="graph0" class="graph" transform="scale(1 1) rotate(0) translate(4 136)">
<title>CoolSparkFunBME280.cpp</title>
<polygon fill="white" stroke="none" points="-4,4 -4,-136 355,-136 355,4 -4,4"/>
<!-- Node0 -->
<g id="node1" class="node"><title>Node0</title>
<polygon fill="#bfbfbf" stroke="black" points="138,-112.5 138,-131.5 273,-131.5 273,-112.5 138,-112.5"/>
<text text-anchor="middle" x="205.5" y="-119.5" font-family="Helvetica,sans-Serif" font-size="10.00">CoolSparkFunBME280.cpp</text>
</g>
<!-- Node1 -->
<g id="node2" class="node"><title>Node1</title>
<g id="a_node2"><a xlink:href="../../d2/d3a/_cool_spark_fun_b_m_e280_8h.html" target="_top" xlink:title="CoolSparkFunBME280.h">
<polygon fill="white" stroke="black" points="0,-56.5 0,-75.5 125,-75.5 125,-56.5 0,-56.5"/>
<text text-anchor="middle" x="62.5" y="-63.5" font-family="Helvetica,sans-Serif" font-size="10.00">CoolSparkFunBME280.h</text>
</a>
</g>
</g>
<!-- Node0&#45;&gt;Node1 -->
<g id="edge1" class="edge"><title>Node0&#45;&gt;Node1</title>
<path fill="none" stroke="midnightblue" d="M182.841,-112.444C159.098,-103.478 121.591,-89.314 94.7616,-79.1827"/>
<polygon fill="midnightblue" stroke="midnightblue" points="95.6445,-75.7749 85.0528,-75.5164 93.1715,-82.3235 95.6445,-75.7749"/>
</g>
<!-- Node2 -->
<g id="node3" class="node"><title>Node2</title>
<polygon fill="white" stroke="#bfbfbf" points="83,-0.5 83,-19.5 132,-19.5 132,-0.5 83,-0.5"/>
<text text-anchor="middle" x="107.5" y="-7.5" font-family="Helvetica,sans-Serif" font-size="10.00">stdint.h</text>
</g>
<!-- Node0&#45;&gt;Node2 -->
<g id="edge3" class="edge"><title>Node0&#45;&gt;Node2</title>
<path fill="none" stroke="midnightblue" d="M197.81,-112.368C181.494,-94.0547 143.18,-51.0489 122.077,-27.3624"/>
<polygon fill="midnightblue" stroke="midnightblue" points="124.42,-24.7298 115.154,-19.5914 119.193,-29.3863 124.42,-24.7298"/>
</g>
<!-- Node3 -->
<g id="node4" class="node"><title>Node3</title>
<polygon fill="white" stroke="#bfbfbf" points="182,-56.5 182,-75.5 229,-75.5 229,-56.5 182,-56.5"/>
<text text-anchor="middle" x="205.5" y="-63.5" font-family="Helvetica,sans-Serif" font-size="10.00">math.h</text>
</g>
<!-- Node0&#45;&gt;Node3 -->
<g id="edge4" class="edge"><title>Node0&#45;&gt;Node3</title>
<path fill="none" stroke="midnightblue" d="M205.5,-112.083C205.5,-105.006 205.5,-94.8611 205.5,-85.9865"/>
<polygon fill="midnightblue" stroke="midnightblue" points="209,-85.751 205.5,-75.7511 202,-85.7511 209,-85.751"/>
</g>
<!-- Node4 -->
<g id="node5" class="node"><title>Node4</title>
<polygon fill="white" stroke="#bfbfbf" points="247,-56.5 247,-75.5 292,-75.5 292,-56.5 247,-56.5"/>
<text text-anchor="middle" x="269.5" y="-63.5" font-family="Helvetica,sans-Serif" font-size="10.00">Wire.h</text>
</g>
<!-- Node0&#45;&gt;Node4 -->
<g id="edge5" class="edge"><title>Node0&#45;&gt;Node4</title>
<path fill="none" stroke="midnightblue" d="M215.783,-112.324C225.336,-104.263 239.78,-92.0765 251.284,-82.3695"/>
<polygon fill="midnightblue" stroke="midnightblue" points="253.644,-84.9577 259.03,-75.8339 249.13,-79.6076 253.644,-84.9577"/>
</g>
<!-- Node5 -->
<g id="node6" class="node"><title>Node5</title>
<polygon fill="white" stroke="#bfbfbf" points="310,-56.5 310,-75.5 351,-75.5 351,-56.5 310,-56.5"/>
<text text-anchor="middle" x="330.5" y="-63.5" font-family="Helvetica,sans-Serif" font-size="10.00">SPI.h</text>
</g>
<!-- Node0&#45;&gt;Node5 -->
<g id="edge6" class="edge"><title>Node0&#45;&gt;Node5</title>
<path fill="none" stroke="midnightblue" d="M225.307,-112.444C245.787,-103.596 277.983,-89.6875 301.365,-79.5865"/>
<polygon fill="midnightblue" stroke="midnightblue" points="302.994,-82.6953 310.786,-75.5164 300.218,-76.2692 302.994,-82.6953"/>
</g>
<!-- Node1&#45;&gt;Node2 -->
<g id="edge2" class="edge"><title>Node1&#45;&gt;Node2</title>
<path fill="none" stroke="midnightblue" d="M69.9308,-56.083C76.3527,-48.3768 85.8056,-37.0333 93.6225,-27.6531"/>
<polygon fill="midnightblue" stroke="midnightblue" points="96.4943,-29.674 100.207,-19.7511 91.1168,-25.1927 96.4943,-29.674"/>
</g>
</g>
</svg>
