<?xml version="1.0" encoding="UTF-8" standalone="no"?>
<!DOCTYPE svg PUBLIC "-//W3C//DTD SVG 1.1//EN"
 "http://www.w3.org/Graphics/SVG/1.1/DTD/svg11.dtd">
<!-- Generated by graphviz version 2.38.0 (20140413.2041)
 -->
<!-- Title: CoolBoardLed.cpp Pages: 1 -->
<svg width="324pt" height="140pt"
 viewBox="0.00 0.00 323.50 140.00" xmlns="http://www.w3.org/2000/svg" xmlns:xlink="http://www.w3.org/1999/xlink">
<g id="graph0" class="graph" transform="scale(1 1) rotate(0) translate(4 136)">
<title>CoolBoardLed.cpp</title>
<polygon fill="white" stroke="none" points="-4,4 -4,-136 319.5,-136 319.5,4 -4,4"/>
<!-- Node0 -->
<g id="node1" class="node"><title>Node0</title>
<polygon fill="#bfbfbf" stroke="black" points="88.5,-112.5 88.5,-131.5 185.5,-131.5 185.5,-112.5 88.5,-112.5"/>
<text text-anchor="middle" x="137" y="-119.5" font-family="Helvetica,sans-Serif" font-size="10.00">CoolBoardLed.cpp</text>
</g>
<!-- Node1 -->
<g id="node2" class="node"><title>Node1</title>
<polygon fill="white" stroke="#bfbfbf" points="0,-56.5 0,-75.5 38,-75.5 38,-56.5 0,-56.5"/>
<text text-anchor="middle" x="19" y="-63.5" font-family="Helvetica,sans-Serif" font-size="10.00">FS.h</text>
</g>
<!-- Node0&#45;&gt;Node1 -->
<g id="edge1" class="edge"><title>Node0&#45;&gt;Node1</title>
<path fill="none" stroke="midnightblue" d="M118.303,-112.444C99.0555,-103.636 68.8475,-89.8116 46.7999,-79.722"/>
<polygon fill="midnightblue" stroke="midnightblue" points="48.1595,-76.4951 37.61,-75.5164 45.2466,-82.8603 48.1595,-76.4951"/>
</g>
<!-- Node2 -->
<g id="node3" class="node"><title>Node2</title>
<polygon fill="white" stroke="#bfbfbf" points="50,-0.5 50,-19.5 108,-19.5 108,-0.5 50,-0.5"/>
<text text-anchor="middle" x="79" y="-7.5" font-family="Helvetica,sans-Serif" font-size="10.00">Arduino.h</text>
</g>
<!-- Node0&#45;&gt;Node2 -->
<g id="edge2" class="edge"><title>Node0&#45;&gt;Node2</title>
<path fill="none" stroke="midnightblue" d="M121.848,-112.436C109.632,-104.64 93.186,-91.9278 85,-76 77.6343,-61.6683 76.5998,-43.2049 77.1357,-29.6207"/>
<polygon fill="midnightblue" stroke="midnightblue" points="80.6333,-29.7782 77.8508,-19.5553 73.6509,-29.2821 80.6333,-29.7782"/>
</g>
<!-- Node3 -->
<g id="node4" class="node"><title>Node3</title>
<polygon fill="white" stroke="#bfbfbf" points="153,-0.5 153,-19.5 235,-19.5 235,-0.5 153,-0.5"/>
<text text-anchor="middle" x="194" y="-7.5" font-family="Helvetica,sans-Serif" font-size="10.00">NeoPixelBus.h</text>
</g>
<!-- Node0&#45;&gt;Node3 -->
<g id="edge3" class="edge"><title>Node0&#45;&gt;Node3</title>
<path fill="none" stroke="midnightblue" d="M152.215,-112.468C164.469,-104.691 180.936,-91.9899 189,-76 196.247,-61.6311 196.986,-43.1718 196.211,-29.5986"/>
<polygon fill="midnightblue" stroke="midnightblue" points="199.689,-29.1925 195.313,-19.5433 192.716,-29.8149 199.689,-29.1925"/>
</g>
<!-- Node4 -->
<g id="node5" class="node"><title>Node4</title>
<g id="a_node5"><a xlink:href="$d0/da6/_cool_board_led_8h.html" xlink:title="CoolBoardLed Header file. ">
<polygon fill="white" stroke="black" points="94,-56.5 94,-75.5 180,-75.5 180,-56.5 94,-56.5"/>
<text text-anchor="middle" x="137" y="-63.5" font-family="Helvetica,sans-Serif" font-size="10.00">CoolBoardLed.h</text>
</a>
</g>
</g>
<!-- Node0&#45;&gt;Node4 -->
<g id="edge4" class="edge"><title>Node0&#45;&gt;Node4</title>
<path fill="none" stroke="midnightblue" d="M137,-112.083C137,-105.006 137,-94.8611 137,-85.9865"/>
<polygon fill="midnightblue" stroke="midnightblue" points="140.5,-85.751 137,-75.7511 133.5,-85.7511 140.5,-85.751"/>
</g>
<!-- Node5 -->
<g id="node6" class="node"><title>Node5</title>
<polygon fill="white" stroke="#bfbfbf" points="236.5,-56.5 236.5,-75.5 315.5,-75.5 315.5,-56.5 236.5,-56.5"/>
<text text-anchor="middle" x="276" y="-63.5" font-family="Helvetica,sans-Serif" font-size="10.00">ArduinoJson.h</text>
</g>
<!-- Node0&#45;&gt;Node5 -->
<g id="edge7" class="edge"><title>Node0&#45;&gt;Node5</title>
<path fill="none" stroke="midnightblue" d="M159.025,-112.444C182.104,-103.478 218.562,-89.314 244.641,-79.1827"/>
<polygon fill="midnightblue" stroke="midnightblue" points="246.024,-82.4002 254.078,-75.5164 243.489,-75.8753 246.024,-82.4002"/>
</g>
<!-- Node4&#45;&gt;Node2 -->
<g id="edge5" class="edge"><title>Node4&#45;&gt;Node2</title>
<path fill="none" stroke="midnightblue" d="M127.681,-56.324C119.107,-48.3414 106.188,-36.3128 95.8124,-26.6529"/>
<polygon fill="midnightblue" stroke="midnightblue" points="98.1922,-24.0865 88.4883,-19.8339 93.4223,-29.2098 98.1922,-24.0865"/>
</g>
<!-- Node4&#45;&gt;Node3 -->
<g id="edge6" class="edge"><title>Node4&#45;&gt;Node3</title>
<path fill="none" stroke="midnightblue" d="M146.158,-56.324C154.501,-48.4196 167.032,-36.5482 177.177,-26.9377"/>
<polygon fill="midnightblue" stroke="midnightblue" points="179.823,-29.2522 184.675,-19.8339 175.009,-24.1705 179.823,-29.2522"/>
</g>
</g>
</svg>
