<?xml version="1.0" encoding="UTF-8" standalone="no"?>
<!DOCTYPE svg PUBLIC "-//W3C//DTD SVG 1.1//EN"
 "http://www.w3.org/Graphics/SVG/1.1/DTD/svg11.dtd">
<!-- Generated by graphviz version 2.38.0 (20140413.2041)
 -->
<!-- Title: CoolTime::formatDigits Pages: 1 -->
<svg width="749pt" height="104pt"
 viewBox="0.00 0.00 749.00 104.00" xmlns="http://www.w3.org/2000/svg" xmlns:xlink="http://www.w3.org/1999/xlink">
<g id="graph0" class="graph" transform="scale(1 1) rotate(0) translate(4 100)">
<title>CoolTime::formatDigits</title>
<polygon fill="white" stroke="none" points="-4,4 -4,-100 745,-100 745,4 -4,4"/>
<!-- Node78 -->
<g id="node1" class="node"><title>Node78</title>
<polygon fill="#bfbfbf" stroke="black" points="0,-38.5 0,-57.5 118,-57.5 118,-38.5 0,-38.5"/>
<text text-anchor="middle" x="59" y="-45.5" font-family="Helvetica,sans-Serif" font-size="10.00">CoolTime::formatDigits</text>
</g>
<!-- Node79 -->
<g id="node2" class="node"><title>Node79</title>
<g id="a_node2"><a xlink:href="../../d6/d49/class_cool_time.html#ac4f32ee513c1328d984306645e8785a4" target="_top" xlink:title="CoolTime::getESDate">
<polygon fill="white" stroke="black" points="311,-38.5 311,-57.5 424,-57.5 424,-38.5 311,-38.5"/>
<text text-anchor="middle" x="367.5" y="-45.5" font-family="Helvetica,sans-Serif" font-size="10.00">CoolTime::getESDate</text>
</a>
</g>
</g>
<!-- Node78&#45;&gt;Node79 -->
<g id="edge1" class="edge"><title>Node78&#45;&gt;Node79</title>
<path fill="none" stroke="midnightblue" d="M128.014,-48C182.983,-48 259.407,-48 310.793,-48"/>
<polygon fill="midnightblue" stroke="midnightblue" points="128.011,-44.5001 118.011,-48 128.011,-51.5001 128.011,-44.5001"/>
</g>
<!-- Node80 -->
<g id="node3" class="node"><title>Node80</title>
<g id="a_node3"><a xlink:href="../../d6/d49/class_cool_time.html#ab81ea7fdaace111aa01cc1ec84c6d297" target="_top" xlink:title="CoolTime::setDateTime">
<polygon fill="white" stroke="black" points="461,-0.5 461,-19.5 582,-19.5 582,-0.5 461,-0.5"/>
<text text-anchor="middle" x="521.5" y="-7.5" font-family="Helvetica,sans-Serif" font-size="10.00">CoolTime::setDateTime</text>
</a>
</g>
</g>
<!-- Node78&#45;&gt;Node80 -->
<g id="edge11" class="edge"><title>Node78&#45;&gt;Node80</title>
<path fill="none" stroke="midnightblue" d="M128.43,-42.3532C218.494,-34.9212 375.364,-21.9765 460.831,-14.9239"/>
<polygon fill="midnightblue" stroke="midnightblue" points="128.001,-38.8766 118.323,-43.1873 128.577,-45.8529 128.001,-38.8766"/>
</g>
<!-- Node84 -->
<g id="node7" class="node"><title>Node84</title>
<g id="a_node7"><a xlink:href="../../d6/d49/class_cool_time.html#a7a7501c5ca77dd1248bea704c44f986c" target="_top" xlink:title="CoolTime::getTimeDate">
<polygon fill="white" stroke="black" points="154,-76.5 154,-95.5 275,-95.5 275,-76.5 154,-76.5"/>
<text text-anchor="middle" x="214.5" y="-83.5" font-family="Helvetica,sans-Serif" font-size="10.00">CoolTime::getTimeDate</text>
</a>
</g>
</g>
<!-- Node78&#45;&gt;Node84 -->
<g id="edge6" class="edge"><title>Node78&#45;&gt;Node84</title>
<path fill="none" stroke="midnightblue" d="M108.635,-60.04C130.08,-65.3488 154.923,-71.4988 175.044,-76.4799"/>
<polygon fill="midnightblue" stroke="midnightblue" points="109.283,-56.5947 98.7345,-57.589 107.6,-63.3896 109.283,-56.5947"/>
</g>
<!-- Node79&#45;&gt;Node80 -->
<g id="edge2" class="edge"><title>Node79&#45;&gt;Node80</title>
<path fill="none" stroke="midnightblue" d="M416.66,-35.96C437.895,-30.6512 462.495,-24.5012 482.42,-19.5201"/>
<polygon fill="midnightblue" stroke="midnightblue" points="415.709,-32.5901 406.856,-38.411 417.406,-39.3811 415.709,-32.5901"/>
</g>
<!-- Node81 -->
<g id="node4" class="node"><title>Node81</title>
<g id="a_node4"><a xlink:href="../../d7/df9/class_cool_board.html#ae7358fb6e623cfc81b775f5f1734909b" target="_top" xlink:title="CoolBoard::userData">
<polygon fill="white" stroke="black" points="467.5,-38.5 467.5,-57.5 575.5,-57.5 575.5,-38.5 467.5,-38.5"/>
<text text-anchor="middle" x="521.5" y="-45.5" font-family="Helvetica,sans-Serif" font-size="10.00">CoolBoard::userData</text>
</a>
</g>
</g>
<!-- Node79&#45;&gt;Node81 -->
<g id="edge3" class="edge"><title>Node79&#45;&gt;Node81</title>
<path fill="none" stroke="midnightblue" d="M434.263,-48C445.3,-48 456.631,-48 467.301,-48"/>
<polygon fill="midnightblue" stroke="midnightblue" points="434.236,-44.5001 424.236,-48 434.236,-51.5001 434.236,-44.5001"/>
</g>
<!-- Node82 -->
<g id="node5" class="node"><title>Node82</title>
<g id="a_node5"><a xlink:href="../../d7/df9/class_cool_board.html#ae6b5e1274d760462290192acea4adca8" target="_top" xlink:title="CoolBoard::offLineMode">
<polygon fill="white" stroke="black" points="619,-76.5 619,-95.5 741,-95.5 741,-76.5 619,-76.5"/>
<text text-anchor="middle" x="680" y="-83.5" font-family="Helvetica,sans-Serif" font-size="10.00">CoolBoard::offLineMode</text>
</a>
</g>
</g>
<!-- Node81&#45;&gt;Node82 -->
<g id="edge4" class="edge"><title>Node81&#45;&gt;Node82</title>
<path fill="none" stroke="midnightblue" d="M571.789,-59.968C593.72,-65.2931 619.185,-71.4762 639.792,-76.4799"/>
<polygon fill="midnightblue" stroke="midnightblue" points="572.535,-56.5475 561.992,-57.589 570.883,-63.3498 572.535,-56.5475"/>
</g>
<!-- Node83 -->
<g id="node6" class="node"><title>Node83</title>
<g id="a_node6"><a xlink:href="../../d7/df9/class_cool_board.html#aa0bbc4bc605e35618d18e68795c61363" target="_top" xlink:title="CoolBoard::onLineMode">
<polygon fill="white" stroke="black" points="619.5,-38.5 619.5,-57.5 740.5,-57.5 740.5,-38.5 619.5,-38.5"/>
<text text-anchor="middle" x="680" y="-45.5" font-family="Helvetica,sans-Serif" font-size="10.00">CoolBoard::onLineMode</text>
</a>
</g>
</g>
<!-- Node81&#45;&gt;Node83 -->
<g id="edge5" class="edge"><title>Node81&#45;&gt;Node83</title>
<path fill="none" stroke="midnightblue" d="M585.926,-48C596.975,-48 608.433,-48 619.375,-48"/>
<polygon fill="midnightblue" stroke="midnightblue" points="585.921,-44.5001 575.921,-48 585.921,-51.5001 585.921,-44.5001"/>
</g>
<!-- Node84&#45;&gt;Node79 -->
<g id="edge7" class="edge"><title>Node84&#45;&gt;Node79</title>
<path fill="none" stroke="midnightblue" d="M263.343,-73.96C284.439,-68.6512 308.877,-62.5012 328.67,-57.5201"/>
<polygon fill="midnightblue" stroke="midnightblue" points="262.447,-70.5763 253.604,-76.411 264.156,-77.3646 262.447,-70.5763"/>
</g>
<!-- Node85 -->
<g id="node8" class="node"><title>Node85</title>
<g id="a_node8"><a xlink:href="../../d7/df9/class_cool_board.html#ad03abdce2e65f520bbf2cff0f2d083cf" target="_top" xlink:title="CoolBoard::readSensors">
<polygon fill="white" stroke="black" points="460,-76.5 460,-95.5 583,-95.5 583,-76.5 460,-76.5"/>
<text text-anchor="middle" x="521.5" y="-83.5" font-family="Helvetica,sans-Serif" font-size="10.00">CoolBoard::readSensors</text>
</a>
</g>
</g>
<!-- Node84&#45;&gt;Node85 -->
<g id="edge8" class="edge"><title>Node84&#45;&gt;Node85</title>
<path fill="none" stroke="midnightblue" d="M285.302,-86C337.972,-86 409.51,-86 459.815,-86"/>
<polygon fill="midnightblue" stroke="midnightblue" points="285.031,-82.5001 275.031,-86 285.031,-89.5001 285.031,-82.5001"/>
</g>
<!-- Node85&#45;&gt;Node82 -->
<g id="edge9" class="edge"><title>Node85&#45;&gt;Node82</title>
<path fill="none" stroke="midnightblue" d="M593.059,-86C601.692,-86 610.452,-86 618.912,-86"/>
<polygon fill="midnightblue" stroke="midnightblue" points="593.007,-82.5001 583.007,-86 593.007,-89.5001 593.007,-82.5001"/>
</g>
<!-- Node85&#45;&gt;Node83 -->
<g id="edge10" class="edge"><title>Node85&#45;&gt;Node83</title>
<path fill="none" stroke="midnightblue" d="M571.789,-74.032C593.72,-68.7069 619.185,-62.5238 639.792,-57.5201"/>
<polygon fill="midnightblue" stroke="midnightblue" points="570.883,-70.6502 561.992,-76.411 572.535,-77.4525 570.883,-70.6502"/>
</g>
</g>
</svg>
