<?xml version="1.0" encoding="UTF-8" standalone="no"?>
<!DOCTYPE svg PUBLIC "-//W3C//DTD SVG 1.1//EN"
 "http://www.w3.org/Graphics/SVG/1.1/DTD/svg11.dtd">
<!-- Generated by graphviz version 2.38.0 (20140413.2041)
 -->
<!-- Title: CoolTime::begin Pages: 1 -->
<!--zoomable 104 -->
<svg id="main" version="1.1" xmlns="http://www.w3.org/2000/svg" xmlns:xlink="http://www.w3.org/1999/xlink" xml:space="preserve" onload="init(evt)">
<style type="text/css"><![CDATA[
.edge:hover path { stroke: red; }
.edge:hover polygon { stroke: red; fill: red; }
]]></style>
<script type="text/javascript"><![CDATA[
var edges = document.getElementsByTagName('g');
if (edges && edges.length) {
  for (var i=0;i<edges.length;i++) {
    if (edges[i].id.substr(0,4)=='edge') {
      edges[i].setAttribute('class','edge');
    }
  }
}
]]></script>
        <defs>
                <circle id="rim" cx="0" cy="0" r="7"/>
                <circle id="rim2" cx="0" cy="0" r="3.5"/>
                <g id="zoomPlus">
                        <use xlink:href="#rim" fill="#404040">
                                <set attributeName="fill" to="#808080" begin="zoomplus.mouseover" end="zoomplus.mouseout"/>
                        </use>
                        <path d="M-4,0h8M0,-4v8" fill="none" stroke="white" stroke-width="1.5" pointer-events="none"/>
                </g>
                <g id="zoomMin">
                        <use xlink:href="#rim" fill="#404040">
                                <set attributeName="fill" to="#808080" begin="zoomminus.mouseover" end="zoomminus.mouseout"/>
                        </use>
                        <path d="M-4,0h8" fill="none" stroke="white" stroke-width="1.5" pointer-events="none"/>
                </g>
                <g id="dirArrow">
                        <path fill="none" stroke="white" stroke-width="1.5" d="M0,-3.0v7 M-2.5,-0.5L0,-3.0L2.5,-0.5"/>
                </g>
               <g id="resetDef">
                       <use xlink:href="#rim2" fill="#404040">
                               <set attributeName="fill" to="#808080" begin="reset.mouseover" end="reset.mouseout"/>
                       </use>
               </g>
        </defs>

<script type="text/javascript">
var viewWidth = 569;
var viewHeight = 104;
var sectionId = 'dynsection-1';
</script>
<script xlink:href="../../svgpan.js"/>
<svg id="graph" class="graph">
<g id="viewport">
<title>CoolTime::begin</title>
<polygon fill="white" stroke="none" points="-4,4 -4,-100 565,-100 565,4 -4,4"/>
<!-- Node0 -->
<g id="node1" class="node"><title>Node0</title>
<polygon fill="#bfbfbf" stroke="black" points="0,-38.5 0,-57.5 88,-57.5 88,-38.5 0,-38.5"/>
<text text-anchor="middle" x="44" y="-45.5" font-family="Helvetica,sans-Serif" font-size="10.00">CoolTime::begin</text>
</g>
<!-- Node1 -->
<g id="node2" class="node"><title>Node1</title>
<g id="a_node2"><a xlink:href="../../d6/d49/class_cool_time.html#aae601f795452cfa48d9fb337aed483a8" target="_top" xlink:title="CoolTime::update">
<polygon fill="white" stroke="black" points="124,-38.5 124,-57.5 218,-57.5 218,-38.5 124,-38.5"/>
<text text-anchor="middle" x="171" y="-45.5" font-family="Helvetica,sans-Serif" font-size="10.00">CoolTime::update</text>
</a>
</g>
</g>
<!-- Node0&#45;&gt;Node1 -->
<g id="edge1" class="edge"><title>Node0&#45;&gt;Node1</title>
<path fill="none" stroke="midnightblue" d="M88.0179,-48C96.3424,-48 105.179,-48 113.851,-48"/>
<polygon fill="midnightblue" stroke="midnightblue" points="113.915,-51.5001 123.915,-48 113.915,-44.5001 113.915,-51.5001"/>
</g>
<!-- Node2 -->
<g id="node3" class="node"><title>Node2</title>
<g id="a_node3"><a xlink:href="../../d6/d49/class_cool_time.html#a5ae038a4498602b189f76a10bf02adf8" target="_top" xlink:title="CoolTime::isTimeSync">
<polygon fill="white" stroke="black" points="261,-76.5 261,-95.5 377,-95.5 377,-76.5 261,-76.5"/>
<text text-anchor="middle" x="319" y="-83.5" font-family="Helvetica,sans-Serif" font-size="10.00">CoolTime::isTimeSync</text>
</a>
</g>
</g>
<!-- Node1&#45;&gt;Node2 -->
<g id="edge2" class="edge"><title>Node1&#45;&gt;Node2</title>
<path fill="none" stroke="midnightblue" d="M208.842,-57.589C227.848,-62.5358 251.229,-68.6211 271.469,-73.8892"/>
<polygon fill="midnightblue" stroke="midnightblue" points="270.864,-77.3482 281.423,-76.4799 272.627,-70.5739 270.864,-77.3482"/>
</g>
<!-- Node4 -->
<g id="node5" class="node"><title>Node4</title>
<g id="a_node5"><a xlink:href="../../d6/d49/class_cool_time.html#a41fbbbfd651c2079f54d4b2911e4c705" target="_top" xlink:title="CoolTime::getNtpTime">
<polygon fill="white" stroke="black" points="261,-38.5 261,-57.5 377,-57.5 377,-38.5 261,-38.5"/>
<text text-anchor="middle" x="319" y="-45.5" font-family="Helvetica,sans-Serif" font-size="10.00">CoolTime::getNtpTime</text>
</a>
</g>
</g>
<!-- Node1&#45;&gt;Node4 -->
<g id="edge4" class="edge"><title>Node1&#45;&gt;Node4</title>
<path fill="none" stroke="midnightblue" d="M218.195,-48C228.557,-48 239.756,-48 250.777,-48"/>
<polygon fill="midnightblue" stroke="midnightblue" points="250.821,-51.5001 260.821,-48 250.821,-44.5001 250.821,-51.5001"/>
</g>
<!-- Node6 -->
<g id="node7" class="node"><title>Node6</title>
<g id="a_node7"><a xlink:href="../../d6/d49/class_cool_time.html#ae9658c9b377510d469e3b88edf33ee85" target="_top" xlink:title="CoolTime::saveTimeSync">
<polygon fill="white" stroke="black" points="254,-0.5 254,-19.5 384,-19.5 384,-0.5 254,-0.5"/>
<text text-anchor="middle" x="319" y="-7.5" font-family="Helvetica,sans-Serif" font-size="10.00">CoolTime::saveTimeSync</text>
</a>
</g>
</g>
<!-- Node1&#45;&gt;Node6 -->
<g id="edge6" class="edge"><title>Node1&#45;&gt;Node6</title>
<path fill="none" stroke="midnightblue" d="M208.842,-38.411C227.848,-33.4642 251.229,-27.3789 271.469,-22.1108"/>
<polygon fill="midnightblue" stroke="midnightblue" points="272.627,-25.4261 281.423,-19.5201 270.864,-18.6518 272.627,-25.4261"/>
</g>
<!-- Node3 -->
<g id="node4" class="node"><title>Node3</title>
<g id="a_node4"><a xlink:href="../../d6/d49/class_cool_time.html#a5d17f707a9d337720493b2bce9d41c21" target="_top" xlink:title="CoolTime::getLastSyncTime">
<polygon fill="white" stroke="black" points="420,-76.5 420,-95.5 561,-95.5 561,-76.5 420,-76.5"/>
<text text-anchor="middle" x="490.5" y="-83.5" font-family="Helvetica,sans-Serif" font-size="10.00">CoolTime::getLastSyncTime</text>
</a>
</g>
</g>
<!-- Node2&#45;&gt;Node3 -->
<g id="edge3" class="edge"><title>Node2&#45;&gt;Node3</title>
<path fill="none" stroke="midnightblue" d="M377.385,-86C387.826,-86 398.889,-86 409.837,-86"/>
<polygon fill="midnightblue" stroke="midnightblue" points="409.839,-89.5001 419.839,-86 409.839,-82.5001 409.839,-89.5001"/>
</g>
<!-- Node5 -->
<g id="node6" class="node"><title>Node5</title>
<g id="a_node6"><a xlink:href="../../d6/d49/class_cool_time.html#a236a38d120dc53bc67456d763838c5a1" target="_top" xlink:title="CoolTime::sendNTPpacket">
<polygon fill="white" stroke="black" points="423,-38.5 423,-57.5 558,-57.5 558,-38.5 423,-38.5"/>
<text text-anchor="middle" x="490.5" y="-45.5" font-family="Helvetica,sans-Serif" font-size="10.00">CoolTime::sendNTPpacket</text>
</a>
</g>
</g>
<!-- Node4&#45;&gt;Node5 -->
<g id="edge5" class="edge"><title>Node4&#45;&gt;Node5</title>
<path fill="none" stroke="midnightblue" d="M377.385,-48C388.676,-48 400.693,-48 412.507,-48"/>
<polygon fill="midnightblue" stroke="midnightblue" points="412.813,-51.5001 422.813,-48 412.813,-44.5001 412.813,-51.5001"/>
</g>
</g>
</svg>
        <g id="navigator" transform="translate(0 0)" fill="#404254">
                <rect fill="#f2f5e9" fill-opacity="0.5" stroke="#606060" stroke-width=".5" x="0" y="0" width="60" height="60"/>
                <use id="zoomplus" xlink:href="#zoomPlus" x="17" y="9" onmousedown="handleZoom(evt,'in')"/>
                <use id="zoomminus" xlink:href="#zoomMin" x="42" y="9" onmousedown="handleZoom(evt,'out')"/>
                <use id="reset" xlink:href="#resetDef" x="30" y="36" onmousedown="handleReset()"/>
                <g id="arrowUp" xlink:href="#dirArrow" transform="translate(30 24)" onmousedown="handlePan(0,-1)">
                  <use xlink:href="#rim" fill="#404040">
                        <set attributeName="fill" to="#808080" begin="arrowUp.mouseover" end="arrowUp.mouseout"/>
                  </use>
                  <path fill="none" stroke="white" stroke-width="1.5" d="M0,-3.0v7 M-2.5,-0.5L0,-3.0L2.5,-0.5"/>
                </g>
                <g id="arrowRight" xlink:href="#dirArrow" transform="rotate(90) translate(36 -43)" onmousedown="handlePan(1,0)">
                  <use xlink:href="#rim" fill="#404040">
                        <set attributeName="fill" to="#808080" begin="arrowRight.mouseover" end="arrowRight.mouseout"/>
                  </use>
                  <path fill="none" stroke="white" stroke-width="1.5" d="M0,-3.0v7 M-2.5,-0.5L0,-3.0L2.5,-0.5"/>
                </g>
                <g id="arrowDown" xlink:href="#dirArrow" transform="rotate(180) translate(-30 -48)" onmousedown="handlePan(0,1)">
                  <use xlink:href="#rim" fill="#404040">
                        <set attributeName="fill" to="#808080" begin="arrowDown.mouseover" end="arrowDown.mouseout"/>
                  </use>
                  <path fill="none" stroke="white" stroke-width="1.5" d="M0,-3.0v7 M-2.5,-0.5L0,-3.0L2.5,-0.5"/>
                </g>
                <g id="arrowLeft" xlink:href="#dirArrow" transform="rotate(270) translate(-36 17)" onmousedown="handlePan(-1,0)">
                  <use xlink:href="#rim" fill="#404040">
                        <set attributeName="fill" to="#808080" begin="arrowLeft.mouseover" end="arrowLeft.mouseout"/>
                  </use>
                  <path fill="none" stroke="white" stroke-width="1.5" d="M0,-3.0v7 M-2.5,-0.5L0,-3.0L2.5,-0.5"/>
                </g>
        </g>
        <svg viewBox="0 0 15 15" width="100%" height="30px" preserveAspectRatio="xMaxYMin meet">
         <g id="arrow_out" transform="scale(0.3 0.3)">
          <a xlink:href="class_cool_time_ab1976cf718b950bc31e003c3323b8adb_cgraph_org.svg" target="_base">
           <rect id="button" ry="5" rx="5" y="6" x="6" height="38" width="38"
                fill="#f2f5e9" fill-opacity="0.5" stroke="#606060" stroke-width="1.0"/>
           <path id="arrow"
             d="M 11.500037,31.436501 C 11.940474,20.09759 22.043105,11.32322 32.158766,21.979434 L 37.068811,17.246167 C 37.068811,17.246167 37.088388,32 37.088388,32 L 22.160133,31.978069 C 22.160133,31.978069 26.997745,27.140456 26.997745,27.140456 C 18.528582,18.264221 13.291696,25.230495 11.500037,31.436501 z"
             style="fill:#404040;"/>
          </a>
         </g>
        </svg>
</svg>
