<?xml version="1.0" encoding="UTF-8" standalone="no"?>
<!DOCTYPE svg PUBLIC "-//W3C//DTD SVG 1.1//EN"
 "http://www.w3.org/Graphics/SVG/1.1/DTD/svg11.dtd">
<!-- Generated by graphviz version 2.38.0 (20140413.2041)
 -->
<!-- Title: CoolTime::sendNTPpacket Pages: 1 -->
<svg width="710pt" height="66pt"
 viewBox="0.00 0.00 710.00 66.00" xmlns="http://www.w3.org/2000/svg" xmlns:xlink="http://www.w3.org/1999/xlink">
<g id="graph0" class="graph" transform="scale(1 1) rotate(0) translate(4 62)">
<title>CoolTime::sendNTPpacket</title>
<polygon fill="white" stroke="none" points="-4,4 -4,-62 706,-62 706,4 -4,4"/>
<!-- Node71 -->
<g id="node1" class="node"><title>Node71</title>
<polygon fill="#bfbfbf" stroke="black" points="0,-19.5 0,-38.5 135,-38.5 135,-19.5 0,-19.5"/>
<text text-anchor="middle" x="67.5" y="-26.5" font-family="Helvetica,sans-Serif" font-size="10.00">CoolTime::sendNTPpacket</text>
</g>
<!-- Node72 -->
<g id="node2" class="node"><title>Node72</title>
<g id="a_node2"><a xlink:href="../../d6/d49/class_cool_time.html#a41fbbbfd651c2079f54d4b2911e4c705" target="_top" xlink:title="CoolTime::getNtpTime">
<polygon fill="white" stroke="black" points="171,-19.5 171,-38.5 287,-38.5 287,-19.5 171,-19.5"/>
<text text-anchor="middle" x="229" y="-26.5" font-family="Helvetica,sans-Serif" font-size="10.00">CoolTime::getNtpTime</text>
</a>
</g>
</g>
<!-- Node71&#45;&gt;Node72 -->
<g id="edge1" class="edge"><title>Node71&#45;&gt;Node72</title>
<path fill="none" stroke="midnightblue" d="M145.227,-29C153.791,-29 162.402,-29 170.663,-29"/>
<polygon fill="midnightblue" stroke="midnightblue" points="145.218,-25.5001 135.218,-29 145.218,-32.5001 145.218,-25.5001"/>
</g>
<!-- Node73 -->
<g id="node3" class="node"><title>Node73</title>
<g id="a_node3"><a xlink:href="../../d6/d49/class_cool_time.html#aae601f795452cfa48d9fb337aed483a8" target="_top" xlink:title="CoolTime::update">
<polygon fill="white" stroke="black" points="323,-19.5 323,-38.5 417,-38.5 417,-19.5 323,-19.5"/>
<text text-anchor="middle" x="370" y="-26.5" font-family="Helvetica,sans-Serif" font-size="10.00">CoolTime::update</text>
</a>
</g>
</g>
<!-- Node72&#45;&gt;Node73 -->
<g id="edge2" class="edge"><title>Node72&#45;&gt;Node73</title>
<path fill="none" stroke="midnightblue" d="M297.392,-29C305.999,-29 314.65,-29 322.815,-29"/>
<polygon fill="midnightblue" stroke="midnightblue" points="297.339,-25.5001 287.339,-29 297.339,-32.5001 297.339,-25.5001"/>
</g>
<!-- Node74 -->
<g id="node4" class="node"><title>Node74</title>
<g id="a_node4"><a xlink:href="../../d6/d49/class_cool_time.html#ab1976cf718b950bc31e003c3323b8adb" target="_top" xlink:title="CoolTime::begin">
<polygon fill="white" stroke="black" points="469.5,-38.5 469.5,-57.5 557.5,-57.5 557.5,-38.5 469.5,-38.5"/>
<text text-anchor="middle" x="513.5" y="-45.5" font-family="Helvetica,sans-Serif" font-size="10.00">CoolTime::begin</text>
</a>
</g>
</g>
<!-- Node73&#45;&gt;Node74 -->
<g id="edge3" class="edge"><title>Node73&#45;&gt;Node74</title>
<path fill="none" stroke="midnightblue" d="M427.361,-36.5679C441.37,-38.449 456.165,-40.4355 469.421,-42.2155"/>
<polygon fill="midnightblue" stroke="midnightblue" points="427.709,-33.0833 417.332,-35.2213 426.778,-40.0211 427.709,-33.0833"/>
</g>
<!-- Node76 -->
<g id="node6" class="node"><title>Node76</title>
<g id="a_node6"><a xlink:href="../../d7/df9/class_cool_board.html#aa0bbc4bc605e35618d18e68795c61363" target="_top" xlink:title="CoolBoard::onLineMode">
<polygon fill="white" stroke="black" points="453,-0.5 453,-19.5 574,-19.5 574,-0.5 453,-0.5"/>
<text text-anchor="middle" x="513.5" y="-7.5" font-family="Helvetica,sans-Serif" font-size="10.00">CoolBoard::onLineMode</text>
</a>
</g>
</g>
<!-- Node73&#45;&gt;Node76 -->
<g id="edge5" class="edge"><title>Node73&#45;&gt;Node76</title>
<path fill="none" stroke="midnightblue" d="M427.394,-21.4276C435.785,-20.3009 444.457,-19.1365 452.911,-18.0014"/>
<polygon fill="midnightblue" stroke="midnightblue" points="426.778,-17.9789 417.332,-22.7787 427.709,-24.9167 426.778,-17.9789"/>
</g>
<!-- Node75 -->
<g id="node5" class="node"><title>Node75</title>
<g id="a_node5"><a xlink:href="../../d7/df9/class_cool_board.html#acba7c5aef7268b2c0044bdb54d3b9d76" target="_top" xlink:title="CoolBoard::begin">
<polygon fill="white" stroke="black" points="610,-38.5 610,-57.5 702,-57.5 702,-38.5 610,-38.5"/>
<text text-anchor="middle" x="656" y="-45.5" font-family="Helvetica,sans-Serif" font-size="10.00">CoolBoard::begin</text>
</a>
</g>
</g>
<!-- Node74&#45;&gt;Node75 -->
<g id="edge4" class="edge"><title>Node74&#45;&gt;Node75</title>
<path fill="none" stroke="midnightblue" d="M568.074,-48C581.787,-48 596.4,-48 609.653,-48"/>
<polygon fill="midnightblue" stroke="midnightblue" points="567.801,-44.5001 557.801,-48 567.801,-51.5001 567.801,-44.5001"/>
</g>
</g>
</svg>
