<?xml version="1.0" encoding="UTF-8" standalone="no"?>
<!DOCTYPE svg PUBLIC "-//W3C//DTD SVG 1.1//EN"
 "http://www.w3.org/Graphics/SVG/1.1/DTD/svg11.dtd">
<!-- Generated by graphviz version 2.38.0 (20140413.2041)
 -->
<!-- Title: CoolTime::saveTimeSync Pages: 1 -->
<svg width="553pt" height="66pt"
 viewBox="0.00 0.00 553.00 66.00" xmlns="http://www.w3.org/2000/svg" xmlns:xlink="http://www.w3.org/1999/xlink">
<g id="graph0" class="graph" transform="scale(1 1) rotate(0) translate(4 62)">
<title>CoolTime::saveTimeSync</title>
<polygon fill="white" stroke="none" points="-4,4 -4,-62 549,-62 549,4 -4,4"/>
<!-- Node87 -->
<g id="node1" class="node"><title>Node87</title>
<polygon fill="#bfbfbf" stroke="black" points="0,-19.5 0,-38.5 130,-38.5 130,-19.5 0,-19.5"/>
<text text-anchor="middle" x="65" y="-26.5" font-family="Helvetica,sans-Serif" font-size="10.00">CoolTime::saveTimeSync</text>
</g>
<!-- Node88 -->
<g id="node2" class="node"><title>Node88</title>
<g id="a_node2"><a xlink:href="../../d6/d49/class_cool_time.html#aae601f795452cfa48d9fb337aed483a8" target="_top" xlink:title="CoolTime::update">
<polygon fill="white" stroke="black" points="166,-19.5 166,-38.5 260,-38.5 260,-19.5 166,-19.5"/>
<text text-anchor="middle" x="213" y="-26.5" font-family="Helvetica,sans-Serif" font-size="10.00">CoolTime::update</text>
</a>
</g>
</g>
<!-- Node87&#45;&gt;Node88 -->
<g id="edge1" class="edge"><title>Node87&#45;&gt;Node88</title>
<path fill="none" stroke="midnightblue" d="M140.301,-29C149.059,-29 157.793,-29 165.997,-29"/>
<polygon fill="midnightblue" stroke="midnightblue" points="140.038,-25.5001 130.038,-29 140.038,-32.5001 140.038,-25.5001"/>
</g>
<!-- Node89 -->
<g id="node3" class="node"><title>Node89</title>
<g id="a_node3"><a xlink:href="../../d6/d49/class_cool_time.html#ab1976cf718b950bc31e003c3323b8adb" target="_top" xlink:title="CoolTime::begin">
<polygon fill="white" stroke="black" points="312.5,-38.5 312.5,-57.5 400.5,-57.5 400.5,-38.5 312.5,-38.5"/>
<text text-anchor="middle" x="356.5" y="-45.5" font-family="Helvetica,sans-Serif" font-size="10.00">CoolTime::begin</text>
</a>
</g>
</g>
<!-- Node88&#45;&gt;Node89 -->
<g id="edge2" class="edge"><title>Node88&#45;&gt;Node89</title>
<path fill="none" stroke="midnightblue" d="M270.361,-36.5679C284.37,-38.449 299.165,-40.4355 312.421,-42.2155"/>
<polygon fill="midnightblue" stroke="midnightblue" points="270.709,-33.0833 260.332,-35.2213 269.778,-40.0211 270.709,-33.0833"/>
</g>
<!-- Node91 -->
<g id="node5" class="node"><title>Node91</title>
<g id="a_node5"><a xlink:href="../../d7/df9/class_cool_board.html#aa0bbc4bc605e35618d18e68795c61363" target="_top" xlink:title="CoolBoard::onLineMode">
<polygon fill="white" stroke="black" points="296,-0.5 296,-19.5 417,-19.5 417,-0.5 296,-0.5"/>
<text text-anchor="middle" x="356.5" y="-7.5" font-family="Helvetica,sans-Serif" font-size="10.00">CoolBoard::onLineMode</text>
</a>
</g>
</g>
<!-- Node88&#45;&gt;Node91 -->
<g id="edge4" class="edge"><title>Node88&#45;&gt;Node91</title>
<path fill="none" stroke="midnightblue" d="M270.394,-21.4276C278.785,-20.3009 287.457,-19.1365 295.911,-18.0014"/>
<polygon fill="midnightblue" stroke="midnightblue" points="269.778,-17.9789 260.332,-22.7787 270.709,-24.9167 269.778,-17.9789"/>
</g>
<!-- Node90 -->
<g id="node4" class="node"><title>Node90</title>
<g id="a_node4"><a xlink:href="../../d7/df9/class_cool_board.html#acba7c5aef7268b2c0044bdb54d3b9d76" target="_top" xlink:title="CoolBoard::begin">
<polygon fill="white" stroke="black" points="453,-38.5 453,-57.5 545,-57.5 545,-38.5 453,-38.5"/>
<text text-anchor="middle" x="499" y="-45.5" font-family="Helvetica,sans-Serif" font-size="10.00">CoolBoard::begin</text>
</a>
</g>
</g>
<!-- Node89&#45;&gt;Node90 -->
<g id="edge3" class="edge"><title>Node89&#45;&gt;Node90</title>
<path fill="none" stroke="midnightblue" d="M411.074,-48C424.787,-48 439.4,-48 452.653,-48"/>
<polygon fill="midnightblue" stroke="midnightblue" points="410.801,-44.5001 400.801,-48 410.801,-51.5001 410.801,-44.5001"/>
</g>
</g>
</svg>
