<?xml version="1.0" encoding="UTF-8" standalone="no"?>
<!DOCTYPE svg PUBLIC "-//W3C//DTD SVG 1.1//EN"
 "http://www.w3.org/Graphics/SVG/1.1/DTD/svg11.dtd">
<!-- Generated by graphviz version 2.38.0 (20140413.2041)
 -->
<!-- Title: CoolTime::getESDate Pages: 1 -->
<svg width="436pt" height="85pt"
 viewBox="0.00 0.00 436.00 85.00" xmlns="http://www.w3.org/2000/svg" xmlns:xlink="http://www.w3.org/1999/xlink">
<g id="graph0" class="graph" transform="scale(1 1) rotate(0) translate(4 81)">
<title>CoolTime::getESDate</title>
<polygon fill="white" stroke="none" points="-4,4 -4,-81 432,-81 432,4 -4,4"/>
<!-- Node44 -->
<g id="node1" class="node"><title>Node44</title>
<polygon fill="#bfbfbf" stroke="black" points="0,-38.5 0,-57.5 113,-57.5 113,-38.5 0,-38.5"/>
<text text-anchor="middle" x="56.5" y="-45.5" font-family="Helvetica,sans-Serif" font-size="10.00">CoolTime::getESDate</text>
</g>
<!-- Node45 -->
<g id="node2" class="node"><title>Node45</title>
<g id="a_node2"><a xlink:href="../../d6/d49/class_cool_time.html#ab81ea7fdaace111aa01cc1ec84c6d297" target="_top" xlink:title="CoolTime::setDateTime">
<polygon fill="white" stroke="black" points="149,-57.5 149,-76.5 270,-76.5 270,-57.5 149,-57.5"/>
<text text-anchor="middle" x="209.5" y="-64.5" font-family="Helvetica,sans-Serif" font-size="10.00">CoolTime::setDateTime</text>
</a>
</g>
</g>
<!-- Node44&#45;&gt;Node45 -->
<g id="edge1" class="edge"><title>Node44&#45;&gt;Node45</title>
<path fill="none" stroke="midnightblue" d="M123.49,-56.3033C131.935,-57.366 140.541,-58.4489 148.877,-59.4977"/>
<polygon fill="midnightblue" stroke="midnightblue" points="123.657,-52.7968 113.298,-55.0209 122.783,-59.7421 123.657,-52.7968"/>
</g>
<!-- Node46 -->
<g id="node3" class="node"><title>Node46</title>
<g id="a_node3"><a xlink:href="../../d7/df9/class_cool_board.html#ae7358fb6e623cfc81b775f5f1734909b" target="_top" xlink:title="CoolBoard::userData">
<polygon fill="white" stroke="black" points="155.5,-19.5 155.5,-38.5 263.5,-38.5 263.5,-19.5 155.5,-19.5"/>
<text text-anchor="middle" x="209.5" y="-26.5" font-family="Helvetica,sans-Serif" font-size="10.00">CoolBoard::userData</text>
</a>
</g>
</g>
<!-- Node44&#45;&gt;Node46 -->
<g id="edge2" class="edge"><title>Node44&#45;&gt;Node46</title>
<path fill="none" stroke="midnightblue" d="M123.445,-39.7022C134.142,-38.3563 145.099,-36.9776 155.439,-35.6766"/>
<polygon fill="midnightblue" stroke="midnightblue" points="122.783,-36.2579 113.298,-40.9791 123.657,-43.2032 122.783,-36.2579"/>
</g>
<!-- Node47 -->
<g id="node4" class="node"><title>Node47</title>
<g id="a_node4"><a xlink:href="../../d7/df9/class_cool_board.html#ae6b5e1274d760462290192acea4adca8" target="_top" xlink:title="CoolBoard::offLineMode">
<polygon fill="white" stroke="black" points="306,-38.5 306,-57.5 428,-57.5 428,-38.5 306,-38.5"/>
<text text-anchor="middle" x="367" y="-45.5" font-family="Helvetica,sans-Serif" font-size="10.00">CoolBoard::offLineMode</text>
</a>
</g>
</g>
<!-- Node46&#45;&gt;Node47 -->
<g id="edge3" class="edge"><title>Node46&#45;&gt;Node47</title>
<path fill="none" stroke="midnightblue" d="M273.659,-36.7172C284.322,-38.0201 295.365,-39.3694 305.947,-40.6623"/>
<polygon fill="midnightblue" stroke="midnightblue" points="273.93,-33.2243 263.579,-35.4856 273.081,-40.1727 273.93,-33.2243"/>
</g>
<!-- Node48 -->
<g id="node5" class="node"><title>Node48</title>
<g id="a_node5"><a xlink:href="../../d7/df9/class_cool_board.html#aa0bbc4bc605e35618d18e68795c61363" target="_top" xlink:title="CoolBoard::onLineMode">
<polygon fill="white" stroke="black" points="306.5,-0.5 306.5,-19.5 427.5,-19.5 427.5,-0.5 306.5,-0.5"/>
<text text-anchor="middle" x="367" y="-7.5" font-family="Helvetica,sans-Serif" font-size="10.00">CoolBoard::onLineMode</text>
</a>
</g>
</g>
<!-- Node46&#45;&gt;Node48 -->
<g id="edge4" class="edge"><title>Node46&#45;&gt;Node48</title>
<path fill="none" stroke="midnightblue" d="M273.791,-21.2667C284.595,-19.9466 295.785,-18.5793 306.487,-17.2717"/>
<polygon fill="midnightblue" stroke="midnightblue" points="273.081,-17.8273 263.579,-22.5144 273.93,-24.7757 273.081,-17.8273"/>
</g>
</g>
</svg>
