<?xml version="1.0" encoding="UTF-8" standalone="no"?>
<!DOCTYPE svg PUBLIC "-//W3C//DTD SVG 1.1//EN"
 "http://www.w3.org/Graphics/SVG/1.1/DTD/svg11.dtd">
<!-- Generated by graphviz version 2.38.0 (20140413.2041)
 -->
<!-- Title: CoolTime::getLastSyncTime Pages: 1 -->
<svg width="716pt" height="66pt"
 viewBox="0.00 0.00 716.00 66.00" xmlns="http://www.w3.org/2000/svg" xmlns:xlink="http://www.w3.org/1999/xlink">
<g id="graph0" class="graph" transform="scale(1 1) rotate(0) translate(4 62)">
<title>CoolTime::getLastSyncTime</title>
<polygon fill="white" stroke="none" points="-4,4 -4,-62 712,-62 712,4 -4,4"/>
<!-- Node50 -->
<g id="node1" class="node"><title>Node50</title>
<polygon fill="#bfbfbf" stroke="black" points="0,-19.5 0,-38.5 141,-38.5 141,-19.5 0,-19.5"/>
<text text-anchor="middle" x="70.5" y="-26.5" font-family="Helvetica,sans-Serif" font-size="10.00">CoolTime::getLastSyncTime</text>
</g>
<!-- Node51 -->
<g id="node2" class="node"><title>Node51</title>
<g id="a_node2"><a xlink:href="../../d6/d49/class_cool_time.html#a5ae038a4498602b189f76a10bf02adf8" target="_top" xlink:title="CoolTime::isTimeSync">
<polygon fill="white" stroke="black" points="177,-19.5 177,-38.5 293,-38.5 293,-19.5 177,-19.5"/>
<text text-anchor="middle" x="235" y="-26.5" font-family="Helvetica,sans-Serif" font-size="10.00">CoolTime::isTimeSync</text>
</a>
</g>
</g>
<!-- Node50&#45;&gt;Node51 -->
<g id="edge1" class="edge"><title>Node50&#45;&gt;Node51</title>
<path fill="none" stroke="midnightblue" d="M151.429,-29C160.036,-29 168.663,-29 176.923,-29"/>
<polygon fill="midnightblue" stroke="midnightblue" points="151.358,-25.5001 141.358,-29 151.358,-32.5001 151.358,-25.5001"/>
</g>
<!-- Node52 -->
<g id="node3" class="node"><title>Node52</title>
<g id="a_node3"><a xlink:href="../../d6/d49/class_cool_time.html#aae601f795452cfa48d9fb337aed483a8" target="_top" xlink:title="CoolTime::update">
<polygon fill="white" stroke="black" points="329,-19.5 329,-38.5 423,-38.5 423,-19.5 329,-19.5"/>
<text text-anchor="middle" x="376" y="-26.5" font-family="Helvetica,sans-Serif" font-size="10.00">CoolTime::update</text>
</a>
</g>
</g>
<!-- Node51&#45;&gt;Node52 -->
<g id="edge2" class="edge"><title>Node51&#45;&gt;Node52</title>
<path fill="none" stroke="midnightblue" d="M303.392,-29C311.999,-29 320.65,-29 328.815,-29"/>
<polygon fill="midnightblue" stroke="midnightblue" points="303.339,-25.5001 293.339,-29 303.339,-32.5001 303.339,-25.5001"/>
</g>
<!-- Node53 -->
<g id="node4" class="node"><title>Node53</title>
<g id="a_node4"><a xlink:href="../../d6/d49/class_cool_time.html#ab1976cf718b950bc31e003c3323b8adb" target="_top" xlink:title="CoolTime::begin">
<polygon fill="white" stroke="black" points="475.5,-38.5 475.5,-57.5 563.5,-57.5 563.5,-38.5 475.5,-38.5"/>
<text text-anchor="middle" x="519.5" y="-45.5" font-family="Helvetica,sans-Serif" font-size="10.00">CoolTime::begin</text>
</a>
</g>
</g>
<!-- Node52&#45;&gt;Node53 -->
<g id="edge3" class="edge"><title>Node52&#45;&gt;Node53</title>
<path fill="none" stroke="midnightblue" d="M433.361,-36.5679C447.37,-38.449 462.165,-40.4355 475.421,-42.2155"/>
<polygon fill="midnightblue" stroke="midnightblue" points="433.709,-33.0833 423.332,-35.2213 432.778,-40.0211 433.709,-33.0833"/>
</g>
<!-- Node55 -->
<g id="node6" class="node"><title>Node55</title>
<g id="a_node6"><a xlink:href="../../d7/df9/class_cool_board.html#aa0bbc4bc605e35618d18e68795c61363" target="_top" xlink:title="CoolBoard::onLineMode">
<polygon fill="white" stroke="black" points="459,-0.5 459,-19.5 580,-19.5 580,-0.5 459,-0.5"/>
<text text-anchor="middle" x="519.5" y="-7.5" font-family="Helvetica,sans-Serif" font-size="10.00">CoolBoard::onLineMode</text>
</a>
</g>
</g>
<!-- Node52&#45;&gt;Node55 -->
<g id="edge5" class="edge"><title>Node52&#45;&gt;Node55</title>
<path fill="none" stroke="midnightblue" d="M433.394,-21.4276C441.785,-20.3009 450.457,-19.1365 458.911,-18.0014"/>
<polygon fill="midnightblue" stroke="midnightblue" points="432.778,-17.9789 423.332,-22.7787 433.709,-24.9167 432.778,-17.9789"/>
</g>
<!-- Node54 -->
<g id="node5" class="node"><title>Node54</title>
<g id="a_node5"><a xlink:href="../../d7/df9/class_cool_board.html#acba7c5aef7268b2c0044bdb54d3b9d76" target="_top" xlink:title="CoolBoard::begin">
<polygon fill="white" stroke="black" points="616,-38.5 616,-57.5 708,-57.5 708,-38.5 616,-38.5"/>
<text text-anchor="middle" x="662" y="-45.5" font-family="Helvetica,sans-Serif" font-size="10.00">CoolBoard::begin</text>
</a>
</g>
</g>
<!-- Node53&#45;&gt;Node54 -->
<g id="edge4" class="edge"><title>Node53&#45;&gt;Node54</title>
<path fill="none" stroke="midnightblue" d="M574.074,-48C587.787,-48 602.4,-48 615.653,-48"/>
<polygon fill="midnightblue" stroke="midnightblue" points="573.801,-44.5001 563.801,-48 573.801,-51.5001 573.801,-44.5001"/>
</g>
</g>
</svg>
