<?xml version="1.0" encoding="UTF-8" standalone="no"?>
<!DOCTYPE svg PUBLIC "-//W3C//DTD SVG 1.1//EN"
 "http://www.w3.org/Graphics/SVG/1.1/DTD/svg11.dtd">
<!-- Generated by graphviz version 2.38.0 (20140413.2041)
 -->
<!-- Title: CoolTime::getTimeDate Pages: 1 -->
<svg width="595pt" height="104pt"
 viewBox="0.00 0.00 595.00 104.00" xmlns="http://www.w3.org/2000/svg" xmlns:xlink="http://www.w3.org/1999/xlink">
<g id="graph0" class="graph" transform="scale(1 1) rotate(0) translate(4 100)">
<title>CoolTime::getTimeDate</title>
<polygon fill="white" stroke="none" points="-4,4 -4,-100 591,-100 591,4 -4,4"/>
<!-- Node34 -->
<g id="node1" class="node"><title>Node34</title>
<polygon fill="#bfbfbf" stroke="black" points="0,-57.5 0,-76.5 121,-76.5 121,-57.5 0,-57.5"/>
<text text-anchor="middle" x="60.5" y="-64.5" font-family="Helvetica,sans-Serif" font-size="10.00">CoolTime::getTimeDate</text>
</g>
<!-- Node35 -->
<g id="node2" class="node"><title>Node35</title>
<g id="a_node2"><a xlink:href="../../d6/d49/class_cool_time.html#ac4f32ee513c1328d984306645e8785a4" target="_top" xlink:title="CoolTime::getESDate">
<polygon fill="white" stroke="black" points="157,-38.5 157,-57.5 270,-57.5 270,-38.5 157,-38.5"/>
<text text-anchor="middle" x="213.5" y="-45.5" font-family="Helvetica,sans-Serif" font-size="10.00">CoolTime::getESDate</text>
</a>
</g>
</g>
<!-- Node34&#45;&gt;Node35 -->
<g id="edge1" class="edge"><title>Node34&#45;&gt;Node35</title>
<path fill="none" stroke="midnightblue" d="M131.156,-58.2354C139.716,-57.1583 148.377,-56.0684 156.695,-55.0218"/>
<polygon fill="midnightblue" stroke="midnightblue" points="130.664,-54.7696 121.179,-59.4907 131.538,-61.7148 130.664,-54.7696"/>
</g>
<!-- Node40 -->
<g id="node7" class="node"><title>Node40</title>
<g id="a_node7"><a xlink:href="../../d7/df9/class_cool_board.html#ad03abdce2e65f520bbf2cff0f2d083cf" target="_top" xlink:title="CoolBoard::readSensors">
<polygon fill="white" stroke="black" points="306,-76.5 306,-95.5 429,-95.5 429,-76.5 306,-76.5"/>
<text text-anchor="middle" x="367.5" y="-83.5" font-family="Helvetica,sans-Serif" font-size="10.00">CoolBoard::readSensors</text>
</a>
</g>
</g>
<!-- Node34&#45;&gt;Node40 -->
<g id="edge6" class="edge"><title>Node34&#45;&gt;Node40</title>
<path fill="none" stroke="midnightblue" d="M131.302,-71.3483C183.972,-74.6294 255.51,-79.0859 305.815,-82.2196"/>
<polygon fill="midnightblue" stroke="midnightblue" points="131.229,-67.8371 121.031,-70.7085 130.794,-74.8236 131.229,-67.8371"/>
</g>
<!-- Node36 -->
<g id="node3" class="node"><title>Node36</title>
<g id="a_node3"><a xlink:href="../../d7/df9/class_cool_board.html#ae7358fb6e623cfc81b775f5f1734909b" target="_top" xlink:title="CoolBoard::userData">
<polygon fill="white" stroke="black" points="313.5,-38.5 313.5,-57.5 421.5,-57.5 421.5,-38.5 313.5,-38.5"/>
<text text-anchor="middle" x="367.5" y="-45.5" font-family="Helvetica,sans-Serif" font-size="10.00">CoolBoard::userData</text>
</a>
</g>
</g>
<!-- Node35&#45;&gt;Node36 -->
<g id="edge2" class="edge"><title>Node35&#45;&gt;Node36</title>
<path fill="none" stroke="midnightblue" d="M280.263,-48C291.3,-48 302.631,-48 313.301,-48"/>
<polygon fill="midnightblue" stroke="midnightblue" points="280.236,-44.5001 270.236,-48 280.236,-51.5001 280.236,-44.5001"/>
</g>
<!-- Node39 -->
<g id="node6" class="node"><title>Node39</title>
<g id="a_node6"><a xlink:href="../../d6/d49/class_cool_time.html#ab81ea7fdaace111aa01cc1ec84c6d297" target="_top" xlink:title="CoolTime::setDateTime">
<polygon fill="white" stroke="black" points="307,-0.5 307,-19.5 428,-19.5 428,-0.5 307,-0.5"/>
<text text-anchor="middle" x="367.5" y="-7.5" font-family="Helvetica,sans-Serif" font-size="10.00">CoolTime::setDateTime</text>
</a>
</g>
</g>
<!-- Node35&#45;&gt;Node39 -->
<g id="edge5" class="edge"><title>Node35&#45;&gt;Node39</title>
<path fill="none" stroke="midnightblue" d="M262.66,-35.96C283.895,-30.6512 308.495,-24.5012 328.42,-19.5201"/>
<polygon fill="midnightblue" stroke="midnightblue" points="261.709,-32.5901 252.856,-38.411 263.406,-39.3811 261.709,-32.5901"/>
</g>
<!-- Node37 -->
<g id="node4" class="node"><title>Node37</title>
<g id="a_node4"><a xlink:href="../../d7/df9/class_cool_board.html#ae6b5e1274d760462290192acea4adca8" target="_top" xlink:title="CoolBoard::offLineMode">
<polygon fill="white" stroke="black" points="465,-76.5 465,-95.5 587,-95.5 587,-76.5 465,-76.5"/>
<text text-anchor="middle" x="526" y="-83.5" font-family="Helvetica,sans-Serif" font-size="10.00">CoolBoard::offLineMode</text>
</a>
</g>
</g>
<!-- Node36&#45;&gt;Node37 -->
<g id="edge3" class="edge"><title>Node36&#45;&gt;Node37</title>
<path fill="none" stroke="midnightblue" d="M417.789,-59.968C439.72,-65.2931 465.185,-71.4762 485.792,-76.4799"/>
<polygon fill="midnightblue" stroke="midnightblue" points="418.535,-56.5475 407.992,-57.589 416.883,-63.3498 418.535,-56.5475"/>
</g>
<!-- Node38 -->
<g id="node5" class="node"><title>Node38</title>
<g id="a_node5"><a xlink:href="../../d7/df9/class_cool_board.html#aa0bbc4bc605e35618d18e68795c61363" target="_top" xlink:title="CoolBoard::onLineMode">
<polygon fill="white" stroke="black" points="465.5,-38.5 465.5,-57.5 586.5,-57.5 586.5,-38.5 465.5,-38.5"/>
<text text-anchor="middle" x="526" y="-45.5" font-family="Helvetica,sans-Serif" font-size="10.00">CoolBoard::onLineMode</text>
</a>
</g>
</g>
<!-- Node36&#45;&gt;Node38 -->
<g id="edge4" class="edge"><title>Node36&#45;&gt;Node38</title>
<path fill="none" stroke="midnightblue" d="M431.926,-48C442.975,-48 454.433,-48 465.375,-48"/>
<polygon fill="midnightblue" stroke="midnightblue" points="431.921,-44.5001 421.921,-48 431.921,-51.5001 431.921,-44.5001"/>
</g>
<!-- Node40&#45;&gt;Node37 -->
<g id="edge7" class="edge"><title>Node40&#45;&gt;Node37</title>
<path fill="none" stroke="midnightblue" d="M439.059,-86C447.692,-86 456.452,-86 464.912,-86"/>
<polygon fill="midnightblue" stroke="midnightblue" points="439.007,-82.5001 429.007,-86 439.007,-89.5001 439.007,-82.5001"/>
</g>
<!-- Node40&#45;&gt;Node38 -->
<g id="edge8" class="edge"><title>Node40&#45;&gt;Node38</title>
<path fill="none" stroke="midnightblue" d="M417.789,-74.032C439.72,-68.7069 465.185,-62.5238 485.792,-57.5201"/>
<polygon fill="midnightblue" stroke="midnightblue" points="416.883,-70.6502 407.992,-76.411 418.535,-77.4525 416.883,-70.6502"/>
</g>
</g>
</svg>
