<?xml version="1.0" encoding="UTF-8" standalone="no"?>
<!DOCTYPE svg PUBLIC "-//W3C//DTD SVG 1.1//EN"
 "http://www.w3.org/Graphics/SVG/1.1/DTD/svg11.dtd">
<!-- Generated by graphviz version 2.38.0 (20140413.2041)
 -->
<!-- Title: CoolTime::getESDate Pages: 1 -->
<svg width="432pt" height="47pt"
 viewBox="0.00 0.00 432.00 47.00" xmlns="http://www.w3.org/2000/svg" xmlns:xlink="http://www.w3.org/1999/xlink">
<g id="graph0" class="graph" transform="scale(1 1) rotate(0) translate(4 43)">
<title>CoolTime::getESDate</title>
<polygon fill="white" stroke="none" points="-4,4 -4,-43 428,-43 428,4 -4,4"/>
<!-- Node41 -->
<g id="node1" class="node"><title>Node41</title>
<polygon fill="#bfbfbf" stroke="black" points="0,-19.5 0,-38.5 113,-38.5 113,-19.5 0,-19.5"/>
<text text-anchor="middle" x="56.5" y="-26.5" font-family="Helvetica,sans-Serif" font-size="10.00">CoolTime::getESDate</text>
</g>
<!-- Node42 -->
<g id="node2" class="node"><title>Node42</title>
<g id="a_node2"><a xlink:href="$d6/d49/class_cool_time.html#acd537cd4210d7bde4e1f5c47d2ac0456" xlink:title="CoolTime::formatDigits">
<polygon fill="white" stroke="black" points="306,-19.5 306,-38.5 424,-38.5 424,-19.5 306,-19.5"/>
<text text-anchor="middle" x="365" y="-26.5" font-family="Helvetica,sans-Serif" font-size="10.00">CoolTime::formatDigits</text>
</a>
</g>
</g>
<!-- Node41&#45;&gt;Node42 -->
<g id="edge1" class="edge"><title>Node41&#45;&gt;Node42</title>
<path fill="none" stroke="midnightblue" d="M113.005,-29C164.324,-29 240.741,-29 295.766,-29"/>
<polygon fill="midnightblue" stroke="midnightblue" points="295.781,-32.5001 305.781,-29 295.781,-25.5001 295.781,-32.5001"/>
</g>
<!-- Node43 -->
<g id="node3" class="node"><title>Node43</title>
<g id="a_node3"><a xlink:href="$d6/d49/class_cool_time.html#a7a7501c5ca77dd1248bea704c44f986c" xlink:title="CoolTime::getTimeDate">
<polygon fill="white" stroke="black" points="149,-0.5 149,-19.5 270,-19.5 270,-0.5 149,-0.5"/>
<text text-anchor="middle" x="209.5" y="-7.5" font-family="Helvetica,sans-Serif" font-size="10.00">CoolTime::getTimeDate</text>
</a>
</g>
</g>
<!-- Node41&#45;&gt;Node43 -->
<g id="edge2" class="edge"><title>Node41&#45;&gt;Node43</title>
<path fill="none" stroke="midnightblue" d="M113.298,-21.9791C121.631,-20.9306 130.308,-19.8387 138.883,-18.7597"/>
<polygon fill="midnightblue" stroke="midnightblue" points="139.392,-22.2234 148.877,-17.5023 138.518,-15.2782 139.392,-22.2234"/>
</g>
<!-- Node43&#45;&gt;Node42 -->
<g id="edge3" class="edge"><title>Node43&#45;&gt;Node42</title>
<path fill="none" stroke="midnightblue" d="M270.287,-17.4003C278.697,-18.4413 287.393,-19.5177 295.943,-20.576"/>
<polygon fill="midnightblue" stroke="midnightblue" points="295.534,-24.052 305.888,-21.807 296.394,-17.105 295.534,-24.052"/>
</g>
</g>
</svg>
