<?xml version="1.0" encoding="UTF-8" standalone="no"?>
<!DOCTYPE svg PUBLIC "-//W3C//DTD SVG 1.1//EN"
 "http://www.w3.org/Graphics/SVG/1.1/DTD/svg11.dtd">
<!-- Generated by graphviz version 2.38.0 (20140413.2041)
 -->
<!-- Title: CoolAdafruit_TCS34725.cpp Pages: 1 -->
<svg width="334pt" height="140pt"
 viewBox="0.00 0.00 333.50 140.00" xmlns="http://www.w3.org/2000/svg" xmlns:xlink="http://www.w3.org/1999/xlink">
<g id="graph0" class="graph" transform="scale(1 1) rotate(0) translate(4 136)">
<title>CoolAdafruit_TCS34725.cpp</title>
<polygon fill="white" stroke="none" points="-4,4 -4,-136 329.5,-136 329.5,4 -4,4"/>
<!-- Node0 -->
<g id="node1" class="node"><title>Node0</title>
<polygon fill="#bfbfbf" stroke="black" points="51.5,-112.5 51.5,-131.5 192.5,-131.5 192.5,-112.5 51.5,-112.5"/>
<text text-anchor="middle" x="122" y="-119.5" font-family="Helvetica,sans-Serif" font-size="10.00">CoolAdafruit_TCS34725.cpp</text>
</g>
<!-- Node1 -->
<g id="node2" class="node"><title>Node1</title>
<polygon fill="white" stroke="#bfbfbf" points="0,-56.5 0,-75.5 48,-75.5 48,-56.5 0,-56.5"/>
<text text-anchor="middle" x="24" y="-63.5" font-family="Helvetica,sans-Serif" font-size="10.00">stdlib.h</text>
</g>
<!-- Node0&#45;&gt;Node1 -->
<g id="edge1" class="edge"><title>Node0&#45;&gt;Node1</title>
<path fill="none" stroke="midnightblue" d="M106.255,-112.324C90.6813,-103.743 66.6227,-90.486 48.5407,-80.5224"/>
<polygon fill="midnightblue" stroke="midnightblue" points="50.1539,-77.4152 39.7063,-75.6545 46.7756,-83.546 50.1539,-77.4152"/>
</g>
<!-- Node2 -->
<g id="node3" class="node"><title>Node2</title>
<polygon fill="white" stroke="#bfbfbf" points="66.5,-56.5 66.5,-75.5 113.5,-75.5 113.5,-56.5 66.5,-56.5"/>
<text text-anchor="middle" x="90" y="-63.5" font-family="Helvetica,sans-Serif" font-size="10.00">math.h</text>
</g>
<!-- Node0&#45;&gt;Node2 -->
<g id="edge2" class="edge"><title>Node0&#45;&gt;Node2</title>
<path fill="none" stroke="midnightblue" d="M116.716,-112.083C112.289,-104.613 105.837,-93.7244 100.382,-84.5199"/>
<polygon fill="midnightblue" stroke="midnightblue" points="103.295,-82.5697 95.1858,-75.7511 97.2729,-86.1383 103.295,-82.5697"/>
</g>
<!-- Node3 -->
<g id="node4" class="node"><title>Node3</title>
<polygon fill="white" stroke="#bfbfbf" points="131.5,-56.5 131.5,-75.5 176.5,-75.5 176.5,-56.5 131.5,-56.5"/>
<text text-anchor="middle" x="154" y="-63.5" font-family="Helvetica,sans-Serif" font-size="10.00">Wire.h</text>
</g>
<!-- Node0&#45;&gt;Node3 -->
<g id="edge3" class="edge"><title>Node0&#45;&gt;Node3</title>
<path fill="none" stroke="midnightblue" d="M127.284,-112.083C131.711,-104.613 138.163,-93.7244 143.618,-84.5199"/>
<polygon fill="midnightblue" stroke="midnightblue" points="146.727,-86.1383 148.814,-75.7511 140.705,-82.5697 146.727,-86.1383"/>
</g>
<!-- Node4 -->
<g id="node5" class="node"><title>Node4</title>
<g id="a_node5"><a xlink:href="$d3/d18/_cool_adafruit___t_c_s34725_8h.html" xlink:title="CoolAdafruit_TCS34725.h">
<polygon fill="white" stroke="black" points="194.5,-56.5 194.5,-75.5 325.5,-75.5 325.5,-56.5 194.5,-56.5"/>
<text text-anchor="middle" x="260" y="-63.5" font-family="Helvetica,sans-Serif" font-size="10.00">CoolAdafruit_TCS34725.h</text>
</a>
</g>
</g>
<!-- Node0&#45;&gt;Node4 -->
<g id="edge4" class="edge"><title>Node0&#45;&gt;Node4</title>
<path fill="none" stroke="midnightblue" d="M143.867,-112.444C166.779,-103.478 202.975,-89.314 228.866,-79.1827"/>
<polygon fill="midnightblue" stroke="midnightblue" points="230.199,-82.4198 238.236,-75.5164 227.648,-75.9011 230.199,-82.4198"/>
</g>
<!-- Node5 -->
<g id="node6" class="node"><title>Node5</title>
<polygon fill="white" stroke="#bfbfbf" points="224.5,-0.5 224.5,-19.5 295.5,-19.5 295.5,-0.5 224.5,-0.5"/>
<text text-anchor="middle" x="260" y="-7.5" font-family="Helvetica,sans-Serif" font-size="10.00">WProgram.h</text>
</g>
<!-- Node4&#45;&gt;Node5 -->
<g id="edge5" class="edge"><title>Node4&#45;&gt;Node5</title>
<path fill="none" stroke="midnightblue" d="M260,-56.083C260,-49.0059 260,-38.8611 260,-29.9865"/>
<polygon fill="midnightblue" stroke="midnightblue" points="263.5,-29.751 260,-19.7511 256.5,-29.7511 263.5,-29.751"/>
</g>
</g>
</svg>
