<?xml version="1.0" encoding="UTF-8" standalone="no"?>
<!DOCTYPE svg PUBLIC "-//W3C//DTD SVG 1.1//EN"
 "http://www.w3.org/Graphics/SVG/1.1/DTD/svg11.dtd">
<!-- Generated by graphviz version 2.38.0 (20140413.2041)
 -->
<!-- Title: CoolAdafruit_ADS1015.h Pages: 1 -->
<svg width="366pt" height="252pt"
 viewBox="0.00 0.00 366.20 252.00" xmlns="http://www.w3.org/2000/svg" xmlns:xlink="http://www.w3.org/1999/xlink">
<g id="graph0" class="graph" transform="scale(1 1) rotate(0) translate(4 248)">
<title>CoolAdafruit_ADS1015.h</title>
<polygon fill="white" stroke="none" points="-4,4 -4,-248 362.196,-248 362.196,4 -4,4"/>
<!-- Node2 -->
<g id="node1" class="node"><title>Node2</title>
<polygon fill="#bfbfbf" stroke="black" points="93.6963,-224.5 93.6963,-243.5 219.696,-243.5 219.696,-224.5 93.6963,-224.5"/>
<text text-anchor="middle" x="156.696" y="-231.5" font-family="Helvetica,sans-Serif" font-size="10.00">CoolAdafruit_ADS1015.h</text>
</g>
<!-- Node3 -->
<g id="node2" class="node"><title>Node3</title>
<g id="a_node2"><a xlink:href="../../d7/d31/_irene3000_8h.html" target="_top" xlink:title="Irene3000 Header file. ">
<polygon fill="white" stroke="black" points="16.6963,-168.5 16.6963,-187.5 84.6963,-187.5 84.6963,-168.5 16.6963,-168.5"/>
<text text-anchor="middle" x="50.6963" y="-175.5" font-family="Helvetica,sans-Serif" font-size="10.00">Irene3000.h</text>
</a>
</g>
</g>
<!-- Node2&#45;&gt;Node3 -->
<g id="edge1" class="edge"><title>Node2&#45;&gt;Node3</title>
<path fill="none" stroke="midnightblue" d="M130.64,-219.726C111.012,-209.727 84.6683,-196.307 67.6847,-187.655"/>
<polygon fill="midnightblue" stroke="midnightblue" points="129.166,-222.903 139.666,-224.324 132.344,-216.666 129.166,-222.903"/>
</g>
<!-- Node7 -->
<g id="node6" class="node"><title>Node7</title>
<g id="a_node6"><a xlink:href="../../d6/d20/_external_sensor_8h.html" target="_top" xlink:title="ExternalSensor Header file. ">
<polygon fill="white" stroke="black" points="110.696,-168.5 110.696,-187.5 202.696,-187.5 202.696,-168.5 110.696,-168.5"/>
<text text-anchor="middle" x="156.696" y="-175.5" font-family="Helvetica,sans-Serif" font-size="10.00">ExternalSensor.h</text>
</a>
</g>
</g>
<!-- Node2&#45;&gt;Node7 -->
<g id="edge5" class="edge"><title>Node2&#45;&gt;Node7</title>
<path fill="none" stroke="midnightblue" d="M156.696,-213.805C156.696,-204.91 156.696,-194.78 156.696,-187.751"/>
<polygon fill="midnightblue" stroke="midnightblue" points="153.196,-214.083 156.696,-224.083 160.196,-214.083 153.196,-214.083"/>
</g>
<!-- Node10 -->
<g id="node9" class="node"><title>Node10</title>
<g id="a_node9"><a xlink:href="../../d8/daa/_cool_adafruit___a_d_s1015_8cpp.html" target="_top" xlink:title="CoolAdafruit_ADS1015.cpp">
<polygon fill="white" stroke="black" points="221.196,-168.5 221.196,-187.5 358.196,-187.5 358.196,-168.5 221.196,-168.5"/>
<text text-anchor="middle" x="289.696" y="-175.5" font-family="Helvetica,sans-Serif" font-size="10.00">CoolAdafruit_ADS1015.cpp</text>
</a>
</g>
</g>
<!-- Node2&#45;&gt;Node10 -->
<g id="edge10" class="edge"><title>Node2&#45;&gt;Node10</title>
<path fill="none" stroke="midnightblue" d="M187.144,-220.638C212.103,-210.504 246.773,-196.427 268.721,-187.516"/>
<polygon fill="midnightblue" stroke="midnightblue" points="185.719,-217.439 177.771,-224.444 188.353,-223.924 185.719,-217.439"/>
</g>
<!-- Node4 -->
<g id="node3" class="node"><title>Node4</title>
<g id="a_node3"><a xlink:href="../../d5/d51/_cool_board_8h.html" target="_top" xlink:title="CoolBoard Header file. ">
<polygon fill="white" stroke="black" points="19.1963,-56.5 19.1963,-75.5 90.1963,-75.5 90.1963,-56.5 19.1963,-56.5"/>
<text text-anchor="middle" x="54.6963" y="-63.5" font-family="Helvetica,sans-Serif" font-size="10.00">CoolBoard.h</text>
</a>
</g>
</g>
<!-- Node3&#45;&gt;Node4 -->
<g id="edge2" class="edge"><title>Node3&#45;&gt;Node4</title>
<path fill="none" stroke="midnightblue" d="M28.0033,-162.395C11.6988,-149.917 -5.99419,-131.013 2.69626,-112 10.0912,-95.821 26.4935,-83.2312 38.9129,-75.5333"/>
<polygon fill="midnightblue" stroke="midnightblue" points="26.087,-165.328 36.2559,-168.302 30.161,-159.636 26.087,-165.328"/>
</g>
<!-- Node6 -->
<g id="node5" class="node"><title>Node6</title>
<g id="a_node5"><a xlink:href="../../d5/df3/_irene3000_8cpp.html" target="_top" xlink:title="Irene3000 Source file. ">
<polygon fill="white" stroke="black" points="11.6963,-112.5 11.6963,-131.5 89.6963,-131.5 89.6963,-112.5 11.6963,-112.5"/>
<text text-anchor="middle" x="50.6963" y="-119.5" font-family="Helvetica,sans-Serif" font-size="10.00">Irene3000.cpp</text>
</a>
</g>
</g>
<!-- Node3&#45;&gt;Node6 -->
<g id="edge4" class="edge"><title>Node3&#45;&gt;Node6</title>
<path fill="none" stroke="midnightblue" d="M50.6963,-157.805C50.6963,-148.91 50.6963,-138.78 50.6963,-131.751"/>
<polygon fill="midnightblue" stroke="midnightblue" points="47.1964,-158.083 50.6963,-168.083 54.1964,-158.083 47.1964,-158.083"/>
</g>
<!-- Node5 -->
<g id="node4" class="node"><title>Node5</title>
<g id="a_node4"><a xlink:href="../../d9/d50/_cool_board_8cpp.html" target="_top" xlink:title="CoolBoard Source file. ">
<polygon fill="white" stroke="black" points="14.1963,-0.5 14.1963,-19.5 95.1963,-19.5 95.1963,-0.5 14.1963,-0.5"/>
<text text-anchor="middle" x="54.6963" y="-7.5" font-family="Helvetica,sans-Serif" font-size="10.00">CoolBoard.cpp</text>
</a>
</g>
</g>
<!-- Node4&#45;&gt;Node5 -->
<g id="edge3" class="edge"><title>Node4&#45;&gt;Node5</title>
<path fill="none" stroke="midnightblue" d="M54.6963,-45.8045C54.6963,-36.9102 54.6963,-26.7798 54.6963,-19.7511"/>
<polygon fill="midnightblue" stroke="midnightblue" points="51.1964,-46.083 54.6963,-56.083 58.1964,-46.083 51.1964,-46.083"/>
</g>
<!-- Node8 -->
<g id="node7" class="node"><title>Node8</title>
<g id="a_node7"><a xlink:href="../../d7/dcc/_external_sensors_8h.html" target="_top" xlink:title="ExternalSensors header file. ">
<polygon fill="white" stroke="black" points="108.196,-112.5 108.196,-131.5 205.196,-131.5 205.196,-112.5 108.196,-112.5"/>
<text text-anchor="middle" x="156.696" y="-119.5" font-family="Helvetica,sans-Serif" font-size="10.00">ExternalSensors.h</text>
</a>
</g>
</g>
<!-- Node7&#45;&gt;Node8 -->
<g id="edge6" class="edge"><title>Node7&#45;&gt;Node8</title>
<path fill="none" stroke="midnightblue" d="M156.696,-157.805C156.696,-148.91 156.696,-138.78 156.696,-131.751"/>
<polygon fill="midnightblue" stroke="midnightblue" points="153.196,-158.083 156.696,-168.083 160.196,-158.083 153.196,-158.083"/>
</g>
<!-- Node9 -->
<g id="node8" class="node"><title>Node9</title>
<g id="a_node8"><a xlink:href="../../d9/d09/_external_sensors_8cpp.html" target="_top" xlink:title="ExternalSensors Source file. ">
<polygon fill="white" stroke="black" points="141.196,-56.5 141.196,-75.5 248.196,-75.5 248.196,-56.5 141.196,-56.5"/>
<text text-anchor="middle" x="194.696" y="-63.5" font-family="Helvetica,sans-Serif" font-size="10.00">ExternalSensors.cpp</text>
</a>
</g>
</g>
<!-- Node7&#45;&gt;Node9 -->
<g id="edge9" class="edge"><title>Node7&#45;&gt;Node9</title>
<path fill="none" stroke="midnightblue" d="M183.367,-163.221C194.944,-155.697 207.299,-145.2 213.696,-132 222.925,-112.956 209.783,-88.5575 201.166,-75.7495"/>
<polygon fill="midnightblue" stroke="midnightblue" points="181.541,-160.235 174.778,-168.39 185.151,-166.232 181.541,-160.235"/>
</g>
<!-- Node8&#45;&gt;Node4 -->
<g id="edge7" class="edge"><title>Node8&#45;&gt;Node4</title>
<path fill="none" stroke="midnightblue" d="M131.365,-107.59C112.506,-97.6052 87.3121,-84.2672 71.0437,-75.6545"/>
<polygon fill="midnightblue" stroke="midnightblue" points="129.833,-110.738 140.308,-112.324 133.108,-104.552 129.833,-110.738"/>
</g>
<!-- Node8&#45;&gt;Node9 -->
<g id="edge8" class="edge"><title>Node8&#45;&gt;Node9</title>
<path fill="none" stroke="midnightblue" d="M168.761,-103.855C175.341,-94.5048 183.207,-83.3265 188.538,-75.7511"/>
<polygon fill="midnightblue" stroke="midnightblue" points="165.864,-101.891 162.971,-112.083 171.588,-105.919 165.864,-101.891"/>
</g>
</g>
</svg>
