<?xml version="1.0" encoding="UTF-8" standalone="no"?>
<!DOCTYPE svg PUBLIC "-//W3C//DTD SVG 1.1//EN"
 "http://www.w3.org/Graphics/SVG/1.1/DTD/svg11.dtd">
<!-- Generated by graphviz version 2.38.0 (20140413.2041)
 -->
<!-- Title: CoolPubSubClient::write Pages: 1 -->
<svg width="323pt" height="142pt"
 viewBox="0.00 0.00 323.00 142.00" xmlns="http://www.w3.org/2000/svg" xmlns:xlink="http://www.w3.org/1999/xlink">
<g id="graph0" class="graph" transform="scale(1 1) rotate(0) translate(4 138)">
<title>CoolPubSubClient::write</title>
<polygon fill="white" stroke="none" points="-4,4 -4,-138 319,-138 319,4 -4,4"/>
<!-- Node91 -->
<g id="node1" class="node"><title>Node91</title>
<polygon fill="#bfbfbf" stroke="black" points="0,-57.5 0,-76.5 124,-76.5 124,-57.5 0,-57.5"/>
<text text-anchor="middle" x="62" y="-64.5" font-family="Helvetica,sans-Serif" font-size="10.00">CoolPubSubClient::write</text>
</g>
<!-- Node92 -->
<g id="node2" class="node"><title>Node92</title>
<g id="a_node2"><a xlink:href="../../d8/d4b/class_cool_pub_sub_client.html#a7e5a85731dd25d90a41f6d859e61da77" target="_top" xlink:title="CoolPubSubClient::connect">
<polygon fill="white" stroke="black" points="169,-114.5 169,-133.5 306,-133.5 306,-114.5 169,-114.5"/>
<text text-anchor="middle" x="237.5" y="-121.5" font-family="Helvetica,sans-Serif" font-size="10.00">CoolPubSubClient::connect</text>
</a>
</g>
</g>
<!-- Node91&#45;&gt;Node92 -->
<g id="edge1" class="edge"><title>Node91&#45;&gt;Node92</title>
<path fill="none" stroke="midnightblue" d="M94.3271,-80.4694C113.147,-88.2591 137.694,-97.8939 160,-105 170.822,-108.448 182.669,-111.657 193.737,-114.42"/>
<polygon fill="midnightblue" stroke="midnightblue" points="95.626,-77.2189 85.05,-76.5872 92.9237,-83.6763 95.626,-77.2189"/>
</g>
<!-- Node93 -->
<g id="node3" class="node"><title>Node93</title>
<g id="a_node3"><a xlink:href="../../d8/d4b/class_cool_pub_sub_client.html#adef968760eb87b70e3fed03e60da76f7" target="_top" xlink:title="CoolPubSubClient::publish">
<polygon fill="white" stroke="black" points="170.5,-76.5 170.5,-95.5 304.5,-95.5 304.5,-76.5 170.5,-76.5"/>
<text text-anchor="middle" x="237.5" y="-83.5" font-family="Helvetica,sans-Serif" font-size="10.00">CoolPubSubClient::publish</text>
</a>
</g>
</g>
<!-- Node91&#45;&gt;Node93 -->
<g id="edge2" class="edge"><title>Node91&#45;&gt;Node93</title>
<path fill="none" stroke="midnightblue" d="M134.463,-74.8259C146.318,-76.1241 158.566,-77.4654 170.283,-78.7486"/>
<polygon fill="midnightblue" stroke="midnightblue" points="134.491,-71.3082 124.17,-73.6987 133.729,-78.2666 134.491,-71.3082"/>
</g>
<!-- Node94 -->
<g id="node4" class="node"><title>Node94</title>
<g id="a_node4"><a xlink:href="../../d8/d4b/class_cool_pub_sub_client.html#aebf684e98588c52a72af1014f7957bee" target="_top" xlink:title="CoolPubSubClient::subscribe">
<polygon fill="white" stroke="black" points="165,-38.5 165,-57.5 310,-57.5 310,-38.5 165,-38.5"/>
<text text-anchor="middle" x="237.5" y="-45.5" font-family="Helvetica,sans-Serif" font-size="10.00">CoolPubSubClient::subscribe</text>
</a>
</g>
</g>
<!-- Node91&#45;&gt;Node94 -->
<g id="edge3" class="edge"><title>Node91&#45;&gt;Node94</title>
<path fill="none" stroke="midnightblue" d="M134.188,-59.2042C144.326,-58.094 154.757,-56.9517 164.903,-55.8406"/>
<polygon fill="midnightblue" stroke="midnightblue" points="133.729,-55.7334 124.17,-60.3013 134.491,-62.6918 133.729,-55.7334"/>
</g>
<!-- Node95 -->
<g id="node5" class="node"><title>Node95</title>
<g id="a_node5"><a xlink:href="../../d8/d4b/class_cool_pub_sub_client.html#a850554280e314d6b5c33c73fd9e809fc" target="_top" xlink:title="CoolPubSubClient::unsubscribe">
<polygon fill="white" stroke="black" points="160,-0.5 160,-19.5 315,-19.5 315,-0.5 160,-0.5"/>
<text text-anchor="middle" x="237.5" y="-7.5" font-family="Helvetica,sans-Serif" font-size="10.00">CoolPubSubClient::unsubscribe</text>
</a>
</g>
</g>
<!-- Node91&#45;&gt;Node95 -->
<g id="edge4" class="edge"><title>Node91&#45;&gt;Node95</title>
<path fill="none" stroke="midnightblue" d="M94.3271,-53.5306C113.147,-45.7409 137.694,-36.1061 160,-29 170.822,-25.5523 182.669,-22.3429 193.737,-19.5798"/>
<polygon fill="midnightblue" stroke="midnightblue" points="92.9237,-50.3237 85.05,-57.4128 95.626,-56.7811 92.9237,-50.3237"/>
</g>
</g>
</svg>
