<?xml version="1.0" encoding="UTF-8" standalone="no"?>
<!DOCTYPE svg PUBLIC "-//W3C//DTD SVG 1.1//EN"
 "http://www.w3.org/Graphics/SVG/1.1/DTD/svg11.dtd">
<!-- Generated by graphviz version 2.38.0 (20140413.2041)
 -->
<!-- Title: CoolPubSubClient::loop Pages: 1 -->
<svg width="587pt" height="79pt"
 viewBox="0.00 0.00 587.00 78.99" xmlns="http://www.w3.org/2000/svg" xmlns:xlink="http://www.w3.org/1999/xlink">
<g id="graph0" class="graph" transform="scale(1 1) rotate(0) translate(4 74.9937)">
<title>CoolPubSubClient::loop</title>
<polygon fill="white" stroke="none" points="-4,4 -4,-74.9937 583,-74.9937 583,4 -4,4"/>
<!-- Node194 -->
<g id="node1" class="node"><title>Node194</title>
<polygon fill="#bfbfbf" stroke="black" points="0,-38.5 0,-57.5 121,-57.5 121,-38.5 0,-38.5"/>
<text text-anchor="middle" x="60.5" y="-45.5" font-family="Helvetica,sans-Serif" font-size="10.00">CoolPubSubClient::loop</text>
</g>
<!-- Node195 -->
<g id="node2" class="node"><title>Node195</title>
<g id="a_node2"><a xlink:href="../../d0/dd0/class_cool_m_q_t_t.html#aa5eaae967b562b62cbcf2b8d81f6e5d5" target="_top" xlink:title="CoolMQTT::mqttLoop">
<polygon fill="white" stroke="black" points="157,-38.5 157,-57.5 268,-57.5 268,-38.5 157,-38.5"/>
<text text-anchor="middle" x="212.5" y="-45.5" font-family="Helvetica,sans-Serif" font-size="10.00">CoolMQTT::mqttLoop</text>
</a>
</g>
</g>
<!-- Node194&#45;&gt;Node195 -->
<g id="edge1" class="edge"><title>Node194&#45;&gt;Node195</title>
<path fill="none" stroke="midnightblue" d="M131.239,-48C139.837,-48 148.527,-48 156.856,-48"/>
<polygon fill="midnightblue" stroke="midnightblue" points="131.215,-44.5001 121.215,-48 131.215,-51.5001 131.215,-44.5001"/>
</g>
<!-- Node196 -->
<g id="node3" class="node"><title>Node196</title>
<g id="a_node3"><a xlink:href="../../d7/df9/class_cool_board.html#aa0bbc4bc605e35618d18e68795c61363" target="_top" xlink:title="CoolBoard::onLineMode">
<polygon fill="white" stroke="black" points="458,-38.5 458,-57.5 579,-57.5 579,-38.5 458,-38.5"/>
<text text-anchor="middle" x="518.5" y="-45.5" font-family="Helvetica,sans-Serif" font-size="10.00">CoolBoard::onLineMode</text>
</a>
</g>
</g>
<!-- Node195&#45;&gt;Node196 -->
<g id="edge2" class="edge"><title>Node195&#45;&gt;Node196</title>
<path fill="none" stroke="midnightblue" d="M260.122,-59.7112C274.133,-62.7085 289.608,-65.5056 304,-67 356.164,-72.4167 369.808,-72.1415 422,-67 440.842,-65.1438 461.477,-61.2751 478.729,-57.5101"/>
<polygon fill="midnightblue" stroke="midnightblue" points="260.735,-56.2622 250.214,-57.5091 259.216,-63.0955 260.735,-56.2622"/>
</g>
<!-- Node197 -->
<g id="node4" class="node"><title>Node197</title>
<g id="a_node4"><a xlink:href="../../d7/df9/class_cool_board.html#a705398b11560603fcdd1b9e8e95d0027" target="_top" xlink:title="CoolBoard::sendConfig">
<polygon fill="white" stroke="black" points="304,-38.5 304,-57.5 422,-57.5 422,-38.5 304,-38.5"/>
<text text-anchor="middle" x="363" y="-45.5" font-family="Helvetica,sans-Serif" font-size="10.00">CoolBoard::sendConfig</text>
</a>
</g>
</g>
<!-- Node195&#45;&gt;Node197 -->
<g id="edge3" class="edge"><title>Node195&#45;&gt;Node197</title>
<path fill="none" stroke="midnightblue" d="M278.544,-48C286.971,-48 295.559,-48 303.865,-48"/>
<polygon fill="midnightblue" stroke="midnightblue" points="278.374,-44.5001 268.374,-48 278.374,-51.5001 278.374,-44.5001"/>
</g>
<!-- Node198 -->
<g id="node5" class="node"><title>Node198</title>
<g id="a_node5"><a xlink:href="../../d7/df9/class_cool_board.html#a8612756d3f73198cdde857a66f0fe690" target="_top" xlink:title="CoolBoard::update">
<polygon fill="white" stroke="black" points="314,-0.5 314,-19.5 412,-19.5 412,-0.5 314,-0.5"/>
<text text-anchor="middle" x="363" y="-7.5" font-family="Helvetica,sans-Serif" font-size="10.00">CoolBoard::update</text>
</a>
</g>
</g>
<!-- Node195&#45;&gt;Node198 -->
<g id="edge5" class="edge"><title>Node195&#45;&gt;Node198</title>
<path fill="none" stroke="midnightblue" d="M260.833,-35.8879C281.515,-30.5956 305.419,-24.4787 324.797,-19.5201"/>
<polygon fill="midnightblue" stroke="midnightblue" points="259.793,-32.5411 250.973,-38.411 261.528,-39.3226 259.793,-32.5411"/>
</g>
<!-- Node197&#45;&gt;Node196 -->
<g id="edge4" class="edge"><title>Node197&#45;&gt;Node196</title>
<path fill="none" stroke="midnightblue" d="M432.038,-48C440.642,-48 449.394,-48 457.854,-48"/>
<polygon fill="midnightblue" stroke="midnightblue" points="432.032,-44.5001 422.032,-48 432.032,-51.5001 432.032,-44.5001"/>
</g>
<!-- Node198&#45;&gt;Node196 -->
<g id="edge6" class="edge"><title>Node198&#45;&gt;Node196</title>
<path fill="none" stroke="midnightblue" d="M412.635,-22.04C434.08,-27.3488 458.923,-33.4988 479.044,-38.4799"/>
<polygon fill="midnightblue" stroke="midnightblue" points="413.283,-18.5947 402.735,-19.589 411.6,-25.3896 413.283,-18.5947"/>
</g>
</g>
</svg>
