<?xml version="1.0" encoding="UTF-8" standalone="no"?>
<!DOCTYPE svg PUBLIC "-//W3C//DTD SVG 1.1//EN"
 "http://www.w3.org/Graphics/SVG/1.1/DTD/svg11.dtd">
<!-- Generated by graphviz version 2.38.0 (20140413.2041)
 -->
<!-- Title: CoolPubSubClient::connect Pages: 1 -->
<!--zoomable 85 -->
<svg id="main" version="1.1" xmlns="http://www.w3.org/2000/svg" xmlns:xlink="http://www.w3.org/1999/xlink" xml:space="preserve" onload="init(evt)">
<style type="text/css"><![CDATA[
.edge:hover path { stroke: red; }
.edge:hover polygon { stroke: red; fill: red; }
]]></style>
<script type="text/javascript"><![CDATA[
var edges = document.getElementsByTagName('g');
if (edges && edges.length) {
  for (var i=0;i<edges.length;i++) {
    if (edges[i].id.substr(0,4)=='edge') {
      edges[i].setAttribute('class','edge');
    }
  }
}
]]></script>
        <defs>
                <circle id="rim" cx="0" cy="0" r="7"/>
                <circle id="rim2" cx="0" cy="0" r="3.5"/>
                <g id="zoomPlus">
                        <use xlink:href="#rim" fill="#404040">
                                <set attributeName="fill" to="#808080" begin="zoomplus.mouseover" end="zoomplus.mouseout"/>
                        </use>
                        <path d="M-4,0h8M0,-4v8" fill="none" stroke="white" stroke-width="1.5" pointer-events="none"/>
                </g>
                <g id="zoomMin">
                        <use xlink:href="#rim" fill="#404040">
                                <set attributeName="fill" to="#808080" begin="zoomminus.mouseover" end="zoomminus.mouseout"/>
                        </use>
                        <path d="M-4,0h8" fill="none" stroke="white" stroke-width="1.5" pointer-events="none"/>
                </g>
                <g id="dirArrow">
                        <path fill="none" stroke="white" stroke-width="1.5" d="M0,-3.0v7 M-2.5,-0.5L0,-3.0L2.5,-0.5"/>
                </g>
               <g id="resetDef">
                       <use xlink:href="#rim2" fill="#404040">
                               <set attributeName="fill" to="#808080" begin="reset.mouseover" end="reset.mouseout"/>
                       </use>
               </g>
        </defs>

<script type="text/javascript">
var viewWidth = 615;
var viewHeight = 85;
var sectionId = 'dynsection-26';
</script>
<script xlink:href="../../svgpan.js"/>
<svg id="graph" class="graph">
<g id="viewport">
<title>CoolPubSubClient::connect</title>
<polygon fill="white" stroke="none" points="-4,4 -4,-81 611,-81 611,4 -4,4"/>
<!-- Node130 -->
<g id="node1" class="node"><title>Node130</title>
<polygon fill="#bfbfbf" stroke="black" points="0,-19.5 0,-38.5 137,-38.5 137,-19.5 0,-19.5"/>
<text text-anchor="middle" x="68.5" y="-26.5" font-family="Helvetica,sans-Serif" font-size="10.00">CoolPubSubClient::connect</text>
</g>
<!-- Node131 -->
<g id="node2" class="node"><title>Node131</title>
<g id="a_node2"><a xlink:href="../../d0/dd0/class_cool_m_q_t_t.html#a50075d0ab23a327ab897fd6adad20eda" target="_top" xlink:title="CoolMQTT::connect">
<polygon fill="white" stroke="black" points="189,-38.5 189,-57.5 294,-57.5 294,-38.5 189,-38.5"/>
<text text-anchor="middle" x="241.5" y="-45.5" font-family="Helvetica,sans-Serif" font-size="10.00">CoolMQTT::connect</text>
</a>
</g>
</g>
<!-- Node130&#45;&gt;Node131 -->
<g id="edge1" class="edge"><title>Node130&#45;&gt;Node131</title>
<path fill="none" stroke="midnightblue" d="M147.298,-37.6442C161.424,-39.2138 175.834,-40.8148 188.966,-42.274"/>
<polygon fill="midnightblue" stroke="midnightblue" points="147.409,-34.1351 137.084,-36.5093 146.636,-41.0923 147.409,-34.1351"/>
</g>
<!-- Node135 -->
<g id="node6" class="node"><title>Node135</title>
<g id="a_node6"><a xlink:href="../../d8/d4b/class_cool_pub_sub_client.html#a7f30e39bf4ca5ea5fb9747c403639a03" target="_top" xlink:title="CoolPubSubClient::connect">
<polygon fill="white" stroke="black" points="173,-0.5 173,-19.5 310,-19.5 310,-0.5 173,-0.5"/>
<text text-anchor="middle" x="241.5" y="-7.5" font-family="Helvetica,sans-Serif" font-size="10.00">CoolPubSubClient::connect</text>
</a>
</g>
</g>
<!-- Node130&#45;&gt;Node135 -->
<g id="edge5" class="edge"><title>Node130&#45;&gt;Node135</title>
<path fill="none" stroke="midnightblue" d="M147.1,-20.3778C155.692,-19.4231 164.391,-18.4565 172.847,-17.517"/>
<polygon fill="midnightblue" stroke="midnightblue" points="146.636,-16.9077 137.084,-21.4907 147.409,-23.8649 146.636,-16.9077"/>
</g>
<!-- Node132 -->
<g id="node3" class="node"><title>Node132</title>
<g id="a_node3"><a xlink:href="../../d7/df9/class_cool_board.html#a519de78b807f8ec6463ff484eb925918" target="_top" xlink:title="CoolBoard::connect">
<polygon fill="white" stroke="black" points="346,-38.5 346,-57.5 449,-57.5 449,-38.5 346,-38.5"/>
<text text-anchor="middle" x="397.5" y="-45.5" font-family="Helvetica,sans-Serif" font-size="10.00">CoolBoard::connect</text>
</a>
</g>
</g>
<!-- Node131&#45;&gt;Node132 -->
<g id="edge2" class="edge"><title>Node131&#45;&gt;Node132</title>
<path fill="none" stroke="midnightblue" d="M304.569,-48C318.325,-48 332.743,-48 345.974,-48"/>
<polygon fill="midnightblue" stroke="midnightblue" points="304.208,-44.5001 294.208,-48 304.208,-51.5001 304.208,-44.5001"/>
</g>
<!-- Node133 -->
<g id="node4" class="node"><title>Node133</title>
<g id="a_node4"><a xlink:href="../../d7/df9/class_cool_board.html#acba7c5aef7268b2c0044bdb54d3b9d76" target="_top" xlink:title="CoolBoard::begin">
<polygon fill="white" stroke="black" points="500,-57.5 500,-76.5 592,-76.5 592,-57.5 500,-57.5"/>
<text text-anchor="middle" x="546" y="-64.5" font-family="Helvetica,sans-Serif" font-size="10.00">CoolBoard::begin</text>
</a>
</g>
</g>
<!-- Node132&#45;&gt;Node133 -->
<g id="edge3" class="edge"><title>Node132&#45;&gt;Node133</title>
<path fill="none" stroke="midnightblue" d="M459.472,-55.9076C472.924,-57.6522 486.944,-59.4706 499.648,-61.1182"/>
<polygon fill="midnightblue" stroke="midnightblue" points="459.695,-52.4073 449.327,-54.592 458.794,-59.3491 459.695,-52.4073"/>
</g>
<!-- Node134 -->
<g id="node5" class="node"><title>Node134</title>
<g id="a_node5"><a xlink:href="../../d7/df9/class_cool_board.html#ae6b5e1274d760462290192acea4adca8" target="_top" xlink:title="CoolBoard::offLineMode">
<polygon fill="white" stroke="black" points="485,-19.5 485,-38.5 607,-38.5 607,-19.5 485,-19.5"/>
<text text-anchor="middle" x="546" y="-26.5" font-family="Helvetica,sans-Serif" font-size="10.00">CoolBoard::offLineMode</text>
</a>
</g>
</g>
<!-- Node132&#45;&gt;Node134 -->
<g id="edge4" class="edge"><title>Node132&#45;&gt;Node134</title>
<path fill="none" stroke="midnightblue" d="M459.462,-40.0937C467.887,-39.001 476.535,-37.8794 484.943,-36.789"/>
<polygon fill="midnightblue" stroke="midnightblue" points="458.794,-36.6509 449.327,-41.408 459.695,-43.5927 458.794,-36.6509"/>
</g>
</g>
</svg>
        <g id="navigator" transform="translate(0 0)" fill="#404254">
                <rect fill="#f2f5e9" fill-opacity="0.5" stroke="#606060" stroke-width=".5" x="0" y="0" width="60" height="60"/>
                <use id="zoomplus" xlink:href="#zoomPlus" x="17" y="9" onmousedown="handleZoom(evt,'in')"/>
                <use id="zoomminus" xlink:href="#zoomMin" x="42" y="9" onmousedown="handleZoom(evt,'out')"/>
                <use id="reset" xlink:href="#resetDef" x="30" y="36" onmousedown="handleReset()"/>
                <g id="arrowUp" xlink:href="#dirArrow" transform="translate(30 24)" onmousedown="handlePan(0,-1)">
                  <use xlink:href="#rim" fill="#404040">
                        <set attributeName="fill" to="#808080" begin="arrowUp.mouseover" end="arrowUp.mouseout"/>
                  </use>
                  <path fill="none" stroke="white" stroke-width="1.5" d="M0,-3.0v7 M-2.5,-0.5L0,-3.0L2.5,-0.5"/>
                </g>
                <g id="arrowRight" xlink:href="#dirArrow" transform="rotate(90) translate(36 -43)" onmousedown="handlePan(1,0)">
                  <use xlink:href="#rim" fill="#404040">
                        <set attributeName="fill" to="#808080" begin="arrowRight.mouseover" end="arrowRight.mouseout"/>
                  </use>
                  <path fill="none" stroke="white" stroke-width="1.5" d="M0,-3.0v7 M-2.5,-0.5L0,-3.0L2.5,-0.5"/>
                </g>
                <g id="arrowDown" xlink:href="#dirArrow" transform="rotate(180) translate(-30 -48)" onmousedown="handlePan(0,1)">
                  <use xlink:href="#rim" fill="#404040">
                        <set attributeName="fill" to="#808080" begin="arrowDown.mouseover" end="arrowDown.mouseout"/>
                  </use>
                  <path fill="none" stroke="white" stroke-width="1.5" d="M0,-3.0v7 M-2.5,-0.5L0,-3.0L2.5,-0.5"/>
                </g>
                <g id="arrowLeft" xlink:href="#dirArrow" transform="rotate(270) translate(-36 17)" onmousedown="handlePan(-1,0)">
                  <use xlink:href="#rim" fill="#404040">
                        <set attributeName="fill" to="#808080" begin="arrowLeft.mouseover" end="arrowLeft.mouseout"/>
                  </use>
                  <path fill="none" stroke="white" stroke-width="1.5" d="M0,-3.0v7 M-2.5,-0.5L0,-3.0L2.5,-0.5"/>
                </g>
        </g>
        <svg viewBox="0 0 15 15" width="100%" height="30px" preserveAspectRatio="xMaxYMin meet">
         <g id="arrow_out" transform="scale(0.3 0.3)">
          <a xlink:href="class_cool_pub_sub_client_a2664c2ebc302b2fa49f493a339ecc891_icgraph_org.svg" target="_base">
           <rect id="button" ry="5" rx="5" y="6" x="6" height="38" width="38"
                fill="#f2f5e9" fill-opacity="0.5" stroke="#606060" stroke-width="1.0"/>
           <path id="arrow"
             d="M 11.500037,31.436501 C 11.940474,20.09759 22.043105,11.32322 32.158766,21.979434 L 37.068811,17.246167 C 37.068811,17.246167 37.088388,32 37.088388,32 L 22.160133,31.978069 C 22.160133,31.978069 26.997745,27.140456 26.997745,27.140456 C 18.528582,18.264221 13.291696,25.230495 11.500037,31.436501 z"
             style="fill:#404040;"/>
          </a>
         </g>
        </svg>
</svg>
