<?xml version="1.0" encoding="UTF-8" standalone="no"?>
<!DOCTYPE svg PUBLIC "-//W3C//DTD SVG 1.1//EN"
 "http://www.w3.org/Graphics/SVG/1.1/DTD/svg11.dtd">
<!-- Generated by graphviz version 2.38.0 (20140413.2041)
 -->
<!-- Title: CoolPubSubClient::state Pages: 1 -->
<svg width="717pt" height="142pt"
 viewBox="0.00 0.00 717.00 142.00" xmlns="http://www.w3.org/2000/svg" xmlns:xlink="http://www.w3.org/1999/xlink">
<g id="graph0" class="graph" transform="scale(1 1) rotate(0) translate(4 138)">
<title>CoolPubSubClient::state</title>
<polygon fill="white" stroke="none" points="-4,4 -4,-138 713,-138 713,4 -4,4"/>
<!-- Node216 -->
<g id="node1" class="node"><title>Node216</title>
<polygon fill="#bfbfbf" stroke="black" points="0,-57.5 0,-76.5 125,-76.5 125,-57.5 0,-57.5"/>
<text text-anchor="middle" x="62.5" y="-64.5" font-family="Helvetica,sans-Serif" font-size="10.00">CoolPubSubClient::state</text>
</g>
<!-- Node217 -->
<g id="node2" class="node"><title>Node217</title>
<g id="a_node2"><a xlink:href="../../d0/dd0/class_cool_m_q_t_t.html#a5d003307eff78efbd585e42b43b72b6d" target="_top" xlink:title="CoolMQTT::state">
<polygon fill="white" stroke="black" points="161,-57.5 161,-76.5 253,-76.5 253,-57.5 161,-57.5"/>
<text text-anchor="middle" x="207" y="-64.5" font-family="Helvetica,sans-Serif" font-size="10.00">CoolMQTT::state</text>
</a>
</g>
</g>
<!-- Node216&#45;&gt;Node217 -->
<g id="edge1" class="edge"><title>Node216&#45;&gt;Node217</title>
<path fill="none" stroke="midnightblue" d="M135.385,-67C144.105,-67 152.813,-67 160.985,-67"/>
<polygon fill="midnightblue" stroke="midnightblue" points="135.174,-63.5001 125.174,-67 135.174,-70.5001 135.174,-63.5001"/>
</g>
<!-- Node218 -->
<g id="node3" class="node"><title>Node218</title>
<g id="a_node3"><a xlink:href="../../d0/dd0/class_cool_m_q_t_t.html#a50075d0ab23a327ab897fd6adad20eda" target="_top" xlink:title="CoolMQTT::connect">
<polygon fill="white" stroke="black" points="298,-114.5 298,-133.5 403,-133.5 403,-114.5 298,-114.5"/>
<text text-anchor="middle" x="350.5" y="-121.5" font-family="Helvetica,sans-Serif" font-size="10.00">CoolMQTT::connect</text>
</a>
</g>
</g>
<!-- Node217&#45;&gt;Node218 -->
<g id="edge2" class="edge"><title>Node217&#45;&gt;Node218</title>
<path fill="none" stroke="midnightblue" d="M241.027,-80.5358C255.705,-86.5308 273.203,-93.6489 289,-100 300.952,-104.805 314.257,-110.09 325.339,-114.474"/>
<polygon fill="midnightblue" stroke="midnightblue" points="241.952,-77.1328 231.371,-76.5881 239.303,-83.6122 241.952,-77.1328"/>
</g>
<!-- Node219 -->
<g id="node4" class="node"><title>Node219</title>
<g id="a_node4"><a xlink:href="../../d7/df9/class_cool_board.html#a519de78b807f8ec6463ff484eb925918" target="_top" xlink:title="CoolBoard::connect">
<polygon fill="white" stroke="black" points="448,-76.5 448,-95.5 551,-95.5 551,-76.5 448,-76.5"/>
<text text-anchor="middle" x="499.5" y="-83.5" font-family="Helvetica,sans-Serif" font-size="10.00">CoolBoard::connect</text>
</a>
</g>
</g>
<!-- Node217&#45;&gt;Node219 -->
<g id="edge6" class="edge"><title>Node217&#45;&gt;Node219</title>
<path fill="none" stroke="midnightblue" d="M263.349,-70.6201C316.587,-74.1021 396.381,-79.3209 447.947,-82.6936"/>
<polygon fill="midnightblue" stroke="midnightblue" points="263.279,-67.1081 253.072,-69.9479 262.822,-74.0932 263.279,-67.1081"/>
</g>
<!-- Node221 -->
<g id="node6" class="node"><title>Node221</title>
<g id="a_node6"><a xlink:href="../../d7/df9/class_cool_board.html#ae6b5e1274d760462290192acea4adca8" target="_top" xlink:title="CoolBoard::offLineMode">
<polygon fill="white" stroke="black" points="587,-38.5 587,-57.5 709,-57.5 709,-38.5 587,-38.5"/>
<text text-anchor="middle" x="648" y="-45.5" font-family="Helvetica,sans-Serif" font-size="10.00">CoolBoard::offLineMode</text>
</a>
</g>
</g>
<!-- Node217&#45;&gt;Node221 -->
<g id="edge8" class="edge"><title>Node217&#45;&gt;Node221</title>
<path fill="none" stroke="midnightblue" d="M263.545,-64.596C346.366,-61.0115 501.599,-54.293 586.956,-50.5987"/>
<polygon fill="midnightblue" stroke="midnightblue" points="263.167,-61.109 253.327,-65.0382 263.469,-68.1025 263.167,-61.109"/>
</g>
<!-- Node222 -->
<g id="node7" class="node"><title>Node222</title>
<g id="a_node7"><a xlink:href="../../d7/df9/class_cool_board.html#ad7442cf4b62c7b0d5bd62a0f75ffc065" target="_top" xlink:title="CoolBoard::isConnected">
<polygon fill="white" stroke="black" points="289,-0.5 289,-19.5 412,-19.5 412,-0.5 289,-0.5"/>
<text text-anchor="middle" x="350.5" y="-7.5" font-family="Helvetica,sans-Serif" font-size="10.00">CoolBoard::isConnected</text>
</a>
</g>
</g>
<!-- Node217&#45;&gt;Node222 -->
<g id="edge7" class="edge"><title>Node217&#45;&gt;Node222</title>
<path fill="none" stroke="midnightblue" d="M241.027,-53.4642C255.705,-47.4692 273.203,-40.3511 289,-34 300.952,-29.1948 314.257,-23.91 325.339,-19.5256"/>
<polygon fill="midnightblue" stroke="midnightblue" points="239.303,-50.3878 231.371,-57.4119 241.952,-56.8672 239.303,-50.3878"/>
</g>
<!-- Node218&#45;&gt;Node219 -->
<g id="edge3" class="edge"><title>Node218&#45;&gt;Node219</title>
<path fill="none" stroke="midnightblue" d="M398.355,-111.888C418.828,-106.596 442.49,-100.479 461.672,-95.5201"/>
<polygon fill="midnightblue" stroke="midnightblue" points="397.4,-108.52 388.594,-114.411 399.152,-115.297 397.4,-108.52"/>
</g>
<!-- Node220 -->
<g id="node5" class="node"><title>Node220</title>
<g id="a_node5"><a xlink:href="../../d7/df9/class_cool_board.html#acba7c5aef7268b2c0044bdb54d3b9d76" target="_top" xlink:title="CoolBoard::begin">
<polygon fill="white" stroke="black" points="602,-76.5 602,-95.5 694,-95.5 694,-76.5 602,-76.5"/>
<text text-anchor="middle" x="648" y="-83.5" font-family="Helvetica,sans-Serif" font-size="10.00">CoolBoard::begin</text>
</a>
</g>
</g>
<!-- Node219&#45;&gt;Node220 -->
<g id="edge4" class="edge"><title>Node219&#45;&gt;Node220</title>
<path fill="none" stroke="midnightblue" d="M561.472,-86C574.924,-86 588.944,-86 601.648,-86"/>
<polygon fill="midnightblue" stroke="midnightblue" points="561.327,-82.5001 551.327,-86 561.327,-89.5001 561.327,-82.5001"/>
</g>
<!-- Node219&#45;&gt;Node221 -->
<g id="edge5" class="edge"><title>Node219&#45;&gt;Node221</title>
<path fill="none" stroke="midnightblue" d="M547.195,-73.8879C567.599,-68.5956 591.181,-62.4787 610.298,-57.5201"/>
<polygon fill="midnightblue" stroke="midnightblue" points="546.269,-70.5123 537.468,-76.411 548.027,-77.288 546.269,-70.5123"/>
</g>
</g>
</svg>
