<?xml version="1.0" encoding="UTF-8" standalone="no"?>
<!DOCTYPE svg PUBLIC "-//W3C//DTD SVG 1.1//EN"
 "http://www.w3.org/Graphics/SVG/1.1/DTD/svg11.dtd">
<!-- Generated by graphviz version 2.38.0 (20140413.2041)
 -->
<!-- Title: CoolPubSubClient::publish Pages: 1 -->
<svg width="623pt" height="122pt"
 viewBox="0.00 0.00 623.00 122.01" xmlns="http://www.w3.org/2000/svg" xmlns:xlink="http://www.w3.org/1999/xlink">
<g id="graph0" class="graph" transform="scale(1 1) rotate(0) translate(4 118.006)">
<title>CoolPubSubClient::publish</title>
<polygon fill="white" stroke="none" points="-4,4 -4,-118.006 619,-118.006 619,4 -4,4"/>
<!-- Node152 -->
<g id="node1" class="node"><title>Node152</title>
<polygon fill="#bfbfbf" stroke="black" points="0,-38.5 0,-57.5 134,-57.5 134,-38.5 0,-38.5"/>
<text text-anchor="middle" x="67" y="-45.5" font-family="Helvetica,sans-Serif" font-size="10.00">CoolPubSubClient::publish</text>
</g>
<!-- Node153 -->
<g id="node2" class="node"><title>Node153</title>
<g id="a_node2"><a xlink:href="../../d0/dd0/class_cool_m_q_t_t.html#ace977b3e90ab14b1199fe5c4fb0a13ec" target="_top" xlink:title="CoolMQTT::publish">
<polygon fill="white" stroke="black" points="186.5,-57.5 186.5,-76.5 287.5,-76.5 287.5,-57.5 186.5,-57.5"/>
<text text-anchor="middle" x="237" y="-64.5" font-family="Helvetica,sans-Serif" font-size="10.00">CoolMQTT::publish</text>
</a>
</g>
</g>
<!-- Node152&#45;&gt;Node153 -->
<g id="edge1" class="edge"><title>Node152&#45;&gt;Node153</title>
<path fill="none" stroke="midnightblue" d="M144.651,-56.6689C158.833,-58.2728 173.296,-59.9085 186.407,-61.3913"/>
<polygon fill="midnightblue" stroke="midnightblue" points="144.728,-53.1553 134.398,-55.5093 143.941,-60.111 144.728,-53.1553"/>
</g>
<!-- Node158 -->
<g id="node7" class="node"><title>Node158</title>
<g id="a_node7"><a xlink:href="../../d8/d4b/class_cool_pub_sub_client.html#a0b01cef98af0b57d8da4df373e196448" target="_top" xlink:title="CoolPubSubClient::publish">
<polygon fill="white" stroke="black" points="170,-19.5 170,-38.5 304,-38.5 304,-19.5 170,-19.5"/>
<text text-anchor="middle" x="237" y="-26.5" font-family="Helvetica,sans-Serif" font-size="10.00">CoolPubSubClient::publish</text>
</a>
</g>
</g>
<!-- Node152&#45;&gt;Node158 -->
<g id="edge8" class="edge"><title>Node152&#45;&gt;Node158</title>
<path fill="none" stroke="midnightblue" d="M144.595,-39.3375C153.013,-38.3854 161.532,-37.422 169.809,-36.4859"/>
<polygon fill="midnightblue" stroke="midnightblue" points="143.941,-35.889 134.398,-40.4907 144.728,-42.8447 143.941,-35.889"/>
</g>
<!-- Node154 -->
<g id="node3" class="node"><title>Node154</title>
<g id="a_node3"><a xlink:href="../../d7/df9/class_cool_board.html#aa0bbc4bc605e35618d18e68795c61363" target="_top" xlink:title="CoolBoard::onLineMode">
<polygon fill="white" stroke="black" points="494,-38.5 494,-57.5 615,-57.5 615,-38.5 494,-38.5"/>
<text text-anchor="middle" x="554.5" y="-45.5" font-family="Helvetica,sans-Serif" font-size="10.00">CoolBoard::onLineMode</text>
</a>
</g>
</g>
<!-- Node153&#45;&gt;Node154 -->
<g id="edge2" class="edge"><title>Node153&#45;&gt;Node154</title>
<path fill="none" stroke="midnightblue" d="M266.521,-80.7606C286.556,-89.6379 314.268,-100.363 340,-105 391.613,-114.302 407.442,-118.941 458,-105 491.505,-95.7614 525.107,-71.3346 542.106,-57.6455"/>
<polygon fill="midnightblue" stroke="midnightblue" points="267.896,-77.541 257.344,-76.5857 264.997,-83.9126 267.896,-77.541"/>
</g>
<!-- Node155 -->
<g id="node4" class="node"><title>Node155</title>
<g id="a_node4"><a xlink:href="../../d0/dd0/class_cool_m_q_t_t.html#a613c5e3927ae85bb94fbf648d84d8780" target="_top" xlink:title="CoolMQTT::publish">
<polygon fill="white" stroke="black" points="348.5,-76.5 348.5,-95.5 449.5,-95.5 449.5,-76.5 348.5,-76.5"/>
<text text-anchor="middle" x="399" y="-83.5" font-family="Helvetica,sans-Serif" font-size="10.00">CoolMQTT::publish</text>
</a>
</g>
</g>
<!-- Node153&#45;&gt;Node155 -->
<g id="edge3" class="edge"><title>Node153&#45;&gt;Node155</title>
<path fill="none" stroke="midnightblue" d="M297.896,-74.1127C314.497,-76.084 332.332,-78.2019 348.283,-80.0961"/>
<polygon fill="midnightblue" stroke="midnightblue" points="298.091,-70.6113 287.748,-72.9076 297.265,-77.5624 298.091,-70.6113"/>
</g>
<!-- Node156 -->
<g id="node5" class="node"><title>Node156</title>
<g id="a_node5"><a xlink:href="../../d7/df9/class_cool_board.html#a705398b11560603fcdd1b9e8e95d0027" target="_top" xlink:title="CoolBoard::sendConfig">
<polygon fill="white" stroke="black" points="340,-38.5 340,-57.5 458,-57.5 458,-38.5 340,-38.5"/>
<text text-anchor="middle" x="399" y="-45.5" font-family="Helvetica,sans-Serif" font-size="10.00">CoolBoard::sendConfig</text>
</a>
</g>
</g>
<!-- Node153&#45;&gt;Node156 -->
<g id="edge4" class="edge"><title>Node153&#45;&gt;Node156</title>
<path fill="none" stroke="midnightblue" d="M298.031,-59.8713C311.728,-58.2448 326.26,-56.5191 339.876,-54.9023"/>
<polygon fill="midnightblue" stroke="midnightblue" points="297.265,-56.4376 287.748,-61.0924 298.091,-63.3887 297.265,-56.4376"/>
</g>
<!-- Node157 -->
<g id="node6" class="node"><title>Node157</title>
<g id="a_node6"><a xlink:href="../../d7/df9/class_cool_board.html#a8612756d3f73198cdde857a66f0fe690" target="_top" xlink:title="CoolBoard::update">
<polygon fill="white" stroke="black" points="350,-0.5 350,-19.5 448,-19.5 448,-0.5 350,-0.5"/>
<text text-anchor="middle" x="399" y="-7.5" font-family="Helvetica,sans-Serif" font-size="10.00">CoolBoard::update</text>
</a>
</g>
</g>
<!-- Node153&#45;&gt;Node157 -->
<g id="edge6" class="edge"><title>Node153&#45;&gt;Node157</title>
<path fill="none" stroke="midnightblue" d="M285.804,-54.5038C291.993,-52.518 298.194,-50.3391 304,-48 320.781,-41.2397 323.344,-36.0635 340,-29 348.097,-25.5663 357.04,-22.3619 365.43,-19.5991"/>
<polygon fill="midnightblue" stroke="midnightblue" points="284.683,-51.1865 276.146,-57.461 286.733,-57.8797 284.683,-51.1865"/>
</g>
<!-- Node156&#45;&gt;Node154 -->
<g id="edge5" class="edge"><title>Node156&#45;&gt;Node154</title>
<path fill="none" stroke="midnightblue" d="M468.038,-48C476.642,-48 485.394,-48 493.854,-48"/>
<polygon fill="midnightblue" stroke="midnightblue" points="468.032,-44.5001 458.032,-48 468.032,-51.5001 468.032,-44.5001"/>
</g>
<!-- Node157&#45;&gt;Node154 -->
<g id="edge7" class="edge"><title>Node157&#45;&gt;Node154</title>
<path fill="none" stroke="midnightblue" d="M448.635,-22.04C470.08,-27.3488 494.923,-33.4988 515.044,-38.4799"/>
<polygon fill="midnightblue" stroke="midnightblue" points="449.283,-18.5947 438.735,-19.589 447.6,-25.3896 449.283,-18.5947"/>
</g>
</g>
</svg>
