<?xml version="1.0" encoding="UTF-8" standalone="no"?>
<!DOCTYPE svg PUBLIC "-//W3C//DTD SVG 1.1//EN"
 "http://www.w3.org/Graphics/SVG/1.1/DTD/svg11.dtd">
<!-- Generated by graphviz version 2.38.0 (20140413.2041)
 -->
<!-- Title: CoolPubSubClient::setServer Pages: 1 -->
<svg width="462pt" height="116pt"
 viewBox="0.00 0.00 462.00 116.00" xmlns="http://www.w3.org/2000/svg" xmlns:xlink="http://www.w3.org/1999/xlink">
<g id="graph0" class="graph" transform="scale(1 1) rotate(0) translate(4 112)">
<title>CoolPubSubClient::setServer</title>
<polygon fill="white" stroke="none" points="-4,4 -4,-112 458,-112 458,4 -4,4"/>
<!-- Node104 -->
<g id="node1" class="node"><title>Node104</title>
<polygon fill="#bfbfbf" stroke="black" points="0,-44.5 0,-63.5 145,-63.5 145,-44.5 0,-44.5"/>
<text text-anchor="middle" x="72.5" y="-51.5" font-family="Helvetica,sans-Serif" font-size="10.00">CoolPubSubClient::setServer</text>
</g>
<!-- Node105 -->
<g id="node2" class="node"><title>Node105</title>
<g id="a_node2"><a xlink:href="../../d0/dd0/class_cool_m_q_t_t.html#ac9248808641ebf3054ed0620ea9d0100" target="_top" xlink:title="CoolMQTT::begin">
<polygon fill="white" stroke="black" points="206.5,-88.5 206.5,-107.5 300.5,-107.5 300.5,-88.5 206.5,-88.5"/>
<text text-anchor="middle" x="253.5" y="-95.5" font-family="Helvetica,sans-Serif" font-size="10.00">CoolMQTT::begin</text>
</a>
</g>
</g>
<!-- Node104&#45;&gt;Node105 -->
<g id="edge1" class="edge"><title>Node104&#45;&gt;Node105</title>
<path fill="none" stroke="midnightblue" d="M122.192,-65.969C150.964,-73.0414 186.895,-81.8736 213.735,-88.4713"/>
<polygon fill="midnightblue" stroke="midnightblue" points="122.887,-62.5356 112.34,-63.5473 121.216,-69.3333 122.887,-62.5356"/>
</g>
<!-- Node107 -->
<g id="node4" class="node"><title>Node107</title>
<g id="a_node4"><a xlink:href="../../d8/d4b/class_cool_pub_sub_client.html#a4548ad6f306f6181e337a86c0b21a89a" target="_top" xlink:title="CoolPubSubClient::CoolPub\lSubClient">
<polygon fill="white" stroke="black" points="183.5,-39 183.5,-69 323.5,-69 323.5,-39 183.5,-39"/>
<text text-anchor="start" x="191.5" y="-57" font-family="Helvetica,sans-Serif" font-size="10.00">CoolPubSubClient::CoolPub</text>
<text text-anchor="middle" x="253.5" y="-46" font-family="Helvetica,sans-Serif" font-size="10.00">SubClient</text>
</a>
</g>
</g>
<!-- Node104&#45;&gt;Node107 -->
<g id="edge3" class="edge"><title>Node104&#45;&gt;Node107</title>
<path fill="none" stroke="midnightblue" d="M155.191,-54C164.628,-54 174.181,-54 183.427,-54"/>
<polygon fill="midnightblue" stroke="midnightblue" points="155.017,-50.5001 145.017,-54 155.017,-57.5001 155.017,-50.5001"/>
</g>
<!-- Node108 -->
<g id="node5" class="node"><title>Node108</title>
<g id="a_node5"><a xlink:href="../../d8/d4b/class_cool_pub_sub_client.html#ad589f977fc2799b9341dc5f4fcdb483a" target="_top" xlink:title="CoolPubSubClient::setServer">
<polygon fill="white" stroke="black" points="181,-0.5 181,-19.5 326,-19.5 326,-0.5 181,-0.5"/>
<text text-anchor="middle" x="253.5" y="-7.5" font-family="Helvetica,sans-Serif" font-size="10.00">CoolPubSubClient::setServer</text>
</a>
</g>
</g>
<!-- Node104&#45;&gt;Node108 -->
<g id="edge4" class="edge"><title>Node104&#45;&gt;Node108</title>
<path fill="none" stroke="midnightblue" d="M122.192,-42.031C150.964,-34.9586 186.895,-26.1264 213.735,-19.5287"/>
<polygon fill="midnightblue" stroke="midnightblue" points="121.216,-38.6667 112.34,-44.4527 122.887,-45.4644 121.216,-38.6667"/>
</g>
<!-- Node106 -->
<g id="node3" class="node"><title>Node106</title>
<g id="a_node3"><a xlink:href="../../d7/df9/class_cool_board.html#acba7c5aef7268b2c0044bdb54d3b9d76" target="_top" xlink:title="CoolBoard::begin">
<polygon fill="white" stroke="black" points="362,-88.5 362,-107.5 454,-107.5 454,-88.5 362,-88.5"/>
<text text-anchor="middle" x="408" y="-95.5" font-family="Helvetica,sans-Serif" font-size="10.00">CoolBoard::begin</text>
</a>
</g>
</g>
<!-- Node105&#45;&gt;Node106 -->
<g id="edge2" class="edge"><title>Node105&#45;&gt;Node106</title>
<path fill="none" stroke="midnightblue" d="M310.9,-98C327.669,-98 345.815,-98 361.775,-98"/>
<polygon fill="midnightblue" stroke="midnightblue" points="310.669,-94.5001 300.669,-98 310.669,-101.5 310.669,-94.5001"/>
</g>
</g>
</svg>
