<?xml version="1.0" encoding="UTF-8" standalone="no"?>
<!DOCTYPE svg PUBLIC "-//W3C//DTD SVG 1.1//EN"
 "http://www.w3.org/Graphics/SVG/1.1/DTD/svg11.dtd">
<!-- Generated by graphviz version 2.38.0 (20140413.2041)
 -->
<!-- Title: CoolPubSubClient::publish Pages: 1 -->
<svg width="327pt" height="104pt"
 viewBox="0.00 0.00 327.00 104.00" xmlns="http://www.w3.org/2000/svg" xmlns:xlink="http://www.w3.org/1999/xlink">
<g id="graph0" class="graph" transform="scale(1 1) rotate(0) translate(4 100)">
<title>CoolPubSubClient::publish</title>
<polygon fill="white" stroke="none" points="-4,4 -4,-100 323,-100 323,4 -4,4"/>
<!-- Node165 -->
<g id="node1" class="node"><title>Node165</title>
<polygon fill="#bfbfbf" stroke="black" points="0,-38.5 0,-57.5 134,-57.5 134,-38.5 0,-38.5"/>
<text text-anchor="middle" x="67" y="-45.5" font-family="Helvetica,sans-Serif" font-size="10.00">CoolPubSubClient::publish</text>
</g>
<!-- Node166 -->
<g id="node2" class="node"><title>Node166</title>
<g id="a_node2"><a xlink:href="../../d8/d4b/class_cool_pub_sub_client.html#a3d5a5da4ddb1e5c1bea64d80c665d148" target="_top" xlink:title="CoolPubSubClient::connected">
<polygon fill="white" stroke="black" points="170.5,-76.5 170.5,-95.5 318.5,-95.5 318.5,-76.5 170.5,-76.5"/>
<text text-anchor="middle" x="244.5" y="-83.5" font-family="Helvetica,sans-Serif" font-size="10.00">CoolPubSubClient::connected</text>
</a>
</g>
</g>
<!-- Node165&#45;&gt;Node166 -->
<g id="edge1" class="edge"><title>Node165&#45;&gt;Node166</title>
<path fill="none" stroke="midnightblue" d="M112.286,-57.589C135.758,-62.6713 164.781,-68.9554 189.558,-74.3203"/>
<polygon fill="midnightblue" stroke="midnightblue" points="189.018,-77.7844 199.532,-76.4799 190.5,-70.9429 189.018,-77.7844"/>
</g>
<!-- Node167 -->
<g id="node3" class="node"><title>Node167</title>
<g id="a_node3"><a xlink:href="../../d8/d4b/class_cool_pub_sub_client.html#a7a8e4854a1846eaa668046d3854d47ad" target="_top" xlink:title="CoolPubSubClient::write">
<polygon fill="white" stroke="black" points="182.5,-38.5 182.5,-57.5 306.5,-57.5 306.5,-38.5 182.5,-38.5"/>
<text text-anchor="middle" x="244.5" y="-45.5" font-family="Helvetica,sans-Serif" font-size="10.00">CoolPubSubClient::write</text>
</a>
</g>
</g>
<!-- Node165&#45;&gt;Node167 -->
<g id="edge2" class="edge"><title>Node165&#45;&gt;Node167</title>
<path fill="none" stroke="midnightblue" d="M134.349,-48C146.634,-48 159.515,-48 171.947,-48"/>
<polygon fill="midnightblue" stroke="midnightblue" points="172.261,-51.5001 182.261,-48 172.261,-44.5001 172.261,-51.5001"/>
</g>
<!-- Node168 -->
<g id="node4" class="node"><title>Node168</title>
<g id="a_node4"><a xlink:href="../../d8/d4b/class_cool_pub_sub_client.html#a0e3d7e776d4cf4427f9569b28868905a" target="_top" xlink:title="CoolPubSubClient::writeString">
<polygon fill="white" stroke="black" points="170,-0.5 170,-19.5 319,-19.5 319,-0.5 170,-0.5"/>
<text text-anchor="middle" x="244.5" y="-7.5" font-family="Helvetica,sans-Serif" font-size="10.00">CoolPubSubClient::writeString</text>
</a>
</g>
</g>
<!-- Node165&#45;&gt;Node168 -->
<g id="edge3" class="edge"><title>Node165&#45;&gt;Node168</title>
<path fill="none" stroke="midnightblue" d="M112.286,-38.411C135.758,-33.3287 164.781,-27.0446 189.558,-21.6797"/>
<polygon fill="midnightblue" stroke="midnightblue" points="190.5,-25.0571 199.532,-19.5201 189.018,-18.2156 190.5,-25.0571"/>
</g>
</g>
</svg>
