<?xml version="1.0" encoding="UTF-8" standalone="no"?>
<!DOCTYPE svg PUBLIC "-//W3C//DTD SVG 1.1//EN"
 "http://www.w3.org/Graphics/SVG/1.1/DTD/svg11.dtd">
<!-- Generated by graphviz version 2.38.0 (20140413.2041)
 -->
<!-- Title: CoolFileSystem::saveSensorData Pages: 1 -->
<svg width="391pt" height="78pt"
 viewBox="0.00 0.00 391.00 77.50" xmlns="http://www.w3.org/2000/svg" xmlns:xlink="http://www.w3.org/1999/xlink">
<g id="graph0" class="graph" transform="scale(1 1) rotate(0) translate(4 73.5)">
<title>CoolFileSystem::saveSensorData</title>
<polygon fill="white" stroke="none" points="-4,4 -4,-73.5 387,-73.5 387,4 -4,4"/>
<!-- Node14 -->
<g id="node1" class="node"><title>Node14</title>
<polygon fill="#bfbfbf" stroke="black" points="0,-28 0,-47 165,-47 165,-28 0,-28"/>
<text text-anchor="middle" x="82.5" y="-35" font-family="Helvetica,sans-Serif" font-size="10.00">CoolFileSystem::saveSensorData</text>
</g>
<!-- Node15 -->
<g id="node2" class="node"><title>Node15</title>
<g id="a_node2"><a xlink:href="$db/d0c/class_cool_file_system.html#aae045125288f255f3e258073dcada2a6" xlink:title="CoolFileSystem::incrementsavedData">
<polygon fill="white" stroke="black" points="201,-50 201,-69 383,-69 383,-50 201,-50"/>
<text text-anchor="middle" x="292" y="-57" font-family="Helvetica,sans-Serif" font-size="10.00">CoolFileSystem::incrementsavedData</text>
</a>
</g>
</g>
<!-- Node14&#45;&gt;Node15 -->
<g id="edge1" class="edge"><title>Node14&#45;&gt;Node15</title>
<path fill="none" stroke="midnightblue" d="M165.212,-46.1634C173.689,-47.0622 182.372,-47.9829 191.021,-48.8998"/>
<polygon fill="midnightblue" stroke="midnightblue" points="190.829,-52.399 201.142,-49.9729 191.567,-45.438 190.829,-52.399"/>
</g>
<!-- Node16 -->
<g id="node3" class="node"><title>Node16</title>
<g id="a_node3"><a xlink:href="$db/d0c/class_cool_file_system.html#ab78704d5d21ce10fc6f1138ab5ab46c8" xlink:title="CoolFileSystem::saveSensor\lDataCSV">
<polygon fill="white" stroke="black" points="220,-0.5 220,-30.5 364,-30.5 364,-0.5 220,-0.5"/>
<text text-anchor="start" x="228" y="-18.5" font-family="Helvetica,sans-Serif" font-size="10.00">CoolFileSystem::saveSensor</text>
<text text-anchor="middle" x="292" y="-7.5" font-family="Helvetica,sans-Serif" font-size="10.00">DataCSV</text>
</a>
</g>
</g>
<!-- Node14&#45;&gt;Node16 -->
<g id="edge2" class="edge"><title>Node14&#45;&gt;Node16</title>
<path fill="none" stroke="midnightblue" d="M165.212,-28.8366C179.863,-27.2832 195.129,-25.6646 209.767,-24.1127"/>
<polygon fill="midnightblue" stroke="midnightblue" points="210.21,-27.5854 219.785,-23.0505 209.471,-20.6245 210.21,-27.5854"/>
</g>
</g>
</svg>
