<?xml version="1.0" encoding="UTF-8" standalone="no"?>
<!DOCTYPE svg PUBLIC "-//W3C//DTD SVG 1.1//EN"
 "http://www.w3.org/Graphics/SVG/1.1/DTD/svg11.dtd">
<!-- Generated by graphviz version 2.38.0 (20140413.2041)
 -->
<!-- Title: CoolWifi.h Pages: 1 -->
<svg width="175pt" height="140pt"
 viewBox="0.00 0.00 175.00 140.00" xmlns="http://www.w3.org/2000/svg" xmlns:xlink="http://www.w3.org/1999/xlink">
<g id="graph0" class="graph" transform="scale(1 1) rotate(0) translate(4 136)">
<title>CoolWifi.h</title>
<polygon fill="white" stroke="none" points="-4,4 -4,-136 171,-136 171,4 -4,4"/>
<!-- Node6 -->
<g id="node1" class="node"><title>Node6</title>
<polygon fill="#bfbfbf" stroke="black" points="54.5,-112.5 54.5,-131.5 116.5,-131.5 116.5,-112.5 54.5,-112.5"/>
<text text-anchor="middle" x="85.5" y="-119.5" font-family="Helvetica,sans-Serif" font-size="10.00">CoolWifi.h</text>
</g>
<!-- Node7 -->
<g id="node2" class="node"><title>Node7</title>
<g id="a_node2"><a xlink:href="../../d5/d51/_cool_board_8h.html" target="_top" xlink:title="CoolBoard Header file. ">
<polygon fill="white" stroke="black" points="5,-56.5 5,-75.5 76,-75.5 76,-56.5 5,-56.5"/>
<text text-anchor="middle" x="40.5" y="-63.5" font-family="Helvetica,sans-Serif" font-size="10.00">CoolBoard.h</text>
</a>
</g>
</g>
<!-- Node6&#45;&gt;Node7 -->
<g id="edge1" class="edge"><title>Node6&#45;&gt;Node7</title>
<path fill="none" stroke="midnightblue" d="M71.4533,-104.144C63.6131,-94.7357 54.1705,-83.4046 47.7926,-75.7511"/>
<polygon fill="midnightblue" stroke="midnightblue" points="68.9785,-106.641 78.0692,-112.083 74.3561,-102.16 68.9785,-106.641"/>
</g>
<!-- Node9 -->
<g id="node4" class="node"><title>Node9</title>
<g id="a_node4"><a xlink:href="../../dd/d56/_cool_wifi_8cpp.html" target="_top" xlink:title="CoolWifi Source file. ">
<polygon fill="white" stroke="black" points="94,-56.5 94,-75.5 167,-75.5 167,-56.5 94,-56.5"/>
<text text-anchor="middle" x="130.5" y="-63.5" font-family="Helvetica,sans-Serif" font-size="10.00">CoolWifi.cpp</text>
</a>
</g>
</g>
<!-- Node6&#45;&gt;Node9 -->
<g id="edge3" class="edge"><title>Node6&#45;&gt;Node9</title>
<path fill="none" stroke="midnightblue" d="M99.5467,-104.144C107.387,-94.7357 116.829,-83.4046 123.207,-75.7511"/>
<polygon fill="midnightblue" stroke="midnightblue" points="96.6439,-102.16 92.9308,-112.083 102.021,-106.641 96.6439,-102.16"/>
</g>
<!-- Node8 -->
<g id="node3" class="node"><title>Node8</title>
<g id="a_node3"><a xlink:href="../../d9/d50/_cool_board_8cpp.html" target="_top" xlink:title="CoolBoard Source file. ">
<polygon fill="white" stroke="black" points="0,-0.5 0,-19.5 81,-19.5 81,-0.5 0,-0.5"/>
<text text-anchor="middle" x="40.5" y="-7.5" font-family="Helvetica,sans-Serif" font-size="10.00">CoolBoard.cpp</text>
</a>
</g>
</g>
<!-- Node7&#45;&gt;Node8 -->
<g id="edge2" class="edge"><title>Node7&#45;&gt;Node8</title>
<path fill="none" stroke="midnightblue" d="M40.5,-45.8045C40.5,-36.9102 40.5,-26.7798 40.5,-19.7511"/>
<polygon fill="midnightblue" stroke="midnightblue" points="37.0001,-46.083 40.5,-56.083 44.0001,-46.083 37.0001,-46.083"/>
</g>
</g>
</svg>
