<?xml version="1.0" encoding="UTF-8" standalone="no"?>
<!DOCTYPE svg PUBLIC "-//W3C//DTD SVG 1.1//EN"
 "http://www.w3.org/Graphics/SVG/1.1/DTD/svg11.dtd">
<!-- Generated by graphviz version 2.38.0 (20140413.2041)
 -->
<!-- Title: Adafruit_TCS34725::getRawData Pages: 1 -->
<svg width="548pt" height="186pt"
 viewBox="0.00 0.00 548.00 186.00" xmlns="http://www.w3.org/2000/svg" xmlns:xlink="http://www.w3.org/1999/xlink">
<g id="graph0" class="graph" transform="scale(1 1) rotate(0) translate(4 182)">
<title>Adafruit_TCS34725::getRawData</title>
<polygon fill="white" stroke="none" points="-4,4 -4,-182 544,-182 544,4 -4,4"/>
<!-- Node32 -->
<g id="node1" class="node"><title>Node32</title>
<polygon fill="#bfbfbf" stroke="black" points="0,-24.5 0,-54.5 108,-54.5 108,-24.5 0,-24.5"/>
<text text-anchor="start" x="8" y="-42.5" font-family="Helvetica,sans-Serif" font-size="10.00">Adafruit_TCS34725::</text>
<text text-anchor="middle" x="54" y="-31.5" font-family="Helvetica,sans-Serif" font-size="10.00">getRawData</text>
</g>
<!-- Node33 -->
<g id="node2" class="node"><title>Node33</title>
<g id="a_node2"><a xlink:href="$df/d54/class_adafruit___t_c_s34725.html#a568d79b6382ac27010a8afc26cbdae79" xlink:title="Adafruit_TCS34725::\lbegin">
<polygon fill="white" stroke="black" points="144,-49.5 144,-79.5 252,-79.5 252,-49.5 144,-49.5"/>
<text text-anchor="start" x="152" y="-67.5" font-family="Helvetica,sans-Serif" font-size="10.00">Adafruit_TCS34725::</text>
<text text-anchor="middle" x="198" y="-56.5" font-family="Helvetica,sans-Serif" font-size="10.00">begin</text>
</a>
</g>
</g>
<!-- Node32&#45;&gt;Node33 -->
<g id="edge1" class="edge"><title>Node32&#45;&gt;Node33</title>
<path fill="none" stroke="midnightblue" d="M108.28,-48.8802C116.651,-50.354 125.374,-51.8897 133.94,-53.3979"/>
<polygon fill="midnightblue" stroke="midnightblue" points="133.439,-56.8634 143.894,-55.1504 134.652,-49.9694 133.439,-56.8634"/>
</g>
<!-- Node39 -->
<g id="node8" class="node"><title>Node39</title>
<g id="a_node8"><a xlink:href="$df/d54/class_adafruit___t_c_s34725.html#a6b9b65ff0f1e57797a1c05a43fd25385" xlink:title="Reads a 16 bit values over I2C. ">
<polygon fill="white" stroke="black" points="144,-0.5 144,-30.5 252,-30.5 252,-0.5 144,-0.5"/>
<text text-anchor="start" x="152" y="-18.5" font-family="Helvetica,sans-Serif" font-size="10.00">Adafruit_TCS34725::</text>
<text text-anchor="middle" x="198" y="-7.5" font-family="Helvetica,sans-Serif" font-size="10.00">read16</text>
</a>
</g>
</g>
<!-- Node32&#45;&gt;Node39 -->
<g id="edge11" class="edge"><title>Node32&#45;&gt;Node39</title>
<path fill="none" stroke="midnightblue" d="M108.28,-30.495C116.651,-29.0801 125.374,-27.6059 133.94,-26.158"/>
<polygon fill="midnightblue" stroke="midnightblue" points="134.617,-29.5933 143.894,-24.4756 133.451,-22.6912 134.617,-29.5933"/>
</g>
<!-- Node34 -->
<g id="node3" class="node"><title>Node34</title>
<g id="a_node3"><a xlink:href="$df/d54/class_adafruit___t_c_s34725.html#ad9a0e1f4f77d32dc0a6d604f7d1d5586" xlink:title="Adafruit_TCS34725::\lenable">
<polygon fill="white" stroke="black" points="288,-147.5 288,-177.5 396,-177.5 396,-147.5 288,-147.5"/>
<text text-anchor="start" x="296" y="-165.5" font-family="Helvetica,sans-Serif" font-size="10.00">Adafruit_TCS34725::</text>
<text text-anchor="middle" x="342" y="-154.5" font-family="Helvetica,sans-Serif" font-size="10.00">enable</text>
</a>
</g>
</g>
<!-- Node33&#45;&gt;Node34 -->
<g id="edge2" class="edge"><title>Node33&#45;&gt;Node34</title>
<path fill="none" stroke="midnightblue" d="M214.399,-79.526C231.398,-95.56 260.068,-121.011 288,-138.5 290.408,-140.008 292.926,-141.474 295.502,-142.889"/>
<polygon fill="midnightblue" stroke="midnightblue" points="293.912,-146.007 304.402,-147.493 297.128,-139.79 293.912,-146.007"/>
</g>
<!-- Node36 -->
<g id="node5" class="node"><title>Node36</title>
<g id="a_node5"><a xlink:href="$df/d54/class_adafruit___t_c_s34725.html#a3ffafbdd475d6baf9abda8dd067b5319" xlink:title="Reads an 8 bit value over I2C. ">
<polygon fill="white" stroke="black" points="288,-98.5 288,-128.5 396,-128.5 396,-98.5 288,-98.5"/>
<text text-anchor="start" x="296" y="-116.5" font-family="Helvetica,sans-Serif" font-size="10.00">Adafruit_TCS34725::</text>
<text text-anchor="middle" x="342" y="-105.5" font-family="Helvetica,sans-Serif" font-size="10.00">read8</text>
</a>
</g>
</g>
<!-- Node33&#45;&gt;Node36 -->
<g id="edge4" class="edge"><title>Node33&#45;&gt;Node36</title>
<path fill="none" stroke="midnightblue" d="M242.763,-79.6014C256.935,-84.4917 272.813,-89.9707 287.603,-95.0744"/>
<polygon fill="midnightblue" stroke="midnightblue" points="286.542,-98.4106 297.137,-98.3641 288.825,-91.7935 286.542,-98.4106"/>
</g>
<!-- Node37 -->
<g id="node6" class="node"><title>Node37</title>
<g id="a_node6"><a xlink:href="$df/d54/class_adafruit___t_c_s34725.html#a6be06315a9d33f76e44550f574f023a5" xlink:title="Adafruit_TCS34725::\lsetGain">
<polygon fill="white" stroke="black" points="288,-49.5 288,-79.5 396,-79.5 396,-49.5 288,-49.5"/>
<text text-anchor="start" x="296" y="-67.5" font-family="Helvetica,sans-Serif" font-size="10.00">Adafruit_TCS34725::</text>
<text text-anchor="middle" x="342" y="-56.5" font-family="Helvetica,sans-Serif" font-size="10.00">setGain</text>
</a>
</g>
</g>
<!-- Node33&#45;&gt;Node37 -->
<g id="edge5" class="edge"><title>Node33&#45;&gt;Node37</title>
<path fill="none" stroke="midnightblue" d="M252.28,-57.9404C260.56,-57.759 269.184,-57.7072 277.661,-57.785"/>
<polygon fill="midnightblue" stroke="midnightblue" points="277.841,-61.2882 287.894,-57.9443 277.95,-54.289 277.841,-61.2882"/>
</g>
<!-- Node38 -->
<g id="node7" class="node"><title>Node38</title>
<g id="a_node7"><a xlink:href="$df/d54/class_adafruit___t_c_s34725.html#a3c89fe5d4eea1f24f31d1afa9de8f0f3" xlink:title="Adafruit_TCS34725::\lsetIntegrationTime">
<polygon fill="white" stroke="black" points="288,-0.5 288,-30.5 396,-30.5 396,-0.5 288,-0.5"/>
<text text-anchor="start" x="296" y="-18.5" font-family="Helvetica,sans-Serif" font-size="10.00">Adafruit_TCS34725::</text>
<text text-anchor="middle" x="342" y="-7.5" font-family="Helvetica,sans-Serif" font-size="10.00">setIntegrationTime</text>
</a>
</g>
</g>
<!-- Node33&#45;&gt;Node38 -->
<g id="edge8" class="edge"><title>Node33&#45;&gt;Node38</title>
<path fill="none" stroke="midnightblue" d="M226.716,-49.455C241.358,-43.4115 259.971,-36.5782 277.903,-30.5603"/>
<polygon fill="midnightblue" stroke="midnightblue" points="279.363,-33.7644 287.765,-27.3111 277.172,-27.1159 279.363,-33.7644"/>
</g>
<!-- Node35 -->
<g id="node4" class="node"><title>Node35</title>
<g id="a_node4"><a xlink:href="$df/d54/class_adafruit___t_c_s34725.html#aa526557ad0d76b3b6e31e6197de583e6" xlink:title="Writes a register and an 8 bit value over I2C. ">
<polygon fill="white" stroke="black" points="432,-49.5 432,-79.5 540,-79.5 540,-49.5 432,-49.5"/>
<text text-anchor="start" x="440" y="-67.5" font-family="Helvetica,sans-Serif" font-size="10.00">Adafruit_TCS34725::</text>
<text text-anchor="middle" x="486" y="-56.5" font-family="Helvetica,sans-Serif" font-size="10.00">write8</text>
</a>
</g>
</g>
<!-- Node34&#45;&gt;Node35 -->
<g id="edge3" class="edge"><title>Node34&#45;&gt;Node35</title>
<path fill="none" stroke="midnightblue" d="M379.598,-147.493C385.223,-144.743 390.863,-141.716 396,-138.5 420.222,-123.334 444.999,-102.18 462.239,-86.3722"/>
<polygon fill="midnightblue" stroke="midnightblue" points="464.661,-88.8991 469.601,-79.526 459.894,-83.7731 464.661,-88.8991"/>
</g>
<!-- Node37&#45;&gt;Node33 -->
<g id="edge6" class="edge"><title>Node37&#45;&gt;Node33</title>
<path fill="none" stroke="midnightblue" d="M287.894,-71.0557C279.618,-71.239 270.996,-71.2926 262.517,-71.2166"/>
<polygon fill="midnightblue" stroke="midnightblue" points="262.332,-67.7134 252.28,-71.0596 262.225,-74.7126 262.332,-67.7134"/>
</g>
<!-- Node37&#45;&gt;Node35 -->
<g id="edge7" class="edge"><title>Node37&#45;&gt;Node35</title>
<path fill="none" stroke="midnightblue" d="M396.28,-64.5C404.56,-64.5 413.184,-64.5 421.661,-64.5"/>
<polygon fill="midnightblue" stroke="midnightblue" points="421.894,-68.0001 431.894,-64.5 421.894,-61.0001 421.894,-68.0001"/>
</g>
<!-- Node38&#45;&gt;Node33 -->
<g id="edge9" class="edge"><title>Node38&#45;&gt;Node33</title>
<path fill="none" stroke="midnightblue" d="M313.342,-30.521C298.705,-36.5648 280.088,-43.4012 262.147,-49.4229"/>
<polygon fill="midnightblue" stroke="midnightblue" points="260.682,-46.2206 252.28,-52.6744 262.873,-52.869 260.682,-46.2206"/>
</g>
<!-- Node38&#45;&gt;Node35 -->
<g id="edge10" class="edge"><title>Node38&#45;&gt;Node35</title>
<path fill="none" stroke="midnightblue" d="M386.763,-30.6014C400.935,-35.4917 416.813,-40.9707 431.603,-46.0744"/>
<polygon fill="midnightblue" stroke="midnightblue" points="430.542,-49.4106 441.137,-49.3641 432.825,-42.7935 430.542,-49.4106"/>
</g>
</g>
</svg>
