<?xml version="1.0" encoding="UTF-8" standalone="no"?>
<!DOCTYPE svg PUBLIC "-//W3C//DTD SVG 1.1//EN"
 "http://www.w3.org/Graphics/SVG/1.1/DTD/svg11.dtd">
<!-- Generated by graphviz version 2.38.0 (20140413.2041)
 -->
<!-- Title: Adafruit_TCS34725::read8 Pages: 1 -->
<svg width="404pt" height="186pt"
 viewBox="0.00 0.00 404.00 186.00" xmlns="http://www.w3.org/2000/svg" xmlns:xlink="http://www.w3.org/1999/xlink">
<g id="graph0" class="graph" transform="scale(1 1) rotate(0) translate(4 182)">
<title>Adafruit_TCS34725::read8</title>
<polygon fill="white" stroke="none" points="-4,4 -4,-182 400,-182 400,4 -4,4"/>
<!-- Node57 -->
<g id="node1" class="node"><title>Node57</title>
<polygon fill="#bfbfbf" stroke="black" points="0,-49.5 0,-79.5 108,-79.5 108,-49.5 0,-49.5"/>
<text text-anchor="start" x="8" y="-67.5" font-family="Helvetica,sans-Serif" font-size="10.00">Adafruit_TCS34725::</text>
<text text-anchor="middle" x="54" y="-56.5" font-family="Helvetica,sans-Serif" font-size="10.00">read8</text>
</g>
<!-- Node58 -->
<g id="node2" class="node"><title>Node58</title>
<g id="a_node2"><a xlink:href="$df/d54/class_adafruit___t_c_s34725.html#a568d79b6382ac27010a8afc26cbdae79" xlink:title="Adafruit_TCS34725::\lbegin">
<polygon fill="white" stroke="black" points="144,-98.5 144,-128.5 252,-128.5 252,-98.5 144,-98.5"/>
<text text-anchor="start" x="152" y="-116.5" font-family="Helvetica,sans-Serif" font-size="10.00">Adafruit_TCS34725::</text>
<text text-anchor="middle" x="198" y="-105.5" font-family="Helvetica,sans-Serif" font-size="10.00">begin</text>
</a>
</g>
</g>
<!-- Node57&#45;&gt;Node58 -->
<g id="edge1" class="edge"><title>Node57&#45;&gt;Node58</title>
<path fill="none" stroke="midnightblue" d="M108.292,-82.8896C123.078,-87.9916 138.957,-93.4711 153.137,-98.3641"/>
<polygon fill="midnightblue" stroke="midnightblue" points="109.358,-79.5549 98.7634,-79.6014 107.075,-86.172 109.358,-79.5549"/>
</g>
<!-- Node62 -->
<g id="node6" class="node"><title>Node62</title>
<g id="a_node6"><a xlink:href="$df/d54/class_adafruit___t_c_s34725.html#a79ac9b01a540f132d4bbf2edd2d6e8a2" xlink:title="Adafruit_TCS34725::\ldisable">
<polygon fill="white" stroke="black" points="144,-49.5 144,-79.5 252,-79.5 252,-49.5 144,-49.5"/>
<text text-anchor="start" x="152" y="-67.5" font-family="Helvetica,sans-Serif" font-size="10.00">Adafruit_TCS34725::</text>
<text text-anchor="middle" x="198" y="-56.5" font-family="Helvetica,sans-Serif" font-size="10.00">disable</text>
</a>
</g>
</g>
<!-- Node57&#45;&gt;Node62 -->
<g id="edge7" class="edge"><title>Node57&#45;&gt;Node62</title>
<path fill="none" stroke="midnightblue" d="M118.517,-64.5C126.996,-64.5 135.618,-64.5 143.894,-64.5"/>
<polygon fill="midnightblue" stroke="midnightblue" points="118.28,-61.0001 108.28,-64.5 118.28,-68.0001 118.28,-61.0001"/>
</g>
<!-- Node63 -->
<g id="node7" class="node"><title>Node63</title>
<g id="a_node7"><a xlink:href="$df/d54/class_adafruit___t_c_s34725.html#ae477b116ac93cf075be20637207aee57" xlink:title="Adafruit_TCS34725::\lsetInterrupt">
<polygon fill="white" stroke="black" points="144,-0.5 144,-30.5 252,-30.5 252,-0.5 144,-0.5"/>
<text text-anchor="start" x="152" y="-18.5" font-family="Helvetica,sans-Serif" font-size="10.00">Adafruit_TCS34725::</text>
<text text-anchor="middle" x="198" y="-7.5" font-family="Helvetica,sans-Serif" font-size="10.00">setInterrupt</text>
</a>
</g>
</g>
<!-- Node57&#45;&gt;Node63 -->
<g id="edge8" class="edge"><title>Node57&#45;&gt;Node63</title>
<path fill="none" stroke="midnightblue" d="M108.292,-46.1104C123.078,-41.0084 138.957,-35.5289 153.137,-30.6359"/>
<polygon fill="midnightblue" stroke="midnightblue" points="107.075,-42.828 98.7634,-49.3986 109.358,-49.4451 107.075,-42.828"/>
</g>
<!-- Node59 -->
<g id="node3" class="node"><title>Node59</title>
<g id="a_node3"><a xlink:href="$df/d54/class_adafruit___t_c_s34725.html#abd9946a9baab1e0c76248cfe1864ea27" xlink:title="Reads the raw red, green, blue and clear channel values. ">
<polygon fill="white" stroke="black" points="288,-147.5 288,-177.5 396,-177.5 396,-147.5 288,-147.5"/>
<text text-anchor="start" x="296" y="-165.5" font-family="Helvetica,sans-Serif" font-size="10.00">Adafruit_TCS34725::</text>
<text text-anchor="middle" x="342" y="-154.5" font-family="Helvetica,sans-Serif" font-size="10.00">getRawData</text>
</a>
</g>
</g>
<!-- Node58&#45;&gt;Node59 -->
<g id="edge2" class="edge"><title>Node58&#45;&gt;Node59</title>
<path fill="none" stroke="midnightblue" d="M252.292,-131.89C267.078,-136.992 282.957,-142.471 297.137,-147.364"/>
<polygon fill="midnightblue" stroke="midnightblue" points="253.358,-128.555 242.763,-128.601 251.075,-135.172 253.358,-128.555"/>
</g>
<!-- Node60 -->
<g id="node4" class="node"><title>Node60</title>
<g id="a_node4"><a xlink:href="$df/d54/class_adafruit___t_c_s34725.html#a6be06315a9d33f76e44550f574f023a5" xlink:title="Adafruit_TCS34725::\lsetGain">
<polygon fill="white" stroke="black" points="288,-98.5 288,-128.5 396,-128.5 396,-98.5 288,-98.5"/>
<text text-anchor="start" x="296" y="-116.5" font-family="Helvetica,sans-Serif" font-size="10.00">Adafruit_TCS34725::</text>
<text text-anchor="middle" x="342" y="-105.5" font-family="Helvetica,sans-Serif" font-size="10.00">setGain</text>
</a>
</g>
</g>
<!-- Node58&#45;&gt;Node60 -->
<g id="edge3" class="edge"><title>Node58&#45;&gt;Node60</title>
<path fill="none" stroke="midnightblue" d="M262.517,-106.783C270.996,-106.707 279.618,-106.761 287.894,-106.944"/>
<polygon fill="midnightblue" stroke="midnightblue" points="262.225,-103.287 252.28,-106.94 262.332,-110.287 262.225,-103.287"/>
</g>
<!-- Node61 -->
<g id="node5" class="node"><title>Node61</title>
<g id="a_node5"><a xlink:href="$df/d54/class_adafruit___t_c_s34725.html#a3c89fe5d4eea1f24f31d1afa9de8f0f3" xlink:title="Adafruit_TCS34725::\lsetIntegrationTime">
<polygon fill="white" stroke="black" points="288,-49.5 288,-79.5 396,-79.5 396,-49.5 288,-49.5"/>
<text text-anchor="start" x="296" y="-67.5" font-family="Helvetica,sans-Serif" font-size="10.00">Adafruit_TCS34725::</text>
<text text-anchor="middle" x="342" y="-56.5" font-family="Helvetica,sans-Serif" font-size="10.00">setIntegrationTime</text>
</a>
</g>
</g>
<!-- Node58&#45;&gt;Node61 -->
<g id="edge5" class="edge"><title>Node58&#45;&gt;Node61</title>
<path fill="none" stroke="midnightblue" d="M236.119,-94.677C251.888,-88.495 270.57,-81.8671 287.765,-76.3111"/>
<polygon fill="midnightblue" stroke="midnightblue" points="234.69,-91.479 226.716,-98.455 237.3,-97.9743 234.69,-91.479"/>
</g>
<!-- Node60&#45;&gt;Node58 -->
<g id="edge4" class="edge"><title>Node60&#45;&gt;Node58</title>
<path fill="none" stroke="midnightblue" d="M277.661,-120.215C269.184,-120.293 260.56,-120.241 252.28,-120.06"/>
<polygon fill="midnightblue" stroke="midnightblue" points="277.95,-123.711 287.894,-120.056 277.841,-116.712 277.95,-123.711"/>
</g>
<!-- Node61&#45;&gt;Node58 -->
<g id="edge6" class="edge"><title>Node61&#45;&gt;Node58</title>
<path fill="none" stroke="midnightblue" d="M303.941,-83.2995C288.173,-89.4828 269.485,-96.1143 252.28,-101.674"/>
<polygon fill="midnightblue" stroke="midnightblue" points="305.369,-86.4979 313.342,-79.521 302.758,-80.0029 305.369,-86.4979"/>
</g>
</g>
</svg>
