<?xml version="1.0" encoding="UTF-8" standalone="no"?>
<!DOCTYPE svg PUBLIC "-//W3C//DTD SVG 1.1//EN"
 "http://www.w3.org/Graphics/SVG/1.1/DTD/svg11.dtd">
<!-- Generated by graphviz version 2.38.0 (20140413.2041)
 -->
<!-- Title: Adafruit_TCS34725::enable Pages: 1 -->
<svg width="404pt" height="137pt"
 viewBox="0.00 0.00 404.00 137.00" xmlns="http://www.w3.org/2000/svg" xmlns:xlink="http://www.w3.org/1999/xlink">
<g id="graph0" class="graph" transform="scale(1 1) rotate(0) translate(4 133)">
<title>Adafruit_TCS34725::enable</title>
<polygon fill="white" stroke="none" points="-4,4 -4,-133 400,-133 400,4 -4,4"/>
<!-- Node78 -->
<g id="node1" class="node"><title>Node78</title>
<polygon fill="#bfbfbf" stroke="black" points="0,-49.5 0,-79.5 108,-79.5 108,-49.5 0,-49.5"/>
<text text-anchor="start" x="8" y="-67.5" font-family="Helvetica,sans-Serif" font-size="10.00">Adafruit_TCS34725::</text>
<text text-anchor="middle" x="54" y="-56.5" font-family="Helvetica,sans-Serif" font-size="10.00">enable</text>
</g>
<!-- Node79 -->
<g id="node2" class="node"><title>Node79</title>
<g id="a_node2"><a xlink:href="$df/d54/class_adafruit___t_c_s34725.html#a568d79b6382ac27010a8afc26cbdae79" xlink:title="Adafruit_TCS34725::\lbegin">
<polygon fill="white" stroke="black" points="144,-49.5 144,-79.5 252,-79.5 252,-49.5 144,-49.5"/>
<text text-anchor="start" x="152" y="-67.5" font-family="Helvetica,sans-Serif" font-size="10.00">Adafruit_TCS34725::</text>
<text text-anchor="middle" x="198" y="-56.5" font-family="Helvetica,sans-Serif" font-size="10.00">begin</text>
</a>
</g>
</g>
<!-- Node78&#45;&gt;Node79 -->
<g id="edge1" class="edge"><title>Node78&#45;&gt;Node79</title>
<path fill="none" stroke="midnightblue" d="M118.517,-64.5C126.996,-64.5 135.618,-64.5 143.894,-64.5"/>
<polygon fill="midnightblue" stroke="midnightblue" points="118.28,-61.0001 108.28,-64.5 118.28,-68.0001 118.28,-61.0001"/>
</g>
<!-- Node80 -->
<g id="node3" class="node"><title>Node80</title>
<g id="a_node3"><a xlink:href="$df/d54/class_adafruit___t_c_s34725.html#abd9946a9baab1e0c76248cfe1864ea27" xlink:title="Reads the raw red, green, blue and clear channel values. ">
<polygon fill="white" stroke="black" points="288,-98.5 288,-128.5 396,-128.5 396,-98.5 288,-98.5"/>
<text text-anchor="start" x="296" y="-116.5" font-family="Helvetica,sans-Serif" font-size="10.00">Adafruit_TCS34725::</text>
<text text-anchor="middle" x="342" y="-105.5" font-family="Helvetica,sans-Serif" font-size="10.00">getRawData</text>
</a>
</g>
</g>
<!-- Node79&#45;&gt;Node80 -->
<g id="edge2" class="edge"><title>Node79&#45;&gt;Node80</title>
<path fill="none" stroke="midnightblue" d="M252.292,-82.8896C267.078,-87.9916 282.957,-93.4711 297.137,-98.3641"/>
<polygon fill="midnightblue" stroke="midnightblue" points="253.358,-79.5549 242.763,-79.6014 251.075,-86.172 253.358,-79.5549"/>
</g>
<!-- Node81 -->
<g id="node4" class="node"><title>Node81</title>
<g id="a_node4"><a xlink:href="$df/d54/class_adafruit___t_c_s34725.html#a6be06315a9d33f76e44550f574f023a5" xlink:title="Adafruit_TCS34725::\lsetGain">
<polygon fill="white" stroke="black" points="288,-49.5 288,-79.5 396,-79.5 396,-49.5 288,-49.5"/>
<text text-anchor="start" x="296" y="-67.5" font-family="Helvetica,sans-Serif" font-size="10.00">Adafruit_TCS34725::</text>
<text text-anchor="middle" x="342" y="-56.5" font-family="Helvetica,sans-Serif" font-size="10.00">setGain</text>
</a>
</g>
</g>
<!-- Node79&#45;&gt;Node81 -->
<g id="edge3" class="edge"><title>Node79&#45;&gt;Node81</title>
<path fill="none" stroke="midnightblue" d="M262.517,-57.7834C270.996,-57.7074 279.618,-57.761 287.894,-57.9443"/>
<polygon fill="midnightblue" stroke="midnightblue" points="262.225,-54.2874 252.28,-57.9404 262.332,-61.2866 262.225,-54.2874"/>
</g>
<!-- Node82 -->
<g id="node5" class="node"><title>Node82</title>
<g id="a_node5"><a xlink:href="$df/d54/class_adafruit___t_c_s34725.html#a3c89fe5d4eea1f24f31d1afa9de8f0f3" xlink:title="Adafruit_TCS34725::\lsetIntegrationTime">
<polygon fill="white" stroke="black" points="288,-0.5 288,-30.5 396,-30.5 396,-0.5 288,-0.5"/>
<text text-anchor="start" x="296" y="-18.5" font-family="Helvetica,sans-Serif" font-size="10.00">Adafruit_TCS34725::</text>
<text text-anchor="middle" x="342" y="-7.5" font-family="Helvetica,sans-Serif" font-size="10.00">setIntegrationTime</text>
</a>
</g>
</g>
<!-- Node79&#45;&gt;Node82 -->
<g id="edge5" class="edge"><title>Node79&#45;&gt;Node82</title>
<path fill="none" stroke="midnightblue" d="M236.119,-45.677C251.888,-39.495 270.57,-32.8671 287.765,-27.3111"/>
<polygon fill="midnightblue" stroke="midnightblue" points="234.69,-42.479 226.716,-49.455 237.3,-48.9743 234.69,-42.479"/>
</g>
<!-- Node81&#45;&gt;Node79 -->
<g id="edge4" class="edge"><title>Node81&#45;&gt;Node79</title>
<path fill="none" stroke="midnightblue" d="M277.661,-71.215C269.184,-71.2928 260.56,-71.241 252.28,-71.0596"/>
<polygon fill="midnightblue" stroke="midnightblue" points="277.95,-74.711 287.894,-71.0557 277.841,-67.7118 277.95,-74.711"/>
</g>
<!-- Node82&#45;&gt;Node79 -->
<g id="edge6" class="edge"><title>Node82&#45;&gt;Node79</title>
<path fill="none" stroke="midnightblue" d="M303.941,-34.2995C288.173,-40.4828 269.485,-47.1143 252.28,-52.6744"/>
<polygon fill="midnightblue" stroke="midnightblue" points="305.369,-37.4979 313.342,-30.521 302.758,-31.0029 305.369,-37.4979"/>
</g>
</g>
</svg>
