<?xml version="1.0" encoding="UTF-8" standalone="no"?>
<!DOCTYPE svg PUBLIC "-//W3C//DTD SVG 1.1//EN"
 "http://www.w3.org/Graphics/SVG/1.1/DTD/svg11.dtd">
<!-- Generated by graphviz version 2.38.0 (20140413.2041)
 -->
<!-- Title: CoolSI114X::WriteByte Pages: 1 -->
<svg width="921pt" height="161pt"
 viewBox="0.00 0.00 921.00 161.00" xmlns="http://www.w3.org/2000/svg" xmlns:xlink="http://www.w3.org/1999/xlink">
<g id="graph0" class="graph" transform="scale(1 1) rotate(0) translate(4 157)">
<title>CoolSI114X::WriteByte</title>
<polygon fill="white" stroke="none" points="-4,4 -4,-157 917,-157 917,4 -4,4"/>
<!-- Node73 -->
<g id="node1" class="node"><title>Node73</title>
<polygon fill="#bfbfbf" stroke="black" points="0,-57.5 0,-76.5 119,-76.5 119,-57.5 0,-57.5"/>
<text text-anchor="middle" x="59.5" y="-64.5" font-family="Helvetica,sans-Serif" font-size="10.00">CoolSI114X::WriteByte</text>
</g>
<!-- Node74 -->
<g id="node2" class="node"><title>Node74</title>
<g id="a_node2"><a xlink:href="$dd/d67/class_cool_s_i114_x.html#a6840abd53a2e3d71a6bb918077c6d6e6" xlink:title="CoolSI114X::DeInit">
<polygon fill="white" stroke="black" points="350,-76.5 350,-95.5 451,-95.5 451,-76.5 350,-76.5"/>
<text text-anchor="middle" x="400.5" y="-83.5" font-family="Helvetica,sans-Serif" font-size="10.00">CoolSI114X::DeInit</text>
</a>
</g>
</g>
<!-- Node73&#45;&gt;Node74 -->
<g id="edge1" class="edge"><title>Node73&#45;&gt;Node74</title>
<path fill="none" stroke="midnightblue" d="M129.384,-70.8608C194.818,-74.5282 291.606,-79.9528 349.815,-83.2153"/>
<polygon fill="midnightblue" stroke="midnightblue" points="129.342,-67.353 119.162,-70.2879 128.951,-74.3421 129.342,-67.353"/>
</g>
<!-- Node79 -->
<g id="node7" class="node"><title>Node79</title>
<g id="a_node7"><a xlink:href="$dd/d67/class_cool_s_i114_x.html#a33cf431103c722442f6a0cc93848d640" xlink:title="CoolSI114X::ReadParamData">
<polygon fill="white" stroke="black" points="155,-0.5 155,-19.5 303,-19.5 303,-0.5 155,-0.5"/>
<text text-anchor="middle" x="229" y="-7.5" font-family="Helvetica,sans-Serif" font-size="10.00">CoolSI114X::ReadParamData</text>
</a>
</g>
</g>
<!-- Node73&#45;&gt;Node79 -->
<g id="edge6" class="edge"><title>Node73&#45;&gt;Node79</title>
<path fill="none" stroke="midnightblue" d="M97.1578,-54.0235C114.644,-47.8783 135.876,-40.482 155,-34 169.277,-29.1606 185.174,-23.9173 198.478,-19.5696"/>
<polygon fill="midnightblue" stroke="midnightblue" points="95.6088,-50.8582 87.3389,-57.4807 97.9337,-57.4608 95.6088,-50.8582"/>
</g>
<!-- Node80 -->
<g id="node8" class="node"><title>Node80</title>
<g id="a_node8"><a xlink:href="$dd/d67/class_cool_s_i114_x.html#a9d9f9c9129c0c29ed497f8563f3dd823" xlink:title="CoolSI114X::Reset">
<polygon fill="white" stroke="black" points="350,-38.5 350,-57.5 451,-57.5 451,-38.5 350,-38.5"/>
<text text-anchor="middle" x="400.5" y="-45.5" font-family="Helvetica,sans-Serif" font-size="10.00">CoolSI114X::Reset</text>
</a>
</g>
</g>
<!-- Node73&#45;&gt;Node80 -->
<g id="edge7" class="edge"><title>Node73&#45;&gt;Node80</title>
<path fill="none" stroke="midnightblue" d="M129.384,-63.1392C194.818,-59.4718 291.606,-54.0472 349.815,-50.7847"/>
<polygon fill="midnightblue" stroke="midnightblue" points="128.951,-59.6579 119.162,-63.7121 129.342,-66.647 128.951,-59.6579"/>
</g>
<!-- Node81 -->
<g id="node9" class="node"><title>Node81</title>
<g id="a_node9"><a xlink:href="$dd/d67/class_cool_s_i114_x.html#abf45eb10a6de1be16e68a51624fa2608" xlink:title="CoolSI114X::WriteParamData">
<polygon fill="white" stroke="black" points="155,-114.5 155,-133.5 303,-133.5 303,-114.5 155,-114.5"/>
<text text-anchor="middle" x="229" y="-121.5" font-family="Helvetica,sans-Serif" font-size="10.00">CoolSI114X::WriteParamData</text>
</a>
</g>
</g>
<!-- Node73&#45;&gt;Node81 -->
<g id="edge9" class="edge"><title>Node73&#45;&gt;Node81</title>
<path fill="none" stroke="midnightblue" d="M97.1578,-79.9765C114.644,-86.1217 135.876,-93.518 155,-100 169.277,-104.839 185.174,-110.083 198.478,-114.43"/>
<polygon fill="midnightblue" stroke="midnightblue" points="97.9337,-76.5392 87.3389,-76.5193 95.6088,-83.1418 97.9337,-76.5392"/>
</g>
<!-- Node75 -->
<g id="node3" class="node"><title>Node75</title>
<g id="a_node3"><a xlink:href="$dd/d67/class_cool_s_i114_x.html#a206b36aca7049f63be1d11088c30a09f" xlink:title="CoolSI114X::Begin">
<polygon fill="white" stroke="black" points="509.5,-38.5 509.5,-57.5 609.5,-57.5 609.5,-38.5 509.5,-38.5"/>
<text text-anchor="middle" x="559.5" y="-45.5" font-family="Helvetica,sans-Serif" font-size="10.00">CoolSI114X::Begin</text>
</a>
</g>
</g>
<!-- Node74&#45;&gt;Node75 -->
<g id="edge2" class="edge"><title>Node74&#45;&gt;Node75</title>
<path fill="none" stroke="midnightblue" d="M450.947,-74.032C472.948,-68.7069 498.494,-62.5238 519.167,-57.5201"/>
<polygon fill="midnightblue" stroke="midnightblue" points="450.014,-70.6567 441.118,-76.411 451.66,-77.4602 450.014,-70.6567"/>
</g>
<!-- Node78 -->
<g id="node6" class="node"><title>Node78</title>
<g id="a_node6"><a xlink:href="$de/d46/class_cool_board_sensors.html#a4902b69f6e628bd6557193758fdd2bae" xlink:title="CoolBoardSensors::end">
<polygon fill="white" stroke="black" points="499.5,-76.5 499.5,-95.5 619.5,-95.5 619.5,-76.5 499.5,-76.5"/>
<text text-anchor="middle" x="559.5" y="-83.5" font-family="Helvetica,sans-Serif" font-size="10.00">CoolBoardSensors::end</text>
</a>
</g>
</g>
<!-- Node74&#45;&gt;Node78 -->
<g id="edge5" class="edge"><title>Node74&#45;&gt;Node78</title>
<path fill="none" stroke="midnightblue" d="M461.411,-86C473.816,-86 486.877,-86 499.257,-86"/>
<polygon fill="midnightblue" stroke="midnightblue" points="461.176,-82.5001 451.176,-86 461.176,-89.5001 461.176,-82.5001"/>
</g>
<!-- Node76 -->
<g id="node4" class="node"><title>Node76</title>
<g id="a_node4"><a xlink:href="$de/d46/class_cool_board_sensors.html#a97095823ef7c8f5290812f1405b966b3" xlink:title="CoolBoardSensors::begin">
<polygon fill="white" stroke="black" points="657,-38.5 657,-57.5 785,-57.5 785,-38.5 657,-38.5"/>
<text text-anchor="middle" x="721" y="-45.5" font-family="Helvetica,sans-Serif" font-size="10.00">CoolBoardSensors::begin</text>
</a>
</g>
</g>
<!-- Node75&#45;&gt;Node76 -->
<g id="edge3" class="edge"><title>Node75&#45;&gt;Node76</title>
<path fill="none" stroke="midnightblue" d="M619.663,-48C631.798,-48 644.615,-48 656.884,-48"/>
<polygon fill="midnightblue" stroke="midnightblue" points="619.657,-44.5001 609.657,-48 619.657,-51.5001 619.657,-44.5001"/>
</g>
<!-- Node77 -->
<g id="node5" class="node"><title>Node77</title>
<g id="a_node5"><a xlink:href="$d7/df9/class_cool_board.html#acba7c5aef7268b2c0044bdb54d3b9d76" xlink:title="CoolBoard::begin">
<polygon fill="white" stroke="black" points="821,-38.5 821,-57.5 913,-57.5 913,-38.5 821,-38.5"/>
<text text-anchor="middle" x="867" y="-45.5" font-family="Helvetica,sans-Serif" font-size="10.00">CoolBoard::begin</text>
</a>
</g>
</g>
<!-- Node76&#45;&gt;Node77 -->
<g id="edge4" class="edge"><title>Node76&#45;&gt;Node77</title>
<path fill="none" stroke="midnightblue" d="M795.283,-48C803.922,-48 812.536,-48 820.627,-48"/>
<polygon fill="midnightblue" stroke="midnightblue" points="795.161,-44.5001 785.16,-48 795.16,-51.5001 795.161,-44.5001"/>
</g>
<!-- Node80&#45;&gt;Node75 -->
<g id="edge8" class="edge"><title>Node80&#45;&gt;Node75</title>
<path fill="none" stroke="midnightblue" d="M461.414,-48C477.273,-48 494.206,-48 509.416,-48"/>
<polygon fill="midnightblue" stroke="midnightblue" points="461.176,-44.5001 451.176,-48 461.176,-51.5001 461.176,-44.5001"/>
</g>
<!-- Node81&#45;&gt;Node74 -->
<g id="edge10" class="edge"><title>Node81&#45;&gt;Node74</title>
<path fill="none" stroke="midnightblue" d="M282.742,-112.176C306.639,-106.818 334.515,-100.569 357.036,-95.5201"/>
<polygon fill="midnightblue" stroke="midnightblue" points="281.764,-108.808 272.772,-114.411 283.295,-115.639 281.764,-108.808"/>
</g>
<!-- Node82 -->
<g id="node10" class="node"><title>Node82</title>
<g id="a_node10"><a xlink:href="$de/d46/class_cool_board_sensors.html#a91badb2539d91fda8679f2a597874c48" xlink:title="CoolBoardSensors::read">
<polygon fill="white" stroke="black" points="339,-114.5 339,-133.5 462,-133.5 462,-114.5 339,-114.5"/>
<text text-anchor="middle" x="400.5" y="-121.5" font-family="Helvetica,sans-Serif" font-size="10.00">CoolBoardSensors::read</text>
</a>
</g>
</g>
<!-- Node81&#45;&gt;Node82 -->
<g id="edge11" class="edge"><title>Node81&#45;&gt;Node82</title>
<path fill="none" stroke="midnightblue" d="M313.375,-124C321.931,-124 330.507,-124 338.752,-124"/>
<polygon fill="midnightblue" stroke="midnightblue" points="313.359,-120.5 303.359,-124 313.359,-127.5 313.359,-120.5"/>
</g>
<!-- Node83 -->
<g id="node11" class="node"><title>Node83</title>
<g id="a_node11"><a xlink:href="$d7/df9/class_cool_board.html#ad03abdce2e65f520bbf2cff0f2d083cf" xlink:title="CoolBoard::readSensors">
<polygon fill="white" stroke="black" points="498,-114.5 498,-133.5 621,-133.5 621,-114.5 498,-114.5"/>
<text text-anchor="middle" x="559.5" y="-121.5" font-family="Helvetica,sans-Serif" font-size="10.00">CoolBoard::readSensors</text>
</a>
</g>
</g>
<!-- Node82&#45;&gt;Node83 -->
<g id="edge12" class="edge"><title>Node82&#45;&gt;Node83</title>
<path fill="none" stroke="midnightblue" d="M472.21,-124C480.807,-124 489.53,-124 497.961,-124"/>
<polygon fill="midnightblue" stroke="midnightblue" points="472.2,-120.5 462.2,-124 472.2,-127.5 472.2,-120.5"/>
</g>
<!-- Node84 -->
<g id="node12" class="node"><title>Node84</title>
<g id="a_node12"><a xlink:href="$d7/df9/class_cool_board.html#ae6b5e1274d760462290192acea4adca8" xlink:title="CoolBoard::offLineMode">
<polygon fill="white" stroke="black" points="660,-95.5 660,-114.5 782,-114.5 782,-95.5 660,-95.5"/>
<text text-anchor="middle" x="721" y="-102.5" font-family="Helvetica,sans-Serif" font-size="10.00">CoolBoard::offLineMode</text>
</a>
</g>
</g>
<!-- Node83&#45;&gt;Node84 -->
<g id="edge13" class="edge"><title>Node83&#45;&gt;Node84</title>
<path fill="none" stroke="midnightblue" d="M631.475,-115.545C640.979,-114.413 650.65,-113.261 659.941,-112.154"/>
<polygon fill="midnightblue" stroke="midnightblue" points="630.771,-112.104 621.255,-116.763 631.599,-119.055 630.771,-112.104"/>
</g>
<!-- Node85 -->
<g id="node13" class="node"><title>Node85</title>
<g id="a_node13"><a xlink:href="$d7/df9/class_cool_board.html#aa0bbc4bc605e35618d18e68795c61363" xlink:title="CoolBoard::onLineMode">
<polygon fill="white" stroke="black" points="660.5,-133.5 660.5,-152.5 781.5,-152.5 781.5,-133.5 660.5,-133.5"/>
<text text-anchor="middle" x="721" y="-140.5" font-family="Helvetica,sans-Serif" font-size="10.00">CoolBoard::onLineMode</text>
</a>
</g>
</g>
<!-- Node83&#45;&gt;Node85 -->
<g id="edge14" class="edge"><title>Node83&#45;&gt;Node85</title>
<path fill="none" stroke="midnightblue" d="M631.311,-132.435C641.047,-133.595 650.963,-134.776 660.468,-135.908"/>
<polygon fill="midnightblue" stroke="midnightblue" points="631.599,-128.945 621.255,-131.237 630.771,-135.896 631.599,-128.945"/>
</g>
</g>
</svg>
