<?xml version="1.0" encoding="UTF-8" standalone="no"?>
<!DOCTYPE svg PUBLIC "-//W3C//DTD SVG 1.1//EN"
 "http://www.w3.org/Graphics/SVG/1.1/DTD/svg11.dtd">
<!-- Generated by graphviz version 2.38.0 (20140413.2041)
 -->
<!-- Title: Jetpack::mixedTemporalActionOff Pages: 1 -->
<svg width="462pt" height="66pt"
 viewBox="0.00 0.00 462.00 66.00" xmlns="http://www.w3.org/2000/svg" xmlns:xlink="http://www.w3.org/1999/xlink">
<g id="graph0" class="graph" transform="scale(1 1) rotate(0) translate(4 62)">
<title>Jetpack::mixedTemporalActionOff</title>
<polygon fill="white" stroke="none" points="-4,4 -4,-62 458,-62 458,4 -4,4"/>
<!-- Node50 -->
<g id="node1" class="node"><title>Node50</title>
<polygon fill="#bfbfbf" stroke="black" points="0,-19.5 0,-38.5 165,-38.5 165,-19.5 0,-19.5"/>
<text text-anchor="middle" x="82.5" y="-26.5" font-family="Helvetica,sans-Serif" font-size="10.00">Jetpack::mixedTemporalActionOff</text>
</g>
<!-- Node51 -->
<g id="node2" class="node"><title>Node51</title>
<g id="a_node2"><a xlink:href="../../df/d1d/class_jetpack.html#af9acedb606340c26c2636c282b54dff1" target="_top" xlink:title="Jetpack::doAction">
<polygon fill="white" stroke="black" points="201,-19.5 201,-38.5 296,-38.5 296,-19.5 201,-19.5"/>
<text text-anchor="middle" x="248.5" y="-26.5" font-family="Helvetica,sans-Serif" font-size="10.00">Jetpack::doAction</text>
</a>
</g>
</g>
<!-- Node50&#45;&gt;Node51 -->
<g id="edge1" class="edge"><title>Node50&#45;&gt;Node51</title>
<path fill="none" stroke="midnightblue" d="M175.024,-29C183.849,-29 192.524,-29 200.635,-29"/>
<polygon fill="midnightblue" stroke="midnightblue" points="175.02,-25.5001 165.02,-29 175.019,-32.5001 175.02,-25.5001"/>
</g>
<!-- Node52 -->
<g id="node3" class="node"><title>Node52</title>
<g id="a_node3"><a xlink:href="../../d7/df9/class_cool_board.html#ae6b5e1274d760462290192acea4adca8" target="_top" xlink:title="CoolBoard::offLineMode">
<polygon fill="white" stroke="black" points="332,-38.5 332,-57.5 454,-57.5 454,-38.5 332,-38.5"/>
<text text-anchor="middle" x="393" y="-45.5" font-family="Helvetica,sans-Serif" font-size="10.00">CoolBoard::offLineMode</text>
</a>
</g>
</g>
<!-- Node51&#45;&gt;Node52 -->
<g id="edge2" class="edge"><title>Node51&#45;&gt;Node52</title>
<path fill="none" stroke="midnightblue" d="M306.293,-36.5724C314.743,-37.6991 323.476,-38.8635 331.99,-39.9986"/>
<polygon fill="midnightblue" stroke="midnightblue" points="306.535,-33.0737 296.16,-35.2213 305.61,-40.0123 306.535,-33.0737"/>
</g>
<!-- Node53 -->
<g id="node4" class="node"><title>Node53</title>
<g id="a_node4"><a xlink:href="../../d7/df9/class_cool_board.html#aa0bbc4bc605e35618d18e68795c61363" target="_top" xlink:title="CoolBoard::onLineMode">
<polygon fill="white" stroke="black" points="332.5,-0.5 332.5,-19.5 453.5,-19.5 453.5,-0.5 332.5,-0.5"/>
<text text-anchor="middle" x="393" y="-7.5" font-family="Helvetica,sans-Serif" font-size="10.00">CoolBoard::onLineMode</text>
</a>
</g>
</g>
<!-- Node51&#45;&gt;Node53 -->
<g id="edge3" class="edge"><title>Node51&#45;&gt;Node53</title>
<path fill="none" stroke="midnightblue" d="M306.157,-21.4458C314.818,-20.291 323.779,-19.0961 332.499,-17.9334"/>
<polygon fill="midnightblue" stroke="midnightblue" points="305.61,-17.9877 296.16,-22.7787 306.535,-24.9263 305.61,-17.9877"/>
</g>
</g>
</svg>
