<?xml version="1.0" encoding="UTF-8" standalone="no"?>
<!DOCTYPE svg PUBLIC "-//W3C//DTD SVG 1.1//EN"
 "http://www.w3.org/Graphics/SVG/1.1/DTD/svg11.dtd">
<!-- Generated by graphviz version 2.38.0 (20140413.2041)
 -->
<!-- Title: Jetpack::normalAction Pages: 1 -->
<svg width="411pt" height="66pt"
 viewBox="0.00 0.00 411.00 66.00" xmlns="http://www.w3.org/2000/svg" xmlns:xlink="http://www.w3.org/1999/xlink">
<g id="graph0" class="graph" transform="scale(1 1) rotate(0) translate(4 62)">
<title>Jetpack::normalAction</title>
<polygon fill="white" stroke="none" points="-4,4 -4,-62 407,-62 407,4 -4,4"/>
<!-- Node30 -->
<g id="node1" class="node"><title>Node30</title>
<polygon fill="#bfbfbf" stroke="black" points="0,-19.5 0,-38.5 114,-38.5 114,-19.5 0,-19.5"/>
<text text-anchor="middle" x="57" y="-26.5" font-family="Helvetica,sans-Serif" font-size="10.00">Jetpack::normalAction</text>
</g>
<!-- Node31 -->
<g id="node2" class="node"><title>Node31</title>
<g id="a_node2"><a xlink:href="../../df/d1d/class_jetpack.html#af9acedb606340c26c2636c282b54dff1" target="_top" xlink:title="Jetpack::doAction">
<polygon fill="white" stroke="black" points="150,-19.5 150,-38.5 245,-38.5 245,-19.5 150,-19.5"/>
<text text-anchor="middle" x="197.5" y="-26.5" font-family="Helvetica,sans-Serif" font-size="10.00">Jetpack::doAction</text>
</a>
</g>
</g>
<!-- Node30&#45;&gt;Node31 -->
<g id="edge1" class="edge"><title>Node30&#45;&gt;Node31</title>
<path fill="none" stroke="midnightblue" d="M124.409,-29C133.042,-29 141.735,-29 149.948,-29"/>
<polygon fill="midnightblue" stroke="midnightblue" points="124.333,-25.5001 114.333,-29 124.333,-32.5001 124.333,-25.5001"/>
</g>
<!-- Node32 -->
<g id="node3" class="node"><title>Node32</title>
<g id="a_node3"><a xlink:href="../../d7/df9/class_cool_board.html#ae6b5e1274d760462290192acea4adca8" target="_top" xlink:title="CoolBoard::offLineMode">
<polygon fill="white" stroke="black" points="281,-38.5 281,-57.5 403,-57.5 403,-38.5 281,-38.5"/>
<text text-anchor="middle" x="342" y="-45.5" font-family="Helvetica,sans-Serif" font-size="10.00">CoolBoard::offLineMode</text>
</a>
</g>
</g>
<!-- Node31&#45;&gt;Node32 -->
<g id="edge2" class="edge"><title>Node31&#45;&gt;Node32</title>
<path fill="none" stroke="midnightblue" d="M255.293,-36.5724C263.743,-37.6991 272.476,-38.8635 280.99,-39.9986"/>
<polygon fill="midnightblue" stroke="midnightblue" points="255.535,-33.0737 245.16,-35.2213 254.61,-40.0123 255.535,-33.0737"/>
</g>
<!-- Node33 -->
<g id="node4" class="node"><title>Node33</title>
<g id="a_node4"><a xlink:href="../../d7/df9/class_cool_board.html#aa0bbc4bc605e35618d18e68795c61363" target="_top" xlink:title="CoolBoard::onLineMode">
<polygon fill="white" stroke="black" points="281.5,-0.5 281.5,-19.5 402.5,-19.5 402.5,-0.5 281.5,-0.5"/>
<text text-anchor="middle" x="342" y="-7.5" font-family="Helvetica,sans-Serif" font-size="10.00">CoolBoard::onLineMode</text>
</a>
</g>
</g>
<!-- Node31&#45;&gt;Node33 -->
<g id="edge3" class="edge"><title>Node31&#45;&gt;Node33</title>
<path fill="none" stroke="midnightblue" d="M255.157,-21.4458C263.818,-20.291 272.779,-19.0961 281.499,-17.9334"/>
<polygon fill="midnightblue" stroke="midnightblue" points="254.61,-17.9877 245.16,-22.7787 255.535,-24.9263 254.61,-17.9877"/>
</g>
</g>
</svg>
