<?xml version="1.0" encoding="UTF-8" standalone="no"?>
<!DOCTYPE svg PUBLIC "-//W3C//DTD SVG 1.1//EN"
 "http://www.w3.org/Graphics/SVG/1.1/DTD/svg11.dtd">
<!-- Generated by graphviz version 2.38.0 (20140413.2041)
 -->
<!-- Title: /home/ashiroji/Arduino/libraries/CoolBoard/src/irene3000.cpp Pages: 1 -->
<svg width="354pt" height="229pt"
 viewBox="0.00 0.00 354.00 229.00" xmlns="http://www.w3.org/2000/svg" xmlns:xlink="http://www.w3.org/1999/xlink">
<g id="graph0" class="graph" transform="scale(1 1) rotate(0) translate(4 225)">
<title>/home/ashiroji/Arduino/libraries/CoolBoard/src/irene3000.cpp</title>
<polygon fill="white" stroke="none" points="-4,4 -4,-225 350,-225 350,4 -4,4"/>
<!-- Node0 -->
<g id="node1" class="node"><title>Node0</title>
<polygon fill="#bfbfbf" stroke="black" points="74.5,-179.5 74.5,-220.5 193.5,-220.5 193.5,-179.5 74.5,-179.5"/>
<text text-anchor="start" x="82.5" y="-208.5" font-family="Helvetica,sans-Serif" font-size="10.00">/home/ashiroji/Arduino</text>
<text text-anchor="start" x="82.5" y="-197.5" font-family="Helvetica,sans-Serif" font-size="10.00">/libraries/CoolBoard/src</text>
<text text-anchor="middle" x="134" y="-186.5" font-family="Helvetica,sans-Serif" font-size="10.00">/irene3000.cpp</text>
</g>
<!-- Node1 -->
<g id="node2" class="node"><title>Node1</title>
<polygon fill="white" stroke="#bfbfbf" points="0,-123.5 0,-142.5 38,-142.5 38,-123.5 0,-123.5"/>
<text text-anchor="middle" x="19" y="-130.5" font-family="Helvetica,sans-Serif" font-size="10.00">FS.h</text>
</g>
<!-- Node0&#45;&gt;Node1 -->
<g id="edge1" class="edge"><title>Node0&#45;&gt;Node1</title>
<path fill="none" stroke="midnightblue" d="M99.4962,-179.498C81.3559,-169.245 59.5597,-156.925 43.2255,-147.693"/>
<polygon fill="midnightblue" stroke="midnightblue" points="44.7361,-144.526 34.3083,-142.652 41.2917,-150.62 44.7361,-144.526"/>
</g>
<!-- Node2 -->
<g id="node3" class="node"><title>Node2</title>
<polygon fill="white" stroke="#bfbfbf" points="179,-0.5 179,-19.5 237,-19.5 237,-0.5 179,-0.5"/>
<text text-anchor="middle" x="208" y="-7.5" font-family="Helvetica,sans-Serif" font-size="10.00">Arduino.h</text>
</g>
<!-- Node0&#45;&gt;Node2 -->
<g id="edge2" class="edge"><title>Node0&#45;&gt;Node2</title>
<path fill="none" stroke="midnightblue" d="M108.143,-179.34C92.0514,-164.544 75.9896,-143.391 85,-123 104.908,-77.9487 152.878,-43.2166 182.687,-25.0485"/>
<polygon fill="midnightblue" stroke="midnightblue" points="184.841,-27.8413 191.668,-19.7398 181.279,-21.8153 184.841,-27.8413"/>
</g>
<!-- Node3 -->
<g id="node4" class="node"><title>Node3</title>
<polygon fill="white" stroke="#bfbfbf" points="94.5,-123.5 94.5,-142.5 173.5,-142.5 173.5,-123.5 94.5,-123.5"/>
<text text-anchor="middle" x="134" y="-130.5" font-family="Helvetica,sans-Serif" font-size="10.00">ArduinoJson.h</text>
</g>
<!-- Node0&#45;&gt;Node3 -->
<g id="edge3" class="edge"><title>Node0&#45;&gt;Node3</title>
<path fill="none" stroke="midnightblue" d="M134,-179.498C134,-171.065 134,-161.235 134,-152.874"/>
<polygon fill="midnightblue" stroke="midnightblue" points="137.5,-152.652 134,-142.652 130.5,-152.653 137.5,-152.652"/>
</g>
<!-- Node4 -->
<g id="node5" class="node"><title>Node4</title>
<polygon fill="white" stroke="#bfbfbf" points="191.5,-123.5 191.5,-142.5 238.5,-142.5 238.5,-123.5 191.5,-123.5"/>
<text text-anchor="middle" x="215" y="-130.5" font-family="Helvetica,sans-Serif" font-size="10.00">math.h</text>
</g>
<!-- Node0&#45;&gt;Node4 -->
<g id="edge4" class="edge"><title>Node0&#45;&gt;Node4</title>
<path fill="none" stroke="midnightblue" d="M158.303,-179.498C170.483,-169.724 185.003,-158.072 196.299,-149.007"/>
<polygon fill="midnightblue" stroke="midnightblue" points="198.609,-151.641 204.218,-142.652 194.228,-146.181 198.609,-151.641"/>
</g>
<!-- Node5 -->
<g id="node6" class="node"><title>Node5</title>
<g id="a_node6"><a xlink:href="$d7/d31/_irene3000_8h.html" xlink:title="Irene3000.h">
<polygon fill="white" stroke="black" points="257,-123.5 257,-142.5 325,-142.5 325,-123.5 257,-123.5"/>
<text text-anchor="middle" x="291" y="-130.5" font-family="Helvetica,sans-Serif" font-size="10.00">Irene3000.h</text>
</a>
</g>
</g>
<!-- Node0&#45;&gt;Node5 -->
<g id="edge5" class="edge"><title>Node0&#45;&gt;Node5</title>
<path fill="none" stroke="midnightblue" d="M181.105,-179.498C206.912,-168.813 238.139,-155.885 260.7,-146.545"/>
<polygon fill="midnightblue" stroke="midnightblue" points="262.2,-149.712 270.101,-142.652 259.523,-143.244 262.2,-149.712"/>
</g>
<!-- Node5&#45;&gt;Node2 -->
<g id="edge8" class="edge"><title>Node5&#45;&gt;Node2</title>
<path fill="none" stroke="midnightblue" d="M272.218,-123.426C257.724,-115.857 238.298,-103.463 227,-87 215.244,-69.8712 210.753,-46.1252 209.042,-29.757"/>
<polygon fill="midnightblue" stroke="midnightblue" points="212.53,-29.4663 208.247,-19.7758 205.552,-30.0222 212.53,-29.4663"/>
</g>
<!-- Node6 -->
<g id="node7" class="node"><title>Node6</title>
<g id="a_node7"><a xlink:href="$df/d06/_cool_adafruit___a_d_s1015_8h.html" xlink:title="internals/CoolAdafruit\l_ADS1015.h">
<polygon fill="white" stroke="black" points="236,-56.5 236,-86.5 346,-86.5 346,-56.5 236,-56.5"/>
<text text-anchor="start" x="244" y="-74.5" font-family="Helvetica,sans-Serif" font-size="10.00">internals/CoolAdafruit</text>
<text text-anchor="middle" x="291" y="-63.5" font-family="Helvetica,sans-Serif" font-size="10.00">_ADS1015.h</text>
</a>
</g>
</g>
<!-- Node5&#45;&gt;Node6 -->
<g id="edge6" class="edge"><title>Node5&#45;&gt;Node6</title>
<path fill="none" stroke="midnightblue" d="M291,-123.475C291,-116.471 291,-106.192 291,-96.6956"/>
<polygon fill="midnightblue" stroke="midnightblue" points="294.5,-96.5229 291,-86.523 287.5,-96.523 294.5,-96.5229"/>
</g>
<!-- Node6&#45;&gt;Node2 -->
<g id="edge7" class="edge"><title>Node6&#45;&gt;Node2</title>
<path fill="none" stroke="midnightblue" d="M271.33,-56.3993C258.399,-47.1293 241.514,-35.0254 228.432,-25.6469"/>
<polygon fill="midnightblue" stroke="midnightblue" points="230.244,-22.6395 220.077,-19.6578 226.165,-28.3287 230.244,-22.6395"/>
</g>
</g>
</svg>
