<?xml version="1.0" encoding="UTF-8" standalone="no"?>
<!DOCTYPE svg PUBLIC "-//W3C//DTD SVG 1.1//EN"
 "http://www.w3.org/Graphics/SVG/1.1/DTD/svg11.dtd">
<!-- Generated by graphviz version 2.38.0 (20140413.2041)
 -->
<!-- Title: CoolSI114X::ReadHalfWord Pages: 1 -->
<!--zoomable 142 -->
<svg id="main" version="1.1" xmlns="http://www.w3.org/2000/svg" xmlns:xlink="http://www.w3.org/1999/xlink" xml:space="preserve" onload="init(evt)">
<style type="text/css"><![CDATA[
.edge:hover path { stroke: red; }
.edge:hover polygon { stroke: red; fill: red; }
]]></style>
<script type="text/javascript"><![CDATA[
var edges = document.getElementsByTagName('g');
if (edges && edges.length) {
  for (var i=0;i<edges.length;i++) {
    if (edges[i].id.substr(0,4)=='edge') {
      edges[i].setAttribute('class','edge');
    }
  }
}
]]></script>
        <defs>
                <circle id="rim" cx="0" cy="0" r="7"/>
                <circle id="rim2" cx="0" cy="0" r="3.5"/>
                <g id="zoomPlus">
                        <use xlink:href="#rim" fill="#404040">
                                <set attributeName="fill" to="#808080" begin="zoomplus.mouseover" end="zoomplus.mouseout"/>
                        </use>
                        <path d="M-4,0h8M0,-4v8" fill="none" stroke="white" stroke-width="1.5" pointer-events="none"/>
                </g>
                <g id="zoomMin">
                        <use xlink:href="#rim" fill="#404040">
                                <set attributeName="fill" to="#808080" begin="zoomminus.mouseover" end="zoomminus.mouseout"/>
                        </use>
                        <path d="M-4,0h8" fill="none" stroke="white" stroke-width="1.5" pointer-events="none"/>
                </g>
                <g id="dirArrow">
                        <path fill="none" stroke="white" stroke-width="1.5" d="M0,-3.0v7 M-2.5,-0.5L0,-3.0L2.5,-0.5"/>
                </g>
               <g id="resetDef">
                       <use xlink:href="#rim2" fill="#404040">
                               <set attributeName="fill" to="#808080" begin="reset.mouseover" end="reset.mouseout"/>
                       </use>
               </g>
        </defs>

<script type="text/javascript">
var viewWidth = 800;
var viewHeight = 142;
var sectionId = 'dynsection-21';
</script>
<script xlink:href="../../svgpan.js"/>
<svg id="graph" class="graph">
<g id="viewport">
<title>CoolSI114X::ReadHalfWord</title>
<polygon fill="white" stroke="none" points="-4,4 -4,-138 796,-138 796,4 -4,4"/>
<!-- Node101 -->
<g id="node1" class="node"><title>Node101</title>
<polygon fill="#bfbfbf" stroke="black" points="0,-57.5 0,-76.5 140,-76.5 140,-57.5 0,-57.5"/>
<text text-anchor="middle" x="70" y="-64.5" font-family="Helvetica,sans-Serif" font-size="10.00">CoolSI114X::ReadHalfWord</text>
</g>
<!-- Node102 -->
<g id="node2" class="node"><title>Node102</title>
<g id="a_node2"><a xlink:href="../../dd/d67/class_cool_s_i114_x.html#abc536ee7ae8e3ba9d1069acc3889a2cf" target="_top" xlink:title="CoolSI114X::ReadIR">
<polygon fill="white" stroke="black" points="191.5,-114.5 191.5,-133.5 300.5,-133.5 300.5,-114.5 191.5,-114.5"/>
<text text-anchor="middle" x="246" y="-121.5" font-family="Helvetica,sans-Serif" font-size="10.00">CoolSI114X::ReadIR</text>
</a>
</g>
</g>
<!-- Node101&#45;&gt;Node102 -->
<g id="edge1" class="edge"><title>Node101&#45;&gt;Node102</title>
<path fill="none" stroke="midnightblue" d="M105.334,-80.197C125.731,-87.8435 152.186,-97.4248 176,-105 186.42,-108.314 197.829,-111.595 208.317,-114.474"/>
<polygon fill="midnightblue" stroke="midnightblue" points="106.437,-76.8724 95.8451,-76.616 103.965,-83.4215 106.437,-76.8724"/>
</g>
<!-- Node107 -->
<g id="node7" class="node"><title>Node107</title>
<g id="a_node7"><a xlink:href="../../dd/d67/class_cool_s_i114_x.html#a194fede1105508c7803dbb567cbdcc67" target="_top" xlink:title="CoolSI114X::ReadProximity">
<polygon fill="white" stroke="black" points="176,-76.5 176,-95.5 316,-95.5 316,-76.5 176,-76.5"/>
<text text-anchor="middle" x="246" y="-83.5" font-family="Helvetica,sans-Serif" font-size="10.00">CoolSI114X::ReadProximity</text>
</a>
</g>
</g>
<!-- Node101&#45;&gt;Node107 -->
<g id="edge6" class="edge"><title>Node101&#45;&gt;Node107</title>
<path fill="none" stroke="midnightblue" d="M150.035,-75.6303C158.625,-76.5682 167.319,-77.5176 175.779,-78.4414"/>
<polygon fill="midnightblue" stroke="midnightblue" points="150.34,-72.1429 140.019,-74.5366 149.58,-79.1015 150.34,-72.1429"/>
</g>
<!-- Node108 -->
<g id="node8" class="node"><title>Node108</title>
<g id="a_node8"><a xlink:href="../../dd/d67/class_cool_s_i114_x.html#a14ced664d74e93438440b0274109c111" target="_top" xlink:title="CoolSI114X::ReadUV">
<polygon fill="white" stroke="black" points="189.5,-38.5 189.5,-57.5 302.5,-57.5 302.5,-38.5 189.5,-38.5"/>
<text text-anchor="middle" x="246" y="-45.5" font-family="Helvetica,sans-Serif" font-size="10.00">CoolSI114X::ReadUV</text>
</a>
</g>
</g>
<!-- Node101&#45;&gt;Node108 -->
<g id="edge7" class="edge"><title>Node101&#45;&gt;Node108</title>
<path fill="none" stroke="midnightblue" d="M150.112,-58.3614C163.4,-56.9104 176.935,-55.4324 189.465,-54.0642"/>
<polygon fill="midnightblue" stroke="midnightblue" points="149.58,-54.8985 140.019,-59.4634 150.34,-61.8571 149.58,-54.8985"/>
</g>
<!-- Node109 -->
<g id="node9" class="node"><title>Node109</title>
<g id="a_node9"><a xlink:href="../../dd/d67/class_cool_s_i114_x.html#a42e0e574256341443c647a4c0eda87d5" target="_top" xlink:title="CoolSI114X::ReadVisible">
<polygon fill="white" stroke="black" points="182,-0.5 182,-19.5 310,-19.5 310,-0.5 182,-0.5"/>
<text text-anchor="middle" x="246" y="-7.5" font-family="Helvetica,sans-Serif" font-size="10.00">CoolSI114X::ReadVisible</text>
</a>
</g>
</g>
<!-- Node101&#45;&gt;Node109 -->
<g id="edge9" class="edge"><title>Node101&#45;&gt;Node109</title>
<path fill="none" stroke="midnightblue" d="M105.334,-53.803C125.731,-46.1565 152.186,-36.5752 176,-29 186.42,-25.6856 197.829,-22.4047 208.317,-19.526"/>
<polygon fill="midnightblue" stroke="midnightblue" points="103.965,-50.5785 95.8451,-57.384 106.437,-57.1276 103.965,-50.5785"/>
</g>
<!-- Node103 -->
<g id="node3" class="node"><title>Node103</title>
<g id="a_node3"><a xlink:href="../../de/d46/class_cool_board_sensors.html#a91badb2539d91fda8679f2a597874c48" target="_top" xlink:title="CoolBoardSensors::read">
<polygon fill="white" stroke="black" points="352,-38.5 352,-57.5 475,-57.5 475,-38.5 352,-38.5"/>
<text text-anchor="middle" x="413.5" y="-45.5" font-family="Helvetica,sans-Serif" font-size="10.00">CoolBoardSensors::read</text>
</a>
</g>
</g>
<!-- Node102&#45;&gt;Node103 -->
<g id="edge2" class="edge"><title>Node102&#45;&gt;Node103</title>
<path fill="none" stroke="midnightblue" d="M298.068,-111.588C304.194,-109.618 310.295,-107.42 316,-105 347.348,-91.7048 380.932,-69.9505 399.046,-57.5151"/>
<polygon fill="midnightblue" stroke="midnightblue" points="297.027,-108.246 288.473,-114.498 299.058,-114.945 297.027,-108.246"/>
</g>
<!-- Node104 -->
<g id="node4" class="node"><title>Node104</title>
<g id="a_node4"><a xlink:href="../../d7/df9/class_cool_board.html#ad03abdce2e65f520bbf2cff0f2d083cf" target="_top" xlink:title="CoolBoard::readSensors">
<polygon fill="white" stroke="black" points="511,-38.5 511,-57.5 634,-57.5 634,-38.5 511,-38.5"/>
<text text-anchor="middle" x="572.5" y="-45.5" font-family="Helvetica,sans-Serif" font-size="10.00">CoolBoard::readSensors</text>
</a>
</g>
</g>
<!-- Node103&#45;&gt;Node104 -->
<g id="edge3" class="edge"><title>Node103&#45;&gt;Node104</title>
<path fill="none" stroke="midnightblue" d="M485.21,-48C493.807,-48 502.53,-48 510.961,-48"/>
<polygon fill="midnightblue" stroke="midnightblue" points="485.2,-44.5001 475.2,-48 485.2,-51.5001 485.2,-44.5001"/>
</g>
<!-- Node105 -->
<g id="node5" class="node"><title>Node105</title>
<g id="a_node5"><a xlink:href="../../d7/df9/class_cool_board.html#ae6b5e1274d760462290192acea4adca8" target="_top" xlink:title="CoolBoard::offLineMode">
<polygon fill="white" stroke="black" points="670,-57.5 670,-76.5 792,-76.5 792,-57.5 670,-57.5"/>
<text text-anchor="middle" x="731" y="-64.5" font-family="Helvetica,sans-Serif" font-size="10.00">CoolBoard::offLineMode</text>
</a>
</g>
</g>
<!-- Node104&#45;&gt;Node105 -->
<g id="edge4" class="edge"><title>Node104&#45;&gt;Node105</title>
<path fill="none" stroke="midnightblue" d="M644.059,-56.5662C652.692,-57.6144 661.452,-58.6779 669.912,-59.7049"/>
<polygon fill="midnightblue" stroke="midnightblue" points="644.356,-53.0767 634.007,-55.3459 643.512,-60.0257 644.356,-53.0767"/>
</g>
<!-- Node106 -->
<g id="node6" class="node"><title>Node106</title>
<g id="a_node6"><a xlink:href="../../d7/df9/class_cool_board.html#aa0bbc4bc605e35618d18e68795c61363" target="_top" xlink:title="CoolBoard::onLineMode">
<polygon fill="white" stroke="black" points="670.5,-19.5 670.5,-38.5 791.5,-38.5 791.5,-19.5 670.5,-19.5"/>
<text text-anchor="middle" x="731" y="-26.5" font-family="Helvetica,sans-Serif" font-size="10.00">CoolBoard::onLineMode</text>
</a>
</g>
</g>
<!-- Node104&#45;&gt;Node106 -->
<g id="edge5" class="edge"><title>Node104&#45;&gt;Node106</title>
<path fill="none" stroke="midnightblue" d="M644.207,-39.4158C652.968,-38.3522 661.856,-37.2731 670.427,-36.2325"/>
<polygon fill="midnightblue" stroke="midnightblue" points="643.512,-35.9743 634.007,-40.6541 644.356,-42.9233 643.512,-35.9743"/>
</g>
<!-- Node108&#45;&gt;Node103 -->
<g id="edge8" class="edge"><title>Node108&#45;&gt;Node103</title>
<path fill="none" stroke="midnightblue" d="M312.787,-48C325.713,-48 339.217,-48 351.961,-48"/>
<polygon fill="midnightblue" stroke="midnightblue" points="312.57,-44.5001 302.57,-48 312.569,-51.5001 312.57,-44.5001"/>
</g>
<!-- Node109&#45;&gt;Node103 -->
<g id="edge10" class="edge"><title>Node109&#45;&gt;Node103</title>
<path fill="none" stroke="midnightblue" d="M298.811,-21.8961C322.073,-27.2374 349.147,-33.4537 371.038,-38.4799"/>
<polygon fill="midnightblue" stroke="midnightblue" points="299.292,-18.4157 288.763,-19.589 297.726,-25.2382 299.292,-18.4157"/>
</g>
</g>
</svg>
        <g id="navigator" transform="translate(0 0)" fill="#404254">
                <rect fill="#f2f5e9" fill-opacity="0.5" stroke="#606060" stroke-width=".5" x="0" y="0" width="60" height="60"/>
                <use id="zoomplus" xlink:href="#zoomPlus" x="17" y="9" onmousedown="handleZoom(evt,'in')"/>
                <use id="zoomminus" xlink:href="#zoomMin" x="42" y="9" onmousedown="handleZoom(evt,'out')"/>
                <use id="reset" xlink:href="#resetDef" x="30" y="36" onmousedown="handleReset()"/>
                <g id="arrowUp" xlink:href="#dirArrow" transform="translate(30 24)" onmousedown="handlePan(0,-1)">
                  <use xlink:href="#rim" fill="#404040">
                        <set attributeName="fill" to="#808080" begin="arrowUp.mouseover" end="arrowUp.mouseout"/>
                  </use>
                  <path fill="none" stroke="white" stroke-width="1.5" d="M0,-3.0v7 M-2.5,-0.5L0,-3.0L2.5,-0.5"/>
                </g>
                <g id="arrowRight" xlink:href="#dirArrow" transform="rotate(90) translate(36 -43)" onmousedown="handlePan(1,0)">
                  <use xlink:href="#rim" fill="#404040">
                        <set attributeName="fill" to="#808080" begin="arrowRight.mouseover" end="arrowRight.mouseout"/>
                  </use>
                  <path fill="none" stroke="white" stroke-width="1.5" d="M0,-3.0v7 M-2.5,-0.5L0,-3.0L2.5,-0.5"/>
                </g>
                <g id="arrowDown" xlink:href="#dirArrow" transform="rotate(180) translate(-30 -48)" onmousedown="handlePan(0,1)">
                  <use xlink:href="#rim" fill="#404040">
                        <set attributeName="fill" to="#808080" begin="arrowDown.mouseover" end="arrowDown.mouseout"/>
                  </use>
                  <path fill="none" stroke="white" stroke-width="1.5" d="M0,-3.0v7 M-2.5,-0.5L0,-3.0L2.5,-0.5"/>
                </g>
                <g id="arrowLeft" xlink:href="#dirArrow" transform="rotate(270) translate(-36 17)" onmousedown="handlePan(-1,0)">
                  <use xlink:href="#rim" fill="#404040">
                        <set attributeName="fill" to="#808080" begin="arrowLeft.mouseover" end="arrowLeft.mouseout"/>
                  </use>
                  <path fill="none" stroke="white" stroke-width="1.5" d="M0,-3.0v7 M-2.5,-0.5L0,-3.0L2.5,-0.5"/>
                </g>
        </g>
        <svg viewBox="0 0 15 15" width="100%" height="30px" preserveAspectRatio="xMaxYMin meet">
         <g id="arrow_out" transform="scale(0.3 0.3)">
          <a xlink:href="class_cool_s_i114_x_a1d25c9e137874af529804c2ec796a6b9_icgraph_org.svg" target="_base">
           <rect id="button" ry="5" rx="5" y="6" x="6" height="38" width="38"
                fill="#f2f5e9" fill-opacity="0.5" stroke="#606060" stroke-width="1.0"/>
           <path id="arrow"
             d="M 11.500037,31.436501 C 11.940474,20.09759 22.043105,11.32322 32.158766,21.979434 L 37.068811,17.246167 C 37.068811,17.246167 37.088388,32 37.088388,32 L 22.160133,31.978069 C 22.160133,31.978069 26.997745,27.140456 26.997745,27.140456 C 18.528582,18.264221 13.291696,25.230495 11.500037,31.436501 z"
             style="fill:#404040;"/>
          </a>
         </g>
        </svg>
</svg>
