<?xml version="1.0" encoding="UTF-8" standalone="no"?>
<!DOCTYPE svg PUBLIC "-//W3C//DTD SVG 1.1//EN"
 "http://www.w3.org/Graphics/SVG/1.1/DTD/svg11.dtd">
<!-- Generated by graphviz version 2.38.0 (20140413.2041)
 -->
<!-- Title: CoolSI114X::WriteParamData Pages: 1 -->
<svg width="766pt" height="123pt"
 viewBox="0.00 0.00 766.00 123.00" xmlns="http://www.w3.org/2000/svg" xmlns:xlink="http://www.w3.org/1999/xlink">
<g id="graph0" class="graph" transform="scale(1 1) rotate(0) translate(4 119)">
<title>CoolSI114X::WriteParamData</title>
<polygon fill="white" stroke="none" points="-4,4 -4,-119 762,-119 762,4 -4,4"/>
<!-- Node31 -->
<g id="node1" class="node"><title>Node31</title>
<polygon fill="#bfbfbf" stroke="black" points="0,-38.5 0,-57.5 148,-57.5 148,-38.5 0,-38.5"/>
<text text-anchor="middle" x="74" y="-45.5" font-family="Helvetica,sans-Serif" font-size="10.00">CoolSI114X::WriteParamData</text>
</g>
<!-- Node32 -->
<g id="node2" class="node"><title>Node32</title>
<g id="a_node2"><a xlink:href="../../dd/d67/class_cool_s_i114_x.html#a6840abd53a2e3d71a6bb918077c6d6e6" target="_top" xlink:title="CoolSI114X::DeInit">
<polygon fill="white" stroke="black" points="195,-57.5 195,-76.5 296,-76.5 296,-57.5 195,-57.5"/>
<text text-anchor="middle" x="245.5" y="-64.5" font-family="Helvetica,sans-Serif" font-size="10.00">CoolSI114X::DeInit</text>
</a>
</g>
</g>
<!-- Node31&#45;&gt;Node32 -->
<g id="edge1" class="edge"><title>Node31&#45;&gt;Node32</title>
<path fill="none" stroke="midnightblue" d="M158.375,-57.3458C170.9,-58.7498 183.465,-60.1583 194.975,-61.4485"/>
<polygon fill="midnightblue" stroke="midnightblue" points="158.687,-53.859 148.359,-56.2232 157.907,-60.8154 158.687,-53.859"/>
</g>
<!-- Node37 -->
<g id="node7" class="node"><title>Node37</title>
<g id="a_node7"><a xlink:href="../../de/d46/class_cool_board_sensors.html#a91badb2539d91fda8679f2a597874c48" target="_top" xlink:title="CoolBoardSensors::read">
<polygon fill="white" stroke="black" points="184,-19.5 184,-38.5 307,-38.5 307,-19.5 184,-19.5"/>
<text text-anchor="middle" x="245.5" y="-26.5" font-family="Helvetica,sans-Serif" font-size="10.00">CoolBoardSensors::read</text>
</a>
</g>
</g>
<!-- Node31&#45;&gt;Node37 -->
<g id="edge6" class="edge"><title>Node31&#45;&gt;Node37</title>
<path fill="none" stroke="midnightblue" d="M158.375,-38.6542C166.931,-37.695 175.507,-36.7338 183.752,-35.8095"/>
<polygon fill="midnightblue" stroke="midnightblue" points="157.907,-35.1846 148.359,-39.7768 158.687,-42.141 157.907,-35.1846"/>
</g>
<!-- Node33 -->
<g id="node3" class="node"><title>Node33</title>
<g id="a_node3"><a xlink:href="../../dd/d67/class_cool_s_i114_x.html#a206b36aca7049f63be1d11088c30a09f" target="_top" xlink:title="CoolSI114X::Begin">
<polygon fill="white" stroke="black" points="354.5,-95.5 354.5,-114.5 454.5,-114.5 454.5,-95.5 354.5,-95.5"/>
<text text-anchor="middle" x="404.5" y="-102.5" font-family="Helvetica,sans-Serif" font-size="10.00">CoolSI114X::Begin</text>
</a>
</g>
</g>
<!-- Node32&#45;&gt;Node33 -->
<g id="edge2" class="edge"><title>Node32&#45;&gt;Node33</title>
<path fill="none" stroke="midnightblue" d="M295.947,-78.968C317.948,-84.2931 343.494,-90.4762 364.167,-95.4799"/>
<polygon fill="midnightblue" stroke="midnightblue" points="296.66,-75.5398 286.118,-76.589 295.014,-82.3433 296.66,-75.5398"/>
</g>
<!-- Node36 -->
<g id="node6" class="node"><title>Node36</title>
<g id="a_node6"><a xlink:href="../../de/d46/class_cool_board_sensors.html#a4902b69f6e628bd6557193758fdd2bae" target="_top" xlink:title="CoolBoardSensors::end">
<polygon fill="white" stroke="black" points="344.5,-57.5 344.5,-76.5 464.5,-76.5 464.5,-57.5 344.5,-57.5"/>
<text text-anchor="middle" x="404.5" y="-64.5" font-family="Helvetica,sans-Serif" font-size="10.00">CoolBoardSensors::end</text>
</a>
</g>
</g>
<!-- Node32&#45;&gt;Node36 -->
<g id="edge5" class="edge"><title>Node32&#45;&gt;Node36</title>
<path fill="none" stroke="midnightblue" d="M306.411,-67C318.816,-67 331.877,-67 344.257,-67"/>
<polygon fill="midnightblue" stroke="midnightblue" points="306.176,-63.5001 296.176,-67 306.176,-70.5001 306.176,-63.5001"/>
</g>
<!-- Node34 -->
<g id="node4" class="node"><title>Node34</title>
<g id="a_node4"><a xlink:href="../../de/d46/class_cool_board_sensors.html#a97095823ef7c8f5290812f1405b966b3" target="_top" xlink:title="CoolBoardSensors::begin">
<polygon fill="white" stroke="black" points="502,-95.5 502,-114.5 630,-114.5 630,-95.5 502,-95.5"/>
<text text-anchor="middle" x="566" y="-102.5" font-family="Helvetica,sans-Serif" font-size="10.00">CoolBoardSensors::begin</text>
</a>
</g>
</g>
<!-- Node33&#45;&gt;Node34 -->
<g id="edge3" class="edge"><title>Node33&#45;&gt;Node34</title>
<path fill="none" stroke="midnightblue" d="M464.663,-105C476.798,-105 489.615,-105 501.884,-105"/>
<polygon fill="midnightblue" stroke="midnightblue" points="464.657,-101.5 454.657,-105 464.657,-108.5 464.657,-101.5"/>
</g>
<!-- Node35 -->
<g id="node5" class="node"><title>Node35</title>
<g id="a_node5"><a xlink:href="../../d7/df9/class_cool_board.html#acba7c5aef7268b2c0044bdb54d3b9d76" target="_top" xlink:title="CoolBoard::begin">
<polygon fill="white" stroke="black" points="666,-95.5 666,-114.5 758,-114.5 758,-95.5 666,-95.5"/>
<text text-anchor="middle" x="712" y="-102.5" font-family="Helvetica,sans-Serif" font-size="10.00">CoolBoard::begin</text>
</a>
</g>
</g>
<!-- Node34&#45;&gt;Node35 -->
<g id="edge4" class="edge"><title>Node34&#45;&gt;Node35</title>
<path fill="none" stroke="midnightblue" d="M640.283,-105C648.922,-105 657.536,-105 665.627,-105"/>
<polygon fill="midnightblue" stroke="midnightblue" points="640.161,-101.5 630.16,-105 640.16,-108.5 640.161,-101.5"/>
</g>
<!-- Node38 -->
<g id="node8" class="node"><title>Node38</title>
<g id="a_node8"><a xlink:href="../../d7/df9/class_cool_board.html#ad03abdce2e65f520bbf2cff0f2d083cf" target="_top" xlink:title="CoolBoard::readSensors">
<polygon fill="white" stroke="black" points="343,-19.5 343,-38.5 466,-38.5 466,-19.5 343,-19.5"/>
<text text-anchor="middle" x="404.5" y="-26.5" font-family="Helvetica,sans-Serif" font-size="10.00">CoolBoard::readSensors</text>
</a>
</g>
</g>
<!-- Node37&#45;&gt;Node38 -->
<g id="edge7" class="edge"><title>Node37&#45;&gt;Node38</title>
<path fill="none" stroke="midnightblue" d="M317.21,-29C325.807,-29 334.53,-29 342.961,-29"/>
<polygon fill="midnightblue" stroke="midnightblue" points="317.2,-25.5001 307.2,-29 317.2,-32.5001 317.2,-25.5001"/>
</g>
<!-- Node39 -->
<g id="node9" class="node"><title>Node39</title>
<g id="a_node9"><a xlink:href="../../d7/df9/class_cool_board.html#ae6b5e1274d760462290192acea4adca8" target="_top" xlink:title="CoolBoard::offLineMode">
<polygon fill="white" stroke="black" points="505,-38.5 505,-57.5 627,-57.5 627,-38.5 505,-38.5"/>
<text text-anchor="middle" x="566" y="-45.5" font-family="Helvetica,sans-Serif" font-size="10.00">CoolBoard::offLineMode</text>
</a>
</g>
</g>
<!-- Node38&#45;&gt;Node39 -->
<g id="edge8" class="edge"><title>Node38&#45;&gt;Node39</title>
<path fill="none" stroke="midnightblue" d="M476.475,-37.4547C485.979,-38.5868 495.65,-39.7389 504.941,-40.8457"/>
<polygon fill="midnightblue" stroke="midnightblue" points="476.599,-33.9448 466.255,-36.2373 475.771,-40.8957 476.599,-33.9448"/>
</g>
<!-- Node40 -->
<g id="node10" class="node"><title>Node40</title>
<g id="a_node10"><a xlink:href="../../d7/df9/class_cool_board.html#aa0bbc4bc605e35618d18e68795c61363" target="_top" xlink:title="CoolBoard::onLineMode">
<polygon fill="white" stroke="black" points="505.5,-0.5 505.5,-19.5 626.5,-19.5 626.5,-0.5 505.5,-0.5"/>
<text text-anchor="middle" x="566" y="-7.5" font-family="Helvetica,sans-Serif" font-size="10.00">CoolBoard::onLineMode</text>
</a>
</g>
</g>
<!-- Node38&#45;&gt;Node40 -->
<g id="edge9" class="edge"><title>Node38&#45;&gt;Node40</title>
<path fill="none" stroke="midnightblue" d="M476.311,-20.5648C486.047,-19.4051 495.963,-18.2239 505.468,-17.0916"/>
<polygon fill="midnightblue" stroke="midnightblue" points="475.771,-17.1043 466.255,-21.7627 476.599,-24.0552 475.771,-17.1043"/>
</g>
</g>
</svg>
