<?xml version="1.0" encoding="UTF-8" standalone="no"?>
<!DOCTYPE svg PUBLIC "-//W3C//DTD SVG 1.1//EN"
 "http://www.w3.org/Graphics/SVG/1.1/DTD/svg11.dtd">
<!-- Generated by graphviz version 2.38.0 (20140413.2041)
 -->
<!-- Title: CoolSI114X::Begin Pages: 1 -->
<svg width="584pt" height="123pt"
 viewBox="0.00 0.00 584.00 123.00" xmlns="http://www.w3.org/2000/svg" xmlns:xlink="http://www.w3.org/1999/xlink">
<g id="graph0" class="graph" transform="scale(1 1) rotate(0) translate(4 119)">
<title>CoolSI114X::Begin</title>
<polygon fill="white" stroke="none" points="-4,4 -4,-119 580,-119 580,4 -4,4"/>
<!-- Node0 -->
<g id="node1" class="node"><title>Node0</title>
<polygon fill="#bfbfbf" stroke="black" points="0,-28.5 0,-47.5 100,-47.5 100,-28.5 0,-28.5"/>
<text text-anchor="middle" x="50" y="-35.5" font-family="Helvetica,sans-Serif" font-size="10.00">CoolSI114X::Begin</text>
</g>
<!-- Node1 -->
<g id="node2" class="node"><title>Node1</title>
<g id="a_node2"><a xlink:href="../../dd/d67/class_cool_s_i114_x.html#a6840abd53a2e3d71a6bb918077c6d6e6" target="_top" xlink:title="CoolSI114X::DeInit">
<polygon fill="white" stroke="black" points="136,-28.5 136,-47.5 237,-47.5 237,-28.5 136,-28.5"/>
<text text-anchor="middle" x="186.5" y="-35.5" font-family="Helvetica,sans-Serif" font-size="10.00">CoolSI114X::DeInit</text>
</a>
</g>
</g>
<!-- Node0&#45;&gt;Node1 -->
<g id="edge1" class="edge"><title>Node0&#45;&gt;Node1</title>
<path fill="none" stroke="midnightblue" d="M100.319,-38C108.527,-38 117.12,-38 125.558,-38"/>
<polygon fill="midnightblue" stroke="midnightblue" points="125.737,-41.5001 135.737,-38 125.737,-34.5001 125.737,-41.5001"/>
</g>
<!-- Node4 -->
<g id="node5" class="node"><title>Node4</title>
<g id="a_node5"><a xlink:href="../../dd/d67/class_cool_s_i114_x.html#acc20f8037e156ec4aadcbe90780b1e8b" target="_top" xlink:title="CoolSI114X::ReadByte">
<polygon fill="white" stroke="black" points="457,-0.5 457,-19.5 576,-19.5 576,-0.5 457,-0.5"/>
<text text-anchor="middle" x="516.5" y="-7.5" font-family="Helvetica,sans-Serif" font-size="10.00">CoolSI114X::ReadByte</text>
</a>
</g>
</g>
<!-- Node0&#45;&gt;Node4 -->
<g id="edge6" class="edge"><title>Node0&#45;&gt;Node4</title>
<path fill="none" stroke="midnightblue" d="M88.0083,-28.4236C102.835,-24.9298 120.135,-21.2804 136,-19 243.629,-3.53005 370.158,-4.26228 446.52,-6.73809"/>
<polygon fill="midnightblue" stroke="midnightblue" points="446.841,-10.2511 456.955,-7.09751 447.082,-3.25526 446.841,-10.2511"/>
</g>
<!-- Node5 -->
<g id="node6" class="node"><title>Node5</title>
<g id="a_node6"><a xlink:href="../../dd/d67/class_cool_s_i114_x.html#a9d9f9c9129c0c29ed497f8563f3dd823" target="_top" xlink:title="CoolSI114X::Reset">
<polygon fill="white" stroke="black" points="296.5,-95.5 296.5,-114.5 397.5,-114.5 397.5,-95.5 296.5,-95.5"/>
<text text-anchor="middle" x="347" y="-102.5" font-family="Helvetica,sans-Serif" font-size="10.00">CoolSI114X::Reset</text>
</a>
</g>
</g>
<!-- Node0&#45;&gt;Node5 -->
<g id="edge7" class="edge"><title>Node0&#45;&gt;Node5</title>
<path fill="none" stroke="midnightblue" d="M92.953,-47.5283C145.774,-59.525 236.519,-80.1349 293.778,-93.1394"/>
<polygon fill="midnightblue" stroke="midnightblue" points="293.187,-96.5943 303.714,-95.3961 294.738,-89.7681 293.187,-96.5943"/>
</g>
<!-- Node2 -->
<g id="node3" class="node"><title>Node2</title>
<g id="a_node3"><a xlink:href="../../dd/d67/class_cool_s_i114_x.html#ac5c8dc5ade604da7a1c8cd1586feefc2" target="_top" xlink:title="CoolSI114X::WriteByte">
<polygon fill="white" stroke="black" points="457,-57.5 457,-76.5 576,-76.5 576,-57.5 457,-57.5"/>
<text text-anchor="middle" x="516.5" y="-64.5" font-family="Helvetica,sans-Serif" font-size="10.00">CoolSI114X::WriteByte</text>
</a>
</g>
</g>
<!-- Node1&#45;&gt;Node2 -->
<g id="edge2" class="edge"><title>Node1&#45;&gt;Node2</title>
<path fill="none" stroke="midnightblue" d="M237.198,-44.138C248.929,-45.4967 261.398,-46.8674 273,-48 331.466,-53.7074 397.995,-58.8222 446.561,-62.3032"/>
<polygon fill="midnightblue" stroke="midnightblue" points="446.419,-65.8019 456.642,-63.0209 446.916,-58.8196 446.419,-65.8019"/>
</g>
<!-- Node3 -->
<g id="node4" class="node"><title>Node3</title>
<g id="a_node4"><a xlink:href="../../dd/d67/class_cool_s_i114_x.html#abf45eb10a6de1be16e68a51624fa2608" target="_top" xlink:title="CoolSI114X::WriteParamData">
<polygon fill="white" stroke="black" points="273,-19.5 273,-38.5 421,-38.5 421,-19.5 273,-19.5"/>
<text text-anchor="middle" x="347" y="-26.5" font-family="Helvetica,sans-Serif" font-size="10.00">CoolSI114X::WriteParamData</text>
</a>
</g>
</g>
<!-- Node1&#45;&gt;Node3 -->
<g id="edge3" class="edge"><title>Node1&#45;&gt;Node3</title>
<path fill="none" stroke="midnightblue" d="M237.216,-35.177C245.372,-34.7139 254.016,-34.2231 262.725,-33.7286"/>
<polygon fill="midnightblue" stroke="midnightblue" points="263.167,-37.2092 272.952,-33.1478 262.77,-30.2204 263.167,-37.2092"/>
</g>
<!-- Node3&#45;&gt;Node2 -->
<g id="edge4" class="edge"><title>Node3&#45;&gt;Node2</title>
<path fill="none" stroke="midnightblue" d="M390.267,-38.589C412.57,-43.6487 440.123,-49.8996 463.702,-55.2488"/>
<polygon fill="midnightblue" stroke="midnightblue" points="463.01,-58.6807 473.537,-57.4799 464.559,-51.8542 463.01,-58.6807"/>
</g>
<!-- Node3&#45;&gt;Node4 -->
<g id="edge5" class="edge"><title>Node3&#45;&gt;Node4</title>
<path fill="none" stroke="midnightblue" d="M421.468,-20.6663C429.904,-19.7094 438.482,-18.7364 446.852,-17.787"/>
<polygon fill="midnightblue" stroke="midnightblue" points="447.392,-21.2482 456.934,-16.6433 446.603,-14.2928 447.392,-21.2482"/>
</g>
<!-- Node5&#45;&gt;Node2 -->
<g id="edge8" class="edge"><title>Node5&#45;&gt;Node2</title>
<path fill="none" stroke="midnightblue" d="M390.267,-95.411C412.57,-90.3513 440.123,-84.1004 463.702,-78.7512"/>
<polygon fill="midnightblue" stroke="midnightblue" points="464.559,-82.1458 473.537,-76.5201 463.01,-75.3193 464.559,-82.1458"/>
</g>
</g>
</svg>
