<?xml version="1.0" encoding="UTF-8" standalone="no"?>
<!DOCTYPE svg PUBLIC "-//W3C//DTD SVG 1.1//EN"
 "http://www.w3.org/Graphics/SVG/1.1/DTD/svg11.dtd">
<!-- Generated by graphviz version 2.38.0 (20140413.2041)
 -->
<!-- Title: CoolSI114X::DeInit Pages: 1 -->
<svg width="448pt" height="66pt"
 viewBox="0.00 0.00 448.00 66.00" xmlns="http://www.w3.org/2000/svg" xmlns:xlink="http://www.w3.org/1999/xlink">
<g id="graph0" class="graph" transform="scale(1 1) rotate(0) translate(4 62)">
<title>CoolSI114X::DeInit</title>
<polygon fill="white" stroke="none" points="-4,4 -4,-62 444,-62 444,4 -4,4"/>
<!-- Node15 -->
<g id="node1" class="node"><title>Node15</title>
<polygon fill="#bfbfbf" stroke="black" points="0,-19.5 0,-38.5 101,-38.5 101,-19.5 0,-19.5"/>
<text text-anchor="middle" x="50.5" y="-26.5" font-family="Helvetica,sans-Serif" font-size="10.00">CoolSI114X::DeInit</text>
</g>
<!-- Node16 -->
<g id="node2" class="node"><title>Node16</title>
<g id="a_node2"><a xlink:href="../../dd/d67/class_cool_s_i114_x.html#ac5c8dc5ade604da7a1c8cd1586feefc2" target="_top" xlink:title="CoolSI114X::WriteByte">
<polygon fill="white" stroke="black" points="321,-38.5 321,-57.5 440,-57.5 440,-38.5 321,-38.5"/>
<text text-anchor="middle" x="380.5" y="-45.5" font-family="Helvetica,sans-Serif" font-size="10.00">CoolSI114X::WriteByte</text>
</a>
</g>
</g>
<!-- Node15&#45;&gt;Node16 -->
<g id="edge1" class="edge"><title>Node15&#45;&gt;Node16</title>
<path fill="none" stroke="midnightblue" d="M101.316,-31.8857C157.168,-35.121 248.095,-40.3881 310.705,-44.0149"/>
<polygon fill="midnightblue" stroke="midnightblue" points="310.701,-47.5205 320.887,-44.6047 311.106,-40.5322 310.701,-47.5205"/>
</g>
<!-- Node17 -->
<g id="node3" class="node"><title>Node17</title>
<g id="a_node3"><a xlink:href="../../dd/d67/class_cool_s_i114_x.html#abf45eb10a6de1be16e68a51624fa2608" target="_top" xlink:title="CoolSI114X::WriteParamData">
<polygon fill="white" stroke="black" points="137,-0.5 137,-19.5 285,-19.5 285,-0.5 137,-0.5"/>
<text text-anchor="middle" x="211" y="-7.5" font-family="Helvetica,sans-Serif" font-size="10.00">CoolSI114X::WriteParamData</text>
</a>
</g>
</g>
<!-- Node15&#45;&gt;Node17 -->
<g id="edge2" class="edge"><title>Node15&#45;&gt;Node17</title>
<path fill="none" stroke="midnightblue" d="M101.216,-23.0404C109.461,-22.052 118.204,-21.004 127.009,-19.9485"/>
<polygon fill="midnightblue" stroke="midnightblue" points="127.44,-23.4219 136.952,-18.7565 126.607,-16.4717 127.44,-23.4219"/>
</g>
<!-- Node17&#45;&gt;Node16 -->
<g id="edge3" class="edge"><title>Node17&#45;&gt;Node16</title>
<path fill="none" stroke="midnightblue" d="M254.267,-19.589C276.57,-24.6487 304.123,-30.8996 327.702,-36.2488"/>
<polygon fill="midnightblue" stroke="midnightblue" points="327.01,-39.6807 337.537,-38.4799 328.559,-32.8542 327.01,-39.6807"/>
</g>
<!-- Node18 -->
<g id="node4" class="node"><title>Node18</title>
<g id="a_node4"><a xlink:href="../../dd/d67/class_cool_s_i114_x.html#acc20f8037e156ec4aadcbe90780b1e8b" target="_top" xlink:title="CoolSI114X::ReadByte">
<polygon fill="white" stroke="black" points="321,-0.5 321,-19.5 440,-19.5 440,-0.5 321,-0.5"/>
<text text-anchor="middle" x="380.5" y="-7.5" font-family="Helvetica,sans-Serif" font-size="10.00">CoolSI114X::ReadByte</text>
</a>
</g>
</g>
<!-- Node17&#45;&gt;Node18 -->
<g id="edge4" class="edge"><title>Node17&#45;&gt;Node18</title>
<path fill="none" stroke="midnightblue" d="M285.468,-10C293.904,-10 302.482,-10 310.852,-10"/>
<polygon fill="midnightblue" stroke="midnightblue" points="310.934,-13.5001 320.934,-10 310.934,-6.5001 310.934,-13.5001"/>
</g>
</g>
</svg>
