<?xml version="1.0" encoding="UTF-8" standalone="no"?>
<!DOCTYPE svg PUBLIC "-//W3C//DTD SVG 1.1//EN"
 "http://www.w3.org/Graphics/SVG/1.1/DTD/svg11.dtd">
<!-- Generated by graphviz version 2.38.0 (20140413.2041)
 -->
<!-- Title: Adafruit_ADS1015::readADC_SingleEnded Pages: 1 -->
<!--zoomable 218 -->
<svg id="main" version="1.1" xmlns="http://www.w3.org/2000/svg" xmlns:xlink="http://www.w3.org/1999/xlink" xml:space="preserve" onload="init(evt)">
<style type="text/css"><![CDATA[
.edge:hover path { stroke: red; }
.edge:hover polygon { stroke: red; fill: red; }
]]></style>
<script type="text/javascript"><![CDATA[
var edges = document.getElementsByTagName('g');
if (edges && edges.length) {
  for (var i=0;i<edges.length;i++) {
    if (edges[i].id.substr(0,4)=='edge') {
      edges[i].setAttribute('class','edge');
    }
  }
}
]]></script>
        <defs>
                <circle id="rim" cx="0" cy="0" r="7"/>
                <circle id="rim2" cx="0" cy="0" r="3.5"/>
                <g id="zoomPlus">
                        <use xlink:href="#rim" fill="#404040">
                                <set attributeName="fill" to="#808080" begin="zoomplus.mouseover" end="zoomplus.mouseout"/>
                        </use>
                        <path d="M-4,0h8M0,-4v8" fill="none" stroke="white" stroke-width="1.5" pointer-events="none"/>
                </g>
                <g id="zoomMin">
                        <use xlink:href="#rim" fill="#404040">
                                <set attributeName="fill" to="#808080" begin="zoomminus.mouseover" end="zoomminus.mouseout"/>
                        </use>
                        <path d="M-4,0h8" fill="none" stroke="white" stroke-width="1.5" pointer-events="none"/>
                </g>
                <g id="dirArrow">
                        <path fill="none" stroke="white" stroke-width="1.5" d="M0,-3.0v7 M-2.5,-0.5L0,-3.0L2.5,-0.5"/>
                </g>
               <g id="resetDef">
                       <use xlink:href="#rim2" fill="#404040">
                               <set attributeName="fill" to="#808080" begin="reset.mouseover" end="reset.mouseout"/>
                       </use>
               </g>
        </defs>

<script type="text/javascript">
var viewWidth = 785;
var viewHeight = 218;
var sectionId = 'dynsection-4';
</script>
<script xlink:href="../../svgpan.js"/>
<svg id="graph" class="graph">
<g id="viewport">
<title>Adafruit_ADS1015::readADC_SingleEnded</title>
<polygon fill="white" stroke="none" points="-4,4 -4,-214 781,-214 781,4 -4,4"/>
<!-- Node11 -->
<g id="node1" class="node"><title>Node11</title>
<polygon fill="#bfbfbf" stroke="black" points="0,-90 0,-120 144,-120 144,-90 0,-90"/>
<text text-anchor="start" x="8" y="-108" font-family="Helvetica,sans-Serif" font-size="10.00">Adafruit_ADS1015::readADC</text>
<text text-anchor="middle" x="72" y="-97" font-family="Helvetica,sans-Serif" font-size="10.00">_SingleEnded</text>
</g>
<!-- Node12 -->
<g id="node2" class="node"><title>Node12</title>
<g id="a_node2"><a xlink:href="../../d6/d03/class_irene3000.html#aa140dd026922a04981edfd04d46cabbe" target="_top" xlink:title="Irene3000::calibratepH4">
<polygon fill="white" stroke="black" points="193,-190.5 193,-209.5 313,-209.5 313,-190.5 193,-190.5"/>
<text text-anchor="middle" x="253" y="-197.5" font-family="Helvetica,sans-Serif" font-size="10.00">Irene3000::calibratepH4</text>
</a>
</g>
</g>
<!-- Node11&#45;&gt;Node12 -->
<g id="edge1" class="edge"><title>Node11&#45;&gt;Node12</title>
<path fill="none" stroke="midnightblue" d="M97.6245,-126.425C118.337,-143.438 149.394,-166.673 180,-181 188.079,-184.782 197.033,-187.905 205.805,-190.45"/>
<polygon fill="midnightblue" stroke="midnightblue" points="99.8672,-123.738 89.9482,-120.014 95.3801,-129.111 99.8672,-123.738"/>
</g>
<!-- Node17 -->
<g id="node7" class="node"><title>Node17</title>
<g id="a_node7"><a xlink:href="../../d6/d03/class_irene3000.html#a1d3299202e4cb7afcff9c9e3e95d94c1" target="_top" xlink:title="Irene3000::calibratepH7">
<polygon fill="white" stroke="black" points="193,-152.5 193,-171.5 313,-171.5 313,-152.5 193,-152.5"/>
<text text-anchor="middle" x="253" y="-159.5" font-family="Helvetica,sans-Serif" font-size="10.00">Irene3000::calibratepH7</text>
</a>
</g>
</g>
<!-- Node11&#45;&gt;Node17 -->
<g id="edge6" class="edge"><title>Node11&#45;&gt;Node17</title>
<path fill="none" stroke="midnightblue" d="M122.574,-123.574C140.552,-130.053 161.089,-137.158 180,-143 190.746,-146.32 202.504,-149.578 213.344,-152.432"/>
<polygon fill="midnightblue" stroke="midnightblue" points="123.47,-120.176 112.876,-120.052 121.08,-126.755 123.47,-120.176"/>
</g>
<!-- Node18 -->
<g id="node8" class="node"><title>Node18</title>
<g id="a_node8"><a xlink:href="../../d6/d03/class_irene3000.html#ae73bd2ed14a199a7e83f4d6458476a7c" target="_top" xlink:title="Irene3000::readADSChannel2">
<polygon fill="white" stroke="black" points="180,-76.5 180,-95.5 326,-95.5 326,-76.5 180,-76.5"/>
<text text-anchor="middle" x="253" y="-83.5" font-family="Helvetica,sans-Serif" font-size="10.00">Irene3000::readADSChannel2</text>
</a>
</g>
</g>
<!-- Node11&#45;&gt;Node18 -->
<g id="edge9" class="edge"><title>Node11&#45;&gt;Node18</title>
<path fill="none" stroke="midnightblue" d="M154.055,-96.3964C162.676,-95.4813 171.403,-94.555 179.911,-93.6519"/>
<polygon fill="midnightblue" stroke="midnightblue" points="153.577,-92.9273 144.003,-97.4634 154.316,-99.8882 153.577,-92.9273"/>
</g>
<!-- Node22 -->
<g id="node12" class="node"><title>Node22</title>
<g id="a_node12"><a xlink:href="../../d6/d03/class_irene3000.html#a78a87eb7cf295b95c12b2ebd51c2bb77" target="_top" xlink:title="Irene3000::readButton">
<polygon fill="white" stroke="black" points="196.5,-114.5 196.5,-133.5 309.5,-133.5 309.5,-114.5 196.5,-114.5"/>
<text text-anchor="middle" x="253" y="-121.5" font-family="Helvetica,sans-Serif" font-size="10.00">Irene3000::readButton</text>
</a>
</g>
</g>
<!-- Node11&#45;&gt;Node22 -->
<g id="edge14" class="edge"><title>Node11&#45;&gt;Node22</title>
<path fill="none" stroke="midnightblue" d="M154.274,-113.627C168.475,-115.134 182.955,-116.671 196.267,-118.084"/>
<polygon fill="midnightblue" stroke="midnightblue" points="154.316,-110.112 144.003,-112.537 153.577,-117.073 154.316,-110.112"/>
</g>
<!-- Node23 -->
<g id="node13" class="node"><title>Node23</title>
<g id="a_node13"><a xlink:href="../../d6/d03/class_irene3000.html#a436fc0a06681cd0784aba56b9707f19a" target="_top" xlink:title="Irene3000::readPh">
<polygon fill="white" stroke="black" points="205,-38.5 205,-57.5 301,-57.5 301,-38.5 205,-38.5"/>
<text text-anchor="middle" x="253" y="-45.5" font-family="Helvetica,sans-Serif" font-size="10.00">Irene3000::readPh</text>
</a>
</g>
</g>
<!-- Node11&#45;&gt;Node23 -->
<g id="edge16" class="edge"><title>Node11&#45;&gt;Node23</title>
<path fill="none" stroke="midnightblue" d="M122.574,-86.4257C140.552,-79.9472 161.089,-72.8422 180,-67 190.746,-63.6802 202.504,-60.4225 213.344,-57.568"/>
<polygon fill="midnightblue" stroke="midnightblue" points="121.08,-83.2445 112.876,-89.9484 123.47,-89.8239 121.08,-83.2445"/>
</g>
<!-- Node24 -->
<g id="node14" class="node"><title>Node24</title>
<g id="a_node14"><a xlink:href="../../d6/d03/class_irene3000.html#a80bc6dfea106dc3bc54fa20204d4d5dc" target="_top" xlink:title="Irene3000::readTemp">
<polygon fill="white" stroke="black" points="198.5,-0.5 198.5,-19.5 307.5,-19.5 307.5,-0.5 198.5,-0.5"/>
<text text-anchor="middle" x="253" y="-7.5" font-family="Helvetica,sans-Serif" font-size="10.00">Irene3000::readTemp</text>
</a>
</g>
</g>
<!-- Node11&#45;&gt;Node24 -->
<g id="edge18" class="edge"><title>Node11&#45;&gt;Node24</title>
<path fill="none" stroke="midnightblue" d="M97.6245,-83.5748C118.337,-66.562 149.394,-43.3267 180,-29 188.079,-25.2183 197.033,-22.0948 205.805,-19.5496"/>
<polygon fill="midnightblue" stroke="midnightblue" points="95.3801,-80.8891 89.9482,-89.9855 99.8672,-86.2619 95.3801,-80.8891"/>
</g>
<!-- Node13 -->
<g id="node3" class="node"><title>Node13</title>
<g id="a_node3"><a xlink:href="../../d7/df9/class_cool_board.html#a8612756d3f73198cdde857a66f0fe690" target="_top" xlink:title="CoolBoard::update">
<polygon fill="white" stroke="black" points="362,-171.5 362,-190.5 460,-190.5 460,-171.5 362,-171.5"/>
<text text-anchor="middle" x="411" y="-178.5" font-family="Helvetica,sans-Serif" font-size="10.00">CoolBoard::update</text>
</a>
</g>
</g>
<!-- Node12&#45;&gt;Node13 -->
<g id="edge2" class="edge"><title>Node12&#45;&gt;Node13</title>
<path fill="none" stroke="midnightblue" d="M323.677,-191.514C336.581,-189.942 349.793,-188.333 361.877,-186.861"/>
<polygon fill="midnightblue" stroke="midnightblue" points="322.925,-188.079 313.422,-192.763 323.772,-195.028 322.925,-188.079"/>
</g>
<!-- Node15 -->
<g id="node5" class="node"><title>Node15</title>
<g id="a_node5"><a xlink:href="../../d6/d03/class_irene3000.html#ad5891806c500ae1007afe52b9e304c2b" target="_top" xlink:title="Irene3000::begin">
<polygon fill="white" stroke="black" points="366.5,-133.5 366.5,-152.5 455.5,-152.5 455.5,-133.5 366.5,-133.5"/>
<text text-anchor="middle" x="411" y="-140.5" font-family="Helvetica,sans-Serif" font-size="10.00">Irene3000::begin</text>
</a>
</g>
</g>
<!-- Node12&#45;&gt;Node15 -->
<g id="edge4" class="edge"><title>Node12&#45;&gt;Node15</title>
<path fill="none" stroke="midnightblue" d="M306.466,-187.655C313.116,-185.654 319.769,-183.43 326,-181 342.855,-174.427 345.565,-169.563 362,-162 369.165,-158.703 377.076,-155.428 384.373,-152.549"/>
<polygon fill="midnightblue" stroke="midnightblue" points="305.426,-184.312 296.774,-190.427 307.351,-191.042 305.426,-184.312"/>
</g>
<!-- Node14 -->
<g id="node4" class="node"><title>Node14</title>
<g id="a_node4"><a xlink:href="../../d7/df9/class_cool_board.html#aa0bbc4bc605e35618d18e68795c61363" target="_top" xlink:title="CoolBoard::onLineMode">
<polygon fill="white" stroke="black" points="655.5,-142.5 655.5,-161.5 776.5,-161.5 776.5,-142.5 655.5,-142.5"/>
<text text-anchor="middle" x="716" y="-149.5" font-family="Helvetica,sans-Serif" font-size="10.00">CoolBoard::onLineMode</text>
</a>
</g>
</g>
<!-- Node13&#45;&gt;Node14 -->
<g id="edge3" class="edge"><title>Node13&#45;&gt;Node14</title>
<path fill="none" stroke="midnightblue" d="M470.314,-175.84C511.797,-172.122 568.837,-166.915 619,-162 630.757,-160.848 643.32,-159.572 655.352,-158.328"/>
<polygon fill="midnightblue" stroke="midnightblue" points="469.765,-172.375 460.117,-176.752 470.389,-179.347 469.765,-172.375"/>
</g>
<!-- Node16 -->
<g id="node6" class="node"><title>Node16</title>
<g id="a_node6"><a xlink:href="../../d7/df9/class_cool_board.html#acba7c5aef7268b2c0044bdb54d3b9d76" target="_top" xlink:title="CoolBoard::begin">
<polygon fill="white" stroke="black" points="511.5,-133.5 511.5,-152.5 603.5,-152.5 603.5,-133.5 511.5,-133.5"/>
<text text-anchor="middle" x="557.5" y="-140.5" font-family="Helvetica,sans-Serif" font-size="10.00">CoolBoard::begin</text>
</a>
</g>
</g>
<!-- Node15&#45;&gt;Node16 -->
<g id="edge5" class="edge"><title>Node15&#45;&gt;Node16</title>
<path fill="none" stroke="midnightblue" d="M465.902,-143C480.88,-143 496.985,-143 511.401,-143"/>
<polygon fill="midnightblue" stroke="midnightblue" points="465.747,-139.5 455.747,-143 465.747,-146.5 465.747,-139.5"/>
</g>
<!-- Node17&#45;&gt;Node13 -->
<g id="edge7" class="edge"><title>Node17&#45;&gt;Node13</title>
<path fill="none" stroke="midnightblue" d="M323.677,-170.486C336.581,-172.058 349.793,-173.667 361.877,-175.139"/>
<polygon fill="midnightblue" stroke="midnightblue" points="323.772,-166.972 313.422,-169.237 322.925,-173.921 323.772,-166.972"/>
</g>
<!-- Node17&#45;&gt;Node15 -->
<g id="edge8" class="edge"><title>Node17&#45;&gt;Node15</title>
<path fill="none" stroke="midnightblue" d="M323.418,-153.545C337.986,-151.771 352.959,-149.947 366.27,-148.326"/>
<polygon fill="midnightblue" stroke="midnightblue" points="322.925,-150.079 313.422,-154.763 323.772,-157.028 322.925,-150.079"/>
</g>
<!-- Node19 -->
<g id="node9" class="node"><title>Node19</title>
<g id="a_node9"><a xlink:href="../../d6/d03/class_irene3000.html#a852a170feea994ea1df01c6b245b5d9a" target="_top" xlink:title="Irene3000::read">
<polygon fill="white" stroke="black" points="369,-47.5 369,-66.5 453,-66.5 453,-47.5 369,-47.5"/>
<text text-anchor="middle" x="411" y="-54.5" font-family="Helvetica,sans-Serif" font-size="10.00">Irene3000::read</text>
</a>
</g>
</g>
<!-- Node18&#45;&gt;Node19 -->
<g id="edge10" class="edge"><title>Node18&#45;&gt;Node19</title>
<path fill="none" stroke="midnightblue" d="M315.593,-74.5501C333.491,-71.2229 352.596,-67.6712 368.904,-64.6396"/>
<polygon fill="midnightblue" stroke="midnightblue" points="314.704,-71.1552 305.513,-76.4239 315.984,-78.0372 314.704,-71.1552"/>
</g>
<!-- Node20 -->
<g id="node10" class="node"><title>Node20</title>
<g id="a_node10"><a xlink:href="../../d7/df9/class_cool_board.html#ad03abdce2e65f520bbf2cff0f2d083cf" target="_top" xlink:title="CoolBoard::readSensors">
<polygon fill="white" stroke="black" points="496,-66.5 496,-85.5 619,-85.5 619,-66.5 496,-66.5"/>
<text text-anchor="middle" x="557.5" y="-73.5" font-family="Helvetica,sans-Serif" font-size="10.00">CoolBoard::readSensors</text>
</a>
</g>
</g>
<!-- Node19&#45;&gt;Node20 -->
<g id="edge11" class="edge"><title>Node19&#45;&gt;Node20</title>
<path fill="none" stroke="midnightblue" d="M462.997,-63.7055C473.654,-65.1067 484.987,-66.5969 495.952,-68.0386"/>
<polygon fill="midnightblue" stroke="midnightblue" points="463.392,-60.2274 453.021,-62.3938 462.48,-67.1677 463.392,-60.2274"/>
</g>
<!-- Node20&#45;&gt;Node14 -->
<g id="edge12" class="edge"><title>Node20&#45;&gt;Node14</title>
<path fill="none" stroke="midnightblue" d="M587.45,-90.0588C618.858,-105.311 668.146,-129.246 695.34,-142.453"/>
<polygon fill="midnightblue" stroke="midnightblue" points="588.845,-86.8455 578.321,-85.6255 585.787,-93.1423 588.845,-86.8455"/>
</g>
<!-- Node21 -->
<g id="node11" class="node"><title>Node21</title>
<g id="a_node11"><a xlink:href="../../d7/df9/class_cool_board.html#ae6b5e1274d760462290192acea4adca8" target="_top" xlink:title="CoolBoard::offLineMode">
<polygon fill="white" stroke="black" points="655,-66.5 655,-85.5 777,-85.5 777,-66.5 655,-66.5"/>
<text text-anchor="middle" x="716" y="-73.5" font-family="Helvetica,sans-Serif" font-size="10.00">CoolBoard::offLineMode</text>
</a>
</g>
</g>
<!-- Node20&#45;&gt;Node21 -->
<g id="edge13" class="edge"><title>Node20&#45;&gt;Node21</title>
<path fill="none" stroke="midnightblue" d="M629.059,-76C637.692,-76 646.452,-76 654.912,-76"/>
<polygon fill="midnightblue" stroke="midnightblue" points="629.007,-72.5001 619.007,-76 629.007,-79.5001 629.007,-72.5001"/>
</g>
<!-- Node22&#45;&gt;Node15 -->
<g id="edge15" class="edge"><title>Node22&#45;&gt;Node15</title>
<path fill="none" stroke="midnightblue" d="M320.019,-132.041C335.635,-133.943 351.907,-135.925 366.25,-137.672"/>
<polygon fill="midnightblue" stroke="midnightblue" points="320.229,-128.541 309.879,-130.806 319.382,-135.489 320.229,-128.541"/>
</g>
<!-- Node23&#45;&gt;Node19 -->
<g id="edge17" class="edge"><title>Node23&#45;&gt;Node19</title>
<path fill="none" stroke="midnightblue" d="M311.295,-51.3055C330.339,-52.4041 351.157,-53.6052 368.745,-54.6199"/>
<polygon fill="midnightblue" stroke="midnightblue" points="311.414,-47.8066 301.228,-50.7247 311.01,-54.795 311.414,-47.8066"/>
</g>
<!-- Node24&#45;&gt;Node19 -->
<g id="edge19" class="edge"><title>Node24&#45;&gt;Node19</title>
<path fill="none" stroke="midnightblue" d="M301.651,-22.1162C309.799,-24.3189 318.161,-26.6619 326,-29 345.15,-34.7121 366.512,-41.8433 382.902,-47.4793"/>
<polygon fill="midnightblue" stroke="midnightblue" points="302.432,-18.7022 291.868,-19.5088 300.629,-25.4661 302.432,-18.7022"/>
</g>
</g>
</svg>
        <g id="navigator" transform="translate(0 0)" fill="#404254">
                <rect fill="#f2f5e9" fill-opacity="0.5" stroke="#606060" stroke-width=".5" x="0" y="0" width="60" height="60"/>
                <use id="zoomplus" xlink:href="#zoomPlus" x="17" y="9" onmousedown="handleZoom(evt,'in')"/>
                <use id="zoomminus" xlink:href="#zoomMin" x="42" y="9" onmousedown="handleZoom(evt,'out')"/>
                <use id="reset" xlink:href="#resetDef" x="30" y="36" onmousedown="handleReset()"/>
                <g id="arrowUp" xlink:href="#dirArrow" transform="translate(30 24)" onmousedown="handlePan(0,-1)">
                  <use xlink:href="#rim" fill="#404040">
                        <set attributeName="fill" to="#808080" begin="arrowUp.mouseover" end="arrowUp.mouseout"/>
                  </use>
                  <path fill="none" stroke="white" stroke-width="1.5" d="M0,-3.0v7 M-2.5,-0.5L0,-3.0L2.5,-0.5"/>
                </g>
                <g id="arrowRight" xlink:href="#dirArrow" transform="rotate(90) translate(36 -43)" onmousedown="handlePan(1,0)">
                  <use xlink:href="#rim" fill="#404040">
                        <set attributeName="fill" to="#808080" begin="arrowRight.mouseover" end="arrowRight.mouseout"/>
                  </use>
                  <path fill="none" stroke="white" stroke-width="1.5" d="M0,-3.0v7 M-2.5,-0.5L0,-3.0L2.5,-0.5"/>
                </g>
                <g id="arrowDown" xlink:href="#dirArrow" transform="rotate(180) translate(-30 -48)" onmousedown="handlePan(0,1)">
                  <use xlink:href="#rim" fill="#404040">
                        <set attributeName="fill" to="#808080" begin="arrowDown.mouseover" end="arrowDown.mouseout"/>
                  </use>
                  <path fill="none" stroke="white" stroke-width="1.5" d="M0,-3.0v7 M-2.5,-0.5L0,-3.0L2.5,-0.5"/>
                </g>
                <g id="arrowLeft" xlink:href="#dirArrow" transform="rotate(270) translate(-36 17)" onmousedown="handlePan(-1,0)">
                  <use xlink:href="#rim" fill="#404040">
                        <set attributeName="fill" to="#808080" begin="arrowLeft.mouseover" end="arrowLeft.mouseout"/>
                  </use>
                  <path fill="none" stroke="white" stroke-width="1.5" d="M0,-3.0v7 M-2.5,-0.5L0,-3.0L2.5,-0.5"/>
                </g>
        </g>
        <svg viewBox="0 0 15 15" width="100%" height="30px" preserveAspectRatio="xMaxYMin meet">
         <g id="arrow_out" transform="scale(0.3 0.3)">
          <a xlink:href="class_adafruit___a_d_s1015_a40f38b9e1f3ec397c0670dd632510235_icgraph_org.svg" target="_base">
           <rect id="button" ry="5" rx="5" y="6" x="6" height="38" width="38"
                fill="#f2f5e9" fill-opacity="0.5" stroke="#606060" stroke-width="1.0"/>
           <path id="arrow"
             d="M 11.500037,31.436501 C 11.940474,20.09759 22.043105,11.32322 32.158766,21.979434 L 37.068811,17.246167 C 37.068811,17.246167 37.088388,32 37.088388,32 L 22.160133,31.978069 C 22.160133,31.978069 26.997745,27.140456 26.997745,27.140456 C 18.528582,18.264221 13.291696,25.230495 11.500037,31.436501 z"
             style="fill:#404040;"/>
          </a>
         </g>
        </svg>
</svg>
