<?xml version="1.0" encoding="UTF-8" standalone="no"?>
<!DOCTYPE svg PUBLIC "-//W3C//DTD SVG 1.1//EN"
 "http://www.w3.org/Graphics/SVG/1.1/DTD/svg11.dtd">
<!-- Generated by graphviz version 2.38.0 (20140413.2041)
 -->
<!-- Title: CoolPubSubClient.h Pages: 1 -->
<svg width="267pt" height="196pt"
 viewBox="0.00 0.00 266.50 196.00" xmlns="http://www.w3.org/2000/svg" xmlns:xlink="http://www.w3.org/1999/xlink">
<g id="graph0" class="graph" transform="scale(1 1) rotate(0) translate(4 192)">
<title>CoolPubSubClient.h</title>
<polygon fill="white" stroke="none" points="-4,4 -4,-192 262.5,-192 262.5,4 -4,4"/>
<!-- Node5 -->
<g id="node1" class="node"><title>Node5</title>
<polygon fill="#bfbfbf" stroke="black" points="91,-168.5 91,-187.5 196,-187.5 196,-168.5 91,-168.5"/>
<text text-anchor="middle" x="143.5" y="-175.5" font-family="Helvetica,sans-Serif" font-size="10.00">CoolPubSubClient.h</text>
</g>
<!-- Node6 -->
<g id="node2" class="node"><title>Node6</title>
<g id="a_node2"><a xlink:href="$de/d2e/_cool_m_q_t_t_8h.html" xlink:title="CoolMQTT Header file. ">
<polygon fill="white" stroke="black" points="51,-112.5 51,-131.5 124,-131.5 124,-112.5 51,-112.5"/>
<text text-anchor="middle" x="87.5" y="-119.5" font-family="Helvetica,sans-Serif" font-size="10.00">CoolMQTT.h</text>
</a>
</g>
</g>
<!-- Node5&#45;&gt;Node6 -->
<g id="edge1" class="edge"><title>Node5&#45;&gt;Node6</title>
<path fill="none" stroke="midnightblue" d="M127.17,-161.253C117.235,-151.673 104.912,-139.791 96.6611,-131.834"/>
<polygon fill="midnightblue" stroke="midnightblue" points="124.875,-163.902 134.503,-168.324 129.734,-158.863 124.875,-163.902"/>
</g>
<!-- Node10 -->
<g id="node6" class="node"><title>Node10</title>
<g id="a_node6"><a xlink:href="$d0/dcc/_cool_pub_sub_client_8cpp.html" xlink:title="CoolPubSubClient.cpp">
<polygon fill="white" stroke="black" points="142.5,-112.5 142.5,-131.5 258.5,-131.5 258.5,-112.5 142.5,-112.5"/>
<text text-anchor="middle" x="200.5" y="-119.5" font-family="Helvetica,sans-Serif" font-size="10.00">CoolPubSubClient.cpp</text>
</a>
</g>
</g>
<!-- Node5&#45;&gt;Node10 -->
<g id="edge5" class="edge"><title>Node5&#45;&gt;Node10</title>
<path fill="none" stroke="midnightblue" d="M160.121,-161.253C170.234,-151.673 182.777,-139.791 191.175,-131.834"/>
<polygon fill="midnightblue" stroke="midnightblue" points="157.51,-158.906 152.658,-168.324 162.325,-163.987 157.51,-158.906"/>
</g>
<!-- Node7 -->
<g id="node3" class="node"><title>Node7</title>
<g id="a_node3"><a xlink:href="$d5/d51/_cool_board_8h.html" xlink:title="CoolBoard Header file. ">
<polygon fill="white" stroke="black" points="5,-56.5 5,-75.5 76,-75.5 76,-56.5 5,-56.5"/>
<text text-anchor="middle" x="40.5" y="-63.5" font-family="Helvetica,sans-Serif" font-size="10.00">CoolBoard.h</text>
</a>
</g>
</g>
<!-- Node6&#45;&gt;Node7 -->
<g id="edge2" class="edge"><title>Node6&#45;&gt;Node7</title>
<path fill="none" stroke="midnightblue" d="M73.0792,-104.431C64.8419,-94.9673 54.8461,-83.4827 48.1167,-75.7511"/>
<polygon fill="midnightblue" stroke="midnightblue" points="70.5336,-106.838 79.7389,-112.083 75.8137,-102.242 70.5336,-106.838"/>
</g>
<!-- Node9 -->
<g id="node5" class="node"><title>Node9</title>
<g id="a_node5"><a xlink:href="$dc/d73/_cool_m_q_t_t_8cpp.html" xlink:title="CoolMQTT Source file. ">
<polygon fill="white" stroke="black" points="94,-56.5 94,-75.5 177,-75.5 177,-56.5 94,-56.5"/>
<text text-anchor="middle" x="135.5" y="-63.5" font-family="Helvetica,sans-Serif" font-size="10.00">CoolMQTT.cpp</text>
</a>
</g>
</g>
<!-- Node6&#45;&gt;Node9 -->
<g id="edge4" class="edge"><title>Node6&#45;&gt;Node9</title>
<path fill="none" stroke="midnightblue" d="M102.228,-104.431C110.64,-94.9673 120.849,-83.4827 127.721,-75.7511"/>
<polygon fill="midnightblue" stroke="midnightblue" points="99.454,-102.284 95.4262,-112.083 104.686,-106.934 99.454,-102.284"/>
</g>
<!-- Node8 -->
<g id="node4" class="node"><title>Node8</title>
<g id="a_node4"><a xlink:href="$d9/d50/_cool_board_8cpp.html" xlink:title="CoolBoard Source file. ">
<polygon fill="white" stroke="black" points="0,-0.5 0,-19.5 81,-19.5 81,-0.5 0,-0.5"/>
<text text-anchor="middle" x="40.5" y="-7.5" font-family="Helvetica,sans-Serif" font-size="10.00">CoolBoard.cpp</text>
</a>
</g>
</g>
<!-- Node7&#45;&gt;Node8 -->
<g id="edge3" class="edge"><title>Node7&#45;&gt;Node8</title>
<path fill="none" stroke="midnightblue" d="M40.5,-45.8045C40.5,-36.9102 40.5,-26.7798 40.5,-19.7511"/>
<polygon fill="midnightblue" stroke="midnightblue" points="37.0001,-46.083 40.5,-56.083 44.0001,-46.083 37.0001,-46.083"/>
</g>
</g>
</svg>
