<?xml version="1.0" encoding="UTF-8" standalone="no"?>
<!DOCTYPE svg PUBLIC "-//W3C//DTD SVG 1.1//EN"
 "http://www.w3.org/Graphics/SVG/1.1/DTD/svg11.dtd">
<!-- Generated by graphviz version 2.38.0 (20140413.2041)
 -->
<!-- Title: CoolAdafruit_ADS1015.cpp Pages: 1 -->
<svg width="210pt" height="140pt"
 viewBox="0.00 0.00 209.94 140.00" xmlns="http://www.w3.org/2000/svg" xmlns:xlink="http://www.w3.org/1999/xlink">
<g id="graph0" class="graph" transform="scale(1 1) rotate(0) translate(4 136)">
<title>CoolAdafruit_ADS1015.cpp</title>
<polygon fill="white" stroke="none" points="-4,4 -4,-136 205.944,-136 205.944,4 -4,4"/>
<!-- Node0 -->
<g id="node1" class="node"><title>Node0</title>
<polygon fill="#bfbfbf" stroke="black" points="6.94371,-112.5 6.94371,-131.5 143.944,-131.5 143.944,-112.5 6.94371,-112.5"/>
<text text-anchor="middle" x="75.4437" y="-119.5" font-family="Helvetica,sans-Serif" font-size="10.00">CoolAdafruit_ADS1015.cpp</text>
</g>
<!-- Node1 -->
<g id="node2" class="node"><title>Node1</title>
<polygon fill="white" stroke="#bfbfbf" points="0.443713,-0.5 0.443713,-19.5 58.4437,-19.5 58.4437,-0.5 0.443713,-0.5"/>
<text text-anchor="middle" x="29.4437" y="-7.5" font-family="Helvetica,sans-Serif" font-size="10.00">Arduino.h</text>
</g>
<!-- Node0&#45;&gt;Node1 -->
<g id="edge1" class="edge"><title>Node0&#45;&gt;Node1</title>
<path fill="none" stroke="midnightblue" d="M49.9393,-112.472C33.4568,-105.478 13.3049,-93.792 3.44371,-76 -5.25602,-60.3035 4.72957,-41.0899 14.74,-27.6382"/>
<polygon fill="midnightblue" stroke="midnightblue" points="17.5691,-29.7056 21.1257,-19.7255 12.1217,-25.3094 17.5691,-29.7056"/>
</g>
<!-- Node2 -->
<g id="node3" class="node"><title>Node2</title>
<g id="a_node3"><a xlink:href="../../df/d06/_cool_adafruit___a_d_s1015_8h.html" target="_top" xlink:title="CoolAdafruit_ADS1015.h">
<polygon fill="white" stroke="black" points="12.4437,-56.5 12.4437,-75.5 138.444,-75.5 138.444,-56.5 12.4437,-56.5"/>
<text text-anchor="middle" x="75.4437" y="-63.5" font-family="Helvetica,sans-Serif" font-size="10.00">CoolAdafruit_ADS1015.h</text>
</a>
</g>
</g>
<!-- Node0&#45;&gt;Node2 -->
<g id="edge2" class="edge"><title>Node0&#45;&gt;Node2</title>
<path fill="none" stroke="midnightblue" d="M75.4437,-112.083C75.4437,-105.006 75.4437,-94.8611 75.4437,-85.9865"/>
<polygon fill="midnightblue" stroke="midnightblue" points="78.9438,-85.751 75.4437,-75.7511 71.9438,-85.7511 78.9438,-85.751"/>
</g>
<!-- Node3 -->
<g id="node4" class="node"><title>Node3</title>
<polygon fill="white" stroke="#bfbfbf" points="156.944,-56.5 156.944,-75.5 201.944,-75.5 201.944,-56.5 156.944,-56.5"/>
<text text-anchor="middle" x="179.444" y="-63.5" font-family="Helvetica,sans-Serif" font-size="10.00">Wire.h</text>
</g>
<!-- Node0&#45;&gt;Node3 -->
<g id="edge4" class="edge"><title>Node0&#45;&gt;Node3</title>
<path fill="none" stroke="midnightblue" d="M92.1531,-112.324C108.756,-103.703 134.446,-90.3643 153.664,-80.3855"/>
<polygon fill="midnightblue" stroke="midnightblue" points="155.514,-83.3689 162.776,-75.6545 152.288,-77.1565 155.514,-83.3689"/>
</g>
<!-- Node2&#45;&gt;Node1 -->
<g id="edge3" class="edge"><title>Node2&#45;&gt;Node1</title>
<path fill="none" stroke="midnightblue" d="M67.8477,-56.083C61.2162,-48.2982 51.4227,-36.8015 43.3856,-27.3665"/>
<polygon fill="midnightblue" stroke="midnightblue" points="46.0474,-25.0939 36.8983,-19.7511 40.7187,-29.6332 46.0474,-25.0939"/>
</g>
</g>
</svg>
