<?xml version="1.0" encoding="UTF-8" standalone="no"?>
<!DOCTYPE svg PUBLIC "-//W3C//DTD SVG 1.1//EN"
 "http://www.w3.org/Graphics/SVG/1.1/DTD/svg11.dtd">
<!-- Generated by graphviz version 2.38.0 (20140413.2041)
 -->
<!-- Title: CoolBoardActor::normalAction Pages: 1 -->
<svg width="481pt" height="66pt"
 viewBox="0.00 0.00 481.00 66.00" xmlns="http://www.w3.org/2000/svg" xmlns:xlink="http://www.w3.org/1999/xlink">
<g id="graph0" class="graph" transform="scale(1 1) rotate(0) translate(4 62)">
<title>CoolBoardActor::normalAction</title>
<polygon fill="white" stroke="none" points="-4,4 -4,-62 477,-62 477,4 -4,4"/>
<!-- Node40 -->
<g id="node1" class="node"><title>Node40</title>
<polygon fill="#bfbfbf" stroke="black" points="0,-19.5 0,-38.5 149,-38.5 149,-19.5 0,-19.5"/>
<text text-anchor="middle" x="74.5" y="-26.5" font-family="Helvetica,sans-Serif" font-size="10.00">CoolBoardActor::normalAction</text>
</g>
<!-- Node41 -->
<g id="node2" class="node"><title>Node41</title>
<g id="a_node2"><a xlink:href="$dc/d69/class_cool_board_actor.html#a3323ba7aaa4bef3ff084dcd830fe9b61" xlink:title="CoolBoardActor::doAction">
<polygon fill="white" stroke="black" points="185,-19.5 185,-38.5 315,-38.5 315,-19.5 185,-19.5"/>
<text text-anchor="middle" x="250" y="-26.5" font-family="Helvetica,sans-Serif" font-size="10.00">CoolBoardActor::doAction</text>
</a>
</g>
</g>
<!-- Node40&#45;&gt;Node41 -->
<g id="edge1" class="edge"><title>Node40&#45;&gt;Node41</title>
<path fill="none" stroke="midnightblue" d="M159.192,-29C167.84,-29 176.528,-29 184.913,-29"/>
<polygon fill="midnightblue" stroke="midnightblue" points="159.08,-25.5001 149.08,-29 159.08,-32.5001 159.08,-25.5001"/>
</g>
<!-- Node42 -->
<g id="node3" class="node"><title>Node42</title>
<g id="a_node3"><a xlink:href="$d7/df9/class_cool_board.html#ae6b5e1274d760462290192acea4adca8" xlink:title="CoolBoard::offLineMode">
<polygon fill="white" stroke="black" points="351,-38.5 351,-57.5 473,-57.5 473,-38.5 351,-38.5"/>
<text text-anchor="middle" x="412" y="-45.5" font-family="Helvetica,sans-Serif" font-size="10.00">CoolBoard::offLineMode</text>
</a>
</g>
</g>
<!-- Node41&#45;&gt;Node42 -->
<g id="edge2" class="edge"><title>Node41&#45;&gt;Node42</title>
<path fill="none" stroke="midnightblue" d="M325.222,-37.8139C333.853,-38.8388 342.574,-39.8745 350.981,-40.8727"/>
<polygon fill="midnightblue" stroke="midnightblue" points="325.499,-34.3223 315.156,-36.6185 324.674,-41.2734 325.499,-34.3223"/>
</g>
<!-- Node43 -->
<g id="node4" class="node"><title>Node43</title>
<g id="a_node4"><a xlink:href="$d7/df9/class_cool_board.html#aa0bbc4bc605e35618d18e68795c61363" xlink:title="CoolBoard::onLineMode">
<polygon fill="white" stroke="black" points="351.5,-0.5 351.5,-19.5 472.5,-19.5 472.5,-0.5 351.5,-0.5"/>
<text text-anchor="middle" x="412" y="-7.5" font-family="Helvetica,sans-Serif" font-size="10.00">CoolBoard::onLineMode</text>
</a>
</g>
</g>
<!-- Node41&#45;&gt;Node43 -->
<g id="edge3" class="edge"><title>Node41&#45;&gt;Node43</title>
<path fill="none" stroke="midnightblue" d="M325.371,-20.1684C334.13,-19.1283 342.98,-18.0774 351.497,-17.066"/>
<polygon fill="midnightblue" stroke="midnightblue" points="324.674,-16.7266 315.156,-21.3815 325.499,-23.6777 324.674,-16.7266"/>
</g>
</g>
</svg>
