<?xml version="1.0" encoding="UTF-8" standalone="no"?>
<!DOCTYPE svg PUBLIC "-//W3C//DTD SVG 1.1//EN"
 "http://www.w3.org/Graphics/SVG/1.1/DTD/svg11.dtd">
<!-- Generated by graphviz version 2.38.0 (20140413.2041)
 -->
<!-- Title: CoolBoardActor::invertedAction Pages: 1 -->
<svg width="458pt" height="66pt"
 viewBox="0.00 0.00 458.00 66.00" xmlns="http://www.w3.org/2000/svg" xmlns:xlink="http://www.w3.org/1999/xlink">
<g id="graph0" class="graph" transform="scale(1 1) rotate(0) translate(4 62)">
<title>CoolBoardActor::invertedAction</title>
<polygon fill="white" stroke="none" points="-4,4 -4,-62 454,-62 454,4 -4,4"/>
<!-- Node46 -->
<g id="node1" class="node"><title>Node46</title>
<polygon fill="#bfbfbf" stroke="black" points="0,-14 0,-44 126,-44 126,-14 0,-14"/>
<text text-anchor="start" x="8" y="-32" font-family="Helvetica,sans-Serif" font-size="10.00">CoolBoardActor::inverted</text>
<text text-anchor="middle" x="63" y="-21" font-family="Helvetica,sans-Serif" font-size="10.00">Action</text>
</g>
<!-- Node47 -->
<g id="node2" class="node"><title>Node47</title>
<g id="a_node2"><a xlink:href="$dc/d69/class_cool_board_actor.html#a3323ba7aaa4bef3ff084dcd830fe9b61" xlink:title="CoolBoardActor::doAction">
<polygon fill="white" stroke="black" points="162,-19.5 162,-38.5 292,-38.5 292,-19.5 162,-19.5"/>
<text text-anchor="middle" x="227" y="-26.5" font-family="Helvetica,sans-Serif" font-size="10.00">CoolBoardActor::doAction</text>
</a>
</g>
</g>
<!-- Node46&#45;&gt;Node47 -->
<g id="edge1" class="edge"><title>Node46&#45;&gt;Node47</title>
<path fill="none" stroke="midnightblue" d="M136.42,-29C144.896,-29 153.498,-29 161.85,-29"/>
<polygon fill="midnightblue" stroke="midnightblue" points="136.17,-25.5001 126.17,-29 136.17,-32.5001 136.17,-25.5001"/>
</g>
<!-- Node48 -->
<g id="node3" class="node"><title>Node48</title>
<g id="a_node3"><a xlink:href="$d7/df9/class_cool_board.html#ae6b5e1274d760462290192acea4adca8" xlink:title="CoolBoard::offLineMode">
<polygon fill="white" stroke="black" points="328,-38.5 328,-57.5 450,-57.5 450,-38.5 328,-38.5"/>
<text text-anchor="middle" x="389" y="-45.5" font-family="Helvetica,sans-Serif" font-size="10.00">CoolBoard::offLineMode</text>
</a>
</g>
</g>
<!-- Node47&#45;&gt;Node48 -->
<g id="edge2" class="edge"><title>Node47&#45;&gt;Node48</title>
<path fill="none" stroke="midnightblue" d="M302.222,-37.8139C310.853,-38.8388 319.574,-39.8745 327.981,-40.8727"/>
<polygon fill="midnightblue" stroke="midnightblue" points="302.499,-34.3223 292.156,-36.6185 301.674,-41.2734 302.499,-34.3223"/>
</g>
<!-- Node49 -->
<g id="node4" class="node"><title>Node49</title>
<g id="a_node4"><a xlink:href="$d7/df9/class_cool_board.html#aa0bbc4bc605e35618d18e68795c61363" xlink:title="CoolBoard::onLineMode">
<polygon fill="white" stroke="black" points="328.5,-0.5 328.5,-19.5 449.5,-19.5 449.5,-0.5 328.5,-0.5"/>
<text text-anchor="middle" x="389" y="-7.5" font-family="Helvetica,sans-Serif" font-size="10.00">CoolBoard::onLineMode</text>
</a>
</g>
</g>
<!-- Node47&#45;&gt;Node49 -->
<g id="edge3" class="edge"><title>Node47&#45;&gt;Node49</title>
<path fill="none" stroke="midnightblue" d="M302.371,-20.1684C311.13,-19.1283 319.98,-18.0774 328.497,-17.066"/>
<polygon fill="midnightblue" stroke="midnightblue" points="301.674,-16.7266 292.156,-21.3815 302.499,-23.6777 301.674,-16.7266"/>
</g>
</g>
</svg>
