<?xml version="1.0" encoding="UTF-8" standalone="no"?>
<!DOCTYPE svg PUBLIC "-//W3C//DTD SVG 1.1//EN"
 "http://www.w3.org/Graphics/SVG/1.1/DTD/svg11.dtd">
<!-- Generated by graphviz version 2.38.0 (20140413.2041)
 -->
<!-- Title: CoolBoardActor::doAction Pages: 1 -->
<svg width="481pt" height="548pt"
 viewBox="0.00 0.00 481.00 547.50" xmlns="http://www.w3.org/2000/svg" xmlns:xlink="http://www.w3.org/1999/xlink">
<g id="graph0" class="graph" transform="scale(1 1) rotate(0) translate(4 543.5)">
<title>CoolBoardActor::doAction</title>
<polygon fill="white" stroke="none" points="-4,4 -4,-543.5 477,-543.5 477,4 -4,4"/>
<!-- Node21 -->
<g id="node1" class="node"><title>Node21</title>
<polygon fill="#bfbfbf" stroke="black" points="0,-265 0,-284 130,-284 130,-265 0,-265"/>
<text text-anchor="middle" x="65" y="-272" font-family="Helvetica,sans-Serif" font-size="10.00">CoolBoardActor::doAction</text>
</g>
<!-- Node22 -->
<g id="node2" class="node"><title>Node22</title>
<g id="a_node2"><a xlink:href="$dc/d69/class_cool_board_actor.html#adf3b4e15b9d73681082112adf8ef95cb" xlink:title="CoolBoardActor::hourAction">
<polygon fill="white" stroke="black" points="176,-520 176,-539 314,-539 314,-520 176,-520"/>
<text text-anchor="middle" x="245" y="-527" font-family="Helvetica,sans-Serif" font-size="10.00">CoolBoardActor::hourAction</text>
</a>
</g>
</g>
<!-- Node21&#45;&gt;Node22 -->
<g id="edge1" class="edge"><title>Node21&#45;&gt;Node22</title>
<path fill="none" stroke="midnightblue" d="M67.0701,-284.403C71.5406,-320.711 92.085,-447.675 166,-510.5 167.998,-512.198 170.123,-513.749 172.347,-515.166"/>
<polygon fill="midnightblue" stroke="midnightblue" points="170.879,-518.35 181.347,-519.989 174.186,-512.18 170.879,-518.35"/>
</g>
<!-- Node24 -->
<g id="node4" class="node"><title>Node24</title>
<g id="a_node4"><a xlink:href="$dc/d69/class_cool_board_actor.html#a1eb1fbca19bc80aad20d2686d52317f8" xlink:title="CoolBoardActor::hourMinute\lAction">
<polygon fill="white" stroke="black" points="175,-470.5 175,-500.5 315,-500.5 315,-470.5 175,-470.5"/>
<text text-anchor="start" x="183" y="-488.5" font-family="Helvetica,sans-Serif" font-size="10.00">CoolBoardActor::hourMinute</text>
<text text-anchor="middle" x="245" y="-477.5" font-family="Helvetica,sans-Serif" font-size="10.00">Action</text>
</a>
</g>
</g>
<!-- Node21&#45;&gt;Node24 -->
<g id="edge3" class="edge"><title>Node21&#45;&gt;Node24</title>
<path fill="none" stroke="midnightblue" d="M68.3935,-284.335C76.4403,-315.294 105.477,-411.638 166,-461.5 167.558,-462.784 169.185,-463.999 170.867,-465.149"/>
<polygon fill="midnightblue" stroke="midnightblue" points="169.299,-468.288 179.686,-470.377 172.868,-462.267 169.299,-468.288"/>
</g>
<!-- Node25 -->
<g id="node5" class="node"><title>Node25</title>
<g id="a_node5"><a xlink:href="$dc/d69/class_cool_board_actor.html#aae82b2e62f91be009d40f93c206f9bda" xlink:title="CoolBoardActor::inverted\lAction">
<polygon fill="white" stroke="black" points="182,-421.5 182,-451.5 308,-451.5 308,-421.5 182,-421.5"/>
<text text-anchor="start" x="190" y="-439.5" font-family="Helvetica,sans-Serif" font-size="10.00">CoolBoardActor::inverted</text>
<text text-anchor="middle" x="245" y="-428.5" font-family="Helvetica,sans-Serif" font-size="10.00">Action</text>
</a>
</g>
</g>
<!-- Node21&#45;&gt;Node25 -->
<g id="edge5" class="edge"><title>Node21&#45;&gt;Node25</title>
<path fill="none" stroke="midnightblue" d="M70.3251,-284.074C82.0346,-308.921 116.814,-375.997 166,-411.5 168.652,-413.414 171.457,-415.186 174.366,-416.826"/>
<polygon fill="midnightblue" stroke="midnightblue" points="172.853,-419.983 183.357,-421.36 176.004,-413.732 172.853,-419.983"/>
</g>
<!-- Node26 -->
<g id="node6" class="node"><title>Node26</title>
<g id="a_node6"><a xlink:href="$dc/d69/class_cool_board_actor.html#af000944ce0b9abb9c6ee4b8fe839fb36" xlink:title="CoolBoardActor::minuteAction">
<polygon fill="white" stroke="black" points="170.5,-383 170.5,-402 319.5,-402 319.5,-383 170.5,-383"/>
<text text-anchor="middle" x="245" y="-390" font-family="Helvetica,sans-Serif" font-size="10.00">CoolBoardActor::minuteAction</text>
</a>
</g>
</g>
<!-- Node21&#45;&gt;Node26 -->
<g id="edge7" class="edge"><title>Node21&#45;&gt;Node26</title>
<path fill="none" stroke="midnightblue" d="M72.7922,-284.11C87.4179,-304.052 123.989,-350.02 166,-373.5 170.009,-375.741 174.279,-377.719 178.675,-379.466"/>
<polygon fill="midnightblue" stroke="midnightblue" points="177.855,-382.889 188.45,-382.933 180.195,-376.292 177.855,-382.889"/>
</g>
<!-- Node27 -->
<g id="node7" class="node"><title>Node27</title>
<g id="a_node7"><a xlink:href="$dc/d69/class_cool_board_actor.html#a6d93a24502c56ced2ef7675c913a276b" xlink:title="CoolBoardActor::mixedHour\lAction">
<polygon fill="white" stroke="black" points="175.5,-333.5 175.5,-363.5 314.5,-363.5 314.5,-333.5 175.5,-333.5"/>
<text text-anchor="start" x="183.5" y="-351.5" font-family="Helvetica,sans-Serif" font-size="10.00">CoolBoardActor::mixedHour</text>
<text text-anchor="middle" x="245" y="-340.5" font-family="Helvetica,sans-Serif" font-size="10.00">Action</text>
</a>
</g>
</g>
<!-- Node21&#45;&gt;Node27 -->
<g id="edge9" class="edge"><title>Node21&#45;&gt;Node27</title>
<path fill="none" stroke="midnightblue" d="M82.9451,-284.056C102.523,-294.84 135.91,-312.444 166,-324.5 170.809,-326.427 175.835,-328.292 180.918,-330.076"/>
<polygon fill="midnightblue" stroke="midnightblue" points="180.128,-333.503 190.722,-333.397 182.374,-326.873 180.128,-333.503"/>
</g>
<!-- Node28 -->
<g id="node8" class="node"><title>Node28</title>
<g id="a_node8"><a xlink:href="$dc/d69/class_cool_board_actor.html#ae6b2a17b0e73cfeb353ded2cc4e08109" xlink:title="CoolBoardActor::mixedHour\lMinuteAction">
<polygon fill="white" stroke="black" points="175.5,-284.5 175.5,-314.5 314.5,-314.5 314.5,-284.5 175.5,-284.5"/>
<text text-anchor="start" x="183.5" y="-302.5" font-family="Helvetica,sans-Serif" font-size="10.00">CoolBoardActor::mixedHour</text>
<text text-anchor="middle" x="245" y="-291.5" font-family="Helvetica,sans-Serif" font-size="10.00">MinuteAction</text>
</a>
</g>
</g>
<!-- Node21&#45;&gt;Node28 -->
<g id="edge11" class="edge"><title>Node21&#45;&gt;Node28</title>
<path fill="none" stroke="midnightblue" d="M130.011,-283.49C141.42,-285.093 153.425,-286.779 165.19,-288.431"/>
<polygon fill="midnightblue" stroke="midnightblue" points="165.055,-291.947 175.445,-289.872 166.029,-285.015 165.055,-291.947"/>
</g>
<!-- Node29 -->
<g id="node9" class="node"><title>Node29</title>
<g id="a_node9"><a xlink:href="$dc/d69/class_cool_board_actor.html#a2b8a79a27288d5246e3e3860ae76770d" xlink:title="CoolBoardActor::mixedMinute\lAction">
<polygon fill="white" stroke="black" points="171.5,-235.5 171.5,-265.5 318.5,-265.5 318.5,-235.5 171.5,-235.5"/>
<text text-anchor="start" x="179.5" y="-253.5" font-family="Helvetica,sans-Serif" font-size="10.00">CoolBoardActor::mixedMinute</text>
<text text-anchor="middle" x="245" y="-242.5" font-family="Helvetica,sans-Serif" font-size="10.00">Action</text>
</a>
</g>
</g>
<!-- Node21&#45;&gt;Node29 -->
<g id="edge13" class="edge"><title>Node21&#45;&gt;Node29</title>
<path fill="none" stroke="midnightblue" d="M130.011,-265.869C140.207,-264.495 150.88,-263.055 161.432,-261.633"/>
<polygon fill="midnightblue" stroke="midnightblue" points="162.049,-265.081 171.492,-260.276 161.114,-258.144 162.049,-265.081"/>
</g>
<!-- Node30 -->
<g id="node10" class="node"><title>Node30</title>
<g id="a_node10"><a xlink:href="$dc/d69/class_cool_board_actor.html#a00b29c4abf0388551aa6812372113cf1" xlink:title="CoolBoardActor::mixedTemporal\lActionOff">
<polygon fill="white" stroke="black" points="166,-186.5 166,-216.5 324,-216.5 324,-186.5 166,-186.5"/>
<text text-anchor="start" x="174" y="-204.5" font-family="Helvetica,sans-Serif" font-size="10.00">CoolBoardActor::mixedTemporal</text>
<text text-anchor="middle" x="245" y="-193.5" font-family="Helvetica,sans-Serif" font-size="10.00">ActionOff</text>
</a>
</g>
</g>
<!-- Node21&#45;&gt;Node30 -->
<g id="edge15" class="edge"><title>Node21&#45;&gt;Node30</title>
<path fill="none" stroke="midnightblue" d="M84.0935,-264.884C103.87,-254.595 136.657,-238.181 166,-226.5 171.722,-224.222 177.741,-221.999 183.792,-219.878"/>
<polygon fill="midnightblue" stroke="midnightblue" points="184.957,-223.179 193.29,-216.636 182.695,-216.554 184.957,-223.179"/>
</g>
<!-- Node31 -->
<g id="node11" class="node"><title>Node31</title>
<g id="a_node11"><a xlink:href="$dc/d69/class_cool_board_actor.html#a216aa7a0cfd1f31d0025cc91c2ecd5dd" xlink:title="CoolBoardActor::mixedTemporal\lActionOn">
<polygon fill="white" stroke="black" points="166,-137.5 166,-167.5 324,-167.5 324,-137.5 166,-137.5"/>
<text text-anchor="start" x="174" y="-155.5" font-family="Helvetica,sans-Serif" font-size="10.00">CoolBoardActor::mixedTemporal</text>
<text text-anchor="middle" x="245" y="-144.5" font-family="Helvetica,sans-Serif" font-size="10.00">ActionOn</text>
</a>
</g>
</g>
<!-- Node21&#45;&gt;Node31 -->
<g id="edge17" class="edge"><title>Node21&#45;&gt;Node31</title>
<path fill="none" stroke="midnightblue" d="M73.4377,-264.734C88.7019,-245.34 125.551,-201.756 166,-177.5 169.567,-175.361 173.338,-173.384 177.218,-171.561"/>
<polygon fill="midnightblue" stroke="midnightblue" points="178.638,-174.76 186.428,-167.58 175.861,-168.335 178.638,-174.76"/>
</g>
<!-- Node32 -->
<g id="node12" class="node"><title>Node32</title>
<g id="a_node12"><a xlink:href="$dc/d69/class_cool_board_actor.html#a81229abf5895f4d3b0355050b822b438" xlink:title="CoolBoardActor::normalAction">
<polygon fill="white" stroke="black" points="170.5,-99 170.5,-118 319.5,-118 319.5,-99 170.5,-99"/>
<text text-anchor="middle" x="245" y="-106" font-family="Helvetica,sans-Serif" font-size="10.00">CoolBoardActor::normalAction</text>
</a>
</g>
</g>
<!-- Node21&#45;&gt;Node32 -->
<g id="edge19" class="edge"><title>Node21&#45;&gt;Node32</title>
<path fill="none" stroke="midnightblue" d="M69.7067,-264.891C80.3512,-238.623 113.645,-165.141 166,-128.5 169.479,-126.065 173.23,-123.927 177.141,-122.048"/>
<polygon fill="midnightblue" stroke="midnightblue" points="178.633,-125.218 186.5,-118.121 175.925,-118.763 178.633,-125.218"/>
</g>
<!-- Node33 -->
<g id="node13" class="node"><title>Node33</title>
<g id="a_node13"><a xlink:href="$dc/d69/class_cool_board_actor.html#a02698bd647df49cabbe74513d4d88918" xlink:title="CoolBoardActor::temporal\lActionOff">
<polygon fill="white" stroke="black" points="180.5,-49.5 180.5,-79.5 309.5,-79.5 309.5,-49.5 180.5,-49.5"/>
<text text-anchor="start" x="188.5" y="-67.5" font-family="Helvetica,sans-Serif" font-size="10.00">CoolBoardActor::temporal</text>
<text text-anchor="middle" x="245" y="-56.5" font-family="Helvetica,sans-Serif" font-size="10.00">ActionOff</text>
</a>
</g>
</g>
<!-- Node21&#45;&gt;Node33 -->
<g id="edge21" class="edge"><title>Node21&#45;&gt;Node33</title>
<path fill="none" stroke="midnightblue" d="M68.4511,-264.798C76.669,-234.255 106.157,-139.163 166,-89.5 168.059,-87.7916 170.236,-86.1992 172.503,-84.7151"/>
<polygon fill="midnightblue" stroke="midnightblue" points="174.68,-87.5032 181.635,-79.511 171.214,-81.4215 174.68,-87.5032"/>
</g>
<!-- Node34 -->
<g id="node14" class="node"><title>Node34</title>
<g id="a_node14"><a xlink:href="$dc/d69/class_cool_board_actor.html#ada603785c203fdb0b41cc967d70bdc4d" xlink:title="CoolBoardActor::temporal\lActionOn">
<polygon fill="white" stroke="black" points="180.5,-0.5 180.5,-30.5 309.5,-30.5 309.5,-0.5 180.5,-0.5"/>
<text text-anchor="start" x="188.5" y="-18.5" font-family="Helvetica,sans-Serif" font-size="10.00">CoolBoardActor::temporal</text>
<text text-anchor="middle" x="245" y="-7.5" font-family="Helvetica,sans-Serif" font-size="10.00">ActionOn</text>
</a>
</g>
</g>
<!-- Node21&#45;&gt;Node34 -->
<g id="edge23" class="edge"><title>Node21&#45;&gt;Node34</title>
<path fill="none" stroke="midnightblue" d="M67.2485,-264.849C72.3418,-229.436 94.7837,-105.338 166,-40.5 167.751,-38.9054 169.605,-37.4126 171.54,-36.0148"/>
<polygon fill="midnightblue" stroke="midnightblue" points="173.825,-38.7169 180.484,-30.4762 170.139,-32.7658 173.825,-38.7169"/>
</g>
<!-- Node23 -->
<g id="node3" class="node"><title>Node23</title>
<g id="a_node3"><a xlink:href="$dc/d69/class_cool_board_actor.html#a958786ff01ea1056ee72c72d439f86da" xlink:title="CoolBoardActor::write">
<polygon fill="white" stroke="black" points="360,-265 360,-284 473,-284 473,-265 360,-265"/>
<text text-anchor="middle" x="416.5" y="-272" font-family="Helvetica,sans-Serif" font-size="10.00">CoolBoardActor::write</text>
</a>
</g>
</g>
<!-- Node22&#45;&gt;Node23 -->
<g id="edge2" class="edge"><title>Node22&#45;&gt;Node23</title>
<path fill="none" stroke="midnightblue" d="M309.164,-519.958C314.542,-517.464 319.599,-514.36 324,-510.5 390.399,-452.272 408.936,-340.024 413.838,-294.456"/>
<polygon fill="midnightblue" stroke="midnightblue" points="417.333,-294.671 414.811,-284.381 410.366,-293.998 417.333,-294.671"/>
</g>
<!-- Node24&#45;&gt;Node23 -->
<g id="edge4" class="edge"><title>Node24&#45;&gt;Node23</title>
<path fill="none" stroke="midnightblue" d="M310.833,-470.336C315.552,-467.828 320.015,-464.906 324,-461.5 377.269,-415.98 402.331,-332.164 411.36,-294.157"/>
<polygon fill="midnightblue" stroke="midnightblue" points="414.792,-294.847 413.576,-284.322 407.963,-293.308 414.792,-294.847"/>
</g>
<!-- Node25&#45;&gt;Node23 -->
<g id="edge6" class="edge"><title>Node25&#45;&gt;Node23</title>
<path fill="none" stroke="midnightblue" d="M307.204,-421.397C313.167,-418.623 318.891,-415.353 324,-411.5 365.899,-379.908 394.739,-323.232 407.717,-293.652"/>
<polygon fill="midnightblue" stroke="midnightblue" points="411.096,-294.65 411.776,-284.077 404.651,-291.919 411.096,-294.65"/>
</g>
<!-- Node26&#45;&gt;Node23 -->
<g id="edge8" class="edge"><title>Node26&#45;&gt;Node23</title>
<path fill="none" stroke="midnightblue" d="M302.527,-382.944C310.025,-380.481 317.393,-377.387 324,-373.5 358.926,-352.95 388.464,-314.911 403.926,-292.44"/>
<polygon fill="midnightblue" stroke="midnightblue" points="406.837,-294.383 409.492,-284.126 401.02,-290.488 406.837,-294.383"/>
</g>
<!-- Node27&#45;&gt;Node23 -->
<g id="edge10" class="edge"><title>Node27&#45;&gt;Node23</title>
<path fill="none" stroke="midnightblue" d="M300.216,-333.371C308.285,-330.674 316.429,-327.695 324,-324.5 347.718,-314.491 373.321,-300.173 391.396,-289.422"/>
<polygon fill="midnightblue" stroke="midnightblue" points="393.355,-292.327 400.111,-284.166 389.74,-286.333 393.355,-292.327"/>
</g>
<!-- Node28&#45;&gt;Node23 -->
<g id="edge12" class="edge"><title>Node28&#45;&gt;Node23</title>
<path fill="none" stroke="midnightblue" d="M314.942,-289.332C326.497,-287.627 338.458,-285.863 349.925,-284.172"/>
<polygon fill="midnightblue" stroke="midnightblue" points="350.47,-287.629 359.853,-282.708 349.449,-280.704 350.47,-287.629"/>
</g>
<!-- Node29&#45;&gt;Node23 -->
<g id="edge14" class="edge"><title>Node29&#45;&gt;Node23</title>
<path fill="none" stroke="midnightblue" d="M318.867,-260.817C329.163,-262.275 339.698,-263.767 349.847,-265.204"/>
<polygon fill="midnightblue" stroke="midnightblue" points="349.453,-268.683 359.845,-266.62 350.435,-261.752 349.453,-268.683"/>
</g>
<!-- Node30&#45;&gt;Node23 -->
<g id="edge16" class="edge"><title>Node30&#45;&gt;Node23</title>
<path fill="none" stroke="midnightblue" d="M297.231,-216.52C306.25,-219.56 315.474,-222.929 324,-226.5 347.248,-236.237 372.54,-249.746 390.629,-259.952"/>
<polygon fill="midnightblue" stroke="midnightblue" points="388.964,-263.031 399.383,-264.951 392.435,-256.953 388.964,-263.031"/>
</g>
<!-- Node31&#45;&gt;Node23 -->
<g id="edge18" class="edge"><title>Node31&#45;&gt;Node23</title>
<path fill="none" stroke="midnightblue" d="M304.551,-167.647C311.344,-170.445 317.985,-173.709 324,-177.5 357.588,-198.669 387.238,-235.008 403.152,-256.691"/>
<polygon fill="midnightblue" stroke="midnightblue" points="400.435,-258.908 409.103,-265 406.126,-254.832 400.435,-258.908"/>
</g>
<!-- Node32&#45;&gt;Node23 -->
<g id="edge20" class="edge"><title>Node32&#45;&gt;Node23</title>
<path fill="none" stroke="midnightblue" d="M304.069,-118.038C311.169,-120.711 318.017,-124.129 324,-128.5 368.941,-161.335 396.89,-223.565 408.807,-255.116"/>
<polygon fill="midnightblue" stroke="midnightblue" points="405.655,-256.69 412.355,-264.898 412.235,-254.304 405.655,-256.69"/>
</g>
<!-- Node33&#45;&gt;Node23 -->
<g id="edge22" class="edge"><title>Node33&#45;&gt;Node23</title>
<path fill="none" stroke="midnightblue" d="M308.902,-79.5329C314.333,-82.3121 319.474,-85.6032 324,-89.5 376.416,-134.628 401.809,-216.884 411.129,-254.619"/>
<polygon fill="midnightblue" stroke="midnightblue" points="407.828,-255.872 413.518,-264.81 414.644,-254.275 407.828,-255.872"/>
</g>
<!-- Node34&#45;&gt;Node23 -->
<g id="edge24" class="edge"><title>Node34&#45;&gt;Node23</title>
<path fill="none" stroke="midnightblue" d="M309.647,-30.3353C314.861,-33.154 319.75,-36.5084 324,-40.5 387.761,-100.391 407.776,-210.047 413.455,-254.746"/>
<polygon fill="midnightblue" stroke="midnightblue" points="410,-255.338 414.632,-264.866 416.953,-254.529 410,-255.338"/>
</g>
</g>
</svg>
