<?xml version="1.0" encoding="UTF-8" standalone="no"?>
<!DOCTYPE svg PUBLIC "-//W3C//DTD SVG 1.1//EN"
 "http://www.w3.org/Graphics/SVG/1.1/DTD/svg11.dtd">
<!-- Generated by graphviz version 2.38.0 (20140413.2041)
 -->
<!-- Title: ExternalSensors.h Pages: 1 -->
<svg width="548pt" height="207pt"
 viewBox="0.00 0.00 548.00 207.00" xmlns="http://www.w3.org/2000/svg" xmlns:xlink="http://www.w3.org/1999/xlink">
<g id="graph0" class="graph" transform="scale(1 1) rotate(0) translate(4 203)">
<title>ExternalSensors.h</title>
<polygon fill="white" stroke="none" points="-4,4 -4,-203 544,-203 544,4 -4,4"/>
<!-- Node0 -->
<g id="node1" class="node"><title>Node0</title>
<polygon fill="#bfbfbf" stroke="black" points="31.5,-179.5 31.5,-198.5 128.5,-198.5 128.5,-179.5 31.5,-179.5"/>
<text text-anchor="middle" x="80" y="-186.5" font-family="Helvetica,sans-Serif" font-size="10.00">ExternalSensors.h</text>
</g>
<!-- Node1 -->
<g id="node2" class="node"><title>Node1</title>
<polygon fill="white" stroke="#bfbfbf" points="0,-0.5 0,-19.5 58,-19.5 58,-0.5 0,-0.5"/>
<text text-anchor="middle" x="29" y="-7.5" font-family="Helvetica,sans-Serif" font-size="10.00">Arduino.h</text>
</g>
<!-- Node0&#45;&gt;Node1 -->
<g id="edge1" class="edge"><title>Node0&#45;&gt;Node1</title>
<path fill="none" stroke="midnightblue" d="M74.013,-179.33C62.772,-162.475 38.8447,-123.711 30,-87 25.419,-67.9857 25.8074,-45.5127 26.9465,-29.9599"/>
<polygon fill="midnightblue" stroke="midnightblue" points="30.4697,-29.8644 27.894,-19.5874 23.4987,-29.2276 30.4697,-29.8644"/>
</g>
<!-- Node2 -->
<g id="node3" class="node"><title>Node2</title>
<g id="a_node3"><a xlink:href="../../d6/d20/_external_sensor_8h.html" target="_top" xlink:title="ExternalSensor Header file. ">
<polygon fill="white" stroke="black" points="123,-123.5 123,-142.5 215,-142.5 215,-123.5 123,-123.5"/>
<text text-anchor="middle" x="169" y="-130.5" font-family="Helvetica,sans-Serif" font-size="10.00">ExternalSensor.h</text>
</a>
</g>
</g>
<!-- Node0&#45;&gt;Node2 -->
<g id="edge2" class="edge"><title>Node0&#45;&gt;Node2</title>
<path fill="none" stroke="midnightblue" d="M94.2994,-179.324C108.183,-170.9 129.492,-157.971 145.804,-148.074"/>
<polygon fill="midnightblue" stroke="midnightblue" points="148.002,-150.834 154.736,-142.655 144.371,-144.85 148.002,-150.834"/>
</g>
<!-- Node2&#45;&gt;Node1 -->
<g id="edge9" class="edge"><title>Node2&#45;&gt;Node1</title>
<path fill="none" stroke="midnightblue" d="M122.846,-125.535C97.3783,-119.63 67.1283,-108.38 48,-87 34.0007,-71.3525 29.9761,-46.94 28.9869,-30.0236"/>
<polygon fill="midnightblue" stroke="midnightblue" points="32.4769,-29.6091 28.7018,-19.7097 25.4796,-29.8026 32.4769,-29.6091"/>
</g>
<!-- Node3 -->
<g id="node4" class="node"><title>Node3</title>
<g id="a_node4"><a xlink:href="../../d0/d08/_cool_n_d_i_r___i2_c_8h.html" target="_top" xlink:title="internals/CoolNDIR\l_I2C.h">
<polygon fill="white" stroke="black" points="57,-56.5 57,-86.5 159,-86.5 159,-56.5 57,-56.5"/>
<text text-anchor="start" x="65" y="-74.5" font-family="Helvetica,sans-Serif" font-size="10.00">internals/CoolNDIR</text>
<text text-anchor="middle" x="108" y="-63.5" font-family="Helvetica,sans-Serif" font-size="10.00">_I2C.h</text>
</a>
</g>
</g>
<!-- Node2&#45;&gt;Node3 -->
<g id="edge3" class="edge"><title>Node2&#45;&gt;Node3</title>
<path fill="none" stroke="midnightblue" d="M160.26,-123.475C152.307,-115.718 140.236,-103.943 129.698,-93.6645"/>
<polygon fill="midnightblue" stroke="midnightblue" points="131.979,-91 122.376,-86.523 127.091,-96.011 131.979,-91"/>
</g>
<!-- Node4 -->
<g id="node5" class="node"><title>Node4</title>
<polygon fill="white" stroke="#bfbfbf" points="176.5,-62 176.5,-81 283.5,-81 283.5,-62 176.5,-62"/>
<text text-anchor="middle" x="230" y="-69" font-family="Helvetica,sans-Serif" font-size="10.00">DallasTemperature.h</text>
</g>
<!-- Node2&#45;&gt;Node4 -->
<g id="edge4" class="edge"><title>Node2&#45;&gt;Node4</title>
<path fill="none" stroke="midnightblue" d="M177.74,-123.475C187.162,-114.285 202.364,-99.4563 213.949,-88.156"/>
<polygon fill="midnightblue" stroke="midnightblue" points="216.562,-90.4971 221.276,-81.0091 211.674,-85.4861 216.562,-90.4971"/>
</g>
<!-- Node5 -->
<g id="node6" class="node"><title>Node5</title>
<g id="a_node6"><a xlink:href="../../d3/d18/_cool_adafruit___t_c_s34725_8h.html" target="_top" xlink:title="internals/CoolAdafruit\l_TCS34725.h">
<polygon fill="white" stroke="black" points="430,-56.5 430,-86.5 540,-86.5 540,-56.5 430,-56.5"/>
<text text-anchor="start" x="438" y="-74.5" font-family="Helvetica,sans-Serif" font-size="10.00">internals/CoolAdafruit</text>
<text text-anchor="middle" x="485" y="-63.5" font-family="Helvetica,sans-Serif" font-size="10.00">_TCS34725.h</text>
</a>
</g>
</g>
<!-- Node2&#45;&gt;Node5 -->
<g id="edge5" class="edge"><title>Node2&#45;&gt;Node5</title>
<path fill="none" stroke="midnightblue" d="M215.105,-124.423C263.65,-116.298 342.543,-102.681 419.955,-87.1601"/>
<polygon fill="midnightblue" stroke="midnightblue" points="420.766,-90.5669 429.877,-85.1584 419.382,-83.7051 420.766,-90.5669"/>
</g>
<!-- Node7 -->
<g id="node8" class="node"><title>Node7</title>
<g id="a_node8"><a xlink:href="../../df/d06/_cool_adafruit___a_d_s1015_8h.html" target="_top" xlink:title="internals/CoolAdafruit\l_ADS1015.h">
<polygon fill="white" stroke="black" points="302,-56.5 302,-86.5 412,-86.5 412,-56.5 302,-56.5"/>
<text text-anchor="start" x="310" y="-74.5" font-family="Helvetica,sans-Serif" font-size="10.00">internals/CoolAdafruit</text>
<text text-anchor="middle" x="357" y="-63.5" font-family="Helvetica,sans-Serif" font-size="10.00">_ADS1015.h</text>
</a>
</g>
</g>
<!-- Node2&#45;&gt;Node7 -->
<g id="edge7" class="edge"><title>Node2&#45;&gt;Node7</title>
<path fill="none" stroke="midnightblue" d="M195.936,-123.475C223.777,-114.664 267.997,-100.668 303.065,-89.5698"/>
<polygon fill="midnightblue" stroke="midnightblue" points="304.214,-92.8773 312.692,-86.523 302.102,-86.2036 304.214,-92.8773"/>
</g>
<!-- Node6 -->
<g id="node7" class="node"><title>Node6</title>
<polygon fill="white" stroke="#bfbfbf" points="449.5,-0.5 449.5,-19.5 520.5,-19.5 520.5,-0.5 449.5,-0.5"/>
<text text-anchor="middle" x="485" y="-7.5" font-family="Helvetica,sans-Serif" font-size="10.00">WProgram.h</text>
</g>
<!-- Node5&#45;&gt;Node6 -->
<g id="edge6" class="edge"><title>Node5&#45;&gt;Node6</title>
<path fill="none" stroke="midnightblue" d="M485,-56.3993C485,-48.4664 485,-38.458 485,-29.8583"/>
<polygon fill="midnightblue" stroke="midnightblue" points="488.5,-29.6577 485,-19.6578 481.5,-29.6578 488.5,-29.6577"/>
</g>
<!-- Node7&#45;&gt;Node1 -->
<g id="edge8" class="edge"><title>Node7&#45;&gt;Node1</title>
<path fill="none" stroke="midnightblue" d="M301.882,-57.8139C298.881,-57.1852 295.905,-56.5763 293,-56 213.427,-40.2161 119.687,-25.0439 68.0552,-16.9817"/>
<polygon fill="midnightblue" stroke="midnightblue" points="68.4208,-13.4965 58.0018,-15.4187 67.3454,-20.4135 68.4208,-13.4965"/>
</g>
</g>
</svg>
