<?xml version="1.0" encoding="UTF-8" standalone="no"?>
<!DOCTYPE svg PUBLIC "-//W3C//DTD SVG 1.1//EN"
 "http://www.w3.org/Graphics/SVG/1.1/DTD/svg11.dtd">
<!-- Generated by graphviz version 2.38.0 (20140413.2041)
 -->
<!-- Title: CoolFileSystem.cpp Pages: 1 -->
<svg width="296pt" height="140pt"
 viewBox="0.00 0.00 295.50 140.00" xmlns="http://www.w3.org/2000/svg" xmlns:xlink="http://www.w3.org/1999/xlink">
<g id="graph0" class="graph" transform="scale(1 1) rotate(0) translate(4 136)">
<title>CoolFileSystem.cpp</title>
<polygon fill="white" stroke="none" points="-4,4 -4,-136 291.5,-136 291.5,4 -4,4"/>
<!-- Node0 -->
<g id="node1" class="node"><title>Node0</title>
<polygon fill="#bfbfbf" stroke="black" points="89.5,-112.5 89.5,-131.5 194.5,-131.5 194.5,-112.5 89.5,-112.5"/>
<text text-anchor="middle" x="142" y="-119.5" font-family="Helvetica,sans-Serif" font-size="10.00">CoolFileSystem.cpp</text>
</g>
<!-- Node1 -->
<g id="node2" class="node"><title>Node1</title>
<polygon fill="white" stroke="#bfbfbf" points="0,-56.5 0,-75.5 38,-75.5 38,-56.5 0,-56.5"/>
<text text-anchor="middle" x="19" y="-63.5" font-family="Helvetica,sans-Serif" font-size="10.00">FS.h</text>
</g>
<!-- Node0&#45;&gt;Node1 -->
<g id="edge1" class="edge"><title>Node0&#45;&gt;Node1</title>
<path fill="none" stroke="midnightblue" d="M122.51,-112.444C102.358,-103.596 70.6771,-89.6875 47.6692,-79.5865"/>
<polygon fill="midnightblue" stroke="midnightblue" points="48.962,-76.3316 38.3985,-75.5164 46.148,-82.7411 48.962,-76.3316"/>
</g>
<!-- Node2 -->
<g id="node3" class="node"><title>Node2</title>
<g id="a_node3"><a xlink:href="$d9/d41/_cool_file_system_8h.html" xlink:title="CoolFileSystem Header file. ">
<polygon fill="white" stroke="black" points="56.5,-56.5 56.5,-75.5 151.5,-75.5 151.5,-56.5 56.5,-56.5"/>
<text text-anchor="middle" x="104" y="-63.5" font-family="Helvetica,sans-Serif" font-size="10.00">CoolFileSystem.h</text>
</a>
</g>
</g>
<!-- Node0&#45;&gt;Node2 -->
<g id="edge2" class="edge"><title>Node0&#45;&gt;Node2</title>
<path fill="none" stroke="midnightblue" d="M135.725,-112.083C130.358,-104.455 122.482,-93.2645 115.921,-83.9408"/>
<polygon fill="midnightblue" stroke="midnightblue" points="118.775,-81.9149 110.158,-75.7511 113.051,-85.9434 118.775,-81.9149"/>
</g>
<!-- Node3 -->
<g id="node4" class="node"><title>Node3</title>
<polygon fill="white" stroke="#bfbfbf" points="113,-0.5 113,-19.5 171,-19.5 171,-0.5 113,-0.5"/>
<text text-anchor="middle" x="142" y="-7.5" font-family="Helvetica,sans-Serif" font-size="10.00">Arduino.h</text>
</g>
<!-- Node0&#45;&gt;Node3 -->
<g id="edge5" class="edge"><title>Node0&#45;&gt;Node3</title>
<path fill="none" stroke="midnightblue" d="M147.373,-112.287C154.345,-99.9239 165.153,-76.5112 161,-56 159.107,-46.6493 155.208,-36.8267 151.433,-28.7526"/>
<polygon fill="midnightblue" stroke="midnightblue" points="154.475,-27.0106 146.876,-19.6279 148.212,-30.1381 154.475,-27.0106"/>
</g>
<!-- Node4 -->
<g id="node5" class="node"><title>Node4</title>
<polygon fill="white" stroke="#bfbfbf" points="208.5,-56.5 208.5,-75.5 287.5,-75.5 287.5,-56.5 208.5,-56.5"/>
<text text-anchor="middle" x="248" y="-63.5" font-family="Helvetica,sans-Serif" font-size="10.00">ArduinoJson.h</text>
</g>
<!-- Node0&#45;&gt;Node4 -->
<g id="edge4" class="edge"><title>Node0&#45;&gt;Node4</title>
<path fill="none" stroke="midnightblue" d="M159.031,-112.324C176.03,-103.664 202.376,-90.2424 221.993,-80.249"/>
<polygon fill="midnightblue" stroke="midnightblue" points="223.69,-83.3125 231.012,-75.6545 220.512,-77.0752 223.69,-83.3125"/>
</g>
<!-- Node2&#45;&gt;Node3 -->
<g id="edge3" class="edge"><title>Node2&#45;&gt;Node3</title>
<path fill="none" stroke="midnightblue" d="M110.275,-56.083C115.642,-48.4554 123.518,-37.2645 130.079,-27.9408"/>
<polygon fill="midnightblue" stroke="midnightblue" points="132.949,-29.9434 135.842,-19.7511 127.225,-25.9149 132.949,-29.9434"/>
</g>
</g>
</svg>
