<?xml version="1.0" encoding="UTF-8" standalone="no"?>
<!DOCTYPE svg PUBLIC "-//W3C//DTD SVG 1.1//EN"
 "http://www.w3.org/Graphics/SVG/1.1/DTD/svg11.dtd">
<!-- Generated by graphviz version 2.38.0 (20140413.2041)
 -->
<!-- Title: CoolMQTT.h Pages: 1 -->
<svg width="319pt" height="140pt"
 viewBox="0.00 0.00 319.00 140.00" xmlns="http://www.w3.org/2000/svg" xmlns:xlink="http://www.w3.org/1999/xlink">
<g id="graph0" class="graph" transform="scale(1 1) rotate(0) translate(4 136)">
<title>CoolMQTT.h</title>
<polygon fill="white" stroke="none" points="-4,4 -4,-136 315,-136 315,4 -4,4"/>
<!-- Node0 -->
<g id="node1" class="node"><title>Node0</title>
<polygon fill="#bfbfbf" stroke="black" points="41.5,-112.5 41.5,-131.5 114.5,-131.5 114.5,-112.5 41.5,-112.5"/>
<text text-anchor="middle" x="78" y="-119.5" font-family="Helvetica,sans-Serif" font-size="10.00">CoolMQTT.h</text>
</g>
<!-- Node1 -->
<g id="node2" class="node"><title>Node1</title>
<polygon fill="white" stroke="#bfbfbf" points="0,-0.5 0,-19.5 58,-19.5 58,-0.5 0,-0.5"/>
<text text-anchor="middle" x="29" y="-7.5" font-family="Helvetica,sans-Serif" font-size="10.00">Arduino.h</text>
</g>
<!-- Node0&#45;&gt;Node1 -->
<g id="edge1" class="edge"><title>Node0&#45;&gt;Node1</title>
<path fill="none" stroke="midnightblue" d="M62.2167,-112.467C49.7973,-104.769 33.3949,-92.179 26,-76 19.3961,-61.5517 20.9527,-43.3631 23.6971,-29.9032"/>
<polygon fill="midnightblue" stroke="midnightblue" points="27.1688,-30.4386 26.1288,-19.895 20.3667,-28.7859 27.1688,-30.4386"/>
</g>
<!-- Node2 -->
<g id="node3" class="node"><title>Node2</title>
<polygon fill="white" stroke="#bfbfbf" points="35,-56.5 35,-75.5 121,-75.5 121,-56.5 35,-56.5"/>
<text text-anchor="middle" x="78" y="-63.5" font-family="Helvetica,sans-Serif" font-size="10.00">ESP8266WiFi.h</text>
</g>
<!-- Node0&#45;&gt;Node2 -->
<g id="edge2" class="edge"><title>Node0&#45;&gt;Node2</title>
<path fill="none" stroke="midnightblue" d="M78,-112.083C78,-105.006 78,-94.8611 78,-85.9865"/>
<polygon fill="midnightblue" stroke="midnightblue" points="81.5001,-85.751 78,-75.7511 74.5001,-85.7511 81.5001,-85.751"/>
</g>
<!-- Node3 -->
<g id="node4" class="node"><title>Node3</title>
<g id="a_node4"><a xlink:href="$d5/dfb/_cool_pub_sub_client_8h.html" xlink:title="internals/CoolPubSubClient.h">
<polygon fill="white" stroke="black" points="139.5,-56.5 139.5,-75.5 284.5,-75.5 284.5,-56.5 139.5,-56.5"/>
<text text-anchor="middle" x="212" y="-63.5" font-family="Helvetica,sans-Serif" font-size="10.00">internals/CoolPubSubClient.h</text>
</a>
</g>
</g>
<!-- Node0&#45;&gt;Node3 -->
<g id="edge3" class="edge"><title>Node0&#45;&gt;Node3</title>
<path fill="none" stroke="midnightblue" d="M99.2327,-112.444C121.384,-103.517 156.319,-89.4387 181.436,-79.3168"/>
<polygon fill="midnightblue" stroke="midnightblue" points="182.9,-82.5006 190.867,-75.5164 180.283,-76.0079 182.9,-82.5006"/>
</g>
<!-- Node3&#45;&gt;Node1 -->
<g id="edge4" class="edge"><title>Node3&#45;&gt;Node1</title>
<path fill="none" stroke="midnightblue" d="M183.003,-56.4435C151.815,-47.2406 102.07,-32.5617 67.5925,-22.3879"/>
<polygon fill="midnightblue" stroke="midnightblue" points="68.443,-18.9898 57.8612,-19.5164 66.4618,-25.7036 68.443,-18.9898"/>
</g>
<!-- Node4 -->
<g id="node5" class="node"><title>Node4</title>
<polygon fill="white" stroke="#bfbfbf" points="97.5,-0.5 97.5,-19.5 168.5,-19.5 168.5,-0.5 97.5,-0.5"/>
<text text-anchor="middle" x="133" y="-7.5" font-family="Helvetica,sans-Serif" font-size="10.00">IPAddress.h</text>
</g>
<!-- Node3&#45;&gt;Node4 -->
<g id="edge5" class="edge"><title>Node3&#45;&gt;Node4</title>
<path fill="none" stroke="midnightblue" d="M199.307,-56.324C187.099,-47.979 168.422,-35.2122 153.997,-25.3524"/>
<polygon fill="midnightblue" stroke="midnightblue" points="155.892,-22.4082 145.661,-19.6545 151.942,-28.1871 155.892,-22.4082"/>
</g>
<!-- Node5 -->
<g id="node6" class="node"><title>Node5</title>
<polygon fill="white" stroke="#bfbfbf" points="187,-0.5 187,-19.5 237,-19.5 237,-0.5 187,-0.5"/>
<text text-anchor="middle" x="212" y="-7.5" font-family="Helvetica,sans-Serif" font-size="10.00">Client.h</text>
</g>
<!-- Node3&#45;&gt;Node5 -->
<g id="edge6" class="edge"><title>Node3&#45;&gt;Node5</title>
<path fill="none" stroke="midnightblue" d="M212,-56.083C212,-49.0059 212,-38.8611 212,-29.9865"/>
<polygon fill="midnightblue" stroke="midnightblue" points="215.5,-29.751 212,-19.7511 208.5,-29.7511 215.5,-29.751"/>
</g>
<!-- Node6 -->
<g id="node7" class="node"><title>Node6</title>
<polygon fill="white" stroke="#bfbfbf" points="255,-0.5 255,-19.5 311,-19.5 311,-0.5 255,-0.5"/>
<text text-anchor="middle" x="283" y="-7.5" font-family="Helvetica,sans-Serif" font-size="10.00">Stream.h</text>
</g>
<!-- Node3&#45;&gt;Node6 -->
<g id="edge7" class="edge"><title>Node3&#45;&gt;Node6</title>
<path fill="none" stroke="midnightblue" d="M223.407,-56.324C234.109,-48.1849 250.341,-35.8395 263.163,-26.0874"/>
<polygon fill="midnightblue" stroke="midnightblue" points="265.544,-28.6734 271.385,-19.8339 261.307,-23.1018 265.544,-28.6734"/>
</g>
</g>
</svg>
