<?xml version="1.0" encoding="UTF-8" standalone="no"?>
<!DOCTYPE svg PUBLIC "-//W3C//DTD SVG 1.1//EN"
 "http://www.w3.org/Graphics/SVG/1.1/DTD/svg11.dtd">
<!-- Generated by graphviz version 2.38.0 (20140413.2041)
 -->
<!-- Title: oneWire Pages: 1 -->
<svg width="343pt" height="28pt"
 viewBox="0.00 0.00 343.00 28.00" xmlns="http://www.w3.org/2000/svg" xmlns:xlink="http://www.w3.org/1999/xlink">
<g id="graph0" class="graph" transform="scale(1 1) rotate(0) translate(4 24)">
<title>oneWire</title>
<polygon fill="white" stroke="none" points="-4,4 -4,-24 339,-24 339,4 -4,4"/>
<!-- Node1 -->
<g id="node1" class="node"><title>Node1</title>
<polygon fill="#bfbfbf" stroke="black" points="0,-0.5 0,-19.5 53,-19.5 53,-0.5 0,-0.5"/>
<text text-anchor="middle" x="26.5" y="-7.5" font-family="Helvetica,sans-Serif" font-size="10.00">oneWire</text>
</g>
<!-- Node2 -->
<g id="node2" class="node"><title>Node2</title>
<g id="a_node2"><a xlink:href="$d1/d2f/class_external_sensors.html#a58ede0d786a86417254708870f04a21e" xlink:title="ExternalSensors::begin">
<polygon fill="white" stroke="black" points="89,-0.5 89,-19.5 207,-19.5 207,-0.5 89,-0.5"/>
<text text-anchor="middle" x="148" y="-7.5" font-family="Helvetica,sans-Serif" font-size="10.00">ExternalSensors::begin</text>
</a>
</g>
</g>
<!-- Node1&#45;&gt;Node2 -->
<g id="edge1" class="edge"><title>Node1&#45;&gt;Node2</title>
<path fill="none" stroke="midnightblue" d="M63.3216,-10C71.4265,-10 80.2349,-10 88.9934,-10"/>
<polygon fill="midnightblue" stroke="midnightblue" points="63.1358,-6.5001 53.1357,-10 63.1357,-13.5001 63.1358,-6.5001"/>
</g>
<!-- Node3 -->
<g id="node3" class="node"><title>Node3</title>
<g id="a_node3"><a xlink:href="$d7/df9/class_cool_board.html#acba7c5aef7268b2c0044bdb54d3b9d76" xlink:title="CoolBoard::begin">
<polygon fill="white" stroke="black" points="243,-0.5 243,-19.5 335,-19.5 335,-0.5 243,-0.5"/>
<text text-anchor="middle" x="289" y="-7.5" font-family="Helvetica,sans-Serif" font-size="10.00">CoolBoard::begin</text>
</a>
</g>
</g>
<!-- Node2&#45;&gt;Node3 -->
<g id="edge2" class="edge"><title>Node2&#45;&gt;Node3</title>
<path fill="none" stroke="midnightblue" d="M217.262,-10C225.92,-10 234.603,-10 242.775,-10"/>
<polygon fill="midnightblue" stroke="midnightblue" points="217.143,-6.5001 207.143,-10 217.143,-13.5001 217.143,-6.5001"/>
</g>
</g>
</svg>
