<?xml version="1.0" encoding="UTF-8" standalone="no"?>
<!DOCTYPE svg PUBLIC "-//W3C//DTD SVG 1.1//EN"
 "http://www.w3.org/Graphics/SVG/1.1/DTD/svg11.dtd">
<!-- Generated by graphviz version 2.38.0 (20140413.2041)
 -->
<!-- Title: NDIR_I2C::send Pages: 1 -->
<svg width="369pt" height="28pt"
 viewBox="0.00 0.00 369.00 28.00" xmlns="http://www.w3.org/2000/svg" xmlns:xlink="http://www.w3.org/1999/xlink">
<g id="graph0" class="graph" transform="scale(1 1) rotate(0) translate(4 24)">
<title>NDIR_I2C::send</title>
<polygon fill="white" stroke="none" points="-4,4 -4,-24 365,-24 365,4 -4,4"/>
<!-- Node21 -->
<g id="node1" class="node"><title>Node21</title>
<polygon fill="#bfbfbf" stroke="black" points="0,-0.5 0,-19.5 90,-19.5 90,-0.5 0,-0.5"/>
<text text-anchor="middle" x="45" y="-7.5" font-family="Helvetica,sans-Serif" font-size="10.00">NDIR_I2C::send</text>
</g>
<!-- Node22 -->
<g id="node2" class="node"><title>Node22</title>
<g id="a_node2"><a xlink:href="../../d6/ddb/class_n_d_i_r___i2_c.html#ab8f50d38501d498b802b822bd4844ede" target="_top" xlink:title="NDIR_I2C::measure">
<polygon fill="white" stroke="black" points="126,-0.5 126,-19.5 233,-19.5 233,-0.5 126,-0.5"/>
<text text-anchor="middle" x="179.5" y="-7.5" font-family="Helvetica,sans-Serif" font-size="10.00">NDIR_I2C::measure</text>
</a>
</g>
</g>
<!-- Node21&#45;&gt;Node22 -->
<g id="edge1" class="edge"><title>Node21&#45;&gt;Node22</title>
<path fill="none" stroke="midnightblue" d="M100.254,-10C108.704,-10 117.422,-10 125.835,-10"/>
<polygon fill="midnightblue" stroke="midnightblue" points="100.121,-6.5001 90.1206,-10 100.121,-13.5001 100.121,-6.5001"/>
</g>
<!-- Node23 -->
<g id="node3" class="node"><title>Node23</title>
<g id="a_node3"><a xlink:href="../../d6/ddb/class_n_d_i_r___i2_c.html#acf82f3dcb41e75709a93f8b68d087a3c" target="_top" xlink:title="NDIR_I2C::begin">
<polygon fill="white" stroke="black" points="269,-0.5 269,-19.5 361,-19.5 361,-0.5 269,-0.5"/>
<text text-anchor="middle" x="315" y="-7.5" font-family="Helvetica,sans-Serif" font-size="10.00">NDIR_I2C::begin</text>
</a>
</g>
</g>
<!-- Node22&#45;&gt;Node23 -->
<g id="edge2" class="edge"><title>Node22&#45;&gt;Node23</title>
<path fill="none" stroke="midnightblue" d="M243.335,-10C251.979,-10 260.711,-10 268.948,-10"/>
<polygon fill="midnightblue" stroke="midnightblue" points="243.263,-6.5001 233.263,-10 243.263,-13.5001 243.263,-6.5001"/>
</g>
</g>
</svg>
