<?xml version="1.0" encoding="UTF-8" standalone="no"?>
<!DOCTYPE svg PUBLIC "-//W3C//DTD SVG 1.1//EN"
 "http://www.w3.org/Graphics/SVG/1.1/DTD/svg11.dtd">
<!-- Generated by graphviz version 2.38.0 (20140413.2041)
 -->
<!-- Title: NDIR_I2C::write_register Pages: 1 -->
<svg width="571pt" height="123pt"
 viewBox="0.00 0.00 571.00 123.00" xmlns="http://www.w3.org/2000/svg" xmlns:xlink="http://www.w3.org/1999/xlink">
<g id="graph0" class="graph" transform="scale(1 1) rotate(0) translate(4 119)">
<title>NDIR_I2C::write_register</title>
<polygon fill="white" stroke="none" points="-4,4 -4,-119 567,-119 567,4 -4,4"/>
<!-- Node36 -->
<g id="node1" class="node"><title>Node36</title>
<polygon fill="#bfbfbf" stroke="black" points="0,-57.5 0,-76.5 128,-76.5 128,-57.5 0,-57.5"/>
<text text-anchor="middle" x="64" y="-64.5" font-family="Helvetica,sans-Serif" font-size="10.00">NDIR_I2C::write_register</text>
</g>
<!-- Node37 -->
<g id="node2" class="node"><title>Node37</title>
<g id="a_node2"><a xlink:href="../../d6/ddb/class_n_d_i_r___i2_c.html#acf82f3dcb41e75709a93f8b68d087a3c" target="_top" xlink:title="NDIR_I2C::begin">
<polygon fill="white" stroke="black" points="471,-95.5 471,-114.5 563,-114.5 563,-95.5 471,-95.5"/>
<text text-anchor="middle" x="517" y="-102.5" font-family="Helvetica,sans-Serif" font-size="10.00">NDIR_I2C::begin</text>
</a>
</g>
</g>
<!-- Node36&#45;&gt;Node37 -->
<g id="edge1" class="edge"><title>Node36&#45;&gt;Node37</title>
<path fill="none" stroke="midnightblue" d="M110.975,-79.0623C127.586,-83.053 146.544,-87.1876 164,-90 273.151,-107.586 403.645,-107.816 470.931,-106.432"/>
<polygon fill="midnightblue" stroke="midnightblue" points="111.517,-75.5914 100.971,-76.6091 109.85,-82.39 111.517,-75.5914"/>
</g>
<!-- Node38 -->
<g id="node3" class="node"><title>Node38</title>
<g id="a_node3"><a xlink:href="../../d6/ddb/class_n_d_i_r___i2_c.html#ab8f50d38501d498b802b822bd4844ede" target="_top" xlink:title="NDIR_I2C::measure">
<polygon fill="white" stroke="black" points="328,-76.5 328,-95.5 435,-95.5 435,-76.5 328,-76.5"/>
<text text-anchor="middle" x="381.5" y="-83.5" font-family="Helvetica,sans-Serif" font-size="10.00">NDIR_I2C::measure</text>
</a>
</g>
</g>
<!-- Node36&#45;&gt;Node38 -->
<g id="edge2" class="edge"><title>Node36&#45;&gt;Node38</title>
<path fill="none" stroke="midnightblue" d="M138.305,-71.4146C196.387,-74.9124 276.125,-79.7144 327.978,-82.837"/>
<polygon fill="midnightblue" stroke="midnightblue" points="138.28,-67.9068 128.088,-70.7993 137.859,-74.8942 138.28,-67.9068"/>
</g>
<!-- Node39 -->
<g id="node4" class="node"><title>Node39</title>
<g id="a_node4"><a xlink:href="../../d6/ddb/class_n_d_i_r___i2_c.html#aab0c04c2b7d08e99d12af044df179f0c" target="_top" xlink:title="NDIR_I2C::send">
<polygon fill="white" stroke="black" points="183,-38.5 183,-57.5 273,-57.5 273,-38.5 183,-38.5"/>
<text text-anchor="middle" x="228" y="-45.5" font-family="Helvetica,sans-Serif" font-size="10.00">NDIR_I2C::send</text>
</a>
</g>
</g>
<!-- Node36&#45;&gt;Node39 -->
<g id="edge4" class="edge"><title>Node36&#45;&gt;Node39</title>
<path fill="none" stroke="midnightblue" d="M138.064,-58.4308C153.349,-56.638 169.015,-54.8007 182.857,-53.1773"/>
<polygon fill="midnightblue" stroke="midnightblue" points="137.621,-54.9586 128.097,-59.5997 138.437,-61.9109 137.621,-54.9586"/>
</g>
<!-- Node40 -->
<g id="node5" class="node"><title>Node40</title>
<g id="a_node5"><a xlink:href="../../d6/ddb/class_n_d_i_r___i2_c.html#a8ad2a76f9866b0a1f34810a147b4b20d" target="_top" xlink:title="NDIR_I2C::write_register">
<polygon fill="white" stroke="black" points="164,-0.5 164,-19.5 292,-19.5 292,-0.5 164,-0.5"/>
<text text-anchor="middle" x="228" y="-7.5" font-family="Helvetica,sans-Serif" font-size="10.00">NDIR_I2C::write_register</text>
</a>
</g>
</g>
<!-- Node36&#45;&gt;Node40 -->
<g id="edge6" class="edge"><title>Node36&#45;&gt;Node40</title>
<path fill="none" stroke="midnightblue" d="M97.8977,-53.6748C117.057,-46.0901 141.751,-36.6137 164,-29 173.62,-25.7082 184.165,-22.4087 193.83,-19.5049"/>
<polygon fill="midnightblue" stroke="midnightblue" points="96.4196,-50.4961 88.4253,-57.4488 99.0106,-56.9989 96.4196,-50.4961"/>
</g>
<!-- Node38&#45;&gt;Node37 -->
<g id="edge3" class="edge"><title>Node38&#45;&gt;Node37</title>
<path fill="none" stroke="midnightblue" d="M445.335,-94.9428C453.979,-96.1731 462.711,-97.4158 470.948,-98.5882"/>
<polygon fill="midnightblue" stroke="midnightblue" points="445.656,-91.4533 435.263,-93.5093 444.67,-98.3835 445.656,-91.4533"/>
</g>
<!-- Node39&#45;&gt;Node38 -->
<g id="edge5" class="edge"><title>Node39&#45;&gt;Node38</title>
<path fill="none" stroke="midnightblue" d="M277.002,-60.04C298.167,-65.3488 322.686,-71.4988 342.545,-76.4799"/>
<polygon fill="midnightblue" stroke="midnightblue" points="277.781,-56.6271 267.23,-57.589 276.078,-63.4168 277.781,-56.6271"/>
</g>
</g>
</svg>
