<?xml version="1.0" encoding="UTF-8" standalone="no"?>
<!DOCTYPE svg PUBLIC "-//W3C//DTD SVG 1.1//EN"
 "http://www.w3.org/Graphics/SVG/1.1/DTD/svg11.dtd">
<!-- Generated by graphviz version 2.38.0 (20140413.2041)
 -->
<!-- Title: NDIR_I2C::begin Pages: 1 -->
<svg width="544pt" height="164pt"
 viewBox="0.00 0.00 544.00 164.48" xmlns="http://www.w3.org/2000/svg" xmlns:xlink="http://www.w3.org/1999/xlink">
<g id="graph0" class="graph" transform="scale(1 1) rotate(0) translate(4 160.485)">
<title>NDIR_I2C::begin</title>
<polygon fill="white" stroke="none" points="-4,4 -4,-160.485 540,-160.485 540,4 -4,4"/>
<!-- Node2 -->
<g id="node1" class="node"><title>Node2</title>
<polygon fill="#bfbfbf" stroke="black" points="0,-114.5 0,-133.5 92,-133.5 92,-114.5 0,-114.5"/>
<text text-anchor="middle" x="46" y="-121.5" font-family="Helvetica,sans-Serif" font-size="10.00">NDIR_I2C::begin</text>
</g>
<!-- Node3 -->
<g id="node2" class="node"><title>Node3</title>
<g id="a_node2"><a xlink:href="../../d6/ddb/class_n_d_i_r___i2_c.html#ab8f50d38501d498b802b822bd4844ede" target="_top" xlink:title="NDIR_I2C::measure">
<polygon fill="white" stroke="black" points="128,-76.5 128,-95.5 235,-95.5 235,-76.5 128,-76.5"/>
<text text-anchor="middle" x="181.5" y="-83.5" font-family="Helvetica,sans-Serif" font-size="10.00">NDIR_I2C::measure</text>
</a>
</g>
</g>
<!-- Node2&#45;&gt;Node3 -->
<g id="edge1" class="edge"><title>Node2&#45;&gt;Node3</title>
<path fill="none" stroke="midnightblue" d="M80.6877,-114.411C97.7632,-109.551 118.7,-103.591 136.982,-98.3873"/>
<polygon fill="midnightblue" stroke="midnightblue" points="138.163,-101.69 146.823,-95.5859 136.247,-94.9574 138.163,-101.69"/>
</g>
<!-- Node4 -->
<g id="node3" class="node"><title>Node4</title>
<g id="a_node3"><a xlink:href="../../d6/ddb/class_n_d_i_r___i2_c.html#a5de6a044b00e985f035edca07521e319" target="_top" xlink:title="NDIR_I2C::write_register">
<polygon fill="white" stroke="black" points="408,-76.5 408,-95.5 536,-95.5 536,-76.5 408,-76.5"/>
<text text-anchor="middle" x="472" y="-83.5" font-family="Helvetica,sans-Serif" font-size="10.00">NDIR_I2C::write_register</text>
</a>
</g>
</g>
<!-- Node2&#45;&gt;Node4 -->
<g id="edge9" class="edge"><title>Node2&#45;&gt;Node4</title>
<path fill="none" stroke="midnightblue" d="M83.8294,-133.574C144.893,-147.817 270.439,-170.148 372,-143 401.773,-135.041 431.878,-115.743 450.942,-101.804"/>
<polygon fill="midnightblue" stroke="midnightblue" points="453.235,-104.459 459.123,-95.6507 449.028,-98.8641 453.235,-104.459"/>
</g>
<!-- Node3&#45;&gt;Node4 -->
<g id="edge2" class="edge"><title>Node3&#45;&gt;Node4</title>
<path fill="none" stroke="midnightblue" d="M235.08,-86C280.619,-86 346.971,-86 397.717,-86"/>
<polygon fill="midnightblue" stroke="midnightblue" points="397.971,-89.5001 407.971,-86 397.971,-82.5001 397.971,-89.5001"/>
</g>
<!-- Node5 -->
<g id="node4" class="node"><title>Node5</title>
<g id="a_node4"><a xlink:href="../../d6/ddb/class_n_d_i_r___i2_c.html#aab0c04c2b7d08e99d12af044df179f0c" target="_top" xlink:title="NDIR_I2C::send">
<polygon fill="white" stroke="black" points="276.5,-38.5 276.5,-57.5 366.5,-57.5 366.5,-38.5 276.5,-38.5"/>
<text text-anchor="middle" x="321.5" y="-45.5" font-family="Helvetica,sans-Serif" font-size="10.00">NDIR_I2C::send</text>
</a>
</g>
</g>
<!-- Node3&#45;&gt;Node5 -->
<g id="edge3" class="edge"><title>Node3&#45;&gt;Node5</title>
<path fill="none" stroke="midnightblue" d="M217.323,-76.411C235.138,-71.5056 257.018,-65.4804 276.039,-60.2429"/>
<polygon fill="midnightblue" stroke="midnightblue" points="276.976,-63.6152 285.688,-57.5859 275.118,-56.8664 276.976,-63.6152"/>
</g>
<!-- Node7 -->
<g id="node6" class="node"><title>Node7</title>
<g id="a_node6"><a xlink:href="../../d6/ddb/class_n_d_i_r___i2_c.html#aa6d2b8dd287f9c9015461cebb18f9abc" target="_top" xlink:title="NDIR_I2C::receive">
<polygon fill="white" stroke="black" points="271,-0.5 271,-19.5 372,-19.5 372,-0.5 271,-0.5"/>
<text text-anchor="middle" x="321.5" y="-7.5" font-family="Helvetica,sans-Serif" font-size="10.00">NDIR_I2C::receive</text>
</a>
</g>
</g>
<!-- Node3&#45;&gt;Node7 -->
<g id="edge6" class="edge"><title>Node3&#45;&gt;Node7</title>
<path fill="none" stroke="midnightblue" d="M195.484,-76.4198C212.299,-64.3037 242.802,-43.3004 271,-29 274.833,-27.0562 278.914,-25.1894 283.026,-23.4363"/>
<polygon fill="midnightblue" stroke="midnightblue" points="284.617,-26.5678 292.571,-19.5689 281.989,-20.08 284.617,-26.5678"/>
</g>
<!-- Node8 -->
<g id="node7" class="node"><title>Node8</title>
<g id="a_node7"><a xlink:href="../../d6/ddb/class_n_d_i_r___i2_c.html#a907b756fc9244c7398b7d187b73cde94" target="_top" xlink:title="NDIR_I2C::parse">
<polygon fill="white" stroke="black" points="275,-114.5 275,-133.5 368,-133.5 368,-114.5 275,-114.5"/>
<text text-anchor="middle" x="321.5" y="-121.5" font-family="Helvetica,sans-Serif" font-size="10.00">NDIR_I2C::parse</text>
</a>
</g>
</g>
<!-- Node3&#45;&gt;Node8 -->
<g id="edge8" class="edge"><title>Node3&#45;&gt;Node8</title>
<path fill="none" stroke="midnightblue" d="M217.323,-95.589C235.138,-100.494 257.018,-106.52 276.039,-111.757"/>
<polygon fill="midnightblue" stroke="midnightblue" points="275.118,-115.134 285.688,-114.414 276.976,-108.385 275.118,-115.134"/>
</g>
<!-- Node5&#45;&gt;Node4 -->
<g id="edge5" class="edge"><title>Node5&#45;&gt;Node4</title>
<path fill="none" stroke="midnightblue" d="M359.973,-57.589C379.392,-62.5583 403.302,-68.6767 423.954,-73.9613"/>
<polygon fill="midnightblue" stroke="midnightblue" points="423.241,-77.3916 433.797,-76.4799 424.976,-70.6101 423.241,-77.3916"/>
</g>
<!-- Node6 -->
<g id="node5" class="node"><title>Node6</title>
<g id="a_node5"><a xlink:href="../../d6/ddb/class_n_d_i_r___i2_c.html#aa72058e6e7c6174b14466fee4b2df1e0" target="_top" xlink:title="NDIR_I2C::read_register">
<polygon fill="white" stroke="black" points="409.5,-19.5 409.5,-38.5 534.5,-38.5 534.5,-19.5 409.5,-19.5"/>
<text text-anchor="middle" x="472" y="-26.5" font-family="Helvetica,sans-Serif" font-size="10.00">NDIR_I2C::read_register</text>
</a>
</g>
</g>
<!-- Node5&#45;&gt;Node6 -->
<g id="edge4" class="edge"><title>Node5&#45;&gt;Node6</title>
<path fill="none" stroke="midnightblue" d="M366.653,-42.3508C376.93,-41.0359 388.132,-39.6026 399.26,-38.1789"/>
<polygon fill="midnightblue" stroke="midnightblue" points="399.954,-41.6186 409.429,-36.8777 399.066,-34.6752 399.954,-41.6186"/>
</g>
<!-- Node7&#45;&gt;Node6 -->
<g id="edge7" class="edge"><title>Node7&#45;&gt;Node6</title>
<path fill="none" stroke="midnightblue" d="M372.361,-16.3796C380.993,-17.484 390.12,-18.6517 399.198,-19.8132"/>
<polygon fill="midnightblue" stroke="midnightblue" points="399.034,-23.3207 409.397,-21.1182 399.923,-16.3773 399.034,-23.3207"/>
</g>
</g>
</svg>
