<?xml version="1.0" encoding="UTF-8" standalone="no"?>
<!DOCTYPE svg PUBLIC "-//W3C//DTD SVG 1.1//EN"
 "http://www.w3.org/Graphics/SVG/1.1/DTD/svg11.dtd">
<!-- Generated by graphviz version 2.38.0 (20140413.2041)
 -->
<!-- Title: NDIR_I2C::measure Pages: 1 -->
<svg width="416pt" height="132pt"
 viewBox="0.00 0.00 416.00 132.00" xmlns="http://www.w3.org/2000/svg" xmlns:xlink="http://www.w3.org/1999/xlink">
<g id="graph0" class="graph" transform="scale(1 1) rotate(0) translate(4 128)">
<title>NDIR_I2C::measure</title>
<polygon fill="white" stroke="none" points="-4,4 -4,-128 412,-128 412,4 -4,4"/>
<!-- Node10 -->
<g id="node1" class="node"><title>Node10</title>
<polygon fill="#bfbfbf" stroke="black" points="0,-47.5 0,-66.5 107,-66.5 107,-47.5 0,-47.5"/>
<text text-anchor="middle" x="53.5" y="-54.5" font-family="Helvetica,sans-Serif" font-size="10.00">NDIR_I2C::measure</text>
</g>
<!-- Node11 -->
<g id="node2" class="node"><title>Node11</title>
<g id="a_node2"><a xlink:href="../../d6/ddb/class_n_d_i_r___i2_c.html#a907b756fc9244c7398b7d187b73cde94" target="_top" xlink:title="NDIR_I2C::parse">
<polygon fill="white" stroke="black" points="147,-104.5 147,-123.5 240,-123.5 240,-104.5 147,-104.5"/>
<text text-anchor="middle" x="193.5" y="-111.5" font-family="Helvetica,sans-Serif" font-size="10.00">NDIR_I2C::parse</text>
</a>
</g>
</g>
<!-- Node10&#45;&gt;Node11 -->
<g id="edge1" class="edge"><title>Node10&#45;&gt;Node11</title>
<path fill="none" stroke="midnightblue" d="M76.2223,-66.608C94.077,-74.4375 120.074,-85.6822 143,-95 147.608,-96.8727 152.475,-98.8012 157.288,-100.679"/>
<polygon fill="midnightblue" stroke="midnightblue" points="156.399,-104.087 166.989,-104.426 158.922,-97.5577 156.399,-104.087"/>
</g>
<!-- Node12 -->
<g id="node3" class="node"><title>Node12</title>
<g id="a_node3"><a xlink:href="../../d6/ddb/class_n_d_i_r___i2_c.html#aa6d2b8dd287f9c9015461cebb18f9abc" target="_top" xlink:title="NDIR_I2C::receive">
<polygon fill="white" stroke="black" points="143,-66.5 143,-85.5 244,-85.5 244,-66.5 143,-66.5"/>
<text text-anchor="middle" x="193.5" y="-73.5" font-family="Helvetica,sans-Serif" font-size="10.00">NDIR_I2C::receive</text>
</a>
</g>
</g>
<!-- Node10&#45;&gt;Node12 -->
<g id="edge2" class="edge"><title>Node10&#45;&gt;Node12</title>
<path fill="none" stroke="midnightblue" d="M107.066,-64.2373C115.497,-65.3981 124.275,-66.6067 132.857,-67.7883"/>
<polygon fill="midnightblue" stroke="midnightblue" points="132.424,-71.2617 142.808,-69.1584 133.379,-64.3271 132.424,-71.2617"/>
</g>
<!-- Node14 -->
<g id="node5" class="node"><title>Node14</title>
<g id="a_node5"><a xlink:href="../../d6/ddb/class_n_d_i_r___i2_c.html#aab0c04c2b7d08e99d12af044df179f0c" target="_top" xlink:title="NDIR_I2C::send">
<polygon fill="white" stroke="black" points="148.5,-28.5 148.5,-47.5 238.5,-47.5 238.5,-28.5 148.5,-28.5"/>
<text text-anchor="middle" x="193.5" y="-35.5" font-family="Helvetica,sans-Serif" font-size="10.00">NDIR_I2C::send</text>
</a>
</g>
</g>
<!-- Node10&#45;&gt;Node14 -->
<g id="edge4" class="edge"><title>Node10&#45;&gt;Node14</title>
<path fill="none" stroke="midnightblue" d="M107.066,-49.7627C117.234,-48.3627 127.908,-46.893 138.133,-45.4853"/>
<polygon fill="midnightblue" stroke="midnightblue" points="138.744,-48.9343 148.173,-44.103 137.789,-41.9997 138.744,-48.9343"/>
</g>
<!-- Node15 -->
<g id="node6" class="node"><title>Node15</title>
<g id="a_node6"><a xlink:href="../../d6/ddb/class_n_d_i_r___i2_c.html#a5de6a044b00e985f035edca07521e319" target="_top" xlink:title="NDIR_I2C::write_register">
<polygon fill="white" stroke="black" points="280,-0.5 280,-19.5 408,-19.5 408,-0.5 280,-0.5"/>
<text text-anchor="middle" x="344" y="-7.5" font-family="Helvetica,sans-Serif" font-size="10.00">NDIR_I2C::write_register</text>
</a>
</g>
</g>
<!-- Node10&#45;&gt;Node15 -->
<g id="edge7" class="edge"><title>Node10&#45;&gt;Node15</title>
<path fill="none" stroke="midnightblue" d="M71.5004,-47.4977C88.8714,-38.3258 116.922,-24.976 143,-19 184.208,-9.55684 231.406,-7.0553 269.6,-7.03087"/>
<polygon fill="midnightblue" stroke="midnightblue" points="269.596,-10.5308 279.613,-7.08047 269.631,-3.53087 269.596,-10.5308"/>
</g>
<!-- Node13 -->
<g id="node4" class="node"><title>Node13</title>
<g id="a_node4"><a xlink:href="../../d6/ddb/class_n_d_i_r___i2_c.html#aa72058e6e7c6174b14466fee4b2df1e0" target="_top" xlink:title="NDIR_I2C::read_register">
<polygon fill="white" stroke="black" points="281.5,-47.5 281.5,-66.5 406.5,-66.5 406.5,-47.5 281.5,-47.5"/>
<text text-anchor="middle" x="344" y="-54.5" font-family="Helvetica,sans-Serif" font-size="10.00">NDIR_I2C::read_register</text>
</a>
</g>
</g>
<!-- Node12&#45;&gt;Node13 -->
<g id="edge3" class="edge"><title>Node12&#45;&gt;Node13</title>
<path fill="none" stroke="midnightblue" d="M244.361,-69.6204C252.993,-68.516 262.12,-67.3483 271.198,-66.1868"/>
<polygon fill="midnightblue" stroke="midnightblue" points="271.923,-69.6227 281.397,-64.8818 271.034,-62.6793 271.923,-69.6227"/>
</g>
<!-- Node14&#45;&gt;Node13 -->
<g id="edge5" class="edge"><title>Node14&#45;&gt;Node13</title>
<path fill="none" stroke="midnightblue" d="M238.653,-43.6492C248.93,-44.9641 260.132,-46.3974 271.26,-47.8211"/>
<polygon fill="midnightblue" stroke="midnightblue" points="271.066,-51.3248 281.429,-49.1223 271.954,-44.3814 271.066,-51.3248"/>
</g>
<!-- Node14&#45;&gt;Node15 -->
<g id="edge6" class="edge"><title>Node14&#45;&gt;Node15</title>
<path fill="none" stroke="midnightblue" d="M238.653,-29.6749C252.407,-27.0815 267.82,-24.1754 282.491,-21.4092"/>
<polygon fill="midnightblue" stroke="midnightblue" points="283.321,-24.8143 292.5,-19.522 282.024,-17.9355 283.321,-24.8143"/>
</g>
</g>
</svg>
