<?xml version="1.0" encoding="UTF-8" standalone="no"?>
<!DOCTYPE svg PUBLIC "-//W3C//DTD SVG 1.1//EN"
 "http://www.w3.org/Graphics/SVG/1.1/DTD/svg11.dtd">
<!-- Generated by graphviz version 2.38.0 (20140413.2041)
 -->
<!-- Title: NDIR_I2C::send Pages: 1 -->
<svg width="262pt" height="66pt"
 viewBox="0.00 0.00 262.00 66.00" xmlns="http://www.w3.org/2000/svg" xmlns:xlink="http://www.w3.org/1999/xlink">
<g id="graph0" class="graph" transform="scale(1 1) rotate(0) translate(4 62)">
<title>NDIR_I2C::send</title>
<polygon fill="white" stroke="none" points="-4,4 -4,-62 258,-62 258,4 -4,4"/>
<!-- Node18 -->
<g id="node1" class="node"><title>Node18</title>
<polygon fill="#bfbfbf" stroke="black" points="0,-19.5 0,-38.5 90,-38.5 90,-19.5 0,-19.5"/>
<text text-anchor="middle" x="45" y="-26.5" font-family="Helvetica,sans-Serif" font-size="10.00">NDIR_I2C::send</text>
</g>
<!-- Node19 -->
<g id="node2" class="node"><title>Node19</title>
<g id="a_node2"><a xlink:href="../../d6/ddb/class_n_d_i_r___i2_c.html#aa72058e6e7c6174b14466fee4b2df1e0" target="_top" xlink:title="NDIR_I2C::read_register">
<polygon fill="white" stroke="black" points="127.5,-38.5 127.5,-57.5 252.5,-57.5 252.5,-38.5 127.5,-38.5"/>
<text text-anchor="middle" x="190" y="-45.5" font-family="Helvetica,sans-Serif" font-size="10.00">NDIR_I2C::read_register</text>
</a>
</g>
</g>
<!-- Node18&#45;&gt;Node19 -->
<g id="edge1" class="edge"><title>Node18&#45;&gt;Node19</title>
<path fill="none" stroke="midnightblue" d="M90.0715,-34.8557C98.7498,-36.0087 108.064,-37.2462 117.38,-38.484"/>
<polygon fill="midnightblue" stroke="midnightblue" points="117.086,-41.9757 127.46,-39.8234 118.008,-35.0367 117.086,-41.9757"/>
</g>
<!-- Node20 -->
<g id="node3" class="node"><title>Node20</title>
<g id="a_node3"><a xlink:href="../../d6/ddb/class_n_d_i_r___i2_c.html#a5de6a044b00e985f035edca07521e319" target="_top" xlink:title="NDIR_I2C::write_register">
<polygon fill="white" stroke="black" points="126,-0.5 126,-19.5 254,-19.5 254,-0.5 126,-0.5"/>
<text text-anchor="middle" x="190" y="-7.5" font-family="Helvetica,sans-Serif" font-size="10.00">NDIR_I2C::write_register</text>
</a>
</g>
</g>
<!-- Node18&#45;&gt;Node20 -->
<g id="edge2" class="edge"><title>Node18&#45;&gt;Node20</title>
<path fill="none" stroke="midnightblue" d="M90.0715,-23.1443C98.2998,-22.0511 107.099,-20.8819 115.931,-19.7085"/>
<polygon fill="midnightblue" stroke="midnightblue" points="116.434,-23.1724 125.886,-18.3857 115.512,-16.2334 116.434,-23.1724"/>
</g>
</g>
</svg>
