<?xml version="1.0" encoding="UTF-8" standalone="no"?>
<!DOCTYPE svg PUBLIC "-//W3C//DTD SVG 1.1//EN"
 "http://www.w3.org/Graphics/SVG/1.1/DTD/svg11.dtd">
<!-- Generated by graphviz version 2.38.0 (20140413.2041)
 -->
<!-- Title: BME280::readRegisterRegion Pages: 1 -->
<svg width="847pt" height="151pt"
 viewBox="0.00 0.00 847.00 150.50" xmlns="http://www.w3.org/2000/svg" xmlns:xlink="http://www.w3.org/1999/xlink">
<g id="graph0" class="graph" transform="scale(1 1) rotate(0) translate(4 146.5)">
<title>BME280::readRegisterRegion</title>
<polygon fill="white" stroke="none" points="-4,4 -4,-146.5 843,-146.5 843,4 -4,4"/>
<!-- Node50 -->
<g id="node1" class="node"><title>Node50</title>
<polygon fill="#bfbfbf" stroke="black" points="0,-57.5 0,-76.5 146,-76.5 146,-57.5 0,-57.5"/>
<text text-anchor="middle" x="73" y="-64.5" font-family="Helvetica,sans-Serif" font-size="10.00">BME280::readRegisterRegion</text>
</g>
<!-- Node51 -->
<g id="node2" class="node"><title>Node51</title>
<g id="a_node2"><a xlink:href="$df/dcf/class_b_m_e280.html#a42ea7232039eebf5aadb391ef6132c35" xlink:title="BME280::readFloatHumidity">
<polygon fill="white" stroke="black" points="182,-76.5 182,-95.5 322,-95.5 322,-76.5 182,-76.5"/>
<text text-anchor="middle" x="252" y="-83.5" font-family="Helvetica,sans-Serif" font-size="10.00">BME280::readFloatHumidity</text>
</a>
</g>
</g>
<!-- Node50&#45;&gt;Node51 -->
<g id="edge1" class="edge"><title>Node50&#45;&gt;Node51</title>
<path fill="none" stroke="midnightblue" d="M156.243,-75.8284C164.805,-76.7474 173.445,-77.6749 181.841,-78.5761"/>
<polygon fill="midnightblue" stroke="midnightblue" points="156.564,-72.3428 146.248,-74.7554 155.817,-79.3028 156.564,-72.3428"/>
</g>
<!-- Node56 -->
<g id="node7" class="node"><title>Node56</title>
<g id="a_node7"><a xlink:href="$df/dcf/class_b_m_e280.html#ada6e799917afb4f228e6253bc56ffe75" xlink:title="BME280::readFloatPressure">
<polygon fill="white" stroke="black" points="182,-114.5 182,-133.5 322,-133.5 322,-114.5 182,-114.5"/>
<text text-anchor="middle" x="252" y="-121.5" font-family="Helvetica,sans-Serif" font-size="10.00">BME280::readFloatPressure</text>
</a>
</g>
</g>
<!-- Node50&#45;&gt;Node56 -->
<g id="edge6" class="edge"><title>Node50&#45;&gt;Node56</title>
<path fill="none" stroke="midnightblue" d="M109.061,-80.032C130.091,-87.6742 157.438,-97.3073 182,-105 192.434,-108.268 203.848,-111.534 214.336,-114.414"/>
<polygon fill="midnightblue" stroke="midnightblue" points="110.175,-76.7127 99.5809,-76.5665 107.771,-83.2872 110.175,-76.7127"/>
</g>
<!-- Node59 -->
<g id="node10" class="node"><title>Node59</title>
<g id="a_node10"><a xlink:href="$df/dcf/class_b_m_e280.html#ac43c30f9b321d301694094d6b4bebe7e" xlink:title="BME280::readRegisterInt16">
<polygon fill="white" stroke="black" points="183.5,-38.5 183.5,-57.5 320.5,-57.5 320.5,-38.5 183.5,-38.5"/>
<text text-anchor="middle" x="252" y="-45.5" font-family="Helvetica,sans-Serif" font-size="10.00">BME280::readRegisterInt16</text>
</a>
</g>
</g>
<!-- Node50&#45;&gt;Node59 -->
<g id="edge10" class="edge"><title>Node50&#45;&gt;Node59</title>
<path fill="none" stroke="midnightblue" d="M156.361,-58.159C165.369,-57.1921 174.461,-56.2161 183.263,-55.2712"/>
<polygon fill="midnightblue" stroke="midnightblue" points="155.817,-54.6972 146.248,-59.2446 156.564,-61.6572 155.817,-54.6972"/>
</g>
<!-- Node60 -->
<g id="node11" class="node"><title>Node60</title>
<g id="a_node11"><a xlink:href="$df/dcf/class_b_m_e280.html#afffdd1d7ded9e1f92200e70669019d97" xlink:title="BME280::readTempC">
<polygon fill="white" stroke="black" points="196.5,-0.5 196.5,-19.5 307.5,-19.5 307.5,-0.5 196.5,-0.5"/>
<text text-anchor="middle" x="252" y="-7.5" font-family="Helvetica,sans-Serif" font-size="10.00">BME280::readTempC</text>
</a>
</g>
</g>
<!-- Node50&#45;&gt;Node60 -->
<g id="edge11" class="edge"><title>Node50&#45;&gt;Node60</title>
<path fill="none" stroke="midnightblue" d="M109.061,-53.968C130.091,-46.3258 157.438,-36.6927 182,-29 192.434,-25.7321 203.848,-22.4658 214.336,-19.5861"/>
<polygon fill="midnightblue" stroke="midnightblue" points="107.771,-50.7128 99.5809,-57.4335 110.175,-57.2873 107.771,-50.7128"/>
</g>
<!-- Node52 -->
<g id="node3" class="node"><title>Node52</title>
<g id="a_node3"><a xlink:href="$de/d46/class_cool_board_sensors.html#a91badb2539d91fda8679f2a597874c48" xlink:title="CoolBoardSensors::read">
<polygon fill="white" stroke="black" points="363.5,-73.5 363.5,-92.5 486.5,-92.5 486.5,-73.5 363.5,-73.5"/>
<text text-anchor="middle" x="425" y="-80.5" font-family="Helvetica,sans-Serif" font-size="10.00">CoolBoardSensors::read</text>
</a>
</g>
</g>
<!-- Node51&#45;&gt;Node52 -->
<g id="edge2" class="edge"><title>Node51&#45;&gt;Node52</title>
<path fill="none" stroke="midnightblue" d="M332.109,-84.6121C342.654,-84.4271 353.33,-84.2398 363.49,-84.0616"/>
<polygon fill="midnightblue" stroke="midnightblue" points="331.996,-81.1135 322.059,-84.7884 332.119,-88.1124 331.996,-81.1135"/>
</g>
<!-- Node53 -->
<g id="node4" class="node"><title>Node53</title>
<g id="a_node4"><a xlink:href="$d7/df9/class_cool_board.html#ad03abdce2e65f520bbf2cff0f2d083cf" xlink:title="CoolBoard::readSensors">
<polygon fill="white" stroke="black" points="543,-73.5 543,-92.5 666,-92.5 666,-73.5 543,-73.5"/>
<text text-anchor="middle" x="604.5" y="-80.5" font-family="Helvetica,sans-Serif" font-size="10.00">CoolBoard::readSensors</text>
</a>
</g>
</g>
<!-- Node52&#45;&gt;Node53 -->
<g id="edge3" class="edge"><title>Node52&#45;&gt;Node53</title>
<path fill="none" stroke="midnightblue" d="M496.976,-83C512.181,-83 528.112,-83 542.883,-83"/>
<polygon fill="midnightblue" stroke="midnightblue" points="496.589,-79.5001 486.589,-83 496.589,-86.5001 496.589,-79.5001"/>
</g>
<!-- Node54 -->
<g id="node5" class="node"><title>Node54</title>
<g id="a_node5"><a xlink:href="$d7/df9/class_cool_board.html#aa0bbc4bc605e35618d18e68795c61363" xlink:title="CoolBoard::onLineMode">
<polygon fill="white" stroke="black" points="717.5,-92.5 717.5,-111.5 838.5,-111.5 838.5,-92.5 717.5,-92.5"/>
<text text-anchor="middle" x="778" y="-99.5" font-family="Helvetica,sans-Serif" font-size="10.00">CoolBoard::onLineMode</text>
</a>
</g>
</g>
<!-- Node53&#45;&gt;Node54 -->
<g id="edge4" class="edge"><title>Node53&#45;&gt;Node54</title>
<path fill="none" stroke="midnightblue" d="M676.682,-90.8861C690.224,-92.3864 704.265,-93.9419 717.401,-95.3972"/>
<polygon fill="midnightblue" stroke="midnightblue" points="676.772,-87.3747 666.447,-89.7522 676.001,-94.3321 676.772,-87.3747"/>
</g>
<!-- Node55 -->
<g id="node6" class="node"><title>Node55</title>
<g id="a_node6"><a xlink:href="$d7/df9/class_cool_board.html#ae6b5e1274d760462290192acea4adca8" xlink:title="CoolBoard::offLineMode">
<polygon fill="white" stroke="black" points="717,-54.5 717,-73.5 839,-73.5 839,-54.5 717,-54.5"/>
<text text-anchor="middle" x="778" y="-61.5" font-family="Helvetica,sans-Serif" font-size="10.00">CoolBoard::offLineMode</text>
</a>
</g>
</g>
<!-- Node53&#45;&gt;Node55 -->
<g id="edge5" class="edge"><title>Node53&#45;&gt;Node55</title>
<path fill="none" stroke="midnightblue" d="M676.562,-75.1273C689.943,-73.6448 703.817,-72.1078 716.826,-70.6665"/>
<polygon fill="midnightblue" stroke="midnightblue" points="676.001,-71.6679 666.447,-76.2478 676.772,-78.6253 676.001,-71.6679"/>
</g>
<!-- Node56&#45;&gt;Node52 -->
<g id="edge7" class="edge"><title>Node56&#45;&gt;Node52</title>
<path fill="none" stroke="midnightblue" d="M302.68,-112.088C328.625,-105.868 359.942,-98.3589 384.259,-92.5286"/>
<polygon fill="midnightblue" stroke="midnightblue" points="301.569,-108.756 292.661,-114.491 303.201,-115.563 301.569,-108.756"/>
</g>
<!-- Node57 -->
<g id="node8" class="node"><title>Node57</title>
<g id="a_node8"><a xlink:href="$df/dcf/class_b_m_e280.html#af67b56ba50760ee1d116acc6c5010221" xlink:title="BME280::readFloatAltitude\lMeters">
<polygon fill="white" stroke="black" points="358,-112 358,-142 492,-142 492,-112 358,-112"/>
<text text-anchor="start" x="366" y="-130" font-family="Helvetica,sans-Serif" font-size="10.00">BME280::readFloatAltitude</text>
<text text-anchor="middle" x="425" y="-119" font-family="Helvetica,sans-Serif" font-size="10.00">Meters</text>
</a>
</g>
</g>
<!-- Node56&#45;&gt;Node57 -->
<g id="edge8" class="edge"><title>Node56&#45;&gt;Node57</title>
<path fill="none" stroke="midnightblue" d="M332.074,-125.387C340.656,-125.538 349.325,-125.69 357.733,-125.837"/>
<polygon fill="midnightblue" stroke="midnightblue" points="332.119,-121.888 322.059,-125.212 331.996,-128.887 332.119,-121.888"/>
</g>
<!-- Node58 -->
<g id="node9" class="node"><title>Node58</title>
<g id="a_node9"><a xlink:href="$df/dcf/class_b_m_e280.html#a6525c8a26f887b52596c86bed99343cb" xlink:title="BME280::readFloatAltitudeFeet">
<polygon fill="white" stroke="black" points="528,-117.5 528,-136.5 681,-136.5 681,-117.5 528,-117.5"/>
<text text-anchor="middle" x="604.5" y="-124.5" font-family="Helvetica,sans-Serif" font-size="10.00">BME280::readFloatAltitudeFeet</text>
</a>
</g>
</g>
<!-- Node57&#45;&gt;Node58 -->
<g id="edge9" class="edge"><title>Node57&#45;&gt;Node58</title>
<path fill="none" stroke="midnightblue" d="M502.299,-127C510.744,-127 519.343,-127 527.782,-127"/>
<polygon fill="midnightblue" stroke="midnightblue" points="502.094,-123.5 492.094,-127 502.094,-130.5 502.094,-123.5"/>
</g>
<!-- Node60&#45;&gt;Node52 -->
<g id="edge12" class="edge"><title>Node60&#45;&gt;Node52</title>
<path fill="none" stroke="midnightblue" d="M303.476,-22.5199C309.782,-24.4864 316.088,-26.6539 322,-29 354.033,-41.7128 389.066,-61.7192 408.608,-73.4797"/>
<polygon fill="midnightblue" stroke="midnightblue" points="304.204,-19.0853 293.622,-19.5982 302.214,-25.7965 304.204,-19.0853"/>
</g>
<!-- Node61 -->
<g id="node12" class="node"><title>Node61</title>
<g id="a_node12"><a xlink:href="$df/dcf/class_b_m_e280.html#a9648b496f6b4700550782a715a98b3c7" xlink:title="BME280::readTempF">
<polygon fill="white" stroke="black" points="370,-0.5 370,-19.5 480,-19.5 480,-0.5 370,-0.5"/>
<text text-anchor="middle" x="425" y="-7.5" font-family="Helvetica,sans-Serif" font-size="10.00">BME280::readTempF</text>
</a>
</g>
</g>
<!-- Node60&#45;&gt;Node61 -->
<g id="edge13" class="edge"><title>Node60&#45;&gt;Node61</title>
<path fill="none" stroke="midnightblue" d="M317.576,-10C334.838,-10 353.312,-10 369.942,-10"/>
<polygon fill="midnightblue" stroke="midnightblue" points="317.576,-6.5001 307.576,-10 317.576,-13.5001 317.576,-6.5001"/>
</g>
</g>
</svg>
