<?xml version="1.0" encoding="UTF-8" standalone="no"?>
<!DOCTYPE svg PUBLIC "-//W3C//DTD SVG 1.1//EN"
 "http://www.w3.org/Graphics/SVG/1.1/DTD/svg11.dtd">
<!-- Generated by graphviz version 2.38.0 (20140413.2041)
 -->
<!-- Title: BME280::readFloatPressure Pages: 1 -->
<svg width="665pt" height="97pt"
 viewBox="0.00 0.00 665.00 96.50" xmlns="http://www.w3.org/2000/svg" xmlns:xlink="http://www.w3.org/1999/xlink">
<g id="graph0" class="graph" transform="scale(1 1) rotate(0) translate(4 92.5)">
<title>BME280::readFloatPressure</title>
<polygon fill="white" stroke="none" points="-4,4 -4,-92.5 661,-92.5 661,4 -4,4"/>
<!-- Node13 -->
<g id="node1" class="node"><title>Node13</title>
<polygon fill="#bfbfbf" stroke="black" points="0,-28 0,-47 140,-47 140,-28 0,-28"/>
<text text-anchor="middle" x="70" y="-35" font-family="Helvetica,sans-Serif" font-size="10.00">BME280::readFloatPressure</text>
</g>
<!-- Node14 -->
<g id="node2" class="node"><title>Node14</title>
<g id="a_node2"><a xlink:href="$de/d46/class_cool_board_sensors.html#a91badb2539d91fda8679f2a597874c48" xlink:title="CoolBoardSensors::read">
<polygon fill="white" stroke="black" points="181.5,-50 181.5,-69 304.5,-69 304.5,-50 181.5,-50"/>
<text text-anchor="middle" x="243" y="-57" font-family="Helvetica,sans-Serif" font-size="10.00">CoolBoardSensors::read</text>
</a>
</g>
</g>
<!-- Node13&#45;&gt;Node14 -->
<g id="edge1" class="edge"><title>Node13&#45;&gt;Node14</title>
<path fill="none" stroke="midnightblue" d="M150.109,-47.6778C160.654,-49.0345 171.33,-50.408 181.49,-51.7151"/>
<polygon fill="midnightblue" stroke="midnightblue" points="150.424,-44.1896 140.059,-46.3848 149.531,-51.1323 150.424,-44.1896"/>
</g>
<!-- Node18 -->
<g id="node6" class="node"><title>Node18</title>
<g id="a_node6"><a xlink:href="$df/dcf/class_b_m_e280.html#af67b56ba50760ee1d116acc6c5010221" xlink:title="BME280::readFloatAltitude\lMeters">
<polygon fill="white" stroke="black" points="176,-0.5 176,-30.5 310,-30.5 310,-0.5 176,-0.5"/>
<text text-anchor="start" x="184" y="-18.5" font-family="Helvetica,sans-Serif" font-size="10.00">BME280::readFloatAltitude</text>
<text text-anchor="middle" x="243" y="-7.5" font-family="Helvetica,sans-Serif" font-size="10.00">Meters</text>
</a>
</g>
</g>
<!-- Node13&#45;&gt;Node18 -->
<g id="edge5" class="edge"><title>Node13&#45;&gt;Node18</title>
<path fill="none" stroke="midnightblue" d="M150.074,-27.3268C158.656,-26.2226 167.325,-25.1073 175.733,-24.0256"/>
<polygon fill="midnightblue" stroke="midnightblue" points="149.531,-23.8677 140.059,-28.6152 150.424,-30.8104 149.531,-23.8677"/>
</g>
<!-- Node15 -->
<g id="node3" class="node"><title>Node15</title>
<g id="a_node3"><a xlink:href="$d7/df9/class_cool_board.html#ad03abdce2e65f520bbf2cff0f2d083cf" xlink:title="CoolBoard::readSensors">
<polygon fill="white" stroke="black" points="361,-50 361,-69 484,-69 484,-50 361,-50"/>
<text text-anchor="middle" x="422.5" y="-57" font-family="Helvetica,sans-Serif" font-size="10.00">CoolBoard::readSensors</text>
</a>
</g>
</g>
<!-- Node14&#45;&gt;Node15 -->
<g id="edge2" class="edge"><title>Node14&#45;&gt;Node15</title>
<path fill="none" stroke="midnightblue" d="M314.976,-59.5C330.181,-59.5 346.112,-59.5 360.883,-59.5"/>
<polygon fill="midnightblue" stroke="midnightblue" points="314.589,-56.0001 304.589,-59.5 314.589,-63.0001 314.589,-56.0001"/>
</g>
<!-- Node16 -->
<g id="node4" class="node"><title>Node16</title>
<g id="a_node4"><a xlink:href="$d7/df9/class_cool_board.html#aa0bbc4bc605e35618d18e68795c61363" xlink:title="CoolBoard::onLineMode">
<polygon fill="white" stroke="black" points="535.5,-69 535.5,-88 656.5,-88 656.5,-69 535.5,-69"/>
<text text-anchor="middle" x="596" y="-76" font-family="Helvetica,sans-Serif" font-size="10.00">CoolBoard::onLineMode</text>
</a>
</g>
</g>
<!-- Node15&#45;&gt;Node16 -->
<g id="edge3" class="edge"><title>Node15&#45;&gt;Node16</title>
<path fill="none" stroke="midnightblue" d="M494.682,-67.3861C508.224,-68.8864 522.265,-70.4419 535.401,-71.8972"/>
<polygon fill="midnightblue" stroke="midnightblue" points="494.772,-63.8747 484.447,-66.2522 494.001,-70.8321 494.772,-63.8747"/>
</g>
<!-- Node17 -->
<g id="node5" class="node"><title>Node17</title>
<g id="a_node5"><a xlink:href="$d7/df9/class_cool_board.html#ae6b5e1274d760462290192acea4adca8" xlink:title="CoolBoard::offLineMode">
<polygon fill="white" stroke="black" points="535,-31 535,-50 657,-50 657,-31 535,-31"/>
<text text-anchor="middle" x="596" y="-38" font-family="Helvetica,sans-Serif" font-size="10.00">CoolBoard::offLineMode</text>
</a>
</g>
</g>
<!-- Node15&#45;&gt;Node17 -->
<g id="edge4" class="edge"><title>Node15&#45;&gt;Node17</title>
<path fill="none" stroke="midnightblue" d="M494.562,-51.6273C507.943,-50.1448 521.817,-48.6078 534.826,-47.1665"/>
<polygon fill="midnightblue" stroke="midnightblue" points="494.001,-48.1679 484.447,-52.7478 494.772,-55.1253 494.001,-48.1679"/>
</g>
<!-- Node19 -->
<g id="node7" class="node"><title>Node19</title>
<g id="a_node7"><a xlink:href="$df/dcf/class_b_m_e280.html#a6525c8a26f887b52596c86bed99343cb" xlink:title="BME280::readFloatAltitudeFeet">
<polygon fill="white" stroke="black" points="346,-6 346,-25 499,-25 499,-6 346,-6"/>
<text text-anchor="middle" x="422.5" y="-13" font-family="Helvetica,sans-Serif" font-size="10.00">BME280::readFloatAltitudeFeet</text>
</a>
</g>
</g>
<!-- Node18&#45;&gt;Node19 -->
<g id="edge6" class="edge"><title>Node18&#45;&gt;Node19</title>
<path fill="none" stroke="midnightblue" d="M320.299,-15.5C328.744,-15.5 337.343,-15.5 345.782,-15.5"/>
<polygon fill="midnightblue" stroke="midnightblue" points="320.094,-12.0001 310.094,-15.5 320.094,-19.0001 320.094,-12.0001"/>
</g>
</g>
</svg>
