<?xml version="1.0" encoding="UTF-8" standalone="no"?>
<!DOCTYPE svg PUBLIC "-//W3C//DTD SVG 1.1//EN"
 "http://www.w3.org/Graphics/SVG/1.1/DTD/svg11.dtd">
<!-- Generated by graphviz version 2.38.0 (20140413.2041)
 -->
<!-- Title: BME280::readFloatAltitudeMeters Pages: 1 -->
<svg width="500pt" height="39pt"
 viewBox="0.00 0.00 500.00 39.00" xmlns="http://www.w3.org/2000/svg" xmlns:xlink="http://www.w3.org/1999/xlink">
<g id="graph0" class="graph" transform="scale(1 1) rotate(0) translate(4 35)">
<title>BME280::readFloatAltitudeMeters</title>
<polygon fill="white" stroke="none" points="-4,4 -4,-35 496,-35 496,4 -4,4"/>
<!-- Node20 -->
<g id="node1" class="node"><title>Node20</title>
<polygon fill="#bfbfbf" stroke="black" points="0,-0.5 0,-30.5 134,-30.5 134,-0.5 0,-0.5"/>
<text text-anchor="start" x="8" y="-18.5" font-family="Helvetica,sans-Serif" font-size="10.00">BME280::readFloatAltitude</text>
<text text-anchor="middle" x="67" y="-7.5" font-family="Helvetica,sans-Serif" font-size="10.00">Meters</text>
</g>
<!-- Node21 -->
<g id="node2" class="node"><title>Node21</title>
<g id="a_node2"><a xlink:href="$df/dcf/class_b_m_e280.html#ada6e799917afb4f228e6253bc56ffe75" xlink:title="BME280::readFloatPressure">
<polygon fill="white" stroke="black" points="170,-6 170,-25 310,-25 310,-6 170,-6"/>
<text text-anchor="middle" x="240" y="-13" font-family="Helvetica,sans-Serif" font-size="10.00">BME280::readFloatPressure</text>
</a>
</g>
</g>
<!-- Node20&#45;&gt;Node21 -->
<g id="edge1" class="edge"><title>Node20&#45;&gt;Node21</title>
<path fill="none" stroke="midnightblue" d="M134.113,-15.5C142.557,-15.5 151.267,-15.5 159.89,-15.5"/>
<polygon fill="midnightblue" stroke="midnightblue" points="159.951,-19.0001 169.951,-15.5 159.951,-12.0001 159.951,-19.0001"/>
</g>
<!-- Node22 -->
<g id="node3" class="node"><title>Node22</title>
<g id="a_node3"><a xlink:href="$df/dcf/class_b_m_e280.html#aecca87c2c40a7f2bcabcea921bdc6124" xlink:title="BME280::readRegisterRegion">
<polygon fill="white" stroke="black" points="346,-6 346,-25 492,-25 492,-6 346,-6"/>
<text text-anchor="middle" x="419" y="-13" font-family="Helvetica,sans-Serif" font-size="10.00">BME280::readRegisterRegion</text>
</a>
</g>
</g>
<!-- Node21&#45;&gt;Node22 -->
<g id="edge2" class="edge"><title>Node21&#45;&gt;Node22</title>
<path fill="none" stroke="midnightblue" d="M310.193,-15.5C318.626,-15.5 327.304,-15.5 335.901,-15.5"/>
<polygon fill="midnightblue" stroke="midnightblue" points="335.937,-19.0001 345.937,-15.5 335.937,-12.0001 335.937,-19.0001"/>
</g>
</g>
</svg>
