<?xml version="1.0" encoding="UTF-8" standalone="no"?>
<!DOCTYPE svg PUBLIC "-//W3C//DTD SVG 1.1//EN"
 "http://www.w3.org/Graphics/SVG/1.1/DTD/svg11.dtd">
<!-- Generated by graphviz version 2.38.0 (20140413.2041)
 -->
<!-- Title: BME280::readTempC Pages: 1 -->
<svg width="595pt" height="85pt"
 viewBox="0.00 0.00 595.00 85.00" xmlns="http://www.w3.org/2000/svg" xmlns:xlink="http://www.w3.org/1999/xlink">
<g id="graph0" class="graph" transform="scale(1 1) rotate(0) translate(4 81)">
<title>BME280::readTempC</title>
<polygon fill="white" stroke="none" points="-4,4 -4,-81 591,-81 591,4 -4,4"/>
<!-- Node39 -->
<g id="node1" class="node"><title>Node39</title>
<polygon fill="#bfbfbf" stroke="black" points="0,-19.5 0,-38.5 111,-38.5 111,-19.5 0,-19.5"/>
<text text-anchor="middle" x="55.5" y="-26.5" font-family="Helvetica,sans-Serif" font-size="10.00">BME280::readTempC</text>
</g>
<!-- Node40 -->
<g id="node2" class="node"><title>Node40</title>
<g id="a_node2"><a xlink:href="$de/d46/class_cool_board_sensors.html#a91badb2539d91fda8679f2a597874c48" xlink:title="CoolBoardSensors::read">
<polygon fill="white" stroke="black" points="147,-38.5 147,-57.5 270,-57.5 270,-38.5 147,-38.5"/>
<text text-anchor="middle" x="208.5" y="-45.5" font-family="Helvetica,sans-Serif" font-size="10.00">CoolBoardSensors::read</text>
</a>
</g>
</g>
<!-- Node39&#45;&gt;Node40 -->
<g id="edge1" class="edge"><title>Node39&#45;&gt;Node40</title>
<path fill="none" stroke="midnightblue" d="M120.995,-37.1153C129.597,-38.1976 138.394,-39.3045 146.925,-40.378"/>
<polygon fill="midnightblue" stroke="midnightblue" points="121.373,-33.6353 111.014,-35.8594 120.499,-40.5806 121.373,-33.6353"/>
</g>
<!-- Node44 -->
<g id="node6" class="node"><title>Node44</title>
<g id="a_node6"><a xlink:href="$df/dcf/class_b_m_e280.html#a9648b496f6b4700550782a715a98b3c7" xlink:title="BME280::readTempF">
<polygon fill="white" stroke="black" points="153.5,-0.5 153.5,-19.5 263.5,-19.5 263.5,-0.5 153.5,-0.5"/>
<text text-anchor="middle" x="208.5" y="-7.5" font-family="Helvetica,sans-Serif" font-size="10.00">BME280::readTempF</text>
</a>
</g>
</g>
<!-- Node39&#45;&gt;Node44 -->
<g id="edge5" class="edge"><title>Node39&#45;&gt;Node44</title>
<path fill="none" stroke="midnightblue" d="M121.168,-20.863C131.884,-19.5146 142.896,-18.1289 153.319,-16.8175"/>
<polygon fill="midnightblue" stroke="midnightblue" points="120.499,-17.4194 111.014,-22.1406 121.373,-24.3647 120.499,-17.4194"/>
</g>
<!-- Node41 -->
<g id="node3" class="node"><title>Node41</title>
<g id="a_node3"><a xlink:href="$d7/df9/class_cool_board.html#ad03abdce2e65f520bbf2cff0f2d083cf" xlink:title="CoolBoard::readSensors">
<polygon fill="white" stroke="black" points="306,-38.5 306,-57.5 429,-57.5 429,-38.5 306,-38.5"/>
<text text-anchor="middle" x="367.5" y="-45.5" font-family="Helvetica,sans-Serif" font-size="10.00">CoolBoard::readSensors</text>
</a>
</g>
</g>
<!-- Node40&#45;&gt;Node41 -->
<g id="edge2" class="edge"><title>Node40&#45;&gt;Node41</title>
<path fill="none" stroke="midnightblue" d="M280.21,-48C288.807,-48 297.53,-48 305.961,-48"/>
<polygon fill="midnightblue" stroke="midnightblue" points="280.2,-44.5001 270.2,-48 280.2,-51.5001 280.2,-44.5001"/>
</g>
<!-- Node42 -->
<g id="node4" class="node"><title>Node42</title>
<g id="a_node4"><a xlink:href="$d7/df9/class_cool_board.html#aa0bbc4bc605e35618d18e68795c61363" xlink:title="CoolBoard::onLineMode">
<polygon fill="white" stroke="black" points="465.5,-57.5 465.5,-76.5 586.5,-76.5 586.5,-57.5 465.5,-57.5"/>
<text text-anchor="middle" x="526" y="-64.5" font-family="Helvetica,sans-Serif" font-size="10.00">CoolBoard::onLineMode</text>
</a>
</g>
</g>
<!-- Node41&#45;&gt;Node42 -->
<g id="edge3" class="edge"><title>Node41&#45;&gt;Node42</title>
<path fill="none" stroke="midnightblue" d="M439.207,-56.5842C447.968,-57.6478 456.856,-58.7269 465.427,-59.7675"/>
<polygon fill="midnightblue" stroke="midnightblue" points="439.356,-53.0767 429.007,-55.3459 438.512,-60.0257 439.356,-53.0767"/>
</g>
<!-- Node43 -->
<g id="node5" class="node"><title>Node43</title>
<g id="a_node5"><a xlink:href="$d7/df9/class_cool_board.html#ae6b5e1274d760462290192acea4adca8" xlink:title="CoolBoard::offLineMode">
<polygon fill="white" stroke="black" points="465,-19.5 465,-38.5 587,-38.5 587,-19.5 465,-19.5"/>
<text text-anchor="middle" x="526" y="-26.5" font-family="Helvetica,sans-Serif" font-size="10.00">CoolBoard::offLineMode</text>
</a>
</g>
</g>
<!-- Node41&#45;&gt;Node43 -->
<g id="edge4" class="edge"><title>Node41&#45;&gt;Node43</title>
<path fill="none" stroke="midnightblue" d="M439.059,-39.4338C447.692,-38.3856 456.452,-37.3221 464.912,-36.2951"/>
<polygon fill="midnightblue" stroke="midnightblue" points="438.512,-35.9743 429.007,-40.6541 439.356,-42.9233 438.512,-35.9743"/>
</g>
</g>
</svg>
