<?xml version="1.0" encoding="UTF-8" standalone="no"?>
<!DOCTYPE svg PUBLIC "-//W3C//DTD SVG 1.1//EN"
 "http://www.w3.org/Graphics/SVG/1.1/DTD/svg11.dtd">
<!-- Generated by graphviz version 2.38.0 (20140413.2041)
 -->
<!-- Title: CoolWifi::connectAP Pages: 1 -->
<svg width="544pt" height="66pt"
 viewBox="0.00 0.00 544.00 66.00" xmlns="http://www.w3.org/2000/svg" xmlns:xlink="http://www.w3.org/1999/xlink">
<g id="graph0" class="graph" transform="scale(1 1) rotate(0) translate(4 62)">
<title>CoolWifi::connectAP</title>
<polygon fill="white" stroke="none" points="-4,4 -4,-62 540,-62 540,4 -4,4"/>
<!-- Node32 -->
<g id="node1" class="node"><title>Node32</title>
<polygon fill="#bfbfbf" stroke="black" points="0,-19.5 0,-38.5 108,-38.5 108,-19.5 0,-19.5"/>
<text text-anchor="middle" x="54" y="-26.5" font-family="Helvetica,sans-Serif" font-size="10.00">CoolWifi::connectAP</text>
</g>
<!-- Node33 -->
<g id="node2" class="node"><title>Node33</title>
<g id="a_node2"><a xlink:href="$d7/d29/class_cool_wifi.html#ad060353050f40d032a2dbf9e54a768bf" xlink:title="CoolWifi::connect">
<polygon fill="white" stroke="black" points="144,-38.5 144,-57.5 239,-57.5 239,-38.5 144,-38.5"/>
<text text-anchor="middle" x="191.5" y="-45.5" font-family="Helvetica,sans-Serif" font-size="10.00">CoolWifi::connect</text>
</a>
</g>
</g>
<!-- Node32&#45;&gt;Node33 -->
<g id="edge1" class="edge"><title>Node32&#45;&gt;Node33</title>
<path fill="none" stroke="midnightblue" d="M118.16,-37.8564C126.742,-39.0598 135.423,-40.277 143.648,-41.4303"/>
<polygon fill="midnightblue" stroke="midnightblue" points="118.553,-34.3774 108.164,-36.4548 117.581,-41.3096 118.553,-34.3774"/>
</g>
<!-- Node36 -->
<g id="node5" class="node"><title>Node36</title>
<g id="a_node5"><a xlink:href="$d7/df9/class_cool_board.html#ae6b5e1274d760462290192acea4adca8" xlink:title="CoolBoard::offLineMode">
<polygon fill="white" stroke="black" points="414,-0.5 414,-19.5 536,-19.5 536,-0.5 414,-0.5"/>
<text text-anchor="middle" x="475" y="-7.5" font-family="Helvetica,sans-Serif" font-size="10.00">CoolBoard::offLineMode</text>
</a>
</g>
</g>
<!-- Node32&#45;&gt;Node36 -->
<g id="edge5" class="edge"><title>Node32&#45;&gt;Node36</title>
<path fill="none" stroke="midnightblue" d="M118.507,-26.1202C198.643,-22.4863 335.454,-16.2825 413.929,-12.724"/>
<polygon fill="midnightblue" stroke="midnightblue" points="117.898,-22.6441 108.067,-26.5936 118.215,-29.637 117.898,-22.6441"/>
</g>
<!-- Node34 -->
<g id="node3" class="node"><title>Node34</title>
<g id="a_node3"><a xlink:href="$d7/df9/class_cool_board.html#a519de78b807f8ec6463ff484eb925918" xlink:title="CoolBoard::connect">
<polygon fill="white" stroke="black" points="275,-38.5 275,-57.5 378,-57.5 378,-38.5 275,-38.5"/>
<text text-anchor="middle" x="326.5" y="-45.5" font-family="Helvetica,sans-Serif" font-size="10.00">CoolBoard::connect</text>
</a>
</g>
</g>
<!-- Node33&#45;&gt;Node34 -->
<g id="edge2" class="edge"><title>Node33&#45;&gt;Node34</title>
<path fill="none" stroke="midnightblue" d="M249.204,-48C257.676,-48 266.364,-48 274.703,-48"/>
<polygon fill="midnightblue" stroke="midnightblue" points="249.017,-44.5001 239.017,-48 249.017,-51.5001 249.017,-44.5001"/>
</g>
<!-- Node35 -->
<g id="node4" class="node"><title>Node35</title>
<g id="a_node4"><a xlink:href="$d7/df9/class_cool_board.html#acba7c5aef7268b2c0044bdb54d3b9d76" xlink:title="CoolBoard::begin">
<polygon fill="white" stroke="black" points="429,-38.5 429,-57.5 521,-57.5 521,-38.5 429,-38.5"/>
<text text-anchor="middle" x="475" y="-45.5" font-family="Helvetica,sans-Serif" font-size="10.00">CoolBoard::begin</text>
</a>
</g>
</g>
<!-- Node34&#45;&gt;Node35 -->
<g id="edge3" class="edge"><title>Node34&#45;&gt;Node35</title>
<path fill="none" stroke="midnightblue" d="M388.472,-48C401.924,-48 415.944,-48 428.648,-48"/>
<polygon fill="midnightblue" stroke="midnightblue" points="388.327,-44.5001 378.327,-48 388.327,-51.5001 388.327,-44.5001"/>
</g>
<!-- Node34&#45;&gt;Node36 -->
<g id="edge4" class="edge"><title>Node34&#45;&gt;Node36</title>
<path fill="none" stroke="midnightblue" d="M374.195,-35.8879C394.599,-30.5956 418.181,-24.4787 437.298,-19.5201"/>
<polygon fill="midnightblue" stroke="midnightblue" points="373.269,-32.5123 364.468,-38.411 375.027,-39.288 373.269,-32.5123"/>
</g>
</g>
</svg>
