<?xml version="1.0" encoding="UTF-8" standalone="no"?>
<!DOCTYPE svg PUBLIC "-//W3C//DTD SVG 1.1//EN"
 "http://www.w3.org/Graphics/SVG/1.1/DTD/svg11.dtd">
<!-- Generated by graphviz version 2.38.0 (20140413.2041)
 -->
<!-- Title: CoolWifi::connectAP Pages: 1 -->
<svg width="527pt" height="148pt"
 viewBox="0.00 0.00 527.00 147.50" xmlns="http://www.w3.org/2000/svg" xmlns:xlink="http://www.w3.org/1999/xlink">
<g id="graph0" class="graph" transform="scale(1 1) rotate(0) translate(4 143.5)">
<title>CoolWifi::connectAP</title>
<polygon fill="white" stroke="none" points="-4,4 -4,-143.5 523,-143.5 523,4 -4,4"/>
<!-- Node26 -->
<g id="node1" class="node"><title>Node26</title>
<polygon fill="#bfbfbf" stroke="black" points="0,-63 0,-82 108,-82 108,-63 0,-63"/>
<text text-anchor="middle" x="54" y="-70" font-family="Helvetica,sans-Serif" font-size="10.00">CoolWifi::connectAP</text>
</g>
<!-- Node27 -->
<g id="node2" class="node"><title>Node27</title>
<g id="a_node2"><a xlink:href="$d7/d29/class_cool_wifi.html#a914d7a1df14dd6b75345fb614c34e9d6" xlink:title="CoolWifi::addWifi">
<polygon fill="white" stroke="black" points="193,-120 193,-139 286,-139 286,-120 193,-120"/>
<text text-anchor="middle" x="239.5" y="-127" font-family="Helvetica,sans-Serif" font-size="10.00">CoolWifi::addWifi</text>
</a>
</g>
</g>
<!-- Node26&#45;&gt;Node27 -->
<g id="edge1" class="edge"><title>Node26&#45;&gt;Node27</title>
<path fill="none" stroke="midnightblue" d="M74.3594,-82.1376C92.1019,-90.6365 119.29,-102.83 144,-110.5 156.359,-114.336 169.874,-117.588 182.719,-120.26"/>
<polygon fill="midnightblue" stroke="midnightblue" points="182.35,-123.755 192.842,-122.277 183.719,-116.89 182.35,-123.755"/>
</g>
<!-- Node28 -->
<g id="node3" class="node"><title>Node28</title>
<g id="a_node3"><a xlink:href="$d4/dc8/class_wi_fi_manager.html#ae3cdfa6b02edcfe63d7da4f696b62136" xlink:title="WiFiManager::autoConnect">
<polygon fill="white" stroke="black" points="171.5,-82 171.5,-101 307.5,-101 307.5,-82 171.5,-82"/>
<text text-anchor="middle" x="239.5" y="-89" font-family="Helvetica,sans-Serif" font-size="10.00">WiFiManager::autoConnect</text>
</a>
</g>
</g>
<!-- Node26&#45;&gt;Node28 -->
<g id="edge2" class="edge"><title>Node26&#45;&gt;Node28</title>
<path fill="none" stroke="midnightblue" d="M108.076,-77.9956C124.699,-79.7168 143.396,-81.6528 161.33,-83.5097"/>
<polygon fill="midnightblue" stroke="midnightblue" points="161.18,-87.0128 171.488,-84.5614 161.901,-80.05 161.18,-87.0128"/>
</g>
<!-- Node29 -->
<g id="node4" class="node"><title>Node29</title>
<g id="a_node4"><a xlink:href="$d4/dc8/class_wi_fi_manager.html#a4dd1dbf4f22900f226a3897b88155212" xlink:title="WiFiManager::setRemoveDuplicateAPs">
<polygon fill="white" stroke="black" points="144,-44 144,-63 335,-63 335,-44 144,-44"/>
<text text-anchor="middle" x="239.5" y="-51" font-family="Helvetica,sans-Serif" font-size="10.00">WiFiManager::setRemoveDuplicateAPs</text>
</a>
</g>
</g>
<!-- Node26&#45;&gt;Node29 -->
<g id="edge3" class="edge"><title>Node26&#45;&gt;Node29</title>
<path fill="none" stroke="midnightblue" d="M108.076,-67.0044C117.032,-66.0771 126.589,-65.0875 136.305,-64.0815"/>
<polygon fill="midnightblue" stroke="midnightblue" points="136.882,-67.5405 146.469,-63.0291 136.161,-60.5778 136.882,-67.5405"/>
</g>
<!-- Node30 -->
<g id="node5" class="node"><title>Node30</title>
<g id="a_node5"><a xlink:href="$d4/dc8/class_wi_fi_manager.html#aa6493d59c284ff245edb767ff684756d" xlink:title="WiFiManager::setTimeout">
<polygon fill="white" stroke="black" points="175,-6 175,-25 304,-25 304,-6 175,-6"/>
<text text-anchor="middle" x="239.5" y="-13" font-family="Helvetica,sans-Serif" font-size="10.00">WiFiManager::setTimeout</text>
</a>
</g>
</g>
<!-- Node26&#45;&gt;Node30 -->
<g id="edge4" class="edge"><title>Node26&#45;&gt;Node30</title>
<path fill="none" stroke="midnightblue" d="M74.3594,-62.8624C92.1019,-54.3635 119.29,-42.1702 144,-34.5 152.744,-31.7858 162.067,-29.3639 171.322,-27.2334"/>
<polygon fill="midnightblue" stroke="midnightblue" points="172.293,-30.6035 181.307,-25.0359 170.788,-23.7671 172.293,-30.6035"/>
</g>
<!-- Node31 -->
<g id="node6" class="node"><title>Node31</title>
<g id="a_node6"><a xlink:href="$d4/dc8/class_wi_fi_manager.html#a904006cb4d2c769e93bfdef336853766" xlink:title="WiFiManager::setConfigPortal\lTimeout">
<polygon fill="white" stroke="black" points="371,-0.5 371,-30.5 519,-30.5 519,-0.5 371,-0.5"/>
<text text-anchor="start" x="379" y="-18.5" font-family="Helvetica,sans-Serif" font-size="10.00">WiFiManager::setConfigPortal</text>
<text text-anchor="middle" x="445" y="-7.5" font-family="Helvetica,sans-Serif" font-size="10.00">Timeout</text>
</a>
</g>
</g>
<!-- Node30&#45;&gt;Node31 -->
<g id="edge5" class="edge"><title>Node30&#45;&gt;Node31</title>
<path fill="none" stroke="midnightblue" d="M304.052,-15.5C322.043,-15.5 341.898,-15.5 360.861,-15.5"/>
<polygon fill="midnightblue" stroke="midnightblue" points="360.982,-19.0001 370.982,-15.5 360.982,-12.0001 360.982,-19.0001"/>
</g>
</g>
</svg>
