<?xml version="1.0" encoding="UTF-8" standalone="no"?>
<!DOCTYPE svg PUBLIC "-//W3C//DTD SVG 1.1//EN"
 "http://www.w3.org/Graphics/SVG/1.1/DTD/svg11.dtd">
<!-- Generated by graphviz version 2.38.0 (20140413.2041)
 -->
<!-- Title: CoolWifi::connect Pages: 1 -->
<svg width="683pt" height="142pt"
 viewBox="0.00 0.00 683.00 142.00" xmlns="http://www.w3.org/2000/svg" xmlns:xlink="http://www.w3.org/1999/xlink">
<g id="graph0" class="graph" transform="scale(1 1) rotate(0) translate(4 138)">
<title>CoolWifi::connect</title>
<polygon fill="white" stroke="none" points="-4,4 -4,-138 679,-138 679,4 -4,4"/>
<!-- Node8 -->
<g id="node1" class="node"><title>Node8</title>
<polygon fill="#bfbfbf" stroke="black" points="0,-38.5 0,-57.5 95,-57.5 95,-38.5 0,-38.5"/>
<text text-anchor="middle" x="47.5" y="-45.5" font-family="Helvetica,sans-Serif" font-size="10.00">CoolWifi::connect</text>
</g>
<!-- Node9 -->
<g id="node2" class="node"><title>Node9</title>
<g id="a_node2"><a xlink:href="$d7/d29/class_cool_wifi.html#a7c857f27161782f5ef1d62d552aff971" xlink:title="CoolWifi::connectAP">
<polygon fill="white" stroke="black" points="143.5,-57.5 143.5,-76.5 251.5,-76.5 251.5,-57.5 143.5,-57.5"/>
<text text-anchor="middle" x="197.5" y="-64.5" font-family="Helvetica,sans-Serif" font-size="10.00">CoolWifi::connectAP</text>
</a>
</g>
</g>
<!-- Node8&#45;&gt;Node9 -->
<g id="edge1" class="edge"><title>Node8&#45;&gt;Node9</title>
<path fill="none" stroke="midnightblue" d="M95.3281,-54.0117C107.356,-55.5559 120.497,-57.2428 133.206,-58.8745"/>
<polygon fill="midnightblue" stroke="midnightblue" points="132.913,-62.3655 143.278,-60.1674 133.805,-55.4225 132.913,-62.3655"/>
</g>
<!-- Node15 -->
<g id="node8" class="node"><title>Node15</title>
<g id="a_node8"><a xlink:href="$d7/d29/class_cool_wifi.html#a419de92d738f14b7444cf822b3ab0070" xlink:title="CoolWifi::connectWifiMulti">
<polygon fill="white" stroke="black" points="131,-19.5 131,-38.5 264,-38.5 264,-19.5 131,-19.5"/>
<text text-anchor="middle" x="197.5" y="-26.5" font-family="Helvetica,sans-Serif" font-size="10.00">CoolWifi::connectWifiMulti</text>
</a>
</g>
</g>
<!-- Node8&#45;&gt;Node15 -->
<g id="edge7" class="edge"><title>Node8&#45;&gt;Node15</title>
<path fill="none" stroke="midnightblue" d="M95.3281,-41.9883C103.424,-40.949 112.023,-39.845 120.656,-38.7368"/>
<polygon fill="midnightblue" stroke="midnightblue" points="121.304,-42.1823 130.777,-37.4374 120.413,-35.2393 121.304,-42.1823"/>
</g>
<!-- Node10 -->
<g id="node3" class="node"><title>Node10</title>
<g id="a_node3"><a xlink:href="$d4/dc8/class_wi_fi_manager.html#a4dd1dbf4f22900f226a3897b88155212" xlink:title="WiFiManager::setRemoveDuplicateAPs">
<polygon fill="white" stroke="black" points="300,-114.5 300,-133.5 491,-133.5 491,-114.5 300,-114.5"/>
<text text-anchor="middle" x="395.5" y="-121.5" font-family="Helvetica,sans-Serif" font-size="10.00">WiFiManager::setRemoveDuplicateAPs</text>
</a>
</g>
</g>
<!-- Node9&#45;&gt;Node10 -->
<g id="edge2" class="edge"><title>Node9&#45;&gt;Node10</title>
<path fill="none" stroke="midnightblue" d="M221.128,-76.6632C241.471,-85.0621 272.319,-97.0906 300,-105 309.413,-107.69 319.459,-110.142 329.356,-112.326"/>
<polygon fill="midnightblue" stroke="midnightblue" points="328.666,-115.757 339.176,-114.418 330.125,-108.911 328.666,-115.757"/>
</g>
<!-- Node11 -->
<g id="node4" class="node"><title>Node11</title>
<g id="a_node4"><a xlink:href="$d4/dc8/class_wi_fi_manager.html#aa6493d59c284ff245edb767ff684756d" xlink:title="WiFiManager::setTimeout">
<polygon fill="white" stroke="black" points="331,-76.5 331,-95.5 460,-95.5 460,-76.5 331,-76.5"/>
<text text-anchor="middle" x="395.5" y="-83.5" font-family="Helvetica,sans-Serif" font-size="10.00">WiFiManager::setTimeout</text>
</a>
</g>
</g>
<!-- Node9&#45;&gt;Node11 -->
<g id="edge3" class="edge"><title>Node9&#45;&gt;Node11</title>
<path fill="none" stroke="midnightblue" d="M251.54,-72.1417C272.872,-74.2095 297.832,-76.6291 320.873,-78.8627"/>
<polygon fill="midnightblue" stroke="midnightblue" points="320.666,-82.359 330.957,-79.8403 321.342,-75.3916 320.666,-82.359"/>
</g>
<!-- Node13 -->
<g id="node6" class="node"><title>Node13</title>
<g id="a_node6"><a xlink:href="$d4/dc8/class_wi_fi_manager.html#ae3cdfa6b02edcfe63d7da4f696b62136" xlink:title="WiFiManager::autoConnect">
<polygon fill="white" stroke="black" points="327.5,-38.5 327.5,-57.5 463.5,-57.5 463.5,-38.5 327.5,-38.5"/>
<text text-anchor="middle" x="395.5" y="-45.5" font-family="Helvetica,sans-Serif" font-size="10.00">WiFiManager::autoConnect</text>
</a>
</g>
</g>
<!-- Node9&#45;&gt;Node13 -->
<g id="edge5" class="edge"><title>Node9&#45;&gt;Node13</title>
<path fill="none" stroke="midnightblue" d="M251.54,-61.8583C271.793,-59.895 295.317,-57.6147 317.363,-55.4776"/>
<polygon fill="midnightblue" stroke="midnightblue" points="317.756,-58.956 327.371,-54.5074 317.08,-51.9887 317.756,-58.956"/>
</g>
<!-- Node14 -->
<g id="node7" class="node"><title>Node14</title>
<g id="a_node7"><a xlink:href="$d7/d29/class_cool_wifi.html#a914d7a1df14dd6b75345fb614c34e9d6" xlink:title="CoolWifi::addWifi">
<polygon fill="white" stroke="black" points="349,-0.5 349,-19.5 442,-19.5 442,-0.5 349,-0.5"/>
<text text-anchor="middle" x="395.5" y="-7.5" font-family="Helvetica,sans-Serif" font-size="10.00">CoolWifi::addWifi</text>
</a>
</g>
</g>
<!-- Node9&#45;&gt;Node14 -->
<g id="edge6" class="edge"><title>Node9&#45;&gt;Node14</title>
<path fill="none" stroke="midnightblue" d="M236.355,-57.4382C245.528,-54.7345 255.218,-51.5484 264,-48 280.774,-41.2227 282.956,-35.0677 300,-29 312.191,-24.6599 325.639,-21.2082 338.473,-18.5041"/>
<polygon fill="midnightblue" stroke="midnightblue" points="339.472,-21.8742 348.598,-16.4931 338.108,-15.0084 339.472,-21.8742"/>
</g>
<!-- Node12 -->
<g id="node5" class="node"><title>Node12</title>
<g id="a_node5"><a xlink:href="$d4/dc8/class_wi_fi_manager.html#a904006cb4d2c769e93bfdef336853766" xlink:title="WiFiManager::setConfigPortal\lTimeout">
<polygon fill="white" stroke="black" points="527,-71 527,-101 675,-101 675,-71 527,-71"/>
<text text-anchor="start" x="535" y="-89" font-family="Helvetica,sans-Serif" font-size="10.00">WiFiManager::setConfigPortal</text>
<text text-anchor="middle" x="601" y="-78" font-family="Helvetica,sans-Serif" font-size="10.00">Timeout</text>
</a>
</g>
</g>
<!-- Node11&#45;&gt;Node12 -->
<g id="edge4" class="edge"><title>Node11&#45;&gt;Node12</title>
<path fill="none" stroke="midnightblue" d="M460.052,-86C478.043,-86 497.898,-86 516.861,-86"/>
<polygon fill="midnightblue" stroke="midnightblue" points="516.982,-89.5001 526.982,-86 516.982,-82.5001 516.982,-89.5001"/>
</g>
</g>
</svg>
