<?xml version="1.0" encoding="UTF-8" standalone="no"?>
<!DOCTYPE svg PUBLIC "-//W3C//DTD SVG 1.1//EN"
 "http://www.w3.org/Graphics/SVG/1.1/DTD/svg11.dtd">
<!-- Generated by graphviz version 2.38.0 (20140413.2041)
 -->
<!-- Title: CoolWifi::addWifi Pages: 1 -->
<svg width="673pt" height="66pt"
 viewBox="0.00 0.00 673.00 66.00" xmlns="http://www.w3.org/2000/svg" xmlns:xlink="http://www.w3.org/1999/xlink">
<g id="graph0" class="graph" transform="scale(1 1) rotate(0) translate(4 62)">
<title>CoolWifi::addWifi</title>
<polygon fill="white" stroke="none" points="-4,4 -4,-62 669,-62 669,4 -4,4"/>
<!-- Node47 -->
<g id="node1" class="node"><title>Node47</title>
<polygon fill="#bfbfbf" stroke="black" points="0,-19.5 0,-38.5 93,-38.5 93,-19.5 0,-19.5"/>
<text text-anchor="middle" x="46.5" y="-26.5" font-family="Helvetica,sans-Serif" font-size="10.00">CoolWifi::addWifi</text>
</g>
<!-- Node48 -->
<g id="node2" class="node"><title>Node48</title>
<g id="a_node2"><a xlink:href="$d7/d29/class_cool_wifi.html#a7c857f27161782f5ef1d62d552aff971" xlink:title="CoolWifi::connectAP">
<polygon fill="white" stroke="black" points="129,-19.5 129,-38.5 237,-38.5 237,-19.5 129,-19.5"/>
<text text-anchor="middle" x="183" y="-26.5" font-family="Helvetica,sans-Serif" font-size="10.00">CoolWifi::connectAP</text>
</a>
</g>
</g>
<!-- Node47&#45;&gt;Node48 -->
<g id="edge1" class="edge"><title>Node47&#45;&gt;Node48</title>
<path fill="none" stroke="midnightblue" d="M103.147,-29C111.568,-29 120.24,-29 128.613,-29"/>
<polygon fill="midnightblue" stroke="midnightblue" points="103.036,-25.5001 93.0356,-29 103.036,-32.5001 103.036,-25.5001"/>
</g>
<!-- Node49 -->
<g id="node3" class="node"><title>Node49</title>
<g id="a_node3"><a xlink:href="$d7/d29/class_cool_wifi.html#ad060353050f40d032a2dbf9e54a768bf" xlink:title="CoolWifi::connect">
<polygon fill="white" stroke="black" points="273,-38.5 273,-57.5 368,-57.5 368,-38.5 273,-38.5"/>
<text text-anchor="middle" x="320.5" y="-45.5" font-family="Helvetica,sans-Serif" font-size="10.00">CoolWifi::connect</text>
</a>
</g>
</g>
<!-- Node48&#45;&gt;Node49 -->
<g id="edge2" class="edge"><title>Node48&#45;&gt;Node49</title>
<path fill="none" stroke="midnightblue" d="M247.16,-37.8564C255.742,-39.0598 264.423,-40.277 272.648,-41.4303"/>
<polygon fill="midnightblue" stroke="midnightblue" points="247.553,-34.3774 237.164,-36.4548 246.581,-41.3096 247.553,-34.3774"/>
</g>
<!-- Node52 -->
<g id="node6" class="node"><title>Node52</title>
<g id="a_node6"><a xlink:href="$d7/df9/class_cool_board.html#ae6b5e1274d760462290192acea4adca8" xlink:title="CoolBoard::offLineMode">
<polygon fill="white" stroke="black" points="543,-0.5 543,-19.5 665,-19.5 665,-0.5 543,-0.5"/>
<text text-anchor="middle" x="604" y="-7.5" font-family="Helvetica,sans-Serif" font-size="10.00">CoolBoard::offLineMode</text>
</a>
</g>
</g>
<!-- Node48&#45;&gt;Node52 -->
<g id="edge6" class="edge"><title>Node48&#45;&gt;Node52</title>
<path fill="none" stroke="midnightblue" d="M247.507,-26.1202C327.643,-22.4863 464.454,-16.2825 542.929,-12.724"/>
<polygon fill="midnightblue" stroke="midnightblue" points="246.898,-22.6441 237.067,-26.5936 247.215,-29.637 246.898,-22.6441"/>
</g>
<!-- Node50 -->
<g id="node4" class="node"><title>Node50</title>
<g id="a_node4"><a xlink:href="$d7/df9/class_cool_board.html#a519de78b807f8ec6463ff484eb925918" xlink:title="CoolBoard::connect">
<polygon fill="white" stroke="black" points="404,-38.5 404,-57.5 507,-57.5 507,-38.5 404,-38.5"/>
<text text-anchor="middle" x="455.5" y="-45.5" font-family="Helvetica,sans-Serif" font-size="10.00">CoolBoard::connect</text>
</a>
</g>
</g>
<!-- Node49&#45;&gt;Node50 -->
<g id="edge3" class="edge"><title>Node49&#45;&gt;Node50</title>
<path fill="none" stroke="midnightblue" d="M378.204,-48C386.676,-48 395.364,-48 403.703,-48"/>
<polygon fill="midnightblue" stroke="midnightblue" points="378.017,-44.5001 368.017,-48 378.017,-51.5001 378.017,-44.5001"/>
</g>
<!-- Node51 -->
<g id="node5" class="node"><title>Node51</title>
<g id="a_node5"><a xlink:href="$d7/df9/class_cool_board.html#acba7c5aef7268b2c0044bdb54d3b9d76" xlink:title="CoolBoard::begin">
<polygon fill="white" stroke="black" points="558,-38.5 558,-57.5 650,-57.5 650,-38.5 558,-38.5"/>
<text text-anchor="middle" x="604" y="-45.5" font-family="Helvetica,sans-Serif" font-size="10.00">CoolBoard::begin</text>
</a>
</g>
</g>
<!-- Node50&#45;&gt;Node51 -->
<g id="edge4" class="edge"><title>Node50&#45;&gt;Node51</title>
<path fill="none" stroke="midnightblue" d="M517.472,-48C530.924,-48 544.944,-48 557.648,-48"/>
<polygon fill="midnightblue" stroke="midnightblue" points="517.327,-44.5001 507.327,-48 517.327,-51.5001 517.327,-44.5001"/>
</g>
<!-- Node50&#45;&gt;Node52 -->
<g id="edge5" class="edge"><title>Node50&#45;&gt;Node52</title>
<path fill="none" stroke="midnightblue" d="M503.195,-35.8879C523.599,-30.5956 547.181,-24.4787 566.298,-19.5201"/>
<polygon fill="midnightblue" stroke="midnightblue" points="502.269,-32.5123 493.468,-38.411 504.027,-39.288 502.269,-32.5123"/>
</g>
</g>
</svg>
