<?xml version="1.0" encoding="UTF-8" standalone="no"?>
<!DOCTYPE svg PUBLIC "-//W3C//DTD SVG 1.1//EN"
 "http://www.w3.org/Graphics/SVG/1.1/DTD/svg11.dtd">
<!-- Generated by graphviz version 2.38.0 (20140413.2041)
 -->
<!-- Title: Irene3000::readButton Pages: 1 -->
<svg width="560pt" height="107pt"
 viewBox="0.00 0.00 560.00 107.00" xmlns="http://www.w3.org/2000/svg" xmlns:xlink="http://www.w3.org/1999/xlink">
<g id="graph0" class="graph" transform="scale(1 1) rotate(0) translate(4 103)">
<title>Irene3000::readButton</title>
<polygon fill="white" stroke="none" points="-4,4 -4,-103 556,-103 556,4 -4,4"/>
<!-- Node38 -->
<g id="node1" class="node"><title>Node38</title>
<polygon fill="#bfbfbf" stroke="black" points="0,-22.5 0,-41.5 113,-41.5 113,-22.5 0,-22.5"/>
<text text-anchor="middle" x="56.5" y="-29.5" font-family="Helvetica,sans-Serif" font-size="10.00">Irene3000::readButton</text>
</g>
<!-- Node39 -->
<g id="node2" class="node"><title>Node39</title>
<g id="a_node2"><a xlink:href="$df/df6/class_adafruit___a_d_s1015.html#a40f38b9e1f3ec397c0670dd632510235" xlink:title="Gets a single&#45;ended ADC reading from the specified channel. ">
<polygon fill="white" stroke="black" points="149,-39 149,-69 293,-69 293,-39 149,-39"/>
<text text-anchor="start" x="157" y="-57" font-family="Helvetica,sans-Serif" font-size="10.00">Adafruit_ADS1015::readADC</text>
<text text-anchor="middle" x="221" y="-46" font-family="Helvetica,sans-Serif" font-size="10.00">_SingleEnded</text>
</a>
</g>
</g>
<!-- Node38&#45;&gt;Node39 -->
<g id="edge1" class="edge"><title>Node38&#45;&gt;Node39</title>
<path fill="none" stroke="midnightblue" d="M113.423,-39.5712C121.606,-40.6789 130.169,-41.8382 138.732,-42.9976"/>
<polygon fill="midnightblue" stroke="midnightblue" points="138.383,-46.4821 148.762,-44.3555 139.322,-39.5454 138.383,-46.4821"/>
</g>
<!-- Node44 -->
<g id="node7" class="node"><title>Node44</title>
<g id="a_node7"><a xlink:href="$d6/d03/class_irene3000.html#aff7c5da186b388e7272e63ff88a20c34" xlink:title="Irene3000::setGain">
<polygon fill="white" stroke="black" points="171.5,-0.5 171.5,-19.5 270.5,-19.5 270.5,-0.5 171.5,-0.5"/>
<text text-anchor="middle" x="221" y="-7.5" font-family="Helvetica,sans-Serif" font-size="10.00">Irene3000::setGain</text>
</a>
</g>
</g>
<!-- Node38&#45;&gt;Node44 -->
<g id="edge7" class="edge"><title>Node38&#45;&gt;Node44</title>
<path fill="none" stroke="midnightblue" d="M113.423,-24.4288C128.862,-22.3387 145.656,-20.065 161.25,-17.9538"/>
<polygon fill="midnightblue" stroke="midnightblue" points="161.858,-21.4036 171.298,-16.5935 160.919,-14.4668 161.858,-21.4036"/>
</g>
<!-- Node40 -->
<g id="node3" class="node"><title>Node40</title>
<g id="a_node3"><a xlink:href="$d8/daa/_cool_adafruit___a_d_s1015_8cpp.html#a319539381b7551b2f83a92b0b596e97d" xlink:title="Writes 16&#45;bits to the specified destination register. ">
<polygon fill="white" stroke="black" points="361.5,-79.5 361.5,-98.5 433.5,-98.5 433.5,-79.5 361.5,-79.5"/>
<text text-anchor="middle" x="397.5" y="-86.5" font-family="Helvetica,sans-Serif" font-size="10.00">readRegister</text>
</a>
</g>
</g>
<!-- Node39&#45;&gt;Node40 -->
<g id="edge2" class="edge"><title>Node39&#45;&gt;Node40</title>
<path fill="none" stroke="midnightblue" d="M293.228,-68.2863C312.765,-72.205 333.412,-76.3462 351.067,-79.8874"/>
<polygon fill="midnightblue" stroke="midnightblue" points="350.592,-83.3618 361.085,-81.8968 351.969,-76.4985 350.592,-83.3618"/>
</g>
<!-- Node43 -->
<g id="node6" class="node"><title>Node43</title>
<g id="a_node6"><a xlink:href="$d8/daa/_cool_adafruit___a_d_s1015_8cpp.html#a00ef55774dfb93dd0a7bf561d8451b71" xlink:title="Writes 16&#45;bits to the specified destination register. ">
<polygon fill="white" stroke="black" points="360.5,-41.5 360.5,-60.5 434.5,-60.5 434.5,-41.5 360.5,-41.5"/>
<text text-anchor="middle" x="397.5" y="-48.5" font-family="Helvetica,sans-Serif" font-size="10.00">writeRegister</text>
</a>
</g>
</g>
<!-- Node39&#45;&gt;Node43 -->
<g id="edge5" class="edge"><title>Node39&#45;&gt;Node43</title>
<path fill="none" stroke="midnightblue" d="M293.228,-52.7755C312.27,-52.4481 332.367,-52.1026 349.72,-51.8042"/>
<polygon fill="midnightblue" stroke="midnightblue" points="350.198,-55.2966 360.136,-51.6252 350.078,-48.2977 350.198,-55.2966"/>
</g>
<!-- Node41 -->
<g id="node4" class="node"><title>Node41</title>
<g id="a_node4"><a xlink:href="$d8/daa/_cool_adafruit___a_d_s1015_8cpp.html#af89e2442d757f6ec8100c473022f6701" xlink:title="Abstract away platform differences in Arduino wire library. ">
<polygon fill="white" stroke="black" points="503,-79.5 503,-98.5 551,-98.5 551,-79.5 503,-79.5"/>
<text text-anchor="middle" x="527" y="-86.5" font-family="Helvetica,sans-Serif" font-size="10.00">i2cread</text>
</a>
</g>
</g>
<!-- Node40&#45;&gt;Node41 -->
<g id="edge3" class="edge"><title>Node40&#45;&gt;Node41</title>
<path fill="none" stroke="midnightblue" d="M433.677,-89C452.162,-89 474.688,-89 492.862,-89"/>
<polygon fill="midnightblue" stroke="midnightblue" points="492.996,-92.5001 502.996,-89 492.996,-85.5001 492.996,-92.5001"/>
</g>
<!-- Node42 -->
<g id="node5" class="node"><title>Node42</title>
<g id="a_node5"><a xlink:href="$d8/daa/_cool_adafruit___a_d_s1015_8cpp.html#a6db5edba66e20bba6d5b421c2789af54" xlink:title="Abstract away platform differences in Arduino wire library. ">
<polygon fill="white" stroke="black" points="502,-41.5 502,-60.5 552,-60.5 552,-41.5 502,-41.5"/>
<text text-anchor="middle" x="527" y="-48.5" font-family="Helvetica,sans-Serif" font-size="10.00">i2cwrite</text>
</a>
</g>
</g>
<!-- Node40&#45;&gt;Node42 -->
<g id="edge4" class="edge"><title>Node40&#45;&gt;Node42</title>
<path fill="none" stroke="midnightblue" d="M433.248,-79.4506C443.788,-76.4917 455.386,-73.1735 466,-70 474.502,-67.4579 483.649,-64.6163 492.176,-61.9213"/>
<polygon fill="midnightblue" stroke="midnightblue" points="493.356,-65.2187 501.824,-58.8515 491.234,-58.5481 493.356,-65.2187"/>
</g>
<!-- Node43&#45;&gt;Node42 -->
<g id="edge6" class="edge"><title>Node43&#45;&gt;Node42</title>
<path fill="none" stroke="midnightblue" d="M434.695,-51C452.498,-51 473.851,-51 491.43,-51"/>
<polygon fill="midnightblue" stroke="midnightblue" points="491.821,-54.5001 501.821,-51 491.821,-47.5001 491.821,-54.5001"/>
</g>
<!-- Node45 -->
<g id="node8" class="node"><title>Node45</title>
<g id="a_node8"><a xlink:href="$df/df6/class_adafruit___a_d_s1015.html#a399441eace686975ff22937cbe45cc50" xlink:title="Sets the gain and input voltage range. ">
<polygon fill="white" stroke="black" points="329,-0.5 329,-19.5 466,-19.5 466,-0.5 329,-0.5"/>
<text text-anchor="middle" x="397.5" y="-7.5" font-family="Helvetica,sans-Serif" font-size="10.00">Adafruit_ADS1015::setGain</text>
</a>
</g>
</g>
<!-- Node44&#45;&gt;Node45 -->
<g id="edge8" class="edge"><title>Node44&#45;&gt;Node45</title>
<path fill="none" stroke="midnightblue" d="M270.608,-10C285.557,-10 302.402,-10 318.793,-10"/>
<polygon fill="midnightblue" stroke="midnightblue" points="318.919,-13.5001 328.919,-10 318.919,-6.5001 318.919,-13.5001"/>
</g>
</g>
</svg>
