<?xml version="1.0" encoding="UTF-8" standalone="no"?>
<!DOCTYPE svg PUBLIC "-//W3C//DTD SVG 1.1//EN"
 "http://www.w3.org/Graphics/SVG/1.1/DTD/svg11.dtd">
<!-- Generated by graphviz version 2.38.0 (20140413.2041)
 -->
<!-- Title: Irene3000::calcpHSlope Pages: 1 -->
<svg width="576pt" height="66pt"
 viewBox="0.00 0.00 576.00 66.00" xmlns="http://www.w3.org/2000/svg" xmlns:xlink="http://www.w3.org/1999/xlink">
<g id="graph0" class="graph" transform="scale(1 1) rotate(0) translate(4 62)">
<title>Irene3000::calcpHSlope</title>
<polygon fill="white" stroke="none" points="-4,4 -4,-62 572,-62 572,4 -4,4"/>
<!-- Node135 -->
<g id="node1" class="node"><title>Node135</title>
<polygon fill="#bfbfbf" stroke="black" points="0,-19.5 0,-38.5 121,-38.5 121,-19.5 0,-19.5"/>
<text text-anchor="middle" x="60.5" y="-26.5" font-family="Helvetica,sans-Serif" font-size="10.00">Irene3000::calcpHSlope</text>
</g>
<!-- Node136 -->
<g id="node2" class="node"><title>Node136</title>
<g id="a_node2"><a xlink:href="$d6/d03/class_irene3000.html#aa140dd026922a04981edfd04d46cabbe" xlink:title="Irene3000::calibratepH4">
<polygon fill="white" stroke="black" points="157,-38.5 157,-57.5 277,-57.5 277,-38.5 157,-38.5"/>
<text text-anchor="middle" x="217" y="-45.5" font-family="Helvetica,sans-Serif" font-size="10.00">Irene3000::calibratepH4</text>
</a>
</g>
</g>
<!-- Node135&#45;&gt;Node136 -->
<g id="edge1" class="edge"><title>Node135&#45;&gt;Node136</title>
<path fill="none" stroke="midnightblue" d="M131.23,-37.5752C139.816,-38.6311 148.527,-39.7024 156.934,-40.7362"/>
<polygon fill="midnightblue" stroke="midnightblue" points="131.586,-34.0927 121.234,-36.3459 130.732,-41.0404 131.586,-34.0927"/>
</g>
<!-- Node141 -->
<g id="node7" class="node"><title>Node141</title>
<g id="a_node7"><a xlink:href="$d6/d03/class_irene3000.html#a1d3299202e4cb7afcff9c9e3e95d94c1" xlink:title="Irene3000::calibratepH7">
<polygon fill="white" stroke="black" points="157,-0.5 157,-19.5 277,-19.5 277,-0.5 157,-0.5"/>
<text text-anchor="middle" x="217" y="-7.5" font-family="Helvetica,sans-Serif" font-size="10.00">Irene3000::calibratepH7</text>
</a>
</g>
</g>
<!-- Node135&#45;&gt;Node141 -->
<g id="edge6" class="edge"><title>Node135&#45;&gt;Node141</title>
<path fill="none" stroke="midnightblue" d="M131.23,-20.4248C139.816,-19.3689 148.527,-18.2976 156.934,-17.2638"/>
<polygon fill="midnightblue" stroke="midnightblue" points="130.732,-16.9596 121.234,-21.6541 131.586,-23.9073 130.732,-16.9596"/>
</g>
<!-- Node137 -->
<g id="node3" class="node"><title>Node137</title>
<g id="a_node3"><a xlink:href="$d6/d03/class_irene3000.html#ad5891806c500ae1007afe52b9e304c2b" xlink:title="Irene3000::begin">
<polygon fill="white" stroke="black" points="317.5,-38.5 317.5,-57.5 406.5,-57.5 406.5,-38.5 317.5,-38.5"/>
<text text-anchor="middle" x="362" y="-45.5" font-family="Helvetica,sans-Serif" font-size="10.00">Irene3000::begin</text>
</a>
</g>
</g>
<!-- Node136&#45;&gt;Node137 -->
<g id="edge2" class="edge"><title>Node136&#45;&gt;Node137</title>
<path fill="none" stroke="midnightblue" d="M287.495,-48C297.636,-48 307.83,-48 317.262,-48"/>
<polygon fill="midnightblue" stroke="midnightblue" points="287.403,-44.5001 277.403,-48 287.403,-51.5001 287.403,-44.5001"/>
</g>
<!-- Node139 -->
<g id="node5" class="node"><title>Node139</title>
<g id="a_node5"><a xlink:href="$d7/df9/class_cool_board.html#a8612756d3f73198cdde857a66f0fe690" xlink:title="CoolBoard::update">
<polygon fill="white" stroke="black" points="313,-0.5 313,-19.5 411,-19.5 411,-0.5 313,-0.5"/>
<text text-anchor="middle" x="362" y="-7.5" font-family="Helvetica,sans-Serif" font-size="10.00">CoolBoard::update</text>
</a>
</g>
</g>
<!-- Node136&#45;&gt;Node139 -->
<g id="edge4" class="edge"><title>Node136&#45;&gt;Node139</title>
<path fill="none" stroke="midnightblue" d="M263.813,-35.8258C283.587,-30.5713 306.384,-24.5134 324.927,-19.5859"/>
<polygon fill="midnightblue" stroke="midnightblue" points="262.851,-32.4601 254.085,-38.411 264.648,-39.2253 262.851,-32.4601"/>
</g>
<!-- Node138 -->
<g id="node4" class="node"><title>Node138</title>
<g id="a_node4"><a xlink:href="$d7/df9/class_cool_board.html#acba7c5aef7268b2c0044bdb54d3b9d76" xlink:title="CoolBoard::begin">
<polygon fill="white" stroke="black" points="461.5,-38.5 461.5,-57.5 553.5,-57.5 553.5,-38.5 461.5,-38.5"/>
<text text-anchor="middle" x="507.5" y="-45.5" font-family="Helvetica,sans-Serif" font-size="10.00">CoolBoard::begin</text>
</a>
</g>
</g>
<!-- Node137&#45;&gt;Node138 -->
<g id="edge3" class="edge"><title>Node137&#45;&gt;Node138</title>
<path fill="none" stroke="midnightblue" d="M417.233,-48C431.814,-48 447.424,-48 461.446,-48"/>
<polygon fill="midnightblue" stroke="midnightblue" points="416.834,-44.5001 406.834,-48 416.834,-51.5001 416.834,-44.5001"/>
</g>
<!-- Node140 -->
<g id="node6" class="node"><title>Node140</title>
<g id="a_node6"><a xlink:href="$d7/df9/class_cool_board.html#aa0bbc4bc605e35618d18e68795c61363" xlink:title="CoolBoard::onLineMode">
<polygon fill="white" stroke="black" points="447,-0.5 447,-19.5 568,-19.5 568,-0.5 447,-0.5"/>
<text text-anchor="middle" x="507.5" y="-7.5" font-family="Helvetica,sans-Serif" font-size="10.00">CoolBoard::onLineMode</text>
</a>
</g>
</g>
<!-- Node139&#45;&gt;Node140 -->
<g id="edge5" class="edge"><title>Node139&#45;&gt;Node140</title>
<path fill="none" stroke="midnightblue" d="M421.332,-10C429.785,-10 438.496,-10 446.972,-10"/>
<polygon fill="midnightblue" stroke="midnightblue" points="421.183,-6.5001 411.183,-10 421.183,-13.5001 421.183,-6.5001"/>
</g>
<!-- Node141&#45;&gt;Node137 -->
<g id="edge7" class="edge"><title>Node141&#45;&gt;Node137</title>
<path fill="none" stroke="midnightblue" d="M263.813,-22.1742C283.587,-27.4287 306.384,-33.4866 324.927,-38.4141"/>
<polygon fill="midnightblue" stroke="midnightblue" points="264.648,-18.7747 254.085,-19.589 262.851,-25.5399 264.648,-18.7747"/>
</g>
<!-- Node141&#45;&gt;Node139 -->
<g id="edge8" class="edge"><title>Node141&#45;&gt;Node139</title>
<path fill="none" stroke="midnightblue" d="M287.451,-10C296.052,-10 304.693,-10 312.875,-10"/>
<polygon fill="midnightblue" stroke="midnightblue" points="287.403,-6.5001 277.403,-10 287.403,-13.5001 287.403,-6.5001"/>
</g>
</g>
</svg>
