<?xml version="1.0" encoding="UTF-8" standalone="no"?>
<!DOCTYPE svg PUBLIC "-//W3C//DTD SVG 1.1//EN"
 "http://www.w3.org/Graphics/SVG/1.1/DTD/svg11.dtd">
<!-- Generated by graphviz version 2.38.0 (20140413.2041)
 -->
<!-- Title: Irene3000::readTemp Pages: 1 -->
<svg width="556pt" height="107pt"
 viewBox="0.00 0.00 556.00 107.00" xmlns="http://www.w3.org/2000/svg" xmlns:xlink="http://www.w3.org/1999/xlink">
<g id="graph0" class="graph" transform="scale(1 1) rotate(0) translate(4 103)">
<title>Irene3000::readTemp</title>
<polygon fill="white" stroke="none" points="-4,4 -4,-103 552,-103 552,4 -4,4"/>
<!-- Node91 -->
<g id="node1" class="node"><title>Node91</title>
<polygon fill="#bfbfbf" stroke="black" points="0,-22.5 0,-41.5 109,-41.5 109,-22.5 0,-22.5"/>
<text text-anchor="middle" x="54.5" y="-29.5" font-family="Helvetica,sans-Serif" font-size="10.00">Irene3000::readTemp</text>
</g>
<!-- Node92 -->
<g id="node2" class="node"><title>Node92</title>
<g id="a_node2"><a xlink:href="$df/df6/class_adafruit___a_d_s1015.html#a40f38b9e1f3ec397c0670dd632510235" xlink:title="Gets a single&#45;ended ADC reading from the specified channel. ">
<polygon fill="white" stroke="black" points="145,-39 145,-69 289,-69 289,-39 145,-39"/>
<text text-anchor="start" x="153" y="-57" font-family="Helvetica,sans-Serif" font-size="10.00">Adafruit_ADS1015::readADC</text>
<text text-anchor="middle" x="217" y="-46" font-family="Helvetica,sans-Serif" font-size="10.00">_SingleEnded</text>
</a>
</g>
</g>
<!-- Node91&#45;&gt;Node92 -->
<g id="edge1" class="edge"><title>Node91&#45;&gt;Node92</title>
<path fill="none" stroke="midnightblue" d="M109.391,-39.3869C117.573,-40.5084 126.166,-41.6863 134.774,-42.8662"/>
<polygon fill="midnightblue" stroke="midnightblue" points="134.479,-46.3585 144.862,-44.249 135.43,-39.4233 134.479,-46.3585"/>
</g>
<!-- Node97 -->
<g id="node7" class="node"><title>Node97</title>
<g id="a_node7"><a xlink:href="$d6/d03/class_irene3000.html#aff7c5da186b388e7272e63ff88a20c34" xlink:title="Irene3000::setGain">
<polygon fill="white" stroke="black" points="167.5,-0.5 167.5,-19.5 266.5,-19.5 266.5,-0.5 167.5,-0.5"/>
<text text-anchor="middle" x="217" y="-7.5" font-family="Helvetica,sans-Serif" font-size="10.00">Irene3000::setGain</text>
</a>
</g>
</g>
<!-- Node91&#45;&gt;Node97 -->
<g id="edge7" class="edge"><title>Node91&#45;&gt;Node97</title>
<path fill="none" stroke="midnightblue" d="M109.391,-24.6131C124.78,-22.5037 141.624,-20.1949 157.286,-18.0481"/>
<polygon fill="midnightblue" stroke="midnightblue" points="157.948,-21.4901 167.38,-16.6644 156.997,-14.5549 157.948,-21.4901"/>
</g>
<!-- Node93 -->
<g id="node3" class="node"><title>Node93</title>
<g id="a_node3"><a xlink:href="$d8/daa/_cool_adafruit___a_d_s1015_8cpp.html#a319539381b7551b2f83a92b0b596e97d" xlink:title="Writes 16&#45;bits to the specified destination register. ">
<polygon fill="white" stroke="black" points="357.5,-79.5 357.5,-98.5 429.5,-98.5 429.5,-79.5 357.5,-79.5"/>
<text text-anchor="middle" x="393.5" y="-86.5" font-family="Helvetica,sans-Serif" font-size="10.00">readRegister</text>
</a>
</g>
</g>
<!-- Node92&#45;&gt;Node93 -->
<g id="edge2" class="edge"><title>Node92&#45;&gt;Node93</title>
<path fill="none" stroke="midnightblue" d="M289.228,-68.2863C308.765,-72.205 329.412,-76.3462 347.067,-79.8874"/>
<polygon fill="midnightblue" stroke="midnightblue" points="346.592,-83.3618 357.085,-81.8968 347.969,-76.4985 346.592,-83.3618"/>
</g>
<!-- Node96 -->
<g id="node6" class="node"><title>Node96</title>
<g id="a_node6"><a xlink:href="$d8/daa/_cool_adafruit___a_d_s1015_8cpp.html#a00ef55774dfb93dd0a7bf561d8451b71" xlink:title="Writes 16&#45;bits to the specified destination register. ">
<polygon fill="white" stroke="black" points="356.5,-41.5 356.5,-60.5 430.5,-60.5 430.5,-41.5 356.5,-41.5"/>
<text text-anchor="middle" x="393.5" y="-48.5" font-family="Helvetica,sans-Serif" font-size="10.00">writeRegister</text>
</a>
</g>
</g>
<!-- Node92&#45;&gt;Node96 -->
<g id="edge5" class="edge"><title>Node92&#45;&gt;Node96</title>
<path fill="none" stroke="midnightblue" d="M289.228,-52.7755C308.27,-52.4481 328.367,-52.1026 345.72,-51.8042"/>
<polygon fill="midnightblue" stroke="midnightblue" points="346.198,-55.2966 356.136,-51.6252 346.078,-48.2977 346.198,-55.2966"/>
</g>
<!-- Node94 -->
<g id="node4" class="node"><title>Node94</title>
<g id="a_node4"><a xlink:href="$d8/daa/_cool_adafruit___a_d_s1015_8cpp.html#af89e2442d757f6ec8100c473022f6701" xlink:title="Abstract away platform differences in Arduino wire library. ">
<polygon fill="white" stroke="black" points="499,-79.5 499,-98.5 547,-98.5 547,-79.5 499,-79.5"/>
<text text-anchor="middle" x="523" y="-86.5" font-family="Helvetica,sans-Serif" font-size="10.00">i2cread</text>
</a>
</g>
</g>
<!-- Node93&#45;&gt;Node94 -->
<g id="edge3" class="edge"><title>Node93&#45;&gt;Node94</title>
<path fill="none" stroke="midnightblue" d="M429.677,-89C448.162,-89 470.688,-89 488.862,-89"/>
<polygon fill="midnightblue" stroke="midnightblue" points="488.996,-92.5001 498.996,-89 488.996,-85.5001 488.996,-92.5001"/>
</g>
<!-- Node95 -->
<g id="node5" class="node"><title>Node95</title>
<g id="a_node5"><a xlink:href="$d8/daa/_cool_adafruit___a_d_s1015_8cpp.html#a6db5edba66e20bba6d5b421c2789af54" xlink:title="Abstract away platform differences in Arduino wire library. ">
<polygon fill="white" stroke="black" points="498,-41.5 498,-60.5 548,-60.5 548,-41.5 498,-41.5"/>
<text text-anchor="middle" x="523" y="-48.5" font-family="Helvetica,sans-Serif" font-size="10.00">i2cwrite</text>
</a>
</g>
</g>
<!-- Node93&#45;&gt;Node95 -->
<g id="edge4" class="edge"><title>Node93&#45;&gt;Node95</title>
<path fill="none" stroke="midnightblue" d="M429.248,-79.4506C439.788,-76.4917 451.386,-73.1735 462,-70 470.502,-67.4579 479.649,-64.6163 488.176,-61.9213"/>
<polygon fill="midnightblue" stroke="midnightblue" points="489.356,-65.2187 497.824,-58.8515 487.234,-58.5481 489.356,-65.2187"/>
</g>
<!-- Node96&#45;&gt;Node95 -->
<g id="edge6" class="edge"><title>Node96&#45;&gt;Node95</title>
<path fill="none" stroke="midnightblue" d="M430.695,-51C448.498,-51 469.851,-51 487.43,-51"/>
<polygon fill="midnightblue" stroke="midnightblue" points="487.821,-54.5001 497.821,-51 487.821,-47.5001 487.821,-54.5001"/>
</g>
<!-- Node98 -->
<g id="node8" class="node"><title>Node98</title>
<g id="a_node8"><a xlink:href="$df/df6/class_adafruit___a_d_s1015.html#a399441eace686975ff22937cbe45cc50" xlink:title="Sets the gain and input voltage range. ">
<polygon fill="white" stroke="black" points="325,-0.5 325,-19.5 462,-19.5 462,-0.5 325,-0.5"/>
<text text-anchor="middle" x="393.5" y="-7.5" font-family="Helvetica,sans-Serif" font-size="10.00">Adafruit_ADS1015::setGain</text>
</a>
</g>
</g>
<!-- Node97&#45;&gt;Node98 -->
<g id="edge8" class="edge"><title>Node97&#45;&gt;Node98</title>
<path fill="none" stroke="midnightblue" d="M266.608,-10C281.557,-10 298.402,-10 314.793,-10"/>
<polygon fill="midnightblue" stroke="midnightblue" points="314.919,-13.5001 324.919,-10 314.919,-6.5001 314.919,-13.5001"/>
</g>
</g>
</svg>
