<?xml version="1.0" encoding="UTF-8" standalone="no"?>
<!DOCTYPE svg PUBLIC "-//W3C//DTD SVG 1.1//EN"
 "http://www.w3.org/Graphics/SVG/1.1/DTD/svg11.dtd">
<!-- Generated by graphviz version 2.38.0 (20140413.2041)
 -->
<!-- Title: Irene3000::readADSChannel2 Pages: 1 -->
<svg width="593pt" height="107pt"
 viewBox="0.00 0.00 593.00 107.00" xmlns="http://www.w3.org/2000/svg" xmlns:xlink="http://www.w3.org/1999/xlink">
<g id="graph0" class="graph" transform="scale(1 1) rotate(0) translate(4 103)">
<title>Irene3000::readADSChannel2</title>
<polygon fill="white" stroke="none" points="-4,4 -4,-103 589,-103 589,4 -4,4"/>
<!-- Node65 -->
<g id="node1" class="node"><title>Node65</title>
<polygon fill="#bfbfbf" stroke="black" points="0,-22.5 0,-41.5 146,-41.5 146,-22.5 0,-22.5"/>
<text text-anchor="middle" x="73" y="-29.5" font-family="Helvetica,sans-Serif" font-size="10.00">Irene3000::readADSChannel2</text>
</g>
<!-- Node66 -->
<g id="node2" class="node"><title>Node66</title>
<g id="a_node2"><a xlink:href="$df/df6/class_adafruit___a_d_s1015.html#a40f38b9e1f3ec397c0670dd632510235" xlink:title="Gets a single&#45;ended ADC reading from the specified channel. ">
<polygon fill="white" stroke="black" points="182,-39 182,-69 326,-69 326,-39 182,-39"/>
<text text-anchor="start" x="190" y="-57" font-family="Helvetica,sans-Serif" font-size="10.00">Adafruit_ADS1015::readADC</text>
<text text-anchor="middle" x="254" y="-46" font-family="Helvetica,sans-Serif" font-size="10.00">_SingleEnded</text>
</a>
</g>
</g>
<!-- Node65&#45;&gt;Node66 -->
<g id="edge1" class="edge"><title>Node65&#45;&gt;Node66</title>
<path fill="none" stroke="midnightblue" d="M146.032,-40.8531C154.551,-41.9001 163.289,-42.9741 171.922,-44.0351"/>
<polygon fill="midnightblue" stroke="midnightblue" points="171.636,-47.5262 181.988,-45.2723 172.49,-40.5785 171.636,-47.5262"/>
</g>
<!-- Node71 -->
<g id="node7" class="node"><title>Node71</title>
<g id="a_node7"><a xlink:href="$d6/d03/class_irene3000.html#aff7c5da186b388e7272e63ff88a20c34" xlink:title="Irene3000::setGain">
<polygon fill="white" stroke="black" points="204.5,-0.5 204.5,-19.5 303.5,-19.5 303.5,-0.5 204.5,-0.5"/>
<text text-anchor="middle" x="254" y="-7.5" font-family="Helvetica,sans-Serif" font-size="10.00">Irene3000::setGain</text>
</a>
</g>
</g>
<!-- Node65&#45;&gt;Node71 -->
<g id="edge7" class="edge"><title>Node65&#45;&gt;Node71</title>
<path fill="none" stroke="midnightblue" d="M146.032,-23.1469C162.13,-21.1684 179.012,-19.0935 194.485,-17.1918"/>
<polygon fill="midnightblue" stroke="midnightblue" points="194.928,-20.6638 204.426,-15.9699 194.074,-13.716 194.928,-20.6638"/>
</g>
<!-- Node67 -->
<g id="node3" class="node"><title>Node67</title>
<g id="a_node3"><a xlink:href="$d8/daa/_cool_adafruit___a_d_s1015_8cpp.html#a319539381b7551b2f83a92b0b596e97d" xlink:title="Writes 16&#45;bits to the specified destination register. ">
<polygon fill="white" stroke="black" points="394.5,-79.5 394.5,-98.5 466.5,-98.5 466.5,-79.5 394.5,-79.5"/>
<text text-anchor="middle" x="430.5" y="-86.5" font-family="Helvetica,sans-Serif" font-size="10.00">readRegister</text>
</a>
</g>
</g>
<!-- Node66&#45;&gt;Node67 -->
<g id="edge2" class="edge"><title>Node66&#45;&gt;Node67</title>
<path fill="none" stroke="midnightblue" d="M326.228,-68.2863C345.765,-72.205 366.412,-76.3462 384.067,-79.8874"/>
<polygon fill="midnightblue" stroke="midnightblue" points="383.592,-83.3618 394.085,-81.8968 384.969,-76.4985 383.592,-83.3618"/>
</g>
<!-- Node70 -->
<g id="node6" class="node"><title>Node70</title>
<g id="a_node6"><a xlink:href="$d8/daa/_cool_adafruit___a_d_s1015_8cpp.html#a00ef55774dfb93dd0a7bf561d8451b71" xlink:title="Writes 16&#45;bits to the specified destination register. ">
<polygon fill="white" stroke="black" points="393.5,-41.5 393.5,-60.5 467.5,-60.5 467.5,-41.5 393.5,-41.5"/>
<text text-anchor="middle" x="430.5" y="-48.5" font-family="Helvetica,sans-Serif" font-size="10.00">writeRegister</text>
</a>
</g>
</g>
<!-- Node66&#45;&gt;Node70 -->
<g id="edge5" class="edge"><title>Node66&#45;&gt;Node70</title>
<path fill="none" stroke="midnightblue" d="M326.228,-52.7755C345.27,-52.4481 365.367,-52.1026 382.72,-51.8042"/>
<polygon fill="midnightblue" stroke="midnightblue" points="383.198,-55.2966 393.136,-51.6252 383.078,-48.2977 383.198,-55.2966"/>
</g>
<!-- Node68 -->
<g id="node4" class="node"><title>Node68</title>
<g id="a_node4"><a xlink:href="$d8/daa/_cool_adafruit___a_d_s1015_8cpp.html#af89e2442d757f6ec8100c473022f6701" xlink:title="Abstract away platform differences in Arduino wire library. ">
<polygon fill="white" stroke="black" points="536,-79.5 536,-98.5 584,-98.5 584,-79.5 536,-79.5"/>
<text text-anchor="middle" x="560" y="-86.5" font-family="Helvetica,sans-Serif" font-size="10.00">i2cread</text>
</a>
</g>
</g>
<!-- Node67&#45;&gt;Node68 -->
<g id="edge3" class="edge"><title>Node67&#45;&gt;Node68</title>
<path fill="none" stroke="midnightblue" d="M466.677,-89C485.162,-89 507.688,-89 525.862,-89"/>
<polygon fill="midnightblue" stroke="midnightblue" points="525.996,-92.5001 535.996,-89 525.996,-85.5001 525.996,-92.5001"/>
</g>
<!-- Node69 -->
<g id="node5" class="node"><title>Node69</title>
<g id="a_node5"><a xlink:href="$d8/daa/_cool_adafruit___a_d_s1015_8cpp.html#a6db5edba66e20bba6d5b421c2789af54" xlink:title="Abstract away platform differences in Arduino wire library. ">
<polygon fill="white" stroke="black" points="535,-41.5 535,-60.5 585,-60.5 585,-41.5 535,-41.5"/>
<text text-anchor="middle" x="560" y="-48.5" font-family="Helvetica,sans-Serif" font-size="10.00">i2cwrite</text>
</a>
</g>
</g>
<!-- Node67&#45;&gt;Node69 -->
<g id="edge4" class="edge"><title>Node67&#45;&gt;Node69</title>
<path fill="none" stroke="midnightblue" d="M466.248,-79.4506C476.788,-76.4917 488.386,-73.1735 499,-70 507.502,-67.4579 516.649,-64.6163 525.176,-61.9213"/>
<polygon fill="midnightblue" stroke="midnightblue" points="526.356,-65.2187 534.824,-58.8515 524.234,-58.5481 526.356,-65.2187"/>
</g>
<!-- Node70&#45;&gt;Node69 -->
<g id="edge6" class="edge"><title>Node70&#45;&gt;Node69</title>
<path fill="none" stroke="midnightblue" d="M467.695,-51C485.498,-51 506.851,-51 524.43,-51"/>
<polygon fill="midnightblue" stroke="midnightblue" points="524.821,-54.5001 534.821,-51 524.821,-47.5001 524.821,-54.5001"/>
</g>
<!-- Node72 -->
<g id="node8" class="node"><title>Node72</title>
<g id="a_node8"><a xlink:href="$df/df6/class_adafruit___a_d_s1015.html#a399441eace686975ff22937cbe45cc50" xlink:title="Sets the gain and input voltage range. ">
<polygon fill="white" stroke="black" points="362,-0.5 362,-19.5 499,-19.5 499,-0.5 362,-0.5"/>
<text text-anchor="middle" x="430.5" y="-7.5" font-family="Helvetica,sans-Serif" font-size="10.00">Adafruit_ADS1015::setGain</text>
</a>
</g>
</g>
<!-- Node71&#45;&gt;Node72 -->
<g id="edge8" class="edge"><title>Node71&#45;&gt;Node72</title>
<path fill="none" stroke="midnightblue" d="M303.608,-10C318.557,-10 335.402,-10 351.793,-10"/>
<polygon fill="midnightblue" stroke="midnightblue" points="351.919,-13.5001 361.919,-10 351.919,-6.5001 351.919,-13.5001"/>
</g>
</g>
</svg>
