<?xml version="1.0" encoding="UTF-8" standalone="no"?>
<!DOCTYPE svg PUBLIC "-//W3C//DTD SVG 1.1//EN"
 "http://www.w3.org/Graphics/SVG/1.1/DTD/svg11.dtd">
<!-- Generated by graphviz version 2.38.0 (20140413.2041)
 -->
<!-- Title: Adafruit_ADS1015::getLastConversionResults Pages: 1 -->
<svg width="338pt" height="66pt"
 viewBox="0.00 0.00 338.00 66.00" xmlns="http://www.w3.org/2000/svg" xmlns:xlink="http://www.w3.org/1999/xlink">
<g id="graph0" class="graph" transform="scale(1 1) rotate(0) translate(4 62)">
<title>Adafruit_ADS1015::getLastConversionResults</title>
<polygon fill="white" stroke="none" points="-4,4 -4,-62 334,-62 334,4 -4,4"/>
<!-- Node41 -->
<g id="node1" class="node"><title>Node41</title>
<polygon fill="#bfbfbf" stroke="black" points="0,-14 0,-44 136,-44 136,-14 0,-14"/>
<text text-anchor="start" x="8" y="-32" font-family="Helvetica,sans-Serif" font-size="10.00">Adafruit_ADS1015::getLast</text>
<text text-anchor="middle" x="68" y="-21" font-family="Helvetica,sans-Serif" font-size="10.00">ConversionResults</text>
</g>
<!-- Node42 -->
<g id="node2" class="node"><title>Node42</title>
<g id="a_node2"><a xlink:href="$d8/daa/_cool_adafruit___a_d_s1015_8cpp.html#a319539381b7551b2f83a92b0b596e97d" xlink:title="Writes 16&#45;bits to the specified destination register. ">
<polygon fill="white" stroke="black" points="172,-19.5 172,-38.5 244,-38.5 244,-19.5 172,-19.5"/>
<text text-anchor="middle" x="208" y="-26.5" font-family="Helvetica,sans-Serif" font-size="10.00">readRegister</text>
</a>
</g>
</g>
<!-- Node41&#45;&gt;Node42 -->
<g id="edge1" class="edge"><title>Node41&#45;&gt;Node42</title>
<path fill="none" stroke="midnightblue" d="M136.383,-29C145.042,-29 153.735,-29 161.917,-29"/>
<polygon fill="midnightblue" stroke="midnightblue" points="161.965,-32.5001 171.965,-29 161.965,-25.5001 161.965,-32.5001"/>
</g>
<!-- Node43 -->
<g id="node3" class="node"><title>Node43</title>
<g id="a_node3"><a xlink:href="$d8/daa/_cool_adafruit___a_d_s1015_8cpp.html#af89e2442d757f6ec8100c473022f6701" xlink:title="Abstract away platform differences in Arduino wire library. ">
<polygon fill="white" stroke="black" points="281,-38.5 281,-57.5 329,-57.5 329,-38.5 281,-38.5"/>
<text text-anchor="middle" x="305" y="-45.5" font-family="Helvetica,sans-Serif" font-size="10.00">i2cread</text>
</a>
</g>
</g>
<!-- Node42&#45;&gt;Node43 -->
<g id="edge2" class="edge"><title>Node42&#45;&gt;Node43</title>
<path fill="none" stroke="midnightblue" d="M244.105,-36.0209C252.918,-37.7836 262.344,-39.6688 271.048,-41.4097"/>
<polygon fill="midnightblue" stroke="midnightblue" points="270.363,-44.8419 280.855,-43.3711 271.736,-37.9778 270.363,-44.8419"/>
</g>
<!-- Node44 -->
<g id="node4" class="node"><title>Node44</title>
<g id="a_node4"><a xlink:href="$d8/daa/_cool_adafruit___a_d_s1015_8cpp.html#a6db5edba66e20bba6d5b421c2789af54" xlink:title="Abstract away platform differences in Arduino wire library. ">
<polygon fill="white" stroke="black" points="280,-0.5 280,-19.5 330,-19.5 330,-0.5 280,-0.5"/>
<text text-anchor="middle" x="305" y="-7.5" font-family="Helvetica,sans-Serif" font-size="10.00">i2cwrite</text>
</a>
</g>
</g>
<!-- Node42&#45;&gt;Node44 -->
<g id="edge3" class="edge"><title>Node42&#45;&gt;Node44</title>
<path fill="none" stroke="midnightblue" d="M244.105,-21.9791C252.597,-20.2806 261.658,-18.4685 270.094,-16.7812"/>
<polygon fill="midnightblue" stroke="midnightblue" points="270.875,-20.1945 279.994,-14.8012 269.502,-13.3304 270.875,-20.1945"/>
</g>
</g>
</svg>
