<?xml version="1.0" encoding="UTF-8" standalone="no"?>
<!DOCTYPE svg PUBLIC "-//W3C//DTD SVG 1.1//EN"
 "http://www.w3.org/Graphics/SVG/1.1/DTD/svg11.dtd">
<!-- Generated by graphviz version 2.38.0 (20140413.2041)
 -->
<!-- Title: CoolBoardActor.cpp Pages: 1 -->
<svg width="294pt" height="140pt"
 viewBox="0.00 0.00 294.00 140.00" xmlns="http://www.w3.org/2000/svg" xmlns:xlink="http://www.w3.org/1999/xlink">
<g id="graph0" class="graph" transform="scale(1 1) rotate(0) translate(4 136)">
<title>CoolBoardActor.cpp</title>
<polygon fill="white" stroke="none" points="-4,4 -4,-136 290,-136 290,4 -4,4"/>
<!-- Node0 -->
<g id="node1" class="node"><title>Node0</title>
<polygon fill="#bfbfbf" stroke="black" points="48,-112.5 48,-131.5 152,-131.5 152,-112.5 48,-112.5"/>
<text text-anchor="middle" x="100" y="-119.5" font-family="Helvetica,sans-Serif" font-size="10.00">CoolBoardActor.cpp</text>
</g>
<!-- Node1 -->
<g id="node2" class="node"><title>Node1</title>
<polygon fill="white" stroke="#bfbfbf" points="0,-56.5 0,-75.5 38,-75.5 38,-56.5 0,-56.5"/>
<text text-anchor="middle" x="19" y="-63.5" font-family="Helvetica,sans-Serif" font-size="10.00">FS.h</text>
</g>
<!-- Node0&#45;&gt;Node1 -->
<g id="edge1" class="edge"><title>Node0&#45;&gt;Node1</title>
<path fill="none" stroke="midnightblue" d="M86.9859,-112.324C74.4684,-103.979 55.3183,-91.2122 40.5286,-81.3524"/>
<polygon fill="midnightblue" stroke="midnightblue" points="42.2437,-78.2894 31.9818,-75.6545 38.3608,-84.1137 42.2437,-78.2894"/>
</g>
<!-- Node2 -->
<g id="node3" class="node"><title>Node2</title>
<polygon fill="white" stroke="#bfbfbf" points="123,-0.5 123,-19.5 181,-19.5 181,-0.5 123,-0.5"/>
<text text-anchor="middle" x="152" y="-7.5" font-family="Helvetica,sans-Serif" font-size="10.00">Arduino.h</text>
</g>
<!-- Node0&#45;&gt;Node2 -->
<g id="edge2" class="edge"><title>Node0&#45;&gt;Node2</title>
<path fill="none" stroke="midnightblue" d="M94.4639,-112.072C87.1567,-99.0425 76.2911,-74.3705 86,-56 93.4237,-41.9533 107.421,-31.4667 120.621,-24.167"/>
<polygon fill="midnightblue" stroke="midnightblue" points="122.223,-27.2788 129.541,-19.6178 119.043,-21.0428 122.223,-27.2788"/>
</g>
<!-- Node3 -->
<g id="node4" class="node"><title>Node3</title>
<polygon fill="white" stroke="#bfbfbf" points="94.5,-56.5 94.5,-75.5 173.5,-75.5 173.5,-56.5 94.5,-56.5"/>
<text text-anchor="middle" x="134" y="-63.5" font-family="Helvetica,sans-Serif" font-size="10.00">ArduinoJson.h</text>
</g>
<!-- Node0&#45;&gt;Node3 -->
<g id="edge3" class="edge"><title>Node0&#45;&gt;Node3</title>
<path fill="none" stroke="midnightblue" d="M105.614,-112.083C110.367,-104.534 117.318,-93.4948 123.152,-84.2298"/>
<polygon fill="midnightblue" stroke="midnightblue" points="126.124,-86.0783 128.49,-75.7511 120.2,-82.3486 126.124,-86.0783"/>
</g>
<!-- Node4 -->
<g id="node5" class="node"><title>Node4</title>
<g id="a_node5"><a xlink:href="$d1/d25/_cool_board_actor_8h.html" xlink:title="CoolBoardActor Header file. ">
<polygon fill="white" stroke="black" points="192,-56.5 192,-75.5 286,-75.5 286,-56.5 192,-56.5"/>
<text text-anchor="middle" x="239" y="-63.5" font-family="Helvetica,sans-Serif" font-size="10.00">CoolBoardActor.h</text>
</a>
</g>
</g>
<!-- Node0&#45;&gt;Node4 -->
<g id="edge4" class="edge"><title>Node0&#45;&gt;Node4</title>
<path fill="none" stroke="midnightblue" d="M122.025,-112.444C145.104,-103.478 181.562,-89.314 207.641,-79.1827"/>
<polygon fill="midnightblue" stroke="midnightblue" points="209.024,-82.4002 217.078,-75.5164 206.489,-75.8753 209.024,-82.4002"/>
</g>
<!-- Node4&#45;&gt;Node2 -->
<g id="edge5" class="edge"><title>Node4&#45;&gt;Node2</title>
<path fill="none" stroke="midnightblue" d="M225.022,-56.324C211.45,-47.9002 190.62,-34.9709 174.675,-25.0741"/>
<polygon fill="midnightblue" stroke="midnightblue" points="176.286,-21.9544 165.943,-19.6545 172.594,-27.9019 176.286,-21.9544"/>
</g>
</g>
</svg>
