<?xml version="1.0" encoding="UTF-8" standalone="no"?>
<!DOCTYPE svg PUBLIC "-//W3C//DTD SVG 1.1//EN"
 "http://www.w3.org/Graphics/SVG/1.1/DTD/svg11.dtd">
<!-- Generated by graphviz version 2.38.0 (20140413.2041)
 -->
<!-- Title: NDIR_I2C Pages: 1 -->
<svg width="95pt" height="176pt"
 viewBox="0.00 0.00 95.00 176.00" xmlns="http://www.w3.org/2000/svg" xmlns:xlink="http://www.w3.org/1999/xlink">
<g id="graph0" class="graph" transform="scale(1 1) rotate(0) translate(4 172)">
<title>NDIR_I2C</title>
<polygon fill="white" stroke="none" points="-4,4 -4,-172 91,-172 91,4 -4,4"/>
<!-- Node1 -->
<g id="node1" class="node"><title>Node1</title>
<polygon fill="#bfbfbf" stroke="black" points="0,-0.5 0,-167.5 87,-167.5 87,-0.5 0,-0.5"/>
<text text-anchor="middle" x="43.5" y="-155.5" font-family="Helvetica,sans-Serif" font-size="10.00">NDIR_I2C</text>
<polyline fill="none" stroke="black" points="0,-148.5 87,-148.5 "/>
<text text-anchor="start" x="8" y="-136.5" font-family="Helvetica,sans-Serif" font-size="10.00">+ i2c_addr</text>
<text text-anchor="start" x="8" y="-125.5" font-family="Helvetica,sans-Serif" font-size="10.00">+ ppm</text>
<text text-anchor="start" x="8" y="-114.5" font-family="Helvetica,sans-Serif" font-size="10.00">&#45; cmd_measure</text>
<polyline fill="none" stroke="black" points="0,-107.5 87,-107.5 "/>
<text text-anchor="start" x="8" y="-95.5" font-family="Helvetica,sans-Serif" font-size="10.00">+ NDIR_I2C()</text>
<text text-anchor="start" x="8" y="-84.5" font-family="Helvetica,sans-Serif" font-size="10.00">+ begin()</text>
<text text-anchor="start" x="8" y="-73.5" font-family="Helvetica,sans-Serif" font-size="10.00">+ measure()</text>
<text text-anchor="start" x="8" y="-62.5" font-family="Helvetica,sans-Serif" font-size="10.00">&#45; send()</text>
<text text-anchor="start" x="8" y="-51.5" font-family="Helvetica,sans-Serif" font-size="10.00">&#45; receive()</text>
<text text-anchor="start" x="8" y="-40.5" font-family="Helvetica,sans-Serif" font-size="10.00">&#45; read_register()</text>
<text text-anchor="start" x="8" y="-29.5" font-family="Helvetica,sans-Serif" font-size="10.00">&#45; write_register()</text>
<text text-anchor="start" x="8" y="-18.5" font-family="Helvetica,sans-Serif" font-size="10.00">&#45; write_register()</text>
<text text-anchor="start" x="8" y="-7.5" font-family="Helvetica,sans-Serif" font-size="10.00">&#45; parse()</text>
</g>
</g>
</svg>
