<?xml version="1.0" encoding="UTF-8" standalone="no"?>
<!DOCTYPE svg PUBLIC "-//W3C//DTD SVG 1.1//EN"
 "http://www.w3.org/Graphics/SVG/1.1/DTD/svg11.dtd">
<!-- Generated by graphviz version 2.38.0 (20140413.2041)
 -->
<!-- Title: ExternalSensor&lt; DallasTemperature &gt; Pages: 1 -->
<svg width="192pt" height="226pt"
 viewBox="0.00 0.00 192.00 226.00" xmlns="http://www.w3.org/2000/svg" xmlns:xlink="http://www.w3.org/1999/xlink">
<g id="graph0" class="graph" transform="scale(1 1) rotate(0) translate(4 222)">
<title>ExternalSensor&lt; DallasTemperature &gt;</title>
<polygon fill="white" stroke="none" points="-4,4 -4,-222 188,-222 188,4 -4,4"/>
<!-- Node2 -->
<g id="node1" class="node"><title>Node2</title>
<polygon fill="#bfbfbf" stroke="black" points="0,-0.5 0,-90.5 184,-90.5 184,-0.5 0,-0.5"/>
<text text-anchor="middle" x="92" y="-78.5" font-family="Helvetica,sans-Serif" font-size="10.00">ExternalSensor&lt; DallasTemperature &gt;</text>
<polyline fill="none" stroke="black" points="0,-71.5 184,-71.5 "/>
<text text-anchor="start" x="8" y="-59.5" font-family="Helvetica,sans-Serif" font-size="10.00">&#45; sensor</text>
<text text-anchor="start" x="8" y="-48.5" font-family="Helvetica,sans-Serif" font-size="10.00">&#45; dallasAddress</text>
<polyline fill="none" stroke="black" points="0,-41.5 184,-41.5 "/>
<text text-anchor="start" x="8" y="-29.5" font-family="Helvetica,sans-Serif" font-size="10.00">+ ExternalSensor()</text>
<text text-anchor="start" x="8" y="-18.5" font-family="Helvetica,sans-Serif" font-size="10.00">+ begin()</text>
<text text-anchor="start" x="8" y="-7.5" font-family="Helvetica,sans-Serif" font-size="10.00">+ read()</text>
</g>
<!-- Node3 -->
<g id="node2" class="node"><title>Node3</title>
<g id="a_node2"><a xlink:href="$d1/d68/class_base_external_sensor.html" xlink:title="This class is a generic external Sensor it is a way to access real external sensor methods through ru...">
<polygon fill="white" stroke="black" points="31.5,-127.5 31.5,-217.5 152.5,-217.5 152.5,-127.5 31.5,-127.5"/>
<text text-anchor="middle" x="92" y="-205.5" font-family="Helvetica,sans-Serif" font-size="10.00">BaseExternalSensor</text>
<polyline fill="none" stroke="black" points="31.5,-198.5 152.5,-198.5 "/>
<text text-anchor="middle" x="92" y="-186.5" font-family="Helvetica,sans-Serif" font-size="10.00"> </text>
<polyline fill="none" stroke="black" points="31.5,-179.5 152.5,-179.5 "/>
<text text-anchor="start" x="39.5" y="-167.5" font-family="Helvetica,sans-Serif" font-size="10.00">+ BaseExternalSensor()</text>
<text text-anchor="start" x="39.5" y="-156.5" font-family="Helvetica,sans-Serif" font-size="10.00">+ begin()</text>
<text text-anchor="start" x="39.5" y="-145.5" font-family="Helvetica,sans-Serif" font-size="10.00">+ read()</text>
<text text-anchor="start" x="39.5" y="-134.5" font-family="Helvetica,sans-Serif" font-size="10.00">+ read()</text>
</a>
</g>
</g>
<!-- Node3&#45;&gt;Node2 -->
<g id="edge1" class="edge"><title>Node3&#45;&gt;Node2</title>
<path fill="none" stroke="midnightblue" d="M92,-117.157C92,-108.282 92,-99.1831 92,-90.5937"/>
<polygon fill="none" stroke="midnightblue" points="88.5001,-117.43 92,-127.43 95.5001,-117.43 88.5001,-117.43"/>
</g>
</g>
</svg>
