<?xml version="1.0" encoding="UTF-8" standalone="no"?>
<!DOCTYPE svg PUBLIC "-//W3C//DTD SVG 1.1//EN"
 "http://www.w3.org/Graphics/SVG/1.1/DTD/svg11.dtd">
<!-- Generated by graphviz version 2.38.0 (20140413.2041)
 -->
<!-- Title: CoolNDIR_I2C.cpp Pages: 1 -->
<svg width="240pt" height="84pt"
 viewBox="0.00 0.00 239.50 84.00" xmlns="http://www.w3.org/2000/svg" xmlns:xlink="http://www.w3.org/1999/xlink">
<g id="graph0" class="graph" transform="scale(1 1) rotate(0) translate(4 80)">
<title>CoolNDIR_I2C.cpp</title>
<polygon fill="white" stroke="none" points="-4,4 -4,-80 235.5,-80 235.5,4 -4,4"/>
<!-- Node0 -->
<g id="node1" class="node"><title>Node0</title>
<polygon fill="#bfbfbf" stroke="black" points="58.5,-56.5 58.5,-75.5 160.5,-75.5 160.5,-56.5 58.5,-56.5"/>
<text text-anchor="middle" x="109.5" y="-63.5" font-family="Helvetica,sans-Serif" font-size="10.00">CoolNDIR_I2C.cpp</text>
</g>
<!-- Node1 -->
<g id="node2" class="node"><title>Node1</title>
<polygon fill="white" stroke="#bfbfbf" points="0,-0.5 0,-19.5 45,-19.5 45,-0.5 0,-0.5"/>
<text text-anchor="middle" x="22.5" y="-7.5" font-family="Helvetica,sans-Serif" font-size="10.00">Wire.h</text>
</g>
<!-- Node0&#45;&gt;Node1 -->
<g id="edge1" class="edge"><title>Node0&#45;&gt;Node1</title>
<path fill="none" stroke="midnightblue" d="M95.5219,-56.324C81.9504,-47.9002 61.1198,-34.9709 45.175,-25.0741"/>
<polygon fill="midnightblue" stroke="midnightblue" points="46.7856,-21.9544 36.4434,-19.6545 43.094,-27.9019 46.7856,-21.9544"/>
</g>
<!-- Node2 -->
<g id="node3" class="node"><title>Node2</title>
<g id="a_node3"><a xlink:href="$d0/d08/_cool_n_d_i_r___i2_c_8h.html" xlink:title="CoolNDIR_I2C.h">
<polygon fill="white" stroke="black" points="63.5,-0.5 63.5,-19.5 155.5,-19.5 155.5,-0.5 63.5,-0.5"/>
<text text-anchor="middle" x="109.5" y="-7.5" font-family="Helvetica,sans-Serif" font-size="10.00">CoolNDIR_I2C.h</text>
</a>
</g>
</g>
<!-- Node0&#45;&gt;Node2 -->
<g id="edge2" class="edge"><title>Node0&#45;&gt;Node2</title>
<path fill="none" stroke="midnightblue" d="M109.5,-56.083C109.5,-49.0059 109.5,-38.8611 109.5,-29.9865"/>
<polygon fill="midnightblue" stroke="midnightblue" points="113,-29.751 109.5,-19.7511 106,-29.7511 113,-29.751"/>
</g>
<!-- Node3 -->
<g id="node4" class="node"><title>Node3</title>
<polygon fill="white" stroke="#bfbfbf" points="173.5,-0.5 173.5,-19.5 231.5,-19.5 231.5,-0.5 173.5,-0.5"/>
<text text-anchor="middle" x="202.5" y="-7.5" font-family="Helvetica,sans-Serif" font-size="10.00">Arduino.h</text>
</g>
<!-- Node0&#45;&gt;Node3 -->
<g id="edge3" class="edge"><title>Node0&#45;&gt;Node3</title>
<path fill="none" stroke="midnightblue" d="M124.442,-56.324C139.085,-47.8215 161.634,-34.7288 178.738,-24.7975"/>
<polygon fill="midnightblue" stroke="midnightblue" points="180.705,-27.7027 187.595,-19.6545 177.19,-21.6491 180.705,-27.7027"/>
</g>
</g>
</svg>
