<?xml version="1.0" encoding="UTF-8" standalone="no"?>
<!DOCTYPE svg PUBLIC "-//W3C//DTD SVG 1.1//EN"
 "http://www.w3.org/Graphics/SVG/1.1/DTD/svg11.dtd">
<!-- Generated by graphviz version 2.38.0 (20140413.2041)
 -->
<!-- Title: CoolPubSubClient::setCallback Pages: 1 -->
<svg width="467pt" height="78pt"
 viewBox="0.00 0.00 467.00 77.50" xmlns="http://www.w3.org/2000/svg" xmlns:xlink="http://www.w3.org/1999/xlink">
<g id="graph0" class="graph" transform="scale(1 1) rotate(0) translate(4 73.5)">
<title>CoolPubSubClient::setCallback</title>
<polygon fill="white" stroke="none" points="-4,4 -4,-73.5 463,-73.5 463,4 -4,4"/>
<!-- Node115 -->
<g id="node1" class="node"><title>Node115</title>
<polygon fill="#bfbfbf" stroke="black" points="0,-28 0,-47 155,-47 155,-28 0,-28"/>
<text text-anchor="middle" x="77.5" y="-35" font-family="Helvetica,sans-Serif" font-size="10.00">CoolPubSubClient::setCallback</text>
</g>
<!-- Node116 -->
<g id="node2" class="node"><title>Node116</title>
<g id="a_node2"><a xlink:href="$d0/dd0/class_cool_m_q_t_t.html#ac9248808641ebf3054ed0620ea9d0100" xlink:title="CoolMQTT::begin">
<polygon fill="white" stroke="black" points="214,-50 214,-69 308,-69 308,-50 214,-50"/>
<text text-anchor="middle" x="261" y="-57" font-family="Helvetica,sans-Serif" font-size="10.00">CoolMQTT::begin</text>
</a>
</g>
</g>
<!-- Node115&#45;&gt;Node116 -->
<g id="edge1" class="edge"><title>Node115&#45;&gt;Node116</title>
<path fill="none" stroke="midnightblue" d="M165.548,-48.0512C182.219,-50.072 199.057,-52.113 213.806,-53.9008"/>
<polygon fill="midnightblue" stroke="midnightblue" points="165.558,-44.5269 155.209,-46.7981 164.715,-51.4761 165.558,-44.5269"/>
</g>
<!-- Node118 -->
<g id="node4" class="node"><title>Node118</title>
<g id="a_node4"><a xlink:href="$d8/d4b/class_cool_pub_sub_client.html#a2e54e36217bb0969b91b5dee9a27410f" xlink:title="CoolPubSubClient::CoolPub\lSubClient">
<polygon fill="white" stroke="black" points="191,-0.5 191,-30.5 331,-30.5 331,-0.5 191,-0.5"/>
<text text-anchor="start" x="199" y="-18.5" font-family="Helvetica,sans-Serif" font-size="10.00">CoolPubSubClient::CoolPub</text>
<text text-anchor="middle" x="261" y="-7.5" font-family="Helvetica,sans-Serif" font-size="10.00">SubClient</text>
</a>
</g>
</g>
<!-- Node115&#45;&gt;Node118 -->
<g id="edge3" class="edge"><title>Node115&#45;&gt;Node118</title>
<path fill="none" stroke="midnightblue" d="M165.227,-26.9876C173.795,-25.9491 182.411,-24.9047 190.769,-23.8917"/>
<polygon fill="midnightblue" stroke="midnightblue" points="164.715,-23.5239 155.209,-28.2019 165.558,-30.4731 164.715,-23.5239"/>
</g>
<!-- Node117 -->
<g id="node3" class="node"><title>Node117</title>
<g id="a_node3"><a xlink:href="$d7/df9/class_cool_board.html#acba7c5aef7268b2c0044bdb54d3b9d76" xlink:title="CoolBoard::begin">
<polygon fill="white" stroke="black" points="367,-50 367,-69 459,-69 459,-50 367,-50"/>
<text text-anchor="middle" x="413" y="-57" font-family="Helvetica,sans-Serif" font-size="10.00">CoolBoard::begin</text>
</a>
</g>
</g>
<!-- Node116&#45;&gt;Node117 -->
<g id="edge2" class="edge"><title>Node116&#45;&gt;Node117</title>
<path fill="none" stroke="midnightblue" d="M318.537,-59.5C334.536,-59.5 351.729,-59.5 366.953,-59.5"/>
<polygon fill="midnightblue" stroke="midnightblue" points="318.229,-56.0001 308.229,-59.5 318.229,-63.0001 318.229,-56.0001"/>
</g>
</g>
</svg>
