<?xml version="1.0" encoding="UTF-8" standalone="no"?>
<!DOCTYPE svg PUBLIC "-//W3C//DTD SVG 1.1//EN"
 "http://www.w3.org/Graphics/SVG/1.1/DTD/svg11.dtd">
<!-- Generated by graphviz version 2.38.0 (20140413.2041)
 -->
<!-- Title: CoolPubSubClient::subscribe Pages: 1 -->
<svg width="338pt" height="104pt"
 viewBox="0.00 0.00 338.00 104.00" xmlns="http://www.w3.org/2000/svg" xmlns:xlink="http://www.w3.org/1999/xlink">
<g id="graph0" class="graph" transform="scale(1 1) rotate(0) translate(4 100)">
<title>CoolPubSubClient::subscribe</title>
<polygon fill="white" stroke="none" points="-4,4 -4,-100 334,-100 334,4 -4,4"/>
<!-- Node180 -->
<g id="node1" class="node"><title>Node180</title>
<polygon fill="#bfbfbf" stroke="black" points="0,-38.5 0,-57.5 145,-57.5 145,-38.5 0,-38.5"/>
<text text-anchor="middle" x="72.5" y="-45.5" font-family="Helvetica,sans-Serif" font-size="10.00">CoolPubSubClient::subscribe</text>
</g>
<!-- Node181 -->
<g id="node2" class="node"><title>Node181</title>
<g id="a_node2"><a xlink:href="$d8/d4b/class_cool_pub_sub_client.html#a3d5a5da4ddb1e5c1bea64d80c665d148" xlink:title="CoolPubSubClient::connected">
<polygon fill="white" stroke="black" points="181.5,-76.5 181.5,-95.5 329.5,-95.5 329.5,-76.5 181.5,-76.5"/>
<text text-anchor="middle" x="255.5" y="-83.5" font-family="Helvetica,sans-Serif" font-size="10.00">CoolPubSubClient::connected</text>
</a>
</g>
</g>
<!-- Node180&#45;&gt;Node181 -->
<g id="edge1" class="edge"><title>Node180&#45;&gt;Node181</title>
<path fill="none" stroke="midnightblue" d="M119.174,-57.589C143.489,-62.6939 173.58,-69.0113 199.208,-74.3918"/>
<polygon fill="midnightblue" stroke="midnightblue" points="198.649,-77.8505 209.154,-76.4799 200.087,-70.9999 198.649,-77.8505"/>
</g>
<!-- Node182 -->
<g id="node3" class="node"><title>Node182</title>
<g id="a_node3"><a xlink:href="$d8/d4b/class_cool_pub_sub_client.html#a7a8e4854a1846eaa668046d3854d47ad" xlink:title="CoolPubSubClient::write">
<polygon fill="white" stroke="black" points="193.5,-38.5 193.5,-57.5 317.5,-57.5 317.5,-38.5 193.5,-38.5"/>
<text text-anchor="middle" x="255.5" y="-45.5" font-family="Helvetica,sans-Serif" font-size="10.00">CoolPubSubClient::write</text>
</a>
</g>
</g>
<!-- Node180&#45;&gt;Node182 -->
<g id="edge2" class="edge"><title>Node180&#45;&gt;Node182</title>
<path fill="none" stroke="midnightblue" d="M145.036,-48C157.542,-48 170.554,-48 183.058,-48"/>
<polygon fill="midnightblue" stroke="midnightblue" points="183.419,-51.5001 193.419,-48 183.419,-44.5001 183.419,-51.5001"/>
</g>
<!-- Node183 -->
<g id="node4" class="node"><title>Node183</title>
<g id="a_node4"><a xlink:href="$d8/d4b/class_cool_pub_sub_client.html#a0e3d7e776d4cf4427f9569b28868905a" xlink:title="CoolPubSubClient::writeString">
<polygon fill="white" stroke="black" points="181,-0.5 181,-19.5 330,-19.5 330,-0.5 181,-0.5"/>
<text text-anchor="middle" x="255.5" y="-7.5" font-family="Helvetica,sans-Serif" font-size="10.00">CoolPubSubClient::writeString</text>
</a>
</g>
</g>
<!-- Node180&#45;&gt;Node183 -->
<g id="edge3" class="edge"><title>Node180&#45;&gt;Node183</title>
<path fill="none" stroke="midnightblue" d="M119.174,-38.411C143.489,-33.3061 173.58,-26.9887 199.208,-21.6082"/>
<polygon fill="midnightblue" stroke="midnightblue" points="200.087,-25.0001 209.154,-19.5201 198.649,-18.1495 200.087,-25.0001"/>
</g>
</g>
</svg>
