<?xml version="1.0" encoding="UTF-8" standalone="no"?>
<!DOCTYPE svg PUBLIC "-//W3C//DTD SVG 1.1//EN"
 "http://www.w3.org/Graphics/SVG/1.1/DTD/svg11.dtd">
<!-- Generated by graphviz version 2.38.0 (20140413.2041)
 -->
<!-- Title: CoolPubSubClient::writeString Pages: 1 -->
<svg width="348pt" height="180pt"
 viewBox="0.00 0.00 348.00 180.00" xmlns="http://www.w3.org/2000/svg" xmlns:xlink="http://www.w3.org/1999/xlink">
<g id="graph0" class="graph" transform="scale(1 1) rotate(0) translate(4 176)">
<title>CoolPubSubClient::writeString</title>
<polygon fill="white" stroke="none" points="-4,4 -4,-176 344,-176 344,4 -4,4"/>
<!-- Node97 -->
<g id="node1" class="node"><title>Node97</title>
<polygon fill="#bfbfbf" stroke="black" points="0,-76.5 0,-95.5 149,-95.5 149,-76.5 0,-76.5"/>
<text text-anchor="middle" x="74.5" y="-83.5" font-family="Helvetica,sans-Serif" font-size="10.00">CoolPubSubClient::writeString</text>
</g>
<!-- Node98 -->
<g id="node2" class="node"><title>Node98</title>
<g id="a_node2"><a xlink:href="$d8/d4b/class_cool_pub_sub_client.html#a7e5a85731dd25d90a41f6d859e61da77" xlink:title="CoolPubSubClient::connect">
<polygon fill="white" stroke="black" points="194,-152.5 194,-171.5 331,-171.5 331,-152.5 194,-152.5"/>
<text text-anchor="middle" x="262.5" y="-159.5" font-family="Helvetica,sans-Serif" font-size="10.00">CoolPubSubClient::connect</text>
</a>
</g>
</g>
<!-- Node97&#45;&gt;Node98 -->
<g id="edge1" class="edge"><title>Node97&#45;&gt;Node98</title>
<path fill="none" stroke="midnightblue" d="M99.7577,-100.761C121.45,-113.435 154.443,-131.439 185,-143 194.727,-146.68 205.422,-149.85 215.651,-152.488"/>
<polygon fill="midnightblue" stroke="midnightblue" points="101.302,-97.6074 90.9144,-95.5222 97.7344,-103.63 101.302,-97.6074"/>
</g>
<!-- Node99 -->
<g id="node3" class="node"><title>Node99</title>
<g id="a_node3"><a xlink:href="$d8/d4b/class_cool_pub_sub_client.html#adef968760eb87b70e3fed03e60da76f7" xlink:title="CoolPubSubClient::publish">
<polygon fill="white" stroke="black" points="195.5,-114.5 195.5,-133.5 329.5,-133.5 329.5,-114.5 195.5,-114.5"/>
<text text-anchor="middle" x="262.5" y="-121.5" font-family="Helvetica,sans-Serif" font-size="10.00">CoolPubSubClient::publish</text>
</a>
</g>
</g>
<!-- Node97&#45;&gt;Node99 -->
<g id="edge2" class="edge"><title>Node97&#45;&gt;Node99</title>
<path fill="none" stroke="midnightblue" d="M132.325,-97.6095C158.779,-103.014 189.858,-109.364 214.902,-114.48"/>
<polygon fill="midnightblue" stroke="midnightblue" points="132.934,-94.1616 122.436,-95.589 131.533,-101.02 132.934,-94.1616"/>
</g>
<!-- Node100 -->
<g id="node4" class="node"><title>Node100</title>
<g id="a_node4"><a xlink:href="$d8/d4b/class_cool_pub_sub_client.html#a55458d47cf01f590e9b6647d5a418ab6" xlink:title="CoolPubSubClient::publish_P">
<polygon fill="white" stroke="black" points="189.5,-76.5 189.5,-95.5 335.5,-95.5 335.5,-76.5 189.5,-76.5"/>
<text text-anchor="middle" x="262.5" y="-83.5" font-family="Helvetica,sans-Serif" font-size="10.00">CoolPubSubClient::publish_P</text>
</a>
</g>
</g>
<!-- Node97&#45;&gt;Node100 -->
<g id="edge3" class="edge"><title>Node97&#45;&gt;Node100</title>
<path fill="none" stroke="midnightblue" d="M159.075,-86C169.206,-86 179.488,-86 189.434,-86"/>
<polygon fill="midnightblue" stroke="midnightblue" points="159.012,-82.5001 149.012,-86 159.012,-89.5001 159.012,-82.5001"/>
</g>
<!-- Node101 -->
<g id="node5" class="node"><title>Node101</title>
<g id="a_node5"><a xlink:href="$d8/d4b/class_cool_pub_sub_client.html#aebf684e98588c52a72af1014f7957bee" xlink:title="CoolPubSubClient::subscribe">
<polygon fill="white" stroke="black" points="190,-38.5 190,-57.5 335,-57.5 335,-38.5 190,-38.5"/>
<text text-anchor="middle" x="262.5" y="-45.5" font-family="Helvetica,sans-Serif" font-size="10.00">CoolPubSubClient::subscribe</text>
</a>
</g>
</g>
<!-- Node97&#45;&gt;Node101 -->
<g id="edge4" class="edge"><title>Node97&#45;&gt;Node101</title>
<path fill="none" stroke="midnightblue" d="M132.325,-74.3905C158.779,-68.986 189.858,-62.6365 214.902,-57.5201"/>
<polygon fill="midnightblue" stroke="midnightblue" points="131.533,-70.9801 122.436,-76.411 132.934,-77.8384 131.533,-70.9801"/>
</g>
<!-- Node102 -->
<g id="node6" class="node"><title>Node102</title>
<g id="a_node6"><a xlink:href="$d8/d4b/class_cool_pub_sub_client.html#a850554280e314d6b5c33c73fd9e809fc" xlink:title="CoolPubSubClient::unsubscribe">
<polygon fill="white" stroke="black" points="185,-0.5 185,-19.5 340,-19.5 340,-0.5 185,-0.5"/>
<text text-anchor="middle" x="262.5" y="-7.5" font-family="Helvetica,sans-Serif" font-size="10.00">CoolPubSubClient::unsubscribe</text>
</a>
</g>
</g>
<!-- Node97&#45;&gt;Node102 -->
<g id="edge5" class="edge"><title>Node97&#45;&gt;Node102</title>
<path fill="none" stroke="midnightblue" d="M99.7577,-71.2394C121.45,-58.565 154.443,-40.561 185,-29 194.727,-25.3197 205.422,-22.15 215.651,-19.5121"/>
<polygon fill="midnightblue" stroke="midnightblue" points="97.7344,-68.3699 90.9144,-76.4778 101.302,-74.3926 97.7344,-68.3699"/>
</g>
</g>
</svg>
