<?xml version="1.0" encoding="UTF-8" standalone="no"?>
<!DOCTYPE svg PUBLIC "-//W3C//DTD SVG 1.1//EN"
 "http://www.w3.org/Graphics/SVG/1.1/DTD/svg11.dtd">
<!-- Generated by graphviz version 2.38.0 (20140413.2041)
 -->
<!-- Title: CoolPubSubClient::CoolPubSubClient Pages: 1 -->
<svg width="329pt" height="66pt"
 viewBox="0.00 0.00 329.00 66.00" xmlns="http://www.w3.org/2000/svg" xmlns:xlink="http://www.w3.org/1999/xlink">
<g id="graph0" class="graph" transform="scale(1 1) rotate(0) translate(4 62)">
<title>CoolPubSubClient::CoolPubSubClient</title>
<polygon fill="white" stroke="none" points="-4,4 -4,-62 325,-62 325,4 -4,4"/>
<!-- Node6 -->
<g id="node1" class="node"><title>Node6</title>
<polygon fill="#bfbfbf" stroke="black" points="0,-14 0,-44 140,-44 140,-14 0,-14"/>
<text text-anchor="start" x="8" y="-32" font-family="Helvetica,sans-Serif" font-size="10.00">CoolPubSubClient::CoolPub</text>
<text text-anchor="middle" x="70" y="-21" font-family="Helvetica,sans-Serif" font-size="10.00">SubClient</text>
</g>
<!-- Node7 -->
<g id="node2" class="node"><title>Node7</title>
<g id="a_node2"><a xlink:href="$d8/d4b/class_cool_pub_sub_client.html#a7ee119b786010561ab6a9afa0798e91d" xlink:title="CoolPubSubClient::setClient">
<polygon fill="white" stroke="black" points="177.5,-38.5 177.5,-57.5 319.5,-57.5 319.5,-38.5 177.5,-38.5"/>
<text text-anchor="middle" x="248.5" y="-45.5" font-family="Helvetica,sans-Serif" font-size="10.00">CoolPubSubClient::setClient</text>
</a>
</g>
</g>
<!-- Node6&#45;&gt;Node7 -->
<g id="edge1" class="edge"><title>Node6&#45;&gt;Node7</title>
<path fill="none" stroke="midnightblue" d="M140.251,-36.4548C149.092,-37.4065 158.201,-38.387 167.198,-39.3556"/>
<polygon fill="midnightblue" stroke="midnightblue" points="166.972,-42.8514 177.289,-40.4419 167.721,-35.8916 166.972,-42.8514"/>
</g>
<!-- Node8 -->
<g id="node3" class="node"><title>Node8</title>
<g id="a_node3"><a xlink:href="$d8/d4b/class_cool_pub_sub_client.html#a947e70c394c66c7d08d0c53caf8425e3" xlink:title="CoolPubSubClient::setServer">
<polygon fill="white" stroke="black" points="176,-0.5 176,-19.5 321,-19.5 321,-0.5 176,-0.5"/>
<text text-anchor="middle" x="248.5" y="-7.5" font-family="Helvetica,sans-Serif" font-size="10.00">CoolPubSubClient::setServer</text>
</a>
</g>
</g>
<!-- Node6&#45;&gt;Node8 -->
<g id="edge2" class="edge"><title>Node6&#45;&gt;Node8</title>
<path fill="none" stroke="midnightblue" d="M140.251,-21.5452C148.65,-20.6411 157.29,-19.711 165.847,-18.7898"/>
<polygon fill="midnightblue" stroke="midnightblue" points="166.267,-22.2649 175.835,-17.7147 165.518,-15.3051 166.267,-22.2649"/>
</g>
</g>
</svg>
