<?xml version="1.0" encoding="UTF-8" standalone="no"?>
<!DOCTYPE svg PUBLIC "-//W3C//DTD SVG 1.1//EN"
 "http://www.w3.org/Graphics/SVG/1.1/DTD/svg11.dtd">
<!-- Generated by graphviz version 2.38.0 (20140413.2041)
 -->
<!-- Title: CoolPubSubClient::connect Pages: 1 -->
<svg width="511pt" height="142pt"
 viewBox="0.00 0.00 511.00 142.00" xmlns="http://www.w3.org/2000/svg" xmlns:xlink="http://www.w3.org/1999/xlink">
<g id="graph0" class="graph" transform="scale(1 1) rotate(0) translate(4 138)">
<title>CoolPubSubClient::connect</title>
<polygon fill="white" stroke="none" points="-4,4 -4,-138 507,-138 507,4 -4,4"/>
<!-- Node142 -->
<g id="node1" class="node"><title>Node142</title>
<polygon fill="#bfbfbf" stroke="black" points="0,-57.5 0,-76.5 137,-76.5 137,-57.5 0,-57.5"/>
<text text-anchor="middle" x="68.5" y="-64.5" font-family="Helvetica,sans-Serif" font-size="10.00">CoolPubSubClient::connect</text>
</g>
<!-- Node143 -->
<g id="node2" class="node"><title>Node143</title>
<g id="a_node2"><a xlink:href="$d8/d4b/class_cool_pub_sub_client.html#a3d5a5da4ddb1e5c1bea64d80c665d148" xlink:title="CoolPubSubClient::connected">
<polygon fill="white" stroke="black" points="175,-114.5 175,-133.5 323,-133.5 323,-114.5 175,-114.5"/>
<text text-anchor="middle" x="249" y="-121.5" font-family="Helvetica,sans-Serif" font-size="10.00">CoolPubSubClient::connected</text>
</a>
</g>
</g>
<!-- Node142&#45;&gt;Node143 -->
<g id="edge1" class="edge"><title>Node142&#45;&gt;Node143</title>
<path fill="none" stroke="midnightblue" d="M93.5161,-76.6233C114.34,-84.7726 145.387,-96.4586 173,-105 180.754,-107.399 189.027,-109.724 197.141,-111.876"/>
<polygon fill="midnightblue" stroke="midnightblue" points="196.356,-115.288 206.914,-114.409 198.113,-108.512 196.356,-115.288"/>
</g>
<!-- Node144 -->
<g id="node3" class="node"><title>Node144</title>
<g id="a_node3"><a xlink:href="$d8/d4b/class_cool_pub_sub_client.html#a25a8779149cfa809b7c06f63568b25cf" xlink:title="CoolPubSubClient::readPacket">
<polygon fill="white" stroke="black" points="173,-76.5 173,-95.5 325,-95.5 325,-76.5 173,-76.5"/>
<text text-anchor="middle" x="249" y="-83.5" font-family="Helvetica,sans-Serif" font-size="10.00">CoolPubSubClient::readPacket</text>
</a>
</g>
</g>
<!-- Node142&#45;&gt;Node144 -->
<g id="edge2" class="edge"><title>Node142&#45;&gt;Node144</title>
<path fill="none" stroke="midnightblue" d="M137.238,-74.2102C145.602,-75.1005 154.235,-76.0194 162.818,-76.933"/>
<polygon fill="midnightblue" stroke="midnightblue" points="162.536,-80.4227 172.851,-78.0009 163.277,-73.462 162.536,-80.4227"/>
</g>
<!-- Node146 -->
<g id="node5" class="node"><title>Node146</title>
<g id="a_node5"><a xlink:href="$d8/d4b/class_cool_pub_sub_client.html#a7a8e4854a1846eaa668046d3854d47ad" xlink:title="CoolPubSubClient::write">
<polygon fill="white" stroke="black" points="187,-38.5 187,-57.5 311,-57.5 311,-38.5 187,-38.5"/>
<text text-anchor="middle" x="249" y="-45.5" font-family="Helvetica,sans-Serif" font-size="10.00">CoolPubSubClient::write</text>
</a>
</g>
</g>
<!-- Node142&#45;&gt;Node146 -->
<g id="edge4" class="edge"><title>Node142&#45;&gt;Node146</title>
<path fill="none" stroke="midnightblue" d="M137.238,-59.7898C150.078,-58.423 163.551,-56.989 176.503,-55.6103"/>
<polygon fill="midnightblue" stroke="midnightblue" points="177.184,-59.0577 186.757,-54.5188 176.443,-52.097 177.184,-59.0577"/>
</g>
<!-- Node147 -->
<g id="node6" class="node"><title>Node147</title>
<g id="a_node6"><a xlink:href="$d8/d4b/class_cool_pub_sub_client.html#a0e3d7e776d4cf4427f9569b28868905a" xlink:title="CoolPubSubClient::writeString">
<polygon fill="white" stroke="black" points="174.5,-0.5 174.5,-19.5 323.5,-19.5 323.5,-0.5 174.5,-0.5"/>
<text text-anchor="middle" x="249" y="-7.5" font-family="Helvetica,sans-Serif" font-size="10.00">CoolPubSubClient::writeString</text>
</a>
</g>
</g>
<!-- Node142&#45;&gt;Node147 -->
<g id="edge5" class="edge"><title>Node142&#45;&gt;Node147</title>
<path fill="none" stroke="midnightblue" d="M93.5161,-57.3767C114.34,-49.2274 145.387,-37.5414 173,-29 180.754,-26.6013 189.027,-24.2764 197.141,-22.124"/>
<polygon fill="midnightblue" stroke="midnightblue" points="198.113,-25.488 206.914,-19.5908 196.356,-18.7119 198.113,-25.488"/>
</g>
<!-- Node145 -->
<g id="node4" class="node"><title>Node145</title>
<g id="a_node4"><a xlink:href="$d8/d4b/class_cool_pub_sub_client.html#ad409bbd287d5894f0cf082f62446c002" xlink:title="CoolPubSubClient::readByte">
<polygon fill="white" stroke="black" points="361,-76.5 361,-95.5 503,-95.5 503,-76.5 361,-76.5"/>
<text text-anchor="middle" x="432" y="-83.5" font-family="Helvetica,sans-Serif" font-size="10.00">CoolPubSubClient::readByte</text>
</a>
</g>
</g>
<!-- Node144&#45;&gt;Node145 -->
<g id="edge3" class="edge"><title>Node144&#45;&gt;Node145</title>
<path fill="none" stroke="midnightblue" d="M325.188,-86C333.612,-86 342.219,-86 350.704,-86"/>
<polygon fill="midnightblue" stroke="midnightblue" points="350.974,-89.5001 360.974,-86 350.974,-82.5001 350.974,-89.5001"/>
</g>
</g>
</svg>
