<?xml version="1.0" encoding="UTF-8" standalone="no"?>
<!DOCTYPE svg PUBLIC "-//W3C//DTD SVG 1.1//EN"
 "http://www.w3.org/Graphics/SVG/1.1/DTD/svg11.dtd">
<!-- Generated by graphviz version 2.38.0 (20140413.2041)
 -->
<!-- Title: CoolMQTT::mqttLoop Pages: 1 -->
<svg width="642pt" height="66pt"
 viewBox="0.00 0.00 642.00 66.00" xmlns="http://www.w3.org/2000/svg" xmlns:xlink="http://www.w3.org/1999/xlink">
<g id="graph0" class="graph" transform="scale(1 1) rotate(0) translate(4 62)">
<title>CoolMQTT::mqttLoop</title>
<polygon fill="white" stroke="none" points="-4,4 -4,-62 638,-62 638,4 -4,4"/>
<!-- Node52 -->
<g id="node1" class="node"><title>Node52</title>
<polygon fill="#bfbfbf" stroke="black" points="0,-19.5 0,-38.5 111,-38.5 111,-19.5 0,-19.5"/>
<text text-anchor="middle" x="55.5" y="-26.5" font-family="Helvetica,sans-Serif" font-size="10.00">CoolMQTT::mqttLoop</text>
</g>
<!-- Node53 -->
<g id="node2" class="node"><title>Node53</title>
<g id="a_node2"><a xlink:href="$d8/d4b/class_cool_pub_sub_client.html#afc15900f0fc4886a19394508e61793b8" xlink:title="CoolPubSubClient::loop">
<polygon fill="white" stroke="black" points="147,-19.5 147,-38.5 268,-38.5 268,-19.5 147,-19.5"/>
<text text-anchor="middle" x="207.5" y="-26.5" font-family="Helvetica,sans-Serif" font-size="10.00">CoolPubSubClient::loop</text>
</a>
</g>
</g>
<!-- Node52&#45;&gt;Node53 -->
<g id="edge1" class="edge"><title>Node52&#45;&gt;Node53</title>
<path fill="none" stroke="midnightblue" d="M111.078,-29C119.447,-29 128.183,-29 136.824,-29"/>
<polygon fill="midnightblue" stroke="midnightblue" points="136.897,-32.5001 146.897,-29 136.897,-25.5001 136.897,-32.5001"/>
</g>
<!-- Node54 -->
<g id="node3" class="node"><title>Node54</title>
<g id="a_node3"><a xlink:href="$d8/d4b/class_cool_pub_sub_client.html#a3d5a5da4ddb1e5c1bea64d80c665d148" xlink:title="CoolPubSubClient::connected">
<polygon fill="white" stroke="black" points="306,-38.5 306,-57.5 454,-57.5 454,-38.5 306,-38.5"/>
<text text-anchor="middle" x="380" y="-45.5" font-family="Helvetica,sans-Serif" font-size="10.00">CoolPubSubClient::connected</text>
</a>
</g>
</g>
<!-- Node53&#45;&gt;Node54 -->
<g id="edge2" class="edge"><title>Node53&#45;&gt;Node54</title>
<path fill="none" stroke="midnightblue" d="M268.133,-35.6453C277.089,-36.6433 286.461,-37.6877 295.8,-38.7285"/>
<polygon fill="midnightblue" stroke="midnightblue" points="295.574,-42.2249 305.9,-39.854 296.35,-35.2679 295.574,-42.2249"/>
</g>
<!-- Node55 -->
<g id="node4" class="node"><title>Node55</title>
<g id="a_node4"><a xlink:href="$d8/d4b/class_cool_pub_sub_client.html#a25a8779149cfa809b7c06f63568b25cf" xlink:title="CoolPubSubClient::readPacket">
<polygon fill="white" stroke="black" points="304,-0.5 304,-19.5 456,-19.5 456,-0.5 304,-0.5"/>
<text text-anchor="middle" x="380" y="-7.5" font-family="Helvetica,sans-Serif" font-size="10.00">CoolPubSubClient::readPacket</text>
</a>
</g>
</g>
<!-- Node53&#45;&gt;Node55 -->
<g id="edge3" class="edge"><title>Node53&#45;&gt;Node55</title>
<path fill="none" stroke="midnightblue" d="M268.133,-22.3547C276.415,-21.4317 285.053,-20.4691 293.692,-19.5064"/>
<polygon fill="midnightblue" stroke="midnightblue" points="294.262,-22.9647 303.813,-18.3786 293.487,-16.0077 294.262,-22.9647"/>
</g>
<!-- Node56 -->
<g id="node5" class="node"><title>Node56</title>
<g id="a_node5"><a xlink:href="$d8/d4b/class_cool_pub_sub_client.html#ad409bbd287d5894f0cf082f62446c002" xlink:title="CoolPubSubClient::readByte">
<polygon fill="white" stroke="black" points="492,-0.5 492,-19.5 634,-19.5 634,-0.5 492,-0.5"/>
<text text-anchor="middle" x="563" y="-7.5" font-family="Helvetica,sans-Serif" font-size="10.00">CoolPubSubClient::readByte</text>
</a>
</g>
</g>
<!-- Node55&#45;&gt;Node56 -->
<g id="edge4" class="edge"><title>Node55&#45;&gt;Node56</title>
<path fill="none" stroke="midnightblue" d="M456.188,-10C464.612,-10 473.219,-10 481.704,-10"/>
<polygon fill="midnightblue" stroke="midnightblue" points="481.974,-13.5001 491.974,-10 481.974,-6.5001 481.974,-13.5001"/>
</g>
</g>
</svg>
