<?xml version="1.0" encoding="UTF-8" standalone="no"?>
<!DOCTYPE svg PUBLIC "-//W3C//DTD SVG 1.1//EN"
 "http://www.w3.org/Graphics/SVG/1.1/DTD/svg11.dtd">
<!-- Generated by graphviz version 2.38.0 (20140413.2041)
 -->
<!-- Title: CoolMQTT::begin Pages: 1 -->
<svg width="300pt" height="180pt"
 viewBox="0.00 0.00 300.00 180.00" xmlns="http://www.w3.org/2000/svg" xmlns:xlink="http://www.w3.org/1999/xlink">
<g id="graph0" class="graph" transform="scale(1 1) rotate(0) translate(4 176)">
<title>CoolMQTT::begin</title>
<polygon fill="white" stroke="none" points="-4,4 -4,-176 296,-176 296,4 -4,4"/>
<!-- Node0 -->
<g id="node1" class="node"><title>Node0</title>
<polygon fill="#bfbfbf" stroke="black" points="0,-76.5 0,-95.5 94,-95.5 94,-76.5 0,-76.5"/>
<text text-anchor="middle" x="47" y="-83.5" font-family="Helvetica,sans-Serif" font-size="10.00">CoolMQTT::begin</text>
</g>
<!-- Node1 -->
<g id="node2" class="node"><title>Node1</title>
<g id="a_node2"><a xlink:href="$d0/dd0/class_cool_m_q_t_t.html#a30d82ad665bfb603f46ecdbc290775df" xlink:title="CoolMQTT::callback">
<polygon fill="white" stroke="black" points="157.5,-152.5 157.5,-171.5 264.5,-171.5 264.5,-152.5 157.5,-152.5"/>
<text text-anchor="middle" x="211" y="-159.5" font-family="Helvetica,sans-Serif" font-size="10.00">CoolMQTT::callback</text>
</a>
</g>
</g>
<!-- Node0&#45;&gt;Node1 -->
<g id="edge1" class="edge"><title>Node0&#45;&gt;Node1</title>
<path fill="none" stroke="midnightblue" d="M58.8569,-95.5724C73.8307,-108.277 102.142,-130.549 130,-143 135.645,-145.523 141.67,-147.736 147.784,-149.672"/>
<polygon fill="midnightblue" stroke="midnightblue" points="146.844,-153.044 157.425,-152.491 148.809,-146.325 146.844,-153.044"/>
</g>
<!-- Node2 -->
<g id="node3" class="node"><title>Node2</title>
<g id="a_node3"><a xlink:href="$d8/d4b/class_cool_pub_sub_client.html#a4f83e54f1ba96e32f725d93cdec283b7" xlink:title="CoolPubSubClient::setBufferSize">
<polygon fill="white" stroke="black" points="130,-114.5 130,-133.5 292,-133.5 292,-114.5 130,-114.5"/>
<text text-anchor="middle" x="211" y="-121.5" font-family="Helvetica,sans-Serif" font-size="10.00">CoolPubSubClient::setBufferSize</text>
</a>
</g>
</g>
<!-- Node0&#45;&gt;Node2 -->
<g id="edge2" class="edge"><title>Node0&#45;&gt;Node2</title>
<path fill="none" stroke="midnightblue" d="M88.8794,-95.589C110.353,-100.626 136.86,-106.844 159.597,-112.177"/>
<polygon fill="midnightblue" stroke="midnightblue" points="158.879,-115.604 169.415,-114.48 160.478,-108.789 158.879,-115.604"/>
</g>
<!-- Node3 -->
<g id="node4" class="node"><title>Node3</title>
<g id="a_node4"><a xlink:href="$d8/d4b/class_cool_pub_sub_client.html#ac5cab7658f1bdded32131241e468e661" xlink:title="CoolPubSubClient::setCallback">
<polygon fill="white" stroke="black" points="133.5,-76.5 133.5,-95.5 288.5,-95.5 288.5,-76.5 133.5,-76.5"/>
<text text-anchor="middle" x="211" y="-83.5" font-family="Helvetica,sans-Serif" font-size="10.00">CoolPubSubClient::setCallback</text>
</a>
</g>
</g>
<!-- Node0&#45;&gt;Node3 -->
<g id="edge3" class="edge"><title>Node0&#45;&gt;Node3</title>
<path fill="none" stroke="midnightblue" d="M94.4227,-86C103.444,-86 113.169,-86 123.013,-86"/>
<polygon fill="midnightblue" stroke="midnightblue" points="123.29,-89.5001 133.29,-86 123.29,-82.5001 123.29,-89.5001"/>
</g>
<!-- Node4 -->
<g id="node5" class="node"><title>Node4</title>
<g id="a_node5"><a xlink:href="$d8/d4b/class_cool_pub_sub_client.html#a7ee119b786010561ab6a9afa0798e91d" xlink:title="CoolPubSubClient::setClient">
<polygon fill="white" stroke="black" points="140,-38.5 140,-57.5 282,-57.5 282,-38.5 140,-38.5"/>
<text text-anchor="middle" x="211" y="-45.5" font-family="Helvetica,sans-Serif" font-size="10.00">CoolPubSubClient::setClient</text>
</a>
</g>
</g>
<!-- Node0&#45;&gt;Node4 -->
<g id="edge4" class="edge"><title>Node0&#45;&gt;Node4</title>
<path fill="none" stroke="midnightblue" d="M88.8794,-76.411C110.353,-71.3739 136.86,-65.1562 159.597,-59.8229"/>
<polygon fill="midnightblue" stroke="midnightblue" points="160.478,-63.2113 169.415,-57.5201 158.879,-56.3963 160.478,-63.2113"/>
</g>
<!-- Node5 -->
<g id="node6" class="node"><title>Node5</title>
<g id="a_node6"><a xlink:href="$d8/d4b/class_cool_pub_sub_client.html#a947e70c394c66c7d08d0c53caf8425e3" xlink:title="CoolPubSubClient::setServer">
<polygon fill="white" stroke="black" points="138.5,-0.5 138.5,-19.5 283.5,-19.5 283.5,-0.5 138.5,-0.5"/>
<text text-anchor="middle" x="211" y="-7.5" font-family="Helvetica,sans-Serif" font-size="10.00">CoolPubSubClient::setServer</text>
</a>
</g>
</g>
<!-- Node0&#45;&gt;Node5 -->
<g id="edge5" class="edge"><title>Node0&#45;&gt;Node5</title>
<path fill="none" stroke="midnightblue" d="M58.8569,-76.4276C73.8307,-63.7234 102.142,-41.4512 130,-29 135.645,-26.4771 141.67,-24.264 147.784,-22.3281"/>
<polygon fill="midnightblue" stroke="midnightblue" points="148.809,-25.6751 157.425,-19.5095 146.844,-18.9564 148.809,-25.6751"/>
</g>
</g>
</svg>
