<?xml version="1.0" encoding="UTF-8" standalone="no"?>
<!DOCTYPE svg PUBLIC "-//W3C//DTD SVG 1.1//EN"
 "http://www.w3.org/Graphics/SVG/1.1/DTD/svg11.dtd">
<!-- Generated by graphviz version 2.38.0 (20140413.2041)
 -->
<!-- Title: CoolMQTT::getUser Pages: 1 -->
<svg width="415pt" height="66pt"
 viewBox="0.00 0.00 415.00 66.00" xmlns="http://www.w3.org/2000/svg" xmlns:xlink="http://www.w3.org/1999/xlink">
<g id="graph0" class="graph" transform="scale(1 1) rotate(0) translate(4 62)">
<title>CoolMQTT::getUser</title>
<polygon fill="white" stroke="none" points="-4,4 -4,-62 411,-62 411,4 -4,4"/>
<!-- Node62 -->
<g id="node1" class="node"><title>Node62</title>
<polygon fill="#bfbfbf" stroke="black" points="0,-19.5 0,-38.5 105,-38.5 105,-19.5 0,-19.5"/>
<text text-anchor="middle" x="52.5" y="-26.5" font-family="Helvetica,sans-Serif" font-size="10.00">CoolMQTT::getUser</text>
</g>
<!-- Node63 -->
<g id="node2" class="node"><title>Node63</title>
<g id="a_node2"><a xlink:href="$d7/df9/class_cool_board.html#ae7358fb6e623cfc81b775f5f1734909b" xlink:title="CoolBoard::userData">
<polygon fill="white" stroke="black" points="141,-19.5 141,-38.5 249,-38.5 249,-19.5 141,-19.5"/>
<text text-anchor="middle" x="195" y="-26.5" font-family="Helvetica,sans-Serif" font-size="10.00">CoolBoard::userData</text>
</a>
</g>
</g>
<!-- Node62&#45;&gt;Node63 -->
<g id="edge1" class="edge"><title>Node62&#45;&gt;Node63</title>
<path fill="none" stroke="midnightblue" d="M115.221,-29C123.681,-29 132.307,-29 140.601,-29"/>
<polygon fill="midnightblue" stroke="midnightblue" points="115.019,-25.5001 105.019,-29 115.019,-32.5001 115.019,-25.5001"/>
</g>
<!-- Node64 -->
<g id="node3" class="node"><title>Node64</title>
<g id="a_node3"><a xlink:href="$d7/df9/class_cool_board.html#ae6b5e1274d760462290192acea4adca8" xlink:title="CoolBoard::offLineMode">
<polygon fill="white" stroke="black" points="285,-38.5 285,-57.5 407,-57.5 407,-38.5 285,-38.5"/>
<text text-anchor="middle" x="346" y="-45.5" font-family="Helvetica,sans-Serif" font-size="10.00">CoolBoard::offLineMode</text>
</a>
</g>
</g>
<!-- Node63&#45;&gt;Node64 -->
<g id="edge2" class="edge"><title>Node63&#45;&gt;Node64</title>
<path fill="none" stroke="midnightblue" d="M259.519,-37.0998C267.941,-38.1736 276.553,-39.2719 284.914,-40.3381"/>
<polygon fill="midnightblue" stroke="midnightblue" points="259.734,-33.5989 249.372,-35.8058 258.848,-40.5427 259.734,-33.5989"/>
</g>
<!-- Node65 -->
<g id="node4" class="node"><title>Node65</title>
<g id="a_node4"><a xlink:href="$d7/df9/class_cool_board.html#aa0bbc4bc605e35618d18e68795c61363" xlink:title="CoolBoard::onLineMode">
<polygon fill="white" stroke="black" points="285.5,-0.5 285.5,-19.5 406.5,-19.5 406.5,-0.5 285.5,-0.5"/>
<text text-anchor="middle" x="346" y="-7.5" font-family="Helvetica,sans-Serif" font-size="10.00">CoolBoard::onLineMode</text>
</a>
</g>
</g>
<!-- Node63&#45;&gt;Node65 -->
<g id="edge3" class="edge"><title>Node63&#45;&gt;Node65</title>
<path fill="none" stroke="midnightblue" d="M259.386,-20.9172C268.022,-19.816 276.861,-18.6889 285.425,-17.5968"/>
<polygon fill="midnightblue" stroke="midnightblue" points="258.848,-17.4573 249.372,-22.1942 259.734,-24.4011 258.848,-17.4573"/>
</g>
</g>
</svg>
