<?xml version="1.0" encoding="UTF-8" standalone="no"?>
<!DOCTYPE svg PUBLIC "-//W3C//DTD SVG 1.1//EN"
 "http://www.w3.org/Graphics/SVG/1.1/DTD/svg11.dtd">
<!-- Generated by graphviz version 2.38.0 (20140413.2041)
 -->
<!-- Title: CoolMQTT::publish Pages: 1 -->
<svg width="420pt" height="123pt"
 viewBox="0.00 0.00 420.00 122.50" xmlns="http://www.w3.org/2000/svg" xmlns:xlink="http://www.w3.org/1999/xlink">
<g id="graph0" class="graph" transform="scale(1 1) rotate(0) translate(4 118.501)">
<title>CoolMQTT::publish</title>
<polygon fill="white" stroke="none" points="-4,4 -4,-118.501 416,-118.501 416,4 -4,4"/>
<!-- Node20 -->
<g id="node1" class="node"><title>Node20</title>
<polygon fill="#bfbfbf" stroke="black" points="0,-57.5 0,-76.5 101,-76.5 101,-57.5 0,-57.5"/>
<text text-anchor="middle" x="50.5" y="-64.5" font-family="Helvetica,sans-Serif" font-size="10.00">CoolMQTT::publish</text>
</g>
<!-- Node21 -->
<g id="node2" class="node"><title>Node21</title>
<g id="a_node2"><a xlink:href="$d7/df9/class_cool_board.html#aa0bbc4bc605e35618d18e68795c61363" xlink:title="CoolBoard::onLineMode">
<polygon fill="white" stroke="black" points="291,-38.5 291,-57.5 412,-57.5 412,-38.5 291,-38.5"/>
<text text-anchor="middle" x="351.5" y="-45.5" font-family="Helvetica,sans-Serif" font-size="10.00">CoolBoard::onLineMode</text>
</a>
</g>
</g>
<!-- Node20&#45;&gt;Node21 -->
<g id="edge1" class="edge"><title>Node20&#45;&gt;Node21</title>
<path fill="none" stroke="midnightblue" d="M76.5224,-81.4724C93.0836,-90.1924 115.614,-100.462 137,-105 188.302,-115.887 204.442,-118.941 255,-105 288.505,-95.7614 322.107,-71.3346 339.106,-57.6455"/>
<polygon fill="midnightblue" stroke="midnightblue" points="77.9719,-78.2766 67.515,-76.5722 74.6267,-84.4256 77.9719,-78.2766"/>
</g>
<!-- Node22 -->
<g id="node3" class="node"><title>Node22</title>
<g id="a_node3"><a xlink:href="$d0/dd0/class_cool_m_q_t_t.html#a613c5e3927ae85bb94fbf648d84d8780" xlink:title="CoolMQTT::publish">
<polygon fill="white" stroke="black" points="145.5,-76.5 145.5,-95.5 246.5,-95.5 246.5,-76.5 145.5,-76.5"/>
<text text-anchor="middle" x="196" y="-83.5" font-family="Helvetica,sans-Serif" font-size="10.00">CoolMQTT::publish</text>
</a>
</g>
</g>
<!-- Node20&#45;&gt;Node22 -->
<g id="edge2" class="edge"><title>Node20&#45;&gt;Node22</title>
<path fill="none" stroke="midnightblue" d="M111.482,-74.9418C122.741,-76.4326 134.397,-77.976 145.301,-79.4197"/>
<polygon fill="midnightblue" stroke="midnightblue" points="111.66,-71.4349 101.287,-73.592 110.741,-78.3743 111.66,-71.4349"/>
</g>
<!-- Node23 -->
<g id="node4" class="node"><title>Node23</title>
<g id="a_node4"><a xlink:href="$d7/df9/class_cool_board.html#a705398b11560603fcdd1b9e8e95d0027" xlink:title="CoolBoard::sendConfig">
<polygon fill="white" stroke="black" points="137,-38.5 137,-57.5 255,-57.5 255,-38.5 137,-38.5"/>
<text text-anchor="middle" x="196" y="-45.5" font-family="Helvetica,sans-Serif" font-size="10.00">CoolBoard::sendConfig</text>
</a>
</g>
</g>
<!-- Node20&#45;&gt;Node23 -->
<g id="edge3" class="edge"><title>Node20&#45;&gt;Node23</title>
<path fill="none" stroke="midnightblue" d="M111.431,-59.0649C119.865,-57.9482 128.524,-56.8018 136.922,-55.6897"/>
<polygon fill="midnightblue" stroke="midnightblue" points="110.741,-55.6257 101.287,-60.408 111.66,-62.5651 110.741,-55.6257"/>
</g>
<!-- Node24 -->
<g id="node5" class="node"><title>Node24</title>
<g id="a_node5"><a xlink:href="$d7/df9/class_cool_board.html#a8612756d3f73198cdde857a66f0fe690" xlink:title="CoolBoard::update">
<polygon fill="white" stroke="black" points="147,-0.5 147,-19.5 245,-19.5 245,-0.5 147,-0.5"/>
<text text-anchor="middle" x="196" y="-7.5" font-family="Helvetica,sans-Serif" font-size="10.00">CoolBoard::update</text>
</a>
</g>
</g>
<!-- Node20&#45;&gt;Node24 -->
<g id="edge5" class="edge"><title>Node20&#45;&gt;Node24</title>
<path fill="none" stroke="midnightblue" d="M80.7132,-53.1321C97.0912,-45.5817 117.991,-36.316 137,-29 145.603,-25.6888 155.058,-22.4338 163.791,-19.5793"/>
<polygon fill="midnightblue" stroke="midnightblue" points="79.2322,-49.9608 71.6411,-57.3516 82.1844,-56.3078 79.2322,-49.9608"/>
</g>
<!-- Node23&#45;&gt;Node21 -->
<g id="edge4" class="edge"><title>Node23&#45;&gt;Node21</title>
<path fill="none" stroke="midnightblue" d="M265.038,-48C273.642,-48 282.394,-48 290.854,-48"/>
<polygon fill="midnightblue" stroke="midnightblue" points="265.032,-44.5001 255.032,-48 265.032,-51.5001 265.032,-44.5001"/>
</g>
<!-- Node24&#45;&gt;Node21 -->
<g id="edge6" class="edge"><title>Node24&#45;&gt;Node21</title>
<path fill="none" stroke="midnightblue" d="M245.635,-22.04C267.08,-27.3488 291.923,-33.4988 312.044,-38.4799"/>
<polygon fill="midnightblue" stroke="midnightblue" points="246.283,-18.5947 235.735,-19.589 244.6,-25.3896 246.283,-18.5947"/>
</g>
</g>
</svg>
