<?xml version="1.0" encoding="UTF-8" standalone="no"?>
<!DOCTYPE svg PUBLIC "-//W3C//DTD SVG 1.1//EN"
 "http://www.w3.org/Graphics/SVG/1.1/DTD/svg11.dtd">
<!-- Generated by graphviz version 2.38.0 (20140413.2041)
 -->
<!-- Title: CoolBoard::readSensors Pages: 1 -->
<svg width="289pt" height="66pt"
 viewBox="0.00 0.00 289.00 66.00" xmlns="http://www.w3.org/2000/svg" xmlns:xlink="http://www.w3.org/1999/xlink">
<g id="graph0" class="graph" transform="scale(1 1) rotate(0) translate(4 62)">
<title>CoolBoard::readSensors</title>
<polygon fill="white" stroke="none" points="-4,4 -4,-62 285,-62 285,4 -4,4"/>
<!-- Node391 -->
<g id="node1" class="node"><title>Node391</title>
<polygon fill="#bfbfbf" stroke="black" points="0,-19.5 0,-38.5 123,-38.5 123,-19.5 0,-19.5"/>
<text text-anchor="middle" x="61.5" y="-26.5" font-family="Helvetica,sans-Serif" font-size="10.00">CoolBoard::readSensors</text>
</g>
<!-- Node392 -->
<g id="node2" class="node"><title>Node392</title>
<g id="a_node2"><a xlink:href="../../d7/df9/class_cool_board.html#ae6b5e1274d760462290192acea4adca8" target="_top" xlink:title="CoolBoard::offLineMode">
<polygon fill="white" stroke="black" points="159,-38.5 159,-57.5 281,-57.5 281,-38.5 159,-38.5"/>
<text text-anchor="middle" x="220" y="-45.5" font-family="Helvetica,sans-Serif" font-size="10.00">CoolBoard::offLineMode</text>
</a>
</g>
</g>
<!-- Node391&#45;&gt;Node392 -->
<g id="edge1" class="edge"><title>Node391&#45;&gt;Node392</title>
<path fill="none" stroke="midnightblue" d="M133.059,-37.5662C141.692,-38.6144 150.452,-39.6779 158.912,-40.7049"/>
<polygon fill="midnightblue" stroke="midnightblue" points="133.356,-34.0767 123.007,-36.3459 132.512,-41.0257 133.356,-34.0767"/>
</g>
<!-- Node393 -->
<g id="node3" class="node"><title>Node393</title>
<g id="a_node3"><a xlink:href="../../d7/df9/class_cool_board.html#aa0bbc4bc605e35618d18e68795c61363" target="_top" xlink:title="CoolBoard::onLineMode">
<polygon fill="white" stroke="black" points="159.5,-0.5 159.5,-19.5 280.5,-19.5 280.5,-0.5 159.5,-0.5"/>
<text text-anchor="middle" x="220" y="-7.5" font-family="Helvetica,sans-Serif" font-size="10.00">CoolBoard::onLineMode</text>
</a>
</g>
</g>
<!-- Node391&#45;&gt;Node393 -->
<g id="edge2" class="edge"><title>Node391&#45;&gt;Node393</title>
<path fill="none" stroke="midnightblue" d="M133.207,-20.4158C141.968,-19.3522 150.856,-18.2731 159.427,-17.2325"/>
<polygon fill="midnightblue" stroke="midnightblue" points="132.512,-16.9743 123.007,-21.6541 133.356,-23.9233 132.512,-16.9743"/>
</g>
</g>
</svg>
