<?xml version="1.0" encoding="UTF-8" standalone="no"?>
<!DOCTYPE svg PUBLIC "-//W3C//DTD SVG 1.1//EN"
 "http://www.w3.org/Graphics/SVG/1.1/DTD/svg11.dtd">
<!-- Generated by graphviz version 2.38.0 (20140413.2041)
 -->
<!-- Title: CoolBoard::userData Pages: 1 -->
<svg width="274pt" height="66pt"
 viewBox="0.00 0.00 274.00 66.00" xmlns="http://www.w3.org/2000/svg" xmlns:xlink="http://www.w3.org/1999/xlink">
<g id="graph0" class="graph" transform="scale(1 1) rotate(0) translate(4 62)">
<title>CoolBoard::userData</title>
<polygon fill="white" stroke="none" points="-4,4 -4,-62 270,-62 270,4 -4,4"/>
<!-- Node405 -->
<g id="node1" class="node"><title>Node405</title>
<polygon fill="#bfbfbf" stroke="black" points="0,-19.5 0,-38.5 108,-38.5 108,-19.5 0,-19.5"/>
<text text-anchor="middle" x="54" y="-26.5" font-family="Helvetica,sans-Serif" font-size="10.00">CoolBoard::userData</text>
</g>
<!-- Node406 -->
<g id="node2" class="node"><title>Node406</title>
<g id="a_node2"><a xlink:href="../../d7/df9/class_cool_board.html#ae6b5e1274d760462290192acea4adca8" target="_top" xlink:title="CoolBoard::offLineMode">
<polygon fill="white" stroke="black" points="144,-38.5 144,-57.5 266,-57.5 266,-38.5 144,-38.5"/>
<text text-anchor="middle" x="205" y="-45.5" font-family="Helvetica,sans-Serif" font-size="10.00">CoolBoard::offLineMode</text>
</a>
</g>
</g>
<!-- Node405&#45;&gt;Node406 -->
<g id="edge1" class="edge"><title>Node405&#45;&gt;Node406</title>
<path fill="none" stroke="midnightblue" d="M118.519,-37.0998C126.941,-38.1736 135.553,-39.2719 143.914,-40.3381"/>
<polygon fill="midnightblue" stroke="midnightblue" points="118.734,-33.5989 108.372,-35.8058 117.848,-40.5427 118.734,-33.5989"/>
</g>
<!-- Node407 -->
<g id="node3" class="node"><title>Node407</title>
<g id="a_node3"><a xlink:href="../../d7/df9/class_cool_board.html#aa0bbc4bc605e35618d18e68795c61363" target="_top" xlink:title="CoolBoard::onLineMode">
<polygon fill="white" stroke="black" points="144.5,-0.5 144.5,-19.5 265.5,-19.5 265.5,-0.5 144.5,-0.5"/>
<text text-anchor="middle" x="205" y="-7.5" font-family="Helvetica,sans-Serif" font-size="10.00">CoolBoard::onLineMode</text>
</a>
</g>
</g>
<!-- Node405&#45;&gt;Node407 -->
<g id="edge2" class="edge"><title>Node405&#45;&gt;Node407</title>
<path fill="none" stroke="midnightblue" d="M118.386,-20.9172C127.022,-19.816 135.861,-18.6889 144.425,-17.5968"/>
<polygon fill="midnightblue" stroke="midnightblue" points="117.848,-17.4573 108.372,-22.1942 118.734,-24.4011 117.848,-17.4573"/>
</g>
</g>
</svg>
