<?xml version="1.0" encoding="UTF-8" standalone="no"?>
<!DOCTYPE svg PUBLIC "-//W3C//DTD SVG 1.1//EN"
 "http://www.w3.org/Graphics/SVG/1.1/DTD/svg11.dtd">
<!-- Generated by graphviz version 2.38.0 (20140413.2041)
 -->
<!-- Title: CoolBoard::isConnected Pages: 1 -->
<svg width="420pt" height="66pt"
 viewBox="0.00 0.00 420.00 66.00" xmlns="http://www.w3.org/2000/svg" xmlns:xlink="http://www.w3.org/1999/xlink">
<g id="graph0" class="graph" transform="scale(1 1) rotate(0) translate(4 62)">
<title>CoolBoard::isConnected</title>
<polygon fill="white" stroke="none" points="-4,4 -4,-62 416,-62 416,4 -4,4"/>
<!-- Node339 -->
<g id="node1" class="node"><title>Node339</title>
<polygon fill="#bfbfbf" stroke="black" points="0,-19.5 0,-38.5 123,-38.5 123,-19.5 0,-19.5"/>
<text text-anchor="middle" x="61.5" y="-26.5" font-family="Helvetica,sans-Serif" font-size="10.00">CoolBoard::isConnected</text>
</g>
<!-- Node340 -->
<g id="node2" class="node"><title>Node340</title>
<g id="a_node2"><a xlink:href="../../d0/dd0/class_cool_m_q_t_t.html#a5d003307eff78efbd585e42b43b72b6d" target="_top" xlink:title="CoolMQTT::state">
<polygon fill="white" stroke="black" points="159,-38.5 159,-57.5 251,-57.5 251,-38.5 159,-38.5"/>
<text text-anchor="middle" x="205" y="-45.5" font-family="Helvetica,sans-Serif" font-size="10.00">CoolMQTT::state</text>
</a>
</g>
</g>
<!-- Node339&#45;&gt;Node340 -->
<g id="edge1" class="edge"><title>Node339&#45;&gt;Node340</title>
<path fill="none" stroke="midnightblue" d="M123.33,-37.168C131.744,-38.2978 140.349,-39.4532 148.656,-40.5686"/>
<polygon fill="midnightblue" stroke="midnightblue" points="148.231,-44.0429 158.608,-41.905 149.163,-37.1052 148.231,-44.0429"/>
</g>
<!-- Node342 -->
<g id="node4" class="node"><title>Node342</title>
<g id="a_node4"><a xlink:href="../../d7/d29/class_cool_wifi.html#a1c7b4d82a4098d346e7593dce92039fa" target="_top" xlink:title="CoolWifi::state">
<polygon fill="white" stroke="black" points="164,-0.5 164,-19.5 246,-19.5 246,-0.5 164,-0.5"/>
<text text-anchor="middle" x="205" y="-7.5" font-family="Helvetica,sans-Serif" font-size="10.00">CoolWifi::state</text>
</a>
</g>
</g>
<!-- Node339&#45;&gt;Node342 -->
<g id="edge3" class="edge"><title>Node339&#45;&gt;Node342</title>
<path fill="none" stroke="midnightblue" d="M123.33,-20.832C133.448,-19.4734 143.842,-18.0777 153.662,-16.7591"/>
<polygon fill="midnightblue" stroke="midnightblue" points="154.208,-20.2174 163.653,-15.4176 153.276,-13.2797 154.208,-20.2174"/>
</g>
<!-- Node341 -->
<g id="node3" class="node"><title>Node341</title>
<g id="a_node3"><a xlink:href="../../d8/d4b/class_cool_pub_sub_client.html#a3245a5afc6d22e61270dcfe392ccb866" target="_top" xlink:title="CoolPubSubClient::state">
<polygon fill="white" stroke="black" points="287,-38.5 287,-57.5 412,-57.5 412,-38.5 287,-38.5"/>
<text text-anchor="middle" x="349.5" y="-45.5" font-family="Helvetica,sans-Serif" font-size="10.00">CoolPubSubClient::state</text>
</a>
</g>
</g>
<!-- Node340&#45;&gt;Node341 -->
<g id="edge2" class="edge"><title>Node340&#45;&gt;Node341</title>
<path fill="none" stroke="midnightblue" d="M251.088,-48C259.234,-48 267.91,-48 276.599,-48"/>
<polygon fill="midnightblue" stroke="midnightblue" points="276.774,-51.5001 286.774,-48 276.774,-44.5001 276.774,-51.5001"/>
</g>
</g>
</svg>
