<?xml version="1.0" encoding="UTF-8" standalone="no"?>
<!DOCTYPE svg PUBLIC "-//W3C//DTD SVG 1.1//EN"
 "http://www.w3.org/Graphics/SVG/1.1/DTD/svg11.dtd">
<!-- Generated by graphviz version 2.38.0 (20140413.2041)
 -->
<!-- Title: CoolBoard::readSensors Pages: 1 -->
<svg width="928pt" height="629pt"
 viewBox="0.00 0.00 928.00 629.00" xmlns="http://www.w3.org/2000/svg" xmlns:xlink="http://www.w3.org/1999/xlink">
<g id="graph0" class="graph" transform="scale(1 1) rotate(0) translate(4 625)">
<title>CoolBoard::readSensors</title>
<polygon fill="white" stroke="none" points="-4,4 -4,-625 924,-625 924,4 -4,4"/>
<!-- Node355 -->
<g id="node1" class="node"><title>Node355</title>
<polygon fill="#bfbfbf" stroke="black" points="0,-380.5 0,-399.5 123,-399.5 123,-380.5 0,-380.5"/>
<text text-anchor="middle" x="61.5" y="-387.5" font-family="Helvetica,sans-Serif" font-size="10.00">CoolBoard::readSensors</text>
</g>
<!-- Node356 -->
<g id="node2" class="node"><title>Node356</title>
<g id="a_node2"><a xlink:href="../../de/dc0/class_cool_board_led.html#ab778f5e7bed0ab74e3906d82110493c3" target="_top" xlink:title="CoolBoardLed::fadeIn">
<polygon fill="white" stroke="black" points="165,-513.5 165,-532.5 276,-532.5 276,-513.5 165,-513.5"/>
<text text-anchor="middle" x="220.5" y="-520.5" font-family="Helvetica,sans-Serif" font-size="10.00">CoolBoardLed::fadeIn</text>
</a>
</g>
</g>
<!-- Node355&#45;&gt;Node356 -->
<g id="edge1" class="edge"><title>Node355&#45;&gt;Node356</title>
<path fill="none" stroke="midnightblue" d="M67.9369,-399.532C80.8556,-421.331 115.585,-475.162 159,-504 162.069,-506.039 165.37,-507.869 168.789,-509.511"/>
<polygon fill="midnightblue" stroke="midnightblue" points="167.467,-512.752 178.04,-513.429 170.197,-506.306 167.467,-512.752"/>
</g>
<!-- Node357 -->
<g id="node3" class="node"><title>Node357</title>
<g id="a_node3"><a xlink:href="../../de/dc0/class_cool_board_led.html#a93d545679237e8cc858324367149775c" target="_top" xlink:title="CoolBoardLed::fadeOut">
<polygon fill="white" stroke="black" points="161,-475.5 161,-494.5 280,-494.5 280,-475.5 161,-475.5"/>
<text text-anchor="middle" x="220.5" y="-482.5" font-family="Helvetica,sans-Serif" font-size="10.00">CoolBoardLed::fadeOut</text>
</a>
</g>
</g>
<!-- Node355&#45;&gt;Node357 -->
<g id="edge2" class="edge"><title>Node355&#45;&gt;Node357</title>
<path fill="none" stroke="midnightblue" d="M72.0663,-399.53C88.4983,-415.412 123.734,-447.383 159,-466 163.053,-468.139 167.387,-470.085 171.804,-471.844"/>
<polygon fill="midnightblue" stroke="midnightblue" points="170.935,-475.253 181.529,-475.398 173.338,-468.678 170.935,-475.253"/>
</g>
<!-- Node358 -->
<g id="node4" class="node"><title>Node358</title>
<g id="a_node4"><a xlink:href="../../d6/d49/class_cool_time.html#a7a7501c5ca77dd1248bea704c44f986c" target="_top" xlink:title="CoolTime::getTimeDate">
<polygon fill="white" stroke="black" points="160,-437.5 160,-456.5 281,-456.5 281,-437.5 160,-437.5"/>
<text text-anchor="middle" x="220.5" y="-444.5" font-family="Helvetica,sans-Serif" font-size="10.00">CoolTime::getTimeDate</text>
</a>
</g>
</g>
<!-- Node355&#45;&gt;Node358 -->
<g id="edge3" class="edge"><title>Node355&#45;&gt;Node358</title>
<path fill="none" stroke="midnightblue" d="M85.3353,-399.521C104.781,-407.501 133.535,-419 159,-428 165.063,-430.143 171.508,-432.297 177.846,-434.345"/>
<polygon fill="midnightblue" stroke="midnightblue" points="177.056,-437.767 187.647,-437.461 179.177,-431.096 177.056,-437.767"/>
</g>
<!-- Node360 -->
<g id="node6" class="node"><title>Node360</title>
<g id="a_node6"><a xlink:href="../../d7/df9/class_cool_board.html#a397b46fadab8f530a8cf4d914c561366" target="_top" xlink:title="CoolBoard::initReadI2C">
<polygon fill="white" stroke="black" points="160.5,-399.5 160.5,-418.5 280.5,-418.5 280.5,-399.5 160.5,-399.5"/>
<text text-anchor="middle" x="220.5" y="-406.5" font-family="Helvetica,sans-Serif" font-size="10.00">CoolBoard::initReadI2C</text>
</a>
</g>
</g>
<!-- Node355&#45;&gt;Node360 -->
<g id="edge5" class="edge"><title>Node355&#45;&gt;Node360</title>
<path fill="none" stroke="midnightblue" d="M123.2,-397.346C132.04,-398.416 141.198,-399.524 150.192,-400.612"/>
<polygon fill="midnightblue" stroke="midnightblue" points="149.904,-404.103 160.253,-401.83 150.746,-397.154 149.904,-404.103"/>
</g>
<!-- Node361 -->
<g id="node7" class="node"><title>Node361</title>
<g id="a_node7"><a xlink:href="../../d1/d2f/class_external_sensors.html#a53177b81eca3be89508b5511ddcd00fc" target="_top" xlink:title="ExternalSensors::read">
<polygon fill="white" stroke="black" points="164,-361.5 164,-380.5 277,-380.5 277,-361.5 164,-361.5"/>
<text text-anchor="middle" x="220.5" y="-368.5" font-family="Helvetica,sans-Serif" font-size="10.00">ExternalSensors::read</text>
</a>
</g>
</g>
<!-- Node355&#45;&gt;Node361 -->
<g id="edge6" class="edge"><title>Node355&#45;&gt;Node361</title>
<path fill="none" stroke="midnightblue" d="M123.2,-382.654C133.231,-381.44 143.672,-380.177 153.818,-378.949"/>
<polygon fill="midnightblue" stroke="midnightblue" points="154.334,-382.412 163.841,-377.736 153.493,-375.463 154.334,-382.412"/>
</g>
<!-- Node363 -->
<g id="node9" class="node"><title>Node363</title>
<g id="a_node9"><a xlink:href="../../de/d46/class_cool_board_sensors.html#a91badb2539d91fda8679f2a597874c48" target="_top" xlink:title="CoolBoardSensors::read">
<polygon fill="white" stroke="black" points="159,-323.5 159,-342.5 282,-342.5 282,-323.5 159,-323.5"/>
<text text-anchor="middle" x="220.5" y="-330.5" font-family="Helvetica,sans-Serif" font-size="10.00">CoolBoardSensors::read</text>
</a>
</g>
</g>
<!-- Node355&#45;&gt;Node363 -->
<g id="edge8" class="edge"><title>Node355&#45;&gt;Node363</title>
<path fill="none" stroke="midnightblue" d="M85.3353,-380.479C104.781,-372.499 133.535,-361 159,-352 165.063,-349.857 171.508,-347.703 177.846,-345.655"/>
<polygon fill="midnightblue" stroke="midnightblue" points="179.177,-348.904 187.647,-342.539 177.056,-342.233 179.177,-348.904"/>
</g>
<!-- Node379 -->
<g id="node25" class="node"><title>Node379</title>
<g id="a_node25"><a xlink:href="../../d6/d03/class_irene3000.html#a852a170feea994ea1df01c6b245b5d9a" target="_top" xlink:title="Irene3000::read">
<polygon fill="white" stroke="black" points="178.5,-95.5 178.5,-114.5 262.5,-114.5 262.5,-95.5 178.5,-95.5"/>
<text text-anchor="middle" x="220.5" y="-102.5" font-family="Helvetica,sans-Serif" font-size="10.00">Irene3000::read</text>
</a>
</g>
</g>
<!-- Node355&#45;&gt;Node379 -->
<g id="edge29" class="edge"><title>Node355&#45;&gt;Node379</title>
<path fill="none" stroke="midnightblue" d="M67.9043,-380.19C90.6449,-338.909 178.784,-178.912 209.15,-123.789"/>
<polygon fill="midnightblue" stroke="midnightblue" points="212.359,-125.217 214.118,-114.769 206.228,-121.839 212.359,-125.217"/>
</g>
<!-- Node390 -->
<g id="node36" class="node"><title>Node390</title>
<g id="a_node36"><a xlink:href="../../de/dc0/class_cool_board_led.html#ad5f0de4c628cbfbf49896042831c64ad" target="_top" xlink:title="CoolBoardLed::strobe">
<polygon fill="white" stroke="black" points="165,-57.5 165,-76.5 276,-76.5 276,-57.5 165,-57.5"/>
<text text-anchor="middle" x="220.5" y="-64.5" font-family="Helvetica,sans-Serif" font-size="10.00">CoolBoardLed::strobe</text>
</a>
</g>
</g>
<!-- Node355&#45;&gt;Node390 -->
<g id="edge45" class="edge"><title>Node355&#45;&gt;Node390</title>
<path fill="none" stroke="midnightblue" d="M62.5378,-380.494C63.2299,-339.153 71.5509,-173.18 159,-86 160.462,-84.5426 162.034,-83.1968 163.693,-81.954"/>
<polygon fill="midnightblue" stroke="midnightblue" points="165.857,-84.7352 172.595,-76.5592 162.229,-78.7487 165.857,-84.7352"/>
</g>
<!-- Node359 -->
<g id="node5" class="node"><title>Node359</title>
<g id="a_node5"><a xlink:href="../../d6/d49/class_cool_time.html#acd537cd4210d7bde4e1f5c47d2ac0456" target="_top" xlink:title="CoolTime::formatDigits">
<polygon fill="white" stroke="black" points="339.5,-601.5 339.5,-620.5 457.5,-620.5 457.5,-601.5 339.5,-601.5"/>
<text text-anchor="middle" x="398.5" y="-608.5" font-family="Helvetica,sans-Serif" font-size="10.00">CoolTime::formatDigits</text>
</a>
</g>
</g>
<!-- Node358&#45;&gt;Node359 -->
<g id="edge4" class="edge"><title>Node358&#45;&gt;Node359</title>
<path fill="none" stroke="midnightblue" d="M268.815,-456.6C273.695,-459.055 278.235,-462.136 282,-466 322.644,-507.714 275.927,-551.727 318,-592 321.591,-595.438 325.688,-598.29 330.085,-600.653"/>
<polygon fill="midnightblue" stroke="midnightblue" points="328.909,-603.961 339.467,-604.848 331.766,-597.571 328.909,-603.961"/>
</g>
<!-- Node362 -->
<g id="node8" class="node"><title>Node362</title>
<g id="a_node8"><a xlink:href="../../d1/d68/class_base_external_sensor.html#a1564f16deacf57b51b9948ac29db4291" target="_top" xlink:title="BaseExternalSensor\l::read">
<polygon fill="white" stroke="black" points="345.5,-552 345.5,-582 451.5,-582 451.5,-552 345.5,-552"/>
<text text-anchor="start" x="353.5" y="-570" font-family="Helvetica,sans-Serif" font-size="10.00">BaseExternalSensor</text>
<text text-anchor="middle" x="398.5" y="-559" font-family="Helvetica,sans-Serif" font-size="10.00">::read</text>
</a>
</g>
</g>
<!-- Node361&#45;&gt;Node362 -->
<g id="edge7" class="edge"><title>Node361&#45;&gt;Node362</title>
<path fill="none" stroke="midnightblue" d="M269.287,-380.586C274.023,-383.046 278.4,-386.132 282,-390 329.298,-440.819 270.711,-491.172 318,-542 323.014,-547.389 329.175,-551.624 335.829,-554.95"/>
<polygon fill="midnightblue" stroke="midnightblue" points="334.576,-558.221 345.146,-558.945 337.335,-551.787 334.576,-558.221"/>
</g>
<!-- Node364 -->
<g id="node10" class="node"><title>Node364</title>
<g id="a_node10"><a xlink:href="../../dd/d67/class_cool_s_i114_x.html#a869d3825147831d707f7ef324a665646" target="_top" xlink:title="CoolSI114X::ReadResponseReg">
<polygon fill="white" stroke="black" points="318,-133.5 318,-152.5 479,-152.5 479,-133.5 318,-133.5"/>
<text text-anchor="middle" x="398.5" y="-140.5" font-family="Helvetica,sans-Serif" font-size="10.00">CoolSI114X::ReadResponseReg</text>
</a>
</g>
</g>
<!-- Node363&#45;&gt;Node364 -->
<g id="edge9" class="edge"><title>Node363&#45;&gt;Node364</title>
<path fill="none" stroke="midnightblue" d="M223.957,-323.436C231.982,-294.221 260.286,-205.494 318,-162 320.47,-160.138 323.096,-158.456 325.833,-156.936"/>
<polygon fill="midnightblue" stroke="midnightblue" points="327.38,-160.076 334.899,-152.613 324.367,-153.758 327.38,-160.076"/>
</g>
<!-- Node366 -->
<g id="node12" class="node"><title>Node366</title>
<g id="a_node12"><a xlink:href="../../dd/d67/class_cool_s_i114_x.html#abf45eb10a6de1be16e68a51624fa2608" target="_top" xlink:title="CoolSI114X::WriteParamData">
<polygon fill="white" stroke="black" points="324.5,-209.5 324.5,-228.5 472.5,-228.5 472.5,-209.5 324.5,-209.5"/>
<text text-anchor="middle" x="398.5" y="-216.5" font-family="Helvetica,sans-Serif" font-size="10.00">CoolSI114X::WriteParamData</text>
</a>
</g>
</g>
<!-- Node363&#45;&gt;Node366 -->
<g id="edge11" class="edge"><title>Node363&#45;&gt;Node366</title>
<path fill="none" stroke="midnightblue" d="M228.276,-323.472C242.542,-304.158 277.697,-260.337 318,-238 322.018,-235.773 326.292,-233.805 330.692,-232.067"/>
<polygon fill="midnightblue" stroke="midnightblue" points="332.209,-235.243 340.475,-228.617 329.881,-228.642 332.209,-235.243"/>
</g>
<!-- Node368 -->
<g id="node14" class="node"><title>Node368</title>
<g id="a_node14"><a xlink:href="../../dd/d67/class_cool_s_i114_x.html#a42e0e574256341443c647a4c0eda87d5" target="_top" xlink:title="CoolSI114X::ReadVisible">
<polygon fill="white" stroke="black" points="334.5,-247.5 334.5,-266.5 462.5,-266.5 462.5,-247.5 334.5,-247.5"/>
<text text-anchor="middle" x="398.5" y="-254.5" font-family="Helvetica,sans-Serif" font-size="10.00">CoolSI114X::ReadVisible</text>
</a>
</g>
</g>
<!-- Node363&#45;&gt;Node368 -->
<g id="edge14" class="edge"><title>Node363&#45;&gt;Node368</title>
<path fill="none" stroke="midnightblue" d="M234.887,-323.324C252.927,-310.71 286.429,-288.759 318,-276 324.276,-273.464 330.974,-271.213 337.718,-269.229"/>
<polygon fill="midnightblue" stroke="midnightblue" points="338.876,-272.54 347.589,-266.512 337.018,-265.791 338.876,-272.54"/>
</g>
<!-- Node370 -->
<g id="node16" class="node"><title>Node370</title>
<g id="a_node16"><a xlink:href="../../dd/d67/class_cool_s_i114_x.html#abc536ee7ae8e3ba9d1069acc3889a2cf" target="_top" xlink:title="CoolSI114X::ReadIR">
<polygon fill="white" stroke="black" points="344,-323.5 344,-342.5 453,-342.5 453,-323.5 344,-323.5"/>
<text text-anchor="middle" x="398.5" y="-330.5" font-family="Helvetica,sans-Serif" font-size="10.00">CoolSI114X::ReadIR</text>
</a>
</g>
</g>
<!-- Node363&#45;&gt;Node370 -->
<g id="edge16" class="edge"><title>Node363&#45;&gt;Node370</title>
<path fill="none" stroke="midnightblue" d="M282.069,-333C298.703,-333 316.789,-333 333.603,-333"/>
<polygon fill="midnightblue" stroke="midnightblue" points="333.884,-336.5 343.884,-333 333.884,-329.5 333.884,-336.5"/>
</g>
<!-- Node371 -->
<g id="node17" class="node"><title>Node371</title>
<g id="a_node17"><a xlink:href="../../dd/d67/class_cool_s_i114_x.html#a14ced664d74e93438440b0274109c111" target="_top" xlink:title="CoolSI114X::ReadUV">
<polygon fill="white" stroke="black" points="342,-285.5 342,-304.5 455,-304.5 455,-285.5 342,-285.5"/>
<text text-anchor="middle" x="398.5" y="-292.5" font-family="Helvetica,sans-Serif" font-size="10.00">CoolSI114X::ReadUV</text>
</a>
</g>
</g>
<!-- Node363&#45;&gt;Node371 -->
<g id="edge18" class="edge"><title>Node363&#45;&gt;Node371</title>
<path fill="none" stroke="midnightblue" d="M265.912,-323.411C289.451,-318.329 318.557,-312.045 343.405,-306.68"/>
<polygon fill="midnightblue" stroke="midnightblue" points="344.371,-310.052 353.407,-304.52 342.894,-303.209 344.371,-310.052"/>
</g>
<!-- Node372 -->
<g id="node18" class="node"><title>Node372</title>
<g id="a_node18"><a xlink:href="../../df/dcf/class_b_m_e280.html#a1bbd14c8591966df531e40085342ff71" target="_top" xlink:title="BME280::readRegister">
<polygon fill="white" stroke="black" points="340.5,-171.5 340.5,-190.5 456.5,-190.5 456.5,-171.5 340.5,-171.5"/>
<text text-anchor="middle" x="398.5" y="-178.5" font-family="Helvetica,sans-Serif" font-size="10.00">BME280::readRegister</text>
</a>
</g>
</g>
<!-- Node363&#45;&gt;Node372 -->
<g id="edge20" class="edge"><title>Node363&#45;&gt;Node372</title>
<path fill="none" stroke="midnightblue" d="M225.513,-323.497C236.424,-298.87 269.13,-232.64 318,-200 321.994,-197.333 326.321,-195.038 330.824,-193.065"/>
<polygon fill="midnightblue" stroke="midnightblue" points="332.176,-196.295 340.262,-189.45 329.672,-189.758 332.176,-196.295"/>
</g>
<!-- Node373 -->
<g id="node19" class="node"><title>Node373</title>
<g id="a_node19"><a xlink:href="../../df/dcf/class_b_m_e280.html#afffdd1d7ded9e1f92200e70669019d97" target="_top" xlink:title="BME280::readTempC">
<polygon fill="white" stroke="black" points="343,-361.5 343,-380.5 454,-380.5 454,-361.5 343,-361.5"/>
<text text-anchor="middle" x="398.5" y="-368.5" font-family="Helvetica,sans-Serif" font-size="10.00">BME280::readTempC</text>
</a>
</g>
</g>
<!-- Node363&#45;&gt;Node373 -->
<g id="edge21" class="edge"><title>Node363&#45;&gt;Node373</title>
<path fill="none" stroke="midnightblue" d="M265.912,-342.589C289.451,-347.671 318.557,-353.955 343.405,-359.32"/>
<polygon fill="midnightblue" stroke="midnightblue" points="342.894,-362.791 353.407,-361.48 344.371,-355.948 342.894,-362.791"/>
</g>
<!-- Node375 -->
<g id="node21" class="node"><title>Node375</title>
<g id="a_node21"><a xlink:href="../../df/dcf/class_b_m_e280.html#ada6e799917afb4f228e6253bc56ffe75" target="_top" xlink:title="BME280::readFloatPressure">
<polygon fill="white" stroke="black" points="328.5,-513.5 328.5,-532.5 468.5,-532.5 468.5,-513.5 328.5,-513.5"/>
<text text-anchor="middle" x="398.5" y="-520.5" font-family="Helvetica,sans-Serif" font-size="10.00">BME280::readFloatPressure</text>
</a>
</g>
</g>
<!-- Node363&#45;&gt;Node375 -->
<g id="edge23" class="edge"><title>Node363&#45;&gt;Node375</title>
<path fill="none" stroke="midnightblue" d="M269.287,-342.586C274.023,-345.046 278.4,-348.132 282,-352 329.298,-402.819 268.96,-454.86 318,-504 319.428,-505.431 320.944,-506.762 322.533,-507.999"/>
<polygon fill="midnightblue" stroke="midnightblue" points="320.713,-510.99 331.022,-513.435 324.488,-505.095 320.713,-510.99"/>
</g>
<!-- Node376 -->
<g id="node22" class="node"><title>Node376</title>
<g id="a_node22"><a xlink:href="../../df/dcf/class_b_m_e280.html#a42ea7232039eebf5aadb391ef6132c35" target="_top" xlink:title="BME280::readFloatHumidity">
<polygon fill="white" stroke="black" points="328.5,-475.5 328.5,-494.5 468.5,-494.5 468.5,-475.5 328.5,-475.5"/>
<text text-anchor="middle" x="398.5" y="-482.5" font-family="Helvetica,sans-Serif" font-size="10.00">BME280::readFloatHumidity</text>
</a>
</g>
</g>
<!-- Node363&#45;&gt;Node376 -->
<g id="edge25" class="edge"><title>Node363&#45;&gt;Node376</title>
<path fill="none" stroke="midnightblue" d="M268.411,-342.554C273.423,-345.016 278.105,-348.111 282,-352 319.6,-389.541 279.114,-429.792 318,-466 319.519,-467.414 321.124,-468.729 322.8,-469.951"/>
<polygon fill="midnightblue" stroke="midnightblue" points="321.333,-473.153 331.704,-475.318 324.946,-467.158 321.333,-473.153"/>
</g>
<!-- Node377 -->
<g id="node23" class="node"><title>Node377</title>
<g id="a_node23"><a xlink:href="../../de/d46/class_cool_board_sensors.html#a6944b6ea7bce8e2fce1b434acfd9d5f3" target="_top" xlink:title="CoolBoardSensors::readVBat">
<polygon fill="white" stroke="black" points="326,-437.5 326,-456.5 471,-456.5 471,-437.5 326,-437.5"/>
<text text-anchor="middle" x="398.5" y="-444.5" font-family="Helvetica,sans-Serif" font-size="10.00">CoolBoardSensors::readVBat</text>
</a>
</g>
</g>
<!-- Node363&#45;&gt;Node377 -->
<g id="edge27" class="edge"><title>Node363&#45;&gt;Node377</title>
<path fill="none" stroke="midnightblue" d="M266.685,-342.529C272.232,-344.994 277.516,-348.096 282,-352 310.189,-376.542 288.973,-404.455 318,-428 320.073,-429.682 322.271,-431.219 324.564,-432.624"/>
<polygon fill="midnightblue" stroke="midnightblue" points="323.327,-435.925 333.817,-437.412 326.544,-429.708 323.327,-435.925"/>
</g>
<!-- Node378 -->
<g id="node24" class="node"><title>Node378</title>
<g id="a_node24"><a xlink:href="../../de/d46/class_cool_board_sensors.html#a8761bff50373c485f4465c8db47d0633" target="_top" xlink:title="CoolBoardSensors::readMoisture">
<polygon fill="white" stroke="black" points="318,-399.5 318,-418.5 479,-418.5 479,-399.5 318,-399.5"/>
<text text-anchor="middle" x="398.5" y="-406.5" font-family="Helvetica,sans-Serif" font-size="10.00">CoolBoardSensors::readMoisture</text>
</a>
</g>
</g>
<!-- Node363&#45;&gt;Node378 -->
<g id="edge28" class="edge"><title>Node363&#45;&gt;Node378</title>
<path fill="none" stroke="midnightblue" d="M261.826,-342.501C268.831,-345.023 275.837,-348.15 282,-352 301.731,-364.325 297.851,-378.37 318,-390 321.908,-392.256 326.072,-394.244 330.367,-395.997"/>
<polygon fill="midnightblue" stroke="midnightblue" points="329.339,-399.347 339.933,-399.47 331.728,-392.768 329.339,-399.347"/>
</g>
<!-- Node365 -->
<g id="node11" class="node"><title>Node365</title>
<g id="a_node11"><a xlink:href="../../dd/d67/class_cool_s_i114_x.html#acc20f8037e156ec4aadcbe90780b1e8b" target="_top" xlink:title="CoolSI114X::ReadByte">
<polygon fill="white" stroke="black" points="528.5,-152.5 528.5,-171.5 647.5,-171.5 647.5,-152.5 528.5,-152.5"/>
<text text-anchor="middle" x="588" y="-159.5" font-family="Helvetica,sans-Serif" font-size="10.00">CoolSI114X::ReadByte</text>
</a>
</g>
</g>
<!-- Node364&#45;&gt;Node365 -->
<g id="edge10" class="edge"><title>Node364&#45;&gt;Node365</title>
<path fill="none" stroke="midnightblue" d="M479.017,-151.058C492.091,-152.383 505.542,-153.746 518.323,-155.041"/>
<polygon fill="midnightblue" stroke="midnightblue" points="518.107,-158.537 528.409,-156.063 518.813,-151.572 518.107,-158.537"/>
</g>
<!-- Node366&#45;&gt;Node365 -->
<g id="edge13" class="edge"><title>Node366&#45;&gt;Node365</title>
<path fill="none" stroke="midnightblue" d="M443.039,-209.455C454.778,-206.648 467.429,-203.408 479,-200 503.855,-192.679 531.4,-182.961 552.452,-175.185"/>
<polygon fill="midnightblue" stroke="midnightblue" points="553.78,-178.425 561.928,-171.654 551.336,-171.866 553.78,-178.425"/>
</g>
<!-- Node367 -->
<g id="node13" class="node"><title>Node367</title>
<g id="a_node13"><a xlink:href="../../dd/d67/class_cool_s_i114_x.html#ac5c8dc5ade604da7a1c8cd1586feefc2" target="_top" xlink:title="CoolSI114X::WriteByte">
<polygon fill="white" stroke="black" points="528.5,-209.5 528.5,-228.5 647.5,-228.5 647.5,-209.5 528.5,-209.5"/>
<text text-anchor="middle" x="588" y="-216.5" font-family="Helvetica,sans-Serif" font-size="10.00">CoolSI114X::WriteByte</text>
</a>
</g>
</g>
<!-- Node366&#45;&gt;Node367 -->
<g id="edge12" class="edge"><title>Node366&#45;&gt;Node367</title>
<path fill="none" stroke="midnightblue" d="M472.529,-219C487.568,-219 503.355,-219 518.236,-219"/>
<polygon fill="midnightblue" stroke="midnightblue" points="518.373,-222.5 528.373,-219 518.373,-215.5 518.373,-222.5"/>
</g>
<!-- Node369 -->
<g id="node15" class="node"><title>Node369</title>
<g id="a_node15"><a xlink:href="../../dd/d67/class_cool_s_i114_x.html#a1d25c9e137874af529804c2ec796a6b9" target="_top" xlink:title="CoolSI114X::ReadHalfWord">
<polygon fill="white" stroke="black" points="518,-285.5 518,-304.5 658,-304.5 658,-285.5 518,-285.5"/>
<text text-anchor="middle" x="588" y="-292.5" font-family="Helvetica,sans-Serif" font-size="10.00">CoolSI114X::ReadHalfWord</text>
</a>
</g>
</g>
<!-- Node368&#45;&gt;Node369 -->
<g id="edge15" class="edge"><title>Node368&#45;&gt;Node369</title>
<path fill="none" stroke="midnightblue" d="M446.814,-266.589C472.114,-271.716 503.45,-278.067 530.075,-283.463"/>
<polygon fill="midnightblue" stroke="midnightblue" points="529.53,-286.924 540.026,-285.48 530.921,-280.063 529.53,-286.924"/>
</g>
<!-- Node370&#45;&gt;Node369 -->
<g id="edge17" class="edge"><title>Node370&#45;&gt;Node369</title>
<path fill="none" stroke="midnightblue" d="M446.814,-323.411C472.114,-318.284 503.45,-311.933 530.075,-306.537"/>
<polygon fill="midnightblue" stroke="midnightblue" points="530.921,-309.937 540.026,-304.52 529.53,-303.076 530.921,-309.937"/>
</g>
<!-- Node371&#45;&gt;Node369 -->
<g id="edge19" class="edge"><title>Node371&#45;&gt;Node369</title>
<path fill="none" stroke="midnightblue" d="M455.249,-295C471.672,-295 489.968,-295 507.574,-295"/>
<polygon fill="midnightblue" stroke="midnightblue" points="507.841,-298.5 517.841,-295 507.841,-291.5 507.841,-298.5"/>
</g>
<!-- Node374 -->
<g id="node20" class="node"><title>Node374</title>
<g id="a_node20"><a xlink:href="../../df/dcf/class_b_m_e280.html#aecca87c2c40a7f2bcabcea921bdc6124" target="_top" xlink:title="BME280::readRegisterRegion">
<polygon fill="white" stroke="black" points="515,-475.5 515,-494.5 661,-494.5 661,-475.5 515,-475.5"/>
<text text-anchor="middle" x="588" y="-482.5" font-family="Helvetica,sans-Serif" font-size="10.00">BME280::readRegisterRegion</text>
</a>
</g>
</g>
<!-- Node373&#45;&gt;Node374 -->
<g id="edge22" class="edge"><title>Node373&#45;&gt;Node374</title>
<path fill="none" stroke="midnightblue" d="M454.231,-380.346C462.777,-382.855 471.314,-386.018 479,-390 517.17,-409.776 552.842,-445.913 572.115,-467.465"/>
<polygon fill="midnightblue" stroke="midnightblue" points="569.67,-469.986 578.891,-475.204 574.937,-465.375 569.67,-469.986"/>
</g>
<!-- Node375&#45;&gt;Node374 -->
<g id="edge24" class="edge"><title>Node375&#45;&gt;Node374</title>
<path fill="none" stroke="midnightblue" d="M446.814,-513.411C472.114,-508.284 503.45,-501.933 530.075,-496.537"/>
<polygon fill="midnightblue" stroke="midnightblue" points="530.921,-499.937 540.026,-494.52 529.53,-493.076 530.921,-499.937"/>
</g>
<!-- Node376&#45;&gt;Node374 -->
<g id="edge26" class="edge"><title>Node376&#45;&gt;Node374</title>
<path fill="none" stroke="midnightblue" d="M468.519,-485C480.348,-485 492.742,-485 504.873,-485"/>
<polygon fill="midnightblue" stroke="midnightblue" points="504.983,-488.5 514.983,-485 504.983,-481.5 504.983,-488.5"/>
</g>
<!-- Node380 -->
<g id="node26" class="node"><title>Node380</title>
<g id="a_node26"><a xlink:href="../../d6/d03/class_irene3000.html#a80bc6dfea106dc3bc54fa20204d4d5dc" target="_top" xlink:title="Irene3000::readTemp">
<polygon fill="white" stroke="black" points="344,-19.5 344,-38.5 453,-38.5 453,-19.5 344,-19.5"/>
<text text-anchor="middle" x="398.5" y="-26.5" font-family="Helvetica,sans-Serif" font-size="10.00">Irene3000::readTemp</text>
</a>
</g>
</g>
<!-- Node379&#45;&gt;Node380 -->
<g id="edge30" class="edge"><title>Node379&#45;&gt;Node380</title>
<path fill="none" stroke="midnightblue" d="M261.826,-95.4989C268.831,-92.977 275.837,-89.8495 282,-86 301.731,-73.6746 297.851,-59.6304 318,-48 323.039,-45.0914 328.503,-42.627 334.127,-40.5393"/>
<polygon fill="midnightblue" stroke="midnightblue" points="335.303,-43.8367 343.695,-37.3695 333.102,-37.1919 335.303,-43.8367"/>
</g>
<!-- Node388 -->
<g id="node34" class="node"><title>Node388</title>
<g id="a_node34"><a xlink:href="../../d6/d03/class_irene3000.html#a436fc0a06681cd0784aba56b9707f19a" target="_top" xlink:title="Irene3000::readPh">
<polygon fill="white" stroke="black" points="350.5,-95.5 350.5,-114.5 446.5,-114.5 446.5,-95.5 350.5,-95.5"/>
<text text-anchor="middle" x="398.5" y="-102.5" font-family="Helvetica,sans-Serif" font-size="10.00">Irene3000::readPh</text>
</a>
</g>
</g>
<!-- Node379&#45;&gt;Node388 -->
<g id="edge39" class="edge"><title>Node379&#45;&gt;Node388</title>
<path fill="none" stroke="midnightblue" d="M262.764,-105C285.803,-105 314.863,-105 340.092,-105"/>
<polygon fill="midnightblue" stroke="midnightblue" points="340.276,-108.5 350.276,-105 340.276,-101.5 340.276,-108.5"/>
</g>
<!-- Node389 -->
<g id="node35" class="node"><title>Node389</title>
<g id="a_node35"><a xlink:href="../../d6/d03/class_irene3000.html#ae73bd2ed14a199a7e83f4d6458476a7c" target="_top" xlink:title="Irene3000::readADSChannel2">
<polygon fill="white" stroke="black" points="325.5,-57.5 325.5,-76.5 471.5,-76.5 471.5,-57.5 325.5,-57.5"/>
<text text-anchor="middle" x="398.5" y="-64.5" font-family="Helvetica,sans-Serif" font-size="10.00">Irene3000::readADSChannel2</text>
</a>
</g>
</g>
<!-- Node379&#45;&gt;Node389 -->
<g id="edge42" class="edge"><title>Node379&#45;&gt;Node389</title>
<path fill="none" stroke="midnightblue" d="M262.764,-96.0907C286.803,-90.9006 317.396,-84.2953 343.352,-78.691"/>
<polygon fill="midnightblue" stroke="midnightblue" points="344.382,-82.0495 353.418,-76.5178 342.904,-75.2071 344.382,-82.0495"/>
</g>
<!-- Node381 -->
<g id="node27" class="node"><title>Node381</title>
<g id="a_node27"><a xlink:href="../../d6/d03/class_irene3000.html#aff7c5da186b388e7272e63ff88a20c34" target="_top" xlink:title="Irene3000::setGain">
<polygon fill="white" stroke="black" points="538.5,-79.5 538.5,-98.5 637.5,-98.5 637.5,-79.5 538.5,-79.5"/>
<text text-anchor="middle" x="588" y="-86.5" font-family="Helvetica,sans-Serif" font-size="10.00">Irene3000::setGain</text>
</a>
</g>
</g>
<!-- Node380&#45;&gt;Node381 -->
<g id="edge31" class="edge"><title>Node380&#45;&gt;Node381</title>
<path fill="none" stroke="midnightblue" d="M449.395,-38.5517C459.369,-41.1191 469.648,-44.2503 479,-48 496.193,-54.8936 497.935,-61.7951 515,-69 521.656,-71.8101 528.823,-74.344 535.964,-76.5889"/>
<polygon fill="midnightblue" stroke="midnightblue" points="535.052,-79.9692 545.635,-79.4699 537.05,-73.2605 535.052,-79.9692"/>
</g>
<!-- Node383 -->
<g id="node29" class="node"><title>Node383</title>
<g id="a_node29"><a xlink:href="../../df/df6/class_adafruit___a_d_s1015.html#a40f38b9e1f3ec397c0670dd632510235" target="_top" xlink:title="Gets a single&#45;ended ADC reading from the specified channel. ">
<polygon fill="white" stroke="black" points="516,-30 516,-60 660,-60 660,-30 516,-30"/>
<text text-anchor="start" x="524" y="-48" font-family="Helvetica,sans-Serif" font-size="10.00">Adafruit_ADS1015::readADC</text>
<text text-anchor="middle" x="588" y="-37" font-family="Helvetica,sans-Serif" font-size="10.00">_SingleEnded</text>
</a>
</g>
</g>
<!-- Node380&#45;&gt;Node383 -->
<g id="edge33" class="edge"><title>Node380&#45;&gt;Node383</title>
<path fill="none" stroke="midnightblue" d="M453.23,-33.585C469.513,-34.9744 487.779,-36.5331 505.456,-38.0415"/>
<polygon fill="midnightblue" stroke="midnightblue" points="505.514,-41.5592 515.776,-38.9222 506.11,-34.5846 505.514,-41.5592"/>
</g>
<!-- Node382 -->
<g id="node28" class="node"><title>Node382</title>
<g id="a_node28"><a xlink:href="../../df/df6/class_adafruit___a_d_s1015.html#a399441eace686975ff22937cbe45cc50" target="_top" xlink:title="Sets the gain and input voltage range. ">
<polygon fill="white" stroke="black" points="697,-79.5 697,-98.5 834,-98.5 834,-79.5 697,-79.5"/>
<text text-anchor="middle" x="765.5" y="-86.5" font-family="Helvetica,sans-Serif" font-size="10.00">Adafruit_ADS1015::setGain</text>
</a>
</g>
</g>
<!-- Node381&#45;&gt;Node382 -->
<g id="edge32" class="edge"><title>Node381&#45;&gt;Node382</title>
<path fill="none" stroke="midnightblue" d="M637.887,-89C653.005,-89 670.052,-89 686.624,-89"/>
<polygon fill="midnightblue" stroke="midnightblue" points="686.859,-92.5001 696.859,-89 686.859,-85.5001 686.859,-92.5001"/>
</g>
<!-- Node384 -->
<g id="node30" class="node"><title>Node384</title>
<g id="a_node30"><a xlink:href="../../d8/daa/_cool_adafruit___a_d_s1015_8cpp.html#a319539381b7551b2f83a92b0b596e97d" target="_top" xlink:title="Writes 16&#45;bits to the specified destination register. ">
<polygon fill="white" stroke="black" points="729.5,-0.5 729.5,-19.5 801.5,-19.5 801.5,-0.5 729.5,-0.5"/>
<text text-anchor="middle" x="765.5" y="-7.5" font-family="Helvetica,sans-Serif" font-size="10.00">readRegister</text>
</a>
</g>
</g>
<!-- Node383&#45;&gt;Node384 -->
<g id="edge34" class="edge"><title>Node383&#45;&gt;Node384</title>
<path fill="none" stroke="midnightblue" d="M660.13,-30.8146C680.079,-26.8361 701.218,-22.6203 719.217,-19.0308"/>
<polygon fill="midnightblue" stroke="midnightblue" points="720.019,-22.44 729.141,-17.0517 718.649,-15.5751 720.019,-22.44"/>
</g>
<!-- Node387 -->
<g id="node33" class="node"><title>Node387</title>
<g id="a_node33"><a xlink:href="../../d8/daa/_cool_adafruit___a_d_s1015_8cpp.html#a00ef55774dfb93dd0a7bf561d8451b71" target="_top" xlink:title="Writes 16&#45;bits to the specified destination register. ">
<polygon fill="white" stroke="black" points="728.5,-38.5 728.5,-57.5 802.5,-57.5 802.5,-38.5 728.5,-38.5"/>
<text text-anchor="middle" x="765.5" y="-45.5" font-family="Helvetica,sans-Serif" font-size="10.00">writeRegister</text>
</a>
</g>
</g>
<!-- Node383&#45;&gt;Node387 -->
<g id="edge37" class="edge"><title>Node383&#45;&gt;Node387</title>
<path fill="none" stroke="midnightblue" d="M660.13,-46.2159C679.669,-46.5499 700.349,-46.9034 718.102,-47.2069"/>
<polygon fill="midnightblue" stroke="midnightblue" points="718.127,-50.7077 728.185,-47.3792 718.247,-43.7087 718.127,-50.7077"/>
</g>
<!-- Node385 -->
<g id="node31" class="node"><title>Node385</title>
<g id="a_node31"><a xlink:href="../../d8/daa/_cool_adafruit___a_d_s1015_8cpp.html#af89e2442d757f6ec8100c473022f6701" target="_top" xlink:title="Abstract away platform differences in Arduino wire library. ">
<polygon fill="white" stroke="black" points="871,-0.5 871,-19.5 919,-19.5 919,-0.5 871,-0.5"/>
<text text-anchor="middle" x="895" y="-7.5" font-family="Helvetica,sans-Serif" font-size="10.00">i2cread</text>
</a>
</g>
</g>
<!-- Node384&#45;&gt;Node385 -->
<g id="edge35" class="edge"><title>Node384&#45;&gt;Node385</title>
<path fill="none" stroke="midnightblue" d="M801.677,-10C820.162,-10 842.688,-10 860.862,-10"/>
<polygon fill="midnightblue" stroke="midnightblue" points="860.996,-13.5001 870.996,-10 860.996,-6.5001 860.996,-13.5001"/>
</g>
<!-- Node386 -->
<g id="node32" class="node"><title>Node386</title>
<g id="a_node32"><a xlink:href="../../d8/daa/_cool_adafruit___a_d_s1015_8cpp.html#a6db5edba66e20bba6d5b421c2789af54" target="_top" xlink:title="Abstract away platform differences in Arduino wire library. ">
<polygon fill="white" stroke="black" points="870,-38.5 870,-57.5 920,-57.5 920,-38.5 870,-38.5"/>
<text text-anchor="middle" x="895" y="-45.5" font-family="Helvetica,sans-Serif" font-size="10.00">i2cwrite</text>
</a>
</g>
</g>
<!-- Node384&#45;&gt;Node386 -->
<g id="edge36" class="edge"><title>Node384&#45;&gt;Node386</title>
<path fill="none" stroke="midnightblue" d="M801.248,-19.5494C811.788,-22.5083 823.386,-25.8265 834,-29 842.502,-31.5421 851.649,-34.3837 860.176,-37.0787"/>
<polygon fill="midnightblue" stroke="midnightblue" points="859.234,-40.4519 869.824,-40.1485 861.356,-33.7813 859.234,-40.4519"/>
</g>
<!-- Node387&#45;&gt;Node386 -->
<g id="edge38" class="edge"><title>Node387&#45;&gt;Node386</title>
<path fill="none" stroke="midnightblue" d="M802.695,-48C820.498,-48 841.851,-48 859.43,-48"/>
<polygon fill="midnightblue" stroke="midnightblue" points="859.821,-51.5001 869.821,-48 859.821,-44.5001 859.821,-51.5001"/>
</g>
<!-- Node388&#45;&gt;Node381 -->
<g id="edge40" class="edge"><title>Node388&#45;&gt;Node381</title>
<path fill="none" stroke="midnightblue" d="M446.814,-100.963C471.524,-98.854 501.991,-96.2541 528.204,-94.0173"/>
<polygon fill="midnightblue" stroke="midnightblue" points="528.728,-97.4854 538.394,-93.1477 528.133,-90.5107 528.728,-97.4854"/>
</g>
<!-- Node388&#45;&gt;Node383 -->
<g id="edge41" class="edge"><title>Node388&#45;&gt;Node383</title>
<path fill="none" stroke="midnightblue" d="M445.732,-95.4666C456.745,-92.7801 468.381,-89.5946 479,-86 495.585,-80.3858 498.715,-76.4328 515,-70 520.519,-67.8199 526.313,-65.6365 532.118,-63.5178"/>
<polygon fill="midnightblue" stroke="midnightblue" points="533.619,-66.6977 541.849,-60.0253 531.254,-60.1092 533.619,-66.6977"/>
</g>
<!-- Node389&#45;&gt;Node381 -->
<g id="edge43" class="edge"><title>Node389&#45;&gt;Node381</title>
<path fill="none" stroke="midnightblue" d="M471.724,-75.4743C490.439,-77.6701 510.363,-80.0079 528.29,-82.1114"/>
<polygon fill="midnightblue" stroke="midnightblue" points="527.966,-85.5973 538.306,-83.2866 528.782,-78.645 527.966,-85.5973"/>
</g>
<!-- Node389&#45;&gt;Node383 -->
<g id="edge44" class="edge"><title>Node389&#45;&gt;Node383</title>
<path fill="none" stroke="midnightblue" d="M471.724,-58.5257C482.782,-57.2282 494.262,-55.8812 505.503,-54.5623"/>
<polygon fill="midnightblue" stroke="midnightblue" points="506.216,-58.0027 515.74,-53.3611 505.401,-51.0504 506.216,-58.0027"/>
</g>
</g>
</svg>
