<?xml version="1.0" encoding="UTF-8" standalone="no"?>
<!DOCTYPE svg PUBLIC "-//W3C//DTD SVG 1.1//EN"
 "http://www.w3.org/Graphics/SVG/1.1/DTD/svg11.dtd">
<!-- Generated by graphviz version 2.38.0 (20140413.2041)
 -->
<!-- Title: CoolBoard::connect Pages: 1 -->
<!--zoomable 294 -->
<svg id="main" version="1.1" xmlns="http://www.w3.org/2000/svg" xmlns:xlink="http://www.w3.org/1999/xlink" xml:space="preserve" onload="init(evt)">
<style type="text/css"><![CDATA[
.edge:hover path { stroke: red; }
.edge:hover polygon { stroke: red; fill: red; }
]]></style>
<script type="text/javascript"><![CDATA[
var edges = document.getElementsByTagName('g');
if (edges && edges.length) {
  for (var i=0;i<edges.length;i++) {
    if (edges[i].id.substr(0,4)=='edge') {
      edges[i].setAttribute('class','edge');
    }
  }
}
]]></script>
        <defs>
                <circle id="rim" cx="0" cy="0" r="7"/>
                <circle id="rim2" cx="0" cy="0" r="3.5"/>
                <g id="zoomPlus">
                        <use xlink:href="#rim" fill="#404040">
                                <set attributeName="fill" to="#808080" begin="zoomplus.mouseover" end="zoomplus.mouseout"/>
                        </use>
                        <path d="M-4,0h8M0,-4v8" fill="none" stroke="white" stroke-width="1.5" pointer-events="none"/>
                </g>
                <g id="zoomMin">
                        <use xlink:href="#rim" fill="#404040">
                                <set attributeName="fill" to="#808080" begin="zoomminus.mouseover" end="zoomminus.mouseout"/>
                        </use>
                        <path d="M-4,0h8" fill="none" stroke="white" stroke-width="1.5" pointer-events="none"/>
                </g>
                <g id="dirArrow">
                        <path fill="none" stroke="white" stroke-width="1.5" d="M0,-3.0v7 M-2.5,-0.5L0,-3.0L2.5,-0.5"/>
                </g>
               <g id="resetDef">
                       <use xlink:href="#rim2" fill="#404040">
                               <set attributeName="fill" to="#808080" begin="reset.mouseover" end="reset.mouseout"/>
                       </use>
               </g>
        </defs>

<script type="text/javascript">
var viewWidth = 872;
var viewHeight = 294;
var sectionId = 'dynsection-7';
</script>
<script xlink:href="../../svgpan.js"/>
<svg id="graph" class="graph">
<g id="viewport">
<title>CoolBoard::connect</title>
<polygon fill="white" stroke="none" points="-4,4 -4,-290 868,-290 868,4 -4,4"/>
<!-- Node317 -->
<g id="node1" class="node"><title>Node317</title>
<polygon fill="#bfbfbf" stroke="black" points="0,-114.5 0,-133.5 103,-133.5 103,-114.5 0,-114.5"/>
<text text-anchor="middle" x="51.5" y="-121.5" font-family="Helvetica,sans-Serif" font-size="10.00">CoolBoard::connect</text>
</g>
<!-- Node318 -->
<g id="node2" class="node"><title>Node318</title>
<g id="a_node2"><a xlink:href="../../de/dc0/class_cool_board_led.html#a96e1ea13003eee34c9dbcef340404426" target="_top" xlink:title="CoolBoardLed::blink">
<polygon fill="white" stroke="black" points="152,-228.5 152,-247.5 256,-247.5 256,-228.5 152,-228.5"/>
<text text-anchor="middle" x="204" y="-235.5" font-family="Helvetica,sans-Serif" font-size="10.00">CoolBoardLed::blink</text>
</a>
</g>
</g>
<!-- Node317&#45;&gt;Node318 -->
<g id="edge1" class="edge"><title>Node317&#45;&gt;Node318</title>
<path fill="none" stroke="midnightblue" d="M58.6177,-133.673C71.2533,-152.862 102.157,-195.881 139,-219 142.329,-221.089 145.898,-222.958 149.587,-224.628"/>
<polygon fill="midnightblue" stroke="midnightblue" points="148.346,-227.901 158.93,-228.384 150.957,-221.407 148.346,-227.901"/>
</g>
<!-- Node319 -->
<g id="node3" class="node"><title>Node319</title>
<g id="a_node3"><a xlink:href="../../d0/dd0/class_cool_m_q_t_t.html#a50075d0ab23a327ab897fd6adad20eda" target="_top" xlink:title="CoolMQTT::connect">
<polygon fill="white" stroke="black" points="151.5,-190.5 151.5,-209.5 256.5,-209.5 256.5,-190.5 151.5,-190.5"/>
<text text-anchor="middle" x="204" y="-197.5" font-family="Helvetica,sans-Serif" font-size="10.00">CoolMQTT::connect</text>
</a>
</g>
</g>
<!-- Node317&#45;&gt;Node319 -->
<g id="edge2" class="edge"><title>Node317&#45;&gt;Node319</title>
<path fill="none" stroke="midnightblue" d="M66.7403,-133.67C83.5245,-144.802 112.494,-163.195 139,-176 147.152,-179.938 156.128,-183.66 164.715,-186.946"/>
<polygon fill="midnightblue" stroke="midnightblue" points="163.585,-190.26 174.178,-190.457 166.021,-183.697 163.585,-190.26"/>
</g>
<!-- Node323 -->
<g id="node7" class="node"><title>Node323</title>
<g id="a_node7"><a xlink:href="../../d0/dd0/class_cool_m_q_t_t.html#a5d003307eff78efbd585e42b43b72b6d" target="_top" xlink:title="CoolMQTT::state">
<polygon fill="white" stroke="black" points="333,-152.5 333,-171.5 425,-171.5 425,-152.5 333,-152.5"/>
<text text-anchor="middle" x="379" y="-159.5" font-family="Helvetica,sans-Serif" font-size="10.00">CoolMQTT::state</text>
</a>
</g>
</g>
<!-- Node317&#45;&gt;Node323 -->
<g id="edge18" class="edge"><title>Node317&#45;&gt;Node323</title>
<path fill="none" stroke="midnightblue" d="M90.615,-133.552C105.611,-137 123.032,-140.623 139,-143 201.651,-152.326 274.27,-157.279 322.868,-159.761"/>
<polygon fill="midnightblue" stroke="midnightblue" points="322.701,-163.257 332.861,-160.254 323.046,-156.266 322.701,-163.257"/>
</g>
<!-- Node325 -->
<g id="node9" class="node"><title>Node325</title>
<g id="a_node9"><a xlink:href="../../d7/d29/class_cool_wifi.html#ad060353050f40d032a2dbf9e54a768bf" target="_top" xlink:title="CoolWifi::connect">
<polygon fill="white" stroke="black" points="156.5,-114.5 156.5,-133.5 251.5,-133.5 251.5,-114.5 156.5,-114.5"/>
<text text-anchor="middle" x="204" y="-121.5" font-family="Helvetica,sans-Serif" font-size="10.00">CoolWifi::connect</text>
</a>
</g>
</g>
<!-- Node317&#45;&gt;Node325 -->
<g id="edge8" class="edge"><title>Node317&#45;&gt;Node325</title>
<path fill="none" stroke="midnightblue" d="M103.033,-124C116.914,-124 132.056,-124 146.261,-124"/>
<polygon fill="midnightblue" stroke="midnightblue" points="146.407,-127.5 156.407,-124 146.407,-120.5 146.407,-127.5"/>
</g>
<!-- Node333 -->
<g id="node17" class="node"><title>Node333</title>
<g id="a_node17"><a xlink:href="../../d7/df9/class_cool_board.html#a7508e029f2ee17bb747ffab599285e0d" target="_top" xlink:title="CoolBoard::getLogInterval">
<polygon fill="white" stroke="black" points="139,-76.5 139,-95.5 269,-95.5 269,-76.5 139,-76.5"/>
<text text-anchor="middle" x="204" y="-83.5" font-family="Helvetica,sans-Serif" font-size="10.00">CoolBoard::getLogInterval</text>
</a>
</g>
</g>
<!-- Node317&#45;&gt;Node333 -->
<g id="edge16" class="edge"><title>Node317&#45;&gt;Node333</title>
<path fill="none" stroke="midnightblue" d="M90.4775,-114.411C110.159,-109.442 134.391,-103.323 155.321,-98.0387"/>
<polygon fill="midnightblue" stroke="midnightblue" points="156.457,-101.362 165.296,-95.5201 154.743,-94.5747 156.457,-101.362"/>
</g>
<!-- Node334 -->
<g id="node18" class="node"><title>Node334</title>
<g id="a_node18"><a xlink:href="../../d7/d29/class_cool_wifi.html#a1c7b4d82a4098d346e7593dce92039fa" target="_top" xlink:title="CoolWifi::state">
<polygon fill="white" stroke="black" points="163,-38.5 163,-57.5 245,-57.5 245,-38.5 163,-38.5"/>
<text text-anchor="middle" x="204" y="-45.5" font-family="Helvetica,sans-Serif" font-size="10.00">CoolWifi::state</text>
</a>
</g>
</g>
<!-- Node317&#45;&gt;Node334 -->
<g id="edge17" class="edge"><title>Node317&#45;&gt;Node334</title>
<path fill="none" stroke="midnightblue" d="M64.4295,-114.481C80.5219,-102.04 110.466,-80.2808 139,-67 143.926,-64.7074 149.193,-62.6174 154.512,-60.7326"/>
<polygon fill="midnightblue" stroke="midnightblue" points="155.688,-64.0301 164.08,-57.5622 153.486,-57.3855 155.688,-64.0301"/>
</g>
<!-- Node335 -->
<g id="node19" class="node"><title>Node335</title>
<g id="a_node19"><a xlink:href="../../de/dc0/class_cool_board_led.html#a30fadd4cbec17ceea428bf7a32207e87" target="_top" xlink:title="CoolBoardLed::write">
<polygon fill="white" stroke="black" points="151.5,-0.5 151.5,-19.5 256.5,-19.5 256.5,-0.5 151.5,-0.5"/>
<text text-anchor="middle" x="204" y="-7.5" font-family="Helvetica,sans-Serif" font-size="10.00">CoolBoardLed::write</text>
</a>
</g>
</g>
<!-- Node317&#45;&gt;Node335 -->
<g id="edge19" class="edge"><title>Node317&#45;&gt;Node335</title>
<path fill="none" stroke="midnightblue" d="M58.6177,-114.327C71.2533,-95.1381 102.157,-52.1189 139,-29 142.329,-26.9112 145.898,-25.0424 149.587,-23.372"/>
<polygon fill="midnightblue" stroke="midnightblue" points="150.957,-26.5934 158.93,-19.6161 148.346,-20.0985 150.957,-26.5934"/>
</g>
<!-- Node320 -->
<g id="node4" class="node"><title>Node320</title>
<g id="a_node4"><a xlink:href="../../d8/d4b/class_cool_pub_sub_client.html#a3d5a5da4ddb1e5c1bea64d80c665d148" target="_top" xlink:title="CoolPubSubClient::connected">
<polygon fill="white" stroke="black" points="305,-266.5 305,-285.5 453,-285.5 453,-266.5 305,-266.5"/>
<text text-anchor="middle" x="379" y="-273.5" font-family="Helvetica,sans-Serif" font-size="10.00">CoolPubSubClient::connected</text>
</a>
</g>
</g>
<!-- Node319&#45;&gt;Node320 -->
<g id="edge3" class="edge"><title>Node319&#45;&gt;Node320</title>
<path fill="none" stroke="midnightblue" d="M248.668,-209.601C255.741,-212.09 262.777,-215.18 269,-219 288.827,-231.17 284.969,-245.168 305,-257 308.679,-259.173 312.605,-261.1 316.657,-262.81"/>
<polygon fill="midnightblue" stroke="midnightblue" points="315.688,-266.185 326.28,-266.416 318.144,-259.63 315.688,-266.185"/>
</g>
<!-- Node321 -->
<g id="node5" class="node"><title>Node321</title>
<g id="a_node5"><a xlink:href="../../d8/d4b/class_cool_pub_sub_client.html#a2664c2ebc302b2fa49f493a339ecc891" target="_top" xlink:title="CoolPubSubClient::connect">
<polygon fill="white" stroke="black" points="310.5,-228.5 310.5,-247.5 447.5,-247.5 447.5,-228.5 310.5,-228.5"/>
<text text-anchor="middle" x="379" y="-235.5" font-family="Helvetica,sans-Serif" font-size="10.00">CoolPubSubClient::connect</text>
</a>
</g>
</g>
<!-- Node319&#45;&gt;Node321 -->
<g id="edge4" class="edge"><title>Node319&#45;&gt;Node321</title>
<path fill="none" stroke="midnightblue" d="M248.655,-209.589C271.793,-214.671 300.402,-220.955 324.827,-226.32"/>
<polygon fill="midnightblue" stroke="midnightblue" points="324.141,-229.753 334.659,-228.48 325.642,-222.916 324.141,-229.753"/>
</g>
<!-- Node322 -->
<g id="node6" class="node"><title>Node322</title>
<g id="a_node6"><a xlink:href="../../d8/d4b/class_cool_pub_sub_client.html#ac1ebc9ad874128aefa985d78496d2e8f" target="_top" xlink:title="CoolPubSubClient::subscribe">
<polygon fill="white" stroke="black" points="306.5,-190.5 306.5,-209.5 451.5,-209.5 451.5,-190.5 306.5,-190.5"/>
<text text-anchor="middle" x="379" y="-197.5" font-family="Helvetica,sans-Serif" font-size="10.00">CoolPubSubClient::subscribe</text>
</a>
</g>
</g>
<!-- Node319&#45;&gt;Node322 -->
<g id="edge5" class="edge"><title>Node319&#45;&gt;Node322</title>
<path fill="none" stroke="midnightblue" d="M256.906,-200C269.278,-200 282.781,-200 296.137,-200"/>
<polygon fill="midnightblue" stroke="midnightblue" points="296.3,-203.5 306.3,-200 296.299,-196.5 296.3,-203.5"/>
</g>
<!-- Node319&#45;&gt;Node323 -->
<g id="edge6" class="edge"><title>Node319&#45;&gt;Node323</title>
<path fill="none" stroke="midnightblue" d="M248.655,-190.411C271.793,-185.329 300.402,-179.045 324.827,-173.68"/>
<polygon fill="midnightblue" stroke="midnightblue" points="325.642,-177.084 334.659,-171.52 324.141,-170.247 325.642,-177.084"/>
</g>
<!-- Node324 -->
<g id="node8" class="node"><title>Node324</title>
<g id="a_node8"><a xlink:href="../../d8/d4b/class_cool_pub_sub_client.html#a3245a5afc6d22e61270dcfe392ccb866" target="_top" xlink:title="CoolPubSubClient::state">
<polygon fill="white" stroke="black" points="522,-152.5 522,-171.5 647,-171.5 647,-152.5 522,-152.5"/>
<text text-anchor="middle" x="584.5" y="-159.5" font-family="Helvetica,sans-Serif" font-size="10.00">CoolPubSubClient::state</text>
</a>
</g>
</g>
<!-- Node323&#45;&gt;Node324 -->
<g id="edge7" class="edge"><title>Node323&#45;&gt;Node324</title>
<path fill="none" stroke="midnightblue" d="M425.163,-162C450.616,-162 482.997,-162 511.834,-162"/>
<polygon fill="midnightblue" stroke="midnightblue" points="511.869,-165.5 521.869,-162 511.869,-158.5 511.869,-165.5"/>
</g>
<!-- Node326 -->
<g id="node10" class="node"><title>Node326</title>
<g id="a_node10"><a xlink:href="../../d7/d29/class_cool_wifi.html#a419de92d738f14b7444cf822b3ab0070" target="_top" xlink:title="CoolWifi::connectWifiMulti">
<polygon fill="white" stroke="black" points="312.5,-114.5 312.5,-133.5 445.5,-133.5 445.5,-114.5 312.5,-114.5"/>
<text text-anchor="middle" x="379" y="-121.5" font-family="Helvetica,sans-Serif" font-size="10.00">CoolWifi::connectWifiMulti</text>
</a>
</g>
</g>
<!-- Node325&#45;&gt;Node326 -->
<g id="edge9" class="edge"><title>Node325&#45;&gt;Node326</title>
<path fill="none" stroke="midnightblue" d="M251.816,-124C267.375,-124 285.121,-124 302.291,-124"/>
<polygon fill="midnightblue" stroke="midnightblue" points="302.313,-127.5 312.313,-124 302.313,-120.5 302.313,-127.5"/>
</g>
<!-- Node327 -->
<g id="node11" class="node"><title>Node327</title>
<g id="a_node11"><a xlink:href="../../d7/d29/class_cool_wifi.html#a7c857f27161782f5ef1d62d552aff971" target="_top" xlink:title="CoolWifi::connectAP">
<polygon fill="white" stroke="black" points="325,-76.5 325,-95.5 433,-95.5 433,-76.5 325,-76.5"/>
<text text-anchor="middle" x="379" y="-83.5" font-family="Helvetica,sans-Serif" font-size="10.00">CoolWifi::connectAP</text>
</a>
</g>
</g>
<!-- Node325&#45;&gt;Node327 -->
<g id="edge10" class="edge"><title>Node325&#45;&gt;Node327</title>
<path fill="none" stroke="midnightblue" d="M248.655,-114.411C271.793,-109.329 300.402,-103.045 324.827,-97.6797"/>
<polygon fill="midnightblue" stroke="midnightblue" points="325.642,-101.084 334.659,-95.5201 324.141,-94.247 325.642,-101.084"/>
</g>
<!-- Node328 -->
<g id="node12" class="node"><title>Node328</title>
<g id="a_node12"><a xlink:href="../../d4/dc8/class_wi_fi_manager.html#a4dd1dbf4f22900f226a3897b88155212" target="_top" xlink:title="WiFiManager::setRemoveDuplicateAPs">
<polygon fill="white" stroke="black" points="489,-114.5 489,-133.5 680,-133.5 680,-114.5 489,-114.5"/>
<text text-anchor="middle" x="584.5" y="-121.5" font-family="Helvetica,sans-Serif" font-size="10.00">WiFiManager::setRemoveDuplicateAPs</text>
</a>
</g>
</g>
<!-- Node327&#45;&gt;Node328 -->
<g id="edge11" class="edge"><title>Node327&#45;&gt;Node328</title>
<path fill="none" stroke="midnightblue" d="M431.089,-95.54C458.788,-100.712 493.211,-107.14 522.331,-112.578"/>
<polygon fill="midnightblue" stroke="midnightblue" points="521.917,-116.061 532.39,-114.456 523.202,-109.18 521.917,-116.061"/>
</g>
<!-- Node329 -->
<g id="node13" class="node"><title>Node329</title>
<g id="a_node13"><a xlink:href="../../d4/dc8/class_wi_fi_manager.html#aa6493d59c284ff245edb767ff684756d" target="_top" xlink:title="WiFiManager::setTimeout">
<polygon fill="white" stroke="black" points="520,-76.5 520,-95.5 649,-95.5 649,-76.5 520,-76.5"/>
<text text-anchor="middle" x="584.5" y="-83.5" font-family="Helvetica,sans-Serif" font-size="10.00">WiFiManager::setTimeout</text>
</a>
</g>
</g>
<!-- Node327&#45;&gt;Node329 -->
<g id="edge12" class="edge"><title>Node327&#45;&gt;Node329</title>
<path fill="none" stroke="midnightblue" d="M433.201,-86C456.49,-86 484.21,-86 509.464,-86"/>
<polygon fill="midnightblue" stroke="midnightblue" points="509.744,-89.5001 519.744,-86 509.744,-82.5001 509.744,-89.5001"/>
</g>
<!-- Node331 -->
<g id="node15" class="node"><title>Node331</title>
<g id="a_node15"><a xlink:href="../../d4/dc8/class_wi_fi_manager.html#ae3cdfa6b02edcfe63d7da4f696b62136" target="_top" xlink:title="WiFiManager::autoConnect">
<polygon fill="white" stroke="black" points="516.5,-38.5 516.5,-57.5 652.5,-57.5 652.5,-38.5 516.5,-38.5"/>
<text text-anchor="middle" x="584.5" y="-45.5" font-family="Helvetica,sans-Serif" font-size="10.00">WiFiManager::autoConnect</text>
</a>
</g>
</g>
<!-- Node327&#45;&gt;Node331 -->
<g id="edge14" class="edge"><title>Node327&#45;&gt;Node331</title>
<path fill="none" stroke="midnightblue" d="M431.089,-76.46C458.788,-71.2878 493.211,-64.8599 522.331,-59.4222"/>
<polygon fill="midnightblue" stroke="midnightblue" points="523.202,-62.8201 532.39,-57.5439 521.917,-55.939 523.202,-62.8201"/>
</g>
<!-- Node332 -->
<g id="node16" class="node"><title>Node332</title>
<g id="a_node16"><a xlink:href="../../d7/d29/class_cool_wifi.html#a914d7a1df14dd6b75345fb614c34e9d6" target="_top" xlink:title="CoolWifi::addWifi">
<polygon fill="white" stroke="black" points="538,-0.5 538,-19.5 631,-19.5 631,-0.5 538,-0.5"/>
<text text-anchor="middle" x="584.5" y="-7.5" font-family="Helvetica,sans-Serif" font-size="10.00">CoolWifi::addWifi</text>
</a>
</g>
</g>
<!-- Node327&#45;&gt;Node332 -->
<g id="edge15" class="edge"><title>Node327&#45;&gt;Node332</title>
<path fill="none" stroke="midnightblue" d="M394.9,-76.4531C415.336,-63.7778 453.568,-41.5382 489,-29 501.199,-24.683 514.651,-21.2405 527.485,-18.5379"/>
<polygon fill="midnightblue" stroke="midnightblue" points="528.484,-21.908 537.61,-16.5266 527.12,-15.0422 528.484,-21.908"/>
</g>
<!-- Node330 -->
<g id="node14" class="node"><title>Node330</title>
<g id="a_node14"><a xlink:href="../../d4/dc8/class_wi_fi_manager.html#a904006cb4d2c769e93bfdef336853766" target="_top" xlink:title="WiFiManager::setConfigPortal\lTimeout">
<polygon fill="white" stroke="black" points="716,-71 716,-101 864,-101 864,-71 716,-71"/>
<text text-anchor="start" x="724" y="-89" font-family="Helvetica,sans-Serif" font-size="10.00">WiFiManager::setConfigPortal</text>
<text text-anchor="middle" x="790" y="-78" font-family="Helvetica,sans-Serif" font-size="10.00">Timeout</text>
</a>
</g>
</g>
<!-- Node329&#45;&gt;Node330 -->
<g id="edge13" class="edge"><title>Node329&#45;&gt;Node330</title>
<path fill="none" stroke="midnightblue" d="M649.052,-86C667.043,-86 686.898,-86 705.861,-86"/>
<polygon fill="midnightblue" stroke="midnightblue" points="705.982,-89.5001 715.982,-86 705.982,-82.5001 705.982,-89.5001"/>
</g>
</g>
</svg>
        <g id="navigator" transform="translate(0 0)" fill="#404254">
                <rect fill="#f2f5e9" fill-opacity="0.5" stroke="#606060" stroke-width=".5" x="0" y="0" width="60" height="60"/>
                <use id="zoomplus" xlink:href="#zoomPlus" x="17" y="9" onmousedown="handleZoom(evt,'in')"/>
                <use id="zoomminus" xlink:href="#zoomMin" x="42" y="9" onmousedown="handleZoom(evt,'out')"/>
                <use id="reset" xlink:href="#resetDef" x="30" y="36" onmousedown="handleReset()"/>
                <g id="arrowUp" xlink:href="#dirArrow" transform="translate(30 24)" onmousedown="handlePan(0,-1)">
                  <use xlink:href="#rim" fill="#404040">
                        <set attributeName="fill" to="#808080" begin="arrowUp.mouseover" end="arrowUp.mouseout"/>
                  </use>
                  <path fill="none" stroke="white" stroke-width="1.5" d="M0,-3.0v7 M-2.5,-0.5L0,-3.0L2.5,-0.5"/>
                </g>
                <g id="arrowRight" xlink:href="#dirArrow" transform="rotate(90) translate(36 -43)" onmousedown="handlePan(1,0)">
                  <use xlink:href="#rim" fill="#404040">
                        <set attributeName="fill" to="#808080" begin="arrowRight.mouseover" end="arrowRight.mouseout"/>
                  </use>
                  <path fill="none" stroke="white" stroke-width="1.5" d="M0,-3.0v7 M-2.5,-0.5L0,-3.0L2.5,-0.5"/>
                </g>
                <g id="arrowDown" xlink:href="#dirArrow" transform="rotate(180) translate(-30 -48)" onmousedown="handlePan(0,1)">
                  <use xlink:href="#rim" fill="#404040">
                        <set attributeName="fill" to="#808080" begin="arrowDown.mouseover" end="arrowDown.mouseout"/>
                  </use>
                  <path fill="none" stroke="white" stroke-width="1.5" d="M0,-3.0v7 M-2.5,-0.5L0,-3.0L2.5,-0.5"/>
                </g>
                <g id="arrowLeft" xlink:href="#dirArrow" transform="rotate(270) translate(-36 17)" onmousedown="handlePan(-1,0)">
                  <use xlink:href="#rim" fill="#404040">
                        <set attributeName="fill" to="#808080" begin="arrowLeft.mouseover" end="arrowLeft.mouseout"/>
                  </use>
                  <path fill="none" stroke="white" stroke-width="1.5" d="M0,-3.0v7 M-2.5,-0.5L0,-3.0L2.5,-0.5"/>
                </g>
        </g>
        <svg viewBox="0 0 15 15" width="100%" height="30px" preserveAspectRatio="xMaxYMin meet">
         <g id="arrow_out" transform="scale(0.3 0.3)">
          <a xlink:href="class_cool_board_a519de78b807f8ec6463ff484eb925918_cgraph_org.svg" target="_base">
           <rect id="button" ry="5" rx="5" y="6" x="6" height="38" width="38"
                fill="#f2f5e9" fill-opacity="0.5" stroke="#606060" stroke-width="1.0"/>
           <path id="arrow"
             d="M 11.500037,31.436501 C 11.940474,20.09759 22.043105,11.32322 32.158766,21.979434 L 37.068811,17.246167 C 37.068811,17.246167 37.088388,32 37.088388,32 L 22.160133,31.978069 C 22.160133,31.978069 26.997745,27.140456 26.997745,27.140456 C 18.528582,18.264221 13.291696,25.230495 11.500037,31.436501 z"
             style="fill:#404040;"/>
          </a>
         </g>
        </svg>
</svg>
