<?xml version="1.0" encoding="UTF-8" standalone="no"?>
<!DOCTYPE svg PUBLIC "-//W3C//DTD SVG 1.1//EN"
 "http://www.w3.org/Graphics/SVG/1.1/DTD/svg11.dtd">
<!-- Generated by graphviz version 2.38.0 (20140413.2041)
 -->
<!-- Title: CoolBoard::userData Pages: 1 -->
<svg width="576pt" height="85pt"
 viewBox="0.00 0.00 576.00 85.00" xmlns="http://www.w3.org/2000/svg" xmlns:xlink="http://www.w3.org/1999/xlink">
<g id="graph0" class="graph" transform="scale(1 1) rotate(0) translate(4 81)">
<title>CoolBoard::userData</title>
<polygon fill="white" stroke="none" points="-4,4 -4,-81 572,-81 572,4 -4,4"/>
<!-- Node400 -->
<g id="node1" class="node"><title>Node400</title>
<polygon fill="#bfbfbf" stroke="black" points="0,-19.5 0,-38.5 108,-38.5 108,-19.5 0,-19.5"/>
<text text-anchor="middle" x="54" y="-26.5" font-family="Helvetica,sans-Serif" font-size="10.00">CoolBoard::userData</text>
</g>
<!-- Node401 -->
<g id="node2" class="node"><title>Node401</title>
<g id="a_node2"><a xlink:href="../../d6/d49/class_cool_time.html#ac4f32ee513c1328d984306645e8785a4" target="_top" xlink:title="CoolTime::getESDate">
<polygon fill="white" stroke="black" points="144,-38.5 144,-57.5 257,-57.5 257,-38.5 144,-38.5"/>
<text text-anchor="middle" x="200.5" y="-45.5" font-family="Helvetica,sans-Serif" font-size="10.00">CoolTime::getESDate</text>
</a>
</g>
</g>
<!-- Node400&#45;&gt;Node401 -->
<g id="edge1" class="edge"><title>Node400&#45;&gt;Node401</title>
<path fill="none" stroke="midnightblue" d="M108.396,-36.0209C116.717,-37.115 125.397,-38.2563 133.95,-39.381"/>
<polygon fill="midnightblue" stroke="midnightblue" points="133.533,-42.8562 143.904,-40.6898 134.445,-35.9159 133.533,-42.8562"/>
</g>
<!-- Node404 -->
<g id="node5" class="node"><title>Node404</title>
<g id="a_node5"><a xlink:href="../../d0/dd0/class_cool_m_q_t_t.html#a373cc92fca7760d886f02d8a6e5b3f63" target="_top" xlink:title="CoolMQTT::getUser">
<polygon fill="white" stroke="black" points="148,-0.5 148,-19.5 253,-19.5 253,-0.5 148,-0.5"/>
<text text-anchor="middle" x="200.5" y="-7.5" font-family="Helvetica,sans-Serif" font-size="10.00">CoolMQTT::getUser</text>
</a>
</g>
</g>
<!-- Node400&#45;&gt;Node404 -->
<g id="edge5" class="edge"><title>Node400&#45;&gt;Node404</title>
<path fill="none" stroke="midnightblue" d="M108.396,-21.9791C117.943,-20.7238 127.962,-19.4064 137.721,-18.1232"/>
<polygon fill="midnightblue" stroke="midnightblue" points="138.307,-21.5763 147.766,-16.8024 137.395,-14.636 138.307,-21.5763"/>
</g>
<!-- Node402 -->
<g id="node3" class="node"><title>Node402</title>
<g id="a_node3"><a xlink:href="../../d6/d49/class_cool_time.html#a7a7501c5ca77dd1248bea704c44f986c" target="_top" xlink:title="CoolTime::getTimeDate">
<polygon fill="white" stroke="black" points="293,-57.5 293,-76.5 414,-76.5 414,-57.5 293,-57.5"/>
<text text-anchor="middle" x="353.5" y="-64.5" font-family="Helvetica,sans-Serif" font-size="10.00">CoolTime::getTimeDate</text>
</a>
</g>
</g>
<!-- Node401&#45;&gt;Node402 -->
<g id="edge2" class="edge"><title>Node401&#45;&gt;Node402</title>
<path fill="none" stroke="midnightblue" d="M257.298,-55.0209C265.631,-56.0694 274.308,-57.1613 282.883,-58.2403"/>
<polygon fill="midnightblue" stroke="midnightblue" points="282.518,-61.7218 292.877,-59.4977 283.392,-54.7766 282.518,-61.7218"/>
</g>
<!-- Node403 -->
<g id="node4" class="node"><title>Node403</title>
<g id="a_node4"><a xlink:href="../../d6/d49/class_cool_time.html#acd537cd4210d7bde4e1f5c47d2ac0456" target="_top" xlink:title="CoolTime::formatDigits">
<polygon fill="white" stroke="black" points="450,-38.5 450,-57.5 568,-57.5 568,-38.5 450,-38.5"/>
<text text-anchor="middle" x="509" y="-45.5" font-family="Helvetica,sans-Serif" font-size="10.00">CoolTime::formatDigits</text>
</a>
</g>
</g>
<!-- Node401&#45;&gt;Node403 -->
<g id="edge4" class="edge"><title>Node401&#45;&gt;Node403</title>
<path fill="none" stroke="midnightblue" d="M257.005,-48C308.324,-48 384.741,-48 439.766,-48"/>
<polygon fill="midnightblue" stroke="midnightblue" points="439.781,-51.5001 449.781,-48 439.781,-44.5001 439.781,-51.5001"/>
</g>
<!-- Node402&#45;&gt;Node403 -->
<g id="edge3" class="edge"><title>Node402&#45;&gt;Node403</title>
<path fill="none" stroke="midnightblue" d="M414.287,-59.5997C422.697,-58.5587 431.393,-57.4823 439.943,-56.424"/>
<polygon fill="midnightblue" stroke="midnightblue" points="440.394,-59.895 449.888,-55.193 439.534,-52.948 440.394,-59.895"/>
</g>
</g>
</svg>
