<?xml version="1.0" encoding="UTF-8" standalone="no"?>
<!DOCTYPE svg PUBLIC "-//W3C//DTD SVG 1.1//EN"
 "http://www.w3.org/Graphics/SVG/1.1/DTD/svg11.dtd">
<!-- Generated by graphviz version 2.38.0 (20140413.2041)
 -->
<!-- Title: CoolBoard::sendConfig Pages: 1 -->
<!--zoomable 85 -->
<svg id="main" version="1.1" xmlns="http://www.w3.org/2000/svg" xmlns:xlink="http://www.w3.org/1999/xlink" xml:space="preserve" onload="init(evt)">
<style type="text/css"><![CDATA[
.edge:hover path { stroke: red; }
.edge:hover polygon { stroke: red; fill: red; }
]]></style>
<script type="text/javascript"><![CDATA[
var edges = document.getElementsByTagName('g');
if (edges && edges.length) {
  for (var i=0;i<edges.length;i++) {
    if (edges[i].id.substr(0,4)=='edge') {
      edges[i].setAttribute('class','edge');
    }
  }
}
]]></script>
        <defs>
                <circle id="rim" cx="0" cy="0" r="7"/>
                <circle id="rim2" cx="0" cy="0" r="3.5"/>
                <g id="zoomPlus">
                        <use xlink:href="#rim" fill="#404040">
                                <set attributeName="fill" to="#808080" begin="zoomplus.mouseover" end="zoomplus.mouseout"/>
                        </use>
                        <path d="M-4,0h8M0,-4v8" fill="none" stroke="white" stroke-width="1.5" pointer-events="none"/>
                </g>
                <g id="zoomMin">
                        <use xlink:href="#rim" fill="#404040">
                                <set attributeName="fill" to="#808080" begin="zoomminus.mouseover" end="zoomminus.mouseout"/>
                        </use>
                        <path d="M-4,0h8" fill="none" stroke="white" stroke-width="1.5" pointer-events="none"/>
                </g>
                <g id="dirArrow">
                        <path fill="none" stroke="white" stroke-width="1.5" d="M0,-3.0v7 M-2.5,-0.5L0,-3.0L2.5,-0.5"/>
                </g>
               <g id="resetDef">
                       <use xlink:href="#rim2" fill="#404040">
                               <set attributeName="fill" to="#808080" begin="reset.mouseover" end="reset.mouseout"/>
                       </use>
               </g>
        </defs>

<script type="text/javascript">
var viewWidth = 809;
var viewHeight = 85;
var sectionId = 'dynsection-17';
</script>
<script xlink:href="../../svgpan.js"/>
<svg id="graph" class="graph">
<g id="viewport">
<title>CoolBoard::sendConfig</title>
<polygon fill="white" stroke="none" points="-4,4 -4,-81 805,-81 805,4 -4,4"/>
<!-- Node408 -->
<g id="node1" class="node"><title>Node408</title>
<polygon fill="#bfbfbf" stroke="black" points="0,-19.5 0,-38.5 118,-38.5 118,-19.5 0,-19.5"/>
<text text-anchor="middle" x="59" y="-26.5" font-family="Helvetica,sans-Serif" font-size="10.00">CoolBoard::sendConfig</text>
</g>
<!-- Node409 -->
<g id="node2" class="node"><title>Node409</title>
<g id="a_node2"><a xlink:href="../../d0/dd0/class_cool_m_q_t_t.html#aa5eaae967b562b62cbcf2b8d81f6e5d5" target="_top" xlink:title="CoolMQTT::mqttLoop">
<polygon fill="white" stroke="black" points="154,-38.5 154,-57.5 265,-57.5 265,-38.5 154,-38.5"/>
<text text-anchor="middle" x="209.5" y="-45.5" font-family="Helvetica,sans-Serif" font-size="10.00">CoolMQTT::mqttLoop</text>
</a>
</g>
</g>
<!-- Node408&#45;&gt;Node409 -->
<g id="edge1" class="edge"><title>Node408&#45;&gt;Node409</title>
<path fill="none" stroke="midnightblue" d="M118.265,-36.4548C126.584,-37.5191 135.183,-38.6194 143.619,-39.6987"/>
<polygon fill="midnightblue" stroke="midnightblue" points="143.434,-43.2035 153.797,-41.001 144.322,-36.2601 143.434,-43.2035"/>
</g>
<!-- Node414 -->
<g id="node7" class="node"><title>Node414</title>
<g id="a_node7"><a xlink:href="../../d0/dd0/class_cool_m_q_t_t.html#ace977b3e90ab14b1199fe5c4fb0a13ec" target="_top" xlink:title="CoolMQTT::publish">
<polygon fill="white" stroke="black" points="159,-0.5 159,-19.5 260,-19.5 260,-0.5 159,-0.5"/>
<text text-anchor="middle" x="209.5" y="-7.5" font-family="Helvetica,sans-Serif" font-size="10.00">CoolMQTT::publish</text>
</a>
</g>
</g>
<!-- Node408&#45;&gt;Node414 -->
<g id="edge6" class="edge"><title>Node408&#45;&gt;Node414</title>
<path fill="none" stroke="midnightblue" d="M118.265,-21.5452C128.155,-20.2798 138.443,-18.9635 148.38,-17.6921"/>
<polygon fill="midnightblue" stroke="midnightblue" points="149.102,-21.1283 158.577,-16.3874 148.214,-14.1849 149.102,-21.1283"/>
</g>
<!-- Node410 -->
<g id="node3" class="node"><title>Node410</title>
<g id="a_node3"><a xlink:href="../../d8/d4b/class_cool_pub_sub_client.html#afc15900f0fc4886a19394508e61793b8" target="_top" xlink:title="CoolPubSubClient::loop">
<polygon fill="white" stroke="black" points="307.5,-38.5 307.5,-57.5 428.5,-57.5 428.5,-38.5 307.5,-38.5"/>
<text text-anchor="middle" x="368" y="-45.5" font-family="Helvetica,sans-Serif" font-size="10.00">CoolPubSubClient::loop</text>
</a>
</g>
</g>
<!-- Node409&#45;&gt;Node410 -->
<g id="edge2" class="edge"><title>Node409&#45;&gt;Node410</title>
<path fill="none" stroke="midnightblue" d="M265.236,-48C275.59,-48 286.549,-48 297.29,-48"/>
<polygon fill="midnightblue" stroke="midnightblue" points="297.496,-51.5001 307.496,-48 297.496,-44.5001 297.496,-51.5001"/>
</g>
<!-- Node411 -->
<g id="node4" class="node"><title>Node411</title>
<g id="a_node4"><a xlink:href="../../d8/d4b/class_cool_pub_sub_client.html#a3d5a5da4ddb1e5c1bea64d80c665d148" target="_top" xlink:title="CoolPubSubClient::connected">
<polygon fill="white" stroke="black" points="473,-57.5 473,-76.5 621,-76.5 621,-57.5 473,-57.5"/>
<text text-anchor="middle" x="547" y="-64.5" font-family="Helvetica,sans-Serif" font-size="10.00">CoolPubSubClient::connected</text>
</a>
</g>
</g>
<!-- Node410&#45;&gt;Node411 -->
<g id="edge3" class="edge"><title>Node410&#45;&gt;Node411</title>
<path fill="none" stroke="midnightblue" d="M428.924,-54.4325C439.861,-55.6066 451.451,-56.8507 462.919,-58.0817"/>
<polygon fill="midnightblue" stroke="midnightblue" points="462.629,-61.5706 472.945,-59.158 463.376,-54.6106 462.629,-61.5706"/>
</g>
<!-- Node412 -->
<g id="node5" class="node"><title>Node412</title>
<g id="a_node5"><a xlink:href="../../d8/d4b/class_cool_pub_sub_client.html#a25a8779149cfa809b7c06f63568b25cf" target="_top" xlink:title="CoolPubSubClient::readPacket">
<polygon fill="white" stroke="black" points="471,-19.5 471,-38.5 623,-38.5 623,-19.5 471,-19.5"/>
<text text-anchor="middle" x="547" y="-26.5" font-family="Helvetica,sans-Serif" font-size="10.00">CoolPubSubClient::readPacket</text>
</a>
</g>
</g>
<!-- Node410&#45;&gt;Node412 -->
<g id="edge4" class="edge"><title>Node410&#45;&gt;Node412</title>
<path fill="none" stroke="midnightblue" d="M428.924,-41.5675C439.108,-40.4742 449.858,-39.3203 460.549,-38.1727"/>
<polygon fill="midnightblue" stroke="midnightblue" points="461.19,-41.6241 470.76,-37.0767 460.443,-34.664 461.19,-41.6241"/>
</g>
<!-- Node413 -->
<g id="node6" class="node"><title>Node413</title>
<g id="a_node6"><a xlink:href="../../d8/d4b/class_cool_pub_sub_client.html#ad409bbd287d5894f0cf082f62446c002" target="_top" xlink:title="CoolPubSubClient::readByte">
<polygon fill="white" stroke="black" points="659,-19.5 659,-38.5 801,-38.5 801,-19.5 659,-19.5"/>
<text text-anchor="middle" x="730" y="-26.5" font-family="Helvetica,sans-Serif" font-size="10.00">CoolPubSubClient::readByte</text>
</a>
</g>
</g>
<!-- Node412&#45;&gt;Node413 -->
<g id="edge5" class="edge"><title>Node412&#45;&gt;Node413</title>
<path fill="none" stroke="midnightblue" d="M623.188,-29C631.612,-29 640.219,-29 648.704,-29"/>
<polygon fill="midnightblue" stroke="midnightblue" points="648.974,-32.5001 658.974,-29 648.974,-25.5001 648.974,-32.5001"/>
</g>
<!-- Node415 -->
<g id="node8" class="node"><title>Node415</title>
<g id="a_node8"><a xlink:href="../../d8/d4b/class_cool_pub_sub_client.html#ab6ad5fa2d3db8f91454027257f225a89" target="_top" xlink:title="CoolPubSubClient::publish">
<polygon fill="white" stroke="black" points="301,-0.5 301,-19.5 435,-19.5 435,-0.5 301,-0.5"/>
<text text-anchor="middle" x="368" y="-7.5" font-family="Helvetica,sans-Serif" font-size="10.00">CoolPubSubClient::publish</text>
</a>
</g>
</g>
<!-- Node414&#45;&gt;Node415 -->
<g id="edge7" class="edge"><title>Node414&#45;&gt;Node415</title>
<path fill="none" stroke="midnightblue" d="M260.018,-10C269.858,-10 280.402,-10 290.894,-10"/>
<polygon fill="midnightblue" stroke="midnightblue" points="290.913,-13.5001 300.913,-10 290.913,-6.5001 290.913,-13.5001"/>
</g>
</g>
</svg>
        <g id="navigator" transform="translate(0 0)" fill="#404254">
                <rect fill="#f2f5e9" fill-opacity="0.5" stroke="#606060" stroke-width=".5" x="0" y="0" width="60" height="60"/>
                <use id="zoomplus" xlink:href="#zoomPlus" x="17" y="9" onmousedown="handleZoom(evt,'in')"/>
                <use id="zoomminus" xlink:href="#zoomMin" x="42" y="9" onmousedown="handleZoom(evt,'out')"/>
                <use id="reset" xlink:href="#resetDef" x="30" y="36" onmousedown="handleReset()"/>
                <g id="arrowUp" xlink:href="#dirArrow" transform="translate(30 24)" onmousedown="handlePan(0,-1)">
                  <use xlink:href="#rim" fill="#404040">
                        <set attributeName="fill" to="#808080" begin="arrowUp.mouseover" end="arrowUp.mouseout"/>
                  </use>
                  <path fill="none" stroke="white" stroke-width="1.5" d="M0,-3.0v7 M-2.5,-0.5L0,-3.0L2.5,-0.5"/>
                </g>
                <g id="arrowRight" xlink:href="#dirArrow" transform="rotate(90) translate(36 -43)" onmousedown="handlePan(1,0)">
                  <use xlink:href="#rim" fill="#404040">
                        <set attributeName="fill" to="#808080" begin="arrowRight.mouseover" end="arrowRight.mouseout"/>
                  </use>
                  <path fill="none" stroke="white" stroke-width="1.5" d="M0,-3.0v7 M-2.5,-0.5L0,-3.0L2.5,-0.5"/>
                </g>
                <g id="arrowDown" xlink:href="#dirArrow" transform="rotate(180) translate(-30 -48)" onmousedown="handlePan(0,1)">
                  <use xlink:href="#rim" fill="#404040">
                        <set attributeName="fill" to="#808080" begin="arrowDown.mouseover" end="arrowDown.mouseout"/>
                  </use>
                  <path fill="none" stroke="white" stroke-width="1.5" d="M0,-3.0v7 M-2.5,-0.5L0,-3.0L2.5,-0.5"/>
                </g>
                <g id="arrowLeft" xlink:href="#dirArrow" transform="rotate(270) translate(-36 17)" onmousedown="handlePan(-1,0)">
                  <use xlink:href="#rim" fill="#404040">
                        <set attributeName="fill" to="#808080" begin="arrowLeft.mouseover" end="arrowLeft.mouseout"/>
                  </use>
                  <path fill="none" stroke="white" stroke-width="1.5" d="M0,-3.0v7 M-2.5,-0.5L0,-3.0L2.5,-0.5"/>
                </g>
        </g>
        <svg viewBox="0 0 15 15" width="100%" height="30px" preserveAspectRatio="xMaxYMin meet">
         <g id="arrow_out" transform="scale(0.3 0.3)">
          <a xlink:href="class_cool_board_a705398b11560603fcdd1b9e8e95d0027_cgraph_org.svg" target="_base">
           <rect id="button" ry="5" rx="5" y="6" x="6" height="38" width="38"
                fill="#f2f5e9" fill-opacity="0.5" stroke="#606060" stroke-width="1.0"/>
           <path id="arrow"
             d="M 11.500037,31.436501 C 11.940474,20.09759 22.043105,11.32322 32.158766,21.979434 L 37.068811,17.246167 C 37.068811,17.246167 37.088388,32 37.088388,32 L 22.160133,31.978069 C 22.160133,31.978069 26.997745,27.140456 26.997745,27.140456 C 18.528582,18.264221 13.291696,25.230495 11.500037,31.436501 z"
             style="fill:#404040;"/>
          </a>
         </g>
        </svg>
</svg>
