<?xml version="1.0" encoding="UTF-8" standalone="no"?>
<!DOCTYPE svg PUBLIC "-//W3C//DTD SVG 1.1//EN"
 "http://www.w3.org/Graphics/SVG/1.1/DTD/svg11.dtd">
<!-- Generated by graphviz version 2.38.0 (20140413.2041)
 -->
<!-- Title: CoolBoard::begin Pages: 1 -->
<svg width="478pt" height="1355pt"
 viewBox="0.00 0.00 478.00 1355.00" xmlns="http://www.w3.org/2000/svg" xmlns:xlink="http://www.w3.org/1999/xlink">
<g id="graph0" class="graph" transform="scale(1 1) rotate(0) translate(4 1351)">
<title>CoolBoard::begin</title>
<polygon fill="white" stroke="none" points="-4,4 -4,-1351 474,-1351 474,4 -4,4"/>
<!-- Node2 -->
<g id="node1" class="node"><title>Node2</title>
<polygon fill="#bfbfbf" stroke="black" points="0,-551.5 0,-570.5 92,-570.5 92,-551.5 0,-551.5"/>
<text text-anchor="middle" x="46" y="-558.5" font-family="Helvetica,sans-Serif" font-size="10.00">CoolBoard::begin</text>
</g>
<!-- Node3 -->
<g id="node2" class="node"><title>Node3</title>
<g id="a_node2"><a xlink:href="../../dc/d69/class_cool_board_actor.html#a7f4422fd85a5510bc2cdfd68e109be5e" target="_top" xlink:title="CoolBoardActor::begin">
<polygon fill="white" stroke="black" points="142.5,-1270.5 142.5,-1289.5 257.5,-1289.5 257.5,-1270.5 142.5,-1270.5"/>
<text text-anchor="middle" x="200" y="-1277.5" font-family="Helvetica,sans-Serif" font-size="10.00">CoolBoardActor::begin</text>
</a>
</g>
</g>
<!-- Node2&#45;&gt;Node3 -->
<g id="edge1" class="edge"><title>Node2&#45;&gt;Node3</title>
<path fill="none" stroke="midnightblue" d="M47.4641,-570.577C51.4227,-650.57 80.5274,-1206.02 128,-1261 129.751,-1263.03 131.693,-1264.85 133.782,-1266.49"/>
<polygon fill="midnightblue" stroke="midnightblue" points="132.146,-1269.6 142.48,-1271.93 135.861,-1263.66 132.146,-1269.6"/>
</g>
<!-- Node4 -->
<g id="node3" class="node"><title>Node4</title>
<g id="a_node3"><a xlink:href="../../df/d1d/class_jetpack.html#a5a53e1ebf7aaf3bf3e0d37ea64ca09a7" target="_top" xlink:title="Jetpack::begin">
<polygon fill="white" stroke="black" points="160,-1232.5 160,-1251.5 240,-1251.5 240,-1232.5 160,-1232.5"/>
<text text-anchor="middle" x="200" y="-1239.5" font-family="Helvetica,sans-Serif" font-size="10.00">Jetpack::begin</text>
</a>
</g>
</g>
<!-- Node2&#45;&gt;Node4 -->
<g id="edge2" class="edge"><title>Node2&#45;&gt;Node4</title>
<path fill="none" stroke="midnightblue" d="M47.5286,-570.543C51.8967,-647.933 82.9942,-1171.22 128,-1223 133.839,-1229.72 141.766,-1234.18 150.211,-1237.13"/>
<polygon fill="midnightblue" stroke="midnightblue" points="149.308,-1240.51 159.882,-1239.85 151.201,-1233.77 149.308,-1240.51"/>
</g>
<!-- Node5 -->
<g id="node4" class="node"><title>Node5</title>
<g id="a_node4"><a xlink:href="../../d0/dd0/class_cool_m_q_t_t.html#ac9248808641ebf3054ed0620ea9d0100" target="_top" xlink:title="CoolMQTT::begin">
<polygon fill="white" stroke="black" points="153,-1194.5 153,-1213.5 247,-1213.5 247,-1194.5 153,-1194.5"/>
<text text-anchor="middle" x="200" y="-1201.5" font-family="Helvetica,sans-Serif" font-size="10.00">CoolMQTT::begin</text>
</a>
</g>
</g>
<!-- Node2&#45;&gt;Node5 -->
<g id="edge3" class="edge"><title>Node2&#45;&gt;Node5</title>
<path fill="none" stroke="midnightblue" d="M47.0651,-570.73C47.7119,-624.461 54.6464,-889.698 128,-1089 141.747,-1126.35 168.449,-1164.7 184.902,-1186.32"/>
<polygon fill="midnightblue" stroke="midnightblue" points="182.164,-1188.5 191.058,-1194.26 187.696,-1184.21 182.164,-1188.5"/>
</g>
<!-- Node11 -->
<g id="node10" class="node"><title>Node11</title>
<g id="a_node10"><a xlink:href="../../d1/d2f/class_external_sensors.html#a58ede0d786a86417254708870f04a21e" target="_top" xlink:title="ExternalSensors::begin">
<polygon fill="white" stroke="black" points="141,-1060.5 141,-1079.5 259,-1079.5 259,-1060.5 141,-1060.5"/>
<text text-anchor="middle" x="200" y="-1067.5" font-family="Helvetica,sans-Serif" font-size="10.00">ExternalSensors::begin</text>
</a>
</g>
</g>
<!-- Node2&#45;&gt;Node11 -->
<g id="edge9" class="edge"><title>Node2&#45;&gt;Node11</title>
<path fill="none" stroke="midnightblue" d="M47.1592,-570.703C48.2765,-618.128 57.1923,-829.415 128,-982 140.924,-1009.85 164.558,-1036.52 180.992,-1053.05"/>
<polygon fill="midnightblue" stroke="midnightblue" points="178.81,-1055.82 188.402,-1060.32 183.71,-1050.82 178.81,-1055.82"/>
</g>
<!-- Node15 -->
<g id="node14" class="node"><title>Node15</title>
<g id="a_node14"><a xlink:href="../../de/d46/class_cool_board_sensors.html#a97095823ef7c8f5290812f1405b966b3" target="_top" xlink:title="CoolBoardSensors::begin">
<polygon fill="white" stroke="black" points="136,-953.5 136,-972.5 264,-972.5 264,-953.5 136,-953.5"/>
<text text-anchor="middle" x="200" y="-960.5" font-family="Helvetica,sans-Serif" font-size="10.00">CoolBoardSensors::begin</text>
</a>
</g>
</g>
<!-- Node2&#45;&gt;Node15 -->
<g id="edge13" class="edge"><title>Node2&#45;&gt;Node15</title>
<path fill="none" stroke="midnightblue" d="M47.7461,-570.535C52.0941,-623.768 75.798,-883.848 128,-941 130.589,-943.835 133.535,-946.308 136.721,-948.465"/>
<polygon fill="midnightblue" stroke="midnightblue" points="135.197,-951.623 145.63,-953.468 138.625,-945.519 135.197,-951.623"/>
</g>
<!-- Node26 -->
<g id="node18" class="node"><title>Node26</title>
<g id="a_node18"><a xlink:href="../../d7/d29/class_cool_wifi.html#a46942fed90e475112cc10b78a32e7aaa" target="_top" xlink:title="CoolWifi::begin">
<polygon fill="white" stroke="black" points="158.5,-912.5 158.5,-931.5 241.5,-931.5 241.5,-912.5 158.5,-912.5"/>
<text text-anchor="middle" x="200" y="-919.5" font-family="Helvetica,sans-Serif" font-size="10.00">CoolWifi::begin</text>
</a>
</g>
</g>
<!-- Node2&#45;&gt;Node26 -->
<g id="edge17" class="edge"><title>Node2&#45;&gt;Node26</title>
<path fill="none" stroke="midnightblue" d="M47.9555,-570.588C53.1469,-620.807 79.53,-853.108 128,-903 133.627,-908.792 140.81,-912.881 148.436,-915.756"/>
<polygon fill="midnightblue" stroke="midnightblue" points="147.662,-919.18 158.25,-918.784 149.727,-912.491 147.662,-919.18"/>
</g>
<!-- Node27 -->
<g id="node19" class="node"><title>Node27</title>
<g id="a_node19"><a xlink:href="../../d6/d49/class_cool_time.html#ab1976cf718b950bc31e003c3323b8adb" target="_top" xlink:title="CoolTime::begin">
<polygon fill="white" stroke="black" points="156,-874.5 156,-893.5 244,-893.5 244,-874.5 156,-874.5"/>
<text text-anchor="middle" x="200" y="-881.5" font-family="Helvetica,sans-Serif" font-size="10.00">CoolTime::begin</text>
</a>
</g>
</g>
<!-- Node2&#45;&gt;Node27 -->
<g id="edge18" class="edge"><title>Node2&#45;&gt;Node27</title>
<path fill="none" stroke="midnightblue" d="M48.2793,-570.747C54.6489,-617.841 84.3813,-821.334 128,-865 133.146,-870.151 139.525,-873.95 146.333,-876.744"/>
<polygon fill="midnightblue" stroke="midnightblue" points="145.211,-880.059 155.805,-879.962 147.463,-873.431 145.211,-880.059"/>
</g>
<!-- Node34 -->
<g id="node21" class="node"><title>Node34</title>
<g id="a_node21"><a xlink:href="../../d6/d03/class_irene3000.html#ad5891806c500ae1007afe52b9e304c2b" target="_top" xlink:title="Irene3000::begin">
<polygon fill="white" stroke="black" points="155.5,-836.5 155.5,-855.5 244.5,-855.5 244.5,-836.5 155.5,-836.5"/>
<text text-anchor="middle" x="200" y="-843.5" font-family="Helvetica,sans-Serif" font-size="10.00">Irene3000::begin</text>
</a>
</g>
</g>
<!-- Node2&#45;&gt;Node34 -->
<g id="edge20" class="edge"><title>Node2&#45;&gt;Node34</title>
<path fill="none" stroke="midnightblue" d="M46.8253,-570.659C46.6792,-609.142 51.4596,-753.027 128,-827 132.993,-831.826 139.072,-835.459 145.55,-838.187"/>
<polygon fill="midnightblue" stroke="midnightblue" points="144.65,-841.58 155.245,-841.572 146.957,-834.972 144.65,-841.58"/>
</g>
<!-- Node48 -->
<g id="node27" class="node"><title>Node48</title>
<g id="a_node27"><a xlink:href="../../de/dc0/class_cool_board_led.html#a96e1ea13003eee34c9dbcef340404426" target="_top" xlink:title="CoolBoardLed::blink">
<polygon fill="white" stroke="black" points="337,-551.5 337,-570.5 441,-570.5 441,-551.5 337,-551.5"/>
<text text-anchor="middle" x="389" y="-558.5" font-family="Helvetica,sans-Serif" font-size="10.00">CoolBoardLed::blink</text>
</a>
</g>
</g>
<!-- Node2&#45;&gt;Node48 -->
<g id="edge26" class="edge"><title>Node2&#45;&gt;Node48</title>
<path fill="none" stroke="midnightblue" d="M62.1007,-570.567C77.8464,-579.932 103.591,-593.559 128,-599 190.467,-612.925 208.8,-609.088 272,-599 301.349,-594.315 333.356,-583.359 356.3,-574.408"/>
<polygon fill="midnightblue" stroke="midnightblue" points="357.863,-577.553 365.852,-570.593 355.267,-571.052 357.863,-577.553"/>
</g>
<!-- Node49 -->
<g id="node28" class="node"><title>Node49</title>
<g id="a_node28"><a xlink:href="../../d1/d2f/class_external_sensors.html#a862a4bd11346b37270d0244c2adabe5a" target="_top" xlink:title="ExternalSensors::config">
<polygon fill="white" stroke="black" points="139.5,-760.5 139.5,-779.5 260.5,-779.5 260.5,-760.5 139.5,-760.5"/>
<text text-anchor="middle" x="200" y="-767.5" font-family="Helvetica,sans-Serif" font-size="10.00">ExternalSensors::config</text>
</a>
</g>
</g>
<!-- Node2&#45;&gt;Node49 -->
<g id="edge27" class="edge"><title>Node2&#45;&gt;Node49</title>
<path fill="none" stroke="midnightblue" d="M48.1449,-570.603C52.3792,-601.728 70.0383,-700.71 128,-751 129.94,-752.683 132.013,-754.219 134.187,-755.62"/>
<polygon fill="midnightblue" stroke="midnightblue" points="132.542,-758.709 143.003,-760.385 135.871,-752.551 132.542,-758.709"/>
</g>
<!-- Node50 -->
<g id="node29" class="node"><title>Node50</title>
<g id="a_node29"><a xlink:href="../../d7/d29/class_cool_wifi.html#a4eb2f6b9b09dd588964b88b6c70122c0" target="_top" xlink:title="CoolWifi::config">
<polygon fill="white" stroke="black" points="157,-722.5 157,-741.5 243,-741.5 243,-722.5 157,-722.5"/>
<text text-anchor="middle" x="200" y="-729.5" font-family="Helvetica,sans-Serif" font-size="10.00">CoolWifi::config</text>
</a>
</g>
</g>
<!-- Node2&#45;&gt;Node50 -->
<g id="edge28" class="edge"><title>Node2&#45;&gt;Node50</title>
<path fill="none" stroke="midnightblue" d="M49.2401,-570.558C56.0442,-597.415 79.0666,-674.126 128,-713 133.701,-717.529 140.388,-720.983 147.339,-723.616"/>
<polygon fill="midnightblue" stroke="midnightblue" points="146.32,-726.965 156.912,-726.722 148.48,-720.307 146.32,-726.965"/>
</g>
<!-- Node51 -->
<g id="node30" class="node"><title>Node51</title>
<g id="a_node30"><a xlink:href="../../d0/dd0/class_cool_m_q_t_t.html#a9b703de4f1358f0ee7a5e8c44979c648" target="_top" xlink:title="CoolMQTT::config">
<polygon fill="white" stroke="black" points="151.5,-684.5 151.5,-703.5 248.5,-703.5 248.5,-684.5 151.5,-684.5"/>
<text text-anchor="middle" x="200" y="-691.5" font-family="Helvetica,sans-Serif" font-size="10.00">CoolMQTT::config</text>
</a>
</g>
</g>
<!-- Node2&#45;&gt;Node51 -->
<g id="edge29" class="edge"><title>Node2&#45;&gt;Node51</title>
<path fill="none" stroke="midnightblue" d="M51.0604,-570.669C60.8459,-592.757 87.9243,-647.153 128,-675 132.214,-677.928 136.857,-680.406 141.689,-682.501"/>
<polygon fill="midnightblue" stroke="midnightblue" points="140.562,-685.816 151.153,-686.079 143.037,-679.269 140.562,-685.816"/>
</g>
<!-- Node52 -->
<g id="node31" class="node"><title>Node52</title>
<g id="a_node31"><a xlink:href="../../d6/d49/class_cool_time.html#a87c28260c1bc77091162cbcf1ee2e129" target="_top" xlink:title="CoolTime::config">
<polygon fill="white" stroke="black" points="154.5,-646.5 154.5,-665.5 245.5,-665.5 245.5,-646.5 154.5,-646.5"/>
<text text-anchor="middle" x="200" y="-653.5" font-family="Helvetica,sans-Serif" font-size="10.00">CoolTime::config</text>
</a>
</g>
</g>
<!-- Node2&#45;&gt;Node52 -->
<g id="edge30" class="edge"><title>Node2&#45;&gt;Node52</title>
<path fill="none" stroke="midnightblue" d="M55.5432,-570.612C69.3863,-585.657 98.1885,-614.819 128,-632 135.454,-636.296 143.795,-639.974 152.067,-643.067"/>
<polygon fill="midnightblue" stroke="midnightblue" points="151.093,-646.434 161.688,-646.43 153.403,-639.826 151.093,-646.434"/>
</g>
<!-- Node53 -->
<g id="node32" class="node"><title>Node53</title>
<g id="a_node32"><a xlink:href="../../d6/d03/class_irene3000.html#afed5c35e4b23963c157847ef27c11e9c" target="_top" xlink:title="Irene3000::config">
<polygon fill="white" stroke="black" points="154,-798.5 154,-817.5 246,-817.5 246,-798.5 154,-798.5"/>
<text text-anchor="middle" x="200" y="-805.5" font-family="Helvetica,sans-Serif" font-size="10.00">Irene3000::config</text>
</a>
</g>
</g>
<!-- Node2&#45;&gt;Node53 -->
<g id="edge31" class="edge"><title>Node2&#45;&gt;Node53</title>
<path fill="none" stroke="midnightblue" d="M47.4035,-570.957C49.3922,-606.338 61.0212,-727.168 128,-789 132.738,-793.374 138.371,-796.761 144.363,-799.381"/>
<polygon fill="midnightblue" stroke="midnightblue" points="143.401,-802.756 153.995,-802.898 145.802,-796.18 143.401,-802.756"/>
</g>
<!-- Node55 -->
<g id="node34" class="node"><title>Node55</title>
<g id="a_node34"><a xlink:href="../../de/d46/class_cool_board_sensors.html#a9a218895c5423375c33c08f2c56fb23a" target="_top" xlink:title="CoolBoardSensors::config">
<polygon fill="white" stroke="black" points="134.5,-570.5 134.5,-589.5 265.5,-589.5 265.5,-570.5 134.5,-570.5"/>
<text text-anchor="middle" x="200" y="-577.5" font-family="Helvetica,sans-Serif" font-size="10.00">CoolBoardSensors::config</text>
</a>
</g>
</g>
<!-- Node2&#45;&gt;Node55 -->
<g id="edge33" class="edge"><title>Node2&#45;&gt;Node55</title>
<path fill="none" stroke="midnightblue" d="M92.1935,-566.649C102.311,-567.914 113.304,-569.288 124.263,-570.658"/>
<polygon fill="midnightblue" stroke="midnightblue" points="123.934,-574.144 134.291,-571.911 124.803,-567.198 123.934,-574.144"/>
</g>
<!-- Node56 -->
<g id="node35" class="node"><title>Node56</title>
<g id="a_node35"><a xlink:href="../../dc/d69/class_cool_board_actor.html#a5af5538fc7d169f63127e06d5219bcd4" target="_top" xlink:title="CoolBoardActor::config">
<polygon fill="white" stroke="black" points="141,-532.5 141,-551.5 259,-551.5 259,-532.5 141,-532.5"/>
<text text-anchor="middle" x="200" y="-539.5" font-family="Helvetica,sans-Serif" font-size="10.00">CoolBoardActor::config</text>
</a>
</g>
</g>
<!-- Node2&#45;&gt;Node56 -->
<g id="edge34" class="edge"><title>Node2&#45;&gt;Node56</title>
<path fill="none" stroke="midnightblue" d="M92.1935,-555.351C104.208,-553.849 117.46,-552.193 130.421,-550.572"/>
<polygon fill="midnightblue" stroke="midnightblue" points="131.235,-553.998 140.724,-549.285 130.367,-547.052 131.235,-553.998"/>
</g>
<!-- Node57 -->
<g id="node36" class="node"><title>Node57</title>
<g id="a_node36"><a xlink:href="../../df/d1d/class_jetpack.html#ab065ee83e244265a2223a22f3ee4a719" target="_top" xlink:title="Jetpack::config">
<polygon fill="white" stroke="black" points="158.5,-494.5 158.5,-513.5 241.5,-513.5 241.5,-494.5 158.5,-494.5"/>
<text text-anchor="middle" x="200" y="-501.5" font-family="Helvetica,sans-Serif" font-size="10.00">Jetpack::config</text>
</a>
</g>
</g>
<!-- Node2&#45;&gt;Node57 -->
<g id="edge35" class="edge"><title>Node2&#45;&gt;Node57</title>
<path fill="none" stroke="midnightblue" d="M64.9441,-551.454C81.1033,-543.132 105.676,-531.151 128,-523 134.523,-520.618 141.481,-518.391 148.395,-516.359"/>
<polygon fill="midnightblue" stroke="midnightblue" points="149.762,-519.61 158.437,-513.528 147.862,-512.873 149.762,-519.61"/>
</g>
<!-- Node58 -->
<g id="node37" class="node"><title>Node58</title>
<g id="a_node37"><a xlink:href="../../d7/df9/class_cool_board.html#a519de78b807f8ec6463ff484eb925918" target="_top" xlink:title="CoolBoard::connect">
<polygon fill="white" stroke="red" points="148.5,-456.5 148.5,-475.5 251.5,-475.5 251.5,-456.5 148.5,-456.5"/>
<text text-anchor="middle" x="200" y="-463.5" font-family="Helvetica,sans-Serif" font-size="10.00">CoolBoard::connect</text>
</a>
</g>
</g>
<!-- Node2&#45;&gt;Node58 -->
<g id="edge36" class="edge"><title>Node2&#45;&gt;Node58</title>
<path fill="none" stroke="midnightblue" d="M54.4028,-551.491C67.4845,-535.348 96.3169,-502.619 128,-485 131.997,-482.777 136.267,-480.804 140.655,-479.055"/>
<polygon fill="midnightblue" stroke="midnightblue" points="142.152,-482.237 150.388,-475.572 139.794,-475.646 142.152,-482.237"/>
</g>
<!-- Node59 -->
<g id="node38" class="node"><title>Node59</title>
<g id="a_node38"><a xlink:href="../../de/dc0/class_cool_board_led.html#a30fadd4cbec17ceea428bf7a32207e87" target="_top" xlink:title="CoolBoardLed::write">
<polygon fill="white" stroke="black" points="336.5,-418.5 336.5,-437.5 441.5,-437.5 441.5,-418.5 336.5,-418.5"/>
<text text-anchor="middle" x="389" y="-425.5" font-family="Helvetica,sans-Serif" font-size="10.00">CoolBoardLed::write</text>
</a>
</g>
</g>
<!-- Node2&#45;&gt;Node59 -->
<g id="edge51" class="edge"><title>Node2&#45;&gt;Node59</title>
<path fill="none" stroke="midnightblue" d="M50.4562,-551.475C59.2866,-528.699 85.058,-471.189 128,-447 188.882,-412.706 270.895,-412.866 326.408,-418.396"/>
<polygon fill="midnightblue" stroke="midnightblue" points="326.136,-421.886 336.454,-419.483 326.889,-414.927 326.136,-421.886"/>
</g>
<!-- Node76 -->
<g id="node40" class="node"><title>Node76</title>
<g id="a_node40"><a xlink:href="../../de/dc0/class_cool_board_led.html#a93d545679237e8cc858324367149775c" target="_top" xlink:title="CoolBoardLed::fadeOut">
<polygon fill="white" stroke="black" points="140.5,-380.5 140.5,-399.5 259.5,-399.5 259.5,-380.5 140.5,-380.5"/>
<text text-anchor="middle" x="200" y="-387.5" font-family="Helvetica,sans-Serif" font-size="10.00">CoolBoardLed::fadeOut</text>
</a>
</g>
</g>
<!-- Node2&#45;&gt;Node76 -->
<g id="edge40" class="edge"><title>Node2&#45;&gt;Node76</title>
<path fill="none" stroke="midnightblue" d="M49.6816,-551.158C57.329,-524.927 81.7338,-452.699 128,-414 132.978,-409.836 138.711,-406.384 144.716,-403.524"/>
<polygon fill="midnightblue" stroke="midnightblue" points="146.44,-406.597 154.307,-399.5 143.732,-400.142 146.44,-406.597"/>
</g>
<!-- Node77 -->
<g id="node41" class="node"><title>Node77</title>
<g id="a_node41"><a xlink:href="../../d7/df9/class_cool_board.html#a397b46fadab8f530a8cf4d914c561366" target="_top" xlink:title="CoolBoard::initReadI2C">
<polygon fill="white" stroke="black" points="140,-342.5 140,-361.5 260,-361.5 260,-342.5 140,-342.5"/>
<text text-anchor="middle" x="200" y="-349.5" font-family="Helvetica,sans-Serif" font-size="10.00">CoolBoard::initReadI2C</text>
</a>
</g>
</g>
<!-- Node2&#45;&gt;Node77 -->
<g id="edge41" class="edge"><title>Node2&#45;&gt;Node77</title>
<path fill="none" stroke="midnightblue" d="M48.1449,-551.397C52.3792,-520.272 70.0383,-421.29 128,-371 129.94,-369.317 132.013,-367.781 134.187,-366.38"/>
<polygon fill="midnightblue" stroke="midnightblue" points="135.871,-369.449 143.003,-361.615 132.542,-363.291 135.871,-369.449"/>
</g>
<!-- Node78 -->
<g id="node42" class="node"><title>Node78</title>
<g id="a_node42"><a xlink:href="../../d1/d2f/class_external_sensors.html#a78c2bf55084435dd51d3c559b2d3c6f3" target="_top" xlink:title="ExternalSensors::printConf">
<polygon fill="white" stroke="black" points="133,-304.5 133,-323.5 267,-323.5 267,-304.5 133,-304.5"/>
<text text-anchor="middle" x="200" y="-311.5" font-family="Helvetica,sans-Serif" font-size="10.00">ExternalSensors::printConf</text>
</a>
</g>
</g>
<!-- Node2&#45;&gt;Node78 -->
<g id="edge42" class="edge"><title>Node2&#45;&gt;Node78</title>
<path fill="none" stroke="midnightblue" d="M47.4035,-551.043C49.3922,-515.662 61.0212,-394.832 128,-333 129.714,-331.418 131.545,-329.964 133.468,-328.63"/>
<polygon fill="midnightblue" stroke="midnightblue" points="135.472,-331.516 142.409,-323.507 131.992,-325.442 135.472,-331.516"/>
</g>
<!-- Node79 -->
<g id="node43" class="node"><title>Node79</title>
<g id="a_node43"><a xlink:href="../../de/dc0/class_cool_board_led.html#a8ed3053a36f0ed4a131f43b5b17efb61" target="_top" xlink:title="CoolBoardLed::printConf">
<polygon fill="white" stroke="black" points="138,-266.5 138,-285.5 262,-285.5 262,-266.5 138,-266.5"/>
<text text-anchor="middle" x="200" y="-273.5" font-family="Helvetica,sans-Serif" font-size="10.00">CoolBoardLed::printConf</text>
</a>
</g>
</g>
<!-- Node2&#45;&gt;Node79 -->
<g id="edge43" class="edge"><title>Node2&#45;&gt;Node79</title>
<path fill="none" stroke="midnightblue" d="M46.8253,-551.341C46.6792,-512.858 51.4596,-368.973 128,-295 129.48,-293.57 131.054,-292.245 132.707,-291.017"/>
<polygon fill="midnightblue" stroke="midnightblue" points="134.804,-293.838 141.53,-285.653 131.167,-287.857 134.804,-293.838"/>
</g>
<!-- Node80 -->
<g id="node44" class="node"><title>Node80</title>
<g id="a_node44"><a xlink:href="../../d0/dd0/class_cool_m_q_t_t.html#a40553a0ad4b5ecf1cb4411ab54ca85fb" target="_top" xlink:title="CoolMQTT::printConf">
<polygon fill="white" stroke="black" points="145,-228.5 145,-247.5 255,-247.5 255,-228.5 145,-228.5"/>
<text text-anchor="middle" x="200" y="-235.5" font-family="Helvetica,sans-Serif" font-size="10.00">CoolMQTT::printConf</text>
</a>
</g>
</g>
<!-- Node2&#45;&gt;Node80 -->
<g id="edge44" class="edge"><title>Node2&#45;&gt;Node80</title>
<path fill="none" stroke="midnightblue" d="M48.2793,-551.253C54.6489,-504.159 84.3813,-300.666 128,-257 130.39,-254.608 133.046,-252.507 135.887,-250.663"/>
<polygon fill="midnightblue" stroke="midnightblue" points="137.706,-253.66 144.886,-245.868 134.414,-247.482 137.706,-253.66"/>
</g>
<!-- Node81 -->
<g id="node45" class="node"><title>Node81</title>
<g id="a_node45"><a xlink:href="../../d6/d49/class_cool_time.html#af355e7f9b3898211cd2ff25eab5933b1" target="_top" xlink:title="CoolTime::printConf">
<polygon fill="white" stroke="black" points="148,-190.5 148,-209.5 252,-209.5 252,-190.5 148,-190.5"/>
<text text-anchor="middle" x="200" y="-197.5" font-family="Helvetica,sans-Serif" font-size="10.00">CoolTime::printConf</text>
</a>
</g>
</g>
<!-- Node2&#45;&gt;Node81 -->
<g id="edge45" class="edge"><title>Node2&#45;&gt;Node81</title>
<path fill="none" stroke="midnightblue" d="M47.9555,-551.412C53.1469,-501.193 79.53,-268.892 128,-219 131.187,-215.719 134.873,-212.985 138.857,-210.708"/>
<polygon fill="midnightblue" stroke="midnightblue" points="140.414,-213.844 147.974,-206.42 137.435,-207.509 140.414,-213.844"/>
</g>
<!-- Node82 -->
<g id="node46" class="node"><title>Node82</title>
<g id="a_node46"><a xlink:href="../../d6/d03/class_irene3000.html#a7bc2414100b5e19eacc6630fa34b2654" target="_top" xlink:title="Irene3000::printConf">
<polygon fill="white" stroke="black" points="147.5,-152.5 147.5,-171.5 252.5,-171.5 252.5,-152.5 147.5,-152.5"/>
<text text-anchor="middle" x="200" y="-159.5" font-family="Helvetica,sans-Serif" font-size="10.00">Irene3000::printConf</text>
</a>
</g>
</g>
<!-- Node2&#45;&gt;Node82 -->
<g id="edge46" class="edge"><title>Node2&#45;&gt;Node82</title>
<path fill="none" stroke="midnightblue" d="M47.7106,-551.432C51.8655,-498.019 74.6936,-237.123 128,-181 130.966,-177.877 134.384,-175.248 138.083,-173.036"/>
<polygon fill="midnightblue" stroke="midnightblue" points="139.704,-176.139 147.144,-168.596 136.624,-169.853 139.704,-176.139"/>
</g>
<!-- Node83 -->
<g id="node47" class="node"><title>Node83</title>
<g id="a_node47"><a xlink:href="../../de/d46/class_cool_board_sensors.html#af6fd79505815b204c178617ecf54c873" target="_top" xlink:title="CoolBoardSensors::printConf">
<polygon fill="white" stroke="black" points="128,-114.5 128,-133.5 272,-133.5 272,-114.5 128,-114.5"/>
<text text-anchor="middle" x="200" y="-121.5" font-family="Helvetica,sans-Serif" font-size="10.00">CoolBoardSensors::printConf</text>
</a>
</g>
</g>
<!-- Node2&#45;&gt;Node83 -->
<g id="edge47" class="edge"><title>Node2&#45;&gt;Node83</title>
<path fill="none" stroke="midnightblue" d="M47.5217,-551.239C50.7599,-494.288 69.9072,-205.313 128,-143 129.226,-141.685 130.533,-140.456 131.907,-139.31"/>
<polygon fill="midnightblue" stroke="midnightblue" points="134.072,-142.072 140.429,-133.597 130.174,-136.258 134.072,-142.072"/>
</g>
<!-- Node84 -->
<g id="node48" class="node"><title>Node84</title>
<g id="a_node48"><a xlink:href="../../d7/d29/class_cool_wifi.html#a9e6105c6d13d35ec510f6633da9e0223" target="_top" xlink:title="CoolWifi::printConf">
<polygon fill="white" stroke="black" points="150,-76.5 150,-95.5 250,-95.5 250,-76.5 150,-76.5"/>
<text text-anchor="middle" x="200" y="-83.5" font-family="Helvetica,sans-Serif" font-size="10.00">CoolWifi::printConf</text>
</a>
</g>
</g>
<!-- Node2&#45;&gt;Node84 -->
<g id="edge48" class="edge"><title>Node2&#45;&gt;Node84</title>
<path fill="none" stroke="midnightblue" d="M47.3545,-551.154C49.7165,-491.02 65.0685,-173.568 128,-105 131.575,-101.104 135.853,-97.9723 140.513,-95.4583"/>
<polygon fill="midnightblue" stroke="midnightblue" points="142.115,-98.5774 149.86,-91.3477 139.297,-92.1697 142.115,-98.5774"/>
</g>
<!-- Node85 -->
<g id="node49" class="node"><title>Node85</title>
<g id="a_node49"><a xlink:href="../../dc/d69/class_cool_board_actor.html#aabb10e7aebc3249ffc940530de29f84a" target="_top" xlink:title="CoolBoardActor::printConf">
<polygon fill="white" stroke="black" points="134.5,-38.5 134.5,-57.5 265.5,-57.5 265.5,-38.5 134.5,-38.5"/>
<text text-anchor="middle" x="200" y="-45.5" font-family="Helvetica,sans-Serif" font-size="10.00">CoolBoardActor::printConf</text>
</a>
</g>
</g>
<!-- Node2&#45;&gt;Node85 -->
<g id="edge49" class="edge"><title>Node2&#45;&gt;Node85</title>
<path fill="none" stroke="midnightblue" d="M47.2079,-551.169C48.7373,-488.216 60.1804,-141.886 128,-67 129.071,-65.8178 130.206,-64.7057 131.397,-63.6597"/>
<polygon fill="midnightblue" stroke="midnightblue" points="133.778,-66.2663 139.976,-57.6734 129.772,-60.5258 133.778,-66.2663"/>
</g>
<!-- Node86 -->
<g id="node50" class="node"><title>Node86</title>
<g id="a_node50"><a xlink:href="../../df/d1d/class_jetpack.html#ac54a7bb4f9166bee32052253d9b1d306" target="_top" xlink:title="Jetpack::printConf">
<polygon fill="white" stroke="black" points="151.5,-0.5 151.5,-19.5 248.5,-19.5 248.5,-0.5 151.5,-0.5"/>
<text text-anchor="middle" x="200" y="-7.5" font-family="Helvetica,sans-Serif" font-size="10.00">Jetpack::printConf</text>
</a>
</g>
</g>
<!-- Node2&#45;&gt;Node86 -->
<g id="edge50" class="edge"><title>Node2&#45;&gt;Node86</title>
<path fill="none" stroke="midnightblue" d="M47.0811,-551.277C47.8236,-485.879 55.2449,-110.264 128,-29 131.83,-24.722 136.507,-21.3608 141.616,-18.7265"/>
<polygon fill="midnightblue" stroke="midnightblue" points="143.309,-21.8125 151.187,-14.7284 140.611,-15.3534 143.309,-21.8125"/>
</g>
<!-- Node6 -->
<g id="node5" class="node"><title>Node6</title>
<g id="a_node5"><a xlink:href="../../d8/d4b/class_cool_pub_sub_client.html#a7ee119b786010561ab6a9afa0798e91d" target="_top" xlink:title="CoolPubSubClient::setClient">
<polygon fill="white" stroke="black" points="318,-1289.5 318,-1308.5 460,-1308.5 460,-1289.5 318,-1289.5"/>
<text text-anchor="middle" x="389" y="-1296.5" font-family="Helvetica,sans-Serif" font-size="10.00">CoolPubSubClient::setClient</text>
</a>
</g>
</g>
<!-- Node5&#45;&gt;Node6 -->
<g id="edge4" class="edge"><title>Node5&#45;&gt;Node6</title>
<path fill="none" stroke="midnightblue" d="M247.214,-1211.01C255.993,-1213.78 264.704,-1217.63 272,-1223 296.132,-1240.76 283.62,-1262.58 308,-1280 310.73,-1281.95 313.632,-1283.7 316.653,-1285.28"/>
<polygon fill="midnightblue" stroke="midnightblue" points="315.46,-1288.58 326.016,-1289.48 318.33,-1282.19 315.46,-1288.58"/>
</g>
<!-- Node7 -->
<g id="node6" class="node"><title>Node7</title>
<g id="a_node6"><a xlink:href="../../d8/d4b/class_cool_pub_sub_client.html#a947e70c394c66c7d08d0c53caf8425e3" target="_top" xlink:title="CoolPubSubClient::setServer">
<polygon fill="white" stroke="black" points="316.5,-1251.5 316.5,-1270.5 461.5,-1270.5 461.5,-1251.5 316.5,-1251.5"/>
<text text-anchor="middle" x="389" y="-1258.5" font-family="Helvetica,sans-Serif" font-size="10.00">CoolPubSubClient::setServer</text>
</a>
</g>
</g>
<!-- Node5&#45;&gt;Node7 -->
<g id="edge5" class="edge"><title>Node5&#45;&gt;Node7</title>
<path fill="none" stroke="midnightblue" d="M242.803,-1213.52C252.522,-1216.19 262.733,-1219.37 272,-1223 288.844,-1229.6 291.064,-1235.64 308,-1242 314.799,-1244.55 322.054,-1246.84 329.317,-1248.87"/>
<polygon fill="midnightblue" stroke="midnightblue" points="328.621,-1252.31 339.183,-1251.48 330.409,-1245.54 328.621,-1252.31"/>
</g>
<!-- Node8 -->
<g id="node7" class="node"><title>Node8</title>
<g id="a_node7"><a xlink:href="../../d8/d4b/class_cool_pub_sub_client.html#ac5cab7658f1bdded32131241e468e661" target="_top" xlink:title="CoolPubSubClient::setCallback">
<polygon fill="white" stroke="black" points="311.5,-1213.5 311.5,-1232.5 466.5,-1232.5 466.5,-1213.5 311.5,-1213.5"/>
<text text-anchor="middle" x="389" y="-1220.5" font-family="Helvetica,sans-Serif" font-size="10.00">CoolPubSubClient::setCallback</text>
</a>
</g>
</g>
<!-- Node5&#45;&gt;Node8 -->
<g id="edge6" class="edge"><title>Node5&#45;&gt;Node8</title>
<path fill="none" stroke="midnightblue" d="M247.225,-1208.7C263.635,-1210.36 282.683,-1212.3 301.363,-1214.2"/>
<polygon fill="midnightblue" stroke="midnightblue" points="301.079,-1217.69 311.381,-1215.22 301.786,-1210.72 301.079,-1217.69"/>
</g>
<!-- Node9 -->
<g id="node8" class="node"><title>Node9</title>
<g id="a_node8"><a xlink:href="../../d0/dd0/class_cool_m_q_t_t.html#a30d82ad665bfb603f46ecdbc290775df" target="_top" xlink:title="CoolMQTT::callback">
<polygon fill="white" stroke="black" points="335.5,-1175.5 335.5,-1194.5 442.5,-1194.5 442.5,-1175.5 335.5,-1175.5"/>
<text text-anchor="middle" x="389" y="-1182.5" font-family="Helvetica,sans-Serif" font-size="10.00">CoolMQTT::callback</text>
</a>
</g>
</g>
<!-- Node5&#45;&gt;Node9 -->
<g id="edge7" class="edge"><title>Node5&#45;&gt;Node9</title>
<path fill="none" stroke="midnightblue" d="M247.225,-1199.3C270.809,-1196.91 299.838,-1193.96 325.397,-1191.36"/>
<polygon fill="midnightblue" stroke="midnightblue" points="325.777,-1194.84 335.372,-1190.35 325.069,-1187.88 325.777,-1194.84"/>
</g>
<!-- Node10 -->
<g id="node9" class="node"><title>Node10</title>
<g id="a_node9"><a xlink:href="../../d8/d4b/class_cool_pub_sub_client.html#a4f83e54f1ba96e32f725d93cdec283b7" target="_top" xlink:title="CoolPubSubClient::setBufferSize">
<polygon fill="white" stroke="black" points="308,-1327.5 308,-1346.5 470,-1346.5 470,-1327.5 308,-1327.5"/>
<text text-anchor="middle" x="389" y="-1334.5" font-family="Helvetica,sans-Serif" font-size="10.00">CoolPubSubClient::setBufferSize</text>
</a>
</g>
</g>
<!-- Node5&#45;&gt;Node10 -->
<g id="edge8" class="edge"><title>Node5&#45;&gt;Node10</title>
<path fill="none" stroke="midnightblue" d="M247.011,-1209.55C256.108,-1212.41 264.995,-1216.67 272,-1223 305.495,-1253.28 274.08,-1288.2 308,-1318 309.786,-1319.57 311.679,-1321.01 313.656,-1322.35"/>
<polygon fill="midnightblue" stroke="midnightblue" points="312.369,-1325.64 322.802,-1327.48 315.795,-1319.53 312.369,-1325.64"/>
</g>
<!-- Node12 -->
<g id="node11" class="node"><title>Node12</title>
<g id="a_node11"><a xlink:href="../../d1/d68/class_base_external_sensor.html#a87d132803d4f4fdd4e66332809f0c9a0" target="_top" xlink:title="BaseExternalSensor\l::begin">
<polygon fill="white" stroke="black" points="336,-1126 336,-1156 442,-1156 442,-1126 336,-1126"/>
<text text-anchor="start" x="344" y="-1144" font-family="Helvetica,sans-Serif" font-size="10.00">BaseExternalSensor</text>
<text text-anchor="middle" x="389" y="-1133" font-family="Helvetica,sans-Serif" font-size="10.00">::begin</text>
</a>
</g>
</g>
<!-- Node11&#45;&gt;Node12 -->
<g id="edge10" class="edge"><title>Node11&#45;&gt;Node12</title>
<path fill="none" stroke="midnightblue" d="M220.816,-1079.58C242.071,-1089.65 276.964,-1105.58 308,-1117 313.805,-1119.14 319.896,-1121.23 326.017,-1123.23"/>
<polygon fill="midnightblue" stroke="midnightblue" points="325.034,-1126.59 335.625,-1126.29 327.161,-1119.92 325.034,-1126.59"/>
</g>
<!-- Node13 -->
<g id="node12" class="node"><title>Node13</title>
<g id="a_node12"><a xlink:href="../../d1/d68/class_base_external_sensor.html#a1564f16deacf57b51b9948ac29db4291" target="_top" xlink:title="BaseExternalSensor\l::read">
<polygon fill="white" stroke="black" points="336,-1077 336,-1107 442,-1107 442,-1077 336,-1077"/>
<text text-anchor="start" x="344" y="-1095" font-family="Helvetica,sans-Serif" font-size="10.00">BaseExternalSensor</text>
<text text-anchor="middle" x="389" y="-1084" font-family="Helvetica,sans-Serif" font-size="10.00">::read</text>
</a>
</g>
</g>
<!-- Node11&#45;&gt;Node13 -->
<g id="edge11" class="edge"><title>Node11&#45;&gt;Node13</title>
<path fill="none" stroke="midnightblue" d="M259.143,-1076.84C280.338,-1079.33 304.377,-1082.16 325.903,-1084.69"/>
<polygon fill="midnightblue" stroke="midnightblue" points="325.579,-1088.18 335.92,-1085.87 326.397,-1081.23 325.579,-1088.18"/>
</g>
<!-- Node14 -->
<g id="node13" class="node"><title>Node14</title>
<g id="a_node13"><a xlink:href="../../d9/d09/_external_sensors_8cpp.html#af39fa3dad1ba161b384c0b26b8145e65" target="_top" xlink:title="oneWire">
<polygon fill="white" stroke="black" points="362.5,-1038.5 362.5,-1057.5 415.5,-1057.5 415.5,-1038.5 362.5,-1038.5"/>
<text text-anchor="middle" x="389" y="-1045.5" font-family="Helvetica,sans-Serif" font-size="10.00">oneWire</text>
</a>
</g>
</g>
<!-- Node11&#45;&gt;Node14 -->
<g id="edge12" class="edge"><title>Node11&#45;&gt;Node14</title>
<path fill="none" stroke="midnightblue" d="M259.143,-1063.16C289.486,-1059.59 325.655,-1055.33 351.938,-1052.24"/>
<polygon fill="midnightblue" stroke="midnightblue" points="352.675,-1055.68 362.198,-1051.04 351.857,-1048.73 352.675,-1055.68"/>
</g>
<!-- Node16 -->
<g id="node15" class="node"><title>Node16</title>
<g id="a_node15"><a xlink:href="../../dd/d67/class_cool_s_i114_x.html#a206b36aca7049f63be1d11088c30a09f" target="_top" xlink:title="CoolSI114X::Begin">
<polygon fill="white" stroke="red" points="339,-1000.5 339,-1019.5 439,-1019.5 439,-1000.5 339,-1000.5"/>
<text text-anchor="middle" x="389" y="-1007.5" font-family="Helvetica,sans-Serif" font-size="10.00">CoolSI114X::Begin</text>
</a>
</g>
</g>
<!-- Node15&#45;&gt;Node16 -->
<g id="edge14" class="edge"><title>Node15&#45;&gt;Node16</title>
<path fill="none" stroke="midnightblue" d="M236.615,-972.537C257.403,-978.049 284.153,-985.049 308,-991 317.354,-993.334 327.341,-995.76 336.976,-998.065"/>
<polygon fill="midnightblue" stroke="midnightblue" points="336.308,-1001.5 346.847,-1000.42 337.93,-994.694 336.308,-1001.5"/>
</g>
<!-- Node22 -->
<g id="node16" class="node"><title>Node22</title>
<g id="a_node16"><a xlink:href="../../de/d46/class_cool_board_sensors.html#a406307ffd70272282d91479c7ed8d66f" target="_top" xlink:title="CoolBoardSensors::setEnv\lSensorSettings">
<polygon fill="white" stroke="black" points="321.5,-951 321.5,-981 456.5,-981 456.5,-951 321.5,-951"/>
<text text-anchor="start" x="329.5" y="-969" font-family="Helvetica,sans-Serif" font-size="10.00">CoolBoardSensors::setEnv</text>
<text text-anchor="middle" x="389" y="-958" font-family="Helvetica,sans-Serif" font-size="10.00">SensorSettings</text>
</a>
</g>
</g>
<!-- Node15&#45;&gt;Node22 -->
<g id="edge15" class="edge"><title>Node15&#45;&gt;Node22</title>
<path fill="none" stroke="midnightblue" d="M264.049,-964.011C279.183,-964.254 295.513,-964.516 311.194,-964.768"/>
<polygon fill="midnightblue" stroke="midnightblue" points="311.332,-968.27 321.387,-964.931 311.444,-961.271 311.332,-968.27"/>
</g>
<!-- Node23 -->
<g id="node17" class="node"><title>Node23</title>
<g id="a_node17"><a xlink:href="../../df/dcf/class_b_m_e280.html#a994c102f010547f9c740a338ef9905c7" target="_top" xlink:title="BME280::begin">
<polygon fill="white" stroke="red" points="347.5,-912.5 347.5,-931.5 430.5,-931.5 430.5,-912.5 347.5,-912.5"/>
<text text-anchor="middle" x="389" y="-919.5" font-family="Helvetica,sans-Serif" font-size="10.00">BME280::begin</text>
</a>
</g>
</g>
<!-- Node15&#45;&gt;Node23 -->
<g id="edge16" class="edge"><title>Node15&#45;&gt;Node23</title>
<path fill="none" stroke="midnightblue" d="M244.372,-953.491C272.168,-947.396 308.356,-939.462 337.453,-933.083"/>
<polygon fill="midnightblue" stroke="midnightblue" points="338.405,-936.457 347.424,-930.896 336.906,-929.619 338.405,-936.457"/>
</g>
<!-- Node28 -->
<g id="node20" class="node"><title>Node28</title>
<g id="a_node20"><a xlink:href="../../d6/d49/class_cool_time.html#aae601f795452cfa48d9fb337aed483a8" target="_top" xlink:title="CoolTime::update">
<polygon fill="white" stroke="red" points="342,-874.5 342,-893.5 436,-893.5 436,-874.5 342,-874.5"/>
<text text-anchor="middle" x="389" y="-881.5" font-family="Helvetica,sans-Serif" font-size="10.00">CoolTime::update</text>
</a>
</g>
</g>
<!-- Node27&#45;&gt;Node28 -->
<g id="edge19" class="edge"><title>Node27&#45;&gt;Node28</title>
<path fill="none" stroke="midnightblue" d="M244.372,-884C270.413,-884 303.82,-884 331.861,-884"/>
<polygon fill="midnightblue" stroke="midnightblue" points="331.925,-887.5 341.925,-884 331.925,-880.5 331.925,-887.5"/>
</g>
<!-- Node35 -->
<g id="node22" class="node"><title>Node35</title>
<g id="a_node22"><a xlink:href="../../df/df6/class_adafruit___a_d_s1015.html#a6eba7c3cd854927f60883bb371e5faa6" target="_top" xlink:title="Sets up the HW (reads coefficients values, etc.) ">
<polygon fill="white" stroke="black" points="325.5,-798.5 325.5,-817.5 452.5,-817.5 452.5,-798.5 325.5,-798.5"/>
<text text-anchor="middle" x="389" y="-805.5" font-family="Helvetica,sans-Serif" font-size="10.00">Adafruit_ADS1015::begin</text>
</a>
</g>
</g>
<!-- Node34&#45;&gt;Node35 -->
<g id="edge21" class="edge"><title>Node34&#45;&gt;Node35</title>
<path fill="none" stroke="midnightblue" d="M244.843,-837.091C270.61,-831.855 303.465,-825.178 331.199,-819.542"/>
<polygon fill="midnightblue" stroke="midnightblue" points="332.06,-822.939 341.163,-817.518 330.666,-816.079 332.06,-822.939"/>
</g>
<!-- Node36 -->
<g id="node23" class="node"><title>Node36</title>
<g id="a_node23"><a xlink:href="../../d6/d03/class_irene3000.html#a78a87eb7cf295b95c12b2ebd51c2bb77" target="_top" xlink:title="Irene3000::readButton">
<polygon fill="white" stroke="red" points="332.5,-760.5 332.5,-779.5 445.5,-779.5 445.5,-760.5 332.5,-760.5"/>
<text text-anchor="middle" x="389" y="-767.5" font-family="Helvetica,sans-Serif" font-size="10.00">Irene3000::readButton</text>
</a>
</g>
</g>
<!-- Node34&#45;&gt;Node36 -->
<g id="edge22" class="edge"><title>Node34&#45;&gt;Node36</title>
<path fill="none" stroke="midnightblue" d="M244.584,-838.387C254.024,-835.65 263.667,-831.961 272,-827 291.991,-815.1 287.843,-800.616 308,-789 312.522,-786.394 317.385,-784.145 322.398,-782.204"/>
<polygon fill="midnightblue" stroke="midnightblue" points="323.858,-785.402 332.174,-778.837 321.579,-778.784 323.858,-785.402"/>
</g>
<!-- Node44 -->
<g id="node24" class="node"><title>Node44</title>
<g id="a_node24"><a xlink:href="../../d6/d03/class_irene3000.html#a1d3299202e4cb7afcff9c9e3e95d94c1" target="_top" xlink:title="Irene3000::calibratepH7">
<polygon fill="white" stroke="red" points="329,-722.5 329,-741.5 449,-741.5 449,-722.5 329,-722.5"/>
<text text-anchor="middle" x="389" y="-729.5" font-family="Helvetica,sans-Serif" font-size="10.00">Irene3000::calibratepH7</text>
</a>
</g>
</g>
<!-- Node34&#45;&gt;Node44 -->
<g id="edge23" class="edge"><title>Node34&#45;&gt;Node44</title>
<path fill="none" stroke="midnightblue" d="M244.785,-840.569C254.532,-837.735 264.257,-833.455 272,-827 300.708,-803.067 278.957,-774.525 308,-751 311.527,-748.143 315.412,-745.703 319.512,-743.619"/>
<polygon fill="midnightblue" stroke="midnightblue" points="320.99,-746.794 328.775,-739.606 318.207,-740.37 320.99,-746.794"/>
</g>
<!-- Node46 -->
<g id="node25" class="node"><title>Node46</title>
<g id="a_node25"><a xlink:href="../../d6/d03/class_irene3000.html#aa140dd026922a04981edfd04d46cabbe" target="_top" xlink:title="Irene3000::calibratepH4">
<polygon fill="white" stroke="red" points="329,-684.5 329,-703.5 449,-703.5 449,-684.5 329,-684.5"/>
<text text-anchor="middle" x="389" y="-691.5" font-family="Helvetica,sans-Serif" font-size="10.00">Irene3000::calibratepH4</text>
</a>
</g>
</g>
<!-- Node34&#45;&gt;Node46 -->
<g id="edge24" class="edge"><title>Node34&#45;&gt;Node46</title>
<path fill="none" stroke="midnightblue" d="M244.703,-841.518C254.681,-838.67 264.531,-834.144 272,-827 310.395,-790.273 269.089,-749.18 308,-713 311.445,-709.797 315.329,-707.103 319.481,-704.842"/>
<polygon fill="midnightblue" stroke="midnightblue" points="321.276,-707.871 328.934,-700.549 318.382,-701.497 321.276,-707.871"/>
</g>
<!-- Node47 -->
<g id="node26" class="node"><title>Node47</title>
<g id="a_node26"><a xlink:href="../../d6/d03/class_irene3000.html#a63dbd38e79b8cd5f1fba4b245501a894" target="_top" xlink:title="Irene3000::saveParams">
<polygon fill="white" stroke="black" points="329,-836.5 329,-855.5 449,-855.5 449,-836.5 329,-836.5"/>
<text text-anchor="middle" x="389" y="-843.5" font-family="Helvetica,sans-Serif" font-size="10.00">Irene3000::saveParams</text>
</a>
</g>
</g>
<!-- Node34&#45;&gt;Node47 -->
<g id="edge25" class="edge"><title>Node34&#45;&gt;Node47</title>
<path fill="none" stroke="midnightblue" d="M244.843,-846C266.855,-846 294.04,-846 318.786,-846"/>
<polygon fill="midnightblue" stroke="midnightblue" points="318.856,-849.5 328.856,-846 318.856,-842.5 318.856,-849.5"/>
</g>
<!-- Node54 -->
<g id="node33" class="node"><title>Node54</title>
<g id="a_node33"><a xlink:href="../../d6/d03/class_irene3000.html#abcad62d1201a59f8dd3ba87048002728" target="_top" xlink:title="Irene3000::gainConvert">
<polygon fill="white" stroke="black" points="330,-646.5 330,-665.5 448,-665.5 448,-646.5 330,-646.5"/>
<text text-anchor="middle" x="389" y="-653.5" font-family="Helvetica,sans-Serif" font-size="10.00">Irene3000::gainConvert</text>
</a>
</g>
</g>
<!-- Node53&#45;&gt;Node54 -->
<g id="edge32" class="edge"><title>Node53&#45;&gt;Node54</title>
<path fill="none" stroke="midnightblue" d="M246.18,-803.084C255.648,-800.217 264.9,-795.792 272,-789 310.395,-752.273 269.089,-711.18 308,-675 311.662,-671.595 315.82,-668.766 320.27,-666.419"/>
<polygon fill="midnightblue" stroke="midnightblue" points="322.003,-669.48 329.747,-662.249 319.184,-663.073 322.003,-669.48"/>
</g>
<!-- Node58&#45;&gt;Node48 -->
<g id="edge39" class="edge"><title>Node58&#45;&gt;Node48</title>
<path fill="none" stroke="midnightblue" d="M245.314,-475.521C254.329,-478.103 263.614,-481.248 272,-485 308.28,-501.234 346.008,-528.135 368.228,-545.195"/>
<polygon fill="midnightblue" stroke="midnightblue" points="366.179,-548.035 376.218,-551.42 370.481,-542.513 366.179,-548.035"/>
</g>
<!-- Node58&#45;&gt;Node59 -->
<g id="edge37" class="edge"><title>Node58&#45;&gt;Node59</title>
<path fill="none" stroke="midnightblue" d="M248.188,-456.411C273.42,-451.284 304.673,-444.933 331.227,-439.537"/>
<polygon fill="midnightblue" stroke="midnightblue" points="332.049,-442.941 341.151,-437.52 330.655,-436.082 332.049,-442.941"/>
</g>
<!-- Node60 -->
<g id="node39" class="node"><title>Node60</title>
<g id="a_node39"><a xlink:href="../../d7/d29/class_cool_wifi.html#ad060353050f40d032a2dbf9e54a768bf" target="_top" xlink:title="CoolWifi::connect">
<polygon fill="white" stroke="red" points="341.5,-456.5 341.5,-475.5 436.5,-475.5 436.5,-456.5 341.5,-456.5"/>
<text text-anchor="middle" x="389" y="-463.5" font-family="Helvetica,sans-Serif" font-size="10.00">CoolWifi::connect</text>
</a>
</g>
</g>
<!-- Node58&#45;&gt;Node60 -->
<g id="edge38" class="edge"><title>Node58&#45;&gt;Node60</title>
<path fill="none" stroke="midnightblue" d="M251.605,-466C276.132,-466 305.688,-466 331.006,-466"/>
<polygon fill="midnightblue" stroke="midnightblue" points="331.206,-469.5 341.206,-466 331.206,-462.5 331.206,-469.5"/>
</g>
</g>
</svg>
