<?xml version="1.0" encoding="UTF-8" standalone="no"?>
<!DOCTYPE svg PUBLIC "-//W3C//DTD SVG 1.1//EN"
 "http://www.w3.org/Graphics/SVG/1.1/DTD/svg11.dtd">
<!-- Generated by graphviz version 2.38.0 (20140413.2041)
 -->
<!-- Title: Adafruit_TCS34725::read16 Pages: 1 -->
<svg width="260pt" height="39pt"
 viewBox="0.00 0.00 260.00 39.00" xmlns="http://www.w3.org/2000/svg" xmlns:xlink="http://www.w3.org/1999/xlink">
<g id="graph0" class="graph" transform="scale(1 1) rotate(0) translate(4 35)">
<title>Adafruit_TCS34725::read16</title>
<polygon fill="white" stroke="none" points="-4,4 -4,-35 256,-35 256,4 -4,4"/>
<!-- Node65 -->
<g id="node1" class="node"><title>Node65</title>
<polygon fill="#bfbfbf" stroke="black" points="0,-0.5 0,-30.5 108,-30.5 108,-0.5 0,-0.5"/>
<text text-anchor="start" x="8" y="-18.5" font-family="Helvetica,sans-Serif" font-size="10.00">Adafruit_TCS34725::</text>
<text text-anchor="middle" x="54" y="-7.5" font-family="Helvetica,sans-Serif" font-size="10.00">read16</text>
</g>
<!-- Node66 -->
<g id="node2" class="node"><title>Node66</title>
<g id="a_node2"><a xlink:href="../../df/d54/class_adafruit___t_c_s34725.html#abd9946a9baab1e0c76248cfe1864ea27" target="_top" xlink:title="Reads the raw red, green, blue and clear channel values. ">
<polygon fill="white" stroke="black" points="144,-0.5 144,-30.5 252,-30.5 252,-0.5 144,-0.5"/>
<text text-anchor="start" x="152" y="-18.5" font-family="Helvetica,sans-Serif" font-size="10.00">Adafruit_TCS34725::</text>
<text text-anchor="middle" x="198" y="-7.5" font-family="Helvetica,sans-Serif" font-size="10.00">getRawData</text>
</a>
</g>
</g>
<!-- Node65&#45;&gt;Node66 -->
<g id="edge1" class="edge"><title>Node65&#45;&gt;Node66</title>
<path fill="none" stroke="midnightblue" d="M118.517,-15.5C126.996,-15.5 135.618,-15.5 143.894,-15.5"/>
<polygon fill="midnightblue" stroke="midnightblue" points="118.28,-12.0001 108.28,-15.5 118.28,-19.0001 118.28,-12.0001"/>
</g>
</g>
</svg>
