<?xml version="1.0" encoding="UTF-8" standalone="no"?>
<!DOCTYPE svg PUBLIC "-//W3C//DTD SVG 1.1//EN"
 "http://www.w3.org/Graphics/SVG/1.1/DTD/svg11.dtd">
<!-- Generated by graphviz version 2.38.0 (20140413.2041)
 -->
<!-- Title: Adafruit_TCS34725::setIntegrationTime Pages: 1 -->
<svg width="548pt" height="158pt"
 viewBox="0.00 0.00 548.00 157.97" xmlns="http://www.w3.org/2000/svg" xmlns:xlink="http://www.w3.org/1999/xlink">
<g id="graph0" class="graph" transform="scale(1 1) rotate(0) translate(4 153.965)">
<title>Adafruit_TCS34725::setIntegrationTime</title>
<polygon fill="white" stroke="none" points="-4,4 -4,-153.965 544,-153.965 544,4 -4,4"/>
<!-- Node12 -->
<g id="node1" class="node"><title>Node12</title>
<polygon fill="#bfbfbf" stroke="black" points="0,-21.4655 0,-51.4655 108,-51.4655 108,-21.4655 0,-21.4655"/>
<text text-anchor="start" x="8" y="-39.4655" font-family="Helvetica,sans-Serif" font-size="10.00">Adafruit_TCS34725::</text>
<text text-anchor="middle" x="54" y="-28.4655" font-family="Helvetica,sans-Serif" font-size="10.00">setIntegrationTime</text>
</g>
<!-- Node13 -->
<g id="node2" class="node"><title>Node13</title>
<g id="a_node2"><a xlink:href="../../df/d54/class_adafruit___t_c_s34725.html#a568d79b6382ac27010a8afc26cbdae79" target="_top" xlink:title="Adafruit_TCS34725::\lbegin">
<polygon fill="white" stroke="black" points="144,-21.4655 144,-51.4655 252,-51.4655 252,-21.4655 144,-21.4655"/>
<text text-anchor="start" x="152" y="-39.4655" font-family="Helvetica,sans-Serif" font-size="10.00">Adafruit_TCS34725::</text>
<text text-anchor="middle" x="198" y="-28.4655" font-family="Helvetica,sans-Serif" font-size="10.00">begin</text>
</a>
</g>
</g>
<!-- Node12&#45;&gt;Node13 -->
<g id="edge1" class="edge"><title>Node12&#45;&gt;Node13</title>
<path fill="none" stroke="midnightblue" d="M108.28,-29.9059C116.56,-29.7245 125.184,-29.6727 133.661,-29.7505"/>
<polygon fill="midnightblue" stroke="midnightblue" points="133.841,-33.2536 143.894,-29.9097 133.95,-26.2545 133.841,-33.2536"/>
</g>
<!-- Node15 -->
<g id="node4" class="node"><title>Node15</title>
<g id="a_node4"><a xlink:href="../../df/d54/class_adafruit___t_c_s34725.html#aa526557ad0d76b3b6e31e6197de583e6" target="_top" xlink:title="Writes a register and an 8 bit value over I2C. ">
<polygon fill="white" stroke="black" points="432,-21.4655 432,-51.4655 540,-51.4655 540,-21.4655 432,-21.4655"/>
<text text-anchor="start" x="440" y="-39.4655" font-family="Helvetica,sans-Serif" font-size="10.00">Adafruit_TCS34725::</text>
<text text-anchor="middle" x="486" y="-28.4655" font-family="Helvetica,sans-Serif" font-size="10.00">write8</text>
</a>
</g>
</g>
<!-- Node12&#45;&gt;Node15 -->
<g id="edge9" class="edge"><title>Node12&#45;&gt;Node15</title>
<path fill="none" stroke="midnightblue" d="M99.3135,-21.4441C113.425,-17.3592 129.214,-13.5028 144,-11.4655 254.952,3.82182 285.048,3.82182 396,-11.4655 407.436,-13.0412 419.472,-15.7051 430.868,-18.7213"/>
<polygon fill="midnightblue" stroke="midnightblue" points="430.115,-22.1445 440.686,-21.4441 431.985,-15.399 430.115,-22.1445"/>
</g>
<!-- Node13&#45;&gt;Node12 -->
<g id="edge8" class="edge"><title>Node13&#45;&gt;Node12</title>
<path fill="none" stroke="midnightblue" d="M143.894,-43.0212C135.618,-43.2044 126.996,-43.258 118.517,-43.182"/>
<polygon fill="midnightblue" stroke="midnightblue" points="118.332,-39.6789 108.28,-43.025 118.225,-46.6781 118.332,-39.6789"/>
</g>
<!-- Node14 -->
<g id="node3" class="node"><title>Node14</title>
<g id="a_node3"><a xlink:href="../../df/d54/class_adafruit___t_c_s34725.html#ad9a0e1f4f77d32dc0a6d604f7d1d5586" target="_top" xlink:title="Adafruit_TCS34725::\lenable">
<polygon fill="white" stroke="black" points="288,-119.465 288,-149.465 396,-149.465 396,-119.465 288,-119.465"/>
<text text-anchor="start" x="296" y="-137.465" font-family="Helvetica,sans-Serif" font-size="10.00">Adafruit_TCS34725::</text>
<text text-anchor="middle" x="342" y="-126.465" font-family="Helvetica,sans-Serif" font-size="10.00">enable</text>
</a>
</g>
</g>
<!-- Node13&#45;&gt;Node14 -->
<g id="edge2" class="edge"><title>Node13&#45;&gt;Node14</title>
<path fill="none" stroke="midnightblue" d="M214.399,-51.4915C231.398,-67.5255 260.068,-92.9763 288,-110.465 290.408,-111.973 292.926,-113.439 295.502,-114.855"/>
<polygon fill="midnightblue" stroke="midnightblue" points="293.912,-117.973 304.402,-119.459 297.128,-111.755 293.912,-117.973"/>
</g>
<!-- Node16 -->
<g id="node5" class="node"><title>Node16</title>
<g id="a_node5"><a xlink:href="../../df/d54/class_adafruit___t_c_s34725.html#a3ffafbdd475d6baf9abda8dd067b5319" target="_top" xlink:title="Reads an 8 bit value over I2C. ">
<polygon fill="white" stroke="black" points="288,-70.4655 288,-100.465 396,-100.465 396,-70.4655 288,-70.4655"/>
<text text-anchor="start" x="296" y="-88.4655" font-family="Helvetica,sans-Serif" font-size="10.00">Adafruit_TCS34725::</text>
<text text-anchor="middle" x="342" y="-77.4655" font-family="Helvetica,sans-Serif" font-size="10.00">read8</text>
</a>
</g>
</g>
<!-- Node13&#45;&gt;Node16 -->
<g id="edge4" class="edge"><title>Node13&#45;&gt;Node16</title>
<path fill="none" stroke="midnightblue" d="M242.763,-51.5669C256.935,-56.4571 272.813,-61.9362 287.603,-67.0399"/>
<polygon fill="midnightblue" stroke="midnightblue" points="286.542,-70.3761 297.137,-70.3295 288.825,-63.759 286.542,-70.3761"/>
</g>
<!-- Node17 -->
<g id="node6" class="node"><title>Node17</title>
<g id="a_node6"><a xlink:href="../../df/d54/class_adafruit___t_c_s34725.html#a6be06315a9d33f76e44550f574f023a5" target="_top" xlink:title="Adafruit_TCS34725::\lsetGain">
<polygon fill="white" stroke="black" points="288,-21.4655 288,-51.4655 396,-51.4655 396,-21.4655 288,-21.4655"/>
<text text-anchor="start" x="296" y="-39.4655" font-family="Helvetica,sans-Serif" font-size="10.00">Adafruit_TCS34725::</text>
<text text-anchor="middle" x="342" y="-28.4655" font-family="Helvetica,sans-Serif" font-size="10.00">setGain</text>
</a>
</g>
</g>
<!-- Node13&#45;&gt;Node17 -->
<g id="edge5" class="edge"><title>Node13&#45;&gt;Node17</title>
<path fill="none" stroke="midnightblue" d="M252.28,-29.9059C260.56,-29.7245 269.184,-29.6727 277.661,-29.7505"/>
<polygon fill="midnightblue" stroke="midnightblue" points="277.841,-33.2536 287.894,-29.9097 277.95,-26.2545 277.841,-33.2536"/>
</g>
<!-- Node14&#45;&gt;Node15 -->
<g id="edge3" class="edge"><title>Node14&#45;&gt;Node15</title>
<path fill="none" stroke="midnightblue" d="M379.598,-119.459C385.223,-116.709 390.863,-113.682 396,-110.465 420.222,-95.2991 444.999,-74.1454 462.239,-58.3376"/>
<polygon fill="midnightblue" stroke="midnightblue" points="464.661,-60.8645 469.601,-51.4915 459.894,-55.7386 464.661,-60.8645"/>
</g>
<!-- Node17&#45;&gt;Node13 -->
<g id="edge6" class="edge"><title>Node17&#45;&gt;Node13</title>
<path fill="none" stroke="midnightblue" d="M287.894,-43.0212C279.618,-43.2044 270.996,-43.258 262.517,-43.182"/>
<polygon fill="midnightblue" stroke="midnightblue" points="262.332,-39.6789 252.28,-43.025 262.225,-46.6781 262.332,-39.6789"/>
</g>
<!-- Node17&#45;&gt;Node15 -->
<g id="edge7" class="edge"><title>Node17&#45;&gt;Node15</title>
<path fill="none" stroke="midnightblue" d="M396.28,-36.4655C404.56,-36.4655 413.184,-36.4655 421.661,-36.4655"/>
<polygon fill="midnightblue" stroke="midnightblue" points="421.894,-39.9656 431.894,-36.4655 421.894,-32.9656 421.894,-39.9656"/>
</g>
</g>
</svg>
