<?xml version="1.0" encoding="UTF-8" standalone="no"?>
<!DOCTYPE svg PUBLIC "-//W3C//DTD SVG 1.1//EN"
 "http://www.w3.org/Graphics/SVG/1.1/DTD/svg11.dtd">
<!-- Generated by graphviz version 2.38.0 (20140413.2041)
 -->
<!-- Title: Adafruit_TCS34725::write8 Pages: 1 -->
<!--zoomable 264 -->
<svg id="main" version="1.1" xmlns="http://www.w3.org/2000/svg" xmlns:xlink="http://www.w3.org/1999/xlink" xml:space="preserve" onload="init(evt)">
<style type="text/css"><![CDATA[
.edge:hover path { stroke: red; }
.edge:hover polygon { stroke: red; fill: red; }
]]></style>
<script type="text/javascript"><![CDATA[
var edges = document.getElementsByTagName('g');
if (edges && edges.length) {
  for (var i=0;i<edges.length;i++) {
    if (edges[i].id.substr(0,4)=='edge') {
      edges[i].setAttribute('class','edge');
    }
  }
}
]]></script>
        <defs>
                <circle id="rim" cx="0" cy="0" r="7"/>
                <circle id="rim2" cx="0" cy="0" r="3.5"/>
                <g id="zoomPlus">
                        <use xlink:href="#rim" fill="#404040">
                                <set attributeName="fill" to="#808080" begin="zoomplus.mouseover" end="zoomplus.mouseout"/>
                        </use>
                        <path d="M-4,0h8M0,-4v8" fill="none" stroke="white" stroke-width="1.5" pointer-events="none"/>
                </g>
                <g id="zoomMin">
                        <use xlink:href="#rim" fill="#404040">
                                <set attributeName="fill" to="#808080" begin="zoomminus.mouseover" end="zoomminus.mouseout"/>
                        </use>
                        <path d="M-4,0h8" fill="none" stroke="white" stroke-width="1.5" pointer-events="none"/>
                </g>
                <g id="dirArrow">
                        <path fill="none" stroke="white" stroke-width="1.5" d="M0,-3.0v7 M-2.5,-0.5L0,-3.0L2.5,-0.5"/>
                </g>
               <g id="resetDef">
                       <use xlink:href="#rim2" fill="#404040">
                               <set attributeName="fill" to="#808080" begin="reset.mouseover" end="reset.mouseout"/>
                       </use>
               </g>
        </defs>

<script type="text/javascript">
var viewWidth = 548;
var viewHeight = 264;
var sectionId = 'dynsection-9';
</script>
<script xlink:href="../../svgpan.js"/>
<svg id="graph" class="graph">
<g id="viewport">
<title>Adafruit_TCS34725::write8</title>
<polygon fill="white" stroke="none" points="-4,4 -4,-260 544,-260 544,4 -4,4"/>
<!-- Node47 -->
<g id="node1" class="node"><title>Node47</title>
<polygon fill="#bfbfbf" stroke="black" points="0,-115.5 0,-145.5 108,-145.5 108,-115.5 0,-115.5"/>
<text text-anchor="start" x="8" y="-133.5" font-family="Helvetica,sans-Serif" font-size="10.00">Adafruit_TCS34725::</text>
<text text-anchor="middle" x="54" y="-122.5" font-family="Helvetica,sans-Serif" font-size="10.00">write8</text>
</g>
<!-- Node48 -->
<g id="node2" class="node"><title>Node48</title>
<g id="a_node2"><a xlink:href="../../df/d54/class_adafruit___t_c_s34725.html#a79ac9b01a540f132d4bbf2edd2d6e8a2" target="_top" xlink:title="Adafruit_TCS34725::\ldisable">
<polygon fill="white" stroke="black" points="144,-225.5 144,-255.5 252,-255.5 252,-225.5 144,-225.5"/>
<text text-anchor="start" x="152" y="-243.5" font-family="Helvetica,sans-Serif" font-size="10.00">Adafruit_TCS34725::</text>
<text text-anchor="middle" x="198" y="-232.5" font-family="Helvetica,sans-Serif" font-size="10.00">disable</text>
</a>
</g>
</g>
<!-- Node47&#45;&gt;Node48 -->
<g id="edge1" class="edge"><title>Node47&#45;&gt;Node48</title>
<path fill="none" stroke="midnightblue" d="M77.2712,-153.023C94.606,-169.915 119.722,-193.034 144,-210.5 151.381,-215.81 159.785,-220.938 167.69,-225.407"/>
<polygon fill="midnightblue" stroke="midnightblue" points="79.464,-150.27 69.885,-145.743 74.5501,-155.255 79.464,-150.27"/>
</g>
<!-- Node49 -->
<g id="node3" class="node"><title>Node49</title>
<g id="a_node3"><a xlink:href="../../df/d54/class_adafruit___t_c_s34725.html#ad9a0e1f4f77d32dc0a6d604f7d1d5586" target="_top" xlink:title="Adafruit_TCS34725::\lenable">
<polygon fill="white" stroke="black" points="144,-137.5 144,-167.5 252,-167.5 252,-137.5 144,-137.5"/>
<text text-anchor="start" x="152" y="-155.5" font-family="Helvetica,sans-Serif" font-size="10.00">Adafruit_TCS34725::</text>
<text text-anchor="middle" x="198" y="-144.5" font-family="Helvetica,sans-Serif" font-size="10.00">enable</text>
</a>
</g>
</g>
<!-- Node47&#45;&gt;Node49 -->
<g id="edge2" class="edge"><title>Node47&#45;&gt;Node49</title>
<path fill="none" stroke="midnightblue" d="M118.238,-140.297C126.806,-141.625 135.528,-142.976 143.894,-144.272"/>
<polygon fill="midnightblue" stroke="midnightblue" points="118.698,-136.827 108.28,-138.755 117.626,-143.744 118.698,-136.827"/>
</g>
<!-- Node52 -->
<g id="node6" class="node"><title>Node52</title>
<g id="a_node6"><a xlink:href="../../df/d54/class_adafruit___t_c_s34725.html#a6be06315a9d33f76e44550f574f023a5" target="_top" xlink:title="Adafruit_TCS34725::\lsetGain">
<polygon fill="white" stroke="black" points="432,-186.5 432,-216.5 540,-216.5 540,-186.5 432,-186.5"/>
<text text-anchor="start" x="440" y="-204.5" font-family="Helvetica,sans-Serif" font-size="10.00">Adafruit_TCS34725::</text>
<text text-anchor="middle" x="486" y="-193.5" font-family="Helvetica,sans-Serif" font-size="10.00">setGain</text>
</a>
</g>
</g>
<!-- Node47&#45;&gt;Node52 -->
<g id="edge9" class="edge"><title>Node47&#45;&gt;Node52</title>
<path fill="none" stroke="midnightblue" d="M85.981,-150.963C102.501,-160.789 123.585,-171.672 144,-177.5 242.728,-205.683 363.747,-206.735 431.842,-204.455"/>
<polygon fill="midnightblue" stroke="midnightblue" points="87.6621,-147.888 77.3062,-145.651 84.0066,-153.858 87.6621,-147.888"/>
</g>
<!-- Node53 -->
<g id="node7" class="node"><title>Node53</title>
<g id="a_node7"><a xlink:href="../../df/d54/class_adafruit___t_c_s34725.html#a3c89fe5d4eea1f24f31d1afa9de8f0f3" target="_top" xlink:title="Adafruit_TCS34725::\lsetIntegrationTime">
<polygon fill="white" stroke="black" points="432,-88.5 432,-118.5 540,-118.5 540,-88.5 432,-88.5"/>
<text text-anchor="start" x="440" y="-106.5" font-family="Helvetica,sans-Serif" font-size="10.00">Adafruit_TCS34725::</text>
<text text-anchor="middle" x="486" y="-95.5" font-family="Helvetica,sans-Serif" font-size="10.00">setIntegrationTime</text>
</a>
</g>
</g>
<!-- Node47&#45;&gt;Node53 -->
<g id="edge10" class="edge"><title>Node47&#45;&gt;Node53</title>
<path fill="none" stroke="midnightblue" d="M118.186,-126.533C203.115,-121.2 352.575,-111.815 431.964,-106.83"/>
<polygon fill="midnightblue" stroke="midnightblue" points="117.919,-123.042 108.158,-127.162 118.357,-130.029 117.919,-123.042"/>
</g>
<!-- Node54 -->
<g id="node8" class="node"><title>Node54</title>
<g id="a_node8"><a xlink:href="../../df/d54/class_adafruit___t_c_s34725.html#ae477b116ac93cf075be20637207aee57" target="_top" xlink:title="Adafruit_TCS34725::\lsetInterrupt">
<polygon fill="white" stroke="black" points="144,-49.5 144,-79.5 252,-79.5 252,-49.5 144,-49.5"/>
<text text-anchor="start" x="152" y="-67.5" font-family="Helvetica,sans-Serif" font-size="10.00">Adafruit_TCS34725::</text>
<text text-anchor="middle" x="198" y="-56.5" font-family="Helvetica,sans-Serif" font-size="10.00">setInterrupt</text>
</a>
</g>
</g>
<!-- Node47&#45;&gt;Node54 -->
<g id="edge11" class="edge"><title>Node47&#45;&gt;Node54</title>
<path fill="none" stroke="midnightblue" d="M96.8607,-111.044C118.492,-100.99 144.49,-88.9063 164.574,-79.5713"/>
<polygon fill="midnightblue" stroke="midnightblue" points="95.1708,-107.969 87.5777,-115.358 98.1212,-114.317 95.1708,-107.969"/>
</g>
<!-- Node55 -->
<g id="node9" class="node"><title>Node55</title>
<g id="a_node9"><a xlink:href="../../df/d54/class_adafruit___t_c_s34725.html#ac17b2447df066e30d1e64fe764f88770" target="_top" xlink:title="Adafruit_TCS34725::\lsetIntLimits">
<polygon fill="white" stroke="black" points="144,-0.5 144,-30.5 252,-30.5 252,-0.5 144,-0.5"/>
<text text-anchor="start" x="152" y="-18.5" font-family="Helvetica,sans-Serif" font-size="10.00">Adafruit_TCS34725::</text>
<text text-anchor="middle" x="198" y="-7.5" font-family="Helvetica,sans-Serif" font-size="10.00">setIntLimits</text>
</a>
</g>
</g>
<!-- Node47&#45;&gt;Node55 -->
<g id="edge12" class="edge"><title>Node47&#45;&gt;Node55</title>
<path fill="none" stroke="midnightblue" d="M73.84,-107.318C90.6874,-87.6746 116.847,-59.7156 144,-40.5 149.149,-36.8563 154.912,-33.5111 160.691,-30.5336"/>
<polygon fill="midnightblue" stroke="midnightblue" points="70.9835,-105.277 67.2141,-115.178 76.3355,-109.788 70.9835,-105.277"/>
</g>
<!-- Node50 -->
<g id="node4" class="node"><title>Node50</title>
<g id="a_node4"><a xlink:href="../../df/d54/class_adafruit___t_c_s34725.html#a568d79b6382ac27010a8afc26cbdae79" target="_top" xlink:title="Adafruit_TCS34725::\lbegin">
<polygon fill="white" stroke="black" points="288,-137.5 288,-167.5 396,-167.5 396,-137.5 288,-137.5"/>
<text text-anchor="start" x="296" y="-155.5" font-family="Helvetica,sans-Serif" font-size="10.00">Adafruit_TCS34725::</text>
<text text-anchor="middle" x="342" y="-144.5" font-family="Helvetica,sans-Serif" font-size="10.00">begin</text>
</a>
</g>
</g>
<!-- Node49&#45;&gt;Node50 -->
<g id="edge3" class="edge"><title>Node49&#45;&gt;Node50</title>
<path fill="none" stroke="midnightblue" d="M262.517,-152.5C270.996,-152.5 279.618,-152.5 287.894,-152.5"/>
<polygon fill="midnightblue" stroke="midnightblue" points="262.28,-149 252.28,-152.5 262.28,-156 262.28,-149"/>
</g>
<!-- Node51 -->
<g id="node5" class="node"><title>Node51</title>
<g id="a_node5"><a xlink:href="../../df/d54/class_adafruit___t_c_s34725.html#abd9946a9baab1e0c76248cfe1864ea27" target="_top" xlink:title="Reads the raw red, green, blue and clear channel values. ">
<polygon fill="white" stroke="black" points="432,-137.5 432,-167.5 540,-167.5 540,-137.5 432,-137.5"/>
<text text-anchor="start" x="440" y="-155.5" font-family="Helvetica,sans-Serif" font-size="10.00">Adafruit_TCS34725::</text>
<text text-anchor="middle" x="486" y="-144.5" font-family="Helvetica,sans-Serif" font-size="10.00">getRawData</text>
</a>
</g>
</g>
<!-- Node50&#45;&gt;Node51 -->
<g id="edge4" class="edge"><title>Node50&#45;&gt;Node51</title>
<path fill="none" stroke="midnightblue" d="M406.517,-152.5C414.996,-152.5 423.618,-152.5 431.894,-152.5"/>
<polygon fill="midnightblue" stroke="midnightblue" points="406.28,-149 396.28,-152.5 406.28,-156 406.28,-149"/>
</g>
<!-- Node50&#45;&gt;Node52 -->
<g id="edge5" class="edge"><title>Node50&#45;&gt;Node52</title>
<path fill="none" stroke="midnightblue" d="M406.147,-167.577C424.088,-173.599 442.705,-180.435 457.342,-186.479"/>
<polygon fill="midnightblue" stroke="midnightblue" points="406.873,-164.131 396.28,-164.326 404.682,-170.779 406.873,-164.131"/>
</g>
<!-- Node50&#45;&gt;Node53 -->
<g id="edge7" class="edge"><title>Node50&#45;&gt;Node53</title>
<path fill="none" stroke="midnightblue" d="M380.119,-133.677C395.888,-127.495 414.57,-120.867 431.765,-115.311"/>
<polygon fill="midnightblue" stroke="midnightblue" points="378.69,-130.479 370.716,-137.455 381.3,-136.974 378.69,-130.479"/>
</g>
<!-- Node52&#45;&gt;Node50 -->
<g id="edge6" class="edge"><title>Node52&#45;&gt;Node50</title>
<path fill="none" stroke="midnightblue" d="M421.903,-186.44C403.971,-180.422 385.358,-173.588 370.716,-167.545"/>
<polygon fill="midnightblue" stroke="midnightblue" points="421.172,-189.884 431.765,-189.689 423.363,-183.236 421.172,-189.884"/>
</g>
<!-- Node53&#45;&gt;Node50 -->
<g id="edge8" class="edge"><title>Node53&#45;&gt;Node50</title>
<path fill="none" stroke="midnightblue" d="M447.941,-122.3C432.173,-128.483 413.485,-135.114 396.28,-140.674"/>
<polygon fill="midnightblue" stroke="midnightblue" points="449.369,-125.498 457.342,-118.521 446.758,-119.003 449.369,-125.498"/>
</g>
</g>
</svg>
        <g id="navigator" transform="translate(0 0)" fill="#404254">
                <rect fill="#f2f5e9" fill-opacity="0.5" stroke="#606060" stroke-width=".5" x="0" y="0" width="60" height="60"/>
                <use id="zoomplus" xlink:href="#zoomPlus" x="17" y="9" onmousedown="handleZoom(evt,'in')"/>
                <use id="zoomminus" xlink:href="#zoomMin" x="42" y="9" onmousedown="handleZoom(evt,'out')"/>
                <use id="reset" xlink:href="#resetDef" x="30" y="36" onmousedown="handleReset()"/>
                <g id="arrowUp" xlink:href="#dirArrow" transform="translate(30 24)" onmousedown="handlePan(0,-1)">
                  <use xlink:href="#rim" fill="#404040">
                        <set attributeName="fill" to="#808080" begin="arrowUp.mouseover" end="arrowUp.mouseout"/>
                  </use>
                  <path fill="none" stroke="white" stroke-width="1.5" d="M0,-3.0v7 M-2.5,-0.5L0,-3.0L2.5,-0.5"/>
                </g>
                <g id="arrowRight" xlink:href="#dirArrow" transform="rotate(90) translate(36 -43)" onmousedown="handlePan(1,0)">
                  <use xlink:href="#rim" fill="#404040">
                        <set attributeName="fill" to="#808080" begin="arrowRight.mouseover" end="arrowRight.mouseout"/>
                  </use>
                  <path fill="none" stroke="white" stroke-width="1.5" d="M0,-3.0v7 M-2.5,-0.5L0,-3.0L2.5,-0.5"/>
                </g>
                <g id="arrowDown" xlink:href="#dirArrow" transform="rotate(180) translate(-30 -48)" onmousedown="handlePan(0,1)">
                  <use xlink:href="#rim" fill="#404040">
                        <set attributeName="fill" to="#808080" begin="arrowDown.mouseover" end="arrowDown.mouseout"/>
                  </use>
                  <path fill="none" stroke="white" stroke-width="1.5" d="M0,-3.0v7 M-2.5,-0.5L0,-3.0L2.5,-0.5"/>
                </g>
                <g id="arrowLeft" xlink:href="#dirArrow" transform="rotate(270) translate(-36 17)" onmousedown="handlePan(-1,0)">
                  <use xlink:href="#rim" fill="#404040">
                        <set attributeName="fill" to="#808080" begin="arrowLeft.mouseover" end="arrowLeft.mouseout"/>
                  </use>
                  <path fill="none" stroke="white" stroke-width="1.5" d="M0,-3.0v7 M-2.5,-0.5L0,-3.0L2.5,-0.5"/>
                </g>
        </g>
        <svg viewBox="0 0 15 15" width="100%" height="30px" preserveAspectRatio="xMaxYMin meet">
         <g id="arrow_out" transform="scale(0.3 0.3)">
          <a xlink:href="class_adafruit___t_c_s34725_aa526557ad0d76b3b6e31e6197de583e6_icgraph_org.svg" target="_base">
           <rect id="button" ry="5" rx="5" y="6" x="6" height="38" width="38"
                fill="#f2f5e9" fill-opacity="0.5" stroke="#606060" stroke-width="1.0"/>
           <path id="arrow"
             d="M 11.500037,31.436501 C 11.940474,20.09759 22.043105,11.32322 32.158766,21.979434 L 37.068811,17.246167 C 37.068811,17.246167 37.088388,32 37.088388,32 L 22.160133,31.978069 C 22.160133,31.978069 26.997745,27.140456 26.997745,27.140456 C 18.528582,18.264221 13.291696,25.230495 11.500037,31.436501 z"
             style="fill:#404040;"/>
          </a>
         </g>
        </svg>
</svg>
