<?xml version="1.0" encoding="UTF-8" standalone="no"?>
<!DOCTYPE svg PUBLIC "-//W3C//DTD SVG 1.1//EN"
 "http://www.w3.org/Graphics/SVG/1.1/DTD/svg11.dtd">
<!-- Generated by graphviz version 2.38.0 (20140413.2041)
 -->
<!-- Title: Adafruit_TCS34725::begin Pages: 1 -->
<svg width="404pt" height="186pt"
 viewBox="0.00 0.00 404.00 186.00" xmlns="http://www.w3.org/2000/svg" xmlns:xlink="http://www.w3.org/1999/xlink">
<g id="graph0" class="graph" transform="scale(1 1) rotate(0) translate(4 182)">
<title>Adafruit_TCS34725::begin</title>
<polygon fill="white" stroke="none" points="-4,4 -4,-182 400,-182 400,4 -4,4"/>
<!-- Node2 -->
<g id="node1" class="node"><title>Node2</title>
<polygon fill="#bfbfbf" stroke="black" points="0,-49.5 0,-79.5 108,-79.5 108,-49.5 0,-49.5"/>
<text text-anchor="start" x="8" y="-67.5" font-family="Helvetica,sans-Serif" font-size="10.00">Adafruit_TCS34725::</text>
<text text-anchor="middle" x="54" y="-56.5" font-family="Helvetica,sans-Serif" font-size="10.00">begin</text>
</g>
<!-- Node3 -->
<g id="node2" class="node"><title>Node3</title>
<g id="a_node2"><a xlink:href="../../df/d54/class_adafruit___t_c_s34725.html#ad9a0e1f4f77d32dc0a6d604f7d1d5586" target="_top" xlink:title="Adafruit_TCS34725::\lenable">
<polygon fill="white" stroke="black" points="144,-147.5 144,-177.5 252,-177.5 252,-147.5 144,-147.5"/>
<text text-anchor="start" x="152" y="-165.5" font-family="Helvetica,sans-Serif" font-size="10.00">Adafruit_TCS34725::</text>
<text text-anchor="middle" x="198" y="-154.5" font-family="Helvetica,sans-Serif" font-size="10.00">enable</text>
</a>
</g>
</g>
<!-- Node2&#45;&gt;Node3 -->
<g id="edge1" class="edge"><title>Node2&#45;&gt;Node3</title>
<path fill="none" stroke="midnightblue" d="M70.3994,-79.526C87.3984,-95.56 116.068,-121.011 144,-138.5 146.408,-140.008 148.926,-141.474 151.502,-142.889"/>
<polygon fill="midnightblue" stroke="midnightblue" points="149.912,-146.007 160.402,-147.493 153.128,-139.79 149.912,-146.007"/>
</g>
<!-- Node5 -->
<g id="node4" class="node"><title>Node5</title>
<g id="a_node4"><a xlink:href="../../df/d54/class_adafruit___t_c_s34725.html#a3ffafbdd475d6baf9abda8dd067b5319" target="_top" xlink:title="Reads an 8 bit value over I2C. ">
<polygon fill="white" stroke="black" points="144,-98.5 144,-128.5 252,-128.5 252,-98.5 144,-98.5"/>
<text text-anchor="start" x="152" y="-116.5" font-family="Helvetica,sans-Serif" font-size="10.00">Adafruit_TCS34725::</text>
<text text-anchor="middle" x="198" y="-105.5" font-family="Helvetica,sans-Serif" font-size="10.00">read8</text>
</a>
</g>
</g>
<!-- Node2&#45;&gt;Node5 -->
<g id="edge3" class="edge"><title>Node2&#45;&gt;Node5</title>
<path fill="none" stroke="midnightblue" d="M98.7634,-79.6014C112.935,-84.4917 128.813,-89.9707 143.603,-95.0744"/>
<polygon fill="midnightblue" stroke="midnightblue" points="142.542,-98.4106 153.137,-98.3641 144.825,-91.7935 142.542,-98.4106"/>
</g>
<!-- Node6 -->
<g id="node5" class="node"><title>Node6</title>
<g id="a_node5"><a xlink:href="../../df/d54/class_adafruit___t_c_s34725.html#a6be06315a9d33f76e44550f574f023a5" target="_top" xlink:title="Adafruit_TCS34725::\lsetGain">
<polygon fill="white" stroke="black" points="144,-49.5 144,-79.5 252,-79.5 252,-49.5 144,-49.5"/>
<text text-anchor="start" x="152" y="-67.5" font-family="Helvetica,sans-Serif" font-size="10.00">Adafruit_TCS34725::</text>
<text text-anchor="middle" x="198" y="-56.5" font-family="Helvetica,sans-Serif" font-size="10.00">setGain</text>
</a>
</g>
</g>
<!-- Node2&#45;&gt;Node6 -->
<g id="edge4" class="edge"><title>Node2&#45;&gt;Node6</title>
<path fill="none" stroke="midnightblue" d="M108.28,-57.9404C116.56,-57.759 125.184,-57.7072 133.661,-57.785"/>
<polygon fill="midnightblue" stroke="midnightblue" points="133.841,-61.2882 143.894,-57.9443 133.95,-54.289 133.841,-61.2882"/>
</g>
<!-- Node7 -->
<g id="node6" class="node"><title>Node7</title>
<g id="a_node6"><a xlink:href="../../df/d54/class_adafruit___t_c_s34725.html#a3c89fe5d4eea1f24f31d1afa9de8f0f3" target="_top" xlink:title="Adafruit_TCS34725::\lsetIntegrationTime">
<polygon fill="white" stroke="black" points="144,-0.5 144,-30.5 252,-30.5 252,-0.5 144,-0.5"/>
<text text-anchor="start" x="152" y="-18.5" font-family="Helvetica,sans-Serif" font-size="10.00">Adafruit_TCS34725::</text>
<text text-anchor="middle" x="198" y="-7.5" font-family="Helvetica,sans-Serif" font-size="10.00">setIntegrationTime</text>
</a>
</g>
</g>
<!-- Node2&#45;&gt;Node7 -->
<g id="edge7" class="edge"><title>Node2&#45;&gt;Node7</title>
<path fill="none" stroke="midnightblue" d="M82.7161,-49.455C97.3578,-43.4115 115.971,-36.5782 133.903,-30.5603"/>
<polygon fill="midnightblue" stroke="midnightblue" points="135.363,-33.7644 143.765,-27.3111 133.172,-27.1159 135.363,-33.7644"/>
</g>
<!-- Node4 -->
<g id="node3" class="node"><title>Node4</title>
<g id="a_node3"><a xlink:href="../../df/d54/class_adafruit___t_c_s34725.html#aa526557ad0d76b3b6e31e6197de583e6" target="_top" xlink:title="Writes a register and an 8 bit value over I2C. ">
<polygon fill="white" stroke="black" points="288,-49.5 288,-79.5 396,-79.5 396,-49.5 288,-49.5"/>
<text text-anchor="start" x="296" y="-67.5" font-family="Helvetica,sans-Serif" font-size="10.00">Adafruit_TCS34725::</text>
<text text-anchor="middle" x="342" y="-56.5" font-family="Helvetica,sans-Serif" font-size="10.00">write8</text>
</a>
</g>
</g>
<!-- Node3&#45;&gt;Node4 -->
<g id="edge2" class="edge"><title>Node3&#45;&gt;Node4</title>
<path fill="none" stroke="midnightblue" d="M235.598,-147.493C241.223,-144.743 246.863,-141.716 252,-138.5 276.222,-123.334 300.999,-102.18 318.239,-86.3722"/>
<polygon fill="midnightblue" stroke="midnightblue" points="320.661,-88.8991 325.601,-79.526 315.894,-83.7731 320.661,-88.8991"/>
</g>
<!-- Node6&#45;&gt;Node2 -->
<g id="edge5" class="edge"><title>Node6&#45;&gt;Node2</title>
<path fill="none" stroke="midnightblue" d="M143.894,-71.0557C135.618,-71.239 126.996,-71.2926 118.517,-71.2166"/>
<polygon fill="midnightblue" stroke="midnightblue" points="118.332,-67.7134 108.28,-71.0596 118.225,-74.7126 118.332,-67.7134"/>
</g>
<!-- Node6&#45;&gt;Node4 -->
<g id="edge6" class="edge"><title>Node6&#45;&gt;Node4</title>
<path fill="none" stroke="midnightblue" d="M252.28,-64.5C260.56,-64.5 269.184,-64.5 277.661,-64.5"/>
<polygon fill="midnightblue" stroke="midnightblue" points="277.894,-68.0001 287.894,-64.5 277.894,-61.0001 277.894,-68.0001"/>
</g>
<!-- Node7&#45;&gt;Node2 -->
<g id="edge8" class="edge"><title>Node7&#45;&gt;Node2</title>
<path fill="none" stroke="midnightblue" d="M169.342,-30.521C154.705,-36.5648 136.088,-43.4012 118.147,-49.4229"/>
<polygon fill="midnightblue" stroke="midnightblue" points="116.682,-46.2206 108.28,-52.6744 118.873,-52.869 116.682,-46.2206"/>
</g>
<!-- Node7&#45;&gt;Node4 -->
<g id="edge9" class="edge"><title>Node7&#45;&gt;Node4</title>
<path fill="none" stroke="midnightblue" d="M242.763,-30.6014C256.935,-35.4917 272.813,-40.9707 287.603,-46.0744"/>
<polygon fill="midnightblue" stroke="midnightblue" points="286.542,-49.4106 297.137,-49.3641 288.825,-42.7935 286.542,-49.4106"/>
</g>
</g>
</svg>
