<svg xmlns:ev="http://www.w3.org/2001/xml-events" width="1132" xmlns="http://www.w3.org/2000/svg" xmlns:xlink="http://www.w3.org/1999/xlink" height="804" viewBox="0 0 1132 804"><style type="text/css"><![CDATA[
.st1 {fill:#ffffff;font-family:Arial;font-size:10pt}
.st2 {fill:#ffffff;font-family:Arial;font-size:14pt;font-weight:bold}
]]></style><defs><linearGradient y1="0%" x2="0%" x1="0%" y2="100%" id="lg1"><stop offset="0" stop-color="#83b3e3"/><stop offset="0.65" stop-color="#3498db"/><stop offset="1" stop-color="#2e89c6"/></linearGradient><linearGradient y1="0%" x2="0%" x1="0%" y2="100%" id="lg2"><stop offset="0" stop-color="#c77c7e"/><stop offset="0.65" stop-color="#b60717"/><stop offset="1" stop-color="#a50614"/></linearGradient><linearGradient y1="0%" x2="0%" x1="0%" y2="100%" id="lg3"><stop offset="0" stop-color="#7eb186"/><stop offset="0.65" stop-color="#1d953f"/><stop offset="1" stop-color="#198738"/></linearGradient><linearGradient y1="0%" x2="0%" x1="0%" y2="100%" id="lg4"><stop offset="0" stop-color="#f3a67c"/><stop offset="0.65" stop-color="#f08300"/><stop offset="1" stop-color="#d97600"/></linearGradient><linearGradient y1="0%" x2="0%" x1="0%" y2="100%" id="lg5"><stop offset="0" stop-color="#edf0f7"/><stop offset="1" stop-color="#a6bed0"/></linearGradient><linearGradient y1="0%" x2="0%" x1="0%" y2="100%" id="lg6"><stop offset="0" stop-color="#2ca9e0"/><stop offset="1" stop-color="#2ca9e0"/></linearGradient></defs><g transform="translate(5,5)" id="page1"><rect width="1123" x="0" y="0" height="794" fill="#ffffff" stroke="#808080"/><path d="M12,0L380,0C386.6,0,392,5.4,392,12L392,123.3C392,129.9,386.6,135.3,380,135.3L12,135.3C5.4,135.3,0,129.9,0,123.3L0,12C0,5.4,5.4,0,12,0z" fill="url(#lg1)" stroke="#2da2bf" transform="translate(293,331)" id="shape1"/><g transform="translate(293,406)" id="shape2"><path d="M30.1,60.2L166.5,60.2C183.1,60.2,196.6,46.8,196.6,30.1C196.6,13.5,183.1,0,166.5,0L30.1,0C13.5,0,0,13.5,0,30.1C0,46.8,13.5,60.2,30.1,60.2z" fill="url(#lg2)" stroke="#1bbc9d"/><text class="st1"><tspan x="60.3" y="26.1">HARDWARE</tspan><tspan x="77.3" y="41.1">TASKS</tspan></text></g><g transform="translate(488.39,406)" id="shape3"><path d="M30.1,60.3L166.5,60.3C183.1,60.3,196.6,46.8,196.6,30.1C196.6,13.5,183.1,0,166.5,0L30.1,0C13.5,0,0,13.5,0,30.1C0,46.8,13.5,60.3,30.1,60.3z" fill="url(#lg3)" stroke="#1bbc9d"/><text class="st1"><tspan x="61.3" y="26.1">SOFTWARE</tspan><tspan x="77.3" y="41.1">TASKS</tspan></text></g><g transform="translate(293,335)" id="shape4"><path d="M35.5,71L356.5,71C376.1,71,392,55.1,392,35.5C392,15.9,376.1,0,356.5,0L35.5,0C15.9,0,0,15.9,0,35.5C0,55.1,15.9,71,35.5,71z" fill="url(#lg4)" stroke="#1bbc9d"/><text class="st2"><tspan x="180" y="41.5">API</tspan></text></g><g transform="translate(331,208)" id="shape5"><path d="M6.8,0L107.3,0C111.1,0,114.2,3.1,114.2,6.8L114.2,31.2C114.2,34.9,111.1,38,107.3,38L6.8,38C3.1,38,0,34.9,0,31.2L0,6.8C0,3.1,3.1,0,6.8,0z" fill="url(#lg1)" stroke="#2da2bf"/><text class="st1"><tspan x="4.07566 8.07566 12.0757 16.0757 25.0757 34.0757 43.0757 52.0757 59.0757 69.0757 78.0757 87.0757 " y="25">   DEVELOPER</tspan></text></g><path d="M12,0L95.7,0C102.3,0,107.7,5.4,107.7,12L107.7,64C107.7,70.6,102.3,76,95.7,76L12,76C5.4,76,0,70.6,0,64L0,12C0,5.4,5.4,0,12,0z" fill="url(#lg5)" stroke="#2da2bf" transform="translate(507.41,170)" id="shape6"/><g transform="translate(507.11,208)" id="shape7"><path d="M19,38L89,38C99.5,38,108,29.5,108,19C108,8.5,99.5,0,89,0L19,0C8.5,0,0,8.5,0,19C0,29.5,8.5,38,19,38z" fill="url(#lg1)" stroke="#1bbc9d"/><text class="st1"><tspan x="39" y="22.5">AWS</tspan></text></g><g transform="translate(506,170)" id="shape8"><path d="M19,38L90.1,38C100.6,38,109.1,29.5,109.1,19C109.1,8.5,100.6,0,90.1,0L19,0C8.5,0,0,8.5,0,19C0,29.5,8.5,38,19,38z" fill="url(#lg1)" stroke="#1bbc9d"/><text class="st1"><tspan x="36.1" y="22.5">USER</tspan></text></g><path d="M7,68L7,12L0,12L14,0L28,12L21,12L21,68L28,68L14,80L0,68L7,68z" fill="url(#lg6)" stroke="#2ca9e0" transform="translate(359,246)" id="shape9"/><path d="M7,68L7,12L0,12L14,0L28,12L21,12L21,68L28,68L14,80L0,68L7,68z" fill="url(#lg1)" stroke="#3498db" transform="translate(546.55,246)" id="shape10"/></g></svg>