<?xml version="1.0" encoding="UTF-8" standalone="no"?>
<!DOCTYPE svg PUBLIC "-//W3C//DTD SVG 1.1//EN"
 "http://www.w3.org/Graphics/SVG/1.1/DTD/svg11.dtd">
<!-- Generated by graphviz version 2.38.0 (20140413.2041)
 -->
<!-- Title: ExternalSensor&lt; Adafruit_ADS1015 &gt; Pages: 1 -->
<svg width="310pt" height="325pt"
 viewBox="0.00 0.00 309.50 325.00" xmlns="http://www.w3.org/2000/svg" xmlns:xlink="http://www.w3.org/1999/xlink">
<g id="graph0" class="graph" transform="scale(1 1) rotate(0) translate(4 321)">
<title>ExternalSensor&lt; Adafruit_ADS1015 &gt;</title>
<polygon fill="white" stroke="none" points="-4,4 -4,-321 305.5,-321 305.5,4 -4,4"/>
<!-- Node2 -->
<g id="node1" class="node"><title>Node2</title>
<polygon fill="#bfbfbf" stroke="black" points="77.5,-0.5 77.5,-90.5 203.5,-90.5 203.5,-0.5 77.5,-0.5"/>
<text text-anchor="start" x="85.5" y="-78.5" font-family="Helvetica,sans-Serif" font-size="10.00">ExternalSensor&lt; Adafruit</text>
<text text-anchor="middle" x="140.5" y="-67.5" font-family="Helvetica,sans-Serif" font-size="10.00">_ADS1015 &gt;</text>
<polyline fill="none" stroke="black" points="77.5,-60.5 203.5,-60.5 "/>
<text text-anchor="middle" x="140.5" y="-48.5" font-family="Helvetica,sans-Serif" font-size="10.00"> </text>
<polyline fill="none" stroke="black" points="77.5,-41.5 203.5,-41.5 "/>
<text text-anchor="start" x="85.5" y="-29.5" font-family="Helvetica,sans-Serif" font-size="10.00">+ ExternalSensor()</text>
<text text-anchor="start" x="85.5" y="-18.5" font-family="Helvetica,sans-Serif" font-size="10.00">+ begin()</text>
<text text-anchor="start" x="85.5" y="-7.5" font-family="Helvetica,sans-Serif" font-size="10.00">+ read()</text>
</g>
<!-- Node3 -->
<g id="node2" class="node"><title>Node3</title>
<g id="a_node2"><a xlink:href="$d1/d68/class_base_external_sensor.html" xlink:title="This class is a generic external Sensor it is a way to access real external sensor methods through ru...">
<polygon fill="white" stroke="black" points="0,-182.5 0,-272.5 121,-272.5 121,-182.5 0,-182.5"/>
<text text-anchor="middle" x="60.5" y="-260.5" font-family="Helvetica,sans-Serif" font-size="10.00">BaseExternalSensor</text>
<polyline fill="none" stroke="black" points="0,-253.5 121,-253.5 "/>
<text text-anchor="middle" x="60.5" y="-241.5" font-family="Helvetica,sans-Serif" font-size="10.00"> </text>
<polyline fill="none" stroke="black" points="0,-234.5 121,-234.5 "/>
<text text-anchor="start" x="8" y="-222.5" font-family="Helvetica,sans-Serif" font-size="10.00">+ BaseExternalSensor()</text>
<text text-anchor="start" x="8" y="-211.5" font-family="Helvetica,sans-Serif" font-size="10.00">+ begin()</text>
<text text-anchor="start" x="8" y="-200.5" font-family="Helvetica,sans-Serif" font-size="10.00">+ read()</text>
<text text-anchor="start" x="8" y="-189.5" font-family="Helvetica,sans-Serif" font-size="10.00">+ read()</text>
</a>
</g>
</g>
<!-- Node3&#45;&gt;Node2 -->
<g id="edge1" class="edge"><title>Node3&#45;&gt;Node2</title>
<path fill="none" stroke="midnightblue" d="M84.2571,-173.047C95.9193,-146.807 109.801,-115.574 120.855,-90.7022"/>
<polygon fill="none" stroke="midnightblue" points="80.9333,-171.907 80.0702,-182.467 87.33,-174.75 80.9333,-171.907"/>
</g>
<!-- Node4 -->
<g id="node3" class="node"><title>Node4</title>
<g id="a_node3"><a xlink:href="$df/df6/class_adafruit___a_d_s1015.html" xlink:title="{Adafruit_ADS1015\n|# m_i2cAddress\l# m_conversionDelay\l# m_bitShift\l# m_gain\l|+ Adafruit_ADS1015()\l+ begin()\l+ readADC_SingleEnded()\l+ readADC_Differential_0_1()\l+ readADC_Differential_2_3()\l+ startComparator_SingleEnded()\l+ getLastConversionResults()\l+ setGain()\l+ getGain()\l}">
<polygon fill="white" stroke="black" points="139.5,-138.5 139.5,-316.5 301.5,-316.5 301.5,-138.5 139.5,-138.5"/>
<text text-anchor="middle" x="220.5" y="-304.5" font-family="Helvetica,sans-Serif" font-size="10.00">Adafruit_ADS1015</text>
<polyline fill="none" stroke="black" points="139.5,-297.5 301.5,-297.5 "/>
<text text-anchor="start" x="147.5" y="-285.5" font-family="Helvetica,sans-Serif" font-size="10.00"># m_i2cAddress</text>
<text text-anchor="start" x="147.5" y="-274.5" font-family="Helvetica,sans-Serif" font-size="10.00"># m_conversionDelay</text>
<text text-anchor="start" x="147.5" y="-263.5" font-family="Helvetica,sans-Serif" font-size="10.00"># m_bitShift</text>
<text text-anchor="start" x="147.5" y="-252.5" font-family="Helvetica,sans-Serif" font-size="10.00"># m_gain</text>
<polyline fill="none" stroke="black" points="139.5,-245.5 301.5,-245.5 "/>
<text text-anchor="start" x="147.5" y="-233.5" font-family="Helvetica,sans-Serif" font-size="10.00">+ Adafruit_ADS1015()</text>
<text text-anchor="start" x="147.5" y="-222.5" font-family="Helvetica,sans-Serif" font-size="10.00">+ begin()</text>
<text text-anchor="start" x="147.5" y="-211.5" font-family="Helvetica,sans-Serif" font-size="10.00">+ readADC_SingleEnded()</text>
<text text-anchor="start" x="147.5" y="-200.5" font-family="Helvetica,sans-Serif" font-size="10.00">+ readADC_Differential_0_1()</text>
<text text-anchor="start" x="147.5" y="-189.5" font-family="Helvetica,sans-Serif" font-size="10.00">+ readADC_Differential_2_3()</text>
<text text-anchor="start" x="147.5" y="-178.5" font-family="Helvetica,sans-Serif" font-size="10.00">+ startComparator_SingleEnded()</text>
<text text-anchor="start" x="147.5" y="-167.5" font-family="Helvetica,sans-Serif" font-size="10.00">+ getLastConversionResults()</text>
<text text-anchor="start" x="147.5" y="-156.5" font-family="Helvetica,sans-Serif" font-size="10.00">+ setGain()</text>
<text text-anchor="start" x="147.5" y="-145.5" font-family="Helvetica,sans-Serif" font-size="10.00">+ getGain()</text>
</a>
</g>
</g>
<!-- Node4&#45;&gt;Node2 -->
<g id="edge2" class="edge"><title>Node4&#45;&gt;Node2</title>
<path fill="none" stroke="#404040" d="M181.32,-138.346C175.798,-125.92 170.254,-113.447 165.111,-101.875"/>
<polygon fill="none" stroke="#404040" points="164.991,-101.604 158.899,-97.7457 160.117,-90.6383 166.209,-94.4966 164.991,-101.604"/>
<text text-anchor="middle" x="189.5" y="-112" font-family="Helvetica,sans-Serif" font-size="10.00"> &#45;sensor</text>
</g>
</g>
</svg>
