<?xml version="1.0" encoding="UTF-8" standalone="no"?>
<!DOCTYPE svg PUBLIC "-//W3C//DTD SVG 1.1//EN"
 "http://www.w3.org/Graphics/SVG/1.1/DTD/svg11.dtd">
<!-- Generated by graphviz version 2.38.0 (20140413.2041)
 -->
<!-- Title: ExternalSensors::begin Pages: 1 -->
<svg width="268pt" height="127pt"
 viewBox="0.00 0.00 268.00 127.00" xmlns="http://www.w3.org/2000/svg" xmlns:xlink="http://www.w3.org/1999/xlink">
<g id="graph0" class="graph" transform="scale(1 1) rotate(0) translate(4 123)">
<title>ExternalSensors::begin</title>
<polygon fill="white" stroke="none" points="-4,4 -4,-123 264,-123 264,4 -4,4"/>
<!-- Node0 -->
<g id="node1" class="node"><title>Node0</title>
<polygon fill="#bfbfbf" stroke="black" points="0,-50 0,-69 118,-69 118,-50 0,-50"/>
<text text-anchor="middle" x="59" y="-57" font-family="Helvetica,sans-Serif" font-size="10.00">ExternalSensors::begin</text>
</g>
<!-- Node1 -->
<g id="node2" class="node"><title>Node1</title>
<g id="a_node2"><a xlink:href="../../d1/d68/class_base_external_sensor.html#a87d132803d4f4fdd4e66332809f0c9a0" target="_top" xlink:title="BaseExternalSensor\l::begin">
<polygon fill="white" stroke="black" points="154,-88.5 154,-118.5 260,-118.5 260,-88.5 154,-88.5"/>
<text text-anchor="start" x="162" y="-106.5" font-family="Helvetica,sans-Serif" font-size="10.00">BaseExternalSensor</text>
<text text-anchor="middle" x="207" y="-95.5" font-family="Helvetica,sans-Serif" font-size="10.00">::begin</text>
</a>
</g>
</g>
<!-- Node0&#45;&gt;Node1 -->
<g id="edge1" class="edge"><title>Node0&#45;&gt;Node1</title>
<path fill="none" stroke="midnightblue" d="M91.6798,-69.0473C107.677,-73.8685 127.623,-79.8794 146.353,-85.5243"/>
<polygon fill="midnightblue" stroke="midnightblue" points="145.426,-88.9002 156.01,-88.4346 147.446,-82.1979 145.426,-88.9002"/>
</g>
<!-- Node2 -->
<g id="node3" class="node"><title>Node2</title>
<g id="a_node3"><a xlink:href="../../d9/d09/_external_sensors_8cpp.html#af39fa3dad1ba161b384c0b26b8145e65" target="_top" xlink:title="oneWire">
<polygon fill="white" stroke="black" points="180.5,-50 180.5,-69 233.5,-69 233.5,-50 180.5,-50"/>
<text text-anchor="middle" x="207" y="-57" font-family="Helvetica,sans-Serif" font-size="10.00">oneWire</text>
</a>
</g>
</g>
<!-- Node0&#45;&gt;Node2 -->
<g id="edge2" class="edge"><title>Node0&#45;&gt;Node2</title>
<path fill="none" stroke="midnightblue" d="M118.123,-59.5C135.697,-59.5 154.472,-59.5 170.138,-59.5"/>
<polygon fill="midnightblue" stroke="midnightblue" points="170.433,-63.0001 180.433,-59.5 170.433,-56.0001 170.433,-63.0001"/>
</g>
<!-- Node3 -->
<g id="node4" class="node"><title>Node3</title>
<g id="a_node4"><a xlink:href="../../d1/d68/class_base_external_sensor.html#a1564f16deacf57b51b9948ac29db4291" target="_top" xlink:title="BaseExternalSensor\l::read">
<polygon fill="white" stroke="black" points="154,-0.5 154,-30.5 260,-30.5 260,-0.5 154,-0.5"/>
<text text-anchor="start" x="162" y="-18.5" font-family="Helvetica,sans-Serif" font-size="10.00">BaseExternalSensor</text>
<text text-anchor="middle" x="207" y="-7.5" font-family="Helvetica,sans-Serif" font-size="10.00">::read</text>
</a>
</g>
</g>
<!-- Node0&#45;&gt;Node3 -->
<g id="edge3" class="edge"><title>Node0&#45;&gt;Node3</title>
<path fill="none" stroke="midnightblue" d="M91.6798,-49.9527C107.677,-45.1315 127.623,-39.1206 146.353,-33.4757"/>
<polygon fill="midnightblue" stroke="midnightblue" points="147.446,-36.8021 156.01,-30.5654 145.426,-30.0998 147.446,-36.8021"/>
</g>
</g>
</svg>
