<?xml version="1.0" encoding="UTF-8" standalone="no"?>
<!DOCTYPE svg PUBLIC "-//W3C//DTD SVG 1.1//EN"
 "http://www.w3.org/Graphics/SVG/1.1/DTD/svg11.dtd">
<!-- Generated by graphviz version 2.38.0 (20140413.2041)
 -->
<!-- Title: Irene3000.cpp Pages: 1 -->
<svg width="354pt" height="207pt"
 viewBox="0.00 0.00 354.00 207.00" xmlns="http://www.w3.org/2000/svg" xmlns:xlink="http://www.w3.org/1999/xlink">
<g id="graph0" class="graph" transform="scale(1 1) rotate(0) translate(4 203)">
<title>Irene3000.cpp</title>
<polygon fill="white" stroke="none" points="-4,4 -4,-203 350,-203 350,4 -4,4"/>
<!-- Node0 -->
<g id="node1" class="node"><title>Node0</title>
<polygon fill="#bfbfbf" stroke="black" points="95,-179.5 95,-198.5 173,-198.5 173,-179.5 95,-179.5"/>
<text text-anchor="middle" x="134" y="-186.5" font-family="Helvetica,sans-Serif" font-size="10.00">Irene3000.cpp</text>
</g>
<!-- Node1 -->
<g id="node2" class="node"><title>Node1</title>
<polygon fill="white" stroke="#bfbfbf" points="0,-123.5 0,-142.5 38,-142.5 38,-123.5 0,-123.5"/>
<text text-anchor="middle" x="19" y="-130.5" font-family="Helvetica,sans-Serif" font-size="10.00">FS.h</text>
</g>
<!-- Node0&#45;&gt;Node1 -->
<g id="edge1" class="edge"><title>Node0&#45;&gt;Node1</title>
<path fill="none" stroke="midnightblue" d="M115.778,-179.444C97.1043,-170.675 67.844,-156.935 46.3826,-146.858"/>
<polygon fill="midnightblue" stroke="midnightblue" points="47.6763,-143.599 37.1368,-142.516 44.7009,-149.935 47.6763,-143.599"/>
</g>
<!-- Node2 -->
<g id="node3" class="node"><title>Node2</title>
<polygon fill="white" stroke="#bfbfbf" points="179,-0.5 179,-19.5 237,-19.5 237,-0.5 179,-0.5"/>
<text text-anchor="middle" x="208" y="-7.5" font-family="Helvetica,sans-Serif" font-size="10.00">Arduino.h</text>
</g>
<!-- Node0&#45;&gt;Node2 -->
<g id="edge2" class="edge"><title>Node0&#45;&gt;Node2</title>
<path fill="none" stroke="midnightblue" d="M119.386,-179.39C101.572,-167.689 75.0041,-145.621 85,-123 104.908,-77.9487 152.878,-43.2166 182.687,-25.0485"/>
<polygon fill="midnightblue" stroke="midnightblue" points="184.841,-27.8413 191.668,-19.7398 181.279,-21.8153 184.841,-27.8413"/>
</g>
<!-- Node3 -->
<g id="node4" class="node"><title>Node3</title>
<polygon fill="white" stroke="#bfbfbf" points="94.5,-123.5 94.5,-142.5 173.5,-142.5 173.5,-123.5 94.5,-123.5"/>
<text text-anchor="middle" x="134" y="-130.5" font-family="Helvetica,sans-Serif" font-size="10.00">ArduinoJson.h</text>
</g>
<!-- Node0&#45;&gt;Node3 -->
<g id="edge3" class="edge"><title>Node0&#45;&gt;Node3</title>
<path fill="none" stroke="midnightblue" d="M134,-179.083C134,-172.006 134,-161.861 134,-152.986"/>
<polygon fill="midnightblue" stroke="midnightblue" points="137.5,-152.751 134,-142.751 130.5,-152.751 137.5,-152.751"/>
</g>
<!-- Node4 -->
<g id="node5" class="node"><title>Node4</title>
<polygon fill="white" stroke="#bfbfbf" points="191.5,-123.5 191.5,-142.5 238.5,-142.5 238.5,-123.5 191.5,-123.5"/>
<text text-anchor="middle" x="215" y="-130.5" font-family="Helvetica,sans-Serif" font-size="10.00">math.h</text>
</g>
<!-- Node0&#45;&gt;Node4 -->
<g id="edge4" class="edge"><title>Node0&#45;&gt;Node4</title>
<path fill="none" stroke="midnightblue" d="M147.014,-179.324C159.532,-170.979 178.682,-158.212 193.471,-148.352"/>
<polygon fill="midnightblue" stroke="midnightblue" points="195.639,-151.114 202.018,-142.655 191.756,-145.289 195.639,-151.114"/>
</g>
<!-- Node5 -->
<g id="node6" class="node"><title>Node5</title>
<g id="a_node6"><a xlink:href="$d7/d31/_irene3000_8h.html" xlink:title="Irene3000 Header file. ">
<polygon fill="white" stroke="black" points="257,-123.5 257,-142.5 325,-142.5 325,-123.5 257,-123.5"/>
<text text-anchor="middle" x="291" y="-130.5" font-family="Helvetica,sans-Serif" font-size="10.00">Irene3000.h</text>
</a>
</g>
</g>
<!-- Node0&#45;&gt;Node5 -->
<g id="edge5" class="edge"><title>Node0&#45;&gt;Node5</title>
<path fill="none" stroke="midnightblue" d="M158.877,-179.444C185.289,-170.359 227.215,-155.939 256.742,-145.783"/>
<polygon fill="midnightblue" stroke="midnightblue" points="257.921,-149.079 266.239,-142.516 255.645,-142.459 257.921,-149.079"/>
</g>
<!-- Node5&#45;&gt;Node2 -->
<g id="edge8" class="edge"><title>Node5&#45;&gt;Node2</title>
<path fill="none" stroke="midnightblue" d="M272.218,-123.426C257.724,-115.857 238.298,-103.463 227,-87 215.244,-69.8712 210.753,-46.1252 209.042,-29.757"/>
<polygon fill="midnightblue" stroke="midnightblue" points="212.53,-29.4663 208.247,-19.7758 205.552,-30.0222 212.53,-29.4663"/>
</g>
<!-- Node6 -->
<g id="node7" class="node"><title>Node6</title>
<g id="a_node7"><a xlink:href="$df/d06/_cool_adafruit___a_d_s1015_8h.html" xlink:title="internals/CoolAdafruit\l_ADS1015.h">
<polygon fill="white" stroke="black" points="236,-56.5 236,-86.5 346,-86.5 346,-56.5 236,-56.5"/>
<text text-anchor="start" x="244" y="-74.5" font-family="Helvetica,sans-Serif" font-size="10.00">internals/CoolAdafruit</text>
<text text-anchor="middle" x="291" y="-63.5" font-family="Helvetica,sans-Serif" font-size="10.00">_ADS1015.h</text>
</a>
</g>
</g>
<!-- Node5&#45;&gt;Node6 -->
<g id="edge6" class="edge"><title>Node5&#45;&gt;Node6</title>
<path fill="none" stroke="midnightblue" d="M291,-123.475C291,-116.471 291,-106.192 291,-96.6956"/>
<polygon fill="midnightblue" stroke="midnightblue" points="294.5,-96.5229 291,-86.523 287.5,-96.523 294.5,-96.5229"/>
</g>
<!-- Node6&#45;&gt;Node2 -->
<g id="edge7" class="edge"><title>Node6&#45;&gt;Node2</title>
<path fill="none" stroke="midnightblue" d="M271.33,-56.3993C258.399,-47.1293 241.514,-35.0254 228.432,-25.6469"/>
<polygon fill="midnightblue" stroke="midnightblue" points="230.244,-22.6395 220.077,-19.6578 226.165,-28.3287 230.244,-22.6395"/>
</g>
</g>
</svg>
