<?xml version="1.0" encoding="UTF-8" standalone="no"?>
<!DOCTYPE svg PUBLIC "-//W3C//DTD SVG 1.1//EN"
 "http://www.w3.org/Graphics/SVG/1.1/DTD/svg11.dtd">
<!-- Generated by graphviz version 2.38.0 (20140413.2041)
 -->
<!-- Title: WiFiManager::startConfigPortal Pages: 1 -->
<!--zoomable 653 -->
<svg id="main" version="1.1" xmlns="http://www.w3.org/2000/svg" xmlns:xlink="http://www.w3.org/1999/xlink" xml:space="preserve" onload="init(evt)">
<style type="text/css"><![CDATA[
.edge:hover path { stroke: red; }
.edge:hover polygon { stroke: red; fill: red; }
]]></style>
<script type="text/javascript"><![CDATA[
var edges = document.getElementsByTagName('g');
if (edges && edges.length) {
  for (var i=0;i<edges.length;i++) {
    if (edges[i].id.substr(0,4)=='edge') {
      edges[i].setAttribute('class','edge');
    }
  }
}
]]></script>
        <defs>
                <circle id="rim" cx="0" cy="0" r="7"/>
                <circle id="rim2" cx="0" cy="0" r="3.5"/>
                <g id="zoomPlus">
                        <use xlink:href="#rim" fill="#404040">
                                <set attributeName="fill" to="#808080" begin="zoomplus.mouseover" end="zoomplus.mouseout"/>
                        </use>
                        <path d="M-4,0h8M0,-4v8" fill="none" stroke="white" stroke-width="1.5" pointer-events="none"/>
                </g>
                <g id="zoomMin">
                        <use xlink:href="#rim" fill="#404040">
                                <set attributeName="fill" to="#808080" begin="zoomminus.mouseover" end="zoomminus.mouseout"/>
                        </use>
                        <path d="M-4,0h8" fill="none" stroke="white" stroke-width="1.5" pointer-events="none"/>
                </g>
                <g id="dirArrow">
                        <path fill="none" stroke="white" stroke-width="1.5" d="M0,-3.0v7 M-2.5,-0.5L0,-3.0L2.5,-0.5"/>
                </g>
               <g id="resetDef">
                       <use xlink:href="#rim2" fill="#404040">
                               <set attributeName="fill" to="#808080" begin="reset.mouseover" end="reset.mouseout"/>
                       </use>
               </g>
        </defs>

<script type="text/javascript">
var viewWidth = 864;
var viewHeight = 653;
var sectionId = 'dynsection-4';
</script>
<script xlink:href="../../svgpan.js"/>
<svg id="graph" class="graph">
<g id="viewport">
<title>WiFiManager::startConfigPortal</title>
<polygon fill="white" stroke="none" points="-4,4 -4,-649 860,-649 860,4 -4,4"/>
<!-- Node19 -->
<g id="node1" class="node"><title>Node19</title>
<polygon fill="#bfbfbf" stroke="black" points="0,-494 0,-524 128,-524 128,-494 0,-494"/>
<text text-anchor="start" x="8" y="-512" font-family="Helvetica,sans-Serif" font-size="10.00">WiFiManager::startConfig</text>
<text text-anchor="middle" x="64" y="-501" font-family="Helvetica,sans-Serif" font-size="10.00">Portal</text>
</g>
<!-- Node20 -->
<g id="node2" class="node"><title>Node20</title>
<g id="a_node2"><a xlink:href="../../d4/dc8/class_wi_fi_manager.html#ae0ae27b5543b47585728c084c3bbdca7" target="_top" xlink:title="WiFiManager::connectWifi">
<polygon fill="white" stroke="black" points="343,-565.5 343,-584.5 475,-584.5 475,-565.5 343,-565.5"/>
<text text-anchor="middle" x="409" y="-572.5" font-family="Helvetica,sans-Serif" font-size="10.00">WiFiManager::connectWifi</text>
</a>
</g>
</g>
<!-- Node19&#45;&gt;Node20 -->
<g id="edge1" class="edge"><title>Node19&#45;&gt;Node20</title>
<path fill="none" stroke="midnightblue" d="M128.311,-521.182C191.204,-533.284 286.908,-551.699 348.451,-563.542"/>
<polygon fill="midnightblue" stroke="midnightblue" points="347.919,-567.003 358.4,-565.456 349.242,-560.129 347.919,-567.003"/>
</g>
<!-- Node21 -->
<g id="node3" class="node"><title>Node21</title>
<g id="a_node3"><a xlink:href="../../d4/dc8/class_wi_fi_manager.html#ae5f595c670ccbcf9a191baf50f5c7c26" target="_top" xlink:title="WiFiManager::DEBUG_WM">
<polygon fill="white" stroke="black" points="716,-404.5 716,-423.5 856,-423.5 856,-404.5 716,-404.5"/>
<text text-anchor="middle" x="786" y="-411.5" font-family="Helvetica,sans-Serif" font-size="10.00">WiFiManager::DEBUG_WM</text>
</a>
</g>
</g>
<!-- Node19&#45;&gt;Node21 -->
<g id="edge7" class="edge"><title>Node19&#45;&gt;Node21</title>
<path fill="none" stroke="midnightblue" d="M128.225,-515.307C241.602,-524.51 485.787,-534.696 680,-476 712.304,-466.237 745.091,-444.592 765.233,-429.649"/>
<polygon fill="midnightblue" stroke="midnightblue" points="767.459,-432.353 773.302,-423.515 763.223,-426.78 767.459,-432.353"/>
</g>
<!-- Node24 -->
<g id="node6" class="node"><title>Node24</title>
<g id="a_node6"><a xlink:href="../../d4/dc8/class_wi_fi_manager.html#a1743325d0dd86d011df96b22d2a0ddd6" target="_top" xlink:title="WiFiManager::setupConfig\lPortal">
<polygon fill="white" stroke="black" points="164,-248 164,-278 297,-278 297,-248 164,-248"/>
<text text-anchor="start" x="172" y="-266" font-family="Helvetica,sans-Serif" font-size="10.00">WiFiManager::setupConfig</text>
<text text-anchor="middle" x="230.5" y="-255" font-family="Helvetica,sans-Serif" font-size="10.00">Portal</text>
</a>
</g>
</g>
<!-- Node19&#45;&gt;Node24 -->
<g id="edge8" class="edge"><title>Node19&#45;&gt;Node24</title>
<path fill="none" stroke="midnightblue" d="M75.0426,-493.982C102.689,-452.638 180.086,-336.895 213.646,-286.709"/>
<polygon fill="midnightblue" stroke="midnightblue" points="216.731,-288.392 219.38,-278.134 210.912,-284.501 216.731,-288.392"/>
</g>
<!-- Node20&#45;&gt;Node21 -->
<g id="edge2" class="edge"><title>Node20&#45;&gt;Node21</title>
<path fill="none" stroke="midnightblue" d="M441.087,-584.592C493.896,-598.969 602.892,-620.19 680,-578 736.981,-546.822 767.575,-470.071 779.294,-433.712"/>
<polygon fill="midnightblue" stroke="midnightblue" points="782.742,-434.407 782.333,-423.82 776.05,-432.351 782.742,-434.407"/>
</g>
<!-- Node22 -->
<g id="node4" class="node"><title>Node22</title>
<g id="a_node4"><a xlink:href="../../d4/dc8/class_wi_fi_manager.html#a89a3f33997aa662ad223d6c150c1eede" target="_top" xlink:title="WiFiManager::waitForConnect\lResult">
<polygon fill="white" stroke="black" points="526,-538 526,-568 675,-568 675,-538 526,-538"/>
<text text-anchor="start" x="534" y="-556" font-family="Helvetica,sans-Serif" font-size="10.00">WiFiManager::waitForConnect</text>
<text text-anchor="middle" x="600.5" y="-545" font-family="Helvetica,sans-Serif" font-size="10.00">Result</text>
</a>
</g>
</g>
<!-- Node20&#45;&gt;Node22 -->
<g id="edge3" class="edge"><title>Node20&#45;&gt;Node22</title>
<path fill="none" stroke="midnightblue" d="M475.215,-567.429C488.183,-565.923 501.971,-564.323 515.465,-562.756"/>
<polygon fill="midnightblue" stroke="midnightblue" points="516.179,-566.197 525.709,-561.567 515.372,-559.243 516.179,-566.197"/>
</g>
<!-- Node23 -->
<g id="node5" class="node"><title>Node23</title>
<g id="a_node5"><a xlink:href="../../d4/dc8/class_wi_fi_manager.html#abcc403fc26a47f7a111d1271f1d0869e" target="_top" xlink:title="WiFiManager::startWPS">
<polygon fill="white" stroke="black" points="539,-625.5 539,-644.5 662,-644.5 662,-625.5 539,-625.5"/>
<text text-anchor="middle" x="600.5" y="-632.5" font-family="Helvetica,sans-Serif" font-size="10.00">WiFiManager::startWPS</text>
</a>
</g>
</g>
<!-- Node20&#45;&gt;Node23 -->
<g id="edge5" class="edge"><title>Node20&#45;&gt;Node23</title>
<path fill="none" stroke="midnightblue" d="M439.17,-584.61C461.532,-591.94 493.175,-602.235 521,-611 533,-614.78 546.059,-618.807 558.019,-622.461"/>
<polygon fill="midnightblue" stroke="midnightblue" points="557.174,-625.863 567.76,-625.429 559.215,-619.167 557.174,-625.863"/>
</g>
<!-- Node22&#45;&gt;Node21 -->
<g id="edge4" class="edge"><title>Node22&#45;&gt;Node21</title>
<path fill="none" stroke="midnightblue" d="M650.875,-537.937C660.918,-533.842 671.118,-528.877 680,-523 718.666,-497.414 753.915,-455.313 772.087,-431.62"/>
<polygon fill="midnightblue" stroke="midnightblue" points="774.971,-433.608 778.187,-423.513 769.378,-429.4 774.971,-433.608"/>
</g>
<!-- Node23&#45;&gt;Node21 -->
<g id="edge6" class="edge"><title>Node23&#45;&gt;Node21</title>
<path fill="none" stroke="midnightblue" d="M653.406,-625.445C662.941,-622.01 672.299,-617.342 680,-611 738.521,-562.808 768.915,-473.245 779.997,-433.671"/>
<polygon fill="midnightblue" stroke="midnightblue" points="783.405,-434.476 782.619,-423.91 776.645,-432.66 783.405,-434.476"/>
</g>
<!-- Node24&#45;&gt;Node21 -->
<g id="edge9" class="edge"><title>Node24&#45;&gt;Node21</title>
<path fill="none" stroke="midnightblue" d="M237.546,-278.179C250.335,-308.231 283.116,-375.305 333,-409 461.776,-495.985 526.935,-478.846 680,-452 706.539,-447.345 735.212,-436.544 755.878,-427.642"/>
<polygon fill="midnightblue" stroke="midnightblue" points="757.321,-430.831 765.054,-423.588 754.492,-424.428 757.321,-430.831"/>
</g>
<!-- Node25 -->
<g id="node7" class="node"><title>Node25</title>
<g id="a_node7"><a xlink:href="../../d4/dc8/class_wi_fi_manager.html#a47e4c7df7478f690c53ff9f5125c9760" target="_top" xlink:title="WiFiManager::handleRoot">
<polygon fill="white" stroke="black" points="344,-57.5 344,-76.5 474,-76.5 474,-57.5 344,-57.5"/>
<text text-anchor="middle" x="409" y="-64.5" font-family="Helvetica,sans-Serif" font-size="10.00">WiFiManager::handleRoot</text>
</a>
</g>
</g>
<!-- Node24&#45;&gt;Node25 -->
<g id="edge10" class="edge"><title>Node24&#45;&gt;Node25</title>
<path fill="none" stroke="midnightblue" d="M238.005,-247.619C251.62,-216.977 285.811,-147.604 333,-105 344.159,-94.9249 358.48,-86.8057 371.612,-80.6994"/>
<polygon fill="midnightblue" stroke="midnightblue" points="373.159,-83.8424 380.901,-76.6097 370.338,-77.4358 373.159,-83.8424"/>
</g>
<!-- Node29 -->
<g id="node11" class="node"><title>Node29</title>
<g id="a_node11"><a xlink:href="../../d4/dc8/class_wi_fi_manager.html#a57a9048175c1918340ab9d0a2c53601f" target="_top" xlink:title="WiFiManager::handleWifi">
<polygon fill="white" stroke="black" points="346,-253.5 346,-272.5 472,-272.5 472,-253.5 346,-253.5"/>
<text text-anchor="middle" x="409" y="-260.5" font-family="Helvetica,sans-Serif" font-size="10.00">WiFiManager::handleWifi</text>
</a>
</g>
</g>
<!-- Node24&#45;&gt;Node29 -->
<g id="edge16" class="edge"><title>Node24&#45;&gt;Node29</title>
<path fill="none" stroke="midnightblue" d="M297.222,-263C309.751,-263 322.928,-263 335.65,-263"/>
<polygon fill="midnightblue" stroke="midnightblue" points="335.734,-266.5 345.734,-263 335.734,-259.5 335.734,-266.5"/>
</g>
<!-- Node32 -->
<g id="node14" class="node"><title>Node32</title>
<g id="a_node14"><a xlink:href="../../d4/dc8/class_wi_fi_manager.html#a2a8c2b60aa86dfdeab8a1a90f7122dc7" target="_top" xlink:title="WiFiManager::handleWifiSave">
<polygon fill="white" stroke="black" points="334.5,-341.5 334.5,-360.5 483.5,-360.5 483.5,-341.5 334.5,-341.5"/>
<text text-anchor="middle" x="409" y="-348.5" font-family="Helvetica,sans-Serif" font-size="10.00">WiFiManager::handleWifiSave</text>
</a>
</g>
</g>
<!-- Node24&#45;&gt;Node32 -->
<g id="edge20" class="edge"><title>Node24&#45;&gt;Node32</title>
<path fill="none" stroke="midnightblue" d="M261.841,-278.128C294.891,-294.606 347.339,-320.756 379.603,-336.842"/>
<polygon fill="midnightblue" stroke="midnightblue" points="378.413,-340.159 388.924,-341.489 381.536,-333.895 378.413,-340.159"/>
</g>
<!-- Node34 -->
<g id="node16" class="node"><title>Node34</title>
<g id="a_node16"><a xlink:href="../../d4/dc8/class_wi_fi_manager.html#ac35e46661f8a209d84bba62d9aa43a35" target="_top" xlink:title="WiFiManager::handleInfo">
<polygon fill="white" stroke="black" points="538,-423.5 538,-442.5 663,-442.5 663,-423.5 538,-423.5"/>
<text text-anchor="middle" x="600.5" y="-430.5" font-family="Helvetica,sans-Serif" font-size="10.00">WiFiManager::handleInfo</text>
</a>
</g>
</g>
<!-- Node24&#45;&gt;Node34 -->
<g id="edge23" class="edge"><title>Node24&#45;&gt;Node34</title>
<path fill="none" stroke="midnightblue" d="M241.379,-278.057C257.593,-301.511 292.161,-346.511 333,-370 393.233,-404.643 471.553,-420.264 527.676,-427.292"/>
<polygon fill="midnightblue" stroke="midnightblue" points="527.545,-430.8 537.888,-428.506 528.372,-423.849 527.545,-430.8"/>
</g>
<!-- Node35 -->
<g id="node17" class="node"><title>Node35</title>
<g id="a_node17"><a xlink:href="../../d4/dc8/class_wi_fi_manager.html#a94fb1a8fcfbd0d02714c69138bf72f9c" target="_top" xlink:title="WiFiManager::handleReset">
<polygon fill="white" stroke="black" points="341.5,-114.5 341.5,-133.5 476.5,-133.5 476.5,-114.5 341.5,-114.5"/>
<text text-anchor="middle" x="409" y="-121.5" font-family="Helvetica,sans-Serif" font-size="10.00">WiFiManager::handleReset</text>
</a>
</g>
</g>
<!-- Node24&#45;&gt;Node35 -->
<g id="edge25" class="edge"><title>Node24&#45;&gt;Node35</title>
<path fill="none" stroke="midnightblue" d="M244.039,-247.805C262.077,-226.627 297.14,-187.924 333,-162 345.946,-152.641 361.529,-144.34 375.129,-137.902"/>
<polygon fill="midnightblue" stroke="midnightblue" points="376.983,-140.902 384.616,-133.555 374.067,-134.539 376.983,-140.902"/>
</g>
<!-- Node36 -->
<g id="node18" class="node"><title>Node36</title>
<g id="a_node18"><a xlink:href="../../d4/dc8/class_wi_fi_manager.html#a9e802fa4ca834a622f058a7176f47806" target="_top" xlink:title="WiFiManager::handleFileRead">
<polygon fill="white" stroke="black" points="335,-171.5 335,-190.5 483,-190.5 483,-171.5 335,-171.5"/>
<text text-anchor="middle" x="409" y="-178.5" font-family="Helvetica,sans-Serif" font-size="10.00">WiFiManager::handleFileRead</text>
</a>
</g>
</g>
<!-- Node24&#45;&gt;Node36 -->
<g id="edge27" class="edge"><title>Node24&#45;&gt;Node36</title>
<path fill="none" stroke="midnightblue" d="M263.873,-247.96C296.521,-232.792 346.503,-209.571 378.202,-194.844"/>
<polygon fill="midnightblue" stroke="midnightblue" points="379.819,-197.952 387.413,-190.564 376.869,-191.604 379.819,-197.952"/>
</g>
<!-- Node38 -->
<g id="node20" class="node"><title>Node38</title>
<g id="a_node20"><a xlink:href="../../d4/dc8/class_wi_fi_manager.html#a7d01f7de3e4b76acdabffac79fa3d0ab" target="_top" xlink:title="WiFiManager::handleNotFound">
<polygon fill="white" stroke="black" points="333,-19.5 333,-38.5 485,-38.5 485,-19.5 333,-19.5"/>
<text text-anchor="middle" x="409" y="-26.5" font-family="Helvetica,sans-Serif" font-size="10.00">WiFiManager::handleNotFound</text>
</a>
</g>
</g>
<!-- Node24&#45;&gt;Node38 -->
<g id="edge30" class="edge"><title>Node24&#45;&gt;Node38</title>
<path fill="none" stroke="midnightblue" d="M234.092,-247.785C241.637,-208.332 267.362,-102.054 333,-48 335.041,-46.3189 337.212,-44.784 339.481,-43.3828"/>
<polygon fill="midnightblue" stroke="midnightblue" points="341.391,-46.3344 348.647,-38.6141 338.16,-40.1246 341.391,-46.3344"/>
</g>
<!-- Node25&#45;&gt;Node21 -->
<g id="edge11" class="edge"><title>Node25&#45;&gt;Node21</title>
<path fill="none" stroke="midnightblue" d="M460.354,-57.4972C519.626,-49.3544 617.836,-45.788 680,-96 774.994,-172.73 784.792,-337.604 785.248,-394.343"/>
<polygon fill="midnightblue" stroke="midnightblue" points="781.748,-394.461 785.234,-404.466 788.748,-394.471 781.748,-394.461"/>
</g>
<!-- Node26 -->
<g id="node8" class="node"><title>Node26</title>
<g id="a_node8"><a xlink:href="../../d4/dc8/class_wi_fi_manager.html#a4ef4298deb224212e5242c456669a973" target="_top" xlink:title="WiFiManager::captivePortal">
<polygon fill="white" stroke="black" points="532,-19.5 532,-38.5 669,-38.5 669,-19.5 532,-19.5"/>
<text text-anchor="middle" x="600.5" y="-26.5" font-family="Helvetica,sans-Serif" font-size="10.00">WiFiManager::captivePortal</text>
</a>
</g>
</g>
<!-- Node25&#45;&gt;Node26 -->
<g id="edge12" class="edge"><title>Node25&#45;&gt;Node26</title>
<path fill="none" stroke="midnightblue" d="M457.819,-57.411C483.389,-52.2835 515.059,-45.9328 541.968,-40.5368"/>
<polygon fill="midnightblue" stroke="midnightblue" points="542.908,-43.9179 552.025,-38.5201 541.532,-37.0546 542.908,-43.9179"/>
</g>
<!-- Node26&#45;&gt;Node21 -->
<g id="edge14" class="edge"><title>Node26&#45;&gt;Node21</title>
<path fill="none" stroke="midnightblue" d="M657.727,-38.6215C665.991,-42.0585 673.795,-46.7097 680,-53 777.105,-151.44 785.4,-334.169 785.373,-394.273"/>
<polygon fill="midnightblue" stroke="midnightblue" points="781.873,-394.28 785.285,-404.31 788.872,-394.341 781.873,-394.28"/>
</g>
<!-- Node27 -->
<g id="node9" class="node"><title>Node27</title>
<g id="a_node9"><a xlink:href="../../d4/dc8/class_wi_fi_manager.html#a9c78a8774f746ec22a99d03a53baa607" target="_top" xlink:title="WiFiManager::isIp">
<polygon fill="white" stroke="black" points="738,-0.5 738,-19.5 834,-19.5 834,-0.5 738,-0.5"/>
<text text-anchor="middle" x="786" y="-7.5" font-family="Helvetica,sans-Serif" font-size="10.00">WiFiManager::isIp</text>
</a>
</g>
</g>
<!-- Node26&#45;&gt;Node27 -->
<g id="edge13" class="edge"><title>Node26&#45;&gt;Node27</title>
<path fill="none" stroke="midnightblue" d="M669.047,-22.006C688.361,-20.0062 709.216,-17.8468 727.843,-15.9182"/>
<polygon fill="midnightblue" stroke="midnightblue" points="728.352,-19.3843 737.938,-14.8729 727.631,-12.4215 728.352,-19.3843"/>
</g>
<!-- Node28 -->
<g id="node10" class="node"><title>Node28</title>
<g id="a_node10"><a xlink:href="../../d4/dc8/class_wi_fi_manager.html#a8dfd64cefecbdf26242b16eca335c20b" target="_top" xlink:title="WiFiManager::toStringIp">
<polygon fill="white" stroke="black" points="725,-38.5 725,-57.5 847,-57.5 847,-38.5 725,-38.5"/>
<text text-anchor="middle" x="786" y="-45.5" font-family="Helvetica,sans-Serif" font-size="10.00">WiFiManager::toStringIp</text>
</a>
</g>
</g>
<!-- Node26&#45;&gt;Node28 -->
<g id="edge15" class="edge"><title>Node26&#45;&gt;Node28</title>
<path fill="none" stroke="midnightblue" d="M669.047,-35.994C683.909,-37.5328 699.684,-39.1662 714.654,-40.7162"/>
<polygon fill="midnightblue" stroke="midnightblue" points="714.561,-44.2252 724.868,-41.7738 715.282,-37.2624 714.561,-44.2252"/>
</g>
<!-- Node29&#45;&gt;Node21 -->
<g id="edge17" class="edge"><title>Node29&#45;&gt;Node21</title>
<path fill="none" stroke="midnightblue" d="M453.127,-272.513C526.755,-288.832 669.801,-320.904 680,-326 716.091,-344.034 750.454,-376.806 769.533,-396.866"/>
<polygon fill="midnightblue" stroke="midnightblue" points="767.137,-399.429 776.513,-404.363 772.26,-394.659 767.137,-399.429"/>
</g>
<!-- Node30 -->
<g id="node12" class="node"><title>Node30</title>
<g id="a_node12"><a xlink:href="../../d4/dc8/class_wi_fi_manager.html#ae71cfd6bd70ada2ca02e1d20b152d0e5" target="_top" xlink:title="WiFiManager::getRSSIasQuality">
<polygon fill="white" stroke="black" points="521,-209.5 521,-228.5 680,-228.5 680,-209.5 521,-209.5"/>
<text text-anchor="middle" x="600.5" y="-216.5" font-family="Helvetica,sans-Serif" font-size="10.00">WiFiManager::getRSSIasQuality</text>
</a>
</g>
</g>
<!-- Node29&#45;&gt;Node30 -->
<g id="edge18" class="edge"><title>Node29&#45;&gt;Node30</title>
<path fill="none" stroke="midnightblue" d="M451.119,-253.453C479.676,-246.822 517.925,-237.941 548.436,-230.857"/>
<polygon fill="midnightblue" stroke="midnightblue" points="549.512,-234.2 558.462,-228.529 547.929,-227.381 549.512,-234.2"/>
</g>
<!-- Node31 -->
<g id="node13" class="node"><title>Node31</title>
<g id="a_node13"><a xlink:href="../../d7/d08/class_wi_fi_manager_parameter.html#a596273c189eb40107500cee3ad31b13b" target="_top" xlink:title="WiFiManagerParameter\l::getCustomHTML">
<polygon fill="white" stroke="black" points="541,-248 541,-278 660,-278 660,-248 541,-248"/>
<text text-anchor="start" x="549" y="-266" font-family="Helvetica,sans-Serif" font-size="10.00">WiFiManagerParameter</text>
<text text-anchor="middle" x="600.5" y="-255" font-family="Helvetica,sans-Serif" font-size="10.00">::getCustomHTML</text>
</a>
</g>
</g>
<!-- Node29&#45;&gt;Node31 -->
<g id="edge19" class="edge"><title>Node29&#45;&gt;Node31</title>
<path fill="none" stroke="midnightblue" d="M472.049,-263C490.806,-263 511.512,-263 530.683,-263"/>
<polygon fill="midnightblue" stroke="midnightblue" points="530.851,-266.5 540.851,-263 530.851,-259.5 530.851,-266.5"/>
</g>
<!-- Node32&#45;&gt;Node21 -->
<g id="edge21" class="edge"><title>Node32&#45;&gt;Node21</title>
<path fill="none" stroke="midnightblue" d="M450.987,-360.541C471.878,-365.231 497.722,-370.769 521,-375 582.881,-386.248 653.369,-396.533 705.935,-403.714"/>
<polygon fill="midnightblue" stroke="midnightblue" points="705.488,-407.185 715.868,-405.063 706.43,-400.249 705.488,-407.185"/>
</g>
<!-- Node33 -->
<g id="node15" class="node"><title>Node33</title>
<g id="a_node15"><a xlink:href="../../d4/dc8/class_wi_fi_manager.html#a6a94f08eb43e0871932556a4ccfa11b7" target="_top" xlink:title="WiFiManager::optionalIPFrom\lString">
<polygon fill="white" stroke="black" points="527.5,-336 527.5,-366 673.5,-366 673.5,-336 527.5,-336"/>
<text text-anchor="start" x="535.5" y="-354" font-family="Helvetica,sans-Serif" font-size="10.00">WiFiManager::optionalIPFrom</text>
<text text-anchor="middle" x="600.5" y="-343" font-family="Helvetica,sans-Serif" font-size="10.00">String</text>
</a>
</g>
</g>
<!-- Node32&#45;&gt;Node33 -->
<g id="edge22" class="edge"><title>Node32&#45;&gt;Node33</title>
<path fill="none" stroke="midnightblue" d="M483.537,-351C494.529,-351 505.923,-351 517.084,-351"/>
<polygon fill="midnightblue" stroke="midnightblue" points="517.251,-354.5 527.251,-351 517.251,-347.5 517.251,-354.5"/>
</g>
<!-- Node34&#45;&gt;Node21 -->
<g id="edge24" class="edge"><title>Node34&#45;&gt;Node21</title>
<path fill="none" stroke="midnightblue" d="M663.113,-426.62C676.77,-425.206 691.429,-423.689 705.68,-422.213"/>
<polygon fill="midnightblue" stroke="midnightblue" points="706.378,-425.659 715.965,-421.148 705.657,-418.697 706.378,-425.659"/>
</g>
<!-- Node35&#45;&gt;Node21 -->
<g id="edge26" class="edge"><title>Node35&#45;&gt;Node21</title>
<path fill="none" stroke="midnightblue" d="M442.75,-114.452C497.543,-100.602 608.785,-81.808 680,-133 767.658,-196.012 782.202,-341.219 784.563,-394.195"/>
<polygon fill="midnightblue" stroke="midnightblue" points="781.069,-394.424 784.91,-404.298 788.065,-394.184 781.069,-394.424"/>
</g>
<!-- Node36&#45;&gt;Node21 -->
<g id="edge28" class="edge"><title>Node36&#45;&gt;Node21</title>
<path fill="none" stroke="midnightblue" d="M431.15,-171.491C479.784,-151.201 601.411,-109.608 680,-162 760.855,-215.903 779.548,-345.106 783.786,-394.419"/>
<polygon fill="midnightblue" stroke="midnightblue" points="780.298,-394.705 784.536,-404.415 787.278,-394.181 780.298,-394.705"/>
</g>
<!-- Node37 -->
<g id="node19" class="node"><title>Node37</title>
<g id="a_node19"><a xlink:href="../../d4/dc8/class_wi_fi_manager.html#a40f123fd290c3e331c9785d19a88f3b8" target="_top" xlink:title="WiFiManager::getContentType">
<polygon fill="white" stroke="black" points="525.5,-171.5 525.5,-190.5 675.5,-190.5 675.5,-171.5 525.5,-171.5"/>
<text text-anchor="middle" x="600.5" y="-178.5" font-family="Helvetica,sans-Serif" font-size="10.00">WiFiManager::getContentType</text>
</a>
</g>
</g>
<!-- Node36&#45;&gt;Node37 -->
<g id="edge29" class="edge"><title>Node36&#45;&gt;Node37</title>
<path fill="none" stroke="midnightblue" d="M483.266,-181C493.763,-181 504.632,-181 515.319,-181"/>
<polygon fill="midnightblue" stroke="midnightblue" points="515.491,-184.5 525.491,-181 515.491,-177.5 515.491,-184.5"/>
</g>
<!-- Node38&#45;&gt;Node26 -->
<g id="edge31" class="edge"><title>Node38&#45;&gt;Node26</title>
<path fill="none" stroke="midnightblue" d="M485.168,-29C497.196,-29 509.665,-29 521.753,-29"/>
<polygon fill="midnightblue" stroke="midnightblue" points="521.798,-32.5001 531.798,-29 521.798,-25.5001 521.798,-32.5001"/>
</g>
</g>
</svg>
        <g id="navigator" transform="translate(0 0)" fill="#404254">
                <rect fill="#f2f5e9" fill-opacity="0.5" stroke="#606060" stroke-width=".5" x="0" y="0" width="60" height="60"/>
                <use id="zoomplus" xlink:href="#zoomPlus" x="17" y="9" onmousedown="handleZoom(evt,'in')"/>
                <use id="zoomminus" xlink:href="#zoomMin" x="42" y="9" onmousedown="handleZoom(evt,'out')"/>
                <use id="reset" xlink:href="#resetDef" x="30" y="36" onmousedown="handleReset()"/>
                <g id="arrowUp" xlink:href="#dirArrow" transform="translate(30 24)" onmousedown="handlePan(0,-1)">
                  <use xlink:href="#rim" fill="#404040">
                        <set attributeName="fill" to="#808080" begin="arrowUp.mouseover" end="arrowUp.mouseout"/>
                  </use>
                  <path fill="none" stroke="white" stroke-width="1.5" d="M0,-3.0v7 M-2.5,-0.5L0,-3.0L2.5,-0.5"/>
                </g>
                <g id="arrowRight" xlink:href="#dirArrow" transform="rotate(90) translate(36 -43)" onmousedown="handlePan(1,0)">
                  <use xlink:href="#rim" fill="#404040">
                        <set attributeName="fill" to="#808080" begin="arrowRight.mouseover" end="arrowRight.mouseout"/>
                  </use>
                  <path fill="none" stroke="white" stroke-width="1.5" d="M0,-3.0v7 M-2.5,-0.5L0,-3.0L2.5,-0.5"/>
                </g>
                <g id="arrowDown" xlink:href="#dirArrow" transform="rotate(180) translate(-30 -48)" onmousedown="handlePan(0,1)">
                  <use xlink:href="#rim" fill="#404040">
                        <set attributeName="fill" to="#808080" begin="arrowDown.mouseover" end="arrowDown.mouseout"/>
                  </use>
                  <path fill="none" stroke="white" stroke-width="1.5" d="M0,-3.0v7 M-2.5,-0.5L0,-3.0L2.5,-0.5"/>
                </g>
                <g id="arrowLeft" xlink:href="#dirArrow" transform="rotate(270) translate(-36 17)" onmousedown="handlePan(-1,0)">
                  <use xlink:href="#rim" fill="#404040">
                        <set attributeName="fill" to="#808080" begin="arrowLeft.mouseover" end="arrowLeft.mouseout"/>
                  </use>
                  <path fill="none" stroke="white" stroke-width="1.5" d="M0,-3.0v7 M-2.5,-0.5L0,-3.0L2.5,-0.5"/>
                </g>
        </g>
        <svg viewBox="0 0 15 15" width="100%" height="30px" preserveAspectRatio="xMaxYMin meet">
         <g id="arrow_out" transform="scale(0.3 0.3)">
          <a xlink:href="class_wi_fi_manager_afaca5021edffb4d9a5bd39f7b0f7a686_cgraph_org.svg" target="_base">
           <rect id="button" ry="5" rx="5" y="6" x="6" height="38" width="38"
                fill="#f2f5e9" fill-opacity="0.5" stroke="#606060" stroke-width="1.0"/>
           <path id="arrow"
             d="M 11.500037,31.436501 C 11.940474,20.09759 22.043105,11.32322 32.158766,21.979434 L 37.068811,17.246167 C 37.068811,17.246167 37.088388,32 37.088388,32 L 22.160133,31.978069 C 22.160133,31.978069 26.997745,27.140456 26.997745,27.140456 C 18.528582,18.264221 13.291696,25.230495 11.500037,31.436501 z"
             style="fill:#404040;"/>
          </a>
         </g>
        </svg>
</svg>
