<?xml version="1.0" encoding="UTF-8" standalone="no"?>
<!DOCTYPE svg PUBLIC "-//W3C//DTD SVG 1.1//EN"
 "http://www.w3.org/Graphics/SVG/1.1/DTD/svg11.dtd">
<!-- Generated by graphviz version 2.38.0 (20140413.2041)
 -->
<!-- Title: WiFiManager::toStringIp Pages: 1 -->
<svg width="824pt" height="66pt"
 viewBox="0.00 0.00 824.00 66.00" xmlns="http://www.w3.org/2000/svg" xmlns:xlink="http://www.w3.org/1999/xlink">
<g id="graph0" class="graph" transform="scale(1 1) rotate(0) translate(4 62)">
<title>WiFiManager::toStringIp</title>
<polygon fill="white" stroke="none" points="-4,4 -4,-62 820,-62 820,4 -4,4"/>
<!-- Node201 -->
<g id="node1" class="node"><title>Node201</title>
<polygon fill="#bfbfbf" stroke="black" points="0,-19.5 0,-38.5 122,-38.5 122,-19.5 0,-19.5"/>
<text text-anchor="middle" x="61" y="-26.5" font-family="Helvetica,sans-Serif" font-size="10.00">WiFiManager::toStringIp</text>
</g>
<!-- Node202 -->
<g id="node2" class="node"><title>Node202</title>
<g id="a_node2"><a xlink:href="../../d4/dc8/class_wi_fi_manager.html#a4ef4298deb224212e5242c456669a973" target="_top" xlink:title="WiFiManager::captivePortal">
<polygon fill="white" stroke="black" points="158,-19.5 158,-38.5 295,-38.5 295,-19.5 158,-19.5"/>
<text text-anchor="middle" x="226.5" y="-26.5" font-family="Helvetica,sans-Serif" font-size="10.00">WiFiManager::captivePortal</text>
</a>
</g>
</g>
<!-- Node201&#45;&gt;Node202 -->
<g id="edge1" class="edge"><title>Node201&#45;&gt;Node202</title>
<path fill="none" stroke="midnightblue" d="M132.564,-29C140.968,-29 149.533,-29 157.895,-29"/>
<polygon fill="midnightblue" stroke="midnightblue" points="132.417,-25.5001 122.417,-29 132.417,-32.5001 132.417,-25.5001"/>
</g>
<!-- Node203 -->
<g id="node3" class="node"><title>Node203</title>
<g id="a_node3"><a xlink:href="../../d4/dc8/class_wi_fi_manager.html#a7d01f7de3e4b76acdabffac79fa3d0ab" target="_top" xlink:title="WiFiManager::handleNotFound">
<polygon fill="white" stroke="black" points="331,-38.5 331,-57.5 483,-57.5 483,-38.5 331,-38.5"/>
<text text-anchor="middle" x="407" y="-45.5" font-family="Helvetica,sans-Serif" font-size="10.00">WiFiManager::handleNotFound</text>
</a>
</g>
</g>
<!-- Node202&#45;&gt;Node203 -->
<g id="edge2" class="edge"><title>Node202&#45;&gt;Node203</title>
<path fill="none" stroke="midnightblue" d="M305.439,-37.2961C313.875,-38.194 322.449,-39.1066 330.851,-40.0009"/>
<polygon fill="midnightblue" stroke="midnightblue" points="305.552,-33.7884 295.238,-36.2102 304.811,-40.7491 305.552,-33.7884"/>
</g>
<!-- Node206 -->
<g id="node6" class="node"><title>Node206</title>
<g id="a_node6"><a xlink:href="../../d4/dc8/class_wi_fi_manager.html#a47e4c7df7478f690c53ff9f5125c9760" target="_top" xlink:title="WiFiManager::handleRoot">
<polygon fill="white" stroke="black" points="342,-0.5 342,-19.5 472,-19.5 472,-0.5 342,-0.5"/>
<text text-anchor="middle" x="407" y="-7.5" font-family="Helvetica,sans-Serif" font-size="10.00">WiFiManager::handleRoot</text>
</a>
</g>
</g>
<!-- Node202&#45;&gt;Node206 -->
<g id="edge5" class="edge"><title>Node202&#45;&gt;Node206</title>
<path fill="none" stroke="midnightblue" d="M305.378,-20.7105C317.554,-19.4144 330.018,-18.0878 341.842,-16.8292"/>
<polygon fill="midnightblue" stroke="midnightblue" points="304.811,-17.2509 295.238,-21.7898 305.552,-24.2116 304.811,-17.2509"/>
</g>
<!-- Node204 -->
<g id="node4" class="node"><title>Node204</title>
<g id="a_node4"><a xlink:href="../../d4/dc8/class_wi_fi_manager.html#a1743325d0dd86d011df96b22d2a0ddd6" target="_top" xlink:title="WiFiManager::setupConfig\lPortal">
<polygon fill="white" stroke="black" points="519,-14 519,-44 652,-44 652,-14 519,-14"/>
<text text-anchor="start" x="527" y="-32" font-family="Helvetica,sans-Serif" font-size="10.00">WiFiManager::setupConfig</text>
<text text-anchor="middle" x="585.5" y="-21" font-family="Helvetica,sans-Serif" font-size="10.00">Portal</text>
</a>
</g>
</g>
<!-- Node203&#45;&gt;Node204 -->
<g id="edge3" class="edge"><title>Node203&#45;&gt;Node204</title>
<path fill="none" stroke="midnightblue" d="M493.22,-38.8262C501.865,-37.8955 510.55,-36.9606 518.941,-36.0573"/>
<polygon fill="midnightblue" stroke="midnightblue" points="492.676,-35.3645 483.108,-39.9147 493.425,-42.3242 492.676,-35.3645"/>
</g>
<!-- Node205 -->
<g id="node5" class="node"><title>Node205</title>
<g id="a_node5"><a xlink:href="../../d4/dc8/class_wi_fi_manager.html#afaca5021edffb4d9a5bd39f7b0f7a686" target="_top" xlink:title="WiFiManager::startConfig\lPortal">
<polygon fill="white" stroke="black" points="688,-14 688,-44 816,-44 816,-14 688,-14"/>
<text text-anchor="start" x="696" y="-32" font-family="Helvetica,sans-Serif" font-size="10.00">WiFiManager::startConfig</text>
<text text-anchor="middle" x="752" y="-21" font-family="Helvetica,sans-Serif" font-size="10.00">Portal</text>
</a>
</g>
</g>
<!-- Node204&#45;&gt;Node205 -->
<g id="edge4" class="edge"><title>Node204&#45;&gt;Node205</title>
<path fill="none" stroke="midnightblue" d="M662.706,-29C671.16,-29 679.699,-29 687.964,-29"/>
<polygon fill="midnightblue" stroke="midnightblue" points="662.461,-25.5001 652.461,-29 662.461,-32.5001 662.461,-25.5001"/>
</g>
<!-- Node206&#45;&gt;Node204 -->
<g id="edge6" class="edge"><title>Node206&#45;&gt;Node204</title>
<path fill="none" stroke="midnightblue" d="M482.308,-17.9991C494.443,-19.3055 506.939,-20.6507 518.847,-21.9325"/>
<polygon fill="midnightblue" stroke="midnightblue" points="482.537,-14.5037 472.22,-16.9132 481.788,-21.4635 482.537,-14.5037"/>
</g>
</g>
</svg>
