<?xml version="1.0" encoding="UTF-8" standalone="no"?>
<!DOCTYPE svg PUBLIC "-//W3C//DTD SVG 1.1//EN"
 "http://www.w3.org/Graphics/SVG/1.1/DTD/svg11.dtd">
<!-- Generated by graphviz version 2.38.0 (20140413.2041)
 -->
<!-- Title: WiFiManager::connectWifi Pages: 1 -->
<!--zoomable 91 -->
<svg id="main" version="1.1" xmlns="http://www.w3.org/2000/svg" xmlns:xlink="http://www.w3.org/1999/xlink" xml:space="preserve" onload="init(evt)">
<style type="text/css"><![CDATA[
.edge:hover path { stroke: red; }
.edge:hover polygon { stroke: red; fill: red; }
]]></style>
<script type="text/javascript"><![CDATA[
var edges = document.getElementsByTagName('g');
if (edges && edges.length) {
  for (var i=0;i<edges.length;i++) {
    if (edges[i].id.substr(0,4)=='edge') {
      edges[i].setAttribute('class','edge');
    }
  }
}
]]></script>
        <defs>
                <circle id="rim" cx="0" cy="0" r="7"/>
                <circle id="rim2" cx="0" cy="0" r="3.5"/>
                <g id="zoomPlus">
                        <use xlink:href="#rim" fill="#404040">
                                <set attributeName="fill" to="#808080" begin="zoomplus.mouseover" end="zoomplus.mouseout"/>
                        </use>
                        <path d="M-4,0h8M0,-4v8" fill="none" stroke="white" stroke-width="1.5" pointer-events="none"/>
                </g>
                <g id="zoomMin">
                        <use xlink:href="#rim" fill="#404040">
                                <set attributeName="fill" to="#808080" begin="zoomminus.mouseover" end="zoomminus.mouseout"/>
                        </use>
                        <path d="M-4,0h8" fill="none" stroke="white" stroke-width="1.5" pointer-events="none"/>
                </g>
                <g id="dirArrow">
                        <path fill="none" stroke="white" stroke-width="1.5" d="M0,-3.0v7 M-2.5,-0.5L0,-3.0L2.5,-0.5"/>
                </g>
               <g id="resetDef">
                       <use xlink:href="#rim2" fill="#404040">
                               <set attributeName="fill" to="#808080" begin="reset.mouseover" end="reset.mouseout"/>
                       </use>
               </g>
        </defs>

<script type="text/javascript">
var viewWidth = 501;
var viewHeight = 91;
var sectionId = 'dynsection-15';
</script>
<script xlink:href="../../svgpan.js"/>
<svg id="graph" class="graph">
<g id="viewport">
<title>WiFiManager::connectWifi</title>
<polygon fill="white" stroke="none" points="-4,4 -4,-87.0539 497,-87.0539 497,4 -4,4"/>
<!-- Node114 -->
<g id="node1" class="node"><title>Node114</title>
<polygon fill="#bfbfbf" stroke="black" points="0,-50 0,-69 132,-69 132,-50 0,-50"/>
<text text-anchor="middle" x="66" y="-57" font-family="Helvetica,sans-Serif" font-size="10.00">WiFiManager::connectWifi</text>
</g>
<!-- Node115 -->
<g id="node2" class="node"><title>Node115</title>
<g id="a_node2"><a xlink:href="../../d4/dc8/class_wi_fi_manager.html#ae5f595c670ccbcf9a191baf50f5c7c26" target="_top" xlink:title="WiFiManager::DEBUG_WM">
<polygon fill="white" stroke="black" points="353,-50 353,-69 493,-69 493,-50 353,-50"/>
<text text-anchor="middle" x="423" y="-57" font-family="Helvetica,sans-Serif" font-size="10.00">WiFiManager::DEBUG_WM</text>
</a>
</g>
</g>
<!-- Node114&#45;&gt;Node115 -->
<g id="edge1" class="edge"><title>Node114&#45;&gt;Node115</title>
<path fill="none" stroke="midnightblue" d="M108.033,-69.0109C126.284,-72.7761 148.103,-76.6448 168,-78.5 233.936,-84.648 251.043,-84.4195 317,-78.5 334.113,-76.9641 352.609,-74.0471 369.239,-70.9514"/>
<polygon fill="midnightblue" stroke="midnightblue" points="370.165,-74.3376 379.323,-69.0115 368.842,-67.4636 370.165,-74.3376"/>
</g>
<!-- Node116 -->
<g id="node3" class="node"><title>Node116</title>
<g id="a_node3"><a xlink:href="../../d4/dc8/class_wi_fi_manager.html#abcc403fc26a47f7a111d1271f1d0869e" target="_top" xlink:title="WiFiManager::startWPS">
<polygon fill="white" stroke="black" points="181,-50 181,-69 304,-69 304,-50 181,-50"/>
<text text-anchor="middle" x="242.5" y="-57" font-family="Helvetica,sans-Serif" font-size="10.00">WiFiManager::startWPS</text>
</a>
</g>
</g>
<!-- Node114&#45;&gt;Node116 -->
<g id="edge2" class="edge"><title>Node114&#45;&gt;Node116</title>
<path fill="none" stroke="midnightblue" d="M132.474,-59.5C144.989,-59.5 158.142,-59.5 170.812,-59.5"/>
<polygon fill="midnightblue" stroke="midnightblue" points="170.847,-63.0001 180.847,-59.5 170.847,-56.0001 170.847,-63.0001"/>
</g>
<!-- Node117 -->
<g id="node4" class="node"><title>Node117</title>
<g id="a_node4"><a xlink:href="../../d4/dc8/class_wi_fi_manager.html#a89a3f33997aa662ad223d6c150c1eede" target="_top" xlink:title="WiFiManager::waitForConnect\lResult">
<polygon fill="white" stroke="black" points="168,-0.5 168,-30.5 317,-30.5 317,-0.5 168,-0.5"/>
<text text-anchor="start" x="176" y="-18.5" font-family="Helvetica,sans-Serif" font-size="10.00">WiFiManager::waitForConnect</text>
<text text-anchor="middle" x="242.5" y="-7.5" font-family="Helvetica,sans-Serif" font-size="10.00">Result</text>
</a>
</g>
</g>
<!-- Node114&#45;&gt;Node117 -->
<g id="edge4" class="edge"><title>Node114&#45;&gt;Node117</title>
<path fill="none" stroke="midnightblue" d="M104.864,-49.9527C124.511,-44.9988 149.139,-38.7888 172.055,-33.0105"/>
<polygon fill="midnightblue" stroke="midnightblue" points="172.911,-36.4042 181.752,-30.5654 171.2,-29.6166 172.911,-36.4042"/>
</g>
<!-- Node116&#45;&gt;Node115 -->
<g id="edge3" class="edge"><title>Node116&#45;&gt;Node115</title>
<path fill="none" stroke="midnightblue" d="M304.43,-59.5C316.703,-59.5 329.773,-59.5 342.57,-59.5"/>
<polygon fill="midnightblue" stroke="midnightblue" points="342.754,-63.0001 352.754,-59.5 342.754,-56.0001 342.754,-63.0001"/>
</g>
<!-- Node117&#45;&gt;Node115 -->
<g id="edge5" class="edge"><title>Node117&#45;&gt;Node115</title>
<path fill="none" stroke="midnightblue" d="M304.43,-30.5192C327.012,-36.0856 352.292,-42.3171 373.607,-47.5713"/>
<polygon fill="midnightblue" stroke="midnightblue" points="372.863,-50.9924 383.41,-49.9876 374.538,-44.1959 372.863,-50.9924"/>
</g>
</g>
</svg>
        <g id="navigator" transform="translate(0 0)" fill="#404254">
                <rect fill="#f2f5e9" fill-opacity="0.5" stroke="#606060" stroke-width=".5" x="0" y="0" width="60" height="60"/>
                <use id="zoomplus" xlink:href="#zoomPlus" x="17" y="9" onmousedown="handleZoom(evt,'in')"/>
                <use id="zoomminus" xlink:href="#zoomMin" x="42" y="9" onmousedown="handleZoom(evt,'out')"/>
                <use id="reset" xlink:href="#resetDef" x="30" y="36" onmousedown="handleReset()"/>
                <g id="arrowUp" xlink:href="#dirArrow" transform="translate(30 24)" onmousedown="handlePan(0,-1)">
                  <use xlink:href="#rim" fill="#404040">
                        <set attributeName="fill" to="#808080" begin="arrowUp.mouseover" end="arrowUp.mouseout"/>
                  </use>
                  <path fill="none" stroke="white" stroke-width="1.5" d="M0,-3.0v7 M-2.5,-0.5L0,-3.0L2.5,-0.5"/>
                </g>
                <g id="arrowRight" xlink:href="#dirArrow" transform="rotate(90) translate(36 -43)" onmousedown="handlePan(1,0)">
                  <use xlink:href="#rim" fill="#404040">
                        <set attributeName="fill" to="#808080" begin="arrowRight.mouseover" end="arrowRight.mouseout"/>
                  </use>
                  <path fill="none" stroke="white" stroke-width="1.5" d="M0,-3.0v7 M-2.5,-0.5L0,-3.0L2.5,-0.5"/>
                </g>
                <g id="arrowDown" xlink:href="#dirArrow" transform="rotate(180) translate(-30 -48)" onmousedown="handlePan(0,1)">
                  <use xlink:href="#rim" fill="#404040">
                        <set attributeName="fill" to="#808080" begin="arrowDown.mouseover" end="arrowDown.mouseout"/>
                  </use>
                  <path fill="none" stroke="white" stroke-width="1.5" d="M0,-3.0v7 M-2.5,-0.5L0,-3.0L2.5,-0.5"/>
                </g>
                <g id="arrowLeft" xlink:href="#dirArrow" transform="rotate(270) translate(-36 17)" onmousedown="handlePan(-1,0)">
                  <use xlink:href="#rim" fill="#404040">
                        <set attributeName="fill" to="#808080" begin="arrowLeft.mouseover" end="arrowLeft.mouseout"/>
                  </use>
                  <path fill="none" stroke="white" stroke-width="1.5" d="M0,-3.0v7 M-2.5,-0.5L0,-3.0L2.5,-0.5"/>
                </g>
        </g>
        <svg viewBox="0 0 15 15" width="100%" height="30px" preserveAspectRatio="xMaxYMin meet">
         <g id="arrow_out" transform="scale(0.3 0.3)">
          <a xlink:href="class_wi_fi_manager_ae0ae27b5543b47585728c084c3bbdca7_cgraph_org.svg" target="_base">
           <rect id="button" ry="5" rx="5" y="6" x="6" height="38" width="38"
                fill="#f2f5e9" fill-opacity="0.5" stroke="#606060" stroke-width="1.0"/>
           <path id="arrow"
             d="M 11.500037,31.436501 C 11.940474,20.09759 22.043105,11.32322 32.158766,21.979434 L 37.068811,17.246167 C 37.068811,17.246167 37.088388,32 37.088388,32 L 22.160133,31.978069 C 22.160133,31.978069 26.997745,27.140456 26.997745,27.140456 C 18.528582,18.264221 13.291696,25.230495 11.500037,31.436501 z"
             style="fill:#404040;"/>
          </a>
         </g>
        </svg>
</svg>
