<?xml version="1.0" encoding="UTF-8" standalone="no"?>
<!DOCTYPE svg PUBLIC "-//W3C//DTD SVG 1.1//EN"
 "http://www.w3.org/Graphics/SVG/1.1/DTD/svg11.dtd">
<!-- Generated by graphviz version 2.38.0 (20140413.2041)
 -->
<!-- Title: WiFiManager::DEBUG_WM Pages: 1 -->
<svg width="857pt" height="613pt"
 viewBox="0.00 0.00 857.00 613.28" xmlns="http://www.w3.org/2000/svg" xmlns:xlink="http://www.w3.org/1999/xlink">
<g id="graph0" class="graph" transform="scale(1 1) rotate(0) translate(4 609.284)">
<title>WiFiManager::DEBUG_WM</title>
<polygon fill="white" stroke="none" points="-4,4 -4,-609.284 853,-609.284 853,4 -4,4"/>
<!-- Node208 -->
<g id="node1" class="node"><title>Node208</title>
<polygon fill="#bfbfbf" stroke="black" points="0,-288.784 0,-307.784 140,-307.784 140,-288.784 0,-288.784"/>
<text text-anchor="middle" x="70" y="-295.784" font-family="Helvetica,sans-Serif" font-size="10.00">WiFiManager::DEBUG_WM</text>
</g>
<!-- Node209 -->
<g id="node2" class="node"><title>Node209</title>
<g id="a_node2"><a xlink:href="../../d4/dc8/class_wi_fi_manager.html#a62907428e5874de097d83c33ef46c80d" target="_top" xlink:title="WiFiManager::addParameter">
<polygon fill="white" stroke="black" points="180,-585.784 180,-604.784 321,-604.784 321,-585.784 180,-585.784"/>
<text text-anchor="middle" x="250.5" y="-592.784" font-family="Helvetica,sans-Serif" font-size="10.00">WiFiManager::addParameter</text>
</a>
</g>
</g>
<!-- Node208&#45;&gt;Node209 -->
<g id="edge1" class="edge"><title>Node208&#45;&gt;Node209</title>
<path fill="none" stroke="midnightblue" d="M72.4041,-317.888C77.1248,-368.645 96.9254,-505.331 176,-576.284 180.316,-580.157 185.32,-583.26 190.648,-585.743"/>
<polygon fill="midnightblue" stroke="midnightblue" points="75.8912,-317.586 71.5727,-307.911 68.9154,-318.168 75.8912,-317.586"/>
</g>
<!-- Node210 -->
<g id="node3" class="node"><title>Node210</title>
<g id="a_node3"><a xlink:href="../../d4/dc8/class_wi_fi_manager.html#ab1d094034e5e3e36e2e1b3624edad469" target="_top" xlink:title="WiFiManager::autoConnect">
<polygon fill="white" stroke="black" points="549,-421.784 549,-440.784 685,-440.784 685,-421.784 549,-421.784"/>
<text text-anchor="middle" x="617" y="-428.784" font-family="Helvetica,sans-Serif" font-size="10.00">WiFiManager::autoConnect</text>
</a>
</g>
</g>
<!-- Node208&#45;&gt;Node210 -->
<g id="edge2" class="edge"><title>Node208&#45;&gt;Node210</title>
<path fill="none" stroke="midnightblue" d="M82.1436,-316.572C98.8937,-342.157 133.206,-387.694 176,-407.284 240.518,-436.817 442.561,-436.152 548.95,-433.545"/>
<polygon fill="midnightblue" stroke="midnightblue" points="84.9155,-314.407 76.6028,-307.838 79.0048,-318.157 84.9155,-314.407"/>
</g>
<!-- Node211 -->
<g id="node4" class="node"><title>Node211</title>
<g id="a_node4"><a xlink:href="../../d4/dc8/class_wi_fi_manager.html#a4ef4298deb224212e5242c456669a973" target="_top" xlink:title="WiFiManager::captivePortal">
<polygon fill="white" stroke="black" points="182,-307.784 182,-326.784 319,-326.784 319,-307.784 182,-307.784"/>
<text text-anchor="middle" x="250.5" y="-314.784" font-family="Helvetica,sans-Serif" font-size="10.00">WiFiManager::captivePortal</text>
</a>
</g>
</g>
<!-- Node208&#45;&gt;Node211 -->
<g id="edge3" class="edge"><title>Node208&#45;&gt;Node211</title>
<path fill="none" stroke="midnightblue" d="M150.091,-306.702C160.685,-307.83 171.472,-308.978 181.846,-310.082"/>
<polygon fill="midnightblue" stroke="midnightblue" points="150.327,-303.208 140.013,-305.63 149.586,-310.168 150.327,-303.208"/>
</g>
<!-- Node213 -->
<g id="node6" class="node"><title>Node213</title>
<g id="a_node6"><a xlink:href="../../d4/dc8/class_wi_fi_manager.html#a1743325d0dd86d011df96b22d2a0ddd6" target="_top" xlink:title="WiFiManager::setupConfig\lPortal">
<polygon fill="white" stroke="black" points="550.5,-226.284 550.5,-256.284 683.5,-256.284 683.5,-226.284 550.5,-226.284"/>
<text text-anchor="start" x="558.5" y="-244.284" font-family="Helvetica,sans-Serif" font-size="10.00">WiFiManager::setupConfig</text>
<text text-anchor="middle" x="617" y="-233.284" font-family="Helvetica,sans-Serif" font-size="10.00">Portal</text>
</a>
</g>
</g>
<!-- Node208&#45;&gt;Node213 -->
<g id="edge25" class="edge"><title>Node208&#45;&gt;Node213</title>
<path fill="none" stroke="midnightblue" d="M141.278,-287.248C152.869,-285.522 164.765,-283.807 176,-282.284 258.051,-271.157 278.583,-268.251 361,-260.284 425.293,-254.069 498.876,-248.781 550.42,-245.374"/>
<polygon fill="midnightblue" stroke="midnightblue" points="140.564,-283.816 131.196,-288.764 141.605,-290.738 140.564,-283.816"/>
</g>
<!-- Node214 -->
<g id="node7" class="node"><title>Node214</title>
<g id="a_node7"><a xlink:href="../../d4/dc8/class_wi_fi_manager.html#afaca5021edffb4d9a5bd39f7b0f7a686" target="_top" xlink:title="WiFiManager::startConfig\lPortal">
<polygon fill="white" stroke="black" points="721,-378.284 721,-408.284 849,-408.284 849,-378.284 721,-378.284"/>
<text text-anchor="start" x="729" y="-396.284" font-family="Helvetica,sans-Serif" font-size="10.00">WiFiManager::startConfig</text>
<text text-anchor="middle" x="785" y="-385.284" font-family="Helvetica,sans-Serif" font-size="10.00">Portal</text>
</a>
</g>
</g>
<!-- Node208&#45;&gt;Node214 -->
<g id="edge26" class="edge"><title>Node208&#45;&gt;Node214</title>
<path fill="none" stroke="midnightblue" d="M91.5344,-313.971C111.804,-328.511 144.28,-349.346 176,-359.284 367.178,-419.177 608.475,-409.03 720.936,-399.717"/>
<polygon fill="midnightblue" stroke="midnightblue" points="93.5123,-311.081 83.3799,-307.985 89.3702,-316.724 93.5123,-311.081"/>
</g>
<!-- Node215 -->
<g id="node8" class="node"><title>Node215</title>
<g id="a_node8"><a xlink:href="../../d4/dc8/class_wi_fi_manager.html#a47e4c7df7478f690c53ff9f5125c9760" target="_top" xlink:title="WiFiManager::handleRoot">
<polygon fill="white" stroke="black" points="372,-269.784 372,-288.784 502,-288.784 502,-269.784 372,-269.784"/>
<text text-anchor="middle" x="437" y="-276.784" font-family="Helvetica,sans-Serif" font-size="10.00">WiFiManager::handleRoot</text>
</a>
</g>
</g>
<!-- Node208&#45;&gt;Node215 -->
<g id="edge18" class="edge"><title>Node208&#45;&gt;Node215</title>
<path fill="none" stroke="midnightblue" d="M150.078,-294.167C216.426,-290.714 309.999,-285.843 371.788,-282.626"/>
<polygon fill="midnightblue" stroke="midnightblue" points="149.887,-290.672 140.083,-294.688 150.251,-297.663 149.887,-290.672"/>
</g>
<!-- Node216 -->
<g id="node9" class="node"><title>Node216</title>
<g id="a_node9"><a xlink:href="../../d4/dc8/class_wi_fi_manager.html#ae0ae27b5543b47585728c084c3bbdca7" target="_top" xlink:title="WiFiManager::connectWifi">
<polygon fill="white" stroke="black" points="371,-459.784 371,-478.784 503,-478.784 503,-459.784 371,-459.784"/>
<text text-anchor="middle" x="437" y="-466.784" font-family="Helvetica,sans-Serif" font-size="10.00">WiFiManager::connectWifi</text>
</a>
</g>
</g>
<!-- Node208&#45;&gt;Node216 -->
<g id="edge9" class="edge"><title>Node208&#45;&gt;Node216</title>
<path fill="none" stroke="midnightblue" d="M75.0392,-318.191C84.4796,-358.827 112.207,-450.651 176,-488.284 252.989,-533.7 365.935,-497.732 413.535,-478.922"/>
<polygon fill="midnightblue" stroke="midnightblue" points="78.4041,-317.195 72.8467,-308.175 71.566,-318.692 78.4041,-317.195"/>
</g>
<!-- Node217 -->
<g id="node10" class="node"><title>Node217</title>
<g id="a_node10"><a xlink:href="../../d4/dc8/class_wi_fi_manager.html#a9e802fa4ca834a622f058a7176f47806" target="_top" xlink:title="WiFiManager::handleFileRead">
<polygon fill="white" stroke="black" points="363,-155.784 363,-174.784 511,-174.784 511,-155.784 363,-155.784"/>
<text text-anchor="middle" x="437" y="-162.784" font-family="Helvetica,sans-Serif" font-size="10.00">WiFiManager::handleFileRead</text>
</a>
</g>
</g>
<!-- Node208&#45;&gt;Node217 -->
<g id="edge12" class="edge"><title>Node208&#45;&gt;Node217</title>
<path fill="none" stroke="midnightblue" d="M81.5175,-280.025C97.8889,-253.568 132.189,-205.431 176,-184.284 234.286,-156.149 308.582,-153.518 362.816,-156.676"/>
<polygon fill="midnightblue" stroke="midnightblue" points="78.4557,-278.325 76.3127,-288.701 84.4584,-281.926 78.4557,-278.325"/>
</g>
<!-- Node218 -->
<g id="node11" class="node"><title>Node218</title>
<g id="a_node11"><a xlink:href="../../d4/dc8/class_wi_fi_manager.html#ac35e46661f8a209d84bba62d9aa43a35" target="_top" xlink:title="WiFiManager::handleInfo">
<polygon fill="white" stroke="black" points="374.5,-73.7837 374.5,-92.7837 499.5,-92.7837 499.5,-73.7837 374.5,-73.7837"/>
<text text-anchor="middle" x="437" y="-80.7837" font-family="Helvetica,sans-Serif" font-size="10.00">WiFiManager::handleInfo</text>
</a>
</g>
</g>
<!-- Node208&#45;&gt;Node218 -->
<g id="edge14" class="edge"><title>Node208&#45;&gt;Node218</title>
<path fill="none" stroke="midnightblue" d="M72.6507,-278.655C77.8462,-230.923 98.4779,-108.984 176,-58.2837 252.661,-8.14593 370.223,-52.6973 416.408,-73.7233"/>
<polygon fill="midnightblue" stroke="midnightblue" points="69.1653,-278.337 71.6775,-288.629 76.1322,-279.016 69.1653,-278.337"/>
</g>
<!-- Node219 -->
<g id="node12" class="node"><title>Node219</title>
<g id="a_node12"><a xlink:href="../../d4/dc8/class_wi_fi_manager.html#a94fb1a8fcfbd0d02714c69138bf72f9c" target="_top" xlink:title="WiFiManager::handleReset">
<polygon fill="white" stroke="black" points="369.5,-13.7837 369.5,-32.7837 504.5,-32.7837 504.5,-13.7837 369.5,-13.7837"/>
<text text-anchor="middle" x="437" y="-20.7837" font-family="Helvetica,sans-Serif" font-size="10.00">WiFiManager::handleReset</text>
</a>
</g>
</g>
<!-- Node208&#45;&gt;Node219 -->
<g id="edge16" class="edge"><title>Node208&#45;&gt;Node219</title>
<path fill="none" stroke="midnightblue" d="M71.8936,-278.501C75.3849,-227.467 92.4777,-91.2475 176,-32.2837 244.076,15.7758 349.074,-0.763251 402.415,-13.7508"/>
<polygon fill="midnightblue" stroke="midnightblue" points="68.3959,-278.363 71.3121,-288.548 75.3842,-278.767 68.3959,-278.363"/>
</g>
<!-- Node220 -->
<g id="node13" class="node"><title>Node220</title>
<g id="a_node13"><a xlink:href="../../d4/dc8/class_wi_fi_manager.html#a57a9048175c1918340ab9d0a2c53601f" target="_top" xlink:title="WiFiManager::handleWifi">
<polygon fill="white" stroke="black" points="374,-345.784 374,-364.784 500,-364.784 500,-345.784 374,-345.784"/>
<text text-anchor="middle" x="437" y="-352.784" font-family="Helvetica,sans-Serif" font-size="10.00">WiFiManager::handleWifi</text>
</a>
</g>
</g>
<!-- Node208&#45;&gt;Node220 -->
<g id="edge19" class="edge"><title>Node208&#45;&gt;Node220</title>
<path fill="none" stroke="midnightblue" d="M101.687,-311.921C122.282,-320.438 150.256,-330.794 176,-336.284 242.617,-350.489 320.767,-354.559 373.866,-355.501"/>
<polygon fill="midnightblue" stroke="midnightblue" points="102.785,-308.586 92.2109,-307.918 100.06,-315.034 102.785,-308.586"/>
</g>
<!-- Node221 -->
<g id="node14" class="node"><title>Node221</title>
<g id="a_node14"><a xlink:href="../../d4/dc8/class_wi_fi_manager.html#a2a8c2b60aa86dfdeab8a1a90f7122dc7" target="_top" xlink:title="WiFiManager::handleWifiSave">
<polygon fill="white" stroke="black" points="176,-193.784 176,-212.784 325,-212.784 325,-193.784 176,-193.784"/>
<text text-anchor="middle" x="250.5" y="-200.784" font-family="Helvetica,sans-Serif" font-size="10.00">WiFiManager::handleWifiSave</text>
</a>
</g>
</g>
<!-- Node208&#45;&gt;Node221 -->
<g id="edge21" class="edge"><title>Node208&#45;&gt;Node221</title>
<path fill="none" stroke="midnightblue" d="M90.833,-282.385C111.214,-266.662 144.35,-242.772 176,-227.284 187.816,-221.501 201.357,-216.629 213.57,-212.817"/>
<polygon fill="midnightblue" stroke="midnightblue" points="88.6405,-279.656 82.9209,-288.574 92.9537,-285.169 88.6405,-279.656"/>
</g>
<!-- Node222 -->
<g id="node15" class="node"><title>Node222</title>
<g id="a_node15"><a xlink:href="../../d4/dc8/class_wi_fi_manager.html#aa248b818eee0423b14a88c637f7c4637" target="_top" xlink:title="WiFiManager::optionalIPFrom\lString">
<polygon fill="white" stroke="black" points="177.5,-106.284 177.5,-136.284 323.5,-136.284 323.5,-106.284 177.5,-106.284"/>
<text text-anchor="start" x="185.5" y="-124.284" font-family="Helvetica,sans-Serif" font-size="10.00">WiFiManager::optionalIPFrom</text>
<text text-anchor="middle" x="250.5" y="-113.284" font-family="Helvetica,sans-Serif" font-size="10.00">String</text>
</a>
</g>
</g>
<!-- Node208&#45;&gt;Node222 -->
<g id="edge23" class="edge"><title>Node208&#45;&gt;Node222</title>
<path fill="none" stroke="midnightblue" d="M80.0006,-279.425C95.5556,-248.655 130.247,-187.46 176,-151.284 183.568,-145.3 192.492,-140.345 201.466,-136.305"/>
<polygon fill="midnightblue" stroke="midnightblue" points="76.7532,-278.097 75.4707,-288.614 83.0317,-281.193 76.7532,-278.097"/>
</g>
<!-- Node223 -->
<g id="node16" class="node"><title>Node223</title>
<g id="a_node16"><a xlink:href="../../d4/dc8/class_wi_fi_manager.html#a0027749816b6c66bc845d7c5db760a33" target="_top" xlink:title="WiFiManager::resetSettings">
<polygon fill="white" stroke="black" points="181.5,-67.7837 181.5,-86.7837 319.5,-86.7837 319.5,-67.7837 181.5,-67.7837"/>
<text text-anchor="middle" x="250.5" y="-74.7837" font-family="Helvetica,sans-Serif" font-size="10.00">WiFiManager::resetSettings</text>
</a>
</g>
</g>
<!-- Node208&#45;&gt;Node223 -->
<g id="edge24" class="edge"><title>Node208&#45;&gt;Node223</title>
<path fill="none" stroke="midnightblue" d="M75.4615,-278.732C85.756,-238.199 115.093,-144.756 176,-96.2837 180.847,-92.4263 186.392,-89.3448 192.214,-86.8845"/>
<polygon fill="midnightblue" stroke="midnightblue" points="72.0551,-277.928 73.1006,-288.471 78.8581,-279.577 72.0551,-277.928"/>
</g>
<!-- Node224 -->
<g id="node17" class="node"><title>Node224</title>
<g id="a_node17"><a xlink:href="../../d4/dc8/class_wi_fi_manager.html#abcc403fc26a47f7a111d1271f1d0869e" target="_top" xlink:title="WiFiManager::startWPS">
<polygon fill="white" stroke="black" points="189,-459.784 189,-478.784 312,-478.784 312,-459.784 189,-459.784"/>
<text text-anchor="middle" x="250.5" y="-466.784" font-family="Helvetica,sans-Serif" font-size="10.00">WiFiManager::startWPS</text>
</a>
</g>
</g>
<!-- Node208&#45;&gt;Node224 -->
<g id="edge27" class="edge"><title>Node208&#45;&gt;Node224</title>
<path fill="none" stroke="midnightblue" d="M79.7154,-317.516C94.8604,-348.825 128.976,-410.775 176,-445.284 184.549,-451.558 194.822,-456.245 204.939,-459.727"/>
<polygon fill="midnightblue" stroke="midnightblue" points="82.7374,-315.718 75.3152,-308.157 76.4026,-318.696 82.7374,-315.718"/>
</g>
<!-- Node225 -->
<g id="node18" class="node"><title>Node225</title>
<g id="a_node18"><a xlink:href="../../d4/dc8/class_wi_fi_manager.html#a89a3f33997aa662ad223d6c150c1eede" target="_top" xlink:title="WiFiManager::waitForConnect\lResult">
<polygon fill="white" stroke="black" points="176,-536.284 176,-566.284 325,-566.284 325,-536.284 176,-536.284"/>
<text text-anchor="start" x="184" y="-554.284" font-family="Helvetica,sans-Serif" font-size="10.00">WiFiManager::waitForConnect</text>
<text text-anchor="middle" x="250.5" y="-543.284" font-family="Helvetica,sans-Serif" font-size="10.00">Result</text>
</a>
</g>
</g>
<!-- Node208&#45;&gt;Node225 -->
<g id="edge29" class="edge"><title>Node208&#45;&gt;Node225</title>
<path fill="none" stroke="midnightblue" d="M75.219,-318.274C85.2542,-361.17 114.448,-462.883 176,-521.284 182.399,-527.355 190.192,-532.266 198.282,-536.216"/>
<polygon fill="midnightblue" stroke="midnightblue" points="78.5767,-317.251 72.9782,-308.256 71.7455,-318.779 78.5767,-317.251"/>
</g>
<!-- Node212 -->
<g id="node5" class="node"><title>Node212</title>
<g id="a_node5"><a xlink:href="../../d4/dc8/class_wi_fi_manager.html#a7d01f7de3e4b76acdabffac79fa3d0ab" target="_top" xlink:title="WiFiManager::handleNotFound">
<polygon fill="white" stroke="black" points="361,-307.784 361,-326.784 513,-326.784 513,-307.784 361,-307.784"/>
<text text-anchor="middle" x="437" y="-314.784" font-family="Helvetica,sans-Serif" font-size="10.00">WiFiManager::handleNotFound</text>
</a>
</g>
</g>
<!-- Node211&#45;&gt;Node212 -->
<g id="edge4" class="edge"><title>Node211&#45;&gt;Node212</title>
<path fill="none" stroke="midnightblue" d="M329.458,-317.284C339.867,-317.284 350.524,-317.284 360.882,-317.284"/>
<polygon fill="midnightblue" stroke="midnightblue" points="329.153,-313.784 319.153,-317.284 329.153,-320.784 329.153,-313.784"/>
</g>
<!-- Node211&#45;&gt;Node215 -->
<g id="edge7" class="edge"><title>Node211&#45;&gt;Node215</title>
<path fill="none" stroke="midnightblue" d="M307.867,-305.674C334.107,-300.27 364.936,-293.92 389.778,-288.804"/>
<polygon fill="midnightblue" stroke="midnightblue" points="307.145,-302.249 298.057,-307.695 308.558,-309.105 307.145,-302.249"/>
</g>
<!-- Node212&#45;&gt;Node213 -->
<g id="edge5" class="edge"><title>Node212&#45;&gt;Node213</title>
<path fill="none" stroke="midnightblue" d="M493.247,-305.022C499.984,-303.02 506.706,-300.774 513,-298.284 541.696,-286.929 572.375,-269.138 592.714,-256.454"/>
<polygon fill="midnightblue" stroke="midnightblue" points="492.096,-301.709 483.412,-307.779 493.985,-308.449 492.096,-301.709"/>
</g>
<!-- Node213&#45;&gt;Node214 -->
<g id="edge6" class="edge"><title>Node213&#45;&gt;Node214</title>
<path fill="none" stroke="midnightblue" d="M642.199,-263.442C676.442,-294.797 738.135,-351.287 767.543,-378.215"/>
<polygon fill="midnightblue" stroke="midnightblue" points="644.262,-260.586 634.524,-256.414 639.535,-265.748 644.262,-260.586"/>
</g>
<!-- Node215&#45;&gt;Node213 -->
<g id="edge8" class="edge"><title>Node215&#45;&gt;Node213</title>
<path fill="none" stroke="midnightblue" d="M492.754,-267.595C510.921,-263.716 531.333,-259.359 550.241,-255.322"/>
<polygon fill="midnightblue" stroke="midnightblue" points="491.966,-264.184 482.917,-269.695 493.427,-271.03 491.966,-264.184"/>
</g>
<!-- Node216&#45;&gt;Node210 -->
<g id="edge10" class="edge"><title>Node216&#45;&gt;Node210</title>
<path fill="none" stroke="midnightblue" d="M492.716,-457.603C517.959,-452.214 547.545,-445.898 571.406,-440.804"/>
<polygon fill="midnightblue" stroke="midnightblue" points="491.966,-454.184 482.917,-459.695 493.427,-461.03 491.966,-454.184"/>
</g>
<!-- Node216&#45;&gt;Node214 -->
<g id="edge11" class="edge"><title>Node216&#45;&gt;Node214</title>
<path fill="none" stroke="midnightblue" d="M513.221,-472.052C563.005,-471.822 629.16,-467.532 685,-450.284 714.561,-441.153 744.857,-421.984 764.015,-408.401"/>
<polygon fill="midnightblue" stroke="midnightblue" points="513.176,-468.552 503.173,-472.044 513.17,-475.552 513.176,-468.552"/>
</g>
<!-- Node217&#45;&gt;Node213 -->
<g id="edge13" class="edge"><title>Node217&#45;&gt;Node213</title>
<path fill="none" stroke="midnightblue" d="M481.422,-177.896C491.878,-181.284 502.933,-185.162 513,-189.284 539.509,-200.137 568.541,-215.091 589.006,-226.177"/>
<polygon fill="midnightblue" stroke="midnightblue" points="482.223,-174.478 471.633,-174.806 480.116,-181.154 482.223,-174.478"/>
</g>
<!-- Node218&#45;&gt;Node213 -->
<g id="edge15" class="edge"><title>Node218&#45;&gt;Node213</title>
<path fill="none" stroke="midnightblue" d="M457.595,-99.3234C472.852,-111.912 494.476,-129.977 513,-146.284 544.406,-173.931 580.106,-207.312 600.153,-226.241"/>
<polygon fill="midnightblue" stroke="midnightblue" points="459.781,-96.5891 449.835,-92.9388 455.334,-101.995 459.781,-96.5891"/>
</g>
<!-- Node219&#45;&gt;Node213 -->
<g id="edge17" class="edge"><title>Node219&#45;&gt;Node213</title>
<path fill="none" stroke="midnightblue" d="M472.372,-37.1764C486.129,-43.9133 501.424,-53.0131 513,-64.2837 563.693,-113.639 597.813,-193.217 610.494,-226.207"/>
<polygon fill="midnightblue" stroke="midnightblue" points="473.701,-33.9348 463.158,-32.8922 470.75,-40.2822 473.701,-33.9348"/>
</g>
<!-- Node220&#45;&gt;Node213 -->
<g id="edge20" class="edge"><title>Node220&#45;&gt;Node213</title>
<path fill="none" stroke="midnightblue" d="M499.694,-342.353C504.304,-340.577 508.793,-338.563 513,-336.284 551.072,-315.655 585.996,-277.784 603.744,-256.622"/>
<polygon fill="midnightblue" stroke="midnightblue" points="498.411,-339.093 490.111,-345.677 500.705,-345.707 498.411,-339.093"/>
</g>
<!-- Node221&#45;&gt;Node213 -->
<g id="edge22" class="edge"><title>Node221&#45;&gt;Node213</title>
<path fill="none" stroke="midnightblue" d="M335.192,-210.03C386.559,-214.403 453.653,-220.53 513,-227.284 525.103,-228.661 537.985,-230.285 550.393,-231.931"/>
<polygon fill="midnightblue" stroke="midnightblue" points="335.395,-206.535 325.136,-209.18 334.805,-213.51 335.395,-206.535"/>
</g>
<!-- Node224&#45;&gt;Node216 -->
<g id="edge28" class="edge"><title>Node224&#45;&gt;Node216</title>
<path fill="none" stroke="midnightblue" d="M322.474,-469.284C338.385,-469.284 355.189,-469.284 370.849,-469.284"/>
<polygon fill="midnightblue" stroke="midnightblue" points="322.168,-465.784 312.168,-469.284 322.168,-472.784 322.168,-465.784"/>
</g>
<!-- Node225&#45;&gt;Node216 -->
<g id="edge30" class="edge"><title>Node225&#45;&gt;Node216</title>
<path fill="none" stroke="midnightblue" d="M298.768,-532.403C307.522,-528.789 316.563,-524.979 325,-521.284 357.358,-507.111 394.424,-489.454 416.487,-478.791"/>
<polygon fill="midnightblue" stroke="midnightblue" points="297.349,-529.201 289.423,-536.232 300.004,-535.679 297.349,-529.201"/>
</g>
</g>
</svg>
