<?xml version="1.0" encoding="UTF-8" standalone="no"?>
<!DOCTYPE svg PUBLIC "-//W3C//DTD SVG 1.1//EN"
 "http://www.w3.org/Graphics/SVG/1.1/DTD/svg11.dtd">
<!-- Generated by graphviz version 2.38.0 (20140413.2041)
 -->
<!-- Title: WiFiManager::isIp Pages: 1 -->
<svg width="798pt" height="66pt"
 viewBox="0.00 0.00 798.00 66.00" xmlns="http://www.w3.org/2000/svg" xmlns:xlink="http://www.w3.org/1999/xlink">
<g id="graph0" class="graph" transform="scale(1 1) rotate(0) translate(4 62)">
<title>WiFiManager::isIp</title>
<polygon fill="white" stroke="none" points="-4,4 -4,-62 794,-62 794,4 -4,4"/>
<!-- Node194 -->
<g id="node1" class="node"><title>Node194</title>
<polygon fill="#bfbfbf" stroke="black" points="0,-19.5 0,-38.5 96,-38.5 96,-19.5 0,-19.5"/>
<text text-anchor="middle" x="48" y="-26.5" font-family="Helvetica,sans-Serif" font-size="10.00">WiFiManager::isIp</text>
</g>
<!-- Node195 -->
<g id="node2" class="node"><title>Node195</title>
<g id="a_node2"><a xlink:href="../../d4/dc8/class_wi_fi_manager.html#a4ef4298deb224212e5242c456669a973" target="_top" xlink:title="WiFiManager::captivePortal">
<polygon fill="white" stroke="black" points="132,-19.5 132,-38.5 269,-38.5 269,-19.5 132,-19.5"/>
<text text-anchor="middle" x="200.5" y="-26.5" font-family="Helvetica,sans-Serif" font-size="10.00">WiFiManager::captivePortal</text>
</a>
</g>
</g>
<!-- Node194&#45;&gt;Node195 -->
<g id="edge1" class="edge"><title>Node194&#45;&gt;Node195</title>
<path fill="none" stroke="midnightblue" d="M106.216,-29C114.574,-29 123.249,-29 131.792,-29"/>
<polygon fill="midnightblue" stroke="midnightblue" points="106.206,-25.5001 96.2062,-29 106.206,-32.5001 106.206,-25.5001"/>
</g>
<!-- Node196 -->
<g id="node3" class="node"><title>Node196</title>
<g id="a_node3"><a xlink:href="../../d4/dc8/class_wi_fi_manager.html#a7d01f7de3e4b76acdabffac79fa3d0ab" target="_top" xlink:title="WiFiManager::handleNotFound">
<polygon fill="white" stroke="black" points="305,-38.5 305,-57.5 457,-57.5 457,-38.5 305,-38.5"/>
<text text-anchor="middle" x="381" y="-45.5" font-family="Helvetica,sans-Serif" font-size="10.00">WiFiManager::handleNotFound</text>
</a>
</g>
</g>
<!-- Node195&#45;&gt;Node196 -->
<g id="edge2" class="edge"><title>Node195&#45;&gt;Node196</title>
<path fill="none" stroke="midnightblue" d="M279.439,-37.2961C287.875,-38.194 296.449,-39.1066 304.851,-40.0009"/>
<polygon fill="midnightblue" stroke="midnightblue" points="279.552,-33.7884 269.238,-36.2102 278.811,-40.7491 279.552,-33.7884"/>
</g>
<!-- Node199 -->
<g id="node6" class="node"><title>Node199</title>
<g id="a_node6"><a xlink:href="../../d4/dc8/class_wi_fi_manager.html#a47e4c7df7478f690c53ff9f5125c9760" target="_top" xlink:title="WiFiManager::handleRoot">
<polygon fill="white" stroke="black" points="316,-0.5 316,-19.5 446,-19.5 446,-0.5 316,-0.5"/>
<text text-anchor="middle" x="381" y="-7.5" font-family="Helvetica,sans-Serif" font-size="10.00">WiFiManager::handleRoot</text>
</a>
</g>
</g>
<!-- Node195&#45;&gt;Node199 -->
<g id="edge5" class="edge"><title>Node195&#45;&gt;Node199</title>
<path fill="none" stroke="midnightblue" d="M279.378,-20.7105C291.554,-19.4144 304.018,-18.0878 315.842,-16.8292"/>
<polygon fill="midnightblue" stroke="midnightblue" points="278.811,-17.2509 269.238,-21.7898 279.552,-24.2116 278.811,-17.2509"/>
</g>
<!-- Node197 -->
<g id="node4" class="node"><title>Node197</title>
<g id="a_node4"><a xlink:href="../../d4/dc8/class_wi_fi_manager.html#a1743325d0dd86d011df96b22d2a0ddd6" target="_top" xlink:title="WiFiManager::setupConfig\lPortal">
<polygon fill="white" stroke="black" points="493,-14 493,-44 626,-44 626,-14 493,-14"/>
<text text-anchor="start" x="501" y="-32" font-family="Helvetica,sans-Serif" font-size="10.00">WiFiManager::setupConfig</text>
<text text-anchor="middle" x="559.5" y="-21" font-family="Helvetica,sans-Serif" font-size="10.00">Portal</text>
</a>
</g>
</g>
<!-- Node196&#45;&gt;Node197 -->
<g id="edge3" class="edge"><title>Node196&#45;&gt;Node197</title>
<path fill="none" stroke="midnightblue" d="M467.22,-38.8262C475.865,-37.8955 484.55,-36.9606 492.941,-36.0573"/>
<polygon fill="midnightblue" stroke="midnightblue" points="466.676,-35.3645 457.108,-39.9147 467.425,-42.3242 466.676,-35.3645"/>
</g>
<!-- Node198 -->
<g id="node5" class="node"><title>Node198</title>
<g id="a_node5"><a xlink:href="../../d4/dc8/class_wi_fi_manager.html#afaca5021edffb4d9a5bd39f7b0f7a686" target="_top" xlink:title="WiFiManager::startConfig\lPortal">
<polygon fill="white" stroke="black" points="662,-14 662,-44 790,-44 790,-14 662,-14"/>
<text text-anchor="start" x="670" y="-32" font-family="Helvetica,sans-Serif" font-size="10.00">WiFiManager::startConfig</text>
<text text-anchor="middle" x="726" y="-21" font-family="Helvetica,sans-Serif" font-size="10.00">Portal</text>
</a>
</g>
</g>
<!-- Node197&#45;&gt;Node198 -->
<g id="edge4" class="edge"><title>Node197&#45;&gt;Node198</title>
<path fill="none" stroke="midnightblue" d="M636.706,-29C645.16,-29 653.699,-29 661.964,-29"/>
<polygon fill="midnightblue" stroke="midnightblue" points="636.461,-25.5001 626.461,-29 636.461,-32.5001 636.461,-25.5001"/>
</g>
<!-- Node199&#45;&gt;Node197 -->
<g id="edge6" class="edge"><title>Node199&#45;&gt;Node197</title>
<path fill="none" stroke="midnightblue" d="M456.308,-17.9991C468.443,-19.3055 480.939,-20.6507 492.847,-21.9325"/>
<polygon fill="midnightblue" stroke="midnightblue" points="456.537,-14.5037 446.22,-16.9132 455.788,-21.4635 456.537,-14.5037"/>
</g>
</g>
</svg>
