<?xml version="1.0" encoding="UTF-8" standalone="no"?>
<!DOCTYPE svg PUBLIC "-//W3C//DTD SVG 1.1//EN"
 "http://www.w3.org/Graphics/SVG/1.1/DTD/svg11.dtd">
<!-- Generated by graphviz version 2.38.0 (20140413.2041)
 -->
<!-- Title: WiFiManager::handleFileRead Pages: 1 -->
<svg width="677pt" height="53pt"
 viewBox="0.00 0.00 677.00 52.50" xmlns="http://www.w3.org/2000/svg" xmlns:xlink="http://www.w3.org/1999/xlink">
<g id="graph0" class="graph" transform="scale(1 1) rotate(0) translate(4 48.5)">
<title>WiFiManager::handleFileRead</title>
<polygon fill="white" stroke="none" points="-4,4 -4,-48.5 673,-48.5 673,4 -4,4"/>
<!-- Node73 -->
<g id="node1" class="node"><title>Node73</title>
<polygon fill="#bfbfbf" stroke="black" points="0,-19.5 0,-38.5 148,-38.5 148,-19.5 0,-19.5"/>
<text text-anchor="middle" x="74" y="-26.5" font-family="Helvetica,sans-Serif" font-size="10.00">WiFiManager::handleFileRead</text>
</g>
<!-- Node74 -->
<g id="node2" class="node"><title>Node74</title>
<g id="a_node2"><a xlink:href="../../d4/dc8/class_wi_fi_manager.html#a1743325d0dd86d011df96b22d2a0ddd6" target="_top" xlink:title="WiFiManager::setupConfig\lPortal">
<polygon fill="white" stroke="black" points="372,-14 372,-44 505,-44 505,-14 372,-14"/>
<text text-anchor="start" x="380" y="-32" font-family="Helvetica,sans-Serif" font-size="10.00">WiFiManager::setupConfig</text>
<text text-anchor="middle" x="438.5" y="-21" font-family="Helvetica,sans-Serif" font-size="10.00">Portal</text>
</a>
</g>
</g>
<!-- Node73&#45;&gt;Node74 -->
<g id="edge1" class="edge"><title>Node73&#45;&gt;Node74</title>
<path fill="none" stroke="midnightblue" d="M158.553,-29C223.403,-29 312.05,-29 371.864,-29"/>
<polygon fill="midnightblue" stroke="midnightblue" points="158.357,-25.5001 148.357,-29 158.357,-32.5001 158.357,-25.5001"/>
</g>
<!-- Node76 -->
<g id="node4" class="node"><title>Node76</title>
<g id="a_node4"><a xlink:href="../../d4/dc8/class_wi_fi_manager.html#a7d01f7de3e4b76acdabffac79fa3d0ab" target="_top" xlink:title="WiFiManager::handleNotFound">
<polygon fill="white" stroke="black" points="184,-0.5 184,-19.5 336,-19.5 336,-0.5 184,-0.5"/>
<text text-anchor="middle" x="260" y="-7.5" font-family="Helvetica,sans-Serif" font-size="10.00">WiFiManager::handleNotFound</text>
</a>
</g>
</g>
<!-- Node73&#45;&gt;Node76 -->
<g id="edge3" class="edge"><title>Node73&#45;&gt;Node76</title>
<path fill="none" stroke="midnightblue" d="M158.227,-20.406C166.78,-19.5227 175.435,-18.6289 183.894,-17.7555"/>
<polygon fill="midnightblue" stroke="midnightblue" points="157.838,-16.9274 148.25,-21.4361 158.557,-23.8904 157.838,-16.9274"/>
</g>
<!-- Node75 -->
<g id="node3" class="node"><title>Node75</title>
<g id="a_node3"><a xlink:href="../../d4/dc8/class_wi_fi_manager.html#afaca5021edffb4d9a5bd39f7b0f7a686" target="_top" xlink:title="WiFiManager::startConfig\lPortal">
<polygon fill="white" stroke="black" points="541,-14 541,-44 669,-44 669,-14 541,-14"/>
<text text-anchor="start" x="549" y="-32" font-family="Helvetica,sans-Serif" font-size="10.00">WiFiManager::startConfig</text>
<text text-anchor="middle" x="605" y="-21" font-family="Helvetica,sans-Serif" font-size="10.00">Portal</text>
</a>
</g>
</g>
<!-- Node74&#45;&gt;Node75 -->
<g id="edge2" class="edge"><title>Node74&#45;&gt;Node75</title>
<path fill="none" stroke="midnightblue" d="M515.706,-29C524.16,-29 532.699,-29 540.964,-29"/>
<polygon fill="midnightblue" stroke="midnightblue" points="515.461,-25.5001 505.461,-29 515.461,-32.5001 515.461,-25.5001"/>
</g>
<!-- Node76&#45;&gt;Node74 -->
<g id="edge4" class="edge"><title>Node76&#45;&gt;Node74</title>
<path fill="none" stroke="midnightblue" d="M346.22,-19.1738C354.865,-20.1045 363.55,-21.0394 371.941,-21.9427"/>
<polygon fill="midnightblue" stroke="midnightblue" points="346.425,-15.6758 336.108,-18.0853 345.676,-22.6355 346.425,-15.6758"/>
</g>
</g>
</svg>
