<?xml version="1.0" encoding="UTF-8" standalone="no"?>
<!DOCTYPE svg PUBLIC "-//W3C//DTD SVG 1.1//EN"
 "http://www.w3.org/Graphics/SVG/1.1/DTD/svg11.dtd">
<!-- Generated by graphviz version 2.38.0 (20140413.2041)
 -->
<!-- Title: WiFiManager::handleWifi Pages: 1 -->
<svg width="329pt" height="116pt"
 viewBox="0.00 0.00 329.00 116.00" xmlns="http://www.w3.org/2000/svg" xmlns:xlink="http://www.w3.org/1999/xlink">
<g id="graph0" class="graph" transform="scale(1 1) rotate(0) translate(4 112)">
<title>WiFiManager::handleWifi</title>
<polygon fill="white" stroke="none" points="-4,4 -4,-112 325,-112 325,4 -4,4"/>
<!-- Node135 -->
<g id="node1" class="node"><title>Node135</title>
<polygon fill="#bfbfbf" stroke="black" points="0,-44.5 0,-63.5 126,-63.5 126,-44.5 0,-44.5"/>
<text text-anchor="middle" x="63" y="-51.5" font-family="Helvetica,sans-Serif" font-size="10.00">WiFiManager::handleWifi</text>
</g>
<!-- Node136 -->
<g id="node2" class="node"><title>Node136</title>
<g id="a_node2"><a xlink:href="../../d4/dc8/class_wi_fi_manager.html#ae5f595c670ccbcf9a191baf50f5c7c26" target="_top" xlink:title="WiFiManager::DEBUG_WM">
<polygon fill="white" stroke="black" points="171.5,-88.5 171.5,-107.5 311.5,-107.5 311.5,-88.5 171.5,-88.5"/>
<text text-anchor="middle" x="241.5" y="-95.5" font-family="Helvetica,sans-Serif" font-size="10.00">WiFiManager::DEBUG_WM</text>
</a>
</g>
</g>
<!-- Node135&#45;&gt;Node136 -->
<g id="edge1" class="edge"><title>Node135&#45;&gt;Node136</title>
<path fill="none" stroke="midnightblue" d="M101.201,-63.6048C119.5,-68.3 141.892,-74.0021 162,-79 171.292,-81.3095 181.211,-83.7387 190.763,-86.0595"/>
<polygon fill="midnightblue" stroke="midnightblue" points="189.999,-89.4755 200.542,-88.4291 191.647,-82.6724 189.999,-89.4755"/>
</g>
<!-- Node137 -->
<g id="node3" class="node"><title>Node137</title>
<g id="a_node3"><a xlink:href="../../d7/d08/class_wi_fi_manager_parameter.html#a596273c189eb40107500cee3ad31b13b" target="_top" xlink:title="WiFiManagerParameter\l::getCustomHTML">
<polygon fill="white" stroke="black" points="182,-39 182,-69 301,-69 301,-39 182,-39"/>
<text text-anchor="start" x="190" y="-57" font-family="Helvetica,sans-Serif" font-size="10.00">WiFiManagerParameter</text>
<text text-anchor="middle" x="241.5" y="-46" font-family="Helvetica,sans-Serif" font-size="10.00">::getCustomHTML</text>
</a>
</g>
</g>
<!-- Node135&#45;&gt;Node137 -->
<g id="edge2" class="edge"><title>Node135&#45;&gt;Node137</title>
<path fill="none" stroke="midnightblue" d="M126.227,-54C140.904,-54 156.635,-54 171.587,-54"/>
<polygon fill="midnightblue" stroke="midnightblue" points="171.791,-57.5001 181.791,-54 171.791,-50.5001 171.791,-57.5001"/>
</g>
<!-- Node138 -->
<g id="node4" class="node"><title>Node138</title>
<g id="a_node4"><a xlink:href="../../d4/dc8/class_wi_fi_manager.html#ae71cfd6bd70ada2ca02e1d20b152d0e5" target="_top" xlink:title="WiFiManager::getRSSIasQuality">
<polygon fill="white" stroke="black" points="162,-0.5 162,-19.5 321,-19.5 321,-0.5 162,-0.5"/>
<text text-anchor="middle" x="241.5" y="-7.5" font-family="Helvetica,sans-Serif" font-size="10.00">WiFiManager::getRSSIasQuality</text>
</a>
</g>
</g>
<!-- Node135&#45;&gt;Node138 -->
<g id="edge3" class="edge"><title>Node135&#45;&gt;Node138</title>
<path fill="none" stroke="midnightblue" d="M102.298,-44.4527C128.78,-37.8508 164.211,-29.0181 192.568,-21.949"/>
<polygon fill="midnightblue" stroke="midnightblue" points="193.42,-25.3437 202.277,-19.5287 191.727,-18.5516 193.42,-25.3437"/>
</g>
</g>
</svg>
