<?xml version="1.0" encoding="UTF-8" standalone="no"?>
<!DOCTYPE svg PUBLIC "-//W3C//DTD SVG 1.1//EN"
 "http://www.w3.org/Graphics/SVG/1.1/DTD/svg11.dtd">
<!-- Generated by graphviz version 2.38.0 (20140413.2041)
 -->
<!-- Title: WiFiManager::setConfigPortalTimeout Pages: 1 -->
<svg width="893pt" height="66pt"
 viewBox="0.00 0.00 893.00 66.00" xmlns="http://www.w3.org/2000/svg" xmlns:xlink="http://www.w3.org/1999/xlink">
<g id="graph0" class="graph" transform="scale(1 1) rotate(0) translate(4 62)">
<title>WiFiManager::setConfigPortalTimeout</title>
<polygon fill="white" stroke="none" points="-4,4 -4,-62 889,-62 889,4 -4,4"/>
<!-- Node46 -->
<g id="node1" class="node"><title>Node46</title>
<polygon fill="#bfbfbf" stroke="black" points="0,-14 0,-44 148,-44 148,-14 0,-14"/>
<text text-anchor="start" x="8" y="-32" font-family="Helvetica,sans-Serif" font-size="10.00">WiFiManager::setConfigPortal</text>
<text text-anchor="middle" x="74" y="-21" font-family="Helvetica,sans-Serif" font-size="10.00">Timeout</text>
</g>
<!-- Node47 -->
<g id="node2" class="node"><title>Node47</title>
<g id="a_node2"><a xlink:href="../../d4/dc8/class_wi_fi_manager.html#aa6493d59c284ff245edb767ff684756d" target="_top" xlink:title="WiFiManager::setTimeout">
<polygon fill="white" stroke="black" points="184,-19.5 184,-38.5 313,-38.5 313,-19.5 184,-19.5"/>
<text text-anchor="middle" x="248.5" y="-26.5" font-family="Helvetica,sans-Serif" font-size="10.00">WiFiManager::setTimeout</text>
</a>
</g>
</g>
<!-- Node46&#45;&gt;Node47 -->
<g id="edge1" class="edge"><title>Node46&#45;&gt;Node47</title>
<path fill="none" stroke="midnightblue" d="M158.21,-29C166.808,-29 175.446,-29 183.782,-29"/>
<polygon fill="midnightblue" stroke="midnightblue" points="158.156,-25.5001 148.156,-29 158.155,-32.5001 158.156,-25.5001"/>
</g>
<!-- Node48 -->
<g id="node3" class="node"><title>Node48</title>
<g id="a_node3"><a xlink:href="../../d7/d29/class_cool_wifi.html#a7c857f27161782f5ef1d62d552aff971" target="_top" xlink:title="CoolWifi::connectAP">
<polygon fill="white" stroke="black" points="349,-19.5 349,-38.5 457,-38.5 457,-19.5 349,-19.5"/>
<text text-anchor="middle" x="403" y="-26.5" font-family="Helvetica,sans-Serif" font-size="10.00">CoolWifi::connectAP</text>
</a>
</g>
</g>
<!-- Node47&#45;&gt;Node48 -->
<g id="edge2" class="edge"><title>Node47&#45;&gt;Node48</title>
<path fill="none" stroke="midnightblue" d="M323.556,-29C332.01,-29 340.5,-29 348.609,-29"/>
<polygon fill="midnightblue" stroke="midnightblue" points="323.29,-25.5001 313.29,-29 323.29,-32.5001 323.29,-25.5001"/>
</g>
<!-- Node49 -->
<g id="node4" class="node"><title>Node49</title>
<g id="a_node4"><a xlink:href="../../d7/d29/class_cool_wifi.html#ad060353050f40d032a2dbf9e54a768bf" target="_top" xlink:title="CoolWifi::connect">
<polygon fill="white" stroke="black" points="493,-38.5 493,-57.5 588,-57.5 588,-38.5 493,-38.5"/>
<text text-anchor="middle" x="540.5" y="-45.5" font-family="Helvetica,sans-Serif" font-size="10.00">CoolWifi::connect</text>
</a>
</g>
</g>
<!-- Node48&#45;&gt;Node49 -->
<g id="edge3" class="edge"><title>Node48&#45;&gt;Node49</title>
<path fill="none" stroke="midnightblue" d="M467.16,-37.8564C475.742,-39.0598 484.423,-40.277 492.648,-41.4303"/>
<polygon fill="midnightblue" stroke="midnightblue" points="467.553,-34.3774 457.164,-36.4548 466.581,-41.3096 467.553,-34.3774"/>
</g>
<!-- Node52 -->
<g id="node7" class="node"><title>Node52</title>
<g id="a_node7"><a xlink:href="../../d7/df9/class_cool_board.html#ae6b5e1274d760462290192acea4adca8" target="_top" xlink:title="CoolBoard::offLineMode">
<polygon fill="white" stroke="black" points="763,-0.5 763,-19.5 885,-19.5 885,-0.5 763,-0.5"/>
<text text-anchor="middle" x="824" y="-7.5" font-family="Helvetica,sans-Serif" font-size="10.00">CoolBoard::offLineMode</text>
</a>
</g>
</g>
<!-- Node48&#45;&gt;Node52 -->
<g id="edge7" class="edge"><title>Node48&#45;&gt;Node52</title>
<path fill="none" stroke="midnightblue" d="M467.507,-26.1202C547.643,-22.4863 684.454,-16.2825 762.929,-12.724"/>
<polygon fill="midnightblue" stroke="midnightblue" points="466.898,-22.6441 457.067,-26.5936 467.215,-29.637 466.898,-22.6441"/>
</g>
<!-- Node50 -->
<g id="node5" class="node"><title>Node50</title>
<g id="a_node5"><a xlink:href="../../d7/df9/class_cool_board.html#a519de78b807f8ec6463ff484eb925918" target="_top" xlink:title="CoolBoard::connect">
<polygon fill="white" stroke="black" points="624,-38.5 624,-57.5 727,-57.5 727,-38.5 624,-38.5"/>
<text text-anchor="middle" x="675.5" y="-45.5" font-family="Helvetica,sans-Serif" font-size="10.00">CoolBoard::connect</text>
</a>
</g>
</g>
<!-- Node49&#45;&gt;Node50 -->
<g id="edge4" class="edge"><title>Node49&#45;&gt;Node50</title>
<path fill="none" stroke="midnightblue" d="M598.204,-48C606.676,-48 615.364,-48 623.703,-48"/>
<polygon fill="midnightblue" stroke="midnightblue" points="598.017,-44.5001 588.017,-48 598.017,-51.5001 598.017,-44.5001"/>
</g>
<!-- Node51 -->
<g id="node6" class="node"><title>Node51</title>
<g id="a_node6"><a xlink:href="../../d7/df9/class_cool_board.html#acba7c5aef7268b2c0044bdb54d3b9d76" target="_top" xlink:title="CoolBoard::begin">
<polygon fill="white" stroke="black" points="778,-38.5 778,-57.5 870,-57.5 870,-38.5 778,-38.5"/>
<text text-anchor="middle" x="824" y="-45.5" font-family="Helvetica,sans-Serif" font-size="10.00">CoolBoard::begin</text>
</a>
</g>
</g>
<!-- Node50&#45;&gt;Node51 -->
<g id="edge5" class="edge"><title>Node50&#45;&gt;Node51</title>
<path fill="none" stroke="midnightblue" d="M737.472,-48C750.924,-48 764.944,-48 777.648,-48"/>
<polygon fill="midnightblue" stroke="midnightblue" points="737.327,-44.5001 727.327,-48 737.327,-51.5001 737.327,-44.5001"/>
</g>
<!-- Node50&#45;&gt;Node52 -->
<g id="edge6" class="edge"><title>Node50&#45;&gt;Node52</title>
<path fill="none" stroke="midnightblue" d="M723.195,-35.8879C743.599,-30.5956 767.181,-24.4787 786.298,-19.5201"/>
<polygon fill="midnightblue" stroke="midnightblue" points="722.269,-32.5123 713.468,-38.411 724.027,-39.288 722.269,-32.5123"/>
</g>
</g>
</svg>
