<?xml version="1.0" encoding="UTF-8" standalone="no"?>
<!DOCTYPE svg PUBLIC "-//W3C//DTD SVG 1.1//EN"
 "http://www.w3.org/Graphics/SVG/1.1/DTD/svg11.dtd">
<!-- Generated by graphviz version 2.38.0 (20140413.2041)
 -->
<!-- Title: WiFiManager::setupConfigPortal Pages: 1 -->
<svg width="700pt" height="489pt"
 viewBox="0.00 0.00 700.00 489.00" xmlns="http://www.w3.org/2000/svg" xmlns:xlink="http://www.w3.org/1999/xlink">
<g id="graph0" class="graph" transform="scale(1 1) rotate(0) translate(4 485)">
<title>WiFiManager::setupConfigPortal</title>
<polygon fill="white" stroke="none" points="-4,4 -4,-485 696,-485 696,4 -4,4"/>
<!-- Node90 -->
<g id="node1" class="node"><title>Node90</title>
<polygon fill="#bfbfbf" stroke="black" points="0,-266 0,-296 133,-296 133,-266 0,-266"/>
<text text-anchor="start" x="8" y="-284" font-family="Helvetica,sans-Serif" font-size="10.00">WiFiManager::setupConfig</text>
<text text-anchor="middle" x="66.5" y="-273" font-family="Helvetica,sans-Serif" font-size="10.00">Portal</text>
</g>
<!-- Node91 -->
<g id="node2" class="node"><title>Node91</title>
<g id="a_node2"><a xlink:href="../../d4/dc8/class_wi_fi_manager.html#ae5f595c670ccbcf9a191baf50f5c7c26" target="_top" xlink:title="WiFiManager::DEBUG_WM">
<polygon fill="white" stroke="black" points="552,-271.5 552,-290.5 692,-290.5 692,-271.5 552,-271.5"/>
<text text-anchor="middle" x="622" y="-278.5" font-family="Helvetica,sans-Serif" font-size="10.00">WiFiManager::DEBUG_WM</text>
</a>
</g>
</g>
<!-- Node90&#45;&gt;Node91 -->
<g id="edge1" class="edge"><title>Node90&#45;&gt;Node91</title>
<path fill="none" stroke="midnightblue" d="M133.167,-281C235.358,-281 432.084,-281 541.921,-281"/>
<polygon fill="midnightblue" stroke="midnightblue" points="541.948,-284.5 551.948,-281 541.948,-277.5 541.948,-284.5"/>
</g>
<!-- Node92 -->
<g id="node3" class="node"><title>Node92</title>
<g id="a_node3"><a xlink:href="../../d4/dc8/class_wi_fi_manager.html#a9e802fa4ca834a622f058a7176f47806" target="_top" xlink:title="WiFiManager::handleFileRead">
<polygon fill="white" stroke="black" points="171,-290.5 171,-309.5 319,-309.5 319,-290.5 171,-290.5"/>
<text text-anchor="middle" x="245" y="-297.5" font-family="Helvetica,sans-Serif" font-size="10.00">WiFiManager::handleFileRead</text>
</a>
</g>
</g>
<!-- Node90&#45;&gt;Node92 -->
<g id="edge2" class="edge"><title>Node90&#45;&gt;Node92</title>
<path fill="none" stroke="midnightblue" d="M133.222,-288.075C142.219,-289.043 151.551,-290.048 160.808,-291.045"/>
<polygon fill="midnightblue" stroke="midnightblue" points="160.488,-294.53 170.805,-292.121 161.237,-287.57 160.488,-294.53"/>
</g>
<!-- Node94 -->
<g id="node5" class="node"><title>Node94</title>
<g id="a_node5"><a xlink:href="../../d4/dc8/class_wi_fi_manager.html#ac35e46661f8a209d84bba62d9aa43a35" target="_top" xlink:title="WiFiManager::handleInfo">
<polygon fill="white" stroke="black" points="374,-0.5 374,-19.5 499,-19.5 499,-0.5 374,-0.5"/>
<text text-anchor="middle" x="436.5" y="-7.5" font-family="Helvetica,sans-Serif" font-size="10.00">WiFiManager::handleInfo</text>
</a>
</g>
</g>
<!-- Node90&#45;&gt;Node94 -->
<g id="edge5" class="edge"><title>Node90&#45;&gt;Node94</title>
<path fill="none" stroke="midnightblue" d="M71.8608,-265.865C82.5934,-231.221 113.53,-145.493 169,-98 224.281,-50.6693 305.772,-28.6125 364.072,-18.4494"/>
<polygon fill="midnightblue" stroke="midnightblue" points="364.659,-21.8998 373.947,-16.8024 363.508,-14.9952 364.659,-21.8998"/>
</g>
<!-- Node95 -->
<g id="node6" class="node"><title>Node95</title>
<g id="a_node6"><a xlink:href="../../d4/dc8/class_wi_fi_manager.html#a7d01f7de3e4b76acdabffac79fa3d0ab" target="_top" xlink:title="WiFiManager::handleNotFound">
<polygon fill="white" stroke="black" points="169,-442.5 169,-461.5 321,-461.5 321,-442.5 169,-442.5"/>
<text text-anchor="middle" x="245" y="-449.5" font-family="Helvetica,sans-Serif" font-size="10.00">WiFiManager::handleNotFound</text>
</a>
</g>
</g>
<!-- Node90&#45;&gt;Node95 -->
<g id="edge7" class="edge"><title>Node90&#45;&gt;Node95</title>
<path fill="none" stroke="midnightblue" d="M73.2423,-296.221C85.6921,-327.078 118.204,-397.113 169,-433 171.743,-434.938 174.665,-436.678 177.705,-438.241"/>
<polygon fill="midnightblue" stroke="midnightblue" points="176.561,-441.562 187.121,-442.419 179.4,-435.164 176.561,-441.562"/>
</g>
<!-- Node99 -->
<g id="node10" class="node"><title>Node99</title>
<g id="a_node10"><a xlink:href="../../d4/dc8/class_wi_fi_manager.html#a94fb1a8fcfbd0d02714c69138bf72f9c" target="_top" xlink:title="WiFiManager::handleReset">
<polygon fill="white" stroke="black" points="177.5,-347.5 177.5,-366.5 312.5,-366.5 312.5,-347.5 177.5,-347.5"/>
<text text-anchor="middle" x="245" y="-354.5" font-family="Helvetica,sans-Serif" font-size="10.00">WiFiManager::handleReset</text>
</a>
</g>
</g>
<!-- Node90&#45;&gt;Node99 -->
<g id="edge12" class="edge"><title>Node90&#45;&gt;Node99</title>
<path fill="none" stroke="midnightblue" d="M102.371,-296.015C134.371,-309.794 181.371,-330.032 212.322,-343.36"/>
<polygon fill="midnightblue" stroke="midnightblue" points="211.199,-346.687 221.768,-347.427 213.967,-340.257 211.199,-346.687"/>
</g>
<!-- Node100 -->
<g id="node11" class="node"><title>Node100</title>
<g id="a_node11"><a xlink:href="../../d4/dc8/class_wi_fi_manager.html#a47e4c7df7478f690c53ff9f5125c9760" target="_top" xlink:title="WiFiManager::handleRoot">
<polygon fill="white" stroke="black" points="180,-404.5 180,-423.5 310,-423.5 310,-404.5 180,-404.5"/>
<text text-anchor="middle" x="245" y="-411.5" font-family="Helvetica,sans-Serif" font-size="10.00">WiFiManager::handleRoot</text>
</a>
</g>
</g>
<!-- Node90&#45;&gt;Node100 -->
<g id="edge14" class="edge"><title>Node90&#45;&gt;Node100</title>
<path fill="none" stroke="midnightblue" d="M81.1611,-296.24C99.6709,-316.28 134.396,-351.781 169,-376 182.312,-385.317 198.227,-393.716 211.965,-400.234"/>
<polygon fill="midnightblue" stroke="midnightblue" points="210.523,-403.423 221.069,-404.434 213.455,-397.066 210.523,-403.423"/>
</g>
<!-- Node101 -->
<g id="node12" class="node"><title>Node101</title>
<g id="a_node12"><a xlink:href="../../d4/dc8/class_wi_fi_manager.html#a57a9048175c1918340ab9d0a2c53601f" target="_top" xlink:title="WiFiManager::handleWifi">
<polygon fill="white" stroke="black" points="182,-107.5 182,-126.5 308,-126.5 308,-107.5 182,-107.5"/>
<text text-anchor="middle" x="245" y="-114.5" font-family="Helvetica,sans-Serif" font-size="10.00">WiFiManager::handleWifi</text>
</a>
</g>
</g>
<!-- Node90&#45;&gt;Node101 -->
<g id="edge17" class="edge"><title>Node90&#45;&gt;Node101</title>
<path fill="none" stroke="midnightblue" d="M83.7883,-265.865C116.813,-235.179 191.438,-165.839 225.914,-133.805"/>
<polygon fill="midnightblue" stroke="midnightblue" points="228.446,-136.23 233.389,-126.859 223.681,-131.102 228.446,-136.23"/>
</g>
<!-- Node104 -->
<g id="node15" class="node"><title>Node104</title>
<g id="a_node15"><a xlink:href="../../d4/dc8/class_wi_fi_manager.html#a2a8c2b60aa86dfdeab8a1a90f7122dc7" target="_top" xlink:title="WiFiManager::handleWifiSave">
<polygon fill="white" stroke="black" points="170.5,-214.5 170.5,-233.5 319.5,-233.5 319.5,-214.5 170.5,-214.5"/>
<text text-anchor="middle" x="245" y="-221.5" font-family="Helvetica,sans-Serif" font-size="10.00">WiFiManager::handleWifiSave</text>
</a>
</g>
</g>
<!-- Node90&#45;&gt;Node104 -->
<g id="edge21" class="edge"><title>Node90&#45;&gt;Node104</title>
<path fill="none" stroke="midnightblue" d="M113.719,-265.923C131.052,-260.282 150.924,-253.83 169,-248 180.472,-244.3 192.939,-240.301 204.354,-236.649"/>
<polygon fill="midnightblue" stroke="midnightblue" points="205.604,-239.924 214.063,-233.545 203.472,-233.256 205.604,-239.924"/>
</g>
<!-- Node92&#45;&gt;Node91 -->
<g id="edge3" class="edge"><title>Node92&#45;&gt;Node91</title>
<path fill="none" stroke="midnightblue" d="M319.194,-296.292C383.128,-293.052 475.736,-288.36 541.477,-285.029"/>
<polygon fill="midnightblue" stroke="midnightblue" points="541.979,-288.508 551.789,-284.507 541.625,-281.517 541.979,-288.508"/>
</g>
<!-- Node93 -->
<g id="node4" class="node"><title>Node93</title>
<g id="a_node4"><a xlink:href="../../d4/dc8/class_wi_fi_manager.html#a40f123fd290c3e331c9785d19a88f3b8" target="_top" xlink:title="WiFiManager::getContentType">
<polygon fill="white" stroke="black" points="361.5,-328.5 361.5,-347.5 511.5,-347.5 511.5,-328.5 361.5,-328.5"/>
<text text-anchor="middle" x="436.5" y="-335.5" font-family="Helvetica,sans-Serif" font-size="10.00">WiFiManager::getContentType</text>
</a>
</g>
</g>
<!-- Node92&#45;&gt;Node93 -->
<g id="edge4" class="edge"><title>Node92&#45;&gt;Node93</title>
<path fill="none" stroke="midnightblue" d="M293.819,-309.589C319.389,-314.716 351.059,-321.067 377.968,-326.463"/>
<polygon fill="midnightblue" stroke="midnightblue" points="377.532,-329.945 388.025,-328.48 378.908,-323.082 377.532,-329.945"/>
</g>
<!-- Node94&#45;&gt;Node91 -->
<g id="edge6" class="edge"><title>Node94&#45;&gt;Node91</title>
<path fill="none" stroke="midnightblue" d="M499.012,-18.7568C505.171,-21.372 510.988,-24.7205 516,-29 589.256,-91.5514 612.376,-213.618 618.793,-261.273"/>
<polygon fill="midnightblue" stroke="midnightblue" points="615.354,-261.976 620.059,-271.468 622.3,-261.113 615.354,-261.976"/>
</g>
<!-- Node96 -->
<g id="node7" class="node"><title>Node96</title>
<g id="a_node7"><a xlink:href="../../d4/dc8/class_wi_fi_manager.html#a4ef4298deb224212e5242c456669a973" target="_top" xlink:title="WiFiManager::captivePortal">
<polygon fill="white" stroke="black" points="368,-442.5 368,-461.5 505,-461.5 505,-442.5 368,-442.5"/>
<text text-anchor="middle" x="436.5" y="-449.5" font-family="Helvetica,sans-Serif" font-size="10.00">WiFiManager::captivePortal</text>
</a>
</g>
</g>
<!-- Node95&#45;&gt;Node96 -->
<g id="edge8" class="edge"><title>Node95&#45;&gt;Node96</title>
<path fill="none" stroke="midnightblue" d="M321.168,-452C333.196,-452 345.665,-452 357.753,-452"/>
<polygon fill="midnightblue" stroke="midnightblue" points="357.798,-455.5 367.798,-452 357.798,-448.5 357.798,-455.5"/>
</g>
<!-- Node96&#45;&gt;Node91 -->
<g id="edge10" class="edge"><title>Node96&#45;&gt;Node91</title>
<path fill="none" stroke="midnightblue" d="M486.312,-442.471C496.717,-439.01 507.208,-434.325 516,-428 563.577,-393.773 597.645,-331.184 612.574,-299.879"/>
<polygon fill="midnightblue" stroke="midnightblue" points="615.869,-301.093 616.895,-290.548 609.517,-298.151 615.869,-301.093"/>
</g>
<!-- Node97 -->
<g id="node8" class="node"><title>Node97</title>
<g id="a_node8"><a xlink:href="../../d4/dc8/class_wi_fi_manager.html#a9c78a8774f746ec22a99d03a53baa607" target="_top" xlink:title="WiFiManager::isIp">
<polygon fill="white" stroke="black" points="574,-423.5 574,-442.5 670,-442.5 670,-423.5 574,-423.5"/>
<text text-anchor="middle" x="622" y="-430.5" font-family="Helvetica,sans-Serif" font-size="10.00">WiFiManager::isIp</text>
</a>
</g>
</g>
<!-- Node96&#45;&gt;Node97 -->
<g id="edge9" class="edge"><title>Node96&#45;&gt;Node97</title>
<path fill="none" stroke="midnightblue" d="M505.047,-445.006C524.361,-443.006 545.216,-440.847 563.843,-438.918"/>
<polygon fill="midnightblue" stroke="midnightblue" points="564.352,-442.384 573.938,-437.873 563.631,-435.422 564.352,-442.384"/>
</g>
<!-- Node98 -->
<g id="node9" class="node"><title>Node98</title>
<g id="a_node9"><a xlink:href="../../d4/dc8/class_wi_fi_manager.html#a8dfd64cefecbdf26242b16eca335c20b" target="_top" xlink:title="WiFiManager::toStringIp">
<polygon fill="white" stroke="black" points="561,-461.5 561,-480.5 683,-480.5 683,-461.5 561,-461.5"/>
<text text-anchor="middle" x="622" y="-468.5" font-family="Helvetica,sans-Serif" font-size="10.00">WiFiManager::toStringIp</text>
</a>
</g>
</g>
<!-- Node96&#45;&gt;Node98 -->
<g id="edge11" class="edge"><title>Node96&#45;&gt;Node98</title>
<path fill="none" stroke="midnightblue" d="M505.047,-458.994C519.909,-460.533 535.684,-462.166 550.654,-463.716"/>
<polygon fill="midnightblue" stroke="midnightblue" points="550.561,-467.225 560.868,-464.774 551.282,-460.262 550.561,-467.225"/>
</g>
<!-- Node99&#45;&gt;Node91 -->
<g id="edge13" class="edge"><title>Node99&#45;&gt;Node91</title>
<path fill="none" stroke="midnightblue" d="M299.513,-366.501C355.1,-374.204 443.87,-380.365 516,-357 551.778,-345.41 585.592,-316.562 604.758,-297.929"/>
<polygon fill="midnightblue" stroke="midnightblue" points="607.442,-300.195 612.038,-290.649 602.492,-295.245 607.442,-300.195"/>
</g>
<!-- Node100&#45;&gt;Node91 -->
<g id="edge15" class="edge"><title>Node100&#45;&gt;Node91</title>
<path fill="none" stroke="midnightblue" d="M310.201,-416.89C366.947,-416.953 450.619,-410.83 516,-380 555.611,-361.321 590.082,-321.995 607.965,-298.926"/>
<polygon fill="midnightblue" stroke="midnightblue" points="610.954,-300.775 614.183,-290.684 605.366,-296.559 610.954,-300.775"/>
</g>
<!-- Node100&#45;&gt;Node96 -->
<g id="edge16" class="edge"><title>Node100&#45;&gt;Node96</title>
<path fill="none" stroke="midnightblue" d="M293.819,-423.589C319.389,-428.716 351.059,-435.067 377.968,-440.463"/>
<polygon fill="midnightblue" stroke="midnightblue" points="377.532,-443.945 388.025,-442.48 378.908,-437.082 377.532,-443.945"/>
</g>
<!-- Node101&#45;&gt;Node91 -->
<g id="edge18" class="edge"><title>Node101&#45;&gt;Node91</title>
<path fill="none" stroke="midnightblue" d="M308.074,-120.571C376.462,-125.4 481.361,-135.718 516,-155 561.624,-180.397 595.763,-234.062 611.46,-262.465"/>
<polygon fill="midnightblue" stroke="midnightblue" points="608.423,-264.209 616.231,-271.371 614.593,-260.903 608.423,-264.209"/>
</g>
<!-- Node102 -->
<g id="node13" class="node"><title>Node102</title>
<g id="a_node13"><a xlink:href="../../d4/dc8/class_wi_fi_manager.html#ae71cfd6bd70ada2ca02e1d20b152d0e5" target="_top" xlink:title="WiFiManager::getRSSIasQuality">
<polygon fill="white" stroke="black" points="357,-88.5 357,-107.5 516,-107.5 516,-88.5 357,-88.5"/>
<text text-anchor="middle" x="436.5" y="-95.5" font-family="Helvetica,sans-Serif" font-size="10.00">WiFiManager::getRSSIasQuality</text>
</a>
</g>
</g>
<!-- Node101&#45;&gt;Node102 -->
<g id="edge19" class="edge"><title>Node101&#45;&gt;Node102</title>
<path fill="none" stroke="midnightblue" d="M308.049,-110.779C320.436,-109.537 333.672,-108.21 346.755,-106.898"/>
<polygon fill="midnightblue" stroke="midnightblue" points="347.112,-110.38 356.713,-105.9 346.413,-103.415 347.112,-110.38"/>
</g>
<!-- Node103 -->
<g id="node14" class="node"><title>Node103</title>
<g id="a_node14"><a xlink:href="../../d7/d08/class_wi_fi_manager_parameter.html#a596273c189eb40107500cee3ad31b13b" target="_top" xlink:title="WiFiManagerParameter\l::getCustomHTML">
<polygon fill="white" stroke="black" points="377,-39 377,-69 496,-69 496,-39 377,-39"/>
<text text-anchor="start" x="385" y="-57" font-family="Helvetica,sans-Serif" font-size="10.00">WiFiManagerParameter</text>
<text text-anchor="middle" x="436.5" y="-46" font-family="Helvetica,sans-Serif" font-size="10.00">::getCustomHTML</text>
</a>
</g>
</g>
<!-- Node101&#45;&gt;Node103 -->
<g id="edge20" class="edge"><title>Node101&#45;&gt;Node103</title>
<path fill="none" stroke="midnightblue" d="M273.315,-107.466C295.749,-99.6795 328.376,-88.4564 357,-79 363.816,-76.7483 370.976,-74.4185 378.085,-72.128"/>
<polygon fill="midnightblue" stroke="midnightblue" points="379.255,-75.4282 387.707,-69.0398 377.116,-68.763 379.255,-75.4282"/>
</g>
<!-- Node104&#45;&gt;Node91 -->
<g id="edge22" class="edge"><title>Node104&#45;&gt;Node91</title>
<path fill="none" stroke="midnightblue" d="M319.663,-226.26C374.29,-228.97 450.347,-234.925 516,-248 539.996,-252.779 566.257,-261.033 586.513,-268.091"/>
<polygon fill="midnightblue" stroke="midnightblue" points="585.344,-271.39 595.938,-271.439 587.687,-264.793 585.344,-271.39"/>
</g>
<!-- Node105 -->
<g id="node16" class="node"><title>Node105</title>
<g id="a_node16"><a xlink:href="../../d4/dc8/class_wi_fi_manager.html#a6a94f08eb43e0871932556a4ccfa11b7" target="_top" xlink:title="WiFiManager::optionalIPFrom\lString">
<polygon fill="white" stroke="black" points="363.5,-165 363.5,-195 509.5,-195 509.5,-165 363.5,-165"/>
<text text-anchor="start" x="371.5" y="-183" font-family="Helvetica,sans-Serif" font-size="10.00">WiFiManager::optionalIPFrom</text>
<text text-anchor="middle" x="436.5" y="-172" font-family="Helvetica,sans-Serif" font-size="10.00">String</text>
</a>
</g>
</g>
<!-- Node104&#45;&gt;Node105 -->
<g id="edge23" class="edge"><title>Node104&#45;&gt;Node105</title>
<path fill="none" stroke="midnightblue" d="M287.119,-214.453C308.645,-209.455 335.677,-203.178 360.752,-197.356"/>
<polygon fill="midnightblue" stroke="midnightblue" points="361.667,-200.736 370.616,-195.065 360.084,-193.918 361.667,-200.736"/>
</g>
</g>
</svg>
