<?xml version="1.0" encoding="UTF-8" standalone="no"?>
<!DOCTYPE svg PUBLIC "-//W3C//DTD SVG 1.1//EN"
 "http://www.w3.org/Graphics/SVG/1.1/DTD/svg11.dtd">
<!-- Generated by graphviz version 2.38.0 (20140413.2041)
 -->
<!-- Title: WiFiManager::handleWifiSave Pages: 1 -->
<svg width="339pt" height="78pt"
 viewBox="0.00 0.00 339.00 77.50" xmlns="http://www.w3.org/2000/svg" xmlns:xlink="http://www.w3.org/1999/xlink">
<g id="graph0" class="graph" transform="scale(1 1) rotate(0) translate(4 73.5)">
<title>WiFiManager::handleWifiSave</title>
<polygon fill="white" stroke="none" points="-4,4 -4,-73.5 335,-73.5 335,4 -4,4"/>
<!-- Node142 -->
<g id="node1" class="node"><title>Node142</title>
<polygon fill="#bfbfbf" stroke="black" points="0,-28 0,-47 149,-47 149,-28 0,-28"/>
<text text-anchor="middle" x="74.5" y="-35" font-family="Helvetica,sans-Serif" font-size="10.00">WiFiManager::handleWifiSave</text>
</g>
<!-- Node143 -->
<g id="node2" class="node"><title>Node143</title>
<g id="a_node2"><a xlink:href="../../d4/dc8/class_wi_fi_manager.html#ae5f595c670ccbcf9a191baf50f5c7c26" target="_top" xlink:title="WiFiManager::DEBUG_WM">
<polygon fill="white" stroke="black" points="188,-50 188,-69 328,-69 328,-50 188,-50"/>
<text text-anchor="middle" x="258" y="-57" font-family="Helvetica,sans-Serif" font-size="10.00">WiFiManager::DEBUG_WM</text>
</a>
</g>
</g>
<!-- Node142&#45;&gt;Node143 -->
<g id="edge1" class="edge"><title>Node142&#45;&gt;Node143</title>
<path fill="none" stroke="midnightblue" d="M149.061,-46.4165C158.443,-47.5536 168.078,-48.7216 177.547,-49.8693"/>
<polygon fill="midnightblue" stroke="midnightblue" points="177.388,-53.3756 187.736,-51.1044 178.23,-46.4264 177.388,-53.3756"/>
</g>
<!-- Node144 -->
<g id="node3" class="node"><title>Node144</title>
<g id="a_node3"><a xlink:href="../../d4/dc8/class_wi_fi_manager.html#a6a94f08eb43e0871932556a4ccfa11b7" target="_top" xlink:title="WiFiManager::optionalIPFrom\lString">
<polygon fill="white" stroke="black" points="185,-0.5 185,-30.5 331,-30.5 331,-0.5 185,-0.5"/>
<text text-anchor="start" x="193" y="-18.5" font-family="Helvetica,sans-Serif" font-size="10.00">WiFiManager::optionalIPFrom</text>
<text text-anchor="middle" x="258" y="-7.5" font-family="Helvetica,sans-Serif" font-size="10.00">String</text>
</a>
</g>
</g>
<!-- Node142&#45;&gt;Node144 -->
<g id="edge2" class="edge"><title>Node142&#45;&gt;Node144</title>
<path fill="none" stroke="midnightblue" d="M149.061,-28.5835C157.537,-27.5562 166.22,-26.5037 174.8,-25.4637"/>
<polygon fill="midnightblue" stroke="midnightblue" points="175.3,-28.9288 184.806,-24.2508 174.457,-21.9796 175.3,-28.9288"/>
</g>
</g>
</svg>
