<?xml version="1.0" encoding="UTF-8" standalone="no"?>
<!DOCTYPE svg PUBLIC "-//W3C//DTD SVG 1.1//EN"
 "http://www.w3.org/Graphics/SVG/1.1/DTD/svg11.dtd">
<!-- Generated by graphviz version 2.38.0 (20140413.2041)
 -->
<!-- Title: CoolTime.h Pages: 1 -->
<svg width="179pt" height="140pt"
 viewBox="0.00 0.00 179.00 140.00" xmlns="http://www.w3.org/2000/svg" xmlns:xlink="http://www.w3.org/1999/xlink">
<g id="graph0" class="graph" transform="scale(1 1) rotate(0) translate(4 136)">
<title>CoolTime.h</title>
<polygon fill="white" stroke="none" points="-4,4 -4,-136 175,-136 175,4 -4,4"/>
<!-- Node5 -->
<g id="node1" class="node"><title>Node5</title>
<polygon fill="#bfbfbf" stroke="black" points="53,-112.5 53,-131.5 120,-131.5 120,-112.5 53,-112.5"/>
<text text-anchor="middle" x="86.5" y="-119.5" font-family="Helvetica,sans-Serif" font-size="10.00">CoolTime.h</text>
</g>
<!-- Node6 -->
<g id="node2" class="node"><title>Node6</title>
<g id="a_node2"><a xlink:href="../../d5/d51/_cool_board_8h.html" target="_top" xlink:title="CoolBoard Header file. ">
<polygon fill="white" stroke="black" points="5,-56.5 5,-75.5 76,-75.5 76,-56.5 5,-56.5"/>
<text text-anchor="middle" x="40.5" y="-63.5" font-family="Helvetica,sans-Serif" font-size="10.00">CoolBoard.h</text>
</a>
</g>
</g>
<!-- Node5&#45;&gt;Node6 -->
<g id="edge1" class="edge"><title>Node5&#45;&gt;Node6</title>
<path fill="none" stroke="midnightblue" d="M72.386,-104.431C64.324,-94.9673 54.5408,-83.4827 47.9546,-75.7511"/>
<polygon fill="midnightblue" stroke="midnightblue" points="69.755,-106.74 78.904,-112.083 75.0837,-102.201 69.755,-106.74"/>
</g>
<!-- Node8 -->
<g id="node4" class="node"><title>Node8</title>
<g id="a_node4"><a xlink:href="../../db/d75/_cool_time_8cpp.html" target="_top" xlink:title="CoolTime Source file. ">
<polygon fill="white" stroke="black" points="94,-56.5 94,-75.5 171,-75.5 171,-56.5 94,-56.5"/>
<text text-anchor="middle" x="132.5" y="-63.5" font-family="Helvetica,sans-Serif" font-size="10.00">CoolTime.cpp</text>
</a>
</g>
</g>
<!-- Node5&#45;&gt;Node8 -->
<g id="edge3" class="edge"><title>Node5&#45;&gt;Node8</title>
<path fill="none" stroke="midnightblue" d="M100.614,-104.431C108.676,-94.9673 118.459,-83.4827 125.045,-75.7511"/>
<polygon fill="midnightblue" stroke="midnightblue" points="97.9163,-102.201 94.096,-112.083 103.245,-106.74 97.9163,-102.201"/>
</g>
<!-- Node7 -->
<g id="node3" class="node"><title>Node7</title>
<g id="a_node3"><a xlink:href="../../d9/d50/_cool_board_8cpp.html" target="_top" xlink:title="CoolBoard Source file. ">
<polygon fill="white" stroke="black" points="0,-0.5 0,-19.5 81,-19.5 81,-0.5 0,-0.5"/>
<text text-anchor="middle" x="40.5" y="-7.5" font-family="Helvetica,sans-Serif" font-size="10.00">CoolBoard.cpp</text>
</a>
</g>
</g>
<!-- Node6&#45;&gt;Node7 -->
<g id="edge2" class="edge"><title>Node6&#45;&gt;Node7</title>
<path fill="none" stroke="midnightblue" d="M40.5,-45.8045C40.5,-36.9102 40.5,-26.7798 40.5,-19.7511"/>
<polygon fill="midnightblue" stroke="midnightblue" points="37.0001,-46.083 40.5,-56.083 44.0001,-46.083 37.0001,-46.083"/>
</g>
</g>
</svg>
