<?xml version="1.0" encoding="UTF-8" standalone="no"?>
<!DOCTYPE svg PUBLIC "-//W3C//DTD SVG 1.1//EN"
 "http://www.w3.org/Graphics/SVG/1.1/DTD/svg11.dtd">
<!-- Generated by graphviz version 2.38.0 (20140413.2041)
 -->
<!-- Title: CoolBoardLed::strobe Pages: 1 -->
<svg width="436pt" height="142pt"
 viewBox="0.00 0.00 436.00 142.00" xmlns="http://www.w3.org/2000/svg" xmlns:xlink="http://www.w3.org/1999/xlink">
<g id="graph0" class="graph" transform="scale(1 1) rotate(0) translate(4 138)">
<title>CoolBoardLed::strobe</title>
<polygon fill="white" stroke="none" points="-4,4 -4,-138 432,-138 432,4 -4,4"/>
<!-- Node45 -->
<g id="node1" class="node"><title>Node45</title>
<polygon fill="#bfbfbf" stroke="black" points="0,-57.5 0,-76.5 111,-76.5 111,-57.5 0,-57.5"/>
<text text-anchor="middle" x="55.5" y="-64.5" font-family="Helvetica,sans-Serif" font-size="10.00">CoolBoardLed::strobe</text>
</g>
<!-- Node46 -->
<g id="node2" class="node"><title>Node46</title>
<g id="a_node2"><a xlink:href="../../d7/df9/class_cool_board.html#a583a874c09c07e70a6eb9229fc4beddb" target="_top" xlink:title="CoolBoard::config">
<polygon fill="white" stroke="black" points="161,-114.5 161,-133.5 256,-133.5 256,-114.5 161,-114.5"/>
<text text-anchor="middle" x="208.5" y="-121.5" font-family="Helvetica,sans-Serif" font-size="10.00">CoolBoard::config</text>
</a>
</g>
</g>
<!-- Node45&#45;&gt;Node46 -->
<g id="edge1" class="edge"><title>Node45&#45;&gt;Node46</title>
<path fill="none" stroke="midnightblue" d="M91.4763,-80.203C119.202,-90.669 157.289,-105.046 182.144,-114.428"/>
<polygon fill="midnightblue" stroke="midnightblue" points="92.3657,-76.7977 81.774,-76.5405 89.8936,-83.3466 92.3657,-76.7977"/>
</g>
<!-- Node47 -->
<g id="node3" class="node"><title>Node47</title>
<g id="a_node3"><a xlink:href="../../d7/df9/class_cool_board.html#aa0bbc4bc605e35618d18e68795c61363" target="_top" xlink:title="CoolBoard::onLineMode">
<polygon fill="white" stroke="black" points="306.5,-38.5 306.5,-57.5 427.5,-57.5 427.5,-38.5 306.5,-38.5"/>
<text text-anchor="middle" x="367" y="-45.5" font-family="Helvetica,sans-Serif" font-size="10.00">CoolBoard::onLineMode</text>
</a>
</g>
</g>
<!-- Node45&#45;&gt;Node47 -->
<g id="edge2" class="edge"><title>Node45&#45;&gt;Node47</title>
<path fill="none" stroke="midnightblue" d="M121.239,-70.2748C163.652,-71.6144 220.244,-71.8765 270,-67 288.938,-65.1439 309.68,-61.2752 327.023,-57.5102"/>
<polygon fill="midnightblue" stroke="midnightblue" points="121.164,-66.7702 111.049,-69.9237 120.923,-73.7661 121.164,-66.7702"/>
</g>
<!-- Node48 -->
<g id="node4" class="node"><title>Node48</title>
<g id="a_node4"><a xlink:href="../../d7/df9/class_cool_board.html#ad03abdce2e65f520bbf2cff0f2d083cf" target="_top" xlink:title="CoolBoard::readSensors">
<polygon fill="white" stroke="black" points="147,-0.5 147,-19.5 270,-19.5 270,-0.5 147,-0.5"/>
<text text-anchor="middle" x="208.5" y="-7.5" font-family="Helvetica,sans-Serif" font-size="10.00">CoolBoard::readSensors</text>
</a>
</g>
</g>
<!-- Node45&#45;&gt;Node48 -->
<g id="edge3" class="edge"><title>Node45&#45;&gt;Node48</title>
<path fill="none" stroke="midnightblue" d="M87.4647,-53.1549C104.814,-45.6116 126.935,-36.3452 147,-29 156.098,-25.6696 166.09,-22.3838 175.286,-19.5054"/>
<polygon fill="midnightblue" stroke="midnightblue" points="85.6056,-50.1483 77.8529,-57.3696 88.4167,-56.5591 85.6056,-50.1483"/>
</g>
<!-- Node50 -->
<g id="node6" class="node"><title>Node50</title>
<g id="a_node6"><a xlink:href="../../d7/df9/class_cool_board.html#a8612756d3f73198cdde857a66f0fe690" target="_top" xlink:title="CoolBoard::update">
<polygon fill="white" stroke="black" points="159.5,-38.5 159.5,-57.5 257.5,-57.5 257.5,-38.5 159.5,-38.5"/>
<text text-anchor="middle" x="208.5" y="-45.5" font-family="Helvetica,sans-Serif" font-size="10.00">CoolBoard::update</text>
</a>
</g>
</g>
<!-- Node45&#45;&gt;Node50 -->
<g id="edge6" class="edge"><title>Node45&#45;&gt;Node50</title>
<path fill="none" stroke="midnightblue" d="M121.105,-58.8709C133.835,-57.2691 146.988,-55.6141 159.074,-54.0934"/>
<polygon fill="midnightblue" stroke="midnightblue" points="120.499,-55.4194 111.014,-60.1406 121.373,-62.3647 120.499,-55.4194"/>
</g>
<!-- Node48&#45;&gt;Node47 -->
<g id="edge5" class="edge"><title>Node48&#45;&gt;Node47</title>
<path fill="none" stroke="midnightblue" d="M258.789,-21.968C280.72,-27.2931 306.185,-33.4762 326.792,-38.4799"/>
<polygon fill="midnightblue" stroke="midnightblue" points="259.535,-18.5475 248.992,-19.589 257.883,-25.3498 259.535,-18.5475"/>
</g>
<!-- Node49 -->
<g id="node5" class="node"><title>Node49</title>
<g id="a_node5"><a xlink:href="../../d7/df9/class_cool_board.html#ae6b5e1274d760462290192acea4adca8" target="_top" xlink:title="CoolBoard::offLineMode">
<polygon fill="white" stroke="black" points="306,-0.5 306,-19.5 428,-19.5 428,-0.5 306,-0.5"/>
<text text-anchor="middle" x="367" y="-7.5" font-family="Helvetica,sans-Serif" font-size="10.00">CoolBoard::offLineMode</text>
</a>
</g>
</g>
<!-- Node48&#45;&gt;Node49 -->
<g id="edge4" class="edge"><title>Node48&#45;&gt;Node49</title>
<path fill="none" stroke="midnightblue" d="M280.059,-10C288.692,-10 297.452,-10 305.912,-10"/>
<polygon fill="midnightblue" stroke="midnightblue" points="280.007,-6.5001 270.007,-10 280.007,-13.5001 280.007,-6.5001"/>
</g>
<!-- Node50&#45;&gt;Node47 -->
<g id="edge7" class="edge"><title>Node50&#45;&gt;Node47</title>
<path fill="none" stroke="midnightblue" d="M268.041,-48C280.551,-48 293.781,-48 306.333,-48"/>
<polygon fill="midnightblue" stroke="midnightblue" points="267.732,-44.5001 257.732,-48 267.732,-51.5001 267.732,-44.5001"/>
</g>
</g>
</svg>
