<?xml version="1.0" encoding="UTF-8" standalone="no"?>
<!DOCTYPE svg PUBLIC "-//W3C//DTD SVG 1.1//EN"
 "http://www.w3.org/Graphics/SVG/1.1/DTD/svg11.dtd">
<!-- Generated by graphviz version 2.38.0 (20140413.2041)
 -->
<!-- Title: CoolBoardLed::fadeIn Pages: 1 -->
<svg width="436pt" height="180pt"
 viewBox="0.00 0.00 436.00 180.00" xmlns="http://www.w3.org/2000/svg" xmlns:xlink="http://www.w3.org/1999/xlink">
<g id="graph0" class="graph" transform="scale(1 1) rotate(0) translate(4 176)">
<title>CoolBoardLed::fadeIn</title>
<polygon fill="white" stroke="none" points="-4,4 -4,-176 432,-176 432,4 -4,4"/>
<!-- Node30 -->
<g id="node1" class="node"><title>Node30</title>
<polygon fill="#bfbfbf" stroke="black" points="0,-76.5 0,-95.5 111,-95.5 111,-76.5 0,-76.5"/>
<text text-anchor="middle" x="55.5" y="-83.5" font-family="Helvetica,sans-Serif" font-size="10.00">CoolBoardLed::fadeIn</text>
</g>
<!-- Node31 -->
<g id="node2" class="node"><title>Node31</title>
<g id="a_node2"><a xlink:href="../../d7/df9/class_cool_board.html#a583a874c09c07e70a6eb9229fc4beddb" target="_top" xlink:title="CoolBoard::config">
<polygon fill="white" stroke="black" points="161,-152.5 161,-171.5 256,-171.5 256,-152.5 161,-152.5"/>
<text text-anchor="middle" x="208.5" y="-159.5" font-family="Helvetica,sans-Serif" font-size="10.00">CoolBoard::config</text>
</a>
</g>
</g>
<!-- Node30&#45;&gt;Node31 -->
<g id="edge1" class="edge"><title>Node30&#45;&gt;Node31</title>
<path fill="none" stroke="midnightblue" d="M80.1675,-100.854C98.1365,-111.82 123.652,-126.734 147,-138 157.889,-143.255 170.245,-148.309 180.939,-152.413"/>
<polygon fill="midnightblue" stroke="midnightblue" points="81.8598,-97.7854 71.5102,-95.5192 78.1877,-103.745 81.8598,-97.7854"/>
</g>
<!-- Node32 -->
<g id="node3" class="node"><title>Node32</title>
<g id="a_node3"><a xlink:href="../../d7/df9/class_cool_board.html#ae6b5e1274d760462290192acea4adca8" target="_top" xlink:title="CoolBoard::offLineMode">
<polygon fill="white" stroke="black" points="306,-95.5 306,-114.5 428,-114.5 428,-95.5 306,-95.5"/>
<text text-anchor="middle" x="367" y="-102.5" font-family="Helvetica,sans-Serif" font-size="10.00">CoolBoard::offLineMode</text>
</a>
</g>
</g>
<!-- Node30&#45;&gt;Node32 -->
<g id="edge2" class="edge"><title>Node30&#45;&gt;Node32</title>
<path fill="none" stroke="midnightblue" d="M103.122,-97.7112C117.133,-100.709 132.608,-103.506 147,-105 200.512,-110.557 261.776,-109.971 305.874,-108.335"/>
<polygon fill="midnightblue" stroke="midnightblue" points="103.735,-94.2622 93.2137,-95.5091 102.216,-101.095 103.735,-94.2622"/>
</g>
<!-- Node33 -->
<g id="node4" class="node"><title>Node33</title>
<g id="a_node4"><a xlink:href="../../d7/df9/class_cool_board.html#aa0bbc4bc605e35618d18e68795c61363" target="_top" xlink:title="CoolBoard::onLineMode">
<polygon fill="white" stroke="black" points="306.5,-38.5 306.5,-57.5 427.5,-57.5 427.5,-38.5 306.5,-38.5"/>
<text text-anchor="middle" x="367" y="-45.5" font-family="Helvetica,sans-Serif" font-size="10.00">CoolBoard::onLineMode</text>
</a>
</g>
</g>
<!-- Node30&#45;&gt;Node33 -->
<g id="edge3" class="edge"><title>Node30&#45;&gt;Node33</title>
<path fill="none" stroke="midnightblue" d="M107.014,-74.2732C119.99,-71.57 133.967,-68.9263 147,-67 200.61,-59.0763 262.128,-54.0971 306.286,-51.2337"/>
<polygon fill="midnightblue" stroke="midnightblue" points="105.907,-70.9305 96.8587,-76.4414 107.369,-77.7762 105.907,-70.9305"/>
</g>
<!-- Node34 -->
<g id="node5" class="node"><title>Node34</title>
<g id="a_node5"><a xlink:href="../../d7/df9/class_cool_board.html#ad03abdce2e65f520bbf2cff0f2d083cf" target="_top" xlink:title="CoolBoard::readSensors">
<polygon fill="white" stroke="black" points="147,-76.5 147,-95.5 270,-95.5 270,-76.5 147,-76.5"/>
<text text-anchor="middle" x="208.5" y="-83.5" font-family="Helvetica,sans-Serif" font-size="10.00">CoolBoard::readSensors</text>
</a>
</g>
</g>
<!-- Node30&#45;&gt;Node34 -->
<g id="edge4" class="edge"><title>Node30&#45;&gt;Node34</title>
<path fill="none" stroke="midnightblue" d="M121.276,-86C129.788,-86 138.486,-86 146.925,-86"/>
<polygon fill="midnightblue" stroke="midnightblue" points="121.014,-82.5001 111.014,-86 121.014,-89.5001 121.014,-82.5001"/>
</g>
<!-- Node35 -->
<g id="node6" class="node"><title>Node35</title>
<g id="a_node6"><a xlink:href="../../d7/df9/class_cool_board.html#a8612756d3f73198cdde857a66f0fe690" target="_top" xlink:title="CoolBoard::update">
<polygon fill="white" stroke="black" points="159.5,-0.5 159.5,-19.5 257.5,-19.5 257.5,-0.5 159.5,-0.5"/>
<text text-anchor="middle" x="208.5" y="-7.5" font-family="Helvetica,sans-Serif" font-size="10.00">CoolBoard::update</text>
</a>
</g>
</g>
<!-- Node30&#45;&gt;Node35 -->
<g id="edge7" class="edge"><title>Node30&#45;&gt;Node35</title>
<path fill="none" stroke="midnightblue" d="M80.1675,-71.1463C98.1365,-60.1802 123.652,-45.2664 147,-34 157.889,-28.7454 170.245,-23.6906 180.939,-19.5865"/>
<polygon fill="midnightblue" stroke="midnightblue" points="78.1877,-68.2551 71.5102,-76.4808 81.8598,-74.2146 78.1877,-68.2551"/>
</g>
<!-- Node34&#45;&gt;Node32 -->
<g id="edge5" class="edge"><title>Node34&#45;&gt;Node32</title>
<path fill="none" stroke="midnightblue" d="M280.059,-94.5662C288.692,-95.6144 297.452,-96.6779 305.912,-97.7049"/>
<polygon fill="midnightblue" stroke="midnightblue" points="280.356,-91.0767 270.007,-93.3459 279.512,-98.0257 280.356,-91.0767"/>
</g>
<!-- Node34&#45;&gt;Node33 -->
<g id="edge6" class="edge"><title>Node34&#45;&gt;Node33</title>
<path fill="none" stroke="midnightblue" d="M258.789,-74.032C280.72,-68.7069 306.185,-62.5238 326.792,-57.5201"/>
<polygon fill="midnightblue" stroke="midnightblue" points="257.883,-70.6502 248.992,-76.411 259.535,-77.4525 257.883,-70.6502"/>
</g>
<!-- Node35&#45;&gt;Node33 -->
<g id="edge8" class="edge"><title>Node35&#45;&gt;Node33</title>
<path fill="none" stroke="midnightblue" d="M258.789,-21.968C280.72,-27.2931 306.185,-33.4762 326.792,-38.4799"/>
<polygon fill="midnightblue" stroke="midnightblue" points="259.535,-18.5475 248.992,-19.589 257.883,-25.3498 259.535,-18.5475"/>
</g>
</g>
</svg>
